<svg width="21" height="21" viewBox="0 0 21 21" fill="none" xmlns="http://www.w3.org/2000/svg">
<circle cx="10.5" cy="10.5" r="10.5" fill="#E04E39"/>
<path d="M13.334 11.8C13.386 11.371 13.425 10.942 13.425 10.5C13.425 10.058 13.386 9.629 13.334 9.2H15.531C15.635 9.616 15.7 10.0515 15.7 10.5C15.7 10.9485 15.635 11.384 15.531 11.8H13.334ZM12.1835 15.414C12.5735 14.6925 12.8725 13.9125 13.0805 13.1H14.998C14.3683 14.1844 13.3692 15.0058 12.1835 15.414ZM12.021 11.8H8.979C8.914 11.371 8.875 10.942 8.875 10.5C8.875 10.058 8.914 9.6225 8.979 9.2H12.021C12.0795 9.6225 12.125 10.058 12.125 10.5C12.125 10.942 12.0795 11.371 12.021 11.8ZM10.5 15.674C9.9605 14.894 9.525 14.0295 9.2585 13.1H11.7415C11.475 14.0295 11.0395 14.894 10.5 15.674ZM7.9 7.9H6.002C6.62526 6.81269 7.62362 5.98997 8.81 5.586C8.42 6.3075 8.1275 7.0875 7.9 7.9ZM6.002 13.1H7.9C8.1275 13.9125 8.42 14.6925 8.81 15.414C7.62611 15.0056 6.62915 14.184 6.002 13.1ZM5.469 11.8C5.365 11.384 5.3 10.9485 5.3 10.5C5.3 10.0515 5.365 9.616 5.469 9.2H7.666C7.614 9.629 7.575 10.058 7.575 10.5C7.575 10.942 7.614 11.371 7.666 11.8H5.469ZM10.5 5.3195C11.0395 6.0995 11.475 6.9705 11.7415 7.9H9.2585C9.525 6.9705 9.9605 6.0995 10.5 5.3195ZM14.998 7.9H13.0805C12.8771 7.09495 12.5758 6.31783 12.1835 5.586C13.3795 5.9955 14.374 6.821 14.998 7.9ZM10.5 4C6.9055 4 4 6.925 4 10.5C4 12.2239 4.68482 13.8772 5.90381 15.0962C6.50739 15.6998 7.22394 16.1786 8.01256 16.5052C8.80117 16.8319 9.64641 17 10.5 17C12.2239 17 13.8772 16.3152 15.0962 15.0962C16.3152 13.8772 17 12.2239 17 10.5C17 9.64641 16.8319 8.80117 16.5052 8.01256C16.1786 7.22394 15.6998 6.50739 15.0962 5.90381C14.4926 5.30023 13.7761 4.82144 12.9874 4.49478C12.1988 4.16813 11.3536 4 10.5 4Z" fill="white"/>
</svg>
