<svg width="21" height="21" viewBox="0 0 21 21" fill="none" xmlns="http://www.w3.org/2000/svg">
<circle cx="10.5" cy="10.5" r="10.5" fill="#E04E39"/>
<path d="M15.6349 6H5.36514C5.26831 6.00012 5.17548 6.04083 5.10702 6.11319C5.03857 6.18556 5.00008 6.28367 5 6.38599V7.16249C5 7.19827 5.03672 7.23933 5.06672 7.25593L10.4647 10.514C10.4785 10.5223 10.4942 10.5266 10.5101 10.5265C10.5264 10.5265 10.5424 10.522 10.5564 10.5132L15.7913 7.2591C15.8207 7.24174 15.8987 7.19585 15.928 7.17472C15.9634 7.14921 16 7.12611 16 7.08037V6.38584C15.9999 6.28354 15.9614 6.18547 15.8929 6.11314C15.8245 6.04081 15.7317 6.00012 15.6349 6Z" fill="white"/>
<path d="M15.9544 8.33329C15.9404 8.32482 15.9245 8.32042 15.9083 8.32052C15.8921 8.32063 15.8762 8.32524 15.8623 8.33389L12.8999 10.1757C12.8881 10.1829 12.8779 10.1929 12.8703 10.2049C12.8626 10.2168 12.8576 10.2305 12.8556 10.2448C12.8537 10.259 12.8547 10.2736 12.8588 10.2874C12.8629 10.3012 12.8698 10.3138 12.8791 10.3244L15.842 13.6992C15.8505 13.709 15.8608 13.7167 15.8723 13.7221C15.8838 13.7274 15.8962 13.7301 15.9087 13.73C15.9329 13.73 15.9561 13.7198 15.9732 13.7017C15.9903 13.6837 16 13.6591 16 13.6336V8.41707C16.0001 8.4001 15.9959 8.38341 15.9879 8.3687C15.9799 8.35399 15.9683 8.34177 15.9544 8.33329Z" fill="white"/>
<path d="M12.0461 10.7941C12.0321 10.7779 12.0132 10.7674 11.9926 10.7641C11.9721 10.7609 11.9511 10.7652 11.9331 10.7763L10.7457 11.5146C10.6761 11.5571 10.5973 11.5797 10.517 11.5803C10.4366 11.5808 10.3575 11.5593 10.2874 11.5178L9.24243 10.887C9.22556 10.8768 9.20607 10.8726 9.18678 10.8749C9.16749 10.8773 9.14941 10.886 9.13514 10.9L5.16686 14.7894C5.15646 14.7997 5.14847 14.8124 5.14353 14.8265C5.1386 14.8406 5.13685 14.8558 5.13843 14.8707C5.14001 14.8857 5.14488 14.9 5.15264 14.9127C5.16041 14.9253 5.17085 14.9358 5.18314 14.9434C5.24486 14.9817 5.30443 15 5.365 15H15.5297C15.5475 15 15.5649 14.9945 15.5798 14.9842C15.5946 14.9739 15.6063 14.9592 15.6133 14.9419C15.6204 14.9247 15.6226 14.9057 15.6196 14.8872C15.6166 14.8687 15.6086 14.8516 15.5964 14.8379L12.0461 10.7941Z" fill="white"/>
<path d="M8.262 10.4398C8.27251 10.4296 8.28059 10.4168 8.28558 10.4027C8.29058 10.3885 8.29234 10.3733 8.29075 10.3582C8.28915 10.3432 8.28422 10.3288 8.27638 10.3161C8.26853 10.3035 8.25798 10.293 8.24557 10.2854L5.13614 8.40877C5.12227 8.40044 5.10657 8.39611 5.09061 8.39621C5.07465 8.39631 5.059 8.40083 5.04521 8.40933C5.03143 8.41783 5.02 8.43 5.01207 8.44463C5.00413 8.45926 4.99997 8.47583 5 8.4927V13.4168C4.9999 13.4356 5.00502 13.454 5.01473 13.4698C5.02444 13.4856 5.03831 13.498 5.05462 13.5055C5.07093 13.513 5.08897 13.5153 5.10651 13.5121C5.12405 13.5089 5.14031 13.5003 5.15329 13.4874L8.262 10.4398Z" fill="white"/>
</svg>
