<svg width="31" height="31" viewBox="0 0 31 31" fill="none" xmlns="http://www.w3.org/2000/svg">
<path d="M23.7852 30.9885C19.3721 30.7757 15.4895 29.4727 11.9852 27.1402C6.83732 23.7154 3.07426 19.1678 1.09165 13.2476C0.415562 11.2279 0.0916482 9.143 0.00251759 7.01687C-0.0235694 6.38272 0.152518 5.85499 0.556867 5.37069C2.296 3.28147 4.41992 1.71782 6.95688 0.751397C8.56341 0.138967 10.0069 0.8665 10.5678 2.51051C11.183 4.30654 11.7765 6.11125 12.3656 7.91597C12.5069 8.35249 12.646 8.80421 12.6852 9.2581C12.7786 10.3418 12.533 11.3082 11.5243 11.9315C11.1547 12.1595 10.796 12.4071 10.4308 12.6395C9.14819 13.4582 9.09167 13.6363 9.98515 14.8308C11.7352 17.1697 13.7765 19.2242 16.1026 20.9942C16.3591 21.1896 16.6591 21.3308 16.9504 21.4741C17.383 21.687 17.7178 21.5914 17.9808 21.1592C18.333 20.5794 18.7026 20.0082 19.1026 19.4609C19.8069 18.4945 20.7634 18.0754 21.9482 18.3316C24.1026 18.7964 26.2156 19.4045 28.2526 20.2493C30.22 21.0659 30.8613 22.5665 30.033 24.5211C29.0982 26.7297 27.6526 28.5844 25.933 30.2371C25.2808 30.8626 24.4787 31.0515 23.7852 30.9885ZM23.4417 28.8211C23.8221 28.8233 24.2004 28.8428 24.5156 28.5562C26.0417 27.1684 27.283 25.5787 28.0765 23.6589C28.3613 22.9705 28.1721 22.5187 27.4743 22.2408C26.1091 21.6978 24.7287 21.2114 23.2982 20.8726C20.57 20.2254 21.2308 20.1146 19.8395 22.2125C18.9547 23.5503 18.1156 23.913 16.5895 23.6242C15.9547 23.5047 15.4439 23.142 14.9395 22.775C13.0439 21.3916 11.383 19.7498 9.82863 18.0059C9.01993 17.0981 8.17862 16.1968 7.63732 15.0827C6.85906 13.4843 7.26123 12.0966 8.75471 11.1757C9.14819 10.9325 9.51558 10.6502 9.91993 10.4265C10.5482 10.079 10.7069 9.61644 10.4743 8.93451C9.85689 7.11025 9.2895 5.27079 8.67862 3.44435C8.39819 2.60606 8.15906 2.49965 7.34384 2.83844C5.53514 3.59203 4.00035 4.73871 2.66774 6.16337C2.31991 6.53474 2.13731 6.97995 2.18948 7.50116C2.32209 8.84982 2.42644 10.2028 2.81339 11.5124C4.65035 17.7235 8.3721 22.4775 13.9026 25.835C16.8352 27.618 20.0134 28.617 23.4417 28.8211Z" fill="#C39367"/>
<path d="M16.3177 0.00217174C23.183 0.14985 29.3808 5.52925 30.683 12.3051C30.8417 13.1282 30.946 13.9665 30.996 14.8026C31.0482 15.6691 30.5787 16.2555 29.9265 16.275C29.3352 16.2924 28.896 15.7299 28.8547 14.8981C28.5265 8.30039 24.0373 3.28367 17.5199 2.24124C17.0678 2.16957 16.6025 2.17174 16.1417 2.14351C15.2438 2.08921 14.696 1.65487 14.7177 1.0142C14.7417 0.345307 15.246 0.00217174 16.2069 0C16.3178 0.00217174 16.4264 0.00217174 16.3177 0.00217174Z" fill="#C39367"/>
<path d="M16.2721 4.22625C21.9178 4.35438 26.9026 9.47969 26.8613 15.0024C26.8569 15.6843 26.42 16.2577 25.8439 16.2707C25.1504 16.2859 24.8156 15.8494 24.7113 15.2218C24.646 14.8222 24.6526 14.4117 24.6069 14.0078C24.1439 10.0357 20.6808 6.70855 16.6743 6.37845C16.3504 6.35238 16.0265 6.30243 15.7091 6.23945C15.1091 6.12218 14.683 5.79425 14.7482 5.13838C14.8134 4.49338 15.2699 4.22625 15.8938 4.22625C16.0547 4.22625 16.2178 4.22625 16.2721 4.22625Z" fill="#C39367"/>
<path d="M22.3722 14.9024C22.3787 15.758 22.0461 16.238 21.4265 16.2771C20.8157 16.314 20.3048 15.8514 20.2591 15.0696C20.12 12.6025 18.1896 10.839 16.0156 10.6848C15.0265 10.6154 14.6091 10.1441 14.6983 9.48604C14.7896 8.81281 15.3983 8.48487 16.3417 8.59781C19.7178 9.00392 22.3483 11.7533 22.3722 14.9024Z" fill="#C39367"/>
</svg>
