<svg width="23" height="19" viewBox="0 0 23 19" xmlns="http://www.w3.org/2000/svg">
<path d="M22.9976 3.81539C22.8785 3.8226 22.7594 3.83462 22.6403 3.83462C17.7909 3.83462 12.939 3.83462 8.08963 3.83462C7.64723 3.83462 7.64723 3.83462 7.64723 3.39947C7.64723 2.38251 7.65452 1.36556 7.64237 0.348602C7.63507 0.0769328 7.72744 0 7.99726 0C12.9074 0.00721245 17.8176 0.0048083 22.7278 0.0048083C22.8177 0.0048083 22.9052 0.0168291 22.9951 0.0240415C22.9976 1.28862 22.9976 2.55321 22.9976 3.81539Z"/>
<path d="M22.9976 11.3981C22.8785 11.4053 22.7594 11.4173 22.6402 11.4173C17.7908 11.4173 12.939 11.4173 8.08962 11.4173C7.64722 11.4173 7.64722 11.4173 7.64722 10.9822C7.64722 9.9652 7.65451 8.94825 7.64236 7.93129C7.63749 7.65722 7.72986 7.58029 8.00211 7.58029C12.9123 7.5875 17.8224 7.58509 22.7326 7.58509C22.8226 7.58509 22.9101 7.59711 23 7.60433C22.9976 8.87131 22.9976 10.1335 22.9976 11.3981Z"/>
<path d="M22.9976 18.9784C22.8785 18.9856 22.7594 18.9976 22.6402 18.9976C17.7908 18.9976 12.939 18.9976 8.08962 18.9976C7.64722 18.9976 7.64722 18.9976 7.64722 18.5624C7.64722 17.5455 7.65451 16.5285 7.64236 15.5116C7.63749 15.2375 7.72986 15.1606 8.00211 15.1606C12.9123 15.1678 17.8224 15.1654 22.7326 15.1654C22.8226 15.1654 22.9101 15.1774 23 15.1846C22.9976 16.4516 22.9976 17.7162 22.9976 18.9784Z"/>
<path d="M0 0.0266159C1.20567 0.0194035 2.41376 0.0145952 3.61943 0.00497857C3.78229 0.00497857 3.85278 0.0698906 3.85278 0.233373C3.85035 1.35852 3.85035 2.48366 3.85278 3.6088C3.85278 3.77228 3.78229 3.83719 3.61943 3.83719C2.41376 3.82758 1.20567 3.82277 0 3.81556C0 2.55338 0 1.28879 0 0.0266159Z"/>
<path d="M0 7.60673C1.20567 7.59952 2.41376 7.59471 3.61943 7.5851C3.78229 7.5851 3.85278 7.65001 3.85278 7.81349C3.85035 8.93863 3.85035 10.0638 3.85278 11.1889C3.85278 11.3524 3.78229 11.4173 3.61943 11.4173C2.41376 11.4101 1.20567 11.4053 0 11.3981C0 10.1335 0 8.87132 0 7.60673Z"/>
<path d="M0 15.1894C1.20567 15.1822 2.41376 15.1774 3.61943 15.1678C3.78229 15.1678 3.85278 15.2327 3.85278 15.3962C3.85035 16.5213 3.85035 17.6465 3.85278 18.7716C3.85278 18.9351 3.78229 19 3.61943 19C2.41376 18.9904 1.20567 18.9856 0 18.9784C0 17.7162 0 16.4516 0 15.1894Z"/>
</svg>
