<svg width="29" height="30" viewBox="0 0 29 30" fill="none" xmlns="http://www.w3.org/2000/svg">
<path d="M14.493 29.9839C10.7103 29.9839 6.92438 29.953 3.14169 29.9993C1.69462 30.0179 -0.0063291 28.5845 1.77082e-05 26.9472C0.0349251 20.0365 0.0127113 13.129 0.0158847 6.22141C0.0158847 4.59647 1.45661 3.19087 3.11947 3.18469C4.87119 3.1816 6.61974 3.17851 8.37146 3.18778C8.66976 3.19086 8.77448 3.10437 8.76496 2.8078C8.74592 2.19613 8.75544 1.58446 8.76179 0.972787C8.76496 0.385831 9.1299 0.00894269 9.69477 -0.000325047C10.2723 -0.00959278 10.6753 0.376563 10.6817 0.957341C10.688 1.5999 10.6912 2.24247 10.6785 2.88503C10.6753 3.11054 10.7547 3.18469 10.9895 3.18469C13.3283 3.17851 15.6639 3.17851 18.0027 3.18778C18.2503 3.18778 18.3328 3.10746 18.3264 2.86958C18.3137 2.24865 18.3169 1.62462 18.3201 1.00368C18.3233 0.395098 18.7136 -0.00341429 19.2975 -0.000325047C19.8592 0.0027642 20.2432 0.401277 20.2463 0.994412C20.2495 1.61535 20.2622 2.23938 20.2432 2.86032C20.2368 3.1229 20.3352 3.18778 20.5891 3.18778C22.3725 3.17851 24.1528 3.18469 25.9362 3.1816C27.488 3.1816 28.9891 4.60883 28.9922 6.11329C28.9954 12.4401 28.9954 18.7668 28.9954 25.0936C28.9954 25.7362 28.9764 26.3787 28.9986 27.0213C29.0557 28.535 27.377 29.9993 25.9426 29.9901C22.1218 29.9684 18.3074 29.9839 14.493 29.9839ZM14.5025 12.162C10.4754 12.162 6.45155 12.162 2.4245 12.162C1.93579 12.162 1.93579 12.162 1.93579 12.6501C1.93579 15.4366 1.93579 18.2231 1.93579 21.0096C1.93579 22.9806 1.93579 24.9484 1.93897 26.9194C1.93897 27.6978 2.23092 28.016 3.01793 28.0994C3.14169 28.1118 3.26862 28.1118 3.39556 28.1118C10.8372 28.1118 18.282 28.1118 25.7236 28.1118C25.9236 28.1118 26.1203 28.0933 26.3171 28.05C26.701 27.9635 26.9517 27.7442 27.0089 27.3519C27.0342 27.1819 27.0596 27.0089 27.0596 26.8359C27.0628 22.0816 27.0628 17.3242 27.0628 12.5698C27.0628 12.1713 27.0628 12.1682 26.6407 12.1682C22.5978 12.162 18.5517 12.162 14.5025 12.162ZM14.4866 10.29C16.8984 10.29 19.307 10.29 21.7188 10.29C23.3848 10.29 25.0509 10.29 26.7201 10.29C26.8851 10.29 27.0692 10.327 27.0692 10.0644C27.0628 8.77004 27.0882 7.47256 27.0533 6.17817C27.0311 5.40276 26.6947 5.07839 25.9299 5.06913C24.1274 5.05059 22.3249 5.06604 20.5224 5.05986C20.3161 5.05986 20.2463 5.14018 20.2495 5.33171C20.2559 5.8229 20.2559 6.311 20.2463 6.80219C20.2368 7.36752 19.8433 7.75059 19.2816 7.75368C18.7263 7.75368 18.3296 7.36135 18.3233 6.7991C18.3201 6.30791 18.3169 5.81981 18.3233 5.32862C18.3264 5.134 18.2566 5.05677 18.0503 5.05677C15.6925 5.05986 13.3347 5.05986 10.9736 5.05368C10.7579 5.05368 10.6753 5.12164 10.6785 5.33789C10.688 5.80746 10.6849 6.27702 10.6817 6.74659C10.6785 7.3737 10.3104 7.75368 9.71698 7.75059C9.13942 7.7475 8.76179 7.35208 8.75544 6.73423C8.75227 6.29556 8.7364 5.85688 8.76179 5.41821C8.77765 5.134 8.68245 5.05059 8.3905 5.05368C6.71494 5.06604 5.03621 5.05677 3.36065 5.05986C2.25631 5.05986 1.94214 5.36878 1.93897 6.45002C1.93897 7.60231 1.94849 8.75769 1.93262 9.90997C1.92945 10.1942 2.00244 10.2961 2.3166 10.2961C6.37221 10.2838 10.4278 10.2869 14.4866 10.29Z" fill="#E04E39"/>
<path d="M9.32352 14.6367C9.72019 14.6367 10.12 14.6429 10.5167 14.6336C10.7325 14.6275 10.815 14.7109 10.8118 14.9209C10.8023 15.4801 10.8023 16.0423 10.8118 16.6015C10.815 16.8208 10.7198 16.8826 10.5104 16.8795C9.71384 16.8733 8.92049 16.8733 8.12397 16.8795C7.89548 16.8826 7.80663 16.8023 7.81298 16.5768C7.8225 16.0269 7.8225 15.477 7.8098 14.9271C7.80663 14.6954 7.90818 14.6244 8.13032 14.6306C8.53017 14.6429 8.92684 14.6367 9.32352 14.6367Z" fill="#E04E39"/>
<path d="M14.4771 14.6367C14.8738 14.6367 15.2736 14.6429 15.6703 14.6337C15.8829 14.6306 15.9718 14.7047 15.9686 14.9179C15.9591 15.477 15.9622 16.0393 15.9686 16.5984C15.9718 16.7838 15.9146 16.8826 15.702 16.8795C14.8865 16.8734 14.0709 16.8764 13.2522 16.8795C13.0554 16.8795 12.9665 16.8116 12.9697 16.6108C12.9761 16.0393 12.9761 15.4708 12.9665 14.8993C12.9634 14.7016 13.0522 14.6275 13.249 14.6306C13.6615 14.6429 14.0709 14.6367 14.4771 14.6367Z" fill="#E04E39"/>
<path d="M19.7069 14.6367C20.1036 14.6367 20.5035 14.6429 20.9001 14.6336C21.1191 14.6275 21.1921 14.7201 21.1921 14.924C21.1857 15.4832 21.1857 16.0454 21.1921 16.6046C21.1953 16.7961 21.1159 16.8795 20.916 16.8795C20.1004 16.8733 19.2849 16.8733 18.4661 16.8795C18.2599 16.8795 18.1901 16.793 18.1932 16.6046C18.1996 16.0454 18.1996 15.4832 18.1932 14.924C18.1901 14.7171 18.263 14.6275 18.4852 14.6336C18.8914 14.646 19.3007 14.6398 19.7069 14.6367Z" fill="#E04E39"/>
<path d="M9.29812 21.1643C8.90145 21.1643 8.5016 21.1581 8.10492 21.1674C7.88913 21.1736 7.8098 21.0871 7.81297 20.8801C7.82249 20.3395 7.82249 19.802 7.81614 19.2613C7.81297 19.0698 7.88596 18.9864 8.08906 18.9864C8.90462 18.9926 9.72019 18.9926 10.5358 18.9864C10.7388 18.9864 10.815 19.0667 10.8118 19.2583C10.8055 19.8081 10.8023 20.358 10.8087 20.9079C10.8118 21.1149 10.7103 21.1705 10.5199 21.1674C10.1137 21.1612 9.70432 21.1643 9.29812 21.1643Z" fill="#E04E39"/>
<path d="M14.4581 21.1643C14.0614 21.1643 13.6615 21.1581 13.2649 21.1674C13.0491 21.1736 12.9666 21.0902 12.9697 20.8801C12.9793 20.3518 12.9793 19.8205 12.9729 19.2922C12.9697 19.0729 13.0427 18.9802 13.2776 18.9833C14.0709 18.9926 14.8674 18.9926 15.664 18.9833C15.8924 18.9802 15.9813 19.0605 15.9749 19.2861C15.9654 19.805 15.9591 20.324 15.9749 20.843C15.9813 21.1056 15.8702 21.1767 15.6227 21.1674C15.2324 21.155 14.8452 21.1643 14.4581 21.1643Z" fill="#E04E39"/>
<path d="M19.6941 21.1643C19.2975 21.1643 18.8976 21.1581 18.5009 21.1674C18.2978 21.1705 18.1899 21.1149 18.1931 20.8925C18.2026 20.3426 18.1995 19.7927 18.1963 19.2428C18.1963 19.0636 18.2661 18.9833 18.4533 18.9833C19.2784 18.9864 20.1067 18.9864 20.9318 18.9833C21.119 18.9833 21.192 19.0605 21.192 19.2397C21.1856 19.7896 21.1825 20.3395 21.192 20.8894C21.1951 21.1087 21.0904 21.1705 20.8873 21.1643C20.4875 21.1581 20.0908 21.1643 19.6941 21.1643Z" fill="#E04E39"/>
<path d="M9.29812 25.514C8.91096 25.514 8.52381 25.5078 8.13665 25.5171C7.92086 25.5232 7.80979 25.4584 7.81297 25.2236C7.82566 24.683 7.81931 24.1423 7.81297 23.6048C7.80979 23.4102 7.88595 23.3299 8.08905 23.3299C8.90462 23.3361 9.72018 23.3361 10.5389 23.3299C10.742 23.3299 10.815 23.4164 10.8118 23.6079C10.8055 24.1485 10.8055 24.6891 10.8118 25.2267C10.815 25.4337 10.742 25.5202 10.5199 25.5171C10.1137 25.5047 9.70431 25.514 9.29812 25.514Z" fill="#E04E39"/>
<path d="M14.4803 23.333C14.877 23.333 15.2769 23.3391 15.6735 23.3299C15.8862 23.3268 15.975 23.404 15.9718 23.6172C15.9623 24.1578 15.9655 24.6984 15.975 25.2359C15.9782 25.4522 15.883 25.5171 15.6735 25.5171C14.877 25.5109 14.0837 25.5109 13.2871 25.5171C13.0587 25.5201 12.9698 25.4398 12.973 25.2143C12.9825 24.6861 12.9857 24.1547 12.973 23.6264C12.9666 23.3947 13.065 23.3237 13.2903 23.3299C13.6838 23.3422 14.0837 23.333 14.4803 23.333Z" fill="#E04E39"/>
<path d="M19.6625 25.514C19.2658 25.514 18.866 25.5078 18.4693 25.5171C18.2662 25.5201 18.1901 25.4367 18.1932 25.2452C18.1996 24.6953 18.1996 24.1454 18.1932 23.5956C18.1901 23.3917 18.2884 23.333 18.482 23.333C19.2881 23.3391 20.0941 23.3391 20.897 23.333C21.1128 23.3299 21.1953 23.4133 21.1921 23.6203C21.1857 24.1485 21.1826 24.6799 21.1953 25.2081C21.2016 25.4553 21.0905 25.5263 20.8557 25.5201C20.459 25.5078 20.0624 25.5171 19.6625 25.514Z" fill="#E04E39"/>
</svg>
