<svg width="37" height="31" viewBox="0 0 37 31" fill="none" xmlns="http://www.w3.org/2000/svg">
<path d="M18.4671 29.9923C12.9666 29.9923 7.45831 29.9923 1.95783 29.9923C1.36148 29.9923 1.01623 29.7057 1.00054 29.1946C0.984843 28.6448 1.3144 28.3118 1.9029 28.3118C3.80178 28.3118 5.69282 28.3118 7.59171 28.3118C16.3329 28.3118 25.074 28.3118 33.8073 28.3118C34.2938 28.3118 34.2938 28.3118 34.2938 27.8239C34.2938 21.9227 34.2938 16.0294 34.2938 10.1283C34.2938 9.45451 34.6312 9.10602 35.2354 9.14474C35.6513 9.17572 35.9651 9.47774 35.9965 9.89593C36.0044 9.98886 35.9965 10.0818 35.9965 10.167C35.9965 16.4321 35.9965 22.6972 35.9965 28.9623C35.9965 29.2178 36.0044 29.4656 35.8317 29.6825C35.6277 29.938 35.3531 30 35.0314 30C31.6652 29.9923 28.3068 30 24.9406 30C22.7906 29.9923 20.6328 29.9923 18.4671 29.9923Z" fill="#E04E39"/>
<path d="M31.8849 3.42174C31.3748 3.64632 30.8884 3.85542 30.4097 4.07225C30.2057 4.15744 30.0095 4.25037 29.7741 4.20391C29.374 4.11872 29.115 3.84767 29.0679 3.45271C29.0287 3.12746 29.2641 2.77896 29.6564 2.60085C30.4254 2.25236 31.1944 1.91161 31.9633 1.57086C32.3243 1.40823 32.6774 1.25335 33.0383 1.09846C33.5719 0.873879 34.0349 1.03651 34.2781 1.55537C34.7881 2.6628 35.2982 3.77797 35.8003 4.89314C36.0985 5.55915 35.667 6.20967 34.9921 6.13222C34.6704 6.0935 34.4429 5.91539 34.3095 5.6211C34.1133 5.18743 33.9172 4.746 33.7131 4.31233C33.6739 4.23488 33.6661 4.10323 33.5641 4.10323C33.4307 4.09549 33.4228 4.23488 33.3836 4.32007C32.9363 5.38103 32.4498 6.42651 31.9241 7.46424C30.496 10.2831 28.7698 12.9084 26.6669 15.2859C23.9912 18.3062 20.8761 20.7921 17.2352 22.5965C14.0573 24.1763 10.699 25.1753 7.16014 25.5935C5.45742 25.7949 3.7547 25.8878 2.04414 25.8568C1.82443 25.8568 1.60473 25.8491 1.40856 25.7174C1.0947 25.5083 0.953456 25.1598 1.05546 24.8268C1.15747 24.4783 1.45564 24.2383 1.85582 24.2228C2.35016 24.2073 2.85234 24.215 3.34668 24.215C5.76344 24.1996 8.14097 23.9053 10.4793 23.3322C14.5438 22.3332 18.216 20.521 21.4802 17.9345C24.4149 15.6034 26.816 12.8 28.8012 9.64037C29.9546 7.80498 30.9354 5.87666 31.7829 3.88639C31.83 3.77023 31.8692 3.65406 31.9163 3.53016C31.9163 3.52241 31.9006 3.49918 31.8849 3.42174Z" fill="#E04E39"/>
<path d="M31.8456 20.947C31.8456 22.7591 31.8535 24.5713 31.8456 26.3912C31.8456 27.0882 31.1473 27.4909 30.5588 27.1501C30.2371 26.9643 30.1429 26.67 30.1429 26.306C30.1508 23.5568 30.1429 20.8076 30.1429 18.0584C30.1429 17.2142 30.1429 16.3701 30.1429 15.526C30.1429 14.9529 30.4568 14.6199 30.9825 14.6122C31.5239 14.6044 31.8456 14.9452 31.8456 15.5415C31.8456 17.3459 31.8456 19.1503 31.8456 20.947Z" fill="#E04E39"/>
<path d="M25.9764 23.6729C25.9764 22.7824 25.9764 21.8918 25.9764 21.0012C25.9764 20.4281 26.2902 20.0951 26.8238 20.0951C27.3574 20.0951 27.6791 20.4204 27.6791 20.9934C27.6791 22.7746 27.6791 24.548 27.6791 26.3292C27.6791 26.9255 27.3652 27.2585 26.816 27.2585C26.2745 27.2585 25.9764 26.9178 25.9764 26.3137C25.9764 25.4309 25.9764 24.548 25.9764 23.6729Z" fill="#E04E39"/>
<path d="M23.5204 25.0437C23.5204 25.5006 23.5282 25.9575 23.5204 26.4144C23.5125 26.9488 23.1751 27.2663 22.6415 27.2585C22.1394 27.2508 21.8177 26.9255 21.8177 26.3989C21.8098 25.5006 21.8098 24.5945 21.8177 23.6962C21.8177 23.1618 22.1551 22.8366 22.6729 22.8366C23.1908 22.8366 23.5125 23.1696 23.5125 23.7117C23.5204 24.1531 23.5204 24.5945 23.5204 25.0437Z" fill="#E04E39"/>
<path d="M19.4166 26.3989C19.4244 26.8403 19.0243 27.2353 18.5613 27.2508C18.067 27.2663 17.6668 26.9023 17.6511 26.4222C17.6354 25.942 18.0513 25.5161 18.5378 25.5161C19.0007 25.5161 19.4087 25.9265 19.4166 26.3989Z" fill="#E04E39"/>
<path d="M18.4671 29.9923C12.9666 29.9923 7.45831 29.9923 1.95783 29.9923C1.36148 29.9923 1.01623 29.7057 1.00054 29.1946C0.984843 28.6448 1.3144 28.3118 1.9029 28.3118C3.80178 28.3118 5.69282 28.3118 7.59171 28.3118C16.3329 28.3118 25.074 28.3118 33.8073 28.3118C34.2938 28.3118 34.2938 28.3118 34.2938 27.8239C34.2938 21.9227 34.2938 16.0294 34.2938 10.1283C34.2938 9.45451 34.6312 9.10602 35.2354 9.14474C35.6513 9.17572 35.9651 9.47774 35.9965 9.89593C36.0044 9.98886 35.9965 10.0818 35.9965 10.167C35.9965 16.4321 35.9965 22.6972 35.9965 28.9623C35.9965 29.2178 36.0044 29.4656 35.8317 29.6825C35.6277 29.938 35.3531 30 35.0314 30C31.6652 29.9923 28.3068 30 24.9406 30C22.7906 29.9923 20.6328 29.9923 18.4671 29.9923Z" stroke="#E04E39" stroke-width="0.5"/>
<path d="M31.8849 3.42174C31.3748 3.64632 30.8884 3.85542 30.4097 4.07225C30.2057 4.15744 30.0095 4.25037 29.7741 4.20391C29.374 4.11872 29.115 3.84767 29.0679 3.45271C29.0287 3.12746 29.2641 2.77896 29.6564 2.60085C30.4254 2.25236 31.1944 1.91161 31.9633 1.57086C32.3243 1.40823 32.6774 1.25335 33.0383 1.09846C33.5719 0.873879 34.0349 1.03651 34.2781 1.55537C34.7881 2.6628 35.2982 3.77797 35.8003 4.89314C36.0985 5.55915 35.667 6.20967 34.9921 6.13222C34.6704 6.0935 34.4429 5.91539 34.3095 5.6211C34.1133 5.18743 33.9172 4.746 33.7131 4.31233C33.6739 4.23488 33.6661 4.10323 33.5641 4.10323C33.4307 4.09549 33.4228 4.23488 33.3836 4.32007C32.9363 5.38103 32.4498 6.42651 31.9241 7.46424C30.496 10.2831 28.7698 12.9084 26.6669 15.2859C23.9912 18.3062 20.8761 20.7921 17.2352 22.5965C14.0573 24.1763 10.699 25.1753 7.16014 25.5935C5.45742 25.7949 3.7547 25.8878 2.04414 25.8568C1.82443 25.8568 1.60473 25.8491 1.40856 25.7174C1.0947 25.5083 0.953456 25.1598 1.05546 24.8268C1.15747 24.4783 1.45564 24.2383 1.85582 24.2228C2.35016 24.2073 2.85234 24.215 3.34668 24.215C5.76344 24.1996 8.14097 23.9053 10.4793 23.3322C14.5438 22.3332 18.216 20.521 21.4802 17.9345C24.4149 15.6034 26.816 12.8 28.8012 9.64037C29.9546 7.80498 30.9354 5.87666 31.7829 3.88639C31.83 3.77023 31.8692 3.65406 31.9163 3.53016C31.9163 3.52241 31.9006 3.49918 31.8849 3.42174Z" stroke="#E04E39" stroke-width="0.5"/>
<path d="M31.8456 20.947C31.8456 22.7591 31.8535 24.5713 31.8456 26.3912C31.8456 27.0882 31.1473 27.4909 30.5588 27.1501C30.2371 26.9643 30.1429 26.67 30.1429 26.306C30.1508 23.5568 30.1429 20.8076 30.1429 18.0584C30.1429 17.2142 30.1429 16.3701 30.1429 15.526C30.1429 14.9529 30.4568 14.6199 30.9825 14.6122C31.5239 14.6044 31.8456 14.9452 31.8456 15.5415C31.8456 17.3459 31.8456 19.1503 31.8456 20.947Z" stroke="#E04E39" stroke-width="0.5"/>
<path d="M25.9764 23.6729C25.9764 22.7824 25.9764 21.8918 25.9764 21.0012C25.9764 20.4281 26.2902 20.0951 26.8238 20.0951C27.3574 20.0951 27.6791 20.4204 27.6791 20.9934C27.6791 22.7746 27.6791 24.548 27.6791 26.3292C27.6791 26.9255 27.3652 27.2585 26.816 27.2585C26.2745 27.2585 25.9764 26.9178 25.9764 26.3137C25.9764 25.4309 25.9764 24.548 25.9764 23.6729Z" stroke="#E04E39" stroke-width="0.5"/>
<path d="M23.5204 25.0437C23.5204 25.5006 23.5282 25.9575 23.5204 26.4144C23.5125 26.9488 23.1751 27.2663 22.6415 27.2585C22.1394 27.2508 21.8177 26.9255 21.8177 26.3989C21.8098 25.5006 21.8098 24.5945 21.8177 23.6962C21.8177 23.1618 22.1551 22.8366 22.6729 22.8366C23.1908 22.8366 23.5125 23.1696 23.5125 23.7117C23.5204 24.1531 23.5204 24.5945 23.5204 25.0437Z" stroke="#E04E39" stroke-width="0.5"/>
<path d="M19.4166 26.3989C19.4244 26.8403 19.0243 27.2353 18.5613 27.2508C18.067 27.2663 17.6668 26.9023 17.6511 26.4222C17.6354 25.942 18.0513 25.5161 18.5378 25.5161C19.0007 25.5161 19.4087 25.9265 19.4166 26.3989Z" stroke="#E04E39" stroke-width="0.5"/>
</svg>
