<svg width="25" height="25" viewBox="0 0 25 25" fill="none" xmlns="http://www.w3.org/2000/svg">
<path d="M0 18.3189C0 17.9379 0.0337904 17.5567 0.120881 17.1857C0.203106 16.8355 0.303045 16.4902 0.454095 16.1592C0.734808 15.548 1.09808 14.9954 1.56869 14.5181C4.16942 11.91 6.76602 9.29772 9.36674 6.68541C10.5391 5.50904 11.7198 4.33685 12.888 3.15629C14.1182 1.91712 15.5837 1.17194 17.3093 1.02542C19.2619 0.857963 21.0122 1.40638 22.5107 2.70416C23.9638 3.96007 24.7977 5.57183 24.967 7.49338C25.1404 9.49866 24.5707 11.2904 23.2703 12.8268C23.0515 13.0822 22.8162 13.325 22.5809 13.5636C19.8935 16.2932 17.2019 19.0227 14.5104 21.7522C14.3164 21.949 14.1141 22.1164 13.8169 22.1164C13.4949 22.1164 13.2472 21.9825 13.0986 21.6936C12.95 21.4089 12.9665 21.1201 13.144 20.848C13.2142 20.7391 13.3132 20.647 13.4041 20.5549C16.1451 17.771 18.8862 14.987 21.6314 12.2114C22.5561 11.2779 23.13 10.1643 23.2414 8.85814C23.4313 6.58075 22.5809 4.76805 20.6572 3.54981C18.5353 2.21017 15.8149 2.55345 14.0315 4.33266C12.7394 5.62207 11.4515 6.91566 10.1593 8.20925C7.69485 10.6792 5.23448 13.1492 2.76585 15.615C2.0104 16.3685 1.60172 17.2853 1.58108 18.3529C1.54392 20.1781 2.67916 21.6852 4.27262 22.1834C5.75875 22.6481 7.09214 22.3174 8.20674 21.2122C9.98184 19.4539 11.7363 17.6789 13.499 15.9122C15.5012 13.9069 17.5033 11.9058 19.5054 9.90055C19.9265 9.48192 20.1742 8.98374 20.2526 8.38508C20.4013 7.20452 19.5013 6.00303 18.3331 5.83558C17.5157 5.71836 16.8304 5.96117 16.2483 6.55145C13.4536 9.38563 10.6588 12.2198 7.86823 15.054C7.72374 15.2005 7.57513 15.3387 7.3646 15.3847C7.03435 15.4601 6.69171 15.3261 6.5142 15.0456C6.32431 14.74 6.33256 14.3716 6.54723 14.0995C6.58851 14.0493 6.63392 14.0032 6.67933 13.953C9.51536 11.0769 12.3431 8.20088 15.1833 5.33321C16.4548 4.04799 18.4074 3.80099 19.9265 4.71362C22.1598 6.05327 22.5561 9.1177 20.7109 10.9765C17.4785 14.2376 14.2297 17.4863 10.985 20.7349C10.2749 21.4466 9.59792 22.2002 8.8177 22.8365C6.76189 24.5236 3.61625 24.3603 1.70492 22.5016C0.795123 21.6162 0.240146 20.555 0.0360037 19.3017C0.0311786 19.2721 0.0300846 19.2409 0.0237604 19.2115C0.0119695 19.1568 0 19.1031 0 19.0472C0 18.805 0 18.5619 0 18.3189Z" fill="white"/>
</svg>
