<svg width="18" height="22" viewBox="0 0 18 22" fill="none" xmlns="http://www.w3.org/2000/svg">
<path d="M5.46826 7.02237L5.46626 7.02331L5.46326 7.02521L5.46826 7.02237ZM15.4223 6.8448C15.3527 6.78107 15.2755 6.7253 15.1923 6.67863C15.0744 6.61275 14.9436 6.57052 14.8079 6.55456C14.6722 6.53859 14.5344 6.54922 14.4032 6.5858C14.272 6.62238 14.1501 6.68412 14.045 6.76721C13.9399 6.8503 13.8539 6.95298 13.7923 7.06889C13.4479 7.71355 12.9728 8.28729 12.3943 8.75717C12.483 8.28387 12.5278 7.8041 12.5283 7.32337C12.5302 5.86121 12.124 4.42468 11.3511 3.16004C10.5782 1.8954 9.46618 0.847823 8.12826 0.123959C7.98083 0.0444151 7.81451 0.00177742 7.64495 5.43806e-05C7.47538 -0.00166865 7.30815 0.0375796 7.15895 0.11411C7.00976 0.190639 6.88351 0.301937 6.79207 0.43754C6.70064 0.573143 6.64702 0.728597 6.63626 0.889288C6.58027 1.78955 6.3324 2.66964 5.90766 3.47626C5.48292 4.28288 4.89015 4.99923 4.16526 5.58191L3.93526 5.75948C3.17688 6.24398 2.50561 6.84129 1.94726 7.52847C1.07954 8.56642 0.478451 9.78208 0.191678 11.079C-0.0950947 12.376 -0.0596659 13.7185 0.295155 15.0002C0.649976 16.2819 1.31443 17.4675 2.23581 18.4628C3.15719 19.4582 4.31016 20.2361 5.60326 20.7347C5.75508 20.7933 5.91976 20.8157 6.08281 20.7997C6.24586 20.7838 6.40228 20.73 6.5383 20.6431C6.67431 20.5563 6.78576 20.439 6.86283 20.3016C6.9399 20.1643 6.98023 20.011 6.98026 19.8554C6.97943 19.7548 6.96257 19.6549 6.93026 19.5591C6.70652 18.7606 6.64208 17.9294 6.74026 17.1084C7.68673 18.8029 9.20581 20.146 11.0533 20.9217C11.2787 21.0174 11.5334 21.0303 11.7683 20.9578C13.2277 20.5104 14.5425 19.7162 15.5877 18.6504C16.6328 17.5847 17.3737 16.2829 17.7398 14.8688C18.1059 13.4547 18.0852 11.9751 17.6796 10.5707C17.274 9.16633 16.4969 7.88374 15.4223 6.8448ZM11.5173 19.0283C10.6456 18.6089 9.87656 18.02 9.26029 17.2999C8.64401 16.5797 8.19426 15.7445 7.94026 14.8485C7.86261 14.5467 7.80252 14.2411 7.76026 13.9331C7.73181 13.737 7.63949 13.5542 7.49622 13.4103C7.35296 13.2664 7.16592 13.1687 6.96126 13.1308C6.89834 13.1191 6.83436 13.1134 6.77026 13.1137C6.59456 13.1135 6.42191 13.1573 6.26971 13.2406C6.1175 13.324 5.99111 13.4439 5.90326 13.5884C5.07371 14.9475 4.65664 16.4981 4.69826 18.0684C3.96842 17.5297 3.35844 16.8588 2.90368 16.0946C2.44892 15.3304 2.15842 14.4882 2.04904 13.6166C1.93965 12.745 2.01354 11.8615 2.26643 11.0172C2.51932 10.173 2.94618 9.38475 3.52226 8.6983C3.95968 8.15881 4.48736 7.69112 5.08426 7.31387C5.11038 7.29796 5.13543 7.28052 5.15926 7.26165C5.15926 7.26165 5.45526 7.02901 5.46526 7.02426C6.89046 5.88011 7.90423 4.34226 8.36526 2.62505C9.45469 3.58158 10.181 4.85291 10.4315 6.24162C10.6819 7.63033 10.4424 9.0587 9.75026 10.3049C9.65866 10.4713 9.62103 10.6596 9.64213 10.8463C9.66323 11.0329 9.74212 11.2094 9.86882 11.3535C9.99552 11.4976 10.1644 11.6028 10.354 11.6558C10.5436 11.7088 10.7456 11.7073 10.9343 11.6514C12.466 11.1952 13.8138 10.3045 14.7963 9.09901C15.387 9.92723 15.7732 10.8714 15.9261 11.861C16.0791 12.8507 15.9948 13.8604 15.6796 14.8149C15.3644 15.7693 14.8264 16.6439 14.1057 17.3734C13.3851 18.103 12.5002 18.6687 11.5173 19.0283Z" fill="white"/>
</svg>
