<svg width="20" height="17" viewBox="0 0 20 17" fill="none" xmlns="http://www.w3.org/2000/svg">
<path d="M1 6H2H1ZM2.5 6C3.05229 6 3.5 5.55228 3.5 5C3.5 4.44772 3.05229 4 2.5 4V6ZM7 4C6.44772 4 6 4.44772 6 5C6 5.55228 6.44772 6 7 6V4ZM1 4H0V4L1 4ZM4 1V0V1ZM5 1V2V1ZM8 4H7H8ZM4 14H16V12H4V14ZM18 6V8H20V6H18ZM18 8H2V10H18V8ZM2 8V6H2.98023e-07V8H2ZM2 6H2.5V4H2V6ZM7 6H18V4H7V6ZM2 8H2H2.98023e-07C2.98023e-07 9.10457 0.895432 10 2 10V8ZM18 8V10C19.1046 10 20 9.10457 20 8H18ZM20 6C20 4.89543 19.1046 4 18 4V6H20ZM2 6V4C0.895431 4 2.98023e-07 4.89543 2.98023e-07 6H2ZM2 6L2 4L0 4L2.98023e-07 6H2ZM4 2L5 2V5.96046e-08L4 0V2ZM7 4V6H9V4H7ZM5 2C6.10457 2 7 2.89543 7 4H9C9 1.79086 7.20914 2.98023e-07 5 5.96046e-08V2ZM2 4C2 2.89543 2.89543 2 4 2V0C1.79086 -2.38419e-07 1.78814e-07 1.79086 0 4H2ZM3 17L3 9H1L1 17H3ZM19 17V9H17V17H19Z" fill="#E04E39"/>
</svg>
