<svg width="20" height="19" viewBox="0 0 20 19" fill="none" xmlns="http://www.w3.org/2000/svg">
<path d="M10.4733 18.7878C8.48411 18.781 6.77995 18.5832 5.1328 18.0102C4.91741 17.9351 4.70835 17.8192 4.49295 17.7373C3.7264 17.4303 3.44765 16.7755 3.44132 15.9706C3.42231 14.313 3.41597 12.6486 3.54268 10.991C3.55535 10.7795 3.492 10.7317 3.32728 10.684C2.38334 10.4316 1.55344 9.96093 0.951595 9.10143C-0.0937067 7.60755 -0.0683661 5.3906 1.05929 3.97175C2.2313 2.49151 3.7264 2.00037 5.48124 2.47786C5.67129 2.53243 5.77266 2.50515 5.89302 2.32779C6.72293 1.04537 7.91394 0.431447 9.32035 0.254091C10.4987 0.104021 11.639 0.281377 12.7097 0.861195C13.1088 1.07948 13.4572 1.3728 13.7613 1.72069C13.831 1.80255 13.8943 1.87076 14.0274 1.81619C15.0917 1.33869 16.1497 1.42055 17.1886 1.89805C19.2729 2.85304 20.2422 5.11092 19.6213 7.51205C19.1905 9.17647 18.2909 10.4316 16.8148 11.1683C16.6628 11.2433 16.6058 11.3388 16.6058 11.523C16.6121 12.2666 16.6185 13.0033 16.6058 13.7468C16.5931 14.504 16.5741 15.2611 16.4854 16.0183C16.3651 17.0347 15.8139 17.6827 14.9713 18.0784C14.1858 18.4536 13.3432 18.5832 12.5006 18.665C11.7404 18.7332 10.9738 18.8151 10.4733 18.7878ZM4.664 13.0306C4.67034 13.0306 4.68301 13.0306 4.68934 13.0306C4.68934 13.1943 4.68934 13.3512 4.68934 13.5149C4.68301 14.2993 4.70201 15.0838 4.72735 15.8682C4.74636 16.3185 4.78437 16.3799 5.18982 16.5163C5.63962 16.6664 6.09575 16.755 6.55822 16.8164C7.47048 16.9392 8.38274 16.9938 9.30134 17.0415C10.7521 17.1097 12.1965 17.0756 13.6409 16.9597C14.021 16.9324 14.3948 16.8437 14.7369 16.6459C15.0093 16.4958 15.1677 16.2639 15.2247 15.9365C15.2564 15.7386 15.2564 15.5476 15.2627 15.3498C15.2691 13.3716 15.2564 11.3934 15.2184 9.42204C15.2121 9.04004 15.3958 8.78083 15.6999 8.69215C16.0356 8.58983 16.3777 8.72626 16.5488 9.03322C16.7452 9.37429 16.7452 9.37429 17.0556 9.14918C17.1443 9.08097 17.233 9.00593 17.3153 8.92408C17.9362 8.2624 18.2086 7.43701 18.3353 6.52977C18.7027 3.85578 16.4094 2.61429 14.8129 2.90761C14.5088 2.96218 14.5025 2.97583 14.6229 3.28279C14.965 4.16957 15.0727 5.09046 14.9333 6.03863C14.6672 7.81219 13.6979 9.0605 12.3486 10.0223C12.0445 10.2406 11.696 10.1929 11.43 9.92682C11.1512 9.64032 11.0182 9.28561 11.0879 8.86268C11.1512 8.4534 11.4173 8.26922 11.7657 8.17372C12.3105 8.01683 12.7287 7.67576 13.0454 7.1778C13.5079 6.43427 13.6599 5.60206 13.6219 4.7221C13.5839 3.80803 13.2355 3.05768 12.583 2.48468C11.0498 1.14087 8.6805 1.1818 7.19807 2.58701C6.67858 3.07815 6.22879 3.64432 6.1401 4.44242C6.08941 4.90628 6.04507 5.37695 6.10208 5.84081C6.12109 6.00452 6.10208 6.15459 5.93737 6.22281C5.77899 6.29102 5.65862 6.21598 5.5636 6.08638C5.50024 5.9977 5.44956 5.9022 5.39888 5.8067C5.16448 5.35649 5.12013 4.86535 5.15814 4.36739C5.17715 4.12864 5.08846 4.03314 4.88573 3.97857C4.61332 3.90353 4.33457 3.88307 4.06216 3.90353C3.06754 3.95128 2.358 4.49699 1.93988 5.4247C1.51543 6.36605 1.59145 7.30741 2.17428 8.15326C2.66209 8.87633 3.4033 9.08097 4.18253 9.13554C4.90474 9.19011 5.62061 9.10825 6.33015 8.95136C6.65958 8.87633 6.8623 8.95136 6.97634 9.16965C7.12838 9.45614 6.95733 9.65396 6.80529 9.85178C6.52021 10.2201 6.1591 10.4725 5.73464 10.6294C5.44323 10.7386 5.1328 10.7863 4.82872 10.8272C4.70835 10.8409 4.65133 10.8818 4.65767 11.0319C4.67034 11.7004 4.664 12.3621 4.664 13.0306Z" fill="#E04E39"/>
<path d="M10.7066 18.897C10.6242 18.897 10.5419 18.897 10.4658 18.8902C8.28654 18.8833 6.63306 18.6446 5.09995 18.1057C4.97325 18.0579 4.84654 18.0034 4.72618 17.9488C4.63748 17.9079 4.54879 17.8669 4.4601 17.8328C3.73155 17.5395 3.35778 16.9188 3.34511 15.9706C3.3261 14.3607 3.31977 12.6554 3.44647 10.9842C3.45914 10.8409 3.4338 10.8273 3.30076 10.7863C2.23012 10.4998 1.43189 9.96778 0.874395 9.16967C-0.208918 7.62122 -0.158237 5.35652 0.988428 3.91038C2.17944 2.40968 3.69988 1.89125 5.5054 2.38921C5.67012 2.43696 5.72713 2.4165 5.81582 2.28007C6.60139 1.06587 7.77973 0.356442 9.31284 0.158621C10.5545 0.00172938 11.7139 0.213192 12.7592 0.779367C13.1519 0.99083 13.5004 1.27733 13.8361 1.65933C13.9122 1.748 13.9312 1.75483 13.9945 1.72754C15.0272 1.27051 16.1105 1.29097 17.2318 1.8094C19.3541 2.78486 20.355 5.09048 19.7152 7.53936C19.259 9.29246 18.2961 10.5408 16.8517 11.2638C16.7313 11.3252 16.6996 11.3866 16.6996 11.5231C16.706 12.2734 16.7123 13.0101 16.6996 13.7536C16.687 14.5313 16.668 15.2885 16.5793 16.032C16.4652 17.0074 15.9394 17.7305 15.0145 18.1739C14.2036 18.5627 13.3357 18.6923 12.5184 18.7742L12.4171 18.781C11.7772 18.8356 11.1754 18.897 10.7066 18.897ZM4.23837 2.40286C3.03469 2.40286 1.99572 2.94857 1.13414 4.03317C0.0444885 5.41109 0.000142337 7.55983 1.02644 9.03325C1.55859 9.79724 2.31881 10.302 3.34511 10.5749C3.53516 10.6295 3.65553 10.7113 3.63019 10.9842C3.50349 12.6486 3.50982 14.3471 3.52883 15.9501C3.5415 16.8164 3.86459 17.3622 4.51712 17.6214C4.61214 17.6623 4.70717 17.7032 4.79586 17.7442C4.9099 17.7987 5.03026 17.8533 5.15063 17.8942C6.66474 18.4263 8.30555 18.665 10.4658 18.6719H10.4722C10.9473 18.6992 11.6822 18.6241 12.3917 18.5559L12.4931 18.5491C13.2977 18.4672 14.1466 18.3444 14.9321 17.9693C15.8064 17.5532 16.2815 16.9051 16.3892 15.9842C16.4716 15.2475 16.4906 14.4972 16.5096 13.7264C16.5223 12.9897 16.5159 12.2529 16.5096 11.5026C16.5096 11.2843 16.5919 11.1479 16.7757 11.0592C18.1631 10.3702 19.0943 9.15603 19.5315 7.46433C20.146 5.11777 19.1894 2.90764 17.1558 1.97311C16.0851 1.49561 15.0462 1.46833 14.0642 1.9049C13.8742 1.98675 13.7728 1.87079 13.6968 1.78893C13.3737 1.4274 13.0379 1.14772 12.6705 0.949902C11.6568 0.404191 10.5355 0.19955 9.33184 0.34962C7.83674 0.540619 6.73442 1.20229 5.96787 2.38239C5.81582 2.62114 5.66378 2.63478 5.45472 2.57339C5.0366 2.45743 4.62481 2.40286 4.23837 2.40286ZM10.7953 17.1712C10.2885 17.1712 9.79431 17.1575 9.30017 17.1371C8.41958 17.0961 7.47564 17.0416 6.5507 16.9119C6.00588 16.8369 5.56875 16.7414 5.1633 16.605C4.71984 16.4549 4.65015 16.3594 4.63115 15.8683C4.59947 14.9883 4.5868 14.2175 4.59314 13.5149C4.59314 13.4058 4.59314 13.2966 4.59314 13.1807V13.1329H4.5678V13.0306C4.5678 12.8532 4.5678 12.6759 4.5678 12.4985C4.5678 12.021 4.5678 11.5231 4.56146 11.0387C4.55513 10.7932 4.68816 10.7454 4.81487 10.7318C5.09995 10.6908 5.40404 10.6499 5.70179 10.5408C6.13258 10.3771 6.46835 10.1383 6.72809 9.79724L6.74709 9.76996C6.90547 9.56531 6.99416 9.42889 6.88647 9.23107C6.81678 9.10146 6.69641 8.97867 6.34164 9.06053C5.56242 9.23789 4.85288 9.29928 4.16868 9.25153C3.49082 9.20378 2.64824 9.04689 2.09075 8.22832C1.48891 7.35518 1.40655 6.3729 1.85001 5.39062C2.28714 4.41517 3.04736 3.86263 4.04198 3.7876C4.33973 3.76714 4.62481 3.79442 4.89723 3.86263C5.15697 3.93085 5.26467 4.08092 5.24566 4.3606C5.20765 4.91995 5.27734 5.35652 5.47373 5.73852C5.51807 5.82719 5.56875 5.92269 5.6321 6.00455C5.7398 6.15462 5.8285 6.14098 5.89185 6.11369C5.9742 6.07959 6.01855 6.02501 5.99954 5.84084C5.94253 5.36334 5.98687 4.89266 6.03756 4.41517C6.13258 3.53521 6.67107 2.9281 7.1272 2.49836C8.64764 1.05904 11.0677 1.01812 12.6388 2.39604C13.3103 2.9895 13.6714 3.76713 13.7158 4.70849C13.7601 5.69759 13.5637 6.52298 13.1266 7.22558C12.7972 7.75765 12.3474 8.10554 11.7962 8.26243C11.4288 8.37157 11.2387 8.55575 11.188 8.87635C11.1247 9.24471 11.2324 9.57214 11.5048 9.84499C11.7455 10.0906 12.0433 10.1178 12.3094 9.93367C13.7855 8.88318 14.6154 7.60075 14.8498 6.01819C14.9828 5.11095 14.8814 4.2037 14.5457 3.31692C14.4823 3.14639 14.438 3.03725 14.4887 2.94857C14.5393 2.85307 14.647 2.83261 14.8118 2.80532C15.7874 2.62796 16.9214 3.00996 17.6372 3.76714C18.1124 4.2651 18.6319 5.15188 18.4418 6.55026C18.2961 7.62122 17.9603 8.39886 17.3965 8.99914C17.3205 9.081 17.2255 9.16285 17.1241 9.23789C16.953 9.36067 16.858 9.43571 16.7567 9.40842C16.6553 9.38114 16.5983 9.28564 16.4842 9.08782C16.3322 8.82178 16.0344 8.70582 15.743 8.7945C15.4706 8.87635 15.3249 9.10146 15.3312 9.42889C15.3693 11.3593 15.3819 13.358 15.3756 15.3635V15.3771C15.3756 15.5681 15.3756 15.766 15.3376 15.9638C15.2742 16.3185 15.0968 16.5777 14.7991 16.7482C14.476 16.9324 14.1086 17.0347 13.6651 17.0688C12.6578 17.1371 11.7139 17.1712 10.7953 17.1712ZM4.75785 12.9283H4.78319V13.1807C4.78319 13.2898 4.78319 13.4058 4.78319 13.5149C4.77686 14.2175 4.78953 14.9815 4.8212 15.8615C4.83387 16.2707 4.85288 16.2912 5.22032 16.414C5.6131 16.5436 6.04389 16.6391 6.57604 16.7141C7.49464 16.8437 8.43225 16.8915 9.31284 16.9324C10.6939 17.0006 12.1066 16.9733 13.6398 16.8506C14.0515 16.8165 14.4 16.7209 14.6977 16.5504C14.9448 16.414 15.0905 16.2025 15.1412 15.9092C15.1729 15.7318 15.1729 15.5477 15.1729 15.3567V15.343C15.1792 13.3375 15.1665 11.3457 15.1285 9.41524C15.1222 8.99914 15.3249 8.68536 15.6797 8.58303C16.0535 8.46707 16.4399 8.62396 16.6363 8.97185C16.6933 9.081 16.7567 9.19014 16.782 9.19696C16.8073 9.19696 16.915 9.12192 17.0037 9.05371C17.0988 8.9855 17.1811 8.91046 17.2508 8.84225C17.7893 8.26925 18.106 7.52572 18.2454 6.50251C18.4228 5.19281 17.935 4.3606 17.4979 3.89674C16.8263 3.18732 15.7557 2.82578 14.8371 2.9895C14.7801 3.00314 14.6851 3.01678 14.6534 3.03043C14.6597 3.06453 14.6914 3.15321 14.7167 3.22142C15.0652 4.14231 15.1729 5.09048 15.0335 6.03184C14.7864 7.67579 13.9312 8.99914 12.4107 10.0837C12.075 10.3225 11.6759 10.2816 11.3718 9.9746C11.055 9.65399 10.9283 9.25835 10.998 8.82178C11.0867 8.29654 11.4668 8.126 11.7455 8.05097C12.2524 7.90772 12.6641 7.58711 12.9682 7.09597C13.3863 6.42748 13.5701 5.64302 13.5257 4.70166C13.4877 3.81488 13.1519 3.09182 12.5184 2.53929C11.017 1.22276 8.70466 1.26369 7.25391 2.64161C6.79778 3.07135 6.3163 3.62389 6.22761 4.42881C6.17693 4.89266 6.13258 5.3497 6.1896 5.80673C6.20227 5.90223 6.23394 6.18191 5.96787 6.29787C5.79048 6.37291 5.61943 6.31151 5.4864 6.12734C5.41671 6.03184 5.36603 5.92951 5.31535 5.83402C5.09995 5.41791 5.01759 4.94041 5.06194 4.34013C5.07461 4.1696 5.03026 4.10138 4.85921 4.06045C4.60581 3.99224 4.33973 3.97178 4.06098 3.99224C3.12338 4.06045 2.43918 4.55842 2.0274 5.4793C1.62194 6.38655 1.69797 7.29379 2.25546 8.10554C2.76227 8.84907 3.56051 8.99914 4.19402 9.04007C4.85921 9.08782 5.55608 9.02642 6.3163 8.85589C6.68374 8.77403 6.92448 8.86271 7.07019 9.12875C7.24757 9.46299 7.06385 9.70856 6.91181 9.90638L6.8928 9.93367C6.60772 10.302 6.24662 10.5681 5.78415 10.7386C5.47373 10.8546 5.15697 10.9023 4.85921 10.9432C4.77686 10.9569 4.77052 10.9569 4.77052 11.0456C4.77686 11.5367 4.77686 12.0278 4.77686 12.5122C4.75785 12.6418 4.75785 12.785 4.75785 12.9283Z" fill="#E04E39"/>
<path d="M10.7066 18.897C10.6242 18.897 10.5419 18.897 10.4658 18.8902C8.28654 18.8833 6.63306 18.6446 5.09995 18.1057C4.97325 18.0579 4.84654 18.0034 4.72618 17.9488C4.63748 17.9079 4.54879 17.8669 4.4601 17.8328C3.73155 17.5395 3.35778 16.9188 3.34511 15.9706C3.3261 14.3607 3.31977 12.6554 3.44647 10.9842C3.45914 10.8409 3.4338 10.8273 3.30076 10.7863C2.23012 10.4998 1.43189 9.96778 0.874395 9.16967C-0.208918 7.62122 -0.158237 5.35652 0.988428 3.91038C2.17944 2.40968 3.69988 1.89125 5.5054 2.38921C5.67012 2.43696 5.72713 2.4165 5.81582 2.28007C6.60139 1.06587 7.77973 0.356442 9.31284 0.158621C10.5545 0.00172938 11.7139 0.213192 12.7592 0.779367C13.1519 0.99083 13.5004 1.27733 13.8361 1.65933C13.9122 1.748 13.9312 1.75483 13.9945 1.72754C15.0272 1.27051 16.1105 1.29097 17.2318 1.8094C19.3541 2.78486 20.355 5.09048 19.7152 7.53936C19.259 9.29246 18.2961 10.5408 16.8517 11.2638C16.7313 11.3252 16.6996 11.3866 16.6996 11.5231C16.706 12.2734 16.7123 13.0101 16.6996 13.7536C16.687 14.5313 16.668 15.2885 16.5793 16.032C16.4652 17.0074 15.9394 17.7305 15.0145 18.1739C14.2036 18.5627 13.3357 18.6923 12.5184 18.7742L12.4171 18.781C11.7772 18.8356 11.1754 18.897 10.7066 18.897ZM4.23837 2.40286C3.03469 2.40286 1.99572 2.94857 1.13414 4.03317C0.0444885 5.41109 0.000142337 7.55983 1.02644 9.03325C1.55859 9.79724 2.31881 10.302 3.34511 10.5749C3.53516 10.6295 3.65553 10.7113 3.63019 10.9842C3.50349 12.6486 3.50982 14.3471 3.52883 15.9501C3.5415 16.8164 3.86459 17.3622 4.51712 17.6214C4.61214 17.6623 4.70717 17.7032 4.79586 17.7442C4.9099 17.7987 5.03026 17.8533 5.15063 17.8942C6.66474 18.4263 8.30555 18.665 10.4658 18.6719H10.4722C10.9473 18.6992 11.6822 18.6241 12.3917 18.5559L12.4931 18.5491C13.2977 18.4672 14.1466 18.3444 14.9321 17.9693C15.8064 17.5532 16.2815 16.9051 16.3892 15.9842C16.4716 15.2475 16.4906 14.4972 16.5096 13.7264C16.5223 12.9897 16.5159 12.2529 16.5096 11.5026C16.5096 11.2843 16.5919 11.1479 16.7757 11.0592C18.1631 10.3702 19.0943 9.15603 19.5315 7.46433C20.146 5.11777 19.1894 2.90764 17.1558 1.97311C16.0851 1.49561 15.0462 1.46833 14.0642 1.9049C13.8742 1.98675 13.7728 1.87079 13.6968 1.78893C13.3737 1.4274 13.0379 1.14772 12.6705 0.949902C11.6568 0.404191 10.5355 0.19955 9.33184 0.34962C7.83674 0.540619 6.73442 1.20229 5.96787 2.38239C5.81582 2.62114 5.66378 2.63478 5.45472 2.57339C5.0366 2.45743 4.62481 2.40286 4.23837 2.40286ZM10.7953 17.1712C10.2885 17.1712 9.79431 17.1575 9.30017 17.1371C8.41958 17.0961 7.47564 17.0416 6.5507 16.9119C6.00588 16.8369 5.56875 16.7414 5.1633 16.605C4.71984 16.4549 4.65015 16.3594 4.63115 15.8683C4.59947 14.9883 4.5868 14.2175 4.59314 13.5149C4.59314 13.4058 4.59314 13.2966 4.59314 13.1807V13.1329H4.5678V13.0306C4.5678 12.8532 4.5678 12.6759 4.5678 12.4985C4.5678 12.021 4.5678 11.5231 4.56146 11.0387C4.55513 10.7932 4.68816 10.7454 4.81487 10.7318C5.09995 10.6908 5.40404 10.6499 5.70179 10.5408C6.13258 10.3771 6.46835 10.1383 6.72809 9.79724L6.74709 9.76996C6.90547 9.56531 6.99416 9.42889 6.88647 9.23107C6.81678 9.10146 6.69641 8.97867 6.34164 9.06053C5.56242 9.23789 4.85288 9.29928 4.16868 9.25153C3.49082 9.20378 2.64824 9.04689 2.09075 8.22832C1.48891 7.35518 1.40655 6.3729 1.85001 5.39062C2.28714 4.41517 3.04736 3.86263 4.04198 3.7876C4.33973 3.76714 4.62481 3.79442 4.89723 3.86263C5.15697 3.93085 5.26467 4.08092 5.24566 4.3606C5.20765 4.91995 5.27734 5.35652 5.47373 5.73852C5.51807 5.82719 5.56875 5.92269 5.6321 6.00455C5.7398 6.15462 5.8285 6.14098 5.89185 6.11369C5.9742 6.07959 6.01855 6.02501 5.99954 5.84084C5.94253 5.36334 5.98687 4.89266 6.03756 4.41517C6.13258 3.53521 6.67107 2.9281 7.1272 2.49836C8.64764 1.05904 11.0677 1.01812 12.6388 2.39604C13.3103 2.9895 13.6714 3.76713 13.7158 4.70849C13.7601 5.69759 13.5637 6.52298 13.1266 7.22558C12.7972 7.75765 12.3474 8.10554 11.7962 8.26243C11.4288 8.37157 11.2387 8.55575 11.188 8.87635C11.1247 9.24471 11.2324 9.57214 11.5048 9.84499C11.7455 10.0906 12.0433 10.1178 12.3094 9.93367C13.7855 8.88318 14.6154 7.60075 14.8498 6.01819C14.9828 5.11095 14.8814 4.2037 14.5457 3.31692C14.4823 3.14639 14.438 3.03725 14.4887 2.94857C14.5393 2.85307 14.647 2.83261 14.8118 2.80532C15.7874 2.62796 16.9214 3.00996 17.6372 3.76714C18.1124 4.2651 18.6319 5.15188 18.4418 6.55026C18.2961 7.62122 17.9603 8.39886 17.3965 8.99914C17.3205 9.081 17.2255 9.16285 17.1241 9.23789C16.953 9.36067 16.858 9.43571 16.7567 9.40842C16.6553 9.38114 16.5983 9.28564 16.4842 9.08782C16.3322 8.82178 16.0344 8.70582 15.743 8.7945C15.4706 8.87635 15.3249 9.10146 15.3312 9.42889C15.3693 11.3593 15.3819 13.358 15.3756 15.3635V15.3771C15.3756 15.5681 15.3756 15.766 15.3376 15.9638C15.2742 16.3185 15.0968 16.5777 14.7991 16.7482C14.476 16.9324 14.1086 17.0347 13.6651 17.0688C12.6578 17.1371 11.7139 17.1712 10.7953 17.1712ZM4.75785 12.9283H4.78319V13.1807C4.78319 13.2898 4.78319 13.4058 4.78319 13.5149C4.77686 14.2175 4.78953 14.9815 4.8212 15.8615C4.83387 16.2707 4.85288 16.2912 5.22032 16.414C5.6131 16.5436 6.04389 16.6391 6.57604 16.7141C7.49464 16.8437 8.43225 16.8915 9.31284 16.9324C10.6939 17.0006 12.1066 16.9733 13.6398 16.8506C14.0515 16.8165 14.4 16.7209 14.6977 16.5504C14.9448 16.414 15.0905 16.2025 15.1412 15.9092C15.1729 15.7318 15.1729 15.5477 15.1729 15.3567V15.343C15.1792 13.3375 15.1665 11.3457 15.1285 9.41524C15.1222 8.99914 15.3249 8.68536 15.6797 8.58303C16.0535 8.46707 16.4399 8.62396 16.6363 8.97185C16.6933 9.081 16.7567 9.19014 16.782 9.19696C16.8073 9.19696 16.915 9.12192 17.0037 9.05371C17.0988 8.9855 17.1811 8.91046 17.2508 8.84225C17.7893 8.26925 18.106 7.52572 18.2454 6.50251C18.4228 5.19281 17.935 4.3606 17.4979 3.89674C16.8263 3.18732 15.7557 2.82578 14.8371 2.9895C14.7801 3.00314 14.6851 3.01678 14.6534 3.03043C14.6597 3.06453 14.6914 3.15321 14.7167 3.22142C15.0652 4.14231 15.1729 5.09048 15.0335 6.03184C14.7864 7.67579 13.9312 8.99914 12.4107 10.0837C12.075 10.3225 11.6759 10.2816 11.3718 9.9746C11.055 9.65399 10.9283 9.25835 10.998 8.82178C11.0867 8.29654 11.4668 8.126 11.7455 8.05097C12.2524 7.90772 12.6641 7.58711 12.9682 7.09597C13.3863 6.42748 13.5701 5.64302 13.5257 4.70166C13.4877 3.81488 13.1519 3.09182 12.5184 2.53929C11.017 1.22276 8.70466 1.26369 7.25391 2.64161C6.79778 3.07135 6.3163 3.62389 6.22761 4.42881C6.17693 4.89266 6.13258 5.3497 6.1896 5.80673C6.20227 5.90223 6.23394 6.18191 5.96787 6.29787C5.79048 6.37291 5.61943 6.31151 5.4864 6.12734C5.41671 6.03184 5.36603 5.92951 5.31535 5.83402C5.09995 5.41791 5.01759 4.94041 5.06194 4.34013C5.07461 4.1696 5.03026 4.10138 4.85921 4.06045C4.60581 3.99224 4.33973 3.97178 4.06098 3.99224C3.12338 4.06045 2.43918 4.55842 2.0274 5.4793C1.62194 6.38655 1.69797 7.29379 2.25546 8.10554C2.76227 8.84907 3.56051 8.99914 4.19402 9.04007C4.85921 9.08782 5.55608 9.02642 6.3163 8.85589C6.68374 8.77403 6.92448 8.86271 7.07019 9.12875C7.24757 9.46299 7.06385 9.70856 6.91181 9.90638L6.8928 9.93367C6.60772 10.302 6.24662 10.5681 5.78415 10.7386C5.47373 10.8546 5.15697 10.9023 4.85921 10.9432C4.77686 10.9569 4.77052 10.9569 4.77052 11.0456C4.77686 11.5367 4.77686 12.0278 4.77686 12.5122C4.75785 12.6418 4.75785 12.785 4.75785 12.9283Z" fill="#E04E39"/>
<path d="M10.7077 19C10.619 19 10.5367 19 10.4607 18.9932C8.27502 18.9864 6.61521 18.7408 5.06943 18.2019C4.93639 18.1541 4.80968 18.0996 4.68932 18.0382C4.60062 17.9973 4.51193 17.9563 4.42324 17.9222C3.65668 17.6153 3.25757 16.9604 3.2449 15.9645C3.22589 14.3546 3.21956 12.6425 3.34626 10.9644C3.34626 10.9235 3.34626 10.9098 3.34626 10.903C3.32725 10.8962 3.28924 10.8825 3.27024 10.8825C2.17425 10.5892 1.36335 10.0435 0.793189 9.22495C-0.30913 7.63557 -0.258449 5.3163 0.919892 3.83605C2.13624 2.30124 3.68836 1.776 5.53189 2.28078C5.66493 2.31489 5.6776 2.30806 5.74095 2.21256C6.54552 0.971072 7.74287 0.248005 9.30132 0.0501843C10.562 -0.106708 11.7404 0.104755 12.7983 0.677752C13.1974 0.896036 13.5585 1.18936 13.907 1.57818C13.9133 1.59182 13.9387 1.61228 13.9513 1.62592H13.9577C15.0156 1.15525 16.1243 1.18253 17.2646 1.70778C19.4376 2.7037 20.4575 5.05708 19.805 7.56053C19.3426 9.34092 18.3606 10.6165 16.8908 11.3464C16.8085 11.3873 16.7895 11.4146 16.7958 11.5101C16.8022 12.2605 16.8085 12.9972 16.7958 13.7407C16.7831 14.5183 16.7641 15.2755 16.6754 16.0327C16.5551 17.0491 16.0103 17.7994 15.0536 18.2565C14.2364 18.6521 13.3558 18.7817 12.5259 18.8636L12.4246 18.8704C11.7784 18.9386 11.1829 19 10.7077 19ZM4.68932 17.8131C4.71466 17.8267 4.74 17.8335 4.76534 17.8472C4.88571 17.9018 5.00607 17.9563 5.13278 18.0041C6.65955 18.5361 8.30669 18.7817 10.4733 18.7817C10.5493 18.7885 10.6317 18.7885 10.7141 18.7885C11.0815 18.7885 11.5313 18.7544 12.0191 18.7067C11.4363 18.7613 10.8724 18.809 10.4733 18.7817C8.30669 18.7749 6.65955 18.5361 5.13278 18.0041C5.00607 17.9632 4.88571 17.9018 4.76534 17.8472C4.74 17.8404 4.71466 17.8267 4.68932 17.8131ZM13.7486 18.4748C13.3305 18.5634 12.9124 18.618 12.5006 18.6589C12.9124 18.618 13.3305 18.5703 13.7486 18.4748ZM4.23952 2.50588C3.06751 2.50588 2.04755 3.04477 1.21131 4.10209C0.147002 5.43908 0.102656 7.54007 1.10995 8.97938C1.62943 9.72291 2.37065 10.2141 3.37794 10.4869C3.57433 10.5415 3.76438 10.6438 3.73904 11.0053C3.61234 12.6629 3.61867 14.3615 3.63768 15.9645C3.64401 16.783 3.9481 17.2947 4.56261 17.5402C4.65764 17.5812 4.75267 17.6221 4.84136 17.663C4.95539 17.7176 5.07576 17.7722 5.18979 17.8131C6.69756 18.3383 8.3257 18.5771 10.4733 18.5839H10.4797C10.9485 18.6112 11.677 18.5361 12.3865 18.4679L12.4879 18.4611C13.2861 18.3793 14.1287 18.2565 14.8953 17.8881C15.7378 17.4857 16.194 16.8649 16.2953 15.9849C16.3777 15.2551 16.3967 14.5047 16.4157 13.7407C16.4284 13.004 16.422 12.2741 16.4157 11.5238C16.4157 11.2714 16.5171 11.094 16.7325 10.9849C18.0945 10.3096 19.0068 9.12263 19.4376 7.45821C20.0331 5.1594 19.1018 3.00385 17.1126 2.08978C16.0673 1.61228 15.0536 1.585 14.097 2.00792C13.85 2.11706 13.7043 1.95335 13.6219 1.86467C13.3115 1.50996 12.982 1.24393 12.6209 1.04611C11.6263 0.507217 10.524 0.309397 9.33933 0.459468C7.86957 0.643645 6.79259 1.29168 6.04504 2.45131C5.86132 2.73099 5.67127 2.75145 5.43053 2.68324C5.02508 2.56046 4.61963 2.50588 4.23952 2.50588ZM4.44858 17.7108C4.46125 17.7176 4.48026 17.7244 4.49293 17.7312C4.53094 17.7449 4.56895 17.7585 4.60696 17.779C4.56895 17.7653 4.53094 17.7449 4.49293 17.7312C4.47392 17.7244 4.46125 17.7176 4.44858 17.7108ZM16.5868 14.4774C16.5804 14.7571 16.5678 15.0436 16.5487 15.3233C16.5678 15.0436 16.5804 14.7639 16.5868 14.4774ZM3.53632 10.9849C3.51097 11.3464 3.48563 11.7148 3.47296 12.0831C3.49197 11.7148 3.51097 11.3464 3.53632 10.9849ZM0.812194 8.8907C0.856541 8.96574 0.900914 9.03322 0.951595 9.10143C0.900914 9.0264 0.856541 8.95892 0.812194 8.8907ZM17.1379 1.87149C17.1569 1.87832 17.1759 1.88514 17.1949 1.89878C19.2729 2.85377 20.2485 5.11165 19.6276 7.51278C19.4439 8.22221 19.1778 8.84295 18.8231 9.38184C19.1715 8.84295 19.4439 8.21539 19.6276 7.51278C20.2548 5.11165 19.2729 2.8606 17.1949 1.89878C17.1696 1.88514 17.1569 1.87832 17.1379 1.87149ZM4.23318 2.30124C3.00416 2.30124 1.93988 2.85986 1.05929 3.97175C0.672848 4.45607 0.413079 5.05026 0.286376 5.67101C0.413079 5.05026 0.672821 4.46362 1.0656 3.97248C1.93985 2.8606 3.0105 2.30124 4.23318 2.30124C4.62596 2.30124 5.03775 2.36263 5.46221 2.47178C5.03775 2.35581 4.62596 2.30124 4.23318 2.30124ZM5.48755 2.4786C5.62692 2.51271 5.71561 2.51953 5.8043 2.43085C5.72828 2.50588 5.63326 2.51953 5.48755 2.4786ZM10.0932 0.200255C11.0245 0.200255 11.9051 0.418539 12.7096 0.855108C13.0897 1.05975 13.4382 1.34625 13.7613 1.7146C13.7613 1.7146 13.7613 1.7146 13.7676 1.72142C13.7676 1.72142 13.7676 1.72142 13.7613 1.7146C13.4318 1.33943 13.0897 1.05975 12.7096 0.855108C11.791 0.357147 10.7774 0.138862 9.70043 0.207076C9.83347 0.207076 9.96651 0.200255 10.0932 0.200255ZM10.7964 17.2742C10.2959 17.2742 9.78912 17.2605 9.29498 17.2401C8.40806 17.1992 7.47045 17.1446 6.53918 17.015C5.98802 16.9399 5.54456 16.8376 5.13911 16.708C4.65764 16.5443 4.56261 16.4147 4.54361 15.8758C4.51193 14.9958 4.49926 14.225 4.5056 13.5156C4.5056 13.4201 4.5056 13.3314 4.5056 13.2359H4.48026V13.0313C4.48026 12.8539 4.48026 12.6766 4.48026 12.4992V12.4924C4.48026 12.0149 4.48026 11.5238 4.47392 11.0463C4.46758 10.8007 4.58162 10.6643 4.81602 10.6302C5.1011 10.596 5.39885 10.5483 5.68394 10.4392C6.09572 10.2823 6.41882 10.0503 6.67222 9.72291L6.69123 9.69563C6.85594 9.47734 6.89395 9.40231 6.82427 9.2727C6.78625 9.19767 6.71657 9.07488 6.3808 9.14991C5.59524 9.32727 4.87937 9.38866 4.1825 9.34091C3.48563 9.29317 2.61138 9.12263 2.03488 8.27678C1.41403 7.36953 1.32534 6.35315 1.78147 5.33676C2.2186 4.3272 3.00416 3.7542 4.03679 3.67916C4.34088 3.6587 4.63863 3.68598 4.91738 3.7542C5.22147 3.83605 5.36084 4.03387 5.3355 4.35448C5.29749 4.89337 5.36718 5.3163 5.5509 5.67783C5.59524 5.76651 5.64593 5.85519 5.70294 5.93022C5.77896 6.03936 5.82331 6.0189 5.85499 6.00526C5.88666 5.99161 5.91834 5.97797 5.89933 5.84154C5.84232 5.3504 5.88666 4.87973 5.93734 4.38859C6.03871 3.47452 6.58987 2.84695 7.05867 2.40356C8.61078 0.936965 11.0878 0.889215 12.6906 2.29442C13.3875 2.90152 13.7549 3.70645 13.7993 4.68191C13.8436 5.69147 13.6472 6.53732 13.1911 7.26039C12.849 7.81292 12.3802 8.17446 11.8037 8.34499C11.4679 8.44049 11.3096 8.59738 11.2652 8.87706C11.2082 9.21131 11.3096 9.50463 11.5503 9.75702C11.7594 9.96848 12.0064 9.99577 12.2345 9.83205C13.6853 8.80202 14.5025 7.54007 14.7369 5.98479C14.8699 5.09801 14.7686 4.20441 14.4391 3.33809C14.3694 3.15392 14.3188 3.01749 14.3885 2.88106C14.4581 2.74463 14.5975 2.71735 14.7749 2.68324C15.7759 2.49906 16.9479 2.8947 17.6827 3.67234C18.1705 4.18395 18.709 5.09801 18.5126 6.53732C18.3606 7.62875 18.0248 8.42685 17.442 9.04759C17.3596 9.13627 17.2646 9.21813 17.1569 9.29317C16.9732 9.42959 16.8592 9.51145 16.7135 9.47734C16.5677 9.44324 16.4981 9.32045 16.384 9.10899C16.2573 8.88388 16.0039 8.78156 15.7505 8.8566C15.5224 8.92481 15.4021 9.10899 15.4084 9.38866C15.4464 11.3191 15.4591 13.3178 15.4528 15.3233V15.3369C15.4528 15.5347 15.4528 15.7326 15.4148 15.944C15.3451 16.3328 15.155 16.6125 14.8256 16.7967C14.4898 16.9877 14.1097 17.0968 13.6599 17.1309C12.659 17.2401 11.7213 17.2742 10.7964 17.2742ZM10.4163 17.0695C11.4616 17.0832 12.5069 17.0423 13.6472 16.9536C12.5196 17.0423 11.4553 17.0832 10.4163 17.0695ZM8.37005 16.9877C8.6868 17.0082 9.00356 17.0218 9.30765 17.0354C8.99723 17.0218 8.6868 17.0082 8.37005 16.9877ZM4.85403 12.8266H4.87937V13.1882C4.87937 13.2973 4.87937 13.4065 4.87937 13.5156C4.87304 14.2182 4.88571 14.9822 4.91738 15.8553C4.93005 16.2101 4.93005 16.2101 5.24681 16.3124C5.63326 16.442 6.05771 16.5375 6.58353 16.6057C7.50213 16.7353 8.4334 16.783 9.30765 16.824C10.6824 16.8922 12.0951 16.8649 13.6282 16.7421C14.0273 16.708 14.3631 16.6193 14.6482 16.4556C14.8699 16.3328 14.9966 16.1487 15.041 15.8894C15.0727 15.7189 15.0727 15.5416 15.0727 15.3574V15.3369C15.079 13.3382 15.0663 11.3396 15.0283 9.40913C15.022 8.94527 15.25 8.59738 15.6492 8.4746C16.0673 8.35181 16.4917 8.52235 16.7135 8.90435C16.7388 8.9521 16.7768 9.01349 16.8022 9.06124C16.8338 9.04077 16.8845 9.00667 16.9479 8.95892C17.0366 8.89752 17.1126 8.82931 17.1759 8.75427C17.6954 8.20174 18.0058 7.47868 18.1389 6.47593C18.3099 5.20715 17.8411 4.40905 17.4167 3.95884C16.7641 3.26988 15.7252 2.91517 14.8383 3.07888C14.8192 3.07888 14.7876 3.0857 14.7622 3.09252C14.7749 3.11981 14.7876 3.15392 14.7939 3.17438C15.155 4.11573 15.2627 5.07755 15.117 6.03936C14.8636 7.7106 13.9957 9.06124 12.4499 10.1595C12.0761 10.4255 11.6327 10.3846 11.2969 10.0367C10.9548 9.69563 10.8218 9.25906 10.8978 8.78838C11.0055 8.14035 11.5376 7.98346 11.715 7.93571C12.1965 7.79928 12.5893 7.49232 12.887 7.02164C13.2925 6.37361 13.4699 5.60962 13.4318 4.68873C13.3938 3.83605 13.0707 3.13345 12.4626 2.60138C10.9991 1.31214 8.73749 1.35989 7.31841 2.69688C6.87495 3.11299 6.41248 3.65188 6.32379 4.42269C6.27311 4.87973 6.2351 5.32994 6.28578 5.77333C6.33012 6.14851 6.15907 6.3054 6.00069 6.37361C5.77896 6.46911 5.56357 6.39408 5.40519 6.16897C5.3355 6.06665 5.27849 5.96433 5.2278 5.86201C4.99974 5.42544 4.91738 4.9343 4.96173 4.30673C4.96806 4.19077 4.96173 4.1703 4.83502 4.1362C4.59429 4.0748 4.33455 4.04752 4.06847 4.06798C3.16888 4.1362 2.51002 4.61369 2.11724 5.50047C1.72446 6.37361 1.80048 7.23993 2.33263 8.01757C2.82044 8.72699 3.587 8.87024 4.20151 8.91117C4.86037 8.95892 5.54456 8.89752 6.29845 8.72699C6.7039 8.63831 6.98898 8.74063 7.15369 9.04759C7.36276 9.44323 7.13469 9.74338 6.98265 9.9412L6.96364 9.96848C6.66589 10.3505 6.29211 10.6302 5.81064 10.8075C5.49388 10.9303 5.17079 10.978 4.8667 11.019H4.86036C4.8667 11.5033 4.8667 12.0013 4.8667 12.4788V12.4856C4.85403 12.6084 4.85403 12.7175 4.85403 12.8266ZM14.7052 16.6603C14.5658 16.7353 14.4138 16.7967 14.2554 16.8444C14.4138 16.8035 14.5658 16.7421 14.7052 16.6603ZM5.53189 16.6125C5.67127 16.6466 5.81697 16.6807 5.96902 16.7148C5.81697 16.6875 5.67127 16.6534 5.53189 16.6125ZM15.231 15.9236C15.231 15.9304 15.231 15.9304 15.231 15.9372C15.1803 16.2373 15.0346 16.4624 14.7939 16.6193C15.0346 16.4624 15.1803 16.2442 15.231 15.9372C15.231 15.9304 15.231 15.9236 15.231 15.9236ZM15.269 14.4228C15.269 14.7298 15.269 15.0368 15.269 15.3437V15.3574V15.3369C15.269 15.0436 15.269 14.7298 15.269 14.4228ZM4.68932 13.2427C4.68932 13.3314 4.68932 13.4201 4.68932 13.5088C4.68932 13.4269 4.68932 13.3382 4.68932 13.2427ZM4.66397 12.3969C4.66397 12.431 4.66397 12.4583 4.66397 12.4924V12.4992C4.66397 12.6629 4.66397 12.8266 4.66397 12.9972V12.9358C4.66397 12.7925 4.66397 12.6493 4.66397 12.506V12.4992C4.66397 12.4583 4.66397 12.4242 4.66397 12.3969ZM11.3983 9.88663C11.4046 9.89345 11.4173 9.90709 11.4236 9.91391C11.6833 10.1799 12.0191 10.2209 12.3169 10.0299C12.0254 10.2209 11.6897 10.1731 11.4236 9.91391C11.4109 9.90709 11.4046 9.89345 11.3983 9.88663ZM6.88762 9.04759C6.91929 9.0817 6.95097 9.12263 6.97631 9.1772C7.12202 9.45006 6.96997 9.64788 6.82427 9.83888L6.80526 9.86616C6.77992 9.89345 6.76091 9.92755 6.73557 9.95484C6.76091 9.92755 6.78626 9.90027 6.80526 9.86616L6.82427 9.83888C6.96997 9.64788 7.12202 9.45688 6.97631 9.1772C6.9573 9.12945 6.92563 9.0817 6.88762 9.04759ZM16.7388 9.29317C16.7388 9.29317 16.7451 9.29316 16.7451 9.29999C16.7451 9.29316 16.7451 9.29317 16.7388 9.29317ZM17.0429 9.14991C16.9479 9.21813 16.8908 9.25906 16.8528 9.27952C16.8972 9.25906 16.9542 9.21131 17.0429 9.14991ZM15.9216 8.65195C16.1813 8.65195 16.4157 8.78838 16.5487 9.02713C16.5804 9.08852 16.6121 9.13627 16.6311 9.17038C16.6058 9.13627 16.5804 9.08852 16.5487 9.02713C16.3777 8.72017 16.0356 8.58374 15.6998 8.68606C15.4654 8.75428 15.3071 8.92481 15.25 9.16356C15.3134 8.92481 15.4654 8.75428 15.6998 8.68606C15.7759 8.6656 15.8455 8.65195 15.9216 8.65195ZM11.7404 8.16081C11.4679 8.24267 11.1512 8.39274 11.0752 8.84977C11.0752 8.8566 11.0752 8.86342 11.0688 8.87706C11.0688 8.87024 11.0688 8.86342 11.0752 8.84977C11.1322 8.50188 11.3476 8.2836 11.7404 8.16081ZM14.965 5.67783C14.9523 5.79379 14.9396 5.90976 14.9269 6.02572C14.7876 6.95343 14.4518 7.77882 13.9006 8.51553C14.4455 7.77882 14.7876 6.95343 14.9269 6.02572C14.9459 5.90976 14.9586 5.79379 14.965 5.67783ZM1.95252 5.39133C1.94619 5.40497 1.93988 5.41106 1.93988 5.4247C1.93988 5.41788 1.94619 5.40497 1.95252 5.39133ZM13.1468 3.13345C13.4318 3.58366 13.5839 4.10891 13.6092 4.70237C13.6346 5.3504 13.5649 5.9234 13.3812 6.435C13.5649 5.9234 13.6346 5.34358 13.6092 4.70237C13.5839 4.10891 13.4318 3.59048 13.1468 3.13345ZM6.08939 5.8279C6.10206 5.93022 6.09572 6.00526 6.07038 6.06665C6.10206 5.99161 6.09572 5.90294 6.08939 5.8279ZM17.3977 3.67916C17.4547 3.72691 17.5054 3.78148 17.556 3.82923C17.6637 3.93838 17.7714 4.0748 17.8728 4.22487C17.7714 4.06798 17.6637 3.93838 17.556 3.82923C17.499 3.77466 17.4483 3.72691 17.3977 3.67916ZM4.24585 3.87698C4.1825 3.87698 4.11282 3.87698 4.04946 3.8838C4.15716 3.87698 4.25852 3.87698 4.35989 3.87698C4.32188 3.87698 4.28386 3.87698 4.24585 3.87698ZM14.7749 2.90152C14.7179 2.91517 14.6735 2.92199 14.6355 2.93563C14.6735 2.92199 14.7242 2.91517 14.7749 2.90152ZM15.2817 2.85378C15.1803 2.85378 15.079 2.8606 14.9776 2.87424C15.1613 2.85378 15.3514 2.85377 15.5351 2.86742C15.4464 2.8606 15.3641 2.85378 15.2817 2.85378ZM9.93483 1.48268C8.94021 1.48268 7.94559 1.84421 7.17904 2.56728C8.04695 1.74871 9.21262 1.394 10.3403 1.50314C10.2072 1.4895 10.0742 1.48268 9.93483 1.48268Z" fill="#E04E39"/>
<path d="M10.0905 15.4862C9.08951 15.4521 8.10122 15.3703 7.17628 14.8928C6.92288 14.7632 6.69481 14.5995 6.47941 14.4085C6.37172 14.313 6.27669 14.2106 6.34004 14.0401C6.39706 13.8832 6.5301 13.8832 6.6568 13.8832C7.10026 13.8764 7.52472 13.9924 7.94284 14.1083C9.00081 14.4016 10.0715 14.4221 11.1484 14.2789C11.5032 14.2311 11.763 14.4016 11.8136 14.7222C11.8706 15.0565 11.6743 15.343 11.3195 15.4044C10.914 15.459 10.5023 15.4862 10.0905 15.4862Z" fill="#E04E39"/>
<path d="M10.1465 15.5885C10.1275 15.5885 10.1085 15.5885 10.0895 15.5885C9.17087 15.5612 8.10657 15.4862 7.13729 14.9814C6.87754 14.845 6.63681 14.6813 6.42141 14.4835C6.33272 14.4016 6.16167 14.2447 6.25036 13.9992C6.33272 13.7809 6.51644 13.7809 6.64948 13.774H6.66215C7.12462 13.7672 7.55541 13.8832 7.97353 13.9992C8.93647 14.2652 9.97544 14.3198 11.1411 14.1629C11.5466 14.1083 11.8506 14.3129 11.914 14.6881C11.9457 14.8723 11.9077 15.0496 11.8126 15.1929C11.7113 15.3498 11.5402 15.4521 11.3375 15.4862C10.9574 15.5544 10.5709 15.5885 10.1465 15.5885ZM10.0895 15.3839C10.5266 15.3839 10.9257 15.3566 11.3058 15.2952C11.4579 15.2679 11.5782 15.1997 11.6543 15.0837C11.7176 14.9882 11.743 14.8655 11.7239 14.729C11.6796 14.463 11.4705 14.3334 11.1601 14.3675C9.96911 14.5244 8.91113 14.4698 7.92285 14.197C7.5174 14.0878 7.09928 13.965 6.66215 13.9787H6.64948C6.5101 13.9787 6.45942 13.9923 6.42775 14.0742C6.39607 14.1629 6.42141 14.2174 6.54178 14.3266C6.74451 14.5108 6.97257 14.6676 7.21964 14.7973C8.15091 15.2816 9.18988 15.3566 10.0895 15.3839Z" fill="#E04E39"/>
<path d="M10.1465 15.5885C10.1275 15.5885 10.1085 15.5885 10.0895 15.5885C9.17087 15.5612 8.10657 15.4862 7.13729 14.9814C6.87754 14.845 6.63681 14.6813 6.42141 14.4835C6.33272 14.4016 6.16167 14.2447 6.25036 13.9992C6.33272 13.7809 6.51644 13.7809 6.64948 13.774H6.66215C7.11828 13.7672 7.55541 13.8832 7.97353 13.9992C8.93647 14.2652 9.97544 14.3198 11.1411 14.1629C11.5466 14.1083 11.8506 14.3129 11.914 14.6881C11.9457 14.8723 11.9077 15.0496 11.8126 15.1929C11.7113 15.3498 11.5402 15.4521 11.3375 15.4862C10.9574 15.5544 10.5709 15.5885 10.1465 15.5885ZM10.0895 15.3839C10.5266 15.3839 10.9257 15.3566 11.3058 15.2952C11.4579 15.2679 11.5782 15.1997 11.6543 15.0837C11.7176 14.9882 11.743 14.8655 11.7239 14.729C11.6796 14.463 11.4705 14.3334 11.1601 14.3675C9.96911 14.5244 8.91113 14.4698 7.92285 14.197C7.5174 14.0878 7.09928 13.965 6.66215 13.9787H6.64948C6.5101 13.9787 6.45942 13.9923 6.42775 14.0742C6.39607 14.1629 6.42141 14.2174 6.54178 14.3266C6.74451 14.5108 6.97257 14.6676 7.21964 14.7973C8.15091 15.2816 9.18988 15.3566 10.0895 15.3839Z" fill="#E04E39"/>
<path d="M10.1451 15.6909H10.0881C9.15679 15.6636 8.07981 15.5886 7.09153 15.0769C6.81911 14.9337 6.57204 14.7632 6.35665 14.5653C6.26162 14.4767 6.03989 14.2788 6.16026 13.9651C6.26162 13.6854 6.50236 13.6786 6.64173 13.6786H6.6544C7.12954 13.6717 7.56666 13.7945 7.99112 13.9105C8.9414 14.1765 9.9677 14.2311 11.127 14.0742C11.5832 14.0128 11.9379 14.2584 12.0013 14.6813C12.033 14.8928 11.995 15.0974 11.8873 15.2611C11.7669 15.4385 11.5768 15.5544 11.3488 15.5954C10.9687 15.6568 10.5759 15.6909 10.1451 15.6909ZM11.3424 15.3907C11.3361 15.3907 11.3234 15.3976 11.3171 15.3976C11.1714 15.4248 11.0257 15.4385 10.8736 15.4589C11.0257 15.4453 11.1714 15.4248 11.3171 15.3976C11.3234 15.3907 11.3361 15.3907 11.3424 15.3907ZM10.0881 15.2816C10.5189 15.2816 10.9116 15.2543 11.2854 15.1929C11.4121 15.1724 11.5135 15.1111 11.5705 15.0224C11.6212 14.9473 11.6402 14.8518 11.6212 14.7495C11.5705 14.4562 11.2854 14.4562 11.165 14.4767C9.96136 14.6336 8.89072 14.579 7.88976 14.2993C7.48431 14.1902 7.07252 14.0742 6.6544 14.081H6.64173C6.51503 14.081 6.51503 14.0947 6.50236 14.1083C6.48969 14.1356 6.48335 14.1492 6.59105 14.2447C6.78744 14.4221 7.00917 14.5722 7.24991 14.7018C8.17484 15.1861 9.20114 15.2543 10.0881 15.2816ZM11.7352 15.1315C11.7352 15.1383 11.7289 15.1383 11.7289 15.1452C11.7289 15.1383 11.7289 15.1315 11.7352 15.1315ZM6.85713 14.7018C6.95849 14.77 7.06619 14.8314 7.17388 14.8859C7.05985 14.8314 6.95849 14.77 6.85713 14.7018ZM11.2601 14.2652C11.5135 14.2652 11.7035 14.388 11.7796 14.5995C11.6909 14.3607 11.4628 14.2379 11.1524 14.272C11.1904 14.2652 11.2221 14.2652 11.2601 14.2652ZM10.7406 14.3198C10.7026 14.3266 10.6582 14.3266 10.6202 14.3334C10.6582 14.3266 10.7026 14.3198 10.7406 14.3198ZM6.48969 13.89C6.42 13.9037 6.36932 13.9446 6.33764 14.0265C6.36932 13.9446 6.42633 13.9105 6.48969 13.89ZM6.66707 13.8764C6.66074 13.8764 6.6544 13.8764 6.64806 13.8764C6.66074 13.8764 6.66074 13.8764 6.66707 13.8764Z" fill="#E04E39"/>
</svg>
