<svg width="36" height="20" viewBox="0 0 36 20" fill="none" xmlns="http://www.w3.org/2000/svg">
<path d="M19.1241 18.2614C18.4826 16.7829 17.6349 16.2266 16.1915 16.1351C13.5033 15.9675 11.9224 14.3747 11.3344 11.5396C11.0365 10.0992 10.815 8.77313 8.80652 9.10846C8.05809 9.2304 7.79843 8.55212 7.60751 7.92719C7.14165 6.38772 6.59179 4.88636 6.20994 3.33927C5.9121 2.14275 5.36223 1.57117 4.06394 1.70835C3.09405 1.80743 2.10124 1.73121 1.1237 1.70835C0.604385 1.70073 -0.0294849 1.69311 0.00106304 0.969102C0.031611 0.267959 0.657844 0.283201 1.17716 0.27558C2.67401 0.260338 4.17086 0.290822 5.66771 0.267959C6.52305 0.245095 7.00418 0.610909 7.24093 1.42637C7.75261 3.15636 8.29484 4.87874 8.85234 6.59349C9.02035 7.11935 9.18836 7.83573 9.95206 7.59186C10.7005 7.3556 10.2194 6.72305 10.1506 6.26578C10.059 5.60274 9.89097 4.95495 9.77641 4.29191C9.29528 1.64738 10.5172 0.100294 13.2207 0.0317039C15.5423 -0.0292651 17.8716 0.0164616 20.1933 0.0164616C24.0652 0.0164616 27.9448 0.0088405 31.8168 0.0164616C35.3756 0.0240827 36.5135 1.40351 35.7956 4.84825C35.2992 7.21842 34.8181 9.58859 34.253 11.9435C33.642 14.489 31.9313 16.0513 29.3729 16.1504C27.9372 16.2037 27.2193 16.8287 26.7534 18.0633C27.3415 18.4443 27.9754 18.17 28.5634 18.269C29.4035 18.4139 30.8774 17.8423 30.8698 19.0616C30.8698 20.4182 29.3577 19.9 28.4794 19.9152C24.0347 19.9686 19.59 19.9381 15.1529 19.9381C12.877 19.9381 10.6088 19.9762 8.33302 19.9152C7.55405 19.8923 6.24049 20.3039 6.24812 19.054C6.25576 17.9413 7.51586 18.2919 8.27193 18.2843C11.8308 18.2386 15.3896 18.2614 19.1241 18.2614ZM22.9197 1.70073C19.6663 1.70073 16.413 1.67787 13.1596 1.70835C11.7009 1.72359 11.0289 2.40187 11.2809 3.69746C11.8079 6.42583 12.373 9.14657 13.045 11.8444C13.4574 13.5135 14.7328 14.4509 16.2449 14.5195C17.0316 14.5576 17.4287 14.3594 17.5814 13.4601C18.0778 10.6098 20.0329 8.85696 22.6829 8.71978C25.1115 8.59023 27.3339 10.3583 28.0517 12.9952C28.4947 14.6109 29.1438 14.9081 30.7018 14.2146C31.8931 13.6811 32.5041 12.7285 32.7561 11.4939C33.2678 9.02463 33.8024 6.55538 34.3064 4.08614C34.6654 2.31804 34.1842 1.70835 32.359 1.69311C29.2202 1.67787 26.0738 1.69311 22.9197 1.70073ZM19.1928 14.0088C19.1623 16.1123 20.7279 17.7737 22.7898 17.8423C24.806 17.9109 26.532 16.219 26.5625 14.1613C26.5854 12.0655 25.0122 10.4193 22.935 10.3659C20.8119 10.3278 19.2234 11.8673 19.1928 14.0088Z" fill="#E04E39"/>
<path d="M30.4498 12.3019C30.4346 12.8126 30.5109 13.4527 29.8389 13.5442C29.0217 13.6585 29.0064 12.9193 28.9224 12.3858C28.5406 10.0156 27.3263 8.25513 25.081 7.35584C21.4382 5.88496 17.6808 8.11795 16.8484 12.18C16.7185 12.7973 16.856 13.7347 15.8555 13.5442C15.0384 13.3918 15.298 12.5611 15.3591 11.9742C15.7334 8.2094 19.4449 5.0695 23.2023 5.30576C27.0056 5.55725 30.4346 8.86482 30.4498 12.3019Z" fill="#E04E39"/>
<path d="M22.8661 16.5545C21.5373 16.5698 20.3917 15.4571 20.3688 14.1234C20.3459 12.8278 21.4991 11.677 22.8432 11.6694C24.2026 11.6542 25.3176 12.7516 25.3328 14.1005C25.3481 15.4342 24.2408 16.5393 22.8661 16.5545Z" fill="#E04E39"/>
</svg>
