<svg width="17" height="22" viewBox="0 0 17 22" fill="none" xmlns="http://www.w3.org/2000/svg">
<path d="M3.0387 18.4328C3.0387 17.9048 3.02978 17.3769 3.0387 16.858C3.06544 15.8384 2.85151 14.8734 2.5217 13.9176C2.20081 12.9799 1.82644 12.0605 1.58577 11.0956C1.18466 9.54799 1.08661 7.99132 1.55012 6.44376C2.10276 4.62309 3.19023 3.22118 4.79469 2.24713C6.0426 1.49155 7.39747 1.16383 8.84148 1.26397C10.9094 1.40962 12.6209 2.28354 13.9223 3.94945C14.1273 4.21345 14.2788 4.51385 14.3769 4.83247C15.1434 7.18113 15.8922 9.52979 16.6766 11.8602C16.9172 12.5885 16.3557 13.4442 15.5624 13.4351C15.4198 13.4351 15.2771 13.4442 15.1345 13.4351C14.9919 13.426 14.9473 13.4897 14.9473 13.6263C14.9562 14.1725 14.9473 14.7187 14.9473 15.2649C14.9384 16.6304 13.8955 17.6955 12.5585 17.7046C12.2465 17.7046 11.9345 17.7046 11.6315 17.7046C11.3819 17.7046 11.3819 17.7046 11.3819 17.9504C11.3819 18.797 11.373 19.6527 11.3819 20.4993C11.3819 20.6905 11.3284 20.7633 11.1412 20.7451C10.9005 20.7269 10.6599 20.7269 10.4192 20.7451C10.232 20.7542 10.1696 20.6905 10.1696 20.4993C10.1785 19.5434 10.1696 18.5876 10.1696 17.6317C10.1696 17.3404 10.1696 17.0491 10.1696 16.7578C10.1696 16.4756 10.1696 16.4665 10.4459 16.4665C11.1055 16.4665 11.7652 16.4665 12.4159 16.4665C13.2627 16.4665 13.744 15.9658 13.744 15.101C13.744 14.218 13.744 13.3259 13.744 12.4428C13.744 12.2608 13.8064 12.1971 13.9757 12.2062C14.4036 12.2153 14.8315 12.2062 15.2593 12.2062C15.4911 12.2062 15.4911 12.2062 15.4198 11.9877C14.8404 10.2125 14.261 8.43739 13.6816 6.67134C13.5657 6.32542 13.432 5.98859 13.3518 5.64267C13.1557 4.84157 12.6654 4.26806 12.0415 3.77649C11.0788 3.01181 9.99134 2.59305 8.77017 2.51112C5.68605 2.29264 2.93173 4.61399 2.5217 7.73643C2.36126 8.97448 2.55736 10.1761 2.92282 11.3504C3.21697 12.3154 3.61808 13.253 3.89441 14.2271C4.12616 15.0373 4.25987 15.8566 4.25095 16.7032C4.23313 17.9686 4.25095 19.243 4.25095 20.5084C4.25095 20.7542 4.25095 20.7633 4.00137 20.7633C3.75179 20.7633 3.50221 20.7542 3.25262 20.7633C3.09218 20.7724 3.0387 20.7087 3.0387 20.5448C3.0387 19.8347 3.0387 19.1338 3.0387 18.4328Z" fill="#E04E39"/>
<path d="M11.1945 20.9993C11.1767 20.9993 11.1499 20.9993 11.141 20.9993C10.9182 20.9902 10.6775 20.9902 10.4458 20.9993C10.3388 21.0084 10.1873 20.9993 10.0714 20.89C9.9555 20.7717 9.93767 20.6169 9.93767 20.5077C9.94659 19.8067 9.94659 19.0876 9.93767 18.3866C9.93767 18.1317 9.93767 17.8859 9.93767 17.6311V17.4581C9.93767 17.2214 9.93767 16.9938 9.93767 16.7571C9.93767 16.3293 10.0446 16.22 10.4547 16.22H11.3728C11.7204 16.22 12.0769 16.22 12.4246 16.22C13.1377 16.22 13.512 15.8377 13.512 15.1094V14.5359C13.512 13.8532 13.512 13.1431 13.512 12.4513C13.512 12.3511 13.521 12.1964 13.6368 12.0871C13.7527 11.9779 13.8953 11.9688 14.0023 11.9688C14.3143 11.9779 14.6352 11.9779 14.9382 11.9688C15.0185 11.9688 15.0898 11.9688 15.17 11.9688C14.7154 10.5669 14.2608 9.17407 13.7973 7.77216L13.4675 6.76169C13.4318 6.65245 13.3962 6.55232 13.3605 6.44308C13.2803 6.20639 13.1912 5.9606 13.1288 5.70571C12.9683 5.05937 12.5939 4.52227 11.9076 3.98518C10.9806 3.24781 9.9555 2.85637 8.76999 2.77444C5.80174 2.56506 3.1633 4.75896 2.76219 7.77216C2.61957 8.83725 2.74436 9.94785 3.15439 11.2769C3.28809 11.723 3.45745 12.1782 3.60898 12.6151C3.78726 13.1158 3.97444 13.6347 4.12597 14.1536C4.38447 15.0366 4.50035 15.865 4.49143 16.7025C4.48252 17.5764 4.48252 18.4686 4.48252 19.3243C4.48252 19.7157 4.48252 20.1072 4.48252 20.4986C4.48252 20.89 4.37556 20.9993 3.99227 20.9993C3.91205 20.9993 3.83182 20.9993 3.74269 20.9993C3.57333 20.9993 3.41288 20.9993 3.25244 20.9993C3.19896 20.9993 3.0296 21.0084 2.9048 20.89C2.78893 20.7808 2.78001 20.6351 2.78001 20.535C2.78893 20.0252 2.78001 19.5154 2.78001 19.0148V18.4412C2.78001 18.2774 2.78001 18.1135 2.78001 17.9497C2.78001 17.5946 2.7711 17.2214 2.78893 16.8573C2.81567 15.9742 2.64631 15.073 2.28085 14.0079C2.20063 13.7621 2.11149 13.5255 2.02235 13.2888C1.77277 12.606 1.52319 11.896 1.336 11.1677C0.89032 9.38345 0.881406 7.81768 1.31818 6.37025C1.88865 4.49497 3.01177 3.03843 4.67862 2.03707C5.9711 1.25418 7.37946 0.908258 8.86804 1.0175C11.043 1.17225 12.8079 2.1099 14.1271 3.79401C14.341 4.06711 14.5015 4.38573 14.6263 4.75896C14.7956 5.27785 14.965 5.78764 15.1254 6.30653C15.7048 8.10898 16.3109 9.96606 16.926 11.7867C17.0686 12.2146 16.9884 12.6971 16.712 13.0885C16.4357 13.4799 16.0257 13.6984 15.58 13.6893C15.5265 13.6893 15.4731 13.6893 15.4196 13.6893C15.3572 13.6893 15.2859 13.6893 15.2146 13.6893C15.2146 14.2264 15.2146 14.7635 15.2146 15.2642C15.2056 16.7571 14.0469 17.9406 12.5761 17.9497C12.38 17.9497 12.1928 17.9497 11.9967 17.9497H11.6313V18.5778C11.6313 19.2059 11.6313 19.8523 11.6313 20.4895C11.6313 20.5987 11.6224 20.7626 11.4976 20.8809C11.4084 20.9811 11.2747 20.9993 11.1945 20.9993ZM10.4279 16.7207C10.4279 16.7298 10.4279 16.748 10.4279 16.7571C10.4279 16.9938 10.4279 17.2214 10.4279 17.4581V17.6311C10.4279 17.8859 10.4279 18.1317 10.4279 18.3866C10.4279 19.0785 10.4279 19.7976 10.4279 20.5077C10.6775 20.4986 10.9182 20.4986 11.1588 20.5077C11.1499 19.8705 11.1499 19.215 11.1588 18.5869V17.9588C11.1588 17.5764 11.2658 17.4581 11.6491 17.4581H12.0056C12.2017 17.4581 12.3889 17.4581 12.585 17.4581C13.7884 17.449 14.7332 16.4931 14.7332 15.2733C14.7332 14.7544 14.7332 14.19 14.7332 13.6438C14.7332 13.5892 14.7332 13.4253 14.8491 13.307C14.9293 13.2341 15.0363 13.1977 15.17 13.2068C15.2502 13.2068 15.3304 13.2068 15.4107 13.2068C15.473 13.2068 15.5265 13.2068 15.5889 13.2068H15.5978C15.8831 13.2068 16.1416 13.0612 16.3198 12.8154C16.4981 12.5605 16.5516 12.2419 16.4625 11.9688C15.8474 10.1481 15.2413 8.28195 14.6619 6.47949C14.4925 5.9606 14.3232 5.45081 14.1627 4.93192C14.0558 4.61331 13.9221 4.34931 13.7438 4.12173C12.5137 2.53775 10.8647 1.66383 8.83238 1.51818C7.44185 1.41804 6.13155 1.73666 4.9282 2.46493C3.37723 3.40257 2.3165 4.76806 1.78169 6.5159C1.37166 7.8723 1.38057 9.34703 1.80843 11.0311C1.9867 11.7321 2.23628 12.4331 2.48586 13.1067C2.575 13.3525 2.66414 13.5892 2.74436 13.835C3.13656 14.9547 3.30592 15.9196 3.27918 16.8573C3.27026 17.2123 3.27026 17.5764 3.27918 17.9315C3.27918 18.0953 3.27918 18.2592 3.27918 18.4321V18.9965C3.27918 19.4881 3.27918 19.9888 3.27918 20.4895C3.43962 20.4804 3.60007 20.4895 3.7516 20.4895C3.83182 20.4895 3.91205 20.4895 3.99227 20.4895H4.00118C4.00118 20.0981 4.00118 19.7066 4.00118 19.3152C4.00118 18.4504 3.99227 17.5582 4.0101 16.6843C4.01901 15.9014 3.90313 15.1185 3.66246 14.2901C3.51093 13.7803 3.33266 13.2706 3.15439 12.779C2.99394 12.3329 2.8335 11.8778 2.69088 11.4135C2.26302 10.0116 2.13823 8.82814 2.28085 7.69023C2.71762 4.41304 5.5789 2.02797 8.80564 2.25555C10.0714 2.34658 11.2212 2.79264 12.2107 3.57553C12.9772 4.18545 13.4229 4.82268 13.6012 5.57826C13.6547 5.80584 13.7349 6.03343 13.8151 6.26101C13.8508 6.37025 13.8864 6.47949 13.9221 6.58873L14.2519 7.5992C14.7243 9.03752 15.1878 10.4667 15.6602 11.9051C15.7048 12.0507 15.7494 12.1873 15.6602 12.3147C15.5711 12.4422 15.4285 12.4422 15.268 12.4422C15.1522 12.4422 15.0452 12.4422 14.9293 12.4422C14.6263 12.4422 14.3054 12.4422 13.9934 12.4422C14.0023 13.134 14.0023 13.8441 13.9934 14.5177V15.0912C13.9934 16.1017 13.4051 16.7025 12.4246 16.7025C12.0769 16.7025 11.7204 16.7025 11.3728 16.7025H10.4547C10.4547 16.7207 10.4368 16.7207 10.4279 16.7207Z" fill="#E04E39"/>
<path d="M4.08977 8.79243C4.08085 6.34364 6.02403 4.34091 8.39506 4.3136C10.8017 4.28629 12.8162 6.29812 12.8162 8.74692C12.8162 11.2321 10.8909 13.2258 8.47528 13.2349C6.05077 13.244 4.09868 11.2685 4.08977 8.79243ZM8.46637 12.106C10.2758 12.0696 11.7109 10.6495 11.7109 8.77423C11.7109 6.92625 10.2937 5.44241 8.43072 5.45151C6.62125 5.46972 5.21289 6.91715 5.20397 8.75602C5.19506 10.6313 6.63016 12.0696 8.46637 12.106Z" fill="#E04E39"/>
<path d="M8.46694 13.4624C7.23686 13.4624 6.087 12.9799 5.22237 12.106C4.35775 11.223 3.87641 10.0487 3.8675 8.79242C3.85859 6.22528 5.8909 4.11331 8.39563 4.086C9.62572 4.0678 10.7934 4.55027 11.6848 5.4515C12.5672 6.33452 13.0486 7.50885 13.0486 8.7469C13.0486 10.0123 12.5761 11.1957 11.7204 12.0787C10.8647 12.9708 9.71485 13.4624 8.48477 13.4624C8.47586 13.4624 8.46694 13.4624 8.46694 13.4624ZM4.31318 8.79242C4.31318 9.93033 4.74995 10.9954 5.53435 11.7874C6.31875 12.5794 7.35274 13.0164 8.46694 13.0164C8.47586 13.0164 8.47586 13.0164 8.48477 13.0164C10.7934 13.0073 12.6118 11.132 12.6118 8.756C12.6118 7.6363 12.175 6.58031 11.3817 5.77922C10.5795 4.96902 9.52767 4.53207 8.41346 4.55027C6.14048 4.56848 4.30427 6.47107 4.31318 8.79242ZM8.46694 12.3336C6.50594 12.2972 4.97279 10.7314 4.98171 8.756C4.99062 6.78969 6.50594 5.24212 8.43129 5.22392C8.4402 5.22392 8.44912 5.22392 8.45803 5.22392C9.39396 5.22392 10.2675 5.58805 10.9182 6.24349C11.5778 6.90803 11.9344 7.80926 11.9344 8.77421C11.9344 10.7587 10.4458 12.2881 8.46694 12.3336ZM8.45803 5.67908C8.44912 5.67908 8.4402 5.67908 8.4402 5.67908C6.76444 5.68819 5.4363 7.04458 5.4363 8.756C5.42739 10.4765 6.76444 11.842 8.47586 11.8784C10.1962 11.842 11.4976 10.5038 11.4976 8.77421C11.4976 7.9276 11.1856 7.14472 10.6151 6.57121C10.0357 5.9977 9.27808 5.67908 8.45803 5.67908Z" fill="#E04E39"/>
<path d="M7.37154 9.33864C7.23784 9.33864 7.09522 9.33864 6.96151 9.33864C6.86346 9.33864 6.8189 9.29312 6.8189 9.19299C6.8189 8.91078 6.8189 8.63768 6.8189 8.35548C6.8189 8.23714 6.87238 8.20983 6.97934 8.20983C7.22892 8.20983 7.4785 8.20072 7.72809 8.20983C7.8707 8.21893 7.91527 8.15521 7.91527 8.01866C7.90636 7.77287 7.91527 7.51798 7.91527 7.27219C7.91527 7.14474 7.95093 7.09012 8.08463 7.09922C8.34313 7.10833 8.61054 7.10833 8.86903 7.09922C8.99382 7.09922 9.02948 7.15384 9.02948 7.26308C9.02948 7.51798 9.02948 7.77287 9.02948 8.02776C9.02948 8.16431 9.06513 8.21893 9.20775 8.20983C9.45733 8.20072 9.70691 8.20983 9.9565 8.20983C10.0813 8.20983 10.1259 8.25534 10.1259 8.38279C10.1169 8.64679 10.1169 8.90168 10.1259 9.16568C10.1259 9.29312 10.0813 9.33864 9.9565 9.33864C9.70691 9.32954 9.45733 9.33864 9.20775 9.33864C9.07405 9.33864 9.02948 9.38416 9.02948 9.52071C9.03839 9.7665 9.02948 10.0214 9.02948 10.2672C9.02948 10.3946 8.99382 10.4584 8.8512 10.4492C8.59271 10.4401 8.34313 10.4401 8.08463 10.4492C7.95984 10.4492 7.91527 10.3946 7.91527 10.2763C7.92419 10.0123 7.91527 9.75739 7.91527 9.4934C7.91527 9.38416 7.87962 9.32954 7.76374 9.33864C7.63004 9.34774 7.49633 9.33864 7.37154 9.33864Z" fill="#E04E39"/>
<path d="M8.85176 10.6859C8.84285 10.6859 8.84285 10.6859 8.83394 10.6859C8.60218 10.6768 8.3526 10.6768 8.07628 10.6859C7.95148 10.6859 7.85343 10.6495 7.78212 10.5858C7.67516 10.4766 7.67516 10.3309 7.67516 10.2763C7.67516 10.1397 7.67516 10.0123 7.67516 9.87575C7.67516 9.77561 7.67516 9.67548 7.67516 9.57534C7.60385 9.57534 7.54146 9.57534 7.47906 9.57534C7.44341 9.57534 7.39884 9.57534 7.36318 9.57534H7.14034C7.07795 9.57534 7.01555 9.57534 6.96207 9.57534C6.84619 9.57534 6.75706 9.54803 6.69466 9.4752C6.62335 9.41148 6.59661 9.31134 6.59661 9.193C6.59661 8.86528 6.59661 8.60129 6.59661 8.3646C6.59661 8.24626 6.63226 8.15522 6.69466 8.0915C6.80162 7.98226 6.93533 7.99136 6.9799 7.99136C7.07795 7.99136 7.176 7.99136 7.27405 7.99136C7.40775 7.99136 7.55037 7.99136 7.69299 7.99136C7.69299 7.86392 7.69299 7.74557 7.69299 7.61813C7.69299 7.50889 7.69299 7.39054 7.69299 7.2813C7.69299 7.23579 7.69299 7.09013 7.79995 6.98089C7.87126 6.90807 7.9604 6.87165 8.0941 6.88076C8.33477 6.88986 8.59327 6.88986 8.86959 6.88076H8.8785C8.99438 6.88076 9.08352 6.91717 9.14592 6.98089C9.25288 7.09013 9.25288 7.22668 9.24396 7.2813C9.24396 7.39054 9.24396 7.49978 9.24396 7.61813C9.24396 7.74557 9.24396 7.87302 9.24396 8.00047C9.35984 8.00047 9.48463 8.00047 9.60051 8.00047C9.71639 8.00047 9.82335 8.00047 9.93923 8.00047C10.064 8.00047 10.1621 8.03688 10.2334 8.1006C10.3403 8.20984 10.3403 8.3555 10.3403 8.40101C10.3314 8.65591 10.3314 8.9199 10.3403 9.17479C10.3403 9.22031 10.3403 9.36596 10.2334 9.4752C10.1621 9.54803 10.064 9.58444 9.93923 9.57534C9.82335 9.57534 9.71639 9.57534 9.60051 9.57534C9.48463 9.57534 9.36876 9.57534 9.24396 9.57534C9.24396 9.69368 9.24396 9.80292 9.24396 9.92127C9.24396 10.0396 9.24396 10.158 9.24396 10.2763C9.24396 10.3309 9.25288 10.4766 9.137 10.5949C9.06569 10.6495 8.96764 10.6859 8.85176 10.6859ZM8.45956 10.2217C8.57544 10.2217 8.6824 10.2217 8.78937 10.2217C8.78937 10.1124 8.78937 10.0123 8.78937 9.90306C8.78937 9.77561 8.78937 9.64817 8.78937 9.52072C8.78937 9.4661 8.78045 9.32045 8.89633 9.21121C9.0033 9.10197 9.14591 9.10197 9.1994 9.11107C9.3331 9.11107 9.46681 9.11107 9.5916 9.11107C9.68965 9.11107 9.7877 9.11107 9.88575 9.11107C9.88575 8.89259 9.88575 8.66501 9.88575 8.43743C9.7877 8.43743 9.68965 8.43743 9.5916 8.43743C9.45789 8.43743 9.32419 8.43743 9.1994 8.43743C9.15483 8.43743 9.0033 8.44653 8.89633 8.33729C8.78937 8.22805 8.78937 8.07329 8.78937 8.02778C8.78937 7.89123 8.78937 7.74557 8.78937 7.60902C8.78937 7.51799 8.78937 7.42696 8.78937 7.32682C8.55761 7.32682 8.33477 7.32682 8.12976 7.32682C8.12976 7.42696 8.12976 7.51799 8.12976 7.61813C8.12976 7.74557 8.12976 7.88212 8.12976 8.01867C8.12976 8.07329 8.13867 8.22805 8.02279 8.33729C7.91583 8.44653 7.7643 8.44653 7.71082 8.44653C7.5682 8.43743 7.41667 8.44653 7.26513 8.44653C7.18491 8.44653 7.1136 8.44653 7.03338 8.44653C7.03338 8.6468 7.03338 8.86528 7.03338 9.12017C7.10469 9.12017 7.16708 9.12017 7.23839 9.12017H7.58603C7.63951 9.12017 7.69299 9.12017 7.74647 9.12017C7.86235 9.11107 7.95149 9.14748 8.02279 9.22031C8.0941 9.29314 8.12976 9.38417 8.12084 9.51162C8.12084 9.63906 8.12084 9.75741 8.12084 9.88485C8.12084 10.0032 8.12084 10.1215 8.12084 10.2399C8.24564 10.2217 8.3526 10.2217 8.45956 10.2217Z" fill="#E04E39"/>
</svg>
