<svg width="50" height="50" viewBox="0 0 50 50" fill="none" xmlns="http://www.w3.org/2000/svg">
<rect width="50" height="50" rx="10" fill="#F7F9FA"/>
<path d="M24.75 24.75C26.0429 24.75 27.2829 24.2364 28.1971 23.3221C29.1114 22.4079 29.625 21.1679 29.625 19.875C29.625 18.5821 29.1114 17.3421 28.1971 16.4279C27.2829 15.5136 26.0429 15 24.75 15C23.4571 15 22.2171 15.5136 21.3029 16.4279C20.3886 17.3421 19.875 18.5821 19.875 19.875C19.875 21.1679 20.3886 22.4079 21.3029 23.3221C22.2171 24.2364 23.4571 24.75 24.75 24.75ZM28 19.875C28 20.737 27.6576 21.5636 27.0481 22.1731C26.4386 22.7826 25.612 23.125 24.75 23.125C23.888 23.125 23.0614 22.7826 22.4519 22.1731C21.8424 21.5636 21.5 20.737 21.5 19.875C21.5 19.013 21.8424 18.1864 22.4519 17.5769C23.0614 16.9674 23.888 16.625 24.75 16.625C25.612 16.625 26.4386 16.9674 27.0481 17.5769C27.6576 18.1864 28 19.013 28 19.875ZM34.5 32.875C34.5 34.5 32.875 34.5 32.875 34.5H16.625C16.625 34.5 15 34.5 15 32.875C15 31.25 16.625 26.375 24.75 26.375C32.875 26.375 34.5 31.25 34.5 32.875ZM32.875 32.8685C32.8734 32.4688 32.6248 31.2662 31.523 30.1645C30.4635 29.105 28.4696 28 24.75 28C21.0287 28 19.0365 29.105 17.977 30.1645C16.8753 31.2662 16.6283 32.4688 16.625 32.8685H32.875Z" fill="#C9D1D1"/>
</svg>
