<svg width="38" height="38" viewBox="0 0 38 38" fill="none" xmlns="http://www.w3.org/2000/svg">
<path d="M1 2.07926C1.2867 1.28668 1.86349 1 2.68987 1C10.1138 1.01349 17.5412 1.00675 24.9651 1.00675C26.4391 1.00675 27.6197 1.96121 27.9502 3.3946C27.9975 3.59022 28.0008 3.78921 28.0008 3.9882C28.0008 13.2732 28.0042 22.5616 28.0008 31.8465C28.0008 32.6594 28.0245 33.4621 28.3618 34.2209C28.409 34.3288 28.4596 34.4334 28.5135 34.5379C28.8171 35.1518 29.1983 35.5497 29.9977 35.4688C30.878 35.3777 31.7752 35.4587 32.6657 35.4384C34.1228 35.4047 35.4046 34.1366 35.4181 32.6796C35.4417 30.339 35.4282 27.9949 35.4282 25.6543C35.4282 24.9663 35.4282 24.9595 36.1196 24.9696C37.1349 24.9865 36.9933 24.8347 36.9966 25.8432C37.0034 28.032 37 30.2243 37 32.4132C37 34.7437 35.6947 36.3929 33.4213 36.9427C33.3639 36.9562 33.3133 36.9798 33.256 37C24.213 37 15.1733 37 6.13033 37C6.01902 36.9696 5.90771 36.9325 5.79303 36.9089C3.73887 36.4368 2.28849 35.2327 1.42837 33.3103C1.22262 32.8482 1.14841 32.3491 1 31.8702C1 21.941 1 12.0118 1 2.07926ZM26.4358 18.2782C26.4324 17.5767 26.4324 16.8718 26.4324 16.1703C26.4324 12.1433 26.4358 8.11298 26.4324 4.086C26.4324 3.08769 25.9197 2.57504 24.9517 2.57504C17.666 2.57504 10.3837 2.57504 3.098 2.57167C2.54483 2.57167 2.54483 2.57167 2.54483 3.13828C2.54483 12.3761 2.54483 21.6172 2.54821 30.855C2.54821 31.1484 2.54483 31.4452 2.59205 31.7285C2.9867 34.0084 4.72379 35.4519 7.04441 35.4486C10.043 35.4452 13.0416 35.4486 16.0368 35.4486C19.5751 35.4486 23.11 35.4486 26.6483 35.4486C27.1542 35.4486 27.1576 35.4418 26.9586 34.9595C26.601 34.0928 26.4358 33.1889 26.4358 32.2546C26.4358 27.6003 26.4358 22.9393 26.4358 18.2782Z" fill="#E04E39"/>
<path d="M32.7873 12.9663C33.2528 13 33.816 12.9326 34.376 13.0135C35.7049 13.2125 36.7438 14.2041 36.9698 15.5228C37.0507 15.9916 36.9934 16.0624 36.5212 16.0658C36.4267 16.0658 36.3323 16.0658 36.2412 16.0624C36.0186 16.0557 35.7825 16.0894 35.5801 16.0219C35.3204 15.9376 35.4283 15.6341 35.3508 15.4351C35.1315 14.882 34.6492 14.5481 33.9307 14.538C33.0639 14.5245 32.197 14.5211 31.3301 14.538C31.0165 14.5447 30.9085 14.43 30.9254 14.1299C30.9423 13.8601 30.9321 13.5902 30.9254 13.3238C30.9186 13.0708 31.0299 12.9595 31.2829 12.9629C31.7551 12.973 32.224 12.9663 32.7873 12.9663Z" fill="#E04E39"/>
<path d="M36.9967 20.5211C36.9967 20.9292 36.9933 21.3373 36.9967 21.7487C37 21.9545 36.9123 22.0489 36.7066 22.0489C36.3794 22.0455 36.0522 22.0455 35.725 22.0489C35.5125 22.0523 35.4316 21.9444 35.4316 21.7487C35.4316 20.9325 35.435 20.113 35.4316 19.2968C35.4316 19.0978 35.5159 18.9966 35.7284 19C36.0556 19.0067 36.3828 19.0067 36.7099 19C36.9224 18.9966 37 19.0944 36.9967 19.3002C36.9933 19.7015 36.9967 20.1096 36.9967 20.5211Z" fill="#E04E39"/>
<path d="M14.5057 5.50255C17.3627 5.50255 20.2162 5.50593 23.0731 5.49581C23.4138 5.49581 23.515 5.60373 23.5116 5.93763C23.4981 7.6577 23.5083 9.37776 23.5049 11.0978C23.5049 11.5565 23.4981 11.5633 23.0259 11.5666C18.6613 11.57 14.2966 11.5666 9.92857 11.57C8.61648 11.57 7.30775 11.57 5.99566 11.57C5.48634 11.57 5.47622 11.5633 5.47622 11.0709C5.47622 9.398 5.47622 7.72515 5.47622 6.04893C5.47622 5.50255 5.47959 5.50255 6.00578 5.50255C8.84247 5.50255 11.6758 5.50255 14.5057 5.50255ZM14.4889 9.99834C16.8196 9.99834 19.147 9.99834 21.4777 9.99834C21.9331 9.99834 21.9364 9.99496 21.9364 9.52616C21.9398 8.88198 21.9398 8.2378 21.9398 7.59362C21.9398 7.07422 21.9398 7.07085 21.4136 7.07085C16.7555 7.07085 12.0974 7.07422 7.4393 7.06748C7.15597 7.06748 7.03791 7.14842 7.04466 7.44522C7.05815 8.16023 7.06152 8.87186 7.04129 9.58687C7.03117 9.91065 7.14585 10.0051 7.46628 10.0017C9.80714 9.99159 12.148 9.99834 14.4889 9.99834Z" fill="#E04E39"/>
<path d="M14.5091 23.4924C17.3525 23.4924 20.196 23.4924 23.0394 23.4924C23.5015 23.4924 23.5015 23.4958 23.5049 23.9646C23.5049 24.1872 23.488 24.4098 23.5083 24.6324C23.5454 24.9831 23.3868 25.0675 23.0597 25.0675C17.3728 25.0607 11.6859 25.0607 5.99903 25.0607C5.47622 25.0607 5.47622 25.0573 5.47622 24.5312C5.47622 24.3423 5.47622 24.1568 5.47959 23.968C5.48296 23.4958 5.48296 23.4958 5.94169 23.4958C7.62819 23.4958 9.31131 23.4924 10.9978 23.4924C12.1682 23.489 13.3387 23.489 14.5091 23.4924Z" fill="#E04E39"/>
<path d="M14.5123 27.9882C17.3658 27.9882 20.2228 27.9949 23.0763 27.9815C23.4204 27.9815 23.5384 28.0995 23.5081 28.4266C23.4878 28.6459 23.5081 28.8718 23.5047 29.0944C23.5013 29.5329 23.4811 29.5565 23.0527 29.5565C22.0813 29.5599 21.1099 29.5565 20.1384 29.5565C15.5174 29.5565 10.8931 29.5599 6.27205 29.5565C5.34785 29.5565 5.47602 29.6206 5.47602 28.774C5.47602 27.8735 5.36134 27.9916 6.25856 27.9882C9.01092 27.9815 11.7633 27.9882 14.5123 27.9882Z" fill="#E04E39"/>
<path d="M5.47589 17.5397C5.47589 16.6729 5.48601 15.8061 5.46915 14.9427C5.4624 14.6156 5.55347 14.4874 5.90089 14.4908C7.64473 14.5043 9.38857 14.5043 11.1324 14.4941C11.436 14.4908 11.5473 14.5886 11.5439 14.8955C11.5338 16.6392 11.5372 18.3828 11.5473 20.1265C11.5473 20.4334 11.4495 20.5717 11.1223 20.5683C9.36833 20.5582 7.611 20.5582 5.85704 20.565C5.57034 20.565 5.46915 20.4604 5.47252 20.1737C5.48601 19.2935 5.47927 18.4166 5.47589 17.5397ZM9.9721 17.5464C9.97547 17.5464 9.97547 17.5464 9.9721 17.5464C9.97547 17.1619 9.96872 16.7741 9.97547 16.3896C9.98222 16.1704 9.90464 16.0658 9.67527 16.0658C8.90286 16.0692 8.13044 16.0692 7.3614 16.0624C7.13878 16.0624 7.04434 16.1569 7.04434 16.3795C7.04771 17.1518 7.04771 17.9242 7.04771 18.6931C7.04771 18.8921 7.11854 18.9967 7.33441 18.9933C8.11695 18.9865 8.89948 18.9865 9.68539 18.9933C9.89452 18.9933 9.98222 18.9123 9.97547 18.7032C9.96872 18.3188 9.9721 17.9309 9.9721 17.5464Z" fill="#E04E39"/>
<path d="M18.9948 14.4975C20.3541 14.4975 21.7134 14.5076 23.0694 14.4907C23.4067 14.4874 23.5416 14.5919 23.5112 14.9292C23.491 15.172 23.491 15.4216 23.5079 15.6678C23.5348 15.9882 23.3864 16.0691 23.093 16.0658C20.3541 16.059 17.6119 16.059 14.873 16.0658C14.5694 16.0658 14.4648 15.9646 14.4648 15.6577C14.4615 14.4975 14.4514 14.4941 15.6218 14.4941C16.745 14.4941 17.8682 14.4975 18.9948 14.4975Z" fill="#E04E39"/>
<path d="M18.9917 20.5615C17.6357 20.5615 16.2798 20.5514 14.9239 20.5683C14.5663 20.5716 14.4348 20.4469 14.4719 20.0995C14.4955 19.8802 14.4921 19.6543 14.4719 19.435C14.4415 19.1012 14.5629 18.9865 14.9036 18.9899C16.5294 19.0033 18.1552 18.9966 19.7776 18.9966C20.8873 18.9966 22.0004 19.0067 23.1101 18.9932C23.4204 18.9899 23.5351 19.0944 23.5081 19.4013C23.4913 19.6104 23.5048 19.8229 23.5048 20.032C23.5048 20.5615 23.5048 20.5649 22.9887 20.5649C21.6564 20.5615 20.324 20.5615 18.9917 20.5615Z" fill="#E04E39"/>
<path d="M9.9721 17.5464C9.97547 17.5464 9.97547 17.5464 9.9721 17.5464ZM9.9721 17.5464C9.97547 17.1619 9.96872 16.7741 9.97547 16.3896C9.98222 16.1704 9.90464 16.0658 9.67527 16.0658C8.90286 16.0692 8.13044 16.0692 7.3614 16.0624C7.13878 16.0624 7.04434 16.1569 7.04434 16.3795C7.04771 17.1518 7.04771 17.9242 7.04771 18.6931C7.04771 18.8921 7.11854 18.9967 7.33441 18.9933C8.11695 18.9865 8.89948 18.9865 9.68539 18.9933C9.89452 18.9933 9.98222 18.9123 9.97547 18.7032C9.96872 18.3188 9.9721 17.9309 9.9721 17.5464ZM1 2.07926C1.2867 1.28668 1.86349 1 2.68987 1C10.1138 1.01349 17.5412 1.00675 24.9651 1.00675C26.4391 1.00675 27.6197 1.96121 27.9502 3.3946C27.9975 3.59022 28.0008 3.78921 28.0008 3.9882C28.0008 13.2732 28.0042 22.5616 28.0008 31.8465C28.0008 32.6594 28.0245 33.4621 28.3618 34.2209C28.409 34.3288 28.4596 34.4334 28.5135 34.5379C28.8171 35.1518 29.1983 35.5497 29.9977 35.4688C30.878 35.3777 31.7752 35.4587 32.6657 35.4384C34.1228 35.4047 35.4046 34.1366 35.4181 32.6796C35.4417 30.339 35.4282 27.9949 35.4282 25.6543C35.4282 24.9663 35.4282 24.9595 36.1196 24.9696C37.1349 24.9865 36.9933 24.8347 36.9966 25.8432C37.0034 28.032 37 30.2243 37 32.4132C37 34.7437 35.6947 36.3929 33.4213 36.9427C33.3639 36.9562 33.3133 36.9798 33.256 37C24.213 37 15.1733 37 6.13033 37C6.01902 36.9696 5.90771 36.9325 5.79303 36.9089C3.73887 36.4368 2.28848 35.2327 1.42837 33.3103C1.22262 32.8482 1.14841 32.3491 1 31.8702C1 21.941 1 12.0118 1 2.07926ZM26.4358 18.2782C26.4324 17.5767 26.4324 16.8718 26.4324 16.1703C26.4324 12.1433 26.4358 8.11298 26.4324 4.086C26.4324 3.08769 25.9197 2.57504 24.9517 2.57504C17.666 2.57504 10.3837 2.57504 3.098 2.57167C2.54483 2.57167 2.54483 2.57167 2.54483 3.13828C2.54483 12.3761 2.54483 21.6172 2.54821 30.855C2.54821 31.1484 2.54483 31.4452 2.59205 31.7285C2.9867 34.0084 4.72379 35.4519 7.04441 35.4486C10.043 35.4452 13.0416 35.4486 16.0368 35.4486C19.5751 35.4486 23.11 35.4486 26.6483 35.4486C27.1542 35.4486 27.1576 35.4418 26.9586 34.9595C26.601 34.0928 26.4358 33.1889 26.4358 32.2546C26.4358 27.6003 26.4358 22.9393 26.4358 18.2782ZM32.7873 12.9663C33.2528 13 33.816 12.9326 34.376 13.0135C35.7049 13.2125 36.7438 14.2041 36.9698 15.5228C37.0507 15.9916 36.9934 16.0624 36.5212 16.0658C36.4267 16.0658 36.3323 16.0658 36.2412 16.0624C36.0186 16.0557 35.7825 16.0894 35.5801 16.0219C35.3204 15.9376 35.4283 15.6341 35.3508 15.4351C35.1315 14.882 34.6492 14.5481 33.9307 14.538C33.0639 14.5245 32.197 14.5211 31.3301 14.538C31.0165 14.5447 30.9085 14.43 30.9254 14.1299C30.9423 13.8601 30.9321 13.5902 30.9254 13.3238C30.9186 13.0708 31.0299 12.9595 31.2829 12.9629C31.7551 12.973 32.224 12.9663 32.7873 12.9663ZM36.9967 20.5211C36.9967 20.9292 36.9933 21.3373 36.9967 21.7487C37 21.9545 36.9123 22.0489 36.7066 22.0489C36.3794 22.0455 36.0522 22.0455 35.725 22.0489C35.5125 22.0523 35.4316 21.9444 35.4316 21.7487C35.4316 20.9325 35.435 20.113 35.4316 19.2968C35.4316 19.0978 35.5159 18.9966 35.7284 19C36.0556 19.0067 36.3828 19.0067 36.7099 19C36.9224 18.9966 37 19.0944 36.9967 19.3002C36.9933 19.7015 36.9967 20.1096 36.9967 20.5211ZM14.5057 5.50255C17.3627 5.50255 20.2162 5.50593 23.0731 5.49581C23.4138 5.49581 23.515 5.60373 23.5116 5.93763C23.4981 7.6577 23.5083 9.37777 23.5049 11.0978C23.5049 11.5565 23.4981 11.5633 23.0259 11.5666C18.6613 11.57 14.2966 11.5666 9.92857 11.57C8.61648 11.57 7.30775 11.57 5.99566 11.57C5.48634 11.57 5.47622 11.5633 5.47622 11.0709C5.47622 9.398 5.47622 7.72515 5.47622 6.04893C5.47622 5.50255 5.47959 5.50255 6.00578 5.50255C8.84247 5.50255 11.6758 5.50255 14.5057 5.50255ZM14.4889 9.99834C16.8196 9.99834 19.147 9.99834 21.4777 9.99834C21.9331 9.99834 21.9364 9.99496 21.9364 9.52616C21.9398 8.88198 21.9398 8.2378 21.9398 7.59362C21.9398 7.07422 21.9398 7.07085 21.4136 7.07085C16.7555 7.07085 12.0974 7.07422 7.4393 7.06748C7.15597 7.06748 7.03791 7.14842 7.04466 7.44522C7.05815 8.16023 7.06152 8.87186 7.04129 9.58687C7.03117 9.91065 7.14585 10.0051 7.46628 10.0017C9.80714 9.99159 12.148 9.99834 14.4889 9.99834ZM14.5091 23.4924C17.3525 23.4924 20.196 23.4924 23.0394 23.4924C23.5015 23.4924 23.5015 23.4958 23.5049 23.9646C23.5049 24.1872 23.488 24.4098 23.5083 24.6324C23.5454 24.9831 23.3868 25.0675 23.0597 25.0675C17.3728 25.0607 11.6859 25.0607 5.99903 25.0607C5.47622 25.0607 5.47622 25.0573 5.47622 24.5312C5.47622 24.3423 5.47622 24.1568 5.47959 23.968C5.48296 23.4958 5.48296 23.4958 5.94169 23.4958C7.62819 23.4958 9.31131 23.4924 10.9978 23.4924C12.1682 23.489 13.3387 23.489 14.5091 23.4924ZM14.5123 27.9882C17.3658 27.9882 20.2228 27.9949 23.0763 27.9815C23.4204 27.9815 23.5384 28.0995 23.5081 28.4266C23.4878 28.6459 23.5081 28.8718 23.5047 29.0944C23.5013 29.5329 23.4811 29.5565 23.0527 29.5565C22.0813 29.5599 21.1099 29.5565 20.1384 29.5565C15.5174 29.5565 10.8931 29.5599 6.27205 29.5565C5.34785 29.5565 5.47602 29.6206 5.47602 28.774C5.47602 27.8735 5.36134 27.9916 6.25856 27.9882C9.01092 27.9815 11.7633 27.9882 14.5123 27.9882ZM5.47589 17.5397C5.47589 16.6729 5.48601 15.8061 5.46915 14.9427C5.4624 14.6156 5.55347 14.4874 5.90089 14.4908C7.64473 14.5043 9.38857 14.5043 11.1324 14.4941C11.436 14.4908 11.5473 14.5886 11.5439 14.8955C11.5338 16.6392 11.5372 18.3828 11.5473 20.1265C11.5473 20.4334 11.4495 20.5717 11.1223 20.5683C9.36833 20.5582 7.611 20.5582 5.85704 20.565C5.57034 20.565 5.46915 20.4604 5.47252 20.1737C5.48601 19.2935 5.47927 18.4166 5.47589 17.5397ZM18.9948 14.4975C20.3541 14.4975 21.7134 14.5076 23.0694 14.4907C23.4067 14.4874 23.5416 14.5919 23.5112 14.9292C23.491 15.172 23.491 15.4216 23.5079 15.6678C23.5348 15.9882 23.3864 16.0691 23.093 16.0658C20.3541 16.059 17.6119 16.059 14.873 16.0658C14.5694 16.0658 14.4648 15.9646 14.4648 15.6577C14.4615 14.4975 14.4514 14.4941 15.6218 14.4941C16.745 14.4941 17.8682 14.4975 18.9948 14.4975ZM18.9917 20.5615C17.6357 20.5615 16.2798 20.5514 14.9239 20.5683C14.5663 20.5716 14.4348 20.4469 14.4719 20.0995C14.4955 19.8802 14.4921 19.6543 14.4719 19.435C14.4415 19.1012 14.5629 18.9865 14.9036 18.9899C16.5294 19.0033 18.1552 18.9966 19.7776 18.9966C20.8873 18.9966 22.0004 19.0067 23.1101 18.9932C23.4204 18.9899 23.5351 19.0944 23.5081 19.4013C23.4913 19.6104 23.5048 19.8229 23.5048 20.032C23.5048 20.5615 23.5048 20.5649 22.9887 20.5649C21.6564 20.5615 20.324 20.5615 18.9917 20.5615Z" stroke="#E04E39" stroke-width="0.5"/>
</svg>
