<svg width="21" height="22" viewBox="0 0 21 22" fill="none" xmlns="http://www.w3.org/2000/svg">
<path d="M16.5653 20.8614C16.3552 20.8614 16.14 20.846 15.9299 20.8666C15.6993 20.8922 15.5456 20.7896 15.3919 20.6356C14.449 19.6862 13.501 18.7367 12.553 17.7924C11.6306 16.8686 10.7032 15.9448 9.78591 15.0159C9.66805 14.8979 9.55019 14.8825 9.40159 14.903C8.33062 15.0467 7.30064 14.8927 6.3424 14.3949C4.66677 13.5225 3.67779 12.1368 3.46769 10.2533C3.22685 8.06185 4.33369 6.02952 6.27066 4.99796C6.4039 4.92611 6.48076 4.92611 6.5525 5.08007C6.68061 5.3726 6.81896 5.66514 6.96244 5.9474C7.0393 6.0911 6.99319 6.15782 6.85995 6.22967C5.66088 6.89172 4.95373 7.91302 4.81025 9.27817C4.60015 11.3054 5.90172 12.9836 7.67471 13.4557C8.22813 13.5994 8.78155 13.6302 9.35035 13.5379C9.47333 13.5173 9.56557 13.4711 9.64755 13.3839C10.0626 12.9631 10.4828 12.5525 10.8928 12.1316C11.0004 12.0239 11.067 12.0239 11.1695 12.1316C11.3949 12.3677 11.6255 12.5987 11.8612 12.8245C11.9637 12.922 11.9637 12.9939 11.8612 13.0914C11.5538 13.389 11.2566 13.7021 10.9491 13.9998C10.8518 14.0921 10.8313 14.1588 10.9389 14.2615C11.2514 14.5643 11.5589 14.8722 11.8612 15.1853C11.9586 15.2879 12.0201 15.2623 12.1072 15.175C12.4095 14.862 12.7221 14.5592 13.0296 14.2461C13.1218 14.1486 13.1884 14.1486 13.2807 14.2461C13.5113 14.4873 13.747 14.7234 13.9878 14.9543C14.0852 15.0467 14.0852 15.1134 13.9878 15.2058C13.6752 15.5086 13.3729 15.8268 13.0603 16.1296C12.9578 16.2322 12.9578 16.2938 13.0603 16.3913C13.3268 16.6428 13.583 16.9046 13.8341 17.1663C13.9161 17.2535 13.9724 17.2484 14.0544 17.1663C14.3619 16.8481 14.6796 16.5402 14.987 16.222C15.0895 16.1193 15.1561 16.1193 15.2535 16.222C15.4841 16.4632 15.7198 16.6993 15.9606 16.9302C16.0478 17.0175 16.0478 17.079 15.9606 17.1663C15.6429 17.4742 15.3355 17.7924 15.0178 18.1003C14.9204 18.1979 14.9255 18.2543 15.0178 18.3467C15.3662 18.6854 15.7096 19.0293 16.0529 19.3782C16.1451 19.4758 16.2476 19.4963 16.3757 19.5117C16.7805 19.563 17.0777 19.4347 17.3442 19.1216C17.6568 18.7573 18.0155 18.4339 18.3588 18.0952C18.4664 17.9926 18.492 17.8797 18.5074 17.736C18.5587 17.3459 18.41 17.0739 18.1282 16.7968C16.2527 14.9441 14.4029 13.076 12.5325 11.213C12.4095 11.0898 12.3839 10.9872 12.43 10.8229C12.8092 9.4424 12.5428 8.19529 11.6255 7.09701C11.3283 6.73776 10.9645 6.45549 10.5494 6.23994C10.4008 6.16296 10.3547 6.0911 10.4418 5.93201C10.5904 5.65487 10.7185 5.36747 10.8415 5.08007C10.903 4.93124 10.9747 4.92611 11.108 4.99796C12.5325 5.76265 13.4344 6.93278 13.8187 8.50835C13.9724 9.12934 13.9981 9.76059 13.9007 10.397C13.8751 10.5663 13.9263 10.6844 14.0442 10.8076C15.9248 12.6808 17.7951 14.5592 19.6757 16.4375C19.8038 16.5658 19.8653 16.6941 19.8602 16.8738C19.85 17.3562 19.85 17.8335 19.8602 18.3159C19.8602 18.4545 19.8243 18.5571 19.727 18.6546C19.0301 19.3475 18.3383 20.0403 17.6465 20.7383C17.5543 20.8306 17.4569 20.8768 17.3237 20.8717C17.0777 20.8563 16.8215 20.8614 16.5653 20.8614Z" fill="#E04E39"/>
<path d="M15.8696 21C15.6133 21 15.4442 20.8665 15.3059 20.728C14.5885 20.0043 13.8506 19.2653 13.1434 18.5571L12.4722 17.8848C12.2518 17.6641 12.0264 17.4383 11.806 17.2176C11.1142 16.5299 10.402 15.8165 9.70506 15.1083C9.63332 15.0364 9.56158 15.0159 9.42835 15.0313C8.30614 15.1801 7.25054 15.0056 6.29743 14.5078C4.5603 13.6046 3.57132 12.1778 3.35097 10.2635C3.22799 9.17037 3.43296 8.08749 3.94539 7.12777C4.45269 6.17833 5.24183 5.40337 6.22056 4.87989C6.30255 4.83883 6.39991 4.79778 6.49727 4.8337C6.59976 4.86963 6.64588 4.96201 6.67662 5.02872C6.7996 5.31612 6.93796 5.60866 7.08656 5.89093C7.21979 6.14753 7.06094 6.2707 6.93283 6.34255C5.74913 6.99434 5.08298 7.98997 4.94974 9.28841C4.75502 11.1514 5.92335 12.8553 7.72197 13.3274C8.25489 13.466 8.79807 13.4916 9.34124 13.4044C9.43347 13.389 9.50009 13.3531 9.57183 13.2864C9.72556 13.1273 9.88441 12.9733 10.0433 12.8142C10.2995 12.5576 10.5608 12.2959 10.817 12.0341C10.8734 11.9777 10.9451 11.9109 11.0476 11.9109C11.1501 11.9109 11.2218 11.9777 11.2782 12.0341C11.4883 12.2548 11.7138 12.4806 11.9649 12.7218C12.0161 12.768 12.0827 12.845 12.0827 12.9476C12.0827 13.0503 12.0161 13.1273 11.9649 13.1734C11.8111 13.3223 11.6523 13.4814 11.5037 13.6302C11.3551 13.779 11.2013 13.933 11.0527 14.0818C11.0322 14.1024 11.0169 14.1178 11.0117 14.128C11.0169 14.1332 11.0271 14.1434 11.0425 14.164C11.3448 14.4565 11.6523 14.7593 11.97 15.0929C11.9802 15.1031 11.9905 15.1083 11.9956 15.1134C12.0007 15.1083 12.0161 15.098 12.0315 15.0775C12.1852 14.9184 12.3441 14.7593 12.4978 14.6053C12.6464 14.4565 12.8001 14.3025 12.9487 14.1486C12.9948 14.1024 13.0666 14.0357 13.1691 14.0357C13.2664 14.0357 13.3382 14.0972 13.3843 14.1486C13.62 14.3898 13.8557 14.6258 14.0863 14.8517C14.1324 14.8979 14.199 14.9697 14.199 15.0723C14.199 15.1699 14.1375 15.2468 14.0914 15.293C13.9531 15.4316 13.8096 15.5702 13.6764 15.7087C13.5124 15.8781 13.3382 16.0475 13.1639 16.2168C13.1434 16.2373 13.1332 16.2476 13.1281 16.2527C13.1332 16.2579 13.1434 16.2733 13.1639 16.2887C13.456 16.5658 13.7327 16.8481 13.9428 17.0688C13.948 17.0739 13.9531 17.079 13.9582 17.0841C13.9633 17.079 13.9684 17.0739 13.9736 17.0688C14.1222 16.9199 14.2708 16.766 14.4194 16.6223C14.5782 16.4632 14.7473 16.2938 14.9062 16.1296C14.9523 16.0782 15.0292 16.0167 15.1317 16.0167C15.2341 16.0167 15.311 16.0834 15.3571 16.1347C15.6031 16.3964 15.8644 16.6479 16.0591 16.8378C16.0848 16.8635 16.1668 16.9405 16.1668 17.0482C16.1668 17.1457 16.1053 17.2176 16.0591 17.2586C15.9157 17.3972 15.7773 17.5409 15.639 17.6795C15.4699 17.8488 15.2956 18.0285 15.1163 18.1978C15.1009 18.2132 15.0958 18.2184 15.0907 18.2286C15.0958 18.2338 15.106 18.244 15.1214 18.2594C15.4494 18.5776 15.7876 18.9163 16.1565 19.2961C16.218 19.3577 16.2795 19.3731 16.4025 19.3885C16.7509 19.4347 17.0174 19.3269 17.2582 19.0395C17.5042 18.7521 17.7809 18.4852 18.0474 18.2286C18.1242 18.1568 18.2011 18.0798 18.278 18.0079C18.3497 17.9361 18.3702 17.8591 18.3907 17.7257C18.4317 17.4075 18.3343 17.1765 18.0525 16.8943C16.8637 15.719 15.6595 14.5129 14.5014 13.3531C13.8198 12.6705 13.1434 11.9931 12.4619 11.3105C12.3082 11.1565 12.2672 11.0025 12.3287 10.7973C12.6925 9.45777 12.4312 8.24658 11.5498 7.18423C11.268 6.84551 10.9195 6.56837 10.5147 6.35795C10.4276 6.31176 10.3405 6.25531 10.3046 6.15267C10.2739 6.04489 10.3148 5.94225 10.3507 5.87553C10.4737 5.63945 10.6018 5.37258 10.7453 5.03386C10.7709 4.96714 10.8222 4.87989 10.9195 4.84397C11.0169 4.80804 11.1142 4.8491 11.186 4.89016C12.6361 5.66511 13.5688 6.8763 13.9582 8.48266C14.1119 9.12418 14.1427 9.77596 14.0453 10.4226C14.0248 10.5407 14.0556 10.6228 14.1529 10.7203C15.106 11.6697 16.054 12.6192 17.0071 13.5738C17.9346 14.4975 18.857 15.4265 19.7845 16.3503C19.9433 16.5093 20.01 16.6736 20.0048 16.884C19.9946 17.3715 19.9997 17.8642 20.0048 18.321C20.0048 18.5006 19.9536 18.6341 19.8306 18.7521C19.1849 19.3936 18.5034 20.0711 17.7502 20.8306C17.6272 20.9538 17.4939 21.0102 17.3351 21.0051C17.1557 21 16.9713 21 16.797 21C16.7202 21 16.6484 21 16.5716 21C16.505 21 16.4383 21 16.3717 20.9949C16.2231 20.9897 16.0848 20.9897 15.9464 21C15.9157 20.9949 15.89 21 15.8696 21ZM9.50521 14.7644C9.62307 14.7644 9.7563 14.7952 9.88441 14.9235C10.5813 15.6266 11.2936 16.34 11.9854 17.0328C12.2057 17.2535 12.4312 17.4793 12.6515 17.7L13.3228 18.3723C14.0351 19.0857 14.7678 19.8196 15.4904 20.5432C15.6441 20.7023 15.7619 20.7536 15.9208 20.7382C16.0745 20.7228 16.2282 20.728 16.3769 20.728C16.5152 20.7331 16.6536 20.7331 16.7919 20.728C16.9713 20.728 17.1557 20.728 17.3402 20.7331C17.4324 20.7382 17.4939 20.7074 17.5657 20.6356C18.3189 19.876 19.0005 19.1935 19.6461 18.5519C19.7179 18.4801 19.7435 18.4134 19.7435 18.3056C19.7384 17.8437 19.7332 17.351 19.7435 16.8583C19.7486 16.7198 19.7076 16.6223 19.5949 16.5145C18.6674 15.5907 17.745 14.6669 16.8175 13.738C15.8696 12.7885 14.9164 11.834 13.9633 10.8845C13.8096 10.7305 13.7532 10.5663 13.784 10.3662C13.8762 9.75544 13.8506 9.13445 13.702 8.52885C13.3279 6.99434 12.4414 5.84474 11.0579 5.10571C11.0271 5.09031 11.0066 5.08005 10.9964 5.08005C10.9913 5.08518 10.981 5.10057 10.9708 5.12623C10.8222 5.47009 10.694 5.74722 10.5659 5.98844C10.5352 6.05002 10.5403 6.06542 10.5403 6.06542C10.5403 6.06542 10.5506 6.08595 10.6223 6.12187C11.0579 6.34769 11.4319 6.64535 11.7394 7.00973C12.6771 8.13881 12.959 9.42698 12.5695 10.8537C12.5388 10.9718 12.549 11.0333 12.6413 11.1206C13.3228 11.798 14.0043 12.4806 14.6807 13.1632C15.8439 14.3282 17.043 15.5291 18.2318 16.7044C18.57 17.0431 18.6981 17.3562 18.6469 17.7513C18.6264 17.895 18.6008 18.049 18.4624 18.1824C18.3856 18.2594 18.3087 18.3313 18.2318 18.4082C17.9705 18.6597 17.6938 18.9215 17.4581 19.1986C17.1557 19.5527 16.8124 19.6913 16.3717 19.6348C16.2334 19.6143 16.095 19.5886 15.972 19.4655C15.6082 19.0908 15.27 18.7521 14.9421 18.4339C14.8908 18.3826 14.8293 18.3107 14.8293 18.2184C14.8293 18.1208 14.8908 18.049 14.9421 18.0028C15.1163 17.8334 15.2905 17.6589 15.4596 17.4896C15.598 17.351 15.7414 17.2073 15.8849 17.0688C15.9003 17.0585 15.9054 17.0482 15.9105 17.0431C15.9054 17.038 15.9003 17.0277 15.8849 17.0174C15.6851 16.8275 15.4289 16.5709 15.1778 16.3041C15.1573 16.2835 15.1419 16.2733 15.1368 16.2681C15.1317 16.2733 15.1163 16.2835 15.0958 16.3041C14.9318 16.4734 14.7678 16.6377 14.6039 16.8019C14.4604 16.9456 14.3066 17.0995 14.1632 17.2484C14.1222 17.2946 14.0504 17.351 13.9633 17.351C13.8711 17.351 13.8045 17.2946 13.7635 17.2484C13.5534 17.0328 13.2767 16.7506 12.9948 16.4786C12.9385 16.4272 12.877 16.3554 12.877 16.2579C12.877 16.1604 12.9385 16.0885 12.9948 16.0321C13.1639 15.8678 13.3382 15.6933 13.5021 15.5291C13.6405 15.3905 13.7789 15.2468 13.9223 15.1083C13.9377 15.0929 13.948 15.0826 13.9531 15.0723C13.948 15.0672 13.9377 15.0569 13.9223 15.0364C13.6866 14.8106 13.4458 14.5694 13.2101 14.3231C13.1947 14.3077 13.1844 14.2974 13.1793 14.2923C13.1742 14.2974 13.1588 14.3077 13.1434 14.3231C12.9948 14.477 12.836 14.631 12.6874 14.7798C12.5337 14.9338 12.3748 15.0929 12.2211 15.2468C12.1596 15.3084 12.093 15.3649 12.0007 15.3649C11.9085 15.3649 11.8368 15.3033 11.7906 15.2571C11.4729 14.9235 11.1706 14.6258 10.8683 14.3384C10.8222 14.2923 10.7555 14.2204 10.7555 14.1178C10.7555 14.0203 10.817 13.9484 10.8785 13.8868C11.0322 13.738 11.1808 13.5892 11.3295 13.4403C11.4781 13.2864 11.6369 13.1324 11.7906 12.9784C11.8111 12.9579 11.8214 12.9425 11.8265 12.9374C11.8214 12.9322 11.8111 12.9168 11.7906 12.8963C11.5344 12.65 11.3038 12.4242 11.0937 12.1983C11.0681 12.1727 11.0579 12.1624 11.0476 12.1573C11.0425 12.1624 11.0271 12.1727 11.0015 12.1983C10.7453 12.4652 10.4788 12.727 10.2226 12.9836C10.0638 13.1427 9.91003 13.2966 9.75118 13.4557C9.64869 13.5635 9.53084 13.6199 9.38223 13.6456C8.80319 13.7431 8.22415 13.7123 7.65535 13.5635C5.73376 13.0554 4.48856 11.2438 4.69353 9.24735C4.83701 7.85654 5.54928 6.79932 6.80985 6.10134C6.86622 6.07055 6.88159 6.05515 6.88159 6.05002C6.88159 6.05002 6.88159 6.03463 6.85597 5.99357C6.70737 5.70617 6.56901 5.4085 6.4409 5.11597C6.42553 5.08518 6.41528 5.06978 6.41016 5.06465C6.39991 5.06465 6.37941 5.07491 6.33842 5.09544C4.44244 6.10648 3.36635 8.11315 3.60719 10.2173C3.81216 12.0392 4.75502 13.3993 6.41528 14.2615C7.32228 14.7336 8.32663 14.903 9.3976 14.7593C9.42835 14.7695 9.46422 14.7644 9.50521 14.7644Z" fill="#E04E39"/>
<path d="M7.61456 20.8615C7.27635 20.8615 6.93303 20.8512 6.59483 20.8666C6.38473 20.8769 6.27712 20.805 6.18489 20.6151C5.27277 18.7932 4.3504 16.9764 3.43828 15.1494C3.3153 14.9082 3.1667 14.7593 2.90536 14.6618C1.10162 13.9792 -0.0308435 12.1265 0.174127 10.2276C0.240742 9.60664 0.420092 9.02158 0.753169 8.49297C0.865902 8.31847 0.855654 8.1953 0.758293 8.01054C-0.0564648 6.52222 -0.0923347 4.99284 0.737796 3.51478C1.59355 1.9854 2.94123 1.18478 4.7091 1.12833C6.90741 1.06161 8.96224 2.67824 9.32093 4.99797C9.55153 6.46063 9.14158 7.7488 8.1731 8.86248C8.06549 8.99079 7.98863 9.00105 7.86564 8.87275C7.65555 8.6418 7.43008 8.42112 7.19949 8.20557C7.08163 8.09779 7.09188 8.02594 7.19437 7.9079C8.0245 6.94306 8.23459 5.83964 7.82977 4.63872C7.34297 3.19659 5.9338 2.34978 4.36577 2.50375C2.97197 2.64231 1.7524 3.81758 1.5423 5.24945C1.3937 6.28614 1.69603 7.18427 2.37756 7.96949C2.6389 8.27228 2.64402 8.28255 2.37244 8.57508C1.97274 9.00105 1.68578 9.4886 1.57305 10.0634C1.2451 11.6954 2.26995 13.2248 3.91996 13.5584C4.10444 13.5943 4.20692 13.6764 4.28891 13.8407C4.83208 14.9287 5.3855 16.0167 5.9338 17.1047C6.04653 17.3254 6.04653 17.3203 6.26175 17.2125C6.59995 17.0431 6.93815 16.8789 7.27635 16.7044C7.39421 16.6428 7.46083 16.6634 7.51719 16.7814C7.6658 17.0893 7.8144 17.3921 7.97325 17.6949C8.03474 17.813 7.99887 17.8643 7.89127 17.9207C7.53257 18.0952 7.18412 18.28 6.82542 18.4493C6.69731 18.5109 6.67169 18.5776 6.73831 18.7008C6.85616 18.9164 6.96377 19.1319 7.06626 19.3526C7.1175 19.4552 7.18412 19.5066 7.30198 19.5066C7.68629 19.5014 8.07061 19.5066 8.45493 19.5066C8.54717 19.5066 8.62916 19.4758 8.71115 19.4347C8.99811 19.291 9.28506 19.1524 9.5669 19.0036C9.67963 18.9472 9.74625 18.9472 9.80774 19.0755C9.95122 19.3834 10.1049 19.6862 10.2638 19.989C10.3202 20.0968 10.3048 20.1583 10.1921 20.2148C9.78724 20.4098 9.38755 20.6151 8.98786 20.8153C8.90587 20.8563 8.81876 20.8666 8.72652 20.8666C8.35757 20.8615 7.98863 20.8615 7.61456 20.8615Z" fill="#E04E39"/>
<path d="M6.55911 20.9944C6.32852 20.9944 6.17991 20.8969 6.0723 20.6711C5.62649 19.7781 5.17043 18.8748 4.72975 18.0023C4.26856 17.0888 3.79201 16.1394 3.3257 15.2053C3.21297 14.9846 3.08486 14.8666 2.85939 14.7794C1.96265 14.4406 1.18888 13.794 0.676455 12.9677C0.169153 12.1414 -0.0511906 11.1663 0.0512947 10.2169C0.123034 9.54456 0.322881 8.9441 0.650834 8.42575C0.732822 8.29232 0.732822 8.22047 0.650834 8.07677C-0.210043 6.50633 -0.215167 4.95128 0.625212 3.4527C1.50146 1.88226 2.87476 1.05598 4.70413 0.999527C5.81097 0.963602 6.90756 1.34338 7.78381 2.06701C8.68055 2.80091 9.26985 3.83761 9.44919 4.97695C9.67979 6.44987 9.28009 7.78423 8.27061 8.94923C8.21425 9.01595 8.13226 9.09293 8.02465 9.09293C8.02465 9.09293 8.02465 9.09293 8.01953 9.09293C7.91192 9.09293 7.82993 9.01595 7.77356 8.9595C7.57884 8.74908 7.36362 8.53353 7.11765 8.29745C6.90756 8.09729 7.01005 7.93306 7.10228 7.82016C7.90167 6.89124 8.10664 5.83401 7.71719 4.67415C7.25089 3.29873 5.91345 2.47245 4.38642 2.62129C3.04386 2.75472 1.88066 3.88893 1.68081 5.25921C1.54246 6.21893 1.81404 7.10166 2.48532 7.87661C2.79278 8.23073 2.79278 8.31798 2.4802 8.65157C2.06513 9.09806 1.81404 9.56509 1.71156 10.0783C1.55783 10.8327 1.70643 11.5923 2.12662 12.2184C2.54681 12.8394 3.19759 13.2705 3.96111 13.4245C4.18145 13.4707 4.31981 13.5733 4.42229 13.7735C4.82198 14.5792 5.23705 15.3952 5.63674 16.1856C5.78022 16.4678 5.9237 16.7501 6.06718 17.0324C6.08255 17.0683 6.10817 17.1094 6.11842 17.135C6.14404 17.1247 6.18504 17.1042 6.22091 17.0837C6.34901 17.0221 6.472 16.9554 6.6001 16.8938C6.8102 16.7912 7.02542 16.6834 7.23039 16.5756C7.29188 16.5448 7.37899 16.5089 7.47635 16.5397C7.56859 16.5705 7.61983 16.6526 7.64545 16.7142C7.78893 17.017 7.94266 17.3249 8.09639 17.6226C8.14251 17.7098 8.15276 17.7817 8.12714 17.8484C8.09639 17.9408 8.0144 17.9921 7.95291 18.0177C7.79406 18.0947 7.63521 18.1768 7.47635 18.2538C7.28163 18.3513 7.08178 18.4488 6.88706 18.5464C6.85632 18.5618 6.84607 18.572 6.84094 18.5772C6.84094 18.5823 6.84607 18.5977 6.86144 18.6233C6.98442 18.8492 7.10228 19.0852 7.19452 19.2803C7.23039 19.3521 7.26113 19.3624 7.3175 19.3624C7.63521 19.3572 7.96316 19.3624 8.27574 19.3624H8.47046C8.52683 19.3624 8.58832 19.347 8.67031 19.3059C8.77279 19.2546 8.87528 19.2033 8.97776 19.152C9.15711 19.0647 9.34671 18.9672 9.52606 18.8748C9.59267 18.8389 9.67979 18.803 9.77202 18.8338C9.84376 18.8594 9.89501 18.9107 9.94112 19.0031C10.0949 19.3367 10.264 19.6652 10.3921 19.9115C10.4228 19.968 10.4587 20.0552 10.4279 20.1476C10.3921 20.2502 10.2947 20.2964 10.264 20.3118C9.91038 20.4863 9.54656 20.6659 9.20323 20.8404L9.06487 20.9123C8.94702 20.9739 8.82916 20.979 8.74717 20.979C8.47046 20.979 8.19375 20.979 7.92216 20.979H7.63521C7.53272 20.979 7.43536 20.979 7.33287 20.979C7.10228 20.9739 6.86144 20.9739 6.62573 20.9841C6.58986 20.9944 6.57448 20.9944 6.55911 20.9944ZM4.84248 1.25613C4.79636 1.25613 4.75537 1.25613 4.70925 1.25613C2.97725 1.30746 1.68081 2.08754 0.845556 3.57587C0.0512947 4.99747 0.0615433 6.4704 0.871177 7.94846C0.994159 8.17941 0.994159 8.34877 0.860928 8.55919C0.558597 9.04161 0.368999 9.61128 0.302384 10.2425C0.102537 12.0747 1.21963 13.8864 2.95163 14.5433C3.23859 14.6511 3.41794 14.8153 3.55629 15.0976C4.0226 16.0316 4.49916 16.9759 4.96034 17.8894C5.40103 18.7619 5.85709 19.6703 6.3029 20.5582C6.37464 20.707 6.44125 20.7429 6.59498 20.7378C6.83582 20.7275 7.08178 20.7275 7.3175 20.7327C7.41999 20.7327 7.51735 20.7327 7.61983 20.7327H7.90679C8.1835 20.7327 8.46021 20.7327 8.73692 20.7327C8.82403 20.7327 8.88553 20.7224 8.93677 20.6916L9.07512 20.6197C9.42357 20.4453 9.78227 20.2605 10.141 20.086C10.1563 20.0809 10.1666 20.0706 10.1717 20.0706C10.1717 20.0655 10.1666 20.0501 10.1563 20.0347C10.0282 19.7832 9.85914 19.4547 9.70028 19.116C9.69516 19.1006 9.68491 19.0904 9.68491 19.0852C9.67466 19.0904 9.65929 19.0955 9.63879 19.1058C9.45432 19.2033 9.26985 19.2957 9.08537 19.388C8.98289 19.4394 8.8804 19.4907 8.77792 19.542C8.70105 19.5831 8.59344 19.6292 8.46534 19.6292H8.27061C7.95803 19.6292 7.63521 19.6292 7.3175 19.6292H7.31238C7.1484 19.6292 7.03567 19.5574 6.96393 19.4034C6.87169 19.2084 6.75896 18.9775 6.63597 18.7568C6.60523 18.6952 6.56423 18.6028 6.59498 18.5053C6.62573 18.4078 6.71284 18.3565 6.77945 18.3257C6.97418 18.2333 7.17402 18.1307 7.36362 18.0331C7.52247 17.951 7.68132 17.874 7.8453 17.7919C7.8658 17.7817 7.87605 17.7765 7.88117 17.7714C7.88117 17.7663 7.87605 17.756 7.87092 17.7457C7.71207 17.4429 7.56347 17.135 7.41486 16.8271C7.40461 16.8066 7.39949 16.7963 7.39437 16.7912C7.38924 16.7912 7.37387 16.7963 7.35337 16.8117C7.14328 16.9195 6.92806 17.0272 6.71796 17.135C6.58986 17.1966 6.46687 17.2582 6.33877 17.3249C6.06206 17.4635 5.98007 17.4378 5.83659 17.1607C5.69311 16.8784 5.54963 16.5961 5.40615 16.3139C5.00646 15.5235 4.59139 14.7075 4.1917 13.8966C4.12508 13.7683 4.05847 13.7119 3.90987 13.6811C3.07973 13.5168 2.37259 13.0498 1.91653 12.3672C1.46047 11.6898 1.30162 10.8584 1.46559 10.0321C1.57833 9.47271 1.84991 8.96463 2.29572 8.48221C2.36234 8.41036 2.46482 8.30258 2.46482 8.27179C2.46482 8.24099 2.37259 8.13322 2.30085 8.0511C1.5732 7.2197 1.28112 6.27025 1.43485 5.22842C1.65006 3.7401 2.91063 2.51351 4.37105 2.36981C6.02106 2.21071 7.4661 3.10371 7.96828 4.59203C8.3936 5.84428 8.16813 6.98362 7.30725 7.98439C7.26626 8.03571 7.26113 8.05111 7.26113 8.05624C7.26113 8.05624 7.26626 8.07163 7.30725 8.10756C7.55834 8.34364 7.77868 8.56432 7.97853 8.77987C8.00928 8.81066 8.02465 8.82606 8.0349 8.82606C8.04002 8.82093 8.06052 8.81066 8.09126 8.76961C9.05463 7.66619 9.4287 6.40368 9.21348 5.00774C8.85478 2.85223 6.99467 1.25613 4.84248 1.25613Z" fill="#E04E39"/>
</svg>
