<svg width="23" height="19" viewBox="0 0 23 19" fill="none" xmlns="http://www.w3.org/2000/svg">
<path d="M22.9976 3.81563C22.8785 3.82284 22.7594 3.83486 22.6403 3.83486C17.7909 3.83486 12.939 3.83486 8.08963 3.83486C7.64723 3.83486 7.64723 3.83486 7.64723 3.39971C7.64723 2.38276 7.65452 1.3658 7.64237 0.348846C7.63507 0.077177 7.72744 0.000244141 7.99726 0.000244141C12.9074 0.00745659 17.8176 0.00505244 22.7278 0.00505244C22.8177 0.00505244 22.9052 0.0170732 22.9951 0.0242856C22.9976 1.28887 22.9976 2.55345 22.9976 3.81563Z" fill="#D1D9DD"/>
<path d="M22.9976 11.3983C22.8785 11.4055 22.7594 11.4176 22.6402 11.4176C17.7908 11.4176 12.939 11.4176 8.08962 11.4176C7.64722 11.4176 7.64722 11.4176 7.64722 10.9824C7.64722 9.96545 7.65451 8.94849 7.64236 7.93154C7.63749 7.65746 7.72986 7.58053 8.00211 7.58053C12.9123 7.58774 17.8224 7.58534 22.7326 7.58534C22.8226 7.58534 22.9101 7.59736 23 7.60457C22.9976 8.87156 22.9976 10.1337 22.9976 11.3983Z" fill="#D1D9DD"/>
<path d="M22.9976 18.9786C22.8785 18.9858 22.7594 18.9978 22.6402 18.9978C17.7908 18.9978 12.939 18.9978 8.08962 18.9978C7.64722 18.9978 7.64722 18.9978 7.64722 18.5627C7.64722 17.5457 7.65451 16.5288 7.64236 15.5118C7.63749 15.2377 7.72986 15.1608 8.00211 15.1608C12.9123 15.168 17.8224 15.1656 22.7326 15.1656C22.8226 15.1656 22.9101 15.1776 23 15.1849C22.9976 16.4518 22.9976 17.7164 22.9976 18.9786Z" fill="#D1D9DD"/>
<path d="M0 0.0268601C1.20567 0.0196476 2.41376 0.0148393 3.61943 0.00522271C3.78229 0.00522271 3.85278 0.0701348 3.85278 0.233617C3.85035 1.35876 3.85035 2.4839 3.85278 3.60904C3.85278 3.77253 3.78229 3.83744 3.61943 3.83744C2.41376 3.82782 1.20567 3.82301 0 3.8158C0 2.55362 0 1.28904 0 0.0268601Z" fill="#D1D9DD"/>
<path d="M0 7.60698C1.20567 7.59977 2.41376 7.59496 3.61943 7.58534C3.78229 7.58534 3.85278 7.65025 3.85278 7.81374C3.85035 8.93888 3.85035 10.064 3.85278 11.1892C3.85278 11.3526 3.78229 11.4176 3.61943 11.4176C2.41376 11.4103 1.20567 11.4055 0 11.3983C0 10.1337 0 8.87156 0 7.60698Z" fill="#D1D9DD"/>
<path d="M0 15.1897C1.20567 15.1825 2.41376 15.1776 3.61943 15.168C3.78229 15.168 3.85278 15.2329 3.85278 15.3964C3.85035 16.5216 3.85035 17.6467 3.85278 18.7719C3.85278 18.9353 3.78229 19.0002 3.61943 19.0002C2.41376 18.9906 1.20567 18.9858 0 18.9786C0 17.7164 0 16.4518 0 15.1897Z" fill="#D1D9DD"/>
</svg>
