<svg width="37" height="29" viewBox="0 0 37 29" fill="none" xmlns="http://www.w3.org/2000/svg">
<path d="M13.1084 -5.49259e-06C16.0453 -5.49259e-06 18.9787 -5.49259e-06 21.9155 -5.49259e-06C22.0828 -5.49259e-06 22.2501 -0.00340149 22.4175 0.00339051C23.0151 0.0237665 23.3839 0.356574 23.3907 0.876162C23.3976 1.37198 23.0083 1.75912 22.438 1.7795C21.8472 1.80327 21.253 1.78969 20.6622 1.79308C20.1329 1.79648 20.1329 1.79308 20.2422 2.30248C20.8364 5.12116 21.4306 7.93984 22.0214 10.7585C22.076 11.0234 22.1818 11.1491 22.4789 11.1491C24.1659 11.1389 25.8529 11.1389 27.5398 11.1491C27.854 11.1525 27.936 11.0268 27.9326 10.7381C27.9189 10.0454 27.9223 9.35597 27.9291 8.66319C27.9496 6.5271 29.6264 4.70345 32.2353 4.86646C32.8637 4.90382 33.2325 5.28077 33.2154 5.79017C33.2018 6.29618 32.7988 6.62559 32.1705 6.64257C32.0305 6.64596 31.887 6.64257 31.747 6.64596C31.1801 6.65955 30.6918 6.85652 30.2923 7.25724C29.9508 7.60024 29.7561 8.01455 29.7425 8.49339C29.722 9.26088 29.7425 10.0284 29.7288 10.7993C29.722 11.1049 29.8825 11.1592 30.142 11.1558C31.0162 11.1491 31.8939 11.1525 32.7681 11.1491C34.6804 11.1457 36.002 12.4565 36.002 14.3549C36.002 15.8287 35.9918 17.2992 36.0054 18.7731C36.0122 19.7579 35.6059 20.5322 34.8614 21.1435C34.1716 21.7106 33.5433 21.5476 33.2223 20.7156C32.5768 19.0414 31.4602 17.8562 29.7151 17.2958C26.973 16.4129 23.9815 17.8765 23.0083 20.5797C22.5302 21.9144 22.5302 21.9144 21.0822 21.9178C20.0134 21.9178 18.9445 21.9212 17.8756 21.9178C17.0117 21.9144 16.7112 21.6053 16.7385 20.7495C16.8478 17.4113 15.4442 14.8303 12.7157 12.9523C11.4522 12.083 10.0043 11.6856 8.47781 11.5464C5.84833 11.3087 3.63547 12.2222 1.70263 13.9338C1.42602 14.1817 1.13575 14.4466 0.715718 14.3583C0.381057 14.287 0.138598 14.0832 0.0361507 13.7402C-0.0697116 13.3802 0.0668849 13.0882 0.316173 12.8369C1.30308 11.8317 2.46074 11.0811 3.76182 10.5514C4.20234 10.3714 4.65311 10.2084 5.11412 10.0929C5.44196 10.0114 5.54782 9.86537 5.5444 9.53935C5.53416 7.47798 5.53757 5.41661 5.54099 3.35524C5.54099 2.97149 5.55806 2.58775 5.58197 2.204C5.60587 1.87798 5.45562 1.78289 5.14486 1.78629C4.61896 1.79308 4.08624 1.84402 3.56375 1.75233C3.03444 1.66064 2.72369 1.27689 2.76125 0.828618C2.80223 0.370158 3.16079 0.0475385 3.67986 0.0067865C3.8267 -0.00340149 3.96671 -5.49259e-06 4.11014 -5.49259e-06C5.81077 -5.49259e-06 7.50798 -5.49259e-06 9.2086 -5.49259e-06C10.5097 -5.49259e-06 11.8108 -5.49259e-06 13.1084 -5.49259e-06ZM10.3389 5.90564C10.3355 7.14517 10.3458 8.38811 10.3321 9.62765C10.3287 9.91631 10.4107 10.0691 10.7077 10.1404C11.4488 10.317 12.1454 10.6159 12.8182 10.9725C13.0265 11.0811 13.2416 11.1457 13.4807 11.1457C15.6047 11.1423 17.7254 11.1457 19.8495 11.1457C20.2866 11.1457 20.3139 11.1117 20.2183 10.6736C19.6173 7.85833 19.0128 5.04645 18.422 2.22777C18.3503 1.87798 18.1796 1.7795 17.8415 1.7795C15.4852 1.78969 13.1323 1.78969 10.776 1.7795C10.4448 1.7795 10.3219 1.87798 10.3287 2.21758C10.3492 3.44693 10.3389 4.67628 10.3389 5.90564ZM15.4955 12.9286C15.5774 13.0474 15.6047 13.1052 15.6457 13.1493C17.3907 15.0375 18.3674 17.2517 18.4664 19.8258C18.4767 20.0839 18.5996 20.1485 18.8318 20.1485C19.5524 20.1417 20.2729 20.1383 20.9935 20.1485C21.2428 20.1518 21.3657 20.05 21.4476 19.8292C21.5911 19.4455 21.7447 19.0549 21.9974 18.7357C22.2604 18.4029 22.3526 18.0361 22.3526 17.632C22.3526 16.2261 22.3458 14.8201 22.3594 13.4108C22.3628 13.044 22.2228 12.9218 21.8574 12.9252C20.2763 12.9387 18.6952 12.932 17.1107 12.932C16.6019 12.9286 16.0896 12.9286 15.4955 12.9286ZM8.60758 5.77998C8.60416 4.7442 8.61099 3.70842 8.60416 2.67265C8.59733 1.64705 8.751 1.82025 7.69238 1.78969C7.38845 1.7795 7.25869 1.8644 7.25869 2.19721C7.25527 3.24657 7.29284 4.29254 7.30308 5.3419C7.31333 6.68332 7.28259 8.02813 7.25869 9.36955C7.25186 9.6684 7.33382 9.80764 7.65823 9.72274C7.83239 9.67519 8.02021 9.67519 8.19437 9.72274C8.53928 9.81443 8.61782 9.66161 8.61441 9.34578C8.60416 8.16058 8.60758 6.97198 8.60758 5.77998ZM34.257 18.6101C34.257 17.1905 34.2809 15.7676 34.2467 14.3481C34.2262 13.4753 33.7038 12.9625 32.9354 12.9252C32.5905 12.9082 32.4402 13.0236 32.4471 13.3802C32.4607 14.3922 32.4505 15.4008 32.4505 16.4129C32.4505 16.5827 32.471 16.7491 32.611 16.8679C33.2257 17.3841 33.7755 17.9512 34.257 18.6101ZM24.0874 14.725C24.0908 15.2243 24.0874 15.7201 24.0908 16.2193C24.0908 16.3076 24.0498 16.4434 24.2171 16.4468C24.5006 16.4536 25.0811 15.9001 25.0811 15.6148C25.0811 14.8371 25.0709 14.056 25.0811 13.2783C25.0845 12.898 24.8352 12.9252 24.5859 12.9286C24.3401 12.9286 24.0771 12.8912 24.084 13.2716C24.0942 13.7538 24.0874 14.2394 24.0874 14.725ZM30.7225 14.3685C30.726 14.3685 30.726 14.3685 30.7294 14.3685C30.7294 14.0119 30.7191 13.6519 30.7328 13.2953C30.7464 12.932 30.5176 12.9184 30.2513 12.9252C29.9986 12.9354 29.7151 12.8742 29.7254 13.2851C29.739 13.7945 29.7288 14.3073 29.7288 14.8167C29.7254 15.5333 29.739 15.5401 30.4323 15.6963C30.6508 15.7438 30.7191 15.6691 30.7191 15.4756C30.7225 15.1088 30.7225 14.7386 30.7225 14.3685ZM27.9257 14.124C27.9257 13.8828 27.9189 13.6383 27.9291 13.3972C27.9394 13.1323 27.9257 12.9252 27.5569 12.9286C27.0037 12.9354 26.9149 12.9625 26.9013 13.3768C26.8808 13.9508 26.8944 14.5281 26.8944 15.102C26.8944 15.2073 26.9081 15.3024 27.0242 15.3567C27.4374 15.5435 27.9291 15.2514 27.9291 14.8133C27.9257 14.5824 27.9257 14.3549 27.9257 14.124Z" fill="#E04E39"/>
<path d="M24.6851 26.1797C23.4079 24.8349 22.8273 23.3305 23.1518 21.5612C23.3806 20.3216 23.9611 19.2689 24.9685 18.481C27.0379 16.8645 29.9099 17.0547 31.7949 18.9225C33.3999 20.5084 34.0385 23.6905 31.6276 26.1526C31.7232 26.2816 31.8632 26.2205 31.9793 26.2205C32.8808 26.2273 33.7824 26.2239 34.6839 26.2239C34.9435 26.2239 35.1996 26.2477 35.4454 26.3326C35.8586 26.4752 36.0328 26.7469 36.0021 27.1883C35.9748 27.5857 35.7494 27.8336 35.3396 27.9253C34.8444 28.0373 34.339 27.9932 33.837 27.9932C23.3157 27.9966 12.7943 27.9966 2.273 27.9932C1.98956 27.9932 1.70612 28.0136 1.4261 27.9457C0.961669 27.837 0.671402 27.5076 0.671402 27.0899C0.671402 26.6823 0.975329 26.3393 1.44317 26.2612C1.95199 26.1763 2.47106 26.2273 2.98671 26.2239C3.20185 26.2205 3.41699 26.2239 3.74482 26.2239C1.63099 24.5293 0.531391 22.4475 0.685062 19.8292C0.801169 17.8833 1.64124 16.2464 3.13014 14.9831C6.15233 12.4192 10.3424 12.6501 13.1017 15.4755C15.4306 17.8629 16.2468 22.8551 12.0567 26.1797C16.2536 26.1797 20.4164 26.1797 24.6851 26.1797ZM7.8393 15.0035C4.7693 14.9967 2.39593 17.2924 2.40959 20.3556C2.42325 23.4697 4.79662 25.7009 7.77442 25.7145C10.8513 25.7281 13.2075 23.4392 13.2383 20.3658C13.269 17.3773 10.8581 15.0069 7.8393 15.0035ZM24.8524 22.434C24.8558 24.2916 26.3345 25.7518 28.1888 25.7247C29.985 25.7009 31.4193 24.2372 31.4193 22.4373C31.4193 20.5831 29.9782 19.1602 28.1068 19.167C26.2525 19.1704 24.849 20.5797 24.8524 22.434Z" fill="#E04E39"/>
</svg>
