<svg width="32" height="32" viewBox="0 0 32 32" fill="none" xmlns="http://www.w3.org/2000/svg">
<path d="M2.04899 16.6679C2.04899 19.9636 2.04359 23.2593 2.04899 26.555C2.04899 27.9241 2.9926 28.8225 4.44846 28.8225C8.28761 28.8279 12.1268 28.8225 15.9659 28.8225C18.4894 28.8225 21.0075 28.8279 23.531 28.8171C23.8653 28.8171 23.9893 28.9199 23.9731 29.2554C23.9516 29.6613 23.9516 30.0672 23.9677 30.473C23.9785 30.7707 23.8761 30.8843 23.5687 30.8789C21.3041 30.8681 19.034 30.8789 16.7693 30.8789C12.7091 30.8789 8.65427 30.8681 4.59404 30.8789C2.08673 30.8897 0 28.8441 0 26.3277C0 19.8608 0 13.3993 0.00539207 6.93233C0.00539207 4.87049 1.58527 2.94394 3.59651 2.54348C4.5563 2.35407 5.53226 2.45689 6.50284 2.44607C7.76458 2.43524 9.02632 2.44066 10.2827 2.44607C10.5523 2.44607 10.6871 2.3703 10.768 2.0889C11.1346 0.838807 12.2777 0 13.5718 0C14.9037 0 16.2301 0 17.562 0C18.8992 0 19.9884 0.806337 20.382 2.09972C20.4629 2.37572 20.5869 2.45689 20.8619 2.45148C22.7707 2.44066 24.6795 2.44607 26.5883 2.44607C28.7667 2.44607 30.6431 3.97757 31.0853 6.11517C31.2201 6.7808 31.1769 7.45726 31.1769 8.12831C31.1823 11.5647 31.1769 15.0011 31.1716 18.4321C31.1716 18.9679 31.1662 18.9733 30.627 18.9733C30.2441 18.9733 29.8613 18.9624 29.4838 18.9787C29.2088 18.9895 29.0956 18.8596 29.1118 18.6107C29.1441 18.1236 29.1118 17.6366 29.1172 17.1495C29.1334 15.7804 29.1334 14.4167 29.1172 13.0475C29.101 12.0031 29.1441 10.964 29.1333 9.91956C29.1226 8.78312 29.2034 7.64667 29.0848 6.51563C28.95 5.26013 28.1142 4.50791 26.8525 4.49709C24.8413 4.48085 22.83 4.49709 20.8134 4.48626C20.533 4.48626 20.4953 4.61614 20.4953 4.84884C20.5006 8.07419 20.5006 11.2995 20.4953 14.5303C20.4953 15.158 20.533 15.7804 20.4521 16.4081C20.2364 18.0966 18.759 19.4062 17.0713 19.3954C16.0198 19.39 14.9684 19.4008 13.9169 19.39C12.2616 19.3791 10.6871 17.7935 10.6871 16.1321C10.6871 12.3927 10.6817 8.65865 10.6925 4.91919C10.6925 4.5945 10.617 4.47544 10.2719 4.48085C8.38467 4.49709 6.50284 4.49167 4.61561 4.48626C4.30287 4.48626 3.99013 4.51332 3.68818 4.58367C2.70682 4.81096 2.06516 5.64436 2.05977 6.7321C2.04899 9.4704 2.05438 12.1979 2.04899 14.9253C2.04899 15.5044 2.04899 16.0889 2.04899 16.6679ZM12.7307 9.45957C12.7307 10.1685 12.7307 10.8774 12.7307 11.5809C12.7307 13.1233 12.7253 14.6656 12.7361 16.2079C12.7415 16.8681 13.0919 17.3173 13.6743 17.3281C14.936 17.3552 16.1924 17.3498 17.4541 17.3335C17.9394 17.3281 18.2845 16.9926 18.3923 16.5055C18.4409 16.2999 18.4571 16.0943 18.4517 15.8832C18.4517 14.2597 18.4517 12.6362 18.4517 11.0127C18.4517 8.28524 18.4517 5.55777 18.4463 2.83571C18.4463 2.19713 18.3115 2.06184 17.6698 2.06184C16.2463 2.05643 14.8282 2.06184 13.4047 2.06184C12.8709 2.06184 12.7307 2.20796 12.7307 2.74371C12.7307 4.97872 12.7307 7.21915 12.7307 9.45957Z" fill="#58595B"/>
<path d="M26.1893 23.7301C26.0545 23.7463 26.0006 23.86 25.9251 23.9358C25.3751 24.4823 24.8305 25.0397 24.2805 25.5809C23.8168 26.0355 23.2129 26.0409 22.7977 25.6134C22.3879 25.1913 22.3879 24.596 22.83 24.1468C24.0486 22.9075 25.278 21.6791 26.5074 20.4561C26.9603 20.0069 27.5319 19.9961 27.9956 20.4506C29.2466 21.6899 30.4868 22.94 31.7215 24.1955C32.1044 24.5852 32.0828 25.24 31.7162 25.6188C31.3279 26.0192 30.6863 26.0355 30.2765 25.6296C29.6294 24.9964 29.0039 24.3524 28.3623 23.7085C28.2275 23.8113 28.2814 23.9358 28.2814 24.0386C28.276 26.1762 28.2814 28.3084 28.2814 30.446C28.2814 30.6408 28.2868 30.841 28.2706 31.0358C28.2167 31.6419 27.7745 32.0208 27.176 31.9991C26.6368 31.9775 26.2324 31.55 26.2324 30.9547C26.227 28.6655 26.2324 26.3818 26.227 24.0927C26.227 23.9845 26.2594 23.8546 26.1893 23.7301Z" fill="#58595B"/>
<path d="M14.5694 14.763C14.5748 14.119 15.0169 13.6482 15.6046 13.659C16.1708 13.6698 16.6184 14.1569 16.613 14.763C16.6076 15.4016 16.1654 15.8778 15.5831 15.8832C15.0007 15.894 14.564 15.407 14.5694 14.763Z" fill="#58595B"/>
</svg>
