<svg width="47" height="32" viewBox="0 0 47 32" fill="none" xmlns="http://www.w3.org/2000/svg">
<path d="M46.9937 16.3646C46.9937 18.3039 46.9973 20.2396 46.9937 22.1789C46.9864 24.3498 45.8929 25.8477 43.8253 26.5387C43.7131 26.5749 43.6008 26.6111 43.4922 26.6509C43.0722 26.8065 42.8984 27.0344 42.9418 27.4795C43.0143 28.2356 42.978 28.9846 42.9346 29.7372C42.902 30.2726 42.7282 30.6923 42.1959 30.9131C41.6673 31.1301 41.2508 30.9203 40.8851 30.5766C40.3275 30.0483 39.7844 29.5056 39.2412 28.9629C38.6981 28.4202 38.1513 27.8847 37.619 27.3311C37.2243 26.9223 36.7645 26.7341 36.1924 26.7341C32.5099 26.745 28.8273 26.7522 25.1412 26.7341C23.4828 26.7269 22.0887 26.1371 21.1473 24.7044C20.6802 23.9952 20.4448 23.1992 20.4014 22.3526C20.3833 21.9908 20.3905 21.6254 20.3471 21.2635C20.3109 20.9922 20.1805 20.8945 19.927 20.8511C19.6482 20.804 19.3839 20.8692 19.1087 20.8692C17.0122 20.8655 14.9193 20.8692 12.8227 20.8619C12.2253 20.8583 11.6278 20.8294 11.0304 20.8113C10.4655 20.7968 10.002 20.9994 9.60007 21.401C8.48482 22.5118 7.36594 23.6189 6.23621 24.7116C5.67496 25.2543 4.9399 25.1928 4.50539 24.5958C4.30624 24.3245 4.24106 24.0061 4.23744 23.6732C4.23382 22.9713 4.23382 22.2694 4.23382 21.5675C4.23382 20.9741 4.15778 20.8619 3.58205 20.6702C3.10046 20.5074 2.63335 20.3192 2.1916 20.0551C0.761321 19.2085 0.145758 17.8842 0.0986857 16.3067C0.0117828 13.3145 -0.0389106 10.326 0.0443714 7.3338C0.07696 6.1941 -0.00994295 5.04716 0.156621 3.90745C0.511475 1.42181 2.39437 0.0469228 4.6973 0.021596C8.4305 -0.0182032 12.1673 -0.000112683 15.9042 0.0433047C17.0339 0.0577771 18.1673 0.0794858 19.297 0.0794858C20.1407 0.0794858 20.988 0.0179779 21.8317 0.0107417C24.6995 -0.0145851 26.7127 1.91749 26.8213 4.78665C26.825 4.83731 26.825 4.89158 26.825 4.94223C26.8431 5.9553 26.8431 5.96254 27.875 5.96254C32.5606 5.96616 37.2461 5.96254 41.9316 5.96254C43.0396 5.96254 44.115 6.1145 45.0565 6.75852C46.3093 7.6124 46.9539 8.81723 46.9792 10.3151C47.0154 12.334 46.9901 14.3493 46.9937 16.3646C46.9901 16.3646 46.9901 16.3646 46.9937 16.3646ZM16.0707 18.5934C16.0707 18.5898 16.0707 18.5898 16.0707 18.5861C18.0369 18.5861 20.0031 18.6006 21.9656 18.5825C23.5661 18.5644 24.4424 17.6671 24.4569 16.0643C24.4677 14.6858 24.4605 13.3073 24.4605 11.9288C24.4605 9.53724 24.4713 7.14204 24.4532 4.75047C24.4424 3.18021 23.6023 2.35166 22.0344 2.29739C21.7882 2.29015 21.5384 2.28654 21.2921 2.28654C19.1449 2.28654 16.9977 2.26121 14.8505 2.29377C11.4793 2.34443 8.11186 2.1599 4.74437 2.29377C3.29961 2.35166 2.39799 3.23086 2.39075 4.66725C2.37265 8.5314 2.37265 12.3919 2.39075 16.2561C2.39799 17.5043 3.15115 18.3293 4.3859 18.5246C4.76972 18.5861 5.1644 18.5861 5.5446 18.6549C6.19275 18.7743 6.48243 19.1216 6.51502 19.7801C6.5295 20.1057 6.51864 20.4314 6.52226 20.757C6.52588 20.88 6.48605 21.0392 6.64899 21.0935C6.78659 21.1405 6.85901 21.0103 6.93505 20.9307C7.42026 20.4241 7.91995 19.9285 8.38343 19.4002C8.88675 18.8286 9.50955 18.597 10.2518 18.597C12.1927 18.597 14.1335 18.5934 16.0707 18.5934ZM34.8997 8.15873C34.8997 8.15512 34.8997 8.15512 34.8997 8.1515C32.5171 8.1515 30.1381 8.1515 27.7555 8.1515C26.9517 8.1515 26.8141 8.28537 26.8141 9.0705C26.8141 11.3065 26.8503 13.5425 26.8069 15.7785C26.7598 18.1013 26.079 19.5666 23.6928 20.5472C22.65 20.9741 22.5667 20.6991 22.6102 22.2549C22.6102 22.2947 22.6102 22.3345 22.6174 22.3707C22.7405 23.3078 23.1823 24.0025 24.102 24.3462C24.6488 24.5488 25.2173 24.5922 25.7894 24.5922C29.5226 24.5958 33.2594 24.5994 36.9926 24.5886C37.6878 24.585 38.2455 24.8021 38.7126 25.3375C39.1905 25.8875 39.7192 26.3904 40.2261 26.9114C40.3058 26.991 40.3782 27.114 40.5194 27.0453C40.6425 26.9838 40.6353 26.8499 40.6353 26.7341C40.6389 26.4483 40.6244 26.1625 40.6461 25.8766C40.7077 24.983 40.9938 24.6899 41.8845 24.585C42.0764 24.5633 42.272 24.5416 42.4675 24.5307C43.8652 24.4475 44.7451 23.543 44.7777 22.1355C44.7958 21.3938 44.7885 20.6521 44.7885 19.914C44.7885 16.8712 44.7885 13.8283 44.7849 10.7855C44.7849 10.2174 44.698 9.6711 44.3721 9.18628C43.8435 8.40115 43.0432 8.17321 42.1669 8.16597C39.7409 8.14788 37.3185 8.15873 34.8997 8.15873Z" fill="#E04E39"/>
<path d="M16.7108 7.49311C16.7181 8.44829 16.3886 9.4288 15.668 10.2573C15.0705 10.9412 14.6578 11.6829 14.5419 12.6055C14.4296 13.4666 13.7742 13.8574 13.0319 13.586C12.5685 13.416 12.3367 12.8479 12.3838 12.1207C12.4635 10.8905 13.0247 9.89192 13.8141 8.99101C14.1798 8.57131 14.4658 8.11543 14.4622 7.52929C14.4586 6.90336 14.1255 6.46557 13.5715 6.37873C13.0283 6.2919 12.5829 6.61753 12.4055 7.23622C12.3621 7.38457 12.3367 7.54015 12.2933 7.68849C12.105 8.33251 11.6596 8.63282 11.0404 8.53874C10.4755 8.45553 10.1388 8.0105 10.1388 7.35562C10.1424 5.86134 11.2758 4.52988 12.8074 4.22595C14.8316 3.83158 16.5117 5.18114 16.7108 7.49311Z" fill="#E04E39"/>
<path d="M13.4634 16.6686C12.8333 16.6722 12.3879 16.2417 12.3879 15.6375C12.3879 15.0332 12.8768 14.5267 13.4634 14.5339C14.0246 14.5376 14.5497 15.0441 14.5569 15.594C14.5678 16.1838 14.0789 16.6686 13.4634 16.6686Z" fill="#E04E39"/>
</svg>
