<svg width="40" height="40" viewBox="0 0 40 40" fill="none" xmlns="http://www.w3.org/2000/svg">
<path d="M36.4576 1C37.3336 1.26725 38.0837 1.71603 38.557 2.53795C38.8339 3.01699 39 3.52627 39 4.09103C39 12.5977 39 21.1043 38.995 29.6059C38.995 31.3002 37.5551 32.7272 35.8635 32.7373C35.4306 32.7423 34.9976 32.7322 34.5647 32.7423C34.318 32.7473 34.2022 32.6515 34.2122 32.3944C34.2223 32.0717 34.2223 31.7489 34.2122 31.4313C34.2022 31.1741 34.318 31.0783 34.5647 31.0833C34.9473 31.0934 35.3299 31.0884 35.7125 31.0833C36.7848 31.0783 37.3437 30.5287 37.3437 29.4546C37.3487 25.2593 37.3437 21.0589 37.3437 16.8636C37.3437 12.7389 37.3437 8.61916 37.3437 4.49443C37.3437 4.28264 37.3487 4.07086 37.3286 3.86412C37.253 3.138 36.6892 2.64889 35.8887 2.64384C34.182 2.63376 32.4754 2.6388 30.7737 2.6388C23.1818 2.6388 15.5949 2.6388 8.00291 2.6388C6.75437 2.6388 5.50583 2.63376 4.25729 2.6388C3.15474 2.64384 2.63619 3.15817 2.63619 4.25239C2.63116 10.974 2.63619 17.6956 2.63619 24.4222C2.63619 26.0812 2.63619 27.7402 2.63619 29.3992C2.63619 30.5337 3.17488 31.0833 4.3177 31.0833C7.77636 31.0833 11.2401 31.0833 14.6987 31.0833C15.2626 31.0833 15.2626 31.0833 15.2626 31.6279C15.2626 32.7373 15.2626 32.7423 14.16 32.7423C10.9078 32.7423 7.66057 32.7423 4.40832 32.7423C2.67647 32.7423 1.56889 31.9204 1.05538 30.2665C1.04028 30.216 1.02014 30.1706 1 30.1253C1 21.2606 1 12.3909 1 3.52627C1.1309 3.2086 1.22655 2.8758 1.39772 2.56821C1.88103 1.73116 2.63116 1.27734 3.52226 1C14.5024 1 25.4775 1 36.4576 1Z" fill="#E04E39"/>
<path d="M18.3539 32.2431C18.3539 30.2362 18.3388 28.2343 18.3639 26.2274C18.369 25.7736 18.2381 25.4509 17.9209 25.1181C15.9222 23.0103 14.9506 20.4841 15.2577 17.5947C15.6806 13.6314 17.8152 10.853 21.5457 9.46629C26.4644 7.63587 31.962 10.2529 33.6787 15.2147C34.9726 18.9461 34.152 22.2842 31.4938 25.1736C31.232 25.461 31.1061 25.7333 31.1061 26.1165C31.1162 30.2009 31.1112 34.2853 31.1112 38.3697C31.1112 38.4705 31.1112 38.5663 31.1112 38.6672C31.1011 39.0353 31.0608 39.0655 30.7235 38.8991C28.8205 37.9512 26.9175 37.0032 25.0245 36.0451C24.7778 35.9191 24.5865 35.9695 24.365 36.0804C22.5224 37.0082 20.6747 37.931 18.8321 38.8538C18.369 39.0857 18.3488 39.0706 18.3488 38.5563C18.3539 36.4485 18.3539 34.3458 18.3539 32.2431ZM16.8788 18.4217C16.8083 22.7078 20.267 26.3737 24.8936 26.3283C29.0672 26.2879 32.5359 22.8036 32.6114 18.6284C32.6869 14.2566 29.3843 10.5353 24.7275 10.5454C20.0203 10.5555 16.8335 14.2718 16.8788 18.4217ZM20.0102 31.5825C20.0102 33.0448 20.0102 34.5021 20.0102 35.9644C20.0102 36.4535 20.0152 36.4536 20.4381 36.2418C21.732 35.5913 23.0258 34.9509 24.3146 34.2903C24.6066 34.1391 24.8433 34.129 25.1453 34.2853C26.4291 34.9509 27.728 35.5862 29.0219 36.2367C29.4599 36.4535 29.4649 36.4536 29.4649 35.9745C29.4649 33.0297 29.4649 30.0799 29.4649 27.1351C29.4649 26.7367 29.4599 26.7367 29.1074 26.9132C26.1975 28.3554 23.2826 28.3554 20.3727 26.9183C20.0102 26.7418 20.0102 26.7418 20.0102 27.1653C20.0102 28.6327 20.0102 30.1101 20.0102 31.5825Z" fill="#E04E39"/>
<path d="M9.71461 13.7171C8.52648 13.7171 7.34338 13.712 6.15525 13.7221C5.84312 13.7272 5.69712 13.6314 5.72229 13.2986C5.74243 13.0263 5.74243 12.754 5.72229 12.4817C5.69712 12.159 5.82802 12.043 6.15022 12.048C7.15207 12.0632 8.15393 12.0531 9.15075 12.0531C10.5101 12.0531 11.8694 12.0632 13.2287 12.048C13.576 12.043 13.7321 12.1438 13.7019 12.5069C13.6767 12.7641 13.6818 13.0263 13.7019 13.2834C13.7271 13.6061 13.6012 13.7171 13.274 13.7171C12.0909 13.707 10.9027 13.7171 9.71461 13.7171Z" fill="#E04E39"/>
<path d="M8.90431 18.4721C7.97797 18.4721 7.05163 18.462 6.13033 18.4772C5.82323 18.4822 5.70744 18.3713 5.72757 18.0637C5.74268 17.7914 5.74771 17.5191 5.72757 17.2468C5.69737 16.8989 5.84337 16.798 6.17564 16.8031C7.66584 16.8182 9.16107 16.8081 10.6513 16.8081C11.0238 16.8081 11.3913 16.8182 11.7588 16.8031C12.0357 16.793 12.1364 16.914 12.1314 17.1762C12.1213 17.4737 12.1213 17.7712 12.1364 18.0637C12.1515 18.3713 12.0206 18.4772 11.7186 18.4721C10.7771 18.4671 9.84072 18.4772 8.90431 18.4721Z" fill="#E04E39"/>
<path d="M14.4369 8.96205C13.7724 8.96205 13.1028 8.95196 12.4382 8.96709C12.1563 8.97213 12.0254 8.87633 12.0405 8.58386C12.0556 8.26115 12.0455 7.94347 12.0405 7.62075C12.0405 7.40393 12.1362 7.30308 12.3526 7.30308C13.7623 7.30812 15.1669 7.30812 16.5765 7.30308C16.8031 7.30308 16.8786 7.41906 16.8786 7.6258C16.8736 7.94851 16.8685 8.27123 16.8786 8.58891C16.8887 8.85616 16.783 8.96709 16.5111 8.96205C15.8163 8.95196 15.1266 8.96205 14.4369 8.96205Z" fill="#E04E39"/>
<path d="M7.32815 8.96206C6.91029 8.96206 6.4874 8.95702 6.06954 8.96711C5.81278 8.97215 5.71713 8.86122 5.72216 8.60909C5.73223 8.28637 5.73223 7.9687 5.72216 7.64598C5.71713 7.41403 5.80271 7.30309 6.04437 7.30814C6.91029 7.31318 7.77118 7.31318 8.63711 7.30814C8.85862 7.30814 8.94924 7.40899 8.94421 7.62581C8.93917 7.97374 8.93917 8.31663 8.94421 8.66456C8.94421 8.89147 8.82842 8.96711 8.622 8.96711C8.19408 8.95702 7.76111 8.96206 7.32815 8.96206Z" fill="#E04E39"/>
<path d="M19.9699 18.4318C19.9699 15.7341 22.0391 13.6465 24.7225 13.6314C27.431 13.6163 29.5102 15.719 29.5052 18.4772C29.5052 21.1547 27.4209 23.2373 24.7476 23.2322C22.024 23.2272 19.9699 21.1648 19.9699 18.4318ZM27.8489 18.4369C27.864 16.7275 26.4745 15.3156 24.7577 15.2904C23.0812 15.2651 21.6414 16.672 21.6263 18.3612C21.6061 20.121 22.9453 21.5481 24.6419 21.5682C26.4442 21.5884 27.8287 20.237 27.8489 18.4369Z" fill="#E04E39"/>
<path d="M36.4576 1C37.3336 1.26725 38.0837 1.71603 38.557 2.53795C38.8339 3.01699 39 3.52627 39 4.09103C39 12.5977 39 21.1043 38.995 29.6059C38.995 31.3002 37.5551 32.7272 35.8635 32.7373C35.4306 32.7423 34.9976 32.7322 34.5647 32.7423C34.318 32.7473 34.2022 32.6515 34.2122 32.3944C34.2223 32.0717 34.2223 31.7489 34.2122 31.4313C34.2022 31.1741 34.318 31.0783 34.5647 31.0833C34.9473 31.0934 35.3299 31.0884 35.7125 31.0833C36.7848 31.0783 37.3437 30.5287 37.3437 29.4546C37.3487 25.2593 37.3437 21.0589 37.3437 16.8636C37.3437 12.7389 37.3437 8.61916 37.3437 4.49443C37.3437 4.28264 37.3487 4.07086 37.3286 3.86412C37.253 3.138 36.6892 2.64889 35.8887 2.64384C34.182 2.63376 32.4754 2.6388 30.7737 2.6388C23.1818 2.6388 15.5949 2.6388 8.00291 2.6388C6.75437 2.6388 5.50583 2.63376 4.25729 2.6388C3.15474 2.64384 2.63619 3.15817 2.63619 4.25239C2.63116 10.974 2.63619 17.6956 2.63619 24.4222C2.63619 26.0812 2.63619 27.7402 2.63619 29.3992C2.63619 30.5337 3.17488 31.0833 4.3177 31.0833C7.77636 31.0833 11.2401 31.0833 14.6987 31.0833C15.2626 31.0833 15.2626 31.0833 15.2626 31.6279C15.2626 32.7373 15.2626 32.7423 14.16 32.7423C10.9078 32.7423 7.66057 32.7423 4.40832 32.7423C2.67647 32.7423 1.56889 31.9204 1.05538 30.2665C1.04028 30.216 1.02014 30.1706 1 30.1253C1 21.2606 1 12.3909 1 3.52627C1.1309 3.2086 1.22655 2.8758 1.39772 2.56821C1.88103 1.73116 2.63116 1.27734 3.52226 1C14.5024 1 25.4775 1 36.4576 1Z" stroke="#E04E39" stroke-width="0.5"/>
<path d="M18.3539 32.2431C18.3539 30.2362 18.3388 28.2343 18.3639 26.2274C18.369 25.7736 18.2381 25.4509 17.9209 25.1181C15.9222 23.0103 14.9506 20.4841 15.2577 17.5947C15.6806 13.6314 17.8152 10.853 21.5457 9.46629C26.4644 7.63587 31.962 10.2529 33.6787 15.2147C34.9726 18.9461 34.152 22.2842 31.4938 25.1736C31.232 25.461 31.1061 25.7333 31.1061 26.1165C31.1162 30.2009 31.1112 34.2853 31.1112 38.3697C31.1112 38.4705 31.1112 38.5663 31.1112 38.6672C31.1011 39.0353 31.0608 39.0655 30.7235 38.8991C28.8205 37.9512 26.9175 37.0032 25.0245 36.0451C24.7778 35.9191 24.5865 35.9695 24.365 36.0804C22.5224 37.0082 20.6747 37.931 18.8321 38.8538C18.369 39.0857 18.3488 39.0706 18.3488 38.5563C18.3539 36.4485 18.3539 34.3458 18.3539 32.2431ZM16.8788 18.4217C16.8083 22.7078 20.267 26.3737 24.8936 26.3283C29.0672 26.2879 32.5359 22.8036 32.6114 18.6284C32.6869 14.2566 29.3843 10.5353 24.7275 10.5454C20.0203 10.5555 16.8335 14.2718 16.8788 18.4217ZM20.0102 31.5825C20.0102 33.0448 20.0102 34.5021 20.0102 35.9644C20.0102 36.4535 20.0152 36.4536 20.4381 36.2418C21.732 35.5913 23.0258 34.9509 24.3146 34.2903C24.6066 34.1391 24.8433 34.129 25.1453 34.2853C26.4291 34.9509 27.728 35.5862 29.0219 36.2367C29.4599 36.4535 29.4649 36.4536 29.4649 35.9745C29.4649 33.0297 29.4649 30.0799 29.4649 27.1351C29.4649 26.7367 29.4599 26.7367 29.1074 26.9132C26.1975 28.3554 23.2826 28.3554 20.3727 26.9183C20.0102 26.7418 20.0102 26.7418 20.0102 27.1653C20.0102 28.6327 20.0102 30.1101 20.0102 31.5825Z" stroke="#E04E39" stroke-width="0.5"/>
<path d="M9.71461 13.7171C8.52648 13.7171 7.34338 13.712 6.15525 13.7221C5.84312 13.7272 5.69712 13.6314 5.72229 13.2986C5.74243 13.0263 5.74243 12.754 5.72229 12.4817C5.69712 12.159 5.82802 12.043 6.15022 12.048C7.15207 12.0632 8.15393 12.0531 9.15075 12.0531C10.5101 12.0531 11.8694 12.0632 13.2287 12.048C13.576 12.043 13.7321 12.1438 13.7019 12.5069C13.6767 12.7641 13.6818 13.0263 13.7019 13.2834C13.7271 13.6061 13.6012 13.7171 13.274 13.7171C12.0909 13.707 10.9027 13.7171 9.71461 13.7171Z" stroke="#E04E39" stroke-width="0.5"/>
<path d="M8.90431 18.4721C7.97797 18.4721 7.05163 18.462 6.13033 18.4772C5.82323 18.4822 5.70744 18.3713 5.72757 18.0637C5.74268 17.7914 5.74771 17.5191 5.72757 17.2468C5.69737 16.8989 5.84337 16.798 6.17564 16.8031C7.66584 16.8182 9.16107 16.8081 10.6513 16.8081C11.0238 16.8081 11.3913 16.8182 11.7588 16.8031C12.0357 16.793 12.1364 16.914 12.1314 17.1762C12.1213 17.4737 12.1213 17.7712 12.1364 18.0637C12.1515 18.3713 12.0206 18.4772 11.7186 18.4721C10.7771 18.4671 9.84072 18.4772 8.90431 18.4721Z" stroke="#E04E39" stroke-width="0.5"/>
<path d="M14.4369 8.96205C13.7724 8.96205 13.1028 8.95196 12.4382 8.96709C12.1563 8.97213 12.0254 8.87633 12.0405 8.58386C12.0556 8.26115 12.0455 7.94347 12.0405 7.62075C12.0405 7.40393 12.1362 7.30308 12.3526 7.30308C13.7623 7.30812 15.1669 7.30812 16.5765 7.30308C16.8031 7.30308 16.8786 7.41906 16.8786 7.6258C16.8736 7.94851 16.8685 8.27123 16.8786 8.58891C16.8887 8.85616 16.783 8.96709 16.5111 8.96205C15.8163 8.95196 15.1266 8.96205 14.4369 8.96205Z" stroke="#E04E39" stroke-width="0.5"/>
<path d="M7.32815 8.96206C6.91029 8.96206 6.4874 8.95702 6.06954 8.96711C5.81278 8.97215 5.71713 8.86122 5.72216 8.60909C5.73223 8.28637 5.73223 7.9687 5.72216 7.64598C5.71713 7.41403 5.80271 7.30309 6.04437 7.30814C6.91029 7.31318 7.77118 7.31318 8.63711 7.30814C8.85862 7.30814 8.94924 7.40899 8.94421 7.62581C8.93917 7.97374 8.93917 8.31663 8.94421 8.66456C8.94421 8.89147 8.82842 8.96711 8.622 8.96711C8.19408 8.95702 7.76111 8.96206 7.32815 8.96206Z" stroke="#E04E39" stroke-width="0.5"/>
<path d="M19.9699 18.4318C19.9699 15.7341 22.0391 13.6465 24.7225 13.6314C27.431 13.6163 29.5102 15.719 29.5052 18.4772C29.5052 21.1547 27.4209 23.2373 24.7476 23.2322C22.024 23.2272 19.9699 21.1648 19.9699 18.4318ZM27.8489 18.4369C27.864 16.7275 26.4745 15.3156 24.7577 15.2904C23.0812 15.2651 21.6414 16.672 21.6263 18.3612C21.6061 20.121 22.9453 21.5481 24.6419 21.5682C26.4442 21.5884 27.8287 20.237 27.8489 18.4369Z" stroke="#E04E39" stroke-width="0.5"/>
</svg>
