<svg width="20" height="19" viewBox="0 0 20 19" fill="none" xmlns="http://www.w3.org/2000/svg">
<path d="M0 0.024099C1.47059 0.0168847 2.94118 0.00967047 4.41176 5.14328e-05C4.61108 -0.00235333 4.69616 0.0794085 4.69616 0.279003C4.69373 1.64972 4.69373 3.02283 4.69616 4.39355C4.69616 4.59314 4.61108 4.6725 4.41176 4.6725C2.94118 4.66047 1.47059 4.65326 0 4.64605" fill="#D1D9DD"/>
<path d="M0 6.84175C1.47059 6.83453 2.94118 6.82732 4.41176 6.8177C4.61108 6.8153 4.69616 6.89706 4.69616 7.09665C4.69373 8.46736 4.69373 9.84048 4.69616 11.2112C4.69616 11.4108 4.61108 11.4901 4.41176 11.4901C2.94118 11.4781 1.47059 11.4709 0 11.4637" fill="#D1D9DD"/>
<path d="M0 14.3037C1.47059 14.2965 2.94118 14.2893 4.41176 14.2797C4.61108 14.2773 4.69616 14.359 4.69616 14.5586C4.69373 15.9293 4.69373 17.3025 4.69616 18.6732C4.69616 18.8728 4.61108 18.9521 4.41176 18.9521C2.94118 18.9377 1.47059 18.9329 0 18.9233" fill="#D1D9DD"/>
<path d="M7.65193 0.0242637C9.12251 0.0170494 10.5931 0.00983511 12.0637 0.000216074C12.263 -0.00218868 12.3481 0.0795731 12.3481 0.279168C12.3457 1.64988 12.3457 3.023 12.3481 4.39371C12.3481 4.59331 12.263 4.67266 12.0637 4.67266C10.5931 4.66304 9.12251 4.65583 7.65193 4.64861C7.65193 3.10476 7.65193 1.56571 7.65193 0.0242637Z" fill="#D1D9DD"/>
<path d="M7.65193 6.84175C9.12251 6.83453 10.5931 6.82732 12.0637 6.8177C12.263 6.8153 12.3481 6.89706 12.3481 7.09665C12.3457 8.46736 12.3457 9.84048 12.3481 11.2112C12.3481 11.4108 12.263 11.4901 12.0637 11.4901C10.5931 11.4805 9.12251 11.4733 7.65193 11.4661C7.65193 9.92224 7.65193 8.3832 7.65193 6.84175Z" fill="#D1D9DD"/>
<path d="M7.65193 14.3037C9.12251 14.2965 10.5931 14.2893 12.0637 14.2797C12.263 14.2773 12.3481 14.359 12.3481 14.5586C12.3457 15.9293 12.3457 17.3025 12.3481 18.6732C12.3481 18.8728 12.263 18.9521 12.0637 18.9521C10.5931 18.9425 9.12251 18.9353 7.65193 18.9281C7.65193 17.3842 7.65193 15.8428 7.65193 14.3037Z" fill="#D1D9DD"/>
<path d="M15.3038 0.0242637C16.7744 0.0170494 18.245 0.00983511 19.7156 0.000216074C19.9149 -0.00218868 20 0.0795731 20 0.279168C19.9976 1.64988 19.9976 3.023 20 4.39371C20 4.59331 19.9149 4.67266 19.7156 4.67266C18.245 4.66304 16.7744 4.65583 15.3038 4.64861C15.3038 3.10476 15.3038 1.56571 15.3038 0.0242637Z" fill="#D1D9DD"/>
<path d="M15.3038 6.84175C16.7744 6.83453 18.245 6.82732 19.7156 6.8177C19.9149 6.8153 20 6.89706 20 7.09665C19.9976 8.46736 19.9976 9.84048 20 11.2112C20 11.4108 19.9149 11.4901 19.7156 11.4901C18.245 11.4805 16.7744 11.4733 15.3038 11.4661C15.3038 9.92224 15.3038 8.3832 15.3038 6.84175Z" fill="#D1D9DD"/>
<path d="M15.3038 14.3037C16.7744 14.2965 18.245 14.2893 19.7156 14.2797C19.9149 14.2773 20 14.359 20 14.5586C19.9976 15.9293 19.9976 17.3025 20 18.6732C20 18.8728 19.9149 18.9521 19.7156 18.9521C18.245 18.9425 16.7744 18.9353 15.3038 18.9281C15.3038 17.3842 15.3038 15.8428 15.3038 14.3037Z" fill="#D1D9DD"/>
<path d="M15.3038 0.0218567C16.5095 0.0146424 17.7151 0.00983291 18.9232 0.000213879C19.0861 0.000213879 19.1565 0.0651424 19.1565 0.228666C19.1541 1.35409 19.1541 2.47952 19.1565 3.60495C19.1565 3.76847 19.0861 3.8334 18.9232 3.8334C17.7176 3.82378 16.5095 3.81897 15.3038 3.81176C15.3038 2.54926 15.3038 1.28436 15.3038 0.0218567Z" fill="#D1D9DD"/>
<path d="M15.3038 7.60406C16.5095 7.59685 17.7176 7.59204 18.9232 7.58242C19.0861 7.58242 19.1565 7.64735 19.1565 7.81087C19.1541 8.9363 19.1541 10.0617 19.1565 11.1872C19.1565 11.3507 19.0861 11.4156 18.9232 11.4156C17.7176 11.406 16.5095 11.4012 15.3038 11.394C15.3038 10.1315 15.3038 8.86897 15.3038 7.60406Z" fill="#D1D9DD"/>
<path d="M15.3038 15.1887C16.5095 15.1814 17.7176 15.1766 18.9232 15.167C19.0861 15.167 19.1565 15.2319 19.1565 15.3955C19.1541 16.5209 19.1541 17.6463 19.1565 18.7718C19.1565 18.9353 19.0861 19.0002 18.9232 19.0002C17.7176 18.9906 16.5095 18.9858 15.3038 18.9786C15.3038 17.7161 15.3038 16.4512 15.3038 15.1887Z" fill="#D1D9DD"/>
</svg>
