<svg width="38" height="28" viewBox="0 0 38 28" fill="none" xmlns="http://www.w3.org/2000/svg">
<path d="M37.983 13.9941C37.838 19.2683 35.4961 23.2865 31.0507 26.0487C28.7917 27.4506 26.2996 28.076 23.6417 27.9927C22.1547 27.9458 20.704 27.6539 19.3103 27.1275C19.0668 27.0389 18.8647 27.0441 18.616 27.1275C13.1603 28.9985 8.35744 27.8311 4.21255 23.8859C2.04167 21.8168 0.694577 19.2527 0.202372 16.282C-0.455629 12.2951 0.497695 8.6886 2.9639 5.51468C5.2695 2.54924 8.2849 0.725151 11.9998 0.151867C14.2173 -0.192104 16.3985 0.0528447 18.5072 0.839808C18.8233 0.959677 19.0927 0.949253 19.4087 0.84502C24.7349 -0.911316 29.486 0.110173 33.605 3.91991C36.1541 6.2808 37.5737 9.25146 37.9778 12.7068C38.0245 13.1289 37.983 13.5615 37.983 13.9941ZM2.53387 13.9785C2.46134 20.3315 7.3264 25.3555 13.6007 25.4702C20.0875 25.5953 25.1028 20.8162 25.2945 14.4162C25.5017 7.47428 20.3103 2.72644 14.295 2.54403C7.51292 2.34598 2.43543 7.61499 2.53387 13.9785ZM22.0718 2.74728C25.709 5.6554 27.8021 9.34527 27.8073 13.9993C27.8125 18.6638 25.7193 22.364 22.0926 25.2565C25.2789 25.9601 30.087 25.0533 33.0765 21.2383C36.123 17.3556 36.3665 11.6957 33.6153 7.5316C30.8901 3.39353 26.1494 1.9968 22.0718 2.74728Z" fill="#58595B"/>
</svg>
