<svg width="38" height="38" viewBox="0 0 38 38" fill="none" xmlns="http://www.w3.org/2000/svg">
<path d="M1.00298 9.4554C1.26781 8.48219 1.79451 7.71731 2.72888 7.27386C3.13953 7.0804 3.56803 6.98219 4.01736 6.98219C9.40337 6.98219 14.7864 6.98219 20.1724 6.97624C20.4016 6.97624 20.5682 7.05064 20.7289 7.21136C23.0678 9.55659 25.4097 11.9018 27.7575 14.2381C27.939 14.4197 28.0015 14.6102 28.0015 14.8631C27.9955 21.2203 27.9985 27.5774 27.9955 33.9375C27.9955 35.3661 27.1832 36.4703 25.8173 36.9137C25.74 36.9375 25.6656 36.9703 25.5882 37C18.1876 37 10.7871 37 3.38651 37C3.08596 36.878 2.77649 36.7887 2.49082 36.628C1.69334 36.1756 1.25591 35.4614 1 34.6131C1.00298 26.2262 1.00298 17.8393 1.00298 9.4554ZM2.55034 22.0358C2.55034 26.003 2.54736 29.9733 2.55034 33.9405C2.55034 34.9465 3.05918 35.4494 4.06497 35.4494C11.0073 35.4524 17.9466 35.4524 24.8889 35.4494C25.9125 35.4494 26.4303 34.9375 26.4303 33.9197C26.4333 28.1608 26.4303 22.3989 26.4303 16.6399C26.4303 16.0596 26.4244 16.0596 25.853 16.0596C24.1093 16.0596 22.3655 16.0655 20.6218 16.0566C19.5267 16.0506 18.9702 15.4881 18.9673 14.4167C18.9643 12.637 18.9673 10.8572 18.9673 9.07743C18.9673 8.55659 18.9673 8.55362 18.4525 8.55064C15.6196 8.55064 12.7867 8.55064 9.95388 8.55064C7.97504 8.55064 5.9962 8.54767 4.02033 8.55362C3.2169 8.55659 2.64259 9.02981 2.56522 9.74112C2.54141 9.94945 2.55034 10.1608 2.55034 10.3721C2.55034 14.2619 2.55034 18.1489 2.55034 22.0358ZM20.5712 9.34826C20.5622 9.38993 20.5444 9.42267 20.5444 9.4554C20.5414 11.0328 20.5444 12.6131 20.5355 14.1905C20.5325 14.4852 20.7051 14.4971 20.9253 14.4971C22.434 14.4941 23.9426 14.4941 25.4513 14.4911C25.5376 14.4911 25.6388 14.5298 25.6894 14.4643C23.9813 12.762 22.2822 11.0625 20.5712 9.34826Z" fill="#E04E39"/>
<path d="M20.2204 2.57143C17.8338 2.57143 15.4444 2.56845 13.0579 2.57143C12.0491 2.57143 11.5492 3.07738 11.5432 4.08333C11.5402 4.47024 11.5402 4.85714 11.5402 5.24107C11.5402 5.44048 11.4569 5.54167 11.2457 5.53869C10.9183 5.53274 10.591 5.53571 10.2637 5.53869C10.0792 5.54167 9.97801 5.47024 9.98098 5.27083C9.98693 4.70833 9.94527 4.14286 10.0048 3.58631C10.1565 2.16964 11.4599 1.0119 12.8912 1.00893C16.3787 1 19.8663 1.00595 23.3538 1.00298C25.2731 1.00298 27.1924 1.00595 29.1117 1C29.3766 1 29.573 1.0744 29.7634 1.26488C32.0845 3.59524 34.4115 5.92262 36.7414 8.24405C36.92 8.42262 37.0152 8.60714 36.9973 8.8631C36.9795 9.10714 36.9765 9.35714 36.9973 9.60119C37.0271 9.93452 36.9051 10.0506 36.5629 10.0476C35.2298 10.0327 33.8937 10.0417 32.5606 10.0417C31.5429 10.0417 30.5252 10.0446 29.5045 10.0387C28.5226 10.0327 27.9661 9.47024 27.9631 8.48214C27.9602 6.69048 27.9631 4.89881 27.9631 3.11012C27.9631 2.58333 27.9631 2.58036 27.4543 2.58036C25.044 2.57143 22.6337 2.5744 20.2204 2.57143ZM34.7299 8.47024C33.8907 7.61905 33.1051 6.82143 32.3195 6.02381C31.4983 5.19048 30.677 4.36012 29.8557 3.52976C29.7843 3.45833 29.7128 3.34821 29.5998 3.375C29.5016 3.39881 29.5343 3.51488 29.5343 3.58929C29.5313 5.11012 29.5343 6.62798 29.5283 8.14881C29.5283 8.39881 29.6444 8.47321 29.8735 8.47024C30.2812 8.46131 30.6918 8.47024 31.0995 8.47024C32.2898 8.47024 33.4801 8.47024 34.7299 8.47024Z" fill="#E04E39"/>
<path d="M36.9938 23.8304C36.9938 25.2232 36.9968 26.6161 36.9938 28.0089C36.9879 29.6964 35.6399 31.0387 33.9526 31.0387C32.5957 31.0387 31.2388 31.0327 29.8819 31.0476C29.5456 31.0506 29.4385 30.9316 29.4415 30.5982C29.4415 29.4643 29.4296 29.4673 30.5633 29.4702C31.6405 29.4732 32.7147 29.4732 33.792 29.4702C34.9257 29.4702 35.4286 28.9732 35.4286 27.8482C35.4316 25.0863 35.4286 22.3244 35.4286 19.5625C35.4286 18.9941 35.4316 18.9941 35.9791 18.9941C36.9938 18.9911 36.9938 18.9911 36.9938 20.006C36.9938 21.2798 36.9938 22.5566 36.9938 23.8304Z" fill="#E04E39"/>
<path d="M36.9936 14.5447C36.9936 14.9316 36.9846 15.3155 36.9966 15.7024C37.0055 15.9524 36.9162 16.0744 36.6573 16.0655C36.3538 16.0566 36.0503 16.0596 35.7468 16.0625C35.5295 16.0625 35.4254 15.9614 35.4254 15.7441C35.4284 14.9137 35.4284 14.0864 35.4284 13.256C35.4284 13.0715 35.5087 12.9703 35.6992 12.9733C36.0384 12.9733 36.3776 12.9762 36.7139 12.9733C36.9251 12.9733 36.9936 13.0893 36.9906 13.2858C36.9876 13.7024 36.9906 14.1221 36.9936 14.5447Z" fill="#E04E39"/>
<path d="M14.4559 20.5596C12.1259 20.5596 9.79593 20.5596 7.46596 20.5596C6.96307 20.5596 6.96009 20.5536 6.96009 20.0477C6.96009 18.9971 6.96009 18.9941 8.00754 18.9941C12.5157 18.9941 17.0239 18.9941 21.5321 18.9941C22.0171 18.9941 22.0231 19.003 22.0231 19.4822C22.0231 19.6935 22.0052 19.9048 22.0261 20.1131C22.0558 20.4465 21.9279 20.5655 21.5886 20.5625C20.3835 20.5477 19.1753 20.5596 17.9702 20.5596C16.8007 20.5596 15.6283 20.5596 14.4589 20.5596C14.4559 20.5625 14.4559 20.5596 14.4559 20.5596Z" fill="#E04E39"/>
<path d="M13.0157 29.5565C11.1797 29.5565 9.34068 29.5565 7.50467 29.5565C6.96607 29.5565 6.96607 29.5506 6.96012 29.0089C6.95119 27.9821 6.95119 27.9851 7.97186 27.9881C11.4832 27.991 14.9945 27.9881 18.5058 27.991C19.0058 27.991 19.0058 27.991 19.0058 28.497C19.0058 28.7083 18.9909 28.9196 19.0087 29.1279C19.0385 29.4434 18.9254 29.5654 18.5951 29.5625C16.7383 29.5476 14.8785 29.5535 13.0157 29.5565Z" fill="#E04E39"/>
<path d="M11.5008 14.494C12.8459 14.494 14.1909 14.494 15.5329 14.494C16.0299 14.494 16.0328 14.497 16.0358 15.0059C16.0358 15.2291 16.0299 15.4494 16.0388 15.6726C16.0537 15.9583 15.9227 16.0684 15.643 16.0654C14.661 16.0595 13.6791 16.0654 12.6971 16.0654C10.9444 16.0654 9.18873 16.0625 7.43604 16.0625C6.97183 16.0625 6.9629 16.0535 6.95993 15.5952C6.95993 15.3601 6.97183 15.1279 6.95398 14.8928C6.93017 14.5863 7.05813 14.4851 7.36165 14.4881C8.74237 14.5 10.1231 14.494 11.5008 14.494Z" fill="#E04E39"/>
<path d="M17.4796 25.0596C16.1792 25.0596 14.8788 25.0596 13.5814 25.0596C12.9536 25.0596 12.9536 25.0625 12.9476 24.4494C12.9446 24.25 12.9565 24.0506 12.9476 23.8512C12.9327 23.5804 13.0488 23.4822 13.3225 23.4851C14.3521 23.4941 15.3847 23.4881 16.4143 23.4881C18.1342 23.4881 19.8572 23.497 21.5771 23.4822C21.9372 23.4792 22.0651 23.5982 22.0294 23.9465C22.0086 24.1667 22.0086 24.3929 22.0294 24.6131C22.0622 24.9494 21.9312 25.0655 21.592 25.0596C20.2232 25.0447 18.8514 25.0536 17.4826 25.0536C17.4796 25.0566 17.4796 25.0596 17.4796 25.0596Z" fill="#E04E39"/>
<path d="M8.46023 25.0535C8.07339 25.0535 7.68953 25.0506 7.30269 25.0565C7.07356 25.0595 6.95155 24.9762 6.96048 24.7291C6.96941 24.4137 6.96941 24.0982 6.96346 23.7827C6.96048 23.5774 7.05273 23.4881 7.25805 23.4881C8.07637 23.491 8.89468 23.494 9.71003 23.4881C9.93915 23.4851 10.0195 23.5922 10.0135 23.8095C10.0046 24.1131 10.0046 24.4166 10.0135 24.7202C10.0225 24.9613 9.91832 25.0595 9.68324 25.0565C9.27855 25.0506 8.8679 25.0535 8.46023 25.0535Z" fill="#E04E39"/>
<path d="M1.00298 9.4554C1.26781 8.48219 1.79451 7.71731 2.72888 7.27386C3.13953 7.0804 3.56803 6.98219 4.01736 6.98219C9.40337 6.98219 14.7864 6.98219 20.1724 6.97624C20.4016 6.97624 20.5682 7.05064 20.7289 7.21136C23.0678 9.55659 25.4097 11.9018 27.7575 14.2381C27.939 14.4197 28.0015 14.6102 28.0015 14.8631C27.9955 21.2203 27.9985 27.5774 27.9955 33.9375C27.9955 35.3661 27.1832 36.4703 25.8173 36.9137C25.74 36.9375 25.6656 36.9703 25.5882 37C18.1876 37 10.7871 37 3.38651 37C3.08596 36.878 2.77649 36.7887 2.49082 36.628C1.69334 36.1756 1.25591 35.4614 1 34.6131C1.00298 26.2262 1.00298 17.8393 1.00298 9.4554ZM2.55034 22.0358C2.55034 26.003 2.54736 29.9733 2.55034 33.9405C2.55034 34.9465 3.05918 35.4494 4.06497 35.4494C11.0073 35.4524 17.9466 35.4524 24.8889 35.4494C25.9125 35.4494 26.4303 34.9375 26.4303 33.9197C26.4333 28.1608 26.4303 22.3989 26.4303 16.6399C26.4303 16.0596 26.4244 16.0596 25.853 16.0596C24.1093 16.0596 22.3655 16.0655 20.6218 16.0566C19.5267 16.0506 18.9702 15.4881 18.9673 14.4167C18.9643 12.637 18.9673 10.8572 18.9673 9.07743C18.9673 8.55659 18.9673 8.55362 18.4525 8.55064C15.6196 8.55064 12.7867 8.55064 9.95388 8.55064C7.97504 8.55064 5.9962 8.54767 4.02033 8.55362C3.2169 8.55659 2.64259 9.02981 2.56522 9.74112C2.54141 9.94945 2.55034 10.1608 2.55034 10.3721C2.55034 14.2619 2.55034 18.1489 2.55034 22.0358ZM20.5712 9.34826C20.5622 9.38993 20.5444 9.42267 20.5444 9.4554C20.5414 11.0328 20.5444 12.6131 20.5355 14.1905C20.5325 14.4852 20.7051 14.4971 20.9253 14.4971C22.434 14.4941 23.9426 14.4941 25.4513 14.4911C25.5376 14.4911 25.6388 14.5298 25.6894 14.4643C23.9813 12.762 22.2822 11.0625 20.5712 9.34826Z" stroke="#E04E39" stroke-width="0.5"/>
<path d="M20.2204 2.57143C17.8338 2.57143 15.4444 2.56845 13.0579 2.57143C12.0491 2.57143 11.5492 3.07738 11.5432 4.08333C11.5402 4.47024 11.5402 4.85714 11.5402 5.24107C11.5402 5.44048 11.4569 5.54167 11.2457 5.53869C10.9183 5.53274 10.591 5.53571 10.2637 5.53869C10.0792 5.54167 9.97801 5.47024 9.98098 5.27083C9.98693 4.70833 9.94527 4.14286 10.0048 3.58631C10.1565 2.16964 11.4599 1.0119 12.8912 1.00893C16.3787 1 19.8663 1.00595 23.3538 1.00298C25.2731 1.00298 27.1924 1.00595 29.1117 1C29.3766 1 29.573 1.0744 29.7634 1.26488C32.0845 3.59524 34.4115 5.92262 36.7414 8.24405C36.92 8.42262 37.0152 8.60714 36.9973 8.8631C36.9795 9.10714 36.9765 9.35714 36.9973 9.60119C37.0271 9.93452 36.9051 10.0506 36.5629 10.0476C35.2298 10.0327 33.8937 10.0417 32.5606 10.0417C31.5429 10.0417 30.5252 10.0446 29.5045 10.0387C28.5226 10.0327 27.9661 9.47024 27.9631 8.48214C27.9602 6.69048 27.9631 4.89881 27.9631 3.11012C27.9631 2.58333 27.9631 2.58036 27.4543 2.58036C25.044 2.57143 22.6337 2.5744 20.2204 2.57143ZM34.7299 8.47024C33.8907 7.61905 33.1051 6.82143 32.3195 6.02381C31.4983 5.19048 30.677 4.36012 29.8557 3.52976C29.7843 3.45833 29.7128 3.34821 29.5998 3.375C29.5016 3.39881 29.5343 3.51488 29.5343 3.58929C29.5313 5.11012 29.5343 6.62798 29.5283 8.14881C29.5283 8.39881 29.6444 8.47321 29.8735 8.47024C30.2812 8.46131 30.6918 8.47024 31.0995 8.47024C32.2898 8.47024 33.4801 8.47024 34.7299 8.47024Z" stroke="#E04E39" stroke-width="0.5"/>
<path d="M36.9938 23.8304C36.9938 25.2232 36.9968 26.6161 36.9938 28.0089C36.9879 29.6964 35.6399 31.0387 33.9526 31.0387C32.5957 31.0387 31.2388 31.0327 29.8819 31.0476C29.5456 31.0506 29.4385 30.9316 29.4415 30.5982C29.4415 29.4643 29.4296 29.4673 30.5633 29.4702C31.6405 29.4732 32.7147 29.4732 33.792 29.4702C34.9257 29.4702 35.4286 28.9732 35.4286 27.8482C35.4316 25.0863 35.4286 22.3244 35.4286 19.5625C35.4286 18.9941 35.4316 18.9941 35.9791 18.9941C36.9938 18.9911 36.9938 18.9911 36.9938 20.006C36.9938 21.2798 36.9938 22.5566 36.9938 23.8304Z" stroke="#E04E39" stroke-width="0.5"/>
<path d="M36.9936 14.5447C36.9936 14.9316 36.9846 15.3155 36.9966 15.7024C37.0055 15.9524 36.9162 16.0744 36.6573 16.0655C36.3538 16.0566 36.0503 16.0596 35.7468 16.0625C35.5295 16.0625 35.4254 15.9614 35.4254 15.7441C35.4284 14.9137 35.4284 14.0864 35.4284 13.256C35.4284 13.0715 35.5087 12.9703 35.6992 12.9733C36.0384 12.9733 36.3776 12.9762 36.7139 12.9733C36.9251 12.9733 36.9936 13.0893 36.9906 13.2858C36.9876 13.7024 36.9906 14.1221 36.9936 14.5447Z" stroke="#E04E39" stroke-width="0.5"/>
<path d="M14.4559 20.5596C12.1259 20.5596 9.79593 20.5596 7.46596 20.5596C6.96307 20.5596 6.96009 20.5536 6.96009 20.0477C6.96009 18.9971 6.96009 18.9941 8.00754 18.9941C12.5157 18.9941 17.0239 18.9941 21.5321 18.9941C22.0171 18.9941 22.0231 19.003 22.0231 19.4822C22.0231 19.6935 22.0052 19.9048 22.0261 20.1131C22.0558 20.4465 21.9279 20.5655 21.5886 20.5625C20.3835 20.5477 19.1753 20.5596 17.9702 20.5596C16.8007 20.5596 15.6283 20.5596 14.4589 20.5596C14.4559 20.5625 14.4559 20.5596 14.4559 20.5596Z" stroke="#E04E39" stroke-width="0.5"/>
<path d="M13.0157 29.5565C11.1797 29.5565 9.34068 29.5565 7.50467 29.5565C6.96607 29.5565 6.96607 29.5506 6.96012 29.0089C6.95119 27.9821 6.95119 27.9851 7.97186 27.9881C11.4832 27.991 14.9945 27.9881 18.5058 27.991C19.0058 27.991 19.0058 27.991 19.0058 28.497C19.0058 28.7083 18.9909 28.9196 19.0087 29.1279C19.0385 29.4434 18.9254 29.5654 18.5951 29.5625C16.7383 29.5476 14.8785 29.5535 13.0157 29.5565Z" stroke="#E04E39" stroke-width="0.5"/>
<path d="M11.5008 14.494C12.8459 14.494 14.1909 14.494 15.5329 14.494C16.0299 14.494 16.0328 14.497 16.0358 15.0059C16.0358 15.2291 16.0299 15.4494 16.0388 15.6726C16.0537 15.9583 15.9227 16.0684 15.643 16.0654C14.661 16.0595 13.6791 16.0654 12.6971 16.0654C10.9444 16.0654 9.18873 16.0625 7.43604 16.0625C6.97183 16.0625 6.9629 16.0535 6.95993 15.5952C6.95993 15.3601 6.97183 15.1279 6.95398 14.8928C6.93017 14.5863 7.05813 14.4851 7.36165 14.4881C8.74237 14.5 10.1231 14.494 11.5008 14.494Z" stroke="#E04E39" stroke-width="0.5"/>
<path d="M17.4796 25.0596C16.1792 25.0596 14.8788 25.0596 13.5814 25.0596C12.9536 25.0596 12.9536 25.0625 12.9476 24.4494C12.9446 24.25 12.9565 24.0506 12.9476 23.8512C12.9327 23.5804 13.0488 23.4822 13.3225 23.4851C14.3521 23.4941 15.3847 23.4881 16.4143 23.4881C18.1342 23.4881 19.8572 23.497 21.5771 23.4822C21.9372 23.4792 22.0651 23.5982 22.0294 23.9465C22.0086 24.1667 22.0086 24.3929 22.0294 24.6131C22.0622 24.9494 21.9312 25.0655 21.592 25.0596C20.2232 25.0447 18.8514 25.0536 17.4826 25.0536C17.4796 25.0566 17.4796 25.0596 17.4796 25.0596Z" stroke="#E04E39" stroke-width="0.5"/>
<path d="M8.46023 25.0535C8.07339 25.0535 7.68953 25.0506 7.30269 25.0565C7.07356 25.0595 6.95155 24.9762 6.96048 24.7291C6.96941 24.4137 6.96941 24.0982 6.96346 23.7827C6.96048 23.5774 7.05273 23.4881 7.25805 23.4881C8.07637 23.491 8.89468 23.494 9.71003 23.4881C9.93915 23.4851 10.0195 23.5922 10.0135 23.8095C10.0046 24.1131 10.0046 24.4166 10.0135 24.7202C10.0225 24.9613 9.91832 25.0595 9.68324 25.0565C9.27855 25.0506 8.8679 25.0535 8.46023 25.0535Z" stroke="#E04E39" stroke-width="0.5"/>
</svg>
