<svg width="37" height="37" viewBox="0 0 37 37" fill="none" xmlns="http://www.w3.org/2000/svg">
<path d="M36 9.75287C34.6243 9.76056 33.2447 9.76824 31.869 9.77209C30.8199 9.77593 29.7747 9.77593 28.7256 9.76824C27.7879 9.7644 27.2384 9.21494 27.2384 8.27741C27.2346 6.49072 27.2307 4.70403 27.2423 2.91733C27.2461 2.59842 27.1385 2.51004 26.8311 2.51004C20.7979 2.51773 14.7647 2.51389 8.7315 2.5062C8.43176 2.5062 8.33954 2.6061 8.33954 2.90196C8.34722 9.77593 8.34338 16.6537 8.34338 23.5277C8.34338 27.0127 8.34338 30.4939 8.34338 33.9789C8.34338 34.4669 8.34338 34.4746 8.83526 34.4746C15.5064 34.4746 22.1775 34.4746 28.8485 34.4746C30.5663 34.4746 32.2879 34.4746 34.0056 34.4746C34.4898 34.4746 34.4936 34.4707 34.4936 33.9751C34.4936 28.9877 34.4936 24.0042 34.4936 19.0168C34.4936 18.4789 34.4975 18.475 35.0431 18.4789C35.3621 18.4789 35.681 18.4904 35.9962 18.4942C35.9962 23.9811 35.9962 29.468 35.9962 34.9548C35.731 35.6695 35.2276 36.0038 34.4552 36C25.7589 35.9923 17.0627 35.9961 8.36259 35.9923C8.20504 35.9923 8.0398 35.9884 7.88993 35.95C7.17901 35.7848 6.81395 35.2469 6.81395 34.3785C6.81395 23.8043 6.81779 13.2302 6.80626 2.65605C6.80626 1.85684 7.09063 1.29202 7.84766 1C14.8147 1 21.7855 1 28.7525 1C31.1658 3.413 33.579 5.82599 35.9923 8.23899C36 8.75386 36 9.25337 36 9.75287ZM33.8634 8.24667C33.4714 7.8586 33.1525 7.55121 32.8412 7.23998C31.5923 5.98353 30.3434 4.72324 29.0945 3.46679C29.0176 3.38994 28.9408 3.25546 28.8217 3.30541C28.7141 3.34768 28.764 3.48984 28.764 3.5859C28.7602 5.0191 28.7679 6.44845 28.7563 7.88165C28.7563 8.16214 28.8562 8.2582 29.1368 8.25436C30.5125 8.24283 31.8882 8.25052 33.2639 8.25052C33.4292 8.24667 33.5944 8.24667 33.8634 8.24667Z" fill="#E04E39"/>
<path d="M36 15.6278C35.6157 15.6278 35.2314 15.624 34.8471 15.6278C34.6089 15.6317 34.4898 15.5395 34.4936 15.2897C34.5013 14.5097 34.5013 13.7259 34.4936 12.9459C34.4898 12.6884 34.6089 12.6116 34.8471 12.6154C35.2314 12.627 35.6157 12.6193 36 12.6193C36 13.626 36 14.6288 36 15.6278Z" fill="#E04E39"/>
<path d="M21.4132 28.7456C20.0797 28.7456 18.7501 28.7379 17.4167 28.7495C17.1092 28.7533 16.9747 28.6611 16.9978 28.3422C17.017 28.0924 17.0132 27.8427 16.9978 27.5929C16.9824 27.3086 17.1015 27.2164 17.3782 27.2202C18.5503 27.2317 19.7223 27.224 20.8944 27.224C21.3671 27.224 21.3709 27.2202 21.3709 26.7514C21.3709 24.6919 21.3709 22.6324 21.3709 20.5729C21.3709 20.0043 21.3671 20.0043 20.8137 20.0043C20.1643 20.0043 19.5148 20.0004 18.8692 20.0081C18.6002 20.0119 18.4657 19.9274 18.485 19.6354C18.5042 19.3395 18.4926 19.0437 18.4888 18.7478C18.485 18.5595 18.5733 18.4827 18.7578 18.4827C20.0451 18.4865 21.3286 18.4865 22.616 18.4827C22.9157 18.4827 22.8965 18.6748 22.8965 18.8746C22.8965 20.7189 22.8965 22.5633 22.8965 24.4076C22.8965 25.226 22.908 26.0483 22.8926 26.8667C22.8888 27.1549 22.9926 27.2394 23.2692 27.2317C23.9955 27.2164 24.7257 27.2356 25.4558 27.2202C25.7402 27.2164 25.8478 27.3201 25.8324 27.6006C25.817 27.8388 25.8132 28.0809 25.8362 28.3153C25.8631 28.638 25.7402 28.7571 25.4097 28.7533C24.18 28.7379 22.9503 28.7456 21.7206 28.7456C21.6207 28.7456 21.5169 28.7456 21.4132 28.7456Z" fill="#E04E39"/>
<path d="M17.0089 11.9353C17.0204 9.89503 18.6844 8.20824 20.7172 8.25819C22.8538 8.31198 24.3756 9.84508 24.3679 11.9392C24.3602 14.0947 22.7808 15.5855 20.6749 15.6163C18.6652 15.6509 16.9974 13.9372 17.0089 11.9353ZM20.6596 9.77976C19.5682 9.78744 18.5268 10.8364 18.5345 11.9161C18.5422 13.0727 19.5644 14.1139 20.6826 14.1024C21.8547 14.0909 22.8615 13.0803 22.8576 11.9161C22.8538 10.7941 21.8009 9.76823 20.6596 9.77976Z" fill="#E04E39"/>
<path d="M1.00384 18.4827C1.00384 15.136 1.00384 11.7931 1.00384 8.44646C1.00384 7.33986 1.52646 6.81346 2.62935 6.80962C3.42481 6.80962 4.22411 6.8173 5.01957 6.80577C5.31162 6.80193 5.43843 6.89799 5.41537 7.19769C5.39616 7.4705 5.40385 7.74331 5.41153 8.01611C5.41922 8.25434 5.31162 8.33887 5.08489 8.33503C4.36629 8.32735 3.65153 8.34656 2.93293 8.32735C2.62166 8.31966 2.51791 8.41956 2.51791 8.73463C2.52943 13.307 2.52559 17.8833 2.52559 22.4595C2.52559 24.3922 2.53328 26.3288 2.52175 28.2615C2.52175 28.5804 2.6255 28.6764 2.93293 28.6688C3.64 28.6495 4.34323 28.6688 5.05031 28.6611C5.31162 28.6572 5.4269 28.7456 5.41153 29.0184C5.39616 29.3027 5.4 29.5871 5.41153 29.8714C5.41922 30.1096 5.31546 30.1942 5.08489 30.1903C4.18568 30.1826 3.28646 30.2057 2.38725 30.1826C1.52646 30.1596 1.00384 29.5794 1 28.688C1.00384 25.2875 1.00384 21.8832 1.00384 18.4827Z" fill="#E04E39"/>
<path d="M36 9.75287C34.6243 9.76056 33.2447 9.76824 31.869 9.77209C30.8199 9.77593 29.7747 9.77593 28.7256 9.76824C27.7879 9.7644 27.2384 9.21494 27.2384 8.27741C27.2346 6.49072 27.2307 4.70403 27.2423 2.91733C27.2461 2.59842 27.1385 2.51004 26.8311 2.51004C20.7979 2.51773 14.7647 2.51389 8.7315 2.5062C8.43176 2.5062 8.33954 2.6061 8.33954 2.90196C8.34722 9.77593 8.34338 16.6537 8.34338 23.5277C8.34338 27.0127 8.34338 30.4939 8.34338 33.9789C8.34338 34.4669 8.34338 34.4746 8.83526 34.4746C15.5064 34.4746 22.1775 34.4746 28.8485 34.4746C30.5663 34.4746 32.2879 34.4746 34.0056 34.4746C34.4898 34.4746 34.4936 34.4707 34.4936 33.9751C34.4936 28.9877 34.4936 24.0042 34.4936 19.0168C34.4936 18.4789 34.4975 18.475 35.0431 18.4789C35.3621 18.4789 35.681 18.4904 35.9962 18.4942C35.9962 23.9811 35.9962 29.468 35.9962 34.9548C35.731 35.6695 35.2276 36.0038 34.4552 36C25.7589 35.9923 17.0627 35.9961 8.36259 35.9923C8.20504 35.9923 8.0398 35.9884 7.88993 35.95C7.17901 35.7848 6.81395 35.2469 6.81395 34.3785C6.81395 23.8043 6.81779 13.2302 6.80626 2.65605C6.80626 1.85684 7.09063 1.29202 7.84766 1C14.8147 1 21.7855 1 28.7525 1C31.1658 3.413 33.579 5.82599 35.9923 8.23899C36 8.75386 36 9.25337 36 9.75287ZM33.8634 8.24667C33.4714 7.8586 33.1525 7.55121 32.8412 7.23998C31.5923 5.98353 30.3434 4.72324 29.0945 3.46679C29.0176 3.38994 28.9408 3.25546 28.8217 3.30541C28.7141 3.34768 28.764 3.48984 28.764 3.5859C28.7602 5.0191 28.7679 6.44845 28.7563 7.88165C28.7563 8.16214 28.8562 8.2582 29.1368 8.25436C30.5125 8.24283 31.8882 8.25052 33.2639 8.25052C33.4292 8.24667 33.5944 8.24667 33.8634 8.24667Z" stroke="#E04E39" stroke-width="0.5"/>
<path d="M36 15.6278C35.6157 15.6278 35.2314 15.624 34.8471 15.6278C34.6089 15.6317 34.4898 15.5395 34.4936 15.2897C34.5013 14.5097 34.5013 13.7259 34.4936 12.9459C34.4898 12.6884 34.6089 12.6116 34.8471 12.6154C35.2314 12.627 35.6157 12.6193 36 12.6193C36 13.626 36 14.6288 36 15.6278Z" stroke="#E04E39" stroke-width="0.5"/>
<path d="M21.4132 28.7456C20.0797 28.7456 18.7501 28.7379 17.4167 28.7495C17.1092 28.7533 16.9747 28.6611 16.9978 28.3422C17.017 28.0924 17.0132 27.8427 16.9978 27.5929C16.9824 27.3086 17.1015 27.2164 17.3782 27.2202C18.5503 27.2317 19.7223 27.224 20.8944 27.224C21.3671 27.224 21.3709 27.2202 21.3709 26.7514C21.3709 24.6919 21.3709 22.6324 21.3709 20.5729C21.3709 20.0043 21.3671 20.0043 20.8137 20.0043C20.1643 20.0043 19.5148 20.0004 18.8692 20.0081C18.6002 20.0119 18.4657 19.9274 18.485 19.6354C18.5042 19.3395 18.4926 19.0437 18.4888 18.7478C18.485 18.5595 18.5733 18.4827 18.7578 18.4827C20.0451 18.4865 21.3286 18.4865 22.616 18.4827C22.9157 18.4827 22.8965 18.6748 22.8965 18.8746C22.8965 20.7189 22.8965 22.5633 22.8965 24.4076C22.8965 25.226 22.908 26.0483 22.8926 26.8667C22.8888 27.1549 22.9926 27.2394 23.2692 27.2317C23.9955 27.2164 24.7257 27.2356 25.4558 27.2202C25.7402 27.2164 25.8478 27.3201 25.8324 27.6006C25.817 27.8388 25.8132 28.0809 25.8362 28.3153C25.8631 28.638 25.7402 28.7571 25.4097 28.7533C24.18 28.7379 22.9503 28.7456 21.7206 28.7456C21.6207 28.7456 21.5169 28.7456 21.4132 28.7456Z" stroke="#E04E39" stroke-width="0.5"/>
<path d="M17.0089 11.9353C17.0204 9.89503 18.6844 8.20824 20.7172 8.25819C22.8538 8.31198 24.3756 9.84508 24.3679 11.9392C24.3602 14.0947 22.7808 15.5855 20.6749 15.6163C18.6652 15.6509 16.9974 13.9372 17.0089 11.9353ZM20.6596 9.77976C19.5682 9.78744 18.5268 10.8364 18.5345 11.9161C18.5422 13.0727 19.5644 14.1139 20.6826 14.1024C21.8547 14.0909 22.8615 13.0803 22.8576 11.9161C22.8538 10.7941 21.8009 9.76823 20.6596 9.77976Z" stroke="#E04E39" stroke-width="0.5"/>
<path d="M1.00384 18.4827C1.00384 15.136 1.00384 11.7931 1.00384 8.44646C1.00384 7.33986 1.52646 6.81346 2.62935 6.80962C3.42481 6.80962 4.22411 6.8173 5.01957 6.80577C5.31162 6.80193 5.43843 6.89799 5.41537 7.19769C5.39616 7.4705 5.40385 7.74331 5.41153 8.01611C5.41922 8.25434 5.31162 8.33887 5.08489 8.33503C4.36629 8.32735 3.65153 8.34656 2.93293 8.32735C2.62166 8.31966 2.51791 8.41956 2.51791 8.73463C2.52943 13.307 2.52559 17.8833 2.52559 22.4595C2.52559 24.3922 2.53328 26.3288 2.52175 28.2615C2.52175 28.5804 2.6255 28.6764 2.93293 28.6688C3.64 28.6495 4.34323 28.6688 5.05031 28.6611C5.31162 28.6572 5.4269 28.7456 5.41153 29.0184C5.39616 29.3027 5.4 29.5871 5.41153 29.8714C5.41922 30.1096 5.31546 30.1942 5.08489 30.1903C4.18568 30.1826 3.28646 30.2057 2.38725 30.1826C1.52646 30.1596 1.00384 29.5794 1 28.688C1.00384 25.2875 1.00384 21.8832 1.00384 18.4827Z" stroke="#E04E39" stroke-width="0.5"/>
</svg>
