<svg width="38" height="35" viewBox="0 0 38 35" fill="none" xmlns="http://www.w3.org/2000/svg">
<path d="M37.0013 5.4298C36.7627 6.39904 36.3234 7.24294 35.4823 7.83618C34.7667 8.33751 33.9758 8.58818 33.1054 8.53386C32.8083 8.51715 32.6493 8.60906 32.5237 8.89733C30.9964 12.3398 29.4564 15.7739 27.9123 19.208C27.7952 19.4712 27.7952 19.6174 28.063 19.8054C29.3351 20.7036 29.8498 22.3956 29.356 23.933C28.8706 25.4412 27.4478 26.494 25.8995 26.5023C23.6817 26.5107 22.0874 25.0192 21.9786 22.8134C21.9493 22.1993 22.0665 21.5977 22.4012 21.0671C22.5268 20.8666 22.51 20.7496 22.3134 20.6075C20.74 19.4503 19.1707 18.2847 17.6057 17.115C17.4299 16.9854 17.2835 16.9771 17.091 17.069C16.2332 17.4826 15.3376 17.6413 14.3919 17.4533C14.099 17.3949 13.8145 17.3113 13.5801 17.1358C13.3625 16.9729 13.2495 17.0314 13.0989 17.2194C11.7724 18.8863 10.4417 20.5449 9.11098 22.2076C8.80551 22.592 8.5084 22.9847 8.18619 23.3565C8.00207 23.5654 7.98951 23.7409 8.10668 23.9832C8.52933 24.8647 8.67997 25.7754 8.42053 26.7405C7.95185 28.4909 6.16503 29.7234 4.39495 29.4936C2.39891 29.2346 1.01799 27.739 1.00544 25.8255C0.9887 23.2353 3.25675 21.4515 5.78424 22.0698C6.02276 22.1282 6.26965 22.1993 6.45796 22.3538C6.67137 22.5251 6.78854 22.4666 6.93918 22.2745C7.78865 21.2008 8.64649 20.1355 9.50015 19.066C10.2659 18.1093 11.0275 17.14 11.8142 16.1958C12.0318 15.9368 12.036 15.7321 11.9021 15.4439C11.2535 14.0401 11.3414 12.6907 12.2787 11.4416C13.237 10.1632 14.9317 9.67021 16.5051 10.1883C17.9907 10.677 18.9992 12.0557 19.041 13.6307C19.0577 14.2866 18.9699 14.9175 18.6058 15.4773C18.4635 15.6987 18.5974 15.7906 18.7439 15.8992C19.9742 16.81 21.2086 17.7249 22.4389 18.6398C22.7695 18.8821 23.1042 19.1203 23.4265 19.3709C23.5938 19.5004 23.7445 19.5255 23.9412 19.4336C24.6191 19.1203 25.3221 18.903 26.0795 18.9615C26.3389 18.9824 26.4184 18.8153 26.5021 18.6273C27.3265 16.7807 28.1509 14.9342 28.9794 13.0876C29.6992 11.475 30.4147 9.86239 31.1386 8.25396C31.2349 8.03671 31.2265 7.91556 31.0215 7.7568C29.7494 6.77921 29.2388 5.48411 29.5945 3.92163C29.946 2.37169 30.9545 1.41081 32.5112 1.08495C34.524 0.662995 36.3987 1.84947 36.9343 3.8339C36.9594 3.92581 36.9887 4.01355 37.0138 4.10128C37.0013 4.53994 37.0013 4.98278 37.0013 5.4298ZM35.453 4.79061C35.453 3.59159 34.4612 2.57222 33.2895 2.56805C32.0634 2.56387 31.0466 3.5707 31.0466 4.79061C31.0466 5.98126 32.0676 6.97557 33.2895 6.96721C34.457 6.96303 35.453 5.96037 35.453 4.79061ZM2.57047 25.7086C2.57047 26.9118 3.56222 27.9353 4.72972 27.9353C5.97254 27.9353 6.98521 26.9201 6.97684 25.6793C6.97266 24.5179 5.94325 23.532 4.73391 23.5361C3.57059 23.5361 2.57047 24.543 2.57047 25.7086ZM25.7363 24.9315C26.929 24.9357 27.9709 23.9205 27.9835 22.7382C27.996 21.5893 26.9457 20.5365 25.7782 20.5282C24.5981 20.5198 23.5478 21.5475 23.5311 22.734C23.5143 23.8662 24.5772 24.9273 25.7363 24.9315ZM17.4592 13.7435C17.4676 12.5612 16.4675 11.5586 15.2707 11.546C14.1074 11.5335 13.057 12.5654 13.0529 13.7268C13.0445 14.9175 14.0446 15.941 15.2163 15.9494C16.4675 15.9535 17.4509 14.9843 17.4592 13.7435Z" fill="#E04E39"/>
<path d="M37.0003 33.9842C34.5523 33.9884 32.1044 33.9967 29.6606 33.9967C22.2831 33.9967 14.9057 33.9967 7.52828 33.9967C6.98429 33.9967 6.98429 33.9967 6.9801 33.4578C6.9801 33.2573 6.99266 33.0609 6.97592 32.8604C6.94663 32.522 7.09309 32.4176 7.42367 32.4176C9.30673 32.4301 11.194 32.4217 13.0812 32.4217C20.8813 32.4217 28.6772 32.4217 36.4773 32.4259C36.653 32.4259 36.8288 32.4343 37.0045 32.4385C37.0003 32.9523 37.0003 33.4704 37.0003 33.9842Z" fill="#E04E39"/>
<path d="M2.53198 33.9926C2.13444 33.9926 1.73691 33.9884 1.33937 33.9967C1.10922 34.0009 0.99205 33.9215 1.00042 33.6709C1.01297 33.3575 1.00879 33.04 1.00042 32.7267C0.996234 32.522 1.08411 32.4301 1.29334 32.4301C2.11352 32.4343 2.92951 32.4343 3.74969 32.4301C3.97984 32.4301 4.05935 32.5387 4.05517 32.7518C4.05098 33.0567 4.0468 33.3575 4.05517 33.6625C4.06354 33.9007 3.96311 34.0051 3.72458 33.9967C3.32705 33.9884 2.92951 33.9926 2.53198 33.9926Z" fill="#E04E39"/>
<path d="M37.0013 5.4298C36.7627 6.39904 36.3234 7.24294 35.4823 7.83618C34.7667 8.33751 33.9758 8.58818 33.1054 8.53386C32.8083 8.51715 32.6493 8.60906 32.5237 8.89733C30.9964 12.3398 29.4564 15.7739 27.9123 19.208C27.7952 19.4712 27.7952 19.6174 28.063 19.8054C29.3351 20.7036 29.8498 22.3956 29.356 23.933C28.8706 25.4412 27.4478 26.494 25.8995 26.5023C23.6817 26.5107 22.0874 25.0192 21.9786 22.8134C21.9493 22.1993 22.0665 21.5977 22.4012 21.0671C22.5268 20.8666 22.51 20.7496 22.3134 20.6075C20.74 19.4503 19.1707 18.2847 17.6057 17.115C17.4299 16.9854 17.2835 16.9771 17.091 17.069C16.2332 17.4826 15.3376 17.6413 14.3919 17.4533C14.099 17.3949 13.8145 17.3113 13.5801 17.1358C13.3625 16.9729 13.2495 17.0314 13.0989 17.2194C11.7724 18.8863 10.4417 20.5449 9.11098 22.2076C8.80551 22.592 8.5084 22.9847 8.18619 23.3565C8.00207 23.5654 7.98951 23.7409 8.10668 23.9832C8.52933 24.8647 8.67997 25.7754 8.42053 26.7405C7.95185 28.4909 6.16503 29.7234 4.39495 29.4936C2.39891 29.2346 1.01799 27.739 1.00544 25.8255C0.9887 23.2353 3.25675 21.4515 5.78424 22.0698C6.02276 22.1282 6.26965 22.1993 6.45796 22.3538C6.67137 22.5251 6.78854 22.4666 6.93918 22.2745C7.78865 21.2008 8.64649 20.1355 9.50015 19.066C10.2659 18.1093 11.0275 17.14 11.8142 16.1958C12.0318 15.9368 12.036 15.7321 11.9021 15.4439C11.2535 14.0401 11.3414 12.6907 12.2787 11.4416C13.237 10.1632 14.9317 9.67021 16.5051 10.1883C17.9907 10.677 18.9992 12.0557 19.041 13.6307C19.0577 14.2866 18.9699 14.9175 18.6058 15.4773C18.4635 15.6987 18.5974 15.7906 18.7439 15.8992C19.9742 16.81 21.2086 17.7249 22.4389 18.6398C22.7695 18.8821 23.1042 19.1203 23.4265 19.3709C23.5938 19.5004 23.7445 19.5255 23.9412 19.4336C24.6191 19.1203 25.3221 18.903 26.0795 18.9615C26.3389 18.9824 26.4184 18.8153 26.5021 18.6273C27.3265 16.7807 28.1509 14.9342 28.9794 13.0876C29.6992 11.475 30.4147 9.86239 31.1386 8.25396C31.2349 8.03671 31.2265 7.91556 31.0215 7.7568C29.7494 6.77921 29.2388 5.48411 29.5945 3.92163C29.946 2.37169 30.9545 1.41081 32.5112 1.08495C34.524 0.662995 36.3987 1.84947 36.9343 3.8339C36.9594 3.92581 36.9887 4.01355 37.0138 4.10128C37.0013 4.53994 37.0013 4.98278 37.0013 5.4298ZM35.453 4.79061C35.453 3.59159 34.4612 2.57222 33.2895 2.56805C32.0634 2.56387 31.0466 3.5707 31.0466 4.79061C31.0466 5.98126 32.0676 6.97557 33.2895 6.96721C34.457 6.96303 35.453 5.96037 35.453 4.79061ZM2.57047 25.7086C2.57047 26.9118 3.56222 27.9353 4.72972 27.9353C5.97254 27.9353 6.98521 26.9201 6.97684 25.6793C6.97266 24.5179 5.94325 23.532 4.73391 23.5361C3.57059 23.5361 2.57047 24.543 2.57047 25.7086ZM25.7363 24.9315C26.929 24.9357 27.9709 23.9205 27.9835 22.7382C27.996 21.5893 26.9457 20.5365 25.7782 20.5282C24.5981 20.5198 23.5478 21.5475 23.5311 22.734C23.5143 23.8662 24.5772 24.9273 25.7363 24.9315ZM17.4592 13.7435C17.4676 12.5612 16.4675 11.5586 15.2707 11.546C14.1074 11.5335 13.057 12.5654 13.0529 13.7268C13.0445 14.9175 14.0446 15.941 15.2163 15.9494C16.4675 15.9535 17.4509 14.9843 17.4592 13.7435Z" stroke="#E04E39" stroke-width="0.5"/>
<path d="M37.0003 33.9842C34.5523 33.9884 32.1044 33.9967 29.6606 33.9967C22.2831 33.9967 14.9057 33.9967 7.52828 33.9967C6.98429 33.9967 6.98429 33.9967 6.9801 33.4578C6.9801 33.2573 6.99266 33.0609 6.97592 32.8604C6.94663 32.522 7.09309 32.4176 7.42367 32.4176C9.30673 32.4301 11.194 32.4217 13.0812 32.4217C20.8813 32.4217 28.6772 32.4217 36.4773 32.4259C36.653 32.4259 36.8288 32.4343 37.0045 32.4385C37.0003 32.9523 37.0003 33.4704 37.0003 33.9842Z" stroke="#E04E39" stroke-width="0.5"/>
<path d="M2.53198 33.9926C2.13444 33.9926 1.73691 33.9884 1.33937 33.9967C1.10922 34.0009 0.99205 33.9215 1.00042 33.6709C1.01297 33.3575 1.00879 33.04 1.00042 32.7267C0.996234 32.522 1.08411 32.4301 1.29334 32.4301C2.11352 32.4343 2.92951 32.4343 3.74969 32.4301C3.97984 32.4301 4.05935 32.5387 4.05517 32.7518C4.05098 33.0567 4.0468 33.3575 4.05517 33.6625C4.06354 33.9007 3.96311 34.0051 3.72458 33.9967C3.32705 33.9884 2.92951 33.9926 2.53198 33.9926Z" stroke="#E04E39" stroke-width="0.5"/>
</svg>
