<svg width="37" height="37" viewBox="0 0 37 37" fill="none" xmlns="http://www.w3.org/2000/svg">
<path d="M35.9996 33.6567C35.7726 34.3788 35.4336 35.0244 34.7881 35.4636C34.2959 35.7996 33.7623 35.9971 33.161 35.9971C25.341 35.9971 17.521 36 9.698 35.9941C8.12987 35.9941 6.81818 34.6884 6.81523 33.1173C6.80639 27.2898 6.80639 21.4594 6.81228 15.632C6.81523 13.89 8.11218 12.6137 9.8896 12.6107C14.0457 12.6019 18.1989 12.6078 22.3551 12.6078C25.8274 12.6078 29.2997 12.6107 32.7719 12.6078C34.4256 12.6078 35.4366 13.3299 35.9554 14.9098C35.9672 14.9423 35.9819 14.9717 35.9966 15.0042C35.9966 15.2105 35.9966 15.4139 35.9966 15.6202C35.6105 15.6202 35.2214 15.6202 34.8353 15.6202C34.6437 15.6202 34.5228 15.5672 34.4786 15.3461C34.3135 14.5119 33.8537 14.1405 32.9694 14.1376C30.9651 14.1317 28.9636 14.1346 26.9592 14.1317C21.3824 14.1317 15.8055 14.1317 10.2256 14.1317C10.0222 14.1317 9.81296 14.1317 9.61252 14.1582C8.75476 14.2761 8.34504 14.7359 8.3421 15.6025C8.33325 17.1265 8.3362 18.6533 8.3362 20.1772C8.3362 24.354 8.3362 28.5308 8.3362 32.7105C8.3362 32.8579 8.33325 33.0053 8.3421 33.1556C8.38631 33.9544 8.90804 34.4643 9.70979 34.4673C11.4165 34.4732 13.1231 34.4732 14.8327 34.4732C20.6602 34.4732 26.4876 34.4732 32.3151 34.4732C32.5892 34.4732 32.8604 34.4732 33.1345 34.4673C33.9716 34.4466 34.4786 33.9573 34.4816 33.1232C34.4934 31.3575 34.4875 29.5949 34.4875 27.8292C34.4875 26.7828 34.4963 25.7335 34.4845 24.6871C34.4816 24.3746 34.5906 24.2567 34.9031 24.2744C35.2656 24.298 35.6311 24.2862 35.9937 24.2921C35.9996 27.4166 35.9996 30.5381 35.9996 33.6567Z" fill="#E04E39"/>
<path d="M27.8029 1C28.4986 1.1916 29.1146 1.50699 29.5656 2.09651C29.9576 2.6094 30.1964 3.18124 30.1993 3.82971C30.2082 5.68376 30.1993 7.54076 30.2082 9.39481C30.2082 9.67778 30.105 9.7839 29.825 9.76621C29.5656 9.75147 29.3003 9.75442 29.0409 9.76621C28.7815 9.778 28.6607 9.68368 28.6754 9.4125C28.6872 9.18553 28.6607 8.95562 28.6813 8.72865C28.7078 8.4221 28.6017 8.31009 28.2804 8.31304C26.391 8.32483 24.5016 8.31893 22.6122 8.31893C16.1009 8.31893 9.5896 8.31893 3.07831 8.31893C2.52121 8.31893 2.52711 8.31599 2.52711 8.88488C2.53005 13.0292 2.52711 17.1706 2.53005 21.315C2.53005 22.2228 2.82187 22.5854 3.7032 22.7976C3.86827 22.8359 3.97144 22.9037 3.96849 23.0924C3.96554 23.4225 3.96849 23.7527 3.97144 24.0828C3.97439 24.2862 3.88006 24.3599 3.67373 24.3451C2.25298 24.242 1.00908 22.9539 1.00908 21.5272C0.997292 15.6231 1.00024 9.71316 1.00613 3.80613C1.00613 2.61824 1.83147 1.52762 2.98988 1.12675C3.10779 1.08548 3.22569 1.04421 3.3436 1C11.4967 1 19.6498 1 27.8029 1ZM15.6086 6.79501C19.8208 6.79501 24.03 6.79501 28.2421 6.79501C28.6754 6.79501 28.6784 6.79501 28.6784 6.35582C28.6784 5.61597 28.6518 4.87612 28.6872 4.13626C28.7344 3.18418 28.2274 2.47676 27.0454 2.49149C24.1744 2.53276 21.3064 2.50623 18.4383 2.50623C13.6249 2.50623 8.80848 2.50328 3.99502 2.50623C3.00757 2.50623 2.53005 2.98964 2.52416 3.97709C2.51826 4.76116 2.52416 5.54817 2.52711 6.33224C2.52711 6.79207 2.53005 6.79501 2.97514 6.79501C7.18729 6.79501 11.3994 6.79501 15.6086 6.79501Z" fill="#E04E39"/>
<path d="M35.9995 21.427C35.6134 21.4299 35.2302 21.427 34.8441 21.4417C34.6024 21.4505 34.4903 21.3621 34.4933 21.1086C34.4992 20.3393 34.4992 19.567 34.4962 18.7977C34.4962 18.5766 34.5729 18.4617 34.8146 18.4705C35.2096 18.4852 35.6075 18.4852 36.0025 18.4911C35.9995 19.4697 35.9995 20.4483 35.9995 21.427Z" fill="#E04E39"/>
<path d="M27.9609 22.8802C27.2328 22.8802 26.5048 22.8831 25.7767 22.8802C24.9042 22.8772 24.3176 22.3054 24.3088 21.427C24.297 20.4602 24.297 19.4933 24.3088 18.5265C24.3206 17.5951 24.8511 17.0173 25.7855 16.9967C27.2535 16.9643 28.7214 16.9613 30.1893 16.9967C31.1443 17.0203 31.6454 17.6039 31.6454 18.5678C31.6454 19.4786 31.6484 20.3894 31.6454 21.3002C31.6425 22.3525 31.1207 22.8802 30.0773 22.8831C29.3698 22.8831 28.6654 22.8802 27.9609 22.8802ZM27.9815 21.3562C28.574 21.3533 29.1635 21.3444 29.756 21.3562C30.0154 21.3621 30.1244 21.2708 30.1215 21.0025C30.1097 20.2863 30.1097 19.57 30.1244 18.8537C30.1303 18.5766 30.0095 18.5059 29.756 18.5059C28.5622 18.5147 27.3684 18.5118 26.1717 18.5059C25.927 18.5029 25.8209 18.5825 25.8239 18.839C25.8356 19.567 25.8327 20.2951 25.8239 21.0232C25.8209 21.2737 25.9241 21.3651 26.1687 21.3621C26.7759 21.3503 27.3802 21.3562 27.9815 21.3562Z" fill="#E04E39"/>
<path d="M15.575 31.6257C14.2456 31.6257 12.9162 31.6198 11.5839 31.6316C11.295 31.6346 11.1624 31.552 11.183 31.2455C11.2007 30.9979 11.1978 30.7444 11.1801 30.4968C11.1594 30.202 11.2803 30.0929 11.5751 30.0959C12.4947 30.1077 13.4173 30.0988 14.337 30.0988C16.0643 30.0988 17.7916 30.1018 19.5218 30.1018C19.9817 30.1018 20.0082 30.1254 20.0111 30.5764C20.0141 30.8033 20.0052 31.0303 20.017 31.2573C20.0318 31.5373 19.908 31.6316 19.6338 31.6316C18.2809 31.6228 16.9279 31.6287 15.575 31.6257C15.575 31.6287 15.575 31.6287 15.575 31.6257Z" fill="#E04E39"/>
<path d="M28.6925 27.2544C27.8495 27.2544 27.0094 27.2397 26.1693 27.2603C25.8274 27.2691 25.7242 27.1336 25.7449 26.8211C25.7625 26.5706 25.7567 26.32 25.7508 26.0695C25.7478 25.8484 25.8333 25.7305 26.0691 25.7305C27.82 25.7334 29.5709 25.7334 31.3217 25.7305C31.5487 25.7305 31.6548 25.8189 31.646 26.0547C31.6342 26.3377 31.6312 26.6236 31.646 26.9066C31.6607 27.1807 31.5399 27.2603 31.2834 27.2574C30.4198 27.2485 29.5561 27.2544 28.6925 27.2544Z" fill="#E04E39"/>
<path d="M13.3967 27.2544C12.7925 27.2544 12.1911 27.2456 11.5869 27.2603C11.301 27.2662 11.1624 27.1807 11.1831 26.8742C11.2007 26.603 11.1948 26.3289 11.186 26.0547C11.1772 25.8189 11.2862 25.7305 11.5132 25.7305C12.7777 25.7334 14.0393 25.7334 15.3038 25.7305C15.5544 25.7305 15.6516 25.8454 15.6458 26.0842C15.6369 26.3672 15.6369 26.6531 15.6428 26.939C15.6487 27.1748 15.5426 27.2603 15.3097 27.2544C14.6701 27.2485 14.0334 27.2544 13.3967 27.2544Z" fill="#E04E39"/>
<path d="M20.6894 27.2544C20.0763 27.2544 19.4632 27.2456 18.8501 27.2574C18.5907 27.2633 18.4728 27.1807 18.4876 26.9066C18.5023 26.6118 18.4964 26.3171 18.4876 26.0194C18.4817 25.8189 18.576 25.7275 18.7735 25.7275C20.0586 25.7275 21.3408 25.7275 22.626 25.7275C22.8294 25.7275 22.9031 25.8337 22.9001 26.0282C22.8942 26.323 22.8913 26.6207 22.9031 26.9154C22.9149 27.163 22.8147 27.2603 22.5641 27.2574C21.9392 27.2485 21.3143 27.2544 20.6894 27.2544Z" fill="#E04E39"/>
<path d="M24.3619 30.1048C24.748 30.1048 25.1342 30.1077 25.5203 30.1048C25.7296 30.1018 25.8357 30.1903 25.8298 30.4084C25.821 30.7149 25.8239 31.0215 25.8298 31.328C25.8327 31.5196 25.7649 31.6257 25.5527 31.6257C24.7451 31.6228 23.9404 31.6228 23.1327 31.6257C22.9205 31.6257 22.8586 31.5167 22.8615 31.328C22.8674 31.0215 22.8704 30.7149 22.8615 30.4084C22.8556 30.1844 22.9618 30.1048 23.171 30.1048C23.569 30.1077 23.9669 30.1048 24.3619 30.1048Z" fill="#E04E39"/>
<path d="M15.575 31.6257C14.2456 31.6257 12.9162 31.6198 11.5839 31.6316C11.295 31.6346 11.1624 31.552 11.183 31.2455C11.2007 30.9979 11.1978 30.7444 11.1801 30.4968C11.1594 30.202 11.2803 30.0929 11.5751 30.0959C12.4947 30.1077 13.4173 30.0988 14.337 30.0988C16.0643 30.0988 17.7916 30.1018 19.5218 30.1018C19.9817 30.1018 20.0082 30.1254 20.0111 30.5764C20.0141 30.8033 20.0052 31.0303 20.017 31.2573C20.0318 31.5373 19.908 31.6316 19.6338 31.6316C18.2809 31.6228 16.9279 31.6287 15.575 31.6257ZM15.575 31.6257C15.575 31.6287 15.575 31.6287 15.575 31.6257ZM35.9996 33.6567C35.7726 34.3789 35.4336 35.0244 34.7881 35.4636C34.2959 35.7996 33.7623 35.9971 33.161 35.9971C25.341 35.9971 17.521 36 9.698 35.9941C8.12987 35.9941 6.81818 34.6884 6.81523 33.1173C6.80639 27.2898 6.80639 21.4594 6.81228 15.632C6.81523 13.89 8.11218 12.6137 9.8896 12.6107C14.0457 12.6019 18.1989 12.6078 22.3551 12.6078C25.8274 12.6078 29.2996 12.6107 32.7719 12.6078C34.4256 12.6078 35.4366 13.3299 35.9554 14.9098C35.9672 14.9423 35.9819 14.9717 35.9966 15.0042C35.9966 15.2105 35.9966 15.4139 35.9966 15.6202C35.6105 15.6202 35.2214 15.6202 34.8353 15.6202C34.6437 15.6202 34.5228 15.5672 34.4786 15.3461C34.3135 14.5119 33.8537 14.1405 32.9694 14.1376C30.9651 14.1317 28.9636 14.1346 26.9592 14.1317C21.3824 14.1317 15.8055 14.1317 10.2256 14.1317C10.0222 14.1317 9.81296 14.1317 9.61252 14.1582C8.75476 14.2761 8.34504 14.7359 8.3421 15.6025C8.33325 17.1265 8.3362 18.6533 8.3362 20.1772C8.3362 24.354 8.3362 28.5308 8.3362 32.7105C8.3362 32.8579 8.33325 33.0053 8.3421 33.1556C8.38631 33.9544 8.90804 34.4643 9.70979 34.4673C11.4165 34.4732 13.1231 34.4732 14.8327 34.4732C20.6602 34.4732 26.4876 34.4732 32.3151 34.4732C32.5892 34.4732 32.8604 34.4732 33.1345 34.4673C33.9716 34.4466 34.4786 33.9573 34.4816 33.1232C34.4934 31.3575 34.4875 29.5949 34.4875 27.8292C34.4875 26.7828 34.4963 25.7335 34.4845 24.6871C34.4816 24.3746 34.5906 24.2567 34.9031 24.2744C35.2656 24.298 35.6311 24.2862 35.9937 24.2921C35.9996 27.4166 35.9996 30.5381 35.9996 33.6567ZM27.8029 1C28.4986 1.1916 29.1146 1.50699 29.5656 2.09651C29.9576 2.6094 30.1964 3.18124 30.1993 3.82971C30.2082 5.68376 30.1993 7.54076 30.2082 9.39481C30.2082 9.67778 30.105 9.7839 29.825 9.76621C29.5656 9.75147 29.3003 9.75442 29.0409 9.76621C28.7815 9.778 28.6607 9.68368 28.6754 9.4125C28.6872 9.18553 28.6607 8.95562 28.6813 8.72865C28.7078 8.4221 28.6017 8.31009 28.2804 8.31304C26.391 8.32483 24.5016 8.31893 22.6122 8.31893C16.1009 8.31893 9.5896 8.31893 3.07831 8.31893C2.52121 8.31893 2.52711 8.31599 2.52711 8.88488C2.53005 13.0292 2.52711 17.1706 2.53005 21.315C2.53005 22.2228 2.82187 22.5854 3.7032 22.7976C3.86827 22.8359 3.97144 22.9037 3.96849 23.0924C3.96554 23.4225 3.96849 23.7527 3.97144 24.0828C3.97439 24.2862 3.88006 24.3599 3.67373 24.3451C2.25298 24.242 1.00908 22.9539 1.00908 21.5272C0.997292 15.6231 1.00024 9.71316 1.00613 3.80613C1.00613 2.61824 1.83147 1.52762 2.98988 1.12675C3.10779 1.08548 3.22569 1.04421 3.3436 1C11.4967 1 19.6498 1 27.8029 1ZM15.6086 6.79501C19.8208 6.79501 24.03 6.79501 28.2421 6.79501C28.6754 6.79501 28.6784 6.79501 28.6784 6.35582C28.6784 5.61597 28.6518 4.87612 28.6872 4.13626C28.7344 3.18418 28.2274 2.47676 27.0454 2.49149C24.1744 2.53276 21.3064 2.50623 18.4383 2.50623C13.6249 2.50623 8.80848 2.50328 3.99502 2.50623C3.00757 2.50623 2.53005 2.98964 2.52416 3.97709C2.51826 4.76116 2.52416 5.54817 2.52711 6.33224C2.52711 6.79207 2.53005 6.79501 2.97514 6.79501C7.18729 6.79501 11.3994 6.79501 15.6086 6.79501ZM35.9995 21.427C35.6134 21.4299 35.2302 21.427 34.8441 21.4417C34.6024 21.4505 34.4903 21.3621 34.4933 21.1086C34.4992 20.3393 34.4992 19.567 34.4962 18.7977C34.4962 18.5766 34.5729 18.4617 34.8146 18.4705C35.2096 18.4852 35.6075 18.4852 36.0025 18.4911C35.9995 19.4697 35.9995 20.4483 35.9995 21.427ZM27.9609 22.8802C27.2328 22.8802 26.5048 22.8831 25.7767 22.8802C24.9042 22.8772 24.3176 22.3054 24.3088 21.427C24.297 20.4602 24.297 19.4933 24.3088 18.5265C24.3206 17.5951 24.8511 17.0173 25.7855 16.9967C27.2535 16.9643 28.7214 16.9613 30.1893 16.9967C31.1443 17.0203 31.6454 17.6039 31.6454 18.5678C31.6454 19.4786 31.6484 20.3894 31.6454 21.3002C31.6425 22.3525 31.1207 22.8802 30.0773 22.8831C29.3698 22.8831 28.6654 22.8802 27.9609 22.8802ZM27.9815 21.3562C28.574 21.3533 29.1635 21.3444 29.756 21.3562C30.0154 21.3621 30.1244 21.2708 30.1215 21.0025C30.1097 20.2863 30.1097 19.57 30.1244 18.8537C30.1303 18.5766 30.0095 18.5059 29.756 18.5059C28.5622 18.5147 27.3684 18.5118 26.1717 18.5059C25.927 18.5029 25.8209 18.5825 25.8239 18.839C25.8356 19.567 25.8327 20.2951 25.8239 21.0232C25.8209 21.2737 25.9241 21.3651 26.1687 21.3621C26.7759 21.3503 27.3802 21.3562 27.9815 21.3562ZM28.6925 27.2544C27.8495 27.2544 27.0094 27.2397 26.1693 27.2603C25.8274 27.2691 25.7242 27.1336 25.7449 26.8211C25.7625 26.5706 25.7567 26.32 25.7508 26.0695C25.7478 25.8484 25.8333 25.7305 26.0691 25.7305C27.82 25.7334 29.5709 25.7334 31.3217 25.7305C31.5487 25.7305 31.6548 25.8189 31.646 26.0547C31.6342 26.3377 31.6312 26.6236 31.646 26.9066C31.6607 27.1807 31.5399 27.2603 31.2834 27.2574C30.4198 27.2485 29.5561 27.2544 28.6925 27.2544ZM13.3967 27.2544C12.7925 27.2544 12.1911 27.2456 11.5869 27.2603C11.301 27.2662 11.1624 27.1807 11.1831 26.8742C11.2007 26.603 11.1948 26.3289 11.186 26.0547C11.1772 25.8189 11.2862 25.7305 11.5132 25.7305C12.7777 25.7334 14.0393 25.7334 15.3038 25.7305C15.5544 25.7305 15.6516 25.8454 15.6458 26.0842C15.6369 26.3672 15.6369 26.6531 15.6428 26.939C15.6487 27.1748 15.5426 27.2603 15.3097 27.2544C14.6701 27.2485 14.0334 27.2544 13.3967 27.2544ZM20.6894 27.2544C20.0763 27.2544 19.4632 27.2456 18.8501 27.2574C18.5907 27.2633 18.4728 27.1807 18.4876 26.9066C18.5023 26.6118 18.4964 26.3171 18.4876 26.0194C18.4817 25.8189 18.576 25.7275 18.7735 25.7275C20.0586 25.7275 21.3408 25.7275 22.626 25.7275C22.8294 25.7275 22.9031 25.8337 22.9001 26.0282C22.8942 26.323 22.8913 26.6207 22.9031 26.9154C22.9149 27.163 22.8147 27.2603 22.5641 27.2574C21.9392 27.2485 21.3143 27.2544 20.6894 27.2544ZM24.3619 30.1048C24.748 30.1048 25.1342 30.1077 25.5203 30.1048C25.7296 30.1018 25.8357 30.1903 25.8298 30.4084C25.821 30.7149 25.8239 31.0215 25.8298 31.328C25.8327 31.5196 25.7649 31.6257 25.5527 31.6257C24.7451 31.6228 23.9404 31.6228 23.1327 31.6257C22.9205 31.6257 22.8586 31.5167 22.8615 31.328C22.8674 31.0215 22.8704 30.7149 22.8615 30.4084C22.8556 30.1844 22.9618 30.1048 23.171 30.1048C23.569 30.1077 23.9669 30.1048 24.3619 30.1048Z" stroke="#E04E39" stroke-width="0.5"/>
</svg>
