<svg width="38" height="41" viewBox="0 0 38 41" fill="none" xmlns="http://www.w3.org/2000/svg">
<path d="M19.6168 1C20.4578 1.23045 21.1824 1.62045 21.6924 2.34727C22.1129 2.94114 22.3186 3.58818 22.3186 4.30614C22.3186 4.71386 22.3276 5.12159 22.3186 5.52045C22.3097 5.76864 22.417 5.84841 22.6586 5.85727C24.8862 5.92818 26.8634 6.69045 28.5632 8.10864C30.6029 9.80159 31.8196 11.9732 32.0701 14.6145C32.258 16.5468 32.1685 18.4968 32.1238 20.4291C32.097 21.5814 32.3474 22.5918 32.8842 23.62C34.253 26.2082 35.5323 28.8318 36.8474 31.4377C37.0711 31.8898 37.0622 31.9075 36.5433 31.9075C26.926 31.9075 17.3087 31.9075 7.69139 31.9075C5.589 31.9075 3.49556 31.9075 1.39318 31.9075C0.927967 31.9075 0.901128 31.872 1.10689 31.4732C2.60988 28.5039 4.10391 25.5257 5.60689 22.5564C5.75898 22.255 5.83055 21.9448 5.83055 21.608C5.82161 19.587 5.78582 17.575 5.8395 15.5541C5.92896 11.9377 7.56614 9.17227 10.6347 7.24886C12.0482 6.3625 13.6139 5.91045 15.2868 5.85727C15.5641 5.84841 15.6805 5.76864 15.6715 5.485C15.6536 5.04182 15.6626 4.59864 15.6715 4.15545C15.7073 2.78159 16.6198 1.57614 17.9349 1.15068C18.0781 1.10636 18.2302 1.05318 18.3733 1.00886C18.7938 1 19.2053 1 19.6168 1ZM18.9727 30.2145C23.9379 30.2145 28.9121 30.2145 33.8773 30.2145C34.3514 30.2145 34.3514 30.2145 34.1367 29.7891C32.9737 27.4757 31.8017 25.1623 30.6298 22.8489C30.4956 22.583 30.424 22.3082 30.424 22.0157C30.4329 19.8973 30.424 17.7789 30.4329 15.6605C30.4329 15.173 30.3971 14.6943 30.3077 14.2245C29.592 10.2536 26.3176 7.55023 22.2471 7.55909C20.9409 7.55909 19.6347 7.54136 18.3286 7.55909C17.0224 7.57682 15.7162 7.45273 14.419 7.64773C10.5005 8.23273 7.68244 11.4502 7.57508 15.297C7.51246 17.38 7.56614 19.4541 7.56614 21.537C7.56614 22.0777 7.57508 22.0777 8.12081 22.0777C11.9498 22.0777 15.7789 22.0777 19.6079 22.0777C20.6904 22.0777 20.6904 22.0777 20.6904 23.1325C20.6904 23.7795 20.6904 23.7795 20.0373 23.7795C15.8236 23.7795 11.6099 23.7884 7.39616 23.7707C7.02041 23.7707 6.82359 23.8859 6.66256 24.2227C5.74109 26.0752 4.80172 27.9277 3.87131 29.7714C3.64765 30.2145 3.6566 30.2145 4.1397 30.2145C9.08701 30.2145 14.0254 30.2145 18.9727 30.2145ZM18.9816 5.84841C19.4021 5.84841 19.8226 5.83955 20.252 5.84841C20.4936 5.85727 20.6099 5.76864 20.6009 5.52045C20.592 5.04182 20.6099 4.55432 20.592 4.07568C20.5473 3.23364 19.921 2.68409 19.0353 2.67523C18.1139 2.66636 17.4697 3.18932 17.416 4.04909C17.3803 4.54545 17.4071 5.04182 17.3981 5.53818C17.3981 5.75977 17.4876 5.85727 17.7202 5.85727C18.1407 5.84841 18.5612 5.84841 18.9816 5.84841Z" fill="#E04E39"/>
<path d="M19 40C16.4503 40 14.4642 38.2982 14.0884 35.8075C14.0795 35.7543 14.0795 35.71 14.0705 35.6568C14.0258 35.1161 14.0526 35.0895 14.5894 35.0895C14.8489 35.0895 15.0994 35.1073 15.3588 35.0895C15.6451 35.0718 15.7614 35.1693 15.7972 35.4707C16.0119 37.4207 17.9353 38.7236 19.8409 38.2184C21.1202 37.8727 22.0685 36.7914 22.2206 35.4707C22.2475 35.2048 22.328 35.0807 22.6143 35.0895C22.9363 35.1073 23.2584 35.1073 23.5715 35.0895C23.8578 35.0807 23.9652 35.1959 23.9383 35.4707C23.831 36.9332 23.2137 38.1298 22.0417 39.0161C21.1471 39.6898 20.1272 40.0266 19 40Z" fill="#E04E39"/>
<path d="M25.5665 22.0777C26.0139 22.0777 26.4612 22.0777 26.9085 22.0777C27.1321 22.0777 27.2395 22.1664 27.2306 22.3968C27.2216 22.7514 27.2306 23.1059 27.2306 23.4605C27.2306 23.682 27.1232 23.7795 26.8995 23.7795C26.0049 23.7795 25.1103 23.7707 24.2156 23.7795C23.992 23.7795 23.8846 23.6909 23.8936 23.4605C23.9025 23.1059 23.9025 22.7514 23.8936 22.3968C23.8936 22.1664 23.992 22.0777 24.2156 22.0777C24.6719 22.0777 25.1192 22.0777 25.5665 22.0777Z" fill="#E04E39"/>
<path d="M19.6168 1C20.4578 1.23045 21.1824 1.62045 21.6924 2.34727C22.1129 2.94114 22.3186 3.58818 22.3186 4.30614C22.3186 4.71386 22.3276 5.12159 22.3186 5.52045C22.3097 5.76864 22.417 5.84841 22.6586 5.85727C24.8862 5.92818 26.8634 6.69045 28.5632 8.10864C30.6029 9.80159 31.8196 11.9732 32.0701 14.6145C32.258 16.5468 32.1685 18.4968 32.1238 20.4291C32.097 21.5814 32.3474 22.5918 32.8842 23.62C34.253 26.2082 35.5323 28.8318 36.8474 31.4377C37.0711 31.8898 37.0622 31.9075 36.5433 31.9075C26.926 31.9075 17.3087 31.9075 7.69139 31.9075C5.589 31.9075 3.49556 31.9075 1.39318 31.9075C0.927967 31.9075 0.901128 31.872 1.10689 31.4732C2.60988 28.5039 4.10391 25.5257 5.60689 22.5564C5.75898 22.255 5.83055 21.9448 5.83055 21.608C5.82161 19.587 5.78582 17.575 5.8395 15.5541C5.92896 11.9377 7.56614 9.17227 10.6347 7.24886C12.0482 6.3625 13.6139 5.91045 15.2868 5.85727C15.5641 5.84841 15.6805 5.76864 15.6715 5.485C15.6536 5.04182 15.6626 4.59864 15.6715 4.15545C15.7073 2.78159 16.6198 1.57614 17.9349 1.15068C18.0781 1.10636 18.2302 1.05318 18.3733 1.00886C18.7938 1 19.2053 1 19.6168 1ZM18.9727 30.2145C23.9379 30.2145 28.9121 30.2145 33.8773 30.2145C34.3514 30.2145 34.3514 30.2145 34.1367 29.7891C32.9737 27.4757 31.8017 25.1623 30.6298 22.8489C30.4956 22.583 30.424 22.3082 30.424 22.0157C30.4329 19.8973 30.424 17.7789 30.4329 15.6605C30.4329 15.173 30.3971 14.6943 30.3077 14.2245C29.592 10.2536 26.3176 7.55023 22.2471 7.55909C20.9409 7.55909 19.6347 7.54136 18.3286 7.55909C17.0224 7.57682 15.7162 7.45273 14.419 7.64773C10.5005 8.23273 7.68244 11.4502 7.57508 15.297C7.51246 17.38 7.56614 19.4541 7.56614 21.537C7.56614 22.0777 7.57508 22.0777 8.12081 22.0777C11.9498 22.0777 15.7789 22.0777 19.6079 22.0777C20.6904 22.0777 20.6904 22.0777 20.6904 23.1325C20.6904 23.7795 20.6904 23.7795 20.0373 23.7795C15.8236 23.7795 11.6099 23.7884 7.39616 23.7707C7.02041 23.7707 6.82359 23.8859 6.66256 24.2227C5.74109 26.0752 4.80172 27.9277 3.87131 29.7714C3.64765 30.2145 3.6566 30.2145 4.1397 30.2145C9.08701 30.2145 14.0254 30.2145 18.9727 30.2145ZM18.9816 5.84841C19.4021 5.84841 19.8226 5.83955 20.252 5.84841C20.4936 5.85727 20.6099 5.76864 20.6009 5.52045C20.592 5.04182 20.6099 4.55432 20.592 4.07568C20.5473 3.23364 19.921 2.68409 19.0353 2.67523C18.1139 2.66636 17.4697 3.18932 17.416 4.04909C17.3803 4.54545 17.4071 5.04182 17.3981 5.53818C17.3981 5.75977 17.4876 5.85727 17.7202 5.85727C18.1407 5.84841 18.5612 5.84841 18.9816 5.84841Z" stroke="#E04E39" stroke-width="0.5"/>
<path d="M19 40C16.4503 40 14.4642 38.2982 14.0884 35.8075C14.0795 35.7543 14.0795 35.71 14.0705 35.6568C14.0258 35.1161 14.0526 35.0895 14.5894 35.0895C14.8489 35.0895 15.0994 35.1073 15.3588 35.0895C15.6451 35.0718 15.7614 35.1693 15.7972 35.4707C16.0119 37.4207 17.9353 38.7236 19.8409 38.2184C21.1202 37.8727 22.0685 36.7914 22.2206 35.4707C22.2475 35.2048 22.328 35.0807 22.6143 35.0895C22.9363 35.1073 23.2584 35.1073 23.5715 35.0895C23.8578 35.0807 23.9652 35.1959 23.9383 35.4707C23.831 36.9332 23.2137 38.1298 22.0417 39.0161C21.1471 39.6898 20.1272 40.0266 19 40Z" stroke="#E04E39" stroke-width="0.5"/>
<path d="M25.5665 22.0777C26.0139 22.0777 26.4612 22.0777 26.9085 22.0777C27.1321 22.0777 27.2395 22.1664 27.2306 22.3968C27.2216 22.7514 27.2306 23.1059 27.2306 23.4605C27.2306 23.682 27.1232 23.7795 26.8995 23.7795C26.0049 23.7795 25.1103 23.7707 24.2156 23.7795C23.992 23.7795 23.8846 23.6909 23.8936 23.4605C23.9025 23.1059 23.9025 22.7514 23.8936 22.3968C23.8936 22.1664 23.992 22.0777 24.2156 22.0777C24.6719 22.0777 25.1192 22.0777 25.5665 22.0777Z" stroke="#E04E39" stroke-width="0.5"/>
</svg>
