<svg width="38" height="38" viewBox="0 0 38 38" fill="none" xmlns="http://www.w3.org/2000/svg">
<path d="M3.40774 37.0001C2.47392 36.7175 1.71677 36.2128 1.28267 35.2993C1.10095 34.9106 1 34.5119 1 34.0779C1 26.0482 1 18.0184 1.00505 9.98368C1.00505 8.33332 2.34268 6.99587 4.00337 6.98578C6.66349 6.97064 9.31856 6.98073 11.9787 6.98073C14.6943 6.98073 17.41 6.98578 20.1307 6.97568C20.3932 6.97568 20.5951 7.04634 20.7818 7.23813C23.1038 9.56982 25.4307 11.8965 27.7628 14.2181C27.9495 14.4048 28.0353 14.6016 28.0353 14.8691C28.0303 21.1678 28.005 27.4664 28.0454 33.765C28.0555 35.3649 27.046 36.6317 25.7134 36.9547C25.6781 36.9648 25.6528 36.9849 25.6175 37.0001C18.2126 37.0001 10.8127 37.0001 3.40774 37.0001ZM2.56478 22.0358C2.56478 25.9927 2.56478 29.9495 2.56478 33.9063C2.56478 34.9561 3.0645 35.4507 4.11946 35.4507C4.78575 35.4507 5.45205 35.4507 6.12339 35.4507C12.3976 35.4507 18.6769 35.4507 24.9512 35.4507C25.9305 35.4507 26.4554 34.9258 26.4554 33.9568C26.4554 28.1628 26.4554 22.3689 26.4554 16.575C26.4554 16.0703 26.4504 16.0653 25.9456 16.0653C24.1991 16.0653 22.4577 16.0703 20.7112 16.0653C19.525 16.0602 18.9899 15.5252 18.9899 14.3493C18.9899 12.5829 18.9899 10.8114 18.9899 9.04494C18.9899 8.56043 18.9899 8.55538 18.5104 8.55538C15.5575 8.55538 12.6096 8.55538 9.65676 8.55538C7.78407 8.55538 5.91139 8.55034 4.0387 8.56043C3.12002 8.56548 2.58497 9.11055 2.56983 10.0291C2.56983 10.1603 2.56983 10.2865 2.56983 10.4177C2.56478 14.2887 2.56478 18.1598 2.56478 22.0358ZM20.59 9.34776C20.5799 9.38813 20.5648 9.42346 20.5648 9.45374C20.5597 11.0334 20.5648 12.6131 20.5547 14.1878C20.5547 14.4856 20.7263 14.4957 20.9434 14.4906C22.4526 14.4856 23.9619 14.4906 25.4711 14.4856C25.5569 14.4856 25.6579 14.5259 25.7084 14.4603C24.0022 12.7595 22.3012 11.0637 20.59 9.34776Z" fill="#E04E39"/>
<path d="M37.0005 10.0189C36.1474 10.024 35.2893 10.0341 34.4363 10.0391C32.7958 10.0442 31.1603 10.0442 29.5198 10.0391C28.5557 10.0341 27.9904 9.46881 27.9904 8.50988C27.9853 6.68288 27.9803 4.85588 27.9954 3.02888C28.0005 2.67559 27.8995 2.56961 27.5411 2.56961C22.7156 2.5797 17.895 2.57465 13.0695 2.57465C12.065 2.57465 11.5703 3.0844 11.5653 4.09379C11.5653 4.45717 11.5602 4.82055 11.5653 5.18393C11.5703 5.42619 11.4895 5.55741 11.222 5.54227C10.9091 5.52713 10.5911 5.53722 10.2731 5.53722C10.0812 5.53722 9.99543 5.45142 10.0005 5.25964C10.0055 4.70952 9.97019 4.15435 10.0207 3.60928C10.157 2.20118 11.4643 1.01009 12.8877 1.01009C18.3291 1 23.7756 1.00505 29.217 1C29.4694 1 29.6309 1.11103 29.7924 1.27254C32.0184 3.50329 34.2444 5.729 36.4705 7.95472C36.6421 8.12631 36.8238 8.29791 36.9954 8.46951C37.0005 8.9843 37.0005 9.50413 37.0005 10.0189ZM34.7593 8.46951C34.1435 7.84368 33.5933 7.27842 33.033 6.71316C31.9881 5.65835 30.9433 4.60353 29.8984 3.54872C29.8227 3.47301 29.7419 3.3317 29.6157 3.38217C29.5047 3.42759 29.5552 3.5689 29.5552 3.66984C29.5501 5.14356 29.5602 6.61727 29.5501 8.08594C29.5501 8.37866 29.6561 8.46951 29.9438 8.46951C30.8676 8.45941 31.7913 8.46446 32.715 8.46446C33.3763 8.46951 34.0375 8.46951 34.7593 8.46951Z" fill="#E04E39"/>
<path d="M36.9999 28.5666C36.7324 29.5709 36.1822 30.3431 35.208 30.7721C34.8496 30.9286 34.4811 31.0345 34.0874 31.0345C32.6943 31.0396 31.3011 31.0295 29.913 31.0446C29.5899 31.0497 29.4335 30.9538 29.4638 30.6056C29.4839 30.3633 29.4789 30.116 29.4638 29.8687C29.4436 29.5659 29.5647 29.4599 29.8676 29.4599C31.2456 29.47 32.6286 29.47 34.0067 29.4599C34.7638 29.4548 35.2989 29.0259 35.42 28.3445C35.4503 28.1628 35.4503 27.971 35.4503 27.7843C35.4503 25.0236 35.4503 22.2629 35.4503 19.5022C35.4503 18.9824 35.4553 18.9824 35.9803 18.9824C36.3185 18.9824 36.6567 18.9925 36.9949 18.9975C36.9999 22.1973 36.9999 25.3819 36.9999 28.5666Z" fill="#E04E39"/>
<path d="M36.9999 16.0601C36.6061 16.0601 36.2074 16.055 35.8137 16.0601C35.5663 16.0651 35.4502 15.9692 35.4502 15.7118C35.4553 14.9094 35.4603 14.1069 35.4502 13.2994C35.4452 13.0369 35.5714 12.9562 35.8137 12.9612C36.2074 12.9713 36.6061 12.9663 36.9999 12.9663C36.9999 14.0009 36.9999 15.0305 36.9999 16.0601Z" fill="#E04E39"/>
<path d="M14.4921 20.5569C12.15 20.5569 9.80787 20.5569 7.46575 20.5569C6.98623 20.5569 6.98118 20.5468 6.98118 20.0623C6.98118 19.8503 6.99632 19.6384 6.97613 19.4314C6.94584 19.0983 7.07204 18.9873 7.41528 18.9873C9.11129 19.0025 10.8124 18.9924 12.5084 18.9924C15.5168 18.9924 18.5303 18.9924 21.5387 18.9924C22.0485 18.9924 22.0485 18.9924 22.0434 19.5021C22.0384 20.5519 22.0384 20.5569 20.9935 20.562C18.823 20.562 16.6576 20.562 14.4921 20.5569Z" fill="#E04E39"/>
<path d="M12.9986 29.5556C11.1714 29.5556 9.34411 29.5556 7.5219 29.5556C6.9818 29.5556 6.9818 29.5506 6.97675 29.0055C6.96665 27.981 6.96665 27.986 7.99133 27.986C11.5045 27.9911 15.0126 27.986 18.5258 27.986C19.0255 27.986 19.0255 27.986 19.0255 28.4907C19.0255 28.7027 19.0104 28.9147 19.0306 29.1216C19.0609 29.4395 18.9448 29.5556 18.6167 29.5556C16.749 29.5455 14.8713 29.5506 12.9986 29.5556Z" fill="#E04E39"/>
<path d="M11.5245 14.4956C12.8672 14.4956 14.2149 14.4956 15.5576 14.4956C16.0523 14.4956 16.0573 14.5006 16.0624 15.0104C16.0624 15.2325 16.0573 15.4545 16.0674 15.6766C16.0826 15.9643 15.9513 16.0702 15.6686 16.0702C14.6843 16.0652 13.7051 16.0702 12.7208 16.0702C10.9693 16.0702 9.21267 16.0702 7.46113 16.0652C6.99674 16.0652 6.98665 16.0551 6.98665 15.5958C6.98665 15.3637 6.99674 15.1265 6.9816 14.8943C6.95636 14.5864 7.0876 14.4905 7.39046 14.4905C8.76343 14.5006 10.1414 14.4956 11.5245 14.4956Z" fill="#E04E39"/>
<path d="M17.5365 23.4892C18.8943 23.4892 20.2522 23.4993 21.61 23.4842C21.9482 23.4791 22.0794 23.5952 22.0491 23.9283C22.0289 24.1605 22.0289 24.3977 22.0491 24.6298C22.0744 24.9478 21.9583 25.0639 21.6302 25.0588C19.8029 25.0487 17.9757 25.0538 16.1484 25.0538C15.2348 25.0538 14.3211 25.0437 13.4075 25.0588C13.0744 25.0639 12.9583 24.9377 12.9583 24.6046C12.9482 23.4791 12.9381 23.4842 14.0536 23.4842C15.2146 23.4892 16.3755 23.4892 17.5365 23.4892Z" fill="#E04E39"/>
<path d="M8.51598 23.4892C8.91475 23.4892 9.30847 23.4942 9.70723 23.4841C9.94952 23.4791 10.0404 23.58 10.0353 23.8172C10.0252 24.1201 10.0252 24.4229 10.0353 24.7308C10.0404 24.9528 9.94952 25.0538 9.72742 25.0538C8.9097 25.0487 8.09198 25.0538 7.27426 25.0538C7.0673 25.0538 6.97644 24.9579 6.98149 24.7509C6.98654 24.4229 6.98654 24.0948 6.98149 23.7718C6.98149 23.5599 7.09254 23.4892 7.2894 23.4892C7.69826 23.4942 8.10712 23.4892 8.51598 23.4892Z" fill="#E04E39"/>
<path d="M3.40774 37.0001C2.47392 36.7175 1.71677 36.2128 1.28267 35.2993C1.10095 34.9106 1 34.5119 1 34.0779C1 26.0482 1 18.0184 1.00505 9.98368C1.00505 8.33332 2.34268 6.99587 4.00337 6.98578C6.66349 6.97064 9.31856 6.98073 11.9787 6.98073C14.6943 6.98073 17.41 6.98578 20.1307 6.97568C20.3932 6.97568 20.5951 7.04634 20.7818 7.23813C23.1038 9.56982 25.4307 11.8965 27.7628 14.2181C27.9495 14.4048 28.0353 14.6016 28.0353 14.8691C28.0303 21.1678 28.005 27.4664 28.0454 33.765C28.0555 35.3649 27.046 36.6317 25.7134 36.9547C25.6781 36.9648 25.6528 36.9849 25.6175 37.0001C18.2126 37.0001 10.8127 37.0001 3.40774 37.0001ZM2.56478 22.0358C2.56478 25.9927 2.56478 29.9495 2.56478 33.9063C2.56478 34.9561 3.0645 35.4507 4.11946 35.4507C4.78575 35.4507 5.45205 35.4507 6.12339 35.4507C12.3976 35.4507 18.6769 35.4507 24.9512 35.4507C25.9305 35.4507 26.4554 34.9258 26.4554 33.9568C26.4554 28.1628 26.4554 22.3689 26.4554 16.575C26.4554 16.0703 26.4504 16.0653 25.9456 16.0653C24.1991 16.0653 22.4577 16.0703 20.7112 16.0653C19.525 16.0602 18.9899 15.5252 18.9899 14.3493C18.9899 12.5829 18.9899 10.8114 18.9899 9.04494C18.9899 8.56043 18.9899 8.55538 18.5104 8.55538C15.5575 8.55538 12.6096 8.55538 9.65676 8.55538C7.78407 8.55538 5.91139 8.55034 4.0387 8.56043C3.12002 8.56548 2.58497 9.11055 2.56983 10.0291C2.56983 10.1603 2.56983 10.2865 2.56983 10.4177C2.56478 14.2887 2.56478 18.1598 2.56478 22.0358ZM20.59 9.34776C20.5799 9.38813 20.5648 9.42346 20.5648 9.45374C20.5597 11.0334 20.5648 12.6131 20.5547 14.1878C20.5547 14.4856 20.7263 14.4957 20.9434 14.4906C22.4526 14.4856 23.9619 14.4906 25.4711 14.4856C25.5569 14.4856 25.6579 14.5259 25.7084 14.4603C24.0022 12.7595 22.3012 11.0637 20.59 9.34776Z" stroke="#E04E39" stroke-width="0.5"/>
<path d="M37.0005 10.0189C36.1474 10.024 35.2893 10.0341 34.4363 10.0391C32.7958 10.0442 31.1603 10.0442 29.5198 10.0391C28.5557 10.0341 27.9904 9.46881 27.9904 8.50988C27.9853 6.68288 27.9803 4.85588 27.9954 3.02888C28.0005 2.67559 27.8995 2.56961 27.5411 2.56961C22.7156 2.5797 17.895 2.57465 13.0695 2.57465C12.065 2.57465 11.5703 3.0844 11.5653 4.09379C11.5653 4.45717 11.5602 4.82055 11.5653 5.18393C11.5703 5.42619 11.4895 5.55741 11.222 5.54227C10.9091 5.52713 10.5911 5.53722 10.2731 5.53722C10.0812 5.53722 9.99543 5.45142 10.0005 5.25964C10.0055 4.70952 9.97019 4.15435 10.0207 3.60928C10.157 2.20118 11.4643 1.01009 12.8877 1.01009C18.3291 1 23.7756 1.00505 29.217 1C29.4694 1 29.6309 1.11103 29.7924 1.27254C32.0184 3.50329 34.2444 5.729 36.4705 7.95472C36.6421 8.12631 36.8238 8.29791 36.9954 8.46951C37.0005 8.9843 37.0005 9.50413 37.0005 10.0189ZM34.7593 8.46951C34.1435 7.84368 33.5933 7.27842 33.033 6.71316C31.9881 5.65835 30.9433 4.60353 29.8984 3.54872C29.8227 3.47301 29.7419 3.3317 29.6157 3.38217C29.5047 3.42759 29.5552 3.5689 29.5552 3.66984C29.5501 5.14356 29.5602 6.61727 29.5501 8.08594C29.5501 8.37866 29.6561 8.46951 29.9438 8.46951C30.8676 8.45941 31.7913 8.46446 32.715 8.46446C33.3763 8.46951 34.0375 8.46951 34.7593 8.46951Z" stroke="#E04E39" stroke-width="0.5"/>
<path d="M36.9999 28.5666C36.7324 29.5709 36.1822 30.3431 35.208 30.7721C34.8496 30.9286 34.4811 31.0345 34.0874 31.0345C32.6943 31.0396 31.3011 31.0295 29.913 31.0446C29.5899 31.0497 29.4335 30.9538 29.4638 30.6056C29.4839 30.3633 29.4789 30.116 29.4638 29.8687C29.4436 29.5659 29.5647 29.4599 29.8676 29.4599C31.2456 29.47 32.6286 29.47 34.0067 29.4599C34.7638 29.4548 35.2989 29.0259 35.42 28.3445C35.4503 28.1628 35.4503 27.971 35.4503 27.7843C35.4503 25.0236 35.4503 22.2629 35.4503 19.5022C35.4503 18.9824 35.4553 18.9824 35.9803 18.9824C36.3185 18.9824 36.6567 18.9925 36.9949 18.9975C36.9999 22.1973 36.9999 25.3819 36.9999 28.5666Z" stroke="#E04E39" stroke-width="0.5"/>
<path d="M36.9999 16.0601C36.6061 16.0601 36.2074 16.055 35.8137 16.0601C35.5663 16.0651 35.4502 15.9692 35.4502 15.7118C35.4553 14.9094 35.4603 14.1069 35.4502 13.2994C35.4452 13.0369 35.5714 12.9562 35.8137 12.9612C36.2074 12.9713 36.6061 12.9663 36.9999 12.9663C36.9999 14.0009 36.9999 15.0305 36.9999 16.0601Z" stroke="#E04E39" stroke-width="0.5"/>
<path d="M14.4921 20.5569C12.15 20.5569 9.80787 20.5569 7.46575 20.5569C6.98623 20.5569 6.98118 20.5468 6.98118 20.0623C6.98118 19.8503 6.99632 19.6384 6.97613 19.4314C6.94584 19.0983 7.07204 18.9873 7.41528 18.9873C9.11129 19.0025 10.8124 18.9924 12.5084 18.9924C15.5168 18.9924 18.5303 18.9924 21.5387 18.9924C22.0485 18.9924 22.0485 18.9924 22.0434 19.5021C22.0384 20.5519 22.0384 20.5569 20.9935 20.562C18.823 20.562 16.6576 20.562 14.4921 20.5569Z" stroke="#E04E39" stroke-width="0.5"/>
<path d="M12.9986 29.5556C11.1714 29.5556 9.34411 29.5556 7.5219 29.5556C6.9818 29.5556 6.9818 29.5506 6.97675 29.0055C6.96665 27.981 6.96665 27.986 7.99133 27.986C11.5045 27.9911 15.0126 27.986 18.5258 27.986C19.0255 27.986 19.0255 27.986 19.0255 28.4907C19.0255 28.7027 19.0104 28.9147 19.0306 29.1216C19.0609 29.4395 18.9448 29.5556 18.6167 29.5556C16.749 29.5455 14.8713 29.5506 12.9986 29.5556Z" stroke="#E04E39" stroke-width="0.5"/>
<path d="M11.5245 14.4956C12.8672 14.4956 14.2149 14.4956 15.5576 14.4956C16.0523 14.4956 16.0573 14.5006 16.0624 15.0104C16.0624 15.2325 16.0573 15.4545 16.0674 15.6766C16.0826 15.9643 15.9513 16.0702 15.6686 16.0702C14.6843 16.0652 13.7051 16.0702 12.7208 16.0702C10.9693 16.0702 9.21267 16.0702 7.46113 16.0652C6.99674 16.0652 6.98665 16.0551 6.98665 15.5958C6.98665 15.3637 6.99674 15.1265 6.9816 14.8943C6.95636 14.5864 7.0876 14.4905 7.39046 14.4905C8.76343 14.5006 10.1414 14.4956 11.5245 14.4956Z" stroke="#E04E39" stroke-width="0.5"/>
<path d="M17.5365 23.4892C18.8943 23.4892 20.2522 23.4993 21.61 23.4842C21.9482 23.4791 22.0794 23.5952 22.0491 23.9283C22.0289 24.1605 22.0289 24.3977 22.0491 24.6298C22.0744 24.9478 21.9583 25.0639 21.6302 25.0588C19.8029 25.0487 17.9757 25.0538 16.1484 25.0538C15.2348 25.0538 14.3211 25.0437 13.4075 25.0588C13.0744 25.0639 12.9583 24.9377 12.9583 24.6046C12.9482 23.4791 12.9381 23.4842 14.0536 23.4842C15.2146 23.4892 16.3755 23.4892 17.5365 23.4892Z" stroke="#E04E39" stroke-width="0.5"/>
<path d="M8.51598 23.4892C8.91475 23.4892 9.30847 23.4942 9.70723 23.4841C9.94952 23.4791 10.0404 23.58 10.0353 23.8172C10.0252 24.1201 10.0252 24.4229 10.0353 24.7308C10.0404 24.9528 9.94952 25.0538 9.72742 25.0538C8.9097 25.0487 8.09198 25.0538 7.27426 25.0538C7.0673 25.0538 6.97644 24.9579 6.98149 24.7509C6.98654 24.4229 6.98654 24.0948 6.98149 23.7718C6.98149 23.5599 7.09254 23.4892 7.2894 23.4892C7.69826 23.4942 8.10712 23.4892 8.51598 23.4892Z" stroke="#E04E39" stroke-width="0.5"/>
</svg>
