<svg width="18" height="16" viewBox="0 0 18 16" fill="none" xmlns="http://www.w3.org/2000/svg">
<path fill-rule="evenodd" clip-rule="evenodd" d="M18 15.2988C18 15.1331 17.9323 14.9741 17.8117 14.8569C17.6912 14.7397 17.5276 14.6738 17.3571 14.6738L0.642859 14.6738C0.472363 14.6738 0.308848 14.7397 0.18829 14.8569C0.0677306 14.9741 2.57249e-06 15.1331 2.558e-06 15.2988C2.5435e-06 15.4646 0.0677306 15.6236 0.18829 15.7408C0.308848 15.858 0.472363 15.9238 0.642859 15.9238L17.3571 15.9238C17.5276 15.9238 17.6912 15.858 17.8117 15.7408C17.9323 15.6236 18 15.4646 18 15.2988ZM8.99999 0.923827C8.8295 0.923827 8.66598 0.989677 8.54542 1.10689C8.42486 1.2241 8.35714 1.38308 8.35714 1.54884L8.35714 8.79024L5.59799 6.10643C5.47728 5.98907 5.31356 5.92314 5.14285 5.92314C4.97214 5.92314 4.80842 5.98907 4.68771 6.10643C4.567 6.22379 4.49918 6.38297 4.49918 6.54894C4.49918 6.71492 4.567 6.87409 4.68771 6.99145L8.54485 10.7415C8.60456 10.7997 8.6755 10.8459 8.75361 10.8774C8.83171 10.9089 8.91543 10.9251 8.99999 10.9251C9.08455 10.9251 9.16828 10.9089 9.24638 10.8774C9.32448 10.8459 9.39542 10.7997 9.45513 10.7415L13.3123 6.99145C13.433 6.87409 13.5008 6.71492 13.5008 6.54894C13.5008 6.38297 13.433 6.22379 13.3123 6.10643C13.1916 5.98907 13.0278 5.92314 12.8571 5.92314C12.6864 5.92314 12.5227 5.98907 12.402 6.10643L9.64285 8.79024L9.64285 1.54884C9.64285 1.38308 9.57512 1.2241 9.45456 1.10689C9.334 0.989677 9.17049 0.923827 8.99999 0.923827Z" fill="white"/>
</svg>
