<svg width="44" height="44" viewBox="0 0 44 44" fill="none" xmlns="http://www.w3.org/2000/svg">
<path d="M19.6214 1C20.6727 1.17084 21.724 1.31539 22.7491 1.62422C26.5469 2.76095 29.6089 4.94243 31.9415 8.14237C33.6433 10.475 34.6815 13.0835 35.0363 15.9484C35.3977 18.8789 35.0429 21.7306 33.893 24.4574C33.755 24.786 33.801 24.9765 34.0507 25.1999C34.3201 25.4299 34.5435 25.7125 34.8129 25.949C35.1283 26.225 35.2006 26.5469 35.1151 26.9477C34.9575 27.6968 34.826 28.4524 34.6552 29.1949C34.5763 29.53 34.6552 29.7469 34.8983 29.99C37.2572 32.3292 39.6029 34.6815 41.9487 37.0272C43.4468 38.5253 43.3351 41.0288 41.7187 42.2904C40.352 43.3614 38.2954 43.2037 37.0338 41.9421C34.7143 39.6227 32.3883 37.3098 30.082 34.9772C29.7732 34.6683 29.4972 34.5698 29.0767 34.6749C28.3736 34.8523 27.6574 34.964 26.9478 35.1151C26.5535 35.2006 26.2381 35.1217 25.949 34.8129C25.6139 34.4515 25.2985 33.9784 24.878 33.8339C24.464 33.6893 24.0041 34.1164 23.5507 34.2544C16.9406 36.2847 11.0992 34.9377 6.09887 30.1871C3.24718 27.4734 1.63736 24.0829 1.08542 20.1931C1.05914 20.0025 1.08542 19.8054 1 19.628C1 18.5898 1 17.5516 1 16.5135C1.046 16.2309 1.08542 15.9484 1.13798 15.6658C2.42585 8.56289 6.52597 3.9174 13.3398 1.63736C14.3648 1.29568 15.4424 1.17084 16.5069 1C17.5451 1 18.5832 1 19.6214 1ZM18.1496 33.7879C26.9543 33.6433 33.7484 26.8623 33.7616 18.097C33.7813 9.18054 26.8492 2.36671 18.097 2.35357C9.17397 2.347 2.31414 9.2791 2.35357 18.1496C2.39956 26.9477 9.27253 33.7419 18.1496 33.7879ZM39.511 41.6793C40.6674 41.6793 41.6596 40.6871 41.6859 39.6161C41.699 38.9196 41.3639 38.3939 40.8908 37.9274C38.4334 35.4765 35.9891 33.0191 33.5185 30.5748C33.1768 30.2331 33.0782 29.8914 33.1834 29.4315C33.3608 28.6496 33.4988 27.8545 33.663 27.066C33.7484 26.6586 33.4199 26.4812 33.1834 26.3367C32.9271 26.179 32.8942 26.5404 32.8023 26.6849C31.7772 28.367 30.5288 29.8586 29.0241 31.1267C28.2422 31.7904 27.3946 32.362 26.5207 32.9008C26.4221 32.96 26.2315 32.9797 26.2972 33.1834C26.3892 33.4462 26.8623 33.7024 27.1514 33.6433C27.9399 33.4856 28.735 33.3345 29.5235 33.1702C29.9177 33.0848 30.2397 33.1702 30.5222 33.479C30.8836 33.8733 31.2713 34.2412 31.6458 34.6158C33.7419 36.7118 35.8379 38.8079 37.934 40.9039C38.3939 41.3573 38.8999 41.699 39.511 41.6793Z" fill="#E04E39"/>
<path d="M31.2124 18.051C31.2519 25.1211 25.3316 31.1135 18.3536 31.2318C11.0075 31.3567 5.061 25.2722 4.89673 18.3861C4.72589 11.0532 10.8629 5.03438 17.795 4.8964C25.0294 4.75184 31.2847 10.856 31.2124 18.051ZM29.8457 18.0641C29.78 11.454 24.7469 6.27625 18.0316 6.28939C11.428 6.3091 6.32258 11.3751 6.28972 17.9984C6.25687 24.7005 11.4149 29.8191 18.0316 29.8323C24.6877 29.8454 29.7735 24.7202 29.8457 18.0641Z" fill="#E04E39"/>
<path d="M18.5636 7.54441C21.5992 7.74153 24.1158 8.99654 26.0805 11.3029C27.7034 13.2084 28.5839 15.4227 28.5839 17.9458C28.5839 18.4387 28.3474 18.7146 27.94 18.7343C27.5194 18.754 27.25 18.4846 27.2238 18.0181C27.1581 16.9077 27.0398 15.8104 26.6127 14.7722C25.2066 11.316 22.6374 9.39078 18.9381 8.96368C18.6424 8.93083 18.3402 8.91769 18.0379 8.8914C17.6305 8.85855 17.3743 8.58915 17.3808 8.20148C17.3874 7.83352 17.6371 7.57069 18.0248 7.53784C18.2087 7.53127 18.3862 7.54441 18.5636 7.54441Z" fill="#E04E39"/>
<path d="M19.6214 1C20.6727 1.17084 21.724 1.31539 22.7491 1.62422C26.5469 2.76095 29.6089 4.94243 31.9415 8.14237C33.6433 10.475 34.6815 13.0835 35.0363 15.9484C35.3977 18.8789 35.0429 21.7306 33.893 24.4574C33.755 24.786 33.801 24.9765 34.0507 25.1999C34.3201 25.4299 34.5435 25.7125 34.8129 25.949C35.1283 26.225 35.2006 26.5469 35.1151 26.9477C34.9575 27.6968 34.826 28.4524 34.6552 29.1949C34.5763 29.53 34.6552 29.7469 34.8983 29.99C37.2572 32.3292 39.6029 34.6815 41.9487 37.0272C43.4468 38.5253 43.3351 41.0288 41.7187 42.2904C40.352 43.3614 38.2954 43.2037 37.0338 41.9421C34.7143 39.6227 32.3883 37.3098 30.082 34.9772C29.7732 34.6683 29.4972 34.5698 29.0767 34.6749C28.3736 34.8523 27.6574 34.964 26.9478 35.1151C26.5535 35.2006 26.2381 35.1217 25.949 34.8129C25.6139 34.4515 25.2985 33.9784 24.878 33.8339C24.464 33.6893 24.0041 34.1164 23.5507 34.2544C16.9406 36.2847 11.0992 34.9377 6.09887 30.1871C3.24718 27.4734 1.63736 24.0829 1.08542 20.1931C1.05914 20.0025 1.08542 19.8054 1 19.628C1 18.5898 1 17.5516 1 16.5135C1.046 16.2309 1.08542 15.9484 1.13798 15.6658C2.42585 8.56289 6.52597 3.9174 13.3398 1.63736C14.3648 1.29568 15.4424 1.17084 16.5069 1C17.5451 1 18.5832 1 19.6214 1ZM18.1496 33.7879C26.9543 33.6433 33.7484 26.8623 33.7616 18.097C33.7813 9.18054 26.8492 2.36671 18.097 2.35357C9.17397 2.347 2.31414 9.2791 2.35357 18.1496C2.39956 26.9477 9.27253 33.7419 18.1496 33.7879ZM39.511 41.6793C40.6674 41.6793 41.6596 40.6871 41.6859 39.6161C41.699 38.9196 41.3639 38.3939 40.8908 37.9274C38.4334 35.4765 35.9891 33.0191 33.5185 30.5748C33.1768 30.2331 33.0782 29.8914 33.1834 29.4315C33.3608 28.6496 33.4988 27.8545 33.663 27.066C33.7484 26.6586 33.4199 26.4812 33.1834 26.3367C32.9271 26.179 32.8942 26.5404 32.8023 26.6849C31.7772 28.367 30.5288 29.8586 29.0241 31.1267C28.2422 31.7904 27.3946 32.362 26.5207 32.9008C26.4221 32.96 26.2315 32.9797 26.2972 33.1834C26.3892 33.4462 26.8623 33.7024 27.1514 33.6433C27.9399 33.4856 28.735 33.3345 29.5235 33.1702C29.9177 33.0848 30.2397 33.1702 30.5222 33.479C30.8836 33.8733 31.2713 34.2412 31.6458 34.6158C33.7419 36.7118 35.8379 38.8079 37.934 40.9039C38.3939 41.3573 38.8999 41.699 39.511 41.6793Z" stroke="#E04E39" stroke-width="0.5"/>
<path d="M31.2124 18.051C31.2519 25.1211 25.3316 31.1135 18.3536 31.2318C11.0075 31.3567 5.061 25.2722 4.89673 18.3861C4.72589 11.0532 10.8629 5.03438 17.795 4.8964C25.0294 4.75184 31.2847 10.856 31.2124 18.051ZM29.8457 18.0641C29.78 11.454 24.7469 6.27625 18.0316 6.28939C11.428 6.3091 6.32258 11.3751 6.28972 17.9984C6.25687 24.7005 11.4149 29.8191 18.0316 29.8323C24.6877 29.8454 29.7735 24.7202 29.8457 18.0641Z" stroke="#E04E39" stroke-width="0.5"/>
<path d="M18.5636 7.54441C21.5992 7.74153 24.1158 8.99654 26.0805 11.3029C27.7034 13.2084 28.5839 15.4227 28.5839 17.9458C28.5839 18.4387 28.3474 18.7146 27.94 18.7343C27.5194 18.754 27.25 18.4846 27.2238 18.0181C27.1581 16.9077 27.0398 15.8104 26.6127 14.7722C25.2066 11.316 22.6374 9.39078 18.9381 8.96368C18.6424 8.93083 18.3402 8.91769 18.0379 8.8914C17.6305 8.85855 17.3743 8.58915 17.3808 8.20148C17.3874 7.83352 17.6371 7.57069 18.0248 7.53784C18.2087 7.53127 18.3862 7.54441 18.5636 7.54441Z" stroke="#E04E39" stroke-width="0.5"/>
</svg>
