<svg width="38" height="38" viewBox="0 0 38 38" fill="none" xmlns="http://www.w3.org/2000/svg">
<path d="M30.931 36.9937C30.931 36.6311 30.9466 36.2685 30.9216 35.9058C30.8997 35.5526 31.0404 35.4494 31.3875 35.4307C32.9039 35.3494 34.1108 34.7085 34.8643 33.3518C35.2144 32.7203 35.4145 32.0356 35.4145 31.3041C35.4208 28.6594 35.4208 26.0147 35.4208 23.3699C35.4208 23.2918 35.4489 23.2074 35.3645 23.1261C35.1613 23.3168 34.9674 23.5137 34.758 23.695C33.6386 24.6548 32.3098 25.0393 30.8653 25.0487C28.5141 25.0643 26.1598 25.0612 23.8086 25.0455C23.399 25.0424 23.177 25.1487 22.9832 25.5457C21.67 28.2311 18.1338 28.8814 15.9358 26.8587C15.4918 26.4523 15.1323 25.9709 14.9134 25.4051C14.804 25.1237 14.6351 25.0518 14.3537 25.0518C11.9181 25.0612 9.48561 25.0674 7.04998 25.0518C5.61487 25.0424 4.30482 24.636 3.19488 23.6857C2.99165 23.5106 2.80405 23.3199 2.60395 23.1323C2.50702 23.223 2.5508 23.3355 2.5508 23.4324C2.54767 25.9959 2.53516 28.5594 2.5508 31.1228C2.56643 33.5581 4.45177 35.44 6.88427 35.4463C11.6586 35.4588 16.436 35.4494 21.2104 35.4494C22.1515 35.4494 21.9983 35.3963 22.017 36.2622C22.0233 36.5092 22.0077 36.753 22.0045 37C16.7112 37 11.421 37 6.12763 37C6.01507 36.9687 5.90564 36.9343 5.79309 36.9093C3.73891 36.4373 2.28816 35.2337 1.43147 33.3111C1.22512 32.8485 1.14695 32.3514 1 31.8731C1 26.2991 1 20.7283 1 15.1544C1.04065 14.9949 1.08754 14.8386 1.12194 14.6792C1.68785 12.0313 4.14849 10.0243 6.85613 10.0087C7.78161 10.0024 8.70708 10.0024 9.62943 10.0087C9.85142 10.0087 9.97023 9.9618 9.97961 9.70233C10.089 7.02633 11.1834 4.82238 13.2219 3.10299C15.1448 1.48677 17.3928 0.802136 19.8816 1.0491C22.3203 1.28982 24.3432 2.39335 25.919 4.27218C27.1916 5.7915 27.8826 7.55153 27.9889 9.53351C28.0139 10.0024 28.0014 9.99931 28.4891 10.0024C29.5553 10.0087 30.6308 9.92428 31.6814 10.0431C34.8486 10.3995 37.0279 13.163 36.9997 16.1141C36.9528 21.0284 36.9778 25.9459 36.9904 30.8633C36.9966 32.8891 36.118 34.4616 34.586 35.7151C33.7606 36.3873 32.7944 36.7593 31.7689 36.9969C31.4938 36.9938 31.2124 36.9937 30.931 36.9937ZM27.7075 23.4887C28.8299 23.4449 30.1869 23.5637 31.5438 23.4293C33.7074 23.2136 35.3864 21.4067 35.4208 19.2309C35.4396 18.0617 35.4364 16.8894 35.4177 15.7202C35.3802 13.5131 33.476 11.6062 31.2624 11.578C29.3208 11.553 27.376 11.5686 25.4344 11.5686C19.2531 11.5686 13.0749 11.5624 6.89365 11.5718C4.46115 11.5749 2.57894 13.4694 2.55705 15.8953C2.54767 17.0301 2.53204 18.168 2.56643 19.2997C2.60395 20.5689 3.1386 21.6255 4.10785 22.4508C4.99893 23.2105 6.05885 23.4856 7.20318 23.4856C9.35742 23.4918 11.5116 23.4856 13.6659 23.4856C14.3975 23.4856 14.4069 23.4856 14.5163 22.7759C14.8634 20.4938 16.8488 18.9089 19.1499 18.9808C21.448 19.0496 23.374 20.8252 23.4991 23.1167C23.5147 23.4106 23.6179 23.4918 23.8993 23.4918C25.0842 23.4825 26.2786 23.4887 27.7075 23.4887ZM18.9717 9.99931C21.3229 9.99931 23.6741 9.99306 26.0253 10.0056C26.3661 10.0087 26.4631 9.88052 26.4256 9.57103C26.3943 9.31468 26.3912 9.05834 26.3474 8.80512C25.9503 6.50113 24.7778 4.69421 22.7362 3.55629C20.2474 2.1714 17.6804 2.16514 15.2042 3.57817C12.9405 4.8724 11.7586 6.91066 11.5554 9.50538C11.5179 9.99306 11.5398 9.99931 12.0244 9.99931C14.3412 10.0024 16.6549 9.99931 18.9717 9.99931ZM18.9874 26.4492C20.6976 26.4336 21.942 25.155 21.9357 23.4199C21.9264 21.8193 20.5851 20.5439 18.9217 20.5595C17.3178 20.5751 16.0327 21.8975 16.0421 23.5231C16.0484 25.1675 17.3553 26.4648 18.9874 26.4492Z" fill="#E04E39"/>
<path d="M24.9585 36.9943C24.9553 36.5973 24.9585 36.2034 24.9428 35.8064C24.9335 35.5594 25.0241 35.4437 25.2836 35.4437C26.0747 35.45 26.8688 35.45 27.6599 35.4437C27.8881 35.4437 28.0069 35.5219 28.0007 35.7689C27.985 36.1753 27.985 36.5848 27.9788 36.9912C26.972 36.9943 25.9652 36.9943 24.9585 36.9943Z" fill="#E04E39"/>
<path d="M30.931 36.9937C30.931 36.6311 30.9466 36.2685 30.9216 35.9058C30.8997 35.5526 31.0404 35.4494 31.3875 35.4307C32.9039 35.3494 34.1108 34.7085 34.8643 33.3518C35.2144 32.7203 35.4145 32.0356 35.4145 31.3041C35.4208 28.6594 35.4208 26.0147 35.4208 23.3699C35.4208 23.2918 35.4489 23.2074 35.3645 23.1261C35.1613 23.3168 34.9674 23.5137 34.758 23.695C33.6386 24.6548 32.3098 25.0393 30.8653 25.0487C28.5141 25.0643 26.1598 25.0612 23.8086 25.0455C23.399 25.0424 23.177 25.1487 22.9832 25.5457C21.67 28.2311 18.1338 28.8814 15.9358 26.8587C15.4918 26.4523 15.1323 25.9709 14.9134 25.4051C14.804 25.1237 14.6351 25.0518 14.3537 25.0518C11.9181 25.0612 9.48561 25.0674 7.04998 25.0518C5.61487 25.0424 4.30482 24.636 3.19488 23.6857C2.99165 23.5106 2.80405 23.3199 2.60395 23.1323C2.50702 23.223 2.5508 23.3355 2.5508 23.4324C2.54767 25.9959 2.53516 28.5594 2.5508 31.1228C2.56643 33.5581 4.45177 35.44 6.88427 35.4463C11.6586 35.4588 16.436 35.4494 21.2104 35.4494C22.1515 35.4494 21.9983 35.3963 22.017 36.2622C22.0233 36.5092 22.0077 36.753 22.0045 37C16.7112 37 11.421 37 6.12763 37C6.01507 36.9687 5.90564 36.9343 5.79309 36.9093C3.73891 36.4373 2.28816 35.2337 1.43147 33.3111C1.22512 32.8485 1.14695 32.3514 1 31.8731C1 26.2991 1 20.7283 1 15.1544C1.04065 14.9949 1.08754 14.8386 1.12194 14.6792C1.68785 12.0313 4.14849 10.0243 6.85613 10.0087C7.78161 10.0024 8.70708 10.0024 9.62943 10.0087C9.85142 10.0087 9.97023 9.9618 9.97961 9.70233C10.089 7.02633 11.1834 4.82238 13.2219 3.10299C15.1448 1.48677 17.3928 0.802136 19.8816 1.0491C22.3203 1.28982 24.3432 2.39335 25.919 4.27218C27.1916 5.7915 27.8826 7.55153 27.9889 9.53351C28.0139 10.0024 28.0014 9.99931 28.4891 10.0024C29.5553 10.0087 30.6308 9.92428 31.6814 10.0431C34.8486 10.3995 37.0279 13.163 36.9997 16.1141C36.9528 21.0284 36.9778 25.9459 36.9904 30.8633C36.9966 32.8891 36.118 34.4616 34.586 35.7151C33.7606 36.3873 32.7944 36.7593 31.7689 36.9969C31.4938 36.9938 31.2124 36.9937 30.931 36.9937ZM27.7075 23.4887C28.8299 23.4449 30.1869 23.5637 31.5438 23.4293C33.7074 23.2136 35.3864 21.4067 35.4208 19.2309C35.4396 18.0617 35.4364 16.8894 35.4177 15.7202C35.3802 13.5131 33.476 11.6062 31.2624 11.578C29.3208 11.553 27.376 11.5686 25.4344 11.5686C19.2531 11.5686 13.0749 11.5624 6.89365 11.5718C4.46115 11.5749 2.57894 13.4694 2.55705 15.8953C2.54767 17.0301 2.53204 18.168 2.56643 19.2997C2.60395 20.5689 3.1386 21.6255 4.10785 22.4508C4.99893 23.2105 6.05885 23.4856 7.20318 23.4856C9.35742 23.4918 11.5116 23.4856 13.6659 23.4856C14.3975 23.4856 14.4069 23.4856 14.5163 22.7759C14.8634 20.4938 16.8488 18.9089 19.1499 18.9808C21.448 19.0496 23.374 20.8252 23.4991 23.1167C23.5147 23.4106 23.6179 23.4918 23.8993 23.4918C25.0842 23.4825 26.2786 23.4887 27.7075 23.4887ZM18.9717 9.99931C21.3229 9.99931 23.6741 9.99306 26.0253 10.0056C26.3661 10.0087 26.4631 9.88052 26.4256 9.57103C26.3943 9.31468 26.3912 9.05834 26.3474 8.80512C25.9503 6.50113 24.7778 4.69421 22.7362 3.55629C20.2474 2.1714 17.6804 2.16514 15.2042 3.57817C12.9405 4.8724 11.7586 6.91066 11.5554 9.50538C11.5179 9.99306 11.5398 9.99931 12.0244 9.99931C14.3412 10.0024 16.6549 9.99931 18.9717 9.99931ZM18.9874 26.4492C20.6976 26.4336 21.942 25.155 21.9357 23.4199C21.9264 21.8193 20.5851 20.5439 18.9217 20.5595C17.3178 20.5751 16.0327 21.8975 16.0421 23.5231C16.0484 25.1675 17.3553 26.4648 18.9874 26.4492Z" stroke="#E04E39" stroke-width="0.5"/>
<path d="M24.9585 36.9943C24.9553 36.5973 24.9585 36.2034 24.9428 35.8064C24.9335 35.5594 25.0241 35.4437 25.2836 35.4437C26.0747 35.45 26.8688 35.45 27.6599 35.4437C27.8881 35.4437 28.0069 35.5219 28.0007 35.7689C27.985 36.1753 27.985 36.5848 27.9788 36.9912C26.972 36.9943 25.9652 36.9943 24.9585 36.9943Z" stroke="#E04E39" stroke-width="0.5"/>
</svg>
