<svg width="35" height="20" viewBox="0 0 35 20" fill="none" xmlns="http://www.w3.org/2000/svg">
<path d="M27.3534 18.6661C27.488 18.6661 27.6226 18.6661 27.7571 18.6661C29.8497 18.6661 31.949 18.6661 34.0416 18.6661C34.2165 18.6661 34.3914 18.6592 34.5597 18.7209C34.8692 18.8374 35.0239 19.0636 34.997 19.3993C34.9701 19.7214 34.7817 19.9133 34.4856 19.975C34.3645 20.0024 34.2367 19.9955 34.1088 19.9955C25.9673 19.9955 17.8191 20.0092 9.67764 19.9887C4.82639 19.9818 0.661445 16.1785 0.0760647 11.272C-0.5766 5.8309 3.03661 0.9723 8.38577 0.115707C8.87022 0.040327 9.35467 0.012916 9.84585 0.012916C13.9637 0.0197688 18.0815 -0.0282005 22.1927 0.0266215C26.2567 0.0814435 29.3383 1.9591 31.1012 5.68699C32.8843 9.44915 32.3527 13.0605 29.8497 16.3636C29.1567 17.275 28.2887 17.9808 27.3534 18.6661ZM9.79202 18.6661C14.4414 18.6798 18.3036 14.8217 18.317 10.155C18.3372 5.22786 14.6029 1.39032 9.81221 1.34235C5.44541 1.29438 1.30065 4.87837 1.28047 9.97681C1.26701 15.0615 5.39831 18.7415 9.79202 18.6661ZM14.798 18.6387C19.1177 19.0293 22.1523 17.412 24.0094 14.0405C25.604 11.1281 25.2272 7.31109 23.0943 4.56999C22.1119 3.31594 20.8604 2.41823 19.3801 1.84945C17.9066 1.28067 16.3792 1.31494 14.7711 1.36976C21.1834 5.28953 21.1968 14.76 14.798 18.6387ZM21.4458 18.6318C24.8235 19.0087 28.2079 17.1928 29.7959 14.1912C31.4645 11.0321 31.1348 7.24256 28.9279 4.52202C26.8084 1.90427 23.794 1.07509 21.4996 1.41088C27.8715 5.42659 27.8513 14.6161 21.4458 18.6318Z" fill="#E04E39"/>
<path d="M9.21357 3.74075C12.4634 3.70648 14.9799 6.92727 14.1388 10.0384C13.4458 12.5945 10.5256 13.8965 8.35232 12.6151C6.46834 11.5049 6.09827 8.82548 7.6391 7.42067C8.41288 6.71484 9.33468 6.46814 10.3372 6.79707C11.2725 7.10544 11.8242 7.80442 11.9992 8.79807C12.1472 9.62725 11.7368 10.5318 11.0235 10.9704C10.3305 11.3953 9.46252 11.3747 8.86369 10.9087C8.41961 10.5661 8.17738 10.1001 8.15046 9.53132C8.13028 9.16127 8.35905 8.8666 8.68875 8.80492C9.01171 8.74325 9.30104 8.95569 9.41542 9.32573C9.57691 9.86025 9.73166 10.0179 10.0546 9.95619C10.4987 9.87395 10.7477 9.53132 10.7208 9.03792C10.6804 8.3595 10.0681 7.87295 9.37505 7.96889C8.43979 8.09909 7.81404 9.00366 8.00244 9.94933C8.29849 11.4775 9.77203 12.2176 11.2388 11.5803C12.7931 10.9019 13.4391 9.14071 12.746 7.45493C11.9588 5.54302 9.98062 4.63846 7.94188 5.2552C5.53308 5.98845 4.09318 8.31838 4.48343 10.8607C4.97461 14.0541 7.36323 16.2059 10.5525 16.3498C10.9966 16.3704 11.2859 16.6308 11.2725 17.0145C11.2658 17.4051 10.9361 17.6929 10.492 17.6724C7.81404 17.5285 5.68783 16.3498 4.26139 14.0267C3.0839 12.1148 2.74075 10.0384 3.49434 7.85925C4.3354 5.43337 6.67019 3.7613 9.21357 3.74075Z" fill="#E04E39"/>
</svg>
