<svg width="34" height="30" viewBox="0 0 34 30" fill="none" xmlns="http://www.w3.org/2000/svg">
<path d="M17.039 1.02497C20.2296 1.02497 23.4203 1.01489 26.611 1.02497C29.7618 1.03504 32.3741 3.30225 32.8826 6.43604C33.0621 7.57468 32.9823 8.7234 32.9823 9.87212C32.9923 12.2905 32.9923 14.6988 32.9823 17.1171C32.9624 20.2711 30.8984 22.8204 27.8773 23.4955C27.0397 23.6769 26.1922 23.6366 25.3447 23.6366C22.6725 23.6467 19.9903 23.6366 17.3181 23.6366C17.1785 23.6366 17.0489 23.6366 16.9093 23.6265C16.3909 23.556 16.0219 23.1227 16.0319 22.6289C16.0419 22.0949 16.4407 21.6818 16.9991 21.6717C18.056 21.6515 19.1129 21.6616 20.1698 21.6616C22.3036 21.6616 24.4373 21.6717 26.5611 21.6616C28.6849 21.6515 30.4398 20.2106 30.8885 18.1751C30.9682 17.8023 30.9682 17.4194 30.9682 17.0365C30.9682 13.9027 30.9184 10.7689 30.9882 7.64522C31.048 5.05556 28.984 2.98988 26.3717 3.01003C20.0601 3.04026 13.7386 3.01003 7.42706 3.01003C4.96426 3.01003 3.04986 4.92457 3.03989 7.41346C3.01995 10.6682 3.01995 13.9229 3.02992 17.1776C3.03989 19.7068 4.87453 21.581 7.41709 21.6515C8.29453 21.6717 9.18193 21.7221 10.0494 21.6415C10.9368 21.5508 11.4952 21.9639 12.0236 22.5786C13.2102 23.949 14.4166 25.2891 15.6131 26.6495C15.8823 26.9618 16.1216 27.0626 16.4906 26.7805C16.9293 26.458 17.4976 26.589 17.8167 27.0223C18.1357 27.4455 18.066 27.9896 17.6272 28.3725C16.5803 29.2996 15.1844 29.1887 14.2471 28.1106C13.0207 26.72 11.7843 25.3294 10.5679 23.9288C10.3784 23.7071 10.179 23.6366 9.89983 23.6366C8.75319 23.6164 7.60654 23.7172 6.45989 23.556C3.63814 23.163 1.32491 20.7245 1.09558 17.8628C0.926074 15.656 1.03575 13.4392 1.02578 11.2224C1.01581 9.72097 0.965957 8.21958 1.08561 6.72826C1.31494 4.01768 3.62817 1.50864 6.30036 1.12573C7.81593 0.904048 9.35144 1.04512 10.877 1.03504C12.931 1.01489 14.985 1.02497 17.039 1.02497Z" fill="#E04E39"/>
<path d="M16.8798 4.42027C18.5749 4.4102 19.7913 5.21631 20.1303 6.6371C20.3497 7.54398 20.2001 8.42064 19.7415 9.24691C19.3825 9.8918 18.9139 10.4561 18.4552 11.0103C17.7573 11.8668 17.3185 12.8039 17.3883 13.9426C17.4182 14.3255 17.2487 14.4766 16.8898 14.4464C16.83 14.4363 16.7701 14.4464 16.7103 14.4464C15.6734 14.4565 15.5338 14.2952 15.6534 13.2271C15.7531 12.2598 16.132 11.4033 16.7103 10.6375C17.0892 10.1437 17.4681 9.63989 17.8171 9.13607C18.1461 8.66247 18.3555 8.11834 18.3057 7.54398C18.2059 6.34488 17.4382 5.9519 16.2616 5.9922C15.7431 6.01236 15.2446 6.17358 14.7959 6.43557C14.5367 6.58672 14.437 6.51618 14.3273 6.25419C13.8985 5.20624 13.9185 5.14578 14.9654 4.77295C15.5836 4.54119 16.2217 4.4102 16.8798 4.42027Z" fill="#E04E39"/>
<path d="M17.8669 17.2073C17.857 17.9328 17.2587 18.5072 16.5408 18.487C15.8429 18.4669 15.2446 17.8018 15.2745 17.0763C15.2945 16.3811 15.8728 15.8571 16.6106 15.8772C17.3385 15.8974 17.8769 16.4717 17.8669 17.2073Z" fill="#E04E39"/>
<path d="M17.039 1.02497C20.2296 1.02497 23.4203 1.01489 26.611 1.02497C29.7618 1.03504 32.3741 3.30225 32.8826 6.43604C33.0621 7.57468 32.9823 8.7234 32.9823 9.87212C32.9923 12.2905 32.9923 14.6988 32.9823 17.1171C32.9624 20.2711 30.8984 22.8204 27.8773 23.4955C27.0397 23.6769 26.1922 23.6366 25.3447 23.6366C22.6725 23.6467 19.9903 23.6366 17.3181 23.6366C17.1785 23.6366 17.0489 23.6366 16.9093 23.6265C16.3909 23.556 16.0219 23.1227 16.0319 22.6289C16.0419 22.0949 16.4407 21.6818 16.9991 21.6717C18.056 21.6515 19.1129 21.6616 20.1698 21.6616C22.3036 21.6616 24.4373 21.6717 26.5611 21.6616C28.6849 21.6515 30.4398 20.2106 30.8885 18.1751C30.9682 17.8023 30.9682 17.4194 30.9682 17.0365C30.9682 13.9027 30.9184 10.7689 30.9882 7.64522C31.048 5.05556 28.984 2.98988 26.3717 3.01003C20.0601 3.04026 13.7386 3.01003 7.42706 3.01003C4.96426 3.01003 3.04986 4.92457 3.03989 7.41346C3.01995 10.6682 3.01995 13.9229 3.02992 17.1776C3.03989 19.7068 4.87453 21.581 7.41709 21.6515C8.29453 21.6717 9.18193 21.7221 10.0494 21.6415C10.9368 21.5508 11.4952 21.9639 12.0236 22.5786C13.2102 23.949 14.4166 25.2891 15.6131 26.6495C15.8823 26.9618 16.1216 27.0626 16.4906 26.7805C16.9293 26.458 17.4976 26.589 17.8167 27.0223C18.1357 27.4455 18.066 27.9896 17.6272 28.3725C16.5803 29.2996 15.1844 29.1887 14.2471 28.1106C13.0207 26.72 11.7843 25.3294 10.5679 23.9288C10.3784 23.7071 10.179 23.6366 9.89983 23.6366C8.75319 23.6164 7.60654 23.7172 6.45989 23.556C3.63814 23.163 1.32491 20.7245 1.09558 17.8628C0.926074 15.656 1.03575 13.4392 1.02578 11.2224C1.01581 9.72097 0.965957 8.21958 1.08561 6.72826C1.31494 4.01768 3.62817 1.50864 6.30036 1.12573C7.81593 0.904048 9.35144 1.04512 10.877 1.03504C12.931 1.01489 14.985 1.02497 17.039 1.02497Z" stroke="white" stroke-width="0.5"/>
<path d="M16.8798 4.42027C18.5749 4.4102 19.7913 5.21631 20.1303 6.6371C20.3497 7.54398 20.2001 8.42064 19.7415 9.24691C19.3825 9.8918 18.9139 10.4561 18.4552 11.0103C17.7573 11.8668 17.3185 12.8039 17.3883 13.9426C17.4182 14.3255 17.2487 14.4766 16.8898 14.4464C16.83 14.4363 16.7701 14.4464 16.7103 14.4464C15.6734 14.4565 15.5338 14.2952 15.6534 13.2271C15.7531 12.2598 16.132 11.4033 16.7103 10.6375C17.0892 10.1437 17.4681 9.63989 17.8171 9.13607C18.1461 8.66247 18.3555 8.11834 18.3057 7.54398C18.2059 6.34488 17.4382 5.9519 16.2616 5.9922C15.7431 6.01236 15.2446 6.17358 14.7959 6.43557C14.5367 6.58672 14.437 6.51618 14.3273 6.25419C13.8985 5.20624 13.9185 5.14578 14.9654 4.77295C15.5836 4.54119 16.2217 4.4102 16.8798 4.42027Z" stroke="white" stroke-width="0.5"/>
<path d="M17.8669 17.2073C17.857 17.9328 17.2587 18.5072 16.5408 18.487C15.8429 18.4669 15.2446 17.8018 15.2745 17.0763C15.2945 16.3811 15.8728 15.8571 16.6106 15.8772C17.3385 15.8974 17.8769 16.4717 17.8669 17.2073Z" stroke="white" stroke-width="0.5"/>
</svg>
