<svg width="26" height="27" viewBox="0 0 26 27" fill="none" xmlns="http://www.w3.org/2000/svg">
<path d="M21.88 24.8966C20.7851 24.8966 19.6988 24.8966 18.6039 24.8966C18.3519 24.8966 18.1173 24.9487 17.8827 25.0356C12.8686 26.8772 8.28908 26.1215 4.25699 22.5946C1.78039 20.4315 0.407393 17.6343 0.0771795 14.3681C-0.313863 10.5371 0.781056 7.14921 3.36194 4.29121C5.56916 1.8415 8.33253 0.416838 11.6173 0.0867343C15.519 -0.312865 18.9428 0.825124 21.8278 3.47464C24.2089 5.66375 25.5819 8.39145 25.9208 11.6056C26.2857 15.037 25.3907 18.1382 23.3138 20.8833C23.1313 21.1178 23.14 21.2568 23.3573 21.4653C24.1307 22.2037 24.8693 22.9768 25.634 23.7239C25.8686 23.9497 26.0946 24.1756 25.9555 24.5405C25.8078 24.9314 25.4602 24.9053 25.13 24.8966C24.0438 24.8966 22.9575 24.8966 21.88 24.8966ZM23.9655 23.7413C23.9395 23.6196 23.8352 23.5588 23.757 23.4807C23.2008 22.9247 22.6447 22.3687 22.0885 21.8128C21.6193 21.3437 21.6193 21.1439 22.0451 20.64C24.3218 17.8863 25.2169 14.7242 24.7042 11.1973C24.2784 8.2872 22.8967 5.88092 20.6721 3.96111C17.0658 0.833811 11.6434 0.225725 7.45485 2.48433C2.94483 4.91667 0.529051 9.66842 1.259 14.7329C2.04977 20.2057 6.65539 24.6968 12.8165 24.8445C14.4067 24.8793 15.9535 24.5926 17.4221 23.9671C17.761 23.8194 18.0999 23.7673 18.4649 23.7673C20.1768 23.776 21.8887 23.776 23.6006 23.7673C23.7222 23.7673 23.8439 23.8021 23.9655 23.7413Z" fill="#E04E39"/>
<path d="M10.8094 16.9394C10.8094 15.9925 10.8094 15.0543 10.8094 14.1074C10.8094 13.2301 10.4531 12.5959 9.6189 12.2571C9.3582 12.1529 9.1844 11.9791 9.19309 11.6751C9.20178 11.3711 9.38427 11.206 9.65366 11.1191C10.4531 10.8585 11.2526 10.5719 12.0607 10.346C13.6857 9.90296 15.1804 11.067 15.1804 12.7523C15.1804 14.5939 15.1891 16.4442 15.1804 18.2859C15.1717 19.198 15.5193 19.8756 16.4057 20.2144C16.6577 20.3099 16.8141 20.4923 16.7967 20.779C16.788 21.0657 16.6229 21.2307 16.3622 21.3176C15.5541 21.5869 14.7459 21.8822 13.9291 22.1081C12.3127 22.5511 10.8094 21.3784 10.8094 19.7018C10.8094 18.781 10.8094 17.8602 10.8094 16.9394ZM14.0507 15.8014C14.0507 15.3062 14.0507 14.8111 14.0507 14.3159C14.0507 13.8121 14.0594 13.2996 14.0507 12.7957C14.0246 11.7967 13.2339 11.2147 12.278 11.4753C11.9738 11.5622 11.6784 11.6751 11.3829 11.762C11.1918 11.8141 11.1396 11.8749 11.2873 12.0486C11.7653 12.6307 11.9565 13.2996 11.9478 14.0466C11.9304 15.8796 11.9565 17.7125 11.9391 19.5455C11.9217 20.64 12.8689 21.3089 13.8508 20.9267C14.0942 20.8311 14.3375 20.7529 14.5895 20.6834C14.8067 20.6226 14.8676 20.5618 14.6938 20.3533C14.2506 19.8148 14.042 19.1893 14.0594 18.477C14.0681 17.5996 14.0507 16.7048 14.0507 15.8014Z" fill="#E04E39"/>
<path d="M15.7189 6.52373C15.7189 8.04394 14.5197 9.23405 12.9989 9.23405C11.4695 9.23405 10.2703 8.04394 10.2703 6.52373C10.2703 4.96008 11.4521 3.77866 13.025 3.77866C14.5457 3.78734 15.7189 4.98614 15.7189 6.52373ZM14.5892 6.51504C14.5892 5.65504 13.8419 4.91665 12.9902 4.92533C12.1386 4.93402 11.4261 5.64635 11.4087 6.49767C11.3913 7.34899 12.13 8.09606 12.9902 8.10475C13.8419 8.10475 14.5805 7.37505 14.5892 6.51504Z" fill="#E04E39"/>
</svg>
