<svg width="25" height="33" viewBox="0 0 25 33" fill="none" xmlns="http://www.w3.org/2000/svg">
<path d="M12.4709 33C10.0864 33 7.71125 33 5.32676 33C4.71895 33 4.55063 32.8368 4.54128 32.2474C4.54128 31.6398 4.55063 31.0322 4.53193 30.4338C4.52258 30.1436 4.61609 29.9078 4.79376 29.6811C5.21455 29.1461 5.62599 28.602 6.04678 28.067C6.1777 27.9038 6.24315 27.7315 6.22445 27.532C6.13094 26.3804 6.36472 25.3285 6.86032 24.2585C7.93567 21.937 8.37517 19.4615 8.41257 16.9224C8.42192 16.596 8.51543 16.333 8.87077 16.2333C9.04844 16.1879 9.07649 16.0701 9.07649 15.925C9.07649 15.6167 9.06714 15.3083 9.07649 15C9.08584 14.7824 8.98298 14.6645 8.80531 14.5285C8.44998 14.2655 8.15075 14.2746 7.79541 14.5285C7.47748 14.7461 7.13149 14.9184 6.78551 15.0998C6.32731 15.3446 6.04678 15.2721 5.78496 14.8368C5.25195 13.9572 4.7283 13.0776 4.214 12.198C3.96152 11.7718 4.04568 11.4817 4.49453 11.2278C4.92467 10.9829 5.34546 10.7381 5.78496 10.5114C5.96263 10.4116 5.97198 10.2847 6.00938 10.1033C6.11224 9.55017 5.79431 9.33254 5.36416 9.13304C5.05558 8.96075 4.73765 8.77032 4.43842 8.5799C4.08309 8.36226 3.99893 8.08116 4.20465 7.72751C4.73765 6.80257 5.28001 5.87763 5.84106 4.96177C6.07484 4.58091 6.37407 4.51744 6.77616 4.73507C7.2063 4.97083 7.62709 5.22474 8.05724 5.45144C8.45933 5.66907 9.08584 5.30635 9.09519 4.86202C9.10454 4.42676 9.09519 3.99149 9.09519 3.55623C9.10454 2.94867 9.31026 2.75824 9.92742 2.75824C10.928 2.75824 11.9285 2.75824 12.9384 2.75824C13.5275 2.75824 13.7146 2.9396 13.7146 3.51996C13.7146 3.95522 13.7146 4.39048 13.7146 4.82575C13.7146 5.28822 14.3785 5.66907 14.7899 5.44237C15.2201 5.2066 15.6409 4.96177 16.0803 4.726C16.4731 4.51744 16.7817 4.58998 17.0061 4.97084C17.5484 5.86857 18.0908 6.7663 18.6144 7.6731C18.8482 8.07209 18.7641 8.36226 18.362 8.59803C17.9692 8.8338 17.5671 9.04236 17.1651 9.26906C16.6414 9.56831 16.6508 10.2756 17.1838 10.5749C17.5578 10.7834 17.9412 11.001 18.3152 11.2096C18.5583 11.3456 18.7267 11.5179 18.7173 11.8081C18.708 11.9804 18.8202 12.0529 18.9604 12.0892C19.2877 12.1799 19.615 12.2706 19.9423 12.3703C20.4753 12.5245 20.6249 12.7784 20.4753 13.2953C20.4098 13.5401 20.335 13.7759 20.2602 14.0207C20.0638 14.6555 20.335 14.991 21.027 14.9819C21.2982 14.9819 21.5693 14.9638 21.8405 14.9456C22.3081 14.9184 22.5886 15.1542 22.6073 15.5985C22.6354 16.4781 22.6634 17.3577 22.6821 18.2373C22.6915 18.7179 22.5044 18.8993 22.0182 18.9355C21.7283 18.9537 21.4291 18.9809 21.1392 18.99C20.5033 19.0081 20.2415 19.3799 20.4566 19.9602C20.5501 20.2141 20.653 20.4771 20.7465 20.731C20.9054 21.1935 20.7932 21.4564 20.3257 21.6197C19.4654 21.928 18.6051 22.2454 17.7261 22.5174C17.483 22.5899 17.4736 22.6716 17.5391 22.8711C17.8009 23.6418 18.1001 24.4035 18.4648 25.129C18.6519 25.4917 18.7828 25.8454 18.7173 26.2443C18.549 27.3506 18.8763 28.2846 19.6898 29.0645C20.2883 29.6358 20.5314 30.3249 20.4192 31.1411C20.3724 31.4947 20.4098 31.8484 20.4098 32.202C20.4098 32.8186 20.2415 32.9819 19.6244 32.9819C17.2586 33 14.8647 33 12.4709 33ZM11.4236 3.90988C11.1992 3.90988 10.9747 3.92802 10.7503 3.90988C10.4324 3.87361 10.2921 3.97336 10.3202 4.2998C10.3482 4.67159 10.3202 5.05245 10.3295 5.4333C10.3389 5.76882 10.208 6.00459 9.88067 6.13154C9.48793 6.29476 9.11389 6.49426 8.77726 6.74816C8.53413 6.92952 8.28166 6.93859 8.01983 6.78443C7.64579 6.57587 7.25306 6.37637 6.88837 6.14967C6.6733 6.02272 6.56109 6.05899 6.44887 6.26756C6.1964 6.72096 5.93457 7.16529 5.65404 7.60962C5.53248 7.80005 5.59794 7.88166 5.76626 7.98141C6.13094 8.17184 6.47693 8.38947 6.84161 8.5799C7.1876 8.76126 7.33721 9.02423 7.26241 9.39602C7.19695 9.74967 7.19695 10.1033 7.26241 10.4479C7.33721 10.8197 7.1876 11.0827 6.84161 11.264C6.46758 11.4545 6.10289 11.6721 5.7382 11.8716C5.58859 11.9532 5.54183 12.0348 5.63534 12.198C5.92522 12.6605 6.1964 13.123 6.46758 13.5945C6.57044 13.7759 6.6733 13.8031 6.86032 13.6942C7.23435 13.4766 7.61774 13.268 7.99178 13.0504C8.26296 12.8872 8.52478 12.8872 8.77726 13.0776C9.12324 13.3406 9.50663 13.5492 9.90872 13.7124C10.208 13.8303 10.3295 14.0479 10.3295 14.3562C10.3202 14.7824 10.3389 15.1995 10.3295 15.6257C10.3202 15.8524 10.4137 15.925 10.6474 15.925C11.1524 15.9159 11.6573 15.9068 12.1716 15.925C12.4428 15.934 12.5176 15.8162 12.5176 15.5804C12.5083 15.1905 12.5176 14.8005 12.5176 14.4106C12.527 14.0388 12.686 13.7849 13.0693 13.658C13.4247 13.5401 13.7426 13.3315 14.0418 13.1048C14.3037 12.9053 14.5655 12.8781 14.8554 13.0413C15.2388 13.259 15.6315 13.4675 16.0242 13.6852C16.1926 13.7849 16.2954 13.7487 16.3983 13.5854C16.6601 13.132 16.9219 12.6877 17.1931 12.2524C17.324 12.0439 17.2679 11.926 17.0622 11.8172C16.6975 11.6267 16.3515 11.4182 15.9868 11.2187C15.7157 11.0736 15.5754 10.865 15.6034 10.5477C15.6409 10.1124 15.6409 9.67712 15.6034 9.24186C15.5754 8.92448 15.7157 8.72498 15.9962 8.57083C16.3422 8.3804 16.6882 8.17184 17.0341 7.99048C17.2679 7.87259 17.3334 7.74564 17.1744 7.50987C16.9032 7.09275 16.6508 6.66655 16.4076 6.23129C16.2954 6.03179 16.1832 5.99552 15.9868 6.1134C15.6408 6.3401 15.2949 6.51239 14.9676 6.71189C14.6029 6.93859 14.2756 6.93859 13.939 6.65748C13.6865 6.44892 13.3966 6.27663 13.088 6.17688C12.6579 6.04086 12.4989 5.75975 12.4989 5.34262C12.4989 4.9799 12.4896 4.60812 12.4989 4.2454C12.5083 3.97336 12.3961 3.87361 12.1249 3.89174C11.8911 3.91895 11.6573 3.90988 11.4236 3.90988ZM12.5083 25.265C13.9483 25.265 15.379 25.2559 16.8191 25.265C17.0996 25.265 17.2118 25.2378 17.0715 24.9386C16.5105 23.6872 16.099 22.3904 15.8092 21.0575C15.7531 20.7763 15.6502 20.8036 15.4632 20.9486C15.2201 21.1481 14.9676 21.3295 14.7058 21.5109C14.3504 21.7557 14.0418 21.7194 13.78 21.402C13.2003 20.6947 12.6298 19.9784 12.0688 19.262C11.807 18.9265 11.8537 18.6272 12.1904 18.3643C12.4148 18.1829 12.6579 18.0106 12.8823 17.8383C12.9665 17.7748 13.0506 17.7114 13.0132 17.5844C12.9478 17.3396 12.6018 17.0766 12.3306 17.0766C11.5451 17.0766 10.7503 17.0857 9.96483 17.0675C9.703 17.0675 9.60014 17.1492 9.60949 17.4031C9.63755 17.9562 9.57209 18.5003 9.50663 19.0444C9.26351 21.0756 8.75856 23.0433 7.91697 24.9204C7.79541 25.1925 7.83281 25.265 8.15075 25.265C9.60949 25.2559 11.0589 25.265 12.5083 25.265ZM12.4989 31.8484C14.4346 31.8484 16.3609 31.8484 18.2965 31.8484C19.2597 31.8484 19.2503 31.8484 19.269 30.9234C19.2784 30.5788 19.1849 30.3068 18.9604 30.0438C18.6425 29.672 18.3526 29.2912 18.0721 28.8922C17.9131 28.6655 17.7261 28.593 17.4549 28.593C14.3317 28.602 11.2085 28.6202 8.08529 28.5748C7.37462 28.5658 6.88837 28.7199 6.57044 29.3365C6.56109 29.3547 6.54238 29.3728 6.53303 29.3909C6.49563 29.4544 6.39277 29.5088 6.44887 29.5995C6.49563 29.6811 6.59849 29.6448 6.68265 29.6448C7.63644 29.6448 8.59024 29.6448 9.54403 29.6448C10.0116 29.6448 10.2641 29.8534 10.2547 30.2161C10.2547 30.5879 10.0022 30.7874 9.53468 30.7874C8.47803 30.7874 7.41202 30.7874 6.35536 30.7874C5.66339 30.7874 5.72885 30.7149 5.72885 31.395C5.72885 31.8393 5.72885 31.8393 6.20575 31.8393C8.30036 31.8484 10.4043 31.8484 12.4989 31.8484ZM21.4571 16.9769C21.4571 16.8136 21.4478 16.6595 21.4571 16.4963C21.4758 16.2423 21.3636 16.1426 21.1018 16.1607C20.8587 16.1789 20.6062 16.1698 20.3631 16.1789C20.0451 16.197 19.8301 16.061 19.6618 15.8071C19.5402 15.6076 19.428 15.399 19.2503 15.2539C18.8482 14.9275 18.8295 14.5738 18.9885 14.1204C19.2503 13.3587 19.2223 13.3678 18.4274 13.1502C18.1656 13.0776 18.0347 13.1502 17.9131 13.3678C17.6513 13.8393 17.3614 14.3018 17.0902 14.7643C16.791 15.2721 16.5198 15.3446 15.9868 15.0544C15.5754 14.8277 15.1733 14.592 14.7619 14.3653C14.5094 14.2293 13.7333 14.5194 13.7426 14.7733C13.7707 15.5804 13.4434 16.46 14.2008 17.131C14.285 17.2036 14.3411 17.3124 14.3972 17.4121C14.6029 17.793 14.5468 18.0469 14.2102 18.3189C13.9951 18.4912 13.7707 18.6635 13.5462 18.8267C13.4153 18.9265 13.3966 19.0081 13.5088 19.135C13.7707 19.4434 14.0231 19.7607 14.2663 20.0781C14.3785 20.2323 14.472 20.2232 14.6122 20.1053C14.8273 19.924 15.0611 19.7698 15.2762 19.5975C15.5006 19.4252 15.7344 19.3889 16.0055 19.5068C16.2954 19.6428 16.604 19.7245 16.9219 19.7698C17.2212 19.8061 17.4175 19.9693 17.5204 20.2413C17.6139 20.4952 17.7168 20.7582 17.8103 21.0121C17.857 21.1481 17.9318 21.2207 18.1001 21.1572C18.4835 21.0121 18.8763 20.8761 19.269 20.7491C19.456 20.6857 19.4654 20.5859 19.3999 20.4318C19.3064 20.196 19.2223 19.9602 19.1381 19.7245C19.0259 19.4161 19.0539 19.1532 19.2971 18.9083C19.456 18.7451 19.615 18.5547 19.6992 18.3461C19.8862 17.9018 20.2228 17.7839 20.681 17.7839C21.4758 17.793 21.4758 17.7839 21.4571 16.9769ZM12.4989 27.4595C14.0699 27.4595 15.6315 27.4504 17.2025 27.4685C17.4736 27.4685 17.6045 27.396 17.5671 27.1149C17.5578 27.0333 17.5671 26.9516 17.5671 26.8791C17.5671 26.4166 17.5671 26.4166 17.0809 26.4166C14.0886 26.4166 11.0963 26.4166 8.09464 26.4166C7.34656 26.4166 7.44942 26.326 7.42137 27.0514C7.41202 27.3869 7.53358 27.4776 7.86087 27.4685C9.40377 27.4504 10.956 27.4595 12.4989 27.4595Z" fill="#E04E39"/>
<path d="M1.23105 12.1436C1.31521 15.7617 2.81136 18.6907 5.78496 20.9033C5.86912 20.9668 5.95327 21.0212 6.03743 21.0937C6.31796 21.3295 6.38342 21.6559 6.18705 21.9189C5.98133 22.191 5.63534 22.2454 5.30806 22.0277C4.52258 21.4927 3.80256 20.8852 3.16669 20.1869C1.49288 18.3552 0.454921 16.2333 0.118287 13.8121C-0.34926 10.2847 0.567132 7.11088 2.90487 4.36328C4.95272 1.96026 7.60839 0.536586 10.7877 0.119459C14.4439 -0.352077 17.7355 0.572858 20.5688 2.8852C23 4.86202 24.4027 7.41919 24.8796 10.457C25.0479 11.5451 25.0292 12.6424 24.8889 13.7396C24.8328 14.1658 24.5523 14.3834 24.1689 14.329C23.8229 14.2746 23.6266 13.9844 23.6733 13.5854C24.1222 9.88569 22.9626 6.72096 20.1948 4.14565C18.4555 2.52248 16.3422 1.57034 13.939 1.2983C8.56219 0.672606 3.74645 3.54716 1.87626 8.47108C1.45547 9.56831 1.2404 10.8288 1.23105 12.1436Z" fill="#E04E39"/>
<path d="M3.15734 13.1955C3.45657 13.2046 3.65294 13.3678 3.7184 13.6308C3.97087 14.5376 4.34491 15.399 4.84051 16.2061C5.03688 16.5235 4.92467 16.868 4.62544 17.0313C4.33556 17.1854 4.00828 17.1038 3.81191 16.7955C3.25085 15.934 2.83941 15 2.58694 14.0026C2.46537 13.522 2.71785 13.1864 3.15734 13.1955Z" fill="#E04E39"/>
<path d="M6.89772 18.6635C6.90707 19.1078 6.43952 19.4161 6.05613 19.2167C5.69145 19.0262 5.38287 18.7633 5.15844 18.4187C5.00883 18.192 5.06493 17.9562 5.2426 17.7567C5.42027 17.5663 5.66339 17.5028 5.88782 17.6207C6.27121 17.8202 6.58914 18.1104 6.83226 18.464C6.87902 18.5275 6.88837 18.6182 6.89772 18.6635Z" fill="#E04E39"/>
<path d="M11.4236 7.7003C12.7234 7.7003 13.7239 8.67964 13.7239 9.94009C13.7146 11.1733 12.6953 12.1436 11.4142 12.1346C10.1518 12.1346 9.11389 11.128 9.12324 9.91289C9.12324 8.68871 10.1518 7.7003 11.4236 7.7003ZM12.4989 9.92196C12.4989 9.34161 12.0314 8.861 11.4516 8.85194C10.8719 8.84287 10.3389 9.35068 10.3295 9.91289C10.3295 10.466 10.8345 10.9738 11.3955 10.9829C11.994 11.001 12.4896 10.5204 12.4989 9.92196Z" fill="#E04E39"/>
<path d="M12.7795 30.7965C12.4989 30.7965 12.2184 30.8055 11.9285 30.7965C11.5732 30.7874 11.3488 30.5698 11.3394 30.2433C11.3301 29.9078 11.5638 29.663 11.9285 29.6539C12.4896 29.6448 13.06 29.6448 13.621 29.6539C13.9857 29.663 14.2195 29.9078 14.2102 30.2433C14.2008 30.5607 13.9764 30.7783 13.621 30.7965C13.3405 30.8055 13.06 30.7965 12.7795 30.7965Z" fill="#E04E39"/>
<path d="M17.0341 18.727C16.0616 18.727 15.3042 17.9834 15.3136 17.0585C15.3229 16.1517 16.0897 15.399 17.0248 15.399C17.9973 15.39 18.7547 16.1426 18.7547 17.1038C18.736 18.0197 17.9973 18.727 17.0341 18.727ZM17.0341 17.5663C17.296 17.5663 17.5578 17.3124 17.5578 17.0585C17.5578 16.8046 17.3334 16.596 17.0528 16.5869C16.7536 16.5779 16.5572 16.7592 16.5572 17.0403C16.5385 17.3305 16.7536 17.5663 17.0341 17.5663Z" fill="#E04E39"/>
</svg>
