<svg width="40" height="40" viewBox="0 0 40 40" fill="none" xmlns="http://www.w3.org/2000/svg">
<path d="M18.379 40C17.2158 39.8438 16.0472 39.7091 14.911 39.3751C7.36114 37.1343 2.43381 32.2323 0.602892 24.5724C-1.03955 17.6989 0.699823 11.5311 5.5033 6.306C8.35738 3.20324 11.9061 1.23708 16.0311 0.418299C21.1738 -0.599793 26.0365 0.23515 30.5277 2.98238C33.888 5.04011 36.4136 7.87892 38.1152 11.4288C39.133 13.5458 39.7523 15.7759 39.9462 18.1245C39.9515 18.2053 39.9785 18.2861 40 18.3669C40 19.4766 40 20.5862 40 21.6959C39.8815 22.4877 39.7954 23.285 39.6338 24.0714C38.9338 27.4651 37.4583 30.4816 35.1858 33.0996C32.4178 36.2885 28.9822 38.4109 24.8841 39.4506C23.834 39.7145 22.7678 39.8546 21.7016 40C20.5976 40 19.4883 40 18.379 40ZM19.3214 37.242C28.6429 37.716 37.2105 30.3847 37.2913 20.0906C37.3613 10.9386 30.1453 2.8531 20.0645 2.78307C11.0176 2.71843 2.93462 9.85585 2.8 19.8859C2.67614 29.1673 10.0268 36.908 19.3214 37.242Z" fill="#58595B"/>
<path d="M18.6805 13.3734C18.6805 10.8793 18.6859 8.38527 18.6752 5.88583C18.6752 5.50337 18.7613 5.33638 19.176 5.33638C19.8114 5.33638 20.4468 5.39564 21.0823 5.32561C21.4108 5.29329 21.4054 5.54647 21.4054 5.7781C21.4054 7.25945 21.4054 8.74618 21.4054 10.2275C21.4054 12.8455 21.4162 15.4688 21.3946 18.0868C21.3946 18.5069 21.5239 18.6308 21.9385 18.6308C25.0995 18.6147 28.2552 18.6201 31.4162 18.6201C32.0463 18.6201 32.0463 18.6308 32.0463 19.2772C32.0463 19.8159 32.0247 20.36 32.0517 20.8986C32.0678 21.2811 31.9332 21.3996 31.5562 21.3996C29.2999 21.3835 27.0382 21.3942 24.7818 21.3888C22.924 21.3888 21.0661 21.3781 19.2083 21.3942C18.7882 21.3996 18.6698 21.2703 18.6698 20.8502C18.6913 18.3669 18.6805 15.8674 18.6805 13.3734Z" fill="#58595B"/>
<path d="M8.09351 20.0314C8.09351 20.3761 8.08813 20.7209 8.09351 21.071C8.0989 21.2973 7.99658 21.3942 7.77041 21.3942C7.08112 21.3888 6.38645 21.3888 5.69716 21.3942C5.47099 21.3942 5.36867 21.3027 5.37406 21.071C5.37944 20.3815 5.37944 19.6866 5.37406 18.9971C5.37406 18.7763 5.46022 18.6847 5.69178 18.6685C6.39722 18.6201 7.09728 18.7224 7.80272 18.647C8.00197 18.6255 8.0989 18.7493 8.09351 18.9594C8.08813 19.315 8.09351 19.6759 8.09351 20.0314Z" fill="#58595B"/>
<path d="M21.4 33.3312C21.4 33.6329 21.3838 33.9399 21.4054 34.2416C21.4269 34.5702 21.3246 34.721 20.9638 34.7048C20.3445 34.6833 19.7199 34.6833 19.0952 34.7048C18.7613 34.7156 18.6644 34.5809 18.6698 34.2631C18.6859 33.6437 18.6859 33.0188 18.6752 32.3939C18.6698 32.1084 18.7452 31.9738 19.0629 31.963C19.7414 31.9361 20.4145 32.0222 21.0931 31.9468C21.2869 31.9253 21.4 32.033 21.3946 32.2485C21.3946 32.6148 21.4 32.9757 21.4 33.3312Z" fill="#58595B"/>
<path d="M12.0569 10.7447C11.7123 10.7447 11.3676 10.7393 11.0176 10.7447C10.786 10.75 10.6945 10.6477 10.6999 10.4215C10.7053 9.73196 10.7053 9.03707 10.6999 8.34757C10.6999 8.11594 10.7968 8.02436 11.023 8.02975C11.7123 8.03514 12.4069 8.03514 13.0962 8.02975C13.3278 8.02975 13.4193 8.12671 13.414 8.35295C13.4086 9.04245 13.4086 9.73734 13.414 10.4268C13.414 10.6585 13.317 10.75 13.0908 10.7447C12.7462 10.7393 12.4016 10.7447 12.0569 10.7447Z" fill="#58595B"/>
<path d="M28.0344 8.02436C28.3521 8.02436 28.6698 8.03514 28.9876 8.01898C29.2622 8.0082 29.3914 8.09978 29.386 8.39605C29.3753 9.05862 29.3807 9.72657 29.386 10.3891C29.386 10.6262 29.3053 10.75 29.0522 10.7447C28.3737 10.7393 27.6951 10.7393 27.0166 10.7447C26.7797 10.7447 26.6612 10.6639 26.6612 10.4107C26.672 9.72118 26.6666 9.02629 26.6612 8.33679C26.6612 8.09978 26.7743 8.02436 26.9951 8.02436C27.3451 8.02975 27.6898 8.02975 28.0344 8.02436Z" fill="#58595B"/>
<path d="M12.0569 29.3774C11.7123 29.3774 11.3676 29.372 11.0176 29.3774C10.7914 29.3827 10.6945 29.2804 10.6945 29.0542C10.6999 28.3647 10.6999 27.6698 10.6999 26.9803C10.6999 26.754 10.7968 26.6571 11.023 26.6571C11.7123 26.6625 12.4069 26.6625 13.0962 26.6571C13.3278 26.6571 13.4193 26.7594 13.414 26.9803C13.4086 27.6698 13.4086 28.3647 13.414 29.0542C13.414 29.2804 13.317 29.3774 13.0908 29.372C12.7462 29.372 12.4016 29.3774 12.0569 29.3774Z" fill="#58595B"/>
<path d="M27.9859 29.3828C27.6521 29.3828 27.3236 29.3774 26.9897 29.3828C26.7635 29.3881 26.6666 29.2858 26.6666 29.0595C26.672 28.37 26.672 27.6752 26.6666 26.9857C26.6666 26.7594 26.7581 26.6625 26.9897 26.6625C27.679 26.6678 28.3737 26.6678 29.0629 26.6625C29.2891 26.6625 29.3914 26.754 29.386 26.9857C29.3807 27.6752 29.3807 28.37 29.386 29.0595C29.386 29.2858 29.2945 29.3881 29.0629 29.3828C28.7021 29.372 28.3467 29.3774 27.9859 29.3828C27.9859 29.3774 27.9859 29.3774 27.9859 29.3828Z" fill="#58595B"/>
</svg>
