<svg width="22" height="21" viewBox="0 0 22 21" fill="none" xmlns="http://www.w3.org/2000/svg">
<path d="M1 10.3021L0.311704 9.57665C0.0148241 9.85834 -0.0804585 10.2925 0.0711756 10.6726C0.22281 11.0527 0.590754 11.3021 1 11.3021L1 10.3021ZM10.8039 1L11.4779 0.261248C11.0905 -0.0921465 10.496 -0.0863322 10.1156 0.274571L10.8039 1ZM21 10.3021V11.3021C21.4128 11.3021 21.7832 11.0484 21.9324 10.6635C22.0816 10.2786 21.9789 9.84156 21.674 9.56333L21 10.3021ZM18.8431 10.3021V9.30208C18.2909 9.30208 17.8431 9.7498 17.8431 10.3021H18.8431ZM18.8431 20V21C19.3954 21 19.8431 20.5523 19.8431 20H18.8431ZM2.96078 20H1.96078C1.96078 20.5523 2.4085 21 2.96078 21V20ZM2.96078 10.3021H3.96078C3.96078 9.7498 3.51307 9.30208 2.96078 9.30208V10.3021ZM15 1V0C14.4477 0 14 0.447715 14 1L15 1ZM20 1H21C21 0.447715 20.5523 0 20 0V1ZM1.6883 11.0275L11.4922 1.72543L10.1156 0.274571L0.311704 9.57665L1.6883 11.0275ZM10.1299 1.73875L20.326 11.0408L21.674 9.56333L11.4779 0.261248L10.1299 1.73875ZM21 9.30208H18.8431V11.3021H21V9.30208ZM17.8431 10.3021V20H19.8431V10.3021H17.8431ZM18.8431 19H2.96078V21H18.8431V19ZM3.96078 20V10.3021H1.96078V20H3.96078ZM2.96078 9.30208H1V11.3021H2.96078V9.30208ZM16 4.30556V1H14V4.30556H16ZM15 2H20V0H15V2ZM19 1V9H21V1H19Z" fill="#E04E39"/>
</svg>
