<svg width="19" height="24" viewBox="0 0 19 24" fill="none" xmlns="http://www.w3.org/2000/svg">
<path d="M9.03905 4.71824C9.03905 4.83238 9.02875 4.94652 9.03905 5.07104C9.05964 5.3097 8.95667 5.41347 8.70955 5.4446C7.47396 5.621 6.68113 6.3785 6.4649 7.60294C6.39282 8.00763 6.22808 8.13215 5.8574 8.08027C5.80592 8.06989 5.75443 8.08027 5.70295 8.08027C4.941 8.08027 4.941 8.08027 5.05426 7.33315C5.31168 5.621 6.85617 4.1579 8.5654 4.01262C9.02875 3.97112 9.03905 3.99187 9.03905 4.71824Z" fill="#E04E39"/>
<circle cx="9.5" cy="8.5" r="6.5" stroke="#E04E39" stroke-width="2"/>
<mask id="path-3-inside-1" fill="white">
<path d="M18.6009 12.2247C18.0203 14.1639 16.8355 15.8669 15.2192 17.0856C13.6029 18.3042 11.6396 18.9747 9.61548 18.9993C7.59138 19.0239 5.61235 18.4013 3.96688 17.2223C2.32142 16.0434 1.09556 14.3696 0.46803 12.4451L1.89501 11.9798C2.4234 13.6002 3.45558 15.0096 4.84107 16.0023C6.22656 16.995 7.89293 17.5192 9.59723 17.4985C11.3015 17.4778 12.9547 16.9132 14.3156 15.8871C15.6766 14.861 16.6742 13.427 17.163 11.7942L18.6009 12.2247Z"/>
</mask>
<path d="M18.6009 12.2247C18.0203 14.1639 16.8355 15.8669 15.2192 17.0856C13.6029 18.3042 11.6396 18.9747 9.61548 18.9993C7.59138 19.0239 5.61235 18.4013 3.96688 17.2223C2.32142 16.0434 1.09556 14.3696 0.46803 12.4451L1.89501 11.9798C2.4234 13.6002 3.45558 15.0096 4.84107 16.0023C6.22656 16.995 7.89293 17.5192 9.59723 17.4985C11.3015 17.4778 12.9547 16.9132 14.3156 15.8871C15.6766 14.861 16.6742 13.427 17.163 11.7942L18.6009 12.2247Z" stroke="#E04E39" stroke-width="4" mask="url(#path-3-inside-1)"/>
<path d="M10 18L10 22" stroke="#E04E39" stroke-width="2"/>
<path d="M5 22.5H14" stroke="#E04E39" stroke-width="2"/>
</svg>
