<svg width="20" height="20" viewBox="0 0 20 20" fill="none" xmlns="http://www.w3.org/2000/svg">
<path d="M19.9903 8.86387C19.9903 6.22668 19.9747 3.58949 20.0007 0.947094C20.0059 0.348915 19.4758 -0.218055 18.7273 0.0836353C16.9861 0.785846 15.2346 1.46205 13.4882 2.14865C13.3479 2.20587 13.2232 2.21107 13.0776 2.16426C10.8115 1.47245 8.5454 0.780644 6.28449 0.0836353C5.96744 -0.0151944 5.67118 -0.0255975 5.35933 0.120046C3.78448 0.848265 2.20964 1.57648 0.634797 2.2891C0.198206 2.48676 0.00070071 2.78845 0.00589822 3.27739C0.0162932 8.54137 0.011096 13.8054 0.011096 19.0693C0.011096 19.449 0.146232 19.7403 0.489267 19.912C0.743945 20.042 1.00382 20.016 1.2585 19.9016C2.14207 19.4959 3.03085 19.0901 3.91442 18.6844C4.53293 18.3983 5.15663 18.1174 5.77513 17.8314C5.87388 17.7845 5.95704 17.7897 6.0558 17.8158C8.35829 18.5232 10.6608 19.2202 12.9633 19.9276C13.2284 20.0108 13.483 20.0056 13.7429 19.9016C15.6192 19.163 17.5059 18.4243 19.3874 17.6805C19.8188 17.5089 19.9851 17.2488 19.9851 16.7806C19.9903 14.1435 19.9903 11.5063 19.9903 8.86387ZM18.2907 9.18116C18.2907 9.75334 18.2907 10.3255 18.2907 10.8977C18.2907 12.6194 18.2907 14.3411 18.2907 16.0628C18.2907 16.1877 18.2855 16.2865 18.14 16.3437C16.8666 16.8379 15.5984 17.3372 14.3302 17.8366C14.2055 17.8886 14.1691 17.8574 14.1743 17.7273C14.1795 17.3684 14.1795 17.0147 14.1743 16.6558C14.1639 16.1669 13.7897 15.8027 13.3167 15.8027C12.8489 15.8027 12.4799 16.1825 12.4747 16.6714C12.4695 17.0355 12.4747 17.3996 12.4747 17.7637C12.4747 18.003 12.4747 18.003 12.2512 17.9354C10.4945 17.3996 8.73771 16.8639 6.98095 16.3229C6.69509 16.2345 6.69509 16.2345 6.69509 15.9432C6.69509 13.9822 6.69509 12.016 6.69509 10.055C6.69509 9.53487 6.31567 9.13955 5.8271 9.14475C5.34374 9.14996 4.9955 9.53487 4.9955 10.0602C4.9955 11.1057 4.9955 12.1513 4.9955 13.202C4.9955 14.1747 4.9955 15.1526 4.9955 16.1252C4.9955 16.2241 5.0007 16.3125 4.88116 16.3645C3.86245 16.8275 2.84893 17.2956 1.83542 17.7637C1.71588 17.8158 1.70029 17.7689 1.70548 17.6701C1.71068 17.6077 1.70548 17.5401 1.70548 17.4777C1.70548 13.0407 1.71068 8.59859 1.69509 4.16166C1.69509 3.80275 1.78864 3.6311 2.12648 3.48546C3.32711 2.9653 4.51733 2.40353 5.70756 1.85217C5.82191 1.80015 5.93105 1.77414 6.06099 1.81055C8.13999 2.45035 10.219 3.08494 12.298 3.71432C12.4383 3.75594 12.4799 3.82356 12.4799 3.964C12.4747 4.56738 12.4747 5.17076 12.4799 5.77934C12.4799 5.87817 12.4799 5.9718 12.5059 6.07063C12.6202 6.47115 12.9997 6.74163 13.4051 6.69482C13.8417 6.648 14.1691 6.2995 14.1795 5.85737C14.1899 5.22798 14.1899 4.59859 14.1795 3.964C14.1743 3.77674 14.2471 3.68832 14.4134 3.6259C15.6348 3.15256 16.8562 2.66881 18.0776 2.19027C18.2959 2.10704 18.2959 2.10704 18.2959 2.34631C18.2907 4.61419 18.2907 6.89768 18.2907 9.18116Z" fill="#E04E39"/>
<path d="M10.7338 7.83939C10.4324 7.8758 10.1725 7.99543 10.0166 8.28672C9.84507 8.60402 9.87106 8.91611 10.079 9.2074C10.474 9.75876 10.869 10.2997 11.2692 10.8459C11.3627 10.9759 11.4615 11.106 11.5654 11.2308C11.8773 11.6053 12.3763 11.6677 12.7505 11.3868C13.1247 11.106 13.2079 10.6014 12.9272 10.2061C12.4386 9.52469 11.9397 8.85369 11.4407 8.17749C11.2692 7.95382 11.0301 7.85499 10.7338 7.83939Z" fill="#E04E39"/>
<path d="M15.8067 15.002C16.1809 15.002 16.498 14.7887 16.6175 14.4454C16.7423 14.0969 16.6487 13.7068 16.3369 13.4831C15.6716 13.0046 15.0427 12.4844 14.445 11.9278C14.1123 11.6157 13.5978 11.6521 13.2859 11.9746C12.9741 12.2971 12.9481 12.8121 13.2651 13.1398C13.894 13.79 14.5957 14.357 15.3441 14.8615C15.5157 14.9759 15.63 15.002 15.8067 15.002Z" fill="#E04E39"/>
<path d="M10.0485 6.76271C10.0589 6.52864 9.97575 6.32578 9.81463 6.16453C9.16494 5.48833 8.4165 4.95257 7.54852 4.58326C7.04436 4.36479 6.5402 4.63007 6.37908 5.03059C6.20237 5.47793 6.41027 5.95647 6.88844 6.15933C7.50694 6.41941 8.04228 6.79912 8.51006 7.28287C8.74914 7.53254 9.02981 7.66778 9.38324 7.59496C9.77825 7.50133 10.0485 7.16844 10.0485 6.76271Z" fill="#E04E39"/>
<path d="M3.32222 4.99935C3.31702 5.49349 3.75881 5.89922 4.25257 5.8576C4.4033 5.8472 4.54883 5.8368 4.69956 5.8316C5.21931 5.80559 5.60912 5.41547 5.57794 4.93693C5.54675 4.41677 5.13095 4.07867 4.59041 4.12549C4.3981 4.14109 4.2006 4.13069 4.00829 4.1671C3.61847 4.25032 3.32741 4.59363 3.32222 4.99935Z" fill="#E04E39"/>
</svg>
