<svg width="32" height="34" viewBox="0 0 32 34" fill="none" xmlns="http://www.w3.org/2000/svg">
<path d="M15.9922 33.9823C11.8182 33.9823 7.6407 33.9473 3.46669 33.9998C1.86992 34.0208 -0.00698383 32.3963 1.95401e-05 30.5407C0.0385381 22.7086 0.0140263 14.88 0.017528 7.05149C0.017528 5.20989 1.60729 3.61687 3.44218 3.60986C5.37511 3.60636 7.30454 3.60286 9.23747 3.61337C9.56663 3.61687 9.68218 3.51884 9.67168 3.18273C9.65067 2.4895 9.66118 1.79627 9.66818 1.10305C9.67168 0.437828 10.0744 0.0106884 10.6977 0.000184999C11.335 -0.0103184 11.7797 0.427325 11.7867 1.08554C11.7937 1.81378 11.7972 2.54202 11.7832 3.27025C11.7797 3.52584 11.8672 3.60986 12.1264 3.60986C14.7071 3.60286 17.2843 3.60286 19.8651 3.61337C20.1382 3.61337 20.2293 3.52234 20.2223 3.25275C20.2083 2.54902 20.2118 1.84179 20.2153 1.13806C20.2188 0.448331 20.6495 -0.00331615 21.2938 0.000184999C21.9136 0.00368614 22.3373 0.455334 22.3408 1.12755C22.3443 1.83128 22.3583 2.53851 22.3373 3.24224C22.3303 3.53984 22.4388 3.61337 22.719 3.61337C24.6869 3.60286 26.6514 3.60986 28.6193 3.60636C30.3316 3.60636 31.9879 5.22389 31.9914 6.92895C31.9949 14.0993 31.9949 21.2696 31.9949 28.44C31.9949 29.1682 31.9739 29.8965 31.9984 30.6247C32.0615 32.3403 30.2091 33.9998 28.6263 33.9893C24.4103 33.9648 20.2013 33.9823 15.9922 33.9823ZM16.0027 13.7842C11.5591 13.7842 7.11895 13.7842 2.67531 13.7842C2.13605 13.7842 2.13605 13.7842 2.13605 14.3374C2.13605 17.4954 2.13605 20.6534 2.13605 23.8115C2.13605 26.0452 2.13605 28.2754 2.13955 30.5092C2.13955 31.3914 2.46171 31.7521 3.33012 31.8466C3.46669 31.8606 3.60676 31.8606 3.74682 31.8606C11.9583 31.8606 20.1732 31.8606 28.3847 31.8606C28.6053 31.8606 28.8224 31.8396 29.0395 31.7906C29.4632 31.6925 29.7398 31.444 29.8029 30.9993C29.8309 30.8068 29.8589 30.6107 29.8589 30.4146C29.8624 25.0264 29.8624 19.6346 29.8624 14.2463C29.8624 13.7947 29.8624 13.7912 29.3967 13.7912C24.9355 13.7842 20.4709 13.7842 16.0027 13.7842ZM15.9852 11.6625C18.6465 11.6625 21.3043 11.6625 23.9656 11.6625C25.804 11.6625 27.6423 11.6625 29.4842 11.6625C29.6663 11.6625 29.8694 11.7045 29.8694 11.4069C29.8624 9.93994 29.8904 8.46945 29.8519 7.00247C29.8274 6.12369 29.4562 5.75607 28.6123 5.74556C26.6233 5.72456 24.6344 5.74206 22.6454 5.73506C22.4178 5.73506 22.3408 5.82609 22.3443 6.04316C22.3513 6.59984 22.3513 7.15302 22.3408 7.70971C22.3303 8.35041 21.8961 8.78456 21.2763 8.78806C20.6635 8.78806 20.2258 8.34341 20.2188 7.7062C20.2153 7.14952 20.2118 6.59634 20.2188 6.03966C20.2223 5.81909 20.1452 5.73156 19.9176 5.73156C17.3159 5.73506 14.7141 5.73506 12.1089 5.72806C11.8707 5.72806 11.7797 5.80508 11.7832 6.05016C11.7937 6.58234 11.7902 7.11451 11.7867 7.64668C11.7832 8.35742 11.377 8.78806 10.7222 8.78456C10.0849 8.78106 9.66818 8.33291 9.66117 7.63268C9.65767 7.13552 9.64017 6.63835 9.66818 6.14119C9.68569 5.81909 9.58064 5.72456 9.25848 5.72806C7.40959 5.74206 5.5572 5.73156 3.70831 5.73506C2.48972 5.73506 2.14305 6.08517 2.13955 7.31057C2.13955 8.6165 2.15006 9.92593 2.13255 11.2319C2.12905 11.554 2.20958 11.6695 2.55625 11.6695C7.03141 11.6555 11.5066 11.659 15.9852 11.6625Z" fill="#58595B"/>
<path d="M10.288 16.5889C10.7257 16.5889 11.1669 16.5959 11.6046 16.5854C11.8427 16.5784 11.9338 16.6729 11.9303 16.911C11.9198 17.5447 11.9198 18.1819 11.9303 18.8156C11.9338 19.0642 11.8287 19.1342 11.5976 19.1307C10.7187 19.1237 9.84327 19.1237 8.96435 19.1307C8.71222 19.1342 8.61418 19.0432 8.62118 18.7876C8.63169 18.1644 8.63169 17.5412 8.61768 16.918C8.61418 16.6554 8.72623 16.5749 8.97135 16.5819C9.41256 16.5959 9.85027 16.5889 10.288 16.5889Z" fill="#58595B"/>
<path d="M15.9747 16.5889C16.4124 16.5889 16.8537 16.5959 17.2914 16.5854C17.526 16.5819 17.624 16.6659 17.6205 16.9075C17.61 17.5412 17.6135 18.1784 17.6205 18.8121C17.624 19.0222 17.561 19.1342 17.3264 19.1307C16.4264 19.1237 15.5265 19.1272 14.6231 19.1307C14.406 19.1307 14.3079 19.0537 14.3114 18.8261C14.3184 18.1784 14.3184 17.5342 14.3079 16.8865C14.3044 16.6624 14.4025 16.5784 14.6196 16.5819C15.0748 16.5959 15.5265 16.5889 15.9747 16.5889Z" fill="#58595B"/>
<path d="M21.7455 16.5889C22.1832 16.5889 22.6244 16.5959 23.0621 16.5854C23.3037 16.5784 23.3842 16.6834 23.3842 16.9145C23.3772 17.5482 23.3772 18.1854 23.3842 18.8191C23.3877 19.0362 23.3002 19.1307 23.0796 19.1307C22.1797 19.1237 21.2797 19.1237 20.3763 19.1307C20.1487 19.1307 20.0716 19.0327 20.0752 18.8191C20.0822 18.1854 20.0822 17.5482 20.0752 16.9145C20.0716 16.6799 20.1522 16.5784 20.3973 16.5854C20.8455 16.5994 21.2972 16.5924 21.7455 16.5889Z" fill="#58595B"/>
<path d="M10.26 23.9868C9.82225 23.9868 9.38103 23.9798 8.94332 23.9903C8.70521 23.9973 8.61766 23.8993 8.62117 23.6647C8.63167 23.052 8.63167 22.4428 8.62467 21.8301C8.62116 21.613 8.7017 21.5185 8.92581 21.5185C9.82575 21.5255 10.7257 21.5255 11.6256 21.5185C11.8497 21.5185 11.9338 21.6095 11.9303 21.8266C11.9233 22.4498 11.9198 23.073 11.9268 23.6962C11.9303 23.9308 11.8182 23.9938 11.6081 23.9903C11.1599 23.9833 10.7082 23.9868 10.26 23.9868Z" fill="#58595B"/>
<path d="M15.9537 23.9868C15.516 23.9868 15.0747 23.9798 14.637 23.9903C14.3989 23.9973 14.3079 23.9028 14.3114 23.6647C14.3219 23.066 14.3219 22.4638 14.3149 21.8651C14.3114 21.6165 14.3919 21.5115 14.651 21.515C15.5265 21.5255 16.4054 21.5255 17.2843 21.515C17.5364 21.5115 17.6345 21.6025 17.6275 21.8581C17.617 22.4463 17.61 23.0345 17.6275 23.6227C17.6345 23.9203 17.5119 24.0008 17.2388 23.9903C16.8081 23.9763 16.3809 23.9868 15.9537 23.9868Z" fill="#58595B"/>
<path d="M21.7315 23.9868C21.2938 23.9868 20.8526 23.9798 20.4149 23.9903C20.1908 23.9938 20.0717 23.9308 20.0752 23.6787C20.0857 23.0555 20.0822 22.4323 20.0787 21.8091C20.0787 21.606 20.1557 21.515 20.3623 21.515C21.2728 21.5185 22.1867 21.5185 23.0972 21.515C23.3038 21.515 23.3843 21.6025 23.3843 21.8056C23.3773 22.4288 23.3738 23.052 23.3843 23.6752C23.3878 23.9238 23.2722 23.9938 23.0481 23.9868C22.6069 23.9798 22.1692 23.9868 21.7315 23.9868Z" fill="#58595B"/>
<path d="M10.2599 28.9164C9.83274 28.9164 9.40554 28.9094 8.97833 28.9199C8.74022 28.9269 8.61766 28.8534 8.62116 28.5873C8.63517 27.9746 8.62816 27.3619 8.62116 26.7527C8.61766 26.5321 8.7017 26.4411 8.92581 26.4411C9.82574 26.4481 10.7257 26.4481 11.6291 26.4411C11.8532 26.4411 11.9338 26.5391 11.9303 26.7562C11.9233 27.3689 11.9233 27.9816 11.9303 28.5908C11.9338 28.8254 11.8532 28.9234 11.6081 28.9199C11.1599 28.9059 10.7082 28.9164 10.2599 28.9164Z" fill="#58595B"/>
<path d="M15.9782 26.4446C16.4159 26.4446 16.8571 26.4516 17.2949 26.4411C17.5295 26.4376 17.6275 26.5251 17.624 26.7667C17.6135 27.3794 17.617 27.9921 17.6275 28.6013C17.631 28.8464 17.526 28.9199 17.2949 28.9199C16.4159 28.9129 15.5405 28.9129 14.6616 28.9199C14.4095 28.9234 14.3114 28.8324 14.3149 28.5768C14.3254 27.9781 14.3289 27.3759 14.3149 26.7772C14.3079 26.5146 14.4165 26.4341 14.6651 26.4411C15.0993 26.4551 15.5405 26.4446 15.9782 26.4446Z" fill="#58595B"/>
<path d="M21.6964 28.9164C21.2587 28.9164 20.8175 28.9094 20.3798 28.9199C20.1557 28.9234 20.0717 28.8289 20.0752 28.6118C20.0822 27.9886 20.0822 27.3654 20.0752 26.7422C20.0717 26.5111 20.1802 26.4446 20.3938 26.4446C21.2832 26.4516 22.1727 26.4516 23.0586 26.4446C23.2967 26.4411 23.3878 26.5356 23.3843 26.7702C23.3773 27.3689 23.3738 27.9711 23.3878 28.5698C23.3948 28.8499 23.2722 28.9304 23.0131 28.9234C22.5754 28.9094 22.1377 28.9199 21.6964 28.9164Z" fill="#58595B"/>
</svg>
