<svg width="38" height="38" viewBox="0 0 38 38" fill="none" xmlns="http://www.w3.org/2000/svg">
<path d="M1 7.90554C1.24803 7.11336 1.63607 6.42521 2.36815 5.97311C2.85621 5.66904 3.37626 5.497 3.96033 5.497C6.82865 5.501 9.69697 5.497 12.5653 5.501C13.0213 5.501 13.0333 5.51301 13.0333 5.97711C13.0333 6.21316 13.0173 6.44521 13.0333 6.68127C13.0533 6.97333 12.9253 7.07335 12.6413 7.06935C11.3772 7.06135 10.113 7.06935 8.84887 7.06935C7.2567 7.06935 5.66452 7.06535 4.07234 7.06935C3.06823 7.07335 2.55217 7.58147 2.55217 8.58169C2.54817 13.8749 2.55217 19.168 2.55217 24.4612C2.55217 24.9733 2.55617 24.9733 3.05223 24.9733C12.1852 24.9733 21.3183 24.9733 30.4513 24.9693C30.9313 24.9693 30.9313 24.9653 30.9313 24.4812C30.9353 22.8168 30.9353 21.1565 30.9353 19.4921C30.9353 19 30.9433 18.996 31.4154 18.992C32.5035 18.988 32.5035 18.988 32.5035 20.0722C32.5035 23.1969 32.5035 26.3256 32.4995 29.4503C32.4995 31.2067 31.1914 32.515 29.4432 32.519C26.6348 32.523 23.8225 32.519 21.0142 32.519C20.5422 32.519 20.5422 32.519 20.5422 32.9831C20.5422 33.6753 20.5542 34.3634 20.5382 35.0556C20.5302 35.3716 20.6542 35.4597 20.9502 35.4557C21.6743 35.4437 22.4024 35.4597 23.1265 35.4477C23.4145 35.4437 23.5265 35.5557 23.5105 35.8397C23.4905 36.2238 23.4945 36.6119 23.4865 36.996C18.99 36.996 14.4935 36.996 9.997 36.996C9.989 36.6239 10.001 36.2478 9.973 35.8757C9.94499 35.5237 10.097 35.4356 10.421 35.4437C11.1331 35.4637 11.8492 35.4397 12.5613 35.4517C12.8533 35.4557 12.9533 35.3436 12.9493 35.0596C12.9373 34.3834 12.9453 33.7033 12.9453 33.0231C12.9453 32.519 12.9413 32.515 12.4413 32.515C9.61296 32.515 6.78064 32.519 3.95233 32.511C2.88821 32.507 2.07612 32.0229 1.47605 31.1587C1.24803 30.8386 1.13602 30.4706 1 30.1105C1 22.7088 1 15.3072 1 7.90554ZM16.7377 26.5417C15.5656 26.5417 14.3975 26.5417 13.2254 26.5417C9.80498 26.5417 6.3886 26.5457 2.96822 26.5337C2.64818 26.5337 2.53617 26.6297 2.54017 26.9538C2.55617 27.822 2.54817 28.6862 2.54417 29.5543C2.54417 29.8824 2.62418 30.1825 2.8242 30.4425C3.14024 30.8546 3.57629 30.9587 4.06834 30.9587C7.66474 30.9547 11.2571 30.9547 14.8535 30.9547C19.7141 30.9547 24.5706 30.9587 29.4312 30.9547C30.4033 30.9547 30.9233 30.4265 30.9273 29.4503C30.9313 28.6301 30.9273 27.81 30.9273 26.9898C30.9273 26.5537 30.9153 26.5417 30.4713 26.5417C25.8948 26.5417 21.3183 26.5417 16.7377 26.5417ZM16.7458 32.523C16.1137 32.523 15.4816 32.527 14.8535 32.519C14.6295 32.515 14.5055 32.571 14.5095 32.8311C14.5215 33.6032 14.5175 34.3754 14.5135 35.1436C14.5135 35.3716 14.6095 35.4517 14.8295 35.4517C16.1017 35.4477 17.3778 35.4437 18.65 35.4477C18.894 35.4477 18.978 35.3516 18.974 35.1156C18.966 34.3674 18.962 33.6193 18.978 32.8711C18.986 32.587 18.87 32.511 18.606 32.515C17.9819 32.531 17.3658 32.523 16.7458 32.523Z" fill="#E04E39"/>
<path d="M29.5029 0.99997C33.7274 0.99997 36.9757 4.2847 36.9997 8.52164C37.0237 12.4385 33.9994 16.0393 29.4869 16.0433C25.1864 16.0473 21.9021 12.7586 21.9501 8.40161C22.0021 4.08866 25.4265 0.95596 29.5029 0.99997ZM29.3069 2.56432C29.0469 2.56032 28.6148 2.59632 28.1908 2.69235C24.1543 3.63255 22.2541 8.12555 24.4303 11.6503C25.5745 13.5027 27.3107 14.455 29.4749 14.471C31.3271 14.487 32.9153 13.7508 34.0754 12.2865C35.5156 10.4621 35.8796 8.44162 34.9235 6.26114C34.7395 5.84505 34.7275 5.84905 34.3914 6.18512C32.8433 7.73347 31.2911 9.28181 29.7469 10.8342C29.5789 11.0022 29.4549 11.1062 29.2349 10.8822C28.2348 9.86194 27.2227 8.85371 26.2065 7.84949C26.0385 7.68145 26.0145 7.55743 26.2025 7.38939C26.4186 7.19335 26.6306 6.9893 26.8226 6.76925C27.0066 6.56121 27.1426 6.57721 27.3347 6.77325C27.9547 7.41339 28.5948 8.02953 29.2149 8.66967C29.4069 8.86972 29.5309 8.86172 29.7269 8.66967C31.0271 7.35338 32.3352 6.04509 33.6514 4.7448C33.8754 4.52075 33.8674 4.38872 33.6354 4.18468C32.4432 3.14045 31.0831 2.54831 29.3069 2.56432Z" fill="#E04E39"/>
<path d="M11.457 17.4637C11.457 16.1074 11.465 14.7471 11.453 13.3908C11.449 13.0747 11.5411 12.9347 11.8691 12.9587C12.1251 12.9787 12.3852 12.9747 12.6412 12.9587C12.9292 12.9427 13.0332 13.0547 13.0292 13.3467C13.0212 14.575 13.0292 15.8033 13.0292 17.0316C13.0292 18.5519 13.0212 20.0722 13.0332 21.5966C13.0372 21.9246 12.9452 22.0767 12.5972 22.0487C12.3531 22.0287 12.1051 22.0287 11.8611 22.0487C11.5531 22.0687 11.449 21.9447 11.453 21.6406C11.461 20.2483 11.457 18.856 11.457 17.4637Z" fill="#E04E39"/>
<path d="M6.96069 18.9719C6.96069 18.1077 6.96869 17.2435 6.95669 16.3754C6.95269 16.0713 7.0567 15.9473 7.36074 15.9713C7.61677 15.9913 7.8768 15.9913 8.13282 15.9713C8.44086 15.9473 8.53687 16.0753 8.53687 16.3794C8.52487 17.9677 8.53287 19.5601 8.53287 21.1484C8.53287 21.3485 8.52887 21.5445 8.53287 21.7445C8.53687 21.9486 8.44086 22.0446 8.23684 22.0446C7.9328 22.0406 7.62877 22.0326 7.32473 22.0446C7.0487 22.0566 6.95269 21.9406 6.95669 21.6725C6.96469 20.7723 6.96069 19.8721 6.96069 18.9719Z" fill="#E04E39"/>
<path d="M20.4501 18.988C20.4501 18.1318 20.4661 17.2796 20.4421 16.4234C20.4341 16.0633 20.5661 15.9393 20.9101 15.9713C21.1422 15.9913 21.3782 15.9913 21.6102 15.9713C21.9143 15.9473 22.0263 16.0713 22.0223 16.3754C22.0103 17.4076 22.0183 18.4358 22.0183 19.4681C22.0183 20.1722 22.0183 20.8724 22.0143 21.5765C22.0143 22.0326 22.0023 22.0406 21.5342 22.0406C21.2982 22.0406 21.0662 22.0286 20.8301 22.0446C20.5421 22.0646 20.4341 21.9446 20.4381 21.6565C20.4581 20.7684 20.4501 19.8802 20.4501 18.988Z" fill="#E04E39"/>
<path d="M17.4777 7.06534C17.0816 7.06534 16.6816 7.05733 16.2856 7.06534C16.0455 7.06934 15.9495 6.96531 15.9535 6.72926C15.9615 6.42519 15.9575 6.12113 15.9535 5.81706C15.9495 5.60101 16.0295 5.49299 16.2616 5.49699C17.0816 5.50499 17.8977 5.50499 18.7178 5.50099C18.9259 5.50099 19.0139 5.58901 19.0099 5.79705C19.0019 6.12513 19.0059 6.4532 19.0099 6.78127C19.0139 6.99732 18.9058 7.07334 18.7058 7.06934C18.2938 7.06134 17.8857 7.06534 17.4777 7.06534Z" fill="#E04E39"/>
<path d="M17.5219 20.5203C17.5219 20.9164 17.5139 21.3165 17.5259 21.7126C17.5299 21.9526 17.4299 22.0526 17.1899 22.0446C16.8858 22.0366 16.5818 22.0406 16.2778 22.0446C16.0617 22.0486 15.9537 21.9686 15.9537 21.7366C15.9577 20.9204 15.9577 20.1002 15.9537 19.284C15.9537 19.076 16.0457 18.988 16.2498 18.992C16.5778 19 16.9058 19 17.2299 18.992C17.4419 18.988 17.5219 19.096 17.5179 19.292C17.5179 19.7001 17.5219 20.1082 17.5219 20.5203Z" fill="#E04E39"/>
<path d="M26.5188 20.5203C26.5188 20.9164 26.5108 21.3165 26.5228 21.7126C26.5268 21.9526 26.4228 22.0526 26.1867 22.0446C25.8827 22.0366 25.5787 22.0366 25.2746 22.0406C25.0586 22.0446 24.9506 21.9646 24.9506 21.7366C24.9546 20.9164 24.9546 20.1002 24.9506 19.28C24.9506 19.072 25.0466 18.984 25.2506 18.988C25.5787 18.996 25.9067 18.996 26.2347 18.992C26.4468 18.988 26.5268 19.092 26.5228 19.292C26.5148 19.7001 26.5148 20.1122 26.5188 20.5203Z" fill="#E04E39"/>
<path d="M16.7299 29.5503C16.0978 29.5503 15.4698 29.5423 14.8377 29.5543C14.5657 29.5583 14.4536 29.4583 14.4696 29.1862C14.4856 28.8942 14.4816 28.6021 14.4696 28.31C14.4616 28.066 14.5657 27.982 14.8057 27.982C16.1018 27.99 17.398 27.99 18.6981 27.986C18.9181 27.986 19.0182 28.066 19.0102 28.294C19.0022 28.5981 18.9981 28.9022 19.0142 29.2062C19.0262 29.4663 18.9141 29.5583 18.6621 29.5583C18.018 29.5463 17.374 29.5503 16.7299 29.5503Z" fill="#E04E39"/>
<path d="M1 7.90554C1.24803 7.11336 1.63607 6.42521 2.36815 5.97311C2.85621 5.66904 3.37626 5.497 3.96033 5.497C6.82865 5.501 9.69697 5.497 12.5653 5.501C13.0213 5.501 13.0333 5.51301 13.0333 5.97711C13.0333 6.21316 13.0173 6.44521 13.0333 6.68127C13.0533 6.97333 12.9253 7.07335 12.6413 7.06935C11.3772 7.06135 10.113 7.06935 8.84887 7.06935C7.2567 7.06935 5.66452 7.06535 4.07234 7.06935C3.06823 7.07335 2.55217 7.58147 2.55217 8.58169C2.54817 13.8749 2.55217 19.168 2.55217 24.4612C2.55217 24.9733 2.55617 24.9733 3.05223 24.9733C12.1852 24.9733 21.3183 24.9733 30.4513 24.9693C30.9313 24.9693 30.9313 24.9653 30.9313 24.4812C30.9353 22.8168 30.9353 21.1565 30.9353 19.4921C30.9353 19 30.9433 18.996 31.4154 18.992C32.5035 18.988 32.5035 18.988 32.5035 20.0722C32.5035 23.1969 32.5035 26.3256 32.4995 29.4503C32.4995 31.2067 31.1914 32.515 29.4432 32.519C26.6348 32.523 23.8225 32.519 21.0142 32.519C20.5422 32.519 20.5422 32.519 20.5422 32.9831C20.5422 33.6753 20.5542 34.3634 20.5382 35.0556C20.5302 35.3716 20.6542 35.4597 20.9502 35.4557C21.6743 35.4437 22.4024 35.4597 23.1265 35.4477C23.4145 35.4437 23.5265 35.5557 23.5105 35.8397C23.4905 36.2238 23.4945 36.6119 23.4865 36.996C18.99 36.996 14.4935 36.996 9.997 36.996C9.989 36.6239 10.001 36.2478 9.973 35.8757C9.94499 35.5237 10.097 35.4356 10.421 35.4437C11.1331 35.4637 11.8492 35.4397 12.5613 35.4517C12.8533 35.4557 12.9533 35.3436 12.9493 35.0596C12.9373 34.3834 12.9453 33.7033 12.9453 33.0231C12.9453 32.519 12.9413 32.515 12.4413 32.515C9.61296 32.515 6.78064 32.519 3.95233 32.511C2.88821 32.507 2.07612 32.0229 1.47605 31.1587C1.24803 30.8386 1.13602 30.4706 1 30.1105C1 22.7088 1 15.3072 1 7.90554ZM16.7377 26.5417C15.5656 26.5417 14.3975 26.5417 13.2254 26.5417C9.80498 26.5417 6.3886 26.5457 2.96822 26.5337C2.64818 26.5337 2.53617 26.6297 2.54017 26.9538C2.55617 27.822 2.54817 28.6862 2.54417 29.5543C2.54417 29.8824 2.62418 30.1825 2.8242 30.4425C3.14024 30.8546 3.57629 30.9587 4.06834 30.9587C7.66474 30.9547 11.2571 30.9547 14.8535 30.9547C19.7141 30.9547 24.5706 30.9587 29.4312 30.9547C30.4033 30.9547 30.9233 30.4265 30.9273 29.4503C30.9313 28.6301 30.9273 27.81 30.9273 26.9898C30.9273 26.5537 30.9153 26.5417 30.4713 26.5417C25.8948 26.5417 21.3183 26.5417 16.7377 26.5417ZM16.7458 32.523C16.1137 32.523 15.4816 32.527 14.8535 32.519C14.6295 32.515 14.5055 32.571 14.5095 32.8311C14.5215 33.6032 14.5175 34.3754 14.5135 35.1436C14.5135 35.3716 14.6095 35.4517 14.8295 35.4517C16.1017 35.4477 17.3778 35.4437 18.65 35.4477C18.894 35.4477 18.978 35.3516 18.974 35.1156C18.966 34.3674 18.962 33.6193 18.978 32.8711C18.986 32.587 18.87 32.511 18.606 32.515C17.9819 32.531 17.3658 32.523 16.7458 32.523Z" stroke="#E04E39" stroke-width="0.5"/>
<path d="M29.5029 0.99997C33.7274 0.99997 36.9757 4.2847 36.9997 8.52164C37.0237 12.4385 33.9994 16.0393 29.4869 16.0433C25.1864 16.0473 21.9021 12.7586 21.9501 8.40161C22.0021 4.08866 25.4265 0.95596 29.5029 0.99997ZM29.3069 2.56432C29.0469 2.56032 28.6148 2.59632 28.1908 2.69235C24.1543 3.63255 22.2541 8.12555 24.4303 11.6503C25.5745 13.5027 27.3107 14.455 29.4749 14.471C31.3271 14.487 32.9153 13.7508 34.0754 12.2865C35.5156 10.4621 35.8796 8.44162 34.9235 6.26114C34.7395 5.84505 34.7275 5.84905 34.3914 6.18512C32.8433 7.73347 31.2911 9.28181 29.7469 10.8342C29.5789 11.0022 29.4549 11.1062 29.2349 10.8822C28.2348 9.86194 27.2227 8.85371 26.2065 7.84949C26.0385 7.68145 26.0145 7.55743 26.2025 7.38939C26.4186 7.19335 26.6306 6.9893 26.8226 6.76925C27.0066 6.56121 27.1426 6.57721 27.3347 6.77325C27.9547 7.41339 28.5948 8.02953 29.2149 8.66967C29.4069 8.86972 29.5309 8.86172 29.7269 8.66967C31.0271 7.35338 32.3352 6.04509 33.6514 4.7448C33.8754 4.52075 33.8674 4.38872 33.6354 4.18468C32.4432 3.14045 31.0831 2.54831 29.3069 2.56432Z" stroke="#E04E39" stroke-width="0.5"/>
<path d="M11.457 17.4637C11.457 16.1074 11.465 14.7471 11.453 13.3908C11.449 13.0747 11.5411 12.9347 11.8691 12.9587C12.1251 12.9787 12.3852 12.9747 12.6412 12.9587C12.9292 12.9427 13.0332 13.0547 13.0292 13.3467C13.0212 14.575 13.0292 15.8033 13.0292 17.0316C13.0292 18.5519 13.0212 20.0722 13.0332 21.5966C13.0372 21.9246 12.9452 22.0767 12.5972 22.0487C12.3531 22.0287 12.1051 22.0287 11.8611 22.0487C11.5531 22.0687 11.449 21.9447 11.453 21.6406C11.461 20.2483 11.457 18.856 11.457 17.4637Z" stroke="#E04E39" stroke-width="0.5"/>
<path d="M6.96069 18.9719C6.96069 18.1077 6.96869 17.2435 6.95669 16.3754C6.95269 16.0713 7.0567 15.9473 7.36074 15.9713C7.61677 15.9913 7.8768 15.9913 8.13282 15.9713C8.44086 15.9473 8.53687 16.0753 8.53687 16.3794C8.52487 17.9677 8.53287 19.5601 8.53287 21.1484C8.53287 21.3485 8.52887 21.5445 8.53287 21.7445C8.53687 21.9486 8.44086 22.0446 8.23684 22.0446C7.9328 22.0406 7.62877 22.0326 7.32473 22.0446C7.0487 22.0566 6.95269 21.9406 6.95669 21.6725C6.96469 20.7723 6.96069 19.8721 6.96069 18.9719Z" stroke="#E04E39" stroke-width="0.5"/>
<path d="M20.4501 18.988C20.4501 18.1318 20.4661 17.2796 20.4421 16.4234C20.4341 16.0633 20.5661 15.9393 20.9101 15.9713C21.1422 15.9913 21.3782 15.9913 21.6102 15.9713C21.9143 15.9473 22.0263 16.0713 22.0223 16.3754C22.0103 17.4076 22.0183 18.4358 22.0183 19.4681C22.0183 20.1722 22.0183 20.8724 22.0143 21.5765C22.0143 22.0326 22.0023 22.0406 21.5342 22.0406C21.2982 22.0406 21.0662 22.0286 20.8301 22.0446C20.5421 22.0646 20.4341 21.9446 20.4381 21.6565C20.4581 20.7684 20.4501 19.8802 20.4501 18.988Z" stroke="#E04E39" stroke-width="0.5"/>
<path d="M17.4777 7.06534C17.0816 7.06534 16.6816 7.05733 16.2856 7.06534C16.0455 7.06934 15.9495 6.96531 15.9535 6.72926C15.9615 6.42519 15.9575 6.12113 15.9535 5.81706C15.9495 5.60101 16.0295 5.49299 16.2616 5.49699C17.0816 5.50499 17.8977 5.50499 18.7178 5.50099C18.9259 5.50099 19.0139 5.58901 19.0099 5.79705C19.0019 6.12513 19.0059 6.4532 19.0099 6.78127C19.0139 6.99732 18.9058 7.07334 18.7058 7.06934C18.2938 7.06134 17.8857 7.06534 17.4777 7.06534Z" stroke="#E04E39" stroke-width="0.5"/>
<path d="M17.5219 20.5203C17.5219 20.9164 17.5139 21.3165 17.5259 21.7126C17.5299 21.9526 17.4299 22.0526 17.1899 22.0446C16.8858 22.0366 16.5818 22.0406 16.2778 22.0446C16.0617 22.0486 15.9537 21.9686 15.9537 21.7366C15.9577 20.9204 15.9577 20.1002 15.9537 19.284C15.9537 19.076 16.0457 18.988 16.2498 18.992C16.5778 19 16.9058 19 17.2299 18.992C17.4419 18.988 17.5219 19.096 17.5179 19.292C17.5179 19.7001 17.5219 20.1082 17.5219 20.5203Z" stroke="#E04E39" stroke-width="0.5"/>
<path d="M26.5188 20.5203C26.5188 20.9164 26.5108 21.3165 26.5228 21.7126C26.5268 21.9526 26.4228 22.0526 26.1867 22.0446C25.8827 22.0366 25.5787 22.0366 25.2746 22.0406C25.0586 22.0446 24.9506 21.9646 24.9506 21.7366C24.9546 20.9164 24.9546 20.1002 24.9506 19.28C24.9506 19.072 25.0466 18.984 25.2506 18.988C25.5787 18.996 25.9067 18.996 26.2347 18.992C26.4468 18.988 26.5268 19.092 26.5228 19.292C26.5148 19.7001 26.5148 20.1122 26.5188 20.5203Z" stroke="#E04E39" stroke-width="0.5"/>
<path d="M16.7299 29.5503C16.0978 29.5503 15.4698 29.5423 14.8377 29.5543C14.5657 29.5583 14.4536 29.4583 14.4696 29.1862C14.4856 28.8942 14.4816 28.6021 14.4696 28.31C14.4616 28.066 14.5657 27.982 14.8057 27.982C16.1018 27.99 17.398 27.99 18.6981 27.986C18.9181 27.986 19.0182 28.066 19.0102 28.294C19.0022 28.5981 18.9981 28.9022 19.0142 29.2062C19.0262 29.4663 18.9141 29.5583 18.6621 29.5583C18.018 29.5463 17.374 29.5503 16.7299 29.5503Z" stroke="#E04E39" stroke-width="0.5"/>
</svg>
