<svg width="31" height="31" viewBox="0 0 31 31" fill="none" xmlns="http://www.w3.org/2000/svg">
<path d="M30.9982 1.66684C30.9982 2.01835 30.8715 2.32246 30.6498 2.58708C30.5587 2.69766 30.4518 2.80035 30.3489 2.90304C21.1718 12.0619 11.9908 21.2169 2.81764 30.3797C2.4059 30.7905 1.96644 31.0748 1.36071 30.9485C0.735177 30.8221 0.315517 30.439 0.105687 29.8544C-0.100184 29.2778 0.0265059 28.7525 0.454084 28.3062C0.509511 28.2509 0.564937 28.1956 0.620364 28.1404C9.81329 18.9696 19.0102 9.79887 28.2031 0.624176C28.4684 0.359559 28.7455 0.118639 29.1295 0.0475484C30.0955 -0.12623 31.0061 0.663671 30.9982 1.66684Z" fill="#58595B"/>
<path d="M30.9982 23.1956C31.0893 27.2162 27.7241 30.9682 23.2899 30.9998C18.927 31.0314 15.6212 27.3821 15.4668 23.5629C15.2887 19.1473 18.8518 15.498 23.088 15.423C27.5578 15.344 31.0695 19.0723 30.9982 23.1956ZM23.2028 27.8362C25.7802 27.8402 27.8587 25.7904 27.8666 23.239C27.8705 20.6797 25.8079 18.6102 23.2384 18.6023C20.669 18.5944 18.5866 20.6363 18.5707 23.2035C18.5549 25.897 20.8868 27.9192 23.2028 27.8362Z" fill="#58595B"/>
<path d="M7.71895 15.5217C3.85887 15.6797 -0.187283 12.1528 0.00671061 7.44102C0.165073 3.52706 3.46693 0.0238514 7.71895 0.000154406C12.1293 -0.0274921 15.6173 3.66134 15.5341 7.9426C15.451 12.2278 11.7295 15.6955 7.71895 15.5217ZM7.77042 12.3976C10.1063 12.4687 12.3906 10.4663 12.3867 7.78462C12.3827 5.05157 10.0825 3.10841 7.75062 3.15186C5.22475 3.19925 3.1502 5.2293 3.1502 7.75303C3.1502 10.3242 5.20891 12.3976 7.77042 12.3976Z" fill="#58595B"/>
</svg>
