<svg width="17" height="17" viewBox="0 0 17 17" fill="none" xmlns="http://www.w3.org/2000/svg">
<path fill-rule="evenodd" clip-rule="evenodd" d="M14.6013 1.53698C14.3728 1.53698 14.1536 1.62777 13.992 1.78937L6.84183 8.93951L6.43561 10.5644L8.06049 10.1582L15.2106 3.00803C15.3722 2.84643 15.463 2.62724 15.463 2.3987C15.463 2.17016 15.3722 1.95098 15.2106 1.78937C15.049 1.62777 14.8298 1.53698 14.6013 1.53698ZM12.9052 0.702563C13.355 0.25272 13.9651 0 14.6013 0C15.2375 0 15.8476 0.25272 16.2974 0.702563C16.7473 1.15241 17 1.76253 17 2.3987C17 3.03488 16.7473 3.645 16.2974 4.09484L8.99679 11.3955C8.8983 11.494 8.77489 11.5638 8.63977 11.5976L5.56581 12.3661C5.30393 12.4316 5.0269 12.3549 4.83602 12.164C4.64514 11.9731 4.56841 11.6961 4.63388 11.4342L5.40237 8.36023C5.43615 8.22511 5.50602 8.1017 5.60451 8.00321L12.9052 0.702563ZM0.675256 2.30547C1.10762 1.87311 1.69402 1.63021 2.30547 1.63021H7.68489C8.10932 1.63021 8.45338 1.97428 8.45338 2.3987C8.45338 2.82313 8.10932 3.16719 7.68489 3.16719H2.30547C2.10165 3.16719 1.90618 3.24816 1.76206 3.39228C1.61794 3.5364 1.53698 3.73186 1.53698 3.93568V14.6945C1.53698 14.8983 1.61794 15.0938 1.76206 15.2379C1.90618 15.3821 2.10165 15.463 2.30547 15.463H13.0643C13.2681 15.463 13.4636 15.3821 13.6077 15.2379C13.7518 15.0938 13.8328 14.8983 13.8328 14.6945V9.31511C13.8328 8.89068 14.1769 8.54662 14.6013 8.54662C15.0257 8.54662 15.3698 8.89068 15.3698 9.31511V14.6945C15.3698 15.306 15.1269 15.8924 14.6945 16.3247C14.2622 16.7571 13.6758 17 13.0643 17H2.30547C1.69402 17 1.10761 16.7571 0.675256 16.3247C0.242897 15.8924 0 15.306 0 14.6945V3.93568C0 3.32423 0.242897 2.73783 0.675256 2.30547Z" fill="white"/>
</svg>
