<svg width="37" height="37" viewBox="0 0 37 37" fill="none" xmlns="http://www.w3.org/2000/svg">
<path d="M17.0783 1C18.034 1 18.9896 1 19.949 1C21.1108 1.15366 22.2688 1.3298 23.3931 1.66335C24.6523 2.03813 25.8552 2.54407 27.0132 3.1587C27.2418 3.27863 27.2606 3.39107 27.0582 3.55597C26.8296 3.74335 26.601 3.93074 26.3874 4.13687C26.1888 4.33175 26.0089 4.35049 25.7503 4.22307C22.7485 2.71272 19.5705 2.19928 16.2426 2.65651C13.1471 3.0875 10.4451 4.39546 8.07659 6.41925C7.8255 6.63287 7.84799 6.76779 8.07284 6.98141C9.25334 8.10199 10.4188 9.23756 11.5918 10.3656C11.9516 10.7142 11.9516 10.7142 12.3489 10.4293C14.4438 8.94148 16.7298 8.08325 19.3419 8.28563C22.4374 8.52548 24.9183 9.90091 26.7996 12.3594C27.7478 13.5999 28.3586 15.0016 28.6547 16.5344C28.7034 16.7855 28.7559 16.9879 29.0894 16.9879C30.7721 16.9767 32.4585 16.9804 34.1412 16.9804C34.3885 16.9804 34.4935 16.883 34.456 16.6244C34.1674 14.4844 33.5828 12.4419 32.4885 10.5605C32.125 9.93839 32.11 10.1108 32.6197 9.58235C32.7321 9.46617 32.8558 9.36498 32.9532 9.2413C33.1593 8.98271 33.2905 9.03518 33.4516 9.30502C34.2986 10.7329 34.9619 12.2358 35.4079 13.836C35.7039 14.8929 35.8538 15.9723 36 17.0516C36 18.0073 36 18.963 36 19.9224C35.985 20.0123 35.9588 20.0985 35.9513 20.1885C35.7789 21.875 35.3816 23.5052 34.7408 25.0756C31.8327 32.2 24.6335 36.6036 16.9659 35.9328C12.8398 35.5693 9.25709 33.939 6.32646 31.0345C2.09167 26.8258 0.352776 21.7063 1.21473 15.7774C2.23782 8.75035 7.80302 2.86638 14.7248 1.38227C15.5043 1.21362 16.2913 1.11993 17.0783 1ZM27.2306 18.5245C27.1931 13.7424 23.4568 9.83345 18.5999 9.78473C13.7542 9.73226 9.80049 13.5737 9.80799 18.5207C9.81548 23.2916 13.6193 27.1331 18.4612 27.2005C23.2282 27.2642 27.1856 23.3254 27.2306 18.5245ZM18.5099 34.4712C19.1245 34.4787 19.7391 34.4524 20.35 34.3775C20.8334 34.3175 21.3206 34.2538 21.7966 34.1451C26.8259 33.0095 30.5285 30.1463 32.867 25.5553C33.9201 23.4865 34.4335 21.2678 34.4897 18.9442C34.4972 18.6219 34.3998 18.502 34.0625 18.5057C32.4248 18.5207 30.7833 18.5132 29.1456 18.5057C28.8721 18.5057 28.7409 18.6032 28.7371 18.8768C28.7371 18.978 28.7184 19.0792 28.7109 19.1841C28.3924 22.9169 26.6122 25.7164 23.3331 27.5266C21.6092 28.4785 19.7354 28.8271 17.7642 28.6996C16.0253 28.5872 14.4063 28.1225 12.9447 27.163C12.7161 27.0131 12.6187 27.0731 12.4838 27.2642C11.5206 28.6172 10.5538 29.9701 9.57563 31.3118C9.3995 31.5517 9.44821 31.6604 9.68057 31.814C12.3676 33.5605 15.302 34.4674 18.5099 34.4712ZM2.52639 18.7868C2.5039 19.1504 2.54887 19.7762 2.63132 20.3946C3.15598 24.3335 4.90612 27.6278 7.86298 30.2812C8.08783 30.4836 8.219 30.4761 8.39888 30.2287C9.392 28.8833 10.3926 27.5416 11.4007 26.2074C11.5656 25.99 11.5469 25.8663 11.352 25.6714C8.86734 23.2054 7.89296 20.2297 8.43261 16.7743C8.70244 15.0503 9.47445 13.5325 10.49 12.1346C10.6812 11.8722 10.6962 11.6998 10.4451 11.475C10.0328 11.1002 9.65059 10.6917 9.25709 10.2982C8.50007 9.54113 7.73931 8.79157 6.99353 8.02329C6.77617 7.79842 6.62627 7.80592 6.45763 8.04952C6.42015 8.10574 6.36768 8.15071 6.32271 8.20318C3.83055 11.1939 2.52264 14.6156 2.52639 18.7868Z" fill="#E04E39"/>
<path d="M30.2928 7.66351C30.2441 7.62228 30.1804 7.57731 30.1317 7.52109C29.7194 7.01889 29.2622 6.56541 28.7563 6.16066C28.5839 6.02199 28.5727 5.90206 28.7376 5.7484C28.9699 5.53103 29.191 5.30242 29.4121 5.07756C29.5433 4.94264 29.6595 4.95388 29.7906 5.08505C30.2441 5.54228 30.7013 5.9995 31.1623 6.45298C31.3197 6.60664 31.3534 6.74156 31.1698 6.90646C30.9524 7.10509 30.75 7.32246 30.5402 7.52859C30.4764 7.58855 30.4127 7.65976 30.2928 7.66351Z" fill="#E04E39"/>
<path d="M17.0783 1C18.034 1 18.9896 1 19.949 1C21.1108 1.15366 22.2688 1.3298 23.3931 1.66335C24.6523 2.03813 25.8552 2.54407 27.0132 3.1587C27.2418 3.27863 27.2606 3.39107 27.0582 3.55597C26.8296 3.74335 26.601 3.93074 26.3874 4.13687C26.1888 4.33175 26.0089 4.35049 25.7503 4.22307C22.7485 2.71272 19.5705 2.19928 16.2426 2.65651C13.1471 3.0875 10.4451 4.39546 8.07659 6.41925C7.8255 6.63287 7.84799 6.76779 8.07284 6.98141C9.25334 8.10199 10.4188 9.23756 11.5918 10.3656C11.9516 10.7142 11.9516 10.7142 12.3489 10.4293C14.4438 8.94148 16.7298 8.08325 19.3419 8.28563C22.4374 8.52548 24.9183 9.90091 26.7996 12.3594C27.7478 13.5999 28.3586 15.0016 28.6547 16.5344C28.7034 16.7855 28.7559 16.9879 29.0894 16.9879C30.7721 16.9767 32.4585 16.9804 34.1412 16.9804C34.3885 16.9804 34.4935 16.883 34.456 16.6244C34.1674 14.4844 33.5828 12.4419 32.4885 10.5605C32.125 9.93839 32.11 10.1108 32.6197 9.58235C32.7321 9.46617 32.8558 9.36498 32.9532 9.2413C33.1593 8.98271 33.2905 9.03518 33.4516 9.30502C34.2986 10.7329 34.9619 12.2358 35.4079 13.836C35.7039 14.8929 35.8538 15.9723 36 17.0516C36 18.0073 36 18.963 36 19.9224C35.985 20.0123 35.9588 20.0985 35.9513 20.1885C35.7789 21.875 35.3816 23.5052 34.7408 25.0756C31.8327 32.2 24.6335 36.6036 16.9659 35.9328C12.8398 35.5693 9.25709 33.939 6.32646 31.0345C2.09167 26.8258 0.352776 21.7063 1.21473 15.7774C2.23782 8.75035 7.80302 2.86638 14.7248 1.38227C15.5043 1.21362 16.2913 1.11993 17.0783 1ZM27.2306 18.5245C27.1931 13.7424 23.4568 9.83345 18.5999 9.78473C13.7542 9.73226 9.80049 13.5737 9.80799 18.5207C9.81548 23.2916 13.6193 27.1331 18.4612 27.2005C23.2282 27.2642 27.1856 23.3254 27.2306 18.5245ZM18.5099 34.4712C19.1245 34.4787 19.7391 34.4524 20.35 34.3775C20.8334 34.3175 21.3206 34.2538 21.7966 34.1451C26.8259 33.0095 30.5285 30.1463 32.867 25.5553C33.9201 23.4865 34.4335 21.2678 34.4897 18.9442C34.4972 18.6219 34.3998 18.502 34.0625 18.5057C32.4248 18.5207 30.7833 18.5132 29.1456 18.5057C28.8721 18.5057 28.7409 18.6032 28.7371 18.8768C28.7371 18.978 28.7184 19.0792 28.7109 19.1841C28.3924 22.9169 26.6122 25.7164 23.3331 27.5266C21.6092 28.4785 19.7354 28.8271 17.7642 28.6996C16.0253 28.5872 14.4063 28.1225 12.9447 27.163C12.7161 27.0131 12.6187 27.0731 12.4838 27.2642C11.5206 28.6172 10.5538 29.9701 9.57563 31.3118C9.3995 31.5517 9.44821 31.6604 9.68057 31.814C12.3676 33.5605 15.302 34.4674 18.5099 34.4712ZM2.52639 18.7868C2.5039 19.1504 2.54887 19.7762 2.63132 20.3946C3.15598 24.3335 4.90612 27.6278 7.86298 30.2812C8.08783 30.4836 8.219 30.4761 8.39888 30.2287C9.392 28.8833 10.3926 27.5416 11.4007 26.2074C11.5656 25.99 11.5469 25.8663 11.352 25.6714C8.86734 23.2054 7.89296 20.2297 8.43261 16.7743C8.70244 15.0503 9.47445 13.5325 10.49 12.1346C10.6812 11.8722 10.6962 11.6998 10.4451 11.475C10.0328 11.1002 9.65059 10.6917 9.25709 10.2982C8.50007 9.54113 7.73931 8.79157 6.99353 8.02329C6.77617 7.79842 6.62627 7.80592 6.45763 8.04952C6.42015 8.10574 6.36768 8.15071 6.32271 8.20318C3.83055 11.1939 2.52264 14.6156 2.52639 18.7868Z" stroke="#E04E39" stroke-width="0.5"/>
<path d="M30.2928 7.66351C30.2441 7.62228 30.1804 7.57731 30.1317 7.52109C29.7194 7.01889 29.2622 6.56541 28.7563 6.16066C28.5839 6.02199 28.5727 5.90206 28.7376 5.7484C28.9699 5.53103 29.191 5.30242 29.4121 5.07756C29.5433 4.94264 29.6595 4.95388 29.7906 5.08505C30.2441 5.54228 30.7013 5.9995 31.1623 6.45298C31.3197 6.60664 31.3534 6.74156 31.1698 6.90646C30.9524 7.10509 30.75 7.32246 30.5402 7.52859C30.4764 7.58855 30.4127 7.65976 30.2928 7.66351Z" stroke="#E04E39" stroke-width="0.5"/>
</svg>
