<svg width="50" height="50" viewBox="0 0 50 50" fill="none" xmlns="http://www.w3.org/2000/svg">
<rect width="50" height="50" rx="10" fill="#F7F9FA"/>
<path d="M25.625 21.875C25.625 21.7092 25.5592 21.5503 25.442 21.4331C25.3248 21.3158 25.1658 21.25 25 21.25C24.8343 21.25 24.6753 21.3158 24.5581 21.4331C24.4409 21.5503 24.375 21.7092 24.375 21.875V26.0775L22.5888 29.0525C22.5034 29.1947 22.478 29.365 22.5182 29.526C22.5584 29.6869 22.6609 29.8253 22.8032 29.9106C22.9454 29.996 23.1157 30.0214 23.2766 29.9812C23.4375 29.941 23.5759 29.8385 23.6613 29.6962L25.5363 26.5712C25.5944 26.4742 25.6251 26.3631 25.625 26.25V21.875Z" fill="#C9D1D1"/>
<path d="M23.125 15C22.9592 15 22.8003 15.0658 22.6831 15.1831C22.5658 15.3003 22.5 15.4592 22.5 15.625C22.5 15.7908 22.5658 15.9497 22.6831 16.0669C22.8003 16.1842 22.9592 16.25 23.125 16.25H23.75V17.5875C22.0478 17.8334 20.4559 18.5754 19.173 19.7208C17.8901 20.8663 16.9731 22.3643 16.5366 24.0278C16.1001 25.6913 16.1635 27.4466 16.7188 29.0743C17.274 30.702 18.2966 32.1301 19.6588 33.18L18.9062 33.9325C18.7889 34.0497 18.7229 34.2087 18.7228 34.3746C18.7227 34.5404 18.7884 34.6995 18.9056 34.8169C19.0228 34.9342 19.1818 35.0002 19.3477 35.0003C19.5135 35.0005 19.6726 34.9347 19.79 34.8175L20.7225 33.885C22.0288 34.6182 23.502 35.0022 25 35C26.498 35.0022 27.9712 34.6182 29.2775 33.885L30.21 34.8175C30.3274 34.9347 30.4865 35.0005 30.6523 35.0003C30.8182 35.0002 30.9772 34.9342 31.0944 34.8169C31.2116 34.6995 31.2773 34.5404 31.2772 34.3746C31.2771 34.2087 31.2111 34.0497 31.0938 33.9325L30.3425 33.18C31.7047 32.13 32.7272 30.7018 33.2824 29.074C33.8377 27.4462 33.9009 25.6909 33.4643 24.0273C33.0276 22.3638 32.1105 20.8658 30.8274 19.7204C29.5444 18.5751 27.9523 17.8332 26.25 17.5875V16.25H26.875C27.0408 16.25 27.1997 16.1842 27.3169 16.0669C27.4342 15.9497 27.5 15.7908 27.5 15.625C27.5 15.4592 27.4342 15.3003 27.3169 15.1831C27.1997 15.0658 27.0408 15 26.875 15H23.125ZM24.4225 18.7725C24.8069 18.7433 25.1931 18.7433 25.5775 18.7725C27.5108 18.9218 29.3112 19.8141 30.6008 21.2622C31.8905 22.7103 32.5691 24.6015 32.4944 26.5392C32.4197 28.4769 31.5974 30.3103 30.2001 31.6547C28.8028 32.9992 26.9391 33.7502 25 33.7502C23.0609 33.7502 21.1972 32.9992 19.7999 31.6547C18.4026 30.3103 17.5803 28.4769 17.5056 26.5392C17.4309 24.6015 18.1095 22.7103 19.3992 21.2622C20.6888 19.8141 22.4892 18.9218 24.4225 18.7725ZM15 19.375C15 20.3162 15.4163 21.1613 16.075 21.7338C17.0397 19.8337 18.5837 18.2897 20.4838 17.325C20.0661 16.8444 19.5116 16.5029 18.8945 16.3461C18.2774 16.1893 17.6271 16.2248 17.0307 16.4477C16.4343 16.6707 15.9203 17.0705 15.5574 17.5936C15.1944 18.1168 15 18.7383 15 19.375ZM31.875 16.25C30.9338 16.25 30.0887 16.6662 29.5162 17.325C31.4163 18.2897 32.9603 19.8337 33.925 21.7338C34.4056 21.3161 34.7471 20.7616 34.9039 20.1445C35.0607 19.5274 35.0252 18.8771 34.8023 18.2807C34.5793 17.6843 34.1795 17.1703 33.6564 16.8074C33.1332 16.4444 32.5117 16.25 31.875 16.25Z" fill="#C9D1D1"/>
</svg>
