<svg width="38" height="39" viewBox="0 0 38 39" fill="none" xmlns="http://www.w3.org/2000/svg">
<path d="M0 27.8343C0.19965 26.8337 0.576766 25.9241 1.22008 25.1509C3.81553 21.99 8.74022 22.7859 10.2487 26.629C10.8033 28.039 10.7811 29.4716 10.2709 30.8815C10.16 31.1771 9.98248 31.4046 9.78283 31.632C8.74022 32.7917 8.16345 34.1562 8.11909 35.748C8.07472 36.9532 7.52014 38.4541 5.87857 38.9317C5.50146 38.9317 5.14653 38.9317 4.76941 38.9317C4.45884 38.7952 4.14828 38.6815 3.88208 38.4768C2.99475 37.7719 2.59545 36.8168 2.5289 35.6798C2.44016 34.1789 1.92995 32.8599 0.931699 31.7684C0.465849 31.2454 0.221833 30.6541 0.0887332 29.9946C0.0665499 29.9037 0.0443666 29.8127 0.0221833 29.7445C0 29.1078 0 28.471 0 27.8343ZM9.18389 28.8576C9.18389 28.7667 9.18389 28.6757 9.18389 28.5847C9.22825 26.3334 7.07647 24.1049 4.41448 24.7416C1.90776 25.3328 0.842965 27.9935 1.61938 30.2448C1.68593 30.4267 1.79685 30.5632 1.92995 30.6996C3.21658 32.0185 3.85989 33.6331 3.97081 35.4978C3.99299 36.0663 4.12609 36.6349 4.52539 37.0669C5.03561 37.6354 5.74547 37.6127 6.21132 37.0215C6.52189 36.6349 6.65499 36.18 6.67717 35.6798C6.74372 33.8605 7.43141 32.2459 8.58494 30.8815C8.96205 30.4267 9.13952 29.9492 9.18389 29.3806C9.18389 29.2442 9.18389 29.0623 9.18389 28.8576Z" fill="#E04E39"/>
<path d="M32.0549 38.9545C30.5242 38.3405 29.9475 37.1125 29.8587 35.498C29.7922 34.1335 29.282 32.8828 28.3724 31.8822C27.7513 31.2 27.4407 30.4268 27.3742 29.54C27.1524 27.2432 27.8844 25.3784 29.7922 24.0595C31.6556 22.7633 34.4063 22.968 36.1144 24.4916C37.1349 25.4012 37.7116 26.5382 38 27.8572C38 28.4939 38 29.1306 38 29.7674C37.9556 29.972 37.9113 30.1767 37.8669 30.4041C37.756 30.8134 37.6229 31.2227 37.2901 31.5411C36.1144 32.6554 35.5377 34.0653 35.4489 35.6799C35.3602 37.249 34.7612 38.4087 33.2528 39C32.8535 38.9545 32.4542 38.9545 32.0549 38.9545ZM28.7939 28.7668C28.7939 28.926 28.7939 29.0624 28.7939 29.2216C28.8383 29.8356 28.927 30.4268 29.4372 30.8589C29.7256 31.109 29.9475 31.4274 30.1471 31.7685C30.9013 32.9738 31.3228 34.2927 31.3672 35.7481C31.3894 36.3166 31.5668 36.8169 31.9883 37.2035C32.4098 37.6128 32.92 37.6356 33.3637 37.249C33.7852 36.8851 34.007 36.3848 34.0292 35.8163C34.0957 33.9289 34.7834 32.2916 35.9813 30.8816C36.2697 30.5405 36.4694 30.1767 36.5137 29.7446C36.5803 29.1761 36.6246 28.6303 36.5359 28.0391C36.2253 25.856 34.0736 24.2642 31.944 24.6962C30.0806 25.1056 28.7939 26.7201 28.7939 28.7668Z" fill="#E04E39"/>
<path d="M20.0315 0C21.2516 0.318367 22.2055 1.00058 22.7379 2.22857C23.4255 3.84314 22.9153 5.79882 21.4956 6.79941C20.0537 7.82273 18.0794 7.68629 16.8593 6.4583C14.6853 4.32069 15.5061 0.9551 18.3899 0.090962C18.4565 0.0682215 18.5452 0.0227405 18.634 0C19.0998 0 19.5657 0 20.0315 0ZM21.5843 3.7067C21.6065 2.41049 20.6083 1.40991 19.3216 1.38717C18.1016 1.38717 17.0589 2.43323 17.0589 3.68396C17.0589 4.95743 18.035 5.98075 19.2995 5.98075C20.6083 5.98075 21.5843 5.02565 21.5843 3.7067Z" fill="#E04E39"/>
<path d="M13.9977 14.4402C14.0198 11.6204 15.7945 9.41453 18.4343 8.91423C21.3847 8.34572 24.3794 10.6653 24.6678 13.7352C24.7344 14.4174 24.69 15.0769 24.5791 15.7364C24.4682 16.3504 24.202 16.8734 23.7583 17.351C22.7601 18.397 22.2055 19.6932 22.1389 21.1714C22.0946 21.99 21.9171 22.7632 21.4513 23.4681C20.3199 25.1282 18.0572 25.0145 17.0811 23.2635C16.7262 22.6267 16.5709 21.9218 16.5266 21.1941C16.46 19.7387 15.9276 18.4652 14.9737 17.4192C14.4413 16.8279 14.1973 16.1685 14.0864 15.418C14.042 15.0769 13.9755 14.7585 13.9977 14.4402ZM23.2703 14.5766C23.2481 11.6658 20.8523 9.73289 18.3234 10.4378C16.3935 10.9609 15.0846 13.053 15.4174 15.0769C15.4839 15.5317 15.5283 15.9865 15.8611 16.3276C17.2142 17.7148 17.9019 19.4203 17.9685 21.376C17.9907 21.8536 18.1238 22.3084 18.4121 22.6722C18.9002 23.3317 19.6766 23.3544 20.1868 22.7177C20.4974 22.3311 20.6527 21.8763 20.6748 21.3988C20.7192 19.6023 21.3625 18.0559 22.4939 16.737C23.0706 16.0093 23.2703 15.2816 23.2703 14.5766Z" fill="#E04E39"/>
<path d="M32.7204 21.8536C30.7239 21.8536 28.9936 20.1026 28.9936 18.1015C28.9936 16.0776 30.7017 14.372 32.7204 14.372C34.7612 14.372 36.425 16.0548 36.425 18.1015C36.4472 20.1254 34.7612 21.8536 32.7204 21.8536ZM32.7204 20.3073C34.007 20.3073 35.0052 19.3294 35.0052 18.0787C35.0052 16.828 34.007 15.7819 32.7647 15.7819C31.4781 15.7819 30.4355 16.7825 30.4355 18.0332C30.4355 19.284 31.4337 20.2845 32.7204 20.3073Z" fill="#E04E39"/>
<path d="M5.324 21.8536C3.3275 21.8309 1.5972 20.0799 1.61939 18.1015C1.64157 16.0548 3.3275 14.3265 5.34618 14.372C7.47578 14.4175 9.02861 15.9866 9.05079 18.1697C9.05079 20.1936 7.32049 21.8764 5.324 21.8536ZM5.34618 20.2846C6.65499 20.2618 7.63106 19.3067 7.60887 18.0105C7.58669 16.737 6.56626 15.7592 5.23526 15.7592C4.01518 15.7592 3.03912 16.8053 3.03912 18.056C3.08348 19.3295 4.05955 20.3073 5.34618 20.2846Z" fill="#E04E39"/>
<path d="M18.9889 34.8157C21.8506 34.8157 24.69 34.8157 27.5517 34.8157C28.0397 34.8157 28.0397 34.8384 28.0397 35.3387C28.0397 36.2028 28.0397 36.2028 27.2189 36.2483C26.5534 36.2711 25.8657 36.2483 25.1781 36.2483C24.3351 36.2483 23.4699 36.2711 22.627 36.2711C22.028 36.2711 21.4291 36.2711 20.8079 36.2711C19.965 36.2711 19.0998 36.2711 18.2569 36.2711C17.6135 36.2711 16.9702 36.2711 16.3269 36.2711C15.5283 36.2711 14.7519 36.2711 13.9533 36.2711C13.1991 36.2711 12.4448 36.2711 11.6906 36.2711C11.2026 36.2711 10.7145 36.2711 10.2043 36.2711C9.96031 36.2711 9.87157 36.1574 9.87157 35.93C9.87157 34.611 9.76066 34.8612 10.8476 34.8612C13.6206 34.8157 16.3047 34.8157 18.9889 34.8157Z" fill="#E04E39"/>
<path d="M11.136 25.0145C11.0251 24.9236 10.892 24.8099 10.7589 24.6962C10.1156 24.1277 10.1156 24.1277 10.6702 23.4909C11.7572 22.1947 12.8441 20.8985 13.9311 19.6023C14.1308 19.3749 14.2639 19.3522 14.5079 19.5568C15.3065 20.239 15.3065 20.2163 14.641 21.0122C13.5762 22.2629 12.5336 23.5364 11.491 24.7871C11.38 24.8554 11.3135 24.9918 11.136 25.0145Z" fill="#E04E39"/>
<path d="M28.5277 24.1277C28.5056 24.1504 28.4834 24.2187 28.439 24.2641C27.707 25.1283 27.5517 25.1283 26.864 24.2869C25.8214 23.0362 24.7788 21.7854 23.7361 20.5347C23.5143 20.2618 23.5365 20.1026 23.8027 19.9207C23.8692 19.8752 23.9136 19.8297 23.9802 19.7843C24.5791 19.2612 24.5791 19.284 25.0893 19.898C26.1763 21.2169 27.2855 22.5359 28.3946 23.8548C28.439 23.923 28.5056 23.9913 28.5277 24.1277Z" fill="#E04E39"/>
</svg>
