<svg width="36" height="37" viewBox="0 0 36 37" fill="none" xmlns="http://www.w3.org/2000/svg">
<path d="M33.0656 34.6746C31.9695 34.0806 31.0561 33.4241 30.234 32.6738C29.5033 32.0172 29.5033 31.5796 30.234 30.923C32.5784 28.8597 33.9181 26.2336 34.2835 23.076C34.862 17.6675 31.5737 12.4153 26.4586 10.6646C26.3063 10.6021 26.1541 10.5708 26.0019 10.5396C26.0628 11.1648 26.1541 11.7588 26.215 12.3215C26.763 17.9801 23.5661 23.7013 18.1465 25.9522C16.6241 26.5775 15.0713 26.9526 13.4272 26.9526C13.275 26.9526 13.1532 26.9526 13.0009 26.9839C12.666 27.0777 12.5442 27.234 12.7574 27.5779C13.6099 29.1723 14.7669 30.4853 16.1979 31.5483C16.3197 31.6421 16.4415 31.7359 16.5937 31.8297C17.02 32.1423 17.1113 32.58 16.8677 32.9864C16.6241 33.3615 16.137 33.4553 15.7107 33.174C15.1627 32.8301 14.6451 32.3924 14.1579 31.9547C12.9705 30.8918 12.0266 29.61 11.2959 28.1719C11.1132 27.828 10.961 27.7655 10.5956 27.8905C7.18552 28.8597 3.86679 28.6096 0.669837 27.0152C0.304471 26.8901 0 26.6713 0 26.1711C0.0304471 25.6708 0.365366 25.4833 0.761178 25.327C1.88772 24.9205 2.92293 24.3265 3.89723 23.6388C4.17126 23.4199 4.17126 23.2949 3.92768 23.076C1.67459 20.7626 0.365366 17.9801 0.0608943 14.7601C-0.608943 7.35073 4.44528 1.22318 11.0523 0.160237C14.1275 -0.308708 17.0199 0.254026 19.6993 1.81718C20.2473 2.12981 20.3996 2.53622 20.1865 2.97391C19.9429 3.44285 19.4862 3.5679 18.9381 3.25527C16.8373 2.00475 14.5842 1.47328 12.2093 1.69212C9.83442 1.8797 7.70313 2.75507 5.84585 4.31822C3.56232 6.28779 2.1313 8.75756 1.76593 11.7901C1.21789 16.0106 2.52711 19.5433 5.60227 22.3882C5.69361 22.482 5.8154 22.5758 5.93719 22.6696C6.45479 23.1698 6.45479 23.6388 5.93719 24.139C5.17601 24.8267 4.38439 25.4207 3.50142 25.9209C3.34919 26.0147 3.1665 26.046 3.07516 26.2648C3.86679 26.5775 4.65841 26.7338 5.48048 26.7963C7.88581 27.0152 10.1693 26.64 12.3311 25.5145C12.7878 25.2644 13.3054 25.327 13.7926 25.2957C19.0904 25.0768 23.8097 20.9501 24.6013 15.1977C25.1189 11.5712 24.1446 8.35114 21.7697 5.6C21.6479 5.44368 21.4957 5.28737 21.3739 5.13105C21.0694 4.72463 21.0999 4.28695 21.4348 3.97432C21.7697 3.66169 22.2264 3.69296 22.5613 4.06811C23.4138 4.94348 24.1141 5.91263 24.6622 7.00683C24.9667 7.56957 25.0884 8.28862 25.5147 8.66377C25.941 9.03893 26.6412 9.03893 27.2197 9.22651C28.8639 9.78924 30.2949 10.7271 31.6041 11.9151C33.8877 14.0097 35.3187 16.6046 35.8058 19.6996C36.4452 23.7013 35.5014 27.3278 33.0351 30.4853C32.7307 30.8918 32.3653 31.2669 32.0304 31.6108C31.8173 31.8297 31.8477 31.9234 32.0608 32.111C33.0351 32.8301 34.0399 33.4241 35.1969 33.8305C35.5927 33.9868 35.9581 34.1744 35.9581 34.6746C35.9885 35.1748 35.6536 35.3936 35.2578 35.5812C31.3301 37.457 27.372 37.457 23.4139 35.675C23.0789 35.5187 22.744 35.4249 22.3786 35.4249C21.0999 35.4562 19.882 35.2061 18.6641 34.7684C18.1465 34.5808 17.9334 34.1431 18.0856 33.6742C18.2378 33.2678 18.6336 33.0489 19.1208 33.174C20.43 33.5804 21.7393 33.8305 23.1094 33.7992C23.353 33.7992 23.5965 33.9243 23.8097 34.0493C25.4538 34.8934 27.1893 35.2686 28.9857 35.3311C30.3558 35.3624 31.665 35.1435 33.0656 34.6746Z" fill="#E04E39"/>
<path d="M12.3615 16.542C12.3615 15.7916 12.3615 15.0726 12.3615 14.3223C12.3615 13.9471 12.2397 13.8533 11.9048 13.8533C10.4434 13.8533 9.01235 13.8533 7.55089 13.8533C7.12463 13.8533 6.8506 13.6658 6.75926 13.2593C6.66792 12.8842 6.78971 12.5716 7.12463 12.3527C7.30731 12.2589 7.48999 12.2589 7.67268 12.2589C9.07324 12.2589 10.4434 12.2277 11.8439 12.2589C12.2702 12.2589 12.3615 12.1339 12.3615 11.6962C12.3311 10.2581 12.3615 8.85126 12.3615 7.41316C12.3615 6.7879 12.6356 6.44401 13.1532 6.47527C13.6403 6.47527 13.9143 6.7879 13.9143 7.41316C13.9143 8.85126 13.9143 10.2894 13.9143 11.7275C13.9143 12.1339 14.0361 12.2589 14.4319 12.2277C15.863 12.1964 17.294 12.2277 18.725 12.2277C19.1512 12.2277 19.4253 12.4152 19.5166 12.8217C19.6079 13.1968 19.4862 13.5094 19.1512 13.7283C18.9686 13.8221 18.7859 13.8221 18.6032 13.8221C17.2026 13.8221 15.8325 13.8221 14.4319 13.8221C14.0057 13.8221 13.9143 13.9471 13.9143 14.3848C13.9448 15.8229 13.9143 17.2297 13.9143 18.6678C13.9143 19.2931 13.6403 19.637 13.1227 19.6057C12.6356 19.6057 12.3615 19.2931 12.3615 18.6678C12.3615 17.9801 12.3615 17.261 12.3615 16.542Z" fill="#E04E39"/>
<path d="M23.2616 26.171C22.8049 26.171 22.47 25.8584 22.47 25.3582C22.47 24.8892 22.8049 24.5453 23.2616 24.5766C23.7183 24.5766 24.0228 24.8892 24.0228 25.3582C24.0532 25.8271 23.7183 26.171 23.2616 26.171Z" fill="#E04E39"/>
<path d="M26.215 26.171C25.7583 26.171 25.4538 25.8271 25.4538 25.3269C25.4538 24.8579 25.7887 24.5766 26.215 24.5766C26.6717 24.5766 27.0066 24.9204 27.0066 25.3894C27.0371 25.8583 26.7022 26.171 26.215 26.171Z" fill="#E04E39"/>
<path d="M29.2597 24.5766C29.7164 24.5766 30.0209 24.9204 30.0209 25.3894C30.0209 25.8583 29.686 26.171 29.2597 26.171C28.803 26.171 28.4681 25.8583 28.4681 25.3581C28.4681 24.8892 28.803 24.5766 29.2597 24.5766Z" fill="#E04E39"/>
</svg>
