<svg width="50" height="46" viewBox="0 0 50 46" fill="none" xmlns="http://www.w3.org/2000/svg">
<path d="M22.0631 45.9974C15.6285 45.9974 9.19402 46 2.76209 45.9974C1.08363 45.9974 0.0129311 44.9188 0.0103449 43.2006C0.00258622 33.121 0 23.0415 0 12.9619C0 11.3071 1.11725 10.1969 2.74398 10.1995C3.18105 10.1995 3.61812 10.2101 4.0552 10.1995C4.66296 10.1837 4.98882 9.86909 5.01468 9.25052C5.03537 8.78791 5.01986 8.32266 5.01986 7.86005C5.01727 6.21317 6.06469 5.08441 7.68625 5.07648C11.4647 5.05798 15.2458 5.06062 19.0242 5.08177C20.2243 5.0897 21.1346 5.64219 21.5613 6.83175C21.7191 7.26792 21.8225 7.2362 22.1044 6.94542C24.176 4.81214 26.2579 2.68943 28.3372 0.566728C29.0821 -0.194591 29.426 -0.189304 30.1812 0.585232C35.9899 6.52246 41.7959 12.4623 47.602 18.3996C47.7934 18.5952 47.9977 18.7538 48.2615 18.8516C49.5882 19.3353 50.2684 20.6359 49.9012 22.0185C48.5356 27.1706 47.1572 32.3201 45.7865 37.4695C45.2175 39.6055 44.646 41.7414 44.0847 43.8799C43.733 45.2228 42.7735 46 41.4106 46C34.9657 46 28.5157 45.9974 22.0631 45.9974ZM22.045 44.2077C28.4278 44.2077 34.8131 44.2077 41.1959 44.2077C42.0235 44.2077 42.2123 44.0571 42.4321 43.2349C43.1796 40.4381 43.927 37.6387 44.6718 34.8393C45.8382 30.467 47.0046 26.0973 48.1658 21.7224C48.3779 20.9294 48.0779 20.5408 47.2787 20.5276C47.2115 20.5276 47.1442 20.5302 47.077 20.5302C41.5321 20.5302 35.9899 20.5276 30.445 20.5276C23.2372 20.5276 16.032 20.5276 8.82419 20.5302C7.92936 20.5302 7.82074 20.6174 7.59056 21.4766C6.34917 26.1106 5.11037 30.7472 3.87416 35.3838C3.18881 37.9506 2.50864 40.5175 1.83363 43.0869C1.66553 43.724 1.99656 44.1654 2.64053 44.2024C2.84226 44.213 3.04398 44.2051 3.24571 44.2051C9.51212 44.2077 15.7785 44.2077 22.045 44.2077ZM27.6441 18.582C27.1424 18.0876 26.7183 17.6805 26.3045 17.2602C25.4226 16.3641 24.5381 15.4706 23.6717 14.5586C23.2889 14.1541 23.2838 13.6149 23.6122 13.2607C23.9458 12.9011 24.4424 12.8985 24.882 13.2633C25.0243 13.3823 25.1562 13.5171 25.2881 13.6492C26.7364 15.1322 28.195 16.602 29.6252 18.1035C30.0028 18.5 30.3881 18.6877 30.9416 18.6851C35.5787 18.6639 40.2158 18.6718 44.8528 18.6692C44.9796 18.6692 45.1218 18.7194 45.2356 18.5846C45.1761 18.3546 44.977 18.2383 44.8296 18.0876C39.7606 12.8985 34.6838 7.71731 29.6226 2.52289C29.3071 2.20039 29.1364 2.26912 28.8596 2.55197C23.7441 7.79397 18.6234 13.0254 13.5053 18.2621C13.407 18.3626 13.2415 18.4313 13.2854 18.6639C14.9949 18.6639 16.7044 18.6639 18.4139 18.6639C18.5561 18.6639 18.6518 18.5978 18.732 18.4577C19.2234 17.6065 19.707 17.5272 20.382 18.2277C20.7027 18.5608 21.0415 18.693 21.4941 18.6877C23.1415 18.6639 24.7863 18.6798 26.4338 18.6692C26.7803 18.6666 27.1346 18.73 27.6441 18.582ZM1.75087 36.2641C1.77415 36.2668 1.79742 36.272 1.8207 36.2747C2.28881 34.5247 2.7595 32.7747 3.22502 31.0248C4.13278 27.6147 5.02762 24.1993 5.95348 20.7919C6.33624 19.3829 7.31384 18.6771 8.7466 18.6771C9.16557 18.6771 9.58712 18.6586 10.0061 18.6824C10.4406 18.7062 10.7613 18.5529 11.0716 18.233C13.769 15.4547 16.4639 12.6738 19.2027 9.93782C19.7691 9.37212 20.082 8.80377 19.963 8.00545C19.9527 7.93936 19.963 7.86799 19.9605 7.79926C19.9372 7.21769 19.6889 6.94542 19.1251 6.92955C18.6053 6.91369 18.0829 6.92691 17.563 6.92691C14.2889 6.92691 11.0121 6.92691 7.73798 6.9322C6.99832 6.9322 6.78883 7.15954 6.78107 7.9235C6.7759 8.42047 6.78625 8.92008 6.77332 9.41706C6.73194 10.871 5.63538 11.9733 4.21813 11.9918C3.6983 11.9997 3.17588 11.9865 2.65605 12.0024C2.1207 12.0182 1.81811 12.309 1.76639 12.8509C1.7457 13.073 1.75087 13.2977 1.75087 13.5197C1.75087 19.4094 1.75087 25.2964 1.75087 31.186C1.75087 32.8805 1.75087 34.5723 1.75087 36.2641Z" fill="#E04E39"/>
<path d="M36.0519 17.1496C35.6407 17.1496 35.4183 17.0068 35.2218 16.8086C34.1045 15.6666 32.9821 14.5325 31.8726 13.3853C31.4588 12.957 31.4536 12.4336 31.826 12.0583C32.1829 11.6987 32.6847 11.7014 33.0855 12.1085C34.2312 13.2663 35.3692 14.4374 36.5045 15.6058C36.7864 15.8966 36.9157 16.2376 36.7347 16.6367C36.5795 16.9804 36.3002 17.1443 36.0519 17.1496Z" fill="#E04E39"/>
</svg>
