<svg width="13" height="11" viewBox="0 0 13 11" fill="none" xmlns="http://www.w3.org/2000/svg">
<path d="M12.5685 0.686401H0.431534C0.317097 0.686527 0.207387 0.729177 0.126483 0.80499C0.0455793 0.880804 9.11319e-05 0.983587 1.77111e-06 1.09078V1.90429C1.77111e-06 1.94177 0.0433914 1.98479 0.0788459 2.00218L6.4583 5.41546C6.47464 5.42421 6.49317 5.42874 6.51199 5.42859C6.53123 5.42864 6.55012 5.42383 6.56669 5.41467L12.7533 2.0055C12.7881 1.98732 12.8803 1.93924 12.9149 1.9171C12.9568 1.89037 13 1.86618 13 1.81826V1.09062C12.9999 0.983456 12.9544 0.880714 12.8735 0.804934C12.7926 0.729155 12.6829 0.686527 12.5685 0.686401Z" fill="#E04E39"/>
<path d="M12.9461 3.13087C12.9295 3.122 12.9107 3.11739 12.8916 3.1175C12.8725 3.11761 12.8537 3.12244 12.8372 3.13151L9.3362 5.06105C9.32225 5.06867 9.3103 5.07913 9.30126 5.09166C9.29221 5.10418 9.28629 5.11846 9.28394 5.13342C9.28159 5.14839 9.28286 5.16365 9.28767 5.17809C9.29248 5.19253 9.3007 5.20577 9.31172 5.21683L12.8133 8.75251C12.8233 8.76272 12.8355 8.77086 12.8491 8.77642C12.8626 8.78197 12.8773 8.78482 12.8921 8.78477C12.9207 8.78473 12.9481 8.77407 12.9684 8.75513C12.9886 8.73619 13 8.71051 13 8.68372V3.21865C13.0001 3.20087 12.9951 3.18339 12.9857 3.16797C12.9762 3.15256 12.9626 3.13976 12.9461 3.13087Z" fill="#E04E39"/>
<path d="M8.32726 5.70898C8.31064 5.69203 8.28831 5.68092 8.26401 5.67753C8.23971 5.67413 8.21489 5.67865 8.19372 5.69032L6.79039 6.46381C6.70817 6.50831 6.61501 6.53202 6.52005 6.5326C6.4251 6.53318 6.33161 6.51062 6.24878 6.46713L5.01378 5.80624C4.99384 5.7956 4.97081 5.79119 4.94801 5.79363C4.92522 5.79608 4.90384 5.80526 4.88699 5.81984L0.197197 9.89465C0.184902 9.90541 0.175462 9.91872 0.16963 9.93351C0.163797 9.9483 0.161733 9.96416 0.163603 9.97983C0.165472 9.99549 0.171223 10.0105 0.180397 10.0238C0.189571 10.037 0.201914 10.048 0.216443 10.056C0.289378 10.0961 0.359781 10.1153 0.431365 10.1153H12.4442C12.4652 10.1153 12.4858 10.1096 12.5034 10.0987C12.5209 10.0879 12.5347 10.0725 12.543 10.0544C12.5514 10.0364 12.554 10.0165 12.5505 9.9971C12.5469 9.97773 12.5374 9.95976 12.5231 9.94541L8.32726 5.70898Z" fill="#E04E39"/>
<path d="M3.85509 5.33781C3.86751 5.32705 3.87706 5.31371 3.88296 5.29886C3.88886 5.28401 3.89095 5.26807 3.88906 5.25232C3.88717 5.23657 3.88136 5.22146 3.87208 5.20821C3.86281 5.19496 3.85034 5.18393 3.83568 5.17603L0.160898 3.20995C0.144498 3.20123 0.125941 3.19669 0.107082 3.19679C0.0882238 3.1969 0.0697248 3.20164 0.0534356 3.21054C0.0371464 3.21944 0.0236377 3.23219 0.0142606 3.24752C0.0048835 3.26285 -3.3343e-05 3.28021 1.72152e-06 3.29788V8.45662C-0.000117266 8.47632 0.00593421 8.49562 0.0174071 8.51214C0.0288799 8.52865 0.0452705 8.54165 0.0645501 8.54953C0.0838298 8.5574 0.105152 8.55981 0.125878 8.55645C0.146604 8.5531 0.165823 8.54412 0.181158 8.53063L3.85509 5.33781Z" fill="#E04E39"/>
</svg>
