<svg width="30" height="26" viewBox="0 0 30 26" fill="none" xmlns="http://www.w3.org/2000/svg">
<path d="M15.0614 4.71942C19.212 4.71942 23.3626 4.71942 27.5132 4.71942C29.0508 4.71942 30.0072 5.68132 30 7.20162C29.9928 8.43731 29.9928 9.673 29.9964 10.9087C29.9964 12.4182 29.372 13.1855 27.8958 13.5098C24.7449 14.2015 21.5941 14.9112 18.4396 15.5957C18.0245 15.6858 17.8441 15.8443 17.8766 16.2802C17.909 16.7161 17.891 17.152 17.8802 17.5915C17.8621 18.2688 17.5517 18.5786 16.866 18.5822C15.6136 18.5895 14.3612 18.5895 13.1088 18.5786C12.4086 18.5714 12.0946 18.258 12.0585 17.5519C12.0368 17.116 12.026 16.6765 12.0585 16.2406C12.0873 15.8227 11.9177 15.6713 11.5171 15.5849C8.30486 14.886 5.09264 14.1763 1.88763 13.4449C0.577478 13.1567 0 12.393 0 11.0672C0 9.77027 0 8.47694 0 7.18C0 5.61647 0.862608 4.72663 2.42902 4.72302C5.68816 4.71222 8.95091 4.71942 12.2101 4.71942C13.1593 4.72302 14.1085 4.72302 15.0614 4.71942ZM14.9459 6.54594C10.7952 6.54594 6.64822 6.54594 2.49759 6.54594C1.86598 6.54594 1.82627 6.58557 1.82267 7.20882C1.81906 8.45893 1.84071 9.70903 1.81184 10.9591C1.80101 11.4635 1.9923 11.6869 2.47594 11.7877C3.86549 12.0759 5.24422 12.3966 6.62656 12.7064C8.29042 13.0775 9.95428 13.4485 11.6145 13.8268C11.8672 13.8844 12.0404 13.8953 12.0873 13.5566C12.1559 13.0414 12.5168 12.7965 13.0041 12.7893C14.3323 12.7712 15.6605 12.7676 16.9887 12.7929C17.5481 12.8037 17.7502 13.0018 17.8729 13.571C17.9343 13.8592 18.0823 13.8917 18.3241 13.8376C21.428 13.1423 24.5356 12.447 27.6395 11.7589C28.0293 11.6724 28.1773 11.4563 28.1701 11.0564C28.1521 9.82071 28.1665 8.58502 28.1629 7.35293C28.1629 6.56396 28.1448 6.54955 27.3436 6.54955C23.2146 6.54594 19.082 6.54594 14.9459 6.54594ZM15.0289 14.5978C15.0144 14.5978 15 14.5978 14.9856 14.5978C13.7007 14.6122 13.8847 14.4392 13.8883 15.6894C13.892 16.853 13.661 16.7593 14.9675 16.7593C16.1116 16.7593 16.1116 16.7557 16.1153 15.6605C16.1116 14.6014 16.1116 14.6014 15.0289 14.5978Z" fill="#E04E39"/>
<path d="M15 25.9964C11.0912 25.9964 7.17877 25.9928 3.26996 26C2.37848 26 1.60249 25.7694 1.05028 25.0165C0.739883 24.595 0.646043 24.1086 0.642434 23.6079C0.631606 20.805 0.635216 18.0022 0.631606 15.1994C0.631606 14.9688 0.674917 14.7491 0.786804 14.5473C0.970875 14.2195 1.26683 14.1006 1.62415 14.1294C1.96702 14.1582 2.21967 14.3312 2.3496 14.6554C2.44705 14.8968 2.45427 15.1526 2.45427 15.4119C2.45427 18.0491 2.45427 20.6862 2.45427 23.3233C2.45427 24.1014 2.50841 24.1555 3.26996 24.1555C11.0731 24.1555 18.8799 24.1591 26.6831 24.1555C27.4663 24.1555 27.5313 24.087 27.5313 23.3017C27.5313 20.6645 27.5313 18.0274 27.5313 15.3903C27.5313 15.2102 27.5313 15.0265 27.5638 14.8499C27.6468 14.4068 27.9463 14.1474 28.3686 14.1258C28.7909 14.1006 29.1735 14.3636 29.2781 14.7851C29.3323 15.0013 29.3575 15.2318 29.3575 15.4552C29.3612 18.0923 29.3648 20.7294 29.3575 23.3665C29.3539 24.4257 29.058 25.3335 27.9716 25.7875C27.5746 25.9532 27.1559 25.9964 26.73 25.9964C22.8176 25.9964 18.9088 25.9964 15 25.9964Z" fill="#E04E39"/>
<path d="M15.3572 0.0216283C16.2198 0.0612569 17.4614 -0.0828473 18.6885 0.0864751C19.7749 0.234182 20.4065 0.904266 20.5581 1.98865C20.6087 2.34171 20.5942 2.71277 20.5617 3.06943C20.5184 3.53057 20.1647 3.82238 19.6991 3.83318C19.2696 3.84399 18.9123 3.5738 18.8257 3.13788C18.7752 2.87489 18.7607 2.60109 18.7499 2.3309C18.7355 2.01747 18.5947 1.85896 18.2771 1.85896C16.0755 1.85896 13.8702 1.85896 11.6686 1.85535C11.3907 1.85535 11.2427 1.98145 11.2174 2.24804C11.1885 2.50022 11.1885 2.75961 11.1633 3.01179C11.1127 3.51976 10.7554 3.83318 10.2501 3.82598C9.77733 3.81877 9.44528 3.50174 9.41641 2.99378C9.39475 2.61911 9.38031 2.23723 9.43084 1.86616C9.5716 0.803393 10.4956 0.0432439 11.6758 0.0216283C12.7802 0.00361523 13.881 0.0216283 15.3572 0.0216283Z" fill="#E04E39"/>
</svg>
