<svg width="29" height="35" viewBox="0 0 29 35" fill="none" xmlns="http://www.w3.org/2000/svg">
<path d="M19.9556 25.6404C19.9476 26.5553 20.1496 27.259 20.2628 27.9628C20.5537 29.8238 20.8851 31.6848 21.1761 33.5459C21.3458 34.6328 21.0225 34.9925 19.8667 34.9925C16.2781 34.9925 12.6976 35.0003 9.10892 34.9925C7.96121 34.9925 7.65407 34.6797 7.81572 33.5928C8.18752 31.1688 8.59972 28.7447 8.99577 26.3207C9.0281 26.1486 9.03618 25.9688 8.93919 25.7499C8.48657 26.438 8.01779 27.1261 7.58133 27.8298C6.78925 29.0888 6.33663 29.6205 4.97068 28.1895C3.57241 26.7351 2.08523 25.3589 0.638466 23.9436C-0.242527 23.0834 -0.210196 22.5908 0.808198 21.8948C4.1786 19.5881 7.55708 17.2892 10.9356 14.9902C11.566 14.5602 11.5822 14.5367 10.9679 14.1223C8.13902 12.1909 5.31015 10.2751 2.48127 8.34369C1.81043 7.89016 1.13958 7.43663 0.492981 6.95182C-0.0970416 6.51393 -0.169784 6.0213 0.347496 5.50521C2.06099 3.78493 3.79064 2.07246 5.54454 0.383452C6.16689 -0.210828 6.67609 -0.0935363 7.17721 0.664954C9.47264 4.12898 11.7761 7.59302 14.0716 11.057C14.4999 11.6982 14.4999 11.6904 14.9202 11.057C17.1348 7.71031 19.3414 4.35575 21.556 1.00901C21.661 0.852621 21.7742 0.71187 21.8793 0.5633C22.4208 -0.132634 22.8977 -0.179551 23.5362 0.446008C25.0072 1.88479 26.4701 3.33922 27.9411 4.78582C28.0624 4.90311 28.1755 5.02041 28.2887 5.1377C29.2586 6.07604 29.2424 6.45919 28.1109 7.23332C24.7566 9.53225 21.3943 11.8155 18.0401 14.1066C17.3935 14.5445 17.4016 14.5524 18.0562 15.0059C21.4347 17.3048 24.8051 19.6037 28.1836 21.9105C29.2101 22.6142 29.2586 23.0209 28.3776 23.8966C26.8015 25.4684 25.2093 27.0244 23.617 28.5805C22.8896 29.2843 22.3642 29.2295 21.7904 28.3928C21.1923 27.5249 20.6346 26.6569 19.9556 25.6404ZM14.5323 33.2409C15.9144 33.2409 17.2965 33.2331 18.6786 33.2487C19.1231 33.2566 19.2605 33.1471 19.1797 32.6857C18.5978 29.1904 18.0401 25.6873 17.4662 22.1842C17.4096 21.8636 17.2722 21.5664 17.0863 21.2927C16.3347 20.1667 15.583 19.0486 14.8475 17.9147C14.5727 17.4925 14.403 17.469 14.1201 17.9069C13.3765 19.0798 12.6006 20.2371 11.8327 21.3944C11.663 21.6524 11.5579 21.9339 11.5094 22.2389C10.9436 25.6795 10.3698 29.1122 9.78785 32.5528C9.70703 33.0454 9.82018 33.2566 10.386 33.2487C11.7681 33.2253 13.1502 33.2487 14.5323 33.2409ZM13.9423 15.0215C14.1524 14.9668 14.2736 14.9433 14.3949 14.9121C14.6131 14.8495 14.9768 15.131 14.9768 14.568C14.9768 14.0832 14.7263 14.177 14.4434 14.177C14.1443 14.177 13.9342 13.9894 13.7725 13.7782C13.5058 13.442 13.2633 13.0823 13.0289 12.7226C10.8467 9.43059 8.6563 6.13859 6.49019 2.83095C6.16689 2.33832 5.96483 2.4087 5.60112 2.77621C4.6878 3.69891 3.75023 4.59815 2.81266 5.50521C2.27921 6.0213 2.27921 6.05258 2.90965 6.48265C6.33663 8.82067 9.76361 11.1587 13.1825 13.4889C13.7159 13.8564 14.2494 14.2083 13.9423 15.0215ZM15.4294 15.3734C15.4052 15.4047 15.3809 15.4438 15.3648 15.4751C17.7734 19.1111 20.19 22.7472 22.5824 26.3911C22.8492 26.7977 23.0108 26.6882 23.2775 26.4223C24.2394 25.4605 25.2173 24.5144 26.1953 23.5682C26.7207 23.06 26.7288 23.06 26.1145 22.6377C23.7544 21.0269 21.3943 19.4083 19.0261 17.7974C17.8299 16.9842 16.6337 16.1866 15.4294 15.3734ZM13.4331 15.4516C13.0774 15.694 12.7218 15.9286 12.3662 16.171C9.18975 18.3292 6.02949 20.4952 2.84499 22.6377C2.36812 22.9583 2.35196 23.1694 2.77224 23.5526C3.77447 24.4753 4.74437 25.4293 5.69811 26.3989C6.02141 26.7273 6.17498 26.7038 6.42553 26.3207C8.34109 23.4118 10.2809 20.5186 12.1964 17.6176C12.6491 16.9373 13.1663 16.2961 13.4331 15.4516ZM15.3648 13.614C15.3971 13.6375 15.4294 13.6609 15.4698 13.6922C15.9144 13.3951 16.3589 13.0979 16.8035 12.793C19.9395 10.6583 23.0674 8.51571 26.2115 6.39663C26.6156 6.12295 26.6156 5.95092 26.2681 5.62251C25.3305 4.75454 24.4253 3.8553 23.5281 2.94042C22.9057 2.30705 22.8815 2.28359 22.3723 3.04208C21.3297 4.60597 20.287 6.17769 19.2525 7.74159C17.9512 9.69646 16.658 11.6591 15.3648 13.614Z" fill="#E04E39"/>
<path d="M14.4757 24.6079C14.9768 24.6079 15.4779 24.5844 15.979 24.6157C16.7549 24.6548 17.2884 25.0771 17.4258 25.8199C17.6279 26.9381 17.6117 28.0797 17.442 29.2057C17.3207 30.0111 16.8519 30.4256 16.0033 30.4725C14.9606 30.5272 13.9099 30.5194 12.8673 30.4803C12.0913 30.449 11.5175 29.8235 11.4852 29.0024C11.4447 28.0328 11.4447 27.0554 11.4852 26.0858C11.5256 25.21 12.1802 24.6392 13.0855 24.6157C13.5543 24.6001 14.015 24.6079 14.4757 24.6079ZM13.2876 27.5558C13.3118 28.8226 13.0855 28.7366 14.4757 28.7366C15.777 28.7366 15.6234 28.8617 15.6315 27.4542C15.6396 26.3673 15.6315 26.3673 14.5242 26.3673C13.1178 26.3751 13.3037 26.2343 13.2876 27.5558Z" fill="#E04E39"/>
</svg>
