<svg width="24" height="24" viewBox="0 0 24 24" fill="none" xmlns="http://www.w3.org/2000/svg">
<path d="M11.0812 24C7.53382 24 3.98129 24 0.433858 24C0.0102085 24 0.00510421 24 0.00510421 23.5763C0.00510421 16.4544 0.00510421 9.33771 0 2.21588C0 1.92999 0.071459 1.83809 0.367503 1.83809C4.12931 1.8483 7.88601 1.8483 11.6478 1.83809C11.9337 1.83809 12.0459 1.90957 12.0255 2.20567C12 2.59878 12.0051 2.99188 12.0255 3.38499C12.0357 3.64535 11.949 3.73214 11.6835 3.73214C10.0502 3.72704 8.42195 3.73214 6.7886 3.73214C5.26244 3.73214 3.73628 3.73725 2.21523 3.72704C1.97023 3.72704 1.88345 3.7883 1.88345 4.04867C1.88856 9.78697 1.88856 15.5253 1.89366 21.2636C1.89366 21.5342 1.77116 21.8813 1.96002 22.0651C2.13867 22.2336 2.47554 22.1162 2.74096 22.1162C8.45768 22.1213 14.1744 22.1213 19.8911 22.1213C20.2688 22.1213 20.2688 22.1213 20.2688 21.7384C20.2688 18.6089 20.2739 15.4844 20.2637 12.3549C20.2637 12.069 20.3403 11.9618 20.6363 11.9771C21.0294 12.0027 21.4224 11.9975 21.8154 11.9771C22.0808 11.9669 22.1625 12.0588 22.1574 12.3192C22.1472 13.958 22.1523 15.6019 22.1523 17.2406C22.1523 19.3593 22.1523 21.4831 22.1523 23.6018C22.1523 23.9949 22.1523 23.9949 21.7542 23.9949C18.1965 24 14.6389 24 11.0812 24Z" fill="#E04E39"/>
<path d="M21.994 3.26248C21.9226 3.36459 21.8664 3.48201 21.7797 3.5688C19.4573 5.89679 17.1297 8.22479 14.8022 10.5528C14.496 10.8591 14.496 10.8591 14.1999 10.563C13.9192 10.2873 13.6538 9.99631 13.3628 9.73084C13.174 9.56236 13.1791 9.45515 13.3628 9.27136C14.6542 7.99505 15.9302 6.71363 17.2114 5.42711C18.2884 4.3499 19.3705 3.26759 20.4475 2.19038C20.5291 2.10869 20.6057 2.02701 20.6874 1.94022C20.5853 1.83811 20.4781 1.88406 20.3811 1.88406C18.9315 1.87896 17.4819 1.87385 16.0374 1.88917C15.7516 1.88917 15.6444 1.81769 15.6597 1.52159C15.6852 1.12848 15.6801 0.73538 15.6597 0.342276C15.6495 0.0819077 15.7363 0.000223571 16.0017 0.000223571C17.7167 0.0104341 19.4368 0.00532882 21.1518 0.00532882C21.994 0.00532882 22.8413 0.0104341 23.6835 0.000223571C23.9183 -0.00488168 24 0.0768024 24 0.311644C23.9949 2.8949 23.9949 5.47306 24 8.05631C24 8.26563 23.9285 8.34731 23.7193 8.34221C23.2956 8.332 22.8771 8.32689 22.4534 8.34221C22.188 8.35242 22.1114 8.26052 22.1114 7.99505C22.1216 6.53495 22.1165 5.07995 22.1165 3.61985C22.1165 3.52795 22.1165 3.43095 22.1165 3.33906C22.0706 3.31353 22.0349 3.28801 21.994 3.26248Z" fill="#E04E39"/>
</svg>
