<svg width="30" height="28" viewBox="0 0 30 28" fill="none" xmlns="http://www.w3.org/2000/svg">
<path d="M23.4358 27.7244C22.0658 27.6944 20.7958 27.3444 19.7158 26.4744C19.1658 26.0344 18.6158 25.9644 17.9658 26.1744C15.9158 26.8444 13.8458 26.8544 11.7958 26.1744C11.1558 25.9644 10.6158 26.0544 10.0758 26.4644C6.42584 29.1644 0.845844 27.4644 0.0658441 22.1744C-0.324156 19.5144 1.04584 17.0344 3.44584 15.7844C4.02584 15.4844 4.35584 15.0444 4.44584 14.3844C4.71584 12.3944 5.51584 10.6244 6.83584 9.10444C7.17584 8.71444 7.53584 8.32444 7.93584 8.00444C8.44584 7.61444 8.63584 7.12444 8.61584 6.51444C8.57584 5.38444 8.75584 4.29444 9.31584 3.31444C10.4458 1.32444 12.1758 0.234436 14.4458 0.0244357C17.3758 -0.245564 20.0658 1.75444 20.8658 4.41444C21.0358 4.97444 21.1458 5.55444 21.1258 6.14444C21.1058 7.00444 21.4158 7.67444 22.0558 8.25444C23.8658 9.88444 24.9458 11.9244 25.2858 14.3444C25.3858 15.0144 25.7058 15.4944 26.3158 15.8144C28.7758 17.0744 30.1358 19.8044 29.6458 22.4544C29.1258 25.2744 26.9858 27.3344 24.2158 27.6844C23.9658 27.6944 23.7058 27.7344 23.4358 27.7244ZM14.9358 24.7444C15.5658 24.7544 16.1858 24.6344 16.7958 24.4944C17.6258 24.3044 17.7058 24.1744 17.4658 23.3744C17.2158 22.5344 17.0758 21.6944 17.1758 20.8144C17.4558 18.3244 18.7358 16.5644 21.0258 15.5344C21.6158 15.2744 22.2558 15.1844 22.8758 15.0444C23.3258 14.9444 23.4858 14.6844 23.3858 14.2544C23.0258 12.6544 22.3158 11.2144 21.1958 10.0044C20.6958 9.47444 20.4158 9.48444 19.9758 10.0544C19.9058 10.1444 19.8258 10.2444 19.7458 10.3344C18.1558 12.1844 16.1558 12.9544 13.7458 12.5344C12.1258 12.2544 10.8458 11.3744 9.82584 10.1044C9.30584 9.44444 9.04584 9.41444 8.50584 10.0344C7.45584 11.2144 6.74584 12.5644 6.40584 14.1144C6.25584 14.7844 6.43584 15.0344 7.10584 15.1244C8.80584 15.3444 10.1858 16.1044 11.2358 17.4644C12.1858 18.7044 12.6858 20.0744 12.5958 21.6644C12.5558 22.3244 12.3958 22.9544 12.2258 23.5844C12.0858 24.1244 12.2558 24.3944 12.8058 24.5044C13.5058 24.6344 14.2158 24.7244 14.9358 24.7444ZM1.91584 21.3444C1.90584 23.7944 3.90584 25.8244 6.33584 25.8444C8.64584 25.8644 10.7158 23.7744 10.7158 21.4244C10.7158 18.9944 8.71584 16.9444 6.32584 16.9344C3.94584 16.9144 1.92584 18.9444 1.91584 21.3444ZM23.4458 25.7944C25.8658 25.7944 27.8358 23.8244 27.8358 21.3944C27.8458 18.9544 25.7958 16.9244 23.3458 16.9344C21.0358 16.9344 19.0358 19.0044 19.0358 21.3644C19.0458 23.8244 21.0058 25.7944 23.4458 25.7944ZM10.4758 6.30444C10.4758 8.78444 12.4558 10.7444 14.9558 10.7444C17.2658 10.7444 19.2658 8.71444 19.2758 6.38444C19.2758 3.90444 17.3058 1.89444 14.8758 1.89444C12.4858 1.88444 10.4758 3.90444 10.4758 6.30444Z" fill="#E04E39"/>
</svg>
