<svg width="30" height="30" viewBox="0 0 30 30" fill="none" xmlns="http://www.w3.org/2000/svg">
<path d="M22.61 22.7725C23.4141 23.9104 24.2104 25.0373 25.0082 26.1642C25.2902 26.5629 25.6222 26.9364 25.8481 27.3665C26.3249 28.2721 25.2778 28.1638 24.9911 28.5671C24.7838 28.8591 24.4831 28.9297 24.1995 28.5201C22.9357 26.7057 21.6376 24.9164 20.3692 23.1052C20.1526 22.796 19.9204 22.672 19.5495 22.6799C18.5569 22.7003 17.5627 22.705 16.5701 22.6767C16.1011 22.6626 15.9671 22.8415 15.9717 23.2951C15.992 25.0608 15.9624 26.8265 15.992 28.5907C16.0013 29.14 15.8112 29.3032 15.2845 29.2844C13.8603 29.2373 14.0332 29.4602 14.027 28.0413C14.0192 26.4718 14.0114 24.9023 14.0332 23.3343C14.0395 22.8682 13.9257 22.6595 13.4193 22.6767C12.4469 22.7097 11.4714 22.7112 10.4991 22.6767C10.0425 22.661 9.7916 22.8619 9.55007 23.2088C8.34084 24.9415 7.10513 26.6555 5.90369 28.3945C5.60139 28.8308 5.37699 28.8905 4.93756 28.5546C3.88416 27.7494 3.86546 27.7714 4.6259 26.6916C5.5375 25.3967 6.45221 24.105 7.36536 22.8117C7.22356 22.6045 7.03345 22.694 6.87606 22.6924C4.98742 22.6846 3.09723 22.6877 1.2086 22.6861C0.326611 22.6846 0.00404669 22.3691 0.00404669 21.4902C0.000930127 15.347 0.000930127 9.20865 0.00248841 3.06868C0.00248841 2.21172 0.320377 1.8884 1.16185 1.88683C3.96675 1.88212 6.7701 1.86956 9.575 1.89624C10.1407 1.90095 10.3167 1.72673 10.298 1.16328C10.27 0.318873 10.6159 0.00496849 11.4683 0.00339897C13.8057 -0.0013096 16.1416 0.000259921 18.479 0.00339897C19.4077 0.00496849 19.7272 0.2969 19.7069 1.22606C19.696 1.73929 19.8487 1.89938 20.3692 1.89467C23.1351 1.86956 25.8995 1.88212 28.6655 1.88369C29.7376 1.88369 29.9994 2.15364 29.9994 3.2476C29.9994 9.26986 29.9994 15.2921 29.9994 21.3128C29.9994 22.4287 29.7376 22.6846 28.6141 22.6846C26.822 22.6846 25.0316 22.683 23.2396 22.6893C23.0526 22.6908 22.8547 22.6359 22.61 22.7725ZM14.9589 20.7148C19.0867 20.7148 23.2162 20.7038 27.3441 20.7274C27.9222 20.7305 28.0562 20.5422 28.0546 19.9897C28.0359 14.8307 28.0375 9.67323 28.0546 4.51421C28.0562 3.99626 27.905 3.83774 27.3924 3.84402C25.0752 3.86756 22.758 3.86913 20.4409 3.84245C19.8955 3.83617 19.6773 3.96958 19.7038 4.55815C19.7412 5.40726 19.389 5.73373 18.5522 5.73529C16.2148 5.73843 13.879 5.73843 11.5415 5.73529C10.577 5.73373 10.2778 5.45278 10.2949 4.4734C10.3043 3.97272 10.1204 3.84088 9.64824 3.84402C7.31082 3.86285 4.97496 3.86756 2.63754 3.84088C2.09526 3.8346 1.94255 4.00568 1.9441 4.54403C1.96125 9.68264 1.9628 14.8228 1.94255 19.9614C1.94099 20.5453 2.08435 20.7337 2.69052 20.7289C6.77945 20.7023 10.8699 20.7148 14.9589 20.7148ZM14.9682 3.76397V3.76711C15.4933 3.76711 16.0185 3.77496 16.5436 3.76554C17.918 3.74043 17.7388 4.00568 17.7684 2.50365C17.7762 2.09243 17.6204 1.95745 17.2199 1.96373C15.9749 1.98257 14.7298 1.95902 13.4863 1.97472C12.0714 1.99198 12.2552 1.67651 12.2381 3.32294C12.235 3.65411 12.3752 3.77339 12.6947 3.76868C13.452 3.75613 14.2093 3.76397 14.9682 3.76397Z" fill="#E04E39"/>
<path d="M12.1718 7.53375C15.2774 7.51962 17.7707 10.0042 17.8642 13.0381C17.9639 16.3058 15.2587 18.8563 12.3635 18.9379C9.20949 19.0274 6.60405 16.4 6.52458 13.3802C6.43576 10.0528 9.26715 7.41446 12.1718 7.53375ZM12.1609 16.9399C14.1196 16.9713 15.8462 15.2558 15.8836 13.2421C15.9194 11.2786 14.1757 9.51291 12.1967 9.51134C10.2286 9.50977 8.50983 11.1531 8.52385 13.1746C8.53943 15.2856 9.99019 16.7798 12.1609 16.9399Z" fill="#E04E39"/>
<path d="M23.4552 12.3428C23.4552 13.5199 23.4599 14.697 23.4536 15.8742C23.449 16.6998 23.1342 17.0262 22.3332 17.0325C21.3017 17.0403 20.2685 17.0246 19.2369 17.0403C18.8349 17.0466 18.6837 16.8928 18.6915 16.4879C18.7274 14.7771 18.4921 15.0941 20.0613 15.069C21.4949 15.0455 21.4964 15.0596 21.4996 13.6078C21.5027 12.4307 21.484 11.2535 21.5073 10.0779C21.5151 9.64475 21.378 9.48623 20.9401 9.49879C20.0644 9.5239 19.1871 9.49251 18.3113 9.50821C17.9186 9.51448 17.7503 9.38421 17.7581 8.96672C17.7846 7.24966 17.5758 7.56043 19.1185 7.53845C20.1703 7.52276 21.2222 7.53061 22.274 7.53688C23.1498 7.54159 23.4536 7.85707 23.4552 8.75483C23.4583 9.95081 23.4552 11.1468 23.4552 12.3428Z" fill="#E04E39"/>
</svg>
