<svg width="30" height="27" viewBox="0 0 30 27" fill="none" xmlns="http://www.w3.org/2000/svg">
<path d="M14.9861 26.1278C11.9972 26.1278 9.00827 26.1284 6.01996 26.1272C5.25577 26.1272 4.49159 26.1339 3.7274 26.1175C1.68918 26.073 0.0124542 24.3734 0.00821551 22.3186C-0.0026841 17.5146 -0.00147304 12.7112 0.00821551 7.90719C0.0124542 5.90176 1.44394 4.30205 3.42343 4.08092C4.45526 3.96578 5.49496 4.0529 6.53042 4.03462C6.81018 4.02975 7.09054 4.0401 7.3703 4.03706C7.81113 4.03219 7.97341 3.87684 8.00368 3.43884C8.04365 2.86073 8.09209 2.28505 8.35247 1.75202C8.90532 0.61833 9.85722 0.0499638 11.0641 0.0292516C13.6812 -0.016437 16.3001 1.09235e-05 18.9184 0.0207231C20.4807 0.0329067 21.7324 1.20924 21.9152 2.76448C21.9382 2.96124 21.9546 3.1574 21.9576 3.35538C21.9655 3.83176 22.1689 4.03584 22.6431 4.03706C23.839 4.0395 25.0343 4.02731 26.2303 4.03828C28.154 4.05655 29.8356 5.66236 29.9507 7.59712C30.0391 9.07987 29.9821 10.5651 29.9858 12.049C29.9949 15.4141 29.9888 18.7787 29.9876 22.1438C29.987 23.9634 28.8873 25.4687 27.184 25.9767C26.8861 26.0657 26.5815 26.1199 26.2678 26.1199C23.4533 26.1199 20.6381 26.1223 17.8236 26.1236C16.8778 26.1242 15.9319 26.1236 14.9861 26.1236V26.1278ZM14.9486 5.97487C11.6345 5.97487 8.32098 5.97426 5.0069 5.97548C4.59877 5.97548 4.19185 5.96451 3.78372 6.01812C2.68346 6.16249 1.95561 6.96844 1.97136 8.0802C1.99316 9.61107 2.51331 10.9537 3.54453 12.0831C4.46918 13.095 5.59427 13.7584 6.95551 13.9734C7.75602 14.0995 8.56683 14.116 9.37522 14.1257C10.4494 14.1391 11.523 14.0538 12.5967 14.0977C12.9812 14.1135 13.273 14.0069 13.5437 13.7237C13.9149 13.3356 14.3787 13.0944 14.9304 13.0798C15.5347 13.0639 16.0294 13.3155 16.4466 13.7395C16.6495 13.946 16.8711 14.0977 17.1781 14.0971C17.7982 14.0959 18.4177 14.1068 19.0377 14.1202C19.9975 14.1409 20.9585 14.1208 21.9189 14.0947C23.7621 14.0447 25.331 13.3965 26.533 11.9674C27.5285 10.7837 28.0287 9.407 27.9766 7.84627C27.95 7.05616 27.4686 6.42018 26.7304 6.16128C26.3332 6.02177 25.9196 5.97669 25.5024 5.97608C21.9849 5.97304 18.4667 5.97426 14.9486 5.97487ZM14.9849 24.1857V24.1833C17.7619 24.1833 20.5388 24.1839 23.3158 24.1827C23.8747 24.1827 24.0316 24.0255 24.0322 23.4626C24.0328 22.3667 24.0291 21.2702 24.0285 20.1743C24.0279 18.987 24.0304 17.7991 24.0273 16.6118C24.0261 16.0757 23.8923 15.9478 23.36 15.9795C22.9985 16.0008 22.6406 16.066 22.2755 16.0647C20.6484 16.0599 19.022 16.0647 17.3949 16.0587C17.0013 16.0568 16.6695 16.1744 16.4006 16.4686C16.2456 16.638 16.0609 16.7714 15.8611 16.8823C15.2077 17.2447 14.4193 17.2173 13.9524 16.7495C13.4396 16.2359 12.828 16.0806 12.1389 16.0623C10.2272 16.0117 8.3113 16.1902 6.40386 15.9289C6.04963 15.8802 5.94124 16.0063 5.93094 16.3675C5.92852 16.4437 5.93034 16.5198 5.93034 16.596C5.92913 18.8341 5.92913 21.0716 5.92731 23.3097C5.9267 24.0225 6.08535 24.1857 6.79019 24.1857C9.52115 24.1864 12.2533 24.1857 14.9849 24.1857ZM14.8432 4.03889V4.03401C16.2511 4.03401 17.6583 4.03219 19.0662 4.03584C19.2666 4.03645 19.458 4.00234 19.6457 3.94081C19.9133 3.85248 20.0938 3.62525 20.0641 3.35538C19.9993 2.77179 19.6378 2.09742 18.8942 1.99508C18.3359 1.91772 17.7758 1.95914 17.2169 1.95731C15.3397 1.95122 13.4632 1.95244 11.586 1.95792C10.5639 1.96097 10.0764 2.36059 9.96501 3.26462C9.89537 3.83116 10.077 4.03889 10.6438 4.03889C12.0432 4.03889 13.4432 4.03889 14.8432 4.03889ZM27.9887 13.4105C27.9076 13.4849 27.841 13.5458 27.7744 13.6061C27.3517 13.9868 26.9405 14.3895 26.4501 14.6776C26.0704 14.9006 25.9535 15.204 25.9547 15.6194C25.9614 18.2377 25.9566 20.8566 25.9547 23.4748C25.9547 23.5894 25.9596 23.7021 25.9899 23.8141C26.0425 24.0115 26.1636 24.1096 26.3689 24.0992C26.6014 24.0877 26.8146 24.0103 27.0114 23.8927C27.7423 23.4547 28.0232 22.77 28.0245 21.9501C28.0299 19.1868 28.0281 16.4236 28.0275 13.6597C28.0275 13.5866 28.0463 13.5092 27.9887 13.4105ZM4.00595 19.5164H4.00353C4.00353 18.1615 4.00353 16.8067 4.00353 15.4513C4.00353 15.2046 3.95266 14.9841 3.7268 14.8391C3.20786 14.5058 2.7525 14.0934 2.29411 13.6841C2.23174 13.6286 2.17845 13.5104 2.0743 13.5653C1.97741 13.6164 1.94047 13.7255 1.93805 13.8388C1.93684 13.907 1.93624 13.9759 1.93624 14.0441C1.93502 15.2698 1.92594 16.4954 1.93502 17.7205C1.94653 19.2575 1.87992 20.7957 1.97499 22.3314C2.02646 23.1581 2.49333 23.7124 3.24116 24.0164C3.79522 24.2418 4.00595 24.0834 4.00595 23.4895C4.00595 22.1651 4.00595 20.8407 4.00595 19.5164Z" fill="#E04E39"/>
</svg>
