<svg width="28" height="31" viewBox="0 0 28 31" fill="none" xmlns="http://www.w3.org/2000/svg">
<path d="M13.4723 30.0022C12.7592 30.0022 12.0525 30.0022 11.3395 30.0022C10.7022 30.0022 10.393 29.6901 10.3804 29.0597C10.3741 28.8974 10.4372 28.7101 10.3552 28.5665C10.2668 28.4105 10.0523 28.4729 9.89456 28.4354C9.46548 28.3231 9.2194 27.9798 9.2194 27.4492C9.2194 26.4379 9.20047 25.4329 9.22571 24.4217C9.25095 23.2357 8.89128 22.2057 8.09624 21.3193C7.78074 20.9698 7.40846 20.6889 7.0488 20.3892C5.15583 18.8224 4.03898 16.8249 3.69194 14.403C3.40168 12.3618 3.74873 10.4329 4.72045 8.6227C5.59121 6.99349 6.84688 5.71384 8.46221 4.78999C10.2101 3.79124 12.103 3.3418 14.1159 3.4604C16.3811 3.59773 18.3814 4.4217 20.0913 5.89486C21.7445 7.32432 22.8109 9.10335 23.2147 11.2382C23.6249 13.4042 23.4166 15.4954 22.3566 17.4679C21.7508 18.604 20.9242 19.5653 19.9336 20.3892C19.4919 20.7575 19.0439 21.1133 18.6779 21.5628C18.0785 22.3056 17.7756 23.1545 17.763 24.1033C17.7504 25.152 17.763 26.2007 17.763 27.2494C17.763 27.3368 17.763 27.4242 17.763 27.5053C17.7504 28.0921 17.4475 28.4042 16.8607 28.4292C16.5893 28.4417 16.602 28.4417 16.6146 28.6976C16.6209 28.9098 16.6146 29.1221 16.5704 29.3281C16.4821 29.7463 16.1792 29.9773 15.706 29.9773C14.9614 30.0022 14.2168 29.996 13.4723 30.0022ZM12.6835 19.172C12.6835 19.9835 12.6835 20.7887 12.6835 21.6002C12.6835 21.8624 12.6835 21.8624 12.9549 21.8624C13.6174 21.8624 14.2862 21.8624 14.9488 21.8624C15.075 21.8624 15.2012 21.8686 15.3274 21.8999C15.7438 21.9997 15.9962 22.3181 15.9836 22.7176C15.971 23.1296 15.6933 23.4354 15.2706 23.5103C15.075 23.5416 14.8857 23.554 14.6901 23.554C13.5227 23.554 12.3554 23.554 11.1881 23.554C10.9104 23.554 10.8915 23.5728 10.9294 23.8537C10.9609 24.0659 10.9672 24.2781 10.9357 24.4904C10.9104 24.6527 10.9672 24.7026 11.125 24.7026C11.472 24.6964 11.8254 24.6964 12.1724 24.6964C12.7088 24.6964 13.2451 24.6901 13.7814 24.7026C14.2358 24.7151 14.5828 25.0022 14.6522 25.3892C14.7279 25.8075 14.5323 26.1383 14.1159 26.3006C13.9707 26.3568 13.8193 26.3755 13.6616 26.3755C12.816 26.3755 11.9705 26.3755 11.125 26.3755C10.9231 26.3755 10.8852 26.4379 10.9294 26.6314C10.9609 26.7812 11.0745 26.7625 11.1818 26.7625C12.7277 26.7625 14.2673 26.7625 15.8132 26.7688C16.0025 26.7688 16.053 26.7063 16.053 26.5253C16.0593 25.6826 16.0088 24.8399 16.0467 23.9972C16.0909 22.8736 16.4064 21.8437 17.05 20.9136C17.5421 20.202 18.1857 19.6464 18.8483 19.0971C19.8074 18.3043 20.5772 17.3618 21.0883 16.2195C21.694 14.8587 21.8139 13.4479 21.5994 11.9872C21.4038 10.6452 20.9305 9.40922 20.0787 8.34804C18.0217 5.78874 15.3021 4.80248 12.0715 5.28312C9.78098 5.62645 7.97004 6.81871 6.65128 8.71633C5.46502 10.4205 5.09273 12.3181 5.38299 14.3468C5.67324 16.3755 6.70806 17.9798 8.29816 19.2532C9.11844 19.9086 9.83777 20.6327 10.2921 21.5877C10.3173 21.6377 10.3489 21.6814 10.3804 21.7188C10.4814 21.8374 10.7716 21.9061 10.9041 21.8374C11.043 21.7625 10.9862 21.6252 10.9862 21.5128C10.9925 19.9273 10.9862 18.3418 10.9862 16.75C10.9862 16.4816 10.9862 16.4879 10.7212 16.4754C10.2984 16.4567 9.89456 16.3693 9.5412 16.1321C8.99855 15.7763 8.74616 15.2644 8.67044 14.6339C8.56317 13.7413 9.01748 12.8986 9.83146 12.5615C10.7338 12.187 11.7118 12.4242 12.2797 13.1545C12.5952 13.5603 12.6961 14.0222 12.6835 14.5216C12.6772 14.79 12.6835 14.79 12.9485 14.79C13.2451 14.79 13.5417 14.79 13.8319 14.79C14.3115 14.79 14.3115 14.79 14.3178 14.3093C14.3367 12.9485 15.7186 12.0185 17.0184 12.4991C17.9523 12.8424 18.4823 13.7538 18.3246 14.7401C18.1605 15.7638 17.3907 16.4442 16.3496 16.4754C15.9773 16.4879 15.9899 16.4192 15.9899 16.8499C15.9899 17.8736 15.9899 18.8974 15.9899 19.9148C15.9899 20.408 15.6744 20.7513 15.2264 20.7763C14.7027 20.8075 14.3304 20.4704 14.3304 19.9523C14.3241 18.8849 14.3304 17.8175 14.3304 16.7438C14.3304 16.4754 14.3304 16.4754 14.0465 16.4754C13.6805 16.4754 13.3082 16.4879 12.9422 16.4691C12.7466 16.4629 12.6835 16.5253 12.6898 16.7188C12.6898 17.549 12.6835 18.3605 12.6835 19.172ZM15.9899 14.5778C15.9773 14.7026 15.9899 14.8274 16.2108 14.815C16.4884 14.7962 16.6335 14.6901 16.6398 14.4592C16.6461 14.2532 16.4947 14.0721 16.318 14.0721C16.0972 14.0784 15.9899 14.2282 15.9899 14.5778ZM10.9925 14.6464C10.9862 14.5341 10.9862 14.4529 10.9672 14.378C10.9294 14.1533 10.8347 14.0784 10.6328 14.1033C10.4498 14.1221 10.3489 14.2407 10.3489 14.4467C10.3489 14.6839 10.4561 14.7713 10.7716 14.8212C10.9546 14.8462 11.0556 14.8274 10.9925 14.6464Z" fill="#E04E39"/>
<path d="M12.6709 1.45666C12.6709 1.25067 12.6583 1.04468 12.6709 0.844926C12.7025 0.383004 13.0243 0.0396829 13.4407 0.00222975C13.8319 -0.0289812 14.2168 0.270644 14.2862 0.701356C14.3683 1.20073 14.3683 1.70635 14.2926 2.20573C14.2168 2.69262 13.8446 2.986 13.4155 2.94855C13.0243 2.91109 12.7025 2.5428 12.6709 2.07464C12.6646 1.86865 12.6772 1.66265 12.6709 1.45666C12.6772 1.45666 12.6772 1.45666 12.6709 1.45666Z" fill="#E04E39"/>
<path d="M22.0537 22.3493C21.8833 22.3493 21.7382 22.2993 21.6057 22.2057C21.3028 21.9935 21.0378 21.7438 20.817 21.4442C20.5772 21.1133 20.6024 20.7575 20.8864 20.4267C21.1451 20.1333 21.5111 20.0646 21.8707 20.2519C22.2809 20.4641 22.59 20.7825 22.8172 21.1757C23.1075 21.6814 22.6658 22.3555 22.0537 22.3493Z" fill="#E04E39"/>
<path d="M6.32965 20.9261C6.32334 21.1633 6.27286 21.3568 6.13404 21.5128C5.9132 21.7438 5.69866 21.981 5.43996 22.1745C5.07398 22.4429 4.61967 22.4055 4.31049 22.0871C4.01392 21.775 4.0013 21.3006 4.31049 20.9697C4.50609 20.7575 4.70801 20.5578 4.92885 20.3705C5.20018 20.1395 5.51568 20.0834 5.84379 20.2457C6.14035 20.383 6.31072 20.6202 6.32965 20.9261Z" fill="#E04E39"/>
<path d="M25.8524 12.2556C26.0039 12.2931 26.1553 12.2119 26.3131 12.2931C26.7169 12.5116 27.045 12.7488 27.0008 13.192C26.9693 13.5353 26.7106 13.8099 26.3004 13.9036C25.8335 14.0097 25.3603 14.0222 24.887 13.9286C24.3318 13.8162 24.0289 13.4854 24.0731 13.0484C24.1172 12.6489 24.5274 12.3368 25.0637 12.3056C25.3287 12.2806 25.5874 12.2681 25.8524 12.2556Z" fill="#E04E39"/>
<path d="M21.549 6.05716C21.2525 6.03219 21.0127 5.86365 20.8486 5.58275C20.6909 5.30185 20.7161 5.02095 20.8991 4.75878C21.101 4.47788 21.3471 4.24692 21.6247 4.05341C21.9718 3.81621 22.4135 3.8599 22.7037 4.16577C22.9814 4.45291 23.0129 4.90235 22.7479 5.2207C22.546 5.46415 22.3125 5.68887 22.0664 5.89486C21.9339 5.99473 21.7762 6.05716 21.549 6.05716Z" fill="#E04E39"/>
<path d="M6.20328 5.24566C6.19697 5.55777 6.03922 5.78249 5.77421 5.93855C5.50288 6.08836 5.23156 6.0946 4.97285 5.91982C4.66367 5.71383 4.39865 5.46414 4.18411 5.15827C3.95696 4.83368 3.98851 4.49036 4.25352 4.19697C4.52485 3.89735 4.88451 3.8162 5.23156 4.00347C5.62277 4.20946 5.90671 4.52157 6.11494 4.90234C6.17804 5.00222 6.20959 5.12082 6.20328 5.24566Z" fill="#E04E39"/>
<path d="M1.38888 12.0684C1.58448 12.0871 1.78009 12.0933 1.9757 12.1246C2.49311 12.2057 2.87801 12.6614 2.86539 13.1545C2.85277 13.6476 2.43001 14.0721 1.90629 14.1221C1.59079 14.1533 1.26899 14.1533 0.953494 14.1221C0.417154 14.0721 0.0196312 13.6726 0.000701544 13.1608C-0.0182281 12.6489 0.347745 12.2119 0.877776 12.1246C1.04814 12.0933 1.21851 12.0621 1.38888 12.0684Z" fill="#E04E39"/>
</svg>
