<svg width="31" height="31" viewBox="0 0 31 31" fill="none" xmlns="http://www.w3.org/2000/svg">
<path d="M15.5246 0.000895834C23.8489 -0.0834388 31 6.79686 31 15.4341C31 24.0995 24.0596 31.0712 15.3841 30.9939C6.82803 30.9306 -0.0140278 24.0363 2.15979e-05 15.4482C0.014071 6.81794 7.10902 -0.0904667 15.5246 0.000895834ZM15.4965 2.31307C8.34536 2.20062 2.26198 8.17433 2.30412 15.5677C2.33925 22.7923 8.24702 28.7098 15.4895 28.7028C22.8092 28.7028 28.6538 22.8064 28.6959 15.4974C28.731 8.25866 22.732 2.20062 15.4965 2.31307Z" fill="#E04E39"/>
<path d="M13.8456 22.7716C12.3985 22.7646 11.1481 21.7666 10.7547 20.347C10.6212 19.8691 10.5369 19.3772 10.5369 18.8712C10.544 16.6293 10.5369 14.3944 10.544 12.1525C10.544 11.4989 10.6564 10.8664 10.9022 10.255C11.689 8.30121 13.7402 7.61951 15.5245 8.73694C16.4658 9.32728 17.379 9.95979 18.2782 10.6134C19.3319 11.3865 20.3645 12.2017 21.3901 13.0099C23.0409 14.3171 23.0971 16.4325 21.5306 17.831C19.6339 19.5247 17.5616 20.9936 15.405 22.3359C14.9133 22.6522 14.3794 22.8068 13.8456 22.7716ZM12.9815 15.7648C13.0307 16.8401 12.8762 18.1684 13.0518 19.4896C13.1782 20.4384 13.7261 20.6843 14.5129 20.1573C16.3112 18.9414 18.0463 17.6413 19.7463 16.2849C20.498 15.6875 20.4769 15.2307 19.7112 14.6614C18.1166 13.4737 16.5079 12.3001 14.9063 11.1264C14.4989 10.8313 14.0633 10.5009 13.5435 10.7469C12.9745 11.021 12.9956 11.6184 12.9815 12.1455C12.9605 13.2629 12.9815 14.3874 12.9815 15.7648Z" fill="#E04E39"/>
</svg>
