<svg width="30" height="31" viewBox="0 0 30 31" fill="none" xmlns="http://www.w3.org/2000/svg">
<path d="M29.9779 12.4446C29.9779 15.1904 29.9379 17.9362 29.9998 20.6819C30.0252 21.8163 29.4938 22.5037 28.6785 23.0596C27.2662 24.025 25.6537 24.4006 24.0121 24.6598C22.2322 24.9377 20.445 25.0016 18.6579 24.7725C18.3812 24.7387 18.2684 24.8513 18.272 25.1293C18.2757 25.6364 18.272 26.1397 18.272 26.6468C18.272 27.6647 17.8607 28.4535 17.0454 29.0282C15.695 29.9823 14.1626 30.4406 12.5792 30.6998C9.68552 31.173 6.80637 31.1129 3.95997 30.3054C3.00996 30.0349 2.0927 29.6781 1.27737 29.0959C0.465671 28.5174 -0.00751538 27.8037 0.0070442 26.6844C0.0580027 22.7178 0.0725623 18.74 -0.000235591 14.7697C-0.0257148 13.3987 0.607626 12.6023 1.63408 11.9938C3.09003 11.1261 4.70615 10.7618 6.34774 10.5214C8.01845 10.2772 9.69644 10.2848 11.3708 10.4876C11.6947 10.5252 11.7857 10.405 11.7857 10.0819C11.7821 8.26016 11.8367 6.4384 11.7821 4.62039C11.7348 3.07283 12.4773 2.13002 13.7294 1.4802C15.0835 0.777789 16.5358 0.409681 18.0282 0.206845C20.6634 -0.146238 23.2769 -0.0636017 25.8612 0.623785C26.884 0.894232 27.8668 1.26985 28.7513 1.87836C29.5521 2.43052 30.018 3.12542 29.9998 4.20721C29.9415 6.953 29.9779 9.69879 29.9779 12.4446ZM20.951 6.08907C22.6508 6.10409 24.3288 5.91628 25.974 5.46178C26.6656 5.27022 27.3426 5.02982 27.9177 4.56781C28.4455 4.14335 28.431 3.72266 27.9068 3.30196C27.4009 2.89629 26.8221 2.65214 26.2106 2.47184C24.9148 2.09246 23.5899 1.90465 22.2432 1.82577C20.1065 1.69806 17.9954 1.83328 15.9207 2.38545C15.189 2.58077 14.4683 2.82117 13.875 3.34328C13.4201 3.74519 13.4019 4.08701 13.8459 4.50019C14.2281 4.85328 14.6977 5.05611 15.1708 5.23265C17.0381 5.93507 18.9854 6.06653 20.951 6.08907ZM9.17957 16.4149C10.9813 16.4374 12.7576 16.2534 14.4865 15.7087C15.0908 15.5172 15.6841 15.2918 16.1718 14.8561C16.5831 14.4917 16.594 14.1349 16.2228 13.748C16.0735 13.5902 15.9025 13.47 15.7168 13.3686C15.1053 13.0381 14.4611 12.7977 13.7913 12.6437C10.6574 11.915 7.51614 11.9488 4.3822 12.6512C3.57414 12.8315 2.78428 13.1132 2.11818 13.6428C1.57584 14.0748 1.60496 14.533 2.15458 14.9462C2.55497 15.2467 2.9954 15.4571 3.46494 15.6186C5.32129 16.2534 7.23951 16.4224 9.17957 16.4149ZM21.4788 10.3599C22.1522 10.3899 23.3606 10.2397 24.5654 10.0481C25.6064 9.88284 26.6256 9.6124 27.5574 9.08277C27.9614 8.85364 28.3181 8.56817 28.3291 8.03479C28.34 7.55775 28.3327 7.08071 28.3363 6.60367C28.34 6.34074 28.2417 6.31069 28.0269 6.41962C26.156 7.36618 24.1505 7.7418 22.0939 7.83195C19.2439 7.95591 16.4375 7.708 13.8095 6.41962C13.5984 6.31444 13.4965 6.36327 13.5001 6.6187C13.5074 7.03939 13.511 7.45633 13.5001 7.87703C13.4892 8.36158 13.7003 8.7109 14.0825 8.95506C14.3664 9.13911 14.6576 9.3119 14.9779 9.4321C16.8998 10.1646 18.9054 10.3186 21.4788 10.3599ZM9.21961 20.6594C10.3516 20.7045 11.6183 20.5918 12.8741 20.3627C13.9624 20.1636 15.0434 19.9119 15.9898 19.2696C16.2737 19.078 16.4812 18.8301 16.4885 18.4658C16.4994 17.9737 16.4921 17.4854 16.4958 16.9933C16.4958 16.7079 16.3647 16.6816 16.1463 16.7905C15.8806 16.922 15.6149 17.0534 15.3419 17.1586C13.0488 18.0338 10.6719 18.2817 8.24776 18.1766C6.08931 18.0864 3.98909 17.7483 2.02718 16.7605C1.79787 16.644 1.72507 16.7079 1.72871 16.9558C1.73599 17.4178 1.73963 17.8798 1.72507 18.3418C1.71415 18.7137 1.86703 18.9691 2.14366 19.187C2.66781 19.5964 3.26475 19.833 3.88717 20.0171C5.57972 20.5167 7.31595 20.6895 9.21961 20.6594ZM16.4921 26.2787C16.4921 26.0195 16.4885 25.7603 16.4921 25.4974C16.4958 25.2457 16.3975 25.1969 16.1791 25.3058C14.1735 26.3088 12.0187 26.6506 9.82748 26.7219C7.14851 26.8121 4.51687 26.5041 2.04902 25.3058C1.79059 25.1781 1.72507 25.2871 1.72507 25.535C1.72871 25.9669 1.73235 26.4027 1.71779 26.8346C1.70323 27.2365 1.87431 27.5182 2.1837 27.7436C2.8862 28.2507 3.68334 28.5174 4.50595 28.7052C6.98836 29.2762 9.49261 29.355 12.0114 29.0282C13.1216 28.8855 14.2208 28.6639 15.2582 28.1944C16.0772 27.8263 16.7469 27.3718 16.4921 26.2787ZM9.11406 24.9002C10.6465 24.9565 12.1861 24.8063 13.7076 24.4494C14.5157 24.2616 15.2982 23.9949 15.9971 23.5179C16.3356 23.285 16.5212 22.9807 16.4958 22.5413C16.4739 22.1544 16.4812 21.76 16.4958 21.3731C16.5067 21.035 16.4266 20.9223 16.0881 21.0876C13.9733 22.1281 11.6984 22.4361 9.39433 22.4737C6.84276 22.515 4.34216 22.1844 2.00171 21.0275C1.73963 20.8998 1.72143 21.0238 1.72143 21.2341C1.72507 21.6661 1.72871 22.1018 1.71415 22.5338C1.69959 22.9507 1.85975 23.2549 2.1837 23.4878C2.71876 23.8785 3.31935 24.1039 3.93813 24.2879C5.6234 24.7875 7.34143 24.9528 9.11406 24.9002ZM15.5749 11.4266C16.0553 11.7196 16.5758 11.9337 17.0235 12.2831C17.6387 12.7639 18.1774 13.2972 18.2138 14.1724C18.2247 14.4504 18.4395 14.4729 18.636 14.4842C19.2075 14.5218 19.7789 14.5668 20.354 14.5819C22.2796 14.6307 24.1869 14.5067 26.0505 13.9621C26.6984 13.7743 27.3354 13.5489 27.8777 13.1132C28.1398 12.8991 28.3363 12.6474 28.3327 12.2793C28.3291 11.8173 28.3291 11.3553 28.3363 10.8933C28.34 10.6416 28.2963 10.5552 28.0269 10.6829C24.9221 12.1253 21.6608 12.3507 18.3303 11.9638C17.4021 11.8511 16.4885 11.6483 15.5749 11.4266ZM28.3363 20.1148C28.3363 19.8856 28.3254 19.6527 28.34 19.4236C28.3545 19.1344 28.2817 19.063 28.0087 19.2095C27.2589 19.6077 26.4618 19.8781 25.6465 20.081C23.3278 20.6557 20.9801 20.7834 18.6105 20.5204C18.2793 20.4829 18.1956 20.6106 18.2356 20.9411C18.3011 21.4557 18.3084 21.9778 18.232 22.4962C18.1774 22.8493 18.2793 22.9695 18.636 23.007C20.2558 23.1873 21.8719 23.1648 23.4844 22.9807C24.6819 22.8455 25.8612 22.6164 26.9859 22.1469C27.8741 21.775 28.5547 21.2679 28.3363 20.1148ZM21.0638 18.8414C21.9629 18.8639 22.993 18.8076 24.0194 18.6536C25.2279 18.4733 26.4181 18.2254 27.5137 17.6281C28.0743 17.3239 28.3837 16.8882 28.34 16.2083C28.3181 15.8627 28.3254 15.5134 28.34 15.1678C28.3509 14.8673 28.2635 14.8147 28.0015 14.9537C26.8695 15.5585 25.6465 15.8627 24.4053 16.0843C22.5343 16.4186 20.6562 16.49 18.7671 16.2684C18.2902 16.2121 18.181 16.321 18.2211 16.8168C18.2611 17.3089 18.2975 17.7934 18.2211 18.2855C18.1738 18.6048 18.3303 18.7099 18.6215 18.7437C19.3895 18.8339 20.1575 18.8452 21.0638 18.8414Z" fill="#E04E39"/>
</svg>
