<svg width="27" height="31" viewBox="0 0 27 31" fill="none" xmlns="http://www.w3.org/2000/svg">
<path d="M18.3019 30.9996C17.2284 30.9683 16.1145 30.9213 15.0028 30.9594C12.6289 31.0376 10.2573 30.975 7.88351 30.9951C7.20751 31.0019 7.10645 30.8788 7.24569 30.219C7.4029 29.4652 7.56685 28.7159 7.73079 27.9644C7.79143 27.6826 7.76673 27.6513 7.48151 27.6513C7.11544 27.6513 6.74936 27.6446 6.3833 27.6625C5.99252 27.6803 5.72527 27.5215 5.57929 27.1637C5.30979 26.5106 5.09194 25.8418 4.90779 25.1618C4.89431 25.1148 4.88308 25.0679 4.8741 25.0209C4.83367 24.8218 4.75282 24.7614 4.55968 24.8889C4.16666 25.1484 3.76466 25.3922 3.3649 25.6405C2.41492 26.2332 1.46268 26.8259 0.512699 27.4164C0.404899 27.4835 0.292608 27.526 0.169087 27.4589C0.0388291 27.3873 -0.00608744 27.2688 0.000650043 27.1324C0.0680249 25.7031 0.137646 24.2716 0.202775 22.8424C0.227479 22.3078 0.2432 21.7755 0.261166 21.2409C0.279133 20.7153 0.28587 20.1896 0.315066 19.664C0.33977 19.2122 0.553124 18.8431 0.887752 18.5457C1.79507 17.7337 2.62602 16.8435 3.56478 16.0651C3.92411 15.7677 3.97577 15.3449 4.01395 14.9222C4.24751 12.2404 4.91003 9.67936 6.14075 7.27267C7.10196 5.39384 8.33941 3.72078 9.89577 2.28706C10.7582 1.49303 11.7082 0.81307 12.7255 0.227054C13.2421 -0.070428 13.7451 -0.0793748 14.2706 0.22258C16.6377 1.58473 18.5287 3.4412 19.9863 5.74276C21.4663 8.07788 22.3781 10.621 22.7981 13.3431C22.8969 13.9828 22.98 14.6247 23.0069 15.2711C23.0181 15.5507 23.1551 15.7587 23.3505 15.9421C24.3522 16.8793 25.3493 17.8187 26.3487 18.7581C26.598 18.993 26.7013 19.2905 26.7125 19.6305C26.7619 21.0865 26.8114 22.5404 26.8653 23.9965C26.9034 24.9896 26.9506 25.9849 26.9955 26.978C26.9978 27.0339 27 27.0921 27 27.148C26.9933 27.4701 26.7889 27.5842 26.5149 27.4164C25.8164 26.987 25.1225 26.5508 24.4263 26.1169C23.7705 25.7098 23.1147 25.3027 22.4589 24.8979C22.2096 24.7436 22.1984 24.7503 22.1243 25.0276C21.9401 25.7165 21.7246 26.3942 21.4595 27.0585C21.2507 27.5797 21.1294 27.6535 20.5635 27.649C20.2221 27.6468 19.8807 27.6468 19.5394 27.649C19.2586 27.6513 19.216 27.705 19.2766 27.989C19.4383 28.7405 19.6022 29.4921 19.7662 30.2436C19.7842 30.3308 19.8044 30.4181 19.8178 30.5053C19.8583 30.7804 19.7639 30.9236 19.4877 30.9661C19.1059 31.0265 18.7219 30.9772 18.3019 30.9996ZM13.516 9.86724C11.524 9.86501 9.53195 9.86501 7.54214 9.86501C7.09747 9.86501 6.9717 9.95448 6.83246 10.375C6.20812 12.2471 5.88472 14.1751 5.80163 16.139C5.74997 17.3423 5.76794 18.5479 5.87574 19.7535C6.04193 21.6211 6.3833 23.4552 6.90433 25.2558C7.05031 25.7568 7.09971 25.7926 7.61625 25.7926C10.0148 25.7903 12.4111 25.7881 14.8096 25.7881C16.3705 25.7881 17.9313 25.7926 19.4922 25.7926C19.8448 25.7926 19.9616 25.7188 20.0469 25.4369C20.6982 23.2964 21.0845 21.1089 21.1766 18.8767C21.2305 17.5928 21.2192 16.3045 21.098 15.0206C20.9475 13.4258 20.6398 11.8691 20.1367 10.3481C19.9975 9.9254 19.9189 9.87172 19.4675 9.87172C17.4822 9.86724 15.4991 9.86724 13.516 9.86724ZM13.4644 8.00854C15.1622 8.00854 16.8623 8.00854 18.5602 8.00854C19.1823 8.00854 19.1688 8.03986 18.8634 7.50081C17.6618 5.38936 16.083 3.62237 14.0573 2.26469C13.5632 1.93366 13.388 1.94708 12.8895 2.28258C10.8008 3.68947 9.20406 5.53699 7.98906 7.72225C7.83635 7.99736 7.84308 8.00854 8.15076 8.00854C9.92048 8.00854 11.6924 8.00854 13.4644 8.00854ZM13.6665 27.6468C13.6665 27.649 13.6665 27.649 13.6665 27.6468C12.7165 27.649 11.7643 27.649 10.8143 27.649C10.5718 27.649 10.3292 27.649 10.0844 27.6848C9.85535 27.7206 9.70937 27.8369 9.65322 28.0539C9.58585 28.3111 9.53419 28.575 9.46682 28.8322C9.41516 29.038 9.50051 29.1275 9.69814 29.123C9.98111 29.1185 10.2663 29.0939 10.5493 29.0962C11.6453 29.1074 12.7435 29.085 13.8394 29.1185C14.9197 29.1521 16.0022 29.1253 17.0824 29.1253C17.1633 29.1253 17.2441 29.1118 17.325 29.1074C17.4934 29.0962 17.5518 29.0045 17.5204 28.8457C17.471 28.6086 17.4171 28.3715 17.3721 28.1322C17.2801 27.6625 17.2598 27.6446 16.7882 27.6446C15.7484 27.6468 14.7086 27.6468 13.6665 27.6468ZM3.86347 18.3712C3.74445 18.3958 3.70178 18.4718 3.64338 18.5255C3.26384 18.8789 2.89552 19.2457 2.50475 19.588C2.2869 19.7781 2.1791 19.995 2.16787 20.2813C2.1297 21.2677 2.0758 22.2519 2.03762 23.2383C2.02414 23.5805 2.03537 23.9227 2.03537 24.2738C2.74281 23.8355 3.44575 23.3993 4.1487 22.9654C4.31713 22.8625 4.3598 22.7283 4.32387 22.5337C4.18238 21.771 4.06785 21.0016 4.00721 20.2277C3.96005 19.6148 3.91288 19.0019 3.86347 18.3712ZM23.1282 18.2974C23.1125 18.3734 23.1035 18.3958 23.1035 18.4204C23.0653 19.787 22.9171 21.1447 22.6947 22.4934C22.6543 22.7328 22.7105 22.8692 22.9103 22.9922C23.5055 23.3546 24.0939 23.7303 24.6868 24.0972C24.7519 24.1374 24.8215 24.2202 24.9024 24.1799C24.9877 24.1374 24.9496 24.0345 24.9473 23.9585C24.9136 22.8603 24.8799 21.762 24.835 20.6638C24.8171 20.2366 24.8373 19.8139 24.4173 19.494C23.9614 19.1451 23.5729 18.7156 23.1282 18.2974Z" fill="#E04E39"/>
<path d="M10.0545 16.1862C10.059 14.3253 11.5929 12.8513 13.5176 12.8558C15.4176 12.8625 16.9627 14.3611 16.9582 16.1952C16.956 18.0561 15.3794 19.5882 13.4704 19.5838C11.5952 19.5815 10.0501 18.0449 10.0545 16.1862ZM11.9725 16.2242C11.9747 17.0966 12.617 17.7206 13.5109 17.7206C14.3643 17.7206 15.047 17.0585 15.047 16.2332C15.047 15.3385 14.4159 14.7212 13.5041 14.7212C12.5609 14.7234 11.968 15.3027 11.9725 16.2242Z" fill="#E04E39"/>
</svg>
