<svg width="28" height="30" viewBox="0 0 28 30" fill="none" xmlns="http://www.w3.org/2000/svg">
<path d="M13.0814 3.09712C13.0814 2.77508 13.0714 2.50335 13.0814 2.23163C13.1215 0.953539 14.0452 0.0075478 15.3202 0.0075478C18.7738 -0.00251593 22.2273 -0.00251593 25.6809 0.0075478C27.0663 0.0176115 27.9598 0.933412 27.9799 2.38259C28.01 4.55636 28 6.72006 27.9799 8.89383C27.9598 10.3933 27.0362 11.2789 25.5203 11.2789C24.0846 11.2789 22.649 11.289 21.2133 11.2689C20.872 11.2689 20.6812 11.3796 20.5307 11.6915C20.1592 12.4866 19.6171 13.1508 18.9243 13.7043C18.4424 14.0867 17.9003 14.3081 17.2879 14.3786C16.555 14.4591 16.043 13.8754 16.2539 13.1709C16.3944 12.6879 16.4145 12.2048 16.4145 11.7117C16.4145 11.4098 16.3041 11.2789 15.9928 11.289C15.6515 11.3091 15.3001 11.3091 14.9588 11.2487C13.8243 11.0575 13.0814 10.2021 13.0613 9.02466C13.0714 7.35408 13.0814 5.69356 13.0814 4.02298C13.0814 3.97266 13.0814 3.92234 13.0714 3.74119C12.6899 4.46578 12.0774 4.4054 11.4952 4.42553C9.51739 4.50604 8.34277 5.72375 8.24238 7.75663C8.1721 9.17561 8.34277 10.5745 8.70419 11.9431C8.81463 12.3457 8.79455 12.6476 8.43313 12.9294C8.16206 13.1407 8.04159 13.4628 8.14198 13.8251C8.23234 14.1672 8.43313 14.3584 8.80459 14.4088C9.2162 14.4591 9.3668 14.6805 9.35676 15.1434C9.34672 16.0089 9.50735 16.8643 10.0696 17.4983C10.5715 18.0619 10.6518 18.6557 10.6117 19.3299C10.6016 19.6218 10.5816 19.9136 10.6117 20.2055C10.7322 21.5037 10.0696 22.3792 9.07565 23.0736C8.15202 23.7177 7.09788 24.1102 6.0839 24.553C5.10003 24.9857 4.11617 25.4185 3.28289 26.1431C2.78092 26.5758 2.43958 27.1193 2.22875 27.7533C2.1384 28.0149 2.17856 28.1156 2.4697 28.1055C3.07207 28.0954 3.66439 28.1055 4.26676 28.1055C10.5013 28.1055 16.7257 28.1055 22.9602 28.1055C23.422 28.1055 23.4321 28.0954 23.2815 27.6728C22.8799 26.5054 21.9763 25.8311 20.9523 25.2675C19.858 24.6738 18.6633 24.2712 17.5489 23.7076C16.8161 23.3454 16.1334 22.9227 15.5912 22.2987C15.1495 21.7855 14.8885 21.2118 14.9186 20.5174C14.9387 19.8633 14.9286 19.2092 14.9186 18.5651C14.9186 18.2028 15.009 17.8908 15.3001 17.6493C15.7418 17.2769 15.9527 16.7536 16.1033 16.2102C16.1635 16.0089 16.2037 15.7976 16.284 15.5963C16.4747 15.1434 16.8462 14.9421 17.308 15.0226C17.7096 15.0931 18.0108 15.4453 18.0409 15.9083C18.061 16.2404 17.9806 16.5725 17.8903 16.8945C17.7497 17.3574 17.5489 17.8002 17.2377 18.1625C16.9165 18.5349 16.796 18.9374 16.8462 19.4104C16.8663 19.6318 16.8863 19.8633 16.8462 20.0847C16.7157 20.8999 17.1674 21.3628 17.7899 21.715C18.5629 22.1478 19.3962 22.4799 20.2094 22.8422C21.4744 23.4259 22.7594 23.9794 23.7634 24.9958C24.938 26.1833 25.46 27.6426 25.5203 29.283C25.5403 29.8063 25.3195 29.9774 24.687 29.9874C21.4844 29.9874 18.2818 29.9874 15.0792 29.9874C10.3406 29.9874 5.59197 29.9874 0.853349 29.9874C0.0803124 29.9874 -0.0301215 29.8767 0.0100363 29.1018C0.13051 26.7368 1.30512 25.0159 3.30297 23.8284C4.35711 23.2045 5.51165 22.7818 6.61599 22.2685C7.15812 22.0169 7.70025 21.7653 8.1721 21.393C8.59376 21.0508 8.84474 20.6483 8.72427 20.0746C8.69415 19.9539 8.73431 19.813 8.74435 19.6822C8.78451 19.1588 8.69415 18.6657 8.35281 18.2531C7.92112 17.7298 7.72033 17.1159 7.65005 16.4618C7.60989 16.1196 7.52958 15.8277 7.1782 15.6567C7.00753 15.5762 6.86698 15.4051 6.75654 15.244C6.27465 14.5295 5.96343 13.0803 6.62603 12.1444C6.75654 11.9633 6.77662 11.8022 6.72642 11.5808C6.50556 10.655 6.35496 9.71905 6.32485 8.78313C6.27465 6.97165 6.57583 5.27088 7.97131 3.95253C8.91502 3.05686 10.0696 2.67444 11.3245 2.54361C11.445 2.53355 11.5654 2.54361 11.6859 2.53355C12.4589 2.49329 12.5593 2.53355 13.0814 3.09712ZM18.3119 11.7217C18.7236 11.2689 18.9946 10.816 19.1854 10.343C19.4665 9.65867 19.9283 9.38695 20.6712 9.40708C22.2273 9.44733 23.7734 9.42721 25.3295 9.42721C26.0222 9.42721 26.1327 9.31651 26.1327 8.61204C26.1327 6.87102 26.1327 5.12999 26.1327 3.3789C26.1327 3.07699 26.1427 2.76501 26.1327 2.4631C26.1226 1.98004 26.0122 1.8794 25.5403 1.86934C25.2392 1.86934 24.9279 1.86934 24.6267 1.86934C21.6149 1.86934 18.6031 1.86934 15.5812 1.86934C15.0391 1.86934 14.9286 1.95991 14.9286 2.43291C14.9286 4.57648 14.9286 6.72006 14.9286 8.86364C14.9286 9.27625 15.0692 9.40708 15.4808 9.41714C15.9727 9.42721 16.4647 9.41714 16.9566 9.41714C17.5891 9.42721 17.8702 9.64861 18.0409 10.2625C18.1714 10.7154 18.2517 11.1682 18.3119 11.7217Z" fill="#E04E39"/>
<path d="M19.1954 3.11726C19.6974 3.11726 20.099 3.11726 20.5005 3.11726C20.7013 3.11726 20.9021 3.14745 21.0929 3.20783C21.4844 3.33866 21.7756 3.74121 21.7655 4.1035C21.7555 4.44567 21.4844 4.78784 21.0929 4.9086C20.9021 4.97905 20.7013 5.02937 20.5106 5.02937C19.597 5.03943 18.6834 5.09981 17.7698 4.97905C17.1875 4.9086 16.8562 4.59663 16.8361 4.12363C16.806 3.64057 17.1474 3.27828 17.7196 3.16758C18.2417 3.06694 18.7738 3.14745 19.1954 3.11726Z" fill="#E04E39"/>
<path d="M22.4281 6.30746C22.9 6.30746 23.3819 6.2974 23.8537 6.30746C24.3958 6.31753 24.8175 6.66976 24.8577 7.13269C24.8978 7.57549 24.5665 8.02836 24.0244 8.08874C22.9201 8.21957 21.8057 8.22964 20.7013 8.06862C20.2094 7.99817 19.8982 7.57549 19.9283 7.15282C19.9584 6.67982 20.3399 6.32759 20.872 6.30746C21.3941 6.2974 21.9161 6.30746 22.4281 6.30746Z" fill="#E04E39"/>
<path d="M23.6329 3.11726C24.3657 3.11726 24.938 3.59025 24.8677 4.16389C24.8075 4.70733 24.1147 5.11994 23.4521 5.00924C22.8297 4.89854 22.388 4.49599 22.4181 4.04312C22.4482 3.53994 23.0004 3.12732 23.6329 3.11726Z" fill="#E04E39"/>
<path d="M18.0509 6.28734C18.2818 6.30746 18.5027 6.30746 18.7135 6.39804C19.0247 6.53893 19.2356 6.76033 19.2557 7.12263C19.2757 7.47486 19.1352 7.74658 18.834 7.91766C18.3822 8.16925 17.9104 8.22964 17.4285 8.00823C17.0269 7.82709 16.796 7.47486 16.8462 7.1025C16.8863 6.71001 17.1976 6.39804 17.6293 6.30746C17.7598 6.2974 17.9104 6.2974 18.0509 6.28734Z" fill="#E04E39"/>
</svg>
