<svg width="424" height="179" viewBox="0 0 424 179" fill="none" xmlns="http://www.w3.org/2000/svg">
<path d="M132.055 145.473H113.166V175.601H77.7602V145.473H0V115.555L76.5537 3.3272H113.166V113.848H132.055V145.473V145.473ZM77.7602 113.89V51.6802L39.0258 113.89H77.7602ZM276.301 116.304C276.301 134.155 270.268 149.094 258.244 161.036C246.22 172.979 231.242 178.971 213.393 178.971C195.545 178.971 180.525 172.937 168.418 160.911C156.311 148.886 150.237 133.905 150.237 116.054V62.7074C150.237 44.6894 156.269 29.7091 168.293 17.8497C180.317 5.94874 195.378 0.039856 213.393 0.039856C231.408 0.039856 246.428 5.94875 258.369 17.7249C270.309 29.5427 276.301 44.4398 276.301 62.4577V116.304ZM236.609 114.056V64.4551C236.609 44.6478 228.787 34.7026 213.185 34.7026C204.24 34.7026 198.124 37.657 194.754 43.5659C191.426 49.5164 189.72 56.4656 189.72 64.4551V115.971C189.72 124.127 191.551 130.701 195.212 135.653C199.372 141.063 205.322 143.809 213.144 143.809C222.38 143.809 228.621 140.896 231.783 135.07C234.987 129.203 236.609 122.254 236.609 114.056ZM423.916 145.473H405.027V175.601H369.621V145.473H291.861V115.555L368.415 3.3272H405.027V113.848H423.916V145.473V145.473ZM369.621 113.89V51.6802L330.887 113.89H369.621Z" fill="#272A45"/>
</svg>
