<?xml version="1.0" encoding="UTF-8"?>
<!DOCTYPE svg PUBLIC "-//W3C//DTD SVG 1.1//EN" "http://www.w3.org/Graphics/SVG/1.1/DTD/svg11.dtd">
<!-- Creator: CorelDRAW 2019 (64-Bit) -->
<svg xmlns="http://www.w3.org/2000/svg" xml:space="preserve" width="508mm" height="237.851mm" version="1.1" style="shape-rendering:geometricPrecision; text-rendering:geometricPrecision; image-rendering:optimizeQuality; fill-rule:evenodd; clip-rule:evenodd"
viewBox="0 0 50800 23785.1"
 xmlns:xlink="http://www.w3.org/1999/xlink"
 xmlns:xodm="http://www.corel.com/coreldraw/odm/2003">
 <defs>
  <style type="text/css">
   <![CDATA[
    .fil13 {fill:none}
    .fil7 {fill:#627CB6;fill-rule:nonzero}
    .fil6 {fill:#709BD2;fill-rule:nonzero}
    .fil5 {fill:#90C0E8;fill-rule:nonzero}
    .fil3 {fill:#CA1521;fill-rule:nonzero}
    .fil8 {fill:#E2C1B0;fill-rule:nonzero}
    .fil11 {fill:#E73E1D;fill-rule:nonzero}
    .fil10 {fill:#E8431D;fill-rule:nonzero}
    .fil4 {fill:#E8491D;fill-rule:nonzero}
    .fil9 {fill:#ED6B1C;fill-rule:nonzero}
    .fil1 {fill:#F3F6F7;fill-rule:nonzero}
    .fil0 {fill:#F7F9FA;fill-rule:nonzero}
    .fil12 {fill:#F9B114;fill-rule:nonzero}
    .fil2 {fill:white;fill-rule:nonzero}
   ]]>
  </style>
   <clipPath id="id0">
    <path d="M-0 23790.9l50800 0 0 -23790.47 -50800 0 0 23790.47z"/>
   </clipPath>
 </defs>
 <g id="Слой_x0020_1">
  <metadata id="CorelCorpID_0Corel-Layer"/>
  <g>
  </g>
  <g style="clip-path:url(#id0)">
   <g>
    <polygon class="fil0" points="-0,23764.45 50800,23764.45 50800,1301.32 -0,1301.32 "/>
    <path class="fil1" d="M38321.19 16603.69c-546.1,-104.59 -1118.39,-122.19 -1699.68,-39.64 -1928.55,277.47 -3452.02,1594.22 -4083.85,3301.87 -378.88,-121.13 -790.57,-160.76 -1210.99,-100.2 -892.71,128.8 -1621.37,678.21 -2013.48,1418.06 -393.97,-216.9 -865.19,-302.76 -1346.2,-208.09 -439.21,85.88 -821.27,314.88 -1103.05,630.87l1854.99 1541.38 5184.78 330.28 4419.6 -1851.84 12479.87 1695.5 -74.88 -1935.5c-861.75,-1574.41 -4355.84,-1965.28 -6673.06,-1074.58 -1032.4,-1938.82 -2958.83,-3363.49 -5303.57,-3658.56 -143.14,-17.62 -285.22,-30.82 -427.3,-40.74l0 -8.81 -3.18 0z"/>
    <path class="fil2" d="M48954 7366.45l0 -12.09c-11.11,-557.11 -530.49,-1015.1 -1172.37,-1033.84 -222.25,-6.61 -432.59,39.64 -614.09,124.41 -337.08,-413.97 -891.91,-683.71 -1519.24,-683.71 -705.65,0 -1318.69,341.31 -1633.54,844.47 -129.91,-55.06 -275.17,-84.77 -429.42,-84.77 -327.02,0 -615.42,138.72 -794.81,351.21 -129.91,-84.78 -293.95,-133.22 -472.28,-125.52 -366.45,15.42 -665.95,274.13 -685.8,592.32l0 8.81c-10.85,240.01 212.46,439.29 488.95,439.29l6347.09 0c268.55,1.11 486.57,-188.25 485.51,-420.58z"/>
    <path class="fil3" d="M25140.28 7413.83c-5.5,-13.22 -8.81,-22.03 -8.81,-22.03 0,1.08 3.31,8.81 8.81,22.03z"/>
    <polygon class="fil3" points="25140.28,7393.99 25131.47,7392.88 "/>
    <path class="fil4" d="M34977.12 12988.08l47.36 -242.23c137.59,-36.33 256.38,-77.07 356.66,-121.1l0 229c-111.39,49.55 -246.59,93.58 -404.02,134.33z"/>
    <path class="fil5" d="M29733.88 9049.86l-3.18 -1.11c2.12,0 3.18,0 5.29,-1.09l-2.11 2.2z"/>
    <path class="fil6" d="M28585.85 10592.33c18.52,-6.59 37.3,-14.32 56.09,-22.02l-1.06 3.31c0,0 -19.84,6.62 -55.03,18.71z"/>
    <path class="fil7" d="M28949.12 7626.3c8.73,-1.12 17.46,-3.31 26.46,-6.62 6.35,-2.2 11.91,-4.39 18.52,-5.5 -5.56,1.11 -12.17,3.3 -18.52,5.5 -9,3.31 -17.73,5.5 -26.46,6.62z"/>
    <path class="fil8" d="M35381.14 12624.75c82.55,-36.33 150.81,-73.77 204.52,-114.51 -53.71,40.74 -123.03,79.27 -204.52,114.51z"/>
    <path class="fil9" d="M35289.6 11376.24c90.22,-14.32 181.76,-28.63 271.99,-44.03 -90.23,15.4 -181.77,29.71 -271.99,44.03z"/>
    <path class="fil10" d="M32019.08 13028.82c-1.06,0 -1.06,0 0,0 -1.06,0 -1.06,0 0,0zm0 0c1203.33,0 2319.6,-99.08 3005.4,-282.97 -685.8,183.89 -1803.13,282.97 -3005.4,282.97z"/>
    <path class="fil11" d="M35024.22 12745.85c136.52,-36.33 256.64,-77.07 356.66,-121.1 -100.02,44.03 -220.14,83.69 -356.66,121.1z"/>
    <polygon class="fil12" points="31916.69,-1342.31 31887.05,-1344.51 31887.05,-1337.9 "/>
    <path class="fil2" d="M17229.85 9318.49c-27.51,-1163.72 -969.8,-2117.17 -2133.36,-2155.72 -405.1,-13.2 -787.08,82.58 -1118.42,259.85 -612.06,-867.57 -1622.58,-1434.6 -2765.21,-1434.6 -1284.66,0 -2401.97,716.76 -2975.51,1771.49 -235.56,-114.51 -500.85,-179.46 -781.55,-179.46 -594.44,0 -1121.73,290.67 -1447.56,736.57 -236.67,-178.38 -536.1,-278.55 -859.74,-262.04 -668.18,33.02 -1211.98,574.7 -1248.3,1243.01 0,6.59 -1.11,13.2 -1.11,19.82 -19.82,503.13 387.48,920.4 890.56,920.4l11558.45 0c473.34,0 861.93,-374.33 880.64,-842.25l0 -77.07 1.11 0z"/>
    <path class="fil1" d="M15414.6 21682.52c-27.52,-1163.74 -969.81,-2117.17 -2133.36,-2155.72 -405.08,-13.2 -787.06,82.58 -1118.42,259.82 -612.04,-867.56 -1622.59,-1434.57 -2765.22,-1434.57 -1284.63,0 -2401.96,716.76 -2975.47,1771.5 -235.59,-114.52 -500.86,-179.47 -781.58,-179.47 -594.44,0 -1121.73,290.67 -1447.57,736.55 -236.67,-178.36 -536.07,-278.53 -859.71,-262.02 -668.2,33.02 -1211.99,574.7 -1248.32,1243.01 0,6.59 -1.1,13.2 -1.1,19.82 -19.82,503.13 387.48,920.4 890.54,920.4l11558.48 0c473.34,0 861.94,-374.33 880.64,-842.24l0 -77.08 1.09 0z"/>
    <path class="fil1" d="M27370.35 21770.6c-27.51,-1163.74 -969.75,-2117.19 -2133.31,-2155.72 -405.07,-13.2 -787.05,82.58 -1118.39,259.82 -612.06,-867.56 -1622.61,-1434.57 -2765.24,-1434.57 -1284.63,0 -2401.97,716.73 -2975.48,1771.5 -235.58,-114.52 -500.85,-179.47 -781.58,-179.47 -594.44,0 -1121.72,290.67 -1447.56,736.55 -236.67,-178.36 -536.07,-278.53 -859.71,-262.02 -668.2,33.02 -1212,574.7 -1248.33,1243.01 0,6.59 -1.09,13.2 -1.09,19.82 -19.81,503.13 387.49,920.4 890.54,920.4l11558.56 0c473.34,0 861.75,-374.33 880.53,-842.24l0 -77.08 1.06 0z"/>
    <path class="fil2" d="M32115.92 23771.09c-441.33,-633.07 -1126.07,-1093.28 -1937.28,-1223.19 -530.75,-84.78 -1049.07,-22.02 -1514.74,156.34 -662.78,-1244.1 -1897.86,-2157.92 -3402.65,-2347.31 -1690.84,-213.57 -3281.49,544.99 -4210.58,1838.65 -291.7,-190.45 -629.65,-319.28 -998.43,-365.53 -782.66,-99.08 -1524.61,195.98 -2027.69,728.85 -282.89,-274.13 -659.36,-455.8 -1087.59,-487.73 -885.03,-67.15 -1690.85,556 -1849.36,1429.09 -1.08,8.79 -3.28,16.51 -4.39,25.32 -13.2,82.55 -18.71,164.05 -15.43,243.32l17048.14 0 0 2.19z"/>
    <path class="fil2" d="M17975.05 23533.28c0,-5.5 0,-11 0,-16.51 -14.31,-778.4 -643.97,-1419.17 -1422.24,-1444.49 -269.69,-8.81 -523.98,55.03 -745.25,172.85 -408.39,-578.01 -1080.98,-955.65 -1842.75,-955.65 -856.43,0 -1600.57,477.82 -1982.55,1180.26 -157.4,-75.96 -333.53,-118.91 -520.67,-118.91 -396.29,0 -747.45,193.76 -964.3,491.04 -158.51,-118.93 -357.77,-186.08 -572.43,-175.07 -5.5,0 -12.11,1.11 -17.62,1.11l0 1103.18 8019.39 0c31.91,-72.65 48.42,-153.03 48.42,-237.81z"/>
    <path class="fil2" d="M40817.8 18749.64c-545.84,-104.61 -1118.39,-122.21 -1699.42,-39.63 -1928.81,277.44 -3452.28,1594.22 -4084.11,3301.84 -378.62,-121.13 -790.31,-160.76 -1210.73,-100.2 -892.97,128.83 -1621.63,678.21 -2013.48,1418.06 -394.23,-216.88 -865.19,-302.76 -1346.2,-208.07 -439.21,85.86 -821.27,314.89 -1103.05,630.85l11459.37 0 0 19.82 9981.94 0 0 -790.5c-549.28,-386.45 -1188.78,-656.19 -1889.92,-768.48 -827.88,-132.13 -1635.92,-34.13 -2361.41,244.42 -1032.4,-1938.84 -2958.83,-3363.51 -5303.57,-3658.58 -143.14,-17.62 -284.96,-30.82 -427.04,-40.74l0 -8.79 -2.38 0z"/>
    <path class="fil2" d="M29638.1 16644.43l0 -9.89c-9.79,-443.71 -478.9,-809.23 -1057.81,-824.66 -200.29,-5.5 -389.73,30.83 -554.83,99.09 -303.74,-330.28 -804.86,-544.99 -1370.54,-544.99 -637.38,0 -1191.08,271.97 -1475.08,673.82 -116.71,-44.06 -248.79,-68.27 -387.51,-68.27 -295.01,0 -555.89,110.1 -717.71,279.64 -117.79,-67.15 -265.3,-105.67 -426,-100.17 -331.37,13.2 -601.06,219.08 -618.68,472.31l0 7.7c-9.89,191.58 191.56,350.12 441.43,350.12l5729.63 0c242.36,1.11 439.21,-149.73 437.1,-334.7z"/>
    <path class="fil2" d="M46279.06 13022.21c-26.45,-1099.88 -917.04,-2001.6 -2017.97,-2039.01 -382.85,-13.23 -744.01,78.15 -1056.75,245.5 -578.91,-820.23 -1534.32,-1356.41 -2614.35,-1356.41 -1215.23,0 -2270.91,677.1 -2812.52,1674.6 -223.57,-107.9 -473.34,-169.54 -738.71,-169.54 -562.51,0 -1059.92,274.13 -1368.16,696.91 -224.64,-168.46 -507.47,-263.13 -812.54,-247.73 -631.82,31.93 -1145.91,543.9 -1180.04,1175.86 0,6.59 -1.06,12.12 -1.06,18.71 -18.78,475.64 365.39,870.87 842.17,870.87l10927.56 0c448.2,0 815.71,-353.4 832.37,-796l0 -73.76z"/>
    <path class="fil2" d="M13097.4 23633.48c-27.51,-1151.65 -959.9,-2096.29 -2112.43,-2134.82 -400.71,-13.2 -779.38,81.47 -1107.41,257.63 -606.56,-858.76 -1607.19,-1420.26 -2738.81,-1420.26 -1272.54,0 -2378.84,709.03 -2945.77,1753.87 -233.36,-113.4 -496.46,-177.27 -773.85,-177.27 -588.94,0 -1110.73,287.37 -1433.26,728.85 -234.47,-176.16 -530.59,-276.33 -850.92,-259.82 -509.68,25.32 -945.6,349.01 -1136.04,799.3l0 590.13 13092.99 0c2.2,-19.82 3.31,-40.74 4.39,-60.56l0 -77.05 1.11 0z"/>
    <rect class="fil0" y="4.87" width="50800" height="1296.46"/>
   </g>
  </g>
  <polygon class="fil13" points="-0,23790.9 50800,23790.9 50800,0.43 -0,0.43 "/>
 </g>
</svg>
