<?xml version="1.0" encoding="UTF-8"?>
<!DOCTYPE svg PUBLIC "-//W3C//DTD SVG 1.1//EN" "http://www.w3.org/Graphics/SVG/1.1/DTD/svg11.dtd">
<!-- Creator: CorelDRAW 2019 (64-Bit) -->
<svg xmlns="http://www.w3.org/2000/svg" xml:space="preserve" width="508mm" height="237.851mm" version="1.1" style="shape-rendering:geometricPrecision; text-rendering:geometricPrecision; image-rendering:optimizeQuality; fill-rule:evenodd; clip-rule:evenodd"
viewBox="0 0 50800 23785.1"
 xmlns:xlink="http://www.w3.org/1999/xlink"
 xmlns:xodm="http://www.corel.com/coreldraw/odm/2003">
 <defs>
  <style type="text/css">
   <![CDATA[
    .fil43 {fill:none}
    .fil32 {fill:#15152E;fill-rule:nonzero}
    .fil36 {fill:#171732;fill-rule:nonzero}
    .fil31 {fill:#1E1E42;fill-rule:nonzero}
    .fil3 {fill:#272A45;fill-rule:nonzero}
    .fil7 {fill:#31344D;fill-rule:nonzero}
    .fil29 {fill:#334E9D;fill-rule:nonzero}
    .fil16 {fill:#404344;fill-rule:nonzero}
    .fil11 {fill:#464961;fill-rule:nonzero}
    .fil34 {fill:#627CB6;fill-rule:nonzero}
    .fil33 {fill:#709BD2;fill-rule:nonzero}
    .fil19 {fill:#738D9A;fill-rule:nonzero}
    .fil9 {fill:#745994;fill-rule:nonzero}
    .fil18 {fill:#819CA9;fill-rule:nonzero}
    .fil25 {fill:#90C0E8;fill-rule:nonzero}
    .fil21 {fill:#93A9B5;fill-rule:nonzero}
    .fil14 {fill:#9686B9;fill-rule:nonzero}
    .fil35 {fill:#97718B;fill-rule:nonzero}
    .fil15 {fill:#A2BCC9;fill-rule:nonzero}
    .fil26 {fill:#AFD9F5;fill-rule:nonzero}
    .fil12 {fill:#CA1521;fill-rule:nonzero}
    .fil17 {fill:#CDE4F8;fill-rule:nonzero}
    .fil27 {fill:#D1A1B1;fill-rule:nonzero}
    .fil28 {fill:#D7255B;fill-rule:nonzero}
    .fil13 {fill:#E0102F;fill-rule:nonzero}
    .fil6 {fill:#E04E39;fill-rule:nonzero}
    .fil10 {fill:#E11635;fill-rule:nonzero}
    .fil37 {fill:#E2C1B0;fill-rule:nonzero}
    .fil23 {fill:#E6A17E;fill-rule:nonzero}
    .fil5 {fill:#E7305D;fill-rule:nonzero}
    .fil40 {fill:#E73E1D;fill-rule:nonzero}
    .fil39 {fill:#E8431D;fill-rule:nonzero}
    .fil20 {fill:#E8491D;fill-rule:nonzero}
    .fil30 {fill:#EAF6FE;fill-rule:nonzero}
    .fil8 {fill:#EB6A57;fill-rule:nonzero}
    .fil38 {fill:#ED6B1C;fill-rule:nonzero}
    .fil4 {fill:#EEA886;fill-rule:nonzero}
    .fil24 {fill:#F2959F;fill-rule:nonzero}
    .fil1 {fill:#F3F6F7;fill-rule:nonzero}
    .fil22 {fill:#F7BBC0;fill-rule:nonzero}
    .fil0 {fill:#F7F9FA;fill-rule:nonzero}
    .fil42 {fill:#F9B114;fill-rule:nonzero}
    .fil41 {fill:#FCEDEA;fill-rule:nonzero}
    .fil2 {fill:white;fill-rule:nonzero}
   ]]>
  </style>
   <clipPath id="id0">
    <path d="M-0 23788.2l50800 0 0 -23785.07 -50800 0 0 23785.07z"/>
   </clipPath>
 </defs>
 <g id="Слой_x0020_1">
  <metadata id="CorelCorpID_0Corel-Layer"/>
  <g>
  </g>
  <g style="clip-path:url(#id0)">
   <g>
    <polygon class="fil0" points="-0,23761.75 50800,23761.75 50800,1298.62 -0,1298.62 "/>
    <path class="fil1" d="M38321.19 16600.99c-546.1,-104.59 -1118.39,-122.19 -1699.68,-39.64 -1928.55,277.47 -3452.02,1594.22 -4083.85,3301.87 -378.88,-121.13 -790.57,-160.76 -1210.99,-100.2 -892.71,128.8 -1621.37,678.21 -2013.48,1418.06 -393.97,-216.9 -865.19,-302.76 -1346.2,-208.09 -439.21,85.88 -821.27,314.88 -1103.05,630.87l1854.99 1541.38 5184.78 330.28 4419.6 -1851.84 12479.87 1695.5 -74.88 -1935.5c-861.75,-1574.41 -4355.84,-1965.28 -6673.06,-1074.58 -1032.4,-1938.82 -2958.83,-3363.49 -5303.57,-3658.56 -143.14,-17.62 -285.22,-30.82 -427.3,-40.74l0 -8.81 -3.18 0z"/>
    <path class="fil2" d="M48954 7363.75l0 -12.09c-11.11,-557.11 -530.49,-1015.1 -1172.37,-1033.84 -222.25,-6.61 -432.59,39.64 -614.09,124.41 -337.08,-413.97 -891.91,-683.71 -1519.24,-683.71 -705.65,0 -1318.69,341.31 -1633.54,844.47 -129.91,-55.06 -275.17,-84.77 -429.42,-84.77 -327.02,0 -615.42,138.72 -794.81,351.21 -129.91,-84.78 -293.95,-133.22 -472.28,-125.52 -366.45,15.42 -665.95,274.13 -685.8,592.32l0 8.81c-10.85,240.01 212.46,439.29 488.95,439.29l6347.09 0c268.55,1.11 486.57,-188.25 485.51,-420.58z"/>
    <polygon class="fil3" points="28033.13,6113.04 28490.07,11774.3 28604.37,11765.49 28146.38,6103.14 "/>
    <path class="fil4" d="M26119.85 8089.31c0,0 63.85,410.66 139.81,515.25 77.04,103.51 363.24,311.58 363.24,311.58l213.52 -300.57 -233.36 -552.69 -483.21 26.43z"/>
    <path class="fil5" d="M25271.17 8030.95c0,353.43 -62.75,640.77 -140.91,640.77 -77.05,0 -139.81,-287.34 -139.81,-640.77 0,-353.41 62.76,-640.77 139.81,-640.77 78.16,0 140.91,286.25 140.91,640.77z"/>
    <path class="fil6" d="M25131.34 8671.72c-31.91,0 -61.65,-48.45 -84.74,-129.91 28.6,40.74 60.53,62.75 94.66,62.75 5.51,0 9.9,0 15.4,-1.11 -14.31,44.06 -25.32,68.27 -25.32,68.27zm0 0l8.81 -1.09c-3.3,1.09 -5.5,1.09 -8.81,1.09zm-83.66 -1157.13c23.13,-78.16 51.75,-124.41 83.66,-124.41 3.31,0 5.51,0 8.81,1.11l-8.81 -1.11c0,0 3.31,7.7 8.81,22.01 4.39,11.01 9.9,25.32 15.43,44.06 -4.42,-1.11 -9.92,-1.11 -14.32,-1.11 -34.13,-1.09 -64.95,20.92 -93.58,59.45z"/>
    <path class="fil7" d="M25349.36 8028.75c0,318.19 -92.47,575.81 -208.04,575.81 -115.6,0 -208.07,-257.62 -208.07,-575.81 0,-318.19 92.47,-575.81 208.07,-575.81 115.57,0 208.04,258.74 208.04,575.81z"/>
    <path class="fil3" d="M25141.29 8604.56c-14.31,0 -28.63,-4.39 -42.92,-12.11 63.85,-55.04 111.18,-286.26 111.18,-562.59 0,-277.47 -47.33,-508.66 -111.18,-562.61 14.29,-7.7 27.52,-12.11 42.92,-12.11 4.42,0 9.92,0 14.31,1.11 31.94,96.89 85.86,293.95 82.55,543.87l-2.19 0c0,11.01 1.11,20.93 1.11,31.94 0,11.01 0,20.93 -1.11,31.93l2.19 0c0,6.59 0,12.1 0,18.71 0,-6.61 0,-12.12 0,-18.71l-2.19 0 0 74.85c0,0 -2.2,2.2 0,4.42 -3.31,84.78 -12.09,161.85 -23.13,230.11 -16.51,100.17 -39.6,179.44 -57.23,231.19 -4.39,0 -8.81,0 -14.31,0z"/>
    <path class="fil8" d="M28689.3 8030.95l9.79 -31.91 -19.84 0 -40.75 -129.94 -3507.03 -480c0,0 111.18,249.89 106.76,608.83l0 62.76c4.42,358.9 -106.76,608.83 -106.76,608.83l3507.03 -480.03 40.75 -129.91 19.84 0 -9.79 -28.63z"/>
    <path class="fil9" d="M25214.02 8372.26c12.1,-68.26 20.91,-145.34 23.1,-230.11 -3.3,84.77 -12.09,161.85 -23.1,230.11z"/>
    <path class="fil10" d="M26554.64 8204.91c1.06,0 1.06,0 0,0 1.06,0 1.06,0 0,0zm-23.02 0c-1.06,0 -3.44,0 -4.49,0 1.05,0 3.43,0 4.49,0zm-7.67 0c-1.06,0 -1.06,0 0,0 -1.06,0 -1.06,0 0,0zm38.36 0c1.33,0 1.33,0 2.39,0 -1.06,0 -2.39,0 -2.39,0zm-46.03 0c-1.06,0 -2.38,0 -2.38,0 1.32,0 2.38,0 2.38,0zm49.47 0l1.06 0c0,0 0,0 -1.06,0zm-53.97 0l-1.06 0c1.06,0 1.06,0 1.06,0zm58.47 0c1.06,0 1.06,0 0,0 1.06,0 1.06,0 0,0zm-66.14 0c-1.06,0 -2.12,0 -2.12,0 1.06,0 2.12,0 2.12,0zm68.26 0c1.06,0 1.06,0 0,0 1.06,0 1.06,0 0,0zm2.12 0l1.05 0c-1.05,0 -1.05,0 -1.05,0zm-74.88 0l-1.06 0 1.06 0zm77.26 0c3.17,0 7.67,0 10.84,0 -4.23,0 -7.67,0 -10.84,0zm15.34 0c1.06,0 1.06,0 0,0 1.06,0 1.06,0 0,0zm2.12 0l1.06 0 -1.06 0zm14.29 0c2.38,0 3.44,0 5.55,0 -2.11,0 -4.49,0 -5.55,0zm5.55 0l1.06 0c0,0 0,0 -1.06,0zm8.73 0l1.06 0c0,0 0,0 -1.06,0zm4.5 0c0,0 1.06,0 0,0 1.06,0 0,0 0,0zm16.41 0c1.05,0 3.44,0 4.49,0 -2.11,0 -3.44,0 -4.49,0zm4.49 0c0,0 1.06,0 0,0 1.06,0 0,0 0,0zm2.12 0c1.06,0 1.06,0 0,0 1.06,0 1.06,0 0,0zm1.06 0c1.32,0 1.32,0 2.38,0 -1.06,0 -1.06,0 -2.38,0zm7.94 0c1.06,0 2.11,0 3.17,0 -1.06,0 -2.11,0 -3.17,0zm10.84 0c7.68,0 16.67,0 24.35,0 -9,0 -16.67,0 -24.35,0zm25.4 0c16.41,0 33.08,0 49.48,0 -16.4,-1.11 -33.07,-1.11 -49.48,0zm50.54 -1.11c634.21,-6.59 1655.76,-39.63 1874.84,-47.33 -221.46,7.7 -1241.69,40.74 -1874.84,47.33zm-1495.93 -53.95c-7.7,-3.28 -11,-5.5 -13.2,-7.7 2.2,2.2 5.5,4.42 13.2,7.7z"/>
    <path class="fil11" d="M25045.48 8453.73c-38.52,-3.31 -66.04,-205.88 -61.64,-451.41 4.42,-243.31 38.52,-439.29 75.96,-439.29l1.11 0 11.01 7.73c-24.24,31.91 -46.25,213.57 -49.56,434.87 -3.28,221.29 11.03,406.26 34.13,442.59l-11.01 5.51z"/>
    <path class="fil12" d="M25140.28 7411.13c-5.5,-13.22 -8.81,-22.03 -8.81,-22.03 0,1.08 3.31,8.81 8.81,22.03z"/>
    <polygon class="fil12" points="25140.28,7391.29 25131.47,7390.18 "/>
    <path class="fil13" d="M25140.28 7411.13c-5.5,-14.34 -8.81,-20.95 -8.81,-20.95l8.81 1.11 1.09 0c0,6.62 -1.09,13.23 -1.09,19.84z"/>
    <path class="fil14" d="M25862.31 8571.54l357.74 -49.55 -357.74 49.55zm2457.1 -335.8l319.09 -44.03 12.17 -36.36c8.73,0 13.23,0 13.23,0l-25.4 36.36 -319.09 44.03z"/>
    <path class="fil8" d="M25131.47 8671.72c0,0 50.62,-114.49 82.55,-299.46l3404.9 -179.47 27.52 -34.13c0,0 -10.06,0 -26.46,-1.08 12.17,0 21.96,-1.11 29.63,-1.11l-12.17 36.32 -319.09 44.06 -114.56 15.4 -1437.75 197.08 -546.97 74.85 -357.77 49.56 -729.83 97.98zm1415.5 -466.81c-5.29,0 -10.85,0 -15.35,0 5.56,0 11.12,0 15.35,0zm0 0c2.38,0 5.56,0 7.94,0 -2.38,0 -4.5,0 -7.94,0zm8.99 0c1.06,0 2.12,0 3.18,0 -1.06,0 -2.12,0 -3.18,0zm-28.57 0c-1.32,0 -2.38,0 -3.44,0 1.06,0 2.12,0 3.44,0zm31.75 0c1.06,0 2.38,0 3.44,0 -1.06,0 -2.38,0 -3.44,0zm-36.25 0c-2.11,0 -4.5,0 -6.61,0 2.11,0 4.5,0 6.61,0zm41.81 0c1.05,0 1.05,0 2.11,0 -1.06,0 -2.11,0 -2.11,0zm-50.54 0c-1.06,0 -1.06,0 -2.38,0 1.32,0 2.38,0 2.38,0zm53.98 0c1.05,0 2.11,0 3.17,0 -2.12,0 -2.12,0 -3.17,0zm-57.42 0c-2.12,0 -4.23,0 -6.61,0 2.38,0 4.49,0 6.61,0zm60.59 0l1.06 0c0,0 0,0 -1.06,0zm-69.32 0c-1.06,0 -1.06,0 -2.12,0 1.06,0 1.06,0 2.12,0zm-3.44 0c-968.59,-1.11 -1196.47,-36.33 -1248.2,-55.06 51.73,18.73 279.61,53.95 1248.2,55.06zm89.16 0c1.33,0 2.39,0 3.44,0 -1.05,0 -2.11,0 -3.44,0zm3.44 0l1.06 0c0,0 0,0 -1.06,0zm4.5 0c1.06,0 2.12,0 3.18,0 -1.06,0 -2.12,0 -3.18,0zm3.18 0c1.06,0 2.11,0 3.44,0 0,0 -1.33,0 -3.44,0zm4.5 0c1.05,0 2.11,0 3.17,0 -1.06,0 -2.12,0 -3.17,0zm4.23 0c0,0 1.06,0 0,0 1.06,0 1.06,0 0,0zm8.99 0c2.12,0 5.3,0 7.68,0 -3.44,0 -5.56,0 -7.68,0zm7.68 0c1.06,0 2.11,0 3.17,0 -1.06,0 -2.11,0 -3.17,0zm4.23 0c4.5,0 7.67,0 12.17,0 -4.5,0 -7.67,0 -12.17,0zm12.17 0c1.06,0 2.12,0 2.12,0 0,0 -1.06,0 -2.12,0zm8.73 0l1.33 0 -1.33 0zm4.5 0c2.12,0 4.5,0 5.56,0 -1.06,0 -3.44,0 -5.56,0zm8.73 0c2.38,0 4.5,0 6.62,0 -1.06,0 -4.24,0 -6.62,0zm32.02 0l1.05 0 -1.05 0z"/>
    <path class="fil6" d="M25214.02 8372.26c11.01,-68.26 20.91,-145.34 23.1,-230.11 2.22,2.2 5.51,4.42 13.23,7.7 51.73,19.82 279.59,53.95 1248.2,55.06l1.32 0c1.06,0 1.06,0 2.12,0 1.06,0 2.12,0 2.12,0 2.38,0 4.49,0 6.61,0l1.06 0c1.06,0 1.06,0 2.38,0 1.06,0 2.12,0 2.12,0 2.11,0 4.5,0 6.61,0 1.06,0 2.12,0 3.18,0 1.32,0 3.44,0 4.49,0 5.56,0 11.12,0 15.35,0 2.38,0 5.56,0 7.67,0l1.33 0c1.05,0 2.11,0 3.17,0 1.06,0 2.12,0 3.44,0 0,0 1.06,0 2.12,0 1.06,0 1.06,0 2.11,0l1.06 0c1.33,0 2.38,0 3.44,0l1.06 0 1.06 0c0,0 0,0 1.06,0 0,0 0,0 1.06,0l1.32 0 1.06 0c3.17,0 7.67,0 10.84,0 1.33,0 2.39,0 3.44,0l1.06 0 1.06 0 1.06 0c1.32,0 2.38,0 3.44,0 1.06,0 2.12,0 3.17,0 1.06,0 2.39,0 3.44,0 0,0 0,0 1.06,0 0,0 0,0 1.06,0 2.12,0 3.44,0 5.56,0l1.05 0 1.06 0c2.38,0 5.56,0 7.68,0l1.32 0c1.06,0 2.12,0 3.17,0l1.06 0c4.5,0 7.68,0 12.17,0 1.06,0 2.12,0 2.12,0 1.06,0 3.44,0 4.5,0l1.06 0 1.05 0 1.06 0c1.33,0 1.33,0 2.38,0 2.12,0 4.24,0 5.56,0 1.06,0 2.12,0 3.18,0 2.11,0 4.49,0 6.61,0 7.67,0 16.4,0 24.08,0l1.32 0c16.4,0 32.81,0 49.48,0 632.88,-6.61 1654.44,-39.63 1874.57,-47.33 16.67,1.08 26.46,1.08 26.46,1.08l-27.52 34.13 -3401.46 179.47z"/>
    <path class="fil6" d="M28716.82 8026.56c0,120.01 -37.57,216.87 -84.93,216.87 -47.36,0 -7.68,-96.86 -7.68,-216.87 0,-120.02 -38.63,-216.91 7.68,-216.91 46.3,0 84.93,96.89 84.93,216.91z"/>
    <path class="fil4" d="M26671.32 8501.09c-4.23,-91.39 -142.87,-257.66 -47.09,-296.18 73.55,-29.74 161.66,91.39 194.73,166.24 33.07,74.88 18.79,162.96 18.79,243.34 0,80.35 114.3,172.85 114.3,172.85l-391.85 127.71 -31.75 -121.12c0,1.11 147.37,-211.38 142.87,-292.84z"/>
    <polygon class="fil3" points="34665.44,6161.48 33997.37,11240.32 34111.67,11255.74 34778.95,6175.8 "/>
    <path class="fil15" d="M35651.81 11358.11c0,124.43 -1780.12,454.71 -3989.39,454.71 -2209.27,0 -4001.29,-330.28 -4001.29,-454.71 0,-124.41 1790.96,-224.58 4001.29,-224.58 2210.33,0 3989.39,100.17 3989.39,224.58z"/>
    <path class="fil7" d="M29179.04 9541.51l-231.24 -518.56 -1165.76 957.84 -816.76 -1365.22 -570.21 268.66c0,0 596.66,1807.79 1207.59,1965.24 0,0 468.84,-17.62 1284.55,-386.45 815.71,-368.82 291.83,-921.51 291.83,-921.51z"/>
    <polygon class="fil16" points="29189.1,6216.54 29304.46,11376.84 29419.02,11373.54 29304.46,6214.35 "/>
    <path class="fil17" d="M29733.88 9047.16l296.06 -240c0,0 440.54,230.1 689.24,354.51l-76.99 938.03 181.5 1856.26 -2353.46 -134.33c0,0 306.12,-1751.64 315.91,-2010.38 9.79,-258.74 162.98,-726.65 162.98,-726.65l235.48 -231.22 373.33 96.89 175.95 96.89z"/>
    <polygon class="fil6" points="29555.55,9151.75 29184.6,10221.91 29493.9,11203.99 29908.76,10285.75 "/>
    <path class="fil7" d="M30096.09 8833.56l45.24 422.78 -160.86 781.71 -410.64 712.34 -447.94 -572.51 0 -1214.38 63.77 -109.01 -274.11 192.67c0,0 -152.93,506.46 -162.98,765.17 -9.79,258.74 -277.29,2010.41 -277.29,2010.41l2392.1 134.31 -181.77 -1856.24 77.26 -976.58c-192.88,-96.89 -523.08,-233.41 -662.78,-290.67z"/>
    <path class="fil3" d="M30091.59 8826.97c0,0 35.19,329.2 -76.99,706.84 -112.19,376.53 -461.17,1236.4 -461.17,1236.4l708.82 -811.43 -78.05 -298.37 133.08 0c0,-1.11 61.65,-598.94 -225.69,-833.44z"/>
    <path class="fil3" d="M29210 8811.55c0,0 -83.61,321.49 -27.52,710.14 50.54,358.91 50.54,329.19 392.91,1240.79l-699.03 -857.65 121.18 -284.05 -132.03 -19.82c-1.32,1.08 -36.51,-481.15 344.49,-789.41z"/>
    <polygon class="fil3" points="29563.22,10754.78 29503.69,11720.35 29435.69,11720.35 "/>
    <polygon class="fil3" points="35750.76,6183.49 34688.46,11763.29 34800.91,11785.31 35863.21,6205.53 "/>
    <path class="fil18" d="M31656.87 12422.77l0 208.09 -3724.01 -455.8 0 4257.49c0,651.78 484.45,1202.27 1130.56,1284.85l994.04 127.71c1062.3,136.53 2136.78,139.83 3200.14,8.81l985.3 -120.01c649.29,-79.27 1138.24,-630.88 1138.24,-1285.96l0 -4271.8 -3724.27 246.62z"/>
    <path class="fil19" d="M31694.44 17949.7c-547.16,0 -1093,-35.24 -1636.98,-104.59l-994.04 -127.71c-646.11,-82.58 -1130.56,-633.07 -1130.56,-1284.85l0 -105.7c0,0 444.76,801.53 3025.24,801.53 256.38,0 536.05,-7.72 836.61,-25.35 1392.51,-81.46 2847.72,-1785.77 3044.83,-3402.01l138.64 -715.64c156.37,-39.64 292.63,-84.78 402.96,-133.22l0 3595.79c0,655.08 -488.95,1206.69 -1138.24,1285.96l-985.3 120.01c-519.65,63.85 -1041.4,95.78 -1563.16,95.78z"/>
    <path class="fil19" d="M32019.08 13256.2c-1435.36,0 -2992.97,-140.91 -4086.22,-444.79l0 -228.99c1092.2,303.87 2649.8,444.79 4085.16,444.79 1203.33,0 2319.34,-99.09 3005.14,-282.95l-47.36 242.23c-686.86,175.05 -1780.91,269.71 -2956.72,269.71z"/>
    <path class="fil20" d="M34977.12 12985.38l47.36 -242.23c137.59,-36.33 256.38,-77.07 356.66,-121.1l0 229c-111.39,49.55 -246.59,93.58 -404.02,134.33z"/>
    <path class="fil21" d="M27661.13 11323.98c0,0 4178.56,642.99 7930.09,0 0,0 830,536.2 0,1179.17 -830,642.96 -5491.96,735.46 -7795.95,38.52 0,0 -803.54,-601.13 -134.14,-1217.69z"/>
    <path class="fil22" d="M29437.81 7975.91l572.29 -243.33c0,0 56.36,202.59 -49.48,630.87 0,0 -91.28,460.22 65.09,581.32 0,0 -266.43,220.21 -827.88,26.43 0,0 184.94,-504.25 112.18,-718.95 -72.49,-214.69 127.8,-276.34 127.8,-276.34z"/>
    <path class="fil23" d="M29772.5 9040.54l-213.78 -89.16 -5.29 3.31 2.12 -3.31 -172.78 71.57c-57.41,-12.12 -119.06,-29.74 -183.88,-51.75 0,0 50.53,-138.72 89.16,-300.57 1.06,0 2.12,0 2.12,0 157.43,0 321.47,-78.18 452.44,-213.6 61.64,-63.84 116.68,-140.91 159.8,-228.99 -13.22,194.86 -11.11,335.78 36.25,340.2 -1.06,23.12 -2.38,47.33 -2.38,72.65 0,122.21 18.79,249.93 91.55,304.99 -2.38,-1.11 -84.93,67.15 -255.33,94.66z"/>
    <path class="fil4" d="M32479.19 11410.97c0,0 181.77,75.97 357.72,116.71 177.27,40.72 350.04,162.93 351.37,379.84 0,216.88 -357.99,94.66 -453.77,0 -94.45,-94.7 -182.56,-153.04 -182.56,-88.08 0,66.06 102.4,232.3 29.64,203.67 -72.5,-28.62 -182.83,-247.73 -197.12,-394.15 -15.34,-145.33 94.72,-217.99 94.72,-217.99z"/>
    <path class="fil4" d="M29901.36 8225.84c-171.72,353.4 -531.82,532.87 -804.87,400.74 -273.05,-132.11 -354.27,-526.26 -182.56,-880.77 171.72,-353.43 531.55,-532.87 804.6,-400.77 273.05,133.22 354.54,527.37 182.83,880.8z"/>
    <path class="fil24" d="M29741.55 8457.03c61.65,-63.84 116.68,-140.91 159.54,-228.99 -42.86,86.96 -97.89,164.04 -159.54,228.99z"/>
    <path class="fil4" d="M29290.17 8669.52c-47.1,0 -94.46,-6.59 -139.7,-22.01 205.84,-35.25 410.63,-194.87 528.37,-437.1 57.15,-118.9 87.05,-242.22 89.17,-357.82 10.05,7.7 19.84,15.43 30.95,23.13 -15.61,34.13 -22.22,64.95 -22.22,64.95l0 223.5c13.23,1.11 25.4,2.22 36.51,2.22 37.31,0 68.26,-6.62 94.72,-17.62 -2.38,26.4 -4.5,52.83 -5.56,78.15 -43.12,88.08 -96.83,165.16 -159.8,229 -132.03,136.53 -296.07,213.6 -452.44,213.6z"/>
    <polygon class="fil7" points="30508.84,9486.45 30757.55,9123.12 31599.72,10511.47 32690.59,11410.97 32327.32,11774.3 31130.61,10970.57 30441.64,10013.81 "/>
    <polygon class="fil6" points="29733.88,9047.16 29555.55,9256.34 29384.89,9047.16 29558.72,8951.38 "/>
    <path class="fil25" d="M29733.88 9047.16l-3.18 -1.11c2.12,0 3.18,0 5.29,-1.09l-2.11 2.2z"/>
    <path class="fil26" d="M29829.65 9313.59l-150.81 -201.48 55.04 -64.95 -3.44 -1.11 3.44 1.11 2.11 -2.2c12.17,-1.11 24.34,-3.3 36.25,-4.42l72.76 29.74 224.63 -144.22 -239.98 387.53z"/>
    <path class="fil27" d="M29731.76 9046.05l-173.04 -94.67 213.78 89.16c-12.17,2.23 -23.28,3.31 -36.51,4.42 -1.06,0 -3.17,1.09 -4.23,1.09z"/>
    <polygon class="fil28" points="29678.84,9112.11 29558.72,8951.38 29731.76,9046.05 29733.88,9047.16 "/>
    <path class="fil26" d="M29314.51 9352.14l-143.14 -287.36c2.12,-20.93 3.18,-40.75 5.56,-59.45l91.28 66.07 113.5 -47.37c10.85,2.2 23.02,4.42 34.14,6.62l-32.02 17.62 64.82 79.27 -134.14 224.6z"/>
    <path class="fil29" d="M29171.37 9064.78l-49.48 -100.2 56.1 40.75c-3.18,17.62 -4.24,38.52 -6.62,59.45z"/>
    <path class="fil27" d="M29415.85 9029.54c-11.12,-2.2 -22.23,-4.39 -34.14,-6.59l172.78 -71.57 -2.12 3.31 -136.52 74.85z"/>
    <polygon class="fil28" points="29449.98,9126.43 29384.89,9047.16 29415.85,9029.54 29553.43,8953.58 "/>
    <path class="fil30" d="M29933.11 8655.21c0,0 57.41,98 -90.23,206.98 -62.7,46.25 -137.58,72.68 -214.57,83.69l-73.82 4.39 201.35 388.65c0,0 287.33,-331.4 334.69,-513.06l-157.42 -170.65z"/>
    <path class="fil1" d="M29244.13 8754.29c0,0 81.49,173.97 314.86,195.98l-210.35 388.65 -226.75 -376.53 122.24 -208.1z"/>
    <path class="fil31" d="M29778.06 7705.06c0,0 -131.23,18.73 -379.94,-19.82 -130.97,-19.81 -269.61,-120.01 -422.54,-67.15 -153.19,52.84 -199.5,-209.18 0,-342.4 199.23,-133.24 539.22,-220.21 930.01,-30.85 390.79,188.28 74.88,438.21 -127.53,460.22z"/>
    <path class="fil31" d="M29796.58 7454.05c0,0 -211.4,117.79 -149.75,268.63 61.65,150.84 284.16,142.03 260.88,416.16 -21.96,257.63 -24.08,452.52 42.86,424.98 95.78,-37.41 78.32,-221.3 209.28,-434.87 168.28,-273.05 35.19,-847.75 -363.27,-674.9z"/>
    <path class="fil32" d="M29938.66 8567.13c-48.42,0 -51.86,-144.23 -37.57,-342.4 10.06,-25.32 18.79,-55.06 28.84,-88.08 63.77,-38.52 90.22,-111.21 90.22,-179.47 0,-13.2 -1.05,-26.4 -3.44,-39.63 7.68,-13.21 15.62,-26.41 23.29,-40.72 64.82,-104.59 84.66,-254.35 62.7,-387.56 146.32,137.63 169.6,454.71 57.15,638.57 0,0 0,1.11 -1.05,1.11 -11.12,17.62 -19.85,34.13 -28.58,50.64 -100.28,191.56 -92.6,350.1 -180.44,384.23 -3.44,2.22 -6.62,3.31 -11.12,3.31z"/>
    <polygon class="fil3" points="31566.64,11263.44 31130.88,10970.57 30709.13,10384.87 30669.44,9781.51 31227.71,10876.99 "/>
    <path class="fil33" d="M28585.85 10589.63c18.52,-6.59 37.3,-14.32 56.09,-22.02l-1.06 3.31c0,0 -19.84,6.62 -55.03,18.71z"/>
    <path class="fil3" d="M27711.66 10815.34c-4.49,0 -8.73,0 -13.22,0 0,0 292.89,-89.19 570.17,-279.66 226.75,-154.12 414.08,-480.01 465.67,-575.81 -6.62,57.25 -14.29,126.63 -25.4,203.7l-69.32 405.16c-18.52,7.69 -37.31,15.39 -56.09,22.01 -168.28,56.14 -682.36,224.6 -871.81,224.6z"/>
    <path class="fil7" d="M28710.2 10162.46c9.79,-77.08 18.79,-146.42 25.4,-203.68 9.79,-17.62 14.29,-27.54 14.29,-27.54l-39.69 231.22z"/>
    <path class="fil22" d="M29775.68 7941.78c0,0 44.18,-198.17 162.98,-153.03 117.74,45.14 143.14,408.46 -162.98,376.53l0 -223.5z"/>
    <path class="fil4" d="M29811.93 8166.39c-11.91,0 -24.08,-1.11 -36.25,-2.22l0 -223.5c0,0 36.25,-159.65 128.85,-159.65 10.85,0 21.96,2.22 34.13,6.62 49.48,18.7 82.55,92.47 82.55,169.54 0,68.26 -26.46,139.83 -90.22,179.47 -7.67,4.39 -15.61,8.81 -23.28,12.12 -27.52,12.09 -58.21,17.62 -95.78,17.62z"/>
    <path class="fil34" d="M28949.12 7623.6c8.73,-1.12 17.46,-3.31 26.46,-6.62 6.35,-2.2 11.91,-4.39 18.52,-5.5 -5.56,1.11 -12.17,3.3 -18.52,5.5 -9,3.31 -17.73,5.5 -26.46,6.62z"/>
    <path class="fil35" d="M29402.62 7685.24c-1.06,0 -1.06,0 -2.38,0 1.32,0 1.32,0 2.38,0zm-4.5 0c-1.06,0 -2.12,0 -3.18,0 1.06,-1.08 2.12,0 3.18,0zm-6.62 -1.08c-5.55,-1.11 -10.84,-2.22 -16.4,-3.31 5.56,1.09 10.85,2.2 16.4,3.31zm-16.4 -3.31c-22.22,-4.42 -45.24,-12.12 -68.26,-18.73 23.02,6.61 46.04,13.23 68.26,18.73zm-381 -68.26c25.4,-6.62 49.48,-9.92 73.82,-9.92 -24.34,0 -49.48,2.19 -73.82,9.92z"/>
    <path class="fil36" d="M29641.27 7708.37c-60.32,-2.2 -139.7,-7.7 -238.65,-23.13 -1.33,0 -1.33,0 -2.38,0 -1.06,0 -1.06,0 -2.12,0 -1.06,0 -2.12,0 -3.44,0 -1.06,0 -2.12,0 -3.18,-1.08 -5.55,-1.11 -11.11,-2.22 -16.4,-3.31 -22.22,-4.42 -45.24,-12.12 -68.26,-18.73 -75.94,-25.32 -155.31,-58.34 -238.92,-58.34 -24.34,0 -48.42,3.31 -73.82,9.89 -5.56,1.11 -12.17,3.31 -18.79,5.51 -8.73,3.3 -17.46,5.53 -26.45,6.61 -4.24,0 -7.68,1.11 -11.91,1.11 -71.7,0 -109.01,-80.38 -89.16,-171.76 2.11,61.67 35.19,107.89 92.34,107.89 10.05,0 19.84,-1.08 30.95,-4.39 24.08,-6.61 46.04,-8.81 69.32,-8.81 126.47,0 237.6,83.66 346.61,108.98 105.83,25.35 190.5,37.44 252.14,44.05 1.06,1.12 1.06,3.31 2.12,5.51z"/>
    <path class="fil36" d="M29684.4 7709.48c-13.23,0 -27.52,0 -42.86,-1.11 -1.33,-2.2 -1.33,-4.39 -2.39,-6.62 46.31,4.42 80.44,5.51 101.34,6.62 -14.29,0 -34.13,1.11 -56.09,1.11z"/>
    <path class="fil37" d="M35381.14 12622.05c82.55,-36.33 150.81,-73.77 204.52,-114.51 -53.71,40.74 -123.03,79.27 -204.52,114.51z"/>
    <path class="fil38" d="M35289.6 11373.54c90.22,-14.32 181.76,-28.63 271.99,-44.03 -90.23,15.4 -181.77,29.71 -271.99,44.03z"/>
    <path class="fil39" d="M32019.08 13026.12c-1.06,0 -1.06,0 0,0 -1.06,0 -1.06,0 0,0zm0 0c1203.33,0 2319.6,-99.08 3005.4,-282.97 -685.8,183.89 -1803.13,282.97 -3005.4,282.97z"/>
    <path class="fil40" d="M35024.22 12743.15c136.52,-36.33 256.64,-77.07 356.66,-121.1 -100.02,44.03 -220.14,83.69 -356.66,121.1z"/>
    <path class="fil15" d="M32019.35 13026.12c-1.33,0 -1.33,0 0,0 -1477.44,0 -3085.57,-148.64 -4180.95,-471.22 -7.67,-2.22 -15.35,-4.42 -23.28,-6.62 -2.12,-1.11 -4.24,-1.11 -6.62,-2.19 -2.11,-1.11 -4.23,-1.11 -6.35,-2.2 -2.38,-1.11 -4.5,-1.11 -6.61,-2.22 0,0 -40.75,-30.82 -95.78,-84.77 1063.36,246.62 2461.42,362.24 3760.26,362.24 1648.88,0 3137.16,-186.08 3572.14,-522.98 478.89,-371.02 405.07,-705.72 257.44,-922.62 91.54,-14.32 181.76,-28.63 271.99,-44.03 10.05,-2.22 19.84,-3.31 29.63,-5.53 0,0 369.89,238.92 368.83,587.93 0,17.62 -1.06,36.33 -3.17,55.06 -17.73,161.84 -117.74,343.51 -366.72,536.18 -1.06,1.11 -1.06,1.11 -2.11,2.19 -1.06,1.11 -2.12,2.2 -3.44,3.31 -53.71,40.75 -121.98,78.16 -204.53,114.51 -100.27,44.03 -219.07,83.66 -356.65,121.1 -684.75,182.75 -1802.08,281.86 -3004.08,281.86z"/>
    <path class="fil41" d="M24079.07 1303.97c241.09,725.54 662.7,1518.23 1401.34,2096.27 1760.3,1378.42 2418.58,2029.09 2548.23,2794.29l7931.41 0c130.97,-765.2 788.19,-1416.98 2548.47,-2794.29 737.39,-578.04 1159.14,-1369.65 1401.23,-2096.27l-15830.68 0z"/>
    <path class="fil41" d="M24261.76 1781.78c255.4,581.32 639.58,1165.94 1217.51,1618.46 1760.11,1378.42 2418.4,2029.09 2548.31,2794.29l7931.41 0c130.97,-765.2 788.2,-1416.98 2548.2,-2794.29 578.12,-452.52 962.29,-1037.14 1217.62,-1618.46l-15463.05 0z"/>
    <path class="fil6" d="M30980.06 5926.98l-1293.55 0c-605.36,-1018.41 -1440.92,-1407.05 -2355.58,-2473.91 -463.55,-539.48 -1092.12,-1590.91 -1360.7,-2149.1l3381.59 0c129.91,988.67 682.62,2571.88 1225.28,3647.55 167.22,331.39 299.51,658.38 402.96,975.46z"/>
    <polygon class="fil42" points="31916.69,-1345.01 31887.05,-1347.21 31887.05,-1340.6 "/>
    <path class="fil41" d="M36027.25 5935.79c-19.84,-5.5 -40.74,-8.81 -62.7,-8.81l-1726.14 0c860.95,-1267.22 2064.01,-1856.26 2788.44,-3117.98 305.86,-533.98 548.22,-1038.23 737.39,-1505.03l2146.57 0c-241.04,725.54 -662.52,1518.23 -1401.23,2096.27 -1559.99,1219.88 -2254.52,1870.55 -2482.33,2535.55zm-3849.42 -4631.82l2466.71 0c-218.01,1106.49 -635,2399.03 -1409.96,3747.72 -176.22,306.09 -319.35,598.93 -434.98,875.29l-621.77 0 0 -4623.01z"/>
    <path class="fil6" d="M34238.41 5926.98l-1437.75 0 211.4 -461.3c67.21,-135.44 142.08,-273.05 223.58,-415.08 774.96,-1347.6 1193.27,-2641.25 1409.96,-3747.74l3118.64 0c-189.17,466.8 -431.53,971.07 -737.39,1505.03 -724.43,1261.74 -1927.49,1850.76 -2788.44,3119.09z"/>
    <path class="fil8" d="M35963.23 6386.09l-8053.39 0c-126.74,0 -230.19,-102.4 -230.19,-230.11 0,-126.61 102.39,-230.11 230.19,-230.11l8053.39 0c126.73,0 230.18,102.39 230.18,230.11 0,127.71 -102.39,230.11 -230.18,230.11z"/>
    <path class="fil6" d="M35963.23 6386.09l-8053.39 0 -1.06 0 -1.06 0 -1.32 0c0,0 0,0 -1.06,0l-1.06 0 -1.06 0 -1.06 0c0,0 0,0 -1.05,0 0,0 0,0 -1.33,0 0,0 0,0 -1.05,0 0,0 0,0 -1.06,0 0,0 0,0 -1.06,0 -1.06,0 -3.44,0 -4.5,0l-1.06 0c-96.84,-7.7 -177.27,-75.97 -202.4,-167.35 19.58,5.5 40.74,8.81 61.64,8.81l8053.39 0c126.47,0 230.19,-102.4 230.19,-230.11 0,-22.01 -3.44,-41.83 -9,-61.65 91.55,25.32 159.81,105.7 167.48,203.68 0,1.11 0,3.31 0,4.39 0,0 0,0 0,1.11 0,0 0,0 0,1.11 0,0 0,0 0,1.09 0,0 0,0 0,1.11l0 1.08c0,0 0,0 0,1.11l0 1.12 0 1.08c0,0 0,0 0,1.11l0 1.11 0 1.09 0 1.11c1.06,126.6 -101.33,229 -229.12,229z"/>
    <path class="fil2" d="M17229.85 9315.79c-27.51,-1163.72 -969.8,-2117.17 -2133.36,-2155.72 -405.1,-13.2 -787.08,82.58 -1118.42,259.85 -612.06,-867.57 -1622.58,-1434.6 -2765.21,-1434.6 -1284.66,0 -2401.97,716.76 -2975.51,1771.49 -235.56,-114.51 -500.85,-179.46 -781.55,-179.46 -594.44,0 -1121.73,290.67 -1447.56,736.57 -236.67,-178.38 -536.1,-278.55 -859.74,-262.04 -668.18,33.02 -1211.98,574.7 -1248.3,1243.01 0,6.59 -1.11,13.2 -1.11,19.82 -19.82,503.13 387.48,920.4 890.56,920.4l11558.45 0c473.34,0 861.93,-374.33 880.64,-842.25l0 -77.07 1.11 0z"/>
    <path class="fil1" d="M15414.6 21679.82c-27.52,-1163.74 -969.81,-2117.17 -2133.36,-2155.72 -405.08,-13.2 -787.06,82.58 -1118.42,259.82 -612.04,-867.56 -1622.59,-1434.57 -2765.22,-1434.57 -1284.63,0 -2401.96,716.76 -2975.47,1771.5 -235.59,-114.52 -500.86,-179.47 -781.58,-179.47 -594.44,0 -1121.73,290.67 -1447.57,736.55 -236.67,-178.36 -536.07,-278.53 -859.71,-262.02 -668.2,33.02 -1211.99,574.7 -1248.32,1243.01 0,6.59 -1.1,13.2 -1.1,19.82 -19.82,503.13 387.48,920.4 890.54,920.4l11558.48 0c473.34,0 861.94,-374.33 880.64,-842.24l0 -77.08 1.09 0z"/>
    <path class="fil1" d="M27370.35 21767.9c-27.51,-1163.74 -969.75,-2117.19 -2133.31,-2155.72 -405.07,-13.2 -787.05,82.58 -1118.39,259.82 -612.06,-867.56 -1622.61,-1434.57 -2765.24,-1434.57 -1284.63,0 -2401.97,716.73 -2975.48,1771.5 -235.58,-114.52 -500.85,-179.47 -781.58,-179.47 -594.44,0 -1121.72,290.67 -1447.56,736.55 -236.67,-178.36 -536.07,-278.53 -859.71,-262.02 -668.2,33.02 -1212,574.7 -1248.33,1243.01 0,6.59 -1.09,13.2 -1.09,19.82 -19.81,503.13 387.49,920.4 890.54,920.4l11558.56 0c473.34,0 861.75,-374.33 880.53,-842.24l0 -77.08 1.06 0z"/>
    <path class="fil2" d="M32115.92 23768.39c-441.33,-633.07 -1126.07,-1093.28 -1937.28,-1223.19 -530.75,-84.78 -1049.07,-22.02 -1514.74,156.34 -662.78,-1244.1 -1897.86,-2157.92 -3402.65,-2347.31 -1690.84,-213.57 -3281.49,544.99 -4210.58,1838.65 -291.7,-190.45 -629.65,-319.28 -998.43,-365.53 -782.66,-99.08 -1524.61,195.98 -2027.69,728.85 -282.89,-274.13 -659.36,-455.8 -1087.59,-487.73 -885.03,-67.15 -1690.85,556 -1849.36,1429.09 -1.08,8.79 -3.28,16.51 -4.39,25.32 -13.2,82.55 -18.71,164.05 -15.43,243.32l17048.14 0 0 2.19z"/>
    <path class="fil2" d="M17975.05 23530.58c0,-5.5 0,-11 0,-16.51 -14.31,-778.4 -643.97,-1419.17 -1422.24,-1444.49 -269.69,-8.81 -523.98,55.03 -745.25,172.85 -408.39,-578.01 -1080.98,-955.65 -1842.75,-955.65 -856.43,0 -1600.57,477.82 -1982.55,1180.26 -157.4,-75.96 -333.53,-118.91 -520.67,-118.91 -396.29,0 -747.45,193.76 -964.3,491.04 -158.51,-118.93 -357.77,-186.08 -572.43,-175.07 -5.5,0 -12.11,1.11 -17.62,1.11l0 1103.18 8019.39 0c31.91,-72.65 48.42,-153.03 48.42,-237.81z"/>
    <path class="fil2" d="M40817.8 18746.94c-545.84,-104.61 -1118.39,-122.21 -1699.42,-39.63 -1928.81,277.44 -3452.28,1594.22 -4084.11,3301.84 -378.62,-121.13 -790.31,-160.76 -1210.73,-100.2 -892.97,128.83 -1621.63,678.21 -2013.48,1418.06 -394.23,-216.88 -865.19,-302.76 -1346.2,-208.07 -439.21,85.86 -821.27,314.89 -1103.05,630.85l11459.37 0 0 19.82 9981.94 0 0 -790.5c-549.28,-386.45 -1188.78,-656.19 -1889.92,-768.48 -827.88,-132.13 -1635.92,-34.13 -2361.41,244.42 -1032.4,-1938.84 -2958.83,-3363.51 -5303.57,-3658.58 -143.14,-17.62 -284.96,-30.82 -427.04,-40.74l0 -8.79 -2.38 0z"/>
    <path class="fil2" d="M29638.1 16641.73l0 -9.89c-9.79,-443.71 -478.9,-809.23 -1057.81,-824.66 -200.29,-5.5 -389.73,30.83 -554.83,99.09 -303.74,-330.28 -804.86,-544.99 -1370.54,-544.99 -637.38,0 -1191.08,271.97 -1475.08,673.82 -116.71,-44.06 -248.79,-68.27 -387.51,-68.27 -295.01,0 -555.89,110.1 -717.71,279.64 -117.79,-67.15 -265.3,-105.67 -426,-100.17 -331.37,13.2 -601.06,219.08 -618.68,472.31l0 7.7c-9.89,191.58 191.56,350.12 441.43,350.12l5729.63 0c242.36,1.11 439.21,-149.73 437.1,-334.7z"/>
    <path class="fil2" d="M46279.06 13019.51c-26.45,-1099.88 -917.04,-2001.6 -2017.97,-2039.01 -382.85,-13.23 -744.01,78.15 -1056.75,245.5 -578.91,-820.23 -1534.32,-1356.41 -2614.35,-1356.41 -1215.23,0 -2270.91,677.1 -2812.52,1674.6 -223.57,-107.9 -473.34,-169.54 -738.71,-169.54 -562.51,0 -1059.92,274.13 -1368.16,696.91 -224.64,-168.46 -507.47,-263.13 -812.54,-247.73 -631.82,31.93 -1145.91,543.9 -1180.04,1175.86 0,6.59 -1.06,12.12 -1.06,18.71 -18.78,475.64 365.39,870.87 842.17,870.87l10927.56 0c448.2,0 815.71,-353.4 832.37,-796l0 -73.76z"/>
    <path class="fil2" d="M13097.4 23630.78c-27.51,-1151.65 -959.9,-2096.29 -2112.43,-2134.82 -400.71,-13.2 -779.38,81.47 -1107.41,257.63 -606.56,-858.76 -1607.19,-1420.26 -2738.81,-1420.26 -1272.54,0 -2378.84,709.03 -2945.77,1753.87 -233.36,-113.4 -496.46,-177.27 -773.85,-177.27 -588.94,0 -1110.73,287.37 -1433.26,728.85 -234.47,-176.16 -530.59,-276.33 -850.92,-259.82 -509.68,25.32 -945.6,349.01 -1136.04,799.3l0 590.13 13092.99 0c2.2,-19.82 3.31,-40.74 4.39,-60.56l0 -77.05 1.11 0z"/>
    <rect class="fil0" y="2.17" width="50800" height="1296.46"/>
   </g>
  </g>
  <polygon class="fil43" points="-0,23788.2 50800,23788.2 50800,3.13 -0,3.13 "/>
 </g>
</svg>
