<svg width="122" height="101" viewBox="0 0 122 101" fill="none" xmlns="http://www.w3.org/2000/svg">
<path d="M60.8873 99.9736C42.0285 99.9736 23.1428 99.9736 4.28397 99.9736C2.23936 99.9736 1.05564 98.9954 1.00184 97.2505C0.948032 95.3735 2.07795 94.2367 4.09565 94.2367C10.6061 94.2367 17.0897 94.2367 23.6001 94.2367C53.5698 94.2367 83.5394 94.2367 113.482 94.2367C115.15 94.2367 115.15 94.2367 115.15 92.5711C115.15 72.4259 115.15 52.3072 115.15 32.162C115.15 29.8619 116.307 28.6723 118.378 28.8045C119.804 28.9102 120.88 29.9412 120.988 31.3689C121.015 31.6861 120.988 32.0034 120.988 32.2942C120.988 53.6819 120.988 75.0697 120.988 96.4574C120.988 97.3298 121.015 98.1758 120.423 98.9161C119.724 99.7885 118.782 100 117.679 100C106.138 99.9736 94.6234 100 83.0821 100C75.7107 99.9736 68.3125 99.9736 60.8873 99.9736Z" fill="#EFF4F6"/>
<path d="M106.891 9.26731C105.142 10.034 103.474 10.7478 101.833 11.488C101.134 11.7789 100.461 12.0961 99.6542 11.9375C98.2821 11.6467 97.3944 10.7214 97.2329 9.37306C97.0984 8.26269 97.9055 7.07302 99.2506 6.46496C101.887 5.27528 104.524 4.11204 107.16 2.9488C108.398 2.39362 109.608 1.86488 110.846 1.33613C112.675 0.56945 114.262 1.12463 115.096 2.89593C116.845 6.67646 118.594 10.4834 120.315 14.2904C121.338 16.564 119.858 18.7847 117.545 18.5204C116.441 18.3882 115.661 17.7801 115.204 16.7755C114.531 15.295 113.859 13.7881 113.159 12.3076C113.025 12.0432 112.998 11.5938 112.648 11.5938C112.191 11.5674 112.164 12.0432 112.029 12.334C110.496 15.9559 108.828 19.525 107.026 23.0676C102.129 32.6907 96.2106 41.653 89.0007 49.7692C79.8269 60.0797 69.1465 68.5661 56.6636 74.726C45.768 80.1192 34.2536 83.5296 22.1205 84.9572C16.2826 85.6446 10.4447 85.9618 4.5799 85.8561C3.82663 85.8561 3.07335 85.8296 2.40078 85.3802C1.32467 84.6664 0.840421 83.4767 1.19016 82.3399C1.53989 81.1502 2.5622 80.3307 3.93424 80.2778C5.62911 80.2249 7.35088 80.2514 9.04576 80.2514C17.3318 80.1985 25.4833 79.1939 33.5003 77.2375C47.436 73.8271 60.0265 67.6408 71.218 58.8107C81.2796 50.8531 89.5118 41.2828 96.3182 30.4964C100.273 24.2308 103.636 17.6479 106.541 10.8535C106.703 10.457 106.837 10.0604 106.999 9.63743C106.999 9.61099 106.945 9.53168 106.891 9.26731Z" fill="#EFF4F6"/>
<path d="M106.757 69.0948C106.757 75.2812 106.783 81.4675 106.757 87.6802C106.757 90.0596 104.362 91.4343 102.344 90.2711C101.241 89.6366 100.919 88.632 100.919 87.3894C100.946 78.0042 100.919 68.619 100.919 59.2337C100.919 56.3521 100.919 53.4704 100.919 50.5888C100.919 48.6324 101.995 47.4956 103.797 47.4692C105.653 47.4427 106.757 48.606 106.757 50.6416C106.757 56.8015 106.757 62.9614 106.757 69.0948Z" fill="#EFF4F6"/>
<path d="M86.6333 78.4008C86.6333 75.3605 86.6333 72.3202 86.6333 69.2799C86.6333 67.3235 87.7094 66.1867 89.5387 66.1867C91.3681 66.1867 92.4711 67.2971 92.4711 69.2535C92.4711 75.334 92.4711 81.3882 92.4711 87.4687C92.4711 89.5044 91.395 90.6412 89.5118 90.6412C87.6556 90.6412 86.6333 89.478 86.6333 87.4159C86.6333 84.402 86.6333 81.3882 86.6333 78.4008Z" fill="#EFF4F6"/>
<path d="M78.2127 83.0801C78.2127 84.6399 78.2396 86.1998 78.2127 87.7596C78.1858 89.5837 77.029 90.6676 75.1996 90.6412C73.4778 90.6148 72.3748 89.5044 72.3748 87.7067C72.3479 84.6399 72.3479 81.5468 72.3748 78.4801C72.3748 76.6559 73.5316 75.5455 75.3072 75.5455C77.0828 75.5455 78.1858 76.6823 78.1858 78.5329C78.2127 80.0399 78.2127 81.5468 78.2127 83.0801Z" fill="#EFF4F6"/>
<path d="M64.1426 87.7067C64.1695 89.2136 62.7974 90.5619 61.2102 90.6148C59.5153 90.6676 58.1433 89.4251 58.0894 87.786C58.0356 86.1469 59.4615 84.6928 61.1295 84.6928C62.7167 84.6928 64.1157 86.094 64.1426 87.7067Z" fill="#EFF4F6"/>
<path d="M60.8873 99.9736C42.0285 99.9736 23.1428 99.9736 4.28397 99.9736C2.23936 99.9736 1.05564 98.9954 1.00184 97.2505C0.948032 95.3735 2.07795 94.2367 4.09565 94.2367C10.6061 94.2367 17.0897 94.2367 23.6001 94.2367C53.5698 94.2367 83.5394 94.2367 113.482 94.2367C115.15 94.2367 115.15 94.2367 115.15 92.5711C115.15 72.4259 115.15 52.3072 115.15 32.162C115.15 29.8619 116.307 28.6723 118.378 28.8045C119.804 28.9102 120.88 29.9412 120.988 31.3689C121.015 31.6861 120.988 32.0034 120.988 32.2942C120.988 53.6819 120.988 75.0697 120.988 96.4574C120.988 97.3298 121.015 98.1758 120.423 98.9161C119.724 99.7885 118.782 100 117.679 100C106.138 99.9736 94.6234 100 83.0821 100C75.7107 99.9736 68.3125 99.9736 60.8873 99.9736Z" stroke="#EFF4F6" stroke-width="0.5"/>
<path d="M106.891 9.26731C105.142 10.034 103.474 10.7478 101.833 11.488C101.134 11.7789 100.461 12.0961 99.6542 11.9375C98.2821 11.6467 97.3944 10.7214 97.2329 9.37306C97.0984 8.26269 97.9055 7.07302 99.2506 6.46496C101.887 5.27528 104.524 4.11204 107.16 2.9488C108.398 2.39362 109.608 1.86488 110.846 1.33613C112.675 0.56945 114.262 1.12463 115.096 2.89593C116.845 6.67646 118.594 10.4834 120.315 14.2904C121.338 16.564 119.858 18.7847 117.545 18.5204C116.441 18.3882 115.661 17.7801 115.204 16.7755C114.531 15.295 113.859 13.7881 113.159 12.3076C113.025 12.0432 112.998 11.5938 112.648 11.5938C112.191 11.5674 112.164 12.0432 112.029 12.334C110.496 15.9559 108.828 19.525 107.026 23.0676C102.129 32.6907 96.2106 41.653 89.0007 49.7692C79.8269 60.0797 69.1465 68.5661 56.6636 74.726C45.768 80.1192 34.2536 83.5296 22.1205 84.9572C16.2826 85.6446 10.4447 85.9618 4.5799 85.8561C3.82663 85.8561 3.07335 85.8296 2.40078 85.3802C1.32467 84.6664 0.840421 83.4767 1.19016 82.3399C1.53989 81.1502 2.5622 80.3307 3.93424 80.2778C5.62911 80.2249 7.35088 80.2514 9.04576 80.2514C17.3318 80.1985 25.4833 79.1939 33.5003 77.2375C47.436 73.8271 60.0265 67.6408 71.218 58.8107C81.2796 50.8531 89.5118 41.2828 96.3182 30.4964C100.273 24.2308 103.636 17.6479 106.541 10.8535C106.703 10.457 106.837 10.0604 106.999 9.63743C106.999 9.61099 106.945 9.53168 106.891 9.26731Z" stroke="#EFF4F6" stroke-width="0.5"/>
<path d="M106.757 69.0948C106.757 75.2812 106.783 81.4675 106.757 87.6802C106.757 90.0596 104.362 91.4343 102.344 90.2711C101.241 89.6366 100.919 88.632 100.919 87.3894C100.946 78.0042 100.919 68.619 100.919 59.2337C100.919 56.3521 100.919 53.4704 100.919 50.5888C100.919 48.6324 101.995 47.4956 103.797 47.4692C105.653 47.4427 106.757 48.606 106.757 50.6416C106.757 56.8015 106.757 62.9614 106.757 69.0948Z" stroke="#EFF4F6" stroke-width="0.5"/>
<path d="M86.6333 78.4008C86.6333 75.3605 86.6333 72.3202 86.6333 69.2799C86.6333 67.3235 87.7094 66.1867 89.5387 66.1867C91.3681 66.1867 92.4711 67.2971 92.4711 69.2535C92.4711 75.334 92.4711 81.3882 92.4711 87.4687C92.4711 89.5044 91.395 90.6412 89.5118 90.6412C87.6556 90.6412 86.6333 89.478 86.6333 87.4159C86.6333 84.402 86.6333 81.3882 86.6333 78.4008Z" stroke="#EFF4F6" stroke-width="0.5"/>
<path d="M78.2127 83.0801C78.2127 84.6399 78.2396 86.1998 78.2127 87.7596C78.1858 89.5837 77.029 90.6676 75.1996 90.6412C73.4778 90.6148 72.3748 89.5044 72.3748 87.7067C72.3479 84.6399 72.3479 81.5468 72.3748 78.4801C72.3748 76.6559 73.5316 75.5455 75.3072 75.5455C77.0828 75.5455 78.1858 76.6823 78.1858 78.5329C78.2127 80.0399 78.2127 81.5468 78.2127 83.0801Z" stroke="#EFF4F6" stroke-width="0.5"/>
<path d="M64.1426 87.7067C64.1695 89.2136 62.7974 90.5619 61.2102 90.6148C59.5153 90.6676 58.1433 89.4251 58.0894 87.786C58.0356 86.1469 59.4615 84.6928 61.1295 84.6928C62.7167 84.6928 64.1157 86.094 64.1426 87.7067Z" stroke="#EFF4F6" stroke-width="0.5"/>
</svg>
