<svg width="67" height="69" viewBox="0 0 67 69" fill="none" xmlns="http://www.w3.org/2000/svg">
<g opacity="0.5">
<path d="M0 0H7.52056V3.76682H3.76028V7.53364H0V0Z" fill="#D1D9DD"/>
<path d="M19.8362 0H27.3422V3.76682H23.5819V7.53364H19.8362V0Z" fill="#D1D9DD"/>
<path d="M39.6578 0H47.1784V3.76682H43.4181V7.53364H39.6578V0Z" fill="#D1D9DD"/>
<path d="M59.494 0H67V3.76682H63.2543V7.53364H59.494V0Z" fill="#D1D9DD"/>
<path d="M0 20.4839L7.52056 20.4985V24.2507H3.76028V28.0176H0V20.4839Z" fill="#D1D9DD"/>
<path d="M19.8362 20.4839L27.3422 20.4985V24.2507H23.5819V28.0176H19.8362V20.4839Z" fill="#D1D9DD"/>
<path d="M39.6578 20.4839L47.1784 20.4985V24.2507H43.4181V28.0176H39.6578V20.4839Z" fill="#D1D9DD"/>
<path d="M59.494 20.4839L67 20.4985V24.2507H63.2543V28.0176H59.494V20.4839Z" fill="#D1D9DD"/>
<path d="M0 40.9824H7.52056V44.7493H3.76028V48.5161H0V40.9824Z" fill="#D1D9DD"/>
<path d="M19.8362 40.9824H27.3422V44.7493H23.5819V48.5161H19.8362V40.9824Z" fill="#D1D9DD"/>
<path d="M39.6578 40.9824H47.1784V44.7493H43.4181V48.5161H39.6578V40.9824Z" fill="#D1D9DD"/>
<path d="M59.494 40.9824H67V44.7493H63.2543V48.5161H59.494V40.9824Z" fill="#D1D9DD"/>
<path d="M0 61.4664L7.52056 61.481V65.2332H3.76028V69H0V61.4664Z" fill="#D1D9DD"/>
<path d="M19.8362 61.4664L27.3422 61.481V65.2332H23.5819V69H19.8362V61.4664Z" fill="#D1D9DD"/>
<path d="M39.6578 61.4664L47.1784 61.481V65.2332H43.4181V69H39.6578V61.4664Z" fill="#D1D9DD"/>
<path d="M59.494 61.4664L67 61.481V65.2332H63.2543V69H59.494V61.4664Z" fill="#D1D9DD"/>
</g>
</svg>
