<svg width="447" height="337" viewBox="0 0 447 337" fill="none" xmlns="http://www.w3.org/2000/svg">
<g opacity="0.24">
<g opacity="0.24">
<path d="M161.174 314.383C158.357 302.11 159.292 289.245 163.827 277.494C163.992 277.068 163.305 276.876 163.14 277.302C158.563 289.163 157.656 302.179 160.487 314.562C160.597 315.029 161.284 314.837 161.174 314.383Z" fill="#E04E39"/>
</g>
<g opacity="0.24">
<path d="M163.84 277.879C164.926 267.928 169.75 258.527 177.294 251.93C179.356 250.13 181.788 248.302 184.605 248.04C186.543 247.862 188.646 248.549 189.099 250.666C189.402 252.109 188.866 253.662 188.192 254.912C185.774 259.434 180.799 262.554 176.978 265.784C172.347 269.687 167.757 273.632 163.236 277.645C162.892 277.948 163.401 278.456 163.744 278.154C168.664 273.783 173.666 269.495 178.71 265.262C182.681 261.936 188.852 258.156 189.786 252.59C190.707 247.161 184.88 246.487 181.115 248.37C176.222 250.817 172.182 255.641 169.296 260.19C165.902 265.537 163.799 271.598 163.126 277.893C163.084 278.346 163.799 278.332 163.84 277.879Z" fill="#E04E39"/>
</g>
<g opacity="0.24">
<path d="M163.277 277.879C162.48 271.089 160.748 264.437 158.041 258.156C155.32 251.834 151.169 246.281 148.366 240.014C146.95 236.825 145.054 232.125 146.827 228.757C149.3 224.057 154.303 227.548 156.268 230.709C157.917 233.375 158.687 236.468 159.401 239.478C160.308 243.299 161.174 247.133 161.889 250.995C163.524 259.86 164.129 268.863 162.576 277.796C162.493 278.25 163.18 278.442 163.263 277.989C164.72 269.619 164.335 261.18 162.933 252.823C162.205 248.508 161.256 244.247 160.253 239.986C159.484 236.688 158.7 233.265 156.886 230.352C155.539 228.18 153.203 225.734 150.455 225.679C147.72 225.624 145.892 228.111 145.535 230.599C145.068 233.98 146.511 237.622 147.885 240.646C149.479 244.137 151.554 247.381 153.478 250.707C158.329 259.091 161.449 268.272 162.576 277.893C162.617 278.332 163.332 278.346 163.277 277.879Z" fill="#E04E39"/>
</g>
<g opacity="0.24">
<path d="M160.707 285.933C151.417 279.776 143.556 268.684 142.484 257.428C142.209 254.486 142.388 251.477 143.13 248.604C143.584 246.831 144.477 244.206 146.772 245.553C148.229 246.419 149.273 247.862 150.139 249.305C151.65 251.834 152.503 254.761 153.355 257.565C154.248 260.493 155.004 263.461 155.691 266.43C157.23 273.055 158.467 279.748 160.198 286.332C160.308 286.771 161.009 286.593 160.886 286.139C159.044 279.116 157.766 271.969 156.076 264.918C155.237 261.386 154.275 257.881 153.107 254.445C152.131 251.573 151.005 248.838 148.998 246.515C147.748 245.072 145.59 243.34 143.872 245.154C142.196 246.913 141.934 250.322 141.742 252.604C141.206 258.953 143.02 265.276 146.112 270.787C149.548 276.917 154.481 282.648 160.35 286.552C160.734 286.813 161.092 286.194 160.707 285.933Z" fill="#E04E39"/>
</g>
<g opacity="0.24">
<path d="M173.062 314.315C176.538 296.448 177.253 278.127 175.15 260.039C175.095 259.586 174.381 259.586 174.436 260.039C176.538 278.058 175.838 296.324 172.374 314.122C172.278 314.576 172.965 314.768 173.062 314.315Z" fill="#E04E39"/>
</g>
<g opacity="0.24">
<path d="M176.415 273.041C167.537 263.104 162.507 250.019 162.329 236.701C162.288 233.348 162.535 229.98 163.126 226.682C163.387 225.239 163.744 223.548 164.857 222.504C167.221 220.277 169.09 223.741 169.722 225.637C172.086 232.619 172.732 240.426 173.488 247.71C174.381 256.232 174.931 264.781 175.783 273.302C175.824 273.755 176.539 273.755 176.497 273.302C175.604 264.451 175.054 255.558 174.093 246.707C173.639 242.501 173.089 238.296 172.361 234.117C171.743 230.544 171.344 226.118 169.338 223.012C168.128 221.143 165.861 220.36 164.198 222.16C162.26 224.249 162.136 227.823 161.862 230.503C161.119 237.842 161.903 245.319 164.033 252.37C166.397 260.204 170.451 267.447 175.893 273.549C176.209 273.879 176.717 273.384 176.415 273.041Z" fill="#E04E39"/>
</g>
<g opacity="0.24">
<path d="M176.305 282.153C179.892 276.147 181.225 269.206 181.651 262.293C182.159 253.992 181.129 245.429 182.572 237.196C182.915 235.245 183.685 233.142 185.87 232.729C188.289 232.262 190.336 234.049 191.408 236.028C193.14 239.217 193.868 243.34 194.5 246.886C195.82 254.211 194.844 261.523 192.027 268.409C190.694 271.68 189.031 275.845 186.2 278.126C183.437 280.353 179.507 281.466 175.989 281.617C175.535 281.631 175.522 282.346 175.989 282.332C179.109 282.194 182.324 281.315 185.032 279.762C187.89 278.126 189.47 275.391 190.913 272.519C194.432 265.564 196.466 257.799 195.641 249.978C195.215 245.883 194.267 241.691 192.92 237.815C191.944 235.025 190.048 232.097 186.791 231.946C183.492 231.781 182.201 234.777 181.788 237.567C181.101 242.24 181.156 247.023 181.142 251.738C181.129 261.977 181.101 272.739 175.687 281.81C175.453 282.194 176.071 282.552 176.305 282.153Z" fill="#E04E39"/>
</g>
<g opacity="0.24">
<path d="M175.865 268.849C181.871 251.861 175.247 234.131 175.865 216.786C175.975 213.598 176.168 203.111 181.995 206.849C185.609 209.158 187.217 214.587 188.096 218.532C189.993 227.081 189.965 236.248 188.646 244.879C187.945 249.47 187.121 254.72 184.908 258.857C182.75 262.911 178.999 265.839 175.343 268.464C174.972 268.725 175.329 269.357 175.7 269.083C178.902 266.787 182.077 264.313 184.372 261.07C186.969 257.4 187.89 252.658 188.756 248.315C190.584 239.079 190.817 229.403 189.141 220.126C188.385 215.975 187.107 211.66 184.468 208.265C182.723 206.025 179.232 203.894 177.02 206.808C176.085 208.045 175.824 209.653 175.618 211.151C175.261 213.708 175.109 216.291 175.096 218.875C175.082 224.236 175.673 229.582 176.291 234.901C177.611 246.13 179.026 257.757 175.164 268.67C175.013 269.096 175.714 269.275 175.865 268.849Z" fill="#E04E39"/>
</g>
</g>
<g opacity="0.24">
<g opacity="0.24">
<path d="M59.6846 316.335C61.3887 299.32 50.6969 284.284 44.7601 269.124C37.93 251.724 33.7385 233.224 32.5291 214.56C32.0206 206.602 32.1031 197.091 37.82 190.81C41.0633 187.236 45.9282 186.453 49.2952 190.343C52.2911 193.792 52.2086 198.671 52.1124 202.973C51.6864 221.748 51.1092 240.536 55.9466 258.857C58.6402 269.028 61.6223 278.992 63.1066 289.438C64.3846 298.44 64.687 308.487 59.025 316.142C58.7501 316.514 59.3686 316.871 59.6434 316.5C64.4671 309.985 65.0305 301.656 64.3434 293.836C63.4914 284.215 61.1826 274.773 58.544 265.509C55.7405 255.627 53.6104 245.828 52.9095 235.561C52.2224 225.39 52.511 215.206 52.7721 205.021C52.882 200.871 53.2668 196.349 51.494 192.445C50.2297 189.669 47.646 187.181 44.4852 186.907C36.6657 186.261 32.9139 196.72 32.0481 202.781C30.825 211.44 32.1168 220.607 33.3949 229.197C34.8379 238.928 37.0642 248.535 40.0326 257.909C43.1659 267.749 47.4124 276.972 51.7276 286.331C56.0566 295.732 60.0282 305.738 58.97 316.294C58.9288 316.788 59.6434 316.788 59.6846 316.335Z" fill="#E04E39"/>
</g>
<g opacity="0.24">
<path d="M60.1103 315.827C62.1992 309.161 61.8557 302.055 60.7288 295.252C59.5057 287.858 57.3893 280.601 54.9019 273.55C52.2495 266.032 49.1987 258.651 46.9449 250.996C44.6498 243.258 43.1519 235.286 42.4647 227.246C41.6814 218.092 41.9563 208.87 43.2618 199.785C43.3305 199.332 42.6434 199.139 42.5747 199.593C40.3759 214.945 41.0905 230.655 44.7735 245.732C48.484 260.905 55.589 274.993 59.0109 290.263C60.8662 298.523 61.9793 307.415 59.4095 315.648C59.2858 316.074 59.9867 316.267 60.1103 315.827Z" fill="#E04E39"/>
</g>
<g opacity="0.24">
<path d="M60.0829 314.836C68.7957 299.553 70.8159 282.235 68.9056 264.945C67.9299 256.149 66.0884 247.49 64.0682 238.873C61.9244 229.719 60.4814 220.689 62.9688 211.439C64.989 203.921 70.2799 193.751 79.6936 195.331C83.679 196.005 86.2214 199.262 87.1009 203.042C87.9942 206.918 87.2521 210.793 86.0565 214.518C84.7784 218.49 83.0881 222.352 82.4422 226.503C81.7825 230.681 82.0711 234.928 82.4284 239.12C83.2255 248.425 83.1293 257.647 82.6346 266.966C82.1124 276.738 81.0267 286.647 77.0001 295.677C73.4957 303.525 67.8062 310.933 59.6706 314.3C59.2445 314.479 59.4369 315.166 59.863 314.988C74.9524 308.762 80.9442 291.142 82.6208 276.229C83.7202 266.512 84.1463 256.465 83.7065 246.693C83.4866 241.896 82.7857 237.127 82.7583 232.33C82.7308 227.41 83.8714 222.957 85.4931 218.353C87.7469 211.989 90.2755 203.935 85.5205 197.998C80.9305 192.253 72.5887 194.369 68.2323 199.193C62.7489 205.268 60.7288 214.683 60.825 222.655C60.9211 232.083 64.0682 241.292 65.896 250.473C68.0673 261.358 69.4828 272.518 68.6995 283.637C67.9437 294.509 64.8653 305.009 59.4644 314.479C59.2308 314.878 59.8492 315.235 60.0829 314.836Z" fill="#E04E39"/>
</g>
<g opacity="0.24">
<path d="M60.4953 314.713C68.4523 304.79 74.4716 292.187 75.8184 279.446C76.643 271.598 75.8459 263.53 75.5298 255.669C75.2 247.615 74.8427 239.574 74.5678 231.52C74.3067 223.906 74.4304 215.687 79.2266 209.337C79.5014 208.966 78.883 208.609 78.6082 208.98C74.8289 213.983 73.8807 220.25 73.7845 226.366C73.6608 233.994 74.2517 241.65 74.5678 249.278C74.8839 257.304 75.4611 265.372 75.4061 273.412C75.3649 280.449 74.0319 287.184 71.5582 293.767C68.8096 301.107 64.9205 308.089 60.0143 314.205C59.6983 314.562 60.2067 315.071 60.4953 314.713Z" fill="#E04E39"/>
</g>
<g opacity="0.24">
<path d="M55.6992 317.393C55.1769 311.896 52.1673 307.126 48.8966 302.838C45.3647 298.207 41.3793 294.001 37.4626 289.685C33.0787 284.861 29.4782 279.638 26.3448 273.921C23.3214 268.409 20.0232 262.843 19.02 256.562C18.484 253.236 18.4565 249.855 18.5802 246.501C18.7039 243.23 18.6489 239.492 20.3942 236.605C22.167 233.664 25.8638 232.193 28.7223 234.612C31.3472 236.839 31.7182 240.426 31.9518 243.642C32.8451 255.696 37.4214 266.691 42.8773 277.343C49.1027 289.493 57.8568 302.989 55.012 317.311C54.9158 317.764 55.6167 317.957 55.6992 317.503C58.2416 304.749 51.6313 292.461 45.8869 281.562C39.4966 269.44 33.7109 257.18 32.639 243.326C32.3091 239.038 30.7837 232.207 25.0805 232.633C19.4185 233.059 18.2504 239.725 17.9893 244.206C17.6182 250.762 17.7144 257.455 20.2843 263.599C22.7992 269.591 26.1524 275.556 29.7118 280.985C33.7659 287.184 39.1118 292.255 43.9354 297.835C48.7042 303.347 54.2974 309.834 54.9983 317.393C55.0258 317.847 55.7404 317.847 55.6992 317.393Z" fill="#FF6239"/>
</g>
<g opacity="0.24">
<path d="M55.6995 316.885C54.4352 306.632 51.027 296.695 45.5711 287.898C39.9504 278.827 31.9796 271.213 28.4615 260.932C26.3589 254.803 25.7542 248.26 26.62 241.842C26.675 241.388 25.9878 241.196 25.9329 241.649C24.5174 252.109 27.0598 262.348 32.7767 271.186C35.6214 275.584 38.9747 279.624 42.0255 283.885C45.2825 288.448 48.0586 293.314 50.1887 298.509C52.6074 304.378 54.2015 310.576 54.9849 316.885C55.0398 317.338 55.7545 317.338 55.6995 316.885Z" fill="#E04E39"/>
</g>
</g>
<path opacity="0.24" d="M213.534 336.03C331.465 336.03 427.067 330.984 427.067 324.759C427.067 318.535 331.465 313.489 213.534 313.489C95.6023 313.489 0 318.535 0 324.759C0 330.984 95.6023 336.03 213.534 336.03Z" fill="#738D9A"/>
<path d="M260.52 86.9318L259.585 86.2308L286.178 50.6748L309.65 74.1085L339.43 29.3027L364.346 60.6942L396.408 27.832H446.376V28.9865H396.888L364.25 62.4397L339.513 31.2681L309.842 75.9227L286.301 52.434L260.52 86.9318Z" fill="#F7F9FA"/>
<path opacity="0.24" d="M238.339 17.2354H118.49V86.4095H238.339V17.2354Z" stroke="#D1D9DD" stroke-miterlimit="10"/>
<path opacity="0.24" d="M128.247 24.877H120.73V86.4094H128.247V24.877Z" fill="#D1D9DD"/>
<path opacity="0.24" d="M140.176 35.5703H132.658V86.4098H140.176V35.5703Z" fill="#D1D9DD"/>
<path opacity="0.24" d="M152.104 51.8291H144.587V86.4093H152.104V51.8291Z" fill="#D1D9DD"/>
<path opacity="0.24" d="M164.046 41.2734H156.529V86.4091H164.046V41.2734Z" fill="#D1D9DD"/>
<path opacity="0.24" d="M175.975 63.0723H168.458V86.4235H175.975V63.0723Z" fill="#D1D9DD"/>
<path opacity="0.24" d="M187.903 74.7412H180.386V86.41H187.903V74.7412Z" fill="#D1D9DD"/>
<path opacity="0.24" d="M199.832 51.8291H192.315V86.4093H199.832V51.8291Z" fill="#D1D9DD"/>
<path opacity="0.24" d="M211.761 34.8828H204.244V86.4095H211.761V34.8828Z" fill="#D1D9DD"/>
<path opacity="0.24" d="M223.69 24.877H216.173V86.4094H223.69V24.877Z" fill="#D1D9DD"/>
<path opacity="0.24" d="M235.618 44.9023H228.101V86.4096H235.618V44.9023Z" fill="#D1D9DD"/>
<path d="M298.654 11.5021L296.428 9.34431L294.284 10.4301C293.693 10.0453 293.089 9.70166 292.47 9.41303L292.278 7.02155L289.282 6.26562L287.976 8.27227H287.99C287.633 8.24478 287.289 8.23103 286.932 8.24478C286.574 8.24478 286.231 8.27227 285.874 8.29976H285.887L284.527 6.3206L281.545 7.15899L281.421 9.56421C280.803 9.86659 280.212 10.2239 279.634 10.6225L277.463 9.5917L275.305 11.8045L276.391 13.9486C275.993 14.5396 275.663 15.1443 275.374 15.7766L272.983 15.969L272.213 18.9652L274.22 20.2709C274.206 20.6145 274.192 20.9718 274.192 21.3154C274.192 21.6728 274.22 22.0164 274.247 22.3737L274.234 22.36L272.255 23.7207L273.093 26.7031L275.484 26.8406C275.786 27.4591 276.144 28.0638 276.556 28.6273L275.525 30.7989L277.738 32.9567L279.882 31.8709C280.473 32.2695 281.077 32.5994 281.696 32.888L281.888 35.2795L284.884 36.0491L286.19 34.0425C286.533 34.0562 286.891 34.07 287.234 34.07C287.591 34.07 287.935 34.0425 288.292 34.015L289.639 35.9942L292.621 35.1558L292.745 32.7643C293.363 32.4619 293.954 32.1046 294.531 31.6923L296.689 32.7231L298.86 30.5103L297.775 28.3662C298.16 27.7752 298.503 27.1704 298.792 26.552L301.183 26.3595L301.953 23.3633L299.946 22.0576V22.0714C299.974 21.714 299.987 21.3704 299.974 21.0131C299.974 20.6695 299.946 20.3121 299.919 19.9685L301.898 18.6078L301.059 15.6254L298.654 15.4879C298.352 14.8694 297.995 14.2785 297.596 13.7012L298.654 11.5021ZM293.954 27.8302C290.257 31.6235 284.197 31.6923 280.404 27.9951C276.625 24.2979 276.542 18.2368 280.239 14.4434C283.936 10.6637 289.996 10.5813 293.776 14.2785C297.569 17.9756 297.637 24.0368 293.954 27.8302Z" fill="#F7F9FA"/>
<path d="M298.697 11.4627C297.955 10.748 297.213 10.0195 296.485 9.30485C296.457 9.27736 296.43 9.27736 296.402 9.29111C295.976 9.51101 295.536 9.73092 295.11 9.95082C294.918 10.047 294.602 10.2944 294.382 10.3219C294.107 10.3494 293.709 9.99206 293.434 9.84087C293.159 9.68969 292.65 9.5385 292.527 9.29111C292.431 9.09869 292.486 8.70011 292.458 8.4802C292.417 7.99916 292.376 7.51812 292.348 7.02333C292.348 6.99584 292.334 6.96835 292.293 6.96835C291.29 6.72096 290.3 6.45982 289.297 6.21242C289.27 6.19868 289.242 6.21242 289.229 6.23991C288.789 6.91337 288.349 7.57309 287.923 8.24655C287.909 8.27404 287.923 8.31527 287.951 8.32902C287.401 8.02665 286.453 8.12286 285.917 8.35651C285.958 8.34276 285.985 8.30153 285.958 8.2603C285.504 7.60058 285.051 6.94086 284.597 6.28114C284.584 6.25366 284.556 6.23991 284.529 6.25366C283.539 6.52854 282.55 6.81716 281.546 7.09205C281.519 7.10579 281.505 7.11954 281.505 7.16077C281.478 7.64181 281.45 8.1366 281.423 8.61764C281.409 8.83755 281.464 9.23613 281.382 9.42855C281.272 9.67594 280.763 9.84087 280.488 9.99206C280.213 10.157 279.829 10.5281 279.554 10.5006C279.334 10.4868 279.018 10.2395 278.825 10.157C278.386 9.95082 277.946 9.74466 277.506 9.5385C277.479 9.52476 277.451 9.52476 277.424 9.55224C276.709 10.2944 275.981 11.0229 275.266 11.765C275.239 11.7925 275.239 11.82 275.252 11.8475C275.472 12.2736 275.692 12.7134 275.912 13.1395C276.008 13.3319 276.255 13.648 276.283 13.8679C276.31 14.1428 275.953 14.5414 275.788 14.8162C275.637 15.0911 275.486 15.5997 275.239 15.7234C275.046 15.8196 274.648 15.7646 274.428 15.7921C273.947 15.8333 273.466 15.8608 272.985 15.902C272.957 15.902 272.93 15.9158 272.93 15.957C272.669 16.9603 272.421 17.9499 272.16 18.9532C272.146 18.9807 272.16 19.0082 272.188 19.0219C272.696 19.3518 273.205 19.6817 273.699 20.0115C274.057 20.2452 274.07 20.2314 274.139 20.63C274.235 21.166 273.947 21.8532 274.304 22.3343C274.29 22.3068 274.249 22.293 274.222 22.3068C273.562 22.7603 272.902 23.2139 272.243 23.6675C272.215 23.6812 272.201 23.7087 272.215 23.7362C272.49 24.7258 272.779 25.7153 273.053 26.7187C273.067 26.7461 273.081 26.7599 273.122 26.7599C273.603 26.7874 274.084 26.8149 274.579 26.8424C274.799 26.8561 275.197 26.8011 275.39 26.8836C275.651 26.9935 275.802 27.5021 275.967 27.777C276.132 28.0518 276.503 28.4367 276.475 28.7116C276.462 28.9315 276.214 29.2476 276.132 29.44C275.926 29.8798 275.72 30.3196 275.513 30.7594C275.5 30.7869 275.5 30.8144 275.527 30.8419C276.269 31.5566 276.998 32.285 277.74 32.9997C277.767 33.0272 277.795 33.0272 277.822 33.0135C278.248 32.7936 278.688 32.5737 279.114 32.3537C279.306 32.2575 279.622 32.0101 279.842 31.9827C280.117 31.9552 280.516 32.3125 280.791 32.4774C281.065 32.6286 281.574 32.7798 281.684 33.0272C281.78 33.2196 281.725 33.6182 281.753 33.8381C281.794 34.3192 281.835 34.8002 281.863 35.2812C281.863 35.3087 281.876 35.3362 281.917 35.3362C282.921 35.5974 283.91 35.8448 284.913 36.1059C284.941 36.1196 284.968 36.1059 284.982 36.0784C285.243 35.6661 285.504 35.2675 285.779 34.8552C285.889 34.6765 286.054 34.2917 286.219 34.1817C286.439 34.0168 286.975 34.1267 287.277 34.1267C287.579 34.1267 288.115 34.003 288.349 34.1542C288.528 34.2642 288.693 34.649 288.803 34.8277C289.077 35.2263 289.352 35.6248 289.613 36.0234C289.627 36.0509 289.655 36.0647 289.682 36.0509C290.672 35.776 291.675 35.4874 292.664 35.2125C292.692 35.1988 292.705 35.1713 292.705 35.1438C292.733 34.6628 292.76 34.1817 292.788 33.6869C292.802 33.467 292.747 33.0822 292.829 32.876C292.939 32.6286 293.448 32.4637 293.722 32.2988C293.997 32.1338 294.382 31.7627 294.657 31.7902C294.877 31.804 295.193 32.0514 295.385 32.1338C295.825 32.34 296.265 32.5462 296.691 32.7661C296.718 32.7798 296.746 32.7798 296.773 32.7523C297.502 32.0101 298.216 31.2817 298.945 30.5395C298.972 30.512 298.972 30.4845 298.958 30.4571C298.738 30.031 298.519 29.5912 298.299 29.1651C298.203 28.9727 297.955 28.6566 297.928 28.4367C297.9 28.1618 298.257 27.7632 298.422 27.4883C298.574 27.2134 298.725 26.7049 298.972 26.5812C299.165 26.485 299.563 26.54 299.783 26.5125C300.264 26.4713 300.745 26.43 301.24 26.4025C301.267 26.4025 301.295 26.3888 301.295 26.3476C301.556 25.3442 301.803 24.3547 302.064 23.3513C302.078 23.3239 302.064 23.2964 302.037 23.2826C301.363 22.8428 300.704 22.4167 300.03 21.9769C300.003 21.9632 299.962 21.9769 299.948 22.0044C300.168 21.5096 300.085 20.9874 300.072 20.4651C300.072 19.9016 300.044 19.9703 300.484 19.6679C300.979 19.3243 301.473 18.9807 301.968 18.6371C301.995 18.6234 302.009 18.5959 301.996 18.5684C301.721 17.5788 301.432 16.5892 301.157 15.5859C301.143 15.5584 301.116 15.5447 301.088 15.5447C300.607 15.5172 300.113 15.4897 299.632 15.4622C299.412 15.4485 299.013 15.5035 298.821 15.421C298.574 15.311 298.409 14.8025 298.257 14.5276C298.093 14.2527 297.722 13.8679 297.749 13.593C297.763 13.3731 298.01 13.057 298.093 12.8646C298.299 12.4248 298.505 11.985 298.725 11.5451C298.766 11.4764 298.642 11.4077 298.615 11.4764C298.34 12.0537 297.777 12.8233 297.667 13.4556C297.557 14.1428 298.312 14.8575 298.642 15.5035C298.656 15.5309 298.684 15.5309 298.697 15.5309C299.192 15.5584 300.759 15.3935 301.047 15.6409C301.212 15.7783 301.267 16.3968 301.322 16.6167C301.46 17.1253 301.707 17.6888 301.776 18.2248C301.831 18.6783 301.927 18.4172 301.597 18.7471C301.24 19.0907 300.731 19.3381 300.333 19.6267C299.549 20.1902 299.989 21.1111 299.934 22.0594C299.934 22.1281 300.03 22.1419 300.058 22.0869C299.975 22.2793 301.872 23.1864 301.913 23.5025C301.968 23.9286 301.611 24.6708 301.514 25.0831C301.46 25.2893 301.322 26.2101 301.226 26.2926C300.704 26.7049 299.426 26.1414 298.835 26.485C298.697 26.5675 297.79 28.1755 297.79 28.3405C297.804 28.5329 297.969 28.7528 298.065 28.9177C298.244 29.2751 298.821 30.0172 298.821 30.4158C298.821 30.622 298.395 30.9656 298.161 31.1992C297.818 31.5566 297.378 32.2163 296.938 32.45C296.567 32.6561 296.608 32.5737 296.059 32.3125C295.729 32.1613 295.042 31.6391 294.671 31.6528C294.327 31.6528 293.832 32.1338 293.516 32.3125C293.269 32.4637 292.898 32.5599 292.747 32.7936C292.554 33.1234 292.678 34.0718 292.65 34.4566C292.609 35.1163 292.733 35.0338 292.183 35.2263C291.551 35.4462 290.878 35.5974 290.232 35.776C289.6 35.9547 289.723 35.9272 289.352 35.3912C289.036 34.9239 288.72 34.4566 288.39 33.9893C288.377 33.9756 288.363 33.9618 288.335 33.9618C287.841 34.003 286.59 33.7831 286.205 34.003C285.972 34.1405 285.738 34.704 285.601 34.9239C285.463 35.1438 285.037 35.9547 284.886 35.9822C284.487 36.0784 283.608 35.6523 283.209 35.5561C282.989 35.5012 282.082 35.3637 282 35.2675C281.794 35.0064 281.89 33.9481 281.863 33.6045C281.849 33.412 281.89 33.0272 281.794 32.8623C281.656 32.6561 280.131 31.8315 279.925 31.8315C279.251 31.8177 278.331 32.9722 277.767 32.8623C277.465 32.7936 275.678 31.0343 275.651 30.8281C275.555 30.1547 276.709 29.3438 276.668 28.6428C276.654 28.4229 275.761 26.9386 275.568 26.8149C275.335 26.6637 274.62 26.7599 274.345 26.7461C273.837 26.7187 273.356 26.8011 273.15 26.5125C272.82 26.0452 272.751 25.0831 272.586 24.5333C272.394 23.8461 272.256 23.8874 272.82 23.5025C273.012 23.3651 274.29 22.5542 274.235 22.4717C274.277 22.513 274.359 22.513 274.359 22.4442C274.318 21.9357 274.538 20.7262 274.318 20.3139C274.235 20.1627 273.837 19.984 273.713 19.9153C273.452 19.7366 272.435 19.3106 272.325 19.0082C272.284 18.912 272.545 18.2248 272.586 18.0599C272.71 17.5651 272.751 16.7129 273.04 16.2869C273.218 16.012 273.26 16.0944 273.727 16.0532C274.139 16.0257 274.977 16.1219 275.335 15.9295C275.61 15.7783 275.678 15.4622 275.843 15.1461C275.994 14.8712 276.503 14.294 276.489 14.0053C276.475 13.6342 275.994 13.0295 275.829 12.7134C275.692 12.4523 275.431 12.0262 275.472 11.875C275.541 11.5314 276.407 10.9129 276.654 10.6655C276.819 10.4868 277.3 9.82713 277.534 9.75841C277.685 9.71717 278.564 10.2669 278.784 10.3769C279.004 10.4868 279.416 10.7755 279.65 10.7892C280.062 10.803 281.093 9.92334 281.491 9.71718C281.519 9.70343 281.519 9.67594 281.519 9.6622C281.546 9.05746 281.409 8.10911 281.629 7.5456C281.808 7.10579 282.495 7.0783 283.086 6.91337C283.663 6.74844 284.309 6.3911 284.666 6.69347C284.927 6.91337 285.669 8.43897 285.889 8.34276C285.834 8.37025 285.834 8.4802 285.903 8.46646C286.604 8.41148 287.305 8.39774 288.019 8.43897C288.088 8.43897 288.102 8.34276 288.047 8.31527C288.212 8.41148 288.981 6.83091 289.215 6.62475C289.572 6.30863 290.218 6.65223 290.795 6.80342C291.386 6.95461 292.101 6.95461 292.266 7.40816C292.486 8.0129 292.128 8.96125 292.431 9.52476C292.527 9.70343 294.121 10.6105 294.327 10.5968C294.808 10.5693 295.536 9.99206 295.962 9.77215C296.636 9.42855 296.595 9.67594 297.172 10.2395C297.653 10.7068 298.148 11.1878 298.629 11.6551C298.67 11.6139 298.766 11.5177 298.697 11.4627Z" fill="#F7F9FA"/>
<path d="M293.901 27.7773C291.07 30.5811 286.796 31.4607 283.141 29.7977C279.595 28.1758 277.369 24.4512 277.602 20.5616C277.836 16.5483 280.708 13.0436 284.57 11.9715C288.432 10.8995 292.623 12.4526 294.918 15.7374C297.529 19.4621 296.98 24.5062 293.901 27.7773C293.846 27.8322 293.942 27.9285 293.997 27.8735C296.718 24.9735 297.529 20.7128 295.839 17.0706C294.094 13.3185 290.026 11.0782 285.93 11.5729C282.014 12.0402 278.688 14.9815 277.74 18.8161C276.764 22.7607 278.427 26.9939 281.821 29.2204C285.683 31.7493 290.754 31.0896 293.997 27.8872C294.052 27.8185 293.97 27.7223 293.901 27.7773Z" fill="#F7F9FA"/>
<g opacity="0.43">
<path d="M378.28 3.40742L376.851 2.01926L375.476 2.72022C375.105 2.47282 374.707 2.25291 374.308 2.0605L374.184 0.521156L372.261 0.0263672L371.422 1.31831H371.436C371.216 1.30457 370.982 1.29083 370.763 1.30457C370.543 1.30457 370.309 1.31831 370.089 1.3458H370.103L369.223 0.0813437L367.313 0.617364L367.231 2.15671C366.832 2.34912 366.447 2.58277 366.076 2.84391L364.688 2.18419L363.3 3.61358L364.001 4.988C363.754 5.35909 363.534 5.75767 363.342 6.15625L361.802 6.27994L361.308 8.20412L362.599 9.04251C362.586 9.26242 362.586 9.49607 362.586 9.71597C362.586 9.93588 362.599 10.1695 362.627 10.3894V10.3757L361.363 11.2416L361.899 13.152L363.438 13.2345C363.63 13.633 363.864 14.0179 364.125 14.389L363.465 15.7771L364.881 17.1653L366.255 16.4643C366.64 16.7255 367.025 16.9316 367.423 17.1241L367.547 18.6634L369.471 19.1582L370.309 17.8662C370.529 17.88 370.763 17.88 370.982 17.88C371.202 17.88 371.436 17.8662 371.656 17.8525L372.522 19.117L374.432 18.5809L374.514 17.0416C374.913 16.8492 375.298 16.6155 375.669 16.3544L377.057 17.0141L378.445 15.5985L377.744 14.224C377.991 13.853 378.211 13.4544 378.403 13.0558L379.943 12.9321L380.437 11.0079L379.146 10.1695V10.1833C379.159 9.96337 379.173 9.72972 379.159 9.50981C379.159 9.28991 379.146 9.05626 379.132 8.83635L380.396 7.97047L379.86 6.06004L378.321 5.97757C378.129 5.57899 377.909 5.19416 377.634 4.82307L378.28 3.40742ZM375.27 13.8942C372.906 16.3269 369.003 16.3681 366.571 14.0041C364.139 11.6401 364.097 7.73682 366.461 5.30411C368.825 2.8714 372.728 2.83017 375.16 5.19416C377.593 7.55815 377.634 11.4615 375.27 13.8942Z" fill="#D1D9DD"/>
<g opacity="0.43">
<path opacity="0.43" d="M378.309 3.38113C377.828 2.91383 377.36 2.46027 376.879 1.99297C376.866 1.97923 376.852 1.97923 376.824 1.99297C376.549 2.13041 376.275 2.26785 375.986 2.41904C375.862 2.48776 375.656 2.63894 375.519 2.65269C375.34 2.66643 375.079 2.43278 374.914 2.33657C374.735 2.24036 374.406 2.14416 374.337 1.97923C374.282 1.85553 374.309 1.59439 374.296 1.45695C374.268 1.14083 374.241 0.838464 374.227 0.522349C374.227 0.508605 374.213 0.481117 374.199 0.481117C373.554 0.316187 372.921 0.151258 372.275 -0.0136719C372.262 -0.0136719 372.234 -0.0136719 372.234 7.22473e-05C371.959 0.42614 371.671 0.865952 371.396 1.29202C371.382 1.30576 371.396 1.33325 371.41 1.347C371.066 1.15458 370.448 1.2233 370.104 1.36074C370.132 1.347 370.145 1.31951 370.132 1.30576C369.843 0.879696 369.554 0.467372 369.252 0.0413046C369.238 0.0275605 369.225 0.0138164 369.211 0.0275605C368.579 0.206234 367.933 0.384908 367.301 0.563581C367.287 0.563581 367.273 0.59107 367.273 0.604814C367.259 0.920928 367.246 1.2233 367.218 1.53941C367.204 1.67686 367.246 1.93799 367.191 2.06169C367.122 2.22662 366.792 2.32283 366.627 2.43278C366.449 2.52899 366.201 2.77639 366.023 2.76264C365.885 2.7489 365.679 2.59771 365.555 2.54274C365.28 2.40529 364.992 2.2816 364.717 2.14416C364.703 2.13041 364.676 2.14416 364.662 2.1579C364.195 2.6252 363.741 3.10624 363.274 3.57354C363.26 3.58729 363.26 3.60103 363.274 3.62852C363.411 3.9034 363.549 4.17829 363.7 4.46691C363.769 4.59061 363.92 4.79677 363.934 4.93421C363.947 5.11289 363.714 5.37402 363.618 5.53895C363.521 5.71763 363.425 6.04749 363.26 6.11621C363.137 6.17118 362.875 6.1437 362.738 6.15744C362.422 6.18493 362.12 6.21242 361.804 6.22616C361.79 6.22616 361.762 6.2399 361.762 6.25365C361.597 6.89962 361.432 7.53185 361.268 8.17783C361.268 8.19157 361.268 8.21906 361.281 8.21906C361.611 8.42522 361.927 8.64513 362.257 8.85129C362.491 9.00247 362.504 8.98873 362.546 9.24987C362.601 9.59347 362.422 10.0333 362.656 10.3494C362.642 10.3357 362.614 10.3219 362.601 10.3357C362.175 10.6243 361.762 10.9129 361.336 11.2015C361.323 11.2153 361.309 11.229 361.323 11.2428C361.501 11.875 361.68 12.521 361.859 13.1532C361.859 13.1669 361.886 13.1807 361.9 13.1807C362.216 13.1944 362.518 13.2082 362.834 13.2357C362.972 13.2494 363.233 13.2082 363.356 13.2632C363.521 13.3319 363.618 13.6617 363.728 13.8267C363.824 14.0053 364.071 14.2527 364.057 14.4314C364.044 14.5688 363.892 14.775 363.837 14.8987C363.7 15.1736 363.576 15.4622 363.439 15.7371C363.425 15.7508 363.439 15.7783 363.453 15.7921C363.92 16.2594 364.401 16.7129 364.868 17.1802C364.882 17.194 364.896 17.194 364.923 17.1802C365.198 17.0428 365.473 16.9053 365.761 16.7542C365.885 16.6854 366.091 16.5343 366.229 16.5205C366.407 16.5068 366.668 16.7404 366.833 16.8366C367.012 16.9328 367.342 17.029 367.411 17.194C367.466 17.3177 367.438 17.5788 367.452 17.7162C367.479 18.0324 367.507 18.3347 367.52 18.6508C367.52 18.6646 367.534 18.6921 367.548 18.6921C368.194 18.857 368.826 19.0219 369.472 19.1869C369.486 19.1869 369.513 19.1869 369.513 19.1731C369.678 18.912 369.857 18.6508 370.022 18.3897C370.09 18.2798 370.2 18.0324 370.31 17.9499C370.461 17.8537 370.791 17.9224 370.997 17.9087C371.19 17.9087 371.533 17.8262 371.685 17.9224C371.794 17.9911 371.904 18.2385 371.973 18.3485C372.152 18.6096 372.317 18.857 372.495 19.1181C372.509 19.1319 372.523 19.1456 372.537 19.1319C373.169 18.9532 373.815 18.7745 374.447 18.5959C374.461 18.5959 374.474 18.5684 374.474 18.5546C374.488 18.2385 374.502 17.9362 374.529 17.62C374.543 17.4826 374.502 17.2215 374.557 17.0978C374.625 16.9328 374.955 16.8366 375.12 16.7267C375.299 16.6305 375.546 16.3831 375.725 16.3968C375.862 16.4106 376.068 16.5617 376.192 16.6167C376.467 16.7542 376.756 16.8779 377.03 17.0153C377.044 17.029 377.072 17.0153 377.085 17.0016C377.553 16.5205 378.006 16.0532 378.473 15.5722C378.487 15.5584 378.487 15.5447 378.473 15.5172C378.336 15.2423 378.185 14.9674 378.047 14.6788C377.979 14.5551 377.828 14.3489 377.814 14.2115C377.8 14.0328 378.034 13.7717 378.13 13.6068C378.226 13.4281 378.322 13.0982 378.487 13.0295C378.611 12.9745 378.872 13.002 379.009 12.9883C379.325 12.9608 379.628 12.9333 379.944 12.9195C379.958 12.9195 379.985 12.9058 379.985 12.8921C380.15 12.2461 380.315 11.6139 380.48 10.9679C380.48 10.9541 380.48 10.9267 380.466 10.9267C380.04 10.6518 379.6 10.3631 379.174 10.0883C379.161 10.0745 379.133 10.0883 379.119 10.102C379.257 9.78589 379.202 9.45603 379.202 9.11243C379.202 8.75508 379.188 8.79631 379.477 8.60389C379.793 8.38399 380.109 8.16408 380.439 7.94418C380.452 7.93043 380.466 7.91669 380.452 7.90294C380.274 7.27071 380.095 6.62474 379.916 5.99251C379.916 5.97877 379.889 5.96502 379.875 5.96502C379.559 5.95128 379.257 5.93753 378.941 5.91005C378.803 5.8963 378.542 5.93753 378.418 5.88256C378.254 5.81384 378.157 5.48398 378.047 5.31905C377.951 5.14037 377.704 4.89298 377.718 4.71431C377.731 4.57687 377.882 4.3707 377.937 4.24701C378.075 3.97212 378.212 3.6835 378.336 3.40861C378.363 3.36738 378.281 3.32615 378.267 3.36738C378.089 3.73847 377.731 4.23326 377.663 4.63184C377.594 5.07165 378.075 5.52521 378.281 5.95128C378.281 5.96502 378.309 5.96502 378.322 5.96502C378.638 5.97877 379.642 5.88256 379.82 6.03374C379.93 6.12995 379.958 6.51479 379.999 6.66597C380.095 6.99583 380.246 7.35318 380.287 7.69678C380.315 7.98541 380.384 7.82048 380.178 8.02664C379.958 8.24655 379.628 8.39773 379.367 8.59015C378.858 8.9475 379.147 9.53849 379.106 10.1432C379.106 10.1845 379.161 10.1982 379.188 10.157C379.133 10.2807 380.356 10.8717 380.384 11.0641C380.425 11.339 380.191 11.8063 380.123 12.0812C380.095 12.2049 379.999 12.8096 379.93 12.8508C379.587 13.112 378.776 12.7546 378.391 12.9745C378.295 13.0295 377.718 14.0603 377.718 14.1565C377.718 14.2802 377.841 14.4177 377.896 14.5276C378.02 14.7613 378.377 15.2286 378.391 15.4897C378.391 15.6134 378.116 15.8333 377.965 15.9982C377.745 16.2319 377.456 16.6442 377.182 16.7954C376.934 16.9328 376.975 16.8779 376.618 16.6992C376.412 16.603 375.958 16.2731 375.725 16.2731C375.505 16.2731 375.189 16.5892 374.983 16.6992C374.818 16.7954 374.584 16.8641 374.488 17.0153C374.364 17.2215 374.447 17.8399 374.433 18.0873C374.406 18.5134 374.488 18.4584 374.131 18.5821C373.732 18.7196 373.292 18.8158 372.88 18.9395C372.482 19.0494 372.55 19.0357 372.317 18.6921C372.111 18.3897 371.904 18.0873 371.698 17.7987C371.685 17.785 371.671 17.7712 371.657 17.785C371.341 17.8125 370.544 17.6613 370.283 17.8125C370.132 17.8949 369.98 18.266 369.898 18.4035C369.802 18.5409 369.541 19.0632 369.444 19.0907C369.183 19.1456 368.62 18.8845 368.359 18.8158C368.221 18.7745 367.644 18.6921 367.589 18.6234C367.452 18.4584 367.521 17.7712 367.507 17.5651C367.493 17.4414 367.521 17.194 367.452 17.084C367.369 16.9466 366.38 16.4243 366.256 16.4243C365.816 16.4243 365.225 17.1665 364.868 17.084C364.676 17.0428 363.535 15.902 363.508 15.7783C363.439 15.3385 364.181 14.8162 364.167 14.3764C364.154 14.239 363.576 13.2769 363.466 13.2082C363.315 13.112 362.862 13.1669 362.683 13.1669C362.353 13.1532 362.051 13.2082 361.913 13.0158C361.707 12.7134 361.652 12.0949 361.556 11.7376C361.432 11.2977 361.35 11.3252 361.707 11.0778C361.831 10.9954 362.656 10.4593 362.614 10.4181C362.642 10.4456 362.697 10.4456 362.697 10.3906C362.669 10.0608 362.807 9.2911 362.669 9.01622C362.614 8.92001 362.353 8.81005 362.285 8.75508C362.106 8.64513 361.46 8.3565 361.391 8.17783C361.364 8.12285 361.529 7.66929 361.556 7.55934C361.639 7.24323 361.666 6.69346 361.845 6.41858C361.955 6.2399 361.982 6.29488 362.285 6.26739C362.546 6.25365 363.082 6.30863 363.315 6.18493C363.494 6.08872 363.535 5.88256 363.645 5.6764C363.741 5.49772 364.071 5.12663 364.057 4.94796C364.044 4.71431 363.741 4.32947 363.631 4.10956C363.549 3.94464 363.384 3.66975 363.398 3.57354C363.439 3.35364 364.002 2.95506 364.154 2.79013C364.263 2.68018 364.566 2.25411 364.717 2.21288C364.813 2.18539 365.377 2.54273 365.528 2.61146C365.665 2.68018 365.926 2.87259 366.091 2.87259C366.352 2.88634 367.012 2.32283 367.273 2.18539C367.287 2.18539 367.287 2.1579 367.287 2.14416C367.314 1.74558 367.218 1.14083 367.356 0.783487C367.466 0.494861 367.905 0.481117 368.29 0.371164C368.661 0.261211 369.073 0.0413046 369.307 0.233722C369.472 0.371164 369.953 1.36074 370.09 1.29202C370.049 1.30576 370.049 1.37448 370.104 1.37448C370.558 1.33325 371.011 1.33325 371.465 1.36074C371.506 1.36074 371.52 1.30576 371.478 1.27828C371.588 1.33325 372.083 0.329931 372.234 0.19249C372.454 -0.0136719 372.88 0.206234 373.251 0.302443C373.636 0.398652 374.09 0.398652 374.199 0.687278C374.337 1.08586 374.117 1.67686 374.309 2.04795C374.364 2.1579 375.395 2.73515 375.519 2.73515C375.807 2.7489 376.275 2.36406 376.549 2.22662C376.975 2.00671 376.962 2.17164 377.333 2.52899C377.649 2.83136 377.951 3.13373 378.267 3.4361C378.295 3.47734 378.35 3.42236 378.309 3.38113Z" fill="#D1D9DD"/>
<path opacity="0.43" d="M375.23 13.8538C373.416 15.6543 370.667 16.2178 368.317 15.1458C366.036 14.1012 364.607 11.7097 364.758 9.20831C364.909 6.63816 366.751 4.38412 369.238 3.69691C371.726 3.00971 374.405 3.99928 375.89 6.11588C377.566 8.5211 377.209 11.7647 375.23 13.8538C375.189 13.8951 375.257 13.95 375.285 13.9088C377.03 12.0396 377.552 9.31826 376.467 6.96802C375.34 4.56279 372.743 3.11966 370.104 3.43578C367.589 3.73815 365.459 5.62109 364.84 8.08129C364.208 10.6102 365.28 13.3315 367.465 14.7609C369.939 16.3827 373.196 15.9567 375.285 13.8951C375.326 13.8813 375.271 13.8263 375.23 13.8538Z" fill="#7BB9F5"/>
</g>
</g>
<g opacity="0.23">
<path opacity="0.5" d="M424.649 80.087L423.068 78.5477L421.543 79.3174C421.131 79.0425 420.691 78.7951 420.251 78.5889L420.114 76.8847L417.984 76.3486L417.049 77.778H417.063C416.815 77.7643 416.568 77.7505 416.307 77.7505C416.06 77.7505 415.799 77.7643 415.551 77.7918H415.565L414.603 76.3899L412.487 76.9809L412.39 78.6851C411.951 78.8913 411.525 79.1524 411.112 79.4411L409.573 78.7126L408.034 80.2932L408.803 81.8188C408.529 82.2311 408.281 82.6709 408.075 83.1107L406.371 83.2482L405.821 85.3785L407.251 86.3131C407.237 86.5605 407.223 86.8079 407.237 87.0553C407.237 87.3027 407.251 87.5638 407.278 87.8112V87.7975L405.876 88.7596L406.467 90.8762L408.171 90.9724C408.391 91.4122 408.639 91.8383 408.927 92.2506L408.199 93.7899L409.779 95.3293L411.305 94.5596C411.717 94.8345 412.157 95.0819 412.596 95.288L412.734 96.9923L414.864 97.5421L415.798 96.1127C416.046 96.1264 416.293 96.1402 416.541 96.1264C416.788 96.1264 417.035 96.1127 417.283 96.0852L418.245 97.4871L420.361 96.8961L420.457 95.1918C420.897 94.9719 421.323 94.7245 421.735 94.4359L423.275 95.1643L424.814 93.5838L424.044 92.0582C424.319 91.6459 424.566 91.206 424.772 90.7662L426.477 90.6288L427.013 88.4984L425.583 87.5638V87.5776C425.597 87.3302 425.611 87.0828 425.597 86.8217C425.597 86.5743 425.583 86.3269 425.556 86.0795L426.958 85.1174L426.367 83.0008L424.663 82.9046C424.456 82.4648 424.195 82.0387 423.907 81.6264L424.649 80.087ZM421.309 91.6733C418.684 94.3672 414.383 94.4222 411.689 91.797C408.996 89.1719 408.941 84.87 411.566 82.1761C414.191 79.4823 418.492 79.4273 421.186 82.0524C423.879 84.6776 423.934 88.9932 421.309 91.6733Z" fill="#D1D9DD"/>
<g opacity="0.23">
<path opacity="0.23" d="M424.688 80.0596C424.166 79.5511 423.643 79.0288 423.107 78.5203C423.094 78.5065 423.066 78.5065 423.052 78.5203C422.75 78.6715 422.434 78.8364 422.132 78.9876C421.994 79.0563 421.774 79.235 421.623 79.2487C421.431 79.2762 421.142 79.0151 420.95 78.9051C420.757 78.7952 420.386 78.699 420.304 78.5203C420.235 78.3828 420.276 78.0942 420.263 77.943C420.235 77.5994 420.208 77.2558 420.18 76.9122C420.18 76.8985 420.167 76.871 420.153 76.871C419.438 76.6923 418.737 76.5136 418.023 76.335C417.995 76.335 417.981 76.335 417.968 76.3624C417.652 76.8435 417.349 77.3108 417.033 77.7918C417.019 77.8056 417.033 77.8468 417.047 77.8606C416.662 77.6544 415.989 77.7231 415.604 77.888C415.631 77.8743 415.645 77.8468 415.631 77.8193C415.315 77.352 414.986 76.8847 414.669 76.4174C414.656 76.4037 414.642 76.3899 414.615 76.4037C413.914 76.5961 413.199 76.8023 412.498 76.9947C412.484 76.9947 412.471 77.0222 412.471 77.0359C412.457 77.3795 412.429 77.7231 412.416 78.0667C412.402 78.2179 412.443 78.5065 412.388 78.644C412.306 78.8226 411.948 78.9326 411.756 79.0425C411.564 79.1525 411.289 79.4274 411.096 79.3999C410.945 79.3862 410.712 79.2212 410.574 79.1525C410.258 79.0013 409.956 78.8501 409.64 78.7127C409.626 78.6989 409.598 78.6989 409.585 78.7264C409.076 79.2487 408.568 79.771 408.046 80.307C408.032 80.3208 408.032 80.3482 408.046 80.362C408.197 80.6644 408.362 80.9805 408.513 81.2828C408.581 81.4203 408.76 81.6402 408.774 81.7914C408.801 81.9838 408.54 82.2724 408.43 82.4648C408.32 82.6573 408.21 83.0283 408.046 83.1108C407.908 83.1795 407.619 83.1383 407.468 83.152C407.125 83.1795 406.781 83.207 406.438 83.2345C406.424 83.2345 406.396 83.2483 406.396 83.262C406.218 83.9767 406.039 84.6776 405.847 85.3923C405.847 85.4198 405.847 85.4336 405.874 85.4473C406.231 85.681 406.589 85.9146 406.946 86.1483C407.193 86.3132 407.221 86.2994 407.262 86.5881C407.331 86.9729 407.125 87.454 407.372 87.7976C407.358 87.7838 407.331 87.7701 407.303 87.7838C406.836 88.0999 406.369 88.4298 405.902 88.7459C405.888 88.7596 405.874 88.7734 405.888 88.8009C406.08 89.5018 406.286 90.2165 406.479 90.9175C406.479 90.9312 406.506 90.945 406.52 90.945C406.864 90.9587 407.207 90.9862 407.551 90.9999C407.702 91.0137 407.991 90.9725 408.128 91.0274C408.307 91.1099 408.417 91.4672 408.54 91.6597C408.65 91.8521 408.925 92.127 408.898 92.3194C408.884 92.4706 408.719 92.7042 408.65 92.8417C408.499 93.1578 408.348 93.4601 408.21 93.7763C408.197 93.79 408.197 93.8175 408.224 93.8312C408.746 94.3398 409.269 94.8483 409.805 95.3706C409.818 95.3843 409.846 95.3843 409.86 95.3706C410.162 95.2194 410.478 95.0545 410.78 94.9033C410.918 94.8346 411.138 94.6559 411.289 94.6421C411.481 94.6146 411.77 94.8758 411.962 94.9857C412.155 95.0957 412.512 95.1919 412.594 95.3706C412.663 95.508 412.622 95.7966 412.636 95.9478C412.663 96.2914 412.691 96.635 412.718 96.9786C412.718 96.9924 412.732 97.0199 412.745 97.0199C413.46 97.1985 414.161 97.3772 414.876 97.5696C414.903 97.5696 414.917 97.5696 414.931 97.5421C415.123 97.2535 415.302 96.9649 415.494 96.6763C415.576 96.5526 415.686 96.2777 415.81 96.1952C415.975 96.0853 416.346 96.154 416.566 96.154C416.786 96.154 417.171 96.0715 417.322 96.1677C417.445 96.2502 417.569 96.5251 417.652 96.6488C417.844 96.9374 418.036 97.2123 418.229 97.5009C418.243 97.5147 418.256 97.5284 418.284 97.5146C418.985 97.3222 419.699 97.1161 420.4 96.9237C420.414 96.9237 420.428 96.8962 420.428 96.8824C420.441 96.5388 420.469 96.1952 420.483 95.8516C420.496 95.7004 420.455 95.4118 420.51 95.2744C420.593 95.0957 420.95 94.972 421.142 94.862C421.335 94.7521 421.609 94.4772 421.802 94.5047C421.953 94.5184 422.187 94.6834 422.324 94.7521C422.64 94.9033 422.943 95.0545 423.259 95.1919C423.272 95.2056 423.3 95.2056 423.314 95.1782C423.822 94.6559 424.344 94.1336 424.853 93.5976C424.867 93.5838 424.867 93.5563 424.853 93.5426C424.702 93.2402 424.537 92.9241 424.386 92.6217C424.317 92.4843 424.138 92.2644 424.124 92.1132C424.097 91.9208 424.358 91.6322 424.468 91.4397C424.578 91.2473 424.688 90.8762 424.853 90.7938C424.99 90.7251 425.279 90.7663 425.43 90.7525C425.774 90.7251 426.117 90.6976 426.461 90.6701C426.474 90.6701 426.502 90.6563 426.502 90.6426C426.681 89.9279 426.859 89.2269 427.038 88.5123C427.038 88.4848 427.038 88.471 427.01 88.4573C426.529 88.1412 426.062 87.8388 425.581 87.5227C425.567 87.5089 425.526 87.5227 425.512 87.5364C425.664 87.1928 425.609 86.8217 425.609 86.4506C425.609 86.0521 425.595 86.0933 425.911 85.8871C426.268 85.6397 426.612 85.4061 426.969 85.1587C426.983 85.1449 426.997 85.1312 426.983 85.1037C426.791 84.4028 426.584 83.6881 426.392 82.9871C426.392 82.9734 426.364 82.9596 426.351 82.9596C426.007 82.9459 425.664 82.9184 425.32 82.9047C425.169 82.8909 424.88 82.9321 424.743 82.8772C424.564 82.7947 424.454 82.4374 424.344 82.2449C424.234 82.0525 423.959 81.7776 423.987 81.5852C424.001 81.434 424.166 81.2004 424.234 81.0629C424.386 80.7468 424.537 80.4445 424.674 80.1283C424.702 80.0734 424.619 80.0321 424.592 80.0871C424.399 80.4994 423.987 81.0492 423.918 81.489C423.836 81.9701 424.372 82.4786 424.605 82.9459C424.619 82.9596 424.633 82.9734 424.647 82.9734C425.004 82.9871 426.103 82.8772 426.309 83.0558C426.433 83.152 426.461 83.5919 426.502 83.743C426.598 84.1004 426.777 84.5127 426.818 84.8838C426.859 85.1999 426.928 85.0212 426.694 85.2549C426.447 85.5023 426.076 85.6672 425.787 85.8734C425.224 86.272 425.54 86.9317 425.499 87.5914C425.499 87.6326 425.567 87.6601 425.581 87.6189C425.526 87.7563 426.873 88.4023 426.9 88.6222C426.942 88.9246 426.694 89.4469 426.612 89.7492C426.571 89.8867 426.474 90.5464 426.406 90.6014C426.035 90.89 425.128 90.4914 424.702 90.7388C424.605 90.7938 423.959 91.9345 423.959 92.0582C423.959 92.1957 424.083 92.3469 424.152 92.4706C424.276 92.7317 424.688 93.254 424.688 93.5289C424.688 93.6663 424.386 93.9137 424.221 94.0924C423.973 94.3398 423.657 94.8071 423.355 94.9857C423.094 95.1369 423.121 95.0682 422.736 94.8895C422.503 94.7796 422.008 94.4222 421.747 94.4222C421.5 94.4222 421.142 94.7658 420.922 94.8895C420.744 94.9995 420.483 95.0682 420.373 95.2331C420.235 95.4668 420.318 96.1402 420.304 96.4151C420.276 96.8824 420.373 96.8137 419.974 96.9649C419.521 97.1298 419.053 97.226 418.586 97.3497C418.146 97.4734 418.229 97.4597 417.954 97.0748C417.734 96.745 417.5 96.4151 417.281 96.0853C417.267 96.0715 417.253 96.0578 417.239 96.0578C416.896 96.0853 416.003 95.9203 415.728 96.0853C415.563 96.1815 415.398 96.5801 415.302 96.745C415.205 96.8962 414.903 97.4734 414.793 97.5009C414.505 97.5696 413.886 97.2673 413.598 97.1985C413.446 97.1573 412.8 97.0611 412.745 96.9924C412.594 96.8 412.677 96.0578 412.649 95.8104C412.636 95.6729 412.677 95.3981 412.594 95.2881C412.498 95.1369 411.412 94.5597 411.261 94.5459C410.78 94.5459 410.121 95.3568 409.722 95.2744C409.516 95.2331 408.238 93.9687 408.224 93.8312C408.155 93.3502 408.966 92.7729 408.952 92.2781C408.939 92.1132 408.307 91.0687 408.169 90.9862C408.004 90.8762 407.496 90.945 407.303 90.9312C406.946 90.9175 406.603 90.9725 406.451 90.7663C406.218 90.4364 406.163 89.7492 406.053 89.3506C405.915 88.8696 405.819 88.8971 406.218 88.6222C406.355 88.526 407.262 87.9487 407.221 87.88C407.248 87.9075 407.317 87.9075 407.303 87.8525C407.276 87.4952 407.427 86.6431 407.276 86.3407C407.221 86.2307 406.932 86.107 406.85 86.0521C406.657 85.9284 405.943 85.6122 405.86 85.4061C405.833 85.3374 406.012 84.8426 406.039 84.7326C406.122 84.389 406.163 83.7705 406.355 83.4819C406.479 83.2895 406.506 83.3445 406.85 83.317C407.138 83.2895 407.743 83.372 407.991 83.2345C408.183 83.1246 408.238 82.9047 408.348 82.671C408.458 82.4786 408.815 82.0663 408.815 81.8601C408.801 81.599 408.472 81.1729 408.348 80.9392C408.252 80.7468 408.073 80.4582 408.087 80.3482C408.142 80.1008 408.746 79.661 408.925 79.4824C409.049 79.3587 409.379 78.8776 409.557 78.8364C409.667 78.8089 410.286 79.1937 410.45 79.2762C410.602 79.3449 410.89 79.5648 411.069 79.5648C411.357 79.5786 412.086 78.9463 412.374 78.8089C412.388 78.7952 412.402 78.7814 412.402 78.7677C412.429 78.3279 412.319 77.6681 412.484 77.2696C412.608 76.9534 413.089 76.9397 413.515 76.816C413.927 76.7061 414.381 76.4449 414.642 76.6648C414.821 76.816 415.357 77.9018 415.508 77.8331C415.467 77.8468 415.467 77.9293 415.521 77.9293C416.03 77.888 416.525 77.8743 417.019 77.9155C417.061 77.9155 417.074 77.8468 417.047 77.8331C417.171 77.9018 417.707 76.7748 417.872 76.6373C418.119 76.4174 418.586 76.6511 418.998 76.761C419.411 76.871 419.933 76.871 420.043 77.1871C420.194 77.6269 419.947 78.2866 420.167 78.6852C420.235 78.8089 421.376 79.4549 421.513 79.4411C421.857 79.4274 422.379 79.0151 422.681 78.8501C423.162 78.6027 423.135 78.7814 423.547 79.18C423.891 79.5099 424.234 79.8535 424.578 80.1833C424.66 80.1558 424.729 80.1008 424.688 80.0596Z" fill="#7BB9F5"/>
<path opacity="0.23" d="M421.281 91.6455C419.275 93.6384 416.238 94.2706 413.64 93.0749C411.126 91.9204 409.545 89.2677 409.71 86.5052C409.875 83.6601 411.909 81.1587 414.657 80.4028C417.406 79.6469 420.388 80.7464 422.01 83.0691C423.851 85.7355 423.453 89.3227 421.281 91.6455C421.24 91.6867 421.309 91.7554 421.35 91.7142C423.288 89.6526 423.865 86.6289 422.656 84.0312C421.419 81.3649 418.533 79.7705 415.619 80.1279C412.83 80.4578 410.48 82.5469 409.806 85.2682C409.105 88.072 410.287 91.0682 412.706 92.6625C415.454 94.463 419.055 93.982 421.364 91.7142C421.391 91.673 421.323 91.6042 421.281 91.6455Z" fill="#7BB9F5"/>
</g>
</g>
<g opacity="0.53">
<path opacity="0.53" d="M337.273 116.083L334.263 109.884V84.6085C334.263 83.8801 333.672 83.2891 332.944 83.2891H296.952C296.224 83.2891 295.633 83.8801 295.633 84.6085V110.09C295.633 110.819 296.224 111.41 296.952 111.41H329.879L337.273 116.083Z" fill="#D1D9DD"/>
<g opacity="0.53">
<path opacity="0.53" d="M298.491 90.3948C304.483 90.3948 310.461 90.3948 316.453 90.3948C316.838 90.3948 316.838 89.79 316.453 89.79C310.461 89.79 304.483 89.79 298.491 89.79C298.093 89.79 298.093 90.3948 298.491 90.3948Z" fill="white"/>
</g>
<g opacity="0.53">
<path opacity="0.53" d="M298.491 93.7346C304.483 93.7346 310.461 93.7346 316.453 93.7346C316.838 93.7346 316.838 93.1299 316.453 93.1299C310.461 93.1299 304.483 93.1299 298.491 93.1299C298.093 93.1299 298.093 93.7346 298.491 93.7346Z" fill="white"/>
</g>
<g opacity="0.53">
<path opacity="0.53" d="M298.491 97.0745C304.483 97.0745 310.461 97.0745 316.453 97.0745C316.838 97.0745 316.838 96.4697 316.453 96.4697C310.461 96.4697 304.483 96.4697 298.491 96.4697C298.093 96.4697 298.093 97.0745 298.491 97.0745Z" fill="white"/>
</g>
<g opacity="0.53">
<path opacity="0.53" d="M312.426 102.324C318.418 102.324 324.396 102.324 330.388 102.324C330.773 102.324 330.773 101.72 330.388 101.72C324.396 101.72 318.418 101.72 312.426 101.72C312.041 101.733 312.041 102.324 312.426 102.324Z" fill="white"/>
</g>
<g opacity="0.53">
<path opacity="0.53" d="M312.426 104.455C318.418 104.455 324.396 104.455 330.388 104.455C330.773 104.455 330.773 103.851 330.388 103.851C324.396 103.851 318.418 103.851 312.426 103.851C312.041 103.851 312.041 104.455 312.426 104.455Z" fill="white"/>
</g>
<g opacity="0.53">
<path opacity="0.53" d="M312.426 106.585C318.418 106.585 324.396 106.585 330.388 106.585C330.773 106.585 330.773 105.98 330.388 105.98C324.396 105.98 318.418 105.98 312.426 105.98C312.041 105.98 312.041 106.585 312.426 106.585Z" fill="white"/>
</g>
</g>
<g opacity="0.53">
<path opacity="0.53" d="M158.412 155.391L163.126 145.661V106.05C163.126 104.909 164.06 103.975 165.201 103.975H221.628C222.769 103.975 223.704 104.909 223.704 106.05V145.99C223.704 147.131 222.769 148.066 221.628 148.066H169.997L158.412 155.391Z" fill="#D1D9DD"/>
<g opacity="0.53">
<path opacity="0.53" d="M219.21 115.121C209.823 115.121 200.437 115.121 191.051 115.121C190.446 115.121 190.446 114.173 191.051 114.173C200.437 114.173 209.823 114.173 219.21 114.173C219.814 114.173 219.814 115.121 219.21 115.121Z" fill="white"/>
</g>
<g opacity="0.53">
<path opacity="0.53" d="M219.21 120.358C209.823 120.358 200.437 120.358 191.051 120.358C190.446 120.358 190.446 119.409 191.051 119.409C200.437 119.409 209.823 119.409 219.21 119.409C219.814 119.409 219.814 120.358 219.21 120.358Z" fill="white"/>
</g>
<g opacity="0.53">
<path opacity="0.53" d="M219.21 125.58C209.823 125.58 200.437 125.58 191.051 125.58C190.446 125.58 190.446 124.632 191.051 124.632C200.437 124.632 209.823 124.632 219.21 124.632C219.814 124.632 219.814 125.58 219.21 125.58Z" fill="white"/>
</g>
<g opacity="0.53">
<path opacity="0.53" d="M197.359 133.827C187.972 133.827 178.586 133.827 169.2 133.827C168.595 133.827 168.595 132.879 169.2 132.879C178.586 132.879 187.972 132.879 197.359 132.879C197.963 132.879 197.963 133.827 197.359 133.827Z" fill="white"/>
</g>
<g opacity="0.53">
<path opacity="0.53" d="M197.359 137.167C187.972 137.167 178.586 137.167 169.2 137.167C168.595 137.167 168.595 136.219 169.2 136.219C178.586 136.219 187.972 136.219 197.359 136.219C197.963 136.219 197.963 137.167 197.359 137.167Z" fill="white"/>
</g>
<g opacity="0.53">
<path opacity="0.53" d="M197.359 140.492C187.972 140.492 178.586 140.492 169.2 140.492C168.595 140.492 168.595 139.544 169.2 139.544C178.586 139.544 187.972 139.544 197.359 139.544C197.963 139.544 197.963 140.492 197.359 140.492Z" fill="white"/>
</g>
</g>
<path opacity="0.05" d="M399.253 323.027C394.691 305.957 395.817 287.65 402.428 271.253C402.579 270.896 401.988 270.731 401.837 271.088C395.199 287.581 394.086 306.012 398.662 323.178C398.758 323.577 399.349 323.412 399.253 323.027Z" fill="#E04E39"/>
<path opacity="0.05" d="M398.771 281.699C396.586 277.74 395.006 273.48 394.181 269.027C394.071 268.463 393.852 267.625 393.92 267.075C394.071 265.824 394.786 265.549 395.707 265.302C396.463 265.096 397.26 265.082 397.988 264.752C398.73 264.409 399.623 263.694 399.445 262.746C399.239 261.632 397.672 260.766 396.82 260.217C394.896 258.993 393.535 257.605 393.645 255.145C393.742 252.932 395.006 250.994 396.243 249.249C396.806 248.465 397.108 247.984 398.057 247.655C398.923 247.352 399.404 247.435 400.297 247.558C401.589 247.723 402.88 247.902 404.172 248.067C404.31 248.081 404.433 247.957 404.461 247.847C405.395 245.016 401.382 243.683 400.324 241.607C399.596 240.178 400.833 239.092 401.767 238.144C402.894 237.003 404.035 235.862 405.162 234.721C407.086 232.77 408.996 230.804 411.016 228.935C414.837 225.403 419.729 221.541 425.144 221.17C432.949 220.647 430.489 229.87 429.115 234.337C428.153 237.456 426.958 240.508 425.693 243.531C425.295 244.48 424.896 245.442 424.484 246.39C424.099 247.27 423.852 248.534 422.684 248.699C421.928 248.809 420.911 248.452 420.141 248.328C419.207 248.191 418.272 248.053 417.338 247.916C417.187 247.888 416.994 247.957 416.967 248.122C416.761 249.606 417.75 250.637 418.712 251.627C419.33 252.259 420.279 253.029 420.389 253.963C420.526 255.145 418.231 256.437 417.503 257.358C415.936 259.296 415.208 261.715 413.971 263.859C412.239 266.869 409.202 264.684 406.701 266.03C406.508 266.127 406.495 266.457 406.701 266.553C408.24 267.267 410.26 268.669 410.769 270.401C411.167 271.762 407.951 273.686 406.989 274.469C404.049 276.806 401.011 279.019 398.29 281.616C398.002 281.891 398.442 282.317 398.716 282.042C402.77 278.167 407.539 275.143 411.607 271.294C411.676 271.226 411.717 271.088 411.689 270.992C410.796 268.752 409.216 267.02 407.017 266.017C407.017 266.195 407.017 266.36 407.017 266.539C409.202 265.357 412.019 267.212 413.861 265.082C415.799 262.869 416.238 259.653 418.217 257.427C419.303 256.203 421.667 255.31 420.828 253.29C420.1 251.53 417.255 250.403 417.544 248.273C417.42 248.342 417.296 248.41 417.173 248.479C418.478 248.672 419.798 248.864 421.103 249.056C421.818 249.166 422.849 249.496 423.549 249.139C424.319 248.74 424.58 247.668 424.882 246.94C425.418 245.675 425.968 244.411 426.49 243.146C428.483 238.309 430.737 233.072 431.259 227.808C431.63 224.042 429.981 220.606 425.817 220.537C421.447 220.469 417.118 223.135 413.806 225.719C409.669 228.963 406.082 232.907 402.386 236.632C401.286 237.745 399.266 239.106 399.459 240.892C399.582 242.129 400.668 243.064 401.534 243.847C402.056 244.315 402.606 244.755 403.073 245.263C403.348 245.565 403.636 245.882 403.801 246.253C403.884 246.431 403.966 246.624 403.966 246.816C403.98 247.476 403.98 247.228 403.554 247.352C403.018 247.517 402.042 247.16 401.465 247.077C400.764 246.981 400.077 246.871 399.376 246.802C398.359 246.706 397.576 246.747 396.806 247.476C395.281 248.905 393.92 251.297 393.329 253.29C392.835 254.966 392.876 256.891 393.81 258.402C394.305 259.2 395.047 259.777 395.817 260.285C396.256 260.574 396.724 260.835 397.163 261.138C397.452 261.344 397.754 261.55 398.016 261.797C398.606 262.361 398.744 262.471 398.387 263.282C397.741 264.738 396.092 264.34 394.8 264.89C394.25 265.123 393.769 265.467 393.508 266.017C393.027 267.02 393.439 268.381 393.632 269.398C393.92 270.91 394.305 272.408 394.759 273.878C395.638 276.682 396.806 279.376 398.235 281.932C398.442 282.358 398.964 282.042 398.771 281.699Z" fill="#E04E39"/>
<path opacity="0.05" d="M384.274 318.162C387.668 305.476 386.83 291.869 381.924 279.692C381.814 279.417 382.254 279.307 382.364 279.568C387.297 291.814 388.122 305.517 384.713 318.272C384.631 318.56 384.205 318.45 384.274 318.162Z" fill="#E04E39"/>
<path opacity="0.05" d="M384.631 287.458C386.252 284.517 387.434 281.355 388.039 278.043C388.121 277.631 388.286 276.999 388.231 276.586C388.121 275.652 387.585 275.459 386.898 275.267C386.335 275.116 385.744 275.102 385.208 274.854C384.658 274.593 383.999 274.071 384.122 273.37C384.273 272.545 385.442 271.9 386.074 271.487C387.503 270.58 388.52 269.549 388.437 267.721C388.369 266.072 387.434 264.643 386.5 263.337C386.087 262.76 385.854 262.402 385.153 262.155C384.507 261.935 384.15 261.99 383.49 262.086C382.528 262.21 381.566 262.334 380.604 262.457C380.508 262.471 380.412 262.375 380.384 262.292C379.683 260.19 382.666 259.2 383.463 257.661C384.012 256.602 383.078 255.791 382.391 255.09C381.552 254.238 380.714 253.4 379.862 252.548C378.433 251.105 377.004 249.634 375.519 248.26C372.675 245.635 369.047 242.762 365.02 242.487C359.221 242.102 361.048 248.947 362.079 252.259C362.794 254.582 363.687 256.85 364.621 259.09C364.924 259.805 365.212 260.506 365.515 261.207C365.803 261.866 365.982 262.801 366.848 262.925C367.411 263.007 368.167 262.732 368.73 262.65C369.431 262.554 370.118 262.444 370.819 262.347C370.929 262.334 371.08 262.375 371.094 262.499C371.245 263.598 370.517 264.368 369.802 265.11C369.349 265.577 368.634 266.154 368.552 266.842C368.456 267.721 370.146 268.683 370.696 269.357C371.864 270.8 372.4 272.6 373.321 274.181C374.612 276.408 376.852 274.786 378.721 275.803C378.859 275.885 378.873 276.119 378.721 276.188C377.581 276.71 376.069 277.768 375.698 279.046C375.396 280.064 377.787 281.493 378.515 282.07C380.7 283.802 382.954 285.451 384.974 287.375C385.18 287.582 384.864 287.898 384.658 287.692C381.649 284.819 378.103 282.565 375.08 279.706C375.025 279.651 374.997 279.555 375.025 279.486C375.684 277.823 376.866 276.545 378.502 275.789C378.502 275.913 378.502 276.05 378.502 276.174C376.88 275.294 374.791 276.669 373.417 275.102C371.974 273.453 371.644 271.075 370.173 269.412C369.363 268.505 367.604 267.831 368.236 266.333C368.785 265.027 370.888 264.189 370.668 262.608C370.764 262.663 370.847 262.718 370.943 262.76C369.967 262.897 368.992 263.048 368.016 263.186C367.48 263.268 366.724 263.502 366.202 263.241C365.625 262.952 365.446 262.141 365.212 261.605C364.814 260.671 364.415 259.722 364.017 258.788C362.533 255.2 360.856 251.297 360.471 247.394C360.196 244.604 361.419 242.047 364.511 241.992C367.755 241.937 370.971 243.916 373.431 245.841C376.509 248.246 379.175 251.173 381.91 253.95C382.721 254.774 384.219 255.791 384.081 257.125C383.985 258.045 383.188 258.746 382.542 259.324C382.157 259.667 381.745 259.997 381.401 260.382C381.195 260.602 380.975 260.849 380.852 261.124C380.797 261.248 380.728 261.399 380.728 261.536C380.714 262.017 380.714 261.839 381.03 261.935C381.429 262.059 382.157 261.784 382.583 261.729C383.105 261.66 383.614 261.578 384.136 261.523C384.892 261.44 385.469 261.481 386.046 262.017C387.173 263.076 388.19 264.863 388.63 266.333C389.001 267.57 388.973 269.013 388.273 270.127C387.902 270.718 387.352 271.144 386.775 271.528C386.445 271.748 386.101 271.941 385.771 272.161C385.552 272.312 385.332 272.463 385.139 272.655C384.699 273.068 384.59 273.15 384.864 273.769C385.345 274.854 386.568 274.552 387.53 274.964C387.943 275.143 388.3 275.391 388.492 275.803C388.85 276.545 388.547 277.562 388.396 278.318C388.176 279.445 387.902 280.558 387.558 281.644C386.912 283.719 386.033 285.726 384.974 287.637C384.878 287.939 384.493 287.719 384.631 287.458Z" fill="#E04E39"/>
<path d="M79.6938 301.601C80.0236 306.576 79.7762 311.593 78.9654 316.527C78.9105 316.829 78.8692 317.145 78.9654 317.42C79.1166 317.832 79.5564 318.066 79.9549 318.258C86.1116 321.09 92.9142 322.492 99.6894 322.313C99.0435 321.626 98.2052 321.158 97.4218 320.65C91.2514 316.623 87.6783 308.926 88.6128 301.614" fill="#ECAB95"/>
<path d="M85.4385 318.877C86.9364 319.66 88.5581 320.416 90.2622 320.306C91.9525 320.21 93.6978 318.973 93.7803 317.269C96.4326 317.351 98.4803 319.537 100.858 320.705C104.5 322.492 108.842 321.86 112.745 322.904C113.68 323.151 114.628 323.536 115.191 324.32C115.755 325.103 115.7 326.368 114.875 326.862C114.614 327.027 114.298 327.082 113.982 327.137C105.503 328.677 96.7075 328.402 88.3519 326.313C87.4999 326.106 86.6204 325.873 85.7683 326.079C85.1774 326.216 84.6552 326.574 84.0505 326.711C83.3221 326.89 82.5663 326.752 81.8242 326.615C80.4362 326.354 79.0481 326.106 77.6464 325.845C77.2479 325.777 76.8081 325.68 76.547 325.378C76.3271 325.131 76.2584 324.801 76.2034 324.485C75.8598 322.574 76.8493 321.021 77.0555 319.097C77.1379 318.272 77.8388 316.513 78.3885 315.895C79.4742 314.671 79.8727 315.524 81.3432 316.224C82.8411 316.953 84.1467 317.942 85.4385 318.877Z" fill="black"/>
<path d="M110.629 299.649C109.419 304.487 107.674 309.202 105.406 313.641C105.269 313.916 105.131 314.191 105.145 314.493C105.159 314.933 105.516 315.29 105.846 315.593C110.848 320.156 116.909 323.564 123.423 325.447C123.011 324.595 122.365 323.908 121.76 323.179C117.101 317.476 116.043 309.05 119.135 302.371" fill="#ECAB95"/>
<path d="M110.024 317.833C111.371 318.809 112.855 319.757 114.518 319.894C116.181 320.032 118.05 319.07 118.366 317.434C120.936 317.888 122.613 320.307 124.77 321.777C128.055 324.018 132.384 324.018 136.039 325.585C136.905 325.956 137.785 326.464 138.224 327.303C138.664 328.141 138.431 329.378 137.565 329.735C137.276 329.859 136.974 329.873 136.658 329.873C128.192 330.189 119.658 328.691 111.811 325.488C111.014 325.158 110.189 324.815 109.337 324.897C108.746 324.952 108.183 325.213 107.578 325.282C106.85 325.351 106.121 325.117 105.421 324.884C104.101 324.444 102.782 323.99 101.463 323.55C101.078 323.427 100.679 323.276 100.46 322.946C100.281 322.685 100.267 322.355 100.253 322.039C100.185 320.142 101.367 318.754 101.834 316.912C102.04 316.129 102.947 314.507 103.579 313.971C104.802 312.94 105.077 313.82 106.41 314.713C107.743 315.606 108.898 316.747 110.024 317.833Z" fill="black"/>
<path d="M80.0787 172.585C76.2033 190.933 79.048 209.955 78.7182 228.702C78.567 237.045 77.7975 245.346 77.344 253.675C76.4369 270.691 76.9179 287.774 78.8007 304.693C82.8685 305.312 87.0188 305.449 91.1141 305.12C92.296 292.97 93.4916 280.806 94.6735 268.656C95.3606 261.647 96.0477 254.624 97.477 247.724C98.5077 242.776 99.9094 237.925 101.009 232.99C102.809 224.895 103.771 216.635 104.706 208.402C110.807 221.569 116.909 234.722 122.997 247.889C123.89 249.827 124.797 251.806 125.017 253.923C125.265 256.424 124.536 258.912 123.794 261.317C119.108 276.449 113.735 291.362 107.674 306.013C110.959 307.442 114.243 308.872 117.514 310.315C118.05 310.548 118.654 310.796 119.218 310.631C119.946 310.425 120.331 309.641 120.62 308.954C126.955 294.069 133.277 279.198 139.612 264.313C141.66 259.517 143.735 254.431 143.075 249.25C142.58 245.346 142.333 242.309 141.096 237.54C139.942 233.1 137.674 227.232 136.561 222.792C132.067 204.76 126.062 189.009 121.568 170.977C121.279 169.836 120.963 168.627 120.097 167.816C119.342 167.101 118.297 166.812 117.294 166.565C107.262 164.036 96.941 162.634 86.5928 162.401C84.9849 162.359 83.2121 162.401 81.9752 163.431" fill="black"/>
<path d="M105.833 75.5371C106.149 77.8324 106.19 80.1689 105.956 82.4779C105.846 83.6186 105.654 84.7869 105.118 85.804C103.922 88.0855 101.298 89.1713 98.8789 90.0646C100.638 91.4803 101.916 93.4045 103.62 94.8888C108.485 99.1083 116.25 98.7234 121.554 95.0812C118.242 93.1021 117.349 88.0168 119.782 85.0206" fill="#DB917D"/>
<path d="M127.395 65.0644C127.849 72.3488 125.746 79.7706 121.527 85.7356C120.565 87.0962 119.356 88.4706 117.72 88.773C116.538 88.9929 115.329 88.6218 114.257 88.0858C109.214 85.6119 106.41 80.0455 105.214 74.5616C103.84 68.2393 104.5 60.79 109.378 56.5293" fill="#ECAB95"/>
<path d="M105.366 74.5893C103.084 73.3798 101.655 70.7272 101.902 68.157C101.93 67.8134 102.012 67.4424 102.26 67.1812C102.617 66.8239 103.208 66.8376 103.648 67.085C104.088 67.3187 104.404 67.731 104.692 68.1433" fill="#ECAB95"/>
<path d="M103.112 67.4145C102.342 63.2088 102.287 58.8382 104.252 55.0448C105.97 51.7324 109.337 49.4234 112.979 48.6812C116.621 47.9391 120.496 48.6675 123.794 50.413C125.801 51.4713 127.656 52.9144 129.841 53.5329C132.095 54.1789 134.72 54.0002 136.479 55.5533C137.716 56.6528 138.183 58.3846 138.266 60.0476C138.54 65.9026 134.143 71.6339 128.412 72.8846C127.972 72.9809 127.395 73.0083 127.161 72.6235C127.024 72.4036 127.051 72.1425 127.079 71.8951C127.313 70.2458 127.876 68.2116 126.584 67.1533C122.406 69.0363 117.39 67.8818 113.515 65.4353C111.921 64.432 109.873 63.195 108.334 64.2808C107.125 65.133 107.111 66.8647 106.932 68.3353C106.754 69.806 105.874 71.579 104.404 71.414C103.964 70.0534 103.538 68.7339 103.112 67.4145Z" fill="black"/>
<path d="M117.143 71.51C115.673 71.8399 114.037 71.6887 112.951 70.5342C112.635 70.1906 112.127 70.6991 112.443 71.0427C113.707 72.3896 115.604 72.5821 117.322 72.1972C117.789 72.101 117.596 71.4138 117.143 71.51Z" fill="#282F39"/>
<path d="M112.251 67.731C113.267 67.4699 114.271 67.3737 115.246 67.7998C116.098 68.1708 116.882 68.7344 117.679 69.2154C118.009 69.4078 118.311 68.8993 117.981 68.6931C117.033 68.1296 116.098 67.4149 115.027 67.0713C114.065 66.7689 113.048 66.9064 112.086 67.1538C111.715 67.25 111.879 67.8272 112.251 67.731Z" fill="#0B3B57"/>
<path d="M128.316 68.61C127.45 68.1152 126.515 67.7166 125.498 67.7578C124.385 67.7991 123.286 68.2389 122.228 68.5412C121.857 68.6374 122.008 69.2284 122.393 69.1185C124.482 68.5412 125.979 67.9777 128.013 69.1322C128.357 69.3247 128.659 68.8024 128.316 68.61Z" fill="#0B3B57"/>
<path d="M121.266 72.5689C121.747 73.2149 122.723 73.3111 123.479 73.2836C124.496 73.2561 125.403 72.6789 126.241 72.1703C126.639 71.9367 126.282 71.3182 125.884 71.5518C125.348 71.868 124.77 72.2528 124.166 72.4452C123.699 72.5964 122.269 72.7338 121.885 72.1978C121.61 71.8405 120.991 72.1978 121.266 72.5689Z" fill="#282F39"/>
<path d="M120.015 71.551C119.796 73.7776 120.318 75.4956 120.483 77.7221C120.51 78.052 120.496 78.4781 120.18 78.6155C120.07 78.6567 119.947 78.6567 119.837 78.6567C118.998 78.643 118.146 78.643 117.308 78.6292C117.267 78.6292 117.226 78.6293 117.184 78.6155C117.088 78.5605 117.088 78.4368 117.102 78.3269C117.308 76.87 117.817 75.4956 118.339 74.1212C118.614 73.4202 120.057 69.1046 120.015 71.551Z" fill="#DB917D"/>
<path d="M119.465 81.5704C118.654 81.5842 117.844 81.5292 117.033 81.4055C116.579 81.3368 116.085 81.2406 115.7 81.488C115.659 81.5154 115.604 81.5567 115.604 81.6117C115.59 81.6941 115.672 81.7491 115.741 81.7903C116.181 82.0515 116.607 82.2989 117.047 82.56C117.308 82.7112 117.569 82.8624 117.857 82.9311C118.393 83.041 118.943 82.8349 119.452 82.6287C119.685 82.5325 119.933 82.4226 120.056 82.2164C120.18 81.9965 120.084 81.6529 119.836 81.6254" fill="#DB917D"/>
<path d="M100.761 89.3223C103.482 94.4763 109.405 97.2114 115.177 96.373C117.143 96.0844 119.039 95.4934 120.07 93.7891C120.716 94.5588 121.664 94.9574 122.585 95.3697C123.134 95.6171 123.739 95.7957 124.206 96.1943C125.319 97.1564 125.168 98.8882 124.948 100.345C122.736 114.337 121.76 128.493 120.784 142.622C120.523 146.498 120.248 150.374 119.987 154.25C119.63 159.404 119.273 164.613 120.111 169.698C120.193 170.206 120.276 170.742 120.07 171.196C119.767 171.856 118.984 172.117 118.283 172.282C111.233 174 103.661 173.519 96.8859 170.935C95.649 170.468 94.316 169.808 93.835 168.571C93.4914 167.691 93.6564 166.702 93.8075 165.767C95.9514 152.669 94.852 139.241 96.1163 126.033C96.3774 123.27 96.7485 120.508 96.9546 117.731C97.4768 110.681 96.9271 103.547 95.3604 96.6616C95.0993 95.4934 94.797 94.2839 95.0993 93.1294C95.704 90.5867 98.3701 89.9682 100.761 89.3223Z" fill="#E04E39"/>
<path d="M120.235 93.8994C116.73 104.139 117.431 114.268 116.785 125.085C116.538 129.263 116.071 133.428 115.919 137.606C115.782 141.44 115.933 145.289 116.071 149.137C116.51 160.737 116.936 172.323 117.376 183.923C117.39 184.418 117.417 184.94 117.706 185.339C118.008 185.765 118.531 185.971 119.025 186.136C122.282 187.208 125.759 187.579 129.167 187.249C128.673 176.996 127.848 166.757 126.694 156.559C126.433 154.264 126.158 151.955 126.144 149.646C126.144 146.91 126.515 144.203 126.9 141.495C128.164 132.383 129.442 123.243 131.696 114.309C132.782 109.994 134.06 105.252 132.108 101.253C130.5 97.9814 127.436 97.3767 124.234 95.6312C123.038 94.9989 121.416 94.5454 120.235 93.8994Z" fill="#D1D9DD"/>
<path d="M130.789 99.3965C128.92 101.018 129.387 104.331 129.264 107.038C129.016 112.77 128.81 118.501 129.099 124.246C129.387 130.101 129.662 135.942 129.951 141.797C130.019 143.075 130.157 144.518 131.174 145.288C132.232 146.099 133.744 145.783 135.022 145.426C135.654 145.261 136.341 145.054 136.712 144.518C136.96 144.175 137.042 143.749 137.111 143.323C138.897 133.152 138.1 122.72 136.891 112.467C136.671 110.57 136.424 108.674 135.901 106.846C135.2 104.358 133.112 100.029 130.789 99.3965Z" fill="#BECAD0"/>
<path d="M93.7389 137.372C94.9894 137.77 96.2263 136.767 97.1058 135.778C100.294 132.177 102.713 127.696 106.863 125.25C108.045 124.549 109.639 124.068 110.752 124.892C111.742 125.634 111.852 127.077 111.742 128.314C111.288 133.4 108.636 138.1 105.214 141.894C101.792 145.687 97.6006 148.697 93.4365 151.666" fill="#F35F4A"/>
<path d="M93.6978 157.218C98.2054 152.6 102.754 148.037 107.358 143.529C108.361 142.539 109.557 141.481 110.972 141.605C112.168 141.715 113.144 142.704 113.515 143.845C113.886 144.986 113.748 146.223 113.446 147.377C111.866 153.425 106.272 157.41 101.064 160.874C96.8724 163.664 92.6808 166.454 88.4756 169.244" fill="#F35F4A"/>
<path d="M98.8922 89.8174C99.0571 94.2018 99.222 98.5724 99.3869 102.957C99.4969 105.829 99.6068 108.716 99.9916 111.574C100.473 115.093 101.366 118.543 101.737 122.075C102.108 125.566 101.957 129.098 101.737 132.603C100.665 149.756 98.0401 166.839 98.3013 184.02C98.3013 184.473 98.3013 184.968 98.0127 185.298C97.7103 185.655 97.1881 185.71 96.7208 185.738C92.4056 185.93 87.9942 184.377 83.844 185.531C81.9612 186.054 80.1884 187.126 78.2232 187.14C77.6598 187.14 77.0139 187.002 76.7115 186.521C76.4504 186.095 76.5466 185.545 76.6428 185.037C78.4706 176.007 77.6048 166.675 78.2232 157.493C79.0478 145.247 82.5109 133.221 82.5384 120.934C82.5522 117.003 82.1948 113.1 81.8513 109.183C81.494 105.197 81.1504 101.225 80.7931 97.2392C86.4001 94.2155 92.8729 91.8653 98.8922 89.8174Z" fill="#D1D9DD"/>
<path d="M113.735 167.403L118.806 124.438H146.745L143.227 167.403H113.735Z" fill="#F7F9FA"/>
<path d="M78.1274 145.316C88.132 148.065 98.5352 149.371 108.897 149.165C110.643 149.123 112.553 148.972 113.776 147.735C114.82 146.663 115.246 144.89 116.662 144.409C117.019 145.454 116.236 146.759 116.923 147.625C117.486 148.34 118.6 148.161 119.465 147.886C122.035 147.089 124.564 146.1 126.996 144.931C127.436 144.725 128.151 144.615 128.261 145.096C128.288 145.206 128.261 145.316 128.233 145.426C127.574 148.477 125.086 150.869 122.269 152.202C119.452 153.535 116.305 153.989 113.212 154.415C105.86 155.446 98.4803 156.463 91.0592 156.435C83.6382 156.408 76.1209 155.267 69.3733 152.147" fill="#ECAB95"/>
<path d="M80.8072 97.2256C85.04 103.397 85.7546 111.588 84.2154 118.914C82.6762 126.239 79.6528 133.18 78.0999 140.506C77.7426 142.183 77.5365 144.162 78.6908 145.426C75.4613 148.532 76.0522 150.223 74.1283 154.277C73.9496 154.649 74.1558 154.745 73.6473 155.432C73.3312 155.844 71.0087 154.36 70.5827 154.058C67.3806 151.762 65.5941 151.254 65.3605 147.323C65.0306 141.578 66.5286 135.888 68.1227 130.349C70.7888 121.044 73.716 111.808 76.9043 102.668C77.7014 100.4 78.6496 98.3114 80.8072 97.2256Z" fill="#BECAD0"/>
<path d="M311.519 298.673C309.636 301.766 310.86 305.985 313.374 308.597C315.889 311.208 319.38 312.582 322.774 313.874C327.612 315.73 332.449 317.585 337.287 319.441C338.139 319.771 339.183 320.582 338.702 321.365C338.551 321.612 338.276 321.75 338.015 321.86C334.03 323.591 329.467 322.327 325.207 321.461C317.401 319.867 309.307 319.688 301.446 320.939C299.426 321.255 296.622 321.159 296.251 319.152C296.169 318.726 296.237 318.286 296.306 317.86C297.584 309.889 298.862 301.903 300.14 293.932" fill="#ECAB95"/>
<path d="M316.975 311.194C316.274 311.441 315.573 312.555 314.996 313.448C314.13 314.795 313.209 314.465 311.615 314.369C310.021 314.273 308.523 313.627 307.053 312.994C304.414 311.867 301.748 310.795 299.054 309.778C298.615 309.613 298.12 309.448 297.68 309.627C297.13 309.861 296.924 310.521 296.787 311.098C296.306 313.159 295.811 315.207 295.33 317.269C295.193 317.874 295.042 318.52 295.234 319.111C295.385 319.564 295.701 319.935 296.059 320.238C298.642 322.505 302.504 322.121 305.926 321.818C312.866 321.2 319.888 321.488 326.76 322.657C330.979 323.371 335.775 324.306 339.169 321.708C339.774 321.241 340.351 320.458 340.021 319.77C339.856 319.427 339.499 319.207 339.156 319.028C336.998 317.874 334.662 317.118 332.339 316.362C329.549 315.455 326.773 314.561 323.984 313.654C321.565 312.857 318.322 311.386 316.975 311.194Z" fill="black"/>
<path d="M297.076 206.643C309.815 207.481 316.082 210.532 318.088 214.82C320.095 219.108 319.737 226.31 319.765 231.038C319.888 254.266 316.027 277.315 312.179 300.24C312.11 300.625 312.041 301.023 311.794 301.326C311.327 301.889 310.475 301.834 309.746 301.752C306.517 301.34 303.287 300.927 300.071 300.515C299.522 300.446 298.945 300.35 298.546 299.965C298.093 299.525 298.051 298.824 298.024 298.192C297.378 280.71 295.797 270.484 296.072 249.648C296.21 239.285 299.742 226.819 291.922 226.283C284.583 225.774 295.88 213.35 301.047 209.433" fill="black"/>
<path d="M252.48 228.564C236.085 255.255 230.299 286.276 224.912 316.678C224.596 318.465 227.331 319.234 227.647 317.434C232.993 287.266 238.669 256.479 254.926 229.994C255.888 228.441 253.442 227.011 252.48 228.564Z" fill="black"/>
<path d="M277.478 228.564C293.873 255.255 299.659 286.276 305.046 316.678C305.362 318.465 302.627 319.234 302.311 317.434C296.965 287.266 291.289 256.479 275.032 229.994C274.07 228.441 276.516 227.011 277.478 228.564Z" fill="#0B3B57"/>
<path d="M293.667 221.555H233.117V228.922H293.667V221.555Z" fill="#738D9A"/>
<path d="M277.162 112.894C275.912 115.752 275.183 118.831 274.895 121.951C274.647 124.659 274.744 127.476 275.871 129.936C276.997 132.396 279.347 134.444 282.055 134.582C281.052 135.929 280.048 137.276 278.853 138.43C275.513 141.633 270.648 143.186 266.072 142.498C261.496 141.811 257.29 138.911 255.037 134.87C258.211 134.389 260.63 131.462 261.29 128.314C261.935 125.167 261.111 121.882 259.764 118.955" fill="#DB917D"/>
<path d="M259.613 132.135C264.464 135.544 270.635 136.506 275.307 132.85C275.72 132.534 276.132 132.163 276.64 132.053C277.108 131.957 277.575 132.08 278.042 132.204C282.756 133.482 287.47 134.747 292.183 136.025C292.609 136.135 293.077 136.272 293.352 136.63C293.654 137.001 293.668 137.523 293.668 137.99C293.695 156.215 289.902 174.412 291.483 192.582C291.551 193.379 291.606 194.259 291.139 194.919C290.603 195.661 289.586 195.812 288.665 195.908C285.436 196.252 282.192 196.595 278.935 196.554C270.374 196.458 261.84 193.723 253.388 195.042C250.928 195.427 248.495 196.156 245.994 196.101C245.527 196.087 244.991 196.018 244.716 195.647C244.496 195.358 244.496 194.96 244.51 194.589C244.812 182.48 244.263 170.358 242.875 158.332C242.174 152.271 241.253 146.141 241.981 140.079C242.078 139.241 242.242 138.361 242.833 137.757C243.287 137.303 243.919 137.097 244.524 136.905C249.554 135.338 254.583 133.743 259.613 132.135Z" fill="#738D9A"/>
<path d="M292.829 136.259C289.27 144.217 288.225 153.975 290.479 162.4C291.441 165.987 292.912 169.396 294.368 172.804C295.756 176.021 297.131 179.223 298.519 182.439C298.615 182.673 298.725 182.92 298.67 183.181C298.587 183.635 298.079 183.841 297.639 183.978C291.757 185.765 285.669 186.686 279.664 187.978C279.361 188.047 279.032 188.129 278.825 188.376C278.592 188.665 278.647 189.077 278.702 189.449C278.99 191.318 279.403 193.393 280.914 194.534C281.643 195.084 282.55 195.345 283.429 195.565C292.115 197.722 301.281 196.747 310.008 194.768C311.354 194.465 312.88 193.998 313.443 192.733C313.814 191.922 313.663 190.974 313.526 190.095C311.918 180.57 310.31 170.99 307.328 161.795C304.359 152.601 299.948 143.722 293.351 136.657C293.214 136.492 293.118 136.259 292.829 136.259Z" fill="#6A838F"/>
<path d="M243.507 137.413C247.066 145.371 248.111 155.129 245.857 163.554C244.895 167.142 243.424 170.55 241.968 173.959C240.58 177.175 239.205 180.377 237.817 183.593C237.721 183.827 237.611 184.074 237.666 184.335C237.749 184.789 238.257 184.995 238.697 185.133C244.579 186.919 250.667 187.84 256.672 189.132C256.975 189.201 257.305 189.283 257.511 189.531C257.744 189.819 257.689 190.232 257.634 190.603C257.346 192.472 256.934 194.547 255.422 195.688C254.693 196.238 253.786 196.499 252.907 196.719C244.222 198.877 235.055 197.901 226.329 195.922C224.982 195.619 223.456 195.152 222.893 193.888C222.522 193.077 222.673 192.128 222.81 191.249C224.418 181.724 226.026 172.144 229.008 162.95C231.977 153.755 236.388 144.876 242.985 137.812C243.122 137.647 243.218 137.413 243.507 137.413Z" fill="#6A838F"/>
<path d="M217.505 212.498C221.532 209.543 220.859 208.154 230.575 206.216C244.949 203.344 238.133 197.242 242.297 195.427C247.739 193.063 253.772 196.623 259.503 195.043C261.413 194.52 263.42 194.493 265.399 194.465C270.057 194.41 274.702 194.342 279.361 194.287C281.161 194.259 282.989 194.245 284.721 194.713C286.411 195.18 287.95 196.087 289.462 196.98C293.118 199.152 296.759 201.337 300.415 203.509C304.483 205.928 308.798 208.635 310.612 212.992C311.313 214.683 311.574 216.648 310.818 218.311C309.677 220.799 306.737 221.802 304.098 222.462C296.361 224.4 288.294 225.651 280.419 224.386C274.414 223.424 269.425 222.764 263.378 223.438C259.462 223.864 253.291 224.675 248.426 225.252C237.583 226.544 229.145 227.534 219.237 222.957" fill="black"/>
<path d="M218.357 298.673C220.24 301.766 219.017 305.985 216.502 308.597C213.987 311.208 210.497 312.582 207.102 313.874C202.265 315.73 197.427 317.585 192.59 319.441C191.738 319.771 190.693 320.582 191.174 321.365C191.325 321.612 191.6 321.75 191.861 321.86C195.847 323.591 200.409 322.327 204.67 321.461C212.475 319.867 220.57 319.688 228.431 320.939C230.451 321.255 233.254 321.159 233.625 319.152C233.708 318.726 233.639 318.286 233.57 317.86C232.292 309.889 231.014 301.903 229.736 293.932" fill="#ECAB95"/>
<path d="M212.902 311.194C213.602 311.441 214.303 312.555 214.881 313.448C215.746 314.795 216.667 314.465 218.261 314.369C219.855 314.273 221.353 313.627 222.824 312.994C225.462 311.867 228.128 310.795 230.822 309.778C231.262 309.613 231.757 309.448 232.196 309.627C232.746 309.861 232.952 310.521 233.09 311.098C233.571 313.159 234.065 315.207 234.546 317.269C234.684 317.874 234.835 318.52 234.643 319.111C234.491 319.564 234.175 319.935 233.818 320.238C231.234 322.505 227.373 322.121 223.951 321.818C217.011 321.2 209.988 321.488 203.117 322.657C198.898 323.371 194.102 324.306 190.707 321.708C190.103 321.241 189.525 320.458 189.855 319.77C190.02 319.427 190.377 319.207 190.721 319.028C192.879 317.874 195.215 317.118 197.537 316.362C200.327 315.455 203.103 314.561 205.893 313.654C208.312 312.857 211.555 311.386 212.902 311.194Z" fill="black"/>
<path d="M232.815 206.643C220.076 207.481 213.809 210.532 211.803 214.82C209.796 219.108 210.153 226.31 210.126 231.038C210.002 254.266 213.864 277.315 217.712 300.24C217.781 300.625 217.849 301.023 218.097 301.326C218.564 301.889 219.416 301.834 220.144 301.752C223.374 301.34 226.603 300.927 229.819 300.515C230.369 300.446 230.946 300.35 231.345 299.965C231.798 299.525 231.839 298.824 231.867 298.192C232.513 280.71 234.093 270.484 233.818 249.648C233.681 239.285 230.149 226.819 237.969 226.283C245.307 225.774 234.011 213.35 228.843 209.433" fill="black"/>
<path d="M288.005 200.21H234.862C232.526 200.21 230.616 198.313 230.616 195.963V167.513C230.616 165.176 232.512 163.266 234.862 163.266H288.005C290.342 163.266 292.252 165.162 292.252 167.513V195.963C292.252 198.299 290.342 200.21 288.005 200.21Z" fill="#D1D9DD"/>
<path d="M259.833 184.556C261.624 184.556 263.076 183.103 263.076 181.312C263.076 179.521 261.624 178.068 259.833 178.068C258.042 178.068 256.59 179.521 256.59 181.312C256.59 183.103 258.042 184.556 259.833 184.556Z" fill="#B0BEC6"/>
<path d="M257.717 88.9648C256.603 90.6554 255.889 92.5933 255.628 94.5999C255.367 96.6615 255.587 98.7507 255.449 100.826C255.339 102.448 255.367 104.647 255.284 106.269C255.064 111.079 256.686 115.106 258.596 119.518C259.325 121.195 260.08 122.913 261.345 124.232C262.609 125.552 264.533 125.675 266.306 125.222C267.199 124.988 270.03 123.394 270.758 122.817C276.214 118.556 277.74 113.773 278.344 106.86C278.523 104.784 278.454 102.709 278.372 100.634C278.303 98.572 278.221 96.4829 277.589 94.5175C276.956 92.552 275.692 90.6966 273.823 89.8307" fill="#ECAB95"/>
<path d="M278.922 107.492C278.592 108.454 277.657 109.595 276.778 109.059C276.352 108.798 276.214 108.248 276.118 107.767C275.816 106.2 275.5 104.606 274.785 103.163C274.07 101.72 272.875 100.455 271.336 100.029C268.505 99.2319 265.756 101.417 262.884 102.036C260.122 102.627 257.263 101.747 254.734 100.496C252.948 99.6168 251.106 98.3386 250.639 96.4006C250.186 94.5314 251.148 92.621 252.192 90.9854C253.992 88.1954 256.164 85.584 258.953 83.7835C261.743 81.983 265.22 81.0759 268.45 81.8456C270.648 82.3679 272.614 83.6186 274.757 84.3058C275.898 84.6769 277.094 84.8831 278.193 85.3778C280.708 86.5324 282.33 89.13 282.962 91.8101C283.608 94.5039 283.402 97.3077 283.154 100.07C282.797 104.015 282.316 108.028 280.708 111.657C279.526 114.295 278.083 116.934 275.307 117.759" fill="black"/>
<path d="M261.578 117.457C263.378 117.636 266.608 117.691 268.381 117.278C267.845 117.952 267.199 118.529 266.484 118.983C265.646 119.519 264.986 119.601 263.997 119.505C263.64 119.464 262.897 119.065 262.691 118.859C262.485 118.653 261.853 117.979 261.578 117.457Z" fill="#DB917D"/>
<path d="M264.313 107.148C263.653 109.416 262.993 111.684 262.334 113.952C262.279 114.144 262.238 114.405 262.389 114.529C262.485 114.598 262.609 114.611 262.732 114.611C263.433 114.625 264.12 114.653 264.821 114.666C265.014 114.666 265.247 114.666 265.371 114.502C265.481 114.364 265.453 114.185 265.44 114.02C265.137 111.849 264.615 109.334 264.313 107.148Z" fill="#DB917D"/>
<path d="M266.333 102.737C268.601 102.352 270.813 102.503 273.012 103.176C273.383 103.286 273.548 102.709 273.177 102.599C270.868 101.898 268.546 101.761 266.168 102.159C265.797 102.228 265.948 102.805 266.333 102.737Z" fill="#0B3B57"/>
<path d="M261.001 102.434C259.269 102.063 257.552 102.008 255.793 102.255C255.408 102.31 255.573 102.888 255.957 102.833C257.593 102.613 259.214 102.668 260.836 103.011C261.221 103.094 261.372 102.503 261.001 102.434Z" fill="#0B3B57"/>
<path d="M267.213 106.681C268.876 107.616 270.882 107.519 272.435 106.406C272.806 106.145 272.449 105.526 272.078 105.788C270.731 106.75 269.027 106.873 267.57 106.062C267.172 105.829 266.814 106.447 267.213 106.681Z" fill="#282F39"/>
<path d="M260.685 105.994C259.531 106.571 258.184 106.379 257.236 105.513C256.892 105.211 256.384 105.706 256.728 106.022C257.923 107.107 259.6 107.341 261.057 106.613C261.455 106.407 261.098 105.788 260.685 105.994Z" fill="#282F39"/>
<path d="M258.912 110.118C260.78 110.118 262.293 108.604 262.293 106.737C262.293 104.869 260.78 103.355 258.912 103.355C257.045 103.355 255.532 104.869 255.532 106.737C255.532 108.604 257.045 110.118 258.912 110.118Z" stroke="#282F39" stroke-width="0.5" stroke-miterlimit="10"/>
<path d="M269.673 110.118C271.54 110.118 273.054 108.604 273.054 106.737C273.054 104.869 271.54 103.355 269.673 103.355C267.806 103.355 266.292 104.869 266.292 106.737C266.292 108.604 267.806 110.118 269.673 110.118Z" stroke="#282F39" stroke-width="0.5" stroke-miterlimit="10"/>
<path d="M262.43 106.104C262.43 106.104 264.409 105.059 266.182 106.104" stroke="#282F39" stroke-width="0.5" stroke-miterlimit="10"/>
<path d="M277.753 109.018C277.987 108.18 278.454 107.41 279.072 106.805C279.224 106.668 279.402 106.517 279.608 106.544C279.842 106.572 280.007 106.792 280.089 107.012C280.612 108.221 280.199 109.609 279.787 110.86C279.526 111.657 279.251 112.468 278.688 113.086C278.124 113.705 277.19 114.062 276.434 113.705" fill="#ECAB95"/>
<path d="M273.053 106.282L277.245 106.104" stroke="#282F39" stroke-width="0.5" stroke-miterlimit="10"/>
<path d="M257.771 167.665C263.09 178.303 268.395 188.941 273.713 199.579C273.85 199.867 274.208 200.046 274.524 200.046C287.373 200.046 300.236 200.046 313.086 200.046C314.281 200.046 314.281 198.177 313.086 198.177C302.339 198.177 291.578 198.177 280.832 198.177C279.114 198.177 276.75 197.751 275.073 198.177C274.153 198.411 274.964 197.902 275.266 198.52C275.018 197.998 274.744 197.476 274.483 196.967C271.775 191.538 269.068 186.123 266.361 180.694C264.038 176.035 261.716 171.39 259.379 166.73C258.843 165.645 257.235 166.593 257.771 167.665Z" fill="black"/>
<path d="M311.491 290.634C313.251 296.269 315.559 301.739 317.112 307.443C318.665 313.147 319.462 319.208 318.129 324.967C317.703 326.836 317.043 328.637 316.398 330.437C316.411 332.457 318.899 330.066 319.792 329.131C321.991 326.836 323.64 324.032 324.588 321.009C326.43 315.099 325.591 308.433 328.491 302.963C329.206 301.616 330.14 300.351 330.553 298.867C330.965 297.396 330.69 295.568 329.398 294.73C328.903 294.414 328.312 294.276 327.749 294.098C322.101 292.448 317.717 287.143 317.153 281.288" fill="#DD9885"/>
<path d="M287.552 218.367C286.755 224.456 285.326 232.29 287.373 238.076C294.313 257.703 303.576 276.01 312.618 294.743C312.701 294.922 312.426 294.702 312.618 294.743C312.783 294.784 312.454 294.784 312.618 294.743C315.999 293.905 318.954 291.747 321.098 290.331C317.071 273.962 315.779 256.411 306.956 242.048C305.335 239.396 303.438 236.839 302.545 233.857C301.652 230.874 301.995 227.273 304.332 225.212C307.424 222.49 313.031 223.136 314.982 219.508" fill="#E04E39"/>
<path d="M356.691 124.302C358.725 127.078 359.096 130.734 359.069 134.184C359.055 135.132 359.028 136.08 358.794 136.988C358.574 137.812 358.203 138.582 357.818 139.338C355.977 143.049 354.108 146.746 352.211 150.429C354.025 150.773 355.771 149.742 357.323 148.739C359.495 147.337 361.666 145.949 363.824 144.547C367.356 142.279 370.901 139.984 374.035 137.18C372.44 135.764 371.176 133.991 370.338 132.026C368.991 128.865 368.826 125.319 369.087 121.897C369.348 118.474 370.022 115.093 370.324 111.671" fill="#DD9885"/>
<path d="M284.116 296.131C283.745 302.027 283.924 307.965 283.333 313.847C282.742 319.73 281.299 325.667 277.987 330.56C276.915 332.141 275.664 333.597 274.414 335.054C273.699 336.951 276.874 335.604 278.056 335.054C280.928 333.707 283.484 331.687 285.449 329.186C289.284 324.334 290.905 317.805 295.564 313.737C296.718 312.734 298.051 311.895 298.958 310.658C299.879 309.435 300.264 307.621 299.371 306.384C299.027 305.903 298.519 305.559 298.051 305.202C293.379 301.629 291.194 295.114 292.76 289.438" fill="#DD9885"/>
<path d="M386.087 194.644C387.42 198.932 388.753 203.262 389.11 207.742C389.481 212.223 388.808 216.91 386.375 220.689C381.716 227.919 372.179 229.967 363.617 230.668C342.935 232.386 322.142 230.077 301.377 229.898C298.573 229.87 295.014 230.42 294.272 233.128C293.86 234.64 294.56 236.207 295.151 237.663C298.848 246.886 297.9 257.263 296.155 267.048C294.423 276.834 291.936 286.661 292.774 296.557C292.87 297.753 292.98 299.113 292.197 300.02C291.688 300.611 290.905 300.873 290.163 301.12C288.101 301.78 286.026 302.453 283.965 303.113C281.739 278.387 280.213 253.593 279.389 228.771C279.279 225.637 279.196 222.462 279.993 219.439C280.79 216.415 282.604 213.501 285.408 212.127C287.167 211.261 291.743 210.175 293.681 209.845C319.558 205.543 335.39 204.375 353.118 201.516C359.179 200.541 366.009 198.438 368.551 192.83" fill="#E04E39"/>
<path d="M345.285 193.16C341.56 192.83 337.232 192.157 333.507 191.84C326.65 191.249 320.575 191.524 313.69 191.277C311.808 191.208 308.963 191.373 307.08 191.497C302.174 191.827 298.312 193.311 293.612 194.754C292.623 195.057 291.441 195.812 290.836 196.651C290.232 197.503 290.177 198.712 289.393 199.4C289.861 199.688 290.465 199.358 290.809 198.932C291.152 198.506 291.359 197.97 291.798 197.64C292.211 197.338 294.354 196.692 294.849 196.637C297.268 196.321 298.065 196.568 300.484 196.252C301.226 196.156 301.995 196.06 302.737 196.197C304.483 196.527 305.72 197.104 307.699 196.733C308.358 196.61 309.238 196.239 309.787 195.84C311.615 194.507 313.718 195.771 315.848 196.5C317.689 197.132 319.6 197.53 321.51 197.929C324.946 198.644 328.381 199.358 331.831 200.073C337.039 201.145 342.275 202.231 347.58 202.368" fill="#ECAB95"/>
<path d="M372.317 134.376C368.895 140.217 362.889 144.464 356.252 145.784C355.537 145.921 354.781 146.045 354.218 146.498C353.723 146.883 353.434 147.474 353.159 148.038C352.074 150.251 351.002 152.463 349.916 154.662C348.748 157.054 347.552 159.528 347.278 162.18C346.783 167.06 349.435 171.609 351.084 176.213C353.599 183.195 353.888 190.947 351.909 198.094C351.758 198.644 351.62 199.29 351.991 199.716C352.142 199.881 352.335 199.977 352.541 200.073C357.007 202.203 361.941 203.138 366.792 204.059C370.64 204.787 374.543 205.516 378.446 205.186C380.933 204.98 383.38 204.347 385.647 203.33C385.331 201.791 384.259 200.54 383.352 199.248C378.061 191.799 377.608 181.683 380.384 172.983C381.442 169.685 382.912 166.496 383.517 163.088C384.424 157.879 383.173 152.477 380.947 147.68C378.721 142.884 375.546 138.596 372.413 134.349" fill="#D1D9DD"/>
<path d="M348.556 191.785C346.728 192.252 344.969 190.424 343.086 190.631C342.962 190.644 342.839 190.672 342.742 190.754C342.591 190.878 342.591 191.112 342.591 191.304C342.674 194.905 342.385 198.52 341.712 202.052C341.698 202.162 341.671 202.272 341.726 202.368C341.794 202.505 341.973 202.547 342.124 202.574C344.007 202.877 345.917 203.042 347.827 203.069" fill="#738D9A"/>
<path d="M344.337 191.964C343.718 192.047 343.361 192.913 343.759 193.407C344.144 193.902 345.079 193.751 345.299 193.16C345.518 192.569 344.914 191.854 344.295 191.978" fill="#FEB101"/>
<path d="M370.351 140.849C367.163 142.073 364.813 144.945 363.535 148.12C362.271 151.295 361.955 154.758 361.872 158.181C361.762 162.551 362.01 166.922 361.845 171.293C361.721 174.454 361.364 177.684 360.058 180.57C358.395 184.212 355.207 187.126 351.442 188.445C350.48 188.789 349.449 189.036 348.666 189.71C346.879 191.249 347.319 194.039 347.387 196.389C347.456 198.561 347.071 200.733 346.274 202.753C346.041 203.358 345.752 204.004 345.917 204.636C346.041 205.103 346.384 205.488 346.728 205.832C352.033 211.109 359.495 214.147 366.985 214.078C371.272 214.037 375.615 212.965 379.133 210.532C383.352 207.591 386.087 202.877 387.434 197.915C388.78 192.953 388.877 187.744 388.671 182.604C388.313 173.67 387.076 164.778 384.987 156.092C384.245 152.999 383.38 149.893 381.648 147.227C379.875 144.505 377.237 142.361 374.199 141.193C372.88 140.685 371.368 140.368 370.063 140.932" fill="#B0BEC6"/>
<path d="M351.071 199.413C354.025 199.578 357.035 199.743 359.921 199.084C365.432 197.819 369.939 193.572 372.482 188.528C375.038 183.484 375.821 177.711 375.821 172.063C375.821 170.812 375.78 169.575 375.89 168.324C376.811 168.393 377.278 169.437 377.525 170.331C379.339 176.639 380.123 183.237 379.834 189.793C379.738 192.033 379.504 194.287 378.872 196.431C378.322 198.286 377.443 200.101 376.027 201.434C375.12 202.286 374.021 202.918 372.894 203.454C370.434 204.636 367.74 205.461 365.006 205.42C359.935 205.351 355.427 202.382 351.235 199.523" fill="#738D9A"/>
<path d="M356.402 191.249C360.085 189.737 362.806 186.452 364.469 182.838C366.132 179.223 366.874 175.265 367.589 171.361C367.974 171.719 368.07 172.268 368.139 172.791C368.468 175.237 368.812 177.711 368.633 180.171C368.455 182.632 367.74 185.133 366.16 187.043C363.878 189.792 359.962 191.387 356.402 191.249Z" fill="#738D9A"/>
<path d="M354.122 97.7617C352.335 99.1361 350.507 100.538 349.161 102.339C347.814 104.153 346.962 106.462 347.388 108.675C347.566 109.609 347.965 110.53 347.896 111.478C347.773 113.073 346.646 114.351 345.436 115.505C345.01 115.918 344.653 116.495 345.01 116.976C345.285 117.361 345.959 117.553 346.316 117.869C346.632 118.144 346.714 118.598 346.797 119.01C347.237 121.512 347.676 123.999 348.116 126.501C348.199 126.968 348.281 127.449 348.556 127.834C349.353 129.002 351.126 128.686 352.473 128.246C354.135 127.696 355.798 127.147 357.461 126.597C359.77 125.841 362.092 125.071 364.181 123.862C366.284 122.652 368.167 120.934 369.156 118.722C369.596 117.759 369.857 116.715 370.063 115.684C370.695 112.619 370.97 109.403 370.118 106.379C369.266 103.369 367.136 100.593 364.154 99.6034" fill="#ECAB95"/>
<path d="M347.512 122.144C348.281 122.089 348.817 121.855 349.408 121.374C349.669 121.154 349.985 120.81 350.095 120.453C349.587 120.632 349.023 120.755 348.46 120.755C347.91 120.755 347.443 120.701 347.072 120.728L347.319 122.13H347.512V122.144Z" fill="#FE4810"/>
<path d="M348.666 111.341C350.549 111.795 352.706 111.382 353.6 109.486C353.792 109.073 353.174 108.702 352.981 109.128C352.225 110.736 350.439 111.025 348.858 110.654C348.405 110.544 348.226 111.231 348.666 111.341Z" fill="#282F39"/>
<path d="M348.501 107.974C349.985 106.861 352.019 105.747 353.93 106.393C354.369 106.544 354.548 105.844 354.122 105.706C352.033 105.005 349.779 106.132 348.144 107.355C347.773 107.63 348.13 108.249 348.501 107.974Z" fill="#282F39"/>
<path opacity="0.42" d="M355.207 118.434C356.437 118.434 357.434 117.437 357.434 116.207C357.434 114.977 356.437 113.98 355.207 113.98C353.978 113.98 352.981 114.977 352.981 116.207C352.981 117.437 353.978 118.434 355.207 118.434Z" fill="#FE4810"/>
<path d="M368.579 97.226C368.661 93.089 370.049 88.9658 372.578 85.6947C375.12 82.4236 378.803 80.0458 382.857 79.2212C384.644 78.8501 386.527 78.7814 388.258 79.3311C392.038 80.5131 394.47 84.5677 394.456 88.526C394.443 92.4843 392.312 96.2227 389.385 98.889C386.472 101.555 382.816 103.287 379.106 104.689" fill="#E04E39"/>
<path d="M360.979 111.602C362.34 111.836 363.453 112.922 364.016 114.2C364.566 115.465 364.649 116.894 364.594 118.282C364.484 121.086 363.838 123.848 363.357 126.625C362.876 129.401 362.56 132.246 363.082 135.009C363.604 137.771 365.088 140.465 367.507 141.894C365.982 140.108 365.143 137.785 364.951 135.435C364.758 133.084 365.184 130.72 365.968 128.508C366.311 127.532 366.724 126.584 367.108 125.621C368.441 122.158 369.211 118.323 368.304 114.722C368.057 113.747 367.686 112.784 367.026 112.015C365.982 110.792 364.374 110.214 362.793 109.953" fill="#E04E39"/>
<path d="M350.356 101.006C351.181 106.077 354.287 110.668 358.987 112.702C359.509 112.936 360.072 113.142 360.649 113.101C361.144 113.073 361.611 112.853 362.092 112.771C364.099 112.386 365.995 114.09 366.628 116.028C367.26 117.966 366.957 120.055 366.779 122.089C366.476 125.292 366.476 128.604 367.672 131.586C370.008 137.428 376.412 140.891 378.735 146.732C379.738 149.275 379.903 152.065 380.741 154.663C382.734 160.793 388.781 165.273 395.212 165.741C401.644 166.208 408.117 162.827 411.717 157.48C413.091 155.432 414.081 153.137 414.878 150.801C415.689 148.437 416.348 145.99 416.39 143.489C416.527 136.301 411.497 129.758 405.203 126.295C400.063 123.464 393.852 122.13 390.004 117.705C384.754 111.657 385.785 101.94 380.645 95.7967C375.945 90.1754 367.315 89.3645 360.361 91.701C355.867 93.2403 351.387 96.3602 350.356 101.006Z" fill="#E04E39"/>
<path d="M401.286 160.765C400.832 157.178 395.541 156.916 395.486 160.765C395.239 179.209 389.165 198.314 376.92 212.401C363.837 227.451 344.803 229.911 325.893 228.496C324.066 228.358 323.145 229.692 323.117 231.121C322.801 232.482 323.351 233.911 325.124 234.2C346.879 237.622 375.23 241.566 390.498 221.555C403.045 205.117 403.814 180.46 401.286 160.765Z" fill="black"/>
<path d="M348.047 233.498C331.281 260.794 325.371 292.502 319.86 323.591C319.531 325.419 322.334 326.202 322.65 324.361C328.106 293.519 333.919 262.045 350.548 234.969C351.524 233.375 349.022 231.918 348.047 233.498Z" fill="black"/>
<path d="M373.594 233.498C390.36 260.794 396.27 292.502 401.781 323.591C402.11 325.419 399.307 326.202 398.991 324.361C393.535 293.519 387.722 262.045 371.093 234.969C370.104 233.375 372.619 231.918 373.594 233.498Z" fill="#0B3B57"/>
<path d="M325.729 329.254C314.062 292.021 302.38 254.788 290.713 217.555C289.022 212.14 287.318 206.725 285.628 201.31C285.01 199.358 282.206 200.196 282.838 202.175C294.506 239.408 306.187 276.641 317.855 313.874C319.545 319.289 321.249 324.704 322.939 330.119C323.544 332.071 326.348 331.233 325.729 329.254Z" fill="black"/>
<path d="M120.194 330.118C131.861 292.885 143.543 255.652 155.21 218.419C156.901 213.004 158.605 207.589 160.295 202.174C160.913 200.208 158.11 199.356 157.505 201.308C145.838 238.54 134.157 275.773 122.489 313.006C120.799 318.421 119.095 323.837 117.404 329.252C116.786 331.231 119.589 332.069 120.194 330.118Z" fill="#02073C"/>
<path d="M321.373 203.137H120.359C119.507 203.137 118.806 202.436 118.806 201.584C118.806 200.732 119.507 200.031 120.359 200.031H321.386C322.238 200.031 322.939 200.732 322.939 201.584C322.926 202.436 322.238 203.137 321.373 203.137Z" fill="black"/>
</svg>
