<svg width="448" height="358" viewBox="0 0 448 358" fill="none" xmlns="http://www.w3.org/2000/svg">
<path d="M65.6025 322.77C153.062 368.46 294.872 368.46 382.332 322.77C469.792 277.08 469.792 203 382.332 157.31C294.872 111.62 153.062 111.62 65.6025 157.31C-21.8675 203 -21.8675 277.08 65.6025 322.77Z" fill="#F7F9FA"/>
<path d="M41.1824 247.85L12.7524 231.43V170.46L41.1824 186.87V247.85Z" fill="#D1D9DD"/>
<path d="M41.1826 186.87L81.8026 163.42V224.4L41.1826 247.85V186.87Z" fill="#EAF0F3"/>
<path d="M81.8024 163.42L41.1824 186.87L12.7524 170.46L53.3724 147L81.8024 163.42Z" fill="#F1F6F9"/>
<path d="M45.2427 189.22L77.7427 170.46L78.4927 170.89V193.47L45.9927 212.23L45.2427 211.8V189.22Z" fill="#D1D9DD"/>
<path d="M45.9927 189.65L78.4927 170.89V193.47L45.9927 212.23V189.65Z" fill="#F7F9FA"/>
<path d="M58.7326 186.12L64.2626 182.93C64.9826 182.52 65.5626 182.71 65.5626 183.35C65.5626 184 64.9826 184.86 64.2626 185.27L58.7326 188.46C58.0126 188.87 57.4326 188.69 57.4326 188.04C57.4326 187.4 58.0126 186.54 58.7326 186.12Z" fill="#D1D9DD"/>
<path d="M44.5027 217.8L76.9927 199.03V221.62L77.7427 222.05L45.2427 240.81L44.4927 240.38L44.5027 217.8Z" fill="#D1D9DD"/>
<path d="M45.2427 218.23L77.7427 199.47V222.05L45.2427 240.81V218.23Z" fill="#F7F9FA"/>
<path d="M57.9826 214.7L63.5126 211.51C64.2326 211.1 64.8126 211.29 64.8126 211.93C64.8126 212.58 64.2326 213.44 63.5126 213.85L57.9826 217.04C57.2626 217.45 56.6826 217.26 56.6826 216.62C56.6826 215.98 57.2626 215.12 57.9826 214.7Z" fill="#D1D9DD"/>
<path d="M41.1824 183.36L12.7524 166.94V105.96L41.1824 122.38V183.36Z" fill="#D1D9DD"/>
<path d="M41.1826 122.38L81.8026 98.93V159.9L41.1826 183.36V122.38Z" fill="#EAF0F3"/>
<path d="M81.8024 98.93L41.1824 122.38L12.7524 105.96L53.3724 82.51L81.8024 98.93Z" fill="#F7F9FA"/>
<path d="M45.2427 124.72L77.7427 105.96L78.4927 106.39L78.4827 128.98L45.9927 147.74L45.2427 147.31V124.72Z" fill="#E0E0E0"/>
<path d="M58.7326 121.63L64.2626 118.44C64.9826 118.03 65.5626 118.21 65.5626 118.86C65.5626 119.51 64.9826 120.37 64.2626 120.78L58.7326 123.97C58.0126 124.38 57.4326 124.2 57.4326 123.55C57.4326 122.9 58.0126 122.04 58.7326 121.63Z" fill="#E0E0E0"/>
<path d="M44.4927 153.3L76.9927 134.54V157.13L77.7427 157.56L45.2427 176.32L44.4927 175.89V153.3Z" fill="#D1D9DD"/>
<path d="M45.2427 153.74L77.7427 134.97V157.56L45.2427 176.32V153.74Z" fill="#F7F9FA"/>
<path d="M57.9826 150.21L63.5126 147.02C64.2326 146.61 64.8126 146.79 64.8126 147.44C64.8126 148.09 64.2326 148.95 63.5126 149.36L57.9826 152.55C57.2626 152.96 56.6826 152.78 56.6826 152.13C56.6826 151.48 57.2626 150.62 57.9826 150.21Z" fill="#E0E0E0"/>
<path d="M45.2427 124.72L77.7427 105.96V128.55L45.2427 147.31V124.72Z" fill="#D1D9DD"/>
<path d="M93.9926 117.12L76.2026 106.85V126.75L93.9926 137.02V117.12Z" fill="#E6EDF0"/>
<path d="M57.4326 150.52V122.38L64.4026 118.34L65.5526 120.03L85.8626 108.31V134.1L57.4326 150.52Z" fill="#EDEFF0"/>
<path d="M57.4326 150.52L59.4626 125.9L87.8926 109.48L85.8626 134.1L57.4326 150.52Z" fill="#F7F9FA"/>
<path d="M61.4927 135.88L45.9927 126.93V146.83L61.4927 155.78V135.88Z" fill="#EFF3F4"/>
<path d="M61.4927 134.1L93.9927 115.34L93.9827 137.93L61.4927 156.69V134.1Z" fill="#F7F9FA"/>
<path d="M74.2326 130.58L79.7626 127.39C80.4826 126.98 81.0626 127.16 81.0626 127.81C81.0626 128.46 80.4826 129.32 79.7626 129.73L74.2326 132.92C73.5126 133.33 72.9326 133.15 72.9326 132.5C72.9326 131.85 73.5126 130.99 74.2326 130.58Z" fill="#D1D9DD"/>
<path d="M61.4926 134.1L60.4126 133.48V156.06L61.4926 156.69V134.1Z" fill="#D1D9DD"/>
<path d="M60.4126 133.48L92.9026 114.72L93.9926 115.34L61.4926 134.1L60.4126 133.48Z" fill="#D1D9DD"/>
<path d="M377.063 210.9L348.623 194.49V133.51L377.063 149.93V210.9Z" fill="#D1D9DD"/>
<path d="M377.062 149.93L417.682 126.48V187.45L377.062 210.9V149.93Z" fill="#EAF0F3"/>
<path d="M417.683 126.48L377.063 149.93L348.623 133.51L389.243 110.06L417.683 126.48Z" fill="#F7F9FA"/>
<path d="M381.123 152.27L413.623 133.51L414.363 133.94V156.53L381.873 175.29L381.123 174.86V152.27Z" fill="#D1D9DD"/>
<path d="M381.873 152.7L414.363 133.94V156.53L381.873 175.29V152.7Z" fill="#F7F9FA"/>
<path d="M394.612 149.18L400.143 145.99C400.863 145.58 401.443 145.76 401.443 146.41C401.443 147.06 400.863 147.92 400.143 148.33L394.612 151.52C393.892 151.93 393.312 151.75 393.312 151.1C393.312 150.45 393.892 149.59 394.612 149.18Z" fill="#D1D9DD"/>
<path d="M380.373 180.85L412.873 162.09V184.67L413.623 185.11L381.123 203.87L380.373 203.44V180.85Z" fill="#D1D9DD"/>
<path d="M381.123 181.28L413.623 162.52V185.11L381.123 203.87V181.28Z" fill="#F7F9FA"/>
<path d="M393.862 177.76L399.393 174.57C400.113 174.16 400.693 174.35 400.693 174.99C400.693 175.64 400.113 176.5 399.393 176.91L393.862 180.1C393.142 180.51 392.562 180.33 392.562 179.68C392.562 179.03 393.142 178.17 393.862 177.76Z" fill="#D1D9DD"/>
<path d="M106.172 125.76V280.54L264.592 189.08V48.36L146.792 116.37L142.732 104.65L106.172 125.76Z" fill="#738D9A"/>
<path opacity="0.7" d="M106.172 125.76V280.54L264.592 189.08V48.36L146.792 116.37L142.732 104.65L106.172 125.76Z" fill="black"/>
<path d="M106.172 280.54L114.302 139.83L272.722 48.36L264.592 189.08L106.172 280.54Z" fill="#E0E0E0"/>
<path d="M106.172 280.54L118.362 142.17L276.782 50.71L264.592 189.08L106.172 280.54Z" fill="#738D9A"/>
<path opacity="0.7" d="M106.172 280.54L118.362 142.17L276.782 50.71L264.592 189.08L106.172 280.54Z" fill="black"/>
<path d="M130.552 139.83V294.61L288.972 203.15V62.43L171.172 130.45L167.112 118.72L130.552 139.83Z" fill="#C39367"/>
<path opacity="0.5" d="M130.552 139.83V294.61L288.972 203.15V62.43L171.172 130.45L167.112 118.72L130.552 139.83Z" fill="black"/>
<path d="M130.552 294.61L138.672 153.9L297.092 62.43L288.972 203.15L130.552 294.61Z" fill="#E0E0E0"/>
<path d="M130.552 294.61L142.732 156.24L301.152 64.78L288.972 203.15L130.552 294.61Z" fill="#C39367"/>
<path opacity="0.5" d="M130.552 294.61L142.732 156.24L301.152 64.78L288.972 203.15L130.552 294.61Z" fill="black"/>
<path d="M264.592 343.86C236.162 327.44 209.772 309.6 197.732 288.65L234.292 267.54L264.592 343.86Z" fill="#E0E0E0"/>
<path d="M158.982 156.24V311.03L317.402 219.56V78.85L199.602 146.86L195.542 135.14L158.982 156.24Z" fill="#E04E39"/>
<path opacity="0.2" d="M158.982 156.24V311.03L317.402 219.56V78.85L199.602 146.86L195.542 135.14L158.982 156.24Z" fill="black"/>
<path d="M204.623 202.01C204.223 202.01 204.163 201.55 204.163 201.27V69.25C204.163 68.32 204.843 67.15 205.643 66.68L319.983 0.67C320.173 0.56 320.353 0.5 320.503 0.5C320.903 0.5 320.963 0.96 320.963 1.24V133.26C320.963 134.19 320.283 135.36 319.483 135.83L205.143 201.84C204.953 201.95 204.773 202.01 204.623 202.01Z" fill="white"/>
<path d="M320.443 1.01C320.453 1.06 320.473 1.13 320.473 1.24V133.26C320.473 134 319.883 135.02 319.243 135.39L204.893 201.4C204.803 201.45 204.733 201.48 204.683 201.49C204.673 201.44 204.663 201.37 204.663 201.26V69.25C204.663 68.51 205.253 67.49 205.893 67.12L320.233 1.1C320.323 1.05 320.393 1.02 320.443 1.01ZM320.503 0C320.273 0 320.003 0.08 319.733 0.24L205.393 66.25C204.433 66.8 203.663 68.15 203.663 69.25V201.27C203.663 202.05 204.053 202.51 204.623 202.51C204.853 202.51 205.123 202.43 205.393 202.27L319.733 136.26C320.693 135.71 321.463 134.36 321.463 133.26V1.24C321.463 0.45 321.073 0 320.503 0Z" fill="#D1D9DD"/>
<path opacity="0.7" d="M320.443 1.01C320.453 1.06 320.473 1.13 320.473 1.24V133.26C320.473 134 319.883 135.02 319.243 135.39L204.893 201.4C204.803 201.45 204.733 201.48 204.683 201.49C204.673 201.44 204.663 201.37 204.663 201.26V69.25C204.663 68.51 205.253 67.49 205.893 67.12L320.233 1.1C320.323 1.05 320.393 1.02 320.443 1.01ZM320.503 0C320.273 0 320.003 0.08 319.733 0.24L205.393 66.25C204.433 66.8 203.663 68.15 203.663 69.25V201.27C203.663 202.05 204.053 202.51 204.623 202.51C204.853 202.51 205.123 202.43 205.393 202.27L319.733 136.26C320.693 135.71 321.463 134.36 321.463 133.26V1.24C321.463 0.45 321.073 0 320.503 0Z" fill="white"/>
<path d="M215.853 74.28L256.473 50.83V97.74L215.853 121.19V74.28Z" fill="#E04E39"/>
<path opacity="0.8" d="M215.853 74.28L256.473 50.83V97.74L215.853 121.19V74.28Z" fill="white"/>
<path d="M250.372 62.56V76.63L249.102 77.34C249.102 77.34 249.102 75.41 249.102 73.03C249.102 70.65 247.162 69.84 244.772 71.22L227.542 81.17C225.152 82.55 223.212 85.6 223.212 87.98V92.29L221.942 93.05V78.97L250.372 62.56Z" fill="white"/>
<path d="M242.542 98.42C240.462 99.62 238.772 98.36 238.772 95.6V73.03L233.552 75.87V98.61C233.552 101.37 231.862 104.59 229.782 105.79L226.012 107.97V109.46L246.322 97.73V96.24C246.312 96.24 244.622 97.22 242.542 98.42Z" fill="white"/>
<path d="M264.593 48.49C264.593 49.79 265.753 50.16 267.193 49.34L306.683 26.54C308.113 25.71 309.283 23.99 309.283 22.69C309.283 21.4 308.123 21.02 306.683 21.84L267.193 44.64C265.753 45.47 264.593 47.19 264.593 48.49Z" fill="#738D9A"/>
<path d="M264.593 62.56C264.593 63.86 265.753 64.23 267.193 63.41L306.683 40.61C308.113 39.78 309.283 38.06 309.283 36.76C309.283 35.47 308.123 35.09 306.683 35.91L267.193 58.71C265.753 59.54 264.593 61.26 264.593 62.56Z" fill="#738D9A"/>
<path d="M264.593 76.63C264.593 77.93 265.753 78.3 267.193 77.48L306.683 54.68C308.113 53.85 309.283 52.13 309.283 50.83C309.283 49.54 308.123 49.16 306.683 49.98L267.193 72.78C265.753 73.61 264.593 75.33 264.593 76.63Z" fill="#738D9A"/>
<path d="M264.593 90.7C264.593 92 265.753 92.37 267.193 91.55L306.683 68.75C308.113 67.92 309.283 66.2 309.283 64.9C309.283 63.61 308.123 63.23 306.683 64.05L267.193 86.85C265.753 87.68 264.593 89.4 264.593 90.7Z" fill="#738D9A"/>
<path d="M215.853 132.92C215.853 134.22 217.013 134.59 218.453 133.77L306.683 82.83C308.113 82 309.283 80.28 309.283 78.98C309.283 77.69 308.123 77.31 306.683 78.13L218.453 129.07C217.013 129.9 215.853 131.62 215.853 132.92Z" fill="#738D9A"/>
<path d="M215.853 146.99C215.853 148.28 217.013 148.66 218.453 147.84L306.683 96.9C308.113 96.07 309.283 94.35 309.283 93.05C309.283 91.75 308.123 91.38 306.683 92.2L218.453 143.14C217.013 143.97 215.853 145.69 215.853 146.99Z" fill="#738D9A"/>
<path d="M215.853 161.06C215.853 162.35 217.013 162.73 218.453 161.91L306.683 110.97C308.113 110.14 309.283 108.42 309.283 107.12C309.283 105.82 308.123 105.45 306.683 106.27L218.453 157.21C217.013 158.04 215.853 159.77 215.853 161.06Z" fill="#738D9A"/>
<path d="M158.982 311.03L187.412 186.73L345.832 95.27L317.402 219.56L158.982 311.03Z" fill="#E04E39"/>
<path d="M197.742 196.47V288.65L234.292 267.54V175.36L197.742 196.47Z" fill="#E04E39"/>
<path opacity="0.2" d="M197.742 196.47V288.65L234.292 267.54V175.36L197.742 196.47Z" fill="black"/>
<path d="M264.632 343.26C261.522 340.95 231.552 318.03 216.312 285.3C200.092 250.46 200.102 209.82 200.112 194.53V194.05L308.792 131.31C308.782 146.75 308.812 187.44 325.092 222.4C339.982 254.37 368.812 277.02 373.382 280.48L264.632 343.26Z" fill="white"/>
<path d="M308.282 132.18C308.282 148.26 308.592 188.19 324.622 222.62C339.012 253.51 366.372 275.74 372.462 280.43L264.662 342.67C260.452 339.49 231.592 316.97 216.752 285.09C200.572 250.35 200.592 209.8 200.592 194.53V194.34L308.282 132.18ZM309.282 130.45L199.602 193.77C199.602 208.16 199.302 249.97 215.852 285.52C232.102 320.41 264.592 343.87 264.592 343.87L374.272 280.55C374.272 280.55 341.772 257.1 325.522 222.2C308.972 186.64 309.282 144.83 309.282 130.45Z" fill="#738D9A"/>
<path opacity="0.7" d="M308.282 132.18C308.282 148.26 308.592 188.19 324.622 222.62C339.012 253.51 366.372 275.74 372.462 280.43L264.662 342.67C260.452 339.49 231.592 316.97 216.752 285.09C200.572 250.35 200.592 209.8 200.592 194.53V194.34L308.282 132.18ZM309.282 130.45L199.602 193.77C199.602 208.16 199.302 249.97 215.852 285.52C232.102 320.41 264.592 343.87 264.592 343.87L374.272 280.55C374.272 280.55 341.772 257.1 325.522 222.2C308.972 186.64 309.282 144.83 309.282 130.45Z" fill="white"/>
<path d="M296.873 151.68L262.183 171.71C260.743 172.54 259.613 174.24 259.663 175.5C259.713 176.77 260.923 177.12 262.363 176.29L297.053 156.26C298.483 155.43 299.603 153.73 299.553 152.47C299.503 151.2 298.313 150.85 296.873 151.68Z" fill="#738D9A"/>
<path d="M297.612 165.32L262.923 185.35C261.483 186.18 260.403 187.85 260.503 189.09C260.613 190.32 261.873 190.65 263.303 189.82L298.003 169.79C299.433 168.96 300.503 167.29 300.393 166.06C300.293 164.82 299.052 164.49 297.612 165.32Z" fill="#738D9A"/>
<path d="M299.002 178.59L264.312 198.62C262.872 199.45 261.842 201.09 262.012 202.29C262.182 203.49 263.492 203.79 264.932 202.96L299.622 182.93C301.052 182.1 302.072 180.46 301.902 179.26C301.722 178.06 300.432 177.77 299.002 178.59Z" fill="#738D9A"/>
<path d="M301.082 191.46L266.392 211.49C264.952 212.32 263.972 213.93 264.212 215.09C264.452 216.25 265.812 216.51 267.252 215.69L301.942 195.66C303.372 194.83 304.342 193.22 304.102 192.06C303.852 190.91 302.512 190.64 301.082 191.46Z" fill="#738D9A"/>
<path d="M303.903 203.91L269.213 223.94C267.783 224.77 266.853 226.35 267.163 227.47C267.473 228.59 268.893 228.82 270.333 227.99L305.023 207.96C306.463 207.13 307.363 205.56 307.053 204.44C306.733 203.32 305.333 203.08 303.903 203.91Z" fill="#738D9A"/>
<path d="M307.513 215.9L222.973 264.71C221.543 265.54 220.673 267.08 221.063 268.16C221.453 269.23 222.943 269.42 224.373 268.6L308.913 219.79C310.343 218.96 311.183 217.42 310.793 216.35C310.403 215.27 308.943 215.07 307.513 215.9Z" fill="#738D9A"/>
<path d="M312.013 227.34L227.473 276.15C226.043 276.98 225.253 278.48 225.723 279.5C226.193 280.52 227.753 280.67 229.183 279.85L313.723 231.04C315.163 230.21 315.933 228.72 315.453 227.69C314.993 226.68 313.453 226.52 312.013 227.34Z" fill="#738D9A"/>
<path d="M317.532 238.26L232.992 287.07C231.562 287.9 230.842 289.36 231.412 290.33C231.982 291.3 233.622 291.4 235.052 290.57L319.592 241.76C321.032 240.93 321.712 239.48 321.142 238.52C320.572 237.55 318.962 237.43 317.532 238.26Z" fill="#738D9A"/>
<path d="M324.033 248.57L239.493 297.38C238.063 298.21 237.413 299.63 238.073 300.55C238.733 301.47 240.433 301.53 241.863 300.7L326.403 251.89C327.833 251.06 328.463 249.65 327.803 248.74C327.153 247.82 325.473 247.74 324.033 248.57Z" fill="#738D9A"/>
<path d="M331.412 258.38L246.872 307.19C245.442 308.02 244.852 309.41 245.582 310.28C246.312 311.15 248.072 311.18 249.512 310.35L334.052 261.54C335.482 260.71 336.052 259.34 335.322 258.47C334.592 257.6 332.842 257.55 331.412 258.38Z" fill="#738D9A"/>
<path d="M339.582 267.73L255.042 316.54C253.602 317.37 253.082 318.72 253.882 319.56C254.682 320.39 256.502 320.39 257.932 319.56L342.472 270.75C343.902 269.92 344.412 268.58 343.612 267.75C342.822 266.91 341.022 266.9 339.582 267.73Z" fill="#738D9A"/>
<path d="M348.523 276.65L263.983 325.46C262.553 326.29 262.083 327.61 262.953 328.41C263.823 329.2 265.693 329.17 267.133 328.34L351.673 279.53C353.103 278.7 353.563 277.4 352.693 276.6C351.813 275.8 349.953 275.82 348.523 276.65Z" fill="#738D9A"/>
<path d="M249.622 178.96L209.742 201.99C210.182 216.43 211.832 237.28 217.882 258.27L257.762 235.24C251.712 214.25 250.062 193.4 249.622 178.96Z" fill="#E04E39"/>
<path opacity="0.8" d="M249.622 178.96L209.742 201.99C210.182 216.43 211.832 237.28 217.882 258.27L257.762 235.24C251.712 214.25 250.062 193.4 249.622 178.96Z" fill="white"/>
<path d="M226.002 198.79C226.002 196.55 225.272 194.83 224.052 193.72L209.732 201.99C209.852 205.81 210.052 210.08 210.402 214.67C211.972 214.93 213.822 214.64 215.822 213.72C221.442 211.09 226.002 204.41 226.002 198.79Z" fill="#E04E39"/>
<path opacity="0.6" d="M226.002 198.79C226.002 196.55 225.272 194.83 224.052 193.72L209.732 201.99C209.852 205.81 210.052 210.08 210.402 214.67C211.972 214.93 213.822 214.64 215.822 213.72C221.442 211.09 226.002 204.41 226.002 198.79Z" fill="white"/>
<path d="M254.372 221.44C251.712 218.08 246.302 207.74 243.992 203.23C243.582 202.43 242.412 202.54 242.142 203.4C238.152 216.22 237.812 229.65 237.812 229.65C234.602 227.11 232.302 224.59 229.342 220.23C228.912 219.6 227.942 219.77 227.752 220.51C223.392 237.3 225.582 253.82 225.582 253.82L257.752 235.25C256.422 230.61 255.312 225.99 254.372 221.44Z" fill="#E04E39"/>
<path opacity="0.6" d="M254.372 221.44C251.712 218.08 246.302 207.74 243.992 203.23C243.582 202.43 242.412 202.54 242.142 203.4C238.152 216.22 237.812 229.65 237.812 229.65C234.602 227.11 232.302 224.59 229.342 220.23C228.912 219.6 227.942 219.77 227.752 220.51C223.392 237.3 225.582 253.82 225.582 253.82L257.752 235.25C256.422 230.61 255.312 225.99 254.372 221.44Z" fill="white"/>
</svg>
