<svg width="423" height="407" viewBox="0 0 423 407" fill="none" xmlns="http://www.w3.org/2000/svg">
<g clip-path="url(#clip0)">
<path d="M55.8946 357.761C130.419 396.602 251.25 396.612 325.774 357.761C400.299 318.91 400.299 255.929 325.774 217.087C251.25 178.237 130.419 178.237 55.8856 217.087C-18.63 255.938 -18.63 318.919 55.8946 357.761Z" fill="#D1D9DD"/>
<path d="M186.135 316.469L189.558 318.447C190.639 319.07 192.377 319.07 193.458 318.447L284.689 265.633C285.77 265.009 285.77 263.998 284.689 263.375L281.275 261.397C280.194 260.774 278.455 260.774 277.374 261.397L186.135 314.211C185.054 314.834 185.054 315.846 186.135 316.469Z" fill="#E0E0E0"/>
<path d="M335.086 309.376C323.742 315.429 305.351 315.429 294.007 309.376C282.664 303.323 282.664 293.517 294.007 287.464C305.351 281.411 323.742 281.411 335.086 287.464C346.439 293.517 346.439 303.323 335.086 309.376Z" fill="#F7F9FA"/>
<path d="M204.465 188.404V197.383L48.5636 287.194V287.203L43.7668 289.961C41.7432 288.798 40.0991 285.832 40.0991 283.344V132.076C40.0991 131.823 40.1895 131.553 40.325 131.309C40.4695 131.066 40.6682 130.85 40.885 130.723L76.4142 110.249C76.8478 110.006 79.3772 111.061 79.7927 111.313L80.0637 111.467C80.2715 111.593 80.4973 111.791 80.687 112.016C80.8948 112.26 81.0665 112.521 81.1387 112.765L84.3547 122.033L200.003 53.2815C200.418 53.0471 201.087 53.0381 201.52 53.2544L203.67 54.4985C203.887 54.6247 204.077 54.8321 204.221 55.0755C204.366 55.3189 204.447 55.5984 204.447 55.8508V87.4406L204.465 188.404Z" fill="#9C382A"/>
<path d="M204.465 197.383L43.7668 289.961V133.283L80.6871 112.016C80.8949 112.26 81.0665 112.521 81.1388 112.764L84.3548 122.032L84.969 123.79L204.221 55.0752C204.366 55.3186 204.447 55.5981 204.447 55.8505L204.465 197.383Z" fill="#E04E39"/>
<path d="M80.6875 112.017L43.7672 133.284L40.3254 131.31C40.47 131.066 40.6687 130.85 40.8855 130.724L76.4146 110.25C76.8482 110.006 77.5438 110.006 77.9594 110.259L80.0642 111.467C80.272 111.593 80.4978 111.791 80.6875 112.017Z" fill="#9C382A"/>
<path d="M204.221 55.0755L84.969 123.791L84.3547 122.033L200.012 53.2815C200.427 53.0471 201.096 53.0381 201.529 53.2544L203.679 54.4985C203.887 54.6247 204.077 54.8321 204.221 55.0755Z" fill="#9C382A"/>
<path d="M93.1444 226.25C92.2229 225.718 91.4822 224.375 91.4822 223.248V74.2605C91.4822 73.1336 92.2771 71.7542 93.2528 71.1953L181.439 20.4388C182.423 19.8709 183.959 19.8438 184.88 20.3757C185.802 20.9076 186.543 22.2509 186.543 23.3778V172.366C186.543 173.492 185.748 174.872 184.772 175.431L96.5862 226.187C95.6015 226.755 94.0568 226.782 93.1444 226.25Z" fill="#FAFAFA"/>
<path d="M96.5772 226.187L184.763 175.431C185.748 174.863 186.534 173.492 186.534 172.365V23.3776C186.534 22.2507 185.739 21.7909 184.763 22.3589L96.5772 73.1153C95.5926 73.6833 94.8066 75.0536 94.8066 76.1805V225.168C94.8066 226.295 95.6016 226.755 96.5772 226.187Z" fill="#ECF2F4"/>
<path d="M106.243 79.0204L172.83 40.6511C173.697 40.1552 174.392 40.5609 174.392 41.5526V42.1747C174.392 43.1664 173.688 44.3834 172.83 44.8793L106.243 83.2486C105.376 83.7444 104.68 83.3388 104.68 82.3471V81.725C104.68 80.7333 105.376 79.5163 106.243 79.0204Z" fill="#E0E0E0"/>
<path d="M106.243 89.5868L172.83 51.2175C173.697 50.7216 174.392 51.1273 174.392 52.119V52.7411C174.392 53.7328 173.688 54.9498 172.83 55.4457L106.243 93.815C105.376 94.3108 104.68 93.9052 104.68 92.9135V92.2914C104.68 91.2907 105.376 90.0826 106.243 89.5868Z" fill="#E0E0E0"/>
<path d="M106.243 100.143L172.83 61.7741C173.697 61.2783 174.392 61.684 174.392 62.6757V63.2977C174.392 64.2894 173.688 65.5065 172.83 66.0023L106.243 104.372C105.376 104.867 104.68 104.462 104.68 103.47V102.848C104.68 101.847 105.376 100.639 106.243 100.143Z" fill="#E0E0E0"/>
<path d="M106.243 110.701L172.83 72.3317C173.697 71.8359 174.392 72.2416 174.392 73.2333V73.8553C174.392 74.847 173.688 76.0641 172.83 76.5599L106.243 114.929C105.376 115.425 104.68 115.019 104.68 114.028V113.406C104.68 112.414 105.376 111.197 106.243 110.701Z" fill="#E0E0E0"/>
<path d="M106.243 121.258L172.83 82.8884C173.697 82.3925 174.392 82.7982 174.392 83.7899V84.412C174.392 85.4037 173.688 86.6207 172.83 87.1166L106.243 125.486C105.376 125.982 104.68 125.576 104.68 124.584V123.962C104.68 122.971 105.376 121.754 106.243 121.258Z" fill="#E0E0E0"/>
<path d="M106.243 131.895L172.83 93.5261C173.697 93.0302 174.392 93.4359 174.392 94.4276V95.0497C174.392 96.0414 173.688 97.2584 172.83 97.7543L106.243 136.124C105.376 136.619 104.68 136.214 104.68 135.222V134.6C104.68 133.608 105.376 132.391 106.243 131.895Z" fill="#E0E0E0"/>
<path d="M106.243 142.453L172.83 104.084C173.697 103.588 174.392 103.994 174.392 104.985V105.607C174.392 106.599 173.688 107.816 172.83 108.312L106.243 146.681C105.376 147.177 104.68 146.771 104.68 145.78V145.158C104.68 144.166 105.376 142.958 106.243 142.453Z" fill="#E0E0E0"/>
<path d="M106.243 153.018L172.83 114.649C173.697 114.153 174.392 114.559 174.392 115.551V116.173C174.392 117.164 173.688 118.381 172.83 118.877L106.243 157.247C105.376 157.743 104.68 157.337 104.68 156.345V155.723C104.68 154.722 105.376 153.514 106.243 153.018Z" fill="#E0E0E0"/>
<path d="M106.243 163.575L172.83 125.206C173.697 124.71 174.392 125.116 174.392 126.107V126.729C174.392 127.721 173.688 128.938 172.83 129.434L106.243 167.803C105.376 168.299 104.68 167.893 104.68 166.902V166.28C104.68 165.279 105.376 164.071 106.243 163.575Z" fill="#E0E0E0"/>
<path d="M106.243 174.133L172.83 135.763C173.697 135.268 174.392 135.673 174.392 136.665V137.287C174.392 138.279 173.688 139.496 172.83 139.992L106.243 178.361C105.376 178.857 104.68 178.451 104.68 177.459V176.837C104.68 175.846 105.376 174.629 106.243 174.133Z" fill="#E0E0E0"/>
<path d="M106.243 184.734L172.83 146.365C173.697 145.869 174.392 146.275 174.392 147.266V147.889C174.392 148.88 173.688 150.097 172.83 150.593L106.243 188.962C105.376 189.458 104.68 189.053 104.68 188.061V187.439C104.68 186.447 105.376 185.239 106.243 184.734Z" fill="#E0E0E0"/>
<path d="M106.243 195.301L172.83 156.931C173.697 156.436 174.392 156.841 174.392 157.833V158.455C174.392 159.447 173.688 160.664 172.83 161.16L106.243 199.529C105.376 200.025 104.68 199.619 104.68 198.627V198.005C104.68 197.005 105.376 195.797 106.243 195.301Z" fill="#E0E0E0"/>
<path d="M106.243 205.857L172.83 167.488C173.697 166.992 174.392 167.398 174.392 168.39V169.012C174.392 170.003 173.688 171.22 172.83 171.716L106.243 210.086C105.376 210.581 104.68 210.176 104.68 209.184V208.562C104.68 207.561 105.376 206.353 106.243 205.857Z" fill="#E0E0E0"/>
<path d="M96.3513 226.305C95.3757 226.755 93.9935 226.746 93.1444 226.251C92.2229 225.719 91.4822 224.375 91.4822 223.248V74.2607C91.4822 73.6927 91.6809 73.0707 91.9971 72.5117L95.3305 74.432C95.0053 74.9819 94.8065 75.613 94.8065 76.172V225.169C94.8065 226.205 95.4841 226.674 96.3513 226.305Z" fill="#D1D9DD"/>
<path d="M105.62 233.319C104.698 232.787 103.958 231.443 103.958 230.317V81.3288C103.958 80.2019 104.752 78.8226 105.728 78.2636L193.914 27.5072C194.899 26.9392 196.434 26.9122 197.356 27.4441C198.277 27.976 199.018 29.3193 199.018 30.4462V179.434C199.018 180.561 198.223 181.94 197.247 182.499L109.061 233.256C108.086 233.824 106.541 233.851 105.62 233.319Z" fill="#FAFAFA"/>
<path d="M109.061 233.255L197.247 182.499C198.232 181.931 199.018 180.561 199.018 179.434V30.446C199.018 29.319 198.223 28.8593 197.247 29.4272L109.061 80.1836C108.077 80.7516 107.291 82.1219 107.291 83.2489V232.237C107.291 233.363 108.086 233.823 109.061 233.255Z" fill="#ECF2F4"/>
<path d="M118.727 86.0888L185.314 47.7194C186.181 47.2236 186.877 47.6293 186.877 48.621V49.243C186.877 50.2347 186.172 51.4518 185.314 51.9476L118.727 90.317C117.86 90.8128 117.165 90.4071 117.165 89.4154V88.7934C117.165 87.8017 117.86 86.5936 118.727 86.0888Z" fill="#738D9A"/>
<path d="M118.768 96.5653L185.354 58.196C186.222 57.7002 186.917 58.1058 186.917 59.0975V59.7196C186.917 60.7113 186.213 61.9284 185.354 62.4242L118.768 100.794C117.901 101.289 117.205 100.884 117.205 99.892V99.2699C117.205 98.2692 117.901 97.0612 118.768 96.5653Z" fill="#738D9A"/>
<path d="M118.727 107.212L185.314 68.8425C186.181 68.3466 186.877 68.7523 186.877 69.744V70.3661C186.877 71.3578 186.172 72.5748 185.314 73.0707L118.727 111.44C117.86 111.936 117.165 111.53 117.165 110.538V109.916C117.165 108.916 117.86 107.708 118.727 107.212Z" fill="#738D9A"/>
<path d="M118.727 117.768L185.314 79.3991C186.181 78.9033 186.877 79.309 186.877 80.3007V80.9227C186.877 81.9144 186.172 83.1315 185.314 83.6273L118.727 121.997C117.86 122.493 117.165 122.087 117.165 121.095V120.473C117.165 119.481 117.86 118.264 118.727 117.768Z" fill="#738D9A"/>
<path d="M118.727 128.326L185.314 89.9567C186.181 89.4609 186.877 89.8666 186.877 90.8583V91.4803C186.877 92.472 186.172 93.6891 185.314 94.1849L118.727 132.554C117.86 133.05 117.165 132.644 117.165 131.653V131.031C117.165 130.039 117.86 128.822 118.727 128.326Z" fill="#738D9A"/>
<path d="M118.727 138.964L185.314 100.594C186.181 100.099 186.877 100.504 186.877 101.496V102.118C186.877 103.11 186.172 104.327 185.314 104.823L118.727 143.192C117.86 143.688 117.165 143.282 117.165 142.29V141.668C117.165 140.677 117.86 139.46 118.727 138.964Z" fill="#E0E0E0"/>
<path d="M118.727 149.521L185.314 111.152C186.181 110.656 186.877 111.062 186.877 112.054V112.676C186.877 113.667 186.172 114.884 185.314 115.38L118.727 153.75C117.86 154.245 117.165 153.84 117.165 152.848V152.226C117.165 151.234 117.86 150.026 118.727 149.521Z" fill="#E0E0E0"/>
<path d="M118.727 160.087L185.314 121.717C186.181 121.222 186.877 121.627 186.877 122.619V123.241C186.877 124.233 186.172 125.45 185.314 125.946L118.727 164.315C117.86 164.811 117.165 164.405 117.165 163.413V162.791C117.165 161.791 117.86 160.583 118.727 160.087Z" fill="#E0E0E0"/>
<path d="M118.727 170.643L185.314 132.274C186.181 131.778 186.877 132.184 186.877 133.176V133.798C186.877 134.789 186.172 136.006 185.314 136.502L118.727 174.872C117.86 175.367 117.165 174.962 117.165 173.97V173.348C117.165 172.347 117.86 171.139 118.727 170.643Z" fill="#E0E0E0"/>
<path d="M118.727 181.201L185.314 142.832C186.181 142.336 186.877 142.742 186.877 143.733V144.355C186.877 145.347 186.172 146.564 185.314 147.06L118.727 185.429C117.86 185.925 117.165 185.519 117.165 184.528V183.906C117.165 182.914 117.86 181.697 118.727 181.201Z" fill="#E0E0E0"/>
<path d="M118.727 191.803L185.314 153.433C186.181 152.937 186.877 153.343 186.877 154.335V154.957C186.877 155.949 186.172 157.166 185.314 157.662L118.727 196.031C117.86 196.527 117.165 196.121 117.165 195.129V194.507C117.165 193.516 117.86 192.307 118.727 191.803Z" fill="#E0E0E0"/>
<path d="M118.727 202.369L185.314 164C186.181 163.504 186.877 163.91 186.877 164.901V165.523C186.877 166.515 186.172 167.732 185.314 168.228L118.727 206.597C117.86 207.093 117.165 206.687 117.165 205.696V205.074C117.165 204.073 117.86 202.865 118.727 202.369Z" fill="#E0E0E0"/>
<path d="M118.727 212.926L185.314 174.556C186.181 174.061 186.877 174.466 186.877 175.458V176.08C186.877 177.072 186.172 178.289 185.314 178.785L118.727 217.154C117.86 217.65 117.165 217.244 117.165 216.252V215.63C117.165 214.63 117.86 213.422 118.727 212.926Z" fill="#E0E0E0"/>
<path d="M108.836 233.373C107.86 233.824 106.478 233.815 105.629 233.319C104.707 232.787 103.967 231.444 103.967 230.317V81.3291C103.967 80.7611 104.165 80.139 104.481 79.5801L107.815 81.5004C107.49 82.0503 107.291 82.6814 107.291 83.2403V232.237C107.291 233.274 107.968 233.743 108.836 233.373Z" fill="#D1D9DD"/>
<path d="M237.275 73.5217L211.512 184.861L209.136 195.103C208.576 197.528 206.371 200.503 204.212 201.747L51.346 289.827C50.3343 290.413 49.0334 290.738 47.7326 290.792C46.2872 290.855 44.8328 290.584 43.7668 289.962L44.5528 286.563C44.5799 286.455 44.607 286.347 44.6341 286.23L45.4923 282.507L49.2322 266.351L72.9182 163.991C72.9453 163.865 72.9995 163.738 73.0628 163.612C73.126 163.495 73.1983 163.378 73.2705 163.27C73.2796 163.251 73.2977 163.233 73.3067 163.215C73.4874 162.981 73.6951 162.783 73.9029 162.656L204.447 87.4414L233.021 70.9794C233.454 70.7269 234.159 70.7269 234.592 70.9794L236.697 72.1874C237.122 72.4398 237.384 73.0349 237.275 73.5217Z" fill="#E04E39"/>
<path d="M237.302 73.2963C237.284 72.9808 237.049 72.8816 236.697 73.089L77.5705 164.775C77.3627 164.892 77.1459 165.1 76.9743 165.334L73.3066 163.215C73.4873 162.981 73.6951 162.783 73.9029 162.656L233.02 70.9794C233.454 70.7269 234.159 70.7269 234.592 70.9794L236.697 72.1874C237.059 72.4038 237.302 72.8636 237.302 73.2963Z" fill="#9C382A"/>
<path d="M76.9743 165.334C76.8659 165.479 76.7756 165.632 76.7033 165.776C76.6491 165.893 76.613 166.002 76.5859 166.101L53.9387 263.989H53.9296L49.1599 284.617L48.5637 287.195V287.204L47.7326 290.792C46.2872 290.855 44.8328 290.585 43.7668 289.963L44.5528 286.564C44.5799 286.456 44.607 286.347 44.6341 286.23L45.4923 282.507L49.2322 266.351L72.9182 163.991C72.9453 163.865 72.9995 163.739 73.0628 163.612C73.126 163.495 73.1983 163.378 73.2705 163.27C73.2796 163.252 73.2976 163.234 73.3067 163.216L76.9743 165.334Z" fill="#9C382A"/>
<path d="M49.3766 280.505C49.7651 280.73 49.9638 281.181 49.8554 281.614L48.5636 287.194V287.203L47.9132 289.998C47.8048 290.476 47.3621 290.809 46.8653 290.791C45.718 290.737 44.6159 290.458 43.7668 289.962C41.7432 288.799 40.0991 285.833 40.0991 283.345V276.926C40.0991 276.141 40.9483 275.655 41.6258 276.051L43.2609 276.998C43.5771 277.178 43.7668 277.521 43.7668 277.881V281.073C43.7668 282.281 45.5012 282.479 45.7722 281.298L46.0432 280.117C46.1968 279.45 46.9466 279.125 47.5428 279.468L49.3766 280.505Z" fill="#263238"/>
<path d="M83.1171 256.713L74.4178 251.701C74.4178 251.701 74.4087 251.701 74.3997 251.701L74.3094 251.646L74.3003 251.664C69.9732 249.23 64.0472 249.591 57.4708 253.377C51.3279 256.911 45.7181 262.816 41.4903 269.641C36.6032 277.502 33.5317 286.608 33.5317 294.767C33.5317 302.376 36.1966 307.722 40.5147 310.219V310.228L40.5418 310.237L49.3767 315.268C53.7399 318.044 59.9008 317.801 66.7302 313.861C79.9554 306.243 90.6782 287.708 90.6782 272.472C90.6873 264.538 87.7694 259.066 83.1171 256.713Z" fill="#738D9A"/>
<path opacity="0.1" d="M49.214 315.169L40.5508 310.229L40.5237 310.22V310.211C36.2057 307.713 33.5408 302.367 33.5408 294.758C33.5408 286.599 36.6122 277.503 41.4994 269.642L50.7407 274.961C45.8536 282.822 42.7912 291.91 42.7912 300.059C42.7912 307.335 45.2302 312.537 49.214 315.169Z" fill="black"/>
<path opacity="0.4" d="M82.9454 256.614C78.6815 254.549 72.9904 255.072 66.7391 258.669C60.5872 262.221 54.9774 268.127 50.7406 274.96L41.4993 269.641C45.727 262.807 51.3368 256.911 57.4797 253.377C64.0471 249.591 69.9822 249.23 74.3093 251.664L74.3183 251.646L74.4086 251.701C74.4177 251.701 74.4267 251.701 74.4267 251.701L82.9454 256.614Z" fill="white"/>
<path d="M70.0455 288.726V297.111C70.0455 297.525 69.9461 297.94 69.7564 298.346C69.5577 298.76 69.3318 299.04 69.0608 299.193L64.4447 301.853C64.1737 302.006 63.9478 301.988 63.7491 301.808C63.5503 301.618 63.46 301.321 63.46 300.906V292.522L57.7869 295.794C57.5159 295.948 57.2901 295.93 57.0913 295.749C56.8926 295.56 56.8022 295.263 56.8022 294.848V289.168C56.8022 288.753 56.9016 288.348 57.0913 287.933C57.2901 287.518 57.5159 287.239 57.7869 287.086L63.46 283.813V275.429C63.46 275.014 63.5594 274.608 63.7491 274.194C63.9478 273.779 64.1737 273.499 64.4447 273.346L69.0608 270.687C69.3318 270.533 69.5577 270.551 69.7564 270.732C69.9552 270.921 70.0455 271.219 70.0455 271.633V280.018L75.6824 276.772C75.9535 276.619 76.1793 276.637 76.378 276.817C76.5768 277.006 76.6671 277.304 76.6671 277.719V283.398C76.6671 283.813 76.5677 284.228 76.378 284.633C76.1793 285.048 75.9535 285.328 75.6824 285.481L70.0455 288.726Z" fill="white"/>
<path d="M301.836 158.267L291.305 157.98C290.593 157.379 279.53 144.961 279.53 144.961C279.53 144.961 275.545 151.21 275.482 151.605C275.419 151.999 286.328 163.611 287.41 164.785C288.005 165.431 288.555 165.951 289.989 166.04C292.847 166.211 303.531 166.955 303.531 166.955L301.836 158.267Z" fill="#E9D3BA"/>
<path d="M189.533 316.702C188.611 316.17 187.871 314.826 187.871 313.7V173.574C187.871 172.447 188.666 171.068 189.641 170.509L277.827 119.752C278.812 119.184 280.347 119.157 281.269 119.689C282.19 120.221 282.931 121.564 282.931 122.691V262.817C282.931 263.944 282.136 265.323 281.16 265.882L192.975 316.639C191.99 317.207 190.454 317.234 189.533 316.702Z" fill="#ECF2F4"/>
<path opacity="0.15" d="M192.478 316.846C192.532 316.837 192.595 316.819 192.658 316.792C192.622 316.819 192.577 316.837 192.532 316.846C192.433 316.891 192.324 316.918 192.207 316.954C192.153 316.972 192.089 316.981 192.026 316.999C191.891 317.026 191.755 317.053 191.62 317.062C191.466 317.08 191.303 317.089 191.15 317.089C190.554 317.089 189.975 316.963 189.533 316.711C189.19 316.512 188.864 316.197 188.602 315.818C188.16 315.205 187.871 314.412 187.871 313.709V173.583C187.871 173.294 187.916 173.006 188.006 172.708C188.051 172.555 188.105 172.411 188.169 172.267C188.232 172.113 188.304 171.978 188.386 171.834L191.71 173.754H191.719C191.692 173.799 191.665 173.844 191.638 173.889C191.367 174.403 191.195 174.98 191.195 175.494V315.629C191.195 315.827 191.222 316.008 191.267 316.161C191.34 316.395 191.457 316.575 191.611 316.702C191.719 316.783 191.836 316.837 191.972 316.873C192.035 316.882 192.107 316.891 192.18 316.891C192.261 316.891 192.342 316.882 192.424 316.855C192.442 316.864 192.46 316.846 192.478 316.846Z" fill="black"/>
<path opacity="0.3" d="M282.904 122.367C282.759 121.483 282.037 121.168 281.16 121.673L192.966 172.429C192.478 172.718 192.035 173.204 191.71 173.754L188.385 171.834C188.702 171.284 189.144 170.797 189.641 170.518L277.827 119.752C278.812 119.193 280.347 119.166 281.269 119.689C282.1 120.167 282.786 121.312 282.904 122.367Z" fill="white"/>
<path d="M202.631 178.343L269.218 139.973C270.085 139.477 270.781 139.883 270.781 140.875V141.497C270.781 142.489 270.076 143.706 269.218 144.202L202.631 182.571C201.764 183.067 201.069 182.661 201.069 181.669V181.047C201.069 180.056 201.773 178.839 202.631 178.343Z" fill="#738D9A"/>
<path d="M202.631 191.262L269.218 152.892C270.085 152.396 270.781 152.802 270.781 153.794V154.416C270.781 155.408 270.076 156.625 269.218 157.12L202.631 195.49C201.764 195.986 201.069 195.58 201.069 194.588V193.966C201.069 192.975 201.773 191.757 202.631 191.262Z" fill="#738D9A"/>
<path d="M202.631 204.181L269.218 165.811C270.085 165.315 270.781 165.721 270.781 166.713V167.335C270.781 168.327 270.076 169.544 269.218 170.039L202.631 208.409C201.764 208.905 201.069 208.499 201.069 207.507V206.885C201.069 205.893 201.773 204.676 202.631 204.181Z" fill="#738D9A"/>
<path d="M202.631 217.099L269.218 178.73C270.085 178.234 270.781 178.64 270.781 179.632V180.254C270.781 181.245 270.076 182.463 269.218 182.958L202.631 221.328C201.764 221.824 201.069 221.418 201.069 220.426V219.804C201.069 218.812 201.773 217.595 202.631 217.099Z" fill="#738D9A"/>
<path d="M202.631 230.018L269.218 191.649C270.085 191.153 270.781 191.559 270.781 192.551V193.173C270.781 194.164 270.076 195.381 269.218 195.877L202.631 234.247C201.764 234.743 201.069 234.337 201.069 233.345V232.723C201.069 231.731 201.773 230.523 202.631 230.018Z" fill="#738D9A"/>
<path d="M202.631 242.937L269.218 204.568C270.085 204.072 270.781 204.478 270.781 205.47V206.092C270.781 207.083 270.076 208.3 269.218 208.796L202.631 247.166C201.764 247.661 201.069 247.256 201.069 246.264V245.642C201.069 244.65 201.773 243.442 202.631 242.937Z" fill="#738D9A"/>
<path d="M202.631 255.856L269.218 217.487C270.085 216.991 270.781 217.397 270.781 218.389V219.011C270.781 220.002 270.076 221.219 269.218 221.715L202.631 260.085C201.764 260.58 201.069 260.175 201.069 259.183V258.561C201.069 257.569 201.773 256.361 202.631 255.856Z" fill="#738D9A"/>
<path d="M202.631 268.775L269.218 230.406C270.085 229.91 270.781 230.316 270.781 231.307V231.93C270.781 232.921 270.076 234.138 269.218 234.634L202.631 273.003C201.764 273.499 201.069 273.094 201.069 272.102V271.48C201.069 270.488 201.773 269.28 202.631 268.775Z" fill="#738D9A"/>
<path d="M202.631 281.694L269.218 243.325C270.085 242.829 270.781 243.235 270.781 244.226V244.849C270.781 245.84 270.076 247.057 269.218 247.553L202.631 285.922C201.764 286.418 201.069 286.013 201.069 285.021V284.399C201.069 283.407 201.773 282.199 202.631 281.694Z" fill="#738D9A"/>
<path d="M202.631 294.623L269.218 256.254C270.085 255.758 270.781 256.163 270.781 257.155V257.777C270.781 258.769 270.076 259.986 269.218 260.482L202.631 298.851C201.764 299.347 201.069 298.941 201.069 297.95V297.328C201.069 296.327 201.773 295.119 202.631 294.623Z" fill="#738D9A"/>
<path d="M304.205 156.643H316.735C325.687 156.643 332.941 149.404 332.941 140.469C332.941 132.545 326.509 126.126 318.568 126.126C310.628 126.126 304.196 132.545 304.196 140.469V156.643H304.205Z" fill="#263238"/>
<path d="M329.716 131.769L333.194 129.903C332.697 128.912 331.523 128.515 330.565 129.038C329.599 129.552 329.219 130.778 329.716 131.769Z" fill="#263238"/>
<path d="M329.499 132.166L333.194 133.546C333.618 132.518 333.13 131.382 332.11 130.994C331.089 130.616 329.924 131.139 329.499 132.166Z" fill="#263238"/>
<path d="M317.114 168.57L299.652 167.813C298.107 165.694 298.152 160.096 299.706 158.302L319.029 158.825L317.114 168.57Z" fill="#E04E39"/>
<path d="M306.481 276.682C306.626 278.503 306.626 279.053 306.626 280.189C306.626 281.325 306.626 287.049 306.626 287.049H312.606V283.019C312.606 281.198 312.751 279.386 313.049 277.583L306.481 276.682Z" fill="#E9D3BA"/>
<path d="M306.617 284.101V283.244C306.445 284.543 302.733 289.429 300.357 291.593C298.469 293.315 295.894 295.298 295.244 297.209C294.566 299.202 298.288 299.986 300.727 299.742C303.582 299.454 305.813 297.741 306.87 296.533C308.424 294.757 308.794 293.585 309.517 292.602C310.239 291.629 313.492 289.627 313.88 288.491C314.097 287.869 313.844 286.508 313.537 285.354C313.257 284.299 312.959 283.136 312.597 283.235C312.597 283.362 312.597 283.885 312.597 283.885C312.164 284.362 310.962 284.84 309.607 284.894C308.731 284.939 306.608 284.768 306.617 284.101Z" fill="#263238"/>
<path d="M312.597 283.903C312.163 284.381 310.962 284.859 309.607 284.913C308.731 284.949 306.608 284.778 306.617 284.11V283.254C306.445 284.552 302.732 289.438 300.357 291.602C299.905 292.017 299.417 292.441 298.92 292.873C297.918 293.991 298.198 294.965 300.564 295.163C302.922 295.371 305 293.946 306.789 291.755C308.568 289.556 312.597 283.903 312.597 283.903Z" fill="#E9D3BA"/>
<path d="M324.747 286.788C324.865 288.231 324.865 289.745 324.892 290.385V297.246H330.872V293.216C330.872 291.395 331.017 289.583 331.315 287.78L324.747 286.788Z" fill="#E9D3BA"/>
<path d="M324.892 294.307V293.45C324.72 294.749 321.007 299.635 318.632 301.799C316.744 303.521 314.169 305.504 313.519 307.415C312.841 309.408 316.563 310.192 319.002 309.949C321.857 309.66 324.088 307.947 325.145 306.739C326.699 304.963 327.069 303.791 327.792 302.808C328.514 301.835 331.766 299.833 332.155 298.697C332.372 298.075 332.119 296.714 331.812 295.56C331.532 294.505 331.233 293.342 330.872 293.441C330.872 293.568 330.872 294.091 330.872 294.091C330.438 294.568 329.237 295.046 327.882 295.1C327.006 295.145 324.883 294.974 324.892 294.307Z" fill="#263238"/>
<path d="M330.872 294.108C330.438 294.586 329.237 295.064 327.882 295.118C327.006 295.154 324.883 294.983 324.892 294.315V293.459C324.72 294.757 321.007 299.644 318.632 301.807C318.18 302.222 317.692 302.646 317.195 303.078C316.192 304.196 316.472 305.17 318.839 305.368C321.197 305.576 323.275 304.151 325.063 301.96C326.843 299.761 330.872 294.108 330.872 294.108Z" fill="#E9D3BA"/>
<path d="M306.481 279.513C305.199 268.992 303.103 250.799 302.489 246.824C301.919 243.136 303.356 211.628 304.223 201.63L335.38 199.962C337.756 210.095 335.443 223.762 334.63 232.3C333.835 240.603 332.86 250.313 332.86 250.313C332.86 250.313 335.299 258.778 334.648 265.513C334.242 269.759 332.327 282.57 331.423 288.051C329.815 289.043 326.843 289.205 324.585 287.961C324.693 289.124 323.474 273.771 322.76 267.568C321.766 258.958 321.387 252.675 320.502 247.653C319.39 241.378 319.002 216.803 319.002 216.803L315.416 244.687C315.416 244.687 315.985 248.483 315.985 253.748C315.985 259.968 313.681 274.131 312.959 279.414C311.378 280.505 308.198 280.848 306.481 279.513Z" fill="#738D9A"/>
<path d="M319.002 216.811C319.002 216.811 313.311 214.819 310.068 211.844C310.068 211.844 312.272 215.648 316.744 217.668L316.789 233.994L319.002 216.811Z" fill="#37474F"/>
<path d="M323.537 158.96C323.537 158.96 332.001 159.934 333.013 160.384C327.855 166.019 333.347 170.689 333.347 170.689L329.427 187.944C332.814 192.272 334.747 195.598 335.551 200.755C331.929 207.129 311.549 208.021 304.088 203.261C304.738 194.363 306.183 187.989 305.705 185.312C302.145 174.385 303.256 172.095 303.591 169.598C304.241 164.721 309.092 160.474 311.865 158.689C311.865 158.689 313.943 158.689 314.449 158.689L323.537 158.96Z" fill="#F0F0F0"/>
<path d="M308.929 133.14C307.412 134.032 305.533 137.846 305.723 145.833C305.876 152.604 308.08 154.272 309.182 154.758C310.284 155.236 312.416 154.948 314.485 154.605V158.671C314.485 158.671 311.621 161.989 311.802 163.846C311.983 165.712 315.93 166.145 318.613 164.333C321.287 162.512 323.546 158.969 323.546 158.969L323.501 149.629C323.501 149.629 324.72 150.81 326.789 149.007C328.496 147.519 329.065 145.013 327.737 143.661C326.409 142.317 323.952 142.678 323.013 144.598C323.013 144.598 321.866 141.407 317.096 139.856C312.778 138.45 310.429 136.827 308.929 133.14Z" fill="#E9D3BA"/>
<path d="M313.753 144.139C313.726 144.625 314.088 145.04 314.557 145.058C315.027 145.076 315.434 144.707 315.452 144.22C315.479 143.733 315.117 143.318 314.648 143.3C314.178 143.273 313.78 143.652 313.753 144.139Z" fill="#263238"/>
<path d="M313.528 149.872L311.549 150.503C311.712 151.071 312.29 151.387 312.841 151.215C313.374 151.044 313.69 150.44 313.528 149.872Z" fill="#E04E39"/>
<path d="M306.761 141.524L308.487 140.334C308.171 139.838 307.529 139.712 307.05 140.037C306.572 140.361 306.445 141.028 306.761 141.524Z" fill="#263238"/>
<path d="M316.238 142.155L314.512 140.965C314.828 140.469 315.47 140.343 315.949 140.668C316.418 140.992 316.545 141.659 316.238 142.155Z" fill="#263238"/>
<path d="M307.159 143.517C307.132 144.003 307.493 144.418 307.963 144.436C308.433 144.454 308.83 144.085 308.857 143.598C308.884 143.111 308.523 142.696 308.053 142.678C307.583 142.651 307.177 143.03 307.159 143.517Z" fill="#263238"/>
<path d="M311.179 143.029L311.043 148.159L308.342 147.321L311.179 143.029Z" fill="#DDC5AA"/>
<path d="M314.485 154.605C316.662 154.317 321.152 153.037 321.857 151.261C321.857 151.261 321.622 152.37 320.285 153.524C318.948 154.669 314.485 155.958 314.485 155.958V154.605Z" fill="#DDC5AA"/>
<path d="M331.179 180.245L323.961 190.757L329.427 187.944L331.179 180.245Z" fill="#E0E0E0"/>
<path d="M327.837 162.684C325.841 164.74 310.899 180.165 310.899 180.165C310.899 180.165 294.268 178.524 288.622 176.919C286.843 176.415 285.406 173.98 285.009 171.934C284.62 169.887 283.03 169.671 283.03 169.671V173.764C282.886 174.801 282.38 175.342 280.898 175.369C275.189 175.495 272.542 173.764 271.847 176.856C271.404 178.831 272.262 181.085 276.038 182.112C281.332 183.555 284.25 182.834 287.475 183.636C289.959 184.249 307.286 187.54 310.7 188.288C312.507 188.685 313.871 188.558 315.831 186.62C317.792 184.691 332.489 170.996 332.489 170.996C336.979 166.516 335.669 161.864 333.158 160.484C331.577 159.619 329.824 160.629 327.837 162.684Z" fill="#E9D3BA"/>
<path d="M333.013 160.385C334.115 160.827 335.452 161.99 335.552 165.001C335.651 168.021 333.429 170.753 330.8 173.89C328.171 177.027 327.376 177.857 327.376 177.857C327.376 177.857 320.719 175.45 319.598 170.509C319.598 170.509 324.612 165.217 326.112 163.513C327.62 161.818 330.384 159.222 333.013 160.385Z" fill="#E04E39"/>
<path d="M298.364 46.4223L304.706 50.049C304.679 49.7686 304.651 49.4883 304.651 49.2169V47.399C304.651 44.1612 306.951 42.8407 309.78 44.4687C310.93 45.1289 311.979 46.169 312.837 47.381C313.302 43.302 316.524 41.7826 320.448 44.0255C324.682 46.4494 328.122 52.3463 328.122 57.194V59.9163C328.122 61.1735 327.885 62.2317 327.474 63.0728L332.74 66.0845C334.309 66.9799 335.587 69.1686 335.587 70.9684C335.587 72.7683 334.309 73.4918 332.74 72.5964L298.364 52.9251C296.794 52.0297 295.517 49.841 295.517 48.0412C295.526 46.2504 296.794 45.5269 298.364 46.4223Z" fill="white"/>
<path d="M271.594 64.615L276.356 67.3991C276.329 67.1877 276.32 66.9672 276.32 66.7651V65.3684C276.32 62.8876 278.043 61.8768 280.166 63.1173C281.028 63.6226 281.817 64.422 282.461 65.3501C282.806 62.226 285.228 61.0591 288.167 62.7773C291.342 64.6334 293.927 69.154 293.927 72.8753V74.9611C293.927 75.9259 293.755 76.7344 293.437 77.3776L297.392 79.6931C298.571 80.3822 299.524 82.0545 299.524 83.4328C299.524 84.811 298.571 85.3715 297.392 84.6824L271.603 69.6043C270.424 68.9151 269.471 67.2429 269.471 65.8554C269.462 64.4772 270.424 63.9259 271.594 64.615Z" fill="white"/>
</g>
<defs>
<clipPath id="clip0">
<rect width="423" height="407" rx="5" fill="white"/>
</clipPath>
</defs>
</svg>
