<svg width="159" height="368" viewBox="0 0 159 368" fill="none" xmlns="http://www.w3.org/2000/svg">
<g opacity="0.5">
<path d="M79.0249 367.888C55.2647 367.888 31.5044 367.741 7.75643 367.999C1.85631 368.06 -0.0243465 366.097 0.000237344 360.234C0.0862807 340.57 -0.110395 340.57 19.6058 340.557C36.8145 340.545 54.0109 340.398 71.2196 340.643C76.5911 340.717 78.9143 339.331 78.8774 333.479C78.6685 295.059 78.6685 256.627 78.8283 218.207C78.8528 212.638 77.0583 210.626 71.404 210.773C58.9154 211.105 46.4145 210.761 33.9259 210.994C28.7018 211.092 26.391 209.289 26.7966 203.867C27.1408 199.193 27.0302 194.458 26.8212 189.772C26.6368 185.467 28.0627 183.455 32.7336 183.48C55.2647 183.627 77.7958 183.676 100.315 183.467C106.215 183.418 106.239 186.755 106.227 190.987C106.165 237.589 106.178 284.191 106.19 330.793C106.19 340.557 106.239 340.557 115.753 340.557C127.836 340.557 139.919 340.68 152.002 340.459C156.845 340.374 159.279 341.833 158.959 347.059C158.677 351.745 158.689 356.468 158.972 361.154C159.279 366.257 157.103 367.999 152.137 367.962C133.097 367.815 114.045 367.913 95.0044 367.925C89.682 367.925 84.3596 367.925 79.0249 367.925C79.0249 367.913 79.0249 367.9 79.0249 367.888Z" fill="white"/>
<path d="M0.135959 66.1464C0.209711 29.5419 30.1282 -0.781976 66.7213 0.0153742C104.888 0.849525 132.016 28.0698 132.704 65.9992C133.368 102.726 102.884 133.026 66.2419 132.179C27.9034 131.284 1.53724 103.904 0.135959 66.1464ZM105.367 66.1341C105.92 46.1022 87.5315 27.7632 66.3771 27.2725C47.0665 26.8186 28.1124 45.3171 27.5961 65.1159C27.0675 85.3686 45.4071 104.517 65.6765 104.885C86.5727 105.266 104.777 87.4785 105.367 66.1341Z" fill="white"/>
</g>
</svg>
