<svg width="128" height="95" viewBox="0 0 128 95" fill="none" xmlns="http://www.w3.org/2000/svg">
<g clip-path="url(#clip0)">
<path d="M126.68 0.67C126.8 0.67 126.9 0.77 126.9 0.89L126.89 27.76C126.89 27.84 126.84 27.92 126.76 27.97L1 93.84C0.960001 93.86 0.930001 93.87 0.900001 93.87C0.830001 93.87 0.760001 93.83 0.720001 93.76C0.660001 93.67 0.690001 93.58 0.710001 93.54L34.77 0.82C34.8 0.74 34.89 0.68 34.98 0.68L126.68 0.67ZM126.68 0L34.98 0.01C34.61 0.01 34.28 0.24 34.15 0.58L0.0700009 93.31C-0.179999 93.94 0.310001 94.54 0.900001 94.54C1.03 94.54 1.17 94.51 1.31 94.44L127.08 28.56C127.38 28.41 127.58 28.1 127.58 27.76L127.59 0.89C127.57 0.4 127.17 0 126.68 0Z" fill="white"/>
<path d="M32.5099 23.7401L0.0898957 93.2701C-0.250104 93.9901 0.459896 94.7601 1.2099 94.4901L102.91 57.4701C103.26 57.3401 103.5 57.0001 103.5 56.6301V24.1201C103.5 23.6301 103.1 23.2301 102.61 23.2301H33.3199C32.9699 23.2201 32.6599 23.4201 32.5099 23.7401Z" fill="white"/>
<path d="M37.24 28.8499H35.64V25.0099H34.23V33.9599H35.64V30.1199H37.24V33.9599H38.67V25.0099H37.24V28.8499ZM96.58 25.0199H95.17V33.9699H96.58V25.0199ZM41 25.0199L39.57 33.9699H40.86L41.1 32.3499H42.83L43.07 33.9699H44.49L43.06 25.0199H41ZM41.28 31.1299L41.96 26.5999L42.64 31.1299H41.28ZM53.17 28.7099L52.66 30.6799V25.0099H51.4V33.9599H52.85L54.03 29.8499L54.61 27.6499V33.9599H55.88V25.0099H54.33L53.17 28.7099ZM75.51 31.7099L75.66 26.2999H76.89V33.9799H78.32V25.0299H74.34L74.11 31.7999C74.09 32.6299 73.88 32.7199 73.24 32.7199V33.9999H73.46C74.87 33.9799 75.46 33.3399 75.51 31.7099ZM94.37 31.7599V30.5999C94.37 29.1699 93.68 28.3899 92.27 28.3899H91.61V25.0299H90.2V33.9799H92.27C93.68 33.9699 94.37 33.1899 94.37 31.7599ZM91.61 29.6599H92.27C92.72 29.6599 92.96 29.8699 92.96 30.5099V31.8499C92.96 32.4899 92.72 32.6899 92.27 32.6899H91.61V29.6599ZM83.64 31.7599V30.5999C83.64 29.1699 82.95 28.3899 81.54 28.3899H80.87V25.0299H79.46V33.9799H81.53C82.95 33.9699 83.64 33.1899 83.64 31.7599ZM80.88 29.6599H81.55C82 29.6599 82.24 29.8699 82.24 30.5099V31.8499C82.24 32.4899 82 32.6899 81.55 32.6899H80.88V29.6599ZM86.05 30.1299H87.65V33.9699H89.08V25.0199H87.65V28.8599H86.05V25.0199H84.64V33.9699H86.05V30.1299ZM49.82 25.0199H48.39V32.6899H46.79V25.0199H45.38V33.9699H49.06V35.1699H50.43V32.7099H49.82V25.0199ZM71.09 33.9699H72.51L71.08 25.0199H69.02L67.59 33.9699H68.88L69.12 32.3499H70.85L71.09 33.9699ZM69.3 31.1299L69.98 26.5999L70.66 31.1299H69.3ZM101.55 26.2899V25.0099H97.71V33.9599H101.55V32.6799H99.12V30.0599H101.05V28.7799H99.12V26.2799H101.55V26.2899ZM59.05 24.9099C57.67 24.9099 56.91 25.7299 56.91 27.1599V31.8199C56.91 33.2499 57.66 34.0699 59.05 34.0699C60.43 34.0699 61.19 33.2499 61.19 31.8199V27.1599C61.18 25.7299 60.43 24.9099 59.05 24.9099ZM59.78 31.9099C59.78 32.5499 59.5 32.7899 59.05 32.7899C58.6 32.7899 58.32 32.5499 58.32 31.9099V27.0699C58.32 26.4299 58.6 26.1899 59.05 26.1899C59.5 26.1899 59.78 26.4299 59.78 27.0699V31.9099ZM63.64 30.1299H65.24V33.9699H66.67V25.0199H65.24V28.8599H63.64V25.0199H62.23V33.9699H63.64V30.1299V30.1299ZM83.38 37.0399V35.7599H79.54V44.7199H83.38V43.4399H80.95V40.8199H82.88V39.5399H80.95V37.0399H83.38ZM87.6 44.7199H89.05L87.09 39.7599L89.05 35.7699H87.64L85.8 39.6699V35.7699H84.39V44.7299H85.8V41.9799L86.23 41.1599L87.6 44.7199ZM92.65 44.7199V37.0399H94.12V35.7599H89.77V37.0399H91.24V44.7199H92.65ZM99.19 42.4999V41.3399C99.19 39.9099 98.5 39.1299 97.09 39.1299H96.42V35.7599H95.01V44.7199H97.08C98.49 44.7199 99.19 43.9399 99.19 42.4999ZM96.42 40.4099H97.09C97.54 40.4099 97.78 40.6199 97.78 41.2499V42.5899C97.78 43.2299 97.54 43.4299 97.09 43.4299H96.42V40.4099ZM73.36 39.1399V37.9699C73.36 36.5399 72.67 35.7599 71.26 35.7599H69.19V44.7199H70.6V41.3599H71.27C72.67 41.3499 73.36 40.5699 73.36 39.1399ZM70.6 37.0399H71.27C71.72 37.0399 71.96 37.2499 71.96 37.8799V39.2199C71.96 39.8599 71.72 40.0599 71.27 40.0599H70.6V37.0399ZM63.63 44.7199H65.04V37.0399H66.64V44.7199H68.07V35.7599H63.63V44.7199V44.7199ZM99.99 44.7199H101.4V35.7599H99.99V44.7199ZM76.35 35.6599C74.97 35.6599 74.21 36.4799 74.21 37.9099V42.5699C74.21 43.9999 74.96 44.8199 76.35 44.8199C77.73 44.8199 78.49 43.9999 78.49 42.5699V37.9099C78.49 36.4799 77.74 35.6599 76.35 35.6599ZM77.08 42.6599C77.08 43.2999 76.8 43.5399 76.35 43.5399C75.9 43.5399 75.62 43.2999 75.62 42.6599V37.8199C75.62 37.1799 75.9 36.9399 76.35 36.9399C76.8 36.9399 77.08 37.1799 77.08 37.8199V42.6599ZM98.7 50.1999L98.19 52.1699V46.4999H96.94V55.4599H98.39L99.57 51.3499L100.15 49.1499V55.4599H101.42V46.4999H99.87L98.7 50.1999ZM77.9 46.4099C76.52 46.4099 75.76 47.2299 75.76 48.6599V53.3199C75.76 54.7499 76.51 55.5699 77.9 55.5699C79.28 55.5699 80.04 54.7499 80.04 53.3199V48.6599C80.04 47.2299 79.28 46.4099 77.9 46.4099ZM78.63 53.3999C78.63 54.0399 78.35 54.2799 77.9 54.2799C77.45 54.2799 77.17 54.0399 77.17 53.3999V48.5599C77.17 47.9199 77.45 47.6799 77.9 47.6799C78.35 47.6799 78.63 47.9199 78.63 48.5599V53.3999ZM72.8 46.5099H70.73V55.4699H72.14V52.0999H72.81C74.22 52.0999 74.91 51.3199 74.91 49.8899V48.7199C74.9 47.2899 74.21 46.5099 72.8 46.5099ZM73.49 49.9799C73.49 50.6199 73.25 50.8199 72.8 50.8199H72.13V47.7899H72.8C73.25 47.7899 73.49 47.9899 73.49 48.6299V49.9799ZM83.11 46.4099C81.73 46.4099 81.01 47.2299 81.01 48.6599V53.3199C81.01 54.7499 81.73 55.5699 83.11 55.5699C84.49 55.5699 85.21 54.7499 85.21 53.3199V52.1299H83.88V53.4099C83.88 54.0499 83.6 54.2799 83.15 54.2799C82.7 54.2799 82.42 54.0499 82.42 53.4099V48.5699C82.42 47.9299 82.7 47.6899 83.15 47.6899C83.6 47.6899 83.88 47.9299 83.88 48.5699V49.5299H85.21V48.6599C85.21 47.2299 84.49 46.4099 83.11 46.4099ZM88.26 46.4099C86.88 46.4099 86.16 47.2299 86.16 48.6599V53.3199C86.16 54.7499 86.88 55.5699 88.26 55.5699C89.64 55.5699 90.36 54.7499 90.36 53.3199V52.1299H89.03V53.4099C89.03 54.0499 88.75 54.2799 88.3 54.2799C87.85 54.2799 87.57 54.0499 87.57 53.4099V48.5699C87.57 47.9299 87.85 47.6899 88.3 47.6899C88.75 47.6899 89.03 47.9299 89.03 48.5699V49.5299H90.36V48.6599C90.35 47.2299 89.64 46.4099 88.26 46.4099ZM93.12 50.1999L92.61 52.1699V46.4999H91.36V55.4599H92.81L93.99 51.3499L94.57 49.1499V55.4599H95.84V46.4999H94.29L93.12 50.1999Z" fill="#58595B"/>
<path d="M63.31 5.40015L64.69 9.08015L66.07 5.40015H67.15V10.2001H66.32V8.62015L66.4 6.50015L64.98 10.2001H64.38L62.96 6.50015L63.04 8.62015V10.2001H62.21V5.40015H63.31Z" fill="white"/>
<path d="M70.7999 9.08015H68.9399L68.5499 10.2001H67.6799L69.4999 5.40015H70.2499L72.0699 10.2001H71.1999L70.7999 9.08015ZM69.1799 8.41015H70.5699L69.8699 6.42015L69.1799 8.41015Z" fill="white"/>
<path d="M76.36 5.40015V10.2001H75.53V6.07015H74.06L73.98 7.93015C73.95 8.51015 73.88 8.96015 73.77 9.28015C73.66 9.60015 73.5 9.83015 73.3 9.98015C73.1 10.1301 72.82 10.2001 72.47 10.2001H72.26V9.54015L72.39 9.53015C72.58 9.51015 72.73 9.44015 72.83 9.33015C72.93 9.21015 73.01 9.04015 73.07 8.80015C73.12 8.56015 73.16 8.22015 73.18 7.76015L73.27 5.41015H76.36V5.40015Z" fill="white"/>
<path d="M81.1699 7.93008C81.1699 8.40008 81.0899 8.81008 80.9299 9.17008C80.7699 9.53008 80.5299 9.80008 80.2299 9.99008C79.9299 10.1801 79.5799 10.2801 79.1899 10.2801C78.7999 10.2801 78.4499 10.1801 78.1499 9.99008C77.8499 9.80008 77.6099 9.53008 77.4399 9.18008C77.2699 8.83008 77.1899 8.42008 77.1899 7.96008V7.68008C77.1899 7.21008 77.2699 6.80008 77.4399 6.44008C77.6099 6.08008 77.8399 5.81008 78.1399 5.62008C78.4399 5.43008 78.7899 5.33008 79.1799 5.33008C79.5699 5.33008 79.9199 5.42008 80.2199 5.61008C80.5199 5.80008 80.7599 6.07008 80.9199 6.42008C81.0899 6.77008 81.1699 7.18008 81.1699 7.65008V7.93008V7.93008ZM80.3399 7.67008C80.3399 7.14008 80.2399 6.73008 80.0399 6.45008C79.8399 6.17008 79.5499 6.02008 79.1799 6.02008C78.8199 6.02008 78.5399 6.16008 78.3299 6.44008C78.1299 6.72008 78.0199 7.12008 78.0199 7.64008V7.92008C78.0199 8.45008 78.1199 8.86008 78.3299 9.14008C78.5399 9.43008 78.8199 9.57008 79.1899 9.57008C79.5599 9.57008 79.8399 9.43008 80.0399 9.15008C80.2399 8.87008 80.3399 8.46008 80.3399 7.92008V7.67008Z" fill="white"/>
<path d="M84.78 8.06015H82.81V9.54015H85.12V10.2101H81.98V5.40015H85.1V6.07015H82.82V7.40015H84.79V8.06015H84.78Z" fill="white"/>
<path d="M90.3699 5.40015H91.1999V10.2001H90.3699V6.78015L88.2599 10.2001H87.4299V5.40015H88.2599V8.82015L90.3699 5.40015Z" fill="white"/>
<path d="M97.4899 8.64008C97.4399 9.15008 97.2499 9.55008 96.9199 9.84008C96.5899 10.1301 96.1499 10.2701 95.5999 10.2701C95.2199 10.2701 94.8799 10.1801 94.5899 10.0001C94.2999 9.82008 94.0699 9.56008 93.9199 9.23008C93.7599 8.90008 93.6799 8.51008 93.6699 8.07008V7.61008C93.6699 7.16008 93.7499 6.76008 93.9099 6.41008C94.0699 6.06008 94.2999 5.80008 94.5999 5.61008C94.8999 5.42008 95.2499 5.33008 95.6399 5.33008C96.1699 5.33008 96.5999 5.47008 96.9199 5.76008C97.2399 6.05008 97.4299 6.45008 97.4799 6.98008H96.6499C96.6099 6.63008 96.5099 6.39008 96.3499 6.23008C96.1999 6.08008 95.9599 6.00008 95.6499 6.00008C95.2899 6.00008 95.0099 6.13008 94.8099 6.40008C94.6199 6.67008 94.5199 7.05008 94.5099 7.57008V8.00008C94.5099 8.52008 94.5999 8.92008 94.7899 9.19008C94.9799 9.46008 95.2499 9.60008 95.6099 9.60008C95.9399 9.60008 96.1799 9.53008 96.3499 9.38008C96.5199 9.23008 96.6199 8.99008 96.6599 8.64008H97.4899V8.64008Z" fill="white"/>
<path d="M99.05 8.42015V10.2001H98.21V5.40015H100.05C100.59 5.40015 101.01 5.54015 101.33 5.82015C101.65 6.10015 101.8 6.47015 101.8 6.93015C101.8 7.40015 101.64 7.77015 101.34 8.03015C101.03 8.29015 100.6 8.42015 100.04 8.42015H99.05V8.42015ZM99.05 7.75015H100.05C100.35 7.75015 100.57 7.68015 100.73 7.54015C100.89 7.40015 100.96 7.20015 100.96 6.93015C100.96 6.67015 100.88 6.46015 100.72 6.31015C100.56 6.15015 100.34 6.08015 100.07 6.07015H99.04V7.75015H99.05Z" fill="white"/>
<path d="M105.31 8.06015H103.34V9.54015H105.65V10.2101H102.51V5.40015H105.63V6.07015H103.35V7.40015H105.32V8.06015H105.31Z" fill="white"/>
<path d="M110.71 11.3801H109.92V10.2001H106.76V11.3801H105.95L105.92 9.53014H106.31C106.5 9.34014 106.65 9.08014 106.77 8.72014C106.88 8.37014 106.96 7.97014 106.99 7.52014L107.12 5.39014H110.15V9.53014H110.76L110.71 11.3801ZM107.26 9.54014H109.32V6.07014H107.92L107.84 7.42014C107.77 8.33014 107.58 9.03014 107.26 9.54014Z" fill="white"/>
<path d="M115.17 10.2001H114.34V8.07015H112.19V10.2001H111.36V5.40015H112.19V7.40015H114.34V5.40015H115.17V10.2001Z" fill="white"/>
<path d="M118.94 8.06015H116.97V9.54015H119.28V10.2101H116.14V5.40015H119.26V6.07015H116.98V7.40015H118.95V8.06015H118.94Z" fill="white"/>
<path d="M122.73 8.06015H120.76V9.54015H123.07V10.2101H119.93V5.40015H123.05V6.07015H120.77V7.40015H122.74V8.06015H122.73Z" fill="white"/>
<path d="M41.73 18.31H40.9V14.18H38.79V18.31H37.96V13.51H41.74V18.31H41.73Z" fill="white"/>
<path d="M43.54 16.53V18.31H42.7V13.51H44.54C45.08 13.51 45.5 13.65 45.82 13.93C46.14 14.21 46.29 14.58 46.29 15.04C46.29 15.51 46.13 15.88 45.83 16.14C45.52 16.4 45.0899 16.53 44.5299 16.53H43.54ZM43.54 15.85H44.54C44.84 15.85 45.06 15.78 45.22 15.64C45.38 15.5 45.45 15.3 45.45 15.03C45.45 14.77 45.3699 14.56 45.2099 14.41C45.0499 14.26 44.83 14.18 44.56 14.17H43.5299V15.85H43.54Z" fill="white"/>
<path d="M49.8 16.16H47.83V17.64H50.14V18.31H47V13.51H50.12V14.18H47.84V15.51H49.81V16.16H49.8Z" fill="white"/>
<path d="M55.2099 19.49H54.4199V18.31H51.2599V19.49H50.4499L50.4199 17.64H50.8099C50.9999 17.45 51.1499 17.19 51.2699 16.83C51.3799 16.48 51.4599 16.08 51.4899 15.63L51.6199 13.5H54.6499V17.64H55.2599L55.2099 19.49ZM51.7499 17.64H53.8099V14.18H52.4099L52.3299 15.53C52.2699 16.43 52.0699 17.14 51.7499 17.64Z" fill="white"/>
<path d="M59.6499 18.31H58.8199V14.18H56.6999V18.31H55.8699V13.51H59.6499V18.31V18.31Z" fill="white"/>
<path d="M61.4599 16.53V18.31H60.6299V13.51H62.4699C63.0099 13.51 63.4299 13.65 63.7499 13.93C64.0699 14.21 64.2199 14.58 64.2199 15.04C64.2199 15.51 64.0599 15.88 63.7599 16.14C63.4499 16.4 63.0199 16.53 62.4599 16.53H61.4599ZM61.4599 15.85H62.4599C62.7599 15.85 62.9799 15.78 63.1399 15.64C63.2999 15.5 63.3699 15.3 63.3699 15.03C63.3699 14.77 63.2899 14.56 63.1299 14.41C62.9699 14.26 62.7499 14.18 62.4799 14.17H61.4499V15.85H61.4599Z" fill="white"/>
<path d="M67.8599 13.5H68.6899V18.3H67.8599V14.88L65.7499 18.3H64.9199V13.5H65.7499V16.92L67.8599 13.5Z" fill="white"/>
<path d="M73.4799 18.31H72.6499V16.18H70.4999V18.31H69.6699V13.51H70.4999V15.51H72.6499V13.51H73.4799V18.31Z" fill="white"/>
<path d="M77.3799 13.5H78.2099V18.3H77.3799V14.88L75.2699 18.3H74.4399V13.5H75.2699V16.92L77.3799 13.5Z" fill="white"/>
<path d="M80.2699 13.5L81.6599 17.18L83.0399 13.5H84.1199V18.3H83.2899V16.72L83.3699 14.6L81.9499 18.3H81.3499L79.9299 14.6L80.0099 16.71V18.29H79.1799V13.49H80.2699V13.5Z" fill="white"/>
<path d="M87.7699 17.19H85.8999L85.5099 18.31H84.6399L86.4599 13.51H87.2099L89.0299 18.31H88.1599L87.7699 17.19ZM86.1399 16.52H87.5299L86.8299 14.53L86.1399 16.52Z" fill="white"/>
<path d="M93.02 14.18H91.52V18.31H90.69V14.18H89.21V13.5H93.02V14.18Z" fill="white"/>
<path d="M96.4299 16.16H94.4599V17.64H96.7699V18.31H93.6299V13.51H96.7499V14.18H94.4699V15.51H96.4399V16.16H96.4299Z" fill="white"/>
<path d="M101.19 13.5V18.3H100.36V14.17H98.8898L98.8098 16.03C98.7798 16.61 98.7098 17.06 98.5998 17.38C98.4898 17.7 98.3298 17.93 98.1298 18.08C97.9198 18.23 97.6499 18.3 97.2999 18.3H97.0898V17.63L97.2198 17.62C97.4098 17.6 97.5599 17.53 97.6599 17.42C97.7599 17.3 97.8398 17.13 97.8998 16.89C97.9498 16.65 97.9898 16.31 98.0098 15.85L98.0998 13.5H101.19V13.5Z" fill="white"/>
<path d="M102.99 15.34H103.97C104.32 15.34 104.63 15.4 104.89 15.52C105.15 15.64 105.35 15.81 105.49 16.04C105.63 16.26 105.69 16.52 105.69 16.81C105.69 17.26 105.54 17.62 105.23 17.89C104.93 18.16 104.51 18.3 103.98 18.31H102.14V13.51H102.97V15.34H102.99ZM102.99 16.02V17.65H103.97C104.25 17.65 104.47 17.57 104.63 17.42C104.79 17.27 104.87 17.07 104.87 16.81C104.87 16.57 104.79 16.38 104.64 16.24C104.49 16.1 104.27 16.03 104 16.02H102.99Z" fill="white"/>
<path d="M110.05 16.7402C110 17.2502 109.81 17.6502 109.48 17.9402C109.15 18.2302 108.71 18.3702 108.16 18.3702C107.78 18.3702 107.44 18.2802 107.15 18.1002C106.86 17.9202 106.63 17.6602 106.48 17.3302C106.32 17.0002 106.24 16.6102 106.23 16.1702V15.7202C106.23 15.2702 106.31 14.8702 106.47 14.5202C106.63 14.1702 106.86 13.9102 107.16 13.7202C107.46 13.5302 107.81 13.4402 108.2 13.4402C108.73 13.4402 109.16 13.5802 109.48 13.8702C109.8 14.1602 109.99 14.5602 110.04 15.0902H109.21C109.17 14.7402 109.07 14.5002 108.91 14.3402C108.75 14.1902 108.51 14.1102 108.2 14.1102C107.84 14.1102 107.56 14.2402 107.36 14.5102C107.17 14.7802 107.07 15.1702 107.06 15.6802V16.1102C107.06 16.6302 107.15 17.0302 107.34 17.3002C107.53 17.5702 107.8 17.7102 108.16 17.7102C108.49 17.7102 108.73 17.6402 108.9 17.4902C109.07 17.3402 109.17 17.1002 109.21 16.7502H110.05V16.7402Z" fill="white"/>
<path d="M114.24 14.18H112.74V18.31H111.91V14.18H110.43V13.5H114.24V14.18Z" fill="white"/>
<path d="M114.84 18.31V13.51H116.49C117.03 13.51 117.45 13.62 117.73 13.84C118.01 14.06 118.16 14.38 118.16 14.81C118.16 15.03 118.1 15.23 117.98 15.4C117.86 15.58 117.69 15.71 117.46 15.81C117.72 15.88 117.92 16.01 118.06 16.21C118.2 16.4 118.27 16.64 118.27 16.91C118.27 17.36 118.12 17.71 117.84 17.95C117.55 18.19 117.14 18.31 116.6 18.31H114.84V18.31ZM115.68 15.53H116.5C116.76 15.53 116.96 15.47 117.11 15.35C117.26 15.23 117.33 15.07 117.33 14.85C117.33 14.61 117.26 14.44 117.13 14.34C117 14.23 116.78 14.18 116.5 14.18H115.69V15.53H115.68ZM115.68 16.14V17.64H116.61C116.87 17.64 117.08 17.58 117.22 17.45C117.37 17.32 117.44 17.14 117.44 16.91C117.44 16.41 117.18 16.16 116.67 16.14H115.68Z" fill="white"/>
<path d="M122.91 16.0302C122.91 16.5002 122.83 16.9102 122.67 17.2702C122.51 17.6302 122.27 17.9002 121.97 18.0902C121.67 18.2802 121.32 18.3702 120.93 18.3702C120.54 18.3702 120.19 18.2702 119.89 18.0902C119.59 17.9002 119.35 17.6302 119.18 17.2802C119.01 16.9302 118.93 16.5202 118.93 16.0602V15.7902C118.93 15.3202 119.01 14.9102 119.18 14.5502C119.35 14.1902 119.58 13.9202 119.88 13.7302C120.18 13.5402 120.53 13.4402 120.92 13.4402C121.31 13.4402 121.66 13.5302 121.96 13.7202C122.26 13.9102 122.5 14.1802 122.66 14.5302C122.83 14.8802 122.91 15.2902 122.91 15.7602V16.0302V16.0302ZM122.07 15.7802C122.07 15.2502 121.97 14.8402 121.77 14.5602C121.57 14.2802 121.28 14.1302 120.91 14.1302C120.55 14.1302 120.27 14.2702 120.06 14.5502C119.86 14.8302 119.75 15.2302 119.75 15.7502V16.0302C119.75 16.5602 119.85 16.9702 120.06 17.2502C120.27 17.5402 120.55 17.6802 120.92 17.6802C121.29 17.6802 121.57 17.5402 121.77 17.2602C121.97 16.9802 122.07 16.5702 122.07 16.0302V15.7802Z" fill="white"/>
</g>
<defs>
<clipPath id="clip0">
<rect width="127.57" height="94.54" fill="white"/>
</clipPath>
</defs>
</svg>
