<svg width="31" height="31" viewBox="0 0 31 31" fill="none" xmlns="http://www.w3.org/2000/svg">
<path d="M0.00668817 15.5063C-0.228171 7.89038 6.08202 -0.0374814 15.6802 0.000133328C23.9136 0.0311102 31.3671 6.89469 30.986 16.2054C30.6758 23.7638 24.5251 30.7115 16.181 30.9902C6.19945 31.3221 -0.237034 23.1221 0.00668817 15.5063ZM15.5717 28.698C22.9299 28.7002 28.7659 22.8854 28.7726 15.5394C28.7792 8.10058 22.972 2.3234 15.4698 2.30791C8.07389 2.29242 2.22899 8.1227 2.22678 15.5173C2.22013 22.9186 8.06946 28.6958 15.5717 28.698Z" fill="#C39367"/>
<path d="M14.351 10.3582C14.351 8.64339 14.3399 6.9286 14.3554 5.21603C14.3643 4.22477 14.4994 4.11856 15.5563 4.1252C16.56 4.13184 16.653 4.21149 16.6553 5.20939C16.6619 7.86455 16.6575 10.5175 16.6597 13.1726C16.6597 14.3896 16.6619 14.3918 17.916 14.3918C19.9101 14.394 21.9042 14.4206 23.896 14.3785C24.7291 14.3608 24.8532 14.7702 24.8355 15.4561C24.8177 16.1154 24.8421 16.6354 23.9005 16.6199C21.0489 16.5713 18.1974 16.5845 15.3458 16.6155C14.5725 16.6244 14.3222 16.3146 14.3332 15.5844C14.3598 13.8431 14.3421 12.0995 14.3421 10.3582C14.3421 10.3582 14.3465 10.3582 14.351 10.3582Z" fill="#C39367"/>
<path d="M9.31701 22.751C8.26014 22.751 8.1981 22.6935 8.19146 21.7199C8.18481 20.6402 8.28451 20.5406 9.36797 20.5428C10.4071 20.545 10.5135 20.6512 10.5068 21.6735C10.5024 22.6714 10.4138 22.751 9.31701 22.751Z" fill="#C39367"/>
<path d="M5.1849 16.6018C4.13689 16.6018 4.03719 16.5044 4.03719 15.491C4.0394 14.502 4.15462 14.3936 5.21148 14.4002C6.2617 14.4069 6.35698 14.4976 6.35255 15.511C6.35033 16.5155 6.25727 16.604 5.1849 16.6018Z" fill="#C39367"/>
<path d="M15.4878 26.8839C14.4508 26.8839 14.3467 26.7821 14.3489 25.7688C14.3511 24.7709 14.4508 24.6779 15.5166 24.6779C16.5535 24.6779 16.6576 24.7819 16.6554 25.7931C16.6532 26.791 16.5513 26.8861 15.4878 26.8839Z" fill="#C39367"/>
<path d="M9.44553 8.44638C8.29782 8.44859 8.18704 8.34239 8.19147 7.33564C8.1959 6.3311 8.28453 6.24702 9.36577 6.24702C10.4116 6.24702 10.4692 6.33553 10.4913 7.5569C10.5068 8.3977 10.0017 8.49949 9.44553 8.44638Z" fill="#C39367"/>
<path d="M20.6191 21.618C20.6213 20.6113 20.6855 20.5493 21.7047 20.5515C22.7306 20.5537 22.8236 20.6489 22.8192 21.6999C22.8148 22.6867 22.7483 22.7509 21.7114 22.7509C20.6523 22.7509 20.6146 22.7111 20.6191 21.618Z" fill="#C39367"/>
<path d="M21.6384 6.24712C22.7595 6.25376 22.8326 6.33562 22.8193 7.43088C22.8082 8.34248 22.6753 8.45975 21.6583 8.44647C20.6923 8.43541 20.659 8.33363 20.6036 7.23395C20.5593 6.31571 21.0158 6.14534 21.6384 6.24712Z" fill="#C39367"/>
</svg>
