<svg width="31" height="31" viewBox="0 0 31 31" fill="none" xmlns="http://www.w3.org/2000/svg">
<path d="M15.6381 28.6121C18.2015 28.7007 20.4858 27.8854 22.6039 26.5118C22.79 26.3922 22.9739 26.2659 23.1689 26.164C23.8513 25.8095 24.4695 25.9336 24.8328 26.5273C25.2228 27.161 25.0123 27.7193 24.4828 28.1402C23.5877 28.8491 22.5707 29.3631 21.5227 29.804C12.051 33.7829 1.20126 27.3914 0.0890281 17.1804C-0.814936 8.87254 5.2691 1.19162 13.6042 0.119348C21.8573 -0.944061 29.8024 5.22815 30.8659 13.4762C31.2182 16.2123 30.877 18.8287 29.8356 21.361C28.8918 23.6606 26.428 24.6642 24.1305 23.7204C23.2996 23.3792 22.7147 22.7833 22.3004 21.9924C21.844 21.1217 21.8373 21.1328 21.135 21.7664C15.6071 26.74 8.5371 22.7766 7.20996 17.5216C6.04455 12.9024 9.41669 8.02181 14.1182 7.09797C18.443 6.24725 23.9422 10.0334 24.0197 15.4502C24.0396 16.806 24.0175 18.1641 24.0485 19.5177C24.0662 20.251 24.2058 20.9688 24.886 21.4097C25.9473 22.0987 27.0506 21.7331 27.5957 20.4859C28.6237 18.1353 28.8763 15.6872 28.4044 13.1749C27.3652 7.62082 23.4459 3.67291 17.9379 2.60507C9.83766 1.03432 2.56607 7.02929 2.38439 15.2663C2.24037 21.7775 6.68708 27.542 13.6507 28.5013C14.3043 28.5899 14.9756 28.5788 15.6381 28.6121ZM15.4874 9.45741C11.9491 9.45963 9.39011 11.9874 9.38789 15.4878C9.38567 19.0901 11.8782 21.5736 15.5029 21.5781C19.0723 21.5825 21.6224 19.0414 21.6357 15.4657C21.649 11.9941 19.0501 9.4552 15.4874 9.45741Z" fill="#C39367"/>
</svg>
