<svg width="35" height="35" viewBox="0 0 35 35" fill="none" xmlns="http://www.w3.org/2000/svg">
<path d="M10.4004 0.00593898C13.7983 0.122176 16.5197 1.55576 18.5958 4.22921C19.6299 5.56206 20.2753 7.06539 20.563 8.7237C20.5863 8.87868 20.5863 9.06466 20.7963 9.10341C21.014 9.1499 21.2006 9.1964 21.4105 8.99492C22.8101 7.60783 24.4741 6.65468 26.4102 6.23623C27.5532 5.98826 28.1208 6.32922 28.4629 7.43735C28.9839 9.14215 28.9295 10.8702 28.5951 12.5983C28.5485 12.8462 28.5873 13.0322 28.7584 13.2104C29.4271 13.9156 29.9869 14.6983 30.469 15.5352C30.5623 15.6979 30.6556 15.8141 30.8733 15.8064C32.3585 15.7522 33.3537 16.5038 34.0846 17.7204C35.422 19.9367 35.2821 23.292 33.7425 25.2836C33.0349 26.198 32.1174 26.6939 30.9511 26.6397C30.5001 26.6164 30.2902 26.8179 30.0103 27.1356C29.4504 27.7788 29.3882 28.3135 29.8314 29.0961C30.4379 30.15 30.5234 31.3589 30.2124 32.56C29.7226 34.4663 28.0975 35.2954 26.2547 34.5825C25.1583 34.1641 24.2564 33.4821 23.6188 32.4903C23.4633 32.25 23.3155 32.2345 23.0667 32.312C20.3764 33.1489 17.6627 33.2032 14.9413 32.4748C14.6536 32.3973 14.5059 32.436 14.327 32.6917C13.5495 33.8154 12.5153 34.598 11.1702 34.908C9.57617 35.2799 8.24655 34.505 7.79557 32.932C7.38347 31.5294 7.60118 30.181 8.26988 28.9024C8.41761 28.6157 8.41761 28.4297 8.20767 28.174C6.7692 26.4304 5.91389 24.4234 5.61842 22.1917C5.51734 21.409 5.50179 20.6186 5.61842 19.8359C5.66508 19.5182 5.55622 19.371 5.29963 19.216C3.27799 18.0304 1.76954 16.3798 0.852024 14.2256C-0.415388 11.2577 -0.267652 8.32849 1.28745 5.52331C2.83478 2.72588 5.20632 0.943583 8.34764 0.222914C9.00856 0.0679319 9.6928 -0.0250575 10.4004 0.00593898ZM30.4224 24.4157C30.5234 24.4157 30.6245 24.4079 30.7256 24.4157C31.7598 24.5087 32.2807 24.0902 32.584 23.0131C32.7861 22.2769 32.8483 21.5097 32.7783 20.7426C32.7239 20.0917 32.6462 19.4485 32.3429 18.8518C32.0552 18.2939 31.6431 17.9529 30.9667 17.9994C30.679 18.0149 30.3913 17.9839 30.1036 17.9994C29.4815 18.0304 29.0772 17.7514 28.8362 17.1935C28.323 16.0466 27.5843 15.0547 26.659 14.2101C26.1614 13.7606 26.0681 13.2802 26.278 12.6603C26.7212 11.3274 26.8612 9.95581 26.7057 8.55322C26.6668 8.22776 26.5035 8.15801 26.2469 8.2665C24.8473 8.85543 23.5255 9.5761 22.6857 10.909C22.4291 11.3197 22.0637 11.5134 21.5816 11.4669C21.4105 11.4514 21.2239 11.4359 21.0606 11.3816C20.7341 11.2654 20.6252 11.3816 20.5785 11.7071C20.4153 12.8695 20.0343 13.9621 19.4822 15.0005C17.4295 18.8441 12.8341 21.471 8.15325 20.3396C7.83445 20.2621 7.75669 20.3939 7.74892 20.6728C7.73337 21.1998 7.78002 21.7267 7.85778 22.2459C8.14547 24.3149 9.10964 26.0507 10.587 27.5153C11.1857 28.1042 11.209 28.6389 10.6725 29.2976C10.1593 29.933 9.77833 30.6305 9.66947 31.4441C9.59949 31.9246 9.68503 32.3818 10.1205 32.6762C10.5637 32.9707 11.0069 32.87 11.4267 32.6142C11.5667 32.529 11.6911 32.4283 11.8077 32.312C12.2665 31.8703 12.6009 31.3511 12.8574 30.7699C13.2229 29.9253 13.7439 29.7083 14.5992 30.0338C15.5633 30.4057 16.5741 30.6305 17.6005 30.708C19.6455 30.8552 21.636 30.6227 23.5255 29.7703C23.9142 29.5921 24.2875 29.6541 24.6296 29.8865C24.8706 30.0493 24.9795 30.2973 25.0884 30.553C25.4227 31.3046 25.8504 31.9943 26.5735 32.4438C26.9389 32.6685 27.3433 32.777 27.7476 32.5445C28.1597 32.3043 28.3074 31.9246 28.2841 31.4596C28.2297 30.46 27.7709 29.6463 27.1255 28.9179C26.6201 28.3445 26.6201 27.8098 27.1255 27.2441C27.5998 26.7249 28.0897 26.198 28.3774 25.5625C28.7895 24.6714 29.396 24.2064 30.4224 24.4157ZM10.4004 2.22994C5.90612 2.16019 2.39935 5.53106 2.23607 9.97131C2.06501 14.737 5.57955 18.3171 10.136 18.4024C14.9335 18.4953 18.3314 15.0315 18.4714 10.5912C18.6269 5.72479 14.9102 2.19119 10.4004 2.22994Z" fill="#E04E39"/>
<path d="M22.4835 19.1385C22.0092 19.1385 21.5272 19.1463 21.0529 19.1385C20.4541 19.1308 20.0032 18.7123 19.941 18.1234C19.8865 17.6197 20.2442 17.1237 20.7807 16.9843C20.9362 16.9455 21.0995 16.93 21.2628 16.93C22.1181 16.9223 22.9656 16.9223 23.8209 16.93C24.5752 16.9378 25.0806 17.3872 25.0806 18.0304C25.0806 18.6968 24.5674 19.1463 23.7976 19.1463C23.3622 19.1385 22.919 19.1385 22.4835 19.1385Z" fill="#E04E39"/>
<path d="M15.7422 7.77831C15.7655 8.09602 15.61 8.35949 15.3767 8.58422C13.4173 10.5447 11.4578 12.4975 9.49064 14.4503C8.98523 14.954 8.36319 14.9695 7.85 14.4735C6.69922 13.3577 5.564 12.2186 4.44432 11.0794C3.96224 10.5835 3.97001 9.94806 4.42099 9.49861C4.87197 9.04916 5.52512 9.06466 6.03053 9.55286C6.83918 10.3433 7.64006 11.1337 8.42539 11.9396C8.612 12.1333 8.72086 12.1178 8.8997 11.9318C10.5248 10.2968 12.1576 8.66946 13.7983 7.04989C14.3426 6.50745 15.019 6.50745 15.4778 7.02664C15.6644 7.23587 15.7422 7.45284 15.7422 7.77831Z" fill="#E04E39"/>
</svg>
