<svg width="36" height="36" viewBox="0 0 36 36" fill="none" xmlns="http://www.w3.org/2000/svg">
<path d="M3.88182 29.0909C3.88182 28.4066 3.90059 27.7176 3.87712 27.0332C3.83958 25.8647 4.36988 24.9988 5.30378 24.3423C6.65535 23.3926 8.21341 22.9736 9.80901 22.671C11.1043 22.4289 12.4136 22.3032 13.7323 22.2846C14.0045 22.28 14.1359 22.2055 14.1312 21.9075C14.1171 21.158 14.1171 20.4085 14.1312 19.6589C14.1359 19.3563 14.0233 19.3004 13.7323 19.3377C10.9447 19.6589 8.16648 19.6263 5.41172 19.0444C4.1587 18.779 2.93384 18.4206 1.831 17.7502C1.41802 17.4988 1.03789 17.2101 0.709386 16.8517C0.113382 16.1999 -0.00863474 15.4178 0.0054441 14.5798C0.0195229 13.6394 0.0054441 12.6943 0.0054441 11.7539C0.0054441 11.1068 0.0195229 10.4643 0.0195229 9.81721C0.0195229 8.92801 0.010137 8.03415 0.01483 7.14495C0.0195229 6.46059 -0.00863474 5.77158 0.0570665 5.09653C0.132154 4.27251 0.624913 3.66264 1.26785 3.17847C2.38007 2.34048 3.66594 1.8889 5.01282 1.58164C7.73003 0.962456 10.4801 0.864691 13.2442 1.15333C15.0041 1.3349 16.7217 1.68406 18.3314 2.4429C19.1151 2.81534 19.8284 3.28555 20.3306 4.0118C20.462 4.20268 20.6169 4.17475 20.8093 4.15147C23.855 3.71851 26.8866 3.76041 29.8995 4.4308C31.1385 4.70547 32.3352 5.10119 33.4051 5.80417C34.4282 6.47456 35.0242 7.34048 34.9961 8.63005C34.9538 10.4736 35.0148 12.3219 35.0148 14.1654C35.0148 15.8833 34.9914 17.5965 34.982 19.3144C34.9773 20.3991 34.9444 21.4839 34.9914 22.5639C35.0383 23.6766 34.5361 24.4727 33.6914 25.1105C32.598 25.9345 31.3215 26.3442 30.0121 26.6608C28.4494 27.0425 26.8538 27.1868 25.2535 27.2427C24.8687 27.2567 24.7748 27.4243 24.7795 27.7734C24.7936 28.8861 24.756 29.9988 24.7936 31.1068C24.8358 32.401 24.2633 33.3321 23.2121 34.0304C21.9168 34.8917 20.4526 35.3014 18.9462 35.576C15.5813 36.1859 12.24 36.144 8.91735 35.4131C7.69249 35.1431 6.50987 34.7381 5.45395 34.0351C4.40273 33.3368 3.82081 32.401 3.87712 31.1068C3.90059 30.4364 3.87712 29.7613 3.88182 29.0909ZM24.8311 10.4178C25.3239 10.4457 26.0654 10.3945 26.8022 10.3247C28.3649 10.1757 29.9042 9.91497 31.3543 9.29113C31.7485 9.12354 32.1334 8.92801 32.4525 8.63005C32.673 8.42521 32.6965 8.21106 32.4572 8.00156C32.3492 7.90845 32.2366 7.81534 32.1193 7.7362C31.2229 7.14495 30.1999 6.86097 29.1674 6.64681C26.0935 6.00901 23.0056 6.01832 19.9364 6.65612C18.8429 6.88424 17.7542 7.18685 16.825 7.85259C16.3932 8.1645 16.3932 8.4159 16.8156 8.73713C17.4491 9.21665 18.1859 9.48201 18.9368 9.69616C20.7811 10.2362 22.6677 10.4178 24.8311 10.4178ZM13.9341 24.6217C12.4089 24.5937 10.6303 24.7846 8.8845 25.2595C8.14301 25.4643 7.4203 25.725 6.76329 26.1394C6.10627 26.549 6.10627 26.861 6.74921 27.28C7.24197 27.6058 7.78166 27.8293 8.34012 28.0062C9.62129 28.4159 10.94 28.6487 12.2822 28.7371C14.6991 28.9047 17.0972 28.8442 19.4577 28.253C20.3447 28.0295 21.2035 27.7315 21.9684 27.2148C22.5175 26.8423 22.5175 26.5723 21.9637 26.1952C21.5648 25.9206 21.1284 25.725 20.6732 25.5621C18.5801 24.8265 16.412 24.617 13.9341 24.6217ZM17.8386 4.79393C17.6885 4.70082 17.5899 4.61702 17.4773 4.57046C16.9751 4.35166 16.473 4.14216 15.9427 4.00249C14.502 3.61609 13.0378 3.42521 11.5501 3.35538C9.40072 3.25296 7.27951 3.4159 5.19584 3.93732C4.30888 4.15612 3.4266 4.42614 2.6945 4.99877C2.25337 5.33862 2.26275 5.54346 2.6945 5.87866C3.29051 6.33955 3.98976 6.5956 4.70308 6.80976C6.04057 7.21478 7.4203 7.41497 8.81411 7.49877C10.588 7.60584 12.3526 7.54998 14.1124 7.26134C14.2673 7.23806 14.4128 7.20082 14.502 7.04253C14.9525 6.28834 15.6376 5.80882 16.412 5.43639C16.8625 5.21758 17.3271 5.02205 17.8386 4.79393ZM24.5871 15.2315C26.2109 15.2688 27.8158 15.1198 29.3974 14.752C30.35 14.5286 31.2839 14.2446 32.124 13.7185C32.4759 13.4997 32.7012 13.2204 32.659 12.7641C32.6261 12.3684 32.6402 11.9634 32.6543 11.563C32.6637 11.3023 32.598 11.2464 32.3445 11.3582C31.1525 11.8982 29.8901 12.2101 28.5996 12.4196C26.6004 12.7455 24.5871 12.8479 22.5644 12.6617C20.5981 12.4801 18.6646 12.145 16.839 11.3535C16.5434 11.2232 16.4777 11.3209 16.4871 11.6049C16.5012 11.9774 16.5199 12.3591 16.4824 12.7269C16.4308 13.2111 16.6654 13.509 17.0455 13.7418C17.604 14.0863 18.2094 14.3191 18.8382 14.5053C20.7154 15.0639 22.6348 15.2734 24.5871 15.2315ZM24.6903 20.1105C26.1311 20.0639 27.6657 19.9708 29.1674 19.6356C30.1623 19.4168 31.1338 19.1375 32.0207 18.6114C32.4431 18.36 32.7153 18.0528 32.6637 17.5174C32.6261 17.1589 32.6449 16.7958 32.659 16.4327C32.6683 16.1347 32.5651 16.1068 32.3117 16.2185C31.772 16.4513 31.2276 16.6561 30.6598 16.8098C29.2003 17.2055 27.7126 17.4243 26.1968 17.522C24.3712 17.6431 22.555 17.5546 20.7483 17.2846C19.4014 17.0844 18.0968 16.7446 16.8484 16.1952C16.5481 16.0649 16.4824 16.1813 16.4871 16.4559C16.4965 16.8703 16.5058 17.2846 16.4824 17.6943C16.4636 18.0435 16.6091 18.2809 16.8954 18.4718C17.4726 18.8582 18.1108 19.1142 18.7725 19.3191C20.6685 19.9057 22.6254 20.0686 24.6903 20.1105ZM22.4096 30.7436C22.4096 30.5109 22.4002 30.2781 22.4096 30.0453C22.4236 29.7613 22.3392 29.6682 22.0482 29.7939C19.9129 30.725 17.6462 31.0556 15.3467 31.1347C12.3291 31.2418 9.35849 30.9625 6.53803 29.78C6.2893 29.6729 6.24237 29.78 6.24237 29.9941C6.24706 30.3945 6.26583 30.7949 6.23768 31.1952C6.20952 31.6235 6.39724 31.9029 6.74921 32.1217C7.45315 32.5593 8.22279 32.8386 9.02059 33.0435C11.705 33.7232 14.4269 33.8116 17.1629 33.4997C18.5895 33.3368 19.9927 33.0528 21.3067 32.4429C22.0435 32.1031 22.663 31.7073 22.4096 30.7436ZM25.1409 24.9243C26.2437 24.9103 27.4357 24.8125 28.6136 24.5844C29.8807 24.3423 31.1338 24.0444 32.2319 23.3088C32.5135 23.1179 32.673 22.8898 32.6543 22.5407C32.6355 22.1031 32.6449 21.6608 32.6496 21.2232C32.6543 20.9857 32.5839 20.9252 32.3492 21.0276C30.3453 21.9122 28.2147 22.2753 26.0466 22.3684C22.8789 22.5081 19.744 22.3079 16.778 21.0323C16.5809 20.9485 16.4824 20.9764 16.4871 21.2092C16.4918 21.4559 16.5058 21.7027 16.4824 21.9448C16.4495 22.2893 16.6232 22.4057 16.9329 22.4243C17.8574 22.4801 18.7678 22.6431 19.6689 22.8526C21.0439 23.1738 22.4002 23.5882 23.4983 24.5099C23.8738 24.8219 24.2304 24.9615 24.6903 24.9196C24.8077 24.915 24.925 24.9243 25.1409 24.9243ZM14.1265 15.7017C14.1265 15.455 14.1265 15.2083 14.1265 14.9662C14.1218 14.4215 14.1218 14.4215 13.5868 14.496C13.5493 14.5006 13.5117 14.5099 13.4695 14.5146C11.6533 14.7613 9.83247 14.78 8.01161 14.6031C6.16259 14.4215 4.34642 14.0909 2.63819 13.3228C2.39885 13.2157 2.33784 13.3181 2.33784 13.5416C2.34253 13.928 2.366 14.3191 2.33315 14.7055C2.28622 15.1757 2.51148 15.4643 2.87753 15.6924C3.36559 15.995 3.8912 16.2232 4.44028 16.3908C7.49539 17.3358 10.6115 17.3963 13.7605 16.996C14.0092 16.9634 14.1359 16.8563 14.1218 16.5956C14.1171 16.2977 14.1265 15.9997 14.1265 15.7017ZM10.3956 12.3638C11.5313 12.3824 12.6623 12.3265 13.7839 12.145C14.0139 12.1077 14.1312 12.0332 14.1265 11.7772C14.1124 11.158 14.1171 10.5342 14.1265 9.91497C14.1312 9.6822 14.0655 9.5984 13.8074 9.63099C12.193 9.84048 10.574 9.9429 8.93612 9.83117C6.76329 9.6822 4.63738 9.36562 2.6288 8.48108C2.37538 8.36935 2.33784 8.4578 2.34253 8.68126C2.35192 9.08164 2.37538 9.48666 2.33784 9.88238C2.2956 10.334 2.51148 10.6179 2.86345 10.8414C3.37498 11.158 3.92405 11.3908 4.49659 11.5723C6.41601 12.1775 8.39174 12.3917 10.3956 12.3638Z" fill="#E04E39"/>
</svg>
