<svg width="36" height="31" viewBox="0 0 36 31" fill="none" xmlns="http://www.w3.org/2000/svg">
<path d="M17.564 0.0217528C22.3351 0.0217528 27.0988 0.0360254 31.8698 0.0146166C33.8032 0.00748029 35.0309 0.442793 35.0089 3.00472C34.9354 9.27751 34.9868 15.5574 34.9868 21.8302C34.9868 23.5858 34.2002 24.3636 32.355 24.3779C29.8114 24.3922 27.2605 24.385 24.7169 24.385C23.9744 24.385 23.8789 24.4992 23.9303 25.2057C23.9524 25.534 24.1067 25.6553 24.4229 25.6553C24.7831 25.6481 25.1506 25.6481 25.5109 25.6624C26.4371 25.7052 26.8268 26.0977 26.8415 26.9898C26.8562 27.8318 26.8488 28.6739 26.8415 29.5231C26.8268 30.6221 26.4445 30.9932 25.2903 30.9932C21.3132 31.0003 17.3288 30.9932 13.3517 30.9932C12.1975 30.9932 11.0507 31.0003 9.89649 30.9861C8.882 30.9718 8.51443 30.615 8.49973 29.623C8.48503 28.7239 8.48503 27.8176 8.49973 26.9184C8.51443 26.0478 8.91141 25.6838 9.81563 25.6553C10.0362 25.6481 10.2641 25.6339 10.4846 25.6553C11.058 25.7052 11.2197 25.4483 11.1903 24.9202C11.1683 24.4492 10.9257 24.385 10.5287 24.385C8.18362 24.3921 5.83852 24.385 3.50078 24.385C2.91267 24.385 2.33191 24.3993 1.75115 24.278C0.832222 24.0853 0.244111 23.5215 0.13384 22.6009C-0.0793508 20.8454 0.0529743 19.0756 0.0456229 17.313C0.0235687 12.4888 0.0382715 7.66471 0.0456229 2.84058C0.0456229 2.4695 0.0823799 2.09841 0.148542 1.72732C0.29557 0.799608 0.883682 0.235841 1.86877 0.121661C3.69927 -0.0852913 5.54447 0.0431617 7.37497 0.0288891C10.7713 0.00748029 14.1677 0.0217528 17.564 0.0217528ZM17.4243 22.2655C22.2542 22.2655 27.0767 22.2655 31.9066 22.2655C32.7446 22.2655 32.7593 22.2584 32.7593 21.452C32.7593 15.2577 32.7593 9.05628 32.7593 2.86199C32.7593 2.077 32.7299 2.04846 31.8919 2.04846C22.2983 2.04846 12.7047 2.04846 3.11116 2.04846C2.26574 2.04846 2.22164 2.08414 2.22164 2.91195C2.22164 9.10624 2.22164 15.3077 2.22164 21.502C2.22164 22.2299 2.26575 22.2727 3.00824 22.2727C7.81605 22.2655 12.6165 22.2655 17.4243 22.2655ZM17.6228 28.9451C19.7621 28.9451 21.9013 28.938 24.0479 28.9522C24.5184 28.9522 24.6287 28.7381 24.6287 28.3314C24.6287 27.9317 24.5258 27.6891 24.0479 27.7105C23.6877 27.7248 23.3201 27.7177 22.9599 27.7034C22.166 27.6677 21.7469 27.2609 21.7102 26.4759C21.6881 26.0264 21.6734 25.5696 21.7102 25.1272C21.7543 24.5563 21.5044 24.3779 20.9309 24.385C18.8505 24.4064 16.7701 24.3922 14.6896 24.3922C13.2046 24.3922 13.3737 24.2637 13.3737 25.6981C13.3737 27.475 13.1605 27.7034 11.3374 27.7034C10.8522 27.7034 10.5875 27.7962 10.5949 28.3456C10.6022 28.8809 10.8742 28.9522 11.3227 28.9451C13.4252 28.938 15.5277 28.9451 17.6228 28.9451Z" fill="#E04E39"/>
<path d="M31.6919 12.1959C31.6919 13.9229 31.6919 15.6427 31.6919 17.3697C31.6919 18.1832 31.5082 18.3617 30.7289 18.3831C29.832 18.4045 29.6262 18.2332 29.5821 17.4268C29.413 13.9586 29.5159 10.4903 29.4865 7.02211C29.4792 6.22284 29.7659 6.01589 30.6995 6.03016C31.5155 6.04444 31.6919 6.21571 31.6919 7.01497C31.6993 8.74195 31.6919 10.4689 31.6919 12.1959Z" fill="#E04E39"/>
<path d="M3.38904 12.1317C3.38904 9.22721 5.48419 6.74379 8.4174 6.15861C9.11578 6.01589 9.35103 6.19429 9.38043 6.88651C9.42454 7.82137 9.28486 8.00691 8.33653 8.32091C6.05025 9.07735 4.89608 11.5751 5.82971 13.7302C6.10906 14.3653 5.30041 15.4501 4.57262 15.4072C4.26386 15.3858 4.14624 15.1361 4.02862 14.9148C3.55078 14.0299 3.38169 13.2878 3.38904 12.1317Z" fill="#E04E39"/>
<path d="M16.4305 12.253C16.482 13.145 16.2467 14.0585 15.7689 14.9291C15.4822 15.4572 15.2249 15.5143 14.7103 15.1646C13.7619 14.5295 13.7399 14.4652 14.0927 13.3805C14.8058 11.1897 13.5929 8.96317 11.3139 8.26381C10.5126 8.02118 10.1377 7.11487 10.5273 6.38697C10.7111 6.04443 11.0199 6.10152 11.3213 6.15148C14.2471 6.67956 16.4378 9.25576 16.4305 12.253Z" fill="#E04E39"/>
<path d="M25.7006 13.459C25.7006 12.1674 25.7006 10.8757 25.7006 9.58403C25.7006 8.83472 25.877 8.64204 26.5754 8.60636C27.509 8.55641 27.8399 8.74195 27.8619 9.50553C27.9134 11.4252 27.906 13.3448 27.906 15.2574C27.906 16.0424 27.9648 16.8274 27.8546 17.6052C27.759 18.2403 27.4796 18.4187 26.6342 18.3759C25.9138 18.3402 25.708 18.1618 25.708 17.5053C25.6932 16.1637 25.7006 14.8078 25.7006 13.459Z" fill="#E04E39"/>
<path d="M21.8263 14.2155C21.8263 13.1593 21.8189 12.1031 21.8263 11.047C21.8337 10.4118 22.0615 10.1977 22.6864 10.1549C23.5612 10.0978 23.8847 10.2762 23.9803 10.9256C24.0244 11.1968 24.0244 11.468 24.0244 11.7463C24.0244 13.6089 24.0317 15.4643 24.017 17.3269C24.017 17.6908 24.0538 18.1262 23.6053 18.2832C23.0981 18.4687 22.5688 18.4544 22.0836 18.1832C21.7969 18.0262 21.8189 17.7194 21.8116 17.4482C21.8263 16.3635 21.8337 15.2859 21.8263 14.2155Z" fill="#E04E39"/>
<path d="M9.96124 18.3688C8.59388 18.3046 7.27063 18.012 6.11646 17.2056C5.80035 16.9844 5.28575 16.8202 5.49159 16.2779C5.63862 15.8782 6.61636 15.3858 7.00598 15.4857C7.29269 15.5642 7.57204 15.6856 7.84404 15.8211C9.32902 16.5419 10.7846 16.5205 12.2255 15.6856C12.9974 15.236 13.8354 15.4715 14.2618 16.2279C14.4897 16.6275 14.203 16.8488 13.9236 17.0557C12.7621 17.9192 11.4315 18.3117 9.96124 18.3688Z" fill="#E04E39"/>
<path d="M20.1576 15.2716C20.1576 16.0138 20.1723 16.756 20.1503 17.4982C20.1356 18.169 19.893 18.3688 19.1578 18.3759C18.2977 18.3902 17.9963 18.2118 17.989 17.5481C17.9669 16.0424 17.9669 14.5366 17.9963 13.0309C18.011 12.3315 18.2683 12.203 19.2975 12.2459C19.9665 12.2744 20.1576 12.4528 20.165 13.1022C20.1723 13.823 20.165 14.5509 20.165 15.2716C20.165 15.2716 20.165 15.2716 20.1576 15.2716Z" fill="#E04E39"/>
<path d="M9.38786 10.0907C9.38786 10.1478 9.40991 10.2192 9.38786 10.2691C8.85121 11.3752 8.69683 12.7097 7.41769 13.3877C6.98395 13.6232 6.69725 13.5375 6.51346 13.0879C5.92535 11.6892 7.10157 9.46271 8.62331 9.1059C9.17467 8.97031 9.38051 9.23435 9.38786 10.0907Z" fill="#E04E39"/>
<path d="M10.4391 9.94798C10.4612 9.66253 10.3362 9.30572 10.7038 9.12731C11.0787 8.9489 11.3948 9.14158 11.7109 9.33426C13.0121 10.1621 13.6517 11.5037 13.3576 12.831C13.1885 13.616 12.8945 13.7231 12.2034 13.2949C11.8138 13.0523 11.5418 12.7454 11.3654 12.3315C11.1448 11.8106 10.939 11.2753 10.5861 10.8186C10.3876 10.5546 10.4391 10.2548 10.4391 9.94798Z" fill="#E04E39"/>
<path d="M9.98323 15.4715C9.31426 15.4857 8.7335 15.3573 8.19685 15.0647C7.79252 14.8435 7.719 14.558 8.07922 14.2226C9.35837 13.0523 10.439 13.2235 11.6888 14.1441C12.1298 14.4724 12.0637 14.8435 11.5564 15.1004C11.0492 15.3501 10.5125 15.4929 9.98323 15.4715Z" fill="#E04E39"/>
<path d="M18.7315 26.3686C18.7241 26.9966 18.2463 27.4604 17.6288 27.4461C17.0186 27.4319 16.4893 26.9323 16.4967 26.3686C16.4967 25.7905 17.0039 25.3195 17.6361 25.3124C18.2831 25.2981 18.7388 25.7406 18.7315 26.3686Z" fill="#E04E39"/>
</svg>
