<svg width="40" height="37" viewBox="0 0 40 37" fill="none" xmlns="http://www.w3.org/2000/svg">
<path d="M30.1871 35.9847C27.6175 35.9847 25.0413 35.9847 22.4717 35.9847C22.3641 35.9847 22.2565 35.9847 22.1421 35.9847C21.8462 35.9913 21.6107 35.8868 21.4695 35.6255C21.3148 35.3447 21.382 35.0965 21.5636 34.8483C22.2632 33.9077 22.9493 32.9541 23.6623 32.0136C23.8843 31.7262 23.9987 31.4388 23.9919 31.0665C23.9717 30.0737 23.9852 29.081 23.9852 28.0947C23.9852 27.7224 23.965 27.3305 24.3686 27.115C24.7453 26.9125 25.0682 27.1019 25.391 27.2848C29.7027 29.7014 34.0212 32.1181 38.3329 34.5282C38.4405 34.587 38.5414 34.6458 38.649 34.7111C38.9854 34.907 39.0526 35.2075 38.9652 35.5406C38.8777 35.8606 38.6221 35.9847 38.2791 35.9782C36.6849 35.9717 35.0907 35.9782 33.5032 35.9782C32.3934 35.9847 31.2902 35.9847 30.1871 35.9847ZM32.8575 34.6588C32.8642 34.6458 32.8642 34.6327 32.8709 34.6197C30.3283 33.9534 27.7857 33.3003 25.2431 32.6276C24.9942 32.5622 24.8933 32.6798 24.7789 32.8366C24.4224 33.3199 24.0659 33.8032 23.7161 34.2931C23.6489 34.3845 23.5009 34.4825 23.5547 34.5935C23.622 34.7372 23.7969 34.6654 23.9247 34.6654C26.8978 34.6588 29.8776 34.6588 32.8575 34.6588ZM33.0391 33.2285C33.0055 33.1697 33.0055 33.1501 32.992 33.1501C30.557 31.7785 28.1153 30.4134 25.6803 29.0418C25.4381 28.9046 25.4045 29.0222 25.4045 29.2246C25.4045 29.7798 25.4179 30.335 25.3978 30.8902C25.391 31.1514 25.4987 31.269 25.7475 31.3343C28.1691 31.9548 30.5839 32.5884 33.0391 33.2285Z" fill="#E04E39"/>
<path d="M11.2452 19.2576C11.0703 19.1008 10.8886 18.931 10.7003 18.7547C10.3034 18.3758 10.3034 18.3758 10.7003 17.9905C16.3439 12.5106 21.9874 7.03065 27.6243 1.55726C28.0413 1.15231 28.0413 1.15231 28.4382 1.55073C29.0166 2.11897 29.0166 2.11897 28.4382 2.68068C22.8417 8.11488 17.2519 13.5425 11.6555 18.9702C11.5478 19.0747 11.4604 19.2184 11.2452 19.2576Z" fill="#E04E39"/>
<path d="M1.00065 29.9823C1.05446 28.3102 1.59931 26.8276 2.83699 25.6258C4.80114 23.7186 6.77201 21.8179 8.7227 19.8977C9.01194 19.6103 9.17338 19.643 9.43572 19.9107C10.0411 20.5378 10.0546 20.5247 9.43572 21.1256C7.59937 22.9087 5.7563 24.6918 3.91996 26.488C2.92444 27.4546 2.31905 28.6042 2.37286 29.9954C2.46703 32.3075 4.14194 34.378 6.69802 34.6001C7.61955 34.6784 7.6061 34.685 7.59937 35.5928C7.59937 35.8737 7.51865 35.9847 7.20923 35.9978C4.28319 36.0827 1.42442 33.6922 1.07464 30.8641C1.04101 30.5636 0.993922 30.2762 1.00065 29.9823Z" fill="#E04E39"/>
<path d="M29.1781 15.7828C29.1781 17.7749 27.4292 19.4731 25.3776 19.4731C23.3664 19.4731 21.5569 17.7488 21.5435 15.822C21.53 13.8365 23.3798 12.0468 25.4179 12.0599C27.409 12.073 29.1781 13.8299 29.1781 15.7828ZM25.3507 13.438C23.9986 13.438 22.9695 14.4374 22.9628 15.7437C22.956 17.1349 23.9785 18.1864 25.3843 18.1342C26.9381 18.0754 27.7588 17.2002 27.7924 15.7698C27.826 14.4047 26.77 13.438 25.3507 13.438Z" fill="#E04E39"/>
<path d="M13.9559 1.00208C15.9537 0.989021 17.743 2.68721 17.7833 4.65972C17.8237 6.57998 15.9537 8.41532 13.9492 8.41532C12.0187 8.41532 10.2093 6.67795 10.142 4.84913C10.0613 2.7264 12.0187 0.930237 13.9559 1.00208ZM16.3708 4.69891C16.3775 3.34036 15.3618 2.34757 13.9559 2.33451C12.5972 2.32144 11.5209 3.32076 11.5411 4.65972C11.5613 6.12277 12.5232 7.00452 13.9358 7.03065C15.3483 7.06331 16.364 6.07052 16.3708 4.69891Z" fill="#E04E39"/>
<path d="M16.0815 35.9782C15.6981 35.9782 15.3214 35.9651 14.938 35.9847C14.2586 36.0174 13.6398 35.8541 13.0949 35.4557C12.873 35.2924 12.6981 35.2924 12.4828 35.4622C11.6622 36.0892 10.6936 35.9978 9.74514 35.9717C9.73168 35.9717 9.71823 35.9717 9.70478 35.9651C9.281 35.6843 9.5837 35.2663 9.50971 34.9201C9.46262 34.7176 9.57697 34.6001 9.80567 34.5935C10.2429 34.5935 10.6801 34.587 11.1106 34.5805C11.225 34.5805 11.346 34.5739 11.3931 34.4694C11.4469 34.3388 11.3057 34.2931 11.2317 34.2278C10.2496 33.3395 10.1622 31.9091 11.0299 30.949C11.8169 30.0803 13.4044 30.0019 14.373 30.7857C15.4021 31.6217 15.4089 33.2415 14.3864 34.2147C14.3057 34.2931 14.1308 34.3388 14.2048 34.4825C14.2586 34.6001 14.4133 34.5935 14.5344 34.5935C15.5434 34.5935 16.5524 34.6066 17.5546 34.5935C17.9044 34.587 18.0726 34.6719 18.0591 35.0573C18.0255 36.1154 18.1869 35.9717 17.0972 35.9847C16.7676 35.9847 16.4246 35.9782 16.0815 35.9782ZM13.7541 32.4839C13.7541 31.994 13.2967 31.5368 12.8057 31.5303C12.3147 31.5237 11.8438 31.9744 11.8371 32.4577C11.8304 32.9215 12.3618 33.5354 12.7788 33.5485C13.1891 33.5681 13.7541 32.9411 13.7541 32.4839Z" fill="#E04E39"/>
<path d="M30.1871 35.9847C27.6175 35.9847 25.0413 35.9847 22.4717 35.9847C22.3641 35.9847 22.2565 35.9847 22.1421 35.9847C21.8462 35.9913 21.6107 35.8868 21.4695 35.6255C21.3148 35.3447 21.382 35.0965 21.5636 34.8483C22.2632 33.9077 22.9493 32.9541 23.6623 32.0136C23.8843 31.7262 23.9987 31.4388 23.9919 31.0665C23.9717 30.0737 23.9852 29.081 23.9852 28.0947C23.9852 27.7224 23.965 27.3305 24.3686 27.115C24.7453 26.9125 25.0682 27.1019 25.391 27.2848C29.7027 29.7014 34.0212 32.1181 38.3329 34.5282C38.4405 34.587 38.5414 34.6458 38.649 34.7111C38.9854 34.907 39.0526 35.2075 38.9652 35.5406C38.8777 35.8606 38.6221 35.9847 38.2791 35.9782C36.6849 35.9717 35.0907 35.9782 33.5032 35.9782C32.3934 35.9847 31.2902 35.9847 30.1871 35.9847ZM32.8575 34.6588C32.8642 34.6458 32.8642 34.6327 32.8709 34.6197C30.3283 33.9534 27.7857 33.3003 25.2431 32.6276C24.9942 32.5622 24.8933 32.6798 24.7789 32.8366C24.4224 33.3199 24.0659 33.8032 23.7161 34.2931C23.6489 34.3845 23.5009 34.4825 23.5547 34.5935C23.622 34.7372 23.7969 34.6654 23.9247 34.6654C26.8978 34.6588 29.8776 34.6588 32.8575 34.6588ZM33.0391 33.2285C33.0055 33.1697 33.0055 33.1501 32.992 33.1501C30.557 31.7785 28.1153 30.4134 25.6803 29.0418C25.4381 28.9046 25.4045 29.0222 25.4045 29.2246C25.4045 29.7798 25.4179 30.335 25.3978 30.8902C25.391 31.1514 25.4987 31.269 25.7475 31.3343C28.1691 31.9548 30.5839 32.5884 33.0391 33.2285Z" stroke="#E04E39"/>
<path d="M11.2452 19.2576C11.0703 19.1008 10.8886 18.931 10.7003 18.7547C10.3034 18.3758 10.3034 18.3758 10.7003 17.9905C16.3439 12.5106 21.9874 7.03065 27.6243 1.55726C28.0413 1.15231 28.0413 1.15231 28.4382 1.55073C29.0166 2.11897 29.0166 2.11897 28.4382 2.68068C22.8417 8.11488 17.2519 13.5425 11.6555 18.9702C11.5478 19.0747 11.4604 19.2184 11.2452 19.2576Z" stroke="#E04E39"/>
<path d="M1.00065 29.9823C1.05446 28.3102 1.59931 26.8276 2.83699 25.6258C4.80114 23.7186 6.77201 21.8179 8.7227 19.8977C9.01194 19.6103 9.17338 19.643 9.43572 19.9107C10.0411 20.5378 10.0546 20.5247 9.43572 21.1256C7.59937 22.9087 5.7563 24.6918 3.91996 26.488C2.92444 27.4546 2.31905 28.6042 2.37286 29.9954C2.46703 32.3075 4.14194 34.378 6.69802 34.6001C7.61955 34.6784 7.6061 34.685 7.59937 35.5928C7.59937 35.8737 7.51865 35.9847 7.20923 35.9978C4.28319 36.0827 1.42442 33.6922 1.07464 30.8641C1.04101 30.5636 0.993922 30.2762 1.00065 29.9823Z" stroke="#E04E39"/>
<path d="M29.1781 15.7828C29.1781 17.7749 27.4292 19.4731 25.3776 19.4731C23.3664 19.4731 21.5569 17.7488 21.5435 15.822C21.53 13.8365 23.3798 12.0468 25.4179 12.0599C27.409 12.073 29.1781 13.8299 29.1781 15.7828ZM25.3507 13.438C23.9986 13.438 22.9695 14.4374 22.9628 15.7437C22.956 17.1349 23.9785 18.1864 25.3843 18.1342C26.9381 18.0754 27.7588 17.2002 27.7924 15.7698C27.826 14.4047 26.77 13.438 25.3507 13.438Z" stroke="#E04E39"/>
<path d="M13.9559 1.00208C15.9537 0.989021 17.743 2.68721 17.7833 4.65972C17.8237 6.57998 15.9537 8.41532 13.9492 8.41532C12.0187 8.41532 10.2093 6.67795 10.142 4.84913C10.0613 2.7264 12.0187 0.930237 13.9559 1.00208ZM16.3708 4.69891C16.3775 3.34036 15.3618 2.34757 13.9559 2.33451C12.5972 2.32144 11.5209 3.32076 11.5411 4.65972C11.5613 6.12277 12.5232 7.00452 13.9358 7.03065C15.3483 7.06331 16.364 6.07052 16.3708 4.69891Z" stroke="#E04E39"/>
<path d="M16.0815 35.9782C15.6981 35.9782 15.3214 35.9651 14.938 35.9847C14.2586 36.0174 13.6398 35.8541 13.0949 35.4557C12.873 35.2924 12.6981 35.2924 12.4828 35.4622C11.6622 36.0892 10.6936 35.9978 9.74514 35.9717C9.73168 35.9717 9.71823 35.9717 9.70478 35.9651C9.281 35.6843 9.5837 35.2663 9.50971 34.9201C9.46262 34.7176 9.57697 34.6001 9.80567 34.5935C10.2429 34.5935 10.6801 34.587 11.1106 34.5805C11.225 34.5805 11.346 34.5739 11.3931 34.4694C11.4469 34.3388 11.3057 34.2931 11.2317 34.2278C10.2496 33.3395 10.1622 31.9091 11.0299 30.949C11.8169 30.0803 13.4044 30.0019 14.373 30.7857C15.4021 31.6217 15.4089 33.2415 14.3864 34.2147C14.3057 34.2931 14.1308 34.3388 14.2048 34.4825C14.2586 34.6001 14.4133 34.5935 14.5344 34.5935C15.5434 34.5935 16.5524 34.6066 17.5546 34.5935C17.9044 34.587 18.0726 34.6719 18.0591 35.0573C18.0255 36.1154 18.1869 35.9717 17.0972 35.9847C16.7676 35.9847 16.4246 35.9782 16.0815 35.9782ZM13.7541 32.4839C13.7541 31.994 13.2967 31.5368 12.8057 31.5303C12.3147 31.5237 11.8438 31.9744 11.8371 32.4577C11.8304 32.9215 12.3618 33.5354 12.7788 33.5485C13.1891 33.5681 13.7541 32.9411 13.7541 32.4839Z" stroke="#E04E39"/>
</svg>
