<svg width="32" height="38" viewBox="0 0 32 38" fill="none" xmlns="http://www.w3.org/2000/svg">
<path d="M22.0235 1C24.3002 3.28641 26.577 5.57282 28.8538 7.85923C29.4811 8.48832 30.1052 9.12379 30.7389 9.74648C30.9204 9.92211 31 10.1105 31 10.366C30.9968 18.6782 30.9968 26.9936 30.9968 35.3057C30.9968 36.1552 30.6465 36.7076 29.9715 36.928C29.5289 37.0716 29.4333 37.0014 29.4333 36.5352C29.4333 31.477 29.4333 26.4188 29.4333 21.3606C29.4333 18.2471 29.4333 15.1304 29.4333 12.0169C29.4333 11.5443 29.4301 11.5443 28.9684 11.5443C26.3891 11.5443 23.8067 11.5475 21.2274 11.5475C20.3517 11.5475 20.4663 11.5986 20.4663 10.8003C20.46 8.21369 20.4663 5.62392 20.4663 3.03733C20.4663 2.55514 20.4663 2.55195 19.9791 2.55195C14.3175 2.55195 8.65259 2.55514 2.99091 2.54556C2.64382 2.54556 2.56103 2.6701 2.56103 2.99582C2.56739 13.6615 2.56739 24.3303 2.56103 34.996C2.56103 35.3313 2.65974 35.4367 2.99727 35.4335C8.54432 35.4239 14.0882 35.4271 19.6352 35.4303C20.651 35.4303 20.4982 35.3377 20.5014 36.2797C20.5045 37.0716 20.6001 36.9982 19.7945 36.9982C14.1073 36.9982 8.42332 36.9982 2.73616 36.9982C1.54842 36.9982 1.00709 36.4585 1.00709 35.2578C1.0039 26.0196 1.00709 16.7813 1.00709 7.5431C1.00709 5.97518 1.01983 4.40407 1.00072 2.83615C0.984798 1.99312 1.22999 1.33849 2.05472 1C8.70991 1 15.3651 1 22.0235 1ZM28.6627 9.92211C26.4401 7.71553 24.2365 5.52173 22.0426 3.3375C22.0426 3.33112 22.0266 3.36624 22.0266 3.39818C22.0235 5.48341 22.0266 7.56545 22.0203 9.65068C22.0203 9.96363 22.189 9.97959 22.4247 9.97959C24.4085 9.97321 26.3923 9.9764 28.3793 9.97321C28.4653 9.97001 28.564 10.0019 28.6627 9.92211Z" fill="#E04E39"/>
<path d="M21.969 32.4956C19.3961 32.4956 17.4537 30.5445 17.4537 27.9579C17.4537 25.4257 19.4152 23.4618 21.9436 23.4618C24.5229 23.4618 26.4876 25.4033 26.5035 27.9643C26.5194 30.5062 24.5292 32.4988 21.969 32.4956ZM21.985 25.0329C20.2814 25.0457 19.0077 26.3485 19.0236 28.0569C19.0395 29.6632 20.3833 30.9437 22.0359 30.9277C23.6344 30.9118 24.9559 29.5642 24.9432 27.9707C24.9273 26.3485 23.5899 25.0201 21.985 25.0329Z" fill="#E04E39"/>
<path d="M16.0363 18.9688C18.8607 18.9688 21.6852 18.9688 24.5065 18.9688C24.9778 18.9688 24.9778 18.972 24.981 19.4286C24.981 19.6522 24.965 19.8757 24.9841 20.096C25.016 20.4345 24.8854 20.5463 24.5479 20.5431C23.2519 20.5271 21.9591 20.5399 20.6631 20.5399C16.3006 20.5399 11.9349 20.5367 7.57241 20.5367C7.00242 20.5367 7.00242 20.5335 7.00561 19.9843C7.01197 18.9784 7.01197 18.972 8.01821 18.972C10.693 18.9656 13.3646 18.9688 16.0363 18.9688Z" fill="#E04E39"/>
<path d="M12.2792 9.97323C13.8777 9.97323 15.4762 9.97323 17.0747 9.97323C17.5174 9.97323 17.5333 9.98919 17.5396 10.4203C17.5428 10.631 17.546 10.8418 17.5428 11.0526C17.5365 11.5124 17.511 11.5443 17.0365 11.5443C15.6131 11.5475 14.1898 11.5443 12.7664 11.5443C11.0055 11.5443 9.24137 11.5411 7.48045 11.5411C7.02191 11.5411 7.01236 11.5316 7.01236 11.0685C7.01236 10.8354 7.0251 10.5991 7.00599 10.366C6.98052 10.0499 7.11744 9.96684 7.41358 9.96684C9.03439 9.97961 10.6552 9.97323 12.2792 9.97323Z" fill="#E04E39"/>
<path d="M20.4788 14.4726C21.8417 14.4726 23.2078 14.479 24.5706 14.4662C24.8923 14.463 25.0164 14.5684 24.9878 14.8877C24.9687 15.1304 24.9655 15.3795 24.9878 15.6222C25.0196 15.9606 24.8604 16.0405 24.5579 16.0405C23.3447 16.0309 22.1346 16.0405 20.9214 16.0405C19.428 16.0405 17.9377 16.0405 16.4443 16.0373C15.9858 16.0373 15.9826 16.0245 15.9762 15.5615C15.9635 14.4662 15.9635 14.4662 17.0493 14.4726C18.1925 14.4726 19.3356 14.4726 20.4788 14.4726Z" fill="#E04E39"/>
<path d="M10.0405 14.4694C10.9161 14.4694 11.7886 14.4758 12.6643 14.4662C12.9477 14.463 13.0719 14.562 13.056 14.8526C13.0432 15.0729 13.0592 15.2964 13.056 15.52C13.0528 16.0149 13.0273 16.0437 12.5465 16.0437C11.0531 16.0469 9.55963 16.0437 8.06619 16.0437C7.80826 16.0437 7.55352 16.0405 7.29559 16.0405C7.09498 16.0405 6.99945 15.9511 7.00264 15.7403C7.01219 15.4242 7.01537 15.108 7.00264 14.7919C6.99308 14.5396 7.1109 14.4726 7.34335 14.4726C8.24451 14.4758 9.14248 14.4726 10.0405 14.4694C10.0405 14.4726 10.0405 14.4726 10.0405 14.4694Z" fill="#E04E39"/>
<path d="M10.034 25.0329C9.15836 25.0329 8.28586 25.0265 7.41018 25.0361C7.11085 25.0393 6.9803 24.9403 7.00259 24.6305C7.02169 24.3527 7.01532 24.0685 7.00577 23.7875C6.99622 23.5416 7.10767 23.4618 7.34012 23.4618C9.13607 23.4682 10.932 23.4682 12.728 23.4618C12.9763 23.4618 13.0591 23.5735 13.0559 23.8003C13.0528 24.0813 13.0432 24.3623 13.0559 24.6433C13.0687 24.9339 12.9381 25.0361 12.6579 25.0329C11.7854 25.0265 10.9097 25.0297 10.034 25.0329Z" fill="#E04E39"/>
<path d="M24.9428 36.9918C24.5448 36.9918 24.1499 36.9854 23.7519 36.995C23.5099 37.0014 23.4143 36.896 23.4175 36.6629C23.4239 36.3595 23.4207 36.0529 23.4175 35.7496C23.4143 35.5324 23.5194 35.4271 23.736 35.4271C24.5543 35.4302 25.3695 35.4302 26.1879 35.4271C26.4076 35.4271 26.5063 35.5324 26.5031 35.7496C26.4999 36.0657 26.4999 36.3819 26.4999 36.698C26.4999 36.9024 26.4076 36.995 26.2006 36.9918C25.7835 36.9886 25.3631 36.9918 24.9428 36.9918Z" fill="#E04E39"/>
<path d="M10.0405 14.4694C10.9161 14.4694 11.7886 14.4758 12.6643 14.4662C12.9477 14.463 13.0719 14.562 13.056 14.8526C13.0432 15.0729 13.0592 15.2964 13.056 15.52C13.0528 16.0149 13.0273 16.0437 12.5465 16.0437C11.0531 16.0469 9.55963 16.0437 8.06619 16.0437C7.80826 16.0437 7.55352 16.0405 7.29559 16.0405C7.09498 16.0405 6.99945 15.9511 7.00264 15.7403C7.01219 15.4242 7.01537 15.108 7.00264 14.7919C6.99308 14.5396 7.1109 14.4726 7.34335 14.4726C8.24451 14.4758 9.14248 14.4726 10.0405 14.4694ZM10.0405 14.4694C10.0405 14.4726 10.0405 14.4726 10.0405 14.4694ZM22.0235 1C24.3002 3.28641 26.577 5.57282 28.8538 7.85923C29.4811 8.48832 30.1052 9.12378 30.7389 9.74648C30.9204 9.92211 31 10.1105 31 10.366C30.9968 18.6782 30.9968 26.9936 30.9968 35.3057C30.9968 36.1552 30.6465 36.7076 29.9715 36.928C29.5289 37.0716 29.4333 37.0014 29.4333 36.5352C29.4333 31.477 29.4333 26.4188 29.4333 21.3606C29.4333 18.2471 29.4333 15.1304 29.4333 12.0169C29.4333 11.5443 29.4301 11.5443 28.9684 11.5443C26.3891 11.5443 23.8067 11.5475 21.2274 11.5475C20.3517 11.5475 20.4663 11.5986 20.4663 10.8003C20.46 8.21369 20.4663 5.62392 20.4663 3.03733C20.4663 2.55514 20.4663 2.55195 19.9791 2.55195C14.3175 2.55195 8.65259 2.55514 2.99091 2.54556C2.64382 2.54556 2.56103 2.6701 2.56103 2.99582C2.56739 13.6615 2.56739 24.3303 2.56103 34.996C2.56103 35.3313 2.65974 35.4367 2.99727 35.4335C8.54432 35.4239 14.0882 35.4271 19.6352 35.4303C20.651 35.4303 20.4982 35.3377 20.5014 36.2797C20.5045 37.0716 20.6001 36.9982 19.7945 36.9982C14.1073 36.9982 8.42332 36.9982 2.73616 36.9982C1.54842 36.9982 1.00709 36.4585 1.00709 35.2578C1.0039 26.0196 1.00709 16.7813 1.00709 7.5431C1.00709 5.97518 1.01983 4.40407 1.00072 2.83615C0.984798 1.99312 1.22999 1.33849 2.05472 1C8.70991 1 15.3651 1 22.0235 1ZM28.6627 9.92211C26.4401 7.71553 24.2365 5.52173 22.0426 3.3375C22.0426 3.33112 22.0266 3.36624 22.0266 3.39818C22.0235 5.48341 22.0266 7.56545 22.0203 9.65068C22.0203 9.96363 22.189 9.97959 22.4247 9.97959C24.4085 9.97321 26.3923 9.9764 28.3793 9.97321C28.4653 9.97001 28.564 10.0019 28.6627 9.92211ZM21.969 32.4956C19.3961 32.4956 17.4537 30.5445 17.4537 27.9579C17.4537 25.4257 19.4152 23.4618 21.9436 23.4618C24.5229 23.4618 26.4876 25.4033 26.5035 27.9643C26.5194 30.5062 24.5292 32.4988 21.969 32.4956ZM21.985 25.0329C20.2814 25.0456 19.0077 26.3485 19.0236 28.0569C19.0395 29.6632 20.3833 30.9437 22.0359 30.9277C23.6344 30.9118 24.9559 29.5642 24.9432 27.9707C24.9273 26.3485 23.5899 25.0201 21.985 25.0329ZM16.0363 18.9688C18.8607 18.9688 21.6852 18.9688 24.5065 18.9688C24.9778 18.9688 24.9778 18.972 24.981 19.4286C24.981 19.6522 24.965 19.8757 24.9841 20.096C25.016 20.4345 24.8854 20.5463 24.5479 20.5431C23.2519 20.5271 21.9591 20.5399 20.6631 20.5399C16.3006 20.5399 11.9349 20.5367 7.57241 20.5367C7.00242 20.5367 7.00242 20.5335 7.00561 19.9843C7.01197 18.9784 7.01197 18.972 8.01821 18.972C10.693 18.9656 13.3646 18.9688 16.0363 18.9688ZM12.2792 9.97323C13.8777 9.97323 15.4762 9.97323 17.0747 9.97323C17.5174 9.97323 17.5333 9.98919 17.5396 10.4203C17.5428 10.631 17.546 10.8418 17.5428 11.0526C17.5365 11.5124 17.511 11.5443 17.0365 11.5443C15.6131 11.5475 14.1898 11.5443 12.7664 11.5443C11.0055 11.5443 9.24137 11.5411 7.48045 11.5411C7.02191 11.5411 7.01236 11.5316 7.01236 11.0685C7.01236 10.8354 7.0251 10.5991 7.00599 10.366C6.98052 10.0499 7.11744 9.96684 7.41358 9.96684C9.03439 9.97961 10.6552 9.97323 12.2792 9.97323ZM20.4788 14.4726C21.8417 14.4726 23.2078 14.479 24.5706 14.4662C24.8923 14.463 25.0164 14.5684 24.9878 14.8877C24.9687 15.1304 24.9655 15.3795 24.9878 15.6222C25.0196 15.9606 24.8604 16.0405 24.5579 16.0405C23.3447 16.0309 22.1346 16.0405 20.9214 16.0405C19.428 16.0405 17.9377 16.0405 16.4443 16.0373C15.9858 16.0373 15.9826 16.0245 15.9762 15.5615C15.9635 14.4662 15.9635 14.4662 17.0493 14.4726C18.1925 14.4726 19.3357 14.4726 20.4788 14.4726ZM10.034 25.0329C9.15836 25.0329 8.28586 25.0265 7.41018 25.0361C7.11085 25.0393 6.9803 24.9403 7.00259 24.6305C7.02169 24.3527 7.01532 24.0685 7.00577 23.7875C6.99622 23.5416 7.10767 23.4618 7.34012 23.4618C9.13607 23.4682 10.932 23.4682 12.728 23.4618C12.9763 23.4618 13.0591 23.5735 13.0559 23.8003C13.0528 24.0813 13.0432 24.3623 13.0559 24.6433C13.0687 24.9339 12.9381 25.0361 12.6579 25.0329C11.7854 25.0265 10.9097 25.0297 10.034 25.0329ZM24.9428 36.9918C24.5448 36.9918 24.1499 36.9854 23.7519 36.995C23.5099 37.0014 23.4143 36.896 23.4175 36.6629C23.4239 36.3595 23.4207 36.0529 23.4175 35.7496C23.4143 35.5324 23.5194 35.4271 23.736 35.4271C24.5543 35.4302 25.3695 35.4302 26.1879 35.4271C26.4076 35.4271 26.5063 35.5324 26.5031 35.7496C26.4999 36.0657 26.4999 36.3819 26.4999 36.698C26.4999 36.9024 26.4076 36.995 26.2006 36.9918C25.7835 36.9886 25.3631 36.9918 24.9428 36.9918Z" stroke="#E04E39" stroke-width="0.5"/>
</svg>
