<svg width="47" height="34" viewBox="0 0 47 34" fill="none" xmlns="http://www.w3.org/2000/svg">
<path d="M0.999037 12.6665C1.364 11.6672 2.1057 11.308 3.15938 11.308C13.2871 11.3225 23.4178 11.3167 33.5455 11.3196C34.7699 11.3196 35.5027 12.0292 35.5027 13.2458C35.5086 19.5343 35.5057 25.8198 35.4998 32.1083C35.4998 33.2988 34.7551 33.9882 33.4954 33.9882C25.325 33.9911 17.1575 33.9911 8.98701 33.9911C7.04152 33.9911 5.09604 33.9621 3.15349 33.9998C2.09098 34.02 1.36694 33.629 0.996094 32.6413C0.999037 25.982 0.999037 19.3228 0.999037 12.6665ZM18.2847 13.2863C15.5151 13.2863 12.7485 13.2863 9.97888 13.2863C7.82443 13.2863 5.66997 13.295 3.51551 13.2834C3.10346 13.2805 2.93569 13.4196 2.9769 13.8193C2.99456 13.9786 2.9769 14.1437 2.9769 14.3059C2.9769 20.0064 2.97984 25.704 2.97984 31.4044C2.97984 32.0127 2.98279 32.0185 3.60675 32.0185C6.24096 32.0185 8.87517 32.0156 11.5064 32.0156C18.6732 32.0156 25.843 32.0127 33.0098 32.0214C33.3806 32.0214 33.5043 31.8997 33.5043 31.5348C33.4954 25.6576 33.5013 19.7834 33.4984 13.9062C33.4984 13.2892 33.4895 13.2892 32.8303 13.2892C27.9827 13.2863 23.1323 13.2863 18.2847 13.2863Z" fill="#E04E39"/>
<path d="M24.0324 5.66239C29.0772 5.66239 34.119 5.66239 39.1637 5.66239C40.5647 5.66239 41.2534 6.34019 41.2534 7.72765C41.2534 13.9292 41.2534 20.1279 41.2504 26.3295C41.2504 27.6358 40.55 28.3252 39.2343 28.331C38.7399 28.3339 38.2454 28.3223 37.7539 28.3339C37.4654 28.3397 37.3448 28.218 37.3506 27.9399C37.3595 27.5431 37.3595 27.1434 37.3506 26.7466C37.3448 26.454 37.5008 26.3584 37.7686 26.3642C38.0982 26.3671 38.4279 26.3439 38.7546 26.3642C39.1254 26.3874 39.2549 26.2455 39.252 25.8805C39.2402 24.2613 39.249 22.6392 39.249 21.02C39.249 16.7939 39.249 12.5649 39.2461 8.33882C39.2461 7.63206 39.2402 7.63206 38.5309 7.63206C28.9094 7.63206 19.285 7.62916 9.66352 7.63496C8.62455 7.63496 8.73345 7.53937 8.72462 8.56476C8.71579 9.61332 8.78643 9.49745 7.78867 9.49745C6.56133 9.50035 6.74087 9.62201 6.72321 8.47786C6.72027 8.18241 6.72027 7.88985 6.72321 7.5944C6.73498 6.38363 7.45019 5.66528 8.67753 5.66239C11.3265 5.65659 13.9754 5.65949 16.6243 5.65659C19.0937 5.65949 21.5631 5.65949 24.0324 5.66239C24.0324 5.65949 24.0324 5.65949 24.0324 5.66239Z" fill="#E04E39"/>
<path d="M46.9958 11.3397C46.9958 14.4304 46.9958 17.521 46.9958 20.6146C46.9958 22.002 46.3129 22.6711 44.9031 22.6769C44.4557 22.6769 44.0054 22.6653 43.558 22.6798C43.2431 22.6914 43.0812 22.59 43.093 22.254C43.1077 21.8717 43.1048 21.4893 43.096 21.107C43.0901 20.8231 43.2166 20.7044 43.4992 20.7073C43.8288 20.7131 44.1585 20.6841 44.4852 20.7073C44.8825 20.7362 45.0002 20.574 44.9973 20.1946C44.9855 17.9584 44.9943 15.7194 44.9943 13.4832C44.9943 9.87696 44.9944 6.27073 44.9914 2.66449C44.9914 1.978 44.9855 1.978 44.3027 1.97511C43.096 1.97221 43.096 1.97221 43.093 0.781719C43.093 0.677442 43.1018 0.576062 43.093 0.471785C43.0665 0.138679 43.2019 -0.0119431 43.558 -0.000356788C44.0819 0.0199192 44.6058 0.00253979 45.1297 0.00543636C46.2335 0.0170227 46.984 0.74696 46.9928 1.84187C47.0046 3.40312 46.9958 4.96148 46.9958 6.52273C46.9987 8.13033 46.9958 9.73503 46.9958 11.3397Z" fill="#E04E39"/>
<path d="M22.7578 0.00249194C25.5392 0.00249194 28.3206 0.00249194 31.1049 0.00249194C31.6876 0.00249194 31.7112 0.0198714 31.7082 0.59629C31.6994 2.1952 31.9231 1.96927 30.3131 1.97216C25.2861 1.97796 20.2619 1.97506 15.2378 1.97506C14.4755 1.97506 14.4755 1.98085 14.4696 2.72238C14.4608 3.83466 14.4608 3.83466 13.3188 3.84045C12.4712 3.84335 12.4712 3.84335 12.4712 3.00624C12.4712 2.62389 12.4653 2.24154 12.4741 1.8592C12.4947 0.738222 13.2246 0.0111817 14.3725 0.00828509C17.1686 -0.000404631 19.9676 0.00538852 22.7637 0.00538852C22.7578 0.00538852 22.7578 0.00538852 22.7578 0.00249194Z" fill="#E04E39"/>
<path d="M37.3977 1.97217C36.8915 1.97217 36.3823 1.96638 35.8761 1.97507C35.5729 1.98086 35.4434 1.85631 35.4552 1.55217C35.4699 1.16982 35.4699 0.78747 35.4552 0.408019C35.4434 0.0951884 35.5935 0.00249803 35.8878 0.00539461C36.9033 0.0140843 37.9187 0.0140843 38.9341 0.00539461C39.2402 0.00249803 39.3668 0.124154 39.3579 0.422501C39.3462 0.804849 39.3462 1.1872 39.3579 1.56955C39.3697 1.88238 39.2137 1.98376 38.9194 1.98086C38.4132 1.96927 37.904 1.97507 37.3977 1.97217Z" fill="#E04E39"/>
<path d="M18.2551 16.9736C21.3779 16.8867 24.1121 19.4414 24.0268 22.8246C23.9502 25.866 21.4691 28.3368 18.3581 28.3339C14.8939 28.3281 12.4628 25.9471 12.4716 22.5697C12.4775 19.3719 14.9616 16.9707 18.2551 16.9736ZM22.0077 22.6566C22.0136 20.5885 20.3654 18.9519 18.2668 18.9432C16.133 18.9345 14.473 20.5537 14.4701 22.6451C14.4671 24.719 16.1153 26.3556 18.208 26.3585C20.3448 26.3643 22.0018 24.7509 22.0077 22.6566Z" fill="#E04E39"/>
<path d="M6.75009 17.0198C6.24091 17.0198 5.73467 17.0053 5.22548 17.0227C4.90173 17.0343 4.75751 16.9184 4.76634 16.5911C4.77811 16.2233 4.77222 15.8554 4.7634 15.4875C4.75457 15.1689 4.90467 15.0386 5.22548 15.0414C6.25562 15.0501 7.28576 15.0501 8.31884 15.0443C8.59845 15.0443 8.73089 15.1544 8.72501 15.4354C8.71618 15.8322 8.71912 16.229 8.72501 16.6259C8.72795 16.9039 8.60433 17.0227 8.31884 17.0169C7.79494 17.0111 7.27398 17.0198 6.75009 17.0198Z" fill="#E04E39"/>
<path d="M29.6931 30.2514C29.1987 30.2514 28.7071 30.2456 28.2127 30.2543C27.8919 30.2601 27.7447 30.1268 27.7535 29.8053C27.7653 29.423 27.7624 29.0406 27.7594 28.6583C27.7594 28.4063 27.8654 28.2817 28.1361 28.2846C29.1987 28.2904 30.2612 28.2875 31.3237 28.2817C31.5886 28.2788 31.7092 28.3918 31.7092 28.6496C31.7092 29.0464 31.7063 29.4432 31.7122 29.843C31.7181 30.15 31.5533 30.2601 31.2648 30.2572C30.7409 30.2485 30.217 30.2543 29.6931 30.2514Z" fill="#E04E39"/>
</svg>
