<svg width="38" height="38" viewBox="0 0 38 38" fill="none" xmlns="http://www.w3.org/2000/svg">
<path d="M9.44949 36.9939C8.7256 36.7871 8.08079 36.4648 7.61239 35.8383C7.21698 35.3031 6.97974 34.7131 6.97974 34.0502C6.97366 28.0593 6.96758 22.0623 6.97974 16.0714C6.97974 14.2772 8.31803 12.9696 10.143 12.9635C14.4194 12.9513 18.6898 12.9574 22.9662 12.9635C26.537 12.9635 30.1078 12.9696 33.6786 12.9635C35.3819 12.9635 36.416 13.7055 36.9513 15.3294C36.9635 15.3598 36.9818 15.3963 36.9939 15.4267C36.9939 15.6396 36.9939 15.8464 36.9939 16.0593C36.5985 16.0593 36.197 16.0593 35.8016 16.0593C35.607 16.0593 35.4792 16.0045 35.4366 15.7795C35.2663 14.9219 34.7918 14.5387 33.8854 14.5387C31.8233 14.5327 29.7672 14.5327 27.705 14.5327C21.9686 14.5327 16.2322 14.5327 10.4958 14.5327C10.2829 14.5327 10.07 14.5327 9.86315 14.557C8.98109 14.6786 8.56136 15.153 8.55527 16.041C8.54919 17.6102 8.54919 19.1794 8.54919 20.7486C8.54919 25.0426 8.54919 29.3426 8.54919 33.6366C8.54919 33.7886 8.54919 33.9407 8.55527 34.0927C8.59785 34.9138 9.13925 35.4369 9.96048 35.443C11.7185 35.4491 13.4704 35.4491 15.2285 35.4491C21.2204 35.4491 27.2183 35.4491 33.2102 35.4491C33.49 35.4491 33.7699 35.4491 34.0558 35.443C34.9196 35.4247 35.4366 34.9199 35.4427 34.0623C35.4549 32.2499 35.4488 30.4313 35.4488 28.6188C35.4488 27.5423 35.4549 26.4658 35.4427 25.3892C35.4366 25.0669 35.5522 24.9452 35.8746 24.9635C36.2457 24.9878 36.6228 24.9757 37 24.9817C37 28.1931 37 31.3984 37 34.6097C36.8601 34.9868 36.7323 35.3761 36.5012 35.7167C36.0389 36.3979 35.3697 36.7628 34.6093 37C26.2268 36.9939 17.8381 36.9939 9.44949 36.9939Z" fill="#E04E39"/>
<path d="M36.9998 22.0259C36.6044 22.032 36.209 22.0259 35.8136 22.0381C35.5642 22.0441 35.4486 21.9529 35.4486 21.6975C35.4547 20.9068 35.4547 20.1161 35.4486 19.3193C35.4486 19.0882 35.5277 18.9727 35.7771 18.9788C36.1846 18.997 36.5922 18.9909 36.9998 18.997C36.9998 20.0127 36.9998 21.0223 36.9998 22.0259Z" fill="#E04E39"/>
<path d="M28.7574 23.5221C28.0092 23.5221 27.261 23.5221 26.5128 23.5221C25.5881 23.5221 24.9859 22.9382 24.9737 22.0198C24.9616 21.0345 24.9616 20.0553 24.9737 19.07C24.9859 18.0969 25.5091 17.5008 26.4702 17.4765C27.991 17.44 29.5118 17.4339 31.0325 17.4765C32.0058 17.5008 32.5229 18.103 32.5229 19.0639C32.5229 20.0492 32.529 21.0284 32.5229 22.0138C32.5168 22.9504 31.945 23.5221 31.0082 23.5282C30.2539 23.5282 29.5057 23.5221 28.7574 23.5221ZM28.7392 19.0274C28.1187 19.0274 27.4982 19.0335 26.8778 19.0274C26.6466 19.0214 26.531 19.0943 26.5371 19.3437C26.5432 20.104 26.5432 20.8642 26.5371 21.6245C26.5371 21.8617 26.6283 21.959 26.8656 21.959C28.1066 21.9529 29.3475 21.9468 30.5885 21.959C30.8683 21.959 30.9535 21.8495 30.9535 21.5819C30.9413 20.846 30.9474 20.1101 30.9535 19.368C30.9595 19.1065 30.85 19.0214 30.6006 19.0214C29.9802 19.0335 29.3597 19.0274 28.7392 19.0274Z" fill="#E04E39"/>
<path d="M15.9889 32.5176C14.6202 32.5176 13.2515 32.5115 11.8828 32.5236C11.5786 32.5236 11.4509 32.4324 11.4752 32.1222C11.4935 31.8789 11.4935 31.6296 11.4691 31.3863C11.4387 31.0457 11.5786 30.9423 11.9132 30.9423C13.8415 30.9545 15.7699 30.9484 17.6982 30.9484C18.5073 30.9484 19.3103 30.9545 20.1193 30.9423C20.4357 30.9362 20.5756 31.0457 20.5512 31.368C20.5391 31.5992 20.5512 31.8364 20.5512 32.0675C20.5452 32.4932 20.5269 32.5115 20.0828 32.5115C18.7263 32.5176 17.3576 32.5176 15.9889 32.5176Z" fill="#E04E39"/>
<path d="M29.4811 28.0168C28.6173 28.0168 27.7474 28.0046 26.8836 28.0229C26.5673 28.029 26.4274 27.9317 26.4517 27.6032C26.47 27.3356 26.4639 27.068 26.4578 26.7943C26.4517 26.5632 26.543 26.4476 26.7863 26.4476C28.5869 26.4476 30.3875 26.4476 32.1881 26.4476C32.4254 26.4476 32.5288 26.5388 32.5227 26.7821C32.5105 27.0741 32.5045 27.366 32.5227 27.658C32.541 27.9438 32.4132 28.0168 32.1456 28.0168C31.2574 28.0107 30.3693 28.0168 29.4811 28.0168Z" fill="#E04E39"/>
<path d="M13.75 28.0228C13.1539 28.0228 12.5577 28.0228 11.9616 28.0228C11.4871 28.0228 11.481 28.0167 11.481 27.5241C11.481 27.2686 11.4871 27.0071 11.481 26.7517C11.475 26.5449 11.5784 26.4536 11.7791 26.4536C13.0991 26.4536 14.4253 26.4536 15.7453 26.4536C15.9643 26.4536 16.0616 26.5631 16.0616 26.7821C16.0556 27.0862 16.0556 27.3903 16.0616 27.6944C16.0677 27.9316 15.9582 28.0228 15.721 28.0228C15.064 28.0107 14.407 28.0167 13.75 28.0228C13.75 28.0167 13.75 28.0167 13.75 28.0228Z" fill="#E04E39"/>
<path d="M21.2448 28.0167C20.6121 28.0167 19.9795 28.0046 19.3529 28.0228C19.0792 28.0289 18.9697 27.9316 18.9879 27.6579C19.0062 27.366 19.0001 27.074 18.9879 26.7821C18.9757 26.5388 19.0913 26.4476 19.3225 26.4536C20.606 26.4597 21.8957 26.4597 23.1792 26.4536C23.4347 26.4536 23.5381 26.551 23.5259 26.8064C23.5138 27.0983 23.5138 27.3903 23.5259 27.6822C23.5381 27.9438 23.4225 28.0289 23.1731 28.0289C22.5344 28.0107 21.8896 28.0167 21.2448 28.0167Z" fill="#E04E39"/>
<path d="M25.0042 32.5114C24.6088 32.5114 24.2073 32.5053 23.8119 32.5175C23.5685 32.5236 23.4773 32.4262 23.4834 32.183C23.4955 31.8789 23.4955 31.5747 23.4834 31.2706C23.4773 31.0517 23.5625 30.9483 23.7875 30.9483C24.6027 30.9483 25.4239 30.9483 26.239 30.9483C26.4398 30.9483 26.5371 31.0395 26.531 31.2463C26.5249 31.5747 26.5249 31.9032 26.531 32.2255C26.531 32.4384 26.4276 32.5114 26.2269 32.5114C25.8254 32.5114 25.4178 32.5114 25.0042 32.5114Z" fill="#E04E39"/>
<path d="M16.001 8.54791C11.682 8.54791 7.35687 8.54791 3.03785 8.54791C2.58161 8.54791 2.56945 8.56007 2.56945 8.97974C2.56945 13.2859 2.56945 17.5981 2.57553 21.9042C2.57553 22.8409 2.87361 23.218 3.77999 23.4308C3.97465 23.4734 4.05982 23.5707 4.05373 23.7654C4.04765 24.0816 4.04765 24.3979 4.05373 24.7142C4.05982 24.9575 3.96857 25.0426 3.71308 25.0183C2.18013 24.8541 1.00608 23.5707 1 22.0259C1 16.0167 1 10.0137 1.00608 4.00457C1.00608 2.31982 2.32612 1 4.02332 1C12.0166 1 20.0159 1 28.0152 1C29.682 1 31.0203 2.31982 31.0324 3.98024C31.0446 5.85353 31.0263 7.72682 31.0446 9.60011C31.0446 9.94679 30.9229 10.0624 30.5944 10.0319C30.3268 10.0137 30.053 10.0198 29.7854 10.0319C29.5664 10.038 29.463 9.94679 29.4691 9.72176C29.4751 9.47847 29.4508 9.2291 29.4691 8.98582C29.4995 8.64522 29.3778 8.54183 29.0372 8.54183C27.1636 8.55399 25.2899 8.54791 23.4163 8.54791C20.9466 8.54791 18.4708 8.54791 16.001 8.54791ZM16.0253 6.97872C20.3565 6.97872 24.6877 6.97872 29.0189 6.97872C29.4691 6.97872 29.4691 6.97872 29.4691 6.52864C29.4691 5.78054 29.4386 5.02636 29.4751 4.28434C29.5299 3.27471 29.0189 2.53269 27.7536 2.55702C25.2839 2.60568 22.8141 2.56919 20.3444 2.56919C14.9243 2.56919 9.50422 2.56919 4.08415 2.56919C3.06827 2.56919 2.57553 3.06792 2.56945 4.07755C2.56337 4.89864 2.5877 5.71972 2.56337 6.53473C2.5512 6.90574 2.68503 6.9848 3.03177 6.9848C7.36296 6.97872 11.6941 6.97872 16.0253 6.97872Z" fill="#E04E39"/>
<path d="M13.75 28.0228C13.1539 28.0228 12.5577 28.0228 11.9616 28.0228C11.4871 28.0228 11.481 28.0167 11.481 27.5241C11.481 27.2686 11.4871 27.0071 11.481 26.7517C11.475 26.5449 11.5784 26.4536 11.7791 26.4536C13.0991 26.4536 14.4253 26.4536 15.7453 26.4536C15.9643 26.4536 16.0616 26.5631 16.0616 26.7821C16.0556 27.0862 16.0556 27.3903 16.0616 27.6944C16.0677 27.9316 15.9582 28.0228 15.721 28.0228C15.064 28.0107 14.407 28.0167 13.75 28.0228ZM13.75 28.0228C13.75 28.0167 13.75 28.0167 13.75 28.0228ZM9.44949 36.9939C8.7256 36.7871 8.08079 36.4648 7.61239 35.8383C7.21698 35.3031 6.97974 34.7131 6.97974 34.0502C6.97366 28.0593 6.96757 22.0623 6.97974 16.0714C6.97974 14.2772 8.31803 12.9696 10.143 12.9635C14.4194 12.9513 18.6898 12.9574 22.9662 12.9635C26.537 12.9635 30.1078 12.9696 33.6786 12.9635C35.3819 12.9635 36.416 13.7055 36.9513 15.3294C36.9635 15.3598 36.9818 15.3963 36.9939 15.4267C36.9939 15.6396 36.9939 15.8464 36.9939 16.0593C36.5985 16.0593 36.197 16.0593 35.8016 16.0593C35.607 16.0593 35.4792 16.0045 35.4366 15.7795C35.2663 14.9219 34.7918 14.5387 33.8854 14.5387C31.8233 14.5327 29.7672 14.5327 27.705 14.5327C21.9686 14.5327 16.2322 14.5327 10.4958 14.5327C10.2829 14.5327 10.07 14.5327 9.86315 14.557C8.98109 14.6786 8.56136 15.153 8.55527 16.041C8.54919 17.6102 8.54919 19.1794 8.54919 20.7486C8.54919 25.0426 8.54919 29.3426 8.54919 33.6366C8.54919 33.7886 8.54919 33.9407 8.55527 34.0927C8.59785 34.9138 9.13925 35.4369 9.96048 35.443C11.7185 35.4491 13.4704 35.4491 15.2285 35.4491C21.2204 35.4491 27.2183 35.4491 33.2102 35.4491C33.49 35.4491 33.7699 35.4491 34.0558 35.443C34.9196 35.4247 35.4366 34.9199 35.4427 34.0623C35.4549 32.2499 35.4488 30.4313 35.4488 28.6188C35.4488 27.5423 35.4549 26.4658 35.4427 25.3892C35.4366 25.0669 35.5522 24.9452 35.8746 24.9635C36.2457 24.9878 36.6228 24.9757 37 24.9817C37 28.1931 37 31.3984 37 34.6097C36.8601 34.9868 36.7323 35.3761 36.5012 35.7167C36.0389 36.3979 35.3697 36.7628 34.6093 37C26.2268 36.9939 17.8381 36.9939 9.44949 36.9939ZM36.9998 22.0259C36.6044 22.032 36.209 22.0259 35.8136 22.0381C35.5642 22.0441 35.4486 21.9529 35.4486 21.6975C35.4547 20.9068 35.4547 20.1161 35.4486 19.3193C35.4486 19.0882 35.5277 18.9727 35.7771 18.9788C36.1846 18.997 36.5922 18.9909 36.9998 18.997C36.9998 20.0127 36.9998 21.0223 36.9998 22.0259ZM28.7574 23.5221C28.0092 23.5221 27.261 23.5221 26.5128 23.5221C25.5881 23.5221 24.9859 22.9382 24.9737 22.0198C24.9616 21.0345 24.9616 20.0553 24.9737 19.07C24.9859 18.0969 25.5091 17.5008 26.4702 17.4765C27.991 17.44 29.5118 17.4339 31.0325 17.4765C32.0058 17.5008 32.5229 18.103 32.5229 19.0639C32.5229 20.0492 32.529 21.0284 32.5229 22.0138C32.5168 22.9504 31.945 23.5221 31.0082 23.5282C30.2539 23.5282 29.5057 23.5221 28.7574 23.5221ZM28.7392 19.0274C28.1187 19.0274 27.4982 19.0335 26.8778 19.0274C26.6466 19.0214 26.531 19.0943 26.5371 19.3437C26.5432 20.104 26.5432 20.8642 26.5371 21.6245C26.5371 21.8617 26.6283 21.959 26.8656 21.959C28.1065 21.9529 29.3475 21.9468 30.5885 21.959C30.8683 21.959 30.9535 21.8495 30.9535 21.5819C30.9413 20.846 30.9474 20.11 30.9535 19.368C30.9595 19.1065 30.85 19.0214 30.6006 19.0214C29.9802 19.0335 29.3597 19.0274 28.7392 19.0274ZM15.9889 32.5176C14.6202 32.5176 13.2515 32.5115 11.8828 32.5236C11.5786 32.5236 11.4509 32.4324 11.4752 32.1222C11.4935 31.8789 11.4935 31.6296 11.4691 31.3863C11.4387 31.0457 11.5786 30.9423 11.9132 30.9423C13.8415 30.9545 15.7699 30.9484 17.6982 30.9484C18.5073 30.9484 19.3103 30.9545 20.1193 30.9423C20.4357 30.9362 20.5756 31.0457 20.5512 31.368C20.5391 31.5992 20.5512 31.8364 20.5512 32.0675C20.5452 32.4932 20.5269 32.5115 20.0828 32.5115C18.7263 32.5176 17.3576 32.5176 15.9889 32.5176ZM29.4811 28.0168C28.6173 28.0168 27.7474 28.0046 26.8836 28.0229C26.5673 28.029 26.4274 27.9317 26.4517 27.6032C26.47 27.3356 26.4639 27.068 26.4578 26.7943C26.4517 26.5632 26.543 26.4476 26.7863 26.4476C28.5869 26.4476 30.3875 26.4476 32.1881 26.4476C32.4254 26.4476 32.5288 26.5388 32.5227 26.7821C32.5105 27.0741 32.5045 27.366 32.5227 27.658C32.541 27.9438 32.4132 28.0168 32.1456 28.0168C31.2574 28.0107 30.3693 28.0168 29.4811 28.0168ZM21.2448 28.0167C20.6121 28.0167 19.9795 28.0046 19.3529 28.0228C19.0792 28.0289 18.9697 27.9316 18.9879 27.6579C19.0062 27.366 19.0001 27.074 18.9879 26.7821C18.9757 26.5388 19.0913 26.4476 19.3225 26.4536C20.606 26.4597 21.8957 26.4597 23.1792 26.4536C23.4347 26.4536 23.5381 26.551 23.5259 26.8064C23.5138 27.0983 23.5138 27.3903 23.5259 27.6822C23.5381 27.9438 23.4225 28.0289 23.1731 28.0289C22.5344 28.0107 21.8896 28.0167 21.2448 28.0167ZM25.0042 32.5114C24.6088 32.5114 24.2073 32.5053 23.8119 32.5175C23.5685 32.5236 23.4773 32.4262 23.4834 32.183C23.4955 31.8789 23.4955 31.5747 23.4834 31.2706C23.4773 31.0517 23.5625 30.9483 23.7875 30.9483C24.6027 30.9483 25.4239 30.9483 26.239 30.9483C26.4398 30.9483 26.5371 31.0395 26.531 31.2463C26.5249 31.5747 26.5249 31.9032 26.531 32.2255C26.531 32.4384 26.4276 32.5114 26.2269 32.5114C25.8254 32.5114 25.4178 32.5114 25.0042 32.5114ZM16.001 8.54791C11.682 8.54791 7.35687 8.54791 3.03785 8.54791C2.58161 8.54791 2.56945 8.56007 2.56945 8.97974C2.56945 13.2859 2.56945 17.5981 2.57553 21.9042C2.57553 22.8409 2.87361 23.218 3.77999 23.4308C3.97465 23.4734 4.05982 23.5707 4.05373 23.7654C4.04765 24.0816 4.04765 24.3979 4.05373 24.7142C4.05982 24.9575 3.96857 25.0426 3.71308 25.0183C2.18013 24.8541 1.00608 23.5707 1 22.0259C1 16.0167 1 10.0137 1.00608 4.00457C1.00608 2.31982 2.32612 1 4.02332 1C12.0166 1 20.0159 1 28.0152 1C29.682 1 31.0203 2.31982 31.0324 3.98024C31.0446 5.85353 31.0263 7.72682 31.0446 9.60011C31.0446 9.94679 30.9229 10.0624 30.5944 10.0319C30.3268 10.0137 30.053 10.0198 29.7854 10.0319C29.5664 10.038 29.463 9.94679 29.4691 9.72176C29.4751 9.47847 29.4508 9.2291 29.4691 8.98582C29.4995 8.64522 29.3778 8.54183 29.0372 8.54183C27.1636 8.55399 25.29 8.54791 23.4163 8.54791C20.9466 8.54791 18.4708 8.54791 16.001 8.54791ZM16.0253 6.97872C20.3565 6.97872 24.6877 6.97872 29.0189 6.97872C29.4691 6.97872 29.4691 6.97872 29.4691 6.52864C29.4691 5.78054 29.4386 5.02636 29.4751 4.28434C29.5299 3.27471 29.0189 2.53269 27.7536 2.55702C25.2839 2.60568 22.8141 2.56919 20.3444 2.56919C14.9243 2.56919 9.50422 2.56919 4.08415 2.56919C3.06827 2.56919 2.57553 3.06792 2.56945 4.07755C2.56337 4.89864 2.5877 5.71972 2.56337 6.53473C2.5512 6.90574 2.68503 6.9848 3.03177 6.9848C7.36296 6.97872 11.6941 6.97872 16.0253 6.97872Z" stroke="#E04E39" stroke-width="0.5"/>
</svg>
