<svg width="30" height="40" viewBox="0 0 30 40" fill="none" xmlns="http://www.w3.org/2000/svg">
<path d="M16.6746 1C17.4494 1.13172 18.2306 1.19099 19.0053 1.34905C21.4973 1.87591 23.7699 2.85719 25.6228 4.68146C27.4563 6.48596 28.4505 8.72513 28.8185 11.2672C29.1026 13.2298 29.0574 15.1858 28.5409 17.1088C28.0567 18.9068 27.1787 20.5071 26.178 22.0548C25.2483 23.4971 24.2218 24.8801 23.3696 26.3816C22.0719 28.6669 21.2778 31.1036 21.2585 33.7643C21.2585 34.1331 21.1358 34.2516 20.7743 34.2516C16.9006 34.2385 13.0205 34.2451 9.14686 34.2516C8.85634 34.2516 8.73367 34.1594 8.73367 33.8499C8.7143 30.7941 7.7007 28.0478 6.20289 25.453C5.15055 23.6354 3.93681 21.9165 2.89092 20.0922C1.58034 17.7938 0.844348 15.357 1.02512 12.67C1.23171 9.55494 2.20658 6.76915 4.47912 4.58267C5.97047 3.14038 7.76526 2.23813 9.72791 1.67175C10.8254 1.34905 11.9423 1.15806 13.0851 1.05927C13.1625 1.0461 13.2465 1.01976 13.3304 1C14.4408 1 15.5577 1 16.6746 1ZM15.0154 32.592C16.4358 32.592 17.8496 32.5854 19.27 32.592C19.5218 32.592 19.6251 32.513 19.6638 32.243C20.006 29.6679 20.9227 27.3036 22.2527 25.104C23.1824 23.5695 24.2476 22.1206 25.2225 20.6191C27.127 17.695 27.792 14.5206 27.1141 11.0763C26.4879 7.87556 24.8093 5.45858 21.8976 4.00971C20.2642 3.19965 18.5211 2.81768 16.7134 2.69913C14.4731 2.54766 12.2587 2.62669 10.083 3.24575C8.2882 3.75945 6.67418 4.60901 5.37651 5.99203C3.60109 7.88215 2.83927 10.2135 2.65205 12.7754C2.48419 15.0541 3.09106 17.122 4.22087 19.0648C4.91813 20.27 5.73805 21.3896 6.47405 22.5685C8.35276 25.5584 9.9345 28.6669 10.3412 32.2627C10.3735 32.5525 10.5349 32.5854 10.7609 32.5854C12.1748 32.592 13.5951 32.592 15.0154 32.592Z" fill="#E04E39"/>
<path d="M18.089 38.9935C17.2045 38.9935 16.3201 38.9737 15.442 39C15.0611 39.0132 14.9449 38.8683 14.9772 38.5061C14.9966 38.2756 14.9966 38.0385 14.9772 37.8014C14.9449 37.4458 15.0805 37.3272 15.4291 37.3272C16.6622 37.3404 17.8953 37.3338 19.1349 37.3338C19.6901 37.3338 20.2518 37.347 20.807 37.3272C21.1621 37.3141 21.2848 37.4655 21.2654 37.808C21.2525 38.078 21.2525 38.348 21.259 38.6246C21.2654 38.8947 21.1557 38.9935 20.891 38.9935C19.9548 38.9869 19.0252 38.9935 18.089 38.9935Z" fill="#E04E39"/>
<path d="M10.316 38.9934C9.91569 38.9934 9.51541 38.9868 9.12159 38.9999C8.86335 39.0065 8.74068 38.9143 8.74714 38.6377C8.76005 38.3084 8.75359 37.9726 8.74714 37.6367C8.74714 37.4391 8.83752 37.3403 9.0312 37.3403C9.90277 37.3403 10.7743 37.3403 11.6395 37.3403C11.8525 37.3403 11.9429 37.4589 11.9429 37.6696C11.9429 38.0055 11.9429 38.3348 11.9429 38.6706C11.9429 38.9011 11.8461 39.0065 11.6136 38.9999C11.1811 38.9868 10.7485 38.9934 10.316 38.9934Z" fill="#E04E39"/>
<path d="M13.2991 19.73C13.7123 18.7553 14.0997 17.8333 14.4806 16.9179C15.5845 14.2835 16.695 11.6492 17.799 9.01491C17.8313 8.9293 17.8442 8.79758 17.9668 8.80417C18.0572 8.81076 18.0831 8.92271 18.1218 8.99516C19.2193 10.9116 20.3298 12.8281 21.4144 14.7577C21.6081 15.1068 21.8211 15.2517 22.2149 15.2319C22.7831 15.199 23.3512 15.2319 23.9193 15.2187C24.2099 15.2121 24.3454 15.3043 24.3261 15.6205C24.3067 15.9168 24.3067 16.2132 24.3261 16.5095C24.339 16.7861 24.2163 16.8783 23.9581 16.8783C22.9897 16.8718 22.0213 16.8652 21.0528 16.8849C20.7107 16.8915 20.6009 16.6544 20.4718 16.4173C19.7939 15.1595 19.116 13.9082 18.4381 12.6503C18.3929 12.5712 18.38 12.4329 18.2638 12.4395C18.1541 12.4461 18.1476 12.5844 18.1089 12.67C16.6692 16.0946 15.223 19.5258 13.7833 22.957C13.7381 23.0624 13.7317 23.2402 13.5961 23.2468C13.467 23.2534 13.4282 23.0887 13.3701 22.9834C12.279 21.0867 11.188 19.19 10.1098 17.2867C9.94194 16.9969 9.75471 16.8652 9.419 16.8718C8.32792 16.8915 7.23684 16.8718 6.14577 16.8849C5.79714 16.8915 5.62282 16.7993 5.66156 16.4042C5.68738 16.1078 5.67447 15.8114 5.66802 15.5151C5.66802 15.3109 5.75195 15.2253 5.95208 15.2253C7.50154 15.2253 9.051 15.2319 10.6005 15.2253C10.8458 15.2253 10.9233 15.4031 11.0201 15.5744C11.6722 16.7861 12.3307 17.9979 12.9828 19.2097C13.0796 19.3612 13.1764 19.5192 13.2991 19.73Z" fill="#E04E39"/>
<path d="M16.6746 1C17.4494 1.13172 18.2306 1.19099 19.0053 1.34905C21.4973 1.87591 23.7699 2.85719 25.6228 4.68146C27.4563 6.48596 28.4505 8.72513 28.8185 11.2672C29.1026 13.2298 29.0574 15.1858 28.5409 17.1088C28.0567 18.9068 27.1787 20.5071 26.178 22.0548C25.2483 23.4971 24.2218 24.8801 23.3696 26.3816C22.0719 28.6669 21.2778 31.1036 21.2585 33.7643C21.2585 34.1331 21.1358 34.2516 20.7743 34.2516C16.9006 34.2385 13.0205 34.2451 9.14686 34.2516C8.85634 34.2516 8.73367 34.1594 8.73367 33.8499C8.7143 30.7941 7.7007 28.0478 6.20289 25.453C5.15055 23.6354 3.93681 21.9165 2.89092 20.0922C1.58034 17.7938 0.844348 15.357 1.02512 12.67C1.23171 9.55494 2.20658 6.76915 4.47912 4.58267C5.97047 3.14038 7.76526 2.23813 9.72791 1.67175C10.8254 1.34905 11.9423 1.15806 13.0851 1.05927C13.1625 1.0461 13.2465 1.01976 13.3304 1C14.4408 1 15.5577 1 16.6746 1ZM15.0154 32.592C16.4358 32.592 17.8496 32.5854 19.27 32.592C19.5218 32.592 19.6251 32.513 19.6638 32.243C20.006 29.6679 20.9227 27.3036 22.2527 25.104C23.1824 23.5695 24.2476 22.1206 25.2225 20.6191C27.127 17.695 27.792 14.5206 27.1141 11.0763C26.4879 7.87556 24.8093 5.45858 21.8976 4.00971C20.2642 3.19965 18.5211 2.81768 16.7134 2.69913C14.4731 2.54766 12.2587 2.62669 10.083 3.24575C8.2882 3.75945 6.67418 4.60901 5.37651 5.99203C3.60109 7.88215 2.83927 10.2135 2.65205 12.7754C2.48419 15.0541 3.09106 17.122 4.22087 19.0648C4.91813 20.27 5.73805 21.3896 6.47405 22.5685C8.35276 25.5584 9.9345 28.6669 10.3412 32.2627C10.3735 32.5525 10.5349 32.5854 10.7609 32.5854C12.1748 32.592 13.5951 32.592 15.0154 32.592Z" stroke="#E04E39" stroke-width="0.5"/>
<path d="M18.089 38.9935C17.2045 38.9935 16.3201 38.9737 15.442 39C15.0611 39.0132 14.9449 38.8683 14.9772 38.5061C14.9966 38.2756 14.9966 38.0385 14.9772 37.8014C14.9449 37.4458 15.0805 37.3272 15.4291 37.3272C16.6622 37.3404 17.8953 37.3338 19.1349 37.3338C19.6901 37.3338 20.2518 37.347 20.807 37.3272C21.1621 37.3141 21.2848 37.4655 21.2654 37.808C21.2525 38.078 21.2525 38.348 21.259 38.6246C21.2654 38.8947 21.1557 38.9935 20.891 38.9935C19.9548 38.9869 19.0252 38.9935 18.089 38.9935Z" stroke="#E04E39" stroke-width="0.5"/>
<path d="M10.316 38.9934C9.91569 38.9934 9.51541 38.9868 9.12159 38.9999C8.86335 39.0065 8.74068 38.9143 8.74714 38.6377C8.76005 38.3084 8.75359 37.9726 8.74714 37.6367C8.74714 37.4391 8.83752 37.3403 9.0312 37.3403C9.90277 37.3403 10.7743 37.3403 11.6395 37.3403C11.8525 37.3403 11.9429 37.4589 11.9429 37.6696C11.9429 38.0055 11.9429 38.3348 11.9429 38.6706C11.9429 38.9011 11.8461 39.0065 11.6136 38.9999C11.1811 38.9868 10.7485 38.9934 10.316 38.9934Z" stroke="#E04E39" stroke-width="0.5"/>
<path d="M13.2991 19.73C13.7123 18.7553 14.0997 17.8333 14.4806 16.9179C15.5845 14.2835 16.695 11.6492 17.799 9.01491C17.8313 8.9293 17.8442 8.79758 17.9668 8.80417C18.0572 8.81076 18.0831 8.92271 18.1218 8.99516C19.2193 10.9116 20.3298 12.8281 21.4144 14.7577C21.6081 15.1068 21.8211 15.2517 22.2149 15.2319C22.7831 15.199 23.3512 15.2319 23.9193 15.2187C24.2099 15.2121 24.3454 15.3043 24.3261 15.6205C24.3067 15.9168 24.3067 16.2132 24.3261 16.5095C24.339 16.7861 24.2163 16.8783 23.9581 16.8783C22.9897 16.8718 22.0213 16.8652 21.0528 16.8849C20.7107 16.8915 20.6009 16.6544 20.4718 16.4173C19.7939 15.1595 19.116 13.9082 18.4381 12.6503C18.3929 12.5712 18.38 12.4329 18.2638 12.4395C18.1541 12.4461 18.1476 12.5844 18.1089 12.67C16.6692 16.0946 15.223 19.5258 13.7833 22.957C13.7381 23.0624 13.7317 23.2402 13.5961 23.2468C13.467 23.2534 13.4282 23.0887 13.3701 22.9834C12.279 21.0867 11.188 19.19 10.1098 17.2867C9.94194 16.9969 9.75471 16.8652 9.419 16.8718C8.32792 16.8915 7.23684 16.8718 6.14577 16.8849C5.79714 16.8915 5.62282 16.7993 5.66156 16.4042C5.68738 16.1078 5.67447 15.8114 5.66802 15.5151C5.66802 15.3109 5.75195 15.2253 5.95208 15.2253C7.50154 15.2253 9.051 15.2319 10.6005 15.2253C10.8458 15.2253 10.9233 15.4031 11.0201 15.5744C11.6722 16.7861 12.3307 17.9979 12.9828 19.2097C13.0796 19.3612 13.1764 19.5192 13.2991 19.73Z" stroke="#E04E39" stroke-width="0.5"/>
</svg>
