<svg width="39" height="26" viewBox="0 0 39 26" fill="none" xmlns="http://www.w3.org/2000/svg">
<path d="M0 13.4054C0.152856 12.4807 0.371221 11.5766 0.764278 10.7136C2.13998 7.7751 4.43281 5.82298 7.70829 4.95994C8.42889 4.775 8.82195 4.46677 9.21501 3.87086C10.8964 1.24064 13.4076 -0.115571 16.6831 0.00772066C19.1506 0.110464 21.1596 1.15844 22.6663 2.98727C22.9065 3.2544 23.0812 3.31605 23.4524 3.23385C27.5795 2.32972 31.5538 4.75445 32.3617 8.55595C32.4927 9.13131 32.7111 9.37789 33.3225 9.56283C36.4233 10.5286 38.3012 12.5629 38.9345 15.5836C38.9563 15.6658 38.9782 15.748 39 15.8302C39 16.5083 39 17.1658 39 17.8439C38.7816 19.0357 38.3667 20.1865 37.6243 21.1728C36.2049 23.0427 34.3052 24.1729 31.8813 24.4606C30.5493 24.625 29.2172 24.5017 27.8852 24.5222C27.6887 24.5222 27.5795 24.4606 27.5795 24.2551C27.5795 23.9058 27.5795 23.5359 27.5795 23.1866C27.5795 22.94 27.7542 22.9194 27.9726 22.9194C28.9334 22.9194 29.8723 22.9194 30.8331 22.9194C33.8903 22.9194 36.4888 21.0084 37.1657 18.2343C37.9955 14.8849 35.7027 11.5766 32.1215 10.9396C31.3572 10.7957 30.9205 10.3437 30.8331 9.66557C30.5929 7.59016 29.5448 6.04902 27.514 5.16542C26.2038 4.59006 24.8281 4.52842 23.4306 4.95994C22.7318 5.18597 22.0549 4.95994 21.64 4.38458C20.1988 2.45301 18.2553 1.46667 15.766 1.65161C13.1892 1.83655 11.355 3.15166 10.3068 5.39146C10.0666 5.92572 9.65174 6.2545 9.04031 6.35724C5.21893 6.9737 2.29283 9.82996 1.74692 13.4876C1.09183 17.885 4.34546 22.0769 8.9748 22.8167C9.65174 22.9194 10.3287 22.9605 11.0274 22.94C11.3113 22.94 11.4423 23.0427 11.4423 23.3099C11.4205 23.6386 11.4423 23.9469 11.4423 24.2756C11.4423 24.4606 11.355 24.5428 11.1366 24.5633C8.23236 24.6455 5.65565 23.8441 3.49384 21.9947C1.55039 20.3509 0.393057 18.2754 0.043673 15.8302C0.043673 15.7891 0.0218365 15.7685 0 15.7274C0 14.9466 0 14.1863 0 13.4054Z" fill="#E04E39"/>
<path d="M18.6265 22.9202C18.6265 22.7147 18.6265 22.5092 18.6265 22.3243C18.6265 19.1392 18.6265 15.9542 18.6265 12.7692C18.6265 12.2554 18.6265 12.2554 19.1724 12.2554C19.4345 12.2554 19.6747 12.276 19.9367 12.2554C20.2642 12.2349 20.3516 12.3582 20.3516 12.6459C20.3516 13.9404 20.3516 15.2144 20.3516 16.509C20.3516 18.5433 20.3516 20.5982 20.3516 22.6325C20.3516 22.7147 20.3516 22.8174 20.3734 22.9202C20.5481 22.8996 20.5918 22.7763 20.6791 22.7147C21.8146 21.6462 22.9501 20.5982 24.0638 19.5297C24.304 19.3036 24.4569 19.3036 24.6752 19.5297C24.8717 19.7351 25.0683 19.9406 25.2866 20.105C25.5268 20.29 25.5268 20.4338 25.2866 20.6598C24.3695 21.5023 23.4524 22.3859 22.5352 23.2284C21.6181 24.0915 20.6791 24.9545 19.762 25.8381C19.5436 26.0436 19.4126 26.0641 19.1724 25.8381C17.36 24.112 15.5257 22.3859 13.6915 20.6804C13.4513 20.4543 13.4076 20.29 13.6915 20.0845C13.9317 19.8995 14.1282 19.694 14.3465 19.4886C14.5431 19.2831 14.6741 19.3242 14.8706 19.4886C16.0061 20.5571 17.1416 21.6256 18.2771 22.6941C18.3863 22.7558 18.4518 22.8791 18.6265 22.9202Z" fill="#E04E39"/>
</svg>
