<svg width="27" height="38" viewBox="0 0 27 38" fill="none" xmlns="http://www.w3.org/2000/svg">
<path d="M26.9828 22.4801C26.9828 27.0297 26.9588 31.576 26.9999 36.1256C27.0102 37.2192 26.1542 38.0067 25.0963 38C17.3654 37.9697 9.63793 37.9697 1.90704 38C0.794316 38.0033 0 37.1856 0 36.1222C0.0205427 26.9489 0.0102713 17.7757 0.0136951 8.60238C0.0136951 7.58612 0.777197 6.85926 1.85569 6.8458C2.81092 6.8357 3.76958 6.8357 4.72481 6.8458C5.01926 6.84916 5.15621 6.76503 5.13567 6.45544C5.11512 6.16604 5.12539 5.86992 5.13567 5.58052C5.14936 5.14642 5.36848 4.93105 5.81357 4.92096C6.30317 4.91086 6.7962 4.90413 7.2858 4.92096C7.55628 4.93105 7.66584 4.84019 7.72404 4.57098C8.02876 3.12399 8.71694 1.89236 9.99058 1.06118C13.0891 -0.957886 17.0196 0.0314551 18.7212 2.95237C19.0122 3.45377 19.1971 3.99555 19.293 4.56089C19.3375 4.82337 19.4573 4.92769 19.7312 4.91759C20.1969 4.90076 20.6625 4.9075 21.1281 4.91423C21.6622 4.92096 21.854 5.1094 21.8608 5.62426C21.8642 5.90357 21.8745 6.18287 21.8574 6.46217C21.8403 6.74484 21.9635 6.8458 22.2443 6.84243C23.1482 6.83234 24.0555 6.83907 24.9593 6.8357C25.6681 6.83234 26.2878 7.00732 26.7089 7.6265C26.928 7.94955 26.9828 8.29952 26.9828 8.67641C26.9828 13.2832 26.9828 17.8833 26.9828 22.4801ZM1.37293 22.4161C1.37636 22.4161 1.37636 22.4161 1.37293 22.4161C1.37636 26.9388 1.37636 31.4616 1.37636 35.9809C1.37636 36.664 1.44141 36.7212 2.12959 36.7212C7.48095 36.7212 12.8289 36.7212 18.1803 36.7212C20.4673 36.7212 22.7544 36.7212 25.0415 36.7212C25.5585 36.7212 25.74 36.5496 25.7639 36.0482C25.7708 35.9203 25.7674 35.7958 25.7674 35.6679C25.7674 32.848 25.7674 30.028 25.7674 27.2081C25.7674 21.06 25.7674 14.912 25.7674 8.76391C25.7674 8.2726 25.6544 8.16155 25.1511 8.15819C24.4389 8.15146 23.7302 8.15482 23.0181 8.15146C21.9396 8.15146 21.9396 8.15146 21.9361 9.21483C21.9361 9.99217 21.7786 10.147 20.9843 10.147C17.0299 10.147 13.0754 10.1503 9.12094 10.1503C8.07327 10.1503 7.02559 10.1537 5.98134 10.147C5.41984 10.1436 5.21099 9.92823 5.20414 9.38309C5.20072 9.09032 5.19387 8.79756 5.20757 8.50816C5.22126 8.23895 5.10485 8.14809 4.84122 8.15146C3.8449 8.15819 2.85201 8.15819 1.85569 8.15819C1.5407 8.15819 1.37293 8.30625 1.37293 8.62257C1.37293 8.83794 1.36951 9.05331 1.36951 9.26867C1.37293 13.6534 1.37293 18.0348 1.37293 22.4161ZM13.4794 8.88505C15.7014 8.88505 17.9269 8.87832 20.1489 8.89178C20.4913 8.89515 20.6009 8.78746 20.5906 8.45432C20.5666 7.83177 20.5666 7.20923 20.5872 6.58668C20.5974 6.26027 20.4673 6.16604 20.1558 6.17951C19.7312 6.1997 19.3033 6.1896 18.8753 6.18287C18.3583 6.17277 18.1597 5.98096 18.1118 5.46947C18.0912 5.24401 18.081 5.01181 18.0433 4.78972C17.6872 2.84805 15.5371 1.17223 13.387 1.29C11.0896 1.41451 8.98399 2.82786 8.8984 5.47956C8.88128 5.96077 8.65873 6.17277 8.17256 6.18287C7.72062 6.19297 7.26868 6.20306 6.81674 6.18287C6.50175 6.16941 6.41274 6.29055 6.42301 6.58332C6.44013 7.1924 6.44697 7.80485 6.41958 8.41057C6.40246 8.77064 6.50518 8.89515 6.88864 8.89178C9.08328 8.87496 11.2813 8.88505 13.4794 8.88505Z" fill="#E04E39"/>
<path d="M3.50621 31.4017C3.50621 30.6008 3.50279 29.7999 3.50621 29.0024C3.50963 28.4606 3.69109 28.2217 4.2252 28.215C5.73851 28.1948 7.2484 28.1948 8.76171 28.2116C9.2205 28.215 9.49097 28.4875 9.4944 28.9418C9.50809 30.5941 9.50809 32.243 9.49097 33.8953C9.48755 34.3664 9.25473 34.5514 8.7754 34.5548C7.27579 34.5582 5.77617 34.5615 4.27656 34.5548C3.68425 34.5514 3.50621 34.363 3.50279 33.764C3.50621 32.9766 3.50621 32.1891 3.50621 31.4017ZM4.79697 31.3849C4.79697 31.893 4.80725 32.4011 4.79355 32.9093C4.7867 33.1785 4.8586 33.303 5.15989 33.2996C6.05008 33.2862 6.94026 33.2895 7.83387 33.2963C8.07695 33.2996 8.18651 33.2121 8.18651 32.9631C8.17967 31.9233 8.17967 30.8835 8.18651 29.8403C8.18651 29.5947 8.07353 29.5004 7.83387 29.5038C6.94368 29.5072 6.0535 29.5105 5.15989 29.5038C4.89626 29.5004 4.79013 29.598 4.79697 29.8639C4.80382 30.3686 4.79697 30.8768 4.79697 31.3849Z" fill="#E04E39"/>
<path d="M3.50621 14.9329C3.50621 14.1455 3.50279 13.358 3.50621 12.5706C3.50963 11.975 3.70821 11.7832 4.33134 11.7832C5.7796 11.7798 7.22443 11.7832 8.67269 11.7865C9.2205 11.7865 9.47728 12.0187 9.49782 12.574C9.51836 13.1696 9.50809 13.7686 9.50809 14.3642C9.50809 15.33 9.50809 16.2958 9.50809 17.2615C9.50809 17.9177 9.26843 18.1499 8.59052 18.1499C7.19362 18.1499 5.80014 18.1499 4.40324 18.1499C3.71164 18.1499 3.50621 17.9447 3.50279 17.2615C3.50279 16.4808 3.50621 15.7069 3.50621 14.9329ZM4.79355 14.9228C4.79355 15.4444 4.80382 15.966 4.79013 16.4842C4.78328 16.7467 4.88942 16.8476 5.15647 16.8443C6.03638 16.8375 6.91287 16.8375 7.79278 16.8443C8.07353 16.8476 8.18651 16.7433 8.18309 16.464C8.17282 15.4478 8.17624 14.4315 8.18309 13.4152C8.18309 13.1662 8.11119 13.0417 7.83044 13.0451C6.94026 13.0552 6.04665 13.0552 5.15647 13.0417C4.89284 13.0383 4.78328 13.1292 4.79355 13.395C4.80382 13.9065 4.79355 14.4147 4.79355 14.9228Z" fill="#E04E39"/>
<path d="M9.50496 23.1673C9.50496 23.9413 9.51181 24.7153 9.50154 25.4926C9.49469 26.1488 9.27899 26.3642 8.61136 26.3675C7.20419 26.3776 5.79359 26.3776 4.38642 26.3675C3.69139 26.3642 3.50651 26.169 3.50651 25.5027C3.50308 23.9413 3.50308 22.3799 3.50651 20.8151C3.50651 20.1858 3.6777 20.0176 4.30425 20.0142C5.7525 20.0108 7.19734 20.0108 8.6456 20.0142C9.24476 20.0142 9.49812 20.2598 9.50154 20.8454C9.51181 21.616 9.50839 22.3933 9.50496 23.1673ZM8.17654 23.1707C8.17654 22.6625 8.16627 22.1544 8.17996 21.6496C8.18681 21.367 8.07382 21.2694 7.79307 21.2727C6.91659 21.2828 6.03668 21.2828 5.16019 21.2727C4.90341 21.2694 4.787 21.3468 4.79042 21.6194C4.80069 22.6457 4.80069 23.6754 4.79042 24.7018C4.787 24.9609 4.88286 25.0686 5.14992 25.0652C6.02641 25.0585 6.90632 25.0518 7.7828 25.0652C8.09437 25.0686 8.18681 24.9373 8.17996 24.6513C8.16969 24.16 8.17996 23.6653 8.17654 23.1707Z" fill="#E04E39"/>
<path d="M17.6807 15.8414C19.2933 15.8414 20.9094 15.8414 22.522 15.8414C22.6384 15.8414 22.7548 15.8381 22.8712 15.8482C23.2992 15.8886 23.5525 16.1207 23.5594 16.4808C23.5696 16.851 23.3437 17.1034 22.8952 17.1202C22.1077 17.1505 21.3202 17.1437 20.5327 17.1437C18.0265 17.1471 15.5238 17.1437 13.0176 17.1437C12.7608 17.1437 12.5006 17.1572 12.2472 17.0966C11.9288 17.0226 11.7542 16.8106 11.7508 16.501C11.7473 16.1948 11.9014 15.9626 12.2232 15.8852C12.3705 15.8482 12.528 15.8381 12.682 15.8381C14.3494 15.8347 16.0168 15.8381 17.6807 15.8414C17.6807 15.8381 17.6807 15.8381 17.6807 15.8414Z" fill="#E04E39"/>
<path d="M17.6394 30.2676C15.9584 30.2676 14.2773 30.2676 12.5996 30.2676C12.2778 30.2676 11.9731 30.234 11.819 29.8941C11.641 29.5071 11.8396 29.0999 12.2641 29.0124C12.6476 28.935 13.0379 28.962 13.4248 28.962C16.4377 28.9586 19.4472 28.9586 22.4601 28.9653C22.6655 28.9653 22.8778 28.9687 23.073 29.0225C23.3914 29.11 23.5763 29.3422 23.5592 29.672C23.5455 29.9917 23.3435 30.1801 23.0285 30.2407C22.9018 30.2643 22.7717 30.2676 22.6416 30.2676C20.9742 30.271 19.3068 30.271 17.6394 30.2676Z" fill="#E04E39"/>
<path d="M17.6499 25.3311C15.9448 25.3311 14.2398 25.3311 12.5347 25.3311C12.0246 25.3311 11.7473 25.109 11.7473 24.7018C11.7473 24.3047 12.0315 24.0725 12.545 24.0725C15.9414 24.0692 19.3412 24.0692 22.7376 24.0692C22.8164 24.0692 22.8951 24.0692 22.9704 24.0826C23.3642 24.1499 23.6004 24.4393 23.5627 24.8027C23.5285 25.1426 23.2991 25.3311 22.8848 25.3311C21.3749 25.3344 19.8616 25.3344 18.3517 25.3344C18.1155 25.3311 17.8827 25.3311 17.6499 25.3311Z" fill="#E04E39"/>
<path d="M17.6674 33.5587C15.9624 33.5587 14.2573 33.5587 12.5557 33.5587C12.3023 33.5587 12.0558 33.5419 11.8915 33.3265C11.7408 33.1313 11.7032 32.9126 11.8025 32.6804C11.9189 32.4146 12.1346 32.3002 12.4153 32.2968C13.0727 32.2901 13.7335 32.2901 14.3908 32.2901C17.1264 32.2901 19.8655 32.2901 22.6011 32.2901C22.7312 32.2901 22.8613 32.2833 22.9879 32.3035C23.3406 32.354 23.5734 32.6232 23.5631 32.9597C23.5529 33.2996 23.3132 33.5419 22.9366 33.552C22.3443 33.5654 21.7485 33.5587 21.1562 33.5587C19.9921 33.5621 18.8281 33.5621 17.6674 33.5587C17.6674 33.5621 17.6674 33.5621 17.6674 33.5587Z" fill="#E04E39"/>
<path d="M17.6335 20.778C19.3385 20.778 21.047 20.7814 22.752 20.7747C23.0088 20.7747 23.2416 20.8083 23.4128 21.0203C23.5669 21.2155 23.6114 21.4275 23.5087 21.6631C23.3888 21.9289 23.1629 22.0332 22.8855 22.0366C22.0193 22.0433 21.1531 22.0433 20.2869 22.0433C17.7533 22.0433 15.2197 22.0433 12.6861 22.0433C12.6074 22.0433 12.532 22.0467 12.4533 22.0399C12.0116 22.013 11.7377 21.7606 11.7446 21.3905C11.7514 21.017 12.0253 20.778 12.4772 20.778C14.1926 20.7747 15.9147 20.778 17.6335 20.778Z" fill="#E04E39"/>
<path d="M17.6334 13.8123C15.9421 13.8123 14.2473 13.8123 12.556 13.8123C12.2889 13.8123 12.0321 13.7854 11.8678 13.5465C11.7274 13.3446 11.7069 13.1225 11.8164 12.897C11.9465 12.6379 12.1759 12.547 12.4532 12.547C13.6036 12.547 14.754 12.5437 15.9044 12.5437C18.1401 12.5437 20.3759 12.5437 22.6116 12.5437C22.7143 12.5437 22.8204 12.5403 22.9232 12.5504C23.2963 12.584 23.5634 12.8566 23.5634 13.1931C23.56 13.5431 23.31 13.7921 22.9095 13.8056C22.3274 13.8224 21.7454 13.8123 21.1633 13.8123C19.9855 13.8123 18.8112 13.8123 17.6334 13.8123Z" fill="#E04E39"/>
<path d="M13.4898 2.18581C14.7019 2.19591 15.6982 3.14823 15.6982 4.29573C15.6982 5.54082 14.7156 6.54026 13.4933 6.54699C12.2607 6.55036 11.2507 5.54082 11.2678 4.32602C11.2884 3.13141 12.2778 2.17572 13.4898 2.18581ZM14.38 4.40678C14.3834 3.88519 13.9897 3.46455 13.4864 3.45446C12.9865 3.441 12.5517 3.88183 12.5586 4.38323C12.5654 4.88463 12.9592 5.24806 13.4898 5.24806C14.024 5.2447 14.3766 4.91155 14.38 4.40678Z" fill="#E04E39"/>
<path d="M7.96475 30.6916C7.95791 30.8767 7.88601 31.0248 7.79357 31.1628C7.4957 31.5901 7.20468 32.0242 6.89654 32.4449C6.61236 32.8319 6.35558 32.8756 5.93788 32.6299C5.70506 32.4953 5.46882 32.3607 5.25655 32.1992C5.01346 32.0141 4.88678 31.7449 5.034 31.4623C5.18807 31.1661 5.49279 31.0685 5.79408 31.2031C6.06113 31.3209 6.16727 31.2065 6.29053 31.0214C6.45487 30.7791 6.62263 30.5402 6.80752 30.3114C6.99925 30.0725 7.25946 30.0254 7.54021 30.1263C7.80726 30.2239 7.94421 30.4258 7.96475 30.6916Z" fill="#E04E39"/>
<path d="M6.40684 16.3294C6.03022 16.3327 5.14004 15.7438 5.03048 15.4612C4.95858 15.2727 4.94489 15.0809 5.09553 14.9261C5.2633 14.7511 5.48927 14.6334 5.72208 14.7343C6.03707 14.8689 6.19456 14.741 6.34863 14.4987C6.47531 14.2935 6.62254 14.0983 6.77318 13.9099C7.03339 13.5902 7.3655 13.5397 7.69076 13.7618C7.97493 13.9536 8.06052 14.28 7.8551 14.5997C7.53326 15.1045 7.18061 15.589 6.83139 16.077C6.7184 16.2385 6.54037 16.3193 6.40684 16.3294Z" fill="#E04E39"/>
<path d="M6.23868 24.5605C5.8381 24.3586 5.36562 24.1701 5.07117 23.7461C4.92737 23.5408 4.95476 23.3019 5.12595 23.1135C5.30741 22.9116 5.55393 22.7803 5.81413 22.9116C6.09831 23.0529 6.22841 22.9418 6.36536 22.7197C6.49889 22.5044 6.64953 22.2957 6.81045 22.1006C7.04327 21.8213 7.37537 21.7775 7.67324 21.966C7.96084 22.1477 8.06698 22.4876 7.87182 22.7971C7.54656 23.312 7.18707 23.81 6.83099 24.3047C6.70431 24.4763 6.51601 24.5605 6.23868 24.5605Z" fill="#E04E39"/>
</svg>
