<svg width="30" height="26" viewBox="0 0 30 26" fill="none" xmlns="http://www.w3.org/2000/svg">
<path d="M11.248 0C14.5097 0 17.7766 0 21.0383 0C21.1064 0 21.1746 0 21.2375 0C22.1028 0.0052589 22.4174 0.315534 22.4174 1.17273C22.4174 1.83536 22.4227 2.49798 22.4174 3.15534C22.4069 3.76011 22.0766 4.11246 21.505 4.15453C20.9544 4.19134 20.5926 3.89159 20.4877 3.30785C20.43 3.00809 20.4562 2.70307 20.4615 2.40332C20.4615 2.1246 20.3304 1.98786 20.0577 1.98261C19.979 1.98261 19.9004 1.97735 19.8217 1.97735C14.1112 1.97735 8.39539 1.97735 2.68485 1.97735C2.0818 1.97735 2.00839 2.05097 2.00839 2.65574C2.00839 5.89523 2.00839 9.13471 2.00839 12.3742C2.00839 13 2.07132 13.0578 2.71106 13.0578C7.77661 13.0578 12.8369 13.0526 17.9025 13.0578C18.0808 13.0578 18.2643 13.0631 18.4321 13.0999C18.9617 13.2156 19.2187 13.5732 19.1977 14.1254C19.1767 14.646 18.8883 15.0089 18.3587 15.0457C17.6927 15.093 17.0215 15.0825 16.3503 15.0825C11.8458 15.0825 7.34137 15.0825 2.83692 15.0773C2.70058 15.0773 2.56948 15.0825 2.43314 15.0773C2.13424 15.072 2.00839 15.2245 2.01363 15.5138C2.01888 15.9871 2.01363 16.4551 2.01888 16.9284C2.02412 17.3701 2.0818 17.428 2.53277 17.428C5.21762 17.428 7.89722 17.428 10.5821 17.428C13.655 17.428 16.7278 17.428 19.806 17.428C20.4457 17.428 20.4667 17.4122 20.4615 16.7654C20.4615 13.4943 20.4562 10.218 20.451 6.94701C20.451 5.99515 20.6555 5.67961 21.526 5.30097C23.7808 4.32282 26.0514 3.37095 28.2905 2.35599C29.3603 1.87217 30.0157 2.59264 30 3.50243C29.9528 6.04774 29.9266 8.58778 29.958 11.1331C29.979 12.7371 29.9685 14.3358 29.9843 15.9397C29.9843 16.087 29.9843 16.2342 29.9633 16.3762C29.8479 17.1019 29.1872 17.4648 28.5317 17.144C27.2889 16.534 26.0566 15.8977 24.8191 15.2718C24.5988 15.1614 24.3734 15.0562 24.1689 14.9248C23.6812 14.6145 23.5448 14.1044 23.807 13.6153C24.064 13.1315 24.6146 12.9316 25.1232 13.1788C25.9098 13.5574 26.6859 13.9571 27.4672 14.3463C27.871 14.5461 28.0021 14.4883 28.0073 14.0307C28.0283 12.8107 28.0231 11.5854 28.0231 10.3653C28.0231 8.77184 28.0231 7.18366 28.0231 5.59021C28.0231 5.47977 28.0283 5.36408 28.0178 5.25364C27.9916 4.89078 27.8448 4.7856 27.5092 4.92233C26.8589 5.19053 26.2139 5.47977 25.569 5.7585C24.7195 6.12662 23.8647 6.49474 23.0152 6.86286C22.4961 7.089 22.4174 7.19943 22.4174 7.77791C22.4174 11.2751 22.4174 14.7723 22.4174 18.2694C22.4174 19.0845 22.108 19.4316 21.29 19.4369C18.9303 19.4474 16.5705 19.4369 14.216 19.4264C14.0745 19.4264 13.9381 19.4106 13.8647 19.5526C13.7861 19.6946 13.8752 19.805 13.9486 19.9207C14.903 21.3722 15.8574 22.8184 16.8065 24.2698C17.1526 24.7957 17.1159 25.3532 16.7278 25.716C16.2874 26.1315 15.6319 26.0736 15.2386 25.5214C14.6251 24.6537 14.0535 23.7544 13.4714 22.8657C13.0152 22.1768 12.5642 21.4773 12.1028 20.7884C11.8144 20.3625 11.6623 20.373 11.3739 20.8095C10.3828 22.3293 9.39172 23.8491 8.40587 25.3689C8.24856 25.6056 8.07551 25.8265 7.79234 25.9106C7.39906 26.0263 7.03723 25.979 6.74882 25.6634C6.4709 25.3584 6.387 24.8956 6.58102 24.538C6.74358 24.233 6.94284 23.949 7.13686 23.6598C7.96015 22.4082 8.78343 21.1513 9.61196 19.8997C9.68013 19.7945 9.75354 19.6841 9.67488 19.5578C9.58049 19.4159 9.41793 19.4579 9.27635 19.4579C6.67016 19.4579 4.06922 19.4579 1.46303 19.4579C0.288411 19.4579 0 19.1687 0 17.9854C0 12.4215 0 6.86286 0 1.29895C0 0.33657 0.34085 0 1.28474 0C4.60409 0 7.92868 0 11.248 0Z" fill="#E04E39"/>
</svg>
