<svg width="30" height="31" viewBox="0 0 30 31" fill="none" xmlns="http://www.w3.org/2000/svg">
<path d="M30.0002 18.4316C29.9923 20.4342 28.4872 21.9875 26.328 22.2003C24.6416 22.3659 22.8055 20.9231 22.4352 19.1412C22.3879 18.9126 22.4509 18.5735 22.2066 18.4789C21.8047 18.3291 21.3556 18.266 20.93 18.1951C20.804 18.1714 20.7646 18.3291 20.7173 18.4316C20.3469 19.362 19.7244 20.111 18.9757 20.7496C18.7393 20.9467 18.7157 21.1044 18.8654 21.3646C19.1728 21.9007 19.4643 22.4447 19.7322 23.0045C19.8741 23.3041 20.079 23.4066 20.3942 23.3436C22.2303 22.9809 24.4998 24.4631 24.7047 26.7102C24.9096 29.0203 23.2626 30.9441 21.0167 30.9835C19.488 31.0151 18.2665 30.3212 17.5337 28.9572C16.785 27.5538 16.8717 26.1346 17.8568 24.881C18.2586 24.3764 18.3296 24.0137 17.9592 23.4934C17.6834 23.0992 17.4785 22.6419 17.2657 22.2003C17.1397 21.9401 16.9978 21.8455 16.6984 21.9244C14.6337 22.4999 12.774 22.0584 11.1192 20.726C10.8906 20.5446 10.7409 20.5131 10.4887 20.7181C9.56676 21.4671 8.6369 22.2082 7.69127 22.9257C7.44698 23.1149 7.36818 23.2647 7.4785 23.5722C8.32957 25.9533 6.61956 28.4447 4.10577 28.634C2.11207 28.7838 0.0868571 27.2148 0.0395758 24.9756C0.0238153 23.4618 0.630592 22.2634 1.95447 21.4986C3.23895 20.7575 4.56282 20.7417 5.83942 21.538C6.16251 21.7352 6.37527 21.7115 6.65896 21.475C7.52578 20.7575 8.40837 20.0637 9.29883 19.3856C9.59828 19.157 9.60616 18.9599 9.46432 18.6445C8.50293 16.5867 8.61325 14.5762 9.83469 12.6524C9.99229 12.4001 9.98441 12.2345 9.77165 12.0295C8.55809 10.8311 7.34454 9.61689 6.14675 8.4027C5.94974 8.20559 5.76062 8.15828 5.50057 8.29232C3.10498 9.48286 0.19718 7.80349 0.00805488 4.94146C-0.118029 3.08075 1.5841 1.13332 3.48323 1.00717C6.525 0.810058 8.55021 3.67997 7.3209 6.45526C7.17906 6.77064 7.2421 6.94409 7.47062 7.16485C8.64478 8.31597 9.80317 9.47497 10.9537 10.6497C11.2295 10.9336 11.4344 10.973 11.7811 10.7444C13.0025 9.95592 14.3422 9.64054 15.7843 9.86919C16.1467 9.92438 16.391 9.83765 16.4777 9.4592C16.4856 9.42767 16.5014 9.39613 16.5092 9.36459C16.9426 8.53673 16.9663 7.91387 16.1704 7.1412C15.1538 6.15566 15.0435 4.78378 15.5636 3.45132C16.1073 2.05579 17.1633 1.18851 18.6605 1.01505C21.5132 0.691792 23.6881 3.36459 22.7898 6.04527C22.2933 7.52753 20.8591 8.62346 19.291 8.63923C18.8339 8.64711 18.6133 8.78903 18.4951 9.21479C18.3847 9.64054 18.0774 10.0505 18.101 10.4526C18.1247 10.8863 18.7078 10.973 19.0151 11.249C20.4099 12.4789 21.1743 14.0006 21.2058 15.8613C21.2137 16.2161 21.3162 16.4211 21.6865 16.4369C21.7338 16.4369 21.7811 16.4526 21.8284 16.4684C22.4273 16.7128 22.7977 16.5394 23.1917 15.9796C24.1688 14.5919 25.8315 14.1504 27.447 14.7102C29.0861 15.3094 30.0002 16.634 30.0002 18.4316ZM15.075 20.3633C17.51 20.3554 19.4092 18.4316 19.4013 15.9796C19.3934 13.5275 17.447 11.6353 14.949 11.6589C12.5612 11.6826 10.6621 13.6221 10.6542 16.0505C10.6542 18.4474 12.6243 20.3633 15.075 20.3633ZM1.86779 24.8179C1.86779 25.9612 2.77401 26.8679 3.91664 26.8521C5.00411 26.8363 5.91822 25.8981 5.91822 24.8022C5.91822 23.6826 4.99623 22.8232 3.82208 22.8232C2.69521 22.8232 1.86779 23.6747 1.86779 24.8179ZM21.1664 4.84685C21.1743 3.72727 20.276 2.81269 19.1728 2.8048C18.038 2.79692 17.1554 3.67208 17.1318 4.84685C17.1081 5.96643 18.0301 6.86525 19.2043 6.85736C20.276 6.85736 21.1586 5.95855 21.1664 4.84685ZM5.85518 4.90993C5.87094 3.7115 5.04352 2.81269 3.90876 2.8048C2.78977 2.8048 1.88355 3.68785 1.85991 4.79955C1.84415 5.91913 2.72673 6.84948 3.82208 6.86525C4.99623 6.87313 5.83942 6.06104 5.85518 4.90993ZM20.9143 25.1649C19.7638 25.1649 18.8497 26.0952 18.8733 27.2621C18.8891 28.2713 19.8899 29.2253 20.9379 29.2174C22.0254 29.2174 22.9316 28.2792 22.9159 27.1675C22.9001 26.0164 22.0569 25.1649 20.9143 25.1649ZM24.2082 18.3449C24.2082 19.5354 25.0278 20.3633 26.2334 20.3554C27.3603 20.3554 28.2035 19.5118 28.2114 18.3922C28.2192 17.2016 27.3839 16.358 26.2019 16.358C25.012 16.3659 24.2082 17.1701 24.2082 18.3449Z" fill="#E04E39"/>
</svg>
