<svg width="27" height="31" viewBox="0 0 27 31" fill="none" xmlns="http://www.w3.org/2000/svg">
<path d="M15.3034 30.9963C13.7493 30.9963 12.1951 30.9896 10.6427 30.9997C10.14 31.0031 9.88607 30.7936 9.88948 30.2866C9.89459 29.3995 9.89459 28.5124 9.8963 27.6253C9.898 26.7635 9.68158 26.4949 8.80567 26.3867C5.85758 26.0234 3.32358 24.7679 1.06394 22.9042C0.441942 22.3905 0.433421 22.2942 0.953172 21.6926C1.72854 20.7954 1.80693 20.7903 2.73225 21.5659C7.39979 25.4759 14.7206 25.3864 19.3166 21.3952C21.9102 19.1428 23.4371 16.3328 23.9892 12.9786C24.0915 12.3534 23.9108 12.1168 23.282 12.0594C22.0244 11.9445 21.7977 12.1101 21.5506 13.325C20.6475 17.7724 16.9155 21.3885 12.3894 21.9985C7.92124 22.6017 4.02907 20.5841 1.71491 16.9326C-1.80577 11.3767 0.297094 4.01622 6.16943 1.11324C12.5104 -2.01954 20.1175 1.75027 21.537 8.7306C21.7875 9.95904 21.8591 10.0114 23.144 9.99791C23.8461 9.98946 24.5499 9.99115 25.252 10.0013C26.0205 10.0114 26.1398 10.1331 26.1534 10.8884C26.2165 14.2054 25.2758 17.23 23.374 19.9437C20.9985 23.335 17.7931 25.5165 13.6692 26.3039C13.4613 26.3445 13.2466 26.3495 13.037 26.3833C12.628 26.4492 12.144 26.3935 11.9804 26.9173C11.7844 27.5408 11.7572 28.1728 12.0912 28.7591C12.2497 29.0379 12.5786 28.9703 12.8512 28.9703C15.1517 28.972 17.4506 28.967 19.7511 28.9771C20.0493 28.9788 20.4839 28.8385 20.5895 29.2306C20.7259 29.7324 20.7668 30.2833 20.5486 30.7801C20.4447 31.0166 20.1328 30.944 19.9045 30.944C18.3708 30.949 16.8371 30.9456 15.3051 30.9456C15.3051 30.9625 15.3051 30.9794 15.3034 30.9963ZM19.7017 11.0777C19.7017 10.7194 19.7307 10.3578 19.6966 10.003C19.5722 8.73736 19.3558 8.6157 18.2089 9.11586C18.0538 9.18345 17.8919 9.2409 17.7318 9.29328C16.9053 9.56702 16.0958 9.74951 15.3034 9.1581C14.9694 8.90802 14.5655 9.00434 14.2026 9.16824C13.2023 9.62109 12.328 9.3896 11.5697 8.6647C10.9222 8.04625 10.215 7.50892 9.46345 7.02734C9.12093 6.80767 8.87043 6.53055 8.86531 6.11319C8.84657 4.68874 7.69119 4.16323 6.74371 3.48395C6.52388 3.32511 6.23929 3.43157 6.02287 3.58364C4.35967 4.75464 3.14294 6.2602 2.53799 8.21185C2.38803 8.69343 2.55503 9.04658 3.07307 9.17669C4.7022 9.58392 5.62241 10.6806 6.12171 12.2081C6.37051 12.9719 6.64998 13.7272 7.03511 14.4335C7.31117 14.937 7.64347 15.0148 8.06439 14.6346C9.32542 13.4957 10.8779 12.9195 12.4337 12.3365C12.9143 12.1574 13.1409 12.2148 13.1324 12.7927C13.1102 14.1226 13.1222 15.4524 13.1341 16.7822C13.1409 17.6778 12.9245 18.4922 12.3485 19.2002C12.2309 19.3456 12.0622 19.5112 12.1679 19.7055C12.3042 19.9556 12.5445 19.8102 12.7404 19.7714C16.7178 19.0127 19.7238 15.2682 19.7017 11.0777ZM10.6597 2.06457C10.5013 2.08484 10.186 2.12709 9.86903 2.16257C9.65431 2.18623 9.42937 2.20143 9.34076 2.438C9.25044 2.67963 9.41403 2.84185 9.57081 2.98379C10.0701 3.43664 10.4484 3.98242 10.6222 4.61777C10.8131 5.31901 11.2187 5.80566 11.8117 6.18923C12.0946 6.37341 12.3604 6.59138 12.6092 6.81781C13.0148 7.18786 13.4545 7.25545 13.964 7.05944C14.6695 6.78909 15.3665 6.77895 16.0583 7.14562C16.6173 7.44133 17.1711 7.32473 17.7062 7.04593C18.4168 6.67756 18.4867 6.40382 18.0232 5.76172C16.256 3.31328 13.7885 2.20312 10.6597 2.06457ZM11.1778 16.5355C11.1147 16.032 11.2885 15.6045 10.8574 15.4135C10.4467 15.231 10.1979 15.591 9.91163 15.7903C9.82472 15.8512 9.75145 15.9272 9.67306 15.9999C7.92635 17.6085 5.94448 17.2047 5.02257 15.035C4.67493 14.2189 4.39034 13.3791 4.06486 12.5528C3.89445 12.1202 3.71382 11.6843 3.27245 11.4393C2.97935 11.277 2.6675 11.2095 2.36587 11.3987C2.0847 11.5727 2.09662 11.8701 2.13923 12.1405C2.74077 15.9154 4.87772 18.4686 8.4853 19.6683C8.81249 19.7764 9.21977 19.8643 9.45493 19.5872C10.2507 18.6426 11.1386 17.7285 11.1778 16.5355Z" fill="#E04E39"/>
<path d="M4.82037 30.951C3.82006 30.951 2.81805 30.9324 1.81774 30.9595C1.344 30.9713 1.18382 30.7922 1.17189 30.3326C1.13781 28.9757 1.12247 28.9757 2.48916 28.974C4.25631 28.9723 6.02517 28.9672 7.79232 28.9723C8.56598 28.974 8.63585 29.0636 8.63585 29.9507C8.63585 30.8716 8.58643 30.9392 7.823 30.9442C6.82269 30.951 5.82068 30.9459 4.82037 30.9459V30.951Z" fill="#E04E39"/>
</svg>
