<svg width="28" height="30" viewBox="0 0 28 30" fill="none" xmlns="http://www.w3.org/2000/svg">
<path d="M19.7528 18.6007C19.7528 15.221 19.7512 11.8395 19.7528 8.45975C19.7528 7.39406 20.0312 7.10987 21.0925 7.10649C22.9569 7.10142 24.8197 7.09972 26.6841 7.10818C27.7303 7.11326 27.9986 7.38222 27.9986 8.41069C28.0003 15.2125 28.0003 22.016 27.9986 28.8178C27.9986 29.7668 27.7622 29.9934 26.7931 29.9951C24.8666 29.9968 22.9401 29.9968 21.0137 29.9968C19.9792 29.9968 19.7528 29.7735 19.7528 28.7417C19.7512 25.3602 19.7528 21.9805 19.7528 18.6007ZM21.463 18.599C21.463 21.6422 21.4714 24.6853 21.4546 27.7267C21.4513 28.2139 21.5921 28.4084 22.0985 28.3898C23.0189 28.3577 23.9411 28.3814 24.8633 28.3797C26.3136 28.378 26.3152 28.378 26.3152 26.8928C26.3152 21.1245 26.3069 15.3546 26.3253 9.58633C26.327 8.98413 26.1576 8.76761 25.544 8.79129C24.4558 8.83527 23.3643 8.83527 22.2779 8.7896C21.6609 8.76423 21.4395 8.93 21.4479 9.59479C21.4815 12.599 21.463 15.5999 21.463 18.599Z" fill="#E04E39"/>
<path d="M18.0727 21.8333C18.0727 24.1795 18.0744 26.5257 18.071 28.8702C18.0693 29.7735 17.8514 29.9934 16.9577 29.9951C15.0094 29.9985 13.0612 29.9968 11.1129 29.9951C10.0935 29.9951 9.85711 29.7532 9.85543 28.652C9.8504 24.7208 9.85375 20.7896 9.85375 16.8584C9.85375 16.1817 9.84202 15.5051 9.85878 14.8302C9.88058 13.9895 10.1908 13.6833 11.0157 13.6799C13.0058 13.6731 14.996 13.6731 16.9862 13.6799C17.8078 13.6833 18.066 13.9539 18.0676 14.7947C18.076 17.1409 18.0727 19.4871 18.0727 21.8333ZM11.6159 21.8316C11.6159 23.7972 11.626 25.7611 11.6092 27.7267C11.6058 28.2122 11.7651 28.4033 12.2648 28.3915C13.4585 28.3627 14.6523 28.3695 15.8461 28.3898C16.287 28.3966 16.4866 28.2832 16.4849 27.7893C16.4698 23.8175 16.4698 19.8457 16.4849 15.8739C16.4866 15.3816 16.287 15.2666 15.8461 15.2751C14.6741 15.297 13.5005 15.3072 12.3285 15.2717C11.7735 15.2548 11.5991 15.4527 11.6058 16.0024C11.6293 17.9444 11.6142 19.888 11.6159 21.8316Z" fill="#E04E39"/>
<path d="M0.792396 17.1314C0.443654 17.0875 0.150241 16.9335 0.0462885 16.5648C-0.0694001 16.1588 0.0379053 15.8002 0.408444 15.5752C1.19647 15.0948 1.9912 14.6262 2.78761 14.1576C10.5253 9.60394 18.2664 5.05193 26.0058 0.499913C26.1869 0.393344 26.3646 0.283392 26.549 0.181898C27.1141 -0.129351 27.6053 -0.0363145 27.8535 0.423793C28.0832 0.85176 27.9222 1.2848 27.3689 1.62312C26.5641 2.11536 25.7493 2.59239 24.9344 3.0711C17.1397 7.65526 9.34497 12.2394 1.55192 16.8236C1.31551 16.9623 1.08581 17.1128 0.792396 17.1314Z" fill="#E04E39"/>
<path d="M0.00859452 24.4958C0.00859452 23.08 0.00188794 21.6641 0.0119478 20.2466C0.0169778 19.433 0.310391 19.1352 1.1135 19.1319C3.12548 19.1234 5.13578 19.1234 7.14776 19.1319C7.94752 19.1352 8.24931 19.4397 8.25099 20.25C8.2577 23.146 8.25937 26.0419 8.25099 28.9379C8.24931 29.7228 7.96428 29.9934 7.17458 29.9951C5.14249 30.0002 3.11039 30.0002 1.0783 29.9951C0.286918 29.9934 0.0169778 29.7279 0.0119478 28.9345C0.00188794 27.4544 0.00859452 25.9743 0.00859452 24.4958ZM1.71877 24.5736C1.71877 25.6495 1.73219 26.7253 1.71207 27.7995C1.70368 28.2359 1.85794 28.3966 2.29554 28.3881C3.52788 28.3678 4.76189 28.3678 5.99422 28.3881C6.44357 28.3949 6.57099 28.2021 6.56764 27.7826C6.5559 25.6732 6.55422 23.5655 6.56931 21.4561C6.57267 20.9926 6.40668 20.8167 5.94728 20.8234C4.73506 20.842 3.52285 20.8437 2.31063 20.8234C1.82943 20.815 1.70201 21.0281 1.71207 21.473C1.73219 22.5065 1.71877 23.5401 1.71877 24.5736Z" fill="#E04E39"/>
</svg>
