<svg width="24" height="32" viewBox="0 0 24 32" fill="none" xmlns="http://www.w3.org/2000/svg">
<path d="M0.0141408 14.3362C0.0141408 11.1795 0.0141408 8.0298 0.0141408 4.87305C0.0141408 4.27717 0.070704 3.68128 0.296957 3.12087C0.89087 1.66664 2.02213 1.01401 3.54227 1.00691C8.07439 0.992727 12.6136 0.99982 17.1528 0.99982C18.786 0.99982 20.4122 0.99982 22.0455 0.99982C22.8657 0.99982 23.0071 1.12751 23.0071 1.95749C23.0141 6.06481 23.0071 10.165 23.0071 14.2724C23.0071 16.3721 23.0071 18.4648 23 20.5646C23 21.7492 22.7879 21.9692 21.6071 21.9833C20.0092 21.9975 18.4042 21.9904 16.8063 21.9904C12.7126 21.9904 8.61881 21.9904 4.53212 21.9904C4.12204 21.9904 3.69782 21.955 3.29481 22.0898C2.2201 22.4444 1.60498 23.5014 1.73225 24.7428C1.85244 25.8424 2.72917 26.722 3.93114 26.7504C6.03812 26.8071 8.13803 26.7788 10.245 26.7859C10.5773 26.7859 10.7329 26.6085 10.7541 26.2893C10.7541 26.2751 10.7541 26.2609 10.7541 26.2467C10.8036 25.2323 10.6551 25.0833 9.62988 25.1472C7.74916 25.2607 5.86843 25.2039 3.9877 25.1401C3.36551 25.1188 3.08976 24.8492 3.1039 24.3172C3.11805 23.8277 3.40086 23.5795 4.01599 23.5724C6.4482 23.5653 8.88042 23.5653 11.3126 23.5724C12.0904 23.5724 12.3873 23.8845 12.3944 24.7216C12.4085 26.1616 12.4015 27.6087 12.4015 29.0488C12.4015 29.2332 12.3237 29.4673 12.5287 29.5808C12.7338 29.6943 12.8823 29.4886 13.0378 29.3893C13.858 28.8573 14.6923 28.7934 15.5478 29.3042C15.6751 29.3822 15.8023 29.4602 15.9296 29.5383C16.3043 29.7582 16.375 29.7156 16.3892 29.2687C16.3963 29.1339 16.3821 28.9991 16.3821 28.8644C16.3821 27.4952 16.3821 26.1261 16.3821 24.757C16.3821 23.8419 16.6649 23.5653 17.5841 23.5653C19.0052 23.5653 20.4334 23.5653 21.8546 23.5653C21.9889 23.5653 22.1233 23.5653 22.2576 23.5795C22.703 23.622 22.9576 23.8632 22.9929 24.2746C23.0354 24.7216 22.8303 25.0124 22.3778 25.1117C22.1374 25.1685 21.8758 25.1827 21.6283 25.1898C20.6173 25.1968 19.6133 25.1968 18.6022 25.1898C18.2487 25.1898 18.1002 25.3245 18.0861 25.6863C18.0507 26.7575 18.0649 26.7788 19.1466 26.7788C20.0375 26.7788 20.9284 26.7788 21.8122 26.7859C21.9748 26.7859 22.1374 26.7859 22.3 26.8142C22.7243 26.8923 22.9859 27.2115 22.9859 27.6229C22.9788 28.0557 22.7455 28.311 22.3354 28.4174C21.8687 28.538 21.395 28.5026 20.9213 28.5097C20.1789 28.5168 19.4365 28.5026 18.6941 28.5097C18.1992 28.5168 18.0861 28.6232 18.079 29.1126C18.079 29.7369 18.0861 30.3611 18.0083 30.9854C17.8881 31.9644 17.3295 32.2268 16.5164 31.6806C14.9892 30.652 13.6671 30.6662 12.1469 31.7232C11.4116 32.2339 10.8743 31.9927 10.747 31.0989C10.6551 30.4605 10.6692 29.822 10.7117 29.1836C10.747 28.6444 10.6339 28.5168 10.0965 28.5097C8.22994 28.5026 6.36336 28.5168 4.4897 28.5026C3.6059 28.4955 2.74331 28.3465 1.97264 27.8783C0.494928 26.9774 0.0141408 25.5515 0 23.92C0 20.7277 0.0141408 17.5355 0.0141408 14.3362ZM12.1187 2.62431C9.43898 2.62431 6.75223 2.62431 4.07255 2.62431C2.25546 2.62431 1.72518 3.16344 1.73225 5.00074C1.73225 5.01492 1.73225 5.02911 1.73225 5.0433C1.73225 7.46939 1.73225 9.88838 1.73225 12.3145C1.73225 15.0527 1.73932 17.7909 1.72518 20.522C1.72518 20.898 1.81002 20.976 2.1494 20.7774C2.86351 20.373 3.64833 20.2525 4.46142 20.2525C9.78543 20.2595 15.1024 20.2595 20.4264 20.2595C21.2253 20.2595 21.3667 20.1177 21.3667 19.3374C21.3667 14.0595 21.3667 8.77465 21.3667 3.49685C21.3667 2.67396 21.3031 2.61012 20.4829 2.61012C17.6901 2.62431 14.9044 2.62431 12.1187 2.62431Z" fill="#E04E39"/>
</svg>
