<svg width="576" height="340" viewBox="0 0 576 340" fill="none" xmlns="http://www.w3.org/2000/svg">
<rect width="576" height="340" rx="10" fill="#F7F9FA"/>
<mask id="mask0" mask-type="alpha" maskUnits="userSpaceOnUse" x="0" y="0" width="576" height="340">
<rect width="576" height="340" rx="10" fill="#F7F9FA"/>
</mask>
<g mask="url(#mask0)">
<path opacity="0.3" fill-rule="evenodd" clip-rule="evenodd" d="M349.064 469.75L302.846 465.014L306.845 365.216L364.803 367.272L366.577 308.336L423.794 312.294L425.238 253.662L586.777 260.428L587.5 307.229L469.91 305.415L468.929 361.167L411.342 358.16L409.231 417.403L352.715 412.189L349.064 469.75Z" fill="#E04E39"/>
<path d="M507.229 17.1927C507.589 17.3052 508.962 17.6427 510.267 17.9577C513.125 18.6327 515.15 19.5777 517.761 21.4677C521.204 23.9202 523.004 26.3727 523.251 28.9377C523.364 30.1752 523.319 30.5352 522.959 31.0527C522.576 31.6152 522.531 32.1327 522.531 36.0702V40.4802L521.609 42.3702C520.798 43.9902 520.708 44.3502 520.888 44.9352C521.496 46.8027 521.676 47.9052 521.451 48.4902C521.339 48.8502 521.159 49.1202 521.046 49.1202C520.843 49.1202 517.693 52.1577 517.693 52.3602C517.693 52.4052 517.536 53.2602 517.356 54.2277C517.176 55.1952 517.018 56.4327 516.996 56.9952C516.973 58.6377 516.546 59.7402 515.69 60.3027C514.678 60.9777 513.553 60.9552 511.055 60.2127C509.547 59.7627 508.535 59.6052 507.072 59.6052C505.137 59.5827 505.114 59.5827 504.304 60.3702C503.337 61.3152 502.504 62.9802 502.054 64.9827C501.559 67.0527 501.761 67.3677 504.529 69.0327C507.634 70.8777 508.805 71.7777 510.672 73.7352C514.205 77.4702 515.848 80.4852 517.266 85.9302C517.783 87.8877 518.301 89.7102 518.413 89.9352C518.548 90.1827 519.291 91.0602 520.078 91.8927C520.866 92.7477 521.519 93.5577 521.541 93.7152C521.609 95.6277 521.699 96.1227 522.126 96.7077C522.374 97.0902 522.869 97.9452 523.206 98.6202C524.129 100.465 525.772 103.075 526.109 103.188C526.267 103.255 526.897 103.12 527.504 102.895C528.112 102.67 529.619 102.108 530.857 101.68C539.048 98.7102 539.453 98.4627 543.909 93.8727C548.094 89.5752 550.097 87.1677 550.097 86.4477C550.097 86.1102 549.894 84.8502 549.624 83.6352C549.377 82.3977 549.084 79.9902 548.994 78.2577C548.814 75.0177 548.477 73.7577 547.531 72.9927C547.014 72.5652 547.081 71.4627 547.599 71.1702C548.792 70.5402 551.109 71.2152 552.189 72.4977C552.752 73.1727 553.247 74.4552 553.247 75.2877C553.247 75.8727 553.877 76.0077 554.417 75.5352C555.25 74.7927 556.848 72.1377 557.838 69.8202C559.705 65.5452 561.933 62.3952 563.103 62.3952C563.643 62.3952 564.206 63.0027 564.521 63.9252C564.836 64.8252 565.241 64.8477 565.871 63.9927C566.569 63.0477 567.446 62.7327 568.256 63.1152C569.314 63.6102 569.201 64.4652 567.784 67.3227C567.086 68.6952 566.524 69.9327 566.524 70.0677C566.524 70.6527 567.086 70.0227 568.076 68.3802C569.314 66.2652 570.056 65.5902 570.777 65.9727C571.789 66.5352 571.227 69.1902 569.494 71.9127C566.456 76.7502 566.164 77.3352 566.479 78.0552C566.996 79.1577 568.076 78.6627 571.069 75.9402C572.892 74.2752 573.522 74.0502 574.309 74.7927C575.03 75.4677 574.985 75.8052 573.994 77.1327C572.982 78.4827 570.912 80.1702 569.156 81.1152C567.581 81.9702 566.951 82.6902 564.161 86.8077C563.193 88.2253 561.483 90.2277 559.548 92.2077C556.983 94.8402 556.082 95.9652 554.035 99.0702C548.589 107.35 539.386 117.363 532.702 122.313C531.555 123.145 530.115 124.225 529.507 124.72C528.179 125.778 527.077 126.16 526.064 125.868C524.309 125.35 521.181 122.605 513.53 114.82C509.817 111.04 505.812 106.99 504.619 105.82C503.427 104.65 502.189 103.255 501.851 102.715C501.536 102.198 501.176 101.77 501.064 101.77C500.771 101.77 497.711 106.72 496.091 109.758C495.326 111.243 494.493 112.728 494.268 113.043C494.043 113.358 493.615 114.258 493.323 115.068C492.333 117.7 489.182 123.685 486.55 127.983C485.492 129.715 485.154 130.818 484.502 135.07C483.872 139.008 483.804 140.2 484.232 140.785C484.592 141.28 489.497 142.81 492.31 143.283C494.853 143.733 498.251 144.813 502.729 146.613C504.574 147.333 507.815 148.638 509.93 149.47C523.094 154.713 529.597 158.493 532.207 162.408C533.58 164.5 533.962 165.873 533.962 168.708C533.94 171.768 533.332 174.063 531.532 177.73C528.854 183.243 516.996 200.095 507.139 212.358C504.282 215.935 503.247 217.398 502.189 219.445C500.681 222.393 498.566 227.185 498.566 227.658C498.566 228.288 499.016 227.995 499.781 226.825C500.996 224.935 503.877 222.438 504.327 222.888C504.642 223.203 504.147 224.17 503.517 224.508C502.414 225.07 499.691 229.683 499.691 230.965C499.691 231.955 500.321 232.855 501.401 233.418C502.526 233.98 503.044 233.935 505.767 232.968C507.589 232.315 510.222 231.775 510.537 231.955C510.605 232 510.627 232.225 510.56 232.45C510.492 232.765 509.885 233.035 508.422 233.485C507.297 233.823 505.857 234.363 505.227 234.678C504.439 235.083 503.742 235.263 502.999 235.24C501.649 235.218 501.649 235.465 502.841 237.468C503.472 238.48 503.832 239.403 503.989 240.37C504.259 242.08 504.619 242.823 505.834 244.128C507.409 245.838 511.707 248.178 515.06 249.145C517.806 249.933 518.368 250.428 518.368 251.98C518.368 253.218 517.918 254.118 516.951 254.86C515.983 255.603 514.543 255.873 510.425 256.053C507.117 256.188 505.699 256.03 502.931 255.198C502.549 255.085 502.076 254.995 501.874 254.995C501.671 254.995 501.109 254.793 500.636 254.545C500.164 254.298 499.039 253.893 498.161 253.645C497.283 253.398 496.023 252.97 495.371 252.678C494.718 252.385 493.12 251.823 491.815 251.418C489.025 250.563 484.119 248.808 483.197 248.313C482.837 248.133 481.262 247.548 479.709 247.008C474.893 245.343 475.411 245.59 472.598 243.655C471.338 242.778 470.033 241.068 470.303 240.618C470.393 240.505 471.135 239.493 471.968 238.368C472.823 237.243 473.993 235.443 474.601 234.385C475.838 232.158 479.439 227.86 480.654 227.14C481.127 226.87 481.869 226.015 482.499 225.025C483.084 224.125 484.074 222.618 484.704 221.695C485.312 220.773 486.392 218.95 487.09 217.645C488.71 214.675 490.263 211.908 490.938 210.895C491.23 210.468 492.783 207.475 494.403 204.258C497.508 198.093 497.306 198.655 498.814 191.995C499.714 187.945 502.594 182.41 506.037 178.135C507.004 176.943 507.725 175.863 507.612 175.75C507.522 175.66 506.667 175.75 505.744 175.998C503.246 176.628 499.736 177.1 496.203 177.28C491.185 177.505 481.059 176.853 472.013 175.705C470.348 175.503 469.56 175.48 469.358 175.638C469.178 175.773 468.795 176.38 468.503 176.965C467.76 178.428 464.497 183.265 462.607 185.673C460.582 188.305 453.043 197.328 446.653 204.753C440.149 212.358 440.509 211.908 437.247 217.285C434.456 221.898 432.611 224.215 430.676 225.543C430.136 225.925 428.606 226.623 427.323 227.095C424.578 228.085 423.993 228.468 420.505 231.483C415.554 235.803 406.846 242.98 399.037 249.213C390.599 255.963 387.786 258.505 384.478 262.42C382.205 265.098 379.753 268.27 379.753 268.54C379.753 268.653 380.158 268.72 380.63 268.72C381.868 268.72 382.903 269.598 382.903 270.633C382.903 271.263 382.723 271.555 381.755 272.365C381.125 272.905 380.36 273.76 380.045 274.3C379.73 274.818 379.19 275.403 378.853 275.583C377.862 276.1 377.547 276.82 377.277 279.318C376.962 282.265 376.535 283.773 375.815 284.56C375.23 285.213 375.072 285.213 373.114 284.875C372.732 284.83 372.642 284.965 372.552 285.82C372.439 286.743 372.169 287.328 371.247 288.835C370.729 289.668 371.022 293.695 371.742 295.72C372.867 298.825 373.452 300.94 373.452 301.84C373.452 303.618 372.169 304.945 370.437 304.945C369.356 304.945 368.164 304.09 365.216 301.21C363.506 299.523 363.011 298.848 361.953 296.845C359.298 291.76 356.823 284.178 355.9 278.373C355.675 276.865 355.36 275.763 353.785 270.678C352.232 265.638 351.647 261.183 352.21 258.708C352.457 257.65 352.75 257.538 355.45 257.493C356.373 257.47 357.588 257.358 358.15 257.223C358.713 257.088 360.423 256.908 361.976 256.818C363.528 256.728 365.756 256.413 366.926 256.143C368.096 255.895 369.311 255.603 369.627 255.535C369.964 255.468 372.732 252.88 376.557 249.078C381.328 244.353 383.331 242.193 384.433 240.595C395.977 224.08 401.265 218.748 411.931 212.83C413.349 212.065 413.709 211.75 414.114 210.895C414.384 210.333 415.779 207.453 417.219 204.483C420.145 198.453 422.665 193.683 426.58 186.775C428.043 184.21 429.528 181.488 429.888 180.7C430.248 179.913 431.081 178.36 431.733 177.258C432.386 176.133 433.039 175.03 433.174 174.783C433.331 174.535 433.871 173.68 434.389 172.893C434.906 172.105 435.334 171.228 435.334 170.958C435.334 170.71 435.131 169.585 434.884 168.483C433.354 161.418 432.701 155.365 433.084 151.81C433.601 147.018 435.041 143.823 439.722 137.208C446.315 127.915 448.07 124.788 449.938 119.208C451.423 114.708 453.516 105.843 454.011 101.883C454.168 100.758 454.416 99.2502 454.596 98.5077C455.226 95.7627 455.429 88.5177 455.159 77.2452C454.956 68.2227 454.866 66.5127 454.574 66.3102C454.394 66.1752 453.088 65.9502 451.671 65.7927C450.253 65.6352 448.138 65.3202 446.99 65.0727C445.843 64.8252 443.232 64.3752 441.185 64.0827C436.572 63.4077 434.501 62.8677 432.251 61.8327L430.496 61.0002L427.796 61.1352C424.6 61.2702 422.755 61.7202 418.862 63.2727C415.082 64.7802 410.716 65.6577 405.428 65.9952C403.268 66.1302 400.635 66.4002 399.577 66.5802C396.967 67.0302 392.692 68.4927 391.206 69.4152C390.531 69.8427 389.474 70.4727 388.844 70.8102C388.191 71.1477 387.584 71.6652 387.449 71.9127C385.446 76.2552 384.028 78.0552 381.44 79.4727C380.698 79.9002 379.37 80.9577 378.493 81.8577C376.76 83.6127 375.972 83.9952 375.14 83.4552C373.947 82.6677 374.352 80.0802 375.95 78.3702C376.67 77.6052 376.805 77.3352 376.535 77.2902C375.972 77.1777 374.915 78.0777 372.754 80.5527C371.562 81.9252 370.504 82.9153 370.167 83.0052C369.446 83.1852 368.636 82.5102 368.794 81.8577C369.176 80.3502 370.212 78.1677 370.977 77.2902C371.832 76.3227 372.124 75.6702 371.674 75.6702C371.562 75.6702 370.369 76.5252 369.041 77.5827C366.274 79.7202 365.486 80.0352 364.856 79.2702C364.631 79.0002 364.451 78.4152 364.451 77.9877C364.451 77.2902 364.698 76.9302 366.364 75.2427C367.421 74.1627 368.276 73.2177 368.276 73.1277C368.276 72.8127 367.669 72.9927 366.746 73.6452C365.824 74.2527 365.374 74.2977 364.766 73.8252C364.518 73.6452 364.811 72.0702 365.396 70.6077C365.801 69.5952 367.466 67.5027 368.344 66.8952C368.794 66.6027 369.289 66.0177 369.491 65.6352C369.672 65.2302 370.009 64.8702 370.234 64.8027C372.979 64.0602 375.117 63.4077 376.04 63.0252C376.647 62.7777 378.2 62.2377 379.46 61.8327C380.72 61.4277 382.048 60.8877 382.385 60.6402C383.938 59.5377 385.356 59.0202 386.706 59.0202C387.674 59.0202 388.596 58.8177 389.924 58.3227C390.959 57.9402 392.444 57.3777 393.232 57.0852C394.019 56.7702 395.932 55.9377 397.507 55.2177C399.06 54.4977 401.243 53.6202 402.345 53.2827C405.698 52.2702 413.799 49.5477 414.429 49.2102C415.419 48.7152 418.209 48.0177 421.045 47.5452C423.205 47.2077 424.375 47.1402 426.895 47.2527C430.653 47.3877 433.781 47.0277 438.934 45.8577C443.345 44.8452 445.167 44.7102 449.51 45.0927C453.763 45.4527 455.204 45.4077 457.386 44.8677C460.177 44.1477 462.517 43.8777 465.69 43.9002C469.47 43.9452 470.618 44.1702 473.633 45.5427C477.256 47.1852 482.184 48.3552 483.219 47.7927C483.804 47.4777 485.132 47.4777 486.235 47.7702C487.382 48.0852 487.765 47.8377 488.552 46.2852C489.115 45.2052 489.227 44.6202 489.362 42.5052C489.452 41.1327 489.587 39.8502 489.655 39.6702C489.722 39.4902 489.925 37.3977 490.105 35.0577C490.488 30.1752 490.645 29.5677 492.738 25.2702C493.908 22.8852 494.358 22.2327 495.618 20.9952C496.451 20.1852 497.711 19.1952 498.408 18.7677C500.704 17.4177 505.227 16.6077 507.229 17.1927ZM564.273 65.4327C564.273 65.6127 564.363 65.7702 564.476 65.7702C564.768 65.7702 564.971 65.4102 564.791 65.2302C564.543 64.9827 564.273 65.0952 564.273 65.4327ZM563.598 67.0527C563.598 67.3452 563.666 67.3452 563.936 67.1202C564.116 66.9627 564.273 66.6927 564.273 66.5127C564.273 66.2202 564.206 66.2202 563.936 66.4452C563.756 66.6027 563.598 66.8727 563.598 67.0527ZM562.248 69.1452C562.248 69.2577 562.338 69.3702 562.473 69.3702C562.586 69.3702 562.698 69.2577 562.698 69.1452C562.698 69.0102 562.586 68.9202 562.473 68.9202C562.338 68.9202 562.248 69.0102 562.248 69.1452ZM561.798 70.1577C561.798 70.3377 561.888 70.4952 562.023 70.4952C562.136 70.4952 562.248 70.3377 562.248 70.1577C562.248 69.9777 562.136 69.8202 562.023 69.8202C561.888 69.8202 561.798 69.9777 561.798 70.1577ZM379.91 270.925C379.078 271.645 379.528 271.848 380.81 271.308C381.463 271.038 381.553 270.903 381.328 270.655C381.058 270.295 380.54 270.385 379.91 270.925ZM374.69 281.365C374.082 282.693 373.992 283.233 374.397 283.48C374.757 283.705 375.185 283.008 375.455 281.725C375.68 280.713 375.635 280.195 375.342 280.195C375.275 280.195 374.982 280.735 374.69 281.365Z" fill="#EAF2F5"/>
<path d="M517.229 26.1927C517.589 26.3052 518.962 26.6427 520.267 26.9577C523.125 27.6327 525.15 28.5777 527.761 30.4677C531.204 32.9202 533.004 35.3727 533.251 37.9377C533.364 39.1752 533.319 39.5352 532.959 40.0527C532.576 40.6152 532.531 41.1327 532.531 45.0702V49.4802L531.609 51.3702C530.798 52.9902 530.708 53.3502 530.888 53.9352C531.496 55.8027 531.676 56.9052 531.451 57.4902C531.339 57.8502 531.159 58.1202 531.046 58.1202C530.843 58.1202 527.693 61.1577 527.693 61.3602C527.693 61.4052 527.536 62.2602 527.356 63.2277C527.176 64.1952 527.018 65.4327 526.996 65.9952C526.973 67.6377 526.546 68.7402 525.69 69.3027C524.678 69.9777 523.553 69.9552 521.055 69.2127C519.547 68.7627 518.535 68.6052 517.072 68.6052C515.137 68.5827 515.114 68.5827 514.304 69.3702C513.337 70.3152 512.504 71.9802 512.054 73.9827C511.559 76.0527 511.761 76.3677 514.529 78.0327C517.634 79.8777 518.805 80.7777 520.672 82.7352C524.205 86.4702 525.848 89.4852 527.266 94.9302C527.783 96.8877 528.301 98.7102 528.413 98.9352C528.548 99.1827 529.291 100.06 530.078 100.893C530.866 101.748 531.519 102.558 531.541 102.715C531.609 104.628 531.699 105.123 532.126 105.708C532.374 106.09 532.869 106.945 533.206 107.62C534.129 109.465 535.772 112.075 536.109 112.188C536.267 112.255 536.897 112.12 537.504 111.895C538.112 111.67 539.619 111.108 540.857 110.68C549.048 107.71 549.453 107.463 553.909 102.873C558.094 98.5752 560.097 96.1677 560.097 95.4477C560.097 95.1102 559.894 93.8502 559.624 92.6352C559.377 91.3977 559.084 88.9902 558.994 87.2577C558.814 84.0177 558.477 82.7577 557.531 81.9927C557.014 81.5652 557.081 80.4627 557.599 80.1702C558.792 79.5402 561.109 80.2152 562.189 81.4977C562.752 82.1727 563.247 83.4552 563.247 84.2877C563.247 84.8727 563.877 85.0077 564.417 84.5352C565.25 83.7927 566.848 81.1377 567.838 78.8202C569.705 74.5452 571.933 71.3952 573.103 71.3952C573.643 71.3952 574.206 72.0027 574.521 72.9252C574.836 73.8252 575.241 73.8477 575.871 72.9927C576.569 72.0477 577.446 71.7327 578.256 72.1152C579.314 72.6102 579.201 73.4652 577.784 76.3227C577.086 77.6952 576.524 78.9327 576.524 79.0677C576.524 79.6527 577.086 79.0227 578.076 77.3802C579.314 75.2652 580.056 74.5902 580.777 74.9727C581.789 75.5352 581.227 78.1902 579.494 80.9127C576.456 85.7502 576.164 86.3352 576.479 87.0552C576.996 88.1577 578.076 87.6627 581.069 84.9402C582.892 83.2752 583.522 83.0502 584.309 83.7927C585.03 84.4677 584.985 84.8052 583.994 86.1327C582.982 87.4827 580.912 89.1702 579.156 90.1152C577.581 90.9702 576.951 91.6902 574.161 95.8077C573.193 97.2253 571.483 99.2277 569.548 101.208C566.983 103.84 566.082 104.965 564.035 108.07C558.589 116.35 549.386 126.363 542.702 131.313C541.555 132.145 540.115 133.225 539.507 133.72C538.179 134.778 537.077 135.16 536.064 134.868C534.309 134.35 531.181 131.605 523.53 123.82C519.817 120.04 515.812 115.99 514.619 114.82C513.427 113.65 512.189 112.255 511.851 111.715C511.536 111.198 511.176 110.77 511.064 110.77C510.771 110.77 507.711 115.72 506.091 118.758C505.326 120.243 504.493 121.728 504.268 122.043C504.043 122.358 503.615 123.258 503.323 124.068C502.333 126.7 499.182 132.685 496.55 136.983C495.492 138.715 495.154 139.818 494.502 144.07C493.872 148.008 493.804 149.2 494.232 149.785C494.592 150.28 499.497 151.81 502.31 152.283C504.853 152.733 508.251 153.813 512.729 155.613C514.574 156.333 517.815 157.638 519.93 158.47C533.094 163.713 539.597 167.493 542.207 171.408C543.58 173.5 543.962 174.873 543.962 177.708C543.94 180.768 543.332 183.063 541.532 186.73C538.854 192.243 526.996 209.095 517.139 221.358C514.282 224.935 513.247 226.398 512.189 228.445C510.681 231.393 508.566 236.185 508.566 236.658C508.566 237.288 509.016 236.995 509.781 235.825C510.996 233.935 513.877 231.438 514.327 231.888C514.642 232.203 514.147 233.17 513.517 233.508C512.414 234.07 509.691 238.683 509.691 239.965C509.691 240.955 510.321 241.855 511.401 242.418C512.526 242.98 513.044 242.935 515.767 241.968C517.589 241.315 520.222 240.775 520.537 240.955C520.605 241 520.627 241.225 520.56 241.45C520.492 241.765 519.885 242.035 518.422 242.485C517.297 242.823 515.857 243.363 515.227 243.678C514.439 244.083 513.742 244.263 512.999 244.24C511.649 244.218 511.649 244.465 512.841 246.468C513.472 247.48 513.832 248.403 513.989 249.37C514.259 251.08 514.619 251.823 515.834 253.128C517.409 254.838 521.707 257.178 525.06 258.145C527.806 258.933 528.368 259.428 528.368 260.98C528.368 262.218 527.918 263.118 526.951 263.86C525.983 264.603 524.543 264.873 520.425 265.053C517.117 265.188 515.699 265.03 512.931 264.198C512.549 264.085 512.076 263.995 511.874 263.995C511.671 263.995 511.109 263.793 510.636 263.545C510.164 263.298 509.039 262.893 508.161 262.645C507.283 262.398 506.023 261.97 505.371 261.678C504.718 261.385 503.12 260.823 501.815 260.418C499.025 259.563 494.119 257.808 493.197 257.313C492.837 257.133 491.262 256.548 489.709 256.008C484.893 254.343 485.411 254.59 482.598 252.655C481.338 251.778 480.033 250.068 480.303 249.618C480.393 249.505 481.135 248.493 481.968 247.368C482.823 246.243 483.993 244.443 484.601 243.385C485.838 241.158 489.439 236.86 490.654 236.14C491.127 235.87 491.869 235.015 492.499 234.025C493.084 233.125 494.074 231.618 494.704 230.695C495.312 229.773 496.392 227.95 497.09 226.645C498.71 223.675 500.263 220.908 500.938 219.895C501.23 219.468 502.783 216.475 504.403 213.258C507.508 207.093 507.306 207.655 508.814 200.995C509.714 196.945 512.594 191.41 516.037 187.135C517.004 185.943 517.725 184.863 517.612 184.75C517.522 184.66 516.667 184.75 515.744 184.998C513.246 185.628 509.736 186.1 506.203 186.28C501.185 186.505 491.059 185.853 482.013 184.705C480.348 184.503 479.56 184.48 479.358 184.638C479.178 184.773 478.795 185.38 478.503 185.965C477.76 187.428 474.497 192.265 472.607 194.673C470.582 197.305 463.043 206.328 456.653 213.753C450.149 221.358 450.509 220.908 447.247 226.285C444.456 230.898 442.611 233.215 440.676 234.543C440.136 234.925 438.606 235.623 437.323 236.095C434.578 237.085 433.993 237.468 430.505 240.483C425.554 244.803 416.846 251.98 409.037 258.213C400.599 264.963 397.786 267.505 394.478 271.42C392.205 274.098 389.753 277.27 389.753 277.54C389.753 277.653 390.158 277.72 390.63 277.72C391.868 277.72 392.903 278.598 392.903 279.633C392.903 280.263 392.723 280.555 391.755 281.365C391.125 281.905 390.36 282.76 390.045 283.3C389.73 283.818 389.19 284.403 388.853 284.583C387.862 285.1 387.547 285.82 387.277 288.318C386.962 291.265 386.535 292.773 385.815 293.56C385.23 294.213 385.072 294.213 383.114 293.875C382.732 293.83 382.642 293.965 382.552 294.82C382.439 295.743 382.169 296.328 381.247 297.835C380.729 298.668 381.022 302.695 381.742 304.72C382.867 307.825 383.452 309.94 383.452 310.84C383.452 312.618 382.169 313.945 380.437 313.945C379.356 313.945 378.164 313.09 375.216 310.21C373.506 308.523 373.011 307.848 371.953 305.845C369.298 300.76 366.823 293.178 365.9 287.373C365.675 285.865 365.36 284.763 363.785 279.678C362.232 274.638 361.647 270.183 362.21 267.708C362.457 266.65 362.75 266.538 365.45 266.493C366.373 266.47 367.588 266.358 368.15 266.223C368.713 266.088 370.423 265.908 371.976 265.818C373.528 265.728 375.756 265.413 376.926 265.143C378.096 264.895 379.311 264.603 379.627 264.535C379.964 264.468 382.732 261.88 386.557 258.078C391.328 253.353 393.331 251.193 394.433 249.595C405.977 233.08 411.265 227.748 421.931 221.83C423.349 221.065 423.709 220.75 424.114 219.895C424.384 219.333 425.779 216.453 427.219 213.483C430.145 207.453 432.665 202.683 436.58 195.775C438.043 193.21 439.528 190.488 439.888 189.7C440.248 188.913 441.081 187.36 441.733 186.258C442.386 185.133 443.039 184.03 443.174 183.783C443.331 183.535 443.871 182.68 444.389 181.893C444.906 181.105 445.334 180.228 445.334 179.958C445.334 179.71 445.131 178.585 444.884 177.483C443.354 170.418 442.701 164.365 443.084 160.81C443.601 156.018 445.041 152.823 449.722 146.208C456.315 136.915 458.07 133.788 459.938 128.208C461.423 123.708 463.516 114.843 464.011 110.883C464.168 109.758 464.416 108.25 464.596 107.508C465.226 104.763 465.429 97.5177 465.159 86.2452C464.956 77.2227 464.866 75.5127 464.574 75.3102C464.394 75.1752 463.088 74.9502 461.671 74.7927C460.253 74.6352 458.138 74.3202 456.99 74.0727C455.843 73.8252 453.232 73.3752 451.185 73.0827C446.572 72.4077 444.501 71.8677 442.251 70.8327L440.496 70.0002L437.796 70.1352C434.6 70.2702 432.755 70.7202 428.862 72.2727C425.082 73.7802 420.716 74.6577 415.428 74.9952C413.268 75.1302 410.635 75.4002 409.577 75.5802C406.967 76.0302 402.692 77.4927 401.206 78.4152C400.531 78.8427 399.474 79.4727 398.844 79.8102C398.191 80.1477 397.584 80.6652 397.449 80.9127C395.446 85.2552 394.028 87.0552 391.44 88.4727C390.698 88.9002 389.37 89.9577 388.493 90.8577C386.76 92.6127 385.972 92.9952 385.14 92.4552C383.947 91.6677 384.352 89.0802 385.95 87.3702C386.67 86.6052 386.805 86.3352 386.535 86.2902C385.972 86.1777 384.915 87.0777 382.754 89.5527C381.562 90.9252 380.504 91.9153 380.167 92.0052C379.446 92.1852 378.636 91.5102 378.794 90.8577C379.176 89.3502 380.212 87.1677 380.977 86.2902C381.832 85.3227 382.124 84.6702 381.674 84.6702C381.562 84.6702 380.369 85.5252 379.041 86.5827C376.274 88.7202 375.486 89.0352 374.856 88.2702C374.631 88.0002 374.451 87.4152 374.451 86.9877C374.451 86.2902 374.698 85.9302 376.364 84.2427C377.421 83.1627 378.276 82.2177 378.276 82.1277C378.276 81.8127 377.669 81.9927 376.746 82.6452C375.824 83.2527 375.374 83.2977 374.766 82.8252C374.518 82.6452 374.811 81.0702 375.396 79.6077C375.801 78.5952 377.466 76.5027 378.344 75.8952C378.794 75.6027 379.289 75.0177 379.491 74.6352C379.672 74.2302 380.009 73.8702 380.234 73.8027C382.979 73.0602 385.117 72.4077 386.04 72.0252C386.647 71.7777 388.2 71.2377 389.46 70.8327C390.72 70.4277 392.048 69.8877 392.385 69.6402C393.938 68.5377 395.356 68.0202 396.706 68.0202C397.674 68.0202 398.596 67.8177 399.924 67.3227C400.959 66.9402 402.444 66.3777 403.232 66.0852C404.019 65.7702 405.932 64.9377 407.507 64.2177C409.06 63.4977 411.243 62.6202 412.345 62.2827C415.698 61.2702 423.799 58.5477 424.429 58.2102C425.419 57.7152 428.209 57.0177 431.045 56.5452C433.205 56.2077 434.375 56.1402 436.895 56.2527C440.653 56.3877 443.781 56.0277 448.934 54.8577C453.345 53.8452 455.167 53.7102 459.51 54.0927C463.763 54.4527 465.204 54.4077 467.386 53.8677C470.177 53.1477 472.517 52.8777 475.69 52.9002C479.47 52.9452 480.618 53.1702 483.633 54.5427C487.256 56.1852 492.184 57.3552 493.219 56.7927C493.804 56.4777 495.132 56.4777 496.235 56.7702C497.382 57.0852 497.765 56.8377 498.552 55.2852C499.115 54.2052 499.227 53.6202 499.362 51.5052C499.452 50.1327 499.587 48.8502 499.655 48.6702C499.722 48.4902 499.925 46.3977 500.105 44.0577C500.488 39.1752 500.645 38.5677 502.738 34.2702C503.908 31.8852 504.358 31.2327 505.618 29.9952C506.451 29.1852 507.711 28.1952 508.408 27.7677C510.704 26.4177 515.227 25.6077 517.229 26.1927ZM574.273 74.4327C574.273 74.6127 574.363 74.7702 574.476 74.7702C574.768 74.7702 574.971 74.4102 574.791 74.2302C574.543 73.9827 574.273 74.0952 574.273 74.4327ZM573.598 76.0527C573.598 76.3452 573.666 76.3452 573.936 76.1202C574.116 75.9627 574.273 75.6927 574.273 75.5127C574.273 75.2202 574.206 75.2202 573.936 75.4452C573.756 75.6027 573.598 75.8727 573.598 76.0527ZM572.248 78.1452C572.248 78.2577 572.338 78.3702 572.473 78.3702C572.586 78.3702 572.698 78.2577 572.698 78.1452C572.698 78.0102 572.586 77.9202 572.473 77.9202C572.338 77.9202 572.248 78.0102 572.248 78.1452ZM571.798 79.1577C571.798 79.3377 571.888 79.4952 572.023 79.4952C572.136 79.4952 572.248 79.3377 572.248 79.1577C572.248 78.9777 572.136 78.8202 572.023 78.8202C571.888 78.8202 571.798 78.9777 571.798 79.1577ZM389.91 279.925C389.078 280.645 389.528 280.848 390.81 280.308C391.463 280.038 391.553 279.903 391.328 279.655C391.058 279.295 390.54 279.385 389.91 279.925ZM384.69 290.365C384.082 291.693 383.992 292.233 384.397 292.48C384.757 292.705 385.185 292.008 385.455 290.725C385.68 289.713 385.635 289.195 385.342 289.195C385.275 289.195 384.982 289.735 384.69 290.365Z" fill="#D1DEDF"/>
</g>
</svg>
