<svg width="243" height="240" viewBox="0 0 243 240" fill="none" xmlns="http://www.w3.org/2000/svg">
<path d="M90.6557 92.4622L77.2163 100.36L70.4618 104.257L67.0787 106.199L65.393 107.17C65.1256 107.323 64.8 107.498 64.5327 107.756C64.2536 108.013 64.0444 108.376 63.9746 108.75C63.7654 114.086 63.7072 119.223 63.5793 124.476L63.4747 132.304L63.4166 136.224L63.3817 139.161C63.3817 139.489 63.4631 139.875 63.5096 140.238L63.6258 141.115L64.428 140.706C65.0209 140.402 65.6371 140.097 66.2184 139.77L67.9158 138.752L71.2988 136.704L78.065 132.62L84.808 128.49L88.1794 126.419L89.8651 125.377C90.3883 125.038 91.0858 124.71 91.4927 124.02C91.9229 123.341 91.8531 122.534 91.8415 121.914L91.8066 115.958L91.7485 108.013C91.7253 102.712 91.8415 97.4234 91.7136 92.1229V92.1112H91.702C91.3416 92.2516 90.9696 92.2867 90.6557 92.4622ZM90.6557 92.4622C90.9696 92.2867 91.3416 92.2516 91.6904 92.1463H91.6788C91.7369 97.4351 91.5741 102.736 91.5276 108.025L91.2021 121.926C91.1905 122.604 91.2021 123.213 90.8882 123.681C90.5975 124.149 90.0395 124.418 89.4583 124.757L87.7493 125.74L84.3197 127.706L77.4837 131.673L67.2647 137.675L65.5557 138.681L63.8467 139.582L64.7535 140.05C64.7187 139.758 64.6373 139.512 64.6257 139.185V136.248L64.6373 132.328L64.6489 124.488C64.6373 119.293 64.5443 113.98 64.5791 108.879C64.6605 108.329 65.1023 107.99 65.672 107.662L67.3345 106.644L70.6478 104.596L77.2977 100.513L90.6557 92.4622Z" fill="#E2EBF0"/>
<path d="M91.6666 88.8348L91.5968 73.3894L91.6085 65.6667L91.6201 61.8053C91.6085 61.1618 91.6666 60.5299 91.5736 59.8395C91.4922 59.1492 91.1202 58.4471 90.5738 58.0025C86.1676 55.1942 81.8196 52.62 77.4367 49.9053L67.5432 43.9729L65.8923 42.99L64.1601 42.0773L63.2998 41.621L63.2533 42.6039L63.1487 44.6281L63.2533 50.6074L63.3812 58.5758L63.5556 66.5443L63.6718 70.546L63.7183 72.5352C63.7183 73.1905 63.7648 73.9744 64.1717 74.6414C64.5554 75.3201 65.2413 75.7179 65.7993 76.0221L67.5199 77.005L70.9612 78.9825L77.8436 82.9258L91.562 90.9176L91.5736 90.9293V90.9059L91.6666 88.8348ZM91.6666 88.8348L91.562 90.9176L91.5852 90.9059L77.9715 82.7385L71.2053 78.5847L67.8222 76.5019L66.1248 75.4605C65.5552 75.1211 65.0553 74.7935 64.7879 74.2787C64.5089 73.7872 64.474 73.1788 64.4973 72.5235L64.5321 66.5443V58.5641L64.4973 50.584L64.4624 44.6047L64.5437 42.6507L63.6369 43.1772L65.3111 44.0314L76.9368 50.818C81.3546 53.3688 85.9002 55.8963 90.225 58.4588C90.69 58.8215 90.969 59.313 91.062 59.9097C91.1551 60.4948 91.1202 61.1618 91.1551 61.7936L91.2481 65.655L91.4225 73.3777L91.6666 88.8348Z" fill="#E2EBF0"/>
<path d="M65.2525 106.27L78.3663 98.8861L84.9465 95.2354L88.2365 93.4217L89.8874 92.5091L91.4801 91.4677L91.8754 91.2102L77.785 82.9259L67.473 76.9934L65.7524 76.0105C65.2292 75.718 64.5084 75.2383 63.6365 75.2266C62.7529 75.2032 61.9973 75.6595 61.4741 75.9637L59.7535 76.9583L56.3239 78.9358L49.4647 82.9025L42.6288 86.9042L37.5018 89.9231C36.9322 90.2741 36.3974 90.6837 35.8394 91.0581L35.4092 91.3506L35.851 91.6432C37.0368 92.4154 38.2459 93.0824 39.4666 93.7494L50.4413 99.752L61.3578 105.86C61.9624 106.188 62.5553 106.597 63.2528 106.714C63.9736 106.878 64.6712 106.621 65.2525 106.27ZM65.2525 106.27C64.6595 106.609 63.962 106.855 63.2645 106.714C62.5786 106.597 61.9973 106.176 61.3927 105.848L57.7771 103.765L50.5459 99.6116L43.3496 95.3875L39.7572 93.2696C38.5482 92.5793 37.3507 91.8655 36.2346 91.0815V91.6666C36.781 91.3156 37.3158 90.9411 37.8855 90.6135L39.6177 89.654L43.0938 87.7467L50.0228 83.8971L60.3813 78.0699L62.1135 77.0987C62.718 76.7477 63.1482 76.502 63.6249 76.5137C64.0899 76.5137 64.5549 76.7711 65.1595 77.1221L66.8917 78.0933L77.2735 83.8854L91.1662 91.5028L91.143 90.9996L89.62 92.0644L88.004 93.0239L78.2733 98.7457L65.2525 106.27Z" fill="#E2EBF0"/>
<path d="M90.3997 26.9597L77.2161 34.3665L70.6011 38.0289L67.2877 39.8543L65.6369 40.7669L64.0209 41.7849L63.614 42.0424L77.716 50.3267L88.0397 56.2592L89.7603 57.2421C90.3067 57.5463 90.9461 58.0026 91.8529 58.0728C92.783 58.1313 93.5154 57.6048 94.0269 57.324L95.7475 56.3294L99.1771 54.3402L106.048 50.3735L112.895 46.3601L116.313 44.3475C117.453 43.6571 118.604 43.0604 119.708 42.2296L120.069 41.9488L119.72 41.6679C118.592 40.7435 117.348 40.1585 116.139 39.4798L105.188 33.4772L97.9215 29.4169L94.2943 27.3809C93.6898 27.065 93.1085 26.632 92.4109 26.5033C91.6785 26.3629 90.981 26.6203 90.3997 26.9597ZM90.3997 26.9597C90.9926 26.6203 91.6901 26.3746 92.3761 26.5267C93.062 26.6671 93.6316 27.1001 94.2362 27.4277L105.06 33.6527L115.837 39.9713C117.023 40.6733 118.278 41.3286 119.278 42.2179L119.29 41.6562C118.243 42.3934 117.034 42.9901 115.895 43.6337L112.419 45.5527L105.478 49.4023L95.1081 55.2295L93.3759 56.2007C92.7597 56.5517 92.3295 56.8442 91.8994 56.7974C91.4576 56.7857 90.9461 56.4815 90.3532 56.1539L88.621 55.1827L78.2275 49.3906L64.3232 41.7615L64.3348 42.2647L65.8926 41.2233L70.7754 38.3448L77.2975 34.5186L90.3997 26.9597Z" fill="#E2EBF0"/>
<path d="M119.885 109.686C119.897 109.008 119.746 108.259 119.199 107.791C118.664 107.346 118.037 107.053 117.455 106.679L106.806 100.29L96.2151 93.7962C95.0293 93.0824 93.9016 92.3218 92.6228 91.7017L92.1694 91.4793L92.1345 91.9825C92.088 92.6495 91.9834 93.3398 91.9834 93.9951L91.9718 95.9843L91.9601 99.9743L91.9485 107.943L91.9834 115.911L92.0183 121.89C92.0299 122.499 91.9485 123.33 92.4019 124.149C92.6228 124.547 92.9599 124.851 93.2855 125.061L94.169 125.588L95.878 126.583L106.155 132.585L116.479 138.483C117.641 139.126 118.734 139.84 119.99 140.378L120.397 140.554L120.42 140.121C120.478 138.834 120.455 137.57 120.408 136.306L120.315 132.503L120.141 124.898L119.885 109.686ZM119.885 109.686L119.955 124.898L119.943 132.503L119.932 136.306C119.943 137.57 119.92 138.845 119.827 140.086L120.257 139.828C119.095 139.302 117.979 138.529 116.851 137.862L106.702 131.649L99.9005 127.565L96.4942 125.529L94.7968 124.511L93.983 124.02C93.7621 123.868 93.5994 123.704 93.4947 123.517C93.2738 123.142 93.2855 122.581 93.2855 121.879L93.1808 115.911L93.0529 107.943L92.8669 99.9743L92.7623 95.996L92.7158 94.0068C92.7042 93.3398 92.7856 92.708 92.8088 92.0527L92.3205 92.3335C93.5529 92.8835 94.7271 93.6323 95.9361 94.2993L106.713 100.477L113.863 104.655L117.432 106.749C118.013 107.112 118.653 107.405 119.188 107.837C119.734 108.259 119.885 109.008 119.885 109.686Z" fill="#E2EBF0"/>
<path d="M92.3557 90.7418C93.5647 90.2269 94.7273 89.56 95.8666 88.9047L106.19 83.0074L116.479 77.0398L118.188 76.0452C118.711 75.7176 119.455 75.4134 119.897 74.6645C120.339 73.9039 120.257 73.0849 120.281 72.4764L120.316 70.4872L120.595 46.5936C120.606 45.2597 120.664 43.9609 120.536 42.5568L120.455 41.6675L119.63 42.0302C118.339 42.5919 117.258 43.3173 116.119 43.9843L112.724 46.0203L99.1451 54.1876L95.7504 56.2353L94.0646 57.265C93.5531 57.6043 92.8091 57.932 92.3789 58.6808C91.9371 59.4414 92.0534 60.2605 92.0418 60.8689V62.8581L92.0767 74.8049L92.158 82.7734L92.1929 86.7517C92.2162 88.0739 92.1929 89.4313 92.3557 90.7418ZM92.3557 90.7418C92.251 89.4079 92.344 88.0973 92.3789 86.7634L92.6928 74.8166L92.937 62.8698L92.9718 60.8806C92.9835 60.1903 92.9602 59.5935 93.216 59.184C93.4601 58.7627 93.9833 58.4936 94.5762 58.1543L96.2852 57.1597L99.7031 55.1471L116.758 45.0608C117.897 44.3938 119.037 43.6684 120.176 43.1769L119.269 42.6387C119.409 43.8907 119.362 45.2363 119.351 46.5702L119.327 50.5486L119.258 66.4855L119.246 70.4638V72.453C119.246 73.1434 119.292 73.7284 119.037 74.1497C118.816 74.5826 118.281 74.8634 117.7 75.2262L116.002 76.2558L112.619 78.3269L105.853 82.4574L99.1102 86.6347L95.7387 88.7292C94.6459 89.4547 93.5647 90.1684 92.3557 90.7418Z" fill="#E2EBF0"/>
<path d="M93.3195 155.964L106.573 148.51L116.548 142.999C117.652 142.379 118.78 141.829 119.838 141.057L120.187 140.799L119.838 140.565C119.28 140.191 118.745 139.769 118.175 139.43L116.466 138.424L113.037 136.423L106.189 132.409L95.8655 126.477L94.1449 125.494C93.6102 125.202 92.9359 124.71 92.0174 124.698C91.564 124.698 91.1455 124.827 90.7851 125.003C90.4247 125.19 90.1922 125.33 89.8899 125.506L77.8573 132.456L71.0097 136.47L67.5918 138.482C66.4524 139.161 65.3015 139.781 64.2086 140.624L63.7785 140.951L64.2319 141.197L78.7176 149.13L89.5295 155.168C90.134 155.496 90.7153 155.87 91.3431 156.139C91.9825 156.432 92.7382 156.326 93.3195 155.964ZM93.3195 155.964C92.7382 156.326 91.9825 156.42 91.3547 156.128C90.7269 155.847 90.1573 155.461 89.5528 155.133L85.972 153.085L78.8106 148.978L71.684 144.813L64.569 140.624L64.5923 141.197C65.627 140.448 66.8244 139.84 67.9754 139.196L71.4515 137.277L78.392 133.427L85.3094 129.531L90.5061 126.617L91.3315 126.149C91.564 126.032 91.7849 125.974 92.0058 125.962C92.436 125.95 92.9242 126.231 93.5288 126.571L95.261 127.542L105.654 133.334L116.106 139.044L117.85 139.992C118.431 140.319 118.943 140.694 119.501 141.045V140.553C118.536 141.314 117.396 141.911 116.315 142.566L113.037 144.497L106.48 148.346L93.3195 155.964Z" fill="#E2EBF0"/>
<path d="M75.2414 146.743L55.6055 158.292L40.8176 166.834L38.353 168.25C37.9577 168.484 37.4926 168.73 37.0974 169.104C36.6905 169.478 36.3882 170.017 36.2836 170.555C35.9697 178.348 35.8999 185.86 35.7023 193.524L35.5511 204.968L35.4698 210.69L35.4349 213.545L35.4116 214.972C35.4116 215.452 35.5395 216.025 35.5977 216.54L35.7604 217.827L36.923 217.219C37.7949 216.762 38.6901 216.33 39.5272 215.85L42.0034 214.364L56.8262 205.412L66.6732 199.386L74.0439 194.846C74.8112 194.355 75.8227 193.863 76.4272 192.869C77.0434 191.874 76.9503 190.704 76.9387 189.792L76.9155 186.89L76.8806 181.086L76.7992 169.478C76.776 161.744 76.9387 154.01 76.7527 146.275V146.263H76.7411C76.2412 146.427 75.6948 146.474 75.2414 146.743ZM75.2414 146.743C75.7064 146.486 76.2412 146.439 76.7527 146.287L76.7411 146.275C76.8341 154.01 76.5783 161.744 76.5202 169.478L76.2528 181.074L76.1249 186.878L76.0552 189.78C76.0436 190.774 76.0552 191.664 75.6018 192.331C75.1716 193.021 74.3578 193.419 73.5091 193.91L66.0105 198.228L56.0124 204.008L38.5971 214.247L36.0975 215.569L37.4229 216.248C37.3764 215.826 37.2485 215.464 37.2369 214.984V213.556L37.2485 210.69L37.2834 193.524C37.2601 185.942 37.1322 178.172 37.1787 170.73C37.295 169.923 37.9461 169.42 38.7831 168.952L46.0608 164.47L55.7683 158.514L75.2414 146.743Z" fill="#E2EBF0"/>
<path d="M76.7144 141.431L76.6097 118.871L76.633 107.592L76.6562 101.952C76.633 101.004 76.726 100.091 76.5981 99.0732C76.4819 98.0669 75.9354 97.0372 75.1333 96.3937C68.7042 92.2866 62.345 88.5189 55.9508 84.5756L41.5116 75.9051L39.1051 74.4659L36.5707 73.1319L35.3151 72.4767L35.2454 73.9159L35.0942 76.8763L35.4198 97.2596L35.6755 108.902L35.8267 114.729L35.8964 117.643C35.9081 118.602 35.9662 119.749 36.5475 120.72C37.1171 121.703 38.1053 122.288 38.9191 122.745L46.4642 127.062L56.5205 132.831L76.5516 144.509L76.5749 144.52V144.485L76.7144 141.431ZM76.7144 141.431L76.5516 144.473L76.5749 144.462L56.6949 132.527L39.3958 121.902C38.5587 121.411 37.8263 120.919 37.431 120.182C37.0241 119.457 36.9776 118.579 37.0009 117.608L37.0358 108.867L37.0474 97.2128L36.966 79.7313L36.9427 76.8178L37.059 73.9627L35.7337 74.735L38.1867 75.987L40.6165 77.4028L45.4644 80.2345L55.1719 85.8861C61.6242 89.6071 68.2741 93.2929 74.5752 97.0489C75.2495 97.5755 75.6681 98.301 75.8076 99.1668C75.9471 100.009 75.9006 100.992 75.9471 101.917L76.0866 107.557L76.354 118.836L76.7144 141.431Z" fill="#E2EBF0"/>
<path d="M66.6387 150.347L73.7304 146.158L75.3929 145.011L55.6989 134.211L40.5273 125.752L38.0045 124.336C37.121 123.833 36.4467 123.446 35.7607 123.458C35.0748 123.446 34.4354 123.797 33.5519 124.324L15.8924 134.246L5.76634 139.863L0.697525 142.648L0 143.034V141.688L0.116241 141.618L5.10368 138.681L15.0902 132.831L32.6334 122.698C33.4007 122.253 34.5052 121.574 35.7956 121.621C37.0744 121.633 38.1208 122.335 38.8997 122.768L46.4332 127.085L56.4662 132.854L76.4276 144.59L77.0321 144.941L76.4508 145.316L74.1257 146.825L71.7191 148.147L66.9061 150.804L57.2916 156.128L38.144 166.904L57.1637 155.905L66.6387 150.347Z" fill="#E2EBF0"/>
<path d="M73.9493 3.0188L54.7088 14.3337L45.0478 19.9269L40.2115 22.7117L37.7817 24.1158C36.9446 24.5839 36.1308 25.5083 35.9913 26.5848C35.7007 34.2022 35.6193 41.5739 35.41 49.0742C35.317 56.5746 35.1194 63.9814 35.1543 71.5403V72.0084L35.5379 72.2541L35.9448 72.5232L35.9913 72.5583H36.0146C36.0378 72.5583 36.1076 72.6168 36.375 72.6753C36.4563 72.687 36.5493 72.6987 36.7121 72.6753C36.8051 72.6636 36.8865 72.6402 36.9795 72.5934L37.0144 72.5817L37.0958 72.5466L38.1072 72.0552C38.5839 71.8445 38.9559 71.5871 39.386 71.3414L41.8507 69.8554L56.6386 60.904C63.2188 56.9491 69.7292 52.8537 76.2861 48.8285L76.5419 48.6764V48.3956L76.4024 25.0636L76.4605 1.73169V1.70828L76.4373 1.71998L73.9493 3.0188ZM73.9493 3.0188L76.4838 1.73169L76.4605 1.71998L76.1001 25.0402L75.5421 48.3605L75.7978 47.9158C69.1479 51.7655 62.4631 55.5449 55.8481 59.4648L40.9555 68.2406L38.4792 69.7032C38.0723 69.9373 37.6538 70.2298 37.2469 70.4053L36.6307 70.7095L36.3285 70.8616L36.2471 70.8968C36.3285 70.8616 36.3982 70.8382 36.468 70.8265C36.5959 70.8031 36.6656 70.8148 36.7121 70.8265C36.8632 70.8616 36.8167 70.8617 36.7354 70.8148L36.8168 70.85L36.6191 70.7212L37.0144 71.435C36.8865 64.0516 37.0144 56.5044 36.9911 49.0508C36.9679 41.609 36.8516 34.0267 36.8865 26.6901C37.026 25.0051 39.1186 24.3382 40.6067 23.2968L54.8715 14.5327L73.9493 3.0188Z" fill="#E2EBF0"/>
<path d="M74.8542 51.0636L55.5904 61.887L45.9294 67.2344L38.6749 71.2362L36.3149 72.7222L35.7104 73.0967L56.3112 85.2073L73.8893 95.2936C74.6915 95.7266 75.6215 96.4052 76.9469 96.4988C78.3071 96.5924 79.3766 95.8202 80.1207 95.3989L82.6319 93.948L97.6756 85.2424L107.674 79.3802L112.661 76.4315C114.312 75.4252 116.009 74.5476 117.614 73.3424L118.148 72.9446L117.637 72.5233C115.986 71.1777 114.172 70.3118 112.405 69.3289L96.4083 60.5648L85.794 54.6324L80.4927 51.6603C79.5975 51.1923 78.7605 50.5721 77.749 50.3732C76.7376 50.1743 75.7146 50.5487 74.8542 51.0636ZM74.8542 51.0636C75.7262 50.5604 76.7492 50.2094 77.749 50.4317C78.7488 50.6423 79.5743 51.2625 80.4695 51.7422L96.2805 60.8339L112.01 70.0661C113.754 71.0958 115.579 72.0553 117.044 73.3424L117.067 72.5233C115.544 73.6115 113.777 74.4657 112.103 75.4135L107.023 78.2101L96.885 83.8383L81.7367 92.3684L79.2139 93.7842C78.3071 94.299 77.6909 94.7203 77.0515 94.6618C76.4121 94.6501 75.6564 94.2054 74.7845 93.7257L57.0669 83.85L36.7451 72.7105L36.7683 73.4477L39.047 71.9149L41.4303 70.5107L46.1852 67.7025L55.7183 62.1094L74.8542 51.0636Z" fill="#E2EBF0"/>
<path d="M117.933 171.889C117.956 170.894 117.735 169.794 116.933 169.115C116.143 168.472 115.224 168.039 114.376 167.489L98.8203 158.151L83.3581 148.674C81.6258 147.632 79.975 146.521 78.1032 145.608L77.4406 145.292L77.3824 146.017C77.3127 147 77.1615 147.995 77.1615 148.966L77.1267 157.695L77.115 169.338L77.1732 180.98L77.208 186.796L77.2197 189.709C77.2429 190.61 77.1267 191.815 77.7777 192.997C78.1032 193.571 78.5915 194.015 79.0682 194.331L80.3586 195.092L97.8553 205.318L112.946 213.942C114.643 214.878 116.236 215.931 118.073 216.704L118.665 216.949L118.7 216.317C118.793 214.445 118.758 212.585 118.689 210.748L118.549 205.201L118.293 194.097L117.933 171.889ZM117.933 171.889L118.038 194.097L118.014 205.201L117.991 210.759C118.003 212.608 117.98 214.469 117.84 216.282L118.468 215.908C116.759 215.136 115.143 214.001 113.492 213.029L98.6691 203.949L88.7292 197.994L83.765 195.01L81.277 193.524L80.0912 192.798C79.7773 192.576 79.5332 192.342 79.3821 192.073C79.0682 191.523 79.0798 190.704 79.0682 189.686L78.731 169.314L78.4636 157.672L78.3125 151.856L78.2427 148.943C78.2195 147.971 78.3358 147.035 78.3823 146.088L77.6731 146.497C79.4634 147.293 81.1957 148.393 82.9512 149.376L98.6924 158.397L114.352 167.559C115.201 168.097 116.131 168.519 116.922 169.15C117.7 169.806 117.945 170.894 117.933 171.889Z" fill="#E2EBF0"/>
<path d="M77.7167 144.216C79.4721 143.467 81.1928 142.484 82.8436 141.536L97.9222 132.924L115.454 122.744C116.221 122.276 117.302 121.82 117.953 120.72C118.604 119.62 118.476 118.427 118.511 117.526L118.569 114.612L118.988 79.7193C119 77.777 119.093 75.8697 118.895 73.8337L118.779 72.5232L117.581 73.0497C115.698 73.8688 114.117 74.9219 112.454 75.9048L82.6692 93.8074L80.1929 95.3169C79.4373 95.8083 78.3677 96.2881 77.7283 97.388C77.0889 98.5113 77.2516 99.6931 77.2284 100.582L77.24 103.496L77.2865 120.942L77.4609 138.389C77.5074 140.331 77.4841 142.308 77.7167 144.216ZM77.7167 144.216C77.5655 142.262 77.6934 140.354 77.7515 138.4L78.2049 120.954L78.6118 100.594C78.6351 99.5878 78.5886 98.7102 78.9722 98.1251C79.321 97.505 80.0999 97.1188 80.9603 96.6157L83.4598 95.1648L88.4472 92.2278L113.361 77.5078C115.024 76.5367 116.686 75.4718 118.349 74.7581L117.023 73.9741C117.221 75.7995 117.151 77.777 117.151 79.7076L116.988 114.612L117 117.526C117 118.544 117.058 119.398 116.698 120.006C116.372 120.638 115.593 121.048 114.733 121.574L112.257 123.084L97.4339 132.14L82.6692 141.302C81.0649 142.344 79.4838 143.373 77.7167 144.216Z" fill="#E2EBF0"/>
<path d="M118.003 69.4926L117.899 46.8627L117.922 35.5478L117.945 29.8961C117.933 28.9367 117.98 28.0474 117.922 27.0294C117.887 26.0348 117.364 24.9115 116.515 24.303L97.2861 12.4732L82.8121 3.76764C81.2194 2.78475 79.6034 1.82526 77.8596 0.982779L76.5923 0.374325L76.5342 1.76675L76.4063 4.72713L76.7319 25.0753L76.9876 36.7062L77.1388 42.5216L77.2085 45.4235C77.2085 46.383 77.2899 47.5297 77.8828 48.4892C78.4641 49.4603 79.4406 50.0337 80.2661 50.4783L97.8442 60.5413L117.84 72.1955L117.864 72.2072V72.1838L118.003 69.4926ZM118.003 69.4926L117.829 72.1838L117.852 72.1721L98.0069 60.2604L88.1367 54.211L83.2074 51.1804L80.7428 49.671C79.9057 49.1795 79.1733 48.6881 78.7664 47.9626C78.3478 47.2371 78.3013 46.3713 78.3246 45.4118L78.3595 36.6828L78.3711 25.0519L78.2781 4.69202L78.3711 1.83696L77.0457 2.62093C78.6966 3.3815 80.3126 4.32929 81.9286 5.28878L96.5072 13.8189L115.98 25.0051C117.468 25.9412 117.108 28.0357 117.224 29.8961L117.364 35.5478L117.631 46.8627L118.003 69.4926Z" fill="#E2EBF0"/>
<path d="M157.61 2.50369L138.032 14.0176L128.197 19.7043L123.279 22.5359L120.814 23.9518C120.407 24.1858 119.942 24.4432 119.57 24.841C119.175 25.2272 118.908 25.7888 118.826 26.3271C118.559 34.0732 118.454 41.5736 118.268 49.2144L118.117 60.6229L118.036 66.3331L118.001 69.1881L117.978 70.6157C117.978 71.0954 118.094 71.6571 118.152 72.1719L118.303 73.4707L119.477 72.8623C120.349 72.4059 121.256 71.9964 122.093 71.5049L124.569 70.0189L139.404 61.0676L149.262 55.0415L154.18 52.0109L156.645 50.5015C157.424 50.0101 158.435 49.5069 159.028 48.5123C159.644 47.506 159.54 46.3476 159.54 45.4349L159.516 42.5331L159.481 36.7293L159.4 25.1219C159.377 17.3875 159.528 9.64135 159.354 1.90694V1.89524H159.342C158.761 2.09415 158.144 2.19946 157.61 2.50369ZM157.61 2.50369C158.144 2.19946 158.761 2.10586 159.33 1.89524L159.319 1.88353C159.4 9.61795 159.156 17.3524 159.086 25.0985L158.819 36.7059L158.609 45.4115C158.598 46.4061 158.609 47.2954 158.156 47.9741C157.726 48.6644 156.924 49.0623 156.075 49.5537L153.576 50.993L148.565 53.8714L138.567 59.6634L121.14 69.9019L118.629 71.2124L119.954 71.9028C119.907 71.4815 119.791 71.0954 119.78 70.6391V66.3565L119.814 49.2378L119.687 26.4909C119.768 25.6835 120.384 25.1453 121.198 24.6772L123.616 23.1912L128.452 20.2074L138.137 14.2633L157.61 2.50369Z" fill="#E2EBF0"/>
<path d="M200.962 69.13L200.858 46.582L200.881 35.3022L200.904 29.6622C200.881 28.7261 200.974 27.8018 200.834 26.7838C200.706 25.7775 200.125 24.7595 199.323 24.1393C192.906 20.0556 186.558 16.2645 180.164 12.3095L159.644 0L159.551 1.49774C159.493 2.49233 159.389 3.49862 159.365 4.48151L159.702 24.8765L159.958 36.5308L160.109 42.3579L160.179 45.2715C160.214 46.1959 160.156 47.3309 160.726 48.3605C161.295 49.4136 162.365 49.8817 163.144 50.338L180.768 60.4127L195.8 69.1768C197.474 70.1363 199.102 71.2011 200.892 71.9382L200.916 71.9499V71.9265L200.962 69.13ZM200.962 69.13L200.881 71.9382L200.904 71.9265C199.125 71.166 197.521 70.0777 195.847 69.1066L190.871 66.1228L180.931 60.1435L166.085 51.0518L163.609 49.5424C162.76 49.0275 161.958 48.6063 161.621 47.8808C161.249 47.167 161.284 46.2661 161.284 45.2715L161.318 36.5308V24.8765L161.237 7.39508L161.214 4.48151C161.237 3.52203 161.318 2.59764 161.365 1.64985L159.993 2.38702L179.385 13.6669C185.837 17.3878 192.452 21.0853 198.777 24.8414C199.462 25.3562 199.904 26.07 200.055 26.9242C200.207 27.7667 200.148 28.7378 200.195 29.6739L200.334 35.3139L200.59 46.5937L200.962 69.13Z" fill="#E2EBF0"/>
<path d="M202.228 25.3913C201.752 40.6027 201.38 56.0716 201.089 71.5989L201.066 72.6169L201.914 72.3127L202.752 72.0084L203.426 71.6925C203.868 71.4819 204.321 71.2596 204.751 71.0372L207.332 69.6799C209.053 68.7672 210.727 67.8077 212.424 66.86L222.504 61.0679L232.502 55.1472C235.827 53.1229 239.128 51.1688 242.395 48.9222L242.779 48.6648V48.1733L242.907 24.8414C242.93 17.0602 243.035 9.29066 242.988 1.50945L242.977 0.222326L241.895 0.877586L221.934 13.1169L202.228 25.3913ZM202.228 25.3913L222.585 13.7722L242.651 2.1179L241.57 1.48604C241.384 9.26726 241.349 17.0368 241.233 24.818L240.942 48.1499L241.326 47.4011C238.233 49.5658 234.885 51.59 231.607 53.6143L221.667 59.5936L211.657 65.4441L206.623 68.2992L204.1 69.7033C203.682 69.9373 203.251 70.148 202.833 70.3703L202.205 70.6862L201.694 70.9085L202.519 71.5989C202.507 56.3173 202.426 40.9772 202.228 25.3913Z" fill="#E2EBF0"/>
<path d="M79.1244 239.486L98.4812 228.604L113.06 220.554C114.676 219.641 116.327 218.845 117.873 217.71L118.385 217.336L117.873 216.985C117.071 216.435 116.28 215.826 115.455 215.323L97.9465 205.073L87.8902 199.304L80.3451 194.987C79.5662 194.554 78.578 193.84 77.2294 193.828C76.5784 193.828 75.9506 194.016 75.4274 194.273C74.8926 194.554 74.5555 194.753 74.1137 195.01L56.5472 205.167L46.5491 211.029L41.5616 213.978C39.8992 214.972 38.2134 215.885 36.6207 217.102L35.9929 217.581L57.8028 229.528L73.6022 238.339C74.4857 238.807 75.3344 239.357 76.2645 239.767C77.1829 240.176 78.2757 240.024 79.1244 239.486ZM79.1244 239.486C78.2641 240.012 77.1713 240.153 76.2528 239.72C75.346 239.31 74.4973 238.749 73.6138 238.269L57.9191 229.271L47.514 223.186L37.1206 217.067L37.1555 217.909C38.6785 216.809 40.4107 215.932 42.1081 214.996L47.1885 212.199L57.3262 206.582L76.218 195.958C76.5667 195.782 76.8806 195.689 77.1945 195.689C77.8223 195.677 78.5431 196.087 79.4267 196.59L97.1443 206.465L107.317 212.023L112.409 214.797L114.955 216.189C115.792 216.657 116.559 217.219 117.361 217.734V217.02C115.943 218.131 114.281 219.009 112.7 219.957L107.921 222.777L98.3418 228.393L79.1244 239.486Z" fill="#E2EBF0"/>
</svg>
