<svg width="1168" height="455" viewBox="0 0 1168 455" fill="none" xmlns="http://www.w3.org/2000/svg">
<path d="M1155.54 172.696C1153.21 165.214 1152.27 159.915 1151.8 156.174C1154.14 155.395 1156.01 153.057 1156.01 150.407C1156.01 147.602 1153.98 145.108 1151.34 144.484V103.181C1151.34 102.402 1150.71 101.622 1149.78 101.622C1149 101.622 1148.22 102.246 1148.22 103.181V144.484C1145.57 145.108 1143.55 147.602 1143.55 150.407C1143.55 153.057 1145.26 155.239 1147.6 156.174C1146.51 164.435 1143.55 177.371 1136.7 186.1C1127.82 197.634 1113.96 206.829 1107.73 217.116C1107.26 217.896 1106.02 217.896 1105.55 216.961C1100.57 205.738 1078.45 155.083 1076.12 141.367C1074.25 130.613 1074.25 120.638 1074.4 115.494H1076.27C1077.52 115.494 1078.45 114.559 1078.45 113.312C1078.45 112.377 1077.83 111.442 1076.9 111.286C1078.92 109.415 1084.37 103.493 1083.75 95.5437C1083.13 87.9064 1073.47 85.1009 1068.17 75.7492C1070.04 74.6581 1071.29 72.6319 1071.29 70.4498C1071.29 67.6443 1069.27 65.1505 1066.62 64.5271V38.498C1067.71 37.8746 1068.49 36.7835 1068.49 35.5366C1068.49 34.2897 1067.71 33.0428 1066.62 32.5753V25.5614C1066.62 24.7821 1065.99 24.0028 1065.06 24.0028C1065.06 24.0028 1065.06 24.0028 1064.9 24.0028C1064.9 24.0028 1064.9 24.0028 1064.75 24.0028C1063.97 24.0028 1063.19 24.6263 1063.19 25.5614V32.5753C1062.1 33.1987 1061.32 34.2897 1061.32 35.5366C1061.32 36.7835 1062.1 38.0304 1063.19 38.498V64.2153C1060.54 64.8388 1058.52 67.3326 1058.52 70.1381C1058.52 72.476 1059.77 74.5023 1061.63 75.4374C1056.34 84.7892 1046.84 87.5947 1046.06 95.232C1045.28 103.181 1050.89 109.104 1052.91 110.974C1051.82 111.286 1051.2 112.221 1051.36 113.312C1051.51 114.403 1052.6 115.182 1053.69 115.182H1055.4C1055.72 120.326 1056.34 130.613 1053.69 141.056C1038.9 199.972 993.112 297.386 993.112 297.386C986.259 288.657 983.3 275.877 982.21 267.46C984.546 266.525 986.259 264.343 986.259 261.693C986.259 258.888 984.235 256.394 981.587 255.77V214.467C981.587 213.687 980.964 212.908 980.03 212.908C979.251 212.908 978.473 213.532 978.473 214.467V255.77C975.825 256.394 973.801 258.888 973.801 261.693C973.801 264.343 975.514 266.681 978.005 267.46C977.538 271.201 976.604 276.5 974.268 283.981C969.751 298.321 953.555 311.413 943.432 323.103V302.841C943.432 300.191 945.613 298.009 948.416 298.009H950.596C953.088 298.009 955.113 295.983 955.113 293.645C955.113 291.307 953.088 289.281 950.596 289.281V264.654C950.596 262.005 948.416 259.823 945.613 259.823H937.982V251.562C937.982 247.821 940.318 244.392 943.744 242.834C949.818 240.028 958.539 233.95 960.407 221.013C963.211 200.907 956.047 197.789 935.802 179.242C918.982 163.811 913.843 144.017 912.597 137.782C914.466 136.691 915.712 134.821 915.712 132.483C915.712 129.678 913.688 127.184 911.04 126.56V101.311C912.13 100.687 912.909 99.5961 912.909 98.3492C912.909 96.9465 912.13 95.8554 911.04 95.3878V88.374C911.04 87.5947 910.417 86.8154 909.483 86.8154C908.704 86.8154 907.925 87.4388 907.925 88.374V95.3878C906.835 96.0113 906.057 97.1023 906.057 98.3492C906.057 99.752 906.835 100.843 907.925 101.311V127.028C905.278 127.651 903.253 130.145 903.253 132.951C903.253 135.133 904.499 137.003 906.212 138.094C906.212 138.094 906.368 138.094 906.368 138.25C905.122 144.484 899.983 164.279 883.164 179.709C862.918 198.257 855.91 201.374 858.558 221.481C860.271 234.417 869.148 240.652 875.221 243.301C878.803 244.86 880.984 248.289 880.984 252.03V260.29H873.664C871.017 260.29 868.681 262.472 868.681 265.122V289.748C866.189 289.748 864.164 291.775 864.164 294.112C864.164 296.45 866.189 298.477 868.681 298.477H870.861C873.508 298.477 875.844 300.659 875.844 303.308V346.794C870.082 340.092 859.648 333.857 844.386 322.791C819.625 305.179 811.994 282.579 809.969 275.097C812.617 273.539 814.485 270.577 814.485 267.304C814.485 263.096 811.526 259.511 807.633 258.576V243.301C809.19 242.522 810.436 240.807 810.436 238.781C810.436 236.755 809.346 235.196 807.633 234.261V223.819C807.633 222.572 806.543 221.481 805.297 221.481C804.051 221.481 802.961 222.572 802.961 223.819V234.261C801.404 235.041 800.158 236.755 800.158 238.781C800.158 240.807 801.248 242.366 802.961 243.301V258.576C799.068 259.667 796.109 263.096 796.109 267.304C796.109 270.577 797.822 273.383 800.469 274.941C800.469 274.941 800.625 274.941 800.625 275.097C799.379 279.617 796.265 289.281 788.789 300.191C785.83 297.386 782.248 294.424 778.355 290.684C760.757 274.63 755.462 253.9 754.217 247.51C756.085 246.419 757.487 244.392 757.487 241.899C757.487 238.937 755.462 236.443 752.659 235.664V208.856C753.749 208.232 754.684 207.141 754.684 205.738C754.684 204.336 753.905 203.089 752.659 202.621V195.296C752.659 194.36 751.881 193.737 751.102 193.737C750.167 193.737 749.544 194.516 749.544 195.296V202.621C748.454 203.245 747.52 204.336 747.52 205.738C747.52 207.141 748.299 208.388 749.544 208.856V235.664C746.741 236.443 744.717 238.937 744.717 241.899C744.717 244.236 745.963 246.263 747.831 247.354C747.831 247.354 747.987 247.354 747.987 247.51C746.741 253.9 741.446 274.63 723.849 290.684C713.103 300.503 705.939 306.114 701.89 312.193V296.606C701.89 296.295 702.046 295.983 702.357 295.671C703.603 294.736 707.185 291.307 707.185 282.267C707.185 281.643 707.652 281.176 708.275 281.176C711.234 281.176 713.57 278.838 713.57 275.877V273.85C713.57 273.227 713.103 272.759 712.48 272.759C711.546 272.759 711.078 271.668 711.546 270.889C714.505 267.304 719.799 258.888 717.152 248.601C713.57 234.885 687.407 219.143 681.801 201.063C679.776 194.36 678.842 189.529 678.374 186.1C680.555 185.32 682.112 183.294 682.112 180.8C682.112 178.151 680.243 175.969 677.907 175.345V137.315C677.907 136.536 677.284 135.912 676.506 135.912C675.727 135.912 675.104 136.536 675.104 137.315V174.878C672.612 175.501 670.899 177.683 670.899 180.333C670.899 182.671 672.457 184.853 674.481 185.632C673.547 193.269 670.743 204.959 664.514 212.908C656.416 223.351 643.802 231.767 638.195 241.119C637.728 241.899 636.638 241.899 636.171 240.963C631.654 230.832 611.409 184.541 609.229 172.072C607.516 162.253 607.516 153.213 607.672 148.381H609.385C610.475 148.381 611.409 147.446 611.409 146.355C611.409 145.42 610.786 144.64 609.852 144.484C611.721 142.77 616.704 137.471 616.081 130.145C615.458 123.131 606.737 120.638 601.909 112.065C603.622 111.13 604.868 109.26 604.868 107.233C604.868 104.584 603 102.402 600.664 101.778V78.3988C601.598 77.9312 602.377 76.8402 602.377 75.5933C602.377 74.3464 601.754 73.4112 600.664 72.7878V66.3974C600.664 65.6181 600.041 64.9947 599.262 64.9947C599.262 64.9947 599.262 64.9947 599.106 64.9947C599.106 64.9947 599.106 64.9947 598.95 64.9947C598.172 64.9947 597.549 65.6181 597.549 66.3974V72.7878C596.614 73.2554 595.836 74.3464 595.836 75.5933C595.836 76.8402 596.459 77.7754 597.549 78.3988V101.778C595.057 102.402 593.344 104.584 593.344 107.233C593.344 109.415 594.59 111.13 596.303 112.065C591.475 120.638 582.754 123.131 582.131 130.145C581.508 137.471 586.492 142.77 588.361 144.484C587.426 144.796 586.803 145.576 586.959 146.667C587.115 147.602 588.049 148.381 588.984 148.381H590.541C590.697 153.057 590.697 162.253 588.984 172.072C587.582 180.333 548.026 272.292 522.33 331.364C512.83 327.155 503.797 323.259 502.863 322.479C478.101 304.867 470.47 282.267 468.446 274.786C471.093 273.227 472.962 270.266 472.962 266.992C472.962 262.784 470.003 259.199 466.11 258.264V242.99C467.667 242.21 468.913 240.496 468.913 238.47C468.913 236.443 467.823 234.885 466.11 233.95V223.507C466.11 222.26 465.02 221.169 463.774 221.169C462.528 221.169 461.438 222.26 461.438 223.507V233.95C459.881 234.729 458.635 236.443 458.635 238.47C458.635 240.496 459.725 242.054 461.438 242.99V258.264C457.545 259.355 454.586 262.784 454.586 266.992C454.586 270.266 456.299 273.071 458.946 274.63C458.946 274.63 459.102 274.63 459.102 274.786C457.856 279.306 454.741 288.969 447.266 299.879C444.307 297.074 440.725 294.112 436.832 290.372C419.234 274.318 413.939 253.588 412.693 247.198C414.562 246.107 415.964 244.081 415.964 241.587C415.964 238.625 413.939 236.132 411.136 235.352V208.856C412.226 208.232 413.161 207.141 413.161 205.738C413.161 204.336 412.382 203.089 411.136 202.621V195.296C411.136 194.36 410.357 193.737 409.579 193.737C408.644 193.737 408.021 194.516 408.021 195.296V202.621C406.931 203.245 405.997 204.336 405.997 205.738C405.997 207.141 406.775 208.388 408.021 208.856V235.664C405.218 236.443 403.194 238.937 403.194 241.899C403.194 244.236 404.439 246.263 406.308 247.354C406.308 247.354 406.464 247.354 406.464 247.51C405.218 253.9 399.923 274.63 382.325 290.684C371.58 300.503 364.416 306.114 360.367 312.193V296.606C360.367 296.295 360.523 295.983 360.834 295.671C362.08 294.736 365.662 291.307 365.662 282.267C365.662 281.643 366.129 281.176 366.752 281.176C369.711 281.176 372.047 278.838 372.047 275.877V273.85C372.047 273.227 371.58 272.759 370.957 272.759C370.022 272.759 369.555 271.668 370.022 270.889C372.981 267.304 378.276 258.888 375.629 248.601C372.047 234.885 345.884 219.143 340.277 201.063C338.253 194.36 337.318 189.529 336.851 186.1C339.031 185.32 340.589 183.294 340.589 180.8C340.589 178.151 338.72 175.969 336.384 175.345V137.315C336.384 136.536 335.761 135.912 334.982 135.912C334.204 135.912 333.581 136.536 333.581 137.315V174.878C331.089 175.501 329.376 177.683 329.376 180.333C329.376 182.671 330.933 184.853 332.958 185.632C332.023 193.269 329.22 204.959 322.991 212.908C314.893 223.351 302.278 231.767 296.672 241.119C296.205 241.899 295.115 241.899 294.647 240.963C290.131 230.832 269.886 184.541 267.706 172.072C265.993 162.253 265.993 153.213 266.148 148.381H267.861C268.951 148.381 269.886 147.446 269.886 146.355C269.886 145.42 269.263 144.64 268.329 144.484C270.197 142.77 275.181 137.471 274.558 130.145C273.935 123.131 265.214 120.638 260.386 112.065C262.099 111.13 263.345 109.26 263.345 107.233C263.345 104.584 261.476 102.402 259.14 101.778V78.3988C260.075 77.9312 260.853 76.8402 260.853 75.5933C260.853 74.3464 260.23 73.4112 259.14 72.7878V66.3974C259.14 65.6181 258.517 64.9947 257.739 64.9947C257.739 64.9947 257.739 64.9947 257.583 64.9947C257.583 64.9947 257.583 64.9947 257.427 64.9947C256.649 64.9947 256.026 65.6181 256.026 66.3974V72.7878C255.091 73.2554 254.313 74.3464 254.313 75.5933C254.313 76.8402 254.935 77.7754 256.026 78.3988V101.778C253.534 102.402 251.821 104.584 251.821 107.233C251.821 109.415 253.067 111.13 254.78 112.065C249.952 120.638 241.231 123.131 240.608 130.145C239.985 137.471 244.969 142.77 246.837 144.484C245.903 144.796 245.28 145.576 245.436 146.667C245.591 147.602 246.526 148.381 247.46 148.381H249.018C249.173 153.057 249.173 162.253 247.46 172.072C245.28 184.541 225.035 230.832 220.518 240.963C220.207 241.743 218.961 241.899 218.494 241.119C212.732 231.767 200.273 223.351 192.175 212.908C185.946 204.959 183.142 193.269 182.208 185.632C184.388 184.853 185.79 182.827 185.79 180.333C185.79 177.683 183.921 175.501 181.585 174.878V137.315C181.585 136.536 180.962 135.912 180.183 135.912C179.405 135.912 178.782 136.536 178.782 137.315V174.878C176.29 175.501 174.577 177.683 174.577 180.333C174.577 182.827 176.134 184.853 178.315 185.632C178.003 189.061 177.069 193.893 174.889 200.595C170.839 213.687 156.045 225.533 146.701 236.288V217.896C146.701 215.558 148.725 213.532 151.217 213.532H153.242C155.578 213.532 157.291 211.817 157.291 209.479C157.291 207.297 155.422 205.427 153.242 205.427V182.983C153.242 180.645 151.217 178.618 148.725 178.618H141.717V150.563C141.717 147.134 143.742 144.017 147.012 142.614C152.463 140.12 160.561 134.509 162.118 122.664C164.61 104.272 158.069 101.466 139.693 84.4775C124.275 70.4498 119.759 52.3698 118.513 46.7587C120.226 45.8236 121.316 43.9532 121.316 41.927C121.316 39.2773 119.447 37.0953 117.111 36.4718V13.0924C118.046 12.6249 118.825 11.5338 118.825 10.2869C118.825 9.04002 118.202 8.10485 117.111 7.4814V1.40276C117.111 0.62345 116.489 0 115.71 0C114.931 0 114.308 0.62345 114.308 1.40276V7.79312C113.374 8.26071 112.595 9.35175 112.595 10.5986C112.595 11.8455 113.218 12.7807 114.308 13.4042V36.7835C111.817 37.407 110.103 39.5891 110.103 42.2387C110.103 44.2649 111.194 45.9794 112.751 46.9146C112.751 46.9146 112.907 46.9146 112.907 47.0705C111.817 52.6815 107.145 70.7616 91.8827 84.7892C73.5061 101.622 66.9653 104.584 69.4571 122.975C71.0144 134.821 79.1125 140.432 84.5632 142.926C87.8336 144.329 89.8581 147.446 89.8581 150.875V178.93H82.8501C80.3584 178.93 78.3339 180.8 78.3339 183.294V205.738C75.9979 205.738 74.2848 207.453 74.2848 209.791C74.2848 211.973 76.1536 213.843 78.3339 213.843H80.3584C82.8501 213.843 84.8747 215.714 84.8747 218.207V257.797C79.5797 251.718 70.2357 245.951 56.2197 235.976C33.6384 219.922 26.6304 199.348 24.9173 192.49C27.4091 191.087 28.9664 188.438 28.9664 185.476C28.9664 181.58 26.3189 178.463 22.7371 177.527V163.5C24.2944 162.72 25.2288 161.162 25.2288 159.447C25.2288 157.733 24.1387 156.174 22.7371 155.395V145.887C22.7371 144.796 21.8027 143.861 20.7125 143.861C19.6224 143.861 18.688 144.796 18.688 145.887V155.395C17.1307 156.174 16.1963 157.733 16.1963 159.447C16.1963 161.162 17.2864 162.72 18.688 163.5V177.527C15.1061 178.463 12.4587 181.736 12.4587 185.476C12.4587 188.438 14.016 191.087 16.352 192.49C16.352 192.49 16.352 192.49 16.5077 192.49C15.1061 197.322 10.9013 209.635 0 222.26V553H562.976H594.123H1168V192.178C1162.55 186.1 1157.72 179.554 1155.54 172.696Z" fill="#D34A36"/>
</svg>
