<svg width="268" height="349" viewBox="0 0 268 349" fill="none" xmlns="http://www.w3.org/2000/svg">
<g clip-path="url(#clip0)">
<path d="M63.2521 310.678C62.4306 307.194 63.8682 305.35 67.3594 304.94C79.6812 303.3 89.3333 296.537 98.164 288.34C105.352 281.782 110.897 273.79 116.441 265.798C117.674 263.953 118.495 262.109 116.441 260.059C114.388 258.215 115.415 255.756 116.236 253.707C118.7 247.149 117.057 241.001 112.95 235.672C109.254 230.754 109.254 226.86 113.772 222.967C121.37 216.409 120.754 203.703 112.95 197.76C98.9854 187.308 82.967 179.931 69.2077 169.479C52.9839 157.183 37.787 144.068 27.5188 126.239C18.6881 110.664 12.7326 93.8592 8.41992 76.44C2.8751 53.0777 0 29.7154 0 5.94319C0 1.43468 1.23218 -0.204782 5.75019 0.000150078C14.9916 0.205083 24.2329 0.205083 33.4743 0.000150078C37.5816 -0.204782 39.4299 0.81988 39.8406 5.32839C40.4567 12.2961 43.3318 18.649 50.1088 22.5427C53.6 24.3871 54.4215 23.9772 54.6268 20.0835C54.8322 15.3701 53.8054 10.8616 52.9839 6.35306C51.9571 0.205082 52.1624 0.000150078 58.118 0.000150078C65.7165 0.000150078 73.3149 0.410015 80.708 0.205083C94.4674 -0.204782 108.227 0.614948 121.781 0.205083C135.951 -0.204782 150.121 0.205083 164.291 0.205083C178.256 0.205083 192.426 0.205083 206.391 0.205083C216.248 0.205083 216.248 0.205082 215.016 10.0418C214.605 13.5257 213.989 17.0095 213.579 20.4934C213.168 23.7723 214.811 24.1822 217.48 22.5427C224.257 18.649 226.927 12.2961 227.749 4.91853C228.159 1.22975 229.392 -0.204782 233.293 0.000150078C243.151 0.205083 253.008 0.205083 262.866 0.000150078C265.741 0.000150078 267.589 0.614947 267.589 4.0988C267.384 46.9297 260.402 88.3261 239.454 126.443C229.186 145.092 212.962 158.413 196.123 170.504C187.292 176.857 178.256 182.595 168.809 187.718C162.854 190.792 158.13 195.711 152.585 199.195C151.148 200.219 150.326 201.654 149.916 203.293C148.684 210.671 148.273 217.638 154.844 223.172C158.746 226.246 158.541 230.754 155.461 234.648C151.148 240.386 148.889 246.739 151.764 253.911C152.585 256.166 153.202 258.42 150.943 260.264C149.505 261.494 149.71 262.929 150.737 264.363C161.416 280.963 173.943 295.513 193.042 302.89C195.506 303.915 197.971 304.325 200.641 304.735C203.926 305.145 205.775 306.784 204.748 310.473C158.13 310.473 110.691 310.678 63.2521 310.678ZM195.096 152.88C196.739 153.085 197.766 151.855 198.792 151.035C210.087 142.018 219.945 131.772 226.722 118.861C236.169 100.827 242.329 81.7682 246.847 62.0947C249.723 49.3889 251.16 36.2732 252.392 23.3625C252.598 21.1082 253.419 18.649 251.571 16.8046C249.517 14.7553 240.687 16.5997 239.249 19.2638C234.936 27.2562 228.981 34.2239 220.356 37.5028C215.016 39.5521 214.195 42.831 213.784 47.7494C210.498 82.9978 207.623 118.861 195.096 152.88H194.89C195.096 152.88 195.096 152.88 195.096 152.88ZM73.5203 153.085C73.1096 151.855 73.1096 150.83 72.6988 150.011C67.3594 135.665 64.4843 120.705 61.8146 105.745C58.118 85.0471 56.6805 64.3489 54.6268 43.4458C54.4215 41.3965 54.0107 39.962 51.9571 39.1423C41.4835 35.0436 33.8851 28.0759 28.5456 18.0342C26.2866 13.7306 21.5632 15.9849 17.8667 16.1898C14.7862 16.3947 15.813 19.6737 16.0184 21.5181C17.8667 48.1593 23.4115 73.9808 32.6529 99.1875C40.2513 119.681 51.7517 137.305 69.2077 150.83C70.2345 151.65 71.0559 153.085 73.5203 153.085Z" fill="#FCB222"/>
<path d="M63.2521 310.678C110.691 310.678 158.13 310.678 205.364 310.678C206.802 310.678 208.444 310.883 209.882 310.883C214.195 311.087 216.659 313.547 216.864 317.85C217.07 322.769 217.07 327.687 217.07 332.605C217.07 334.86 217.275 336.909 219.739 337.934C221.588 338.753 222.204 340.598 222.615 342.442C223.641 347.565 222.615 348.795 217.48 348.795C162.238 348.795 106.995 348.795 51.9571 348.795C50.1088 348.795 47.2337 350.025 46.6176 346.951C46.0015 343.877 45.5908 340.393 48.6713 338.548C51.7517 336.704 52.1625 334.245 51.9571 331.171C51.7517 327.687 51.9571 323.998 51.9571 320.514C51.9571 312.727 53.6 311.087 61.1985 310.678C61.8146 310.678 62.636 310.678 63.2521 310.678Z" fill="#AB311F"/>
<path d="M83.5832 0.204956L84.61 66.6031C84.61 66.6031 86.4583 117.426 95.2889 144.887C105.352 176.242 117.263 186.489 123.218 193.456C129.174 200.424 132.049 204.113 129.79 211.695C127.326 219.278 125.067 221.737 125.067 226.245C125.067 230.754 129.174 234.443 127.531 243.255C125.683 252.067 125.067 253.911 125.067 257.805C125.067 261.699 126.299 264.773 123.218 274.814C120.343 284.856 97.9586 310.473 97.9586 310.473H118.29C118.29 310.473 130.406 296.947 133.076 291.414C135.54 286.291 138.005 272.15 138.005 268.871C138.005 265.592 140.264 253.502 139.648 247.763C139.031 242.025 137.183 231.369 137.799 225.631C138.415 219.893 141.701 212.31 141.701 208.416C141.701 204.728 133.281 179.316 133.281 179.316C133.281 179.316 120.959 125.829 120.343 104.311C119.727 82.7927 123.218 0.614821 123.218 0.614821L83.5832 0.204956Z" fill="#FEDB60"/>
</g>
<defs>
<clipPath id="clip0">
<rect width="268" height="349" fill="white"/>
</clipPath>
</defs>
</svg>
