<svg width="575" height="273" viewBox="0 0 575 273" fill="none" xmlns="http://www.w3.org/2000/svg">
<rect width="575" height="273" rx="5" fill="#E04E39"/>
<mask id="mask0" mask-type="alpha" maskUnits="userSpaceOnUse" x="0" y="0" width="575" height="273">
<rect width="575" height="273" rx="5" fill="#E04E39"/>
</mask>
<g mask="url(#mask0)">
<path d="M531.932 67.5227C531.932 65.5772 533.509 64 535.455 64C537.4 64 538.977 65.5772 538.977 67.5227C538.977 69.4683 537.4 71.0455 535.455 71.0455C533.509 71.0455 531.932 69.4683 531.932 67.5227Z" fill="#D7432E"/>
<path d="M531.932 79.5C531.932 77.5545 533.509 75.9773 535.455 75.9773C537.4 75.9773 538.977 77.5545 538.977 79.5C538.977 81.4455 537.4 83.0227 535.455 83.0227C533.509 83.0227 531.932 81.4455 531.932 79.5Z" fill="#D7432E"/>
<path d="M531.932 91.4773C531.932 89.5317 533.509 87.9545 535.455 87.9545C537.4 87.9545 538.977 89.5317 538.977 91.4773C538.977 93.4228 537.4 95 535.455 95C533.509 95 531.932 93.4228 531.932 91.4773Z" fill="#D7432E"/>
<path d="M507.977 67.5227C507.977 65.5772 509.554 64 511.5 64C513.446 64 515.023 65.5772 515.023 67.5227C515.023 69.4683 513.446 71.0455 511.5 71.0455C509.554 71.0455 507.977 69.4683 507.977 67.5227Z" fill="#D7432E"/>
<path d="M507.977 79.5C507.977 77.5545 509.554 75.9773 511.5 75.9773C513.446 75.9773 515.023 77.5545 515.023 79.5C515.023 81.4455 513.446 83.0227 511.5 83.0227C509.554 83.0227 507.977 81.4455 507.977 79.5Z" fill="#D7432E"/>
<path d="M507.977 91.4773C507.977 89.5317 509.554 87.9545 511.5 87.9545C513.446 87.9545 515.023 89.5317 515.023 91.4773C515.023 93.4228 513.446 95 511.5 95C509.554 95 507.977 93.4228 507.977 91.4773Z" fill="#D7432E"/>
<path d="M519.955 67.5227C519.955 65.5772 521.532 64 523.477 64C525.423 64 527 65.5772 527 67.5227C527 69.4683 525.423 71.0455 523.477 71.0455C521.532 71.0455 519.955 69.4683 519.955 67.5227Z" fill="#D7432E"/>
<path d="M519.955 79.5C519.955 77.5545 521.532 75.9773 523.477 75.9773C525.423 75.9773 527 77.5545 527 79.5C527 81.4455 525.423 83.0227 523.477 83.0227C521.532 83.0227 519.955 81.4455 519.955 79.5Z" fill="#D7432E"/>
<path d="M519.955 91.4773C519.955 89.5317 521.532 87.9545 523.477 87.9545C525.423 87.9545 527 89.5317 527 91.4773C527 93.4228 525.423 95 523.477 95C521.532 95 519.955 93.4228 519.955 91.4773Z" fill="#D7432E"/>
<path d="M496 67.5227C496 65.5772 497.577 64 499.523 64C501.468 64 503.045 65.5772 503.045 67.5227C503.045 69.4683 501.468 71.0455 499.523 71.0455C497.577 71.0455 496 69.4683 496 67.5227Z" fill="#D7432E"/>
<path d="M496 79.5C496 77.5545 497.577 75.9773 499.523 75.9773C501.468 75.9773 503.045 77.5545 503.045 79.5C503.045 81.4455 501.468 83.0227 499.523 83.0227C497.577 83.0227 496 81.4455 496 79.5Z" fill="#D7432E"/>
<path d="M496 91.4773C496 89.5317 497.577 87.9545 499.523 87.9545C501.468 87.9545 503.045 89.5317 503.045 91.4773C503.045 93.4228 501.468 95 499.523 95C497.577 95 496 93.4228 496 91.4773Z" fill="#D7432E"/>
<path d="M531.932 103.523C531.932 101.577 533.509 100 535.455 100C537.4 100 538.977 101.577 538.977 103.523C538.977 105.468 537.4 107.045 535.455 107.045C533.509 107.045 531.932 105.468 531.932 103.523Z" fill="#D7432E"/>
<path d="M531.932 115.5C531.932 113.554 533.509 111.977 535.455 111.977C537.4 111.977 538.977 113.554 538.977 115.5C538.977 117.446 537.4 119.023 535.455 119.023C533.509 119.023 531.932 117.446 531.932 115.5Z" fill="#D7432E"/>
<path d="M531.932 127.477C531.932 125.532 533.509 123.955 535.455 123.955C537.4 123.955 538.977 125.532 538.977 127.477C538.977 129.423 537.4 131 535.455 131C533.509 131 531.932 129.423 531.932 127.477Z" fill="#D7432E"/>
<path d="M507.977 103.523C507.977 101.577 509.554 100 511.5 100C513.446 100 515.023 101.577 515.023 103.523C515.023 105.468 513.446 107.045 511.5 107.045C509.554 107.045 507.977 105.468 507.977 103.523Z" fill="#D7432E"/>
<path d="M507.977 115.5C507.977 113.554 509.554 111.977 511.5 111.977C513.446 111.977 515.023 113.554 515.023 115.5C515.023 117.446 513.446 119.023 511.5 119.023C509.554 119.023 507.977 117.446 507.977 115.5Z" fill="#D7432E"/>
<path d="M507.977 127.477C507.977 125.532 509.554 123.955 511.5 123.955C513.446 123.955 515.023 125.532 515.023 127.477C515.023 129.423 513.446 131 511.5 131C509.554 131 507.977 129.423 507.977 127.477Z" fill="#D7432E"/>
<path d="M519.955 103.523C519.955 101.577 521.532 100 523.477 100C525.423 100 527 101.577 527 103.523C527 105.468 525.423 107.045 523.477 107.045C521.532 107.045 519.955 105.468 519.955 103.523Z" fill="#D7432E"/>
<path d="M519.955 115.5C519.955 113.554 521.532 111.977 523.477 111.977C525.423 111.977 527 113.554 527 115.5C527 117.446 525.423 119.023 523.477 119.023C521.532 119.023 519.955 117.446 519.955 115.5Z" fill="#D7432E"/>
<path d="M519.955 127.477C519.955 125.532 521.532 123.955 523.477 123.955C525.423 123.955 527 125.532 527 127.477C527 129.423 525.423 131 523.477 131C521.532 131 519.955 129.423 519.955 127.477Z" fill="#D7432E"/>
<path d="M496 103.523C496 101.577 497.577 100 499.523 100C501.468 100 503.045 101.577 503.045 103.523C503.045 105.468 501.468 107.045 499.523 107.045C497.577 107.045 496 105.468 496 103.523Z" fill="#D7432E"/>
<path d="M496 115.5C496 113.554 497.577 111.977 499.523 111.977C501.468 111.977 503.045 113.554 503.045 115.5C503.045 117.446 501.468 119.023 499.523 119.023C497.577 119.023 496 117.446 496 115.5Z" fill="#D7432E"/>
<path d="M496 127.477C496 125.532 497.577 123.955 499.523 123.955C501.468 123.955 503.045 125.532 503.045 127.477C503.045 129.423 501.468 131 499.523 131C497.577 131 496 129.423 496 127.477Z" fill="#D7432E"/>
</g>
</svg>
