<svg width="316" height="316" viewBox="0 0 316 316" fill="none" xmlns="http://www.w3.org/2000/svg">
<g clip-path="url(#clip0)">
<path d="M316 158C316 70.776 245.39 0 158 0C70.776 0 0 70.776 0 158C0 245.224 70.776 316 158 316C245.39 316 316 245.39 316 158Z" fill="url(#paint0_radial)"/>
<path d="M73.2681 88.7192C72.9359 89.3838 69.9453 90.3806 68.7823 90.8791C67.9516 91.2113 67.6193 91.3775 66.9548 92.042C66.6225 92.2082 66.2902 92.5405 66.1241 92.7066C65.1272 93.3712 64.1304 93.7034 63.1335 94.368C62.1367 95.0326 61.306 95.8633 60.3091 96.3617C60.3091 96.3617 58.98 97.0263 58.98 95.8633V95.531C59.1462 95.531 59.1462 95.531 59.3123 95.531C59.4784 94.7003 59.4784 93.8696 63.632 92.042L63.7981 91.8759C64.1304 91.7098 64.1304 91.7098 64.9611 90.8791H64.7949C66.1241 89.5499 66.9548 88.7192 68.1178 87.7224C68.1178 87.7224 68.1178 87.7224 68.2839 87.7224C68.7823 87.3901 68.9485 87.0578 69.2808 86.8917H69.4469C69.4469 87.0578 69.613 87.0578 69.9453 87.0578C71.1083 87.224 72.1051 86.8917 73.2681 87.224C73.4343 87.5562 73.4343 88.3869 73.2681 88.7192ZM67.2871 85.7287C67.2871 85.7287 65.6257 85.5625 66.6225 82.7381C66.6225 82.572 66.6225 82.572 66.7886 82.4059H66.6225L66.2902 82.9043C66.2902 82.7382 66.4564 82.7381 66.4564 82.572C65.9579 82.9043 64.1304 85.8948 63.7981 87.5562C63.7981 88.0547 63.4658 89.2176 61.306 90.5468C61.1399 90.5468 61.1399 90.5468 60.9737 90.5468C60.8076 90.5468 60.6414 90.5468 60.4753 90.5468C60.3091 89.7161 60.6414 88.7192 61.306 87.0578H61.4721C62.8013 84.0673 63.1335 83.0704 62.469 81.9074C61.9706 81.9074 61.306 81.7413 60.8076 81.7413C58.1493 83.2366 55.6572 84.898 53.8297 90.7129C53.3312 92.3743 52.6667 93.7035 51.6698 94.5342H51.5037C51.1714 94.7003 51.0053 94.8664 50.673 94.7003L50.3407 94.368C50.5068 94.368 50.673 94.368 51.0053 94.5342C50.673 94.2019 50.3407 93.5373 52.3344 89.3838H52.1682C52.8328 88.0547 52.8328 88.0547 53.6635 86.061H53.8297C54.9926 83.2366 55.4911 82.2397 56.3218 81.0767C56.3218 81.0767 56.3218 81.0767 56.1556 81.0767C58.4816 78.5846 60.6414 78.7508 60.6414 78.9169C61.8044 79.0831 62.469 80.0799 63.4658 80.4122C63.632 80.4122 63.632 80.4122 63.7981 80.4122C64.1304 80.246 65.4595 80.4122 66.6225 80.7445C66.7886 80.7445 66.9548 80.7445 66.9548 80.9106C67.2871 81.0767 67.2871 81.5752 67.4532 82.4059C67.9516 82.4059 67.9516 84.2334 67.2871 85.7287ZM64.4627 74.4311C63.9642 75.0957 62.6351 76.5909 62.469 76.5909C62.3028 76.5909 62.1367 76.5909 61.8044 76.4248C61.4721 76.2587 60.9737 75.9264 60.6414 75.7602C60.3091 75.5941 59.9769 75.5941 59.6446 75.428C59.4784 75.428 59.4784 75.0957 59.4784 75.0957C59.4784 74.7634 59.4784 74.5972 59.4784 74.265C59.1462 74.0988 57.1525 74.7634 56.1556 75.2618C55.6572 75.5941 55.3249 75.5941 54.9926 75.5941C53.6635 75.2618 55.4911 73.102 55.8233 72.9358C56.4879 72.6036 57.1525 72.4374 57.817 72.2713C58.1493 72.1051 58.6477 71.939 60.143 70.9421C61.8044 69.9453 62.8013 69.2807 63.2997 69.4469C63.4658 69.4469 63.4658 69.613 63.4658 69.613C63.4658 69.7792 63.4658 69.7792 63.4658 69.7792C63.4658 70.4437 63.4658 71.1083 63.632 72.1051C63.9642 73.102 64.2965 73.2681 64.4627 73.6004C64.6288 73.7665 64.6288 73.9327 64.4627 74.0988C64.6288 74.265 64.4627 74.4311 64.4627 74.4311ZM31.8991 65.1272C31.4006 65.7918 31.2345 65.9579 31.0684 66.2902C31.2345 65.7918 32.7298 63.7981 33.5605 62.6351C34.3912 61.4721 35.0557 60.3091 35.8864 59.1461C36.3849 58.4816 37.0494 57.6509 37.714 56.8202C37.5478 56.9863 34.0589 62.3028 31.8991 65.1272ZM164.978 258.515C164.978 258.017 164.812 258.017 164.646 258.017V257.851C164.479 257.352 164.313 256.688 164.147 256.189C163.815 255.192 163.981 255.192 164.147 255.192C162.32 252.7 162.32 252.7 157.003 250.873C156.671 250.873 156.505 250.873 156.172 250.873C155.342 250.208 154.345 249.211 153.68 248.547C153.016 247.882 153.182 247.882 153.348 247.882C149.361 245.556 144.376 246.387 140.389 244.061C139.06 243.396 138.728 243.396 138.562 243.396L137.897 242.898C134.74 241.237 133.577 241.07 131.085 241.403C129.922 243.396 129.59 243.895 129.258 246.221C128.759 246.221 128.095 246.221 127.596 246.221C127.43 245.889 127.098 245.39 126.932 245.058C127.264 244.726 127.762 244.393 128.095 244.061C128.759 243.23 128.759 243.23 128.593 243.23L128.925 242.732C129.091 242.233 129.258 241.569 129.424 241.237C129.424 240.074 129.59 240.074 129.756 240.074C126.932 236.917 123.941 241.735 120.951 241.901C120.618 241.569 120.286 240.904 119.954 240.572C120.452 239.907 120.452 239.907 120.452 239.907L120.618 239.741L121.117 239.575C125.603 237.914 125.935 237.083 126.766 235.089C126.599 235.089 126.433 235.089 126.267 235.089C125.27 232.597 125.104 232.431 123.277 231.933C123.277 231.767 123.443 231.767 123.775 231.767C123.443 231.268 123.443 231.268 120.286 226.616C120.12 226.616 119.954 226.616 119.621 226.616L119.289 226.118C118.625 225.287 117.628 224.29 116.797 223.459C116.631 223.127 116.797 223.127 117.129 223.127C112.81 218.974 112.81 218.974 105.998 220.303C105.333 219.472 104.503 218.475 104.004 217.478C103.838 217.478 103.672 217.478 103.34 217.478C102.343 216.149 101.18 214.986 100.183 213.823C100.349 213.823 100.515 213.823 100.848 213.823L100.681 213.657C99.8507 213.159 97.857 212.162 94.7003 211.663C94.7003 210.667 95.0326 209.338 95.3649 208.341C95.3649 208.008 95.1987 208.008 95.0326 208.008C95.1987 207.012 95.3649 205.682 95.3649 204.686C95.531 204.353 95.6972 204.353 95.6972 204.353L95.0326 203.356H94.8664C94.368 204.519 93.5373 206.015 93.0389 207.012C91.7098 206.181 90.7129 204.852 89.3838 204.021C89.7161 204.021 89.8822 204.021 90.2145 204.021C89.2177 203.689 87.8885 203.356 86.8917 203.356C85.8948 203.855 86.061 203.855 86.061 203.855C85.3964 204.519 84.7318 205.682 84.7318 206.513C84.2334 207.344 84.0673 207.344 83.9012 207.344C81.9075 204.021 81.0768 202.36 77.7539 204.519C77.2555 204.353 76.7571 204.021 76.2587 203.689C76.0925 203.024 76.2587 203.024 76.4248 203.19C75.9264 202.193 75.428 201.03 74.9295 200.034C70.2776 200.2 70.2776 205.184 70.4437 208.839C70.1115 208.341 69.7792 207.842 69.613 207.344C69.2808 206.347 69.1146 206.347 68.9485 206.347C68.6162 204.852 68.4501 203.689 68.4501 202.526C68.6162 202.526 68.6162 202.526 68.7823 202.526V202.36C69.1146 201.03 69.4469 199.369 69.613 198.04C69.2808 197.708 68.7823 197.375 68.4501 197.043C67.2871 197.708 67.2871 197.708 64.4627 199.867C61.4721 201.861 60.8076 205.516 58.8139 208.341C58.3155 208.341 57.6509 208.175 56.9863 208.175C56.4879 207.344 55.8233 206.181 55.1588 205.35C54.1619 204.686 53.9958 204.686 53.6635 204.519C53.1651 204.353 52.6667 204.187 52.1682 203.855C52.0021 204.021 51.836 204.353 51.6698 204.686C50.8391 205.35 49.6761 206.181 48.8454 206.679C46.6856 205.682 46.6856 205.682 45.5226 203.523C45.3565 203.523 45.1903 203.523 45.1903 203.523C44.6919 202.36 44.0273 200.864 43.6951 199.701C43.8612 199.701 43.8612 199.701 44.0273 199.701C43.5289 197.209 43.5289 197.209 43.3628 194.551C43.1966 194.053 43.1966 194.053 43.0305 194.053C43.0305 192.89 43.0305 191.394 43.0305 190.231C43.1966 190.231 43.1966 190.231 43.3628 190.231C43.6951 187.573 43.6951 187.573 42.8644 185.413C42.1998 184.25 42.0336 184.25 41.8675 184.25C41.2029 183.253 40.3722 182.09 39.5415 181.426C38.5447 181.758 37.3817 182.423 36.551 182.921C35.5542 182.423 34.225 181.924 33.062 181.426C33.062 180.927 33.062 180.097 33.062 179.598C33.2282 178.934 33.3943 178.934 33.3943 178.934C33.5605 177.106 33.5605 177.106 33.3943 173.617C33.2282 172.953 33.2282 172.953 33.062 172.953C33.3943 170.627 33.3943 170.627 34.225 169.131H34.3912C35.388 166.639 35.388 166.639 35.5542 164.147C35.388 163.316 35.2219 163.316 35.2219 163.316C35.0557 162.818 34.8896 162.153 34.7234 161.489C34.7234 161.489 30.9022 160.16 28.244 161.987C27.9117 164.147 27.9117 166.307 27.7455 168.301C24.9211 168.633 24.9211 168.633 23.592 170.294C21.9306 169.63 21.9306 169.63 20.6015 166.307C20.7676 166.307 20.7676 166.307 20.9338 166.473C19.6046 163.15 19.4385 162.486 18.9401 159.994C18.7739 159.994 18.7739 159.994 18.6078 159.994C18.4416 158.997 18.4416 157.668 18.4416 156.671C18.6078 155.84 18.6078 155.84 18.6078 156.006C18.6078 153.016 18.7739 152.683 18.9401 150.025H18.7739C19.9369 147.865 19.9369 147.865 20.2692 146.37H20.4353C21.0999 143.38 21.266 143.38 21.4322 140.555C21.266 140.555 21.266 140.555 21.0999 140.555C20.9338 139.558 21.266 138.063 21.7645 137.232C22.0967 136.9 22.0967 136.9 22.0967 136.9L22.5952 136.402L23.0936 136.069C24.2566 135.239 25.5857 134.076 26.5825 132.082C29.7392 131.584 30.9022 132.414 32.3975 134.74C32.8959 134.74 33.5605 134.74 33.8927 134.74C34.3912 133.743 34.3912 133.743 34.225 133.577L34.3912 133.079C34.7235 132.747 35.2219 132.414 35.5542 132.082C36.551 132.248 36.551 132.248 41.8675 131.584C42.0336 132.58 42.3659 133.91 42.6982 134.906C43.1966 134.74 43.8612 134.574 44.3596 134.574C45.8549 139.724 46.5195 145.207 47.6824 150.524C48.0147 150.524 48.5131 150.524 48.8454 150.524C49.51 149.527 50.3407 148.032 50.673 146.869C50.673 146.038 50.673 146.038 50.5068 146.038C50.673 145.041 50.673 143.712 50.673 142.715C50.8391 142.217 50.8391 142.217 51.0053 142.217C50.8391 140.555 50.8391 138.728 50.673 137.066C50.5068 136.236 50.3407 136.236 50.1746 136.236C50.0084 135.239 49.8423 134.076 49.6761 133.079C49.8423 132.248 50.0084 132.248 50.0084 132.248C51.0053 129.756 51.3375 128.759 53.9958 126.932C54.6604 126.267 55.6572 125.27 56.3218 124.44C57.1525 123.443 57.3186 123.443 57.3186 123.443C60.3091 119.788 60.6414 119.455 61.306 118.957C64.2965 117.628 64.2965 117.628 65.4595 116.299C65.4595 115.8 65.2934 115.302 65.2934 114.969C65.4595 114.969 65.6257 114.969 65.7918 114.969C65.1272 111.979 65.1272 111.813 65.4595 109.321C65.2934 109.321 65.2934 109.321 65.1272 109.321C66.2902 109.487 69.1146 109.985 69.4469 105.998C69.613 105.998 69.613 105.998 69.7792 105.998C69.9453 105.167 70.4437 104.17 71.1083 103.672C71.6067 103.506 72.1051 103.173 72.6036 103.007C72.7697 102.343 73.2681 101.512 73.2681 100.848C73.102 100.848 73.102 100.848 72.9359 100.848C75.428 98.6877 78.2524 100.681 80.9106 100.349C81.0768 99.8507 81.2429 99.3522 81.409 98.8538C81.409 97.857 81.5752 97.857 81.5752 98.0231C80.9106 95.0326 81.0768 94.7003 82.0736 92.8727H81.9075C83.735 91.2113 86.8917 92.2082 88.5531 89.8822H88.7192C89.0515 89.5499 89.5499 89.0515 89.8822 88.7192C90.2145 90.5468 89.8822 92.3743 90.2145 94.2019C90.7129 94.2019 91.3775 94.0357 91.8759 94.0357C92.3743 93.7035 92.3743 93.7034 92.3743 93.7034C96.0294 91.2113 100.349 91.0452 104.17 89.3838C105.001 88.3869 105.001 88.3869 105.001 88.2208C105.001 87.7224 105.001 87.0578 104.835 86.5594C104.669 85.7287 104.503 85.7287 104.336 85.7287C104.17 85.2303 104.17 84.5657 104.004 84.0673C103.173 84.3996 102.011 85.0641 101.346 85.7287C99.8507 85.3964 99.6845 85.3964 99.5184 85.3964C99.6845 84.7318 99.6845 84.0673 99.8507 83.4027C98.8538 83.2366 97.6908 83.2366 96.694 83.5688C96.5279 83.0704 96.3617 82.572 96.1956 82.0736C96.3617 81.9074 96.3617 81.9074 96.5279 81.9074C98.1893 78.9169 98.1893 78.9169 97.6908 77.0894C97.5247 77.0894 97.3586 77.0894 97.1924 77.0894C96.694 76.9232 96.1956 76.7571 95.6972 76.5909C94.368 76.9232 94.368 76.9232 94.2019 76.9232L93.7035 77.0894C91.5436 78.2523 89.0515 78.7508 86.7255 79.7476C87.224 78.7508 87.8885 77.4216 88.5531 76.4248H88.387C90.3806 73.9327 93.7035 74.0988 96.3617 72.7697L96.5279 72.6036C97.3586 72.7697 98.6877 73.2681 99.5184 73.6004C99.6845 74.7634 99.6845 76.2587 99.6845 77.4216C103.173 76.7571 103.34 76.0925 103.672 74.265C104.004 74.0988 104.004 74.0988 104.004 74.0988C105.832 72.9358 105.832 72.9358 110.151 72.4374H110.318C110.982 71.7728 112.145 70.776 112.976 70.1114C113.142 70.6099 113.308 71.4406 113.474 71.939C107.327 79.083 107.493 80.5783 107.659 81.5752C112.976 81.5752 112.976 81.5752 113.973 82.0736C115.302 82.572 115.468 82.572 115.468 82.572L115.966 82.0736C116.465 82.0736 117.129 82.0736 117.628 81.9074C117.96 82.2397 118.458 82.572 118.791 82.9043C119.455 82.572 119.621 82.572 119.621 82.572C120.12 80.7445 120.12 80.7445 119.289 77.5878C119.123 77.5878 118.957 77.5878 118.791 77.5878C118.625 76.7571 117.96 75.4279 117.129 74.9295C116.631 74.9295 116.132 75.0957 115.634 75.2618C115.302 74.9295 114.803 74.5972 114.471 74.265C114.637 74.265 114.803 74.265 114.969 74.265C114.637 74.0988 113.973 73.7665 113.64 73.4343C114.139 72.4374 114.803 71.2744 115.468 70.2776C115.966 69.4469 115.8 69.4469 115.8 69.4469C116.465 68.6162 117.295 67.287 117.96 66.4563H118.126C118.126 65.9579 118.126 65.2934 118.126 64.7949C115.8 63.6319 115.634 62.9674 115.634 61.8044C115.468 61.8044 115.468 61.8044 115.302 61.8044C114.969 60.8076 114.471 59.6446 113.973 58.8139C114.139 58.8139 114.305 58.8139 114.471 58.8139C113.474 58.4816 112.145 58.3154 111.148 58.3154C110.816 57.3186 110.816 55.8233 110.982 54.8265C110.982 54.3281 110.816 54.3281 110.65 54.3281C110.65 53.8296 110.65 53.1651 110.65 52.6666C110.65 51.3375 110.65 51.3375 110.816 51.3375C110.65 50.3407 110.484 49.0115 110.484 48.1808C110.318 47.184 110.151 47.184 109.985 47.184C109.487 47.184 108.822 47.0179 108.324 47.0179C105.499 49.6761 105.499 49.6761 104.17 50.5068C103.173 50.3407 102.011 49.8423 101.18 49.51C101.18 49.0115 101.346 48.347 101.346 47.8486C101.678 47.5163 102.177 47.184 102.509 46.8517C102.841 46.5194 103.34 46.1871 103.838 45.8549C103.506 45.3564 103.174 44.858 102.841 44.3596C102.509 44.1935 102.841 44.1935 103.173 44.1935C102.675 44.0273 102.011 43.695 101.512 43.5289C102.011 41.5352 101.346 39.3754 96.3617 41.0368C95.531 41.7013 95.531 41.7013 90.8791 47.3501C90.3806 47.5163 89.7161 47.6824 89.3838 47.8486C89.0515 53.9958 89.0515 54.4942 84.5657 57.1525C84.2334 56.9863 83.735 56.8202 83.4027 56.4879C83.5689 56.4879 83.5689 56.4879 83.735 56.4879C83.2366 56.3217 82.7382 56.1556 82.2397 56.1556C77.9201 66.7886 77.9201 66.7886 75.5941 66.4563C75.428 65.9579 75.2618 65.4595 75.2618 64.9611C75.5941 64.4627 76.0925 63.9642 76.4248 63.6319H76.591C77.0894 62.8012 77.7539 61.4721 78.2524 60.4753C78.0862 60.4753 78.0862 60.4753 77.9201 60.4753L78.0862 60.3091C77.7539 60.6414 77.2555 61.1398 76.9232 61.4721C76.9232 60.9737 77.0894 60.3091 77.0894 59.8107C77.2555 58.98 77.0894 58.98 77.0894 58.98C77.5878 58.1493 78.0862 56.9863 78.4185 55.9895C78.5846 55.9895 78.5846 55.9895 78.7508 55.9895C78.7508 55.491 78.5846 54.8265 78.5846 54.4942C76.4248 54.6603 73.2681 55.1588 72.4374 50.8391C72.1051 50.3407 71.939 50.3407 71.7729 50.3407C70.776 50.1745 70.776 50.1745 70.6099 50.1745L70.1115 50.3407L69.9453 49.8422C69.7792 49.8422 69.7792 49.8422 69.7792 49.8422C70.1115 49.3438 70.4437 48.8454 70.776 48.347C71.6067 47.0179 71.6067 47.0179 71.7729 47.0179V46.5194C72.4374 45.3564 72.4374 45.3564 74.5973 42.8643H74.4311C75.0957 42.0336 76.2587 41.0368 77.0894 40.3722C78.5846 39.5415 80.246 38.7108 81.7413 37.8801C83.0704 37.2155 83.0704 37.2155 83.0704 37.2155C84.0673 36.7171 85.3964 36.0526 86.3933 35.5541C86.7255 35.8864 87.224 36.2187 87.7224 36.3848C88.0547 36.2187 88.7192 35.8864 89.0515 35.5541C89.2177 35.388 89.3838 35.388 89.3838 35.388C90.0484 34.7234 91.0452 33.8927 91.8759 33.2282C91.2113 35.2219 91.2113 35.2219 88.8854 36.8833C89.7161 36.8833 89.7161 36.8833 94.0357 36.0526C93.8696 36.551 93.5373 37.2155 93.3712 37.714C93.8696 37.8801 94.5342 38.0462 95.0326 38.2124C95.3649 37.8801 95.8633 37.3817 96.3617 36.8833C96.3617 36.551 96.3617 36.551 96.5279 36.7171V36.3848C96.1956 35.5541 96.1956 34.0589 96.5279 33.2282C96.5279 32.8959 96.5279 32.7297 96.3617 32.7297H96.1956C96.1956 32.7297 96.1956 32.7297 96.0294 32.7297L95.531 32.8959C94.8665 32.5636 94.8665 32.5636 94.7003 32.5636V32.3975C95.0326 32.0652 95.531 31.5668 95.8633 31.2345C98.8538 32.7297 102.675 30.4038 104.004 28.0778C103.838 27.7455 103.838 27.5794 103.672 27.5794V27.4132C105.998 25.918 106.164 25.918 108.324 26.2502C108.822 25.918 108.822 25.918 108.822 25.918H108.988L109.155 25.7518L110.151 24.9211C109.819 25.2534 109.487 25.7518 109.155 26.0841C109.321 26.5825 109.487 27.2471 109.653 27.5794C108.324 28.7424 107.493 29.4069 106.33 29.9053L107.327 31.0683C108.324 30.4038 108.324 30.4038 110.65 28.7424C110.816 29.2408 110.982 29.9053 110.982 30.4038C110.816 30.5699 110.484 30.5699 110.318 30.736C108.158 31.5668 106.496 33.2282 104.17 33.7266C103.838 33.7266 103.672 33.5604 103.34 33.5604C102.343 33.3943 102.177 33.3943 102.177 33.3943L102.011 33.5604C100.515 34.5573 99.8507 35.0557 98.3554 37.3817C103.174 36.551 105.167 37.5478 105.666 40.8706C105.998 40.7045 106.33 40.3722 106.662 40.2061C107.327 41.5352 107.825 42.5321 109.819 42.3659H109.985C110.318 42.0336 110.816 41.5352 111.148 41.0368C111.481 41.3691 112.145 41.7013 112.477 41.8675C112.976 41.7013 113.474 41.3691 113.973 41.2029C114.305 40.5384 114.139 40.5384 114.139 40.5384C114.471 39.8738 114.637 38.7108 114.637 38.0462C114.803 38.0462 114.969 38.0462 114.969 38.0462C114.637 37.2155 114.305 35.8864 114.139 34.8896C114.471 34.225 114.471 34.225 114.305 34.225L114.471 34.0589C114.97 34.225 115.468 34.3911 115.966 34.5573C116.132 35.0557 116.465 35.5541 116.631 36.0526C117.129 36.2187 117.794 36.2187 118.292 36.3848L118.791 36.0526C119.455 35.7203 120.452 35.0557 121.117 34.7234C121.117 34.7234 121.117 34.7234 120.951 34.7234C121.283 34.3911 121.781 33.8927 122.114 33.5604C121.781 33.2282 121.449 32.7297 121.283 32.2313C121.449 32.2313 121.781 32.2313 121.947 32.2313C121.615 31.899 121.117 31.5668 120.618 31.2345C120.618 30.736 120.452 30.0715 120.286 29.5731C119.788 29.4069 119.289 29.2408 118.791 29.0746C118.126 28.5762 118.126 28.5762 117.96 28.5762V28.4101C118.292 27.9117 118.625 27.4132 118.957 26.9148C119.289 26.4164 119.455 26.4164 119.455 26.4164C119.788 26.0841 120.12 25.5857 120.286 25.0873C119.954 24.5888 119.455 24.0904 119.123 23.592C118.625 23.2597 118.458 23.2597 118.292 23.2597V23.0936C118.126 22.5951 117.96 21.9306 117.794 21.4322C117.794 21.0999 117.96 21.0999 118.126 21.266C118.292 20.7676 118.292 20.2692 118.458 19.7707C116.465 18.7739 115.8 18.4416 112.145 19.1062C109.155 21.266 109.155 21.266 107.493 21.5983C107.825 21.266 108.49 20.9337 108.822 20.6015C109.487 20.2692 109.487 20.2692 109.487 20.2692L110.151 19.9369C110.982 19.4385 111.979 18.6078 112.81 17.9432C110.484 18.2755 106.164 18.7739 102.177 23.592C102.509 23.9243 103.173 24.2566 103.506 24.5888C102.509 26.2502 102.343 26.5825 100.515 27.2471C100.515 27.2471 100.515 27.2471 100.349 27.2471C99.5184 27.5794 98.3554 28.2439 97.5247 28.7424C97.857 28.2439 98.3554 27.7455 98.6877 27.2471C99.02 26.9148 99.02 26.9148 98.8538 26.9148C99.1861 26.5825 99.5184 26.0841 99.8507 25.5857C99.3522 25.7518 98.6877 25.7518 98.1893 25.918C98.3554 25.4195 98.6877 24.9211 99.02 24.4227C99.1861 24.2565 99.1861 24.2565 99.3522 24.4227C100.017 23.7581 100.848 22.7613 101.512 22.0967C102.343 21.266 102.343 21.266 102.177 21.266C98.3554 21.5983 96.5279 24.9211 93.3712 26.4164C92.5405 26.7487 91.3775 27.4132 90.5468 27.7455C91.2113 27.0809 92.0421 26.0841 92.8728 25.5857C92.8728 25.5857 92.8728 25.5857 92.7066 25.5857C93.205 25.2534 93.8696 24.755 94.368 24.4227C95.6972 23.592 95.6972 23.592 95.6972 23.592L96.3617 23.0936C96.0294 23.0936 96.0294 23.0936 89.5499 26.5825C88.5531 26.4164 87.3901 26.0841 86.5594 25.7518C86.8917 25.2534 87.224 24.755 87.3901 24.2566C87.8885 23.9243 87.8885 23.9243 87.8885 23.9243C90.5468 23.7581 91.0452 23.592 92.8728 22.7613L93.0389 22.5951C93.8696 22.0967 94.8665 21.0999 95.3649 20.2692C96.1956 19.6046 96.0294 19.6046 96.0294 19.4385C96.8601 18.94 97.857 18.2755 98.8538 17.7771C99.02 17.6109 99.1861 17.6109 99.1861 17.6109C102.177 16.2818 102.177 16.2818 103.173 15.1188L103.672 14.9527C104.669 14.6204 105.832 14.122 106.662 13.7897C107.161 13.6235 107.161 13.6235 107.327 13.6235C110.318 12.4605 110.318 12.4605 111.481 11.2976C111.647 11.1314 111.647 11.1314 111.481 11.1314C110.318 11.4637 109.155 11.796 107.992 12.1283C108.49 11.796 108.988 11.4637 109.487 11.1314C110.318 10.3007 110.318 10.3007 110.318 10.3007L110.65 10.1346C111.314 9.80229 112.311 9.47001 113.142 9.13773C110.65 9.47001 108.656 9.80229 105.167 11.1314C105.666 11.1314 106.33 11.1314 106.829 11.1314C105.832 11.6298 104.503 12.2944 103.506 12.6267C104.004 12.6267 104.503 12.4605 105.001 12.4605C104.17 12.959 103.007 13.4574 102.011 13.7897C102.011 14.2881 101.844 14.7865 101.844 15.2849C101.014 15.6172 101.014 15.6172 94.8664 18.94L95.0326 18.7739C96.0294 18.2755 97.1924 17.4448 98.1893 16.9464C98.6877 16.7802 99.1861 16.4479 99.6845 16.1156C99.1861 15.9495 98.6877 15.7834 98.1893 15.6172C99.02 15.1188 100.017 14.2881 100.848 13.7897C101.346 13.7897 101.346 13.7897 101.346 13.7897C101.844 13.6235 102.343 13.2913 102.841 13.1251C101.844 12.959 98.8538 12.2944 91.0452 16.9464C91.3775 16.9464 91.8759 17.1125 92.2082 17.1125L93.0389 16.7802C93.5373 16.6141 94.0358 16.4479 94.5342 16.1156C91.3775 17.9432 88.387 20.103 85.0641 21.5983C85.7287 20.9337 86.5594 20.2692 87.224 19.6046L87.3901 19.4385C87.7224 19.1062 88.2208 18.7739 88.7192 18.4416C88.2208 18.4416 87.3901 18.2755 86.8917 18.2755C87.3901 17.9432 88.0547 17.6109 88.5531 17.4448C88.387 17.4448 88.3869 17.4448 88.2208 17.4448C88.5531 17.1125 89.2177 16.7802 89.5499 16.6141C89.0515 16.7802 88.5531 16.9464 88.0547 17.1125C88.8854 16.2818 88.7192 16.2818 88.7192 16.4479C87.7224 16.9464 86.5594 17.4448 85.5626 17.7771C86.3933 17.2786 87.7224 16.6141 88.5531 16.1156C88.5531 16.1156 88.5531 16.1156 88.387 16.1156C90.3806 15.1188 90.3806 15.1188 93.3712 13.6235C90.8791 14.7865 87.5563 16.2818 85.0641 17.6109C72.9359 24.4227 71.7729 25.0873 63.4658 31.2345L56.4879 37.0494L56.3218 37.2155C54.9926 38.2124 53.1651 39.8738 51.836 40.8706C45.5226 46.8517 43.5289 49.0115 40.7045 52.1682C41.0368 51.6698 41.7014 51.1714 42.0336 50.673C42.3659 50.3407 42.3659 50.3407 42.3659 50.3407C44.858 47.5163 44.858 47.5163 46.1872 46.3533C46.5195 46.021 46.5195 46.021 46.5195 46.021L47.184 45.3564C35.5542 57.817 0.830709 94.7003 6.4795 148.53C6.64564 148.53 6.97792 148.53 7.3102 148.696C7.47635 148.198 7.47634 147.533 7.64249 147.201C7.64249 146.038 7.47634 146.038 7.47634 146.038C7.3102 145.041 7.3102 143.546 7.14406 142.549C7.14406 141.718 7.14406 141.718 7.14406 141.718L6.97792 140.887C6.97792 139.724 6.97792 139.724 7.47634 135.737H7.3102C7.3102 134.74 7.3102 133.411 7.3102 132.414C7.3102 131.584 7.47634 131.584 7.47634 131.584C7.64249 129.424 7.64249 129.424 7.97477 126.101C7.97477 125.436 7.97477 125.27 7.97477 125.27V124.44C7.97477 123.443 8.14091 122.114 8.30705 121.283C8.30705 121.283 8.30705 121.283 8.47319 121.449C8.63933 120.452 9.13775 118.957 9.47004 117.96C9.13775 147.035 8.80547 169.962 16.1157 177.771C16.6141 177.771 17.2787 177.605 17.7771 177.605C18.6078 178.269 19.4385 179.432 19.7708 180.429C20.2692 180.429 20.7676 180.595 21.266 180.595C21.266 180.595 21.266 180.595 21.0999 180.595C21.266 180.097 21.4322 179.598 21.5983 179.1C22.0967 178.934 22.7613 178.768 23.2597 178.601C48.0147 211.83 48.0147 211.83 51.1714 213.159C51.5037 212.66 51.836 211.996 52.1682 211.663C52.3344 210.334 52.3344 210.334 52.5005 210.334C52.8328 210.002 53.4974 209.836 53.8297 209.504C56.654 212.162 56.654 212.162 60.3091 246.553C60.4753 248.547 113.64 303.041 114.139 303.539C120.951 309.022 128.095 314.837 146.204 316.166L148.364 316.332C147.865 316.332 147.367 316.332 146.869 316.166C145.872 316 145.872 316 145.872 316C144.543 315.834 144.543 315.834 144.543 315.834C144.044 315.668 143.38 315.502 143.047 315.502C142.881 315.335 142.881 315.335 142.881 315.335L141.718 314.837C141.718 314.837 141.718 314.837 141.884 314.837C139.724 314.505 139.558 314.505 138.229 313.84C138.728 313.84 139.392 314.006 139.891 314.172C140.223 314.006 140.223 314.006 140.057 314.006C139.558 313.84 139.06 313.508 138.562 313.342L138.395 313.176C139.226 313.176 140.389 313.176 141.22 313.176C140.887 312.511 140.721 312.345 140.721 312.345L140.223 311.514C140.223 311.514 140.223 311.514 140.389 311.514C139.558 311.016 138.395 310.351 137.399 310.019C137.232 310.019 137.232 310.019 137.066 310.019C136.568 309.853 136.069 309.52 135.571 309.354C135.073 308.856 135.073 308.856 135.073 308.856C134.74 308.524 134.408 307.859 134.076 307.527C137.897 310.185 137.897 310.351 140.555 310.019C141.054 309.022 141.054 309.022 141.054 309.022C141.22 308.524 141.386 307.859 141.552 307.361C141.386 307.195 141.386 307.195 141.386 307.195V307.028C141.054 305.865 141.054 305.865 141.054 305.865C141.386 305.533 141.718 304.869 141.884 304.536C142.05 303.706 142.05 303.706 141.884 303.706V303.539C142.217 303.207 142.715 302.709 142.881 302.376C143.047 302.21 143.047 302.21 143.213 302.21C143.213 301.712 143.047 301.047 143.047 300.549C142.383 299.718 142.383 299.718 142.217 299.718C142.05 299.22 141.718 298.721 141.552 298.223C141.718 298.057 141.718 298.057 141.718 298.057C145.373 294.568 147.865 294.236 151.022 293.903C152.185 293.405 152.185 293.405 152.351 293.405L152.517 293.239C152.683 292.74 153.016 292.076 153.182 291.577C153.514 290.414 153.514 290.414 153.348 290.414C153.68 289.916 153.846 289.417 154.179 288.919C154.677 288.254 154.677 288.254 154.843 288.254C155.342 287.258 155.508 285.928 155.342 284.932C155.176 284.932 155.176 284.932 155.009 284.932C155.009 284.433 155.176 283.769 155.176 283.27C155.342 282.606 155.508 282.606 155.508 282.606C155.84 281.609 156.006 280.114 156.006 278.951C155.84 278.951 155.84 278.951 155.674 278.951C155.508 278.452 155.342 277.788 155.176 277.123C155.176 276.458 155.342 276.458 155.342 276.458C155.674 274.465 155.674 274.299 157.335 272.637C157.335 272.637 157.335 272.637 157.169 272.637C158 271.807 158.831 270.81 159.661 269.979H159.828C161.821 267.653 161.821 267.653 162.486 265.825C162.32 265.825 162.32 265.825 162.154 265.825C162.32 265.327 162.652 264.662 162.818 264.164C163.316 263.001 163.483 263.001 163.649 263.001C164.479 260.675 164.812 259.678 164.978 258.515Z" fill="#A57549"/>
<path d="M59.9769 168.965L59.4784 169.464C58.8139 170.294 56.9863 169.63 55.9895 168.965C55.8233 168.965 55.8233 168.799 55.6572 168.799C55.6572 168.799 55.4911 168.633 55.4911 168.467C55.3249 168.301 55.1588 168.135 54.9926 167.968C53.9958 166.639 52.6667 165.476 51.6698 164.147C51.1714 163.649 51.0053 162.984 50.673 162.486C50.0084 161.489 47.8486 161.323 46.021 161.323C42.0337 160.99 42.0337 160.99 41.8675 160.824C41.5352 160.658 41.2029 160.326 41.2029 159.163C41.2029 158.997 41.2029 158.665 41.2029 158.498C41.3691 158.498 41.3691 158.498 41.5352 158.332V158.166C45.1903 156.837 46.1872 156.837 46.6856 156.837C47.6824 157.003 49.0116 157.169 50.5068 158.166C51.6698 159.163 52.3344 160.492 53.3312 161.655C53.1651 161.655 52.8328 161.655 52.6667 161.655C54.3281 163.649 55.6572 164.646 56.654 164.646C57.3186 164.646 58.1493 165.476 58.8139 166.307C58.98 166.307 59.1462 166.307 59.3123 166.307C60.143 168.301 60.143 168.799 59.9769 168.965Z" fill="#A57549"/>
<path d="M82.2397 178.435C82.2397 178.934 82.0736 179.266 81.9075 179.432C81.5752 179.931 80.9106 180.429 80.9106 180.429C80.2461 180.761 79.7476 180.595 79.2492 180.097C78.2524 178.934 78.2524 175.445 80.0799 175.445C81.409 175.611 81.7413 177.438 81.9075 178.103C82.0736 178.103 82.2397 178.103 82.2397 178.103C82.2397 178.269 82.2397 178.269 82.2397 178.435Z" fill="#A57549"/>
<path d="M258.183 95.1987C258.515 96.0294 258.349 97.0263 257.851 98.0231C257.684 98.1892 257.352 98.6877 256.521 98.1892C254.362 97.0263 253.697 92.8727 254.86 92.3743H255.026C255.525 92.3743 256.189 92.8727 257.02 93.8696C257.186 93.8696 257.186 93.8696 257.352 93.8696C257.684 94.0357 258.017 94.5341 258.183 95.1987Z" fill="#A57549"/>
<path d="M246.553 97.6908C246.719 98.0231 246.719 98.0231 246.387 98.6877C246.055 99.5184 244.892 99.1861 244.726 98.6877C244.559 98.3554 244.726 97.5247 244.892 97.1924C244.892 97.1924 244.892 97.0263 245.058 97.0263L245.224 96.8601C245.224 96.8601 245.224 96.694 245.39 96.694C245.556 96.5278 245.556 96.5278 245.722 96.5278C246.055 96.3617 246.553 97.1924 246.553 97.6908Z" fill="#A57549"/>
<path d="M271.474 102.177C271.806 103.672 270.643 104.669 269.813 104.17C269.647 104.17 269.647 104.004 269.481 104.004C268.816 103.506 268.318 103.007 267.653 102.509C267.155 102.177 266.49 101.844 265.992 101.512C265.493 101.014 265.161 100.847 264.995 100.515C264.164 99.5184 265.161 99.1861 265.327 99.1861H265.493C265.659 99.1861 267.819 99.0199 268.484 99.1861C269.148 99.3522 269.647 100.017 270.145 100.515C270.311 100.515 270.311 100.515 270.477 100.515L270.81 101.014C271.142 101.18 271.308 101.678 271.474 102.177Z" fill="#A57549"/>
<path d="M212.993 61.3059C213.325 61.9705 213.325 62.4689 213.325 62.6351H213.159C213.159 63.1335 213.159 63.9642 212.66 64.7949C212.328 65.4595 210.667 67.1209 210.5 67.287C209.67 67.9516 208.839 68.2839 207.344 66.9547C206.679 66.2902 205.682 65.1272 206.181 64.4626C206.347 64.1303 206.513 63.9642 206.347 63.4658C206.015 62.3028 204.852 61.6382 204.519 60.4752C204.353 59.8107 204.353 59.8107 204.852 58.98C205.018 58.98 205.35 58.98 205.516 58.98C205.849 58.8138 205.849 58.8138 206.015 57.817C206.015 56.9863 206.181 56.3217 207.344 56.3217C209.171 56.1556 210.168 57.4847 210.999 58.4815C211.165 58.4815 211.165 58.4815 211.331 58.4815C212.494 59.9768 212.993 61.1398 212.993 61.3059Z" fill="#A57549"/>
<path d="M228.61 64.1304C229.108 65.9579 228.111 67.4532 227.613 67.7855C227.115 68.1177 226.118 67.9516 224.622 67.6193C222.13 67.287 221.798 67.287 221.466 67.6193C220.967 68.1178 221.466 69.2807 220.469 69.4469C220.303 69.4469 219.804 69.2807 219.804 69.2807C219.638 69.1146 219.306 68.6162 219.306 67.4532C217.811 67.1209 215.651 69.1146 214.986 67.1209C214.654 66.1241 215.983 61.306 216.315 60.3091C216.482 59.9768 216.648 59.6446 216.648 59.4784C216.149 58.98 215.983 58.8139 213.491 58.1493C211.663 57.6509 210.168 57.1525 206.347 53.3312C204.852 51.8359 204.021 49.8423 205.35 49.8423C207.012 49.8423 207.012 49.8423 207.012 49.51C207.012 48.8454 207.012 47.5163 207.842 47.3501C207.842 47.3501 207.842 47.3501 209.171 47.8486C209.338 47.8486 209.338 47.8486 212.494 48.0147C211.83 48.0147 211.331 48.1808 210.667 48.1808C212.993 48.0147 214.82 48.1808 215.152 50.5068H215.319C215.319 53.3312 215.319 53.3312 216.814 54.8265C216.648 54.8265 216.648 54.8265 216.482 54.8265C217.478 55.6572 218.641 56.654 219.638 57.4847C219.804 57.4847 219.971 57.4847 219.971 57.4847C221.798 58.98 223.958 59.8107 225.785 61.306C225.619 61.306 225.453 61.306 225.453 61.306C227.447 62.9674 227.779 63.6319 227.945 64.1304H228.111C228.111 64.1304 228.111 64.1304 228.278 64.1304C228.444 63.9642 228.444 64.1304 228.61 64.1304Z" fill="#A57549"/>
<path d="M298.555 220.469C297.724 222.463 296.063 225.952 294.9 227.613C294.9 227.613 294.734 227.779 294.568 227.779C294.402 227.613 294.568 226.948 295.398 225.121H295.232C295.731 223.958 296.063 222.961 296.561 221.632H296.728C297.06 220.967 297.226 220.469 297.392 220.137C298.223 218.808 298.887 218.641 299.054 218.808C299.054 218.974 299.054 219.14 298.555 220.469ZM289.916 79.7476C290.913 81.9074 289.085 82.7381 288.753 82.7381C288.587 82.7381 288.587 82.7382 286.593 81.409L286.759 81.2429C283.27 78.9169 283.935 82.9043 283.935 82.9043C284.267 84.2334 284.267 84.2334 284.101 84.3996C283.935 84.898 283.603 84.898 282.606 85.2303C281.443 85.3964 282.273 86.8917 281.775 87.5562C281.609 87.5562 281.609 87.5562 281.443 87.224C280.944 86.2271 280.612 85.2303 279.947 84.0673H280.114C279.283 82.4059 277.788 81.0767 277.123 79.2492C277.123 79.2492 277.123 79.2492 276.957 79.2492C276.625 78.0862 276.458 76.9232 275.96 75.5941C275.96 75.5941 275.96 75.5941 276.126 75.5941C275.628 74.0988 275.129 72.9358 274.299 70.9421L274.132 70.4437C273.302 68.45 273.8 68.2839 274.132 68.2839C274.631 68.45 276.791 70.6099 279.449 73.6004C279.781 73.9327 279.781 73.9327 279.947 74.0988C280.114 73.9327 280.28 71.939 278.286 68.6162C277.123 66.6225 278.286 66.4563 278.286 66.4563C278.286 66.4563 278.784 66.6225 279.283 68.1178L279.449 68.6162C279.615 69.4469 279.781 69.613 280.114 70.1114C281.11 70.9421 282.273 71.4406 283.27 72.2713C286.593 75.2618 288.421 76.7571 289.916 79.7476ZM284.932 64.4626C285.098 64.6288 285.264 64.9611 285.43 65.2934H285.264C285.098 65.1272 284.765 64.7949 284.599 64.6288C284.599 65.2934 287.922 69.7792 287.922 69.9453V69.7792C288.254 69.9453 293.903 77.2555 299.386 87.8885C299.884 88.8854 300.217 89.7161 300.383 90.5468C300.217 90.5468 299.22 89.8822 298.223 88.2208C297.558 87.224 297.06 86.2271 296.395 84.898C295.897 83.9011 295.565 83.5688 295.398 83.0704C295.398 82.7381 295.565 82.572 293.903 79.2492C293.073 77.7539 292.574 77.0894 291.743 76.5909V76.4248C291.245 76.2587 291.245 76.2587 288.421 72.4374C287.59 71.4406 286.925 70.6099 286.261 69.9453L286.095 69.613C284.932 68.2839 284.101 66.9548 282.772 64.9611C281.941 63.6319 281.941 63.6319 281.941 63.2997C282.107 63.2997 282.44 63.2997 282.606 63.2997C282.606 62.9674 282.606 62.9674 281.11 60.6414C280.778 60.143 280.612 59.8107 280.28 59.3123C281.277 59.4784 284.932 64.2965 284.932 64.4626ZM243.895 35.2218C244.061 35.388 244.061 35.388 244.227 35.5541L244.559 36.0525C244.393 36.0525 244.227 36.2187 244.061 36.2187C243.729 36.2187 242.4 35.7203 240.738 34.3911L240.572 34.225C240.24 33.8927 239.575 33.3943 240.074 33.3943C240.738 33.2281 242.898 34.3911 243.895 35.2218ZM209.67 8.63929C208.673 8.30701 207.344 7.97473 206.347 7.64245C210.334 8.97157 216.814 11.2975 222.795 13.9558C223.127 14.1219 223.127 14.1219 223.127 14.1219C222.629 13.9558 222.13 13.7897 221.632 13.6235C220.967 13.2912 220.967 13.2912 220.801 13.2912C221.3 13.7897 221.3 13.7897 221.3 13.7897C222.296 14.2881 223.626 14.9526 224.622 15.2849C224.955 15.4511 224.955 15.4511 224.955 15.4511C225.121 15.6172 225.121 15.6172 225.121 15.6172C225.453 15.9495 225.785 16.4479 226.118 16.6141C225.453 16.4479 225.453 16.6141 225.453 16.6141C226.284 17.2786 227.115 18.1093 227.779 18.94C228.61 19.4385 229.773 20.103 230.77 20.7676C230.604 20.7676 230.271 20.6014 230.105 20.6014L229.939 20.4353C228.776 19.7707 227.447 19.1062 226.284 18.4416C225.121 17.777 225.121 17.777 225.121 17.9432L224.29 17.6109C224.456 17.777 224.456 17.777 233.096 22.9274C232.265 22.5951 231.102 21.9306 230.271 21.5983C231.933 23.592 231.933 23.592 235.422 25.7518C234.923 25.7518 234.425 25.7518 233.926 25.7518C234.093 25.9179 234.259 26.2502 234.425 26.5825C233.428 26.2502 232.099 25.7518 231.268 25.0872C230.604 24.755 230.604 24.755 230.437 24.755C229.939 24.5888 229.441 24.2565 228.942 24.0904C229.441 24.0904 229.939 24.0904 230.437 23.9243C229.773 21.4321 229.108 21.0999 224.456 19.2723C223.958 19.1062 223.958 19.1062 223.958 19.1062C223.46 18.94 222.961 18.7739 222.463 18.6077C221.632 19.1062 220.469 19.2723 219.472 19.1062C218.309 18.7739 218.309 18.7739 218.475 18.7739C217.478 18.4416 217.478 18.4416 211.663 17.1125H211.497C210.334 16.9463 208.839 16.6141 207.676 16.4479C207.676 16.9463 207.676 17.6109 207.51 17.9432C207.842 18.2755 207.676 18.2755 207.676 18.2755C208.341 19.2723 209.005 20.6014 209.67 21.5983C223.792 49.1777 223.792 49.1777 228.776 47.3501C228.61 46.8517 228.444 46.1871 228.278 45.8549C228.111 45.3564 228.111 45.3564 228.278 45.3564C228.111 44.858 227.945 44.1934 227.779 43.8612C231.102 46.021 233.594 49.1777 236.418 51.8359C237.914 51.1714 238.578 51.0052 239.907 48.6793C239.741 48.1808 239.575 47.5163 239.409 47.0178C238.744 46.1871 238.578 46.1871 238.578 46.1871C237.914 45.3564 237.249 44.3596 236.751 43.5289C236.751 43.5289 236.751 43.5289 236.917 43.5289C236.418 42.6982 235.92 41.5352 235.422 40.5383C234.425 39.3754 234.425 39.3754 234.425 39.3754C233.096 38.3785 233.096 38.3785 230.271 37.3817C230.437 37.3817 230.437 37.3817 230.604 37.3817C228.776 36.0525 228.776 36.0525 228.111 34.3911C228.278 33.8927 228.444 33.3943 228.61 32.8959C228.278 32.2313 227.613 31.4006 227.115 30.736C226.284 29.9053 225.121 28.9085 224.124 28.2439C223.127 27.5794 223.127 27.5794 223.127 27.5794C223.626 27.4132 224.124 27.0809 224.456 26.7487C226.45 27.4132 226.782 27.4132 228.444 30.4038C229.939 33.7266 230.105 33.8927 237.415 38.8769C239.409 34.8896 242.566 37.3817 244.227 38.7108C241.403 40.5383 241.403 40.5383 240.904 41.5352C241.901 42.0336 243.23 42.6982 244.227 43.1966C243.895 43.5289 243.23 43.8612 242.898 44.1935C243.064 46.1871 243.23 46.6856 247.384 51.5037C247.051 52.3344 246.885 52.3344 246.719 52.3344C243.563 51.8359 242.4 52.9989 241.901 53.4973H241.735C240.572 53.9958 240.572 53.9958 240.572 53.9958C240.406 53.9958 240.24 53.9958 240.074 54.1619C239.907 54.1619 239.907 54.1619 239.741 54.1619H239.409C239.409 54.1619 239.409 54.1619 239.243 54.1619L238.578 54.4942C237.914 54.1619 237.748 54.1619 237.581 54.1619C237.249 53.8296 236.585 53.4973 236.252 53.1651C235.255 52.0021 235.089 51.8359 234.923 51.5037H235.089C232.93 48.5131 232.93 48.5131 231.268 48.1808C230.936 48.5131 230.604 49.1777 230.437 49.51C231.767 53.1651 231.767 53.1651 236.585 57.1524C236.418 57.1524 236.252 57.1524 236.252 57.1524C235.255 56.9863 234.093 57.1524 233.096 57.3186C232.93 57.6509 232.597 58.1493 232.431 58.4816L232.265 58.6477C232.099 59.8107 232.099 61.4721 231.933 62.8012C231.6 63.4658 231.268 63.4658 231.102 63.4658C230.604 63.7981 229.939 64.2965 229.607 64.7949C229.939 65.7918 230.271 67.287 230.604 68.2839C230.105 68.9484 230.105 68.9484 224.955 71.939C224.456 72.6036 224.456 72.6036 224.456 72.6036C223.626 73.102 222.629 73.7665 221.798 74.0988C221.798 74.5972 221.798 75.2618 221.798 75.7602C229.939 78.0862 231.767 78.7508 232.431 87.224C228.278 90.5468 223.459 88.0547 219.14 89.0515C217.645 91.3775 218.475 105.333 224.789 110.484C228.61 109.819 228.61 109.819 231.767 113.807C232.099 113.474 232.431 112.976 232.763 112.477C232.93 112.145 232.93 112.145 233.096 112.145C233.262 111.647 233.262 110.982 233.428 110.484C233.594 110.318 233.76 110.318 233.926 110.151C238.744 110.484 240.074 107.493 240.572 106.33C240.738 105.499 240.738 105.499 240.738 105.666C241.237 104.835 241.735 103.672 242.067 102.841C241.403 101.844 241.569 101.844 241.735 101.844C240.406 100.017 240.406 99.8507 241.403 97.0263C240.904 96.3617 240.904 96.3617 240.738 96.3617L241.07 95.531C241.735 94.8664 242.898 94.0357 243.729 93.7035C243.729 93.205 243.895 92.7066 243.895 92.2082C244.061 92.2082 244.061 92.2082 244.227 92.2082C243.396 88.0547 243.396 88.0547 243.729 86.8917C247.716 87.7224 247.716 87.7224 248.879 87.3901C249.211 86.8917 249.544 86.3932 249.876 85.8948C250.208 85.0641 250.873 84.0673 251.703 83.4027C256.023 84.7318 256.023 84.7318 272.471 100.183C273.136 99.5184 273.136 99.5184 272.969 99.5184C272.471 98.6877 271.973 97.5247 271.474 96.694C271.308 96.1956 271.308 96.1956 271.474 96.1956C269.813 93.3712 269.813 93.205 269.481 92.3743C269.813 92.2082 270.477 91.8759 270.81 91.7098C270.81 91.5436 270.81 91.5436 270.81 91.3775L270.976 91.0452C270.311 90.7129 270.145 90.7129 269.979 90.7129C267.155 88.7192 266.656 88.5531 265.659 88.0547C265.825 88.0547 265.992 88.0547 266.158 87.8885L265.825 87.7224C263.167 86.3932 263.001 86.2271 261.007 84.5657C260.177 83.735 260.177 83.735 260.177 83.735C260.01 83.735 260.01 83.735 259.844 83.735C259.014 83.0704 257.851 82.0736 257.02 81.5752C256.355 80.9106 256.355 80.9106 256.522 80.9106C255.857 80.246 255.026 79.2492 254.694 78.4185C255.857 78.2523 266.158 77.7539 280.446 105.167C280.778 104.835 281.11 104.336 281.277 103.838C281.443 103.007 281.443 103.007 281.443 103.007C281.609 101.346 281.775 99.5184 281.941 97.857C281.775 97.0263 281.775 97.0263 281.609 97.0263L281.443 96.1956C280.944 95.3649 280.28 94.368 279.615 93.7035C279.781 93.7035 279.781 93.7035 279.947 93.5373C279.283 92.8727 278.286 92.2082 277.621 91.5436C277.788 90.7129 277.954 89.7161 278.12 88.8854V88.2208C278.618 88.2208 279.283 88.0547 279.615 88.0547C284.766 97.0263 284.766 97.0263 289.251 100.017C289.584 99.6845 290.082 99.3522 290.414 99.02C292.076 99.3522 292.906 99.3522 293.737 96.8601C296.894 99.6845 298.721 110.151 299.386 114.139C299.054 114.471 298.721 114.969 298.389 115.468C298.057 115.136 297.724 114.637 297.392 114.305C295.232 115.302 295.232 115.302 294.402 122.944H294.236C294.069 122.944 294.069 122.944 293.903 123.11L293.737 122.944C293.737 121.947 293.737 120.618 293.903 119.788C294.069 119.123 294.069 119.123 294.069 119.123C294.402 115.468 294.402 115.468 293.405 114.139C291.743 114.471 290.248 115.136 288.421 114.969C288.254 114.969 288.088 115.136 287.922 115.136C287.091 114.637 285.928 114.139 285.098 113.807C284.433 116.797 284.932 119.788 284.765 122.778C284.433 123.11 283.935 123.443 283.603 123.775C283.104 123.609 282.606 123.277 282.107 122.944C281.941 122.778 282.107 122.612 282.273 122.612C279.947 121.117 277.455 119.954 274.963 118.458C274.631 118.458 274.299 118.458 274.132 118.458C269.647 116.797 269.647 116.797 268.151 115.8C268.318 115.8 268.484 115.8 268.65 115.634C265.327 113.308 265.327 113.308 264.829 112.477C265.327 111.481 266.158 110.318 266.822 109.321C266.49 108.49 265.992 107.327 265.659 106.496C265.825 106.496 265.825 106.496 265.992 106.496L265.659 105.998C258.681 96.3617 241.901 110.484 241.735 110.65C241.735 110.65 241.735 110.65 241.901 110.65L241.735 110.816C237.249 114.803 231.6 116.797 227.115 120.618L226.45 121.283C225.619 122.612 223.792 125.104 224.456 132.082C224.622 133.411 224.789 135.239 224.456 136.402C224.29 137.399 222.961 137.897 222.13 138.562C218.808 141.054 218.808 141.054 211.663 160.16C208.341 169.131 215.983 178.934 209.836 187.739L209.338 188.238C210.667 192.059 209.338 196.379 211.663 199.868C214.654 204.353 221.3 205.184 223.293 210.833C227.115 221.3 231.102 222.629 232.265 222.795C232.597 222.463 232.93 221.964 233.262 221.632C233.096 221.632 233.096 221.632 232.93 221.632L233.262 220.801C233.76 220.303 234.093 219.472 234.591 219.14C238.578 217.312 243.064 219.14 247.051 217.146C250.707 215.319 251.703 210.168 256.522 209.67C257.518 209.504 257.518 209.504 262.669 217.811C264.662 217.645 264.995 217.478 267.985 214.156C270.644 216.482 270.643 216.648 270.477 218.309C269.979 223.792 265.161 227.613 264.164 232.93C263.167 237.748 265.659 242.4 264.829 247.218C264.496 249.045 260.177 259.014 260.177 259.014C243.895 288.753 228.776 297.392 219.804 302.709C222.463 302.044 226.948 300.217 230.77 298.223C231.767 297.724 232.93 297.06 233.926 296.562C234.425 296.229 234.425 296.229 234.425 296.229C236.252 295.232 237.249 294.568 239.575 293.239C240.406 292.74 241.735 291.91 242.566 291.411C243.064 291.079 243.064 291.079 243.064 291.079C245.39 289.584 245.556 289.417 247.051 288.254C247.55 287.922 247.55 287.922 247.55 287.922C248.381 287.258 249.377 286.593 250.042 285.928C250.042 285.928 250.042 285.928 250.208 285.928C251.87 284.599 253.697 283.603 255.359 282.273C256.023 281.775 256.023 281.775 256.023 281.775C256.854 281.11 257.851 280.28 258.681 279.449C258.681 279.449 258.681 279.449 258.848 279.449C259.678 278.618 260.841 277.621 261.838 276.791C262.503 276.126 262.503 276.126 262.503 276.126L262.835 275.794C263.167 275.462 263.666 274.963 264.164 274.631C265.327 273.634 265.327 273.634 265.327 273.634C267.155 271.973 267.321 271.807 269.148 270.145C269.813 269.481 269.813 269.481 269.813 269.481C270.643 268.816 271.64 267.819 272.305 266.988C272.969 266.324 272.969 266.324 272.969 266.324C274.299 264.995 274.465 264.662 276.458 262.669C277.455 261.506 277.455 261.506 277.455 261.672C278.12 260.841 279.117 259.844 279.781 259.014C280.114 258.681 280.114 258.681 280.114 258.515L280.612 257.851C281.277 257.02 282.107 255.857 282.772 255.026C283.436 254.029 283.436 254.196 283.436 254.196C284.101 253.365 284.932 252.202 285.596 251.205C287.258 248.879 287.258 248.879 288.421 247.052C288.587 246.719 288.587 246.719 288.587 246.719C289.085 245.889 289.584 244.726 290.082 243.895C290.082 243.895 290.082 243.895 290.248 243.895C290.913 242.898 291.577 241.403 292.242 240.406C292.74 239.409 292.74 239.409 292.74 239.409C293.239 238.578 293.737 237.415 294.236 236.751C294.568 236.252 294.568 236.252 294.568 236.252C295.399 234.757 296.229 233.262 297.06 231.767C297.392 231.268 297.226 231.268 297.226 231.268C297.724 230.271 298.555 228.942 299.054 228.111C299.386 227.613 299.386 227.613 299.386 227.613C300.217 225.952 300.549 225.619 301.546 223.293C302.21 221.964 302.21 221.964 302.21 221.964L302.376 221.798C302.875 220.801 303.373 219.638 303.872 218.808C304.204 218.309 304.204 218.309 304.204 218.143C305.367 215.651 305.699 214.986 306.696 212.162C307.028 211.165 307.527 210.002 308.025 209.171C308.524 207.842 308.524 207.842 308.524 207.842C309.354 205.516 309.687 204.686 310.517 201.861V201.529C310.85 200.532 311.182 199.369 311.348 198.538C311.514 197.874 311.514 197.874 311.514 197.874C312.179 195.216 312.345 194.551 313.009 191.893C313.176 190.896 313.508 189.567 313.674 188.736C313.84 187.905 313.84 187.905 313.84 187.905C314.339 185.413 314.505 184.583 314.671 182.589C314.837 181.924 314.837 181.924 314.837 181.924C315.003 181.094 315.169 179.764 315.335 178.934C315.502 177.937 315.502 177.937 315.502 177.937C315.668 176.94 315.834 175.777 315.834 174.78C315.169 177.937 315.169 178.103 314.837 179.764V179.931C314.505 180.927 314.172 182.423 313.84 183.42C313.674 182.921 313.674 182.423 313.508 181.924C313.508 181.426 313.674 181.426 313.674 181.426C314.006 178.269 314.006 178.269 314.172 176.442C314.172 175.777 314.172 175.777 314.006 175.777C314.006 174.78 314.006 173.285 313.84 172.288C313.84 172.288 313.84 172.288 314.006 172.122C313.84 170.461 313.508 168.633 313.342 166.972C313.342 166.972 313.176 166.972 313.176 167.138C313.009 165.975 313.009 164.646 312.843 163.483C312.843 163.483 313.009 163.483 313.009 163.316V163.15C312.677 160.991 312.511 160.16 311.68 158.166C311.68 158.166 311.514 158.166 311.514 158.332C311.182 157.502 310.85 156.339 310.517 155.508C310.517 154.843 310.517 154.843 310.517 154.677C310.185 152.683 310.185 152.683 310.019 149.693C309.853 148.862 309.853 148.862 309.853 148.862C309.687 148.032 309.687 146.869 309.52 145.872C309.354 144.875 309.52 144.875 309.52 144.875C309.022 142.05 309.022 142.05 308.524 140.057C308.191 139.392 308.191 139.392 308.191 139.392C307.859 138.229 307.361 136.9 307.028 135.737C307.028 135.737 307.195 135.737 307.195 135.571C306.862 134.408 306.198 132.747 305.865 131.417C305.367 130.088 305.367 130.254 305.201 130.254C304.869 129.258 304.37 128.095 304.038 127.264C303.872 126.765 303.872 126.765 304.038 126.765L303.706 126.101C303.872 125.769 304.204 125.104 304.536 124.772C304.702 124.938 314.837 141.22 314.505 173.617C315.834 171.79 316.831 169.298 316.831 154.843C316.332 147.367 315.335 137.399 314.339 130.088V130.421C314.505 130.919 314.505 131.584 314.671 132.248C314.671 132.58 314.671 132.747 314.671 132.747C314.339 131.085 314.339 130.421 314.006 129.091C314.006 129.091 314.006 129.091 314.006 128.925V128.759C313.009 125.27 313.009 125.27 312.677 123.775C312.345 122.778 312.013 121.449 311.68 120.452C311.68 120.452 311.68 120.452 311.68 120.286C310.683 117.462 310.683 117.462 310.185 115.966C310.019 115.302 310.019 115.302 310.019 115.302C309.687 114.305 309.354 112.81 309.188 111.813C311.348 116.465 313.009 123.11 313.009 123.11C311.514 117.462 309.354 109.985 307.527 104.503C301.213 89.2177 301.213 89.2177 297.06 81.7413C288.753 68.1178 288.587 67.7855 283.27 61.1398C272.969 49.0115 272.803 48.8454 266.49 42.8643C254.86 32.8959 254.362 32.3974 246.885 27.4132C234.923 20.103 233.76 19.2723 224.622 14.9526L217.811 12.1283L217.478 11.9621C215.152 10.9653 215.152 10.9653 213.823 10.633C211.996 9.47 210.667 8.97157 209.67 8.63929ZM208.673 8.30701C208.008 8.14087 207.344 7.80859 206.679 7.64245C211.996 9.47 211.996 9.47 213.657 10.1346C212.66 9.80228 211.331 9.30386 210.501 8.97157L210.168 8.80543C209.67 8.63929 209.171 8.47315 208.673 8.30701Z" fill="#A57549"/>
<path d="M197.708 5.4826C199.535 5.98102 200.864 6.3133 202.692 6.81173C203.855 7.14401 204.021 7.14401 204.187 7.31015C204.187 7.31015 204.021 7.31015 203.855 7.31015C204.519 7.97471 210.002 9.9684 213.159 11.1314C214.322 11.4637 215.485 11.9621 216.648 12.2944C218.974 13.2912 219.971 13.7896 220.303 13.9558C220.303 13.9558 217.478 13.9558 211.83 11.2975H211.663C210.168 10.633 209.005 10.1345 207.842 9.63612C204.852 8.47314 201.695 7.64243 198.705 6.14716C198.871 6.14716 198.871 6.14716 199.037 6.14716C198.871 5.98102 198.705 5.98102 197.375 5.64874C196.545 5.4826 196.212 5.31646 196.046 5.31646C196.379 5.31646 196.379 5.31646 197.043 5.4826H197.708Z" fill="#A57549"/>
<path d="M116.132 9.46997C115.8 9.63611 115.302 9.80225 114.97 9.80225C112.644 10.633 112.644 10.633 112.311 10.633C112.477 10.3007 112.81 10.4668 112.976 10.3007C112.644 10.1345 112.311 10.4668 111.979 10.3007C111.979 10.3007 112.81 9.80225 114.803 9.30382H114.97C115.468 9.13768 115.966 9.13768 116.631 8.97154C118.126 8.63926 118.458 8.63926 118.458 8.63926C118.458 8.63926 118.458 8.63926 116.132 9.46997Z" fill="#A57549"/>
<path d="M117.628 10.7991C115.302 11.7959 115.468 11.6298 115.468 11.4637C115.634 10.9652 115.8 10.9652 116.963 10.4668C117.462 10.3007 117.462 10.3007 117.462 10.1345C117.129 9.96838 116.797 10.1345 116.465 10.1345C116.797 9.80224 120.452 8.30698 121.615 8.63926C122.28 8.97154 117.794 10.7991 117.628 10.7991Z" fill="#A57549"/>
<path d="M107.493 18.2755C106.829 18.6077 106.829 18.6077 105.998 18.94C103.672 19.1062 103.672 19.1062 103.672 19.1062C103.506 18.2755 108.49 16.7802 108.988 16.6141C109.155 16.6141 109.155 16.6141 109.321 16.6141C108.822 17.2786 108.822 17.2786 108.822 17.2786C108.822 17.4448 108.324 17.777 107.493 18.2755Z" fill="#A57549"/>
<path d="M119.123 16.7802C118.126 17.4447 116.797 18.1093 114.803 16.9463C114.471 16.7802 114.139 16.614 112.644 16.7802C112.477 16.614 112.145 16.4479 111.979 16.2818C112.311 15.7833 112.311 15.7833 113.973 14.2881C114.305 13.9558 114.471 13.4574 114.803 13.1251C114.97 12.9589 115.136 12.7928 115.8 12.2944C116.797 11.4637 117.462 11.1314 119.954 10.1345C119.788 10.1345 119.788 10.3007 119.621 10.3007C119.788 10.3007 119.954 10.1345 120.286 10.1345C119.954 10.3007 119.954 10.3007 119.123 11.1314H118.957C118.791 11.2975 118.625 11.6298 118.458 11.9621C118.292 12.1282 118.126 12.2944 117.295 12.7928H117.462C117.129 13.1251 115.302 14.2881 115.136 14.7865C115.468 14.9526 115.8 14.7865 116.132 14.9526C116.465 14.9526 116.797 15.1188 117.129 15.2849C117.295 15.2849 117.462 15.2849 117.628 15.4511C117.628 15.4511 118.625 15.6172 119.123 15.6172C119.455 15.6172 119.621 15.9495 119.621 16.2818C119.455 16.2818 119.455 16.2818 119.289 16.2818C119.455 16.4479 119.455 16.614 119.123 16.7802Z" fill="#A57549"/>
<path d="M183.918 34.5573C183.918 34.7234 184.084 35.5541 183.752 36.7171V36.8832C182.423 37.0494 181.758 37.3816 181.758 37.8801C181.592 38.8769 179.432 40.3722 178.269 40.0399C177.937 39.8738 177.438 39.5415 177.106 39.0431C176.774 38.5446 176.442 38.0462 175.112 38.0462C174.614 38.0462 174.282 38.2124 173.949 38.2124C173.783 38.2124 173.617 38.2124 173.285 37.8801C172.953 37.5478 170.128 34.7234 171.291 33.062C171.457 32.8958 171.79 32.8958 171.79 32.8958C173.451 32.8958 174.116 33.3943 175.112 34.0588C175.445 34.0588 175.943 34.0588 176.275 34.0588C177.272 33.7266 178.601 33.7266 179.432 32.8958C179.764 32.7297 179.931 32.5636 180.097 32.5636C180.097 32.5636 181.094 32.5636 183.087 33.5604C183.253 33.5604 183.42 33.5604 183.42 33.5604L183.752 33.7266C183.586 34.0588 183.918 34.3911 183.918 34.5573Z" fill="#A57549"/>
<path d="M93.2051 41.8675C92.8728 42.3659 92.3744 42.532 92.2082 42.532L91.8759 42.6982C91.2114 42.8643 91.0452 42.532 91.2114 42.1997C91.5436 41.5352 92.7066 40.8706 93.2051 40.8706C93.8696 41.0368 93.2051 41.7013 93.2051 41.8675Z" fill="#A57549"/>
<path d="M91.2114 39.8737C91.0452 40.0399 91.0452 40.0399 90.5468 40.206C89.7161 40.7044 89.3838 40.206 89.55 39.7076C89.55 39.3753 89.55 39.3753 90.5468 38.8769C90.8791 38.7108 91.0452 38.5446 91.3775 38.5446C91.8759 38.8769 91.5436 39.5415 91.2114 39.8737Z" fill="#A57549"/>
<path d="M110.65 15.6172C109.819 15.9495 109.487 15.9495 109.487 15.7833C109.653 15.2849 111.979 14.2881 112.477 14.4542C112.644 14.4542 112.477 14.7865 111.813 15.1188H111.647C111.148 15.2849 110.65 15.6172 110.65 15.6172Z" fill="#A57549"/>
<path d="M111.647 13.7896C111.481 13.9558 110.816 14.1219 109.819 14.4542C108.158 15.1188 108.158 15.1188 107.493 15.1188C107.493 14.9526 107.493 14.9526 108.158 14.6203C108.988 14.2881 109.155 14.1219 109.155 13.9558C108.988 13.9558 108.49 13.7896 107.992 13.9558C107.493 14.1219 107.327 14.2881 105.998 14.7865C104.835 15.2849 104.503 15.451 104.336 15.451C105.001 14.9526 110.318 12.6266 110.982 12.4605H111.148C111.647 12.2944 111.647 12.2944 113.64 12.6266C113.308 13.1251 111.813 13.7896 111.647 13.7896Z" fill="#A57549"/>
<path d="M102.675 18.7739C101.678 19.4384 101.678 19.4384 99.3523 20.4353C98.8538 20.6014 98.3554 20.7676 98.0231 20.9337L97.6909 21.0999C97.3586 21.266 97.3586 21.266 97.1924 21.266C97.1924 21.0999 97.1924 20.9337 100.681 18.7739C100.848 18.6077 100.848 18.6077 100.848 18.6077C100.515 18.4416 100.017 18.94 99.6846 18.6077C99.8507 18.2755 102.011 17.1125 103.007 16.7802C103.174 16.7802 103.506 16.6141 103.672 16.6141C103.838 16.6141 103.838 16.9463 104.17 16.9463C105.333 16.7802 105.333 16.7802 105.499 16.7802C105.832 16.9463 105.499 17.1125 105.499 17.1125C105.333 17.1125 104.835 17.4448 102.675 18.7739Z" fill="#A57549"/>
<path d="M79.5815 203.19C79.9138 203.024 80.2461 203.024 80.7445 203.024C81.2429 203.024 81.409 203.19 81.7413 203.356C81.0768 203.356 80.4122 203.19 79.5815 203.19Z" fill="#A57549"/>
<path d="M274.797 264.496L272.637 266.822C273.302 265.992 275.628 263.666 277.788 261.173L274.797 264.496Z" fill="#A57549"/>
<path d="M160.824 6.14718C160.991 6.14718 160.991 6.31332 161.157 6.47946C161.655 6.97788 161.655 6.97788 162.32 9.47C162.486 9.96842 162.486 10.1346 162.652 10.7991V10.9653C162.818 11.796 162.818 12.2944 163.317 13.1251H163.15L163.483 13.4574C163.981 13.9558 164.646 14.1219 164.978 14.6204C164.978 15.9495 164.978 15.9495 165.642 17.1125C165.642 17.1125 165.642 17.1125 165.476 17.1125C165.642 17.6109 165.809 17.777 166.307 18.94H166.473C166.473 19.1062 166.639 19.2723 166.639 19.4384C166.639 19.4384 166.639 19.4385 166.639 19.6046C166.639 19.7707 166.639 19.9369 166.639 20.103C165.476 20.4353 164.646 18.7739 163.317 19.4384C163.317 19.7707 163.15 20.2692 164.147 21.9306H163.981L164.147 22.2628C164.479 22.7613 164.812 23.4258 165.144 23.9243H165.31L165.476 24.2565C166.805 26.2502 165.31 27.0809 164.646 26.9148C164.147 26.7487 163.649 25.9179 163.483 25.2534C163.316 24.755 163.15 23.9243 160.824 22.9274L160.658 23.0935C160.658 23.592 160.824 23.592 160.991 24.2565H161.157C161.655 25.7518 163.15 26.2502 164.147 27.2471C163.981 27.2471 163.981 27.2471 163.815 27.2471C164.646 28.2439 164.646 28.2439 164.646 28.4101L164.479 28.5762C163.981 28.7423 163.483 28.5762 162.984 28.7423C161.821 29.2408 160.991 30.4037 159.661 30.9022C158.665 31.2345 157.834 31.0683 156.339 31.0683C155.508 31.0683 155.508 31.0683 155.176 31.0683C154.843 31.5667 154.677 31.7329 154.179 33.062H154.013C153.846 33.3943 153.68 33.7266 153.68 34.0588C153.016 35.5541 153.016 35.5541 150.856 35.388C149.361 35.2218 149.361 35.2218 147.699 36.3848C145.373 38.2124 145.373 38.2124 145.373 39.2092C145.207 39.2092 145.207 39.2092 145.041 39.2092C145.207 41.5352 145.207 41.5352 142.881 41.8675C142.217 43.0305 142.217 44.3596 141.884 45.6887H141.718C141.386 47.0178 141.054 47.3501 139.891 48.347C137.565 50.3407 137.399 48.8454 137.066 46.1871C135.903 46.021 135.405 47.6824 134.076 47.184C133.411 45.3564 131.584 44.1934 131.085 42.1998C130.254 39.0431 130.919 38.7108 131.916 38.2124C128.261 36.551 131.251 31.899 132.248 30.736C132.913 30.0715 132.913 30.0715 132.913 29.7392C132.414 29.573 132.414 29.573 131.75 29.573C130.919 28.0778 134.408 24.755 135.239 25.0872C135.239 25.0872 135.239 25.0872 135.405 25.0872C135.405 25.0872 135.405 25.0872 135.571 25.0872H136.069C136.069 25.2534 136.236 25.7518 134.906 27.7455H134.74L134.574 27.9116C134.408 28.0778 134.408 28.4101 134.242 28.5762C134.408 28.7423 134.574 28.9085 134.74 29.2408C136.402 28.5762 136.734 24.0904 135.737 23.7581C135.239 23.592 135.239 23.592 134.076 24.755C132.913 25.9179 132.58 26.0841 132.248 26.2502C132.58 23.592 135.737 22.0967 135.405 19.1062C135.073 17.1125 134.74 17.1125 131.085 16.6141C131.085 16.4479 131.085 16.4479 131.085 16.2818C131.251 15.9495 131.584 15.6172 132.747 14.6204C132.58 14.7865 132.248 14.9526 132.082 15.1188C131.916 15.2849 131.916 15.2849 131.916 15.2849C129.59 16.1156 129.091 16.6141 128.261 16.6141C128.261 16.4479 128.261 16.4479 128.261 16.2818C129.59 14.1219 129.59 14.1219 129.59 14.1219H129.424L129.258 13.9558C129.258 13.2912 129.59 13.1251 130.421 12.7928C134.574 11.796 138.063 9.13771 142.05 7.64245C142.217 7.64245 142.217 7.64245 142.383 7.64245C142.549 7.80859 142.715 7.80859 143.878 6.97788C144.376 6.6456 146.869 5.31647 148.032 5.64876C148.032 5.8149 148.032 5.98104 148.032 6.14718C148.364 6.14718 148.53 6.14718 149.195 5.64876C150.025 4.98419 150.69 4.15349 151.687 3.65506C151.521 3.82121 151.354 3.98735 151.354 4.15349C151.188 4.31963 151.188 4.48577 151.022 4.48577C151.687 4.15349 152.185 3.48892 152.85 2.9905L153.016 2.82436C153.182 2.82436 153.182 2.82436 153.182 2.82436C153.514 2.65822 153.68 2.32594 154.013 2.1598C154.179 2.1598 154.179 1.99366 154.345 1.82751V1.99366C154.511 2.1598 154.511 2.32594 154.677 2.49208C154.179 3.32278 153.846 3.32278 153.68 3.48892L153.846 3.65506C154.179 3.65506 154.179 3.65506 154.511 2.9905L154.677 2.82436C154.677 2.82436 154.843 2.82436 154.843 2.9905C155.342 3.32278 155.342 3.32278 156.006 4.15349C156.172 4.48577 156.172 4.48577 156.671 4.98419C157.169 5.48261 157.668 5.98104 158 6.47946C158.665 7.14402 158.831 7.31016 159.329 7.31016C159.495 7.31016 159.495 7.14402 159.495 7.14402C159.329 6.47946 158.997 5.98104 158.831 5.48261C159.495 5.15033 160.658 5.98104 160.824 6.14718Z" fill="#A57549"/>
<path d="M55.9895 153.846C55.8233 155.009 54.3281 155.342 53.4974 154.511C53.1651 154.013 53.1651 153.182 53.3312 152.683C53.4974 152.517 53.4974 152.351 53.6635 152.351C53.8297 152.185 54.3281 151.853 54.3281 151.853C54.4942 151.687 54.8265 151.687 54.9926 151.687C55.4911 151.687 55.6572 151.853 55.9895 152.351C55.8233 152.351 55.4911 152.351 55.3249 152.351C55.9895 152.85 55.9895 153.68 55.9895 153.846Z" fill="#A57549"/>
<path d="M75.0957 178.103C74.9296 179.266 74.7634 179.266 74.5973 179.1C74.4311 179.432 74.4311 179.432 74.265 179.432C74.0988 179.432 73.7666 179.1 73.6004 178.601C72.9359 177.605 72.7697 177.605 72.1052 177.937C69.613 179.1 69.613 179.1 69.1146 178.934C67.7855 178.601 67.4532 177.106 66.2902 176.608C65.9579 176.442 65.6257 176.442 65.4595 176.275C64.9611 176.275 63.9642 176.109 61.9706 175.445C65.9579 170.294 67.1209 170.294 69.7792 170.461C72.1051 170.627 73.6004 172.62 74.4311 173.783C74.265 173.783 74.0988 173.783 73.9327 173.783C74.7634 175.112 74.9295 176.109 74.9295 177.771C75.0957 177.771 75.0957 177.771 75.2618 177.771C75.0957 177.771 75.0957 177.937 75.0957 178.103Z" fill="#A57549"/>
<path d="M56.4879 179.432C56.4879 180.595 56.1556 180.927 55.1588 181.592C53.4974 182.257 52.9989 178.601 53.6635 177.272C53.8296 176.94 53.8297 176.94 54.6604 176.275C54.8265 176.275 54.8265 176.275 54.9926 176.275C55.9895 176.608 56.4879 178.435 56.4879 179.432Z" fill="#A57549"/>
</g>
<defs>
<radialGradient id="paint0_radial" cx="0" cy="0" r="1" gradientUnits="userSpaceOnUse" gradientTransform="translate(157.628 121.443) scale(194.388)">
<stop stop-color="#E1C0A1"/>
<stop offset="0.619792" stop-color="#E7C6A8"/>
<stop offset="1" stop-color="#CFA47E"/>
</radialGradient>
<clipPath id="clip0">
<rect width="316" height="316" fill="white"/>
</clipPath>
</defs>
</svg>
