<svg width="104" height="104" viewBox="0 0 104 104" fill="none" xmlns="http://www.w3.org/2000/svg">
<path d="M103.994 5.59207C103.994 6.77131 103.569 7.79156 102.825 8.6793C102.52 9.0503 102.161 9.3948 101.816 9.7393C71.028 40.4659 40.2269 71.1792 9.45232 101.919C8.07098 103.297 6.59667 104.251 4.56451 103.827C2.46595 103.403 1.05805 102.118 0.354097 100.157C-0.336571 98.2223 0.0884553 96.4601 1.52292 94.9629C1.70887 94.7774 1.89482 94.5919 2.08077 94.4064C32.9217 63.64 63.776 32.8737 94.617 2.09408C95.5068 1.20634 96.4366 0.398093 97.725 0.159594C100.966 -0.423403 104.021 2.22658 103.994 5.59207Z" fill="#EFF4F7"/>
<path d="M103.994 77.8175C104.299 91.3059 93.0097 103.893 78.1338 103.999C63.4969 104.105 52.4064 91.8624 51.8884 79.0497C51.2907 64.2363 63.2445 51.9933 77.4564 51.7416C92.4518 51.4766 104.233 63.9845 103.994 77.8175ZM77.8415 93.3861C86.4882 93.3994 93.4613 86.5227 93.4878 77.9632C93.5011 69.3772 86.5811 62.4343 77.9611 62.4078C69.341 62.3813 62.3546 69.2315 62.3015 77.844C62.2484 86.8804 70.0715 93.6644 77.8415 93.3861Z" fill="#EFF4F7"/>
<path d="M25.896 52.0728C12.946 52.6027 -0.628308 40.7706 0.0225131 24.9634C0.553796 11.8327 11.631 0.0800176 25.896 0.000518006C40.6922 -0.0922315 52.3937 12.2832 52.1148 26.6461C51.8359 41.0223 39.3507 52.6557 25.896 52.0728ZM26.0687 41.5921C33.9051 41.8306 41.5688 35.1128 41.5556 26.1161C41.5423 16.9472 33.8254 10.4282 26.0022 10.574C17.5283 10.733 10.5685 17.5434 10.5685 26.0101C10.5685 34.6358 17.4752 41.5921 26.0687 41.5921Z" fill="#EFF4F7"/>
</svg>
