<svg width="119" height="102" viewBox="0 0 119 102" fill="none" xmlns="http://www.w3.org/2000/svg">
<path d="M93.1465 101.944C91.259 102.098 88.8546 101.527 86.4727 100.803C85.7311 100.583 85.1019 100.583 84.3604 100.803C79.282 102.362 74.1811 102.405 69.1251 100.737C68.5184 100.54 67.9791 100.54 67.3724 100.737C62.2265 102.405 57.0582 102.427 51.8899 100.737C51.2832 100.54 50.7439 100.562 50.1372 100.759C44.9239 102.362 39.7107 102.449 34.5199 100.693C33.9132 100.474 33.3514 100.605 32.7896 100.803C16.7679 105.852 2.04941 94.1297 0.229269 80.6074C-0.894278 72.2438 2.16177 65.351 8.29633 59.6436C12.7231 55.5166 18.0937 53.2995 24.2057 52.9483C26.9697 52.7946 29.6662 53.2337 32.2953 54.0239C33.3289 54.3312 34.2503 54.3752 35.2839 54.0459C40.1152 52.4873 44.9464 52.641 49.7777 54.0898C50.5192 54.3093 51.2383 54.4191 52.0247 54.1556C57.0582 52.5312 62.0917 52.5751 67.1477 54.1117C67.9117 54.3532 68.6083 54.3752 69.3948 54.1117C74.3833 52.4873 79.3943 52.5532 84.3829 54.1117C85.057 54.3312 85.6862 54.3971 86.3828 54.1556C99.6856 49.7214 112.741 57.7557 117.303 68.7535C121.1 77.9074 118.381 88.8613 110.584 95.4688C105.73 99.5957 100.27 102.01 93.1465 101.944ZM93.8881 94.5687C103.888 94.7004 111.191 87.6978 111.46 77.9952C111.73 68.095 104.697 60.5875 94.4499 60.3241C84.293 60.0606 76.5855 67.2608 76.3832 76.8976C76.1361 87.0832 83.5739 94.7224 93.8881 94.5687ZM24.408 60.3899C14.4309 60.6753 6.65595 68.1169 7.6222 79.5099C8.36374 88.0271 16.9701 95.6663 24.2732 94.3931C14.7005 83.066 14.7904 71.7829 24.408 60.3899ZM41.6657 60.368C31.5762 60.6314 23.7114 68.3803 24.8349 79.444C25.7338 88.3125 34.048 95.6224 41.4634 94.3931C31.9133 83.0441 31.9582 71.7389 41.6657 60.368ZM58.8559 94.5907C49.1485 83.0441 49.1485 71.7389 58.9233 60.346C52.991 60.6533 48.0923 62.7607 44.9464 67.612C40.9915 73.7146 40.7893 80.1684 44.4071 86.4905C47.4407 91.8248 52.4517 94.2614 58.8559 94.5907ZM76.1585 60.3021C69.2824 60.807 63.9343 63.4632 61.0805 69.434C57.8222 76.2171 58.429 82.8465 63.2602 88.8393C66.2264 92.5053 72.6081 95.1834 75.9113 94.3273C66.8106 84.9319 66.1365 70.817 76.1585 60.3021Z" fill="#EFF4F7"/>
<path d="M56.6987 29.899C56.6987 23.2915 56.6987 16.706 56.6987 10.0986C56.6987 8.14487 56.6762 6.16922 56.6987 4.21551C56.7211 1.71302 58.1817 0.0446894 60.4288 0.000786039C62.5411 -0.0431174 64.2039 1.75692 64.2489 4.19356C64.2938 6.95948 64.2714 9.70344 64.2714 12.4694C64.2714 17.8914 64.2714 23.3354 64.2714 28.7575C64.2714 29.0868 64.3163 29.4161 64.3388 29.7453C64.923 29.7892 65.1253 29.3502 65.3949 29.0648C67.3723 27.155 69.3273 25.2233 71.3048 23.3135C73.0575 21.6232 75.3046 21.5574 76.9 23.072C78.428 24.5208 78.3157 26.8697 76.6079 28.538C72.2036 32.8625 67.7993 37.165 63.3725 41.4676C61.5074 43.2896 59.3727 43.2896 57.5076 41.4676C53.0808 37.165 48.6765 32.8625 44.2722 28.538C42.5195 26.8258 42.4521 24.6306 44.0251 23.094C45.598 21.5574 47.8676 21.6452 49.5978 23.3574C51.8899 25.5965 54.137 27.8575 56.4065 30.1185C56.474 30.0527 56.5863 29.9649 56.6987 29.899Z" fill="#EFF4F7"/>
</svg>
