<svg width="36" height="34" viewBox="0 0 36 34" fill="none" xmlns="http://www.w3.org/2000/svg">
<path d="M17.9659 1C22.9691 1 27.9723 1 32.9824 1C34.1684 1 35 1.83241 35 3.01962C35 10.0269 35 17.0341 35 24.0414C35 25.249 34.1752 26.0814 32.9619 26.0883C30.1468 26.0951 27.3248 26.0883 24.5096 26.0883C24.0461 26.0883 24.0461 26.0883 24.0461 26.5522C24.0461 26.9002 24.0529 27.255 24.0461 27.603C24.0393 27.8077 24.1279 27.8827 24.3256 27.8827C24.8913 27.8759 25.4503 27.8759 26.016 27.8827C26.6022 27.8896 26.9431 28.2171 26.9499 28.8038C26.9567 29.9092 26.9567 31.0145 26.9499 32.1198C26.9431 32.6725 26.6091 33 26.0569 33C20.7674 33 15.4848 33 10.1953 33C9.64996 33 9.32959 32.6861 9.32959 32.1403C9.32277 31.0145 9.32277 29.8819 9.32959 28.7561C9.32959 28.2171 9.65678 27.8896 10.1953 27.8827C10.6929 27.8759 11.1905 27.8759 11.6812 27.8827C11.8994 27.8896 11.988 27.8077 11.9812 27.5893C11.9743 27.2073 11.9675 26.8183 11.9812 26.4362C11.9948 26.1701 11.8857 26.0814 11.6267 26.0883C10.2498 26.0951 8.87971 26.0951 7.50281 26.0951C6.02366 26.0951 4.55132 26.0951 3.07217 26.0951C1.84523 26.0951 1.00682 25.2627 1.00682 24.0414C1 17.0273 1 10.02 1 3.01279C1 1.80512 1.80433 1 3.01764 1C8.0004 1 12.9832 1 17.9659 1ZM17.9864 24.362C22.8328 24.362 27.6792 24.362 32.5257 24.362C33.3164 24.362 33.2891 24.4507 33.2891 23.5842C33.2891 19.0128 33.2891 14.4482 33.2891 9.87676C33.2891 7.6661 33.2891 5.45544 33.2891 3.24478C33.2891 2.72623 33.2346 2.67164 32.7029 2.67164C32.6552 2.67164 32.6143 2.67164 32.5666 2.67164C22.8396 2.67164 13.1127 2.67164 3.38573 2.67164C3.26985 2.67164 3.16079 2.67164 3.04491 2.67846C2.8336 2.68529 2.71772 2.80128 2.71772 3.01962C2.71772 3.13561 2.71091 3.24478 2.71091 3.36077C2.71091 10.1838 2.71091 17.0136 2.71091 23.8367C2.71091 24.3484 2.72454 24.362 3.24258 24.362C8.15718 24.362 13.0718 24.362 17.9864 24.362ZM18.1022 31.3284C18.9816 31.3284 19.8609 31.3284 20.7402 31.3284C22.1171 31.3284 23.4872 31.3215 24.8641 31.3352C25.1435 31.3352 25.2458 31.2465 25.2322 30.9667C25.2117 30.6188 25.2185 30.264 25.2322 29.916C25.239 29.684 25.1504 29.5885 24.9186 29.5953C24.421 29.6021 23.9234 29.6021 23.4326 29.5953C22.6692 29.5885 22.342 29.2542 22.3352 28.4968C22.3284 27.8213 22.3284 27.1458 22.3352 26.4635C22.342 26.1974 22.267 26.0814 21.9739 26.0814C19.3224 26.0883 16.6776 26.0883 14.0261 26.0814C13.7807 26.0814 13.6852 26.1565 13.6921 26.409C13.7057 27.1186 13.6989 27.8281 13.6989 28.5377C13.6989 29.2405 13.3717 29.5748 12.6696 29.5885C12.2538 29.5953 11.838 29.609 11.4222 29.5817C11.1087 29.568 10.9655 29.6567 10.9928 29.9979C11.02 30.2981 11.02 30.6051 10.9928 30.9122C10.9655 31.2465 11.095 31.3284 11.4154 31.3284C13.6375 31.3284 15.8665 31.3284 18.1022 31.3284Z" fill="#EFF4F6"/>
<path d="M31.7554 13.5339C31.7554 15.4375 31.7554 17.348 31.7554 19.2516C31.7554 19.7838 31.7554 19.7838 31.2101 19.7838C30.9647 19.7838 30.7125 19.7701 30.4671 19.7906C30.1331 19.8179 30.0377 19.6678 30.0445 19.3539C30.0513 17.9211 30.0445 16.4883 30.0445 15.0554C30.0445 12.6333 30.0445 10.2043 30.0445 7.78209C30.0445 7.29765 30.0513 7.29765 30.5353 7.29765C30.8148 7.29765 31.101 7.31812 31.3805 7.29083C31.6872 7.27036 31.7622 7.39318 31.7622 7.68657C31.7486 9.63113 31.7554 11.5825 31.7554 13.5339Z" fill="#EFF4F6"/>
<path d="M4.24459 13.377C4.2514 10.4635 6.37811 7.9049 9.33641 7.33859C9.71812 7.26354 9.75221 7.29766 9.75902 7.6661C9.76584 7.97313 9.73857 8.27335 9.76584 8.58038C9.7931 8.88742 9.67041 9.00341 9.37731 9.08529C7.6664 9.54925 6.56215 10.6546 6.09864 12.3535C5.81235 13.4043 5.90096 14.455 6.39174 15.4512C6.5008 15.6695 6.48717 15.8128 6.28268 15.9629C6.01684 16.1539 5.77827 16.3723 5.51925 16.577C5.19888 16.8362 5.19206 16.8362 4.98757 16.461C4.48998 15.533 4.22414 14.5437 4.24459 13.377Z" fill="#EFF4F6"/>
<path d="M16.7594 13.5203C16.7594 14.5778 16.4868 15.5672 15.996 16.5019C15.8528 16.768 15.7302 16.8226 15.4984 16.5974C15.253 16.3655 14.9872 16.1539 14.7145 15.9561C14.4964 15.806 14.5032 15.6627 14.6123 15.4443C15.7506 13.0222 14.6055 10.1701 12.1175 9.22857C12.0016 9.18763 11.8857 9.1467 11.763 9.11258C11.2314 8.96247 11.2314 8.96247 11.2314 8.38934C11.2314 8.13006 11.2382 7.87079 11.2314 7.61151C11.2245 7.36588 11.32 7.27036 11.579 7.32495C13.4671 7.69339 14.9122 8.68955 15.9006 10.3407C16.4868 11.3164 16.7662 12.3808 16.7594 13.5203Z" fill="#EFF4F6"/>
<path d="M27.9655 14.9122C27.9655 16.3996 27.9587 17.887 27.9723 19.3744C27.9723 19.6814 27.8837 19.8111 27.5702 19.7838C27.3111 19.7633 27.0521 19.7838 26.7931 19.7838C26.2682 19.7838 26.2614 19.777 26.2546 19.2652C26.2546 17.6755 26.2546 16.0857 26.2546 14.4959C26.2546 13.145 26.2614 11.7872 26.2478 10.4362C26.241 10.0951 26.3569 9.96546 26.6977 9.99957C26.9771 10.0269 27.2634 10.0269 27.5429 9.99957C27.8974 9.96546 27.9791 10.1156 27.9723 10.4499C27.9587 11.9305 27.9655 13.4247 27.9655 14.9122Z" fill="#EFF4F6"/>
<path d="M24.1756 15.7104C24.1756 16.9249 24.1688 18.1463 24.1824 19.3608C24.1893 19.6883 24.0734 19.8043 23.753 19.7838C23.4599 19.7633 23.1668 19.7633 22.8737 19.7838C22.5601 19.8043 22.4579 19.6746 22.4579 19.3676C22.4647 18.2145 22.4579 17.0682 22.4579 15.9151C22.4579 14.6188 22.4647 13.3224 22.4579 12.026C22.4579 11.7326 22.5397 11.5893 22.8601 11.6166C23.1736 11.6439 23.494 11.6371 23.8075 11.6166C24.087 11.603 24.1824 11.7053 24.1756 11.9851C24.1688 13.2337 24.1756 14.4755 24.1756 15.7104Z" fill="#EFF4F6"/>
<path d="M10.5702 19.7838C8.94787 19.736 7.59142 19.238 6.41219 18.2554C6.17362 18.0576 6.1668 17.9279 6.42582 17.7505C6.69166 17.5663 6.95068 17.3548 7.18925 17.1296C7.38693 16.9454 7.53007 16.9591 7.73456 17.1228C8.58661 17.7846 9.56135 18.0985 10.6315 18.0644C11.6131 18.0371 12.5128 17.7164 13.2831 17.1023C13.4739 16.9522 13.5966 16.9591 13.7739 17.116C14.0329 17.348 14.3055 17.5731 14.5918 17.771C14.8372 17.9416 14.7895 18.0644 14.5918 18.235C13.5966 19.0878 12.4447 19.5928 11.1427 19.7292C10.9246 19.7565 10.7065 19.7701 10.5702 19.7838Z" fill="#EFF4F6"/>
<path d="M20.3925 16.8021C20.3925 17.6482 20.3925 18.4942 20.3925 19.3403C20.3925 19.7838 20.3857 19.7838 19.929 19.7906C19.6496 19.7906 19.3633 19.777 19.0838 19.7906C18.7702 19.8111 18.668 19.6746 18.6748 19.3744C18.6816 17.8324 18.6816 16.2836 18.6816 14.7416C18.6816 14.5369 18.6885 14.339 18.6816 14.1343C18.6748 13.8955 18.7634 13.7864 19.0225 13.7932C19.3701 13.8068 19.7177 13.8068 20.0722 13.7932C20.3244 13.7864 20.4062 13.8819 20.4062 14.1275C20.3857 15.0213 20.3857 15.9083 20.3925 16.8021C20.3857 16.8021 20.3857 16.8021 20.3925 16.8021Z" fill="#EFF4F6"/>
<path d="M11.2245 11.2414C11.2245 11.1186 11.2245 10.9957 11.2245 10.8729C11.2245 10.3066 11.2654 10.2861 11.7971 10.5113C13.3649 11.18 14.1488 12.9949 13.583 14.5915C13.4876 14.8644 13.3853 14.9122 13.1672 14.7143C13.0036 14.5642 12.8264 14.4141 12.6423 14.2913C12.2606 14.0252 11.9607 13.7454 12.0084 13.2064C12.0357 12.9062 11.8516 12.5991 11.5994 12.4217C11.2586 12.1898 11.1905 11.8896 11.2314 11.5211C11.2382 11.4188 11.2245 11.3301 11.2245 11.2414Z" fill="#EFF4F6"/>
<path d="M9.76584 11.2755C9.76584 11.4119 9.75902 11.5484 9.76584 11.678C9.7931 11.9578 9.71131 12.1557 9.47955 12.3399C9.1251 12.6128 8.95469 13.0154 8.96151 13.4657C8.96832 13.7249 8.87289 13.8819 8.67522 14.032C8.38212 14.2435 8.10946 14.4755 7.83681 14.7075C7.65277 14.8644 7.5437 14.8644 7.44146 14.6188C6.77346 13.0154 7.79591 10.8797 9.45228 10.409C9.67041 10.3475 9.77265 10.3885 9.76584 10.6273C9.75902 10.8456 9.76584 11.0571 9.76584 11.2755Z" fill="#EFF4F6"/>
<path d="M10.5225 16.7544C9.84763 16.768 9.28188 16.577 8.7502 16.2563C8.54571 16.1267 8.53889 16.0243 8.72975 15.881C8.92743 15.7309 9.1251 15.5808 9.30914 15.4171C9.62951 15.1168 9.96351 14.8712 10.4407 15.0623C10.4611 15.0691 10.4884 15.0759 10.5088 15.0623C11.0746 14.8166 11.4358 15.1851 11.8107 15.5058C11.8994 15.5808 11.9812 15.649 12.0698 15.7241C12.5401 16.113 12.5401 16.1335 11.9812 16.4132C11.4972 16.6384 11.0064 16.7817 10.5225 16.7544Z" fill="#EFF4F6"/>
<path d="M19.0361 28.4013C19.0361 28.9198 18.6339 29.3224 18.1159 29.3224C17.6251 29.3224 17.1889 28.8925 17.182 28.3945C17.1752 27.8827 17.6047 27.4665 18.1363 27.4733C18.6612 27.4802 19.0361 27.8691 19.0361 28.4013Z" fill="#EFF4F6"/>
<path d="M20.3925 16.8021C20.3925 17.6482 20.3925 18.4942 20.3925 19.3403C20.3925 19.7838 20.3857 19.7838 19.929 19.7906C19.6496 19.7906 19.3633 19.777 19.0838 19.7906C18.7702 19.8111 18.668 19.6746 18.6748 19.3744C18.6816 17.8324 18.6816 16.2836 18.6816 14.7416C18.6816 14.5369 18.6885 14.339 18.6816 14.1343C18.6748 13.8955 18.7634 13.7864 19.0225 13.7932C19.3701 13.8068 19.7177 13.8068 20.0722 13.7932C20.3244 13.7864 20.4062 13.8819 20.4062 14.1275C20.3857 15.0213 20.3857 15.9083 20.3925 16.8021ZM20.3925 16.8021C20.3857 16.8021 20.3857 16.8021 20.3925 16.8021ZM17.9659 1C22.9691 1 27.9723 1 32.9824 1C34.1684 1 35 1.83241 35 3.01962C35 10.0269 35 17.0341 35 24.0414C35 25.249 34.1752 26.0815 32.9619 26.0883C30.1468 26.0951 27.3248 26.0883 24.5096 26.0883C24.0461 26.0883 24.0461 26.0883 24.0461 26.5522C24.0461 26.9002 24.0529 27.255 24.0461 27.603C24.0393 27.8077 24.1279 27.8827 24.3256 27.8827C24.8913 27.8759 25.4503 27.8759 26.016 27.8827C26.6022 27.8896 26.9431 28.2171 26.9499 28.8038C26.9567 29.9092 26.9567 31.0145 26.9499 32.1198C26.9431 32.6725 26.6091 33 26.0569 33C20.7674 33 15.4848 33 10.1953 33C9.64996 33 9.32959 32.6861 9.32959 32.1403C9.32277 31.0145 9.32277 29.8819 9.32959 28.7561C9.32959 28.2171 9.65678 27.8896 10.1953 27.8827C10.6929 27.8759 11.1905 27.8759 11.6812 27.8827C11.8994 27.8896 11.988 27.8077 11.9812 27.5893C11.9743 27.2073 11.9675 26.8183 11.9812 26.4362C11.9948 26.1701 11.8857 26.0815 11.6267 26.0883C10.2498 26.0951 8.87971 26.0951 7.50281 26.0951C6.02366 26.0951 4.55132 26.0951 3.07217 26.0951C1.84523 26.0951 1.00682 25.2627 1.00682 24.0414C1 17.0273 1 10.02 1 3.01279C1 1.80512 1.80433 1 3.01764 1C8.0004 1 12.9832 1 17.9659 1ZM17.9864 24.362C22.8328 24.362 27.6792 24.362 32.5257 24.362C33.3164 24.362 33.2891 24.4507 33.2891 23.5842C33.2891 19.0128 33.2891 14.4482 33.2891 9.87676C33.2891 7.6661 33.2891 5.45544 33.2891 3.24478C33.2891 2.72623 33.2346 2.67164 32.7029 2.67164C32.6552 2.67164 32.6143 2.67164 32.5666 2.67164C22.8396 2.67164 13.1127 2.67164 3.38573 2.67164C3.26985 2.67164 3.16079 2.67164 3.04491 2.67846C2.8336 2.68529 2.71772 2.80128 2.71772 3.01962C2.71772 3.13561 2.71091 3.24478 2.71091 3.36077C2.71091 10.1838 2.71091 17.0136 2.71091 23.8367C2.71091 24.3484 2.72454 24.362 3.24258 24.362C8.15718 24.362 13.0718 24.362 17.9864 24.362ZM18.1022 31.3284C18.9816 31.3284 19.8609 31.3284 20.7402 31.3284C22.1171 31.3284 23.4872 31.3215 24.8641 31.3352C25.1435 31.3352 25.2458 31.2465 25.2322 30.9667C25.2117 30.6188 25.2185 30.264 25.2322 29.916C25.239 29.684 25.1504 29.5885 24.9186 29.5953C24.421 29.6021 23.9234 29.6021 23.4326 29.5953C22.6692 29.5885 22.342 29.2542 22.3352 28.4968C22.3284 27.8213 22.3284 27.1458 22.3352 26.4635C22.342 26.1974 22.267 26.0814 21.9739 26.0814C19.3224 26.0883 16.6776 26.0883 14.0261 26.0814C13.7807 26.0814 13.6852 26.1565 13.6921 26.409C13.7057 27.1186 13.6989 27.8281 13.6989 28.5377C13.6989 29.2405 13.3717 29.5748 12.6696 29.5885C12.2538 29.5953 11.838 29.609 11.4222 29.5817C11.1087 29.568 10.9655 29.6567 10.9928 29.9979C11.02 30.2981 11.02 30.6051 10.9928 30.9122C10.9655 31.2465 11.095 31.3284 11.4154 31.3284C13.6375 31.3284 15.8665 31.3284 18.1022 31.3284ZM31.7554 13.5339C31.7554 15.4375 31.7554 17.348 31.7554 19.2516C31.7554 19.7838 31.7554 19.7838 31.2101 19.7838C30.9647 19.7838 30.7125 19.7701 30.4671 19.7906C30.1331 19.8179 30.0377 19.6678 30.0445 19.3539C30.0513 17.9211 30.0445 16.4883 30.0445 15.0554C30.0445 12.6333 30.0445 10.2043 30.0445 7.78209C30.0445 7.29765 30.0513 7.29765 30.5353 7.29765C30.8148 7.29765 31.101 7.31812 31.3805 7.29083C31.6872 7.27036 31.7622 7.39318 31.7622 7.68657C31.7486 9.63113 31.7554 11.5825 31.7554 13.5339ZM4.24459 13.377C4.2514 10.4635 6.37811 7.9049 9.33641 7.33859C9.71812 7.26354 9.75221 7.29765 9.75902 7.6661C9.76584 7.97313 9.73857 8.27335 9.76584 8.58038C9.7931 8.88742 9.67041 9.00341 9.37731 9.08529C7.6664 9.54925 6.56215 10.6546 6.09864 12.3535C5.81235 13.4043 5.90096 14.455 6.39174 15.4512C6.5008 15.6695 6.48717 15.8128 6.28268 15.9629C6.01684 16.1539 5.77827 16.3723 5.51925 16.577C5.19888 16.8362 5.19206 16.8362 4.98757 16.461C4.48998 15.533 4.22414 14.5437 4.24459 13.377ZM16.7594 13.5203C16.7594 14.5778 16.4868 15.5672 15.996 16.5019C15.8528 16.768 15.7302 16.8226 15.4984 16.5974C15.253 16.3655 14.9872 16.1539 14.7145 15.9561C14.4964 15.806 14.5032 15.6627 14.6123 15.4443C15.7506 13.0222 14.6055 10.1701 12.1175 9.22857C12.0016 9.18763 11.8857 9.1467 11.763 9.11258C11.2314 8.96247 11.2314 8.96247 11.2314 8.38934C11.2314 8.13006 11.2382 7.87079 11.2314 7.61151C11.2245 7.36588 11.32 7.27036 11.579 7.32495C13.4671 7.69339 14.9122 8.68955 15.9006 10.3407C16.4868 11.3164 16.7662 12.3808 16.7594 13.5203ZM27.9655 14.9122C27.9655 16.3996 27.9587 17.887 27.9723 19.3744C27.9723 19.6815 27.8837 19.8111 27.5702 19.7838C27.3111 19.7633 27.0521 19.7838 26.7931 19.7838C26.2682 19.7838 26.2614 19.777 26.2546 19.2652C26.2546 17.6755 26.2546 16.0857 26.2546 14.4959C26.2546 13.145 26.2614 11.7872 26.2478 10.4362C26.241 10.0951 26.3569 9.96546 26.6977 9.99957C26.9771 10.0269 27.2634 10.0269 27.5429 9.99957C27.8974 9.96546 27.9791 10.1156 27.9723 10.4499C27.9587 11.9305 27.9655 13.4247 27.9655 14.9122ZM24.1756 15.7104C24.1756 16.9249 24.1688 18.1463 24.1824 19.3608C24.1893 19.6883 24.0734 19.8043 23.753 19.7838C23.4599 19.7633 23.1668 19.7633 22.8737 19.7838C22.5601 19.8043 22.4579 19.6746 22.4579 19.3676C22.4647 18.2145 22.4579 17.0682 22.4579 15.9151C22.4579 14.6188 22.4647 13.3224 22.4579 12.026C22.4579 11.7326 22.5397 11.5893 22.8601 11.6166C23.1736 11.6439 23.494 11.6371 23.8075 11.6166C24.087 11.603 24.1824 11.7053 24.1756 11.9851C24.1688 13.2337 24.1756 14.4755 24.1756 15.7104ZM10.5702 19.7838C8.94787 19.736 7.59142 19.238 6.41219 18.2554C6.17362 18.0576 6.1668 17.9279 6.42582 17.7505C6.69166 17.5663 6.95068 17.3548 7.18925 17.1296C7.38693 16.9454 7.53007 16.9591 7.73456 17.1228C8.58661 17.7846 9.56135 18.0985 10.6315 18.0644C11.6131 18.0371 12.5128 17.7164 13.2831 17.1023C13.4739 16.9522 13.5966 16.9591 13.7739 17.116C14.0329 17.348 14.3055 17.5731 14.5918 17.771C14.8372 17.9416 14.7895 18.0644 14.5918 18.235C13.5966 19.0878 12.4447 19.5928 11.1427 19.7292C10.9246 19.7565 10.7065 19.7701 10.5702 19.7838ZM11.2245 11.2414C11.2245 11.1186 11.2245 10.9957 11.2245 10.8729C11.2245 10.3066 11.2654 10.2861 11.7971 10.5113C13.3649 11.18 14.1488 12.9949 13.583 14.5915C13.4876 14.8644 13.3853 14.9122 13.1672 14.7143C13.0036 14.5642 12.8264 14.4141 12.6423 14.2913C12.2606 14.0252 11.9607 13.7454 12.0084 13.2064C12.0357 12.9062 11.8516 12.5991 11.5994 12.4217C11.2586 12.1898 11.1905 11.8896 11.2314 11.5211C11.2382 11.4188 11.2245 11.3301 11.2245 11.2414ZM9.76584 11.2755C9.76584 11.4119 9.75902 11.5484 9.76584 11.678C9.7931 11.9578 9.71131 12.1557 9.47955 12.3399C9.1251 12.6128 8.95469 13.0154 8.96151 13.4657C8.96832 13.7249 8.87289 13.8819 8.67522 14.032C8.38212 14.2435 8.10946 14.4755 7.83681 14.7075C7.65277 14.8644 7.5437 14.8644 7.44146 14.6188C6.77346 13.0154 7.79591 10.8797 9.45229 10.409C9.67041 10.3475 9.77265 10.3885 9.76584 10.6273C9.75902 10.8456 9.76584 11.0571 9.76584 11.2755ZM10.5225 16.7544C9.84763 16.768 9.28188 16.577 8.7502 16.2563C8.54571 16.1267 8.53889 16.0243 8.72975 15.881C8.92743 15.7309 9.1251 15.5808 9.30914 15.4171C9.62951 15.1168 9.96351 14.8712 10.4407 15.0623C10.4611 15.0691 10.4884 15.0759 10.5088 15.0623C11.0746 14.8166 11.4358 15.1851 11.8107 15.5058C11.8994 15.5808 11.9812 15.649 12.0698 15.7241C12.5401 16.113 12.5401 16.1335 11.9812 16.4132C11.4972 16.6384 11.0064 16.7817 10.5225 16.7544ZM19.0361 28.4013C19.0361 28.9198 18.6339 29.3224 18.1159 29.3224C17.6251 29.3224 17.1889 28.8925 17.182 28.3945C17.1752 27.8827 17.6047 27.4665 18.1363 27.4733C18.6612 27.4802 19.0361 27.8691 19.0361 28.4013Z" stroke="#EFF4F6" stroke-width="0.5"/>
</svg>
