<svg width="28" height="28" viewBox="0 0 28 28" fill="none" xmlns="http://www.w3.org/2000/svg">
<path d="M14.0022 27.992C10.8613 27.992 7.72044 27.992 4.57156 27.992C2.14997 27.992 0.0160846 25.8567 0.0160846 23.4335C0.0160846 17.2036 0.0560449 10.9736 0.000100449 4.75167C-0.0158837 2.42444 1.87824 0.353121 3.91621 0.0652161C4.10003 0.041224 4.28385 0.0172319 4.46767 0.0172319C7.17698 0.0172319 9.88629 0.0172319 12.5956 0.0172319C13.4508 0.0172319 14.0102 0.521066 14.0182 1.28881C14.0262 2.09655 13.4667 2.64836 12.5876 2.64836C9.96621 2.65636 7.34481 2.64836 4.72341 2.64836C4.49164 2.64836 4.25188 2.64037 4.02011 2.67236C3.15697 2.81631 2.66146 3.4321 2.65347 4.39179C2.64548 7.48677 2.65347 10.5817 2.65347 13.6767C2.65347 16.8677 2.65347 20.0666 2.65347 23.2576C2.65347 23.5055 2.63748 23.7534 2.68544 24.0013C2.84528 24.889 3.44468 25.3449 4.45168 25.3529C7.92823 25.3529 11.4048 25.3529 14.8813 25.3529C17.7025 25.3529 20.5237 25.3529 23.3449 25.3529C23.5527 25.3529 23.7685 25.3609 23.9763 25.3289C24.8395 25.1849 25.335 24.5851 25.343 23.6574C25.3509 21.3782 25.343 19.0989 25.3509 16.8277C25.3509 16.3239 25.343 15.812 25.3589 15.3082C25.3749 14.7564 25.6227 14.3245 26.1342 14.1006C26.5977 13.8927 27.0533 13.9406 27.4688 14.2445C27.7965 14.4845 27.9803 14.8283 27.9803 15.2282C27.9883 18.0913 28.0283 20.9463 27.9644 23.8094C27.9164 25.9447 25.7266 27.992 23.5847 28C20.3879 27.992 17.191 27.984 14.0022 27.992Z" fill="#EFF4F6"/>
<path d="M25.295 4.60772C25.1432 4.63971 25.0792 4.76766 24.9833 4.86363C21.6586 8.19054 18.3339 11.5094 15.0092 14.8363C14.4098 15.4361 13.6026 15.4681 13.0671 14.9243C12.5956 14.4445 12.5556 13.6847 12.9952 13.1649C13.0911 13.0529 13.203 12.949 13.3069 12.845C16.5757 9.57408 19.8444 6.29516 23.1212 3.02424C23.2171 2.92827 23.3369 2.86429 23.4408 2.78432C23.313 2.59238 23.1931 2.64836 23.0892 2.64836C22.2021 2.64037 21.307 2.65636 20.4198 2.64037C19.4208 2.62437 18.7895 1.76066 19.1091 0.87295C19.293 0.369116 19.7405 0.0172319 20.292 0.00923456C22.4418 0.0012372 24.5997 -0.00676017 26.7496 0.00923456C27.4129 0.0172319 27.9723 0.585045 27.9723 1.25682C27.9803 3.40811 27.9803 5.5674 27.9723 7.71869C27.9643 8.42246 27.3649 8.97428 26.6696 8.97428C25.9264 8.96628 25.3589 8.39847 25.3509 7.60673C25.335 6.74301 25.3509 5.8713 25.343 5.00759C25.335 4.87163 25.3749 4.73568 25.295 4.60772Z" fill="#EFF4F6"/>
</svg>
