<svg width="94" height="94" viewBox="0 0 94 94" fill="none" xmlns="http://www.w3.org/2000/svg">
<path d="M27.9324 0.0159504C37.0582 0.328129 44.3672 4.17833 49.943 11.3584C52.7204 14.9381 54.4537 18.9756 55.2263 23.4294C55.289 23.8456 55.289 24.3451 55.8528 24.4491C56.4375 24.574 56.9387 24.6989 57.5026 24.1578C61.2615 20.4324 65.7304 17.8726 70.9302 16.7487C74 16.0828 75.5245 16.9985 76.4433 19.9746C77.8424 24.5532 77.6963 29.1943 76.7983 33.8353C76.673 34.5013 76.7774 35.0008 77.2368 35.4795C79.0328 37.3734 80.5363 39.4754 81.8311 41.723C82.0817 42.1601 82.3323 42.4723 82.917 42.4515C86.9056 42.3058 89.5786 44.3245 91.5416 47.592C95.1334 53.5442 94.7576 62.5558 90.6228 67.9044C88.7224 70.3603 86.2582 71.6922 83.1258 71.5465C81.9146 71.4841 81.3508 72.0252 80.599 72.8785C79.0954 74.6059 78.9284 76.0419 80.1187 78.1439C81.7475 80.9743 81.9773 84.221 81.1419 87.4468C79.8263 92.5666 75.4618 94.7935 70.5126 92.8788C67.5681 91.7549 65.1457 89.9235 63.4333 87.2595C63.0156 86.6144 62.6189 86.5727 61.9506 86.7809C54.7251 89.0285 47.437 89.1742 40.128 87.2179C39.3554 87.0098 38.9586 87.1138 38.4783 87.8006C36.39 90.8184 33.6126 92.9204 29.9998 93.7529C25.7189 94.7518 22.1479 92.6706 20.9367 88.4458C19.8299 84.6789 20.4146 81.0576 22.2105 77.6236C22.6073 76.8536 22.6073 76.3541 22.0435 75.6673C18.1801 70.9846 15.883 65.5943 15.0895 59.6005C14.818 57.4985 14.7762 55.3757 15.0895 53.2737C15.2148 52.4204 14.9224 52.0249 14.2333 51.6087C8.80374 48.4245 4.75247 43.9915 2.28829 38.2058C-1.11561 30.2349 -0.718838 22.368 3.45773 14.834C7.61342 7.32094 13.9827 2.53419 22.4194 0.598684C24.1944 0.182446 26.0321 -0.0672973 27.9324 0.0159504ZM81.7058 65.5735C81.9772 65.5735 82.2487 65.5527 82.5202 65.5735C85.2976 65.8233 86.6968 64.6994 87.5112 61.8065C88.0542 59.8294 88.2212 57.769 88.0333 55.7087C87.8871 53.9605 87.6783 52.2331 86.8638 50.6305C86.0912 49.1321 84.9844 48.2164 83.1676 48.3412C82.3949 48.3829 81.6222 48.2996 80.8496 48.3412C79.179 48.4245 78.093 47.6753 77.4457 46.1768C76.0674 43.0966 74.0835 40.4327 71.5985 38.1642C70.262 36.9571 70.0114 35.6668 70.5752 34.0018C71.7655 30.4222 72.1414 26.7385 71.7238 22.9715C71.6194 22.0974 71.1808 21.9101 70.4917 22.2015C66.7328 23.7832 63.1827 25.7187 60.9273 29.2983C60.2382 30.4014 59.2567 30.9217 57.962 30.7968C57.5026 30.7552 57.0014 30.7135 56.5628 30.5679C55.6857 30.2557 55.3934 30.5679 55.2681 31.442C54.8295 34.5637 53.8063 37.4982 52.3236 40.287C46.8105 50.6097 34.4688 57.665 21.8973 54.6264C21.0411 54.4183 20.8323 54.7721 20.8114 55.5213C20.7696 56.9366 20.8949 58.3518 21.1037 59.7462C21.8764 65.3029 24.4659 69.9648 28.4336 73.8983C30.0416 75.48 30.1043 76.916 28.6633 78.685C27.2851 80.3916 26.2618 82.2647 25.9694 84.4499C25.7815 85.7403 26.0112 86.9682 27.1807 87.759C28.371 88.5499 29.5613 88.2793 30.689 87.5925C31.0649 87.3636 31.399 87.093 31.7122 86.7809C32.9443 85.5946 33.8423 84.2002 34.5314 82.6393C35.5129 80.3708 36.9121 79.788 39.2092 80.6621C41.7987 81.6611 44.5134 82.2647 47.27 82.4728C52.7621 82.8682 58.1082 82.2439 63.1827 79.9545C64.2268 79.4759 65.2292 79.6424 66.1481 80.2667C66.7954 80.7038 67.0878 81.3698 67.3801 82.0565C68.2781 84.0753 69.4267 85.9276 71.3688 87.1347C72.3503 87.7382 73.4362 88.0296 74.5221 87.4052C75.6289 86.76 76.0256 85.7403 75.963 84.4915C75.8168 81.8068 74.5847 79.6216 72.8514 77.6652C71.4941 76.1252 71.4941 74.6891 72.8514 73.1699C74.1253 71.7755 75.4409 70.3603 76.2136 68.6537C77.3204 66.2603 78.9492 65.0116 81.7058 65.5735ZM27.9324 5.98897C15.8621 5.80166 6.44398 14.8549 6.00544 26.7801C5.54602 39.5794 14.9851 49.1945 27.2224 49.4235C40.1071 49.6732 49.2329 40.3703 49.6088 28.445C50.0265 15.3751 40.0445 5.88491 27.9324 5.98897Z" fill="#EFF4F7"/>
<path d="M60.3844 51.4006C59.1105 51.4006 57.8158 51.4214 56.5419 51.4006C54.934 51.3798 53.7228 50.2559 53.5557 48.6742C53.4095 47.3214 54.3701 45.9895 55.811 45.6149C56.2287 45.5108 56.6672 45.4692 57.1058 45.4692C59.4029 45.4484 61.6791 45.4484 63.9762 45.4692C66.0019 45.49 67.3593 46.6971 67.3593 48.4245C67.3593 50.2143 65.981 51.4214 63.9136 51.4214C62.7442 51.4006 61.5538 51.4006 60.3844 51.4006Z" fill="#EFF4F7"/>
<path d="M42.279 20.8903C42.3416 21.7436 41.924 22.4512 41.2975 23.0547C36.035 28.3202 30.7725 33.5648 25.4891 38.8094C24.1318 40.1622 22.4611 40.2038 21.0829 38.8718C17.9922 35.8749 14.9433 32.8155 11.9362 29.7562C10.6414 28.4242 10.6623 26.7176 11.8735 25.5106C13.0847 24.3035 14.8389 24.3451 16.1963 25.6562C18.3681 27.7791 20.519 29.9019 22.6282 32.0663C23.1294 32.5866 23.4217 32.545 23.902 32.0455C28.2666 27.6542 32.652 23.2837 37.0582 18.934C38.52 17.4772 40.3369 17.4772 41.5689 18.8716C42.0701 19.4335 42.279 20.0162 42.279 20.8903Z" fill="#EFF4F7"/>
</svg>
