<svg width="109" height="102" viewBox="0 0 109 102" fill="none" xmlns="http://www.w3.org/2000/svg">
<path d="M54.3907 0C70.4304 0 86.4701 0 102.532 0C106.334 0 109 2.6533 109 6.43753C109 28.7731 109 51.1087 109 73.4443C109 77.2938 106.356 79.9471 102.466 79.9689C93.4411 79.9906 84.3941 79.9689 75.3691 79.9689C73.8831 79.9689 73.8831 79.9689 73.8831 81.4478C73.8831 82.5569 73.905 83.6878 73.8831 84.797C73.8613 85.4495 74.1453 85.6887 74.7791 85.6887C76.5928 85.6669 78.3847 85.6669 80.1985 85.6887C82.0778 85.7104 83.1704 86.7544 83.1923 88.6247C83.2141 92.148 83.2141 95.6712 83.1923 99.1945C83.1704 100.956 82.0996 102 80.3296 102C63.3721 102 46.4364 102 29.4789 102C27.7308 102 26.7037 101 26.7037 99.2597C26.6818 95.6712 26.6818 92.061 26.7037 88.4725C26.7037 86.7544 27.7526 85.7104 29.4789 85.6887C31.0742 85.6669 32.6694 85.6669 34.2428 85.6887C34.9421 85.7104 35.2261 85.4495 35.2043 84.7535C35.1824 83.5356 35.1606 82.2959 35.2043 81.078C35.248 80.2298 34.8984 79.9471 34.068 79.9689C29.6538 79.9906 25.2614 79.9906 20.8472 79.9906C16.1053 79.9906 11.3851 79.9906 6.64314 79.9906C2.7097 79.9906 0.0218524 77.3373 0.0218524 73.4443C0 51.087 0 28.7514 0 6.41578C0 2.56631 2.57859 0 6.46832 0C22.4425 0 38.4166 0 54.3907 0ZM54.4563 74.4665C69.9934 74.4665 85.5305 74.4665 101.068 74.4665C103.602 74.4665 103.515 74.7492 103.515 71.9872C103.515 57.4158 103.515 42.8661 103.515 28.2947C103.515 21.2482 103.515 14.2017 103.515 7.15522C103.515 5.50234 103.34 5.32836 101.636 5.32836C101.483 5.32836 101.352 5.32836 101.199 5.32836C70.0152 5.32836 38.8318 5.32836 7.64836 5.32836C7.27686 5.32836 6.92723 5.32836 6.55573 5.35011C5.87831 5.37185 5.50682 5.74158 5.50682 6.43753C5.50682 6.80725 5.48496 7.15522 5.48496 7.52495C5.48496 29.2733 5.48496 51.0435 5.48496 72.7919C5.48496 74.423 5.52867 74.4665 7.18945 74.4665C22.9451 74.4665 38.7007 74.4665 54.4563 74.4665ZM54.8278 96.6716C57.6468 96.6716 60.4657 96.6716 63.2847 96.6716C67.6989 96.6716 72.0912 96.6499 76.5054 96.6934C77.4014 96.6934 77.7291 96.4107 77.6854 95.519C77.6199 94.4098 77.6417 93.2789 77.6854 92.1697C77.7073 91.4303 77.4232 91.1258 76.6802 91.1475C75.085 91.1693 73.4898 91.1693 71.9164 91.1475C69.4689 91.1258 68.42 90.0601 68.3982 87.646C68.3763 85.493 68.3763 83.3399 68.3982 81.165C68.42 80.3168 68.1796 79.9471 67.24 79.9471C58.7394 79.9689 50.2606 79.9689 41.76 79.9471C40.9733 79.9471 40.6674 80.1864 40.6893 80.991C40.733 83.2529 40.7111 85.5147 40.7111 87.7765C40.7111 90.0166 39.6622 91.0823 37.4114 91.1258C36.0784 91.1475 34.7454 91.191 33.4124 91.104C32.4072 91.0605 31.9483 91.3433 32.0357 92.4307C32.1231 93.3876 32.1231 94.3663 32.0357 95.345C31.9483 96.4107 32.3635 96.6716 33.3905 96.6716C40.5144 96.6716 47.6602 96.6716 54.8278 96.6716Z" fill="#EFF4F7"/>
<path d="M98.5982 39.9518C98.5982 46.0196 98.5982 52.1092 98.5982 58.177C98.5982 59.8733 98.5982 59.8733 96.85 59.8733C96.0633 59.8733 95.2548 59.8299 94.4681 59.8951C93.3974 59.9821 93.0914 59.5036 93.1133 58.5032C93.1351 53.936 93.1133 49.3689 93.1133 44.8017C93.1133 37.081 93.1133 29.3386 93.1133 21.6179C93.1133 20.0738 93.1351 20.0738 94.6867 20.0738C95.5826 20.0738 96.5004 20.139 97.3963 20.052C98.3797 19.9868 98.6201 20.3783 98.6201 21.3134C98.5764 27.5117 98.5982 33.7318 98.5982 39.9518Z" fill="#EFF4F7"/>
<path d="M10.4018 39.4516C10.4236 30.165 17.2416 22.0094 26.7255 20.2043C27.9493 19.965 28.0585 20.0738 28.0804 21.2482C28.1022 22.2269 28.0148 23.1838 28.1022 24.1625C28.1897 25.1411 27.7963 25.5109 26.8567 25.7719C21.3717 27.2507 17.8316 30.774 16.3456 36.1893C15.4278 39.5386 15.7119 42.8878 17.2853 46.0631C17.6349 46.7591 17.5912 47.2158 16.9356 47.6942C16.0834 48.3032 15.3186 48.9991 14.4882 49.6516C13.4611 50.478 13.4393 50.478 12.7837 49.2819C11.1885 46.3241 10.3362 43.1706 10.4018 39.4516Z" fill="#EFF4F7"/>
<path d="M50.5229 39.9083C50.5229 43.2793 49.6488 46.4328 48.0754 49.4124C47.6165 50.2605 47.2231 50.4345 46.4802 49.7168C45.6935 48.9774 44.8412 48.3032 43.9671 47.6725C43.2678 47.194 43.2897 46.7373 43.6393 46.0414C47.2887 38.3207 43.6175 29.2299 35.6413 26.2286C35.2698 26.0981 34.8984 25.9676 34.505 25.8588C32.8005 25.3804 32.8005 25.3804 32.8005 23.5535C32.8005 22.7271 32.8224 21.9006 32.8005 21.0742C32.7787 20.2913 33.0846 19.9868 33.915 20.1608C39.9681 21.3352 44.6008 24.5104 47.7694 29.7736C49.6488 32.8836 50.5447 36.2763 50.5229 39.9083Z" fill="#EFF4F7"/>
<path d="M86.4483 44.345C86.4483 49.0861 86.4264 53.8273 86.4701 58.5684C86.4701 59.5471 86.186 59.9603 85.1808 59.8733C84.3504 59.8081 83.52 59.8733 82.6897 59.8733C81.007 59.8733 80.9852 59.8516 80.9633 58.2205C80.9633 53.1531 80.9633 48.0857 80.9633 43.0183C80.9633 38.7122 80.9852 34.3842 80.9415 30.078C80.9196 28.9906 81.2911 28.5774 82.3837 28.6861C83.2797 28.7731 84.1975 28.7731 85.0934 28.6861C86.2297 28.5774 86.492 29.0559 86.4701 30.1215C86.4264 34.8409 86.4483 39.6038 86.4483 44.345Z" fill="#EFF4F7"/>
<path d="M74.2983 46.8895C74.2983 50.7608 74.2765 54.6537 74.3202 58.5249C74.342 59.5689 73.9705 59.9386 72.9435 59.8733C72.0038 59.8081 71.0642 59.8081 70.1245 59.8733C69.1193 59.9386 68.7915 59.5254 68.7915 58.5467C68.8133 54.8712 68.7915 51.2175 68.7915 47.542C68.7915 43.4098 68.8133 39.2776 68.7915 35.1454C68.7915 34.2102 69.0537 33.7535 70.0808 33.8405C71.086 33.9275 72.1131 33.9058 73.1183 33.8405C74.0142 33.797 74.3202 34.1232 74.2983 35.0149C74.2765 38.9949 74.2983 42.9531 74.2983 46.8895Z" fill="#EFF4F7"/>
<path d="M30.6808 59.8733C25.48 59.7211 21.1313 58.1335 17.3508 55.0017C16.586 54.371 16.5642 53.9578 17.3945 53.3923C18.2468 52.8051 19.0772 52.1309 19.842 51.4132C20.4757 50.826 20.9346 50.8695 21.5902 51.3915C24.3218 53.5011 27.4467 54.5015 30.8775 54.3927C34.0243 54.3058 36.9088 53.2836 39.3781 51.3262C39.99 50.8478 40.3833 50.8695 40.9515 51.3697C41.7819 52.1092 42.656 52.8269 43.5738 53.4576C44.3605 54.0013 44.2075 54.3927 43.5738 54.9365C40.3833 57.655 36.6903 59.2644 32.5164 59.6994C31.8172 59.7864 31.1179 59.8298 30.6808 59.8733Z" fill="#EFF4F7"/>
<path d="M62.1702 50.3693C62.1702 53.0661 62.1702 55.7629 62.1702 58.4597C62.1702 59.8733 62.1484 59.8733 60.6842 59.8951C59.7883 59.8951 58.8705 59.8516 57.9745 59.8951C56.9693 59.9603 56.6415 59.5254 56.6634 58.5684C56.6852 53.6533 56.6852 48.7164 56.6852 43.8013C56.6852 43.1488 56.7071 42.5181 56.6852 41.8657C56.6634 41.1045 56.9475 40.7565 57.7779 40.7782C58.8923 40.8217 60.0068 40.8217 61.1431 40.7782C61.9517 40.7565 62.2139 41.061 62.2139 41.8439C62.1484 44.693 62.1484 47.5203 62.1702 50.3693C62.1484 50.3693 62.1484 50.3693 62.1702 50.3693Z" fill="#EFF4F7"/>
<path d="M32.7787 32.6443C32.7787 32.2529 32.7787 31.8614 32.7787 31.4699C32.7787 29.6648 32.9098 29.5996 34.6143 30.3173C39.6403 32.4486 42.1534 38.2337 40.3396 43.3228C40.0337 44.1927 39.7059 44.345 39.0066 43.7143C38.4822 43.2358 37.914 42.7574 37.324 42.3659C36.1002 41.5177 35.1387 40.626 35.2917 38.9079C35.3791 37.951 34.7891 36.9723 33.9806 36.4068C32.8879 35.6674 32.6694 34.7104 32.8005 33.536C32.8224 33.2098 32.7787 32.9271 32.7787 32.6443Z" fill="#EFF4F7"/>
<path d="M28.1022 32.7531C28.1022 33.1881 28.0804 33.623 28.1022 34.0362C28.1897 34.9279 27.9274 35.5586 27.1844 36.1458C26.0481 37.0158 25.5018 38.2989 25.5237 39.7343C25.5455 40.5608 25.2396 41.061 24.6059 41.5394C23.6662 42.2136 22.7921 42.9531 21.918 43.6925C21.328 44.1927 20.9783 44.1927 20.6506 43.4098C18.509 38.2989 21.7869 31.4917 27.097 29.991C27.7963 29.7953 28.1241 29.9258 28.1022 30.687C28.0804 31.3829 28.1022 32.0571 28.1022 32.7531Z" fill="#EFF4F7"/>
<path d="M30.5279 50.2171C28.3645 50.2606 26.5507 49.6516 24.8462 48.6294C24.1907 48.2162 24.1688 47.89 24.7807 47.4333C25.4144 46.9548 26.0481 46.4763 26.6381 45.9544C27.6652 44.9974 28.736 44.2145 30.2656 44.8235C30.3312 44.8452 30.4186 44.8669 30.4842 44.8235C32.2979 44.0405 33.4561 45.2149 34.658 46.2371C34.9421 46.4763 35.2043 46.6938 35.4884 46.933C36.9962 48.1727 36.9962 48.238 35.2043 49.1296C33.6528 49.8473 32.0794 50.304 30.5279 50.2171Z" fill="#EFF4F7"/>
<path d="M57.8216 87.3416C57.8216 88.9945 56.5323 90.2776 54.8715 90.2776C53.2981 90.2776 51.8996 88.9075 51.8777 87.3198C51.8559 85.6887 53.2326 84.362 54.937 84.3838C56.6197 84.4055 57.8216 85.6452 57.8216 87.3416Z" fill="#EFF4F7"/>
</svg>
