<svg width="29" height="29" viewBox="0 0 29 29" fill="none" xmlns="http://www.w3.org/2000/svg">
<path d="M28.9984 1.55933C28.9984 1.88815 28.8798 2.17265 28.6724 2.42019C28.5872 2.52364 28.4873 2.6197 28.391 2.71576C19.8059 11.2838 11.2171 19.8481 2.63574 28.4197C2.25056 28.804 1.83946 29.07 1.2728 28.9518C0.68762 28.8335 0.295032 28.4752 0.0987386 27.9283C-0.0938515 27.3889 0.0246654 26.8975 0.42466 26.48C0.476511 26.4283 0.528363 26.3766 0.580214 26.3249C9.1801 17.7458 17.7837 9.1667 26.3836 0.583927C26.6317 0.336383 26.891 0.111007 27.2502 0.0445022C28.1539 -0.118064 29.0058 0.620874 28.9984 1.55933Z" fill="#EFF4F6"/>
<path d="M28.9983 21.6991C29.0835 25.4603 25.9354 28.9703 21.7873 28.9998C17.7059 29.0294 14.6133 25.6155 14.4689 22.0427C14.3022 17.912 17.6355 14.4981 21.5984 14.4279C25.7798 14.354 29.065 17.8418 28.9983 21.6991ZM21.7058 26.0404C24.1169 26.0441 26.0613 24.1265 26.0687 21.7397C26.0724 19.3456 24.1428 17.4096 21.7391 17.4022C19.3355 17.3948 17.3874 19.3049 17.3725 21.7065C17.3577 24.2263 19.5392 26.118 21.7058 26.0404Z" fill="#EFF4F6"/>
<path d="M7.221 14.5203C3.60993 14.6681 -0.175201 11.3687 0.0062777 6.96095C0.154424 3.2995 3.24327 0.0223126 7.221 0.000144444C11.3469 -0.0257184 14.6098 3.42512 14.532 7.43017C14.4542 11.4389 10.9728 14.6829 7.221 14.5203ZM7.26914 11.5978C9.4543 11.6643 11.5913 9.79108 11.5876 7.28238C11.5839 4.72566 9.43208 2.90787 7.25063 2.94851C4.88769 2.99285 2.94698 4.89192 2.94698 7.25283C2.94698 9.65807 4.87288 11.5978 7.26914 11.5978Z" fill="#EFF4F6"/>
</svg>
