<svg width="172" height="73" viewBox="0 0 172 73" fill="none" xmlns="http://www.w3.org/2000/svg">
<path d="M132.154 72.8883C120.763 72.8883 109.371 72.8955 97.9799 72.8883C95.958 72.8883 93.8262 73.0185 92.6541 70.8917C91.4087 68.6418 93.1156 67.1371 94.2291 65.5456C95.5111 63.7153 96.7345 61.8055 98.2802 60.2068C103.225 55.0994 104.939 49.0806 104.053 42.1791C103.877 40.7974 104.016 39.3723 104.031 37.9616C104.09 32.6083 106.5 31.1614 111.188 33.7441C124.755 41.2242 138.301 48.7406 151.853 56.2424C157.443 59.3387 163.032 62.4204 168.615 65.5167C170.519 66.5729 172.526 67.7014 171.874 70.3202C171.2 73.0185 168.827 72.8811 166.673 72.8811C155.179 72.8955 143.663 72.8883 132.154 72.8883ZM140.44 66.3124C140.469 66.1533 140.498 66.0014 140.535 65.8422C132.088 63.6792 123.627 61.5306 115.188 59.3459C108.448 57.6024 108.448 57.5807 104.544 63.2668C104.038 64.0047 103.079 64.7137 103.65 65.7264C104.119 66.5656 105.137 66.2907 105.936 66.2907C117.437 66.3124 128.938 66.3124 140.44 66.3124ZM140.139 58.5863C140.242 58.3331 140.337 58.0727 140.44 57.8195C131.305 52.7845 122.162 47.7495 113.02 42.7289C112.514 42.454 111.708 42.0779 111.401 42.6349C110.258 44.6894 111.005 46.9537 110.895 49.1312C110.815 50.701 111.855 51.3666 113.254 51.721C116.573 52.5674 119.876 53.4789 123.195 54.3253C128.843 55.7577 134.491 57.1612 140.139 58.5863Z" fill="#F7F9FA"/>
<path d="M26.4297 72.9668C15.4192 71.5344 6.89936 66.2173 2.45997 56.0532C-2.02337 45.7951 -0.367759 35.7541 7.3389 27.6011C15.9833 18.4499 25.4188 10.0148 34.5027 1.25417C36.151 -0.33012 37.6747 -0.503741 39.3889 1.25417C41.0739 2.97591 40.9786 4.40828 39.2717 6.04321C32.0998 12.8795 25.0085 19.7882 17.822 26.61C13.009 31.182 8.22531 35.6239 7.24367 42.7423C5.80783 53.1378 13.3313 63.7287 23.7925 65.6024C24.9573 65.8122 26.1221 66.116 27.3015 66.1739C30.012 66.3113 30.6787 68.0331 30.5981 70.2395C30.5028 72.9306 28.4736 72.9306 26.4297 72.9668Z" fill="#F7F9FA"/>
<path d="M60.7792 65.8564C65.4823 65.8564 69.6213 65.8203 73.7457 65.8709C76.1412 65.8999 77.9434 66.6884 77.8848 69.5314C77.8481 71.6149 77.0276 72.9966 74.7347 72.8519C68.0902 72.4323 61.1601 74.4217 54.9039 70.5659C53.578 69.7485 52.4132 70.5297 51.2704 71.1881C48.2595 72.917 44.9556 73.0255 41.6004 72.8664C39.3514 72.7579 38.5529 71.5281 38.5383 69.4084C38.5236 67.3033 39.3075 66.0445 41.5418 65.9071C43.0582 65.813 44.5747 65.6973 46.6625 65.5454C43.8348 62.044 41.974 58.6078 43.0949 54.3541C43.7249 51.974 45.0508 50.1003 47.0361 48.6752C51.1898 45.6875 57.739 46.136 61.5411 49.6301C65.5555 53.2979 65.4383 58.3184 60.7792 65.8564ZM53.5414 53.2111C51.2338 53.4281 49.7173 54.7736 49.8272 56.9945C49.9298 59.2154 51.351 61.1759 53.7978 61.0529C56.1347 60.9372 57.6364 59.0925 57.5559 56.7775C57.4826 54.5349 55.9295 53.2979 53.5414 53.2111Z" fill="#F7F9FA"/>
</svg>
