<svg width="46" height="102" viewBox="0 0 46 102" fill="none" xmlns="http://www.w3.org/2000/svg">
<path d="M39.2121 75.9971C37.4038 75.9971 35.6502 75.9971 33.8967 75.9971C31.8144 75.9971 31.3623 75.5645 31.3623 73.5096C31.3623 57.6387 31.3623 41.7678 31.376 25.8968C31.376 25.5859 31.376 25.275 31.376 24.9641C31.4034 22.3144 30.9651 22.6659 33.8008 22.6253C34.6091 22.6118 34.9105 22.8687 34.9105 23.6933C34.8694 26.6404 34.8968 29.5874 34.8968 32.5345C34.8968 45.3908 34.8968 58.2471 34.8831 71.1033C34.8831 72.5363 34.8831 72.5363 36.3078 72.5363C38.4449 72.5363 40.5957 72.5498 42.7328 72.5363C43.5685 72.5363 44.3904 72.5363 44.8014 73.4285C45.2261 74.3208 44.9247 75.0913 44.3219 75.8213C38.4586 82.9998 32.609 90.1782 26.7594 97.3566C26.0333 98.2488 25.3209 99.1411 24.5812 100.033C23.5263 101.304 22.2523 101.331 21.2248 100.06C14.7039 91.9897 8.21042 83.9055 1.68953 75.8213C1.12785 75.1319 0.77167 74.4019 1.16895 73.5367C1.57993 72.6444 2.38819 72.5228 3.29235 72.5363C5.49795 72.5633 7.71725 72.5093 9.92284 72.5633C10.827 72.5904 11.1558 72.32 11.1421 71.3872C11.0873 68.2644 11.1421 65.1551 11.1147 62.0323C11.101 61.1941 11.3613 60.8562 12.2517 60.8832C15.0738 60.9508 14.6217 60.5723 14.6491 63.1543C14.6765 66.5475 14.6628 69.9407 14.6628 73.3474C14.6628 75.6726 14.2929 76.0241 11.8956 76.0241C10.2242 76.0241 8.53921 76.0241 6.71719 76.0241C7.18297 76.9975 7.84054 77.6599 8.41591 78.3764C13.0052 84.0677 17.6082 89.7456 22.1701 95.464C22.718 96.1534 23.0331 96.2751 23.6359 95.5316C28.6499 89.3265 33.6912 83.1485 38.7326 76.9704C38.9244 76.7001 39.2258 76.5243 39.2121 75.9971Z" fill="#F7F9FA"/>
<path d="M3.99102 58.8148C3.49784 58.6256 3.22386 58.2065 2.88137 57.8685C1.44294 56.4626 1.45664 56.4626 2.85397 55.0837C8.85429 49.1625 14.8546 43.2413 20.8686 37.3066C21.8687 36.3197 21.8687 36.3333 22.8139 37.2661C24.4305 38.8883 24.4305 38.8883 22.7728 40.5241C16.841 46.3776 10.9092 52.2312 4.97737 58.0713C4.67599 58.3687 4.4294 58.7202 3.99102 58.8148Z" fill="#F7F9FA"/>
<path d="M6.27881 46.4723C3.42935 46.4452 0.99086 43.9308 1.03196 41.0648C1.07306 38.3475 3.66224 35.9007 6.4706 35.9412C9.26527 35.9818 11.7312 38.4692 11.7175 41.2541C11.7038 44.0524 9.15568 46.4993 6.27881 46.4723ZM8.05973 41.2C8.05973 40.0509 7.49806 39.4696 6.34731 39.4426C5.37466 39.4155 4.60749 40.1591 4.58009 41.1189C4.56639 42.2409 5.16917 42.8493 6.30621 42.8628C7.53915 42.8763 8.05973 42.3896 8.05973 41.2Z" fill="#F7F9FA"/>
<path d="M24.773 54.1644C24.773 56.8546 22.2523 59.3556 19.5398 59.3691C16.5807 59.3691 14.1011 56.9493 14.1011 54.0563C14.1011 51.4201 16.6903 48.8516 19.348 48.838C22.3071 48.8245 24.773 51.2579 24.773 54.1644ZM17.7726 54.0833C17.7452 55.2189 18.2658 55.8002 19.3343 55.8407C20.444 55.8948 21.1974 55.1783 21.2111 54.0968C21.2248 53.0829 20.6631 52.4881 19.6357 52.4475C18.3069 52.407 17.8 52.8396 17.7726 54.0833Z" fill="#F7F9FA"/>
<path d="M19.5672 18.6373C19.5672 15.9065 19.5946 13.1622 19.5535 10.4315C19.5398 9.56627 19.8412 9.26886 20.7042 9.2959C23.3893 9.39053 23.0742 8.91737 23.0879 11.5941C23.1016 16.5419 23.0605 21.4897 23.1153 26.4376C23.129 27.492 22.8002 27.8165 21.7454 27.7759C19.2384 27.6813 19.5946 28.0058 19.5809 25.5859C19.5672 23.2742 19.5809 20.9625 19.5672 18.6373Z" fill="#F7F9FA"/>
<path d="M14.6628 26.1402C14.6628 28.533 14.6354 30.9123 14.6765 33.3051C14.6902 34.1568 14.4025 34.4542 13.5258 34.4407C10.7585 34.3731 11.1558 34.7516 11.1421 32.156C11.1147 27.7219 11.1558 23.3013 11.1147 18.8671C11.101 17.9208 11.4024 17.5829 12.375 17.6234C14.9094 17.7451 14.6491 17.2314 14.6628 19.9081C14.6765 21.9764 14.6628 24.0583 14.6628 26.1402Z" fill="#F7F9FA"/>
<path d="M23.0879 3.64509C23.0879 3.68564 23.0879 3.71268 23.0879 3.75324C23.0879 6.26771 22.7454 6.53809 20.2111 6.13253C19.7864 6.06493 19.5946 5.87567 19.5946 5.47011C19.5946 4.22639 19.5809 2.98267 19.5946 1.73895C19.5946 1.49562 19.6083 1.25228 19.8549 1.10358C20.0878 0.95487 22.6633 0.968389 22.8687 1.13061C23.0879 1.30636 23.0879 1.54969 23.0879 1.79303C23.0879 2.40137 23.0879 3.02323 23.0879 3.64509Z" fill="#F7F9FA"/>
<path d="M34.8968 16.8123C34.8968 16.8799 34.8968 16.9475 34.8968 17.0151C34.8831 19.6918 34.8831 19.6782 32.1569 19.4484C31.65 19.4079 31.376 19.2592 31.376 18.7184C31.3897 17.5153 31.2528 16.2851 31.4034 15.0954C31.5815 13.6219 32.8282 14.4871 33.5816 14.3384C34.1433 14.2302 34.9242 14.1221 34.8831 15.1495C34.8694 15.7038 34.8831 16.258 34.8968 16.8123Z" fill="#F7F9FA"/>
<path d="M12.9778 10.9857C14.6628 10.9857 14.6628 10.9857 14.6628 12.7837C14.6628 14.46 14.6628 14.46 12.7312 14.4465C11.1421 14.4465 11.1421 14.4465 11.1558 12.5404C11.1558 10.9857 11.1558 10.9857 12.9778 10.9857Z" fill="#F7F9FA"/>
<path d="M39.2121 75.9971C37.4038 75.9971 35.6502 75.9971 33.8967 75.9971C31.8144 75.9971 31.3623 75.5645 31.3623 73.5096C31.3623 57.6387 31.3623 41.7678 31.376 25.8968C31.376 25.5859 31.376 25.275 31.376 24.9641C31.4034 22.3144 30.9651 22.6659 33.8008 22.6253C34.6091 22.6118 34.9105 22.8687 34.9105 23.6933C34.8694 26.6404 34.8968 29.5874 34.8968 32.5345C34.8968 45.3908 34.8968 58.2471 34.8831 71.1033C34.8831 72.5363 34.8831 72.5363 36.3078 72.5363C38.4449 72.5363 40.5957 72.5498 42.7328 72.5363C43.5685 72.5363 44.3904 72.5363 44.8014 73.4285C45.2261 74.3208 44.9247 75.0913 44.3219 75.8213C38.4586 82.9998 32.609 90.1782 26.7594 97.3566C26.0333 98.2488 25.3209 99.1411 24.5812 100.033C23.5263 101.304 22.2523 101.331 21.2248 100.06C14.7039 91.9897 8.21042 83.9055 1.68953 75.8213C1.12785 75.1319 0.77167 74.4019 1.16895 73.5367C1.57993 72.6444 2.38819 72.5228 3.29235 72.5363C5.49795 72.5633 7.71725 72.5093 9.92284 72.5633C10.827 72.5904 11.1558 72.32 11.1421 71.3872C11.0873 68.2644 11.1421 65.1551 11.1147 62.0323C11.101 61.1941 11.3613 60.8562 12.2517 60.8832C15.0738 60.9508 14.6217 60.5723 14.6491 63.1543C14.6765 66.5475 14.6628 69.9407 14.6628 73.3474C14.6628 75.6726 14.2929 76.0241 11.8956 76.0241C10.2242 76.0241 8.53921 76.0241 6.71719 76.0241C7.18297 76.9975 7.84054 77.6599 8.41591 78.3764C13.0052 84.0677 17.6082 89.7456 22.1701 95.464C22.718 96.1534 23.0331 96.2751 23.6359 95.5316C28.6499 89.3265 33.6912 83.1485 38.7326 76.9704C38.9244 76.7001 39.2258 76.5243 39.2121 75.9971Z" stroke="#F7F9FA"/>
<path d="M3.99102 58.8148C3.49784 58.6256 3.22386 58.2065 2.88137 57.8685C1.44294 56.4626 1.45664 56.4626 2.85397 55.0837C8.85429 49.1625 14.8546 43.2413 20.8686 37.3066C21.8687 36.3197 21.8687 36.3333 22.8139 37.2661C24.4305 38.8883 24.4305 38.8883 22.7728 40.5241C16.841 46.3776 10.9092 52.2312 4.97737 58.0713C4.67599 58.3687 4.4294 58.7202 3.99102 58.8148Z" stroke="#F7F9FA"/>
<path d="M6.27881 46.4723C3.42935 46.4452 0.99086 43.9308 1.03196 41.0648C1.07306 38.3475 3.66224 35.9007 6.4706 35.9412C9.26527 35.9818 11.7312 38.4692 11.7175 41.2541C11.7038 44.0524 9.15568 46.4993 6.27881 46.4723ZM8.05973 41.2C8.05973 40.0509 7.49806 39.4696 6.34731 39.4426C5.37466 39.4155 4.60749 40.1591 4.58009 41.1189C4.56639 42.2409 5.16917 42.8493 6.30621 42.8628C7.53915 42.8763 8.05973 42.3896 8.05973 41.2Z" stroke="#F7F9FA"/>
<path d="M24.773 54.1644C24.773 56.8546 22.2523 59.3556 19.5398 59.3691C16.5807 59.3691 14.1011 56.9493 14.1011 54.0563C14.1011 51.4201 16.6903 48.8516 19.348 48.838C22.3071 48.8245 24.773 51.2579 24.773 54.1644ZM17.7726 54.0833C17.7452 55.2189 18.2658 55.8002 19.3343 55.8407C20.444 55.8948 21.1974 55.1783 21.2111 54.0968C21.2248 53.0829 20.6631 52.4881 19.6357 52.4475C18.3069 52.407 17.8 52.8396 17.7726 54.0833Z" stroke="#F7F9FA"/>
<path d="M19.5672 18.6373C19.5672 15.9065 19.5946 13.1622 19.5535 10.4315C19.5398 9.56627 19.8412 9.26886 20.7042 9.2959C23.3893 9.39053 23.0742 8.91737 23.0879 11.5941C23.1016 16.5419 23.0605 21.4897 23.1153 26.4376C23.129 27.492 22.8002 27.8165 21.7454 27.7759C19.2384 27.6813 19.5946 28.0058 19.5809 25.5859C19.5672 23.2742 19.5809 20.9625 19.5672 18.6373Z" stroke="#F7F9FA"/>
<path d="M14.6628 26.1402C14.6628 28.533 14.6354 30.9123 14.6765 33.3051C14.6902 34.1568 14.4025 34.4542 13.5258 34.4407C10.7585 34.3731 11.1558 34.7516 11.1421 32.156C11.1147 27.7219 11.1558 23.3013 11.1147 18.8671C11.101 17.9208 11.4024 17.5829 12.375 17.6234C14.9094 17.7451 14.6491 17.2314 14.6628 19.9081C14.6765 21.9764 14.6628 24.0583 14.6628 26.1402Z" stroke="#F7F9FA"/>
<path d="M23.0879 3.64509C23.0879 3.68564 23.0879 3.71268 23.0879 3.75324C23.0879 6.26771 22.7454 6.53809 20.2111 6.13253C19.7864 6.06493 19.5946 5.87567 19.5946 5.47011C19.5946 4.22639 19.5809 2.98267 19.5946 1.73895C19.5946 1.49562 19.6083 1.25228 19.8549 1.10358C20.0878 0.95487 22.6633 0.968389 22.8687 1.13061C23.0879 1.30636 23.0879 1.54969 23.0879 1.79303C23.0879 2.40137 23.0879 3.02323 23.0879 3.64509Z" stroke="#F7F9FA"/>
<path d="M34.8968 16.8123C34.8968 16.8799 34.8968 16.9475 34.8968 17.0151C34.8831 19.6918 34.8831 19.6782 32.1569 19.4484C31.65 19.4079 31.376 19.2592 31.376 18.7184C31.3897 17.5153 31.2528 16.2851 31.4034 15.0954C31.5815 13.6219 32.8282 14.4871 33.5816 14.3384C34.1433 14.2302 34.9242 14.1221 34.8831 15.1495C34.8694 15.7038 34.8831 16.258 34.8968 16.8123Z" stroke="#F7F9FA"/>
<path d="M12.9778 10.9857C14.6628 10.9857 14.6628 10.9857 14.6628 12.7837C14.6628 14.46 14.6628 14.46 12.7312 14.4465C11.1421 14.4465 11.1421 14.4465 11.1558 12.5404C11.1558 10.9857 11.1558 10.9857 12.9778 10.9857Z" stroke="#F7F9FA"/>
</svg>
