<svg width="291" height="129" viewBox="0 0 291 129" fill="none" xmlns="http://www.w3.org/2000/svg">
<path d="M222.753 127.945C203.142 127.945 183.48 127.945 163.87 127.945C163.048 127.945 162.227 127.945 161.354 127.945C159.095 127.996 157.299 127.175 156.22 125.123C155.04 122.917 155.553 120.968 156.939 119.018C162.278 111.631 167.514 104.141 172.956 96.753C174.65 94.4957 175.523 92.2384 175.472 89.3141C175.318 81.5161 175.42 73.7181 175.42 65.9714C175.42 63.0472 175.266 59.969 178.347 58.276C181.221 56.6856 183.685 58.1734 186.15 59.6099C219.056 78.5919 252.014 97.5738 284.921 116.504C285.742 116.966 286.513 117.428 287.334 117.941C289.901 119.48 290.414 121.84 289.747 124.456C289.079 126.97 287.129 127.945 284.51 127.894C272.344 127.842 260.177 127.894 248.061 127.894C239.591 127.945 231.172 127.945 222.753 127.945ZM243.133 117.531C243.185 117.428 243.185 117.325 243.236 117.223C223.831 111.99 204.425 106.86 185.02 101.575C183.121 101.062 182.351 101.986 181.478 103.217C178.757 107.014 176.036 110.81 173.367 114.658C172.854 115.376 171.724 116.145 172.135 117.018C172.648 118.146 173.983 117.582 174.958 117.582C197.649 117.531 220.391 117.531 243.133 117.531ZM244.519 106.295C244.263 105.834 244.263 105.68 244.16 105.68C225.576 94.9061 206.941 84.1838 188.357 73.4103C186.509 72.3329 186.252 73.2564 186.252 74.8468C186.252 79.2075 186.355 83.5682 186.201 87.9289C186.15 89.981 186.971 90.9045 188.87 91.4175C207.352 96.2913 225.781 101.268 244.519 106.295Z" fill="#F7F9FA"/>
<path d="M0.00494611 80.798C0.415638 67.6645 4.5739 56.0188 14.0198 46.5791C29.0101 31.5988 44.0517 16.6697 58.9393 1.58673C61.1467 -0.67058 62.3788 -0.414067 64.3809 1.68934C69.0012 6.61439 69.1039 6.51179 64.3809 11.2316C50.3661 25.2372 36.2999 39.2429 22.285 53.3511C14.6872 60.9439 10.0669 69.9731 10.4776 80.9006C11.1963 99.0617 23.9791 115.325 43.487 117.069C50.5201 117.685 50.4174 117.736 50.3661 124.867C50.3661 127.073 49.75 127.945 47.3885 128.048C25.0572 128.715 3.23915 109.938 0.569648 87.7238C0.312965 85.3639 -0.0463904 83.1066 0.00494611 80.798Z" fill="#F7F9FA"/>
<path d="M115.1 127.894C112.174 127.894 109.299 127.792 106.373 127.945C101.188 128.202 96.4646 126.919 92.3064 123.79C90.6122 122.507 89.2775 122.507 87.6347 123.841C81.3717 128.766 73.9792 128.048 66.7408 127.843C66.6381 127.843 66.5354 127.843 66.4327 127.792C63.1985 125.586 65.5087 122.302 64.944 119.583C64.5846 117.993 65.4574 117.069 67.2028 117.018C70.5397 117.018 73.8765 116.967 77.1621 116.915C78.0348 116.915 78.9589 116.864 79.3182 116.043C79.7289 115.017 78.6508 114.658 78.0861 114.145C70.591 107.168 69.9236 95.9326 76.546 88.3911C82.5524 81.5679 94.6678 80.9522 102.06 87.1086C109.915 93.6753 109.966 106.398 102.163 114.042C101.547 114.658 100.212 115.017 100.777 116.146C101.188 117.069 102.368 117.018 103.292 117.018C110.993 117.018 118.693 117.121 126.342 117.018C129.012 116.967 130.295 117.634 130.193 120.66C129.936 128.971 131.168 127.843 122.852 127.945C120.336 127.894 117.718 127.894 115.1 127.894ZM97.3373 100.447C97.3373 96.5995 93.8465 93.0084 90.0989 92.9571C86.3513 92.9058 82.7578 96.4456 82.7064 100.242C82.6551 103.885 86.7107 108.707 89.8935 108.81C93.0251 108.963 97.3373 104.038 97.3373 100.447Z" fill="#F7F9FA"/>
</svg>
