<svg width="393" height="326" viewBox="0 0 393 326" fill="none" xmlns="http://www.w3.org/2000/svg">
<path d="M320.945 245.935C320.945 245.935 317.773 235.098 310.893 235.886C304.022 236.684 302.961 239.855 297.142 237.472C291.323 235.089 289.21 227.424 279.693 229.281C270.175 231.129 269.114 241.703 258.273 240.915C247.432 240.118 243.733 239.855 239.763 245.935H320.945Z" fill="white"/>
<path d="M292.051 19.9524C292.051 19.9524 287.699 10.3365 275.823 13.2026C264.082 16.0348 259.027 -0.771831 248.567 0.305084C238.116 1.382 241.857 11.0403 228.522 13.2026C215.186 15.3649 211.318 10.1076 205.702 19.9524H292.051Z" fill="white"/>
<path d="M167.801 62.1385C167.801 62.1385 163.449 52.5225 151.573 55.3887C139.832 58.2209 134.776 41.4142 124.317 42.4911C113.866 43.568 117.607 53.2264 104.272 55.3887C90.9364 57.551 87.0682 52.2936 81.4524 62.1385H167.801Z" fill="white"/>
<path d="M359.89 182.736C369.009 170.788 372.674 155.466 369.518 140.779C366.88 128.466 359.882 117.79 342.458 124.32C300.764 139.948 282.339 126.168 276.256 104.35C270.182 82.5321 262.005 31.2811 224.459 38.2599C186.922 45.2386 184.64 115.153 150.521 107.03C116.403 98.9063 83.4294 93.6744 61.4245 117.273C39.4112 140.864 23.9891 190.775 44.7215 217.146C65.4455 243.527 110.371 220.759 127.948 254.652C145.525 288.545 219.242 290.114 224.468 253.982C229.693 217.85 268.452 192.343 302.299 210.202C324.626 221.98 347.14 199.449 359.89 182.736Z" fill="white"/>
<path d="M310.232 326C273.543 326 243.801 322.883 243.801 319.038C243.801 315.193 273.543 312.076 310.232 312.076C346.92 312.076 376.662 315.193 376.662 319.038C376.662 322.883 346.92 326 310.232 326Z" fill="#D1D9DD"/>
<path d="M278.403 80.4378C278.42 80.5565 278.428 80.8278 278.547 81.15L287.132 110.668C288.141 114.136 291.263 116.561 294.868 116.688C294.97 116.688 295.072 116.697 295.174 116.697C298.66 116.697 301.799 114.526 303.02 111.236L304.454 107.378L305.608 104.266L317.272 72.8146C318.875 68.4815 316.67 63.665 312.335 62.0624C308 60.4512 303.182 62.6644 301.578 66.9975L296.845 79.7594L296.149 81.6334L296.132 81.6758L294.648 76.5795C294.156 74.8751 292.578 73.688 290.805 73.7473C288.727 73.8236 286.334 74.5783 284.315 75.4432C282.483 76.2234 278.038 77.4529 278.403 80.4378Z" fill="#E04E39"/>
<path d="M304.453 107.377L305.607 104.265C305.632 96.7016 304.767 88.3831 304.716 87.8658C304.682 87.5605 304.411 87.3485 304.114 87.3825C303.817 87.4079 303.596 87.6793 303.63 87.976C303.647 88.1202 304.793 99.1692 304.453 107.377Z" fill="#CF422E"/>
<path d="M294.291 72.9502C294.291 72.9502 295.877 75.0786 295.623 77.0713C295.623 77.0713 281.346 81.6588 278.275 82.3202C278.275 82.3202 276.901 80.0307 277.274 78.0634C277.274 78.0719 285.63 73.1876 294.291 72.9502Z" fill="#CF422E"/>
<path d="M300.365 96.0741C300.314 96.0826 300.271 96.0911 300.229 96.0911C299.975 96.0911 299.745 95.9215 299.678 95.6586L296.149 81.6333L296.844 79.7593L298.388 85.9155L299.16 88.9851L300.772 95.3873C300.848 95.6841 300.662 95.9978 300.365 96.0741Z" fill="#CF422E"/>
<path d="M301.68 92.1563C301.501 92.1563 301.323 92.0715 301.213 91.9189L297.396 86.4834C297.218 86.229 297.277 85.8729 297.531 85.6948C297.786 85.5167 298.142 85.5761 298.32 85.8305L302.138 91.2659C302.316 91.5203 302.256 91.8765 302.002 92.0545C301.909 92.1224 301.798 92.1563 301.68 92.1563Z" fill="#CF422E"/>
<path d="M281.227 77.4444L279.505 67.2603C279.505 67.2603 282.186 66.4039 286.843 65.9375C286.843 65.9375 288.642 70.0162 290.236 75.0446C287.276 76.342 283.085 77.6394 281.227 77.4444Z" fill="#FDBB92"/>
<path d="M275.585 59.9849C275.585 59.9849 278.503 59.6797 281.328 60.3835C280.548 59.9765 279.878 59.5949 279.411 59.1285C275.645 55.3551 271.895 54.5834 271.573 55.5925C271.25 56.5931 275.585 59.9849 275.585 59.9849Z" fill="#FD9676"/>
<path d="M274.679 61.7315C274.679 61.7315 270.981 59.8406 269.564 57.3476C268.139 54.8545 262.727 51.4627 264.203 50.0212C265.45 48.8086 272.312 56.5674 275.417 58.0429C278.692 59.6116 274.679 61.7315 274.679 61.7315Z" fill="#FD9676"/>
<path d="M277.215 59.8827C277.215 59.8827 271.124 58.3055 269.156 56.0584C267.179 53.8113 262.166 51.4455 262.191 50.3431C262.217 49.2408 266.085 50.5721 268.995 52.9803C271.913 55.397 277.215 59.8827 277.215 59.8827Z" fill="#FDBB92"/>
<path d="M282.194 68.7695C282.958 68.744 283.628 68.6423 284.205 68.4812C284.883 68.2861 285.46 67.9554 285.91 67.5229C287.208 66.2849 287.522 64.2583 286.639 62.6556C286.639 62.6556 286.631 62.6472 286.631 62.6387C286.215 62.0197 285.605 61.4091 284.799 60.8325C284.765 60.8071 284.722 60.7816 284.68 60.7477C284.527 60.646 284.374 60.5442 284.222 60.4509C280.998 58.4667 276.231 58.5091 276.231 58.5091C276.231 58.5091 269.902 54.9137 267.196 53.3365C264.49 51.7678 260.3 50.2329 260.665 51.6151C261.038 52.9973 267.23 56.9488 269.707 60.6544C272.21 64.36 282.194 68.7695 282.194 68.7695Z" fill="#FDBB92"/>
<path d="M269.181 308.43C271.039 305.428 287.716 289.444 287.716 289.444C287.716 289.444 291.126 292.115 290.957 295.057C290.796 297.856 290.914 312.593 290.88 314.145H288.861L287.725 307.421C287.725 307.421 283.118 314.79 279.657 317.316C276.196 319.843 264.507 319.385 261.699 319.012C258.874 318.639 267.315 311.432 269.181 308.43Z" fill="#181818"/>
<path d="M289.709 282.151L287.495 288.732C287.495 288.732 288.428 290.885 287.495 294.057C286.562 297.237 281.693 302.189 279.64 306.022C277.578 309.854 270.478 312.475 268.603 311.627C266.729 310.787 272.158 304.334 273.744 300.968C275.33 297.601 276.594 294.074 277.765 291.428C278.8 289.079 281.404 281.71 281.404 281.71L289.709 282.151Z" fill="#FDBB92"/>
<path d="M334.873 287.994C334.873 287.994 331.09 289.537 330.945 294.862C330.801 300.187 330.945 313.933 330.945 313.933H332.88L333.931 309.083C333.931 309.083 334.602 314.348 337.265 317.715C339.929 321.081 345.68 321.217 349.472 320.657C353.264 320.098 350.456 313.085 348.912 309.159C347.369 305.233 344.145 295.837 344.145 295.837L334.873 287.994Z" fill="#181818"/>
<path d="M335.875 280.371C335.875 280.371 335.994 286.866 334.874 287.994C333.754 289.122 332.21 292.759 333.33 297.245C334.45 301.731 335.205 308.277 337.818 311.084C340.439 313.891 347.259 313.984 347.827 311.737C348.387 309.49 344.366 301.171 344.18 296.872C343.993 292.573 343.247 280.981 343.247 280.981L335.875 280.371Z" fill="#FDBB92"/>
<path d="M357.591 160.426C357.591 160.426 359.144 151.955 357.591 146.469L304.386 145.553C304.386 145.553 303.207 162.292 302.019 168.651C302.019 168.643 343.314 170.525 357.591 160.426Z" fill="#2A83EC"/>
<path d="M333.891 175.401C334.696 194.607 335.791 224.354 334.942 227.237C333.721 231.392 333.288 248.911 333.305 259.366C333.314 263.521 333.933 278.284 333.882 285.102L344.8 285.806C346.988 269.228 352.231 240.601 352.952 233.376C353.147 231.468 353.376 228.534 353.639 224.914C353.673 224.447 353.715 223.955 353.749 223.464C354.725 209.743 356.031 187.586 356.896 172.653C357.168 167.964 357.388 163.996 357.55 161.223C357.702 158.535 357.787 156.975 357.787 156.975L333.178 159.162C333.178 159.162 333.203 159.697 333.246 160.663C333.356 163.182 333.611 168.643 333.891 175.401Z" fill="#738D9A"/>
<path d="M333.245 160.672C333.364 163.182 333.61 168.643 333.898 175.401C341.007 175.435 348.786 174.697 356.896 172.662C357.167 167.973 357.388 164.004 357.549 161.232L333.245 160.672Z" fill="#577888"/>
<path d="M344.807 224.685C344.748 225.058 344.985 225.406 345.358 225.473C346.334 225.634 347.292 225.711 348.209 225.711C350.329 225.711 352.23 225.338 353.638 224.922C353.672 224.456 353.714 223.964 353.748 223.472C351.873 224.049 348.836 224.693 345.587 224.134C345.214 224.074 344.866 224.32 344.807 224.685Z" fill="#577888"/>
<path d="M336.46 281.719H335.332C335.858 239.736 338.343 228.212 338.572 227.186L336.748 167.125C336.74 166.811 336.986 166.548 337.3 166.54C337.614 166.523 337.877 166.777 337.885 167.091L339.709 227.229C339.709 227.28 339.709 227.33 339.692 227.373C339.658 227.492 336.994 239.075 336.46 281.719Z" fill="#577888"/>
<path d="M279.091 285.806C283.392 286.552 286.2 285.95 290.534 286.459C294.275 275.198 303.225 252.405 305.278 247.097C309.273 236.768 309.799 222.226 309.799 222.226L325.781 175.028L330.659 160.613L331.219 158.942L304.379 155.94L303.624 159.985L301.766 169.949L292.765 218.215L292.519 219.555L279.091 285.806Z" fill="#738D9A"/>
<path d="M301.774 169.948C306.829 171.712 315.279 174.112 325.78 175.028L330.658 160.612L303.631 159.985L301.774 169.948Z" fill="#577888"/>
<path d="M292.221 282.847L291.415 287.858L277.969 287.095L278.359 281.753L292.221 282.847Z" fill="#577888"/>
<path d="M292.536 219.554C293.571 219.699 294.521 219.741 295.344 219.741C297.1 219.741 298.287 219.521 298.389 219.504C298.762 219.427 298.992 219.08 298.924 218.707C298.864 218.333 298.5 218.087 298.135 218.164C298.101 218.172 295.776 218.596 292.782 218.206L292.536 219.554Z" fill="#577888"/>
<path d="M288.531 283.881L289.642 284.102C299.567 255.356 301.476 248.936 303.215 243.586C306.09 234.733 306.387 221.259 306.404 219.987L325.33 167.294C325.432 166.998 325.279 166.675 324.99 166.565C324.694 166.463 324.371 166.616 324.261 166.913L305.31 219.69C305.284 219.749 305.276 219.817 305.276 219.877C305.276 220.021 305.089 234.148 302.137 243.23C300.381 248.631 298.456 255.118 288.531 283.881Z" fill="#577888"/>
<path d="M346.826 281.448L346.029 286.459L332.575 285.696V280.32L346.826 281.448Z" fill="#577888"/>
<path d="M305.625 169.321C305.659 169.33 305.693 169.33 305.727 169.338C312.174 170.279 318.723 171.136 325.281 171.645C325.654 171.67 326.036 171.704 326.409 171.729C333.348 172.221 340.312 172.298 347.201 171.619C349.457 171.399 351.714 171.093 353.945 170.686C358.924 169.779 362.292 165.064 361.477 160.07C360.723 155.381 360.222 150.929 359.891 146.748C359.84 146.129 359.798 145.51 359.755 144.908C359.425 140.033 359.314 135.538 359.28 131.451C359.28 131.103 359.272 130.764 359.272 130.425C359.272 130.272 359.272 130.12 359.272 129.967C359.272 129.738 359.272 129.501 359.272 129.272C359.272 129.119 359.272 128.967 359.272 128.814C359.272 128.5 359.272 128.186 359.272 127.873C359.263 126.915 359.272 125.99 359.263 125.091V124.854C359.263 121.742 359.246 118.952 359.128 116.502C359.119 116.391 359.119 116.281 359.111 116.171C359.085 115.662 359.06 115.162 359.034 114.661C359.009 114.178 358.983 113.703 358.967 113.228C358.916 111.906 358.882 110.625 358.856 109.413C358.839 108.387 358.839 107.403 358.856 106.479C358.873 105.444 358.916 104.477 358.975 103.579C359 103.282 359.017 102.976 359.043 102.663C359.077 102.188 359.119 101.688 359.162 101.179C359.187 100.874 359.213 100.56 359.246 100.246C359.263 100.11 359.272 99.9662 359.28 99.8306C359.28 99.7966 359.289 99.7627 359.289 99.7288C359.306 99.5338 359.323 99.3387 359.34 99.1437C359.357 98.9487 359.374 98.7536 359.399 98.5586C359.433 98.2194 359.467 97.8718 359.501 97.5241C359.662 95.896 359.849 94.1831 360.035 92.4278C360.095 91.8766 360.154 91.317 360.222 90.7573C360.324 89.8924 360.417 89.019 360.519 88.1456C360.587 87.5859 360.646 87.0178 360.714 86.4581C361.673 78.0039 362.58 69.9059 362.258 67.3365C361.698 62.8847 340.143 51.1404 340.143 51.1404L327.206 50.7334C327.206 50.7334 308.866 58.1192 305.642 62.5286C303.089 66.0222 303.717 74.1033 304.497 84.3213C304.548 84.9149 304.591 85.5169 304.633 86.1274C304.743 87.5605 304.845 89.0275 304.947 90.5284C304.972 90.876 304.998 91.2322 305.015 91.5883C305.032 91.8088 305.04 92.0378 305.057 92.2667C305.074 92.4957 305.083 92.7246 305.1 92.962C305.108 93.174 305.125 93.386 305.133 93.598C305.15 93.827 305.159 94.0559 305.167 94.2933C305.193 94.7173 305.21 95.1413 305.227 95.5738C305.244 95.9299 305.261 96.2861 305.269 96.6422C305.278 96.71 305.278 96.7694 305.278 96.8372C305.286 97.0662 305.295 97.2951 305.303 97.5326L305.312 97.7106C305.32 98.0159 305.329 98.3212 305.337 98.6264C305.346 98.9911 305.354 99.3557 305.363 99.7203C305.371 99.8899 305.371 100.059 305.371 100.229C305.379 100.382 305.379 100.534 305.379 100.687C305.379 100.763 305.379 100.84 305.379 100.916C305.388 101.128 305.388 101.34 305.388 101.552C305.388 101.908 305.396 102.273 305.396 102.646V103.027C305.396 104.121 305.388 105.266 305.363 106.462C305.346 107.42 305.32 108.395 305.295 109.396C305.261 110.481 305.227 111.592 305.184 112.72C305.176 112.881 305.176 113.05 305.167 113.211C305.15 113.644 305.133 114.085 305.117 114.526C305.091 115.06 305.066 115.603 305.049 116.154C304.989 117.477 304.862 118.978 304.684 120.631C304.658 120.843 304.641 121.064 304.608 121.284C304.565 121.64 304.531 121.996 304.48 122.361C304.455 122.59 304.429 122.819 304.395 123.048C304.311 123.743 304.209 124.455 304.107 125.193C304.099 125.261 304.09 125.32 304.082 125.388C304.039 125.685 303.997 125.973 303.954 126.279C303.844 127.008 303.734 127.763 303.615 128.526C303.454 129.535 303.293 130.561 303.115 131.621C303.081 131.807 303.047 131.994 303.021 132.18C301.638 140.312 299.738 149.623 297.889 158.145C296.769 163.402 300.307 168.541 305.625 169.321Z" fill="#E04E39"/>
<path d="M315.61 128.263C315.635 128.263 315.661 128.263 315.678 128.255C325.509 126.983 334.671 120.996 340.626 116.205C347.056 111.024 351.238 106.072 351.281 106.021C351.476 105.792 351.442 105.444 351.213 105.258C350.984 105.063 350.636 105.097 350.449 105.326C350.288 105.521 333.899 124.803 315.533 127.186C315.237 127.229 315.024 127.5 315.067 127.797C315.109 128.068 315.347 128.263 315.61 128.263Z" fill="#CF422E"/>
<path d="M325.281 171.636C325.654 171.662 326.036 171.696 326.409 171.721C323.771 151.709 329.327 82.7186 330.65 67.0058C330.438 67.3111 330.226 67.6163 330.014 67.9386C330.014 67.9386 329.836 67.3959 329.573 66.5225C328.284 81.6332 322.634 150.81 325.281 171.636Z" fill="#CF422E"/>
<path d="M326.077 79.0725C325.524 79.0725 325.076 78.6245 325.076 78.0719C325.076 77.5193 325.524 77.0713 326.077 77.0713C326.63 77.0713 327.078 77.5193 327.078 78.0719C327.078 78.6245 326.63 79.0725 326.077 79.0725Z" fill="#CF422E"/>
<path d="M324.89 91.8176C324.337 91.8176 323.889 91.3696 323.889 90.817C323.889 90.2644 324.337 89.8164 324.89 89.8164C325.442 89.8164 325.891 90.2644 325.891 90.817C325.891 91.3696 325.442 91.8176 324.89 91.8176Z" fill="#CF422E"/>
<path d="M323.905 104.588C323.352 104.588 322.904 104.14 322.904 103.587C322.904 103.034 323.352 102.586 323.905 102.586C324.458 102.586 324.906 103.034 324.906 103.587C324.906 104.14 324.458 104.588 323.905 104.588Z" fill="#CF422E"/>
<path d="M323.142 117.384C322.589 117.384 322.141 116.936 322.141 116.383C322.141 115.83 322.589 115.382 323.142 115.382C323.694 115.382 324.143 115.83 324.143 116.383C324.143 116.936 323.694 117.384 323.142 117.384Z" fill="#CF422E"/>
<path d="M322.591 130.205C322.038 130.205 321.59 129.757 321.59 129.204C321.59 128.652 322.038 128.204 322.591 128.204C323.144 128.204 323.592 128.652 323.592 129.204C323.592 129.757 323.144 130.205 322.591 130.205Z" fill="#CF422E"/>
<path d="M322.251 143.06C321.698 143.06 321.25 142.612 321.25 142.059C321.25 141.507 321.698 141.059 322.251 141.059C322.804 141.059 323.252 141.507 323.252 142.059C323.252 142.612 322.804 143.06 322.251 143.06Z" fill="#CF422E"/>
<path d="M322.132 155.949C321.579 155.949 321.131 155.501 321.131 154.948C321.131 154.396 321.579 153.948 322.132 153.948C322.685 153.948 323.133 154.396 323.133 154.948C323.133 155.501 322.685 155.949 322.132 155.949Z" fill="#CF422E"/>
<path d="M334.705 74.5611H334.714C334.909 74.5611 335.087 74.4509 335.189 74.2813C337.013 71.0251 346.861 59.0519 346.963 58.9331C347.158 58.6957 347.124 58.348 346.887 58.153C346.649 57.958 346.301 57.9919 346.106 58.2293C345.725 58.6957 337.31 68.9137 334.68 72.9754C333.433 71.271 331.982 70.4231 330.362 70.457C330.057 70.4655 329.811 70.7114 329.819 71.0251C329.828 71.3304 330.074 71.5848 330.379 71.5678C331.821 71.5424 333.085 72.4412 334.23 74.2983C334.332 74.4594 334.51 74.5611 334.705 74.5611Z" fill="#CF422E"/>
<path d="M325.144 72.95C325.288 72.95 325.424 72.8991 325.526 72.7974C327.545 70.881 329.572 71.483 329.589 71.4915C329.886 71.5848 330.192 71.4152 330.285 71.1269C330.378 70.8301 330.208 70.5248 329.92 70.4315C329.818 70.3976 327.664 69.7617 325.399 71.4491L319.613 54.6255C319.511 54.3372 319.198 54.1846 318.909 54.2778C318.621 54.3796 318.468 54.6933 318.561 54.9816L324.627 72.5769C324.686 72.755 324.839 72.8906 325.017 72.933C325.059 72.9415 325.102 72.95 325.144 72.95Z" fill="#CF422E"/>
<path d="M342.332 56.1347C342.332 56.1347 335.418 59.7386 330.015 67.9384C330.015 67.9384 326.401 56.7453 327.181 54.1081C327.181 54.1081 338.939 51.6829 342.332 56.1347Z" fill="#FDBB92"/>
<path d="M321.243 159.765C331.762 159.765 344.715 154.711 345.326 154.473C345.615 154.355 345.759 154.032 345.648 153.744C345.53 153.456 345.207 153.312 344.919 153.422C344.749 153.49 328.004 160.019 317.426 158.365C317.112 158.315 316.832 158.527 316.781 158.84C316.73 159.146 316.942 159.434 317.256 159.485C318.511 159.68 319.86 159.765 321.243 159.765Z" fill="#CF422E"/>
<path d="M356.777 87.925L360.052 92.4107C360.111 91.8595 360.17 91.2999 360.238 90.7402L357.693 87.2551C357.507 87.0007 357.159 86.9498 356.904 87.1279C356.65 87.3144 356.599 87.6706 356.777 87.925Z" fill="#CF422E"/>
<path d="M363.496 138.608C363.496 138.608 363.115 141.533 364.217 144.137C365.329 146.731 362.818 147.554 362.275 144.45C361.817 141.847 363.496 138.608 363.496 138.608Z" fill="#FD9676"/>
<path d="M360.528 123.192C360.528 123.192 359.188 121.479 356.855 123.005C354.513 124.532 353.165 128.475 354.208 129.399C355.251 130.332 356.761 126.372 358.161 126.77C359.561 127.169 358 135.275 357.737 137.565C357.474 139.846 358.144 148.724 360.112 147.723C362.08 146.723 361.376 144.679 362.733 140.821C364.125 136.878 365.643 133.325 366.39 131.078C367.687 127.16 360.528 123.192 360.528 123.192Z" fill="#FDBB92"/>
<path d="M365.999 130.205C365.999 130.205 378.876 122.743 382.719 119.122L374.431 112.287L360.527 123.192C360.527 123.192 359.628 131.714 365.999 130.205Z" fill="#FDBB92"/>
<path d="M363.904 136.615C363.904 136.615 362.53 142.195 363.073 144.713C363.658 147.444 361.902 149.241 360.689 144.866C359.476 140.49 363.904 136.615 363.904 136.615Z" fill="#FDBB92"/>
<path d="M353.028 66.4462C354.063 65.6237 356.286 62.9781 359.959 64.3772C361.223 64.8605 362.309 65.717 363.14 66.7854L391.304 103.214C393.848 106.58 393.484 111.321 390.455 114.263L380.318 125.677C376.102 121.462 371.894 117.256 367.678 113.042L372.828 108.047L373.421 107.471L373.489 107.403L373.125 106.92L372.811 106.504L351.4 79.0131C348.617 75.3244 349.406 69.3123 353.028 66.4462Z" fill="#E04E39"/>
<path d="M369.248 109.989L382.719 124.04L379.835 126.999L366.143 113.686L369.248 109.989Z" fill="#CF422E"/>
<path d="M372.827 108.048L381.378 108.158H381.387C381.7 108.158 381.946 107.912 381.955 107.598C381.963 107.284 381.709 107.03 381.395 107.03L374.498 106.945L373.133 106.928L373.489 107.403L373.421 107.462L372.827 108.048Z" fill="#CF422E"/>
<path d="M373.125 106.919L373.489 107.403L373.422 107.462L374.49 106.936L378.986 104.698C379.266 104.562 379.377 104.223 379.241 103.943C379.097 103.663 378.757 103.553 378.477 103.689L372.811 106.504L373.125 106.919Z" fill="#CF422E"/>
<path d="M329.438 18.6891C329.438 18.6891 324.272 31.5358 327.394 40.8125C330.515 50.0892 334.587 53.0995 327.86 54.8378C321.133 56.5762 316.001 57.8651 310.767 59.7984C304.456 62.1303 313.702 28.7545 318.325 17.8157C323.05 6.6141 337.412 7.42815 337.412 7.42815L329.438 18.6891Z" fill="#181818"/>
<path d="M318.741 27.0074C318.741 27.0074 315.009 13.1771 326.554 8.6574C338.099 4.13775 348.152 10.3533 349.959 17.8154C351.765 25.2775 346.693 29.2545 346.693 29.2545L318.741 27.0074Z" fill="#181818"/>
<path d="M332.874 57.1354C329.676 57.5255 328.649 55.9822 327.86 54.8375L328.047 49.2409L328.157 45.9762L328.149 45.4929L329.582 45.5438L340.441 44.0938L340.865 50.9114L341.068 54.1421C339.533 55.2106 337.514 56.5588 332.874 57.1354Z" fill="#FDBB92"/>
<path d="M328.047 49.2407C331.058 51.1741 337.514 51.4624 340.865 50.9197C340.873 50.9197 340.881 50.9197 340.898 50.9112L340.449 44.1021L329.591 45.5521L328.157 45.5012L328.165 45.9845L328.047 49.2407Z" fill="#EBA77C"/>
<path d="M322.583 27.6601C322.583 27.6601 316.67 24.9382 317.069 30.5856C317.51 36.7927 322.685 35.826 323.584 35.5632L322.583 27.6601Z" fill="#FD9676"/>
<path d="M325.527 38.3023C325.527 40.6426 323.627 42.5421 321.286 42.5421C318.945 42.5421 317.044 40.6426 317.044 38.3023C317.044 36.3095 318.427 34.6306 320.285 34.1812C320.285 34.1896 320.293 34.1896 320.293 34.1981C320.573 34.3168 320.607 34.5543 320.59 34.8086C318.953 35.1309 317.715 36.5724 317.715 38.3023C317.715 40.2611 319.309 41.8637 321.277 41.8637C323.237 41.8637 324.84 40.2611 324.84 38.3023C324.84 37.4119 324.518 36.6063 323.975 35.9788C323.831 35.8177 323.678 35.6651 323.517 35.5379C323.703 35.4192 323.882 35.2665 324.043 35.097C324.196 35.2241 324.34 35.3683 324.467 35.5209C325.137 36.2671 325.527 37.2423 325.527 38.3023Z" fill="white"/>
<path d="M321.023 33.3502C321.031 33.3502 321.048 33.3502 321.056 33.3502C321.243 33.3332 321.379 33.1636 321.362 32.9771C321.073 30.2212 319.258 29.0171 319.182 28.9662C319.021 28.8644 318.817 28.9068 318.715 29.0679C318.613 29.2206 318.656 29.4326 318.817 29.5343C318.885 29.5767 320.437 30.6367 320.7 33.0534C320.709 33.223 320.853 33.3502 321.023 33.3502Z" fill="#FD7764"/>
<path d="M318.979 31.9001C319.072 31.9001 319.174 31.8577 319.242 31.7813C319.251 31.7644 319.768 31.1708 320.353 31.2556C320.54 31.281 320.71 31.1539 320.735 30.9673C320.76 30.7808 320.633 30.6112 320.447 30.5857C319.48 30.45 318.75 31.315 318.716 31.3489C318.597 31.493 318.614 31.705 318.759 31.8237C318.826 31.8746 318.903 31.9001 318.979 31.9001Z" fill="#FD7764"/>
<path d="M328.971 47.6301C333.84 48.9529 339.821 47.3757 343.536 41.3297C344.147 40.3461 344.809 39.1419 345.258 37.675C345.318 37.4715 345.386 37.2595 345.436 37.0475C347.243 30.4673 346.972 20.6478 346.972 20.6478C343.816 13.9828 334.858 14.2966 329.667 14.3729C324.475 14.4492 319.02 16.2045 319.3 26.4055C319.58 36.7507 324.5 46.4175 328.971 47.6301Z" fill="#FDBB92"/>
<path d="M327.182 30.2889C327.19 31.2555 326.757 32.0442 326.214 32.0526C325.672 32.0611 325.222 31.2725 325.222 30.3058C325.222 29.9242 325.281 29.5681 325.4 29.2798C324.433 29.3307 324.102 28.7286 324.102 28.7286C324.73 28.8134 325.57 28.6693 325.96 28.5929C326.104 28.5675 326.189 28.5421 326.189 28.5421C326.732 28.5336 327.182 29.3137 327.182 30.2889Z" fill="#181818"/>
<path d="M326.189 28.5337C326.189 28.5337 326.105 28.5506 325.96 28.5846C326.037 28.5506 326.113 28.5337 326.189 28.5337Z" fill="#181818"/>
<path d="M320.564 34.4103C320.555 35.0039 321.768 35.4957 323.253 35.5042C324.746 35.5127 325.959 35.0463 325.959 34.4527C325.967 33.8591 324.754 33.3673 323.27 33.3588C321.785 33.3419 320.572 33.8167 320.564 34.4103Z" fill="#FD9676"/>
<path d="M336.929 34.5286C336.921 35.1222 338.134 35.614 339.618 35.6225C341.111 35.631 342.324 35.1646 342.324 34.571C342.333 33.9775 341.12 33.4856 339.635 33.4772C338.151 33.4687 336.937 33.9351 336.929 34.5286Z" fill="#FD9676"/>
<path d="M345.284 29.9922C345.292 29.1781 345.75 28.4319 346.471 28.0504C348.27 27.1091 350.543 26.7699 351.298 29.0764C352.698 33.3586 348.27 38.1496 345.241 36.9794L345.284 29.9922Z" fill="#FDBB92"/>
<path d="M343.637 36.4623C343.688 36.5301 343.739 36.5895 343.798 36.6488C343.96 36.8269 344.121 36.9796 344.29 37.1152C344.604 37.3611 344.935 37.5392 345.257 37.6749C345.317 37.4714 345.385 37.2594 345.436 37.0474C345.207 36.9541 344.969 36.8354 344.748 36.6743C344.562 36.5556 344.384 36.4029 344.222 36.2333C344.155 36.1655 344.095 36.0892 344.027 36.0129C343.926 35.8857 343.756 35.8857 343.646 36.0129C343.544 36.1316 343.535 36.3436 343.637 36.4623Z" fill="#FD9676"/>
<path d="M347.056 34.4099C347.226 34.4099 347.37 34.2827 347.395 34.1131C347.735 31.4166 349.652 30.2379 349.669 30.2209C349.83 30.1277 349.881 29.9157 349.787 29.7546C349.694 29.5934 349.482 29.5426 349.321 29.6358C349.228 29.6867 347.098 30.9841 346.717 34.0198C346.691 34.2064 346.827 34.376 347.014 34.4014C347.022 34.4099 347.039 34.4099 347.056 34.4099Z" fill="#FD9676"/>
<path d="M349.474 32.85C349.551 32.85 349.635 32.8245 349.695 32.7652C349.839 32.6465 349.856 32.426 349.729 32.2903C349.695 32.2479 348.872 31.3067 347.769 31.4254C347.583 31.4423 347.447 31.6119 347.472 31.7985C347.489 31.985 347.659 32.1207 347.846 32.0953C348.584 32.0105 349.203 32.7143 349.211 32.7228C349.288 32.8076 349.381 32.85 349.474 32.85Z" fill="#FD9676"/>
<path d="M342.747 39.4385C342.747 41.7789 344.648 43.6783 346.989 43.6783C349.33 43.6783 351.23 41.7789 351.23 39.4385C351.23 37.4458 349.848 35.7668 347.99 35.3174C347.99 35.3259 347.981 35.3259 347.981 35.3343C347.702 35.4531 347.668 35.6905 347.685 35.9449C349.322 36.2671 350.56 37.7086 350.56 39.4385C350.56 41.3973 348.966 42.9999 346.997 42.9999C345.038 42.9999 343.435 41.3973 343.435 39.4385C343.435 38.5481 343.757 37.7426 344.3 37.1151C344.444 36.954 344.597 36.8013 344.758 36.6741C344.571 36.5554 344.393 36.4028 344.232 36.2332C344.079 36.3604 343.935 36.5045 343.808 36.6572C343.146 37.3949 342.747 38.3701 342.747 39.4385Z" fill="white"/>
<path d="M330.532 36.1823C330.642 36.1823 330.752 36.1314 330.812 36.0297C330.913 35.877 330.871 35.6651 330.718 35.5633C329.946 35.046 329.225 34.4185 329.115 34.1896C329.37 33.4603 330.549 30.0515 330.549 30.0515L329.904 29.8311C329.904 29.8311 328.665 33.4179 328.453 34.0285C328.394 34.1981 328.216 34.7153 330.337 36.1399C330.405 36.1653 330.464 36.1823 330.532 36.1823Z" fill="#FD9676"/>
<path d="M335.766 30.2889C335.758 31.2555 336.191 32.0442 336.733 32.0526C337.276 32.0611 337.726 31.2725 337.726 30.3058C337.726 29.9242 337.667 29.5681 337.548 29.2798C338.515 29.3307 338.846 28.7286 338.846 28.7286C338.218 28.8134 337.378 28.6693 336.988 28.5929C336.844 28.5675 336.759 28.5421 336.759 28.5421C336.224 28.5336 335.775 29.3137 335.766 30.2889Z" fill="#181818"/>
<path d="M336.767 28.5337C336.767 28.5337 336.852 28.5506 336.996 28.5846C336.92 28.5506 336.843 28.5337 336.767 28.5337Z" fill="#181818"/>
<path d="M325.756 38.8618C326.205 39.9896 326.96 41.1768 328.233 41.889C328.351 41.9569 328.479 42.0162 328.614 42.0756C329.361 42.4063 330.252 42.5929 331.346 42.5335C332.245 42.4911 333.009 42.1604 333.645 41.6771C333.772 41.5838 333.891 41.482 334.01 41.3718C334.782 40.6765 335.358 39.7691 335.766 38.9297L325.756 38.8618Z" fill="white"/>
<path d="M330.863 44.3652C331.965 44.3652 332.669 43.9751 332.703 43.9582C332.865 43.8649 332.924 43.6614 332.831 43.5003C332.737 43.3392 332.534 43.2798 332.373 43.3731C332.364 43.3816 331.728 43.7208 330.761 43.6953C329.777 43.6699 329.158 43.3476 329.158 43.3476C328.996 43.2629 328.784 43.3222 328.699 43.4833C328.615 43.6444 328.674 43.8564 328.835 43.9412C328.869 43.9582 329.59 44.3398 330.744 44.3737C330.778 44.3652 330.82 44.3652 330.863 44.3652Z" fill="#FD9676"/>
<path d="M322.439 26.7616C322.872 26.6514 323.339 26.592 323.797 26.5751C324.255 26.5581 324.704 26.5835 325.145 26.6514C325.587 26.7192 326.002 26.8379 326.392 27.0075C326.791 27.1602 327.139 27.3976 327.461 27.635L327.495 27.6605C327.852 27.9148 328.352 27.8385 328.607 27.4739C328.861 27.1178 328.785 26.6175 328.42 26.3631C328.377 26.3376 328.335 26.3037 328.284 26.2868C327.784 26.0578 327.275 25.8543 326.749 25.761C326.223 25.6593 325.697 25.6084 325.188 25.6423C324.67 25.6593 324.17 25.7356 323.686 25.8543C323.194 25.9815 322.736 26.1341 322.27 26.3546C322.159 26.4055 322.117 26.5411 322.168 26.6429C322.21 26.7362 322.321 26.7871 322.422 26.7616H322.439Z" fill="#181818"/>
<path d="M340.899 26.6003C340.39 26.3289 339.864 26.1339 339.321 25.9728C338.778 25.8202 338.21 25.7184 337.624 25.6675C337.047 25.6167 336.454 25.6421 335.86 25.7438C335.266 25.8286 334.689 26.0322 334.112 26.2696C333.705 26.4392 333.51 26.9056 333.68 27.3126C333.849 27.7196 334.316 27.9146 334.723 27.745C334.766 27.7281 334.799 27.7111 334.842 27.6857L334.884 27.6602C335.283 27.4059 335.707 27.1599 336.174 27.0073C336.632 26.8462 337.124 26.7275 337.633 26.6851C338.142 26.6342 338.659 26.6342 339.177 26.6851C339.694 26.736 340.229 26.8377 340.712 26.9988L340.729 27.0073C340.848 27.0412 340.967 26.9819 341.001 26.8632C341.043 26.7614 340.992 26.6512 340.899 26.6003Z" fill="#181818"/>
<path d="M342.747 19.2401C342.747 19.2401 335.256 26.804 320.776 24.2177C312.989 22.827 321.607 11.6254 333.373 12.6854C345.131 13.7368 342.747 19.2401 342.747 19.2401Z" fill="#181818"/>
<path d="M346.538 16.781C346.538 16.781 350.339 24.0904 356.37 17.6374C362.401 11.1759 351.933 -0.576859 344.502 0.0251956C337.071 0.62725 338.853 12.6175 338.853 12.6175L346.538 16.781Z" fill="#181818"/>
<path d="M352.231 21.4449C354.046 21.4449 356.184 20.8004 357.829 18.3668C361.715 12.6345 355.412 6.37655 355.344 6.30872C355.217 6.18152 355.005 6.18152 354.886 6.3172C354.759 6.44439 354.759 6.65638 354.894 6.7751C354.954 6.83446 360.866 12.7193 357.295 17.9937C354.105 22.6999 349.016 20.1136 348.804 20.0033C348.642 19.9186 348.447 19.9779 348.362 20.139C348.278 20.3001 348.337 20.4952 348.498 20.58C348.524 20.6054 350.169 21.4449 352.231 21.4449Z" fill="#181818"/>
<path d="M336.556 35.3256C339.101 35.3849 341.213 33.3668 341.272 30.8229C341.332 28.279 339.313 26.1676 336.768 26.1082C334.223 26.0489 332.111 28.067 332.051 30.6109C331.992 33.1548 334.011 35.2662 336.556 35.3256ZM336.751 26.829C338.897 26.8799 340.602 28.6691 340.551 30.8144C340.5 32.9598 338.71 34.6642 336.564 34.6133C334.418 34.5624 332.713 32.7732 332.764 30.6279C332.815 28.4825 334.605 26.7781 336.751 26.829Z" fill="white"/>
<path d="M341.052 29.551C341.069 29.5425 343.062 28.2451 345.811 28.3893L346.303 27.7194C343.206 27.6007 340.738 28.932 340.662 28.9913L341.052 29.551Z" fill="white"/>
<path d="M323.942 35.0375C326.487 35.0969 328.599 33.0787 328.659 30.5348C328.718 27.9909 326.699 25.8795 324.154 25.8201C321.61 25.7608 319.497 27.7789 319.438 30.3228C319.387 32.8582 321.406 34.9781 323.942 35.0375ZM324.146 26.5324C326.292 26.5833 327.997 28.3725 327.946 30.5178C327.895 32.6632 326.105 34.3676 323.959 34.3167C321.813 34.2659 320.108 32.4766 320.159 30.3313C320.21 28.1859 322 26.4815 324.146 26.5324Z" fill="white"/>
<path d="M328.438 29.4918C328.447 29.4833 329.329 28.347 330.449 28.3724C331.56 28.3979 332.307 29.5681 332.315 29.5766L332.926 29.195C332.883 29.1356 331.976 27.6856 330.466 27.6432C328.973 27.6093 327.904 28.9915 327.861 29.0508L328.438 29.4918Z" fill="white"/>
<path d="M338.845 18.6891C338.845 18.6891 344.011 31.5358 340.89 40.8125C337.768 50.0892 334.163 57.3139 340.89 59.0438C347.617 60.7736 351.443 59.6119 357.219 63.0631C362.996 66.5058 354.573 28.7545 349.95 17.8157C345.241 6.6141 330.871 7.42815 330.871 7.42815L338.845 18.6891Z" fill="#181818"/>
<path d="M358.17 62.9103C358.263 62.9103 358.348 62.8764 358.416 62.8001C358.526 62.6729 361.105 59.6117 360.562 52.2853C360.019 45.0437 351.884 22.7338 351.536 21.7925C351.476 21.6229 351.29 21.5381 351.12 21.5975C350.95 21.6569 350.866 21.8434 350.925 22.013C351.01 22.242 359.383 45.1794 359.909 52.3277C360.434 59.3828 357.949 62.3422 357.924 62.3676C357.805 62.5033 357.822 62.7068 357.957 62.8255C358.017 62.8849 358.093 62.9103 358.17 62.9103Z" fill="#181818"/>
<path d="M60.8578 326C27.2475 326 0.00088501 322.883 0.00088501 319.038C0.00088501 315.193 27.2475 312.076 60.8578 312.076C94.4682 312.076 121.715 315.193 121.715 319.038C121.715 322.883 94.4682 326 60.8578 326Z" fill="#D1D9DD"/>
<path d="M58.5921 137.031C58.5921 137.031 59.2877 139.905 58.4648 142.602C57.642 145.307 60.2208 145.841 60.4244 142.712C60.6025 140.058 58.5921 137.031 58.5921 137.031Z" fill="#FD9676"/>
<path d="M59.8818 121.377C59.8818 121.377 61.027 119.529 63.5125 120.801C65.998 122.073 67.771 125.838 66.8294 126.881C65.8878 127.915 63.9706 124.142 62.6133 124.693C61.2645 125.244 63.6907 133.13 64.1912 135.377C64.7002 137.624 64.9801 146.519 62.9187 145.731C60.8574 144.942 61.3324 142.839 59.5679 139.151C57.7611 135.377 55.8694 132.011 54.8853 129.857C53.1887 126.1 59.8818 121.377 59.8818 121.377Z" fill="#FDBB92"/>
<path d="M55.1995 128.941C55.1995 128.941 41.5928 122.904 37.3767 119.715L44.8842 112.033L59.8821 121.377C59.8821 121.377 61.689 129.755 55.1995 128.941Z" fill="#FDBB92"/>
<path d="M57.9732 135.089C57.9732 135.089 59.9328 140.49 59.6698 143.051C59.3814 145.824 61.324 147.427 62.0536 142.95C62.7831 138.464 57.9732 135.089 57.9732 135.089Z" fill="#FDBB92"/>
<path d="M61.223 64.1568C60.1033 63.453 59.7724 59.0181 56.2774 60.7989C55.0729 61.4179 51.9172 64.4281 51.2131 65.5814L27.1299 104.825C24.9583 108.446 25.832 113.118 29.1658 115.713L40.4736 125.973C44.2061 121.335 47.9472 116.688 51.6797 112.05L46.0215 107.632L45.3683 107.123L45.3004 107.064L45.6143 106.547L45.8773 106.106L64.2005 76.4692C66.5673 72.5092 65.1337 66.6159 61.223 64.1568Z" fill="#D1D9DD"/>
<path d="M49.7869 109.192L37.9108 124.608L41.1004 127.246L53.2734 112.533L49.7869 109.192Z" fill="#738D9A"/>
<path d="M46.0195 107.641L37.5281 108.667H37.5196C37.2142 108.701 36.9343 108.48 36.9003 108.175C36.8664 107.861 37.0869 107.581 37.3923 107.547L44.2466 106.716L45.6039 106.555L45.29 107.072L45.3579 107.132L46.0195 107.641Z" fill="#738D9A"/>
<path d="M45.6049 106.555L45.291 107.072L45.3589 107.132L44.2391 106.716L39.5311 104.978C39.2342 104.868 39.09 104.545 39.1918 104.249C39.3021 103.952 39.6244 103.808 39.9213 103.918L45.8594 106.106L45.6049 106.555Z" fill="#738D9A"/>
<path d="M58.0925 85.9665C58.2452 86.4414 58.3895 86.9078 58.5421 87.3742C60.2727 92.9114 61.7233 98.1094 61.5621 101.544C61.0955 111.066 59.102 132.13 59.102 132.13C73.7352 141.178 101.305 130.256 101.305 130.256C98.6752 120.063 97.9371 112.279 99.4556 100.899C99.8034 98.2705 100.592 95.1754 101.508 91.9023C101.627 91.4698 101.754 91.0458 101.873 90.6049C104.876 79.9799 108.736 67.8625 103.163 63.5124C97.8099 59.3405 93.2885 56.6015 89.7341 54.9904C88.2835 54.329 87.3843 53.9644 87.3843 53.9644L75.05 54.5155C75.05 54.5155 74.0745 54.6088 72.556 54.8378C67.6868 55.584 56.7098 58.9928 54.1225 62.8425C51.637 66.5397 55.1065 76.5457 58.0925 85.9665Z" fill="#D1D9DD"/>
<path d="M95.5023 84.2709L97.8945 87.3151L98.8531 88.5277L101.508 91.9025C101.627 91.4701 101.754 91.0461 101.873 90.6052L99.5911 87.6966C99.5742 87.6797 99.5657 87.6627 99.5487 87.6458L96.3591 83.5925C96.1725 83.3551 95.8332 83.3127 95.5957 83.4992C95.3581 83.6943 95.3157 84.0334 95.5023 84.2709Z" fill="#738D9A"/>
<path d="M99.1332 88.5617C99.4047 88.5617 99.6422 88.3582 99.6761 88.0784C99.7101 87.7816 99.498 87.5102 99.2011 87.4763L94.6118 86.9166C94.3149 86.8827 94.0434 87.0947 94.0095 87.3915C93.9756 87.6883 94.1876 87.9596 94.4845 88.002L99.0738 88.5617C99.0908 88.5532 99.1162 88.5617 99.1332 88.5617Z" fill="#738D9A"/>
<path d="M58.092 85.9668C58.2447 86.4416 58.3889 86.908 58.5416 87.3744L59.339 85.9922L60.2806 84.3641L62.0026 81.3793C62.1553 81.1164 62.062 80.7857 61.799 80.6331C61.5361 80.4805 61.2052 80.5737 61.0525 80.8366L58.092 85.9668Z" fill="#738D9A"/>
<path d="M58.9571 86.1108C59.0334 86.1108 59.1098 86.0938 59.1861 86.0599L62.749 84.4233C63.0204 84.2961 63.1392 83.9739 63.0204 83.7025C62.8932 83.4312 62.5708 83.3125 62.2994 83.4312L58.7365 85.0678C58.4651 85.195 58.3463 85.5172 58.4651 85.7885C58.5499 85.9921 58.745 86.1108 58.9571 86.1108Z" fill="#738D9A"/>
<path d="M78.7138 83.1091C78.161 83.1091 77.7128 82.6611 77.7128 82.1085C77.7128 81.5559 78.161 81.1079 78.7138 81.1079C79.2667 81.1079 79.7148 81.5559 79.7148 82.1085C79.7148 82.6611 79.2667 83.1091 78.7138 83.1091Z" fill="#738D9A"/>
<path d="M78.8506 90.9699C78.2978 90.9699 77.8496 90.522 77.8496 89.9693C77.8496 89.4167 78.2978 88.9688 78.8506 88.9688C79.4034 88.9688 79.8516 89.4167 79.8516 89.9693C79.8516 90.522 79.4034 90.9699 78.8506 90.9699Z" fill="#738D9A"/>
<path d="M78.9853 98.8303C78.4325 98.8303 77.9843 98.3823 77.9843 97.8297C77.9843 97.2771 78.4325 96.8291 78.9853 96.8291C79.5382 96.8291 79.9863 97.2771 79.9863 97.8297C79.9863 98.3823 79.5382 98.8303 78.9853 98.8303Z" fill="#738D9A"/>
<path d="M79.122 106.682C78.5692 106.682 78.1211 106.234 78.1211 105.682C78.1211 105.129 78.5692 104.681 79.122 104.681C79.6749 104.681 80.123 105.129 80.123 105.682C80.123 106.234 79.6749 106.682 79.122 106.682Z" fill="#738D9A"/>
<path d="M79.2666 114.543C78.7138 114.543 78.2656 114.095 78.2656 113.543C78.2656 112.99 78.7138 112.542 79.2666 112.542C79.8194 112.542 80.2676 112.99 80.2676 113.543C80.2676 114.095 79.8194 114.543 79.2666 114.543Z" fill="#738D9A"/>
<path d="M79.4014 122.404C78.8485 122.404 78.4004 121.956 78.4004 121.403C78.4004 120.851 78.8485 120.403 79.4014 120.403C79.9542 120.403 80.4023 120.851 80.4023 121.403C80.4023 121.956 79.9542 122.404 79.4014 122.404Z" fill="#738D9A"/>
<path d="M89.7253 54.9902C92.1684 55.5923 94.3571 56.8303 96.2148 58.204L90.0053 65.1997H86.1031L87.9778 69.058L78.7144 78.1566L78.7993 68.8375L89.7253 54.9902Z" fill="#738D9A"/>
<path d="M72.5554 54.8377C69.5354 54.8208 67.2111 55.4398 64.2081 56.7457L67.4401 65.1999H71.3423L69.4675 69.0581L78.731 78.1568L78.7988 68.8376C75.745 63.2495 73.3697 58.3059 72.5554 54.8377Z" fill="#738D9A"/>
<path d="M72.5551 54.8378C72.6229 55.6348 72.8689 56.593 73.2167 57.6276C74.837 62.4101 78.7985 68.8377 78.7985 68.8377L87.3663 57.9837V57.9752C87.3748 57.9668 87.3748 57.9667 87.3748 57.9667L89.7246 54.9904C88.274 54.3205 87.3748 53.9644 87.3748 53.9644L75.0491 54.5155C75.0491 54.5155 74.0735 54.6003 72.5551 54.8378Z" fill="#FDBB92"/>
<path d="M73.2176 57.6274C74.8378 62.41 78.7994 68.8375 78.7994 68.8375L87.3672 57.9836V57.9751C87.0279 58.1277 78.6636 61.9436 73.2176 57.6274Z" fill="white"/>
<path d="M89.2001 41.7281C89.2001 44.0431 91.0833 45.934 93.4077 45.934C95.7235 45.934 97.6152 44.0515 97.6152 41.7281C97.6152 39.7524 96.241 38.0904 94.4002 37.6494C94.4002 37.6579 94.3917 37.6579 94.3917 37.6664C94.1117 37.7851 94.0863 38.0225 94.0948 38.2684C95.7151 38.5907 96.9451 40.0152 96.9451 41.7281C96.9451 43.67 95.3588 45.2557 93.4161 45.2557C91.4735 45.2557 89.8872 43.67 89.8872 41.7281C89.8872 40.8462 90.2096 40.0407 90.744 39.4301C90.8797 39.269 91.0324 39.1249 91.2021 38.9892C91.024 38.8705 90.8458 38.7263 90.6761 38.5483C90.5234 38.6754 90.3792 38.8196 90.252 38.9638C89.5903 39.71 89.2001 40.6766 89.2001 41.7281Z" fill="white"/>
<path d="M84.5759 10.7945C84.5759 10.7945 87.528 18.9774 95.9431 20.5292C96.8932 20.7072 97.7415 20.6648 98.488 20.4613C104.299 18.8417 103.561 6.75821 94.7131 4.07017C88.0964 2.06049 85.7975 5.67282 85.0001 8.33543C84.5929 9.69217 84.5759 10.7945 84.5759 10.7945Z" fill="#181818"/>
<path d="M84.5762 10.7945C84.5762 10.7945 87.5283 18.9774 95.9434 20.5292C96.8935 20.7073 97.7418 20.6649 98.4883 20.4613C97.2243 16.6964 93.7208 9.58196 85.0088 8.33545C84.5932 9.69219 84.5762 10.7945 84.5762 10.7945Z" fill="#00C2C4"/>
<path d="M65.3961 29.4073C65.3961 29.4073 61.6975 15.6958 73.1411 11.21C84.5846 6.72429 94.5522 12.889 96.3421 20.2917C98.1405 27.686 93.1101 31.629 93.1101 31.629L65.3961 29.4073Z" fill="#181818"/>
<path d="M74.4308 56.9921C78.3245 58.8406 83.3719 59.1968 87.5625 56.9751L87.325 53.1084L86.9093 46.3501L76.1444 47.7832L74.7192 47.7323L74.7277 48.2156L74.6174 51.4548L74.4308 56.9921Z" fill="#FDBB92"/>
<path d="M74.6179 51.4461C77.6039 53.3625 84.0086 53.6508 87.3254 53.1081C87.3339 53.1081 87.3424 53.1081 87.3594 53.0996L86.9098 46.3413L76.1448 47.7744L74.7197 47.7235L74.7282 48.2068L74.6179 51.4461Z" fill="#EBA77C"/>
<path d="M67.4919 30.0517C67.4919 30.0517 61.6301 27.3552 62.0203 32.9518C62.453 39.108 67.5852 38.1413 68.4844 37.8869L67.4919 30.0517Z" fill="#FD9676"/>
<path d="M64.1155 36.5812C64.1155 36.8611 64.3445 37.0985 64.6329 37.0985C64.9214 37.0985 65.1504 36.8695 65.1504 36.5812C65.1504 36.2929 64.9214 36.064 64.6329 36.064C64.3445 36.064 64.1155 36.2929 64.1155 36.5812Z" fill="white"/>
<path d="M65.9473 35.6907C65.9558 35.6907 65.9728 35.6907 65.9813 35.6907C66.1679 35.6738 66.3036 35.5042 66.2782 35.3176C65.9898 32.5872 64.1914 31.3916 64.115 31.3407C63.9623 31.2389 63.7502 31.2813 63.6485 31.4424C63.5467 31.5951 63.5891 31.8071 63.7502 31.9088C63.8181 31.9512 65.362 32.9942 65.6165 35.394C65.6335 35.5636 65.7777 35.6907 65.9473 35.6907Z" fill="#FD7764"/>
<path d="M63.9199 34.2574C64.0132 34.2574 64.115 34.215 64.1743 34.1387C64.1828 34.1218 64.6918 33.5367 65.2772 33.6215C65.4638 33.6469 65.6334 33.5197 65.6589 33.3332C65.6843 33.1466 65.5571 32.977 65.3705 32.9516C64.4119 32.8159 63.6908 33.6723 63.6569 33.7063C63.5381 33.8504 63.5551 34.0624 63.6993 34.1811C63.7672 34.232 63.8435 34.2574 63.9199 34.2574Z" fill="#FD7764"/>
<path d="M70.418 22.6999C70.418 22.6999 65.4046 24.6587 66.3377 30.2129C67.2708 35.7671 70.7743 46.409 66.694 50.793C66.694 50.793 67.3217 45.171 65.3367 37.4376C64.5478 34.3764 64.3696 31.841 64.2254 27.1772C64.0558 21.6909 66.2698 16.3741 71.3257 16.62C76.3816 16.8659 70.418 22.6999 70.418 22.6999Z" fill="#181818"/>
<path d="M75.533 49.8519C80.3598 51.1578 86.2894 49.5975 89.9795 43.6024C90.5818 42.6272 91.235 41.4316 91.6846 39.9731C91.744 39.7696 91.8034 39.5661 91.8628 39.3541C93.6612 32.8248 93.3897 23.0986 93.3897 23.0986C90.268 16.493 81.3778 16.7982 76.2371 16.8746C71.0964 16.9509 65.6842 18.6977 65.9557 28.8054C66.2272 39.0658 71.1049 48.6478 75.533 49.8519Z" fill="#FDBB92"/>
<path d="M73.7596 32.655C73.7681 33.6132 73.3355 34.4018 72.8011 34.4018C72.2666 34.4103 71.817 33.6302 71.817 32.6635C71.817 32.2819 71.8764 31.9342 71.9952 31.6459C71.0366 31.6968 70.7142 31.0948 70.7142 31.0948C71.3335 31.1795 72.1648 31.0354 72.555 30.9591C72.6908 30.9336 72.7756 30.9082 72.7756 30.9082C73.3185 30.9167 73.7596 31.6968 73.7596 32.655Z" fill="#181818"/>
<path d="M72.7754 30.9253C72.7754 30.9253 72.6906 30.9422 72.5548 30.9762C72.6227 30.9422 72.699 30.9253 72.7754 30.9253Z" fill="#181818"/>
<path d="M67.2019 36.751C67.1934 37.3361 68.3895 37.8279 69.8741 37.8364C71.3501 37.8448 72.5547 37.3785 72.5547 36.7934C72.5547 36.2083 71.3671 35.7164 69.8825 35.708C68.4065 35.691 67.2104 36.1574 67.2019 36.751Z" fill="#FD9676"/>
<path d="M83.4304 36.8696C83.422 37.4547 84.618 37.9465 86.1026 37.955C87.5786 37.9635 88.7832 37.4971 88.7832 36.912C88.7916 36.3269 87.5956 35.8351 86.111 35.8266C84.635 35.8097 83.4304 36.276 83.4304 36.8696Z" fill="#FD9676"/>
<path d="M91.7007 32.3667C91.7092 31.5526 92.1588 30.8149 92.8798 30.4418C94.6613 29.509 96.9178 29.1698 97.6643 31.4593C99.0555 35.6992 94.6698 40.4562 91.6583 39.2945L91.7007 32.3667Z" fill="#FDBB92"/>
<path d="M93.838 38.5057C93.5522 38.5057 93.3206 38.2741 93.3206 37.9885C93.3206 37.7028 93.5522 37.4712 93.838 37.4712C94.1238 37.4712 94.3555 37.7028 94.3555 37.9885C94.3555 38.2741 94.1238 38.5057 93.838 38.5057Z" fill="white"/>
<path d="M90.0714 38.7857C90.1223 38.8536 90.1732 38.9129 90.2326 38.9723C90.3853 39.1503 90.555 39.303 90.7246 39.4302C91.0385 39.6761 91.3608 39.8542 91.6832 39.9813C91.7425 39.7778 91.8104 39.5743 91.8613 39.3539C91.6323 39.2606 91.4032 39.1419 91.1827 38.9892C91.0045 38.8705 90.8264 38.7264 90.6567 38.5483C90.5889 38.4805 90.5295 38.4041 90.4701 38.3278C90.3683 38.2006 90.1987 38.2006 90.0969 38.3278C89.9781 38.455 89.9696 38.6585 90.0714 38.7857Z" fill="#FD9676"/>
<path d="M93.4642 36.7508C93.6339 36.7508 93.7781 36.6236 93.7951 36.454C94.1259 33.7829 96.0346 32.6127 96.0515 32.5958C96.2127 32.5025 96.2636 32.2905 96.1703 32.1379C96.077 31.9767 95.8734 31.9259 95.7122 32.0191C95.6189 32.07 93.5066 33.3589 93.1334 36.3692C93.1079 36.5558 93.2437 36.7254 93.4218 36.7423C93.4303 36.7508 93.4472 36.7508 93.4642 36.7508Z" fill="#FD9676"/>
<path d="M95.8664 35.199C95.9427 35.199 96.019 35.1736 96.0869 35.1142C96.2311 34.9955 96.2396 34.7835 96.1208 34.6393C96.0869 34.5969 95.2725 33.6642 94.1782 33.7829C93.9916 33.7999 93.8644 33.9694 93.8813 34.156C93.8983 34.3425 94.0679 34.4697 94.2546 34.4528C94.9841 34.368 95.6034 35.0718 95.6119 35.0803C95.6797 35.1566 95.773 35.199 95.8664 35.199Z" fill="#FD9676"/>
<path d="M77.0864 38.5061C77.1967 38.5061 77.2985 38.4552 77.3664 38.3535C77.4682 38.2009 77.4258 37.9889 77.2731 37.8871C76.5096 37.3783 75.7885 36.7593 75.6868 36.5219C75.9412 35.7926 77.1034 32.4177 77.1034 32.4177L76.4672 32.1973C76.4672 32.1973 75.2372 35.7587 75.0336 36.3523C74.9742 36.5219 74.796 37.0307 76.8998 38.4468C76.9507 38.4892 77.0186 38.5061 77.0864 38.5061Z" fill="#FD9676"/>
<path d="M82.2769 32.655C82.2684 33.6132 82.701 34.4018 83.2355 34.4018C83.7699 34.4103 84.2195 33.6302 84.2195 32.6635C84.2195 32.2819 84.1601 31.9342 84.0414 31.6459C84.9999 31.6968 85.3223 31.0948 85.3223 31.0948C84.703 31.1795 83.8717 31.0354 83.4815 30.9591C83.3458 30.9336 83.2609 30.9082 83.2609 30.9082C82.7265 30.9167 82.2854 31.6968 82.2769 32.655Z" fill="#181818"/>
<path d="M83.2618 30.9253C83.2618 30.9253 83.3467 30.9422 83.4824 30.9762C83.4146 30.9422 83.3382 30.9253 83.2618 30.9253Z" fill="#181818"/>
<path d="M72.3438 41.1602C72.7849 42.2795 73.5398 43.4581 74.8038 44.162C74.9226 44.2298 75.0498 44.2891 75.1771 44.3485C75.9151 44.6792 76.8058 44.8573 77.8832 44.8064C78.7739 44.764 79.5289 44.4333 80.1651 43.95C80.2923 43.8567 80.4111 43.7549 80.5298 43.6532C81.2933 42.9663 81.8617 42.0675 82.2773 41.2365L72.3438 41.1602Z" fill="white"/>
<path d="M77.4069 46.6212C78.4928 46.6212 79.1968 46.2312 79.2308 46.2142C79.3919 46.1209 79.4513 45.9174 79.358 45.7563C79.2647 45.5952 79.0611 45.5358 78.8999 45.6291C78.8915 45.6376 78.2637 45.9683 77.3051 45.9429C76.3296 45.9174 75.7188 45.5952 75.7103 45.5952C75.5492 45.5104 75.3456 45.5698 75.2523 45.7309C75.1674 45.892 75.2268 46.0955 75.388 46.1888C75.4219 46.2057 76.1345 46.5873 77.2797 46.6128C77.3221 46.6212 77.3645 46.6212 77.4069 46.6212Z" fill="#FD9676"/>
<path d="M69.0869 29.3733C69.5111 29.2377 69.9691 29.1444 70.4187 29.0935C70.8683 29.0426 71.3179 29.0426 71.7506 29.085C72.1917 29.119 72.6073 29.2122 73.006 29.3564C73.4047 29.4836 73.7695 29.6956 74.1088 29.9076L74.1428 29.933C74.516 30.1619 74.9995 30.0517 75.2286 29.6786C75.4576 29.3055 75.3474 28.8222 74.9741 28.5932C74.9317 28.5678 74.8808 28.5423 74.8384 28.5254C74.3294 28.3303 73.8119 28.1692 73.286 28.1099C72.76 28.042 72.2426 28.0336 71.7336 28.0929C71.2246 28.1523 70.7326 28.254 70.2576 28.4067C69.7825 28.5593 69.3329 28.7458 68.8918 29.0002C68.79 29.0596 68.7476 29.1953 68.807 29.297C68.8579 29.3903 68.9681 29.4242 69.0615 29.3988L69.0869 29.3733Z" fill="#181818"/>
<path d="M87.3658 28.9666C86.8569 28.7038 86.3394 28.5172 85.7965 28.3646C85.2536 28.2204 84.6937 28.1187 84.1169 28.0847C83.54 28.0423 82.9547 28.0763 82.3694 28.178C81.7756 28.2628 81.2072 28.4748 80.6473 28.7122C80.2486 28.8818 80.062 29.3482 80.2316 29.7468C80.4013 30.1453 80.8679 30.3319 81.2666 30.1623C81.309 30.1453 81.3429 30.1283 81.3768 30.1029L81.4193 30.0775C81.8095 29.8231 82.2252 29.5687 82.6917 29.4161C83.1498 29.2465 83.6333 29.1277 84.1338 29.0853C84.6343 29.026 85.1518 29.026 85.6692 29.0684C86.1782 29.1193 86.7127 29.2125 87.1962 29.3567L87.2132 29.3652C87.3319 29.3991 87.4507 29.3397 87.4846 29.221C87.5016 29.1277 87.4592 29.0175 87.3658 28.9666Z" fill="#181818"/>
<path d="M89.1988 21.7076C89.1988 21.7076 81.7677 29.2036 67.4145 26.6428C59.6949 25.2606 68.2373 14.1607 79.9015 15.2122C91.5571 16.2552 89.1988 21.7076 89.1988 21.7076Z" fill="#181818"/>
<path d="M84.5764 19.6898C84.5764 19.6898 91.0405 24.4045 90.1583 29.9671C89.276 35.5298 85.8743 46.2056 89.9971 50.5472C89.9971 50.5472 88.1732 44.8065 90.5315 37.1663C91.6428 33.5625 93.3224 31.4595 94.2131 26.8805C95.1039 22.293 91.5325 16.5438 86.4766 16.8406C81.4292 17.1544 84.5764 19.6898 84.5764 19.6898Z" fill="#181818"/>
<path d="M81.1836 287.723C81.1836 287.723 77.3917 289.266 77.256 294.591C77.1118 299.916 77.256 313.662 77.256 313.662H79.1901L80.242 308.812C80.242 308.812 80.9122 314.077 83.5758 317.444C86.2395 320.81 91.9909 320.946 95.7828 320.386C99.5747 319.827 96.7669 312.814 95.223 308.888C93.6791 304.962 90.4555 295.566 90.4555 295.566L81.1836 287.723Z" fill="#E04E39"/>
<path d="M82.1854 280.1C82.1854 280.1 82.3042 286.595 81.1844 287.723C80.0647 288.851 78.5208 292.488 79.6405 296.974C80.7603 301.46 81.5068 308.006 84.128 310.813C86.7493 313.62 93.5781 313.713 94.138 311.466C94.6979 309.219 90.6769 300.9 90.4903 296.601C90.3037 292.302 89.5572 280.71 89.5572 280.71L82.1854 280.1Z" fill="#FDBB92"/>
<path d="M81.2517 226.966C80.0301 231.121 79.5975 248.64 79.6145 259.096C79.6229 263.251 81.9049 279.04 81.8455 285.857L89.8958 286.197C91.6603 272.816 96.2072 251.167 98.2685 239.508C98.3619 238.999 98.4467 238.507 98.523 238.032C98.8793 235.938 99.1423 234.25 99.2526 233.114C99.4477 231.206 99.6767 228.272 99.9397 224.66C99.9736 224.193 100.008 223.702 100.05 223.21C100.338 219.123 100.661 214.289 100.992 209.117C101.144 206.717 101.297 204.258 101.45 201.756C102.773 180.362 104.088 156.712 104.088 156.712L79.4702 158.9C79.4702 158.9 80.6663 183.941 81.2432 203.698C81.3026 205.648 81.3535 207.548 81.3959 209.363C81.6249 218.529 81.6504 225.635 81.2517 226.966Z" fill="#FDBB92"/>
<path d="M90.0991 240.025C91.0747 240.186 92.0333 240.262 92.9494 240.262C95.0617 240.262 96.8601 239.923 98.2768 239.508C98.3701 238.999 98.4549 238.507 98.5312 238.032C96.6565 238.609 93.5687 239.253 90.3197 238.694C89.9465 238.634 89.6071 238.872 89.5393 239.245C89.4714 239.618 89.7259 239.966 90.0991 240.025Z" fill="#FD9676"/>
<path d="M81.2525 203.698C81.3119 205.649 81.3628 207.548 81.4052 209.363C86.2575 209.821 94.2824 210.262 101.001 209.108C101.154 206.717 101.306 204.25 101.459 201.748L81.2525 203.698Z" fill="#FD9676"/>
<path d="M24.8313 308.159C26.6891 305.157 43.3666 289.173 43.3666 289.173C43.3666 289.173 46.7768 291.844 46.6072 294.786C46.446 297.585 46.5647 312.322 46.5308 313.874H44.5119L43.3751 307.15C43.3751 307.15 38.7689 314.519 35.3078 317.045C31.8467 319.572 20.1572 319.115 17.3493 318.741C14.5245 318.377 22.965 311.161 24.8313 308.159Z" fill="#E04E39"/>
<path d="M45.3594 281.88L43.1453 288.461C43.1453 288.461 44.0784 290.614 43.1453 293.786C42.2122 296.966 37.3429 301.918 35.2901 305.751C33.2287 309.583 26.1284 312.204 24.2537 311.356C22.3874 310.516 27.8081 304.063 29.3944 300.697C30.9807 297.33 32.2447 293.803 33.4153 291.157C34.4502 288.808 37.0545 281.439 37.0545 281.439L45.3594 281.88Z" fill="#FDBB92"/>
<path d="M35.4688 285.857C39.7697 286.603 39.5745 285.688 43.9009 286.196C47.6419 274.935 58.8649 252.142 60.9177 246.834C64.9217 236.506 65.4392 221.963 65.4392 221.963L69.2056 210.838L71.5554 203.91L86.8672 158.68L60.027 155.678L51.8579 199.492L50.6533 205.954L48.4138 217.952L48.1678 219.292L45.5805 232.843L45.326 234.191L35.4688 285.857Z" fill="#FDBB92"/>
<path d="M45.3345 234.191C46.1319 234.275 46.8699 234.309 47.5231 234.309C49.2791 234.309 50.4667 234.089 50.5685 234.072C50.9417 234.004 51.1793 233.648 51.1029 233.275C51.0435 232.902 50.6788 232.656 50.314 232.732C50.2801 232.741 48.2696 233.105 45.5805 232.851L45.3345 234.191Z" fill="#FD9676"/>
<path d="M50.6611 205.945C55.2758 207.463 63.4534 209.99 69.2049 210.829L71.5547 203.901L51.8657 199.483L50.6611 205.945Z" fill="#FD9676"/>
<path d="M41.381 203.376C41.381 203.376 48.1674 204.673 57.5666 205.903C58.0671 205.971 58.5761 206.03 59.0935 206.098C76.3055 208.277 101.118 210.024 110.093 203.673C110.093 203.673 116.863 161.698 103.163 130.01C102.984 129.594 102.806 129.187 102.62 128.78C101.738 126.822 100.762 124.914 99.7101 123.057C84.9157 127.525 71.5635 129.798 59.5771 126.728C59.5771 126.728 58.8645 129.671 57.7193 134.411C57.6175 134.826 57.5157 135.259 57.4054 135.708C52.7822 154.872 42.3057 198.432 41.381 203.376Z" fill="black"/>
<path d="M57.5751 205.903C58.0756 205.971 58.5846 206.03 59.102 206.098C64.8959 198.008 69.5191 184.704 72.8699 166.413C75.542 151.828 76.4837 138.719 76.6703 135.793C76.6957 135.412 76.7042 135.208 76.7042 135.191C76.7212 134.852 76.4837 134.564 76.1613 134.504C76.1613 134.504 76.1613 134.504 76.1528 134.504C76.1274 134.496 76.0934 134.496 76.068 134.496C75.9662 134.487 75.8644 134.513 75.7711 134.547C75.5505 134.648 75.3809 134.86 75.3639 135.123C75.3639 135.14 75.3469 135.429 75.313 135.937C75.1009 139.227 74.1423 152.006 71.5466 166.184C68.1958 184.483 63.4029 198.051 57.5751 205.903Z" fill="#464648"/>
<path d="M57.4049 135.708C60.4163 136.183 63.555 136.387 66.7107 136.387C69.5949 136.387 72.4961 136.217 75.3125 135.937C75.7621 135.895 76.2117 135.844 76.6613 135.793C80.8349 135.327 84.7964 134.64 88.2405 133.919C94.4331 132.622 99.7604 131.078 103.162 130.01C102.984 129.594 102.806 129.187 102.619 128.78C97.224 130.468 87.019 133.317 76.1608 134.504C76.1608 134.504 76.1608 134.504 76.1523 134.504L75.779 134.546C69.7137 135.191 63.4532 135.31 57.7272 134.411C57.6169 134.835 57.5152 135.267 57.4049 135.708Z" fill="#464648"/>
<path d="M70.9853 142.865C70.4325 142.865 69.9843 142.417 69.9843 141.864C69.9843 141.312 70.4325 140.864 70.9853 140.864C71.5382 140.864 71.9863 141.312 71.9863 141.864C71.9863 142.417 71.5382 142.865 70.9853 142.865Z" fill="#464648"/>
<path d="M69.8916 151.785C69.3387 151.785 68.8906 151.337 68.8906 150.785C68.8906 150.232 69.3387 149.784 69.8916 149.784C70.4444 149.784 70.8926 150.232 70.8926 150.785C70.8926 151.337 70.4444 151.785 69.8916 151.785Z" fill="#464648"/>
<path d="M68.4658 160.426C67.913 160.426 67.4648 159.979 67.4648 159.426C67.4648 158.873 67.913 158.425 68.4658 158.425C69.0186 158.425 69.4668 158.873 69.4668 159.426C69.4668 159.979 69.0186 160.426 68.4658 160.426Z" fill="#464648"/>
<path d="M65.6914 167.846C65.6914 168.397 66.141 168.846 66.6924 168.846C67.2438 168.846 67.6934 168.397 67.6934 167.846C67.6934 167.295 67.2438 166.845 66.6924 166.845C66.141 166.845 65.6914 167.295 65.6914 167.846Z" fill="#464648"/>
<path d="M64.5556 177.114C64.0028 177.114 63.5547 176.667 63.5547 176.114C63.5547 175.561 64.0028 175.113 64.5556 175.113C65.1085 175.113 65.5566 175.561 65.5566 176.114C65.5566 176.667 65.1085 177.114 64.5556 177.114Z" fill="#464648"/>
<path d="M61.0351 184.271C61.0351 184.822 61.4847 185.272 62.0361 185.272C62.5875 185.272 63.0371 184.822 63.0371 184.271C63.0371 183.72 62.5875 183.271 62.0361 183.271C61.4762 183.271 61.0351 183.72 61.0351 184.271Z" fill="#464648"/>
<path d="M59.1084 193.378C58.5555 193.378 58.1074 192.93 58.1074 192.378C58.1074 191.825 58.5555 191.377 59.1084 191.377C59.6612 191.377 60.1094 191.825 60.1094 192.378C60.1094 192.93 59.6612 193.378 59.1084 193.378Z" fill="#464648"/>
<path d="M55.7666 201.502C55.2137 201.502 54.7656 201.054 54.7656 200.501C54.7656 199.948 55.2137 199.5 55.7666 199.5C56.3194 199.5 56.7676 199.948 56.7676 200.501C56.7676 201.054 56.3194 201.502 55.7666 201.502Z" fill="#464648"/>
<path d="M107.523 137.794C107.523 137.794 107.659 140.745 109.203 143.111C110.747 145.477 108.422 146.715 107.345 143.764C106.446 141.271 107.523 137.794 107.523 137.794Z" fill="#FD9676"/>
<path d="M101.908 123.133C101.908 123.133 100.288 121.674 98.2607 123.591C96.2248 125.507 95.5801 129.62 96.7762 130.349C97.9723 131.078 98.7612 126.923 100.212 127.067C101.662 127.211 101.544 135.471 101.688 137.769C101.832 140.067 104.046 148.682 105.802 147.351C107.558 146.019 106.515 144.128 107.176 140.092C107.855 135.962 108.729 132.206 109.068 129.866C109.653 125.787 101.908 123.133 101.908 123.133Z" fill="#FDBB92"/>
<path d="M105.139 130.078C105.139 130.078 118.381 123.277 122.402 119.86L114.471 112.618L100.033 122.802C100.033 122.802 98.7009 131.256 105.139 130.078Z" fill="#FDBB92"/>
<path d="M107.582 135.759C107.582 135.759 107.209 141.492 108.184 143.874C109.236 146.461 107.828 148.538 105.868 144.442C103.9 140.347 107.582 135.759 107.582 135.759Z" fill="#FDBB92"/>
<path d="M95.4255 65.7428C96.5028 64.9796 98.8526 62.4442 102.449 64.0299C103.688 64.5726 103.959 64.3775 104.731 65.4884L131.784 104.41C134.159 107.904 133.548 112.618 130.375 115.4L119.67 126.287C115.674 121.87 111.679 117.443 107.683 113.025L113.079 108.294L113.706 107.742L113.774 107.683L113.435 107.183L113.146 106.759L93.1605 78.2163C90.5732 74.3835 91.6675 68.4223 95.4255 65.7428Z" fill="#D1D9DD"/>
<path d="M109.414 110.058L122.146 124.778L119.118 127.585L106.122 113.594L109.414 110.058Z" fill="#738D9A"/>
<path d="M113.088 108.293L121.621 108.836H121.63C121.935 108.853 122.207 108.616 122.224 108.31C122.241 107.997 122.003 107.734 121.698 107.708L114.81 107.267L113.444 107.183L113.783 107.683L113.715 107.742L113.088 108.293Z" fill="#738D9A"/>
<path d="M113.443 107.183L113.783 107.683L113.715 107.743L114.809 107.268L119.407 105.258C119.695 105.131 119.823 104.8 119.704 104.512C119.577 104.224 119.246 104.096 118.957 104.224L113.155 106.751L113.443 107.183Z" fill="#738D9A"/>
<path d="M193.566 325.389C167.55 325.389 146.46 322.272 146.46 318.428C146.46 314.583 167.55 311.466 193.566 311.466C219.582 311.466 240.672 314.583 240.672 318.428C240.672 322.272 219.582 325.389 193.566 325.389Z" fill="#D1D9DD"/>
<path d="M224.451 229.171C224.408 229.629 224.349 230.062 224.29 230.452C224.213 230.926 224.137 231.351 224.044 231.715C221.253 242.857 208.545 283.5 208.545 283.5C208.545 283.5 205.373 282.788 202.251 282.084C201.903 282.008 201.547 281.932 201.191 281.855C200.444 281.686 199.706 281.516 199.061 281.372C199.061 281.372 201.326 260.436 201.14 254.059C200.86 244.528 202.344 228.535 203.956 225.355L197.602 176.123C196.754 176.063 195.795 175.978 194.837 175.868L187.838 227.238C187.838 227.238 189.552 244.918 187.923 255.06C185.981 267.118 184.462 296.457 184.462 296.457L182.638 296.406L181.561 296.381L174.825 296.194L169.634 239.703L169.566 231.936L169.557 230.647L168.913 153.295C168.913 153.295 215.154 149.089 221.507 152.863C221.524 152.837 226.215 212.814 224.451 229.171Z" fill="#181818"/>
<path d="M224.451 229.171C224.409 229.629 224.349 230.062 224.29 230.452C223.527 230.443 222.822 230.384 222.203 230.308C220.566 230.113 219.472 229.773 219.378 229.748C219.039 229.638 218.861 229.282 218.971 228.942C219.073 228.603 219.438 228.417 219.769 228.527C219.802 228.527 221.771 229.137 224.451 229.171Z" fill="#464648"/>
<path d="M174.553 231.207C174.451 231.232 173.366 231.571 171.72 231.775C171.084 231.851 170.363 231.902 169.582 231.91L169.574 230.621C172.212 230.588 174.129 229.994 174.163 229.977C174.494 229.875 174.859 230.062 174.96 230.393C175.071 230.74 174.884 231.096 174.553 231.207Z" fill="#464648"/>
<path d="M206.603 225.373C206.62 225.474 206.612 225.576 206.586 225.669C206.154 227.518 203.295 241.908 203.295 251.252C203.295 256.238 201.649 276.361 201.191 281.839C201.539 281.915 201.895 282 202.252 282.076C202.693 276.759 204.372 256.391 204.372 251.252C204.372 242.001 207.206 227.738 207.63 225.907C207.681 225.686 207.689 225.449 207.664 225.22L201.056 175.343C201.013 175.046 200.742 174.842 200.453 174.876C200.156 174.919 199.953 175.19 199.987 175.478L206.603 225.373Z" fill="#464648"/>
<path d="M181.579 296.364L182.656 296.398C182.766 293.777 184.081 263.709 185.54 255.008C187.339 244.341 185.379 227.611 185.226 226.347L192.819 175.503C192.861 175.207 192.657 174.935 192.361 174.893C192.064 174.85 191.792 175.054 191.75 175.342L184.149 226.254C184.141 226.305 184.141 226.347 184.149 226.398C184.174 226.576 186.304 243.943 184.48 254.813C183.004 263.607 181.689 293.845 181.579 296.364Z" fill="#464648"/>
<path d="M197.551 292.625C201.267 296.856 202.836 297.865 205.355 294.668L206.187 289.614L206.764 286.121L199.485 284.221L198.824 287.104L197.551 292.625Z" fill="#FDBB92"/>
<path d="M198.824 287.113L206.187 289.623L206.764 286.121L199.485 284.23L198.824 287.113Z" fill="#181818"/>
<path d="M197.536 280.007C196.552 282.381 196.501 283.416 196.781 285.374C196.781 285.374 202.091 287.418 209.115 287.978L210.006 282.457C210.006 282.457 205.459 281.406 197.536 280.007Z" fill="#464648"/>
<path d="M195.372 297.806C195.321 298.06 195.202 298.314 195.219 298.577C195.279 299.79 203.134 310.652 207.341 316.546C209.691 319.827 214.925 319.471 217.275 317.182C218.361 316.139 218.929 314.604 218.539 312.662C218.234 311.093 216.69 309.533 216.028 307.981C215.01 305.607 210.76 297.517 210.76 297.517C210.76 297.517 211.405 292.896 207.231 291.514C203.058 290.132 201.285 292.981 201.285 292.981C199.138 292.93 198.706 289.987 198.451 288.665C198.46 288.673 196.56 292.158 195.372 297.806Z" fill="#E04E39"/>
<path d="M195.372 297.806C195.321 298.06 195.16 298.323 195.22 298.577C195.593 300.299 203.592 311.254 207.342 316.546C209.675 319.836 214.926 319.471 217.275 317.182C215.511 318.242 212.27 318.869 209.072 316.173C205.705 313.34 197.985 301.206 195.372 297.806Z" fill="#CF422E"/>
<path d="M206.034 302.97C205.865 302.944 205.712 302.851 205.61 302.699C205.415 302.402 205.491 302.012 205.78 301.808C205.882 301.74 208.206 300.189 210.31 300.172C213.109 300.146 214.229 302.283 214.28 302.376C214.441 302.69 214.314 303.08 214 303.241C213.686 303.402 213.296 303.275 213.134 302.961C213.101 302.902 212.312 301.444 210.318 301.461C208.605 301.469 206.509 302.86 206.492 302.877C206.357 302.97 206.187 302.995 206.034 302.97Z" fill="white"/>
<path d="M205.128 300.511C204.958 300.485 204.806 300.392 204.704 300.239C204.509 299.943 204.585 299.544 204.873 299.349C204.975 299.281 207.3 297.729 209.403 297.713C212.211 297.696 213.323 299.824 213.373 299.917C213.535 300.231 213.407 300.621 213.093 300.782C212.78 300.943 212.389 300.816 212.228 300.502C212.194 300.443 211.405 298.984 209.412 299.001C207.69 299.01 205.611 300.401 205.586 300.418C205.45 300.502 205.281 300.536 205.128 300.511Z" fill="white"/>
<path d="M207.706 305.429C207.536 305.403 207.384 305.31 207.282 305.158C207.087 304.861 207.163 304.462 207.452 304.267C207.553 304.199 209.878 302.648 211.981 302.631C214.789 302.605 215.901 304.742 215.952 304.835C216.113 305.149 215.985 305.539 215.672 305.7C215.358 305.861 214.968 305.734 214.806 305.42C214.772 305.361 213.983 303.903 211.99 303.92C210.268 303.928 208.19 305.319 208.164 305.336C208.028 305.429 207.859 305.454 207.706 305.429Z" fill="white"/>
<path d="M174.834 299.883L174.843 300.926L174.877 307.871H183.275L183.547 303.139L183.699 300.451L174.834 299.883Z" fill="#FDBB92"/>
<path d="M174.834 299.883L174.843 300.926L183.547 303.139L183.699 300.451L174.834 299.883Z" fill="#181818"/>
<path d="M186.498 319.564C187.024 319.216 187.261 318.419 187.287 317.41C187.329 315.706 186.786 313.399 186.074 311.653C185.768 309.601 184.81 305.573 183.486 304.292L183.342 307.472C182.265 306.472 180.534 305.496 177.947 305.564C176.827 305.598 175.852 306.115 174.851 306.684L174.868 303.512C174.868 303.512 173.213 306.039 172.603 308.134C170.321 310.321 168.624 313.527 167.971 316.232C167.878 316.596 167.81 316.961 167.767 317.309C167.097 321.905 184.598 320.811 186.498 319.564Z" fill="#E04E39"/>
<path d="M186.498 319.564C187.024 319.217 187.262 318.42 187.287 317.41C185.302 318.148 181.578 319.242 177.515 319.056C170.559 318.742 168.803 317.368 167.963 316.215C167.87 316.579 167.802 316.944 167.759 317.292C167.098 321.905 184.598 320.811 186.498 319.564Z" fill="#CF422E"/>
<path d="M173.85 310.389C173.663 310.355 173.485 310.254 173.366 310.084C173.146 309.753 173.231 309.295 173.561 309.075C173.672 308.999 176.31 307.235 178.702 307.209C181.883 307.175 183.156 309.601 183.215 309.702C183.402 310.058 183.257 310.499 182.901 310.677C182.545 310.864 182.104 310.72 181.926 310.364C181.892 310.296 180.984 308.642 178.719 308.668C176.759 308.685 174.401 310.262 174.376 310.279C174.223 310.381 174.028 310.415 173.85 310.389Z" fill="white"/>
<path d="M174.231 307.837C174.044 307.803 173.866 307.701 173.747 307.532C173.527 307.201 173.611 306.743 173.942 306.523C174.053 306.446 176.691 304.683 179.083 304.657C182.264 304.623 183.537 307.048 183.596 307.15C183.783 307.506 183.638 307.947 183.282 308.125C182.926 308.312 182.485 308.168 182.306 307.812C182.273 307.744 181.365 306.09 179.1 306.116C177.14 306.133 174.782 307.71 174.757 307.727C174.595 307.837 174.409 307.871 174.231 307.837Z" fill="white"/>
<path d="M185.922 295.507L185.727 300.689L172.621 300.129L172.315 294.922L185.922 295.507Z" fill="#464648"/>
<path d="M225.41 155.186C225.571 154.584 225.665 153.957 225.673 153.312C225.707 150.955 225.614 148.199 225.241 145.468C225.122 144.612 225.003 143.722 224.884 142.806C224.74 141.678 224.587 140.516 224.435 139.321C224.324 138.447 224.214 137.557 224.104 136.65C223.968 135.488 223.832 134.309 223.697 133.114C223.595 132.232 223.502 131.333 223.408 130.434C222.899 125.541 222.484 120.547 222.28 115.993C222.238 115.01 222.195 114.043 222.161 113.085C222.11 111.796 222.068 110.541 222.034 109.311C222.009 108.319 221.983 107.344 221.966 106.403C221.958 106.106 221.958 105.818 221.949 105.529C221.932 104.529 221.932 103.562 221.932 102.629C221.932 101.959 221.941 101.306 221.949 100.679C221.949 100.628 221.949 100.577 221.949 100.526C221.958 100.255 221.958 99.9921 221.966 99.7208C222.339 82.7954 225.41 67.9984 221.703 62.9361C218.514 58.5775 200.377 51.2681 200.377 51.2681L187.576 51.6666C187.576 51.6666 166.25 63.2837 165.698 67.6847C165.206 71.6023 167.607 88.5276 168.634 99.7208C168.71 100.552 168.778 101.357 168.837 102.121C168.854 102.29 168.863 102.46 168.88 102.629C168.905 102.943 168.922 103.24 168.947 103.537C168.964 103.766 168.973 103.995 168.99 104.223C169.024 104.91 169.049 105.64 169.066 106.403C169.083 107.327 169.083 108.294 169.066 109.311C169.049 110.515 169.015 111.779 168.964 113.085C168.93 114.034 168.88 115.001 168.82 115.993C168.549 120.521 167.963 125.652 167.259 130.756C167.132 131.655 167.013 132.545 166.878 133.436C166.708 134.631 166.53 135.819 166.352 136.997C166.216 137.905 166.072 138.795 165.936 139.677C165.749 140.881 165.554 142.051 165.376 143.196C165.223 144.112 165.079 145.002 164.943 145.867C164.528 148.411 164.367 150.887 164.341 153.032C164.333 153.779 164.435 154.499 164.621 155.178C185.684 156.899 206.01 157.043 225.41 155.186Z" fill="white"/>
<path d="M214.217 156.705H181.541V152.227H214.217V156.705Z" fill="#464648"/>
<path d="M205.915 152.015H206.713V156.899H205.915V152.015Z" fill="#E0E0E0"/>
<path d="M186.406 152.015H187.203V156.899H186.406V152.015Z" fill="#E0E0E0"/>
<path d="M192.437 158.637H200.971C202.125 158.637 203.066 157.696 203.066 156.543V152.693C203.066 151.54 202.125 150.599 200.971 150.599H192.437C191.284 150.599 190.342 151.54 190.342 152.693V156.543C190.342 157.696 191.284 158.637 192.437 158.637ZM200.963 152.345C201.158 152.345 201.31 152.498 201.31 152.693V156.543C201.31 156.738 201.158 156.891 200.963 156.891H192.429C192.234 156.891 192.081 156.738 192.081 156.543V152.693C192.081 152.498 192.234 152.345 192.429 152.345H200.963Z" fill="#E0E0E0"/>
<path d="M196.696 155.491H202.185C202.668 155.491 203.059 155.101 203.059 154.618C203.059 154.135 202.668 153.745 202.185 153.745H196.696C196.213 153.745 195.823 154.135 195.823 154.618C195.831 155.101 196.221 155.491 196.696 155.491Z" fill="#E0E0E0"/>
<path d="M195.245 134.114C194.692 134.114 194.244 133.666 194.244 133.114C194.244 132.561 194.692 132.113 195.245 132.113C195.798 132.113 196.246 132.561 196.246 133.114C196.246 133.666 195.798 134.114 195.245 134.114Z" fill="#E0E0E0"/>
<path d="M195.245 143.357C194.692 143.357 194.244 142.909 194.244 142.357C194.244 141.804 194.692 141.356 195.245 141.356C195.798 141.356 196.246 141.804 196.246 142.357C196.246 142.909 195.798 143.357 195.245 143.357Z" fill="#E0E0E0"/>
<path d="M201.701 117.596L195.899 128.153L189.155 117.596L193.566 68.3716L193.736 66.5146L196.662 66.4722L196.874 68.6006L201.701 117.596Z" fill="#E04E39"/>
<path d="M196.875 68.6006L195.424 71.7889L193.567 68.3716L193.736 66.5146L196.663 66.4722L196.875 68.6006Z" fill="#CF422E"/>
<path d="M195.211 58.5859L191.886 62.9445L195.254 69.4568L198.469 62.6477L195.211 58.5859Z" fill="#E04E39"/>
<path d="M187.916 68.575L195.228 59.1032L202.184 67.4896L206.519 60.672C206.612 60.5193 206.57 60.3158 206.417 60.2225C206.265 60.1293 206.061 60.1717 205.968 60.3243L202.116 66.3788L195.211 58.0518L187.967 67.4472L185.117 63.1141C185.015 62.9615 184.811 62.9191 184.667 63.0208C184.514 63.1226 184.472 63.3261 184.574 63.4703L187.916 68.575Z" fill="#E0E0E0"/>
<path d="M201.293 54.8719C197.162 56.9579 191.809 57.3565 187.355 54.855L187.61 50.4879L188.051 42.8647L199.478 44.4844L200.988 44.425L200.979 44.9677L201.089 48.6139L201.293 54.8719Z" fill="#FDBB92"/>
<path d="M187.61 50.4882L195.016 56.5851L201.293 50.2593C201.293 50.2593 206.129 54.0073 199.215 56.5851C195.101 58.1199 185.973 56.0594 185.973 56.0594C185.973 56.0594 185.031 50.8274 187.61 50.4882Z" fill="white"/>
<path d="M201.09 48.6141C197.926 50.7764 191.131 51.1071 187.61 50.4881C187.602 50.4881 187.585 50.4881 187.576 50.4796L188.051 42.8564L199.478 44.4761L200.988 44.4167L200.98 44.9594L201.09 48.6141Z" fill="#181818"/>
<path d="M206.263 28.229C206.263 28.229 212.006 25.0491 211.624 31.6463C211.2 38.9133 206.17 37.7771 205.296 37.4633L206.263 28.229Z" fill="#FD9676"/>
<path d="M207.638 34.8345C207.621 34.8345 207.613 34.8345 207.596 34.8345C207.392 34.8091 207.248 34.631 207.265 34.4275C207.579 31.4427 209.547 30.1283 209.632 30.0774C209.801 29.9672 210.031 30.0181 210.141 30.1877C210.251 30.3573 210.2 30.5862 210.031 30.6964C209.954 30.7473 208.266 31.8921 207.995 34.5123C207.986 34.6988 207.825 34.8345 207.638 34.8345Z" fill="#FD7764"/>
<path d="M209.86 33.2742C209.759 33.2742 209.648 33.2318 209.581 33.147C209.572 33.13 209.012 32.4856 208.367 32.5788C208.164 32.6043 207.977 32.4686 207.952 32.2651C207.926 32.0616 208.062 31.875 208.266 31.8496C209.309 31.7054 210.106 32.6382 210.14 32.6806C210.268 32.8332 210.251 33.0707 210.09 33.1979C210.022 33.2403 209.937 33.2742 209.86 33.2742Z" fill="#FD7764"/>
<path d="M198.187 49.9879C193.335 51.1411 187.473 48.5294 183.792 42.5512C183.249 41.6609 182.655 40.6009 182.222 39.3289C182.18 39.2018 182.137 39.0661 182.095 38.9389C182.036 38.7354 181.976 38.5319 181.917 38.3199C180.127 31.8075 180.398 22.0983 180.398 22.0983C183.512 15.5096 192.385 15.8149 197.517 15.8912C202.649 15.9675 207.179 17.8076 208.273 27.839C208.333 28.3902 208.375 28.9329 208.384 29.4841C208.681 39.0406 202.777 48.9025 198.187 49.9879Z" fill="#FDBB92"/>
<path d="M183.223 31.9513C183.223 31.9513 183.223 29.9501 181.679 28.5933C180.042 27.1518 177.369 27.1518 176.572 29.7466C175.087 34.563 179.779 39.956 182.994 38.6417L183.223 31.9513Z" fill="#FDBB92"/>
<path d="M181.314 35.4623C181.136 35.4623 180.992 35.3351 180.967 35.157C180.619 32.3672 178.634 31.1461 178.617 31.1377C178.447 31.0359 178.396 30.8239 178.498 30.6543C178.6 30.4847 178.812 30.4339 178.982 30.5356C179.075 30.595 181.281 31.9348 181.671 35.0722C181.696 35.2673 181.56 35.4368 181.365 35.4623C181.348 35.4623 181.331 35.4623 181.314 35.4623Z" fill="#FD9676"/>
<path d="M178.812 33.8427C178.727 33.8427 178.651 33.8172 178.583 33.7579C178.439 33.6307 178.422 33.4102 178.549 33.266C178.583 33.2237 179.44 32.2485 180.576 32.3757C180.771 32.4011 180.907 32.5707 180.882 32.7658C180.856 32.9608 180.687 33.0965 180.491 33.071C179.728 32.9862 179.083 33.7155 179.075 33.7239C179.007 33.8087 178.914 33.8427 178.812 33.8427Z" fill="#FD9676"/>
<path d="M198.187 49.9875C193.335 51.1408 187.473 48.529 183.792 42.5509C183.249 41.6605 182.655 40.6006 182.222 39.3286C182.137 38.9979 182.112 38.8283 182.112 38.8283C182.112 38.8283 183.664 38.1584 183.359 36.0894C183.172 34.8005 182.553 31.7224 182.553 31.7224L183.766 31.9089C183.766 31.9089 184.691 36.3268 187.1 40.1936C189.645 36.6406 196.431 37.6327 196.431 37.6327C201.343 36.5727 204.643 38.4722 205.873 39.371C207.417 36.2844 207.968 32.6043 208.028 29.5177L208.375 29.4668C208.681 39.0403 202.777 48.9021 198.187 49.9875Z" fill="#181818"/>
<path d="M195.676 10.905C183.58 9.49736 178.278 17.8753 177.599 22.2508C176.929 26.6178 178.337 27.7371 178.337 27.7371C182.333 28.178 182.553 31.731 182.553 31.731L183.766 31.926C183.766 31.926 183.367 27.5505 184.979 26.092C185.921 25.2356 185.191 23.0054 184.428 21.3095C184.063 20.4955 184.767 19.6051 185.641 19.7917C187.261 20.1308 189.781 20.5209 193.276 20.7159C198.425 21.0042 202.072 19.8849 203.574 19.3083C203.956 19.1642 204.38 19.4101 204.422 19.8171C204.872 23.4379 206.45 25.3373 208.027 29.5348L208.375 29.4839C208.375 29.4839 209.317 24.1672 207.765 20.0884C206.212 16.0013 202.938 11.753 195.676 10.905Z" fill="#181818"/>
<path d="M178.337 27.7371C177.208 27.7032 174.833 16.8407 176.284 15.8571C177.42 15.0939 178.447 15.8571 178.447 15.8571C178.447 15.8571 176.335 12.8892 177.811 12.5585C179.287 12.2278 180.381 13.0927 180.381 13.0927C180.381 13.0927 185.946 7.60641 192.41 7.55554C200.893 7.47922 204.956 1.45019 208.74 5.32539C212.523 9.20907 211.734 16.9764 207.009 18.3671C207.001 18.3671 185.411 15.9758 178.337 27.7371Z" fill="#181818"/>
<path d="M206.611 20.3006L206.441 19.4442C206.467 19.4357 209.063 18.8845 210.25 16.5441C211.251 14.5684 210.988 11.8888 209.47 8.59021L210.259 8.22559C211.896 11.787 212.15 14.721 211.014 16.9511C209.64 19.6646 206.73 20.2752 206.611 20.3006Z" fill="#181818"/>
<path d="M207.002 35.8268C207.01 36.4119 205.814 36.8952 204.338 36.9122C202.862 36.9207 201.666 36.4543 201.658 35.8692C201.649 35.2841 202.845 34.8008 204.321 34.7838C205.806 34.7753 207.002 35.2417 207.002 35.8268Z" fill="#FD9676"/>
<path d="M190.332 35.8268C190.34 36.4119 189.144 36.8952 187.668 36.9122C186.192 36.9207 184.996 36.4543 184.988 35.8692C184.979 35.2841 186.175 34.8008 187.651 34.7838C189.127 34.7753 190.324 35.2417 190.332 35.8268Z" fill="#FD9676"/>
<path d="M196.661 37.4717C196.525 37.4717 196.398 37.3869 196.347 37.2512C196.279 37.0816 196.372 36.8866 196.542 36.8188C197.077 36.6237 198.196 36.0132 198.069 35.5214C197.832 34.5886 196.313 30.4336 196.296 30.3912C196.237 30.2131 196.322 30.0266 196.5 29.9587C196.678 29.8994 196.864 29.9842 196.932 30.1623C196.992 30.3318 198.476 34.3936 198.731 35.3603C199.045 36.5813 197.017 37.37 196.788 37.4547C196.737 37.4632 196.703 37.4717 196.661 37.4717Z" fill="#FD9676"/>
<path d="M191.476 31.6293C191.485 32.5875 191.052 33.3676 190.518 33.3761C189.983 33.3761 189.542 32.6044 189.534 31.6462C189.525 30.688 189.958 29.9079 190.492 29.8994C191.035 29.8994 191.476 30.6711 191.476 31.6293Z" fill="#181818"/>
<path d="M202.26 31.6293C202.268 32.5875 201.836 33.3676 201.301 33.3761C200.767 33.3761 200.326 32.6044 200.317 31.6462C200.309 30.688 200.741 29.9079 201.276 29.8994C201.81 29.8994 202.251 30.6711 202.26 31.6293Z" fill="#181818"/>
<path d="M202.141 39.4053C201.657 40.6348 200.834 41.9152 199.452 42.6869C199.324 42.7632 199.18 42.831 199.044 42.8904C198.238 43.255 197.263 43.4501 196.084 43.3907C195.117 43.3398 194.285 42.9837 193.59 42.4579C193.454 42.3562 193.318 42.246 193.191 42.1272C192.36 41.3726 191.732 40.3889 191.282 39.4816L202.141 39.4053Z" fill="white"/>
<path d="M186.982 28.3902C186.753 28.3139 186.558 28.1358 186.482 27.8899C186.346 27.4829 186.566 27.0419 186.982 26.9063C187.109 26.8639 190.095 25.8972 193.098 27.2455C193.497 27.4235 193.667 27.8814 193.497 28.28C193.319 28.6785 192.861 28.8481 192.462 28.6785C190.028 27.5846 187.5 28.3902 187.474 28.3987C187.304 28.4496 187.135 28.4411 186.982 28.3902Z" fill="#181818"/>
<path d="M205.008 28.305C204.863 28.3644 204.702 28.3813 204.532 28.3474C204.482 28.3389 201.903 27.7962 199.595 29.1191C199.222 29.3311 198.739 29.2039 198.527 28.8308C198.314 28.4576 198.442 27.9743 198.815 27.7623C201.674 26.1257 204.745 26.7956 204.872 26.8211C205.296 26.9144 205.559 27.3383 205.466 27.7538C205.406 28.0167 205.237 28.2117 205.008 28.305Z" fill="#181818"/>
<path d="M210.013 72.4758L220.795 115.29C221.084 116.443 221.618 117.528 222.365 118.461L227.531 124.914L229.219 127.025L245.829 147.784C247.474 149.836 249.892 150.913 252.335 150.913C254.159 150.913 256 150.319 257.535 149.089C261.132 146.215 261.709 140.974 258.833 137.387L236.777 109.837L236.718 109.752L236.497 109.481L236.362 108.947L236.285 108.65L226.157 68.414C225.037 63.9538 220.507 61.2487 216.045 62.3765C211.6 63.4874 208.894 68.0155 210.013 72.4758Z" fill="#181818"/>
<path d="M231.001 113.628C231.111 113.763 231.272 113.84 231.442 113.84C231.569 113.84 231.688 113.797 231.798 113.712L235.191 110.982L236.727 109.744L236.506 109.473L236.37 108.938L236.294 108.642L231.085 112.831C230.848 113.026 230.814 113.382 231.001 113.628Z" fill="#464648"/>
<path d="M233.928 116.256C233.987 116.273 234.055 116.29 234.114 116.29C234.343 116.29 234.564 116.146 234.649 115.917L236.795 109.829L236.736 109.744L236.515 109.473L236.379 108.938C236.125 108.904 235.879 109.057 235.785 109.311L235.192 110.982L233.58 115.544C233.487 115.832 233.639 116.154 233.928 116.256Z" fill="#464648"/>
<path d="M266.391 145.494C263.922 146.113 262.803 145.765 263.863 147.775C264.016 148.072 264.33 148.462 264.72 148.911C261.386 151.387 257.933 153.694 254.71 156.288C252.725 153.558 250.892 150.37 250.112 147.393C250.197 145.765 253.616 141.034 258.866 141.966C263.736 142.823 265.025 142.127 268.478 143.23C271.472 144.18 268.859 144.883 266.391 145.494Z" fill="#FDBB92"/>
<path d="M257.314 156.526C257.331 156.526 257.339 156.526 257.356 156.526C257.585 156.5 263.048 155.788 264.66 151.039C264.719 150.861 264.626 150.675 264.448 150.616C264.27 150.556 264.083 150.649 264.024 150.827C262.548 155.178 257.331 155.856 257.28 155.856C257.093 155.881 256.966 156.042 256.983 156.229C257 156.399 257.144 156.526 257.314 156.526Z" fill="#FD9676"/>
<path d="M259.105 152.371C259.181 152.371 259.266 152.346 259.326 152.286C259.461 152.159 259.478 151.947 259.351 151.811C259.317 151.778 256.043 148.038 258.045 145.146C258.146 144.994 258.112 144.782 257.96 144.68C257.807 144.57 257.595 144.612 257.493 144.765C255.194 148.097 258.706 152.091 258.85 152.261C258.927 152.337 259.02 152.371 259.105 152.371Z" fill="#FD9676"/>
<path d="M229.643 148.106L246.27 168.677C246.923 169.483 248.094 169.602 248.9 168.957L279.515 144.231C280.321 143.578 280.439 142.408 279.795 141.602L263.168 121.03C262.515 120.225 261.344 120.106 260.538 120.751L229.923 145.477C229.117 146.122 228.99 147.3 229.643 148.106Z" fill="#738D9A"/>
<path d="M250.714 144.85C250.714 147.055 252.504 148.844 254.71 148.844C256.915 148.844 258.705 147.055 258.705 144.85C258.705 142.645 256.915 140.856 254.71 140.856C252.504 140.856 250.714 142.645 250.714 144.85Z" fill="#577888"/>
<path d="M259.782 124.871C259.782 125.507 260.3 126.025 260.936 126.025C261.572 126.025 262.09 125.507 262.09 124.871C262.09 124.236 261.572 123.718 260.936 123.718C260.3 123.718 259.782 124.236 259.782 124.871Z" fill="#577888"/>
<path d="M275.333 142.518C275.333 143.154 275.851 143.671 276.487 143.671C277.123 143.671 277.641 143.154 277.641 142.518C277.641 141.882 277.123 141.365 276.487 141.365C275.851 141.365 275.333 141.882 275.333 142.518Z" fill="#577888"/>
<path d="M270.753 154.779C271.44 153.957 271.38 152.736 270.719 151.879C269.192 149.92 265.977 146.13 264.161 146.461C261.718 146.91 268.666 155.305 268.666 155.305C268.666 155.305 269.82 155.89 270.753 154.779Z" fill="#FDBB92"/>
<path d="M262.736 160.113C263.296 159.443 263.245 158.451 262.702 157.756C261.463 156.162 258.842 153.075 257.366 153.346C255.381 153.711 261.031 160.546 261.031 160.546C261.031 160.546 261.981 161.02 262.736 160.113Z" fill="#FDBB92"/>
<path d="M266.001 158.239C266.341 157.56 266.23 156.738 265.772 156.136C264.271 154.177 260.589 149.683 258.553 150.064C256.466 150.446 260.81 156.263 262.608 158.561C263.49 159.689 265.289 159.604 265.95 158.332C265.967 158.298 265.984 158.273 266.001 158.239Z" fill="#FDBB92"/>
<path d="M267.799 156.348C268.715 155.483 268.724 154.025 267.952 153.033C266.323 150.947 262.913 146.927 260.987 147.283C258.391 147.767 265.78 156.696 265.78 156.696C265.78 156.696 266.849 157.239 267.799 156.348Z" fill="#FDBB92"/>
<path d="M186.108 101.849C186.346 117.375 184.666 146.978 184.776 162.708C178.007 162.241 166.623 161.105 162.543 158.29C156.011 153.787 165.02 116.875 166.241 109.676C167.463 102.477 162.763 71.8652 164.994 65.7853C167.225 59.7053 187.593 50.4795 187.593 50.4795C187.567 51.2087 188.891 55.9828 189.137 56.5764C188.458 66.1499 185.888 87.4847 186.108 101.849Z" fill="#181818"/>
<path d="M181.648 132.894C181.902 132.758 182.038 132.453 181.953 132.164C181.86 131.825 181.504 131.63 181.173 131.723C170.382 134.751 166.887 124.846 166.743 124.422C166.633 124.092 166.268 123.914 165.937 124.024C165.607 124.134 165.428 124.499 165.539 124.829C165.581 124.948 169.585 136.302 181.521 132.953C181.563 132.936 181.605 132.919 181.648 132.894Z" fill="#464648"/>
<path d="M187.62 50.2593C184.744 51.226 181.97 52.6421 179.315 54.6517L179.671 69.1265L183.802 70.6783L179.747 76.9871L180.876 110.575L185.923 118.054C185.923 118.054 187.679 90.4782 188.434 79.548C188.833 73.7733 189.146 56.5851 189.146 56.5851L187.62 50.2593Z" fill="#464648"/>
<path d="M228.269 158.29C224.24 161.063 214.561 162.216 207.724 162.691C207.172 152.804 205.756 127.136 205.289 117.333C204.772 106.395 202.43 64.1744 200.886 55.0673C201.2 54.1854 201.277 50.412 201.09 49.3774C201.09 49.3774 223.57 59.7141 225.809 65.794C228.049 71.8655 223.341 102.477 224.571 109.685C225.792 116.875 234.793 153.787 228.269 158.29Z" fill="#181818"/>
<path d="M209.157 134.369C209.199 134.394 209.241 134.411 209.292 134.428C221.075 138.295 225.563 127.119 225.614 127.009C225.741 126.678 225.588 126.313 225.249 126.186C224.918 126.059 224.553 126.22 224.426 126.551C224.265 126.966 220.312 136.709 209.691 133.224C209.36 133.114 208.995 133.3 208.885 133.631C208.792 133.911 208.911 134.216 209.157 134.369Z" fill="#464648"/>
<path d="M201.099 48.9194C204.357 50.0896 207.436 51.4464 209.905 53.4052L211.135 68.1174L207.232 70.3645L211.482 76.9871L210.354 110.575L205.307 118.054C205.307 118.054 203.551 90.4782 202.796 79.5479C202.397 73.7733 200.887 55.0587 200.887 55.0587L201.099 48.9194Z" fill="#464648"/>
<path d="M223.833 107.853C224.427 112 226.251 119.716 227.54 124.914L229.229 127.026C228.007 122.167 225.632 112.492 224.945 107.692C224.02 101.205 226.013 84.178 226.03 84.0084C226.073 83.7031 225.852 83.4233 225.538 83.3809C225.233 83.347 224.953 83.5674 224.911 83.8727C224.826 84.585 222.883 101.222 223.833 107.853Z" fill="#464648"/>
<path d="M224.58 93.8192C224.759 93.8192 224.937 93.7344 225.047 93.5733L227.787 89.5879C227.965 89.3335 227.897 88.9773 227.643 88.8077C227.388 88.6297 227.04 88.6975 226.862 88.9519L224.122 92.9373C223.944 93.1917 224.012 93.5394 224.267 93.7175C224.36 93.7853 224.479 93.8192 224.58 93.8192Z" fill="#464648"/>
<path d="M143.855 107.878L145.569 147.987C145.764 152.456 149.445 155.958 153.882 155.958C154.001 155.958 154.119 155.958 154.238 155.949C158.836 155.754 162.399 151.871 162.204 147.275L160.66 111.058L160.651 110.855L160.6 109.769L160.583 109.439L160.728 109.167L178.678 75.3758C180.841 71.3141 179.288 66.2772 175.225 64.1149C171.162 61.9525 166.123 63.5043 163.96 67.5661L144.797 103.622C144.126 104.927 143.796 106.394 143.855 107.878Z" fill="#181818"/>
<path d="M152.694 106.937L160.668 111.067L160.659 110.863L160.609 109.778L159.311 109.108L153.203 105.953C152.931 105.809 152.592 105.92 152.448 106.199C152.312 106.454 152.423 106.793 152.694 106.937Z" fill="#464648"/>
<path d="M156.418 105.021L159.32 109.091L160.439 110.668C160.499 110.753 160.575 110.812 160.66 110.855L160.609 109.769L160.592 109.439L160.736 109.167L157.326 104.376C157.148 104.122 156.792 104.063 156.546 104.241C156.291 104.419 156.232 104.766 156.418 105.021Z" fill="#464648"/>
<path d="M150.786 146.359C152.474 145.367 155.223 144.485 158.887 145.774C158.887 145.774 163.833 150.167 164.503 152.414C165.182 154.661 164.35 157.858 163.697 158.4C163.044 158.943 161.975 158.833 162.145 156.806C162.314 154.779 161.415 153.033 160.457 152.702C159.498 152.363 159.786 155.042 160.287 158.68C160.796 162.318 161.449 162.547 162.637 165.642C163.833 168.737 161.746 167.499 160.117 165.642C158.489 163.785 157.64 158.892 157.64 158.892C157.64 158.892 157.555 161.478 157.98 162.886C158.514 164.692 161.39 168.16 160.482 168.839C159.583 169.517 157.148 166.914 156.139 164.328C155.129 161.741 155.053 160.927 155.053 160.927C155.053 160.927 154.96 162.869 155.409 164.048C155.859 165.226 158.277 169.085 157.496 169.432C156.758 169.754 154.289 167.541 153.56 165.845C152.83 164.158 152.695 161.987 152.695 161.987C152.695 161.987 152.075 163.954 152.635 165.472C153.195 166.99 154.103 168.627 153.144 168.457C152.186 168.288 150.438 165.922 150.387 162.996C150.328 160.071 149.827 157.934 149.658 156.586C149.548 155.678 149.225 152.057 149.03 149.793C148.894 148.394 149.581 147.063 150.786 146.359Z" fill="#FDBB92"/>
</svg>
