<svg width="393" height="326" viewBox="0 0 393 326" fill="none" xmlns="http://www.w3.org/2000/svg">
<path d="M320.946 245.935C320.946 245.935 317.773 235.098 310.893 235.887C304.022 236.684 302.962 239.855 297.143 237.473C291.323 235.09 289.211 227.424 279.693 229.281C270.175 231.13 269.115 241.704 258.273 240.915C247.432 240.118 243.734 239.855 239.764 245.935H320.946Z" fill="white"/>
<path d="M292.052 19.9529C292.052 19.9529 287.701 10.337 275.825 13.2031C264.084 16.0353 259.028 -0.771342 248.569 0.305573C238.118 1.38249 241.859 11.0408 228.523 13.2031C215.188 15.3654 211.32 10.108 205.704 19.9529H292.052Z" fill="white"/>
<path d="M167.802 62.1394C167.802 62.1394 163.45 52.5235 151.574 55.3896C139.834 58.2218 134.778 41.4152 124.318 42.4921C113.867 43.569 117.608 53.2273 104.273 55.3896C90.9379 57.5519 87.0696 52.2946 81.4539 62.1394H167.802Z" fill="white"/>
<path d="M359.891 182.737C369.01 170.789 372.675 155.467 369.519 140.78C366.881 128.467 359.883 117.791 342.458 124.321C300.765 139.949 282.34 126.169 276.257 104.351C270.183 82.5331 262.006 31.2821 224.46 38.2608C186.923 45.2396 184.641 115.154 150.522 107.031C116.404 98.9073 83.4304 93.6753 61.4255 117.274C39.4121 140.865 23.9901 190.776 44.7225 217.147C65.4464 243.528 110.372 220.76 127.949 254.653C145.526 288.546 219.243 290.115 224.469 253.983C229.694 217.851 268.453 192.344 302.3 210.203C324.627 221.981 347.141 199.45 359.891 182.737Z" fill="white"/>
<path d="M310.231 326C273.543 326 243.801 322.883 243.801 319.038C243.801 315.193 273.543 312.076 310.231 312.076C346.92 312.076 376.662 315.193 376.662 319.038C376.662 322.883 346.92 326 310.231 326Z" fill="#D1D9DD"/>
<path d="M278.404 80.4378C278.421 80.5565 278.429 80.8278 278.548 81.15L287.133 110.668C288.142 114.136 291.264 116.561 294.869 116.688C294.971 116.688 295.073 116.697 295.174 116.697C298.661 116.697 301.8 114.526 303.021 111.236L304.455 107.378L305.609 104.266L317.273 72.8146C318.876 68.4815 316.67 63.665 312.336 62.0624C308.001 60.4512 303.182 62.6644 301.579 66.9975L296.846 79.7594L296.15 81.6334L296.133 81.6758L294.648 76.5795C294.156 74.8751 292.579 73.688 290.806 73.7473C288.727 73.8236 286.335 74.5783 284.316 75.4432C282.484 76.2234 278.039 77.4529 278.404 80.4378Z" fill="#E04E39"/>
<path d="M304.455 107.378L305.608 104.266C305.634 96.7026 304.769 88.384 304.718 87.8668C304.684 87.5615 304.412 87.3495 304.115 87.3834C303.818 87.4089 303.598 87.6802 303.632 87.977C303.649 88.1212 304.794 99.1701 304.455 107.378Z" fill="#CF422E"/>
<path d="M294.292 72.9502C294.292 72.9502 295.878 75.0786 295.624 77.0713C295.624 77.0713 281.347 81.6588 278.276 82.3202C278.276 82.3202 276.902 80.0307 277.275 78.0634C277.275 78.0719 285.631 73.1876 294.292 72.9502Z" fill="#CF422E"/>
<path d="M300.366 96.0746C300.315 96.0831 300.273 96.0916 300.23 96.0916C299.976 96.0916 299.747 95.922 299.679 95.6591L296.15 81.6338L296.846 79.7598L298.39 85.916L299.162 88.9856L300.773 95.3878C300.85 95.6845 300.663 95.9983 300.366 96.0746Z" fill="#CF422E"/>
<path d="M301.681 92.1568C301.503 92.1568 301.325 92.072 301.214 91.9194L297.397 86.4839C297.219 86.2295 297.278 85.8734 297.533 85.6953C297.787 85.5172 298.144 85.5766 298.322 85.831L302.139 91.2664C302.317 91.5208 302.258 91.877 302.003 92.055C301.91 92.1229 301.8 92.1568 301.681 92.1568Z" fill="#CF422E"/>
<path d="M281.228 77.4444L279.506 67.2603C279.506 67.2603 282.187 66.4039 286.844 65.9375C286.844 65.9375 288.643 70.0162 290.237 75.0446C287.277 76.342 283.086 77.6394 281.228 77.4444Z" fill="#FDBB92"/>
<path d="M275.587 59.9854C275.587 59.9854 278.505 59.6802 281.33 60.384C280.55 59.9769 279.879 59.5954 279.413 59.129C275.646 55.3555 271.897 54.5839 271.575 55.593C271.252 56.5936 275.587 59.9854 275.587 59.9854Z" fill="#FD9676"/>
<path d="M274.68 61.732C274.68 61.732 270.981 59.8411 269.564 57.3481C268.139 54.855 262.727 51.4632 264.203 50.0216C265.45 48.8091 272.313 56.5679 275.418 58.0434C278.692 59.6121 274.68 61.732 274.68 61.732Z" fill="#FD9676"/>
<path d="M277.216 59.8837C277.216 59.8837 271.125 58.3065 269.157 56.0594C267.181 53.8123 262.167 51.4465 262.193 50.3441C262.218 49.2418 266.086 50.5731 268.996 52.9813C271.914 55.398 277.216 59.8837 277.216 59.8837Z" fill="#FDBB92"/>
<path d="M282.196 68.7699C282.959 68.7445 283.629 68.6428 284.206 68.4816C284.885 68.2866 285.462 67.9559 285.911 67.5234C287.209 66.2854 287.523 64.2588 286.641 62.6561C286.641 62.6561 286.632 62.6476 286.632 62.6392C286.217 62.0202 285.606 61.4096 284.8 60.833C284.766 60.8076 284.723 60.7821 284.681 60.7482C284.528 60.6464 284.376 60.5447 284.223 60.4514C280.999 58.4672 276.232 58.5096 276.232 58.5096C276.232 58.5096 269.904 54.9142 267.198 53.337C264.492 51.7683 260.301 50.2334 260.666 51.6156C261.039 52.9978 267.232 56.9493 269.709 60.6549C272.211 64.3605 282.196 68.7699 282.196 68.7699Z" fill="#FDBB92"/>
<path d="M269.182 308.429C271.04 305.428 287.718 289.443 287.718 289.443C287.718 289.443 291.128 292.114 290.958 295.057C290.797 297.855 290.916 312.593 290.882 314.145H288.863L287.726 307.42C287.726 307.42 283.12 314.789 279.659 317.316C276.198 319.843 264.508 319.385 261.7 319.012C258.876 318.639 267.316 311.431 269.182 308.429Z" fill="#181818"/>
<path d="M289.711 282.151L287.497 288.731C287.497 288.731 288.43 290.885 287.497 294.056C286.564 297.236 281.695 302.188 279.642 306.021C277.581 309.854 270.48 312.474 268.606 311.626C266.731 310.787 272.16 304.334 273.746 300.967C275.333 297.601 276.596 294.073 277.767 291.428C278.802 289.079 281.406 281.71 281.406 281.71L289.711 282.151Z" fill="#FDBB92"/>
<path d="M334.875 287.994C334.875 287.994 331.091 289.537 330.947 294.863C330.803 300.188 330.947 313.933 330.947 313.933H332.881L333.933 309.083C333.933 309.083 334.603 314.349 337.267 317.715C339.931 321.082 345.682 321.217 349.474 320.658C353.266 320.098 350.458 313.085 348.914 309.159C347.37 305.233 344.147 295.838 344.147 295.838L334.875 287.994Z" fill="#181818"/>
<path d="M335.876 280.371C335.876 280.371 335.995 286.866 334.875 287.994C333.755 289.122 332.211 292.76 333.331 297.246C334.451 301.731 335.206 308.278 337.818 311.084C340.44 313.891 347.26 313.984 347.828 311.737C348.388 309.49 344.367 301.172 344.181 296.872C343.994 292.573 343.248 280.982 343.248 280.982L335.876 280.371Z" fill="#FDBB92"/>
<path d="M357.592 160.426C357.592 160.426 359.145 151.955 357.592 146.469L304.387 145.553C304.387 145.553 303.208 162.292 302.02 168.651C302.02 168.643 343.315 170.525 357.592 160.426Z" fill="#2A83EC"/>
<path d="M333.891 175.401C334.697 194.607 335.791 224.354 334.943 227.237C333.721 231.392 333.289 248.911 333.306 259.366C333.314 263.521 333.933 278.284 333.883 285.102L344.8 285.806C346.989 269.228 352.231 240.601 352.952 233.376C353.147 231.468 353.376 228.534 353.639 224.914C353.673 224.447 353.716 223.955 353.75 223.464C354.725 209.743 356.032 187.586 356.897 172.653C357.168 167.964 357.389 163.996 357.55 161.223C357.703 158.535 357.788 156.975 357.788 156.975L333.178 159.162C333.178 159.162 333.204 159.697 333.246 160.663C333.357 163.182 333.611 168.643 333.891 175.401Z" fill="#738D9A"/>
<path d="M333.246 160.672C333.365 163.182 333.611 168.643 333.899 175.401C341.008 175.435 348.787 174.697 356.897 172.662C357.168 167.973 357.389 164.004 357.55 161.232L333.246 160.672Z" fill="#577888"/>
<path d="M344.808 224.685C344.749 225.058 344.987 225.406 345.36 225.474C346.335 225.635 347.294 225.711 348.21 225.711C350.331 225.711 352.231 225.338 353.639 224.923C353.673 224.456 353.716 223.964 353.75 223.473C351.875 224.049 348.838 224.694 345.589 224.134C345.216 224.075 344.868 224.321 344.808 224.685Z" fill="#577888"/>
<path d="M336.461 281.719H335.333C335.859 239.736 338.344 228.212 338.573 227.186L336.749 167.125C336.741 166.811 336.987 166.548 337.301 166.54C337.615 166.523 337.878 166.777 337.886 167.091L339.71 227.229C339.71 227.28 339.71 227.33 339.693 227.373C339.659 227.492 336.995 239.075 336.461 281.719Z" fill="#577888"/>
<path d="M279.091 285.806C283.392 286.552 286.2 285.95 290.534 286.459C294.275 275.198 303.225 252.405 305.278 247.097C309.273 236.768 309.799 222.226 309.799 222.226L325.781 175.028L330.659 160.613L331.219 158.942L304.379 155.94L303.624 159.985L301.766 169.949L292.765 218.215L292.519 219.555L279.091 285.806Z" fill="#738D9A"/>
<path d="M301.774 169.949C306.83 171.713 315.279 174.112 325.781 175.028L330.659 160.613L303.632 159.985L301.774 169.949Z" fill="#577888"/>
<path d="M292.222 282.847L291.417 287.858L277.971 287.095L278.361 281.753L292.222 282.847Z" fill="#577888"/>
<path d="M292.536 219.555C293.571 219.699 294.521 219.742 295.344 219.742C297.1 219.742 298.288 219.521 298.389 219.504C298.763 219.428 298.992 219.08 298.924 218.707C298.865 218.334 298.5 218.088 298.135 218.164C298.101 218.173 295.777 218.597 292.782 218.207L292.536 219.555Z" fill="#577888"/>
<path d="M288.532 283.882L289.644 284.102C299.569 255.356 301.477 248.937 303.216 243.586C306.092 234.734 306.389 221.259 306.406 219.987L325.331 167.295C325.433 166.998 325.281 166.676 324.992 166.566C324.695 166.464 324.373 166.617 324.263 166.913L305.312 219.691C305.286 219.75 305.278 219.818 305.278 219.877C305.278 220.021 305.091 234.148 302.139 243.23C300.383 248.632 298.457 255.119 288.532 283.882Z" fill="#577888"/>
<path d="M346.827 281.447L346.03 286.459L332.576 285.695V280.319L346.827 281.447Z" fill="#577888"/>
<path d="M305.625 169.321C305.659 169.33 305.693 169.33 305.727 169.338C312.174 170.279 318.723 171.136 325.28 171.645C325.654 171.67 326.035 171.704 326.409 171.729C333.348 172.221 340.312 172.298 347.2 171.619C349.457 171.399 351.713 171.093 353.944 170.686C358.924 169.779 362.292 165.064 361.477 160.07C360.722 155.381 360.222 150.929 359.891 146.748C359.84 146.129 359.798 145.51 359.755 144.908C359.424 140.033 359.314 135.538 359.28 131.451C359.28 131.103 359.272 130.764 359.272 130.425C359.272 130.272 359.272 130.12 359.272 129.967C359.272 129.738 359.272 129.501 359.272 129.272C359.272 129.119 359.272 128.967 359.272 128.814C359.272 128.5 359.272 128.186 359.272 127.873C359.263 126.915 359.272 125.99 359.263 125.091V124.854C359.263 121.742 359.246 118.952 359.127 116.502C359.119 116.391 359.119 116.281 359.11 116.171C359.085 115.662 359.06 115.162 359.034 114.661C359.009 114.178 358.983 113.703 358.966 113.228C358.915 111.906 358.881 110.625 358.856 109.413C358.839 108.387 358.839 107.403 358.856 106.479C358.873 105.444 358.915 104.477 358.975 103.579C359 103.282 359.017 102.976 359.043 102.663C359.077 102.188 359.119 101.688 359.161 101.179C359.187 100.874 359.212 100.56 359.246 100.246C359.263 100.11 359.272 99.9662 359.28 99.8306C359.28 99.7966 359.289 99.7627 359.289 99.7288C359.306 99.5338 359.323 99.3387 359.34 99.1437C359.356 98.9487 359.373 98.7536 359.399 98.5586C359.433 98.2194 359.467 97.8718 359.501 97.5241C359.662 95.896 359.849 94.1831 360.035 92.4278C360.095 91.8766 360.154 91.317 360.222 90.7573C360.324 89.8924 360.417 89.019 360.519 88.1456C360.587 87.5859 360.646 87.0178 360.714 86.4581C361.672 78.0039 362.58 69.9059 362.258 67.3365C361.698 62.8847 340.143 51.1404 340.143 51.1404L327.206 50.7334C327.206 50.7334 308.866 58.1192 305.642 62.5286C303.089 66.0222 303.717 74.1033 304.497 84.3213C304.548 84.9149 304.59 85.5169 304.633 86.1274C304.743 87.5605 304.845 89.0275 304.947 90.5284C304.972 90.876 304.997 91.2322 305.014 91.5883C305.031 91.8088 305.04 92.0378 305.057 92.2667C305.074 92.4957 305.082 92.7246 305.099 92.962C305.108 93.174 305.125 93.386 305.133 93.598C305.15 93.827 305.159 94.0559 305.167 94.2933C305.193 94.7173 305.21 95.1413 305.227 95.5738C305.243 95.9299 305.26 96.2861 305.269 96.6422C305.277 96.71 305.277 96.7694 305.277 96.8372C305.286 97.0662 305.294 97.2951 305.303 97.5326L305.311 97.7106C305.32 98.0159 305.328 98.3212 305.337 98.6264C305.345 98.9911 305.354 99.3557 305.362 99.7203C305.371 99.8899 305.371 100.059 305.371 100.229C305.379 100.382 305.379 100.534 305.379 100.687C305.379 100.763 305.379 100.84 305.379 100.916C305.388 101.128 305.388 101.34 305.388 101.552C305.388 101.908 305.396 102.273 305.396 102.646V103.027C305.396 104.121 305.388 105.266 305.362 106.462C305.345 107.42 305.32 108.395 305.294 109.396C305.26 110.481 305.227 111.592 305.184 112.72C305.176 112.881 305.176 113.05 305.167 113.211C305.15 113.644 305.133 114.085 305.116 114.526C305.091 115.06 305.065 115.603 305.048 116.154C304.989 117.477 304.862 118.978 304.684 120.631C304.658 120.843 304.641 121.064 304.607 121.284C304.565 121.64 304.531 121.996 304.48 122.361C304.455 122.59 304.429 122.819 304.395 123.048C304.31 123.743 304.209 124.455 304.107 125.193C304.098 125.261 304.09 125.32 304.081 125.388C304.039 125.685 303.997 125.973 303.954 126.279C303.844 127.008 303.734 127.763 303.615 128.526C303.454 129.535 303.292 130.561 303.114 131.621C303.08 131.807 303.046 131.994 303.021 132.18C301.638 140.312 299.738 149.623 297.889 158.145C296.769 163.402 300.306 168.541 305.625 169.321Z" fill="#E04E39"/>
<path d="M315.61 128.263C315.635 128.263 315.66 128.263 315.677 128.254C325.509 126.982 334.671 120.995 340.626 116.204C347.056 111.023 351.238 106.071 351.281 106.02C351.476 105.791 351.442 105.444 351.213 105.257C350.984 105.062 350.636 105.096 350.449 105.325C350.288 105.52 333.899 124.803 315.533 127.186C315.236 127.228 315.024 127.499 315.067 127.796C315.109 128.068 315.347 128.263 315.61 128.263Z" fill="#CF422E"/>
<path d="M325.28 171.636C325.653 171.662 326.035 171.696 326.408 171.721C323.77 151.709 329.327 82.7186 330.65 67.0058C330.438 67.3111 330.226 67.6163 330.014 67.9386C330.014 67.9386 329.836 67.3959 329.573 66.5225C328.283 81.6332 322.633 150.81 325.28 171.636Z" fill="#CF422E"/>
<path d="M326.078 79.0725C325.525 79.0725 325.077 78.6245 325.077 78.0719C325.077 77.5193 325.525 77.0713 326.078 77.0713C326.631 77.0713 327.079 77.5193 327.079 78.0719C327.079 78.6245 326.631 79.0725 326.078 79.0725Z" fill="#CF422E"/>
<path d="M324.89 91.8176C324.338 91.8176 323.889 91.3696 323.889 90.817C323.889 90.2644 324.338 89.8164 324.89 89.8164C325.443 89.8164 325.891 90.2644 325.891 90.817C325.891 91.3696 325.443 91.8176 324.89 91.8176Z" fill="#CF422E"/>
<path d="M323.906 104.588C323.353 104.588 322.905 104.14 322.905 103.588C322.905 103.035 323.353 102.587 323.906 102.587C324.459 102.587 324.907 103.035 324.907 103.588C324.907 104.14 324.459 104.588 323.906 104.588Z" fill="#CF422E"/>
<path d="M323.143 117.384C322.59 117.384 322.142 116.936 322.142 116.383C322.142 115.831 322.59 115.383 323.143 115.383C323.696 115.383 324.144 115.831 324.144 116.383C324.144 116.936 323.696 117.384 323.143 117.384Z" fill="#CF422E"/>
<path d="M322.591 130.204C322.038 130.204 321.59 129.756 321.59 129.204C321.59 128.651 322.038 128.203 322.591 128.203C323.144 128.203 323.592 128.651 323.592 129.204C323.592 129.756 323.144 130.204 322.591 130.204Z" fill="#CF422E"/>
<path d="M322.252 143.06C321.699 143.06 321.251 142.612 321.251 142.059C321.251 141.507 321.699 141.059 322.252 141.059C322.805 141.059 323.253 141.507 323.253 142.059C323.253 142.612 322.805 143.06 322.252 143.06Z" fill="#CF422E"/>
<path d="M322.133 155.949C321.58 155.949 321.132 155.501 321.132 154.949C321.132 154.396 321.58 153.948 322.133 153.948C322.686 153.948 323.134 154.396 323.134 154.949C323.134 155.501 322.686 155.949 322.133 155.949Z" fill="#CF422E"/>
<path d="M334.705 74.5611H334.713C334.909 74.5611 335.087 74.4509 335.189 74.2813C337.012 71.0251 346.861 59.0519 346.963 58.9331C347.158 58.6957 347.124 58.348 346.887 58.153C346.649 57.958 346.301 57.9919 346.106 58.2293C345.724 58.6957 337.309 68.9137 334.68 72.9754C333.433 71.271 331.982 70.4231 330.362 70.457C330.056 70.4655 329.81 70.7114 329.819 71.0251C329.827 71.3304 330.073 71.5848 330.379 71.5678C331.821 71.5424 333.085 72.4412 334.23 74.2983C334.332 74.4594 334.51 74.5611 334.705 74.5611Z" fill="#CF422E"/>
<path d="M325.145 72.9505C325.289 72.9505 325.425 72.8996 325.526 72.7979C327.545 70.8815 329.573 71.4835 329.59 71.492C329.887 71.5853 330.192 71.4157 330.285 71.1274C330.379 70.8306 330.209 70.5253 329.921 70.432C329.819 70.3981 327.664 69.7621 325.399 71.4496L319.614 54.626C319.512 54.3377 319.198 54.185 318.91 54.2783C318.621 54.3801 318.469 54.6938 318.562 54.9821L324.627 72.5774C324.687 72.7555 324.839 72.8911 325.017 72.9335C325.06 72.942 325.102 72.9505 325.145 72.9505Z" fill="#CF422E"/>
<path d="M342.331 56.1352C342.331 56.1352 335.417 59.7391 330.014 67.9389C330.014 67.9389 326.4 56.7457 327.18 54.1086C327.18 54.1086 338.938 51.6834 342.331 56.1352Z" fill="#FDBB92"/>
<path d="M321.242 159.765C331.761 159.765 344.715 154.711 345.326 154.473C345.614 154.355 345.758 154.032 345.648 153.744C345.529 153.456 345.207 153.312 344.918 153.422C344.749 153.49 328.003 160.019 317.425 158.365C317.111 158.315 316.831 158.527 316.78 158.84C316.73 159.146 316.942 159.434 317.255 159.485C318.511 159.68 319.86 159.765 321.242 159.765Z" fill="#CF422E"/>
<path d="M356.778 87.925L360.052 92.4107C360.112 91.8595 360.171 91.2999 360.239 90.7402L357.694 87.2551C357.507 87.0007 357.159 86.9498 356.905 87.1279C356.65 87.3144 356.6 87.6706 356.778 87.925Z" fill="#CF422E"/>
<path d="M363.496 138.609C363.496 138.609 363.114 141.535 364.217 144.138C365.328 146.733 362.817 147.555 362.275 144.452C361.816 141.849 363.496 138.609 363.496 138.609Z" fill="#FD9676"/>
<path d="M360.527 123.193C360.527 123.193 359.187 121.48 356.854 123.006C354.513 124.533 353.164 128.476 354.208 129.4C355.251 130.333 356.761 126.373 358.161 126.771C359.56 127.17 357.999 135.276 357.736 137.566C357.473 139.847 358.144 148.725 360.112 147.724C362.08 146.724 361.376 144.68 362.733 140.822C364.124 136.879 365.643 133.326 366.389 131.079C367.687 127.161 360.527 123.193 360.527 123.193Z" fill="#FDBB92"/>
<path d="M365.999 130.206C365.999 130.206 378.876 122.743 382.719 119.123L374.431 112.288L360.527 123.193C360.527 123.193 359.628 131.715 365.999 130.206Z" fill="#FDBB92"/>
<path d="M363.903 136.616C363.903 136.616 362.529 142.196 363.072 144.714C363.657 147.445 361.901 149.242 360.688 144.867C359.475 140.491 363.903 136.616 363.903 136.616Z" fill="#FDBB92"/>
<path d="M353.028 66.4467C354.063 65.6242 356.286 62.9785 359.959 64.3777C361.223 64.861 362.309 65.7175 363.14 66.7859L391.304 103.214C393.848 106.581 393.484 111.321 390.455 114.263L380.318 125.677C376.102 121.463 371.894 117.257 367.678 113.042L372.828 108.048L373.421 107.471L373.489 107.403L373.125 106.92L372.811 106.505L351.4 79.0135C348.617 75.3249 349.406 69.3128 353.028 66.4467Z" fill="#E04E39"/>
<path d="M369.248 109.989L382.719 124.04L379.835 126.999L366.143 113.686L369.248 109.989Z" fill="#CF422E"/>
<path d="M372.828 108.048L381.379 108.158H381.387C381.701 108.158 381.947 107.912 381.955 107.599C381.964 107.285 381.709 107.03 381.395 107.03L374.499 106.946L373.133 106.929L373.489 107.404L373.421 107.463L372.828 108.048Z" fill="#CF422E"/>
<path d="M373.125 106.92L373.489 107.404L373.422 107.463L374.49 106.937L378.986 104.699C379.266 104.563 379.377 104.224 379.241 103.944C379.097 103.664 378.757 103.554 378.477 103.69L372.811 106.505L373.125 106.92Z" fill="#CF422E"/>
<path d="M329.437 18.6891C329.437 18.6891 324.271 31.5358 327.393 40.8125C330.514 50.0892 334.586 53.0995 327.859 54.8378C321.132 56.5762 316 57.8651 310.766 59.7984C304.455 62.1303 313.701 28.7545 318.324 17.8157C323.049 6.6141 337.411 7.42815 337.411 7.42815L329.437 18.6891Z" fill="#181818"/>
<path d="M318.74 27.0078C318.74 27.0078 315.007 13.1775 326.553 8.65789C338.098 4.13824 348.15 10.3538 349.957 17.8159C351.764 25.278 346.691 29.255 346.691 29.255L318.74 27.0078Z" fill="#181818"/>
<path d="M332.873 57.1354C329.675 57.5255 328.648 55.9822 327.859 54.8375L328.046 49.2409L328.156 45.9762L328.148 45.4929L329.581 45.5438L340.44 44.0938L340.864 50.9114L341.067 54.1421C339.532 55.2106 337.513 56.5588 332.873 57.1354Z" fill="#FDBB92"/>
<path d="M328.046 49.2412C331.057 51.1746 337.513 51.4629 340.864 50.9202C340.872 50.9202 340.881 50.9202 340.898 50.9117L340.448 44.1025L329.59 45.5526L328.156 45.5017L328.165 45.985L328.046 49.2412Z" fill="#EBA77C"/>
<path d="M322.583 27.6606C322.583 27.6606 316.67 24.9387 317.069 30.5861C317.51 36.7932 322.685 35.8265 323.584 35.5637L322.583 27.6606Z" fill="#FD9676"/>
<path d="M325.527 38.3027C325.527 40.6431 323.626 42.5426 321.285 42.5426C318.944 42.5426 317.044 40.6431 317.044 38.3027C317.044 36.31 318.426 34.6311 320.284 34.1816C320.284 34.1901 320.293 34.1901 320.293 34.1986C320.573 34.3173 320.606 34.5547 320.59 34.8091C318.952 35.1314 317.714 36.5729 317.714 38.3027C317.714 40.2615 319.309 41.8642 321.277 41.8642C323.236 41.8642 324.839 40.2615 324.839 38.3027C324.839 37.4124 324.517 36.6068 323.974 35.9793C323.83 35.8182 323.677 35.6656 323.516 35.5384C323.703 35.4197 323.881 35.267 324.042 35.0974C324.195 35.2246 324.339 35.3688 324.466 35.5214C325.136 36.2676 325.527 37.2428 325.527 38.3027Z" fill="white"/>
<path d="M321.022 33.3502C321.031 33.3502 321.047 33.3502 321.056 33.3502C321.243 33.3332 321.378 33.1636 321.361 32.9771C321.073 30.2212 319.258 29.0171 319.181 28.9662C319.02 28.8644 318.816 28.9068 318.715 29.0679C318.613 29.2206 318.655 29.4326 318.816 29.5343C318.884 29.5767 320.437 30.6367 320.7 33.0534C320.708 33.223 320.852 33.3502 321.022 33.3502Z" fill="#FD7764"/>
<path d="M318.978 31.9001C319.071 31.9001 319.173 31.8577 319.241 31.7813C319.249 31.7644 319.767 31.1708 320.352 31.2556C320.539 31.281 320.708 31.1539 320.734 30.9673C320.759 30.7808 320.632 30.6112 320.445 30.5857C319.478 30.45 318.749 31.315 318.715 31.3489C318.596 31.493 318.613 31.705 318.757 31.8237C318.825 31.8746 318.902 31.9001 318.978 31.9001Z" fill="#FD7764"/>
<path d="M328.971 47.6301C333.84 48.9529 339.82 47.3757 343.536 41.3297C344.147 40.3461 344.808 39.1419 345.258 37.675C345.317 37.4715 345.385 37.2595 345.436 37.0475C347.243 30.4673 346.972 20.6478 346.972 20.6478C343.816 13.9828 334.858 14.2966 329.666 14.3729C324.475 14.4492 319.02 16.2045 319.3 26.4055C319.58 36.7507 324.5 46.4175 328.971 47.6301Z" fill="#FDBB92"/>
<path d="M327.181 30.2889C327.189 31.2555 326.756 32.0442 326.213 32.0526C325.671 32.0611 325.221 31.2725 325.221 30.3058C325.221 29.9242 325.28 29.5681 325.399 29.2798C324.432 29.3307 324.101 28.7286 324.101 28.7286C324.729 28.8134 325.569 28.6693 325.959 28.5929C326.103 28.5675 326.188 28.5421 326.188 28.5421C326.731 28.5336 327.181 29.3137 327.181 30.2889Z" fill="#181818"/>
<path d="M326.188 28.5342C326.188 28.5342 326.103 28.5511 325.959 28.5851C326.036 28.5511 326.112 28.5342 326.188 28.5342Z" fill="#181818"/>
<path d="M320.564 34.4103C320.556 35.0039 321.769 35.4957 323.253 35.5042C324.746 35.5127 325.959 35.0463 325.959 34.4527C325.968 33.8591 324.755 33.3673 323.27 33.3588C321.786 33.3419 320.572 33.8167 320.564 34.4103Z" fill="#FD9676"/>
<path d="M336.928 34.5291C336.919 35.1227 338.132 35.6145 339.617 35.623C341.11 35.6315 342.323 35.1651 342.323 34.5715C342.331 33.978 341.118 33.4861 339.634 33.4777C338.149 33.4692 336.936 33.9356 336.928 34.5291Z" fill="#FD9676"/>
<path d="M345.283 29.9927C345.292 29.1786 345.75 28.4324 346.471 28.0508C348.269 27.1096 350.543 26.7704 351.298 29.0769C352.698 33.3591 348.269 38.1501 345.241 36.9799L345.283 29.9927Z" fill="#FDBB92"/>
<path d="M343.638 36.4628C343.689 36.5306 343.74 36.59 343.799 36.6493C343.96 36.8274 344.121 36.98 344.291 37.1157C344.605 37.3616 344.936 37.5397 345.258 37.6754C345.318 37.4719 345.385 37.2599 345.436 37.0479C345.207 36.9546 344.97 36.8359 344.749 36.6748C344.563 36.5561 344.384 36.4034 344.223 36.2338C344.155 36.166 344.096 36.0897 344.028 36.0134C343.926 35.8862 343.757 35.8862 343.646 36.0134C343.545 36.1321 343.536 36.3441 343.638 36.4628Z" fill="#FD9676"/>
<path d="M347.056 34.4104C347.226 34.4104 347.37 34.2832 347.396 34.1136C347.735 31.4171 349.652 30.2384 349.669 30.2214C349.83 30.1281 349.881 29.9162 349.788 29.755C349.695 29.5939 349.483 29.5431 349.321 29.6363C349.228 29.6872 347.099 30.9846 346.717 34.0203C346.692 34.2069 346.827 34.3765 347.014 34.4019C347.023 34.4104 347.039 34.4104 347.056 34.4104Z" fill="#FD9676"/>
<path d="M349.474 32.85C349.55 32.85 349.635 32.8245 349.695 32.7652C349.839 32.6465 349.856 32.426 349.728 32.2903C349.695 32.2479 348.872 31.3067 347.769 31.4254C347.582 31.4423 347.447 31.6119 347.472 31.7985C347.489 31.985 347.659 32.1207 347.845 32.0953C348.583 32.0105 349.203 32.7143 349.211 32.7228C349.287 32.8076 349.381 32.85 349.474 32.85Z" fill="#FD9676"/>
<path d="M342.747 39.4395C342.747 41.7798 344.647 43.6793 346.989 43.6793C349.33 43.6793 351.23 41.7798 351.23 39.4395C351.23 37.4467 349.847 35.7678 347.99 35.3184C347.99 35.3268 347.981 35.3268 347.981 35.3353C347.701 35.454 347.667 35.6915 347.684 35.9459C349.322 36.2681 350.56 37.7096 350.56 39.4395C350.56 41.3983 348.965 43.0009 346.997 43.0009C345.038 43.0009 343.434 41.3983 343.434 39.4395C343.434 38.5491 343.757 37.7435 344.3 37.116C344.444 36.9549 344.597 36.8023 344.758 36.6751C344.571 36.5564 344.393 36.4038 344.232 36.2342C344.079 36.3614 343.935 36.5055 343.808 36.6581C343.146 37.3959 342.747 38.371 342.747 39.4395Z" fill="white"/>
<path d="M330.532 36.1823C330.642 36.1823 330.752 36.1314 330.811 36.0297C330.913 35.877 330.871 35.6651 330.718 35.5633C329.946 35.046 329.225 34.4185 329.115 34.1896C329.369 33.4603 330.548 30.0515 330.548 30.0515L329.904 29.8311C329.904 29.8311 328.665 33.4179 328.453 34.0285C328.394 34.1981 328.216 34.7153 330.336 36.1399C330.404 36.1653 330.464 36.1823 330.532 36.1823Z" fill="#FD9676"/>
<path d="M335.765 30.2889C335.757 31.2555 336.19 32.0442 336.732 32.0526C337.275 32.0611 337.725 31.2725 337.725 30.3058C337.725 29.9242 337.666 29.5681 337.547 29.2798C338.514 29.3307 338.845 28.7286 338.845 28.7286C338.217 28.8134 337.377 28.6693 336.987 28.5929C336.843 28.5675 336.758 28.5421 336.758 28.5421C336.223 28.5336 335.774 29.3137 335.765 30.2889Z" fill="#181818"/>
<path d="M336.767 28.5342C336.767 28.5342 336.851 28.5511 336.996 28.5851C336.919 28.5511 336.843 28.5342 336.767 28.5342Z" fill="#181818"/>
<path d="M325.755 38.8623C326.205 39.9901 326.96 41.1772 328.232 41.8895C328.351 41.9574 328.478 42.0167 328.614 42.0761C329.361 42.4068 330.251 42.5933 331.346 42.534C332.245 42.4916 333.008 42.1609 333.645 41.6775C333.772 41.5843 333.891 41.4825 334.009 41.3723C334.781 40.6769 335.358 39.7696 335.765 38.9301L325.755 38.8623Z" fill="white"/>
<path d="M330.862 44.3657C331.965 44.3657 332.669 43.9756 332.703 43.9587C332.864 43.8654 332.924 43.6619 332.83 43.5008C332.737 43.3397 332.534 43.2803 332.372 43.3736C332.364 43.3821 331.728 43.7212 330.761 43.6958C329.777 43.6704 329.157 43.3481 329.157 43.3481C328.996 43.2633 328.784 43.3227 328.699 43.4838C328.614 43.6449 328.674 43.8569 328.835 43.9417C328.869 43.9587 329.59 44.3403 330.744 44.3742C330.778 44.3657 330.82 44.3657 330.862 44.3657Z" fill="#FD9676"/>
<path d="M322.439 26.7616C322.871 26.6514 323.338 26.592 323.796 26.5751C324.254 26.5581 324.704 26.5835 325.145 26.6514C325.586 26.7192 326.002 26.8379 326.392 27.0075C326.79 27.1602 327.138 27.3976 327.461 27.635L327.495 27.6605C327.851 27.9148 328.351 27.8385 328.606 27.4739C328.86 27.1178 328.784 26.6175 328.419 26.3631C328.377 26.3376 328.334 26.3037 328.283 26.2868C327.783 26.0578 327.274 25.8543 326.748 25.761C326.222 25.6593 325.696 25.6084 325.187 25.6423C324.67 25.6593 324.169 25.7356 323.686 25.8543C323.194 25.9815 322.736 26.1341 322.269 26.3546C322.159 26.4055 322.116 26.5411 322.167 26.6429C322.21 26.7362 322.32 26.7871 322.422 26.7616H322.439Z" fill="#181818"/>
<path d="M340.898 26.6008C340.389 26.3294 339.863 26.1344 339.32 25.9733C338.777 25.8206 338.209 25.7189 337.623 25.668C337.046 25.6171 336.453 25.6426 335.859 25.7443C335.265 25.8291 334.688 26.0326 334.111 26.2701C333.704 26.4397 333.509 26.906 333.679 27.3131C333.848 27.7201 334.315 27.9151 334.722 27.7455C334.765 27.7286 334.798 27.7116 334.841 27.6862L334.883 27.6607C335.282 27.4063 335.706 27.1604 336.173 27.0078C336.631 26.8467 337.123 26.728 337.632 26.6856C338.141 26.6347 338.658 26.6347 339.176 26.6856C339.693 26.7365 340.228 26.8382 340.711 26.9993L340.728 27.0078C340.847 27.0417 340.966 26.9824 341 26.8636C341.042 26.7619 340.991 26.6517 340.898 26.6008Z" fill="#181818"/>
<path d="M342.747 19.2396C342.747 19.2396 335.257 26.8035 320.776 24.2172C312.989 22.8265 321.608 11.6249 333.373 12.6849C345.131 13.7364 342.747 19.2396 342.747 19.2396Z" fill="#181818"/>
<path d="M346.539 16.781C346.539 16.781 350.339 24.0904 356.371 17.6374C362.402 11.1759 351.934 -0.576859 344.503 0.0251956C337.072 0.62725 338.853 12.6175 338.853 12.6175L346.539 16.781Z" fill="#181818"/>
<path d="M352.231 21.4444C354.046 21.4444 356.184 20.7999 357.83 18.3663C361.715 12.634 355.412 6.37607 355.344 6.30823C355.217 6.18103 355.005 6.18103 354.886 6.31671C354.759 6.4439 354.759 6.65589 354.895 6.77461C354.954 6.83397 360.867 12.7188 357.295 17.9932C354.106 22.6994 349.016 20.1131 348.804 20.0029C348.643 19.9181 348.448 19.9774 348.363 20.1385C348.278 20.2996 348.337 20.4947 348.498 20.5795C348.524 20.6049 350.17 21.4444 352.231 21.4444Z" fill="#181818"/>
<path d="M336.554 35.3261C339.099 35.3854 341.211 33.3673 341.271 30.8234C341.33 28.2795 339.311 26.1681 336.766 26.1087C334.221 26.0493 332.109 28.0675 332.05 30.6114C331.99 33.1553 334.009 35.2667 336.554 35.3261ZM336.749 26.8295C338.895 26.8803 340.601 28.6696 340.55 30.8149C340.499 32.9602 338.709 34.6647 336.563 34.6138C334.416 34.5629 332.711 32.7737 332.762 30.6283C332.813 28.483 334.603 26.7786 336.749 26.8295Z" fill="white"/>
<path d="M341.05 29.552C341.067 29.5435 343.061 28.2461 345.809 28.3903L346.301 27.7204C343.205 27.6017 340.736 28.933 340.66 28.9923L341.05 29.552Z" fill="white"/>
<path d="M323.94 35.038C326.485 35.0973 328.597 33.0792 328.657 30.5353C328.716 27.9914 326.697 25.88 324.152 25.8206C321.607 25.7613 319.495 27.7794 319.436 30.3233C319.385 32.8587 321.404 34.9786 323.94 35.038ZM324.144 26.5329C326.29 26.5838 327.995 28.373 327.944 30.5183C327.893 32.6637 326.103 34.3681 323.957 34.3172C321.811 34.2663 320.106 32.4771 320.157 30.3318C320.208 28.1864 321.998 26.482 324.144 26.5329Z" fill="white"/>
<path d="M328.436 29.4927C328.445 29.4843 329.327 28.348 330.447 28.3734C331.558 28.3989 332.304 29.5691 332.313 29.5775L332.924 29.1959C332.881 29.1366 331.973 27.6866 330.464 27.6442C328.971 27.6103 327.902 28.9924 327.859 29.0518L328.436 29.4927Z" fill="white"/>
<path d="M338.845 18.6891C338.845 18.6891 344.011 31.5358 340.889 40.8125C337.767 50.0892 334.162 57.3139 340.889 59.0438C347.616 60.7736 351.442 59.6119 357.219 63.0631C362.996 66.5058 354.572 28.7545 349.949 17.8157C345.241 6.6141 330.871 7.42815 330.871 7.42815L338.845 18.6891Z" fill="#181818"/>
<path d="M358.169 62.9098C358.262 62.9098 358.347 62.8759 358.415 62.7996C358.525 62.6724 361.104 59.6113 360.561 52.2848C360.018 45.0432 351.883 22.7333 351.535 21.792C351.476 21.6225 351.289 21.5377 351.12 21.597C350.95 21.6564 350.865 21.8429 350.925 22.0125C351.009 22.2415 359.382 45.1789 359.908 52.3272C360.434 59.3823 357.948 62.3417 357.923 62.3671C357.804 62.5028 357.821 62.7063 357.957 62.825C358.016 62.8844 358.093 62.9098 358.169 62.9098Z" fill="#181818"/>
<path d="M60.8571 326C27.2467 326 0.000152588 322.883 0.000152588 319.038C0.000152588 315.193 27.2467 312.076 60.8571 312.076C94.4675 312.076 121.714 315.193 121.714 319.038C121.714 322.883 94.4675 326 60.8571 326Z" fill="#D1D9DD"/>
<path d="M58.5923 137.031C58.5923 137.031 59.2879 139.906 58.4651 142.602C57.6422 145.307 60.221 145.842 60.4246 142.713C60.6028 140.058 58.5923 137.031 58.5923 137.031Z" fill="#FD9676"/>
<path d="M59.8816 121.378C59.8816 121.378 61.0268 119.529 63.5123 120.801C65.9978 122.073 67.7707 125.838 66.8291 126.881C65.8875 127.916 63.9704 124.142 62.6131 124.693C61.2643 125.245 63.6904 133.131 64.1909 135.378C64.6999 137.625 64.9799 146.52 62.9185 145.731C60.8571 144.943 61.3322 142.84 59.5677 139.151C57.7608 135.378 55.8691 132.011 54.8851 129.857C53.1885 126.101 59.8816 121.378 59.8816 121.378Z" fill="#FDBB92"/>
<path d="M55.199 128.942C55.199 128.942 41.5923 122.904 37.3762 119.716L44.8837 112.033L59.8816 121.378C59.8816 121.378 61.6885 129.756 55.199 128.942Z" fill="#FDBB92"/>
<path d="M57.9727 135.09C57.9727 135.09 59.9323 140.491 59.6694 143.052C59.3809 145.825 61.3235 147.428 62.0531 142.95C62.7826 138.465 57.9727 135.09 57.9727 135.09Z" fill="#FDBB92"/>
<path d="M61.2221 64.1573C60.1023 63.4535 59.7714 59.0186 56.2765 60.7993C55.0719 61.4184 51.9162 64.4286 51.2121 65.5819L27.1289 104.826C24.9573 108.446 25.831 113.119 29.1648 115.714L40.4726 125.974C44.2052 121.336 47.9462 116.689 51.6787 112.05L46.0205 107.632L45.3673 107.124L45.2995 107.064L45.6133 106.547L45.8763 106.106L64.1996 76.4697C66.5663 72.5097 65.1327 66.6164 61.2221 64.1573Z" fill="#D1D9DD"/>
<path d="M49.7869 109.192L37.9108 124.608L41.1004 127.246L53.2734 112.533L49.7869 109.192Z" fill="#738D9A"/>
<path d="M46.0203 107.641L37.5288 108.667H37.5203C37.2149 108.701 36.935 108.481 36.9011 108.175C36.8671 107.862 37.0877 107.582 37.3931 107.548L44.2473 106.717L45.6046 106.556L45.2907 107.073L45.3586 107.132L46.0203 107.641Z" fill="#738D9A"/>
<path d="M45.6044 106.556L45.2905 107.073L45.3584 107.133L44.2386 106.717L39.5306 104.979C39.2337 104.868 39.0895 104.546 39.1913 104.249C39.3016 103.953 39.6239 103.809 39.9208 103.919L45.8589 106.107L45.6044 106.556Z" fill="#738D9A"/>
<path d="M58.0916 85.967C58.2443 86.4419 58.3885 86.9083 58.5412 87.3747C60.2717 92.9119 61.7223 98.1099 61.5611 101.544C61.0945 111.067 59.1011 132.13 59.1011 132.13C73.7342 141.178 101.304 130.256 101.304 130.256C98.6742 120.064 97.9362 112.279 99.4546 100.9C99.8024 98.271 100.591 95.1759 101.508 91.9028C101.626 91.4703 101.754 91.0463 101.872 90.6054C104.875 79.9804 108.735 67.863 103.162 63.5129C97.8089 59.3409 93.2875 56.602 89.7331 54.9909C88.2825 54.3295 87.3833 53.9648 87.3833 53.9648L75.0491 54.516C75.0491 54.516 74.0735 54.6093 72.5551 54.8382C67.6858 55.5845 56.7088 58.9933 54.1215 62.843C51.636 66.5402 55.1056 76.5461 58.0916 85.967Z" fill="#D1D9DD"/>
<path d="M95.5014 84.2709L97.8936 87.3151L98.8521 88.5277L101.507 91.9025C101.626 91.4701 101.753 91.0461 101.872 90.6052L99.5902 87.6966C99.5732 87.6797 99.5647 87.6627 99.5478 87.6458L96.3582 83.5925C96.1715 83.3551 95.8322 83.3127 95.5947 83.4992C95.3572 83.6943 95.3147 84.0334 95.5014 84.2709Z" fill="#738D9A"/>
<path d="M99.1322 88.5617C99.4037 88.5617 99.6412 88.3582 99.6751 88.0784C99.7091 87.7816 99.497 87.5102 99.2001 87.4763L94.6108 86.9166C94.3139 86.8827 94.0424 87.0947 94.0085 87.3915C93.9746 87.6883 94.1867 87.9596 94.4836 88.002L99.0729 88.5617C99.0898 88.5532 99.1153 88.5617 99.1322 88.5617Z" fill="#738D9A"/>
<path d="M58.0915 85.9668C58.2442 86.4416 58.3884 86.908 58.5411 87.3744L59.3385 85.9922L60.2801 84.3641L62.0021 81.3793C62.1548 81.1164 62.0615 80.7857 61.7986 80.6331C61.5356 80.4805 61.2047 80.5737 61.052 80.8366L58.0915 85.9668Z" fill="#738D9A"/>
<path d="M58.9566 86.1113C59.033 86.1113 59.1093 86.0943 59.1856 86.0604L62.7485 84.4238C63.02 84.2966 63.1387 83.9744 63.02 83.703C62.8927 83.4317 62.5704 83.313 62.2989 83.4317L58.736 85.0683C58.4646 85.1955 58.3458 85.5177 58.4646 85.789C58.5494 85.9925 58.7445 86.1113 58.9566 86.1113Z" fill="#738D9A"/>
<path d="M78.7138 83.1086C78.161 83.1086 77.7128 82.6606 77.7128 82.108C77.7128 81.5554 78.161 81.1074 78.7138 81.1074C79.2667 81.1074 79.7148 81.5554 79.7148 82.108C79.7148 82.6606 79.2667 83.1086 78.7138 83.1086Z" fill="#738D9A"/>
<path d="M78.8496 90.969C78.2968 90.969 77.8486 90.521 77.8486 89.9684C77.8486 89.4158 78.2968 88.9678 78.8496 88.9678C79.4024 88.9678 79.8506 89.4158 79.8506 89.9684C79.8506 90.521 79.4024 90.969 78.8496 90.969Z" fill="#738D9A"/>
<path d="M78.9853 98.8303C78.4325 98.8303 77.9843 98.3823 77.9843 97.8297C77.9843 97.2771 78.4325 96.8291 78.9853 96.8291C79.5382 96.8291 79.9863 97.2771 79.9863 97.8297C79.9863 98.3823 79.5382 98.8303 78.9853 98.8303Z" fill="#738D9A"/>
<path d="M79.1208 106.682C78.568 106.682 78.1198 106.234 78.1198 105.681C78.1198 105.129 78.568 104.681 79.1208 104.681C79.6737 104.681 80.1218 105.129 80.1218 105.681C80.1218 106.234 79.6737 106.682 79.1208 106.682Z" fill="#738D9A"/>
<path d="M79.2651 114.542C78.7123 114.542 78.2641 114.094 78.2641 113.542C78.2641 112.989 78.7123 112.541 79.2651 112.541C79.818 112.541 80.2661 112.989 80.2661 113.542C80.2661 114.094 79.818 114.542 79.2651 114.542Z" fill="#738D9A"/>
<path d="M79.4009 122.404C78.848 122.404 78.3999 121.956 78.3999 121.403C78.3999 120.85 78.848 120.402 79.4009 120.402C79.9537 120.402 80.4019 120.85 80.4019 121.403C80.4019 121.956 79.9537 122.404 79.4009 122.404Z" fill="#738D9A"/>
<path d="M89.7244 54.9902C92.1675 55.5923 94.3561 56.8303 96.2139 58.204L90.0043 65.1997H86.1021L87.9769 69.058L78.7135 78.1566L78.7983 68.8375L89.7244 54.9902Z" fill="#738D9A"/>
<path d="M72.5551 54.8382C69.5352 54.8213 67.2108 55.4403 64.2079 56.7461L67.4399 65.2004H71.3421L69.4673 69.0586L78.7307 78.1572L78.7986 68.8381C75.7447 63.25 73.3695 58.3064 72.5551 54.8382Z" fill="#738D9A"/>
<path d="M72.5551 54.8382C72.6229 55.6353 72.8689 56.5935 73.2167 57.6281C74.837 62.4106 78.7985 68.8381 78.7985 68.8381L87.3663 57.9842V57.9757C87.3748 57.9672 87.3748 57.9672 87.3748 57.9672L89.7246 54.9909C88.274 54.321 87.3748 53.9648 87.3748 53.9648L75.0491 54.516C75.0491 54.516 74.0735 54.6008 72.5551 54.8382Z" fill="#FDBB92"/>
<path d="M73.2168 57.6279C74.8371 62.4104 78.7986 68.838 78.7986 68.838L87.3665 57.9841V57.9756C87.0271 58.1282 78.6629 61.9441 73.2168 57.6279Z" fill="white"/>
<path d="M89.1989 41.7281C89.1989 44.0431 91.0821 45.934 93.4064 45.934C95.7223 45.934 97.614 44.0515 97.614 41.7281C97.614 39.7524 96.2398 38.0904 94.399 37.6494C94.399 37.6579 94.3905 37.6579 94.3905 37.6664C94.1105 37.7851 94.0851 38.0225 94.0936 38.2684C95.7138 38.5907 96.9439 40.0152 96.9439 41.7281C96.9439 43.67 95.3575 45.2557 93.4149 45.2557C91.4723 45.2557 89.886 43.67 89.886 41.7281C89.886 40.8462 90.2084 40.0407 90.7428 39.4301C90.8785 39.269 91.0312 39.1249 91.2009 38.9892C91.0227 38.8705 90.8446 38.7263 90.6749 38.5483C90.5222 38.6754 90.378 38.8196 90.2508 38.9638C89.5891 39.71 89.1989 40.6766 89.1989 41.7281Z" fill="white"/>
<path d="M84.5754 10.7945C84.5754 10.7945 87.5275 18.9774 95.9426 20.5292C96.8927 20.7072 97.741 20.6648 98.4875 20.4613C104.298 18.8417 103.56 6.75821 94.7126 4.07017C88.0959 2.06049 85.797 5.67282 84.9996 8.33543C84.5924 9.69217 84.5754 10.7945 84.5754 10.7945Z" fill="#181818"/>
<path d="M84.5755 10.7941C84.5755 10.7941 87.5275 18.9769 95.9427 20.5287C96.8927 20.7068 97.741 20.6644 98.4875 20.4609C97.2236 16.6959 93.7201 9.58147 85.0081 8.33496C84.5924 9.6917 84.5755 10.7941 84.5755 10.7941Z" fill="#00C2C4"/>
<path d="M65.3956 29.4069C65.3956 29.4069 61.697 15.6953 73.1406 11.2095C84.5842 6.7238 94.5517 12.8885 96.3416 20.2912C98.14 27.6855 93.1096 31.6285 93.1096 31.6285L65.3956 29.4069Z" fill="#181818"/>
<path d="M74.4298 56.9916C78.3235 58.8401 83.3709 59.1963 87.5615 56.9746L87.324 53.1079L86.9083 46.3496L76.1434 47.7827L74.7183 47.7318L74.7267 48.2151L74.6165 51.4544L74.4298 56.9916Z" fill="#FDBB92"/>
<path d="M74.6164 51.4456C77.6024 53.362 84.0071 53.6503 87.324 53.1076C87.3325 53.1076 87.3409 53.1076 87.3579 53.0991L86.9083 46.3408L76.1434 47.7739L74.7182 47.723L74.7267 48.2063L74.6164 51.4456Z" fill="#EBA77C"/>
<path d="M67.4906 30.0517C67.4906 30.0517 61.6289 27.3552 62.0191 32.9518C62.4517 39.108 67.584 38.1413 68.4832 37.8869L67.4906 30.0517Z" fill="#FD9676"/>
<path d="M64.1143 36.5807C64.1143 36.8606 64.3433 37.098 64.6317 37.098C64.9201 37.098 65.1492 36.869 65.1492 36.5807C65.1492 36.2924 64.9201 36.0635 64.6317 36.0635C64.3433 36.0635 64.1143 36.2924 64.1143 36.5807Z" fill="white"/>
<path d="M65.9466 35.6903C65.9551 35.6903 65.9721 35.6903 65.9805 35.6903C66.1672 35.6733 66.3029 35.5037 66.2774 35.3172C65.989 32.5867 64.1906 31.3911 64.1143 31.3402C63.9616 31.2384 63.7495 31.2808 63.6477 31.442C63.5459 31.5946 63.5883 31.8066 63.7495 31.9083C63.8174 31.9507 65.3613 32.9937 65.6158 35.3935C65.6327 35.5631 65.7769 35.6903 65.9466 35.6903Z" fill="#FD7764"/>
<path d="M63.9194 34.2579C64.0127 34.2579 64.1145 34.2155 64.1738 34.1392C64.1823 34.1222 64.6913 33.5372 65.2767 33.622C65.4633 33.6474 65.6329 33.5202 65.6584 33.3336C65.6838 33.1471 65.5566 32.9775 65.37 32.9521C64.4114 32.8164 63.6903 33.6728 63.6564 33.7067C63.5376 33.8509 63.5546 34.0629 63.6988 34.1816C63.7667 34.2325 63.843 34.2579 63.9194 34.2579Z" fill="#FD7764"/>
<path d="M70.4173 22.7004C70.4173 22.7004 65.4039 24.6592 66.337 30.2134C67.2701 35.7676 70.7736 46.4095 66.6933 50.7935C66.6933 50.7935 67.321 45.1715 65.336 37.438C64.5471 34.3769 64.3689 31.8415 64.2247 27.1777C64.055 21.6913 66.2691 16.3746 71.325 16.6205C76.3808 16.8664 70.4173 22.7004 70.4173 22.7004Z" fill="#181818"/>
<path d="M75.5325 49.8519C80.3593 51.1578 86.289 49.5975 89.9791 43.6024C90.5813 42.6272 91.2345 41.4316 91.6841 39.9731C91.7435 39.7696 91.8029 39.5661 91.8623 39.3541C93.6607 32.8248 93.3892 23.0986 93.3892 23.0986C90.2675 16.493 81.3773 16.7982 76.2366 16.8746C71.0959 16.9509 65.6838 18.6977 65.9552 28.8054C66.2267 39.0658 71.1044 48.6478 75.5325 49.8519Z" fill="#FDBB92"/>
<path d="M73.7596 32.655C73.7681 33.6132 73.3355 34.4018 72.8011 34.4018C72.2666 34.4103 71.817 33.6302 71.817 32.6635C71.817 32.2819 71.8764 31.9342 71.9952 31.6459C71.0366 31.6968 70.7142 31.0948 70.7142 31.0948C71.3335 31.1795 72.1648 31.0354 72.555 30.9591C72.6908 30.9336 72.7756 30.9082 72.7756 30.9082C73.3185 30.9167 73.7596 31.6968 73.7596 32.655Z" fill="#181818"/>
<path d="M72.7754 30.9248C72.7754 30.9248 72.6906 30.9418 72.5548 30.9757C72.6227 30.9418 72.699 30.9248 72.7754 30.9248Z" fill="#181818"/>
<path d="M67.2022 36.7505C67.1937 37.3356 68.3898 37.8274 69.8743 37.8359C71.3503 37.8443 72.5549 37.378 72.5549 36.7929C72.5549 36.2078 71.3673 35.716 69.8828 35.7075C68.4068 35.6905 67.2106 36.1569 67.2022 36.7505Z" fill="#FD9676"/>
<path d="M83.4304 36.8696C83.422 37.4547 84.618 37.9465 86.1026 37.955C87.5786 37.9635 88.7832 37.4971 88.7832 36.912C88.7916 36.3269 87.5956 35.8351 86.111 35.8266C84.635 35.8097 83.4304 36.276 83.4304 36.8696Z" fill="#FD9676"/>
<path d="M91.7012 32.3667C91.7097 31.5526 92.1593 30.8149 92.8803 30.4418C94.6618 29.509 96.9183 29.1698 97.6648 31.4593C99.056 35.6992 94.6703 40.4562 91.6588 39.2945L91.7012 32.3667Z" fill="#FDBB92"/>
<path d="M93.839 38.5062C93.5532 38.5062 93.3215 38.2746 93.3215 37.9889C93.3215 37.7033 93.5532 37.4717 93.839 37.4717C94.1248 37.4717 94.3564 37.7033 94.3564 37.9889C94.3564 38.2746 94.1248 38.5062 93.839 38.5062Z" fill="white"/>
<path d="M90.0724 38.7857C90.1233 38.8536 90.1742 38.9129 90.2336 38.9723C90.3863 39.1503 90.5559 39.303 90.7256 39.4302C91.0395 39.6761 91.3618 39.8542 91.6841 39.9813C91.7435 39.7778 91.8114 39.5743 91.8623 39.3539C91.6333 39.2606 91.4042 39.1419 91.1837 38.9892C91.0055 38.8705 90.8274 38.7264 90.6577 38.5483C90.5899 38.4805 90.5305 38.4041 90.4711 38.3278C90.3693 38.2006 90.1996 38.2006 90.0978 38.3278C89.9791 38.455 89.9706 38.6585 90.0724 38.7857Z" fill="#FD9676"/>
<path d="M93.4657 36.7508C93.6353 36.7508 93.7796 36.6236 93.7965 36.454C94.1274 33.7829 96.036 32.6127 96.053 32.5958C96.2142 32.5025 96.2651 32.2905 96.1718 32.1379C96.0784 31.9767 95.8748 31.9259 95.7137 32.0191C95.6204 32.07 93.5081 33.3589 93.1349 36.3692C93.1094 36.5558 93.2451 36.7254 93.4233 36.7423C93.4318 36.7508 93.4487 36.7508 93.4657 36.7508Z" fill="#FD9676"/>
<path d="M95.8664 35.199C95.9427 35.199 96.019 35.1736 96.0869 35.1142C96.2311 34.9955 96.2396 34.7835 96.1208 34.6393C96.0869 34.5969 95.2725 33.6642 94.1782 33.7829C93.9916 33.7999 93.8644 33.9694 93.8813 34.156C93.8983 34.3425 94.0679 34.4697 94.2546 34.4528C94.9841 34.368 95.6034 35.0718 95.6119 35.0803C95.6797 35.1566 95.773 35.199 95.8664 35.199Z" fill="#FD9676"/>
<path d="M77.085 38.5061C77.1953 38.5061 77.2971 38.4552 77.3649 38.3535C77.4667 38.2009 77.4243 37.9889 77.2716 37.8871C76.5081 37.3783 75.7871 36.7593 75.6853 36.5219C75.9398 35.7926 77.1019 32.4177 77.1019 32.4177L76.4657 32.1973C76.4657 32.1973 75.2357 35.7587 75.0321 36.3523C74.9727 36.5219 74.7946 37.0307 76.8983 38.4468C76.9492 38.4892 77.0171 38.5061 77.085 38.5061Z" fill="#FD9676"/>
<path d="M82.2766 32.655C82.2682 33.6132 82.7008 34.4018 83.2352 34.4018C83.7696 34.4103 84.2192 33.6302 84.2192 32.6635C84.2192 32.2819 84.1599 31.9342 84.0411 31.6459C84.9997 31.6968 85.322 31.0948 85.322 31.0948C84.7028 31.1795 83.8715 31.0354 83.4812 30.9591C83.3455 30.9336 83.2607 30.9082 83.2607 30.9082C82.7262 30.9167 82.2851 31.6968 82.2766 32.655Z" fill="#181818"/>
<path d="M83.2606 30.9248C83.2606 30.9248 83.3455 30.9418 83.4812 30.9757C83.4133 30.9418 83.337 30.9248 83.2606 30.9248Z" fill="#181818"/>
<path d="M72.343 41.1602C72.7841 42.2795 73.5391 43.4581 74.8031 44.162C74.9218 44.2298 75.0491 44.2891 75.1763 44.3485C75.9144 44.6792 76.8051 44.8573 77.8824 44.8064C78.7731 44.764 79.5281 44.4333 80.1644 43.95C80.2916 43.8567 80.4104 43.7549 80.5291 43.6532C81.2926 42.9663 81.8609 42.0675 82.2766 41.2365L72.343 41.1602Z" fill="white"/>
<path d="M77.4072 46.6212C78.493 46.6212 79.1971 46.2312 79.231 46.2142C79.3922 46.1209 79.4516 45.9174 79.3582 45.7563C79.2649 45.5952 79.0614 45.5358 78.9002 45.6291C78.8917 45.6376 78.264 45.9683 77.3054 45.9429C76.3299 45.9174 75.7191 45.5952 75.7106 45.5952C75.5494 45.5104 75.3458 45.5698 75.2525 45.7309C75.1677 45.892 75.2271 46.0955 75.3882 46.1888C75.4222 46.2057 76.1347 46.5873 77.2799 46.6128C77.3224 46.6212 77.3648 46.6212 77.4072 46.6212Z" fill="#FD9676"/>
<path d="M69.0854 29.3738C69.5096 29.2382 69.9677 29.1449 70.4173 29.094C70.8669 29.0431 71.3165 29.0431 71.7491 29.0855C72.1902 29.1194 72.6059 29.2127 73.0046 29.3569C73.4033 29.4841 73.768 29.6961 74.1074 29.908L74.1413 29.9335C74.5146 30.1624 74.9981 30.0522 75.2271 29.6791C75.4562 29.306 75.3459 28.8227 74.9726 28.5937C74.9302 28.5683 74.8793 28.5428 74.8369 28.5259C74.3279 28.3308 73.8105 28.1697 73.2845 28.1104C72.7586 28.0425 72.2411 28.034 71.7321 28.0934C71.2232 28.1528 70.7311 28.2545 70.2561 28.4072C69.7811 28.5598 69.3314 28.7463 68.8903 29.0007C68.7885 29.0601 68.7461 29.1958 68.8055 29.2975C68.8564 29.3908 68.9667 29.4247 69.06 29.3993L69.0854 29.3738Z" fill="#181818"/>
<path d="M87.3663 28.9661C86.8574 28.7033 86.3399 28.5167 85.797 28.3641C85.2541 28.2199 84.6942 28.1182 84.1174 28.0843C83.5405 28.0419 82.9552 28.0758 82.3699 28.1775C81.776 28.2623 81.2077 28.4743 80.6478 28.7118C80.2491 28.8813 80.0625 29.3477 80.2321 29.7463C80.4018 30.1448 80.8684 30.3314 81.2671 30.1618C81.3095 30.1448 81.3434 30.1279 81.3773 30.1024L81.4198 30.077C81.81 29.8226 82.2257 29.5682 82.6922 29.4156C83.1503 29.246 83.6338 29.1273 84.1343 29.0849C84.6348 29.0255 85.1523 29.0255 85.6697 29.0679C86.1787 29.1188 86.7132 29.2121 87.1967 29.3562L87.2136 29.3647C87.3324 29.3986 87.4512 29.3392 87.4851 29.2205C87.5021 29.1273 87.4596 29.017 87.3663 28.9661Z" fill="#181818"/>
<path d="M89.1988 21.7081C89.1988 21.7081 81.7677 29.2041 67.4145 26.6433C59.6949 25.2611 68.2373 14.1612 79.9015 15.2127C91.5571 16.2557 89.1988 21.7081 89.1988 21.7081Z" fill="#181818"/>
<path d="M84.5755 19.6893C84.5755 19.6893 91.0395 24.404 90.1573 29.9666C89.275 35.5293 85.8734 46.2052 89.9961 50.5467C89.9961 50.5467 88.1723 44.806 90.5305 37.1658C91.6418 33.562 93.3214 31.459 94.2122 26.88C95.1029 22.2925 91.5315 16.5433 86.4757 16.8401C81.4283 17.1539 84.5755 19.6893 84.5755 19.6893Z" fill="#181818"/>
<path d="M81.1824 287.723C81.1824 287.723 77.3905 289.266 77.2548 294.591C77.1106 299.916 77.2548 313.662 77.2548 313.662H79.1889L80.2408 308.812C80.2408 308.812 80.9109 314.077 83.5746 317.444C86.2383 320.81 91.9897 320.946 95.7816 320.386C99.5735 319.827 96.7656 312.814 95.2217 308.888C93.6778 304.962 90.4543 295.566 90.4543 295.566L81.1824 287.723Z" fill="#E04E39"/>
<path d="M82.1835 280.1C82.1835 280.1 82.3022 286.595 81.1825 287.723C80.0627 288.851 78.5188 292.488 79.6386 296.974C80.7583 301.46 81.5048 308.006 84.1261 310.813C86.7473 313.62 93.5761 313.713 94.136 311.466C94.6959 309.219 90.675 300.9 90.4883 296.601C90.3017 292.302 89.5552 280.71 89.5552 280.71L82.1835 280.1Z" fill="#FDBB92"/>
<path d="M81.2502 226.966C80.0287 231.121 79.596 248.64 79.613 259.095C79.6215 263.25 81.9034 279.039 81.844 285.857L89.8944 286.196C91.6588 272.815 96.2057 251.167 98.2671 239.507C98.3604 238.998 98.4452 238.507 98.5216 238.032C98.8778 235.937 99.1408 234.25 99.2511 233.114C99.4462 231.206 99.6753 228.272 99.9382 224.659C99.9722 224.193 100.006 223.701 100.049 223.209C100.337 219.122 100.659 214.289 100.99 209.116C101.143 206.716 101.296 204.257 101.448 201.756C102.772 180.362 104.086 156.712 104.086 156.712L79.4688 158.9C79.4688 158.9 80.6649 183.94 81.2417 203.698C81.3011 205.648 81.352 207.547 81.3944 209.362C81.6235 218.529 81.6489 225.634 81.2502 226.966Z" fill="#FDBB92"/>
<path d="M90.0982 240.024C91.0737 240.185 92.0323 240.261 92.9485 240.261C95.0607 240.261 96.8591 239.922 98.2758 239.507C98.3691 238.998 98.4539 238.506 98.5303 238.031C96.6555 238.608 93.5677 239.252 90.3187 238.693C89.9455 238.633 89.6061 238.871 89.5383 239.244C89.4704 239.617 89.7249 239.965 90.0982 240.024Z" fill="#FD9676"/>
<path d="M81.2501 203.697C81.3095 205.648 81.3604 207.547 81.4028 209.362C86.255 209.82 94.2799 210.261 100.998 209.107C101.151 206.716 101.304 204.249 101.457 201.747L81.2501 203.697Z" fill="#FD9676"/>
<path d="M24.8298 308.159C26.6876 305.157 43.3652 289.173 43.3652 289.173C43.3652 289.173 46.7753 291.844 46.6057 294.786C46.4445 297.585 46.5633 312.322 46.5293 313.874H44.5104L43.3737 307.15C43.3737 307.15 38.7674 314.519 35.3063 317.045C31.8453 319.572 20.1557 319.115 17.3479 318.741C14.523 318.377 22.9636 311.161 24.8298 308.159Z" fill="#E04E39"/>
<path d="M45.3586 281.88L43.1446 288.461C43.1446 288.461 44.0777 290.614 43.1446 293.786C42.2114 296.966 37.3422 301.918 35.2893 305.751C33.228 309.583 26.1277 312.204 24.253 311.356C22.3867 310.516 27.8073 304.063 29.3936 300.697C30.98 297.33 32.2439 293.803 33.4146 291.157C34.4495 288.808 37.0538 281.439 37.0538 281.439L45.3586 281.88Z" fill="#FDBB92"/>
<path d="M35.4676 285.857C39.7684 286.603 39.5733 285.688 43.8997 286.196C47.6406 274.935 58.8636 252.142 60.9165 246.834C64.9205 236.506 65.4379 221.963 65.4379 221.963L69.2044 210.838L71.5542 203.91L86.866 158.68L60.0258 155.678L51.8567 199.492L50.6521 205.954L48.4126 217.952L48.1666 219.292L45.5793 232.843L45.3248 234.191L35.4676 285.857Z" fill="#FDBB92"/>
<path d="M45.3331 234.191C46.1305 234.276 46.8685 234.31 47.5217 234.31C49.2776 234.31 50.4652 234.089 50.567 234.072C50.9403 234.005 51.1778 233.648 51.1015 233.275C51.0421 232.902 50.6773 232.656 50.3125 232.733C50.2786 232.741 48.2682 233.106 45.5791 232.851L45.3331 234.191Z" fill="#FD9676"/>
<path d="M50.6606 205.945C55.2754 207.463 63.4529 209.99 69.2044 210.829L71.5542 203.901L51.8652 199.483L50.6606 205.945Z" fill="#FD9676"/>
<path d="M41.3803 203.376C41.3803 203.376 48.1667 204.673 57.5658 205.903C58.0663 205.971 58.5753 206.03 59.0928 206.098C76.3048 208.277 101.118 210.024 110.093 203.673C110.093 203.673 116.862 161.698 103.162 130.01C102.984 129.594 102.806 129.187 102.619 128.78C101.737 126.822 100.761 124.914 99.7093 123.057C84.915 127.525 71.5628 129.798 59.5763 126.728C59.5763 126.728 58.8638 129.671 57.7186 134.411C57.6168 134.826 57.515 135.259 57.4047 135.708C52.7815 154.872 42.305 198.432 41.3803 203.376Z" fill="black"/>
<path d="M57.5741 205.903C58.0746 205.971 58.5836 206.03 59.101 206.098C64.8949 198.008 69.5181 184.704 72.8689 166.413C75.5411 151.828 76.4827 138.719 76.6693 135.793C76.6948 135.412 76.7032 135.208 76.7032 135.191C76.7202 134.852 76.4827 134.564 76.1603 134.504C76.1603 134.504 76.1603 134.504 76.1518 134.504C76.1264 134.496 76.0925 134.496 76.067 134.496C75.9652 134.487 75.8634 134.513 75.7701 134.547C75.5496 134.648 75.3799 134.86 75.3629 135.123C75.3629 135.14 75.346 135.429 75.312 135.937C75.1 139.227 74.1414 152.006 71.5456 166.184C68.1948 184.483 63.4019 198.051 57.5741 205.903Z" fill="#464648"/>
<path d="M57.4044 135.708C60.4159 136.183 63.5545 136.387 66.7102 136.387C69.5944 136.387 72.4956 136.217 75.312 135.937C75.7616 135.895 76.2112 135.844 76.6608 135.793C80.8344 135.327 84.7959 134.64 88.24 133.919C94.4326 132.622 99.7599 131.078 103.162 130.01C102.983 129.594 102.805 129.187 102.619 128.78C97.2235 130.468 87.0185 133.317 76.1603 134.504C76.1603 134.504 76.1603 134.504 76.1518 134.504L75.7785 134.546C69.7132 135.191 63.4527 135.31 57.7267 134.411C57.6164 134.835 57.5147 135.267 57.4044 135.708Z" fill="#464648"/>
<path d="M70.9856 142.864C70.4327 142.864 69.9846 142.416 69.9846 141.864C69.9846 141.311 70.4327 140.863 70.9856 140.863C71.5384 140.863 71.9866 141.311 71.9866 141.864C71.9866 142.416 71.5384 142.864 70.9856 142.864Z" fill="#464648"/>
<path d="M69.8911 151.785C69.3382 151.785 68.8901 151.337 68.8901 150.785C68.8901 150.232 69.3382 149.784 69.8911 149.784C70.4439 149.784 70.8921 150.232 70.8921 150.785C70.8921 151.337 70.4439 151.785 69.8911 151.785Z" fill="#464648"/>
<path d="M68.4663 160.426C67.9135 160.426 67.4653 159.978 67.4653 159.425C67.4653 158.873 67.9135 158.425 68.4663 158.425C69.0191 158.425 69.4673 158.873 69.4673 159.425C69.4673 159.978 69.0191 160.426 68.4663 160.426Z" fill="#464648"/>
<path d="M65.6924 167.845C65.6924 168.397 66.1419 168.846 66.6933 168.846C67.2447 168.846 67.6943 168.397 67.6943 167.845C67.6943 167.294 67.2447 166.845 66.6933 166.845C66.1419 166.845 65.6924 167.294 65.6924 167.845Z" fill="#464648"/>
<path d="M64.5554 177.114C64.0026 177.114 63.5544 176.666 63.5544 176.113C63.5544 175.56 64.0026 175.112 64.5554 175.112C65.1082 175.112 65.5564 175.56 65.5564 176.113C65.5564 176.666 65.1082 177.114 64.5554 177.114Z" fill="#464648"/>
<path d="M61.0351 184.27C61.0351 184.821 61.4847 185.271 62.0361 185.271C62.5875 185.271 63.0371 184.821 63.0371 184.27C63.0371 183.719 62.5875 183.27 62.0361 183.27C61.4762 183.27 61.0351 183.719 61.0351 184.27Z" fill="#464648"/>
<path d="M59.1094 193.378C58.5565 193.378 58.1084 192.93 58.1084 192.378C58.1084 191.825 58.5565 191.377 59.1094 191.377C59.6622 191.377 60.1104 191.825 60.1104 192.378C60.1104 192.93 59.6622 193.378 59.1094 193.378Z" fill="#464648"/>
<path d="M55.767 201.501C55.2142 201.501 54.7661 201.053 54.7661 200.501C54.7661 199.948 55.2142 199.5 55.767 199.5C56.3199 199.5 56.7681 199.948 56.7681 200.501C56.7681 201.053 56.3199 201.501 55.767 201.501Z" fill="#464648"/>
<path d="M107.522 137.794C107.522 137.794 107.658 140.745 109.202 143.111C110.746 145.477 108.421 146.715 107.344 143.764C106.445 141.271 107.522 137.794 107.522 137.794Z" fill="#FD9676"/>
<path d="M101.906 123.133C101.906 123.133 100.286 121.674 98.2587 123.591C96.2228 125.507 95.5781 129.62 96.7742 130.349C97.9703 131.078 98.7592 126.923 100.21 127.067C101.66 127.211 101.542 135.471 101.686 137.769C101.83 140.067 104.044 148.682 105.8 147.351C107.556 146.019 106.513 144.128 107.174 140.092C107.853 135.962 108.727 132.206 109.066 129.866C109.651 125.787 101.906 123.133 101.906 123.133Z" fill="#FDBB92"/>
<path d="M105.138 130.078C105.138 130.078 118.38 123.277 122.401 119.86L114.47 112.618L100.031 122.802C100.031 122.802 98.6996 131.256 105.138 130.078Z" fill="#FDBB92"/>
<path d="M107.581 135.759C107.581 135.759 107.208 141.491 108.184 143.874C109.236 146.46 107.827 148.538 105.868 144.442C103.9 140.346 107.581 135.759 107.581 135.759Z" fill="#FDBB92"/>
<path d="M95.4252 65.7423C96.5026 64.9791 98.8524 62.4437 102.449 64.0294C103.688 64.5721 103.959 64.3771 104.731 65.4879L131.783 104.409C134.159 107.903 133.548 112.618 130.375 115.399L119.67 126.287C115.674 121.869 111.679 117.443 107.683 113.025L113.078 108.293L113.706 107.742L113.774 107.683L113.435 107.182L113.146 106.758L93.1603 78.2158C90.573 74.383 91.6673 68.4218 95.4252 65.7423Z" fill="#D1D9DD"/>
<path d="M109.414 110.057L122.146 124.777L119.118 127.584L106.122 113.593L109.414 110.057Z" fill="#738D9A"/>
<path d="M113.087 108.293L121.621 108.836H121.629C121.935 108.853 122.206 108.616 122.223 108.31C122.24 107.997 122.002 107.734 121.697 107.708L114.809 107.267L113.443 107.183L113.782 107.683L113.715 107.742L113.087 108.293Z" fill="#738D9A"/>
<path d="M113.443 107.182L113.782 107.683L113.715 107.742L114.809 107.267L119.407 105.258C119.695 105.13 119.822 104.8 119.704 104.511C119.576 104.223 119.245 104.096 118.957 104.223L113.155 106.75L113.443 107.182Z" fill="#738D9A"/>
<path d="M193.565 325.389C167.549 325.389 146.459 322.272 146.459 318.428C146.459 314.583 167.549 311.466 193.565 311.466C219.581 311.466 240.671 314.583 240.671 318.428C240.671 322.272 219.581 325.389 193.565 325.389Z" fill="#D1D9DD"/>
<path d="M224.451 229.171C224.409 229.629 224.35 230.062 224.29 230.452C224.214 230.926 224.137 231.351 224.044 231.715C221.253 242.857 208.546 283.5 208.546 283.5C208.546 283.5 205.373 282.788 202.251 282.084C201.904 282.008 201.547 281.932 201.191 281.855C200.444 281.686 199.706 281.516 199.062 281.372C199.062 281.372 201.327 260.436 201.14 254.059C200.86 244.528 202.345 228.535 203.956 225.355L197.603 176.123C196.754 176.063 195.796 175.978 194.837 175.868L187.839 227.238C187.839 227.238 189.552 244.918 187.924 255.06C185.981 267.118 184.463 296.457 184.463 296.457L182.639 296.406L181.561 296.381L174.826 296.194L169.634 239.703L169.566 231.936L169.558 230.647L168.913 153.295C168.913 153.295 215.154 149.089 221.508 152.863C221.525 152.837 226.216 212.814 224.451 229.171Z" fill="#181818"/>
<path d="M224.451 229.171C224.409 229.629 224.349 230.062 224.29 230.452C223.527 230.443 222.822 230.384 222.203 230.308C220.566 230.113 219.472 229.773 219.378 229.748C219.039 229.638 218.861 229.282 218.971 228.942C219.073 228.603 219.438 228.417 219.769 228.527C219.802 228.527 221.771 229.137 224.451 229.171Z" fill="#464648"/>
<path d="M174.554 231.207C174.452 231.232 173.367 231.571 171.721 231.775C171.085 231.851 170.364 231.902 169.583 231.91L169.575 230.621C172.213 230.588 174.13 229.994 174.164 229.977C174.495 229.875 174.86 230.062 174.961 230.393C175.072 230.74 174.885 231.096 174.554 231.207Z" fill="#464648"/>
<path d="M206.603 225.372C206.62 225.474 206.612 225.576 206.586 225.669C206.154 227.517 203.295 241.907 203.295 251.252C203.295 256.238 201.649 276.36 201.191 281.838C201.539 281.914 201.895 281.999 202.251 282.075C202.693 276.759 204.372 256.391 204.372 251.252C204.372 242.001 207.206 227.738 207.63 225.906C207.681 225.686 207.689 225.448 207.664 225.219L201.055 175.342C201.013 175.045 200.741 174.842 200.453 174.876C200.156 174.918 199.953 175.19 199.986 175.478L206.603 225.372Z" fill="#464648"/>
<path d="M181.578 296.364L182.656 296.398C182.766 293.778 184.081 263.709 185.54 255.009C187.338 244.342 185.379 227.611 185.226 226.348L192.818 175.504C192.861 175.207 192.657 174.936 192.36 174.893C192.063 174.851 191.792 175.054 191.75 175.343L184.149 226.254C184.14 226.305 184.14 226.348 184.149 226.399C184.174 226.577 186.303 243.943 184.48 254.814C183.004 263.607 181.689 293.846 181.578 296.364Z" fill="#464648"/>
<path d="M197.552 292.625C201.267 296.856 202.837 297.865 205.356 294.669L206.188 289.615L206.764 286.121L199.486 284.222L198.824 287.105L197.552 292.625Z" fill="#FDBB92"/>
<path d="M198.824 287.114L206.188 289.624L206.764 286.121L199.486 284.23L198.824 287.114Z" fill="#181818"/>
<path d="M197.535 280.007C196.551 282.381 196.5 283.416 196.78 285.374C196.78 285.374 202.09 287.418 209.114 287.978L210.005 282.457C210.005 282.457 205.458 281.406 197.535 280.007Z" fill="#464648"/>
<path d="M195.372 297.805C195.321 298.06 195.202 298.314 195.219 298.577C195.278 299.789 203.134 310.652 207.341 316.545C209.691 319.827 214.925 319.471 217.275 317.181C218.361 316.138 218.929 314.603 218.539 312.661C218.233 311.093 216.689 309.532 216.028 307.981C215.01 305.606 210.76 297.517 210.76 297.517C210.76 297.517 211.405 292.895 207.231 291.513C203.057 290.131 201.284 292.98 201.284 292.98C199.138 292.929 198.705 289.987 198.451 288.664C198.459 288.673 196.559 292.158 195.372 297.805Z" fill="#E04E39"/>
<path d="M195.372 297.805C195.321 298.059 195.16 298.322 195.219 298.576C195.592 300.298 203.592 311.253 207.341 316.545C209.674 319.835 214.925 319.47 217.275 317.181C215.51 318.241 212.27 318.868 209.072 316.172C205.704 313.339 197.984 301.205 195.372 297.805Z" fill="#CF422E"/>
<path d="M206.035 302.969C205.865 302.944 205.713 302.851 205.611 302.698C205.416 302.401 205.492 302.011 205.78 301.808C205.882 301.74 208.207 300.188 210.31 300.171C213.11 300.146 214.229 302.283 214.28 302.376C214.442 302.69 214.314 303.08 214 303.241C213.687 303.402 213.296 303.275 213.135 302.961C213.101 302.902 212.312 301.443 210.319 301.46C208.605 301.469 206.51 302.859 206.493 302.876C206.357 302.969 206.188 302.995 206.035 302.969Z" fill="white"/>
<path d="M205.127 300.51C204.957 300.485 204.805 300.392 204.703 300.239C204.508 299.942 204.584 299.544 204.872 299.349C204.974 299.281 207.299 297.729 209.402 297.712C212.21 297.695 213.322 299.823 213.372 299.917C213.534 300.23 213.406 300.621 213.092 300.782C212.779 300.943 212.388 300.816 212.227 300.502C212.193 300.442 211.404 298.984 209.411 299.001C207.689 299.009 205.611 300.4 205.585 300.417C205.449 300.502 205.28 300.536 205.127 300.51Z" fill="white"/>
<path d="M207.706 305.428C207.536 305.403 207.384 305.31 207.282 305.157C207.087 304.86 207.163 304.462 207.452 304.267C207.553 304.199 209.878 302.647 211.981 302.63C214.789 302.605 215.901 304.742 215.952 304.835C216.113 305.149 215.985 305.539 215.672 305.7C215.358 305.861 214.968 305.734 214.806 305.42C214.772 305.361 213.983 303.902 211.99 303.919C210.268 303.927 208.19 305.318 208.164 305.335C208.028 305.428 207.859 305.454 207.706 305.428Z" fill="white"/>
<path d="M174.834 299.884L174.843 300.927L174.877 307.872H183.275L183.547 303.14L183.699 300.452L174.834 299.884Z" fill="#FDBB92"/>
<path d="M174.834 299.884L174.843 300.927L183.547 303.14L183.699 300.452L174.834 299.884Z" fill="#181818"/>
<path d="M186.499 319.565C187.025 319.217 187.262 318.42 187.287 317.411C187.33 315.706 186.787 313.4 186.074 311.653C185.769 309.601 184.81 305.573 183.487 304.293L183.343 307.473C182.266 306.472 180.535 305.497 177.948 305.565C176.828 305.599 175.852 306.116 174.851 306.684L174.868 303.513C174.868 303.513 173.214 306.04 172.603 308.134C170.321 310.322 168.625 313.527 167.972 316.232C167.878 316.597 167.811 316.961 167.768 317.309C167.098 321.905 184.598 320.811 186.499 319.565Z" fill="#E04E39"/>
<path d="M186.498 319.564C187.024 319.217 187.262 318.42 187.287 317.41C185.302 318.148 181.578 319.242 177.515 319.056C170.559 318.742 168.803 317.368 167.963 316.215C167.87 316.579 167.802 316.944 167.76 317.292C167.098 321.905 184.598 320.811 186.498 319.564Z" fill="#CF422E"/>
<path d="M173.851 310.389C173.664 310.355 173.486 310.254 173.367 310.084C173.146 309.753 173.231 309.295 173.562 309.075C173.672 308.999 176.311 307.235 178.703 307.209C181.884 307.175 183.156 309.601 183.216 309.702C183.402 310.058 183.258 310.499 182.902 310.677C182.546 310.864 182.104 310.72 181.926 310.364C181.892 310.296 180.985 308.642 178.72 308.668C176.76 308.685 174.402 310.262 174.376 310.279C174.224 310.381 174.029 310.415 173.851 310.389Z" fill="white"/>
<path d="M174.232 307.837C174.045 307.804 173.867 307.702 173.749 307.532C173.528 307.201 173.613 306.744 173.944 306.523C174.054 306.447 176.692 304.683 179.084 304.658C182.266 304.624 183.538 307.049 183.597 307.151C183.784 307.507 183.64 307.948 183.283 308.126C182.927 308.312 182.486 308.168 182.308 307.812C182.274 307.744 181.366 306.091 179.101 306.116C177.142 306.133 174.784 307.71 174.758 307.727C174.597 307.837 174.41 307.871 174.232 307.837Z" fill="white"/>
<path d="M185.922 295.508L185.727 300.689L172.621 300.129L172.315 294.923L185.922 295.508Z" fill="#464648"/>
<path d="M225.41 155.187C225.571 154.585 225.664 153.957 225.673 153.313C225.707 150.955 225.614 148.199 225.24 145.469C225.122 144.613 225.003 143.722 224.884 142.806C224.74 141.679 224.587 140.517 224.434 139.321C224.324 138.448 224.214 137.557 224.104 136.65C223.968 135.488 223.832 134.31 223.696 133.114C223.595 132.232 223.501 131.333 223.408 130.435C222.899 125.542 222.483 120.547 222.28 115.994C222.237 115.01 222.195 114.043 222.161 113.085C222.11 111.796 222.068 110.541 222.034 109.312C222.008 108.32 221.983 107.344 221.966 106.403C221.957 106.106 221.957 105.818 221.949 105.53C221.932 104.529 221.932 103.563 221.932 102.63C221.932 101.96 221.94 101.307 221.949 100.679C221.949 100.629 221.949 100.578 221.949 100.527C221.957 100.255 221.957 99.9926 221.966 99.7213C222.339 82.7959 225.41 67.9989 221.703 62.9365C218.513 58.578 200.377 51.2686 200.377 51.2686L187.576 51.6671C187.576 51.6671 166.25 63.2842 165.698 67.6852C165.206 71.6027 167.607 88.5281 168.633 99.7213C168.71 100.552 168.778 101.358 168.837 102.121C168.854 102.291 168.862 102.46 168.879 102.63C168.905 102.944 168.922 103.24 168.947 103.537C168.964 103.766 168.973 103.995 168.99 104.224C169.024 104.911 169.049 105.64 169.066 106.403C169.083 107.327 169.083 108.294 169.066 109.312C169.049 110.516 169.015 111.779 168.964 113.085C168.93 114.035 168.879 115.002 168.82 115.994C168.549 120.522 167.963 125.652 167.259 130.757C167.132 131.656 167.013 132.546 166.877 133.436C166.708 134.632 166.53 135.819 166.351 136.998C166.216 137.905 166.071 138.795 165.936 139.677C165.749 140.881 165.554 142.052 165.376 143.196C165.223 144.112 165.079 145.003 164.943 145.867C164.528 148.411 164.366 150.887 164.341 153.033C164.332 153.779 164.434 154.5 164.621 155.178C185.684 156.9 206.009 157.044 225.41 155.187Z" fill="white"/>
<path d="M214.216 156.705H181.54V152.228H214.216V156.705Z" fill="#464648"/>
<path d="M205.916 152.015H206.713V156.899H205.916V152.015Z" fill="#E0E0E0"/>
<path d="M186.405 152.015H187.202V156.899H186.405V152.015Z" fill="#E0E0E0"/>
<path d="M192.436 158.637H200.97C202.124 158.637 203.066 157.696 203.066 156.543V152.693C203.066 151.54 202.124 150.599 200.97 150.599H192.436C191.283 150.599 190.341 151.54 190.341 152.693V156.543C190.341 157.696 191.283 158.637 192.436 158.637ZM200.962 152.345C201.157 152.345 201.31 152.498 201.31 152.693V156.543C201.31 156.738 201.157 156.891 200.962 156.891H192.428C192.233 156.891 192.08 156.738 192.08 156.543V152.693C192.08 152.498 192.233 152.345 192.428 152.345H200.962Z" fill="#E0E0E0"/>
<path d="M196.695 155.491H202.183C202.667 155.491 203.057 155.101 203.057 154.618C203.057 154.134 202.667 153.744 202.183 153.744H196.695C196.211 153.744 195.821 154.134 195.821 154.618C195.83 155.101 196.22 155.491 196.695 155.491Z" fill="#E0E0E0"/>
<path d="M195.245 134.114C194.692 134.114 194.244 133.666 194.244 133.114C194.244 132.561 194.692 132.113 195.245 132.113C195.797 132.113 196.246 132.561 196.246 133.114C196.246 133.666 195.797 134.114 195.245 134.114Z" fill="#E0E0E0"/>
<path d="M195.245 143.357C194.692 143.357 194.244 142.909 194.244 142.356C194.244 141.803 194.692 141.355 195.245 141.355C195.797 141.355 196.246 141.803 196.246 142.356C196.246 142.909 195.797 143.357 195.245 143.357Z" fill="#E0E0E0"/>
<path d="M201.7 117.595L195.898 128.153L189.154 117.595L193.565 68.3711L193.735 66.5141L196.661 66.4717L196.873 68.6001L201.7 117.595Z" fill="#E04E39"/>
<path d="M196.873 68.6001L195.423 71.7884L193.565 68.3711L193.735 66.5141L196.661 66.4717L196.873 68.6001Z" fill="#CF422E"/>
<path d="M195.211 58.5859L191.885 62.9445L195.253 69.4568L198.468 62.6477L195.211 58.5859Z" fill="#E04E39"/>
<path d="M187.915 68.575L195.228 59.1032L202.184 67.4896L206.518 60.672C206.612 60.5193 206.569 60.3158 206.417 60.2225C206.264 60.1293 206.06 60.1717 205.967 60.3243L202.116 66.3788L195.211 58.0518L187.966 67.4472L185.116 63.1141C185.014 62.9615 184.81 62.9191 184.666 63.0208C184.514 63.1226 184.471 63.3261 184.573 63.4703L187.915 68.575Z" fill="#E0E0E0"/>
<path d="M201.293 54.8724C197.162 56.9584 191.809 57.3569 187.355 54.8555L187.61 50.4884L188.051 42.8652L199.477 44.4848L200.987 44.4255L200.979 44.9682L201.089 48.6144L201.293 54.8724Z" fill="#FDBB92"/>
<path d="M187.61 50.4877L195.015 56.5846L201.293 50.2588C201.293 50.2588 206.128 54.0068 199.215 56.5846C195.1 58.1194 185.973 56.0589 185.973 56.0589C185.973 56.0589 185.031 50.8269 187.61 50.4877Z" fill="white"/>
<path d="M201.089 48.6141C197.925 50.7764 191.13 51.1071 187.61 50.4881C187.601 50.4881 187.584 50.4881 187.576 50.4796L188.051 42.8564L199.477 44.4761L200.987 44.4167L200.979 44.9594L201.089 48.6141Z" fill="#181818"/>
<path d="M206.264 28.229C206.264 28.229 212.007 25.0491 211.625 31.6463C211.201 38.9133 206.171 37.7771 205.297 37.4633L206.264 28.229Z" fill="#FD9676"/>
<path d="M207.638 34.835C207.621 34.835 207.613 34.835 207.596 34.835C207.392 34.8096 207.248 34.6315 207.265 34.428C207.579 31.4431 209.547 30.1288 209.632 30.0779C209.801 29.9677 210.03 30.0186 210.141 30.1882C210.251 30.3577 210.2 30.5867 210.03 30.6969C209.954 30.7478 208.266 31.8926 207.994 34.5128C207.986 34.6993 207.825 34.835 207.638 34.835Z" fill="#FD7764"/>
<path d="M209.86 33.2747C209.759 33.2747 209.648 33.2323 209.581 33.1475C209.572 33.1305 209.012 32.4861 208.367 32.5793C208.164 32.6048 207.977 32.4691 207.952 32.2656C207.926 32.0621 208.062 31.8755 208.266 31.8501C209.309 31.7059 210.106 32.6387 210.14 32.6811C210.268 32.8337 210.251 33.0712 210.09 33.1983C210.022 33.2407 209.937 33.2747 209.86 33.2747Z" fill="#FD7764"/>
<path d="M198.188 49.9879C193.335 51.1411 187.474 48.5294 183.792 42.5512C183.249 41.6609 182.655 40.6009 182.223 39.3289C182.18 39.2018 182.138 39.0661 182.095 38.9389C182.036 38.7354 181.977 38.5319 181.917 38.3199C180.127 31.8075 180.399 22.0983 180.399 22.0983C183.512 15.5096 192.385 15.8149 197.518 15.8912C202.65 15.9675 207.18 17.8076 208.274 27.839C208.333 28.3902 208.376 28.9329 208.384 29.4841C208.681 39.0406 202.777 48.9025 198.188 49.9879Z" fill="#FDBB92"/>
<path d="M183.224 31.9513C183.224 31.9513 183.224 29.9501 181.68 28.5933C180.043 27.1518 177.371 27.1518 176.573 29.7466C175.089 34.563 179.78 39.956 182.995 38.6417L183.224 31.9513Z" fill="#FDBB92"/>
<path d="M181.315 35.4623C181.137 35.4623 180.993 35.3351 180.967 35.157C180.62 32.3672 178.635 31.1461 178.618 31.1377C178.448 31.0359 178.397 30.8239 178.499 30.6543C178.601 30.4847 178.813 30.4339 178.982 30.5356C179.076 30.595 181.281 31.9348 181.671 35.0722C181.697 35.2673 181.561 35.4368 181.366 35.4623C181.349 35.4623 181.332 35.4623 181.315 35.4623Z" fill="#FD9676"/>
<path d="M178.813 33.8427C178.728 33.8427 178.652 33.8172 178.584 33.7579C178.44 33.6307 178.423 33.4102 178.55 33.266C178.584 33.2237 179.441 32.2485 180.577 32.3757C180.772 32.4011 180.908 32.5707 180.883 32.7658C180.857 32.9608 180.688 33.0965 180.492 33.071C179.729 32.9862 179.084 33.7155 179.076 33.7239C179.008 33.8087 178.915 33.8427 178.813 33.8427Z" fill="#FD9676"/>
<path d="M198.188 49.9875C193.336 51.1408 187.474 48.529 183.792 42.5509C183.249 41.6605 182.656 40.6006 182.223 39.3286C182.138 38.9979 182.113 38.8283 182.113 38.8283C182.113 38.8283 183.665 38.1584 183.36 36.0894C183.173 34.8005 182.554 31.7224 182.554 31.7224L183.767 31.9089C183.767 31.9089 184.692 36.3268 187.101 40.1936C189.646 36.6406 196.432 37.6327 196.432 37.6327C201.344 36.5727 204.644 38.4722 205.874 39.371C207.417 36.2844 207.969 32.6043 208.028 29.5177L208.376 29.4668C208.681 39.0403 202.777 48.9021 198.188 49.9875Z" fill="#181818"/>
<path d="M195.677 10.9055C183.58 9.49785 178.278 17.8757 177.6 22.2512C176.93 26.6183 178.338 27.7376 178.338 27.7376C182.333 28.1785 182.554 31.7315 182.554 31.7315L183.767 31.9265C183.767 31.9265 183.368 27.551 184.98 26.0925C185.922 25.2361 185.192 23.0059 184.429 21.31C184.064 20.496 184.768 19.6056 185.642 19.7921C187.262 20.1313 189.781 20.5214 193.276 20.7164C198.425 21.0047 202.073 19.8854 203.575 19.3088C203.956 19.1646 204.381 19.4106 204.423 19.8176C204.873 23.4384 206.45 25.3378 208.028 29.5353L208.376 29.4844C208.376 29.4844 209.318 24.1676 207.765 20.0889C206.213 16.0017 202.938 11.7534 195.677 10.9055Z" fill="#181818"/>
<path d="M178.338 27.7371C177.209 27.7032 174.834 16.8407 176.285 15.8571C177.421 15.0939 178.448 15.8571 178.448 15.8571C178.448 15.8571 176.336 12.8892 177.812 12.5585C179.288 12.2278 180.382 13.0927 180.382 13.0927C180.382 13.0927 185.947 7.60641 192.411 7.55554C200.894 7.47922 204.957 1.45019 208.741 5.32539C212.524 9.20907 211.735 16.9764 207.01 18.3671C207.002 18.3671 185.412 15.9758 178.338 27.7371Z" fill="#181818"/>
<path d="M206.612 20.3006L206.442 19.4442C206.467 19.4357 209.063 18.8845 210.251 16.5441C211.252 14.5684 210.989 11.8888 209.47 8.59021L210.259 8.22559C211.896 11.787 212.151 14.721 211.014 16.9511C209.64 19.6646 206.73 20.2752 206.612 20.3006Z" fill="#181818"/>
<path d="M207.002 35.8263C207.01 36.4114 205.814 36.8947 204.338 36.9117C202.862 36.9202 201.666 36.4538 201.658 35.8687C201.649 35.2836 202.845 34.8003 204.321 34.7833C205.806 34.7748 207.002 35.2412 207.002 35.8263Z" fill="#FD9676"/>
<path d="M190.333 35.8263C190.341 36.4114 189.145 36.8947 187.669 36.9117C186.193 36.9202 184.997 36.4538 184.988 35.8687C184.98 35.2836 186.176 34.8003 187.652 34.7833C189.128 34.7748 190.324 35.2412 190.333 35.8263Z" fill="#FD9676"/>
<path d="M196.661 37.4722C196.525 37.4722 196.398 37.3874 196.347 37.2517C196.279 37.0821 196.373 36.8871 196.542 36.8193C197.077 36.6242 198.197 36.0137 198.069 35.5219C197.832 34.5891 196.313 30.4341 196.296 30.3917C196.237 30.2136 196.322 30.0271 196.5 29.9592C196.678 29.8999 196.865 29.9847 196.933 30.1627C196.992 30.3323 198.476 34.3941 198.731 35.3608C199.045 36.5818 197.017 37.3704 196.788 37.4552C196.737 37.4637 196.704 37.4722 196.661 37.4722Z" fill="#FD9676"/>
<path d="M191.478 31.6293C191.486 32.5875 191.054 33.3676 190.519 33.3761C189.985 33.3761 189.544 32.6044 189.535 31.6462C189.527 30.688 189.959 29.9079 190.494 29.8994C191.037 29.8994 191.478 30.6711 191.478 31.6293Z" fill="#181818"/>
<path d="M202.26 31.6293C202.268 32.5875 201.836 33.3676 201.301 33.3761C200.767 33.3761 200.326 32.6044 200.317 31.6462C200.309 30.688 200.741 29.9079 201.276 29.8994C201.81 29.8994 202.251 30.6711 202.26 31.6293Z" fill="#181818"/>
<path d="M202.141 39.4053C201.657 40.6348 200.834 41.9152 199.452 42.6869C199.325 42.7632 199.18 42.831 199.045 42.8904C198.239 43.255 197.263 43.4501 196.084 43.3907C195.117 43.3398 194.286 42.9837 193.59 42.4579C193.454 42.3562 193.319 42.246 193.191 42.1272C192.36 41.3726 191.732 40.3889 191.283 39.4816L202.141 39.4053Z" fill="white"/>
<path d="M186.982 28.3902C186.753 28.3139 186.558 28.1358 186.481 27.8899C186.346 27.4829 186.566 27.0419 186.982 26.9063C187.109 26.8639 190.095 25.8972 193.098 27.2455C193.497 27.4235 193.666 27.8814 193.497 28.28C193.319 28.6785 192.861 28.8481 192.462 28.6785C190.027 27.5846 187.499 28.3902 187.474 28.3987C187.304 28.4496 187.135 28.4411 186.982 28.3902Z" fill="#181818"/>
<path d="M205.008 28.305C204.864 28.3644 204.703 28.3813 204.533 28.3474C204.482 28.3389 201.903 27.7962 199.596 29.1191C199.223 29.3311 198.739 29.2039 198.527 28.8308C198.315 28.4576 198.442 27.9743 198.816 27.7623C201.674 26.1257 204.745 26.7956 204.873 26.8211C205.297 26.9144 205.56 27.3383 205.466 27.7538C205.407 28.0167 205.237 28.2117 205.008 28.305Z" fill="#181818"/>
<path d="M210.013 72.4753L220.795 115.289C221.084 116.442 221.618 117.528 222.365 118.46L227.531 124.913L229.219 127.025L245.829 147.783C247.474 149.835 249.892 150.912 252.335 150.912C254.159 150.912 256 150.318 257.535 149.089C261.132 146.214 261.709 140.974 258.833 137.387L236.777 109.837L236.718 109.752L236.497 109.48L236.362 108.946L236.285 108.649L226.157 68.4136C225.037 63.9533 220.507 61.2483 216.045 62.3761C211.6 63.4869 208.894 68.015 210.013 72.4753Z" fill="#181818"/>
<path d="M231 113.627C231.111 113.762 231.272 113.839 231.441 113.839C231.569 113.839 231.687 113.796 231.798 113.711L235.191 110.981L236.726 109.743L236.506 109.472L236.37 108.937L236.294 108.641L231.085 112.83C230.848 113.025 230.814 113.381 231 113.627Z" fill="#464648"/>
<path d="M233.927 116.255C233.986 116.272 234.054 116.289 234.114 116.289C234.343 116.289 234.563 116.145 234.648 115.916L236.794 109.828L236.735 109.743L236.514 109.472L236.379 108.937C236.124 108.903 235.878 109.056 235.785 109.31L235.191 110.981L233.579 115.543C233.486 115.831 233.639 116.153 233.927 116.255Z" fill="#464648"/>
<path d="M266.391 145.494C263.923 146.113 262.803 145.765 263.863 147.775C264.016 148.072 264.33 148.462 264.72 148.911C261.386 151.387 257.934 153.694 254.71 156.288C252.725 153.558 250.893 150.37 250.113 147.393C250.197 145.765 253.616 141.034 258.867 141.966C263.736 142.823 265.026 142.127 268.478 143.23C271.473 144.18 268.86 144.883 266.391 145.494Z" fill="#FDBB92"/>
<path d="M257.315 156.526C257.332 156.526 257.34 156.526 257.357 156.526C257.586 156.5 263.049 155.788 264.661 151.039C264.72 150.861 264.627 150.675 264.449 150.616C264.271 150.556 264.084 150.649 264.025 150.827C262.549 155.178 257.332 155.856 257.281 155.856C257.094 155.881 256.967 156.042 256.984 156.229C257.001 156.399 257.145 156.526 257.315 156.526Z" fill="#FD9676"/>
<path d="M259.104 152.371C259.181 152.371 259.266 152.346 259.325 152.286C259.461 152.159 259.478 151.947 259.35 151.811C259.317 151.778 256.042 148.038 258.044 145.146C258.146 144.994 258.112 144.782 257.959 144.68C257.807 144.57 257.595 144.612 257.493 144.765C255.194 148.097 258.706 152.091 258.85 152.261C258.926 152.337 259.02 152.371 259.104 152.371Z" fill="#FD9676"/>
<path d="M229.643 148.105L246.27 168.677C246.923 169.483 248.094 169.601 248.899 168.957L279.515 144.23C280.32 143.577 280.439 142.407 279.794 141.601L263.168 121.03C262.515 120.224 261.344 120.106 260.538 120.75L229.923 145.477C229.117 146.121 228.99 147.3 229.643 148.105Z" fill="#738D9A"/>
<path d="M250.715 144.849C250.715 147.054 252.505 148.843 254.71 148.843C256.916 148.843 258.706 147.054 258.706 144.849C258.706 142.645 256.916 140.855 254.71 140.855C252.505 140.855 250.715 142.645 250.715 144.849Z" fill="#577888"/>
<path d="M259.783 124.871C259.783 125.507 260.3 126.024 260.937 126.024C261.573 126.024 262.09 125.507 262.09 124.871C262.09 124.235 261.573 123.718 260.937 123.718C260.3 123.718 259.783 124.235 259.783 124.871Z" fill="#577888"/>
<path d="M275.333 142.517C275.333 143.153 275.85 143.671 276.486 143.671C277.122 143.671 277.64 143.153 277.64 142.517C277.64 141.882 277.122 141.364 276.486 141.364C275.85 141.364 275.333 141.882 275.333 142.517Z" fill="#577888"/>
<path d="M270.752 154.778C271.439 153.956 271.38 152.735 270.718 151.878C269.191 149.919 265.976 146.129 264.16 146.46C261.717 146.909 268.665 155.304 268.665 155.304C268.665 155.304 269.819 155.889 270.752 154.778Z" fill="#FDBB92"/>
<path d="M262.735 160.113C263.295 159.443 263.244 158.451 262.701 157.755C261.463 156.161 258.842 153.075 257.366 153.346C255.381 153.711 261.03 160.545 261.03 160.545C261.03 160.545 261.98 161.02 262.735 160.113Z" fill="#FDBB92"/>
<path d="M266.001 158.238C266.341 157.56 266.23 156.737 265.772 156.135C264.271 154.177 260.589 149.682 258.553 150.064C256.466 150.445 260.81 156.263 262.608 158.56C263.49 159.688 265.289 159.603 265.95 158.332C265.967 158.298 265.984 158.272 266.001 158.238Z" fill="#FDBB92"/>
<path d="M267.8 156.348C268.716 155.483 268.724 154.024 267.952 153.032C266.324 150.946 262.913 146.927 260.988 147.283C258.392 147.766 265.781 156.695 265.781 156.695C265.781 156.695 266.85 157.238 267.8 156.348Z" fill="#FDBB92"/>
<path d="M186.108 101.849C186.346 117.375 184.666 146.978 184.776 162.708C178.007 162.241 166.623 161.105 162.543 158.29C156.011 153.787 165.02 116.875 166.241 109.676C167.463 102.477 162.763 71.8652 164.994 65.7853C167.225 59.7053 187.593 50.4795 187.593 50.4795C187.567 51.2087 188.891 55.9828 189.137 56.5764C188.458 66.1499 185.888 87.4847 186.108 101.849Z" fill="#181818"/>
<path d="M181.646 132.893C181.901 132.757 182.036 132.452 181.952 132.163C181.858 131.824 181.502 131.629 181.171 131.722C170.381 134.75 166.886 124.845 166.742 124.421C166.631 124.091 166.266 123.913 165.936 124.023C165.605 124.133 165.427 124.498 165.537 124.828C165.579 124.947 169.583 136.301 181.519 132.952C181.561 132.935 181.604 132.918 181.646 132.893Z" fill="#464648"/>
<path d="M187.618 50.2588C184.743 51.2255 181.969 52.6416 179.313 54.6512L179.67 69.126L183.801 70.6778L179.746 76.9866L180.874 110.575L185.922 118.054C185.922 118.054 187.678 90.4778 188.433 79.5475C188.831 73.7728 189.145 56.5846 189.145 56.5846L187.618 50.2588Z" fill="#464648"/>
<path d="M228.269 158.29C224.239 161.062 214.56 162.216 207.723 162.69C207.172 152.803 205.755 127.135 205.288 117.333C204.771 106.394 202.43 64.1739 200.886 55.0668C201.2 54.1849 201.276 50.4115 201.089 49.377C201.089 49.377 223.569 59.7136 225.809 65.7935C228.048 71.865 223.34 102.477 224.57 109.684C225.792 116.875 234.792 153.787 228.269 158.29Z" fill="#181818"/>
<path d="M209.157 134.368C209.199 134.393 209.241 134.41 209.292 134.427C221.075 138.294 225.563 127.118 225.614 127.008C225.741 126.677 225.588 126.312 225.249 126.185C224.918 126.058 224.553 126.219 224.426 126.55C224.265 126.965 220.312 136.708 209.691 133.223C209.36 133.113 208.995 133.299 208.885 133.63C208.792 133.91 208.911 134.215 209.157 134.368Z" fill="#464648"/>
<path d="M201.098 48.9189C204.355 50.0891 207.435 51.4459 209.903 53.4047L211.133 68.1169L207.231 70.364L211.481 76.9866L210.353 110.574L205.305 118.053C205.305 118.053 203.549 90.4777 202.794 79.5474C202.396 73.7728 200.886 55.0582 200.886 55.0582L201.098 48.9189Z" fill="#464648"/>
<path d="M223.832 107.853C224.426 111.999 226.25 119.716 227.539 124.914L229.228 127.025C228.006 122.166 225.631 112.491 224.944 107.692C224.019 101.205 226.012 84.1775 226.029 84.0079C226.072 83.7026 225.851 83.4228 225.537 83.3804C225.232 83.3465 224.952 83.567 224.91 83.8722C224.825 84.5845 222.882 101.222 223.832 107.853Z" fill="#464648"/>
<path d="M224.579 93.8182C224.757 93.8182 224.935 93.7334 225.045 93.5723L227.785 89.5869C227.963 89.3325 227.896 88.9764 227.641 88.8068C227.387 88.6287 227.039 88.6965 226.861 88.9509L224.121 92.9364C223.942 93.1907 224.01 93.5384 224.265 93.7165C224.358 93.7843 224.477 93.8182 224.579 93.8182Z" fill="#464648"/>
<path d="M143.855 107.878L145.568 147.987C145.763 152.456 149.445 155.958 153.881 155.958C154 155.958 154.119 155.958 154.238 155.949C158.836 155.754 162.398 151.871 162.203 147.275L160.659 111.058L160.651 110.855L160.6 109.769L160.583 109.439L160.727 109.167L178.677 75.3758C180.84 71.3141 179.288 66.2772 175.225 64.1149C171.161 61.9525 166.122 63.5043 163.959 67.5661L144.796 103.622C144.126 104.927 143.795 106.394 143.855 107.878Z" fill="#181818"/>
<path d="M152.694 106.937L160.668 111.066L160.659 110.863L160.608 109.777L159.31 109.107L153.203 105.953C152.931 105.809 152.592 105.919 152.448 106.199C152.312 106.453 152.422 106.792 152.694 106.937Z" fill="#464648"/>
<path d="M156.418 105.02L159.319 109.091L160.439 110.668C160.498 110.753 160.574 110.812 160.659 110.854L160.608 109.769L160.591 109.438L160.736 109.167L157.325 104.376C157.147 104.122 156.791 104.062 156.545 104.24C156.29 104.418 156.231 104.766 156.418 105.02Z" fill="#464648"/>
<path d="M150.785 146.359C152.473 145.367 155.222 144.485 158.886 145.774C158.886 145.774 163.832 150.167 164.502 152.414C165.181 154.661 164.349 157.858 163.696 158.4C163.043 158.943 161.974 158.833 162.144 156.806C162.313 154.779 161.414 153.033 160.456 152.702C159.497 152.363 159.786 155.042 160.286 158.68C160.795 162.318 161.448 162.547 162.636 165.642C163.832 168.737 161.745 167.499 160.116 165.642C158.488 163.785 157.639 158.892 157.639 158.892C157.639 158.892 157.554 161.478 157.979 162.886C158.513 164.692 161.389 168.16 160.481 168.839C159.582 169.517 157.147 166.914 156.138 164.328C155.128 161.741 155.052 160.927 155.052 160.927C155.052 160.927 154.959 162.869 155.408 164.048C155.858 165.226 158.276 169.085 157.495 169.432C156.757 169.754 154.289 167.541 153.559 165.845C152.829 164.158 152.694 161.987 152.694 161.987C152.694 161.987 152.074 163.954 152.634 165.472C153.194 166.99 154.102 168.627 153.143 168.457C152.185 168.288 150.437 165.922 150.386 162.996C150.327 160.071 149.826 157.934 149.657 156.586C149.547 155.678 149.224 152.057 149.029 149.793C148.893 148.394 149.58 147.063 150.785 146.359Z" fill="#FDBB92"/>
</svg>
