<svg width="247" height="307" viewBox="0 0 247 307" fill="none" xmlns="http://www.w3.org/2000/svg">
<ellipse cx="123.5" cy="282.5" rx="123.5" ry="24.5" fill="#D1D9DD"/>
<g clip-path="url(#clip0)">
<path d="M71.131 254.358L58.2129 273.228H188.787L174.662 254.417L71.131 254.358Z" fill="#C6422F"/>
<path d="M209 57.0176L208.913 57.1515L194.881 78.8693H52.1194L38.087 57.1515L38 57.0176H209Z" fill="#C6422F"/>
<path d="M194.881 57.1514L194.521 63.1268L193.575 78.8691L182.061 270.182H64.9389L53.4251 78.8691L52.4792 63.1268L52.1194 57.1514H194.881Z" fill="#E04E39"/>
<path d="M159.126 93.1296C162.268 96.7689 165.814 100.012 169.133 103.476C170.85 105.268 170.868 105.25 169.079 107.07C166.15 110.041 163.221 113.017 160.293 115.984C158.658 117.637 158.645 117.647 157.078 116.048C153.995 112.911 150.953 109.737 147.843 106.623C146.839 105.618 146.934 104.909 147.92 103.923C151.47 100.367 154.949 96.7321 158.449 93.125C158.672 93.1296 158.899 93.1296 159.126 93.1296Z" fill="#D1D9DD"/>
<path d="M158.921 148.922C158.744 160.222 156.878 167.924 154.576 175.525C151.021 187.277 146.19 198.504 140.768 209.472C139.805 211.421 139.71 211.43 138.207 209.91C133.871 205.515 129.507 201.157 125.239 196.698C124.163 195.574 123.559 195.675 122.538 196.739C118.22 201.231 113.797 205.617 109.461 210.085C108.503 211.076 107.981 211.232 107.29 209.813C100.616 196.113 94.6495 182.141 91.1215 167.22C89.9137 162.129 88.9647 156.97 89.001 151.709C89.0737 141.91 92.8015 133.471 98.7178 125.929C105.311 117.522 113.538 111.096 122.674 105.789C123.491 105.314 124.209 105.222 125.053 105.711C136.119 112.142 145.903 120.019 152.787 131.13C156.765 137.557 159.058 144.513 158.921 148.922ZM106.246 151.796C106.328 153.091 106.346 154.537 106.514 155.961C107.613 165.031 110.16 173.738 113.016 182.366C113.497 183.827 113.924 183.772 114.887 182.767C117.529 179.999 120.263 177.318 122.924 174.563C123.65 173.812 124.222 173.609 125.03 174.461C127.628 177.193 130.275 179.879 132.899 182.583C133.281 182.975 133.512 183.702 134.171 183.555C134.725 183.426 134.706 182.73 134.874 182.261C137.458 174.936 139.556 167.473 140.873 159.798C141.635 155.366 142.235 150.903 141.231 146.434C139.065 136.769 132.949 130.168 124.962 125.04C124.022 124.437 123.264 124.796 122.456 125.326C118.324 128.044 114.673 131.301 111.727 135.304C108.162 140.137 106.146 145.545 106.246 151.796Z" fill="#D1D9DD"/>
<path d="M124.023 210.398C124.522 210.477 124.808 210.854 125.122 211.172C128.336 214.415 131.524 217.686 134.77 220.892C135.66 221.772 135.692 222.56 135.174 223.643C131.683 230.93 128.232 238.241 124.758 245.538C124.572 245.93 124.522 246.543 123.982 246.57C123.414 246.603 123.369 245.985 123.183 245.594C119.691 238.241 116.213 230.88 112.699 223.541C112.24 222.583 112.249 221.897 113.048 221.104C116.367 217.806 119.632 214.452 122.924 211.122C123.233 210.808 123.514 210.412 124.023 210.398Z" fill="#D1D9DD"/>
<path d="M115.809 150.437C115.813 145.706 119.314 142.154 123.977 142.145C128.518 142.136 132.218 145.863 132.237 150.456C132.255 155.076 128.604 158.808 124.045 158.821C119.278 158.831 115.804 155.297 115.809 150.437Z" fill="#D1D9DD"/>
<path d="M209 41.2344H38V57.1514H209V41.2344Z" fill="#E04E39"/>
<path d="M194.881 57.1455H52.1194V63.1268H194.881V57.1455Z" fill="#C6422F"/>
<path opacity="0.2" d="M123.5 41.2344V270.182H64.9389L53.4252 78.8692H52.1194L38.087 57.1514H38V41.2344H123.5Z" fill="white"/>
<path d="M188.787 273.229H58.2129V286.001H188.787V273.229Z" fill="#E04E39"/>
<path d="M69.872 34.8516H59.426V41.2347H69.872V34.8516Z" fill="black"/>
<path d="M66.6802 39.5104H62.6179V34.1232C62.6179 30.4773 65.1714 25.9754 68.4328 23.8729L102.127 2.13184L104.326 5.56218L70.6265 27.2974C68.5257 28.6544 66.6802 31.8401 66.6802 34.1173V39.5104Z" fill="black"/>
<path d="M89.8933 8.16557L93.9614 14.2284C93.9614 14.2284 109.839 10.0176 104.831 2.3532C99.8228 -5.30538 89.8933 8.16557 89.8933 8.16557Z" fill="#738D9A"/>
<path d="M86.7595 12.0733L90.6942 7.09961L95.2788 13.8846L88.721 15.6376L86.7595 12.0733Z" fill="#E5E5E5"/>
<path d="M186.227 34.8516H175.781V41.2347H186.227V34.8516Z" fill="black"/>
<path d="M183.036 39.5104H178.973V34.1232C178.973 31.846 177.128 28.6602 175.027 27.3032L141.333 5.56218L143.533 2.13184L177.227 23.8671C180.488 25.9695 183.042 30.4715 183.042 34.1173V39.5104H183.036Z" fill="black"/>
<path d="M155.76 8.16557L151.692 14.2284C151.692 14.2284 135.814 10.0176 140.823 2.3532C145.831 -5.30538 155.76 8.16557 155.76 8.16557Z" fill="#738D9A"/>
<path d="M158.894 12.0733L154.959 7.09961L150.375 13.8846L156.932 15.6376L158.894 12.0733Z" fill="#E5E5E5"/>
<path opacity="0.1" d="M123.5 273.229H58.2129V286.001H123.5V273.229Z" fill="white"/>
</g>
<defs>
<clipPath id="clip0">
<rect x="38" width="171" height="286" fill="white"/>
</clipPath>
</defs>
</svg>
