<svg width="417" height="391" viewBox="0 0 417 391" fill="none" xmlns="http://www.w3.org/2000/svg">
<g clip-path="url(#clip0)">
<path d="M60.9404 360.71C142.2 400.59 273.94 400.59 355.2 360.71C436.46 320.83 436.46 256.18 355.2 216.3C273.94 176.42 142.2 176.42 60.9404 216.3C-20.3096 256.18 -20.3096 320.83 60.9404 360.71Z" fill="white"/>
<path d="M348.49 337.8C366.721 337.8 381.5 330.757 381.5 322.07C381.5 313.383 366.721 306.34 348.49 306.34C330.26 306.34 315.48 313.383 315.48 322.07C315.48 330.757 330.26 337.8 348.49 337.8Z" fill="#D1D9DD"/>
<path d="M206.851 181.43L169.351 203.08C167.961 203.88 166.611 205.82 166.331 207.4L157.011 261.21C156.741 262.79 157.641 264.73 159.031 265.53L183.211 279.49C184.601 280.29 186.861 280.29 188.251 279.49L239.931 249.65C241.321 248.85 242.451 246.97 242.451 245.47C242.451 243.96 241.321 242.09 239.931 241.29L221.331 230.55C219.941 229.75 218.681 227.8 218.521 226.2L214.381 185.6C214.221 184 213.031 182.1 211.721 181.34C210.421 180.58 208.241 180.62 206.851 181.43Z" fill="#263238"/>
<path d="M185.73 270.03V280.09C186.64 280.09 187.55 279.89 188.25 279.49L239.93 249.65C241.32 248.85 242.45 246.97 242.45 245.47C242.45 244.59 242.06 243.59 241.46 242.74H233L185.73 270.03Z" fill="#455A64"/>
<path d="M211.571 184.16L174.071 205.81C172.681 206.61 171.331 208.55 171.051 210.13L162.591 258.98C162.321 260.56 163.221 262.5 164.611 263.3L183.211 274.04C184.601 274.84 186.861 274.84 188.251 274.04L239.931 244.2C241.321 243.4 241.321 242.09 239.931 241.29L221.331 230.55C219.941 229.75 218.681 227.8 218.521 226.2L214.381 185.6C214.221 184 212.961 183.35 211.571 184.16Z" fill="#263238"/>
<path d="M239.931 241.28L221.331 230.54C220.641 230.14 219.991 229.47 219.491 228.7L162.951 261.35C163.311 262.16 163.901 262.88 164.621 263.3L183.221 274.04C184.611 274.84 186.871 274.84 188.261 274.04L239.941 244.2C241.331 243.39 241.331 242.09 239.931 241.28Z" fill="#37474F"/>
<path d="M87.6702 288.45L85.2702 287.06C83.3202 285.94 81.7402 283.2 81.7402 280.95V119.9C81.7402 117.65 83.3202 114.92 85.2702 113.8L282.03 0.840005C283.98 -0.279995 287.14 -0.279995 289.09 0.850005L290.92 1.91001C292.87 3.03001 294.45 5.77001 294.45 8.02001V169.07C294.45 171.32 292.87 174.05 290.92 175.18L94.7302 288.45C92.7802 289.57 89.6202 289.57 87.6702 288.45Z" fill="#455A64"/>
<path d="M95.9205 124.01L82.7705 116.42C82.1305 117.52 81.7305 118.77 81.7305 119.89V280.94C81.7305 283.19 83.3105 285.92 85.2605 287.05L87.6605 288.44C89.6105 289.56 92.7705 289.56 94.7105 288.44L95.9105 287.75L95.9205 124.01Z" fill="#263238"/>
<path d="M91.2012 286.41V125.36C91.2012 123.11 92.7812 120.38 94.7312 119.25L290.921 5.98001C292.871 4.86001 294.451 5.77001 294.451 8.02001V169.07C294.451 171.32 292.871 174.05 290.921 175.18L94.7312 288.45C92.7812 289.57 91.2012 288.66 91.2012 286.41Z" fill="#37474F"/>
<path d="M183.331 226.38L201.921 215.64C203.311 214.84 204.441 215.41 204.441 216.91C204.441 218.41 203.311 220.29 201.921 221.09L183.321 231.83C181.931 232.63 180.801 232.06 180.801 230.56C180.811 229.06 181.931 227.18 183.331 226.38Z" fill="#E0E0E0"/>
<path d="M100.241 124.17L285.011 17.19C286.121 16.55 287.021 17.07 287.021 18.35V158.72C287.021 160.01 286.121 161.57 285.001 162.21L100.241 268.89C99.1307 269.53 98.2207 269.01 98.2207 267.73V127.67C98.2207 126.38 99.1207 124.82 100.241 124.17Z" fill="white"/>
<path d="M113.561 127.68L307.471 15.71C310.551 13.93 313.071 15.39 313.071 18.94V145.46C313.071 147.11 311.901 149.14 310.471 149.96L112.561 264.23C111.131 265.06 109.961 264.38 109.961 262.73V133.92C109.961 131.63 111.581 128.82 113.561 127.68Z" fill="#D1D9DD"/>
<path d="M313.071 21.86V18.94C313.071 15.39 310.551 13.93 307.481 15.71L113.561 127.68C111.581 128.82 109.961 131.63 109.961 133.92V139.14L313.071 21.86Z" fill="#E04E39"/>
<path d="M289.602 28.52C288.542 29.13 287.672 30.63 287.672 31.86C287.672 33.09 288.532 33.59 289.602 32.97C290.662 32.36 291.532 30.86 291.532 29.63C291.532 28.4 290.672 27.9 289.602 28.52Z" fill="white"/>
<path d="M297.25 24.1C296.19 24.71 295.32 26.21 295.32 27.44C295.32 28.67 296.18 29.17 297.25 28.55C298.31 27.94 299.18 26.44 299.18 25.21C299.18 23.99 298.31 23.49 297.25 24.1Z" fill="white"/>
<path d="M304.901 19.69C303.841 20.3 302.971 21.8 302.971 23.03C302.971 24.26 303.831 24.76 304.901 24.14C305.961 23.53 306.831 22.03 306.831 20.8C306.831 19.57 305.961 19.07 304.901 19.69Z" fill="white"/>
<path d="M300.821 44.09C300.661 43.56 300.161 43.39 299.571 43.73L176.251 114.94C175.891 115.15 175.561 115.5 175.331 115.91L171.271 113.56C171.501 113.15 171.831 112.8 172.191 112.59L295.511 41.39C296.231 40.97 297.391 40.97 298.111 41.39L299.571 42.23C300.181 42.58 300.691 43.36 300.821 44.09Z" fill="#EBEBEB"/>
<path d="M300.871 44.48V97.77C300.871 98.6 300.291 99.61 299.571 100.02L176.251 171.22C176.191 171.25 176.131 171.28 176.071 171.31C175.991 171.34 175.911 171.37 175.831 171.38C175.821 171.38 175.801 171.39 175.791 171.39C175.301 171.46 174.951 171.11 174.951 170.47V117.19C174.951 116.77 175.101 116.31 175.331 115.91C175.561 115.5 175.891 115.15 176.251 114.94L299.571 43.73C300.161 43.39 300.661 43.56 300.821 44.09C300.831 44.12 300.841 44.15 300.841 44.19C300.861 44.29 300.871 44.38 300.871 44.48Z" fill="#FAFAFA"/>
<path d="M175.791 171.39C175.411 171.51 174.971 171.55 174.561 171.5C174.231 171.47 173.911 171.37 173.651 171.22L172.191 170.38C171.471 169.96 170.891 168.95 170.891 168.13V114.84C170.891 114.43 171.031 113.97 171.271 113.56L175.331 115.91C175.101 116.31 174.951 116.77 174.951 117.19V170.47C174.951 171.11 175.301 171.46 175.791 171.39Z" fill="#E0E0E0"/>
<path d="M297.04 73.03C296.79 72.91 296.49 73 296.37 73.25L292 81.88C291.87 81.71 291.73 81.56 291.55 81.45C291.01 81.13 290.32 81.18 289.61 81.59C288.5 82.23 287.59 83.63 287.38 84.96L279 83.59C278.91 82.99 278.64 82.53 278.2 82.27C277.65 81.96 276.97 82.01 276.26 82.41C275.78 82.69 275.34 83.1 274.98 83.59L264.35 73.9C264.65 73.29 264.83 72.63 264.83 72.01C264.83 71.2 264.53 70.58 263.99 70.26C263.44 69.95 262.76 70 262.05 70.4C260.77 71.14 259.77 72.87 259.77 74.35C259.77 75.15 260.06 75.76 260.6 76.08L253.06 98.81C252.59 98.68 252.04 98.77 251.49 99.09C250.76 99.51 250.13 100.26 249.71 101.1L240.63 94.56C240.63 94.52 240.64 94.47 240.64 94.43C240.64 93.62 240.34 93 239.8 92.68C239.25 92.37 238.57 92.42 237.86 92.82C236.58 93.56 235.58 95.29 235.58 96.77C235.58 97.28 235.71 97.71 235.94 98.04L228.58 119.57C228.25 119.59 227.89 119.7 227.54 119.91C226.35 120.6 225.41 122.15 225.28 123.56L213.95 130.11C213.82 129.69 213.58 129.35 213.23 129.15C212.68 128.84 212 128.89 211.29 129.29C210.33 129.85 209.52 130.97 209.18 132.12L201.83 129.14C201.86 128.94 201.88 128.74 201.88 128.55C201.88 127.74 201.58 127.12 201.04 126.8C200.5 126.49 199.81 126.54 199.1 126.94C197.82 127.68 196.82 129.41 196.82 130.89C196.82 131.21 196.88 131.49 196.97 131.75L188.58 147.8C188.09 147.63 187.51 147.71 186.92 148.05C185.73 148.74 184.79 150.29 184.66 151.7L178.79 155.09C178.55 155.23 178.47 155.53 178.61 155.77C178.7 155.93 178.87 156.02 179.04 156.02C179.12 156.02 179.21 156 179.29 155.95L184.76 152.79C184.89 153.21 185.13 153.55 185.48 153.75C185.72 153.89 185.98 153.95 186.26 153.95C186.63 153.95 187.02 153.83 187.42 153.6C188.7 152.86 189.7 151.13 189.7 149.65C189.7 149.16 189.58 148.76 189.38 148.43L197.65 132.62C197.66 132.62 197.66 132.63 197.67 132.64C197.91 132.78 198.17 132.84 198.45 132.84C198.82 132.84 199.21 132.72 199.61 132.49C200.45 132 201.17 131.09 201.56 130.1L209.03 133.12C209.03 133.16 209.02 133.19 209.02 133.23C209.02 134.04 209.32 134.66 209.86 134.98C210.1 135.12 210.36 135.18 210.64 135.18C211.01 135.18 211.4 135.06 211.8 134.83C212.99 134.14 213.93 132.59 214.06 131.18L225.39 124.63C225.52 125.05 225.76 125.39 226.11 125.59C226.35 125.73 226.61 125.79 226.89 125.79C227.26 125.79 227.65 125.67 228.05 125.44C229.33 124.7 230.33 122.97 230.33 121.49C230.33 120.72 230.05 120.13 229.56 119.8L236.79 98.63C236.92 98.67 237.06 98.69 237.21 98.69C237.58 98.69 237.97 98.57 238.37 98.34C239.31 97.8 240.09 96.73 240.44 95.61L249.36 102.03C249.28 102.36 249.22 102.69 249.22 103C249.22 103.81 249.52 104.43 250.06 104.75C250.3 104.89 250.56 104.95 250.84 104.95C251.21 104.95 251.6 104.83 252 104.6C253.28 103.86 254.28 102.13 254.28 100.65C254.28 100.14 254.15 99.71 253.92 99.38L261.61 76.22C261.92 76.19 262.24 76.09 262.58 75.9C263.06 75.62 263.5 75.21 263.86 74.72L274.49 84.41C274.19 85.02 274.01 85.68 274.01 86.3C274.01 87.11 274.31 87.73 274.85 88.05C275.09 88.19 275.35 88.25 275.63 88.25C276 88.25 276.39 88.13 276.79 87.9C277.9 87.26 278.81 85.86 279.02 84.53L287.4 85.9C287.49 86.5 287.76 86.96 288.2 87.22C288.44 87.36 288.7 87.42 288.98 87.42C289.35 87.42 289.74 87.3 290.14 87.07C291.38 86.36 292.35 84.71 292.41 83.26L297.29 73.62C297.38 73.45 297.28 73.15 297.04 73.03ZM186.89 152.78C186.51 153 186.17 153.05 185.95 152.92C185.73 152.79 185.61 152.47 185.61 152.04C185.61 150.92 186.43 149.51 187.39 148.96C187.63 148.82 187.86 148.75 188.05 148.75C188.16 148.75 188.25 148.77 188.33 148.82C188.55 148.95 188.67 149.27 188.67 149.7C188.67 150.81 187.85 152.22 186.89 152.78ZM199.07 131.67C198.69 131.89 198.35 131.94 198.13 131.81C197.91 131.68 197.79 131.36 197.79 130.93C197.79 129.82 198.61 128.4 199.57 127.84C199.81 127.7 200.04 127.63 200.23 127.63C200.34 127.63 200.43 127.65 200.51 127.7C200.73 127.83 200.85 128.15 200.85 128.58C200.85 129.7 200.04 131.12 199.07 131.67ZM211.26 134.02C210.88 134.24 210.54 134.29 210.32 134.16C210.1 134.03 209.98 133.71 209.98 133.28C209.98 132.17 210.8 130.75 211.76 130.19C212 130.05 212.23 129.98 212.42 129.98C212.53 129.98 212.62 130 212.7 130.05C212.92 130.18 213.05 130.5 213.05 130.93C213.04 132.05 212.23 133.46 211.26 134.02ZM227.51 124.64C227.14 124.86 226.79 124.91 226.57 124.78C226.35 124.65 226.23 124.33 226.23 123.9C226.23 122.79 227.05 121.37 228.01 120.82C228.25 120.68 228.48 120.61 228.67 120.61C228.78 120.61 228.87 120.63 228.95 120.68C229.17 120.81 229.3 121.13 229.3 121.56C229.29 122.67 228.47 124.08 227.51 124.64ZM237.83 97.54C237.45 97.76 237.11 97.81 236.89 97.68C236.86 97.66 236.83 97.63 236.81 97.6L236.8 97.59C236.64 97.43 236.55 97.16 236.55 96.79C236.55 95.67 237.37 94.26 238.33 93.7C238.57 93.56 238.8 93.49 238.99 93.49C239.1 93.49 239.19 93.51 239.27 93.56C239.49 93.69 239.61 94.01 239.61 94.44C239.61 95.57 238.79 96.98 237.83 97.54ZM251.46 103.81C251.08 104.03 250.74 104.08 250.52 103.95C250.3 103.82 250.18 103.5 250.18 103.07C250.18 101.95 251 100.54 251.96 99.99C252.2 99.85 252.43 99.78 252.62 99.78C252.73 99.78 252.82 99.8 252.9 99.85C252.94 99.87 252.96 99.9 253 99.94C253.16 100.1 253.25 100.37 253.25 100.74C253.24 101.84 252.43 103.25 251.46 103.81ZM262.03 75.11C261.65 75.33 261.31 75.38 261.09 75.25C260.87 75.12 260.75 74.8 260.75 74.37C260.75 73.25 261.57 71.84 262.53 71.29C262.77 71.15 263 71.08 263.19 71.08C263.3 71.08 263.39 71.1 263.47 71.15C263.69 71.28 263.81 71.6 263.81 72.03C263.81 73.14 263 74.55 262.03 75.11ZM276.25 87.11C275.87 87.33 275.53 87.38 275.31 87.25C275.09 87.12 274.97 86.8 274.97 86.37C274.97 85.26 275.79 83.84 276.75 83.29C276.99 83.15 277.22 83.08 277.41 83.08C277.52 83.08 277.61 83.1 277.69 83.15C277.91 83.28 278.03 83.6 278.03 84.03C278.03 85.14 277.22 86.56 276.25 87.11ZM289.61 86.28C289.23 86.5 288.89 86.55 288.67 86.42C288.45 86.29 288.33 85.97 288.33 85.54C288.33 84.43 289.15 83.01 290.11 82.46C290.35 82.32 290.58 82.25 290.77 82.25C290.88 82.25 290.97 82.27 291.05 82.32C291.27 82.45 291.39 82.77 291.39 83.2C291.39 84.31 290.57 85.73 289.61 86.28Z" fill="#E04E39"/>
<path d="M227.71 151.97C227.55 151.44 227.04 151.27 226.46 151.61L176.25 180.6C175.87 180.82 175.53 181.2 175.3 181.63L171.25 179.26C171.49 178.84 171.82 178.47 172.19 178.26L222.39 149.27C223.11 148.85 224.28 148.85 224.99 149.27L226.46 150.11C227.06 150.46 227.57 151.24 227.71 151.97Z" fill="#EBEBEB"/>
<path d="M227.761 152.36L227.751 191.58C227.751 192.41 227.171 193.41 226.461 193.83L179.011 221.22L176.251 222.82C176.191 222.86 176.121 222.89 176.051 222.92C176.041 222.92 176.031 222.93 176.021 222.93C175.401 223.15 174.951 222.8 174.951 222.07V182.85C174.951 182.46 175.081 182.02 175.301 181.63C175.531 181.2 175.871 180.82 176.251 180.6L226.461 151.61C227.041 151.27 227.551 151.44 227.711 151.97C227.721 152 227.721 152.03 227.731 152.07C227.751 152.17 227.761 152.26 227.761 152.36Z" fill="#FAFAFA"/>
<path d="M176.021 222.93C175.971 222.95 175.921 222.97 175.861 222.99C175.791 223.02 175.711 223.04 175.641 223.05C175.531 223.08 175.421 223.1 175.301 223.11C175.191 223.12 175.071 223.13 174.961 223.13C174.721 223.13 174.491 223.1 174.261 223.05C174.041 223 173.831 222.92 173.651 222.82L172.191 221.97C171.471 221.56 170.891 220.55 170.891 219.72V180.51C170.891 180.1 171.031 179.66 171.251 179.26L175.301 181.63C175.081 182.02 174.951 182.46 174.951 182.85V222.07C174.951 222.8 175.401 223.15 176.021 222.93Z" fill="#E0E0E0"/>
<path d="M179.01 215.53V189.39C179.01 188.84 179.4 188.17 179.88 187.89L182.21 186.54C182.69 186.26 183.08 186.49 183.08 187.04V213.18C183.08 213.73 182.69 214.4 182.21 214.68L179.88 216.03C179.4 216.31 179.01 216.09 179.01 215.53Z" fill="#E04E39"/>
<path d="M187.141 210.84V180.01C187.141 179.46 187.531 178.79 188.011 178.51L190.341 177.16C190.821 176.88 191.211 177.11 191.211 177.66V208.49C191.211 209.04 190.821 209.71 190.341 209.99L188.011 211.34C187.521 211.62 187.141 211.39 187.141 210.84Z" fill="#E04E39"/>
<path d="M195.26 206.15V191.35C195.26 190.8 195.65 190.13 196.13 189.85L198.46 188.5C198.94 188.22 199.33 188.45 199.33 189V203.8C199.33 204.35 198.94 205.02 198.46 205.3L196.13 206.65C195.65 206.93 195.26 206.7 195.26 206.15Z" fill="#E04E39"/>
<path d="M203.391 201.47V182.28C203.391 181.73 203.781 181.06 204.261 180.78L206.591 179.43C207.071 179.15 207.461 179.38 207.461 179.93V199.12C207.461 199.67 207.071 200.34 206.591 200.62L204.261 201.97C203.771 202.25 203.391 202.02 203.391 201.47Z" fill="#E04E39"/>
<path d="M211.51 196.78V190.25C211.51 189.7 211.9 189.03 212.38 188.75L214.71 187.4C215.19 187.12 215.58 187.35 215.58 187.9V194.43C215.58 194.98 215.19 195.65 214.71 195.93L212.38 197.28C211.9 197.55 211.51 197.33 211.51 196.78Z" fill="#E04E39"/>
<path d="M219.629 192.09V170.64C219.629 170.09 220.019 169.42 220.499 169.14L222.829 167.79C223.309 167.51 223.699 167.74 223.699 168.29V189.74C223.699 190.29 223.309 190.96 222.829 191.24L220.499 192.59C220.019 192.87 219.629 192.64 219.629 192.09Z" fill="#E04E39"/>
<path d="M300.82 109.75C300.66 109.22 300.15 109.05 299.57 109.39L237.17 145.42C236.79 145.64 236.45 146.02 236.22 146.45L232.17 144.08C232.41 143.66 232.74 143.29 233.11 143.08L295.5 107.05C296.22 106.63 297.39 106.63 298.1 107.05L299.57 107.89C300.17 108.24 300.68 109.02 300.82 109.75Z" fill="#EBEBEB"/>
<path d="M300.871 110.14L300.861 149.36C300.861 150.19 300.281 151.19 299.571 151.61L239.931 186.04L237.171 187.64C237.111 187.68 237.041 187.71 236.971 187.74C236.961 187.74 236.951 187.75 236.941 187.75C236.321 187.97 235.871 187.62 235.871 186.89V147.67C235.871 147.28 236.001 146.84 236.221 146.45C236.451 146.02 236.791 145.64 237.171 145.42L299.571 109.39C300.151 109.05 300.661 109.22 300.821 109.75C300.831 109.78 300.831 109.81 300.841 109.85C300.861 109.95 300.871 110.04 300.871 110.14Z" fill="#FAFAFA"/>
<path d="M236.95 187.75C236.9 187.77 236.85 187.79 236.79 187.81C236.72 187.84 236.64 187.86 236.57 187.87C236.46 187.9 236.35 187.92 236.23 187.93C236.12 187.94 236 187.95 235.89 187.95C235.65 187.95 235.42 187.92 235.19 187.87C234.97 187.82 234.76 187.74 234.58 187.64L233.12 186.79C232.4 186.38 231.82 185.37 231.82 184.54V145.33C231.82 144.92 231.96 144.48 232.18 144.08L236.23 146.45C236.01 146.84 235.88 147.28 235.88 147.67V186.89C235.88 187.62 236.33 187.97 236.95 187.75Z" fill="#E0E0E0"/>
<path d="M258.971 142.05L255.741 154.1C255.521 154.9 254.891 156.12 254.361 156.76L243.931 169.29C242.601 168.38 241.741 166.97 241.411 165.19C240.681 161.16 242.741 155.65 246.771 150.8C247.461 149.98 248.161 149.21 248.881 148.48C251.961 145.4 255.401 143.21 258.971 142.05Z" fill="#E04E39"/>
<path d="M267.662 157.21C263.032 165 254.232 170.88 247.632 170.47C246.612 170.41 245.792 170.23 245.012 169.89L255.292 157.54C255.732 157.01 256.692 156.58 257.412 156.58H257.522L267.662 157.21Z" fill="#E04E39"/>
<path d="M266.771 141.85L257.191 153.36L260.331 141.65C262.931 141.01 265.011 141.06 266.771 141.85Z" fill="#E04E39"/>
<path d="M268.31 156.03L257.6 155.37C257.37 155.35 257.26 155.29 257.25 155.29C257.25 155.27 257.27 155.2 257.34 155.09C257.37 155.04 257.4 155 257.43 154.97L267.86 142.44C271.3 144.78 271.48 150.02 268.31 156.03Z" fill="#E04E39"/>
<path d="M274.711 133.65C274.711 134.37 275.291 134.62 276.011 134.21L295.511 122.95C296.231 122.54 296.811 121.62 296.811 120.89C296.811 120.17 296.231 119.92 295.511 120.33L276.011 131.59C275.301 132.01 274.711 132.93 274.711 133.65Z" fill="#E04E39"/>
<path d="M274.711 141.49C274.711 142.21 275.291 142.46 276.011 142.05L295.511 130.79C296.231 130.38 296.811 129.46 296.811 128.73C296.811 128.01 296.231 127.76 295.511 128.17L276.011 139.43C275.301 139.85 274.711 140.77 274.711 141.49Z" fill="#E0E0E0"/>
<path d="M274.711 146.33C274.711 147.05 275.291 147.3 276.011 146.88L295.511 135.62C296.231 135.21 296.811 134.29 296.811 133.56C296.811 132.84 296.231 132.59 295.511 133L276.011 144.26C275.301 144.69 274.711 145.61 274.711 146.33Z" fill="#E0E0E0"/>
<path d="M274.711 151.16C274.711 151.88 275.291 152.13 276.011 151.71L295.511 140.45C296.231 140.04 296.811 139.12 296.811 138.39C296.811 137.67 296.231 137.42 295.511 137.83L276.011 149.09C275.301 149.52 274.711 150.44 274.711 151.16Z" fill="#E0E0E0"/>
<path d="M274.711 156C274.711 156.72 275.291 156.97 276.011 156.56L295.511 145.3C296.231 144.89 296.811 143.97 296.811 143.24C296.811 142.52 296.231 142.27 295.511 142.68L276.011 153.94C275.301 154.36 274.711 155.28 274.711 156Z" fill="#E0E0E0"/>
<path d="M158.651 147.29C158.491 146.75 157.991 146.58 157.401 146.93L123.441 166.53C123.081 166.74 122.761 167.1 122.521 167.5L118.461 165.16C118.701 164.75 119.021 164.4 119.381 164.19L153.341 144.58C154.061 144.17 155.221 144.17 155.941 144.58L157.401 145.43C158.011 145.78 158.521 146.56 158.651 147.29Z" fill="#EBEBEB"/>
<path d="M158.701 147.68V158.75C158.701 159.58 158.121 160.58 157.401 161L123.441 180.6C123.371 180.64 123.291 180.68 123.201 180.72C123.181 180.72 123.161 180.73 123.141 180.74C122.561 180.91 122.141 180.56 122.141 179.85V168.78C122.141 168.36 122.281 167.91 122.521 167.5C122.761 167.1 123.081 166.74 123.441 166.53L157.401 146.93C157.991 146.58 158.491 146.75 158.651 147.29C158.661 147.32 158.671 147.35 158.671 147.39C158.691 147.49 158.701 147.59 158.701 147.68Z" fill="#FAFAFA"/>
<path d="M123.14 180.74C122.99 180.8 122.82 180.84 122.65 180.87C122.15 180.96 121.59 180.92 121.13 180.74C121.03 180.7 120.93 180.65 120.84 180.6L119.38 179.76C118.66 179.35 118.08 178.34 118.08 177.51V166.44C118.08 166.02 118.23 165.57 118.46 165.16L122.52 167.5C122.28 167.91 122.14 168.36 122.14 168.78V179.85C122.14 180.56 122.56 180.91 123.14 180.74Z" fill="#E0E0E0"/>
<path d="M158.651 168.4C158.491 167.86 157.991 167.69 157.401 168.04L123.441 187.64C123.081 187.85 122.761 188.21 122.521 188.61L118.461 186.27C118.701 185.86 119.021 185.51 119.381 185.3L153.341 165.69C154.061 165.28 155.221 165.28 155.941 165.69L157.401 166.54C158.011 166.89 158.521 167.67 158.651 168.4Z" fill="#EBEBEB"/>
<path d="M158.701 168.79V179.86C158.701 180.69 158.121 181.69 157.401 182.11L123.441 201.71C123.371 201.75 123.291 201.79 123.201 201.83C123.181 201.83 123.161 201.84 123.141 201.85C122.561 202.02 122.141 201.67 122.141 200.96V189.89C122.141 189.47 122.281 189.02 122.521 188.61C122.761 188.21 123.081 187.85 123.441 187.64L157.401 168.04C157.991 167.69 158.491 167.86 158.651 168.4C158.661 168.43 158.671 168.46 158.671 168.5C158.691 168.6 158.701 168.7 158.701 168.79Z" fill="#FAFAFA"/>
<path d="M123.14 201.85C122.99 201.91 122.82 201.95 122.65 201.98C122.15 202.07 121.59 202.03 121.13 201.85C121.03 201.81 120.93 201.76 120.84 201.71L119.38 200.87C118.66 200.46 118.08 199.45 118.08 198.62V187.55C118.08 187.13 118.23 186.68 118.46 186.27L122.52 188.61C122.28 189.02 122.14 189.47 122.14 189.89V200.96C122.14 201.67 122.56 202.02 123.14 201.85Z" fill="#E0E0E0"/>
<path d="M158.651 189.5C158.491 188.96 157.991 188.79 157.401 189.14L123.441 208.74C123.081 208.95 122.761 209.31 122.521 209.71L118.461 207.37C118.701 206.96 119.021 206.61 119.381 206.4L153.341 186.79C154.061 186.38 155.221 186.38 155.941 186.79L157.401 187.64C158.011 187.99 158.521 188.77 158.651 189.5Z" fill="#EBEBEB"/>
<path d="M158.701 189.89V200.96C158.701 201.79 158.121 202.79 157.401 203.21L123.441 222.81C123.371 222.85 123.291 222.89 123.201 222.93C123.181 222.93 123.161 222.94 123.141 222.95C122.561 223.12 122.141 222.77 122.141 222.06V210.99C122.141 210.57 122.281 210.12 122.521 209.71C122.761 209.31 123.081 208.95 123.441 208.74L157.401 189.14C157.991 188.79 158.491 188.96 158.651 189.5C158.661 189.53 158.671 189.56 158.671 189.6C158.691 189.7 158.701 189.8 158.701 189.89Z" fill="#FAFAFA"/>
<path d="M123.14 222.95C122.99 223.01 122.82 223.05 122.65 223.08C122.15 223.17 121.59 223.13 121.13 222.95C121.03 222.91 120.93 222.86 120.84 222.81L119.38 221.97C118.66 221.56 118.08 220.55 118.08 219.72V208.65C118.08 208.23 118.23 207.78 118.46 207.37L122.52 209.71C122.28 210.12 122.14 210.57 122.14 210.99V222.06C122.14 222.77 122.56 223.12 123.14 222.95Z" fill="#E0E0E0"/>
<path d="M158.651 210.61C158.491 210.07 157.991 209.9 157.401 210.25L123.441 229.85C123.081 230.06 122.761 230.42 122.521 230.82L118.461 228.48C118.701 228.07 119.021 227.72 119.381 227.51L153.341 207.9C154.061 207.49 155.221 207.49 155.941 207.9L157.401 208.75C158.011 209.1 158.521 209.88 158.651 210.61Z" fill="#EBEBEB"/>
<path d="M158.701 211V222.07C158.701 222.9 158.121 223.9 157.401 224.32L123.441 243.92C123.371 243.96 123.291 244 123.201 244.04C123.181 244.04 123.161 244.05 123.141 244.06C122.561 244.23 122.141 243.88 122.141 243.17V232.1C122.141 231.68 122.281 231.23 122.521 230.82C122.761 230.42 123.081 230.06 123.441 229.85L157.401 210.25C157.991 209.9 158.491 210.07 158.651 210.61C158.661 210.64 158.671 210.67 158.671 210.71C158.691 210.81 158.701 210.91 158.701 211Z" fill="#FAFAFA"/>
<path d="M123.14 244.06C122.99 244.12 122.82 244.16 122.65 244.19C122.15 244.28 121.59 244.24 121.13 244.06C121.03 244.02 120.93 243.97 120.84 243.92L119.38 243.08C118.66 242.67 118.08 241.66 118.08 240.83V229.76C118.08 229.34 118.23 228.89 118.46 228.48L122.52 230.82C122.28 231.23 122.14 231.68 122.14 232.1V243.17C122.14 243.88 122.56 244.23 123.14 244.06Z" fill="#E0E0E0"/>
<path d="M162.22 129.76C162.26 129.76 162.3 129.77 162.35 129.8L158.7 127.71V126.58C158.7 126.49 158.69 126.39 158.67 126.29C158.67 126.25 158.66 126.22 158.65 126.19C158.52 125.46 158.01 124.68 157.4 124.33L155.94 123.48C155.22 123.07 154.06 123.07 153.34 123.48L119.38 143.09C119.02 143.3 118.7 143.65 118.46 144.06C118.23 144.47 118.08 144.92 118.08 145.34V156.41C118.08 157.24 118.66 158.25 119.38 158.66L120.84 159.5C120.93 159.55 121.03 159.6 121.13 159.64C121.59 159.82 122.15 159.86 122.65 159.77C122.82 159.74 122.99 159.7 123.14 159.64C123.16 159.63 123.18 159.62 123.2 159.62C123.29 159.58 123.37 159.54 123.44 159.5L157.4 139.9C158.12 139.48 158.7 138.48 158.7 137.65V134.46L162.41 130.18C162.55 130.01 162.43 129.76 162.22 129.76Z" fill="#E04E39"/>
<path opacity="0.1" d="M123.14 159.63C122.99 159.69 122.82 159.73 122.65 159.76C122.15 159.85 121.59 159.81 121.13 159.63C121.03 159.59 120.93 159.54 120.84 159.49L119.38 158.65C118.66 158.24 118.08 157.23 118.08 156.4V145.33C118.08 144.91 118.23 144.46 118.46 144.05L122.52 146.39C122.28 146.8 122.14 147.25 122.14 147.67V158.74C122.14 159.45 122.56 159.8 123.14 159.63Z" fill="black"/>
<path opacity="0.4" d="M158.651 126.18C158.491 125.64 157.991 125.47 157.401 125.82L123.441 145.42C123.081 145.63 122.761 145.99 122.521 146.39L118.461 144.05C118.701 143.64 119.021 143.29 119.381 143.08L153.341 123.47C154.061 123.06 155.221 123.06 155.941 123.47L157.401 124.32C158.011 124.67 158.521 125.45 158.651 126.18Z" fill="white"/>
<path opacity="0.4" d="M162.219 129.76H158.699V127.7L162.349 129.79C162.299 129.77 162.259 129.76 162.219 129.76Z" fill="white"/>
<path d="M52.7503 308.48L59.7603 304.47C59.7603 304.47 63.1203 285.93 60.6103 270C57.0703 247.6 41.8203 239.87 36.2803 242.1C30.7403 244.33 29.4403 250.96 39.4403 263.91C45.3503 271.54 52.9403 287.69 52.7503 308.48Z" fill="#D1D9DD"/>
<g opacity="0.1">
<path opacity="0.1" d="M52.7503 308.48L59.7603 304.47C59.7603 304.47 63.1203 285.93 60.6103 270C57.0703 247.6 41.8203 239.87 36.2803 242.1C30.7403 244.33 29.4403 250.96 39.4403 263.91C45.3503 271.54 52.9403 287.69 52.7503 308.48Z" fill="#D1D9DD"/>
</g>
<path d="M55.2902 299.58C55.2702 299.58 55.2402 299.58 55.2202 299.58C54.9502 299.54 54.7602 299.29 54.7902 299.02C57.6902 278.05 49.2502 255.07 39.7802 245.81C39.5802 245.62 39.5802 245.3 39.7702 245.1C39.9602 244.9 40.2802 244.9 40.4802 245.09C50.1302 254.52 58.7302 277.87 55.7802 299.15C55.7502 299.4 55.5402 299.58 55.2902 299.58Z" fill="white"/>
<path d="M33.2898 319.72C32.1798 320.36 29.8998 318.97 29.0198 318.38C27.5198 317.38 26.3098 315.95 25.4998 314.34C24.5598 312.47 24.3298 310.46 24.6198 308.39C24.7698 307.32 25.0698 306.27 25.3698 305.23C25.6598 304.21 25.9598 303.18 26.2498 302.16C26.5398 301.15 26.8298 300.1 26.6998 299.06C26.4298 296.96 24.5698 295.49 22.8698 294.22C20.9998 292.82 19.0398 290.96 19.0498 288.43C19.0598 286.48 20.0698 284.67 21.2798 283.13C22.4898 281.6 23.9198 280.24 25.0198 278.63C25.8098 277.47 26.4198 276.1 26.2898 274.7C26.2098 273.83 25.8498 273.01 25.4298 272.24C24.5398 270.59 23.3598 269.08 22.7398 267.32C22.1198 265.55 22.2098 263.35 23.5898 262.08C24.7198 261.04 26.4098 260.9 27.9398 261C29.3598 261.09 30.7498 261.73 31.9898 262.42C36.0098 264.65 38.2998 269.41 42.5598 271.13C44.1998 271.79 45.9998 271.94 47.7198 272.39C49.4298 272.84 51.1798 273.72 51.9698 275.3C53.5298 278.42 50.6298 282.27 51.7298 285.59C52.6998 288.52 55.5498 289.65 57.1598 292.29C57.8598 293.45 58.0198 294.78 57.9098 296.13C57.7198 298.41 57.3798 300.09 56.2898 302.62C55.3898 304.72 52.7298 308.47 52.7298 308.47C52.6798 308.54 33.4598 319.62 33.2898 319.72Z" fill="#D1D9DD"/>
<path d="M44.6798 313.65C44.6698 313.65 44.6698 313.65 44.6698 313.65C44.3898 313.64 44.1698 313.4 44.1798 313.13C44.9998 293.28 35.6498 271.36 28.8498 265C28.6498 264.81 28.6398 264.5 28.8298 264.29C29.0198 264.09 29.3298 264.08 29.5398 264.27C36.4798 270.77 46.0198 293.05 45.1898 313.18C45.1698 313.44 44.9398 313.65 44.6798 313.65Z" fill="white"/>
<path d="M41.7005 290.2C41.6505 290.2 41.6005 290.19 41.5505 290.18C35.1705 288.21 27.2205 287.86 27.1405 287.86C26.8605 287.85 26.6505 287.61 26.6605 287.34C26.6705 287.06 26.8805 286.85 27.1805 286.86C27.2605 286.86 35.3405 287.22 41.8405 289.23C42.1005 289.31 42.2505 289.59 42.1705 289.86C42.1105 290.06 41.9205 290.2 41.7005 290.2Z" fill="white"/>
<path d="M373.132 202.03C373.071 201.26 371.641 193.07 370.651 188.49L361.021 191.44L362.732 199.87L370.841 206.38C373.391 205.88 373.192 202.8 373.132 202.03Z" fill="#FFD9C9"/>
<path d="M347.971 160.79H350.021C357.941 160.79 364.361 154.37 364.361 146.45C364.361 137.96 357.481 131.08 348.991 131.08C340.501 131.08 333.621 137.96 333.621 146.45C333.631 154.37 340.051 160.79 347.971 160.79Z" fill="#263238"/>
<path d="M326.562 184.76L322.012 193.11L329.092 199.17L335.582 188.89L326.562 184.76Z" fill="#F28F8F"/>
<path d="M343.643 166.16C339.133 166.21 334.163 167.85 332.453 171.39C330.743 174.93 325.393 185.95 325.393 185.95C325.393 185.95 329.383 191.79 335.713 191.38L343.643 166.16Z" fill="#E04E39"/>
<g opacity="0.1">
<path opacity="0.1" d="M343.643 166.16C339.133 166.21 334.163 167.85 332.453 171.39C330.743 174.93 325.393 185.95 325.393 185.95C325.393 185.95 329.383 191.79 335.713 191.38L343.643 166.16Z" fill="#E04E39"/>
</g>
<path d="M358.872 314.48V313.49C358.482 314.65 356.672 319.64 353.932 322.14C351.752 324.13 348.782 326.42 348.022 328.64C347.232 330.94 352.162 331.72 354.192 331.36C356.562 330.94 359.622 329.6 361.282 327.55C362.452 326.11 363.202 324.41 364.032 323.27C364.872 322.14 366.792 320.88 367.252 319.57C367.502 318.85 367.202 317.27 366.852 315.94C366.532 314.72 366.182 313.38 365.772 313.49C365.772 313.64 365.772 314.24 365.772 314.24C365.272 314.8 363.882 315.35 362.322 315.41C361.312 315.45 358.862 315.25 358.872 314.48Z" fill="#263238"/>
<path d="M351.962 323.88C352.642 323.28 353.322 322.69 353.932 322.12C355.852 320.37 357.302 317.41 358.142 315.39C358.622 314.24 358.862 313 358.862 311.75V307.81H365.772V314.22V314.39L365.742 314.41C365.412 315.85 362.242 319.66 360.442 322.15C359.232 323.82 356.942 325.94 354.202 326.31C351.602 326.67 350.272 325.85 351.962 323.88Z" fill="#FFD9C9"/>
<path d="M333.203 307.82V306.83C332.813 307.99 331.002 312.98 328.262 315.48C326.082 317.47 323.112 319.76 322.352 321.98C321.562 324.28 326.492 325.06 328.522 324.7C330.892 324.28 333.952 322.94 335.612 320.89C336.782 319.45 337.532 317.75 338.362 316.61C339.202 315.48 341.122 314.21 341.582 312.91C341.832 312.19 341.532 310.61 341.182 309.28C340.862 308.06 340.512 306.72 340.102 306.83C340.102 306.98 340.102 307.58 340.102 307.58C339.602 308.14 338.212 308.69 336.652 308.75C335.642 308.79 333.193 308.59 333.203 307.82Z" fill="#263238"/>
<path d="M326.292 317.22C326.972 316.62 327.652 316.03 328.262 315.46C330.182 313.71 331.632 310.75 332.472 308.73C332.952 307.58 333.192 306.34 333.192 305.09V301.15H340.102V307.56V307.73L340.072 307.75C339.742 309.19 336.572 313 334.772 315.49C333.562 317.16 331.272 319.28 328.532 319.65C325.932 320.01 324.602 319.19 326.292 317.22Z" fill="#FFD9C9"/>
<path d="M364.402 207.11C369.762 218.81 364.212 260.01 364.212 260.01C364.372 261.91 366.542 265.64 367.352 274C368.312 283.87 365.852 308.66 365.852 308.66C365.852 308.66 362.652 310.75 358.872 308.94C358.872 308.94 352.292 271.61 351.052 261.79C349.972 253.22 347.902 233.09 347.902 233.09L342.002 261.75C342.002 261.75 343.522 266.96 343.632 271.84C343.772 277.64 340.242 303.07 340.242 303.07C339.562 304.37 334.412 304.68 333.062 303.1C333.062 303.1 330.022 267.38 329.422 260.44C329.062 256.29 333.792 205.4 333.792 205.4L364.402 207.11Z" fill="#37474F"/>
<path d="M347.891 233.1L346.151 223.53C346.151 223.53 338.791 222.01 335.461 218.87C335.461 218.87 338.961 223.22 344.161 224.65L346.111 233.01L342.701 258.34L347.891 233.1Z" fill="#263238"/>
<path d="M354.962 166.48C359.052 167.46 362.312 170.27 364.032 173.89C365.342 176.65 365.352 179.85 364.352 182.74L359.572 196.58C359.572 196.58 361.812 202 364.412 207.11C352.402 213.81 337.412 210.29 333.802 205.4C333.652 204.36 333.852 199.69 333.562 194.37C333.252 188.7 332.472 182.29 333.362 178.78C335.022 172.27 338.122 166.16 344.292 166.16L354.962 166.48Z" fill="#E04E39"/>
<path d="M354.961 166.48C359.061 167.06 365.441 167.87 368.251 177.83C371.001 187.54 371.641 190.93 371.641 190.93C371.641 190.93 368.281 194.84 361.481 194.81L359.371 187.33L354.961 166.48Z" fill="#E04E39"/>
<path d="M339.372 138.86C337.752 139.82 335.742 143.9 335.942 152.46C336.112 159.71 338.462 161.5 339.642 162.02C340.822 162.54 343.102 162.22 345.312 161.85V166.2C345.312 166.2 342.252 169.75 342.442 171.75C342.632 173.75 346.862 174.22 349.722 172.27C352.582 170.32 354.422 167.35 354.422 167.35V156.83C354.422 156.83 355.912 158.83 358.362 157.2C360.802 155.58 360.902 151.56 359.482 150.12C358.062 148.68 355.002 149.13 354.432 151.13C354.432 151.13 350.902 151.26 346.202 148.68C341.492 146.09 339.682 141.67 339.372 138.86Z" fill="#FFD9C9"/>
<path d="M344.043 150.63C344.013 151.15 344.403 151.6 344.903 151.62C345.403 151.64 345.833 151.24 345.863 150.72C345.893 150.2 345.503 149.75 345.003 149.73C344.493 149.71 344.063 150.11 344.043 150.63Z" fill="#263238"/>
<path d="M343.792 156.78L341.672 157.46C341.852 158.07 342.462 158.41 343.052 158.22C343.642 158.03 343.972 157.39 343.792 156.78Z" fill="#DEA5A1"/>
<path d="M336.562 147.83L338.412 146.55C338.072 146.02 337.392 145.88 336.882 146.24C336.362 146.59 336.222 147.31 336.562 147.83Z" fill="#263238"/>
<path d="M336.982 149.97C336.952 150.49 337.342 150.94 337.842 150.96C338.342 150.98 338.772 150.58 338.802 150.06C338.832 149.54 338.442 149.09 337.942 149.07C337.442 149.05 337.012 149.45 336.982 149.97Z" fill="#263238"/>
<path d="M341.292 149.45L341.142 154.94L338.252 154.05L341.292 149.45Z" fill="#E8BFAE"/>
<path d="M345.312 161.85C347.642 161.54 352.443 160.17 353.193 158.27C353.193 158.27 352.943 159.46 351.513 160.69C350.083 161.92 345.312 163.3 345.312 163.3V161.85Z" fill="#E8BFAE"/>
<path opacity="0.1" d="M361.022 192.36C361.022 192.36 359.502 188.33 358.662 184.76C358.662 184.76 359.042 190.41 360.642 193.45L361.022 192.36Z" fill="black"/>
<path d="M307.131 184.25L333.611 191.22L341.431 224.09L316.251 216.77L307.131 184.25Z" fill="#D1D9DD"/>
<g opacity="0.1">
<path opacity="0.1" d="M318.681 205.99C318.431 206.66 316.991 208.52 313.901 208.38L313.521 207.02L318.681 205.99Z" fill="black"/>
</g>
<g opacity="0.1">
<path opacity="0.1" d="M324.602 207.02C324.722 207.9 326.522 209.52 329.562 210.53C333.022 211.68 338.342 211.07 338.342 211.07L337.862 209.44L324.602 207.02Z" fill="black"/>
</g>
<g opacity="0.1">
<path opacity="0.1" d="M314.891 189.01C314.891 189.01 314.791 188.56 314.671 188C314.551 187.44 316.101 187.42 318.141 187.95L322.041 188.96C324.081 189.49 325.831 190.37 325.951 190.93L326.171 191.94L314.891 189.01Z" fill="black"/>
</g>
<path d="M313.052 185.2C312.972 184.85 313.602 184.76 314.462 185L316.012 185.43C316.012 185.43 315.552 183.25 318.982 184.01C322.412 184.77 323.162 187.25 323.162 187.25C323.162 187.25 323.902 187.46 324.812 187.72C325.722 187.98 326.552 188.47 326.652 188.82L326.852 189.45L313.212 185.86C313.202 185.85 313.132 185.55 313.052 185.2Z" fill="#37474F"/>
<path d="M314.931 186.29C316.181 186.59 316.701 186.76 316.891 187.62C317.101 188.6 317.191 189.32 317.191 189.32L323.231 190.92C323.231 190.92 322.941 189.68 322.851 189.19C322.761 188.71 322.961 188.41 323.921 188.67L324.001 188.29L314.541 185.88L314.931 186.29Z" fill="#37474F"/>
<path d="M314.721 189.1C314.721 189.1 314.621 188.65 314.501 188.09C314.381 187.53 315.931 187.51 317.971 188.04L321.871 189.05C323.911 189.58 325.661 190.46 325.781 191.02L326.001 192.03L314.721 189.1Z" fill="#37474F"/>
<path d="M370.85 206.38L362.74 199.87C362.74 199.87 344.81 203.06 342.71 203.23C340.6 203.4 338.26 201.91 337.46 199.84C336.66 197.77 335.24 198.03 335.24 198.03C335.24 198.03 335.86 200.65 336.06 201.49C336.26 202.33 331.21 203.01 328.41 202.07C325.61 201.12 321.56 202.5 324.07 206.31C326.58 210.12 331.46 210.56 334.86 210.57C335.8 210.57 337.46 210.5 339.1 210.29C340.2 210.15 341.29 210.04 342.39 209.96C349.33 209.45 367.69 207.37 370.85 206.38Z" fill="#FFD9C9"/>
<path d="M309.83 193.86C309.83 193.86 310.78 197.24 311.01 198.05C311.24 198.86 314.32 200.32 316.26 200.86C318.21 201.39 320.34 202.03 319.41 204.75C318.56 207.26 315.36 207.83 313.73 207.76C312.1 207.69 309.87 206.13 308.99 203.62C307.87 200.41 308.47 196.99 308.03 195.12C307.57 193.24 308.85 192.74 309.83 193.86Z" fill="#FFD9C9"/>
<path d="M372.781 172.32C367.461 172.32 363.141 168 363.141 162.68V140.05C368.461 140.05 372.781 144.37 372.781 149.69V172.32Z" fill="#263238"/>
<path d="M362.831 140.85L366.831 138.7C366.261 137.55 364.911 137.11 363.801 137.7C362.701 138.29 362.271 139.7 362.831 140.85Z" fill="#263238"/>
<path d="M100.651 45.14L93.7909 49.1C93.8209 48.79 93.8509 48.49 93.8509 48.19V46.2C93.8509 42.66 91.3709 41.23 88.3009 43C87.0609 43.72 85.9209 44.85 84.9909 46.18C84.4909 41.73 81.0009 40.07 76.7609 42.52C72.1809 45.17 68.4609 51.6 68.4609 56.9V59.87C68.4609 61.24 68.7109 62.4 69.1609 63.32L63.4609 66.61C61.7609 67.59 60.3809 69.98 60.3809 71.94C60.3809 73.9 61.7609 74.7 63.4609 73.72L100.651 52.25C102.351 51.27 103.731 48.88 103.731 46.92C103.721 44.96 102.351 44.16 100.651 45.14Z" fill="#D1D9DD"/>
</g>
<defs>
<clipPath id="clip0">
<rect width="416.14" height="390.62" fill="white"/>
</clipPath>
</defs>
</svg>
