<svg width="457" height="401" viewBox="0 0 457 401" fill="none" xmlns="http://www.w3.org/2000/svg">
<path d="M347.344 375.505C344.527 363.231 345.461 350.367 349.996 338.616C350.161 338.189 349.474 337.997 349.309 338.423C344.733 350.284 343.826 363.3 346.657 375.683C346.767 376.151 347.454 375.958 347.344 375.505Z" fill="#D1D9DD" fill-opacity="0.5"/>
<path d="M350.01 339C351.096 329.05 355.919 319.649 363.464 313.052C365.525 311.251 367.958 309.423 370.775 309.162C372.713 308.983 374.815 309.67 375.269 311.787C375.571 313.23 375.035 314.783 374.362 316.034C371.943 320.556 366.968 323.676 363.148 326.906C358.517 330.809 353.927 334.754 349.405 338.767C349.062 339.069 349.57 339.578 349.914 339.275C354.834 334.905 359.836 330.617 364.879 326.383C368.851 323.057 375.022 319.278 375.956 313.711C376.877 308.282 371.05 307.609 367.284 309.492C362.392 311.938 358.352 316.762 355.466 321.312C352.071 326.658 349.969 332.719 349.295 339.014C349.254 339.468 349.969 339.454 350.01 339Z" fill="#D1D9DD" fill-opacity="0.5"/>
<path d="M349.446 339C348.649 332.211 346.918 325.559 344.21 319.278C341.489 312.955 337.339 307.403 334.535 301.135C333.12 297.947 331.224 293.246 332.996 289.879C335.47 285.178 340.472 288.669 342.438 291.831C344.087 294.497 344.856 297.589 345.571 300.599C346.478 304.42 347.344 308.255 348.058 312.117C349.694 320.982 350.298 329.984 348.745 338.918C348.663 339.371 349.35 339.564 349.433 339.11C350.889 330.74 350.504 322.301 349.103 313.945C348.374 309.629 347.426 305.368 346.423 301.108C345.653 297.809 344.87 294.387 343.056 291.473C341.709 289.302 339.373 286.855 336.624 286.8C333.89 286.745 332.062 289.233 331.704 291.721C331.237 295.102 332.68 298.744 334.054 301.768C335.649 305.259 337.724 308.502 339.648 311.828C344.499 320.212 347.619 329.393 348.745 339.014C348.787 339.454 349.501 339.468 349.446 339Z" fill="#D1D9DD" fill-opacity="0.5"/>
<path d="M346.877 347.054C337.587 340.897 329.726 329.806 328.654 318.549C328.379 315.608 328.558 312.598 329.3 309.725C329.753 307.952 330.646 305.327 332.942 306.674C334.398 307.54 335.443 308.983 336.308 310.426C337.82 312.955 338.672 315.883 339.524 318.687C340.418 321.614 341.173 324.583 341.861 327.552C343.4 334.176 344.637 340.87 346.368 347.453C346.478 347.893 347.179 347.714 347.055 347.261C345.214 340.237 343.936 333.09 342.245 326.04C341.407 322.507 340.445 319.003 339.277 315.567C338.301 312.694 337.174 309.959 335.168 307.636C333.917 306.193 331.76 304.461 330.042 306.276C328.365 308.035 328.104 311.443 327.912 313.725C327.376 320.075 329.19 326.397 332.282 331.908C335.718 338.038 340.651 343.77 346.519 347.673C346.904 347.934 347.261 347.316 346.877 347.054Z" fill="#D1D9DD" fill-opacity="0.5"/>
<path d="M359.231 375.436C362.708 357.569 363.423 339.248 361.32 321.161C361.265 320.707 360.551 320.707 360.606 321.161C362.708 339.179 362.007 357.445 358.544 375.244C358.448 375.697 359.135 375.89 359.231 375.436Z" fill="#D1D9DD" fill-opacity="0.5"/>
<path d="M362.585 334.162C353.707 324.225 348.677 311.141 348.498 297.823C348.457 294.469 348.705 291.102 349.296 287.804C349.557 286.36 349.914 284.67 351.027 283.625C353.391 281.399 355.26 284.862 355.892 286.759C358.256 293.741 358.902 301.548 359.657 308.832C360.551 317.353 361.1 325.902 361.953 334.424C361.994 334.877 362.708 334.877 362.667 334.424C361.774 325.572 361.224 316.68 360.262 307.829C359.809 303.623 359.259 299.417 358.531 295.239C357.912 291.666 357.514 287.24 355.507 284.134C354.298 282.265 352.03 281.481 350.367 283.282C348.43 285.371 348.306 288.944 348.031 291.624C347.289 298.964 348.072 306.441 350.203 313.491C352.566 321.325 356.62 328.569 362.062 334.671C362.379 335.001 362.887 334.506 362.585 334.162Z" fill="#D1D9DD" fill-opacity="0.5"/>
<path d="M362.475 343.275C366.061 337.269 367.395 330.328 367.821 323.415C368.329 315.113 367.298 306.55 368.741 298.318C369.085 296.366 369.854 294.263 372.04 293.851C374.458 293.384 376.506 295.17 377.578 297.15C379.309 300.338 380.038 304.461 380.67 308.007C381.989 315.333 381.014 322.645 378.196 329.531C376.863 332.802 375.2 336.966 372.369 339.248C369.607 341.474 365.677 342.588 362.159 342.739C361.705 342.753 361.691 343.467 362.159 343.453C365.278 343.316 368.494 342.436 371.201 340.883C374.06 339.248 375.64 336.513 377.083 333.64C380.601 326.686 382.635 318.92 381.811 311.1C381.385 307.004 380.436 302.812 379.09 298.936C378.114 296.146 376.217 293.219 372.96 293.068C369.662 292.903 368.37 295.899 367.958 298.689C367.271 303.362 367.326 308.145 367.312 312.859C367.298 323.098 367.271 333.86 361.856 342.931C361.623 343.316 362.241 343.673 362.475 343.275Z" fill="#D1D9DD" fill-opacity="0.5"/>
<path d="M362.035 329.971C368.04 312.983 361.416 295.253 362.035 277.908C362.145 274.719 362.337 264.232 368.164 267.971C371.778 270.28 373.386 275.709 374.266 279.653C376.162 288.202 376.135 297.369 374.816 306.001C374.115 310.591 373.29 315.842 371.078 319.979C368.92 324.033 365.168 326.961 361.513 329.586C361.142 329.847 361.499 330.479 361.87 330.204C365.072 327.909 368.247 325.435 370.542 322.191C373.139 318.522 374.06 313.78 374.926 309.437C376.753 300.201 376.987 290.525 375.31 281.248C374.554 277.097 373.276 272.781 370.638 269.386C368.892 267.146 365.402 265.016 363.189 267.93C362.255 269.167 361.994 270.775 361.788 272.273C361.43 274.829 361.279 277.413 361.265 279.997C361.252 285.357 361.842 290.704 362.461 296.023C363.78 307.251 365.196 318.879 361.334 329.792C361.183 330.218 361.884 330.397 362.035 329.971Z" fill="#D1D9DD" fill-opacity="0.5"/>
<path d="M245.853 377.456C247.557 360.441 236.865 345.405 230.928 330.245C224.098 312.845 219.907 294.346 218.697 275.681C218.189 267.723 218.271 258.212 223.988 251.931C227.231 248.358 232.096 247.575 235.463 251.464C238.459 254.914 238.377 259.793 238.281 264.095C237.855 282.869 237.277 301.658 242.115 319.979C244.808 330.149 247.79 340.114 249.275 350.559C250.553 359.562 250.855 369.609 245.193 377.264C244.918 377.635 245.537 377.992 245.812 377.621C250.635 371.107 251.199 362.778 250.512 354.957C249.659 345.336 247.351 335.894 244.712 326.631C241.909 316.749 239.778 306.949 239.078 296.682C238.39 286.512 238.679 276.327 238.94 266.143C239.05 261.992 239.435 257.47 237.662 253.567C236.398 250.791 233.814 248.303 230.653 248.028C222.834 247.382 219.082 257.841 218.216 263.903C216.993 272.561 218.285 281.729 219.563 290.319C221.006 300.05 223.232 309.657 226.201 319.03C229.334 328.871 233.581 338.093 237.896 347.453C242.225 356.854 246.196 366.86 245.138 377.415C245.097 377.91 245.812 377.91 245.853 377.456Z" fill="#D1D9DD" fill-opacity="0.5"/>
<path d="M246.278 376.948C248.367 370.282 248.024 363.176 246.897 356.373C245.674 348.979 243.557 341.722 241.07 334.671C238.418 327.153 235.367 319.772 233.113 312.117C230.818 304.379 229.32 296.407 228.633 288.367C227.85 279.213 228.124 269.991 229.43 260.906C229.499 260.453 228.812 260.26 228.743 260.714C226.544 276.066 227.259 291.776 230.942 306.853C234.652 322.026 241.757 336.114 245.179 351.384C247.034 359.644 248.147 368.537 245.578 376.769C245.454 377.195 246.155 377.388 246.278 376.948Z" fill="#D1D9DD" fill-opacity="0.5"/>
<path d="M246.251 375.958C254.964 360.675 256.984 343.357 255.074 326.067C254.098 317.271 252.257 308.612 250.237 299.995C248.093 290.841 246.65 281.811 249.137 272.561C251.157 265.043 256.448 254.873 265.862 256.453C269.847 257.127 272.39 260.384 273.269 264.164C274.163 268.04 273.42 271.915 272.225 275.64C270.947 279.612 269.256 283.474 268.611 287.625C267.951 291.803 268.239 296.05 268.597 300.242C269.394 309.547 269.298 318.769 268.803 328.088C268.281 337.86 267.195 347.769 263.168 356.799C259.664 364.647 253.975 372.055 245.839 375.422C245.413 375.601 245.605 376.288 246.031 376.11C261.121 369.883 267.113 352.263 268.789 337.351C269.889 327.634 270.315 317.587 269.875 307.815C269.655 303.018 268.954 298.249 268.927 293.452C268.899 288.532 270.04 284.079 271.661 279.475C273.915 273.111 276.444 265.057 271.689 259.12C267.099 253.375 258.757 255.491 254.401 260.315C248.917 266.39 246.897 275.805 246.993 283.777C247.089 293.205 250.237 302.414 252.064 311.595C254.236 322.48 255.651 333.64 254.868 344.759C254.112 355.631 251.034 366.131 245.633 375.601C245.399 376 246.018 376.357 246.251 375.958Z" fill="#D1D9DD" fill-opacity="0.5"/>
<path d="M246.663 375.835C254.62 365.911 260.64 353.308 261.987 340.567C262.811 332.719 262.014 324.652 261.698 316.79C261.368 308.736 261.011 300.696 260.736 292.641C260.475 285.027 260.599 276.808 265.395 270.458C265.67 270.087 265.051 269.73 264.776 270.101C260.997 275.104 260.049 281.371 259.953 287.487C259.829 295.115 260.42 302.771 260.736 310.399C261.052 318.425 261.629 326.493 261.574 334.534C261.533 341.571 260.2 348.305 257.726 354.889C254.978 362.228 251.089 369.21 246.182 375.326C245.866 375.683 246.375 376.192 246.663 375.835Z" fill="#D1D9DD" fill-opacity="0.5"/>
<path d="M241.867 378.515C241.345 373.017 238.336 368.248 235.065 363.96C231.533 359.328 227.548 355.122 223.631 350.807C219.247 345.982 215.646 340.76 212.513 335.042C209.49 329.531 206.191 323.964 205.188 317.683C204.652 314.357 204.625 310.976 204.748 307.623C204.872 304.351 204.817 300.613 206.562 297.727C208.335 294.786 212.032 293.315 214.891 295.734C217.515 297.96 217.886 301.548 218.12 304.764C219.013 316.817 223.59 327.813 229.045 338.464C235.271 350.614 244.025 364.111 241.18 378.432C241.084 378.886 241.785 379.078 241.867 378.625C244.41 365.87 237.8 353.583 232.055 342.684C225.665 330.562 219.879 318.302 218.807 304.448C218.477 300.159 216.952 293.329 211.249 293.755C205.587 294.181 204.419 300.847 204.157 305.327C203.786 311.883 203.883 318.577 206.453 324.72C208.967 330.713 212.321 336.678 215.88 342.107C219.934 348.305 225.28 353.377 230.104 358.957C234.872 364.468 240.466 370.955 241.167 378.515C241.194 378.968 241.909 378.968 241.867 378.515Z" fill="#D1D9DD" fill-opacity="0.5"/>
<path d="M241.868 378.006C240.603 367.753 237.195 357.816 231.739 349.02C226.119 339.949 218.148 332.335 214.63 322.054C212.527 315.924 211.922 309.382 212.788 302.963C212.843 302.51 212.156 302.317 212.101 302.771C210.685 313.23 213.228 323.47 218.945 332.307C221.79 336.705 225.143 340.746 228.194 345.007C231.451 349.57 234.227 354.435 236.357 359.63C238.776 365.499 240.37 371.698 241.153 378.006C241.208 378.46 241.923 378.46 241.868 378.006Z" fill="#D1D9DD" fill-opacity="0.5"/>
<path d="M271.027 86.9454L270.093 86.2445L296.685 50.6884L320.157 74.1222L349.938 29.3163L374.853 60.7079L406.915 27.8457H456.883V29.0002H407.396L374.757 62.4534L350.02 31.2817L320.35 75.9364L296.809 52.4477L271.027 86.9454Z" fill="#F7F9FA"/>
<path opacity="0.24" d="M248.849 17.249H128.999V86.4232H248.849V17.249Z" stroke="#D1D9DD" stroke-miterlimit="10"/>
<path opacity="0.24" d="M138.755 24.8906H131.237V86.423H138.755V24.8906Z" fill="#D1D9DD"/>
<path opacity="0.24" d="M150.68 35.584H143.163V86.4235H150.68V35.584Z" fill="#D1D9DD"/>
<path opacity="0.24" d="M162.61 51.8428H155.093V86.423H162.61V51.8428Z" fill="#D1D9DD"/>
<path opacity="0.24" d="M174.555 41.2871H167.038V86.4228H174.555V41.2871Z" fill="#D1D9DD"/>
<path opacity="0.24" d="M186.485 63.0859H178.968V86.4372H186.485V63.0859Z" fill="#D1D9DD"/>
<path opacity="0.24" d="M198.411 74.7539H190.894V86.4227H198.411V74.7539Z" fill="#D1D9DD"/>
<path opacity="0.24" d="M210.34 51.8428H202.823V86.423H210.34V51.8428Z" fill="#D1D9DD"/>
<path opacity="0.24" d="M222.266 34.8965H214.749V86.4232H222.266V34.8965Z" fill="#D1D9DD"/>
<path opacity="0.24" d="M234.196 24.8906H226.679V86.423H234.196V24.8906Z" fill="#D1D9DD"/>
<path opacity="0.24" d="M246.126 44.916H238.608V86.4233H246.126V44.916Z" fill="#D1D9DD"/>
<path d="M309.163 11.5158L306.936 9.35798L304.792 10.4438C304.201 10.0589 303.597 9.71533 302.978 9.4267L302.786 7.03522L299.79 6.2793L298.485 8.28594H298.498C298.141 8.25845 297.797 8.24471 297.44 8.25845C297.083 8.25845 296.739 8.28594 296.382 8.31343H296.396L295.035 6.33427L292.053 7.17267L291.929 9.57789C291.311 9.88026 290.72 10.2376 290.143 10.6362L287.971 9.60538L285.814 11.8182L286.899 13.9623C286.501 14.5533 286.171 15.158 285.882 15.7902L283.491 15.9826L282.722 18.9789L284.728 20.2846C284.714 20.6282 284.701 20.9855 284.701 21.3291C284.701 21.6865 284.728 22.0301 284.756 22.3874L284.742 22.3737L282.763 23.7343L283.601 26.7168L285.992 26.8543C286.295 27.4727 286.652 28.0775 287.064 28.641L286.034 30.8126L288.246 32.9704L290.39 31.8846C290.981 32.2832 291.586 32.613 292.204 32.9017L292.397 35.2931L295.392 36.0628L296.698 34.0562C297.042 34.0699 297.399 34.0837 297.742 34.0837C298.1 34.0837 298.443 34.0562 298.801 34.0287L300.147 36.0078L303.13 35.1694L303.253 32.778C303.872 32.4756 304.463 32.1182 305.04 31.7059L307.197 32.7367L309.369 30.5239L308.283 28.3798C308.668 27.7889 309.011 27.1841 309.3 26.5656L311.691 26.3732L312.461 23.377L310.454 22.0713V22.085C310.482 21.7277 310.496 21.3841 310.482 21.0267C310.482 20.6831 310.454 20.3258 310.427 19.9822L312.406 18.6215L311.568 15.639L309.163 15.5016C308.86 14.8831 308.503 14.2921 308.104 13.7149L309.163 11.5158ZM304.463 27.8438C300.766 31.6372 294.705 31.7059 290.912 28.0088C287.133 24.3116 287.051 18.2504 290.747 14.4571C294.444 10.6774 300.505 10.595 304.284 14.2921C308.077 17.9893 308.146 24.0504 304.463 27.8438Z" fill="#F7F9FA"/>
<path d="M309.206 11.4764C308.463 10.7617 307.721 10.0332 306.993 9.31852C306.966 9.29103 306.938 9.29103 306.911 9.30478C306.485 9.52468 306.045 9.74459 305.619 9.9645C305.426 10.0607 305.11 10.3081 304.89 10.3356C304.616 10.3631 304.217 10.0057 303.942 9.85454C303.667 9.70336 303.159 9.55217 303.035 9.30478C302.939 9.11236 302.994 8.71378 302.966 8.49388C302.925 8.01283 302.884 7.53179 302.856 7.037C302.856 7.00951 302.843 6.98202 302.801 6.98202C301.798 6.73463 300.809 6.47349 299.806 6.2261C299.778 6.21235 299.751 6.22609 299.737 6.25358C299.297 6.92705 298.857 7.58676 298.431 8.26023C298.418 8.28771 298.431 8.32895 298.459 8.34269C297.909 8.04032 296.961 8.13653 296.425 8.37018C296.466 8.35643 296.494 8.3152 296.466 8.27397C296.013 7.61425 295.559 6.95453 295.106 6.29482C295.092 6.26733 295.064 6.25358 295.037 6.26733C294.047 6.54221 293.058 6.83084 292.055 7.10572C292.027 7.11946 292.013 7.13321 292.013 7.17444C291.986 7.65548 291.959 8.15027 291.931 8.63132C291.917 8.85122 291.972 9.2498 291.89 9.44222C291.78 9.68961 291.271 9.85454 290.997 10.0057C290.722 10.1707 290.337 10.5417 290.062 10.5143C289.842 10.5005 289.526 10.2531 289.334 10.1707C288.894 9.9645 288.454 9.75833 288.014 9.55217C287.987 9.53843 287.959 9.53843 287.932 9.56592C287.217 10.3081 286.489 11.0365 285.774 11.7787C285.747 11.8062 285.747 11.8337 285.761 11.8612C285.98 12.2873 286.2 12.7271 286.42 13.1531C286.516 13.3456 286.764 13.6617 286.791 13.8816C286.819 14.1565 286.461 14.555 286.297 14.8299C286.145 15.1048 285.994 15.6133 285.747 15.737C285.554 15.8332 285.156 15.7783 284.936 15.8057C284.455 15.847 283.974 15.8745 283.493 15.9157C283.466 15.9157 283.438 15.9294 283.438 15.9707C283.177 16.974 282.93 17.9636 282.668 18.9669C282.655 18.9944 282.668 19.0219 282.696 19.0356C283.204 19.3655 283.713 19.6953 284.208 20.0252C284.565 20.2588 284.579 20.2451 284.647 20.6437C284.744 21.1797 284.455 21.8669 284.812 22.348C284.799 22.3205 284.757 22.3067 284.73 22.3205C284.07 22.774 283.411 23.2276 282.751 23.6811C282.723 23.6949 282.71 23.7224 282.723 23.7499C282.998 24.7394 283.287 25.729 283.562 26.7323C283.576 26.7598 283.589 26.7736 283.63 26.7736C284.111 26.801 284.592 26.8285 285.087 26.856C285.307 26.8698 285.706 26.8148 285.898 26.8973C286.159 27.0072 286.31 27.5157 286.475 27.7906C286.64 28.0655 287.011 28.4503 286.984 28.7252C286.97 28.9451 286.723 29.2612 286.64 29.4537C286.434 29.8935 286.228 30.3333 286.022 30.7731C286.008 30.8006 286.008 30.8281 286.035 30.8556C286.778 31.5703 287.506 32.2987 288.248 33.0134C288.275 33.0409 288.303 33.0409 288.33 33.0271C288.756 32.8072 289.196 32.5873 289.622 32.3674C289.815 32.2712 290.131 32.0238 290.351 31.9963C290.625 31.9688 291.024 32.3262 291.299 32.4911C291.574 32.6423 292.082 32.7935 292.192 33.0409C292.288 33.2333 292.233 33.6319 292.261 33.8518C292.302 34.3328 292.343 34.8139 292.371 35.2949C292.371 35.3224 292.385 35.3499 292.426 35.3499C293.429 35.611 294.418 35.8584 295.422 36.1196C295.449 36.1333 295.477 36.1196 295.49 36.0921C295.751 35.6798 296.013 35.2812 296.287 34.8689C296.397 34.6902 296.562 34.3053 296.727 34.1954C296.947 34.0305 297.483 34.1404 297.785 34.1404C298.088 34.1404 298.624 34.0167 298.857 34.1679C299.036 34.2779 299.201 34.6627 299.311 34.8414C299.586 35.2399 299.861 35.6385 300.122 36.0371C300.135 36.0646 300.163 36.0783 300.19 36.0646C301.18 35.7897 302.183 35.5011 303.173 35.2262C303.2 35.2125 303.214 35.185 303.214 35.1575C303.241 34.6764 303.269 34.1954 303.296 33.7006C303.31 33.4807 303.255 33.0959 303.337 32.8897C303.447 32.6423 303.956 32.4774 304.231 32.3124C304.506 32.1475 304.89 31.7764 305.165 31.8039C305.385 31.8177 305.701 32.065 305.894 32.1475C306.333 32.3537 306.773 32.5598 307.199 32.7797C307.227 32.7935 307.254 32.7935 307.282 32.766C308.01 32.0238 308.725 31.2954 309.453 30.5532C309.48 30.5257 309.48 30.4982 309.467 30.4707C309.247 30.0447 309.027 29.6048 308.807 29.1788C308.711 28.9864 308.463 28.6702 308.436 28.4503C308.408 28.1755 308.766 27.7769 308.931 27.502C309.082 27.2271 309.233 26.7186 309.48 26.5949C309.673 26.4987 310.071 26.5537 310.291 26.5262C310.772 26.4849 311.253 26.4437 311.748 26.4162C311.775 26.4162 311.803 26.4025 311.803 26.3612C312.064 25.3579 312.311 24.3683 312.573 23.365C312.586 23.3375 312.573 23.31 312.545 23.2963C311.872 22.8565 311.212 22.4304 310.539 21.9906C310.511 21.9769 310.47 21.9906 310.456 22.0181C310.676 21.5233 310.594 21.001 310.58 20.4788C310.58 19.9152 310.552 19.984 310.992 19.6816C311.487 19.338 311.982 18.9944 312.476 18.6508C312.504 18.637 312.518 18.6096 312.504 18.5821C312.229 17.5925 311.94 16.6029 311.665 15.5996C311.652 15.5721 311.624 15.5584 311.597 15.5584C311.116 15.5309 310.621 15.5034 310.14 15.4759C309.92 15.4621 309.522 15.5171 309.329 15.4347C309.082 15.3247 308.917 14.8162 308.766 14.5413C308.601 14.2664 308.23 13.8816 308.257 13.6067C308.271 13.3868 308.518 13.0707 308.601 12.8783C308.807 12.4384 309.013 11.9986 309.233 11.5588C309.274 11.4901 309.151 11.4214 309.123 11.4901C308.848 12.0673 308.285 12.837 308.175 13.4692C308.065 14.1565 308.821 14.8711 309.151 15.5171C309.164 15.5446 309.192 15.5446 309.206 15.5446C309.7 15.5721 311.267 15.4072 311.556 15.6546C311.72 15.792 311.775 16.4105 311.83 16.6304C311.968 17.1389 312.215 17.7024 312.284 18.2385C312.339 18.692 312.435 18.4309 312.105 18.7607C311.748 19.1043 311.239 19.3517 310.841 19.6404C310.058 20.2039 310.497 21.1247 310.442 22.0731C310.442 22.1418 310.539 22.1555 310.566 22.1006C310.484 22.293 312.38 23.2001 312.421 23.5162C312.476 23.9423 312.119 24.6845 312.023 25.0968C311.968 25.3029 311.83 26.2238 311.734 26.3063C311.212 26.7186 309.934 26.1551 309.343 26.4987C309.206 26.5811 308.299 28.1892 308.299 28.3541C308.312 28.5466 308.477 28.7665 308.573 28.9314C308.752 29.2887 309.329 30.0309 309.329 30.4295C309.329 30.6357 308.903 30.9793 308.67 31.2129C308.326 31.5703 307.886 32.23 307.447 32.4636C307.075 32.6698 307.117 32.5873 306.567 32.3262C306.237 32.175 305.55 31.6527 305.179 31.6665C304.835 31.6665 304.341 32.1475 304.025 32.3262C303.777 32.4774 303.406 32.5736 303.255 32.8072C303.063 33.1371 303.186 34.0854 303.159 34.4703C303.118 35.13 303.241 35.0475 302.692 35.2399C302.059 35.4598 301.386 35.611 300.74 35.7897C300.108 35.9684 300.232 35.9409 299.861 35.4049C299.544 34.9376 299.228 34.4703 298.899 34.003C298.885 33.9892 298.871 33.9755 298.844 33.9755C298.349 34.0167 297.098 33.7968 296.713 34.0167C296.48 34.1542 296.246 34.7177 296.109 34.9376C295.971 35.1575 295.545 35.9684 295.394 35.9959C294.996 36.0921 294.116 35.666 293.718 35.5698C293.498 35.5148 292.591 35.3774 292.508 35.2812C292.302 35.02 292.398 33.9617 292.371 33.6181C292.357 33.4257 292.398 33.0409 292.302 32.876C292.165 32.6698 290.639 31.8451 290.433 31.8451C289.76 31.8314 288.839 32.9859 288.275 32.876C287.973 32.8072 286.187 31.048 286.159 30.8418C286.063 30.1684 287.217 29.3575 287.176 28.6565C287.162 28.4366 286.269 26.9522 286.077 26.8285C285.843 26.6774 285.128 26.7736 284.854 26.7598C284.345 26.7323 283.864 26.8148 283.658 26.5262C283.328 26.0589 283.259 25.0968 283.095 24.547C282.902 23.8598 282.765 23.901 283.328 23.5162C283.521 23.3788 284.799 22.5679 284.744 22.4854C284.785 22.5266 284.867 22.5266 284.867 22.4579C284.826 21.9494 285.046 20.7399 284.826 20.3276C284.744 20.1764 284.345 19.9977 284.221 19.929C283.96 19.7503 282.943 19.3242 282.833 19.0219C282.792 18.9257 283.053 18.2385 283.095 18.0735C283.218 17.5787 283.259 16.7266 283.548 16.3005C283.727 16.0257 283.768 16.1081 284.235 16.0669C284.647 16.0394 285.486 16.1356 285.843 15.9432C286.118 15.792 286.187 15.4759 286.352 15.1598C286.503 14.8849 287.011 14.3076 286.997 14.019C286.984 13.6479 286.503 13.0432 286.338 12.7271C286.2 12.4659 285.939 12.0399 285.98 11.8887C286.049 11.5451 286.915 10.9266 287.162 10.6792C287.327 10.5005 287.808 9.8408 288.042 9.77208C288.193 9.73085 289.073 10.2806 289.292 10.3906C289.512 10.5005 289.925 10.7891 290.158 10.8029C290.571 10.8166 291.601 9.93701 292 9.73085C292.027 9.7171 292.027 9.68961 292.027 9.67587C292.055 9.07113 291.917 8.12278 292.137 7.55927C292.316 7.11946 293.003 7.09198 293.594 6.92705C294.171 6.76212 294.817 6.40477 295.174 6.70714C295.435 6.92705 296.178 8.45264 296.397 8.35643C296.342 8.38392 296.342 8.49388 296.411 8.48013C297.112 8.42515 297.813 8.41141 298.528 8.45264C298.596 8.45264 298.61 8.35643 298.555 8.32895C298.72 8.42516 299.49 6.84458 299.723 6.63842C300.08 6.3223 300.726 6.66591 301.304 6.81709C301.894 6.96828 302.609 6.96828 302.774 7.42183C302.994 8.02658 302.637 8.97492 302.939 9.53843C303.035 9.7171 304.629 10.6242 304.835 10.6105C305.316 10.583 306.045 10.0057 306.471 9.78582C307.144 9.44222 307.103 9.68961 307.68 10.2531C308.161 10.7204 308.656 11.2015 309.137 11.6688C309.178 11.6275 309.274 11.5313 309.206 11.4764Z" fill="#F7F9FA"/>
<path d="M304.41 27.7909C301.579 30.5947 297.305 31.4744 293.649 29.8113C290.104 28.1895 287.877 24.4649 288.111 20.5753C288.345 16.562 291.217 13.0572 295.078 11.9852C298.94 10.9132 303.132 12.4662 305.427 15.7511C308.038 19.4757 307.488 24.5198 304.41 27.7909C304.355 27.8459 304.451 27.9421 304.506 27.8872C307.227 24.9871 308.038 20.7265 306.347 17.0843C304.602 13.3321 300.534 11.0918 296.439 11.5866C292.522 12.0539 289.197 14.9952 288.248 18.8298C287.273 22.7743 288.935 27.0075 292.33 29.2341C296.192 31.763 301.263 31.1033 304.506 27.9009C304.561 27.8322 304.478 27.736 304.41 27.7909Z" fill="#F7F9FA"/>
<g opacity="0.43">
<path d="M388.785 3.42109L387.355 2.03294L385.981 2.73389C385.61 2.48649 385.212 2.26659 384.813 2.07417L384.689 0.534827L382.765 0.0400391L381.927 1.33199H381.941C381.721 1.31824 381.487 1.3045 381.267 1.31824C381.048 1.31824 380.814 1.33199 380.594 1.35947H380.608L379.728 0.0950155L377.818 0.631036L377.736 2.17038C377.337 2.3628 376.952 2.59645 376.581 2.85758L375.193 2.19787L373.805 3.62725L374.506 5.00167C374.259 5.37276 374.039 5.77134 373.846 6.16992L372.307 6.29361L371.812 8.21779L373.104 9.05618C373.091 9.27609 373.091 9.50974 373.091 9.72964C373.091 9.94955 373.104 10.1832 373.132 10.4031V10.3894L371.867 11.2552L372.403 13.1657L373.943 13.2481C374.135 13.6467 374.369 14.0316 374.63 14.4026L373.97 15.7908L375.386 17.179L376.76 16.478C377.145 16.7391 377.529 16.9453 377.928 17.1377L378.052 18.6771L379.976 19.1719L380.814 17.8799C381.034 17.8937 381.267 17.8937 381.487 17.8937C381.707 17.8937 381.941 17.8799 382.161 17.8662L383.027 19.1306L384.937 18.5946L385.019 17.0553C385.418 16.8628 385.803 16.6292 386.174 16.3681L387.562 17.0278L388.95 15.6121L388.249 14.2377C388.496 13.8666 388.716 13.468 388.908 13.0695L390.448 12.9458L390.942 11.0216L389.65 10.1832V10.1969C389.664 9.97704 389.678 9.74339 389.664 9.52348C389.664 9.30358 389.65 9.06993 389.637 8.85002L390.901 7.98414L390.365 6.07371L388.826 5.99124C388.634 5.59266 388.414 5.20783 388.139 4.83674L388.785 3.42109ZM385.775 13.9079C383.411 16.3406 379.508 16.3818 377.076 14.0178C374.643 11.6538 374.602 7.75049 376.966 5.31778C379.33 2.88507 383.233 2.84384 385.665 5.20783C388.098 7.57182 388.139 11.4751 385.775 13.9079Z" fill="#D1D9DD"/>
<g opacity="0.43">
<path opacity="0.43" d="M388.813 3.3948C388.332 2.9275 387.865 2.47394 387.384 2.00664C387.37 1.9929 387.357 1.9929 387.329 2.00664C387.054 2.14408 386.779 2.28152 386.491 2.43271C386.367 2.50143 386.161 2.65262 386.024 2.66636C385.845 2.6801 385.584 2.44645 385.419 2.35024C385.24 2.25404 384.91 2.15783 384.842 1.9929C384.787 1.8692 384.814 1.60806 384.801 1.47062C384.773 1.15451 384.746 0.852136 384.732 0.536021C384.732 0.522277 384.718 0.494788 384.704 0.494788C384.058 0.329859 383.426 0.164929 382.78 0C382.767 0 382.739 0 382.739 0.0137441C382.464 0.439812 382.176 0.879624 381.901 1.30569C381.887 1.31944 381.901 1.34692 381.915 1.36067C381.571 1.16825 380.953 1.23697 380.609 1.37441C380.636 1.36067 380.65 1.33318 380.636 1.31944C380.348 0.893368 380.059 0.481044 379.757 0.0549765C379.743 0.0412324 379.729 0.0274882 379.716 0.0412324C379.084 0.219906 378.438 0.39858 377.805 0.577253C377.792 0.577253 377.778 0.604741 377.778 0.618486C377.764 0.9346 377.751 1.23697 377.723 1.55309C377.709 1.69053 377.751 1.95167 377.696 2.07536C377.627 2.24029 377.297 2.3365 377.132 2.44645C376.953 2.54266 376.706 2.79006 376.527 2.77631C376.39 2.76257 376.184 2.61138 376.06 2.55641C375.785 2.41897 375.497 2.29527 375.222 2.15783C375.208 2.14408 375.181 2.15783 375.167 2.17157C374.7 2.63887 374.246 3.11992 373.779 3.58722C373.765 3.60096 373.765 3.6147 373.779 3.64219C373.916 3.91708 374.054 4.19196 374.205 4.48058C374.274 4.60428 374.425 4.81044 374.439 4.94788C374.452 5.12656 374.219 5.3877 374.122 5.55263C374.026 5.7313 373.93 6.06116 373.765 6.12988C373.641 6.18486 373.38 6.15737 373.243 6.17111C372.927 6.1986 372.624 6.22609 372.308 6.23983C372.295 6.23983 372.267 6.25358 372.267 6.26732C372.102 6.91329 371.937 7.54552 371.772 8.1915C371.772 8.20524 371.772 8.23273 371.786 8.23273C372.116 8.43889 372.432 8.6588 372.762 8.86496C372.996 9.01614 373.009 9.0024 373.051 9.26354C373.105 9.60714 372.927 10.047 373.16 10.3631C373.147 10.3493 373.119 10.3356 373.106 10.3493C372.679 10.638 372.267 10.9266 371.841 11.2152C371.827 11.2289 371.814 11.2427 371.827 11.2564C372.006 11.8887 372.185 12.5346 372.363 13.1669C372.363 13.1806 372.391 13.1944 372.405 13.1944C372.721 13.2081 373.023 13.2218 373.339 13.2493C373.477 13.2631 373.738 13.2218 373.861 13.2768C374.026 13.3455 374.122 13.6754 374.232 13.8403C374.329 14.019 374.576 14.2664 374.562 14.4451C374.548 14.5825 374.397 14.7887 374.342 14.9124C374.205 15.1873 374.081 15.4759 373.944 15.7508C373.93 15.7645 373.944 15.792 373.958 15.8057C374.425 16.273 374.906 16.7266 375.373 17.1939C375.387 17.2076 375.401 17.2076 375.428 17.1939C375.703 17.0565 375.978 16.919 376.266 16.7678C376.39 16.6991 376.596 16.5479 376.734 16.5342C376.912 16.5204 377.173 16.7541 377.338 16.8503C377.517 16.9465 377.847 17.0427 377.915 17.2076C377.97 17.3313 377.943 17.5925 377.957 17.7299C377.984 18.046 378.012 18.3484 378.025 18.6645C378.025 18.6783 378.039 18.7058 378.053 18.7058C378.699 18.8707 379.331 19.0356 379.977 19.2005C379.991 19.2005 380.018 19.2005 380.018 19.1868C380.183 18.9257 380.362 18.6645 380.527 18.4034C380.595 18.2934 380.705 18.046 380.815 17.9636C380.966 17.8674 381.296 17.9361 381.502 17.9223C381.695 17.9223 382.038 17.8399 382.189 17.9361C382.299 18.0048 382.409 18.2522 382.478 18.3621C382.657 18.6233 382.822 18.8707 383 19.1318C383.014 19.1456 383.028 19.1593 383.041 19.1456C383.674 18.9669 384.32 18.7882 384.952 18.6095C384.965 18.6095 384.979 18.5821 384.979 18.5683C384.993 18.2522 385.007 17.9498 385.034 17.6337C385.048 17.4963 385.007 17.2351 385.062 17.1114C385.13 16.9465 385.46 16.8503 385.625 16.7403C385.804 16.6441 386.051 16.3967 386.23 16.4105C386.367 16.4242 386.573 16.5754 386.697 16.6304C386.972 16.7678 387.26 16.8915 387.535 17.029C387.549 17.0427 387.577 17.029 387.59 17.0152C388.058 16.5342 388.511 16.0669 388.978 15.5858C388.992 15.5721 388.992 15.5583 388.978 15.5309C388.841 15.256 388.69 14.9811 388.552 14.6925C388.484 14.5688 388.332 14.3626 388.319 14.2252C388.305 14.0465 388.539 13.7854 388.635 13.6204C388.731 13.4418 388.827 13.1119 388.992 13.0432C389.116 12.9882 389.377 13.0157 389.514 13.0019C389.83 12.9745 390.133 12.947 390.449 12.9332C390.463 12.9332 390.49 12.9195 390.49 12.9057C390.655 12.2598 390.82 11.6275 390.985 10.9816C390.985 10.9678 390.985 10.9403 390.971 10.9403C390.545 10.6654 390.105 10.3768 389.679 10.1019C389.665 10.0882 389.638 10.1019 389.624 10.1157C389.762 9.79956 389.707 9.4697 389.707 9.1261C389.707 8.76875 389.693 8.80998 389.982 8.61757C390.298 8.39766 390.614 8.17775 390.943 7.95785C390.957 7.9441 390.971 7.93036 390.957 7.91662C390.779 7.28439 390.6 6.63841 390.421 6.00618C390.421 5.99244 390.394 5.97869 390.38 5.97869C390.064 5.96495 389.762 5.95121 389.446 5.92372C389.308 5.90997 389.047 5.95121 388.923 5.89623C388.758 5.82751 388.662 5.49765 388.552 5.33272C388.456 5.15405 388.209 4.90665 388.222 4.72798C388.236 4.59054 388.387 4.38438 388.442 4.26068C388.58 3.9858 388.717 3.69717 388.841 3.42229C388.868 3.38105 388.786 3.33982 388.772 3.38105C388.594 3.75215 388.236 4.24693 388.167 4.64551C388.099 5.08533 388.58 5.53888 388.786 5.96495C388.786 5.97869 388.813 5.97869 388.827 5.97869C389.143 5.99244 390.146 5.89623 390.325 6.04741C390.435 6.14362 390.463 6.52846 390.504 6.67964C390.6 7.0095 390.751 7.36685 390.792 7.71045C390.82 7.99908 390.889 7.83415 390.682 8.04031C390.463 8.26022 390.133 8.4114 389.872 8.60382C389.363 8.96117 389.652 9.55217 389.61 10.1569C389.61 10.1981 389.665 10.2119 389.693 10.1707C389.638 10.2943 390.861 10.8853 390.889 11.0778C390.93 11.3526 390.696 11.8199 390.627 12.0948C390.6 12.2185 390.504 12.8233 390.435 12.8645C390.091 13.1256 389.281 12.7683 388.896 12.9882C388.8 13.0432 388.222 14.074 388.222 14.1702C388.222 14.2939 388.346 14.4313 388.401 14.5413C388.525 14.7749 388.882 15.2422 388.896 15.5034C388.896 15.6271 388.621 15.847 388.47 16.0119C388.25 16.2456 387.961 16.6579 387.686 16.8091C387.439 16.9465 387.48 16.8915 387.123 16.7129C386.917 16.6166 386.463 16.2868 386.23 16.2868C386.01 16.2868 385.694 16.6029 385.488 16.7129C385.323 16.8091 385.089 16.8778 384.993 17.029C384.869 17.2351 384.952 17.8536 384.938 18.101C384.91 18.5271 384.993 18.4721 384.636 18.5958C384.237 18.7332 383.797 18.8294 383.385 18.9531C382.986 19.0631 383.055 19.0494 382.822 18.7058C382.615 18.4034 382.409 18.101 382.203 17.8124C382.189 17.7986 382.176 17.7849 382.162 17.7986C381.846 17.8261 381.049 17.6749 380.788 17.8261C380.636 17.9086 380.485 18.2797 380.403 18.4171C380.307 18.5546 380.046 19.0768 379.949 19.1043C379.688 19.1593 379.125 18.8982 378.864 18.8294C378.726 18.7882 378.149 18.7058 378.094 18.637C377.957 18.4721 378.025 17.7849 378.012 17.5787C377.998 17.455 378.025 17.2076 377.957 17.0977C377.874 16.9602 376.885 16.438 376.761 16.438C376.321 16.438 375.73 17.1802 375.373 17.0977C375.181 17.0565 374.04 15.9157 374.013 15.792C373.944 15.3522 374.686 14.8299 374.672 14.3901C374.658 14.2527 374.081 13.2906 373.971 13.2218C373.82 13.1256 373.367 13.1806 373.188 13.1806C372.858 13.1669 372.556 13.2218 372.418 13.0294C372.212 12.7271 372.157 12.1086 372.061 11.7512C371.937 11.3114 371.855 11.3389 372.212 11.0915C372.336 11.009 373.16 10.473 373.119 10.4318C373.147 10.4593 373.202 10.4593 373.202 10.4043C373.174 10.0744 373.312 9.30477 373.174 9.02989C373.119 8.93368 372.858 8.82373 372.789 8.76875C372.611 8.6588 371.965 8.37017 371.896 8.1915C371.869 8.13652 372.034 7.68297 372.061 7.57301C372.144 7.2569 372.171 6.70713 372.35 6.43225C372.46 6.25358 372.487 6.30855 372.789 6.28106C373.051 6.26732 373.586 6.3223 373.82 6.1986C373.999 6.10239 374.04 5.89623 374.15 5.69007C374.246 5.51139 374.576 5.1403 374.562 4.96163C374.548 4.72798 374.246 4.34314 374.136 4.12324C374.054 3.95831 373.889 3.68342 373.903 3.58722C373.944 3.36731 374.507 2.96873 374.658 2.8038C374.768 2.69385 375.071 2.26778 375.222 2.22655C375.318 2.19906 375.882 2.55641 376.033 2.62513C376.17 2.69385 376.431 2.88627 376.596 2.88627C376.857 2.90001 377.517 2.3365 377.778 2.19906C377.792 2.19906 377.792 2.17157 377.792 2.15783C377.819 1.75925 377.723 1.15451 377.86 0.797159C377.97 0.508533 378.41 0.494788 378.795 0.384835C379.166 0.274882 379.578 0.0549765 379.812 0.247394C379.977 0.384835 380.458 1.37441 380.595 1.30569C380.554 1.31944 380.554 1.38816 380.609 1.38816C381.063 1.34692 381.516 1.34692 381.97 1.37441C382.011 1.37441 382.024 1.31944 381.983 1.29195C382.093 1.34692 382.588 0.343603 382.739 0.206162C382.959 0 383.385 0.219906 383.756 0.316115C384.141 0.412324 384.594 0.412324 384.704 0.70095C384.842 1.09953 384.622 1.69053 384.814 2.06162C384.869 2.17157 385.9 2.74882 386.024 2.74882C386.312 2.76257 386.779 2.37773 387.054 2.24029C387.48 2.02039 387.467 2.18532 387.838 2.54266C388.154 2.84503 388.456 3.1474 388.772 3.44977C388.8 3.49101 388.855 3.43603 388.813 3.3948Z" fill="#D1D9DD"/>
<path opacity="0.43" d="M385.735 13.8675C383.921 15.668 381.173 16.2315 378.823 15.1594C376.541 14.1149 375.112 11.7234 375.263 9.22198C375.415 6.65183 377.256 4.39779 379.744 3.71059C382.231 3.02338 384.911 4.01296 386.395 6.12955C388.072 8.53477 387.714 11.7784 385.735 13.8675C385.694 13.9087 385.763 13.9637 385.79 13.9225C387.536 12.0533 388.058 9.33193 386.972 6.98169C385.845 4.57647 383.248 3.13333 380.609 3.44945C378.094 3.75182 375.964 5.63476 375.346 8.09496C374.714 10.6239 375.786 13.3452 377.971 14.7746C380.444 16.3964 383.701 15.9703 385.79 13.9087C385.832 13.895 385.777 13.84 385.735 13.8675Z" fill="#7BB9F5"/>
</g>
</g>
<path opacity="0.23" d="M431.791 91.6592C429.785 93.6521 426.748 94.2843 424.15 93.0885C421.636 91.934 420.055 89.2814 420.22 86.5188C420.385 83.6738 422.419 81.1724 425.167 80.4164C427.916 79.6605 430.898 80.7601 432.52 83.0828C434.361 85.7492 433.963 89.3364 431.791 91.6592C431.75 91.7004 431.819 91.7691 431.86 91.7279C433.798 89.6663 434.375 86.6425 433.166 84.0449C431.929 81.3785 429.043 79.7842 426.129 80.1416C423.34 80.4714 420.99 82.5605 420.316 85.2819C419.615 88.0857 420.797 91.0819 423.216 92.6762C425.964 94.4767 429.565 93.9957 431.874 91.7279C431.901 91.6866 431.833 91.6179 431.791 91.6592Z" fill="#7BB9F5"/>
<g opacity="0.53">
<path opacity="0.53" d="M333.639 175.793L330.63 169.595V144.319C330.63 143.591 330.039 143 329.31 143H293.318C292.59 143 291.999 143.591 291.999 144.319V169.801C291.999 170.529 292.59 171.12 293.318 171.12H326.246L333.639 175.793Z" fill="#D1D9DD"/>
<path opacity="0.53" d="M294.857 150.106C300.849 150.106 306.827 150.106 312.819 150.106C313.204 150.106 313.204 149.501 312.819 149.501C306.827 149.501 300.849 149.501 294.857 149.501C294.459 149.501 294.459 150.106 294.857 150.106Z" fill="white"/>
<path opacity="0.53" d="M294.857 153.446C300.849 153.446 306.827 153.446 312.819 153.446C313.204 153.446 313.204 152.841 312.819 152.841C306.827 152.841 300.849 152.841 294.857 152.841C294.459 152.841 294.459 153.446 294.857 153.446Z" fill="white"/>
<path opacity="0.53" d="M294.857 156.785C300.849 156.785 306.827 156.785 312.819 156.785C313.204 156.785 313.204 156.181 312.819 156.181C306.827 156.181 300.849 156.181 294.857 156.181C294.459 156.181 294.459 156.785 294.857 156.785Z" fill="white"/>
<path opacity="0.53" d="M308.793 162.035C314.784 162.035 320.762 162.035 326.754 162.035C327.139 162.035 327.139 161.431 326.754 161.431C320.762 161.431 314.784 161.431 308.793 161.431C308.408 161.444 308.408 162.035 308.793 162.035Z" fill="white"/>
<path opacity="0.53" d="M308.793 164.166C314.784 164.166 320.762 164.166 326.754 164.166C327.139 164.166 327.139 163.562 326.754 163.562C320.762 163.562 314.784 163.562 308.793 163.562C308.408 163.562 308.408 164.166 308.793 164.166Z" fill="white"/>
<path opacity="0.53" d="M308.793 166.296C314.784 166.296 320.762 166.296 326.754 166.296C327.139 166.296 327.139 165.691 326.754 165.691C320.762 165.691 314.784 165.691 308.793 165.691C308.408 165.691 308.408 166.296 308.793 166.296Z" fill="white"/>
</g>
<g opacity="0.53">
<path opacity="0.53" d="M175.997 165.793L181.301 154.869V110.325C181.301 109.042 182.343 108 183.626 108H247.057C248.34 108 249.382 109.042 249.382 110.325V155.233C249.382 156.516 248.34 157.558 247.057 157.558H189.027L175.997 165.793Z" fill="#D1D9DD"/>
<path opacity="0.53" d="M244.344 120.523C233.785 120.523 223.249 120.523 212.69 120.523C212.011 120.523 212.011 119.457 212.69 119.457C223.249 119.457 233.785 119.457 244.344 119.457C245.047 119.457 245.047 120.523 244.344 120.523Z" fill="white"/>
<path opacity="0.53" d="M244.344 126.409C233.785 126.409 223.249 126.409 212.69 126.409C212.011 126.409 212.011 125.343 212.69 125.343C223.249 125.343 233.785 125.343 244.344 125.343C245.047 125.343 245.047 126.409 244.344 126.409Z" fill="white"/>
<path opacity="0.53" d="M244.344 132.295C233.785 132.295 223.249 132.295 212.69 132.295C212.011 132.295 212.011 131.229 212.69 131.229C223.249 131.229 233.785 131.229 244.344 131.229C245.047 131.229 245.047 132.295 244.344 132.295Z" fill="white"/>
<path opacity="0.53" d="M219.787 141.547C209.228 141.547 198.692 141.547 188.133 141.547C187.454 141.547 187.454 140.481 188.133 140.481C198.692 140.481 209.228 140.481 219.787 140.481C220.465 140.506 220.465 141.547 219.787 141.547Z" fill="white"/>
<path opacity="0.53" d="M219.787 145.302C209.228 145.302 198.692 145.302 188.133 145.302C187.454 145.302 187.454 144.236 188.133 144.236C198.692 144.236 209.228 144.236 219.787 144.236C220.465 144.236 220.465 145.302 219.787 145.302Z" fill="white"/>
<path opacity="0.53" d="M219.787 149.056C209.228 149.056 198.692 149.056 188.133 149.056C187.454 149.056 187.454 147.99 188.133 147.99C198.692 147.99 209.228 147.99 219.787 147.99C220.465 147.99 220.465 149.056 219.787 149.056Z" fill="white"/>
</g>
<path d="M70.0658 381.879C70.0658 381.879 68.9245 388.33 68.3622 394.731C68.1471 397.229 70.0658 399.395 72.5799 399.511C81.098 399.858 99.3086 400.553 105.842 400.255C106.818 400.206 107.463 399.213 107.099 398.287C106.801 397.526 106.206 396.898 105.461 396.55L75.3751 382.722L70.0658 381.879Z" fill="black"/>
<path d="M69.123 378.075L70.0328 385.799C70.0328 385.799 75.309 388.247 78.8982 385.485L76.7149 376.867L69.123 378.075Z" fill="#ECAB95"/>
<path d="M69.817 232.831C69.42 234.849 67.6999 333.514 78.2359 377.727C78.4013 378.455 78.0374 379.199 77.3592 379.481C75.7383 380.142 72.5626 381.102 68.775 381.234C67.6006 381.267 66.542 380.506 66.2112 379.381C63.201 369.126 48.7449 317.718 46.8594 268.625C44.7588 213.76 46.8594 266.756 46.8594 266.756L48.0999 232.848L69.817 232.831Z" fill="black"/>
<path d="M35.4636 385.236C35.4636 385.236 33.6442 388.495 31.8909 397.162C31.5767 398.733 32.6683 400.222 34.2562 400.387C37.068 400.669 41.4015 401.016 44.8583 400.999C46.4627 400.983 47.7032 399.593 47.5048 398.006C47.1243 394.846 45.9169 389.653 42.2285 385.617L35.4636 385.236Z" fill="black"/>
<path d="M33.8594 375.312L35.993 386.989C35.993 386.989 38.1102 388.561 42.2948 387.42L41.2693 374.849L33.8594 375.312Z" fill="#ECAB95"/>
<path d="M28.0693 235.859C19.4519 287.912 29.9383 364.512 33.4779 379.514C33.6929 380.441 34.4372 381.135 35.3635 381.284C36.9513 381.549 39.5481 381.764 42.1118 381.02C42.9884 380.755 43.6169 379.961 43.65 379.051C44.1297 366.927 43.2696 292.511 51.3081 263.101C51.7216 261.613 52.6313 260.306 53.8883 259.413L69.4856 248.33L70.6765 230.4L28.0693 235.859Z" fill="black"/>
<path d="M83.0328 137.226C57.1807 136.796 28.6656 144.007 28.6656 144.007C20.958 188.965 27.3259 240.82 27.3259 240.82C47.3394 246.063 69.9165 237.611 69.9165 237.611C73.2411 218.821 88.7557 165.94 88.7557 165.94C101.392 164.369 111.796 160.73 120.364 155.917C113.83 148.341 110.754 138.698 109.414 133.008C100.251 135.836 91.0051 137.358 83.0328 137.226Z" fill="#E04E39"/>
<path d="M159.381 99.1495C156.834 96.0894 153.625 97.5285 153.625 97.5285C149.821 113.589 129.874 126.624 109.381 132.992C110.721 138.698 113.797 148.325 120.33 155.9C154.353 136.779 159.381 99.1495 159.381 99.1495Z" fill="#ECAB95"/>
<path d="M158.769 99.9266C159.033 100.77 155.957 102.06 154.154 98.6034C154.088 96.9493 153.079 89.8534 154.071 88.5136C159.347 81.335 169.553 72.3203 169.553 72.3203C171.273 74.024 169.85 75.6946 169.85 75.6946L164.888 80.8553C165.93 82.7244 167.187 84.3123 167.783 86.5783C168.229 88.2986 167.965 90.1346 167.088 91.6894C166.212 93.2608 165.037 95.2953 163.912 96.8832C161.795 99.8936 158.769 99.9266 158.769 99.9266Z" fill="#ECAB95"/>
<path d="M162.739 84.1963L158.223 88.0172L156.801 91.8215L160.82 96.2875C160.82 96.2875 162.176 88.7284 163.185 87.0909C164.194 85.4699 163.665 84.676 162.739 84.1963Z" fill="#ECAB95"/>
<path d="M38.5725 169.034L28.665 144.008C28.665 144.008 4.51649 160.416 0.546875 181.208C5.11193 181.538 13.415 182.729 21.5362 186.831C23.3225 177.023 38.5725 169.034 38.5725 169.034Z" fill="#E04E39"/>
<path d="M59.6778 192.588C59.6778 192.588 32.5687 207.905 23.422 194.821C21.5199 192.108 21.0733 189.412 21.5364 186.832C13.4153 182.73 5.11217 181.539 0.547115 181.208C-0.643769 187.477 -0.0152467 194.143 3.67318 200.891C19.7005 230.201 63.267 199.27 63.267 199.27L59.6778 192.588Z" fill="#ECAB95"/>
<path d="M56.42 211.973L71.2068 160.3C71.3722 159.721 71.8684 159.291 72.4803 159.208C75.1598 158.894 82.9337 158.018 91.8984 157.257C102.699 156.347 115.236 155.603 122.746 156.231C123.804 156.314 124.449 157.455 123.986 158.414C119.719 167.032 102.186 202.115 93.4035 213.611C93.1058 213.991 92.6592 214.206 92.1795 214.206L57.8589 213.892C56.8665 213.892 56.1553 212.932 56.42 211.973Z" fill="#EBEBEB"/>
<path d="M59.9927 199.485C59.9927 199.485 57.9251 191.016 58.7687 188.006C59.5957 184.996 61.2166 181.142 66.5756 181.985C71.9511 182.845 78.2694 185.111 78.2694 185.111C78.2694 185.111 77.9551 189.031 73.8698 187.758L76.4004 189.71C76.4004 189.71 76.0365 192.852 72.5962 191.165L74.9449 193.762C74.9449 193.762 73.4728 196.342 70.9256 194.688C68.4115 193.051 67.1876 200.511 59.9927 199.485Z" fill="#ECAB95"/>
<path d="M56.8497 116.236L48.6292 140.022C48.4969 140.419 48.6623 140.849 49.0262 141.047C51.2757 142.288 59.3472 145.877 69.0728 139.691C70.0817 139.046 70.7764 138.004 70.9252 136.813L73.5882 116.22H56.8497V116.236Z" fill="#ECAB95"/>
<path d="M73.7849 89.6558C74.033 90.0032 81.4099 116.683 81.4099 116.683L66.0938 120.57L55.3428 96.3217C55.3428 96.3217 69.7492 83.9162 73.7849 89.6558Z" fill="#ECAB95"/>
<path d="M60.1373 100.766L65.0155 114.278C65.0847 114.447 65.1539 114.616 65.275 114.768C65.9323 115.681 68.4579 118.691 71.4333 115.986C74.1319 113.534 76.6402 111.335 78.9582 110.929C79.9961 110.743 80.9994 111.369 81.2935 112.367C82.0028 114.853 83.4731 120.467 83.9921 125.523C84.0959 126.555 83.3693 127.485 82.3314 127.671C79.2004 128.246 72.5577 129.294 67.0221 128.922C66.2783 128.871 65.6037 128.432 65.2923 127.755C63.77 124.491 59.0821 114.599 57.3522 112.029C55.7261 109.627 51.7129 109.695 50.0349 109.83C49.4813 109.881 48.9451 109.712 48.5299 109.357C47.0595 108.105 44.2572 104.892 48.2012 101.037C49.0316 100.225 48.997 98.9399 48.1493 98.1451C46.4541 96.5894 44.655 93.833 47.4747 90.4171C50.329 86.9505 54.1174 87.4916 56.4181 88.3202C57.3522 88.6584 58.3728 88.2695 58.8745 87.4239C59.1686 86.9505 59.6702 86.5953 60.5525 86.663C61.7288 86.7644 62.7321 85.8006 62.6975 84.6507C62.6629 82.4354 63.4759 79.6114 67.42 78.4107C74.426 76.28 78.7852 82.892 79.2177 87.8298C79.6501 92.7676 71.9177 94.6447 67.3854 94.3234C63.9257 94.0697 61.3655 97.418 60.3449 99.0414C59.9989 99.5656 59.947 100.191 60.1373 100.766Z" fill="black"/>
<path d="M60.173 115.823C60.173 115.823 59.0979 107.437 55.608 107.04C52.118 106.626 48.7273 109.488 52.2007 114.202C56.5177 120.041 60.173 115.823 60.173 115.823Z" fill="#ECAB95"/>
<path d="M433.334 308.952C434.773 311.086 440.496 359.368 441.405 377.215C441.472 378.423 440.496 379.432 439.288 379.432C438.246 379.432 437.353 378.671 437.204 377.646L426.734 310.507L433.334 308.952Z" fill="black"/>
<path d="M387.269 308.952C385.83 311.086 380.107 359.368 379.198 377.215C379.131 378.423 380.107 379.432 381.315 379.432C382.357 379.432 383.25 378.671 383.399 377.646L393.869 310.507L387.269 308.952Z" fill="black"/>
<path d="M442 305.181V305.71C442.033 309.498 438.774 312.608 434.689 312.674L386.26 313.501C382.224 313.567 378.883 310.656 378.684 306.934L378.651 306.454C378.453 302.567 381.744 299.292 385.945 299.21L434.391 298.333C438.543 298.267 441.95 301.343 442 305.181Z" fill="#704232"/>
<path d="M347.769 375.462C356.387 375.462 360.191 374.717 361.894 374.056C361.564 375.462 360.307 376.586 358.719 376.586H328.269C327.243 376.586 326.598 375.61 326.846 374.717C330.303 374.982 337.68 375.462 347.769 375.462Z" fill="#3D170B"/>
<path d="M326.829 374.701C326.879 374.519 326.945 374.337 327.077 374.188C329.393 371.227 334.057 366.58 340.392 366.662C349.671 366.795 352.913 367.804 360.141 366.712L361.844 372.352C362.01 372.931 362.026 373.51 361.894 374.039C360.19 374.718 356.386 375.445 347.769 375.445C337.679 375.462 330.303 374.982 326.829 374.701Z" fill="#562212"/>
<path d="M358.059 360.642L360.143 367.754C360.143 367.754 355.512 369.855 351.443 368.168L350.649 362.014L358.059 360.642Z" fill="#ECAB95"/>
<path d="M294.925 370.98C301.64 376.372 305.064 378.192 306.817 378.737C305.676 379.631 304.005 379.697 302.765 378.704L279.03 359.633C278.236 358.988 278.335 357.83 279.08 357.284C281.61 359.666 287.052 364.661 294.925 370.98Z" fill="#3D170B"/>
<path d="M279.062 357.284C279.211 357.169 279.377 357.086 279.575 357.036C283.231 356.193 289.764 355.498 294.643 359.534C301.805 365.456 303.691 368.267 309.992 371.939L307.809 377.381C307.578 377.944 307.23 378.39 306.8 378.721C305.047 378.175 301.623 376.356 294.908 370.964C287.051 364.662 281.61 359.666 279.062 357.284Z" fill="#562212"/>
<path d="M402.766 279.659C402.766 279.659 351.228 283.86 340.642 288.839C330.073 293.818 349.276 363.586 349.276 363.586C349.276 363.586 352.154 364.976 358.555 362.974C358.555 362.974 351.988 311.483 356.868 300.318L412.674 291.188L402.766 279.659Z" fill="#454545"/>
<path d="M315.136 362.147C314.656 362.577 310.008 371.939 310.008 371.939C310.008 371.939 304.848 370.814 303.789 367.556L308.437 359.104L315.136 362.147Z" fill="#ECAB95"/>
<path d="M433.794 279.229C433.794 279.229 435.481 283.264 435.399 288.64C435.3 296.067 429.329 302.088 421.919 302.468L360.985 305.247C359.695 305.313 358.603 306.19 358.289 307.447C356.85 312.988 349.854 329.992 315.649 363.933C314.739 364.843 313.317 364.992 312.242 364.297L307.379 361.221C306.866 360.89 306.701 360.228 307.015 359.699L342.493 299.11C344.362 296.034 347.356 293.817 350.83 292.924L402.765 279.642L433.794 279.229Z" fill="#58595B"/>
<path d="M373.756 184.583C373.756 184.583 380.289 196.128 386.938 201.719L373.177 209.394C373.177 209.394 370.084 197.17 362.988 193.598L373.756 184.583Z" fill="#DD9885"/>
<path d="M434.903 279.659C434.903 279.659 418.446 283.662 402.749 279.659C402.749 279.659 380.784 250.118 372.282 242.079C372.282 242.079 358.719 263.466 328.55 266.51L326.863 262.755C326.863 262.755 350.896 251.673 358.289 234.669C365.683 217.649 368.66 210.387 375.392 205.954C379.577 203.192 382.091 201.306 383.381 200.264C384.092 199.702 385.068 199.636 385.845 200.115C392.991 204.449 426.583 227.457 434.903 279.659Z" fill="#D1D9DD"/>
<path d="M381.315 226.199C381.315 226.199 378.387 233.824 373.193 240.606L381.315 226.199Z" fill="#BECAD0"/>
<path d="M330.371 260.786L326.981 259.876L316.66 257.494C315.419 257.213 314.112 257.428 313.037 258.106L304.172 263.68L328.668 263.647L330.371 260.786Z" fill="#ECAB95"/>
<path d="M363.385 167.281C363.385 167.281 357.034 177.834 355.942 183.656C354.834 189.479 353.081 193.134 359.714 195.202C366.346 197.286 372.516 194.656 376.386 189.214C376.386 189.214 382.423 180.845 381.828 177.007C381.216 173.17 363.385 167.281 363.385 167.281Z" fill="#ECAB95"/>
<path d="M374.617 184.699L373.757 184.583C373.757 184.583 378.255 177.802 375.311 176.114C372.367 174.427 360.392 170.292 358.308 165.578C356.307 161.029 359.301 155.885 362.923 154.827C363.154 154.76 363.386 154.893 363.469 155.124L363.684 155.703C363.833 156.1 364.378 156.117 364.544 155.736C364.709 155.372 365.222 155.356 365.387 155.72C366.032 157.126 367.951 159.541 373.707 161.41C381.878 164.056 386.972 168.175 386.344 173.981C386.31 174.345 386.674 174.609 387.005 174.46C387.667 174.163 388.692 174.113 389.867 175.403C391.918 177.636 390.313 182.532 384.723 185.989C384.458 186.155 384.408 186.535 384.64 186.733C385.483 187.445 386.658 189.049 382.87 190.472C379 191.927 376.899 191.431 376.122 191.117C375.907 191.034 375.791 190.819 375.841 190.587L376.833 185.493C376.883 185.228 376.701 184.98 376.436 184.947L374.617 184.699Z" fill="black"/>
<path d="M374.269 185.741C374.269 185.741 377.064 178.843 380.008 181.258C382.952 183.689 377.295 189.049 374.682 188.966L374.269 185.741Z" fill="#ECAB95"/>
<path d="M339.832 268.478C339.799 268.478 339.749 268.478 339.716 268.478L287.4 268.428C286.11 268.428 285.051 267.386 285.068 266.096C285.068 264.806 286.126 263.73 287.416 263.763L339.732 263.813C341.022 263.813 342.064 264.855 342.064 266.145C342.048 267.402 341.072 268.428 339.832 268.478Z" fill="#D1D9DD"/>
<path d="M316.543 271.106C316.775 272.049 338.608 353.925 344.132 374.684C344.777 377.082 342.991 379.431 340.543 379.431C338.839 379.431 337.351 378.257 336.937 376.586L312.706 278.335L316.543 271.106Z" fill="black"/>
<path d="M304.585 271.106C304.353 272.049 282.52 353.925 276.996 374.684C276.351 377.082 278.137 379.431 280.585 379.431C282.289 379.431 283.778 378.257 284.191 376.586L308.422 278.335L304.585 271.106Z" fill="black"/>
<path d="M303.674 268.428H317.27V279.345C317.27 280.916 316.013 282.19 314.458 282.19H312.589V306.719C312.589 307.91 311.63 308.87 310.472 308.87C309.297 308.87 308.355 307.91 308.355 306.719V282.19H307.412C305.361 282.19 303.69 280.502 303.69 278.418V268.428H303.674Z" fill="black"/>
<path d="M350.698 265.813H274.779C273.72 265.813 272.794 266.541 272.53 267.583L271.471 271.735C271.091 273.224 272.215 274.679 273.737 274.679L351.624 274.233C353.129 274.216 354.238 272.777 353.874 271.305L352.947 267.6C352.683 266.541 351.757 265.813 350.698 265.813Z" fill="black"/>
</svg>
