<svg width="213" height="213" viewBox="0 0 213 213" fill="none" xmlns="http://www.w3.org/2000/svg">
<path d="M139.073 109.029C137.689 107.645 137.689 105.391 139.073 104.006L206.784 36.3638C215.072 28.0394 215.072 14.5677 206.784 6.2433C198.495 -2.0811 185.077 -2.0811 176.789 6.2433L109.025 73.939C107.64 75.3234 105.386 75.3234 104.002 73.939L36.38 6.22555C28.056 -2.06335 14.5671 -2.06335 6.24304 6.22555C-2.08101 14.5145 -2.08101 27.9329 6.24304 36.2218L73.9359 103.971C75.3203 105.355 75.3203 107.609 73.9359 108.994L6.22529 176.636C-2.06327 184.961 -2.06327 198.432 6.22529 206.757C14.5139 215.081 27.9317 215.081 36.2203 206.757L103.966 139.061C105.351 137.677 107.605 137.677 108.989 139.061L176.629 206.774C184.953 215.063 198.424 215.063 206.748 206.774C215.072 198.486 215.072 185.067 206.748 176.778L139.073 109.029Z" fill="white"/>
</svg>
