<?xml version="1.0" encoding="utf-8"?><svg width="21" height="21" fill="none" xmlns="http://www.w3.org/2000/svg" viewBox="0 0 21 21"><circle cx="10.5" cy="10.5" r="10.5" fill="#E04E39"/><path d="M13.334 11.8c.052-.429.091-.858.091-1.3 0-.442-.039-.871-.091-1.3h2.197c.104.416.169.852.169 1.3 0 .448-.065.884-.169 1.3h-2.197zm-1.15 3.614c.39-.721.689-1.502.897-2.314h1.917a5.22 5.22 0 01-2.814 2.314zM12.02 11.8H8.979a8.624 8.624 0 01-.104-1.3c0-.442.039-.877.104-1.3h3.042c.058.423.104.858.104 1.3 0 .442-.046.871-.104 1.3zM10.5 15.674A8.816 8.816 0 019.258 13.1h2.484a8.816 8.816 0 01-1.242 2.574zM7.9 7.9H6.002A5.15 5.15 0 018.81 5.586c-.39.721-.683 1.502-.91 2.314zm-1.898 5.2H7.9c.227.813.52 1.593.91 2.314A5.205 5.205 0 016.002 13.1zm-.533-1.3a5.357 5.357 0 01-.169-1.3c0-.448.065-.884.169-1.3h2.197c-.052.429-.091.858-.091 1.3 0 .442.039.871.091 1.3H5.469zM10.5 5.32c.54.78.975 1.65 1.242 2.58H9.258c.267-.93.703-1.8 1.242-2.58zm4.498 2.58h-1.917a10.172 10.172 0 00-.897-2.314A5.191 5.191 0 0114.998 7.9zM10.5 4C6.905 4 4 6.925 4 10.5A6.5 6.5 0 1010.5 4z" fill="#fff"/></svg>