<?xml version="1.0" encoding="utf-8"?><svg width="21" height="21" fill="none" xmlns="http://www.w3.org/2000/svg" viewBox="0 0 21 21"><circle cx="10.5" cy="10.5" r="10.5" fill="#E04E39"/><path d="M15.635 6H5.365c-.097 0-.19.04-.258.113A.398.398 0 005 6.386v.776c0 .036.037.077.067.094l5.398 3.258a.087.087 0 00.091 0l5.235-3.255c.03-.017.108-.063.137-.084.035-.026.072-.049.072-.095v-.694c0-.102-.039-.2-.107-.273A.356.356 0 0015.635 6zM15.954 8.333a.088.088 0 00-.092 0L12.9 10.177a.099.099 0 00-.041.112.098.098 0 00.02.036l2.963 3.375a.085.085 0 00.067.03c.024.001.047-.01.064-.027a.1.1 0 00.027-.068V8.417a.1.1 0 00-.012-.048.094.094 0 00-.034-.036zM12.046 10.794a.087.087 0 00-.113-.018l-1.187.739a.445.445 0 01-.459.003l-1.045-.631a.087.087 0 00-.107.013l-3.968 3.89a.098.098 0 00-.029.08.1.1 0 00.015.043.094.094 0 00.03.03.34.34 0 00.182.057H15.53a.088.088 0 00.05-.016.101.101 0 00.017-.146l-3.55-4.044zM8.262 10.44a.102.102 0 00.014-.124.095.095 0 00-.03-.03l-3.11-1.877a.087.087 0 00-.09 0 .094.094 0 00-.034.036.1.1 0 00-.012.048v4.924a.1.1 0 00.015.053c.01.016.023.028.04.035a.087.087 0 00.098-.018l3.109-3.047z" fill="#fff"/></svg>