<?xml version="1.0" encoding="utf-8"?><svg width="23" height="23" fill="none" xmlns="http://www.w3.org/2000/svg" viewBox="0 0 23 23"><circle cx="11.5" cy="11.5" r="11.5" fill="#E04E39"/><path d="M17.82 14.147l-1.834 1.538c-.27.235-.629.315-.978.315-1.544-.04-3.004-.681-4.203-1.34-1.968-1.212-3.773-2.713-4.906-4.528-.435-.761-.944-1.732-.896-2.582.005-.32.106-.633.372-.839l1.833-1.55c.38-.274.749-.18.992.14l1.475 2.366c.155.28.066.58-.165.78l-.676.572a.255.255 0 00-.069.163c.26.848 1.044 1.63 1.737 2.168.693.538 1.438 1.267 2.404 1.44.12.027.266.037.352-.03l.785-.676c.271-.174.662-.259.951-.117h.014l2.66 1.33c.39.206.43.606.151.85z" fill="#fff"/></svg>