<?xml version="1.0" encoding="utf-8"?><svg width="31" height="31" fill="none" xmlns="http://www.w3.org/2000/svg" viewBox="0 0 31 31"><path d="M15.638 28.612c2.563.089 4.848-.727 6.966-2.1.186-.12.37-.246.565-.348.682-.355 1.3-.23 1.664.363.39.634.18 1.192-.35 1.613-.895.71-1.912 1.223-2.96 1.664C12.05 33.783 1.2 27.391.089 17.18-.815 8.873 5.269 1.192 13.604.12c8.253-1.064 16.198 5.108 17.262 13.356.352 2.736.011 5.353-1.03 7.885-.944 2.3-3.408 3.303-5.705 2.36-.831-.342-1.416-.938-1.83-1.729-.457-.87-.464-.86-1.166-.226-5.528 4.974-12.598 1.01-13.925-4.244-1.165-4.62 2.207-9.5 6.908-10.424 4.325-.85 9.824 2.935 9.902 8.352.02 1.356-.003 2.714.029 4.068.017.733.157 1.45.837 1.892 1.061.689 2.165.323 2.71-.924 1.028-2.35 1.28-4.799.808-7.311-1.039-5.554-4.958-9.502-10.466-10.57-8.1-1.57-15.372 4.424-15.554 12.661-.144 6.511 4.303 12.276 11.267 13.235.653.089 1.325.078 1.987.111zm-.15-19.155c-3.539.003-6.098 2.53-6.1 6.03-.002 3.603 2.49 6.087 6.115 6.091 3.57.005 6.12-2.537 6.133-6.112.013-3.472-2.586-6.01-6.149-6.009z" fill="#C39367"/></svg>