<?xml version="1.0" encoding="utf-8"?><svg width="31" height="31" fill="none" xmlns="http://www.w3.org/2000/svg" viewBox="0 0 31 31"><path d="M23.785 30.988c-4.413-.212-8.296-1.515-11.8-3.848-5.148-3.425-8.91-7.972-10.893-13.892-.676-2.02-1-4.105-1.09-6.231A2.292 2.292 0 01.558 5.37C2.296 3.28 4.42 1.718 6.957.75c1.606-.612 3.05.116 3.61 1.76.616 1.796 1.21 3.6 1.799 5.405.14.436.28.888.32 1.342.093 1.084-.153 2.05-1.162 2.674-.37.227-.728.475-1.093.707-1.283.82-1.34.997-.446 2.192a31.2 31.2 0 006.118 6.163c.256.196.556.337.847.48.433.213.768.117 1.03-.315.353-.58.723-1.15 1.123-1.698.704-.966 1.66-1.386 2.845-1.13 2.155.465 4.268 1.073 6.305 1.918 1.967.817 2.608 2.318 1.78 4.272-.935 2.209-2.38 4.063-4.1 5.716a2.716 2.716 0 01-2.148.752zm-.343-2.167c.38.002.758.022 1.074-.265 1.526-1.388 2.767-2.977 3.56-4.897.285-.688.096-1.14-.602-1.418-1.365-.543-2.745-1.03-4.176-1.368-2.728-.648-2.067-.758-3.458 1.34-.885 1.337-1.724 1.7-3.25 1.411-.635-.12-1.146-.482-1.65-.849-1.896-1.383-3.557-3.025-5.111-4.77-.81-.907-1.65-1.808-2.192-2.922-.778-1.599-.376-2.986 1.118-3.907.393-.244.76-.526 1.165-.75.628-.347.787-.81.554-1.491C9.857 7.11 9.29 5.27 8.68 3.445c-.28-.839-.52-.945-1.335-.607-1.809.754-3.344 1.9-4.676 3.325-.348.372-.53.817-.479 1.338.133 1.349.237 2.702.624 4.011 1.837 6.212 5.56 10.965 11.09 14.323a20.435 20.435 0 009.539 2.986zM16.318.002C23.183.15 29.38 5.53 30.683 12.305c.159.823.263 1.662.313 2.498.052.866-.417 1.453-1.07 1.472-.59.017-1.03-.545-1.071-1.377C28.526 8.3 24.037 3.284 17.52 2.241c-.452-.071-.918-.07-1.378-.097-.898-.055-1.446-.49-1.424-1.13.024-.669.528-1.012 1.489-1.014.11.002.22.002.11.002z" fill="#C39367"/><path d="M16.272 4.226c5.646.128 10.63 5.254 10.59 10.776-.005.682-.442 1.256-1.018 1.269-.694.015-1.028-.422-1.133-1.05-.065-.399-.058-.81-.104-1.213-.463-3.972-3.926-7.3-7.933-7.63a8.469 8.469 0 01-.965-.139c-.6-.117-1.026-.445-.96-1.1.064-.646.52-.913 1.145-.913h.378z" fill="#C39367"/><path d="M22.372 14.902c.007.856-.326 1.336-.945 1.375-.611.037-1.122-.426-1.168-1.207-.139-2.468-2.07-4.231-4.243-4.385-.99-.07-1.407-.54-1.318-1.199.092-.673.7-1.001 1.644-.888 3.376.406 6.006 3.155 6.03 6.304z" fill="#C39367"/></svg>