<?xml version="1.0" encoding="utf-8"?><svg width="20" height="19" xmlns="http://www.w3.org/2000/svg" viewBox="0 0 20 19"><path d="M0 .024C1.47.017 2.941.01 4.412 0c.2-.002.284.08.284.279-.002 1.37-.002 2.744 0 4.115 0 .2-.085.279-.284.279C2.942 4.66 1.47 4.653 0 4.646M0 6.842l4.412-.024c.2-.003.284.08.284.279-.002 1.37-.002 2.743 0 4.114 0 .2-.085.28-.284.28-1.47-.013-2.941-.02-4.412-.027M0 14.304l4.412-.024c.2-.003.284.079.284.279-.002 1.37-.002 2.743 0 4.114 0 .2-.085.28-.284.28-1.47-.015-2.941-.02-4.412-.03M7.652.024C9.122.017 10.593.01 12.064 0c.199-.002.284.08.284.28-.002 1.37-.002 2.743 0 4.114 0 .2-.085.279-.284.279-1.47-.01-2.941-.017-4.412-.024V.024zM7.652 6.842l4.412-.024c.199-.003.284.08.284.279-.002 1.37-.002 2.743 0 4.114 0 .2-.085.28-.284.28-1.47-.01-2.941-.018-4.412-.025V6.842zM7.652 14.304l4.412-.024c.199-.003.284.079.284.279-.002 1.37-.002 2.743 0 4.114 0 .2-.085.28-.284.28-1.47-.01-2.941-.018-4.412-.025v-4.624zM15.304.024C16.774.017 18.245.01 19.716 0c.199-.002.284.08.284.28-.002 1.37-.002 2.743 0 4.114 0 .2-.085.279-.284.279-1.471-.01-2.942-.017-4.412-.024V.024zM15.304 6.842l4.412-.024c.199-.003.284.08.284.279-.002 1.37-.002 2.743 0 4.114 0 .2-.085.28-.284.28-1.471-.01-2.942-.018-4.412-.025V6.842zM15.304 14.304l4.412-.024c.199-.003.284.079.284.279-.002 1.37-.002 2.743 0 4.114 0 .2-.085.28-.284.28-1.471-.01-2.942-.018-4.412-.025v-4.624z"/><path d="M15.304.022C16.509.015 17.715.01 18.924 0c.162 0 .233.065.233.229-.003 1.125-.003 2.25 0 3.376 0 .163-.07.228-.234.228-1.205-.01-2.413-.014-3.62-.021V.022zM15.304 7.604c1.205-.007 2.414-.012 3.62-.022.162 0 .233.065.233.229a791.64 791.64 0 000 3.376c0 .164-.07.229-.234.229-1.205-.01-2.413-.015-3.62-.022v-3.79zM15.304 15.189c1.205-.008 2.414-.012 3.62-.022.162 0 .233.065.233.229-.003 1.125-.003 2.25 0 3.376 0 .163-.07.228-.234.228-1.205-.01-2.413-.014-3.62-.021v-3.79z"/></svg>