<?xml version="1.0" encoding="utf-8"?><svg width="10" height="10" fill="none" xmlns="http://www.w3.org/2000/svg" viewBox="0 0 10 10"><path d="M10 5.004C10.024 7.734 7.732 10 4.992 10 2.268 9.992-.008 7.725 0 4.971.008 2.258 2.276-.016 5.033.001c2.707.016 5 2.274 4.967 5.003zm-.787.008c0-2.158-1.672-4.185-4.188-4.21A4.169 4.169 0 00.803 4.988a4.17 4.17 0 004.18 4.21c2.16.024 4.18-1.663 4.23-4.186z" fill="#E04E39"/><path d="M7.963 3.74c-.008.04-.041.065-.074.09-.38.389-.77.778-1.15 1.158-.671.662-1.333 1.332-2.004 1.993-.116.116-.116.116-.232 0-.67-.67-1.34-1.34-2.02-2.001-.066-.066-.066-.108 0-.174.141-.132.274-.256.398-.397.074-.074.116-.066.182.008.48.488.968.968 1.449 1.456.082.083.124.083.207 0 .86-.877 1.73-1.737 2.582-2.597.083-.083.133-.091.215 0 .125.14.257.265.39.389.024.025.05.041.057.074z" fill="#E04E39"/></svg>