<?xml version="1.0" encoding="utf-8"?><svg width="38" height="32" fill="none" xmlns="http://www.w3.org/2000/svg" viewBox="0 0 38 32"><path d="M29.744 31.983c-.602.048-1.37-.131-2.13-.358a1.126 1.126 0 00-.675 0c-1.622.488-3.25.502-4.865-.021a.865.865 0 00-.56 0 7.93 7.93 0 01-4.944 0 .866.866 0 00-.56.007c-1.665.502-3.33.53-4.987-.021-.194-.069-.373-.027-.552.035C5.354 33.208.654 29.53.073 25.288c-.359-2.624.617-4.787 2.576-6.577 1.414-1.295 3.129-1.99 5.08-2.1.883-.049 1.744.089 2.584.337.33.096.624.11.954.007 1.543-.49 3.086-.441 4.628.013.237.07.467.104.718.021 1.607-.51 3.215-.496 4.83-.014.243.076.465.083.717 0 1.593-.51 3.193-.489 4.786 0 .215.07.416.09.638.014 4.248-1.391 8.417 1.13 9.874 4.58 1.213 2.872.345 6.308-2.145 8.381-1.55 1.295-3.294 2.052-5.569 2.032zm.237-2.314c3.193.04 5.525-2.156 5.611-5.2.087-3.106-2.16-5.461-5.431-5.544-3.244-.082-5.705 2.176-5.77 5.2-.079 3.195 2.297 5.592 5.59 5.544zM7.794 18.946c-3.186.09-5.669 2.424-5.36 5.998.237 2.672 2.985 5.069 5.317 4.67-3.057-3.554-3.028-7.094.043-10.668zm5.511-.007c-3.222.083-5.733 2.514-5.375 5.985.288 2.782 2.943 5.075 5.31 4.69-3.05-3.561-3.035-7.108.065-10.675zm5.49 10.736c-3.1-3.622-3.1-7.169.02-10.743-1.893.097-3.458.758-4.462 2.28-1.263 1.914-1.328 3.939-.173 5.922.97 1.674 2.57 2.438 4.614 2.541zm5.524-10.757c-2.195.159-3.903.992-4.814 2.865-1.04 2.128-.847 4.208.696 6.088.947 1.15 2.985 1.99 4.04 1.722-2.907-2.948-3.122-7.376.079-10.675zM18.105 9.38V3.168c0-.613-.007-1.233 0-1.845C18.113.537 18.58.014 19.297 0c.674-.014 1.205.551 1.22 1.316.014.867.007 1.728.007 2.596v5.11c0 .103.014.207.021.31.187.014.251-.124.337-.214.632-.599 1.256-1.205 1.888-1.804.56-.53 1.277-.55 1.786-.076.488.455.452 1.192-.093 1.715a1148.031 1148.031 0 01-4.226 4.056c-.596.572-1.278.572-1.873 0-1.414-1.35-2.82-2.7-4.227-4.056-.56-.537-.58-1.226-.079-1.708.503-.482 1.227-.454 1.78.083.732.702 1.45 1.412 2.174 2.12a.523.523 0 01.093-.068z" fill="#E04E39"/></svg>