<?xml version="1.0" encoding="utf-8"?><svg width="35" height="29" fill="none" xmlns="http://www.w3.org/2000/svg" viewBox="0 0 35 29"><path d="M17.506 28.985c-4.324 0-8.648.01-12.972-.004C1.989 28.976-.024 26.62 0 24.463c.044-4.92.01-9.846.01-14.77 0-2.444 2.086-4.509 4.548-4.519 1.146-.004 2.286.005 3.432-.01.322-.004.458.098.444.432-.02.46-.02.926 0 1.387.01.315-.122.412-.425.412-1.218-.01-2.437-.01-3.656.004-1.267.015-2.096.805-2.106 2.06-.019 2.924-.014 5.852-.014 8.775 0 2.113 0 4.227.005 6.335.005 1.353.848 2.206 2.213 2.206 6.976.005 13.951.005 20.932.005 1.697 0 3.393.005 5.09 0 1.087 0 1.91-.582 2.164-1.522a3.41 3.41 0 00.117-.887c0-4.824 0-9.652.005-14.475 0-.33-.04-.65-.112-.965-.22-.92-.99-1.517-1.984-1.532-1.22-.014-2.438-.004-3.657-.004-.497 0-.506-.01-.506-.5 0-.46.01-.926 0-1.386-.005-.242.097-.335.336-.33 1.306.005 2.618-.043 3.92.015 2.042.082 4.011 2.012 4.167 4.038.137 1.735.049 3.47.054 5.21.02 3.249 0 6.501 0 9.75 0 2.762-2.057 4.808-4.836 4.808-4.217-.01-8.429-.01-12.635-.015z" fill="#E04E39"/><path d="M16.38 2.891c0-.6-.005-1.197 0-1.798a1.088 1.088 0 011.023-1.09c.56-.035 1.068.343 1.14.92.123.97.025 1.949.055 2.918.01.3.014.601-.005.902-.02.325.097.441.433.436 1.204-.014 2.413-.01 3.617-.005.61.005 1.078.422 1.136.99.059.557-.331 1.06-.921 1.192a1.92 1.92 0 01-.41.034h-3.314c-.527 0-.532 0-.527.514.005 1.085.005 2.171.005 3.262 0 .378-.044.756-.341 1.037-.337.32-.722.446-1.175.277a1.057 1.057 0 01-.707-1.004c-.005-1.197-.014-2.4.005-3.597.005-.373-.093-.504-.482-.494-1.18.024-2.365.014-3.545.005-.648-.005-1.135-.422-1.184-.98-.059-.698.4-1.216 1.111-1.226 1.204-.014 2.413-.005 3.617-.005.473 0 .473 0 .473-.48-.005-.61-.005-1.207-.005-1.808zM6.869 20.745c-.692 0-1.38-.01-2.072.005-.273.004-.39-.097-.385-.369.01-.5.005-.998.005-1.498 0-.247.107-.358.365-.354 1.419.005 2.837.005 4.256 0 .258 0 .366.102.366.354-.005.5-.005.999 0 1.498.004.272-.117.378-.39.373-.717-.014-1.434-.01-2.145-.01zM13.996 20.745c-.678 0-1.36-.01-2.038.005-.312.004-.424-.112-.41-.417.02-.485.01-.975.005-1.464-.005-.238.083-.345.332-.34 1.418.005 2.842.005 4.26 0 .259 0 .361.107.356.36-.01.498-.01.998 0 1.497.005.286-.127.364-.39.359-.707-.01-1.409 0-2.115 0zM21.108 20.745c-.678 0-1.355-.015-2.033.005-.336.01-.443-.122-.429-.442.02-.475.015-.95.005-1.42-.005-.247.083-.364.346-.364 1.419.005 2.837.005 4.251 0 .263 0 .356.112.351.364-.01.5-.015.999 0 1.498.01.281-.122.368-.385.364-.702-.015-1.404-.005-2.106-.005zM28.21 20.745c-.677 0-1.355-.015-2.037.005-.336.01-.444-.122-.43-.442.02-.475.01-.95.006-1.425-.005-.252.102-.358.36-.358 1.42.004 2.842.004 4.261.004.249 0 .327.112.322.345-.01.499-.015.998 0 1.497.01.277-.098.379-.375.374-.698-.01-1.4 0-2.106 0z" fill="#E04E39"/></svg>