<?xml version="1.0" encoding="utf-8"?><svg width="29" height="29" fill="none" xmlns="http://www.w3.org/2000/svg" viewBox="0 0 29 29"><path d="M28.998 1.56c0 .328-.118.613-.326.86-.085.104-.185.2-.281.296-8.585 8.568-17.174 17.132-25.755 25.704-.385.384-.797.65-1.363.532-.585-.119-.978-.477-1.174-1.024-.193-.54-.074-1.03.326-1.448l.155-.155C9.18 17.745 17.784 9.167 26.384.584c.248-.248.507-.473.866-.54.904-.162 1.756.577 1.748 1.515zM28.998 21.7c.085 3.76-3.063 7.27-7.21 7.3-4.082.03-7.175-3.384-7.32-6.957-.166-4.131 3.168-7.545 7.13-7.615 4.182-.074 7.467 3.414 7.4 7.271zm-7.292 4.34c2.41.004 4.355-1.913 4.363-4.3a4.329 4.329 0 00-4.33-4.338 4.33 4.33 0 00-4.367 4.304c-.014 2.52 2.167 4.412 4.334 4.334zM7.221 14.52C3.61 14.668-.175 11.37.006 6.961.154 3.299 3.243.022 7.221.001c4.126-.027 7.389 3.424 7.311 7.43-.078 4.008-3.56 7.252-7.311 7.09zm.048-2.922c2.185.066 4.322-1.807 4.319-4.316-.004-2.556-2.156-4.374-4.337-4.333-2.363.044-4.304 1.943-4.304 4.304a4.324 4.324 0 004.322 4.345z" fill="#E04E39"/></svg>