<?xml version="1.0" encoding="utf-8"?><svg width="40" height="37" fill="none" xmlns="http://www.w3.org/2000/svg" viewBox="0 0 40 37"><path d="M30.187 35.985h-8.045c-.296.006-.531-.098-.672-.36-.155-.28-.088-.529.094-.777.7-.94 1.385-1.894 2.098-2.834.222-.288.337-.575.33-.948-.02-.992-.007-1.985-.007-2.971 0-.373-.02-.764.384-.98.376-.202.7-.013 1.022.17 4.312 2.416 8.63 4.833 12.942 7.243.108.059.208.118.316.183.336.196.404.497.316.83-.087.32-.343.444-.686.437-1.594-.006-3.188 0-4.776 0-1.11.007-2.213.007-3.316.007zm2.67-1.326c.007-.013.007-.026.014-.04-2.543-.666-5.085-1.319-7.628-1.991-.249-.066-.35.052-.464.209-.357.483-.713.966-1.063 1.456-.067.092-.215.19-.161.3.067.144.242.072.37.072 2.973-.006 5.953-.006 8.933-.006zm.182-1.43c-.034-.06-.034-.079-.047-.079-2.435-1.371-4.877-2.737-7.312-4.108-.242-.137-.276-.02-.276.183 0 .555.014 1.11-.006 1.665-.007.261.1.379.35.444 2.421.62 4.836 1.254 7.291 1.894zM11.245 19.258a34.947 34.947 0 01-.545-.503c-.397-.38-.397-.38 0-.764L27.624 1.556c.417-.405.417-.405.814-.006.579.568.579.568 0 1.13a39685.1 39685.1 0 01-16.782 16.29c-.108.104-.196.247-.41.287zM1 29.982c.054-1.672.6-3.154 1.837-4.356 1.964-1.907 3.935-3.808 5.886-5.728.289-.288.45-.255.713.013.605.627.619.614 0 1.215-1.837 1.783-3.68 3.566-5.516 5.362-.996.967-1.601 2.116-1.547 3.507.094 2.312 1.769 4.383 4.325 4.605.922.078.908.085.901.993 0 .28-.08.392-.39.405-2.926.085-5.785-2.306-6.134-5.134-.034-.3-.081-.588-.074-.882zM29.178 15.783c0 1.992-1.749 3.69-3.8 3.69-2.012 0-3.821-1.724-3.834-3.651-.014-1.986 1.836-3.775 3.874-3.762 1.991.013 3.76 1.77 3.76 3.723zm-3.827-2.345c-1.352 0-2.381 1-2.388 2.306-.007 1.39 1.015 2.442 2.421 2.39 1.554-.059 2.375-.934 2.408-2.364.034-1.365-1.022-2.332-2.441-2.332zM13.956 1.002c1.998-.013 3.787 1.685 3.827 3.658.04 1.92-1.83 3.755-3.834 3.755-1.93 0-3.74-1.737-3.807-3.566-.08-2.123 1.877-3.919 3.814-3.847zM16.37 4.7c.007-1.359-1.01-2.351-2.415-2.364-1.359-.014-2.435.986-2.415 2.325.02 1.463.982 2.345 2.395 2.37 1.412.033 2.428-.96 2.435-2.331zM16.081 35.978c-.383 0-.76-.013-1.143.007-.68.032-1.298-.13-1.843-.53-.222-.163-.397-.163-.612.007-.82.627-1.79.536-2.738.51-.013 0-.027 0-.04-.007-.424-.28-.121-.699-.195-1.045-.047-.202.067-.32.296-.327.437 0 .874-.006 1.305-.013.114 0 .235-.006.282-.11.054-.131-.087-.177-.161-.242-.982-.889-1.07-2.319-.202-3.279.787-.869 2.374-.947 3.343-.163 1.03.836 1.036 2.456.013 3.429-.08.078-.255.124-.181.267.054.118.208.111.33.111 1.008 0 2.017.014 3.02 0 .35-.006.518.079.504.464-.034 1.058.128.915-.962.928-.33 0-.672-.007-1.016-.007zm-2.327-3.494c0-.49-.457-.947-.948-.954-.491-.006-.962.444-.969.928-.007.464.525 1.077.942 1.09.41.02.975-.607.975-1.064z" fill="#E04E39"/><path d="M30.187 35.985h-8.045c-.296.006-.531-.098-.672-.36-.155-.28-.088-.529.094-.777.7-.94 1.385-1.894 2.098-2.834.222-.288.337-.575.33-.948-.02-.992-.007-1.985-.007-2.971 0-.373-.02-.764.384-.98.376-.202.7-.013 1.022.17 4.312 2.416 8.63 4.833 12.942 7.243.108.059.208.118.316.183.336.196.404.497.316.83-.087.32-.343.444-.686.437-1.594-.006-3.188 0-4.776 0-1.11.007-2.213.007-3.316.007zm2.67-1.326c.007-.013.007-.026.014-.04-2.543-.666-5.085-1.319-7.628-1.991-.249-.066-.35.052-.464.209-.357.483-.713.966-1.063 1.456-.067.092-.215.19-.161.3.067.144.242.072.37.072 2.973-.006 5.953-.006 8.933-.006zm.182-1.43c-.034-.06-.034-.079-.047-.079-2.435-1.371-4.877-2.737-7.312-4.108-.242-.137-.276-.02-.276.183 0 .555.014 1.11-.006 1.665-.007.261.1.379.35.444 2.421.62 4.836 1.254 7.291 1.894zM11.245 19.258a34.947 34.947 0 01-.545-.503c-.397-.38-.397-.38 0-.764L27.624 1.556c.417-.405.417-.405.814-.006.579.568.579.568 0 1.13a39685.1 39685.1 0 01-16.782 16.29c-.108.104-.196.247-.41.287zM1 29.982c.054-1.672.6-3.154 1.837-4.356 1.964-1.907 3.935-3.808 5.886-5.728.289-.288.45-.255.713.013.605.627.619.614 0 1.215-1.837 1.783-3.68 3.566-5.516 5.362-.996.967-1.601 2.116-1.547 3.507.094 2.312 1.769 4.383 4.325 4.605.922.078.908.085.901.993 0 .28-.08.392-.39.405-2.926.085-5.785-2.306-6.134-5.134-.034-.3-.081-.588-.074-.882zM29.178 15.783c0 1.992-1.749 3.69-3.8 3.69-2.012 0-3.821-1.724-3.834-3.651-.014-1.986 1.836-3.775 3.874-3.762 1.991.013 3.76 1.77 3.76 3.723zm-3.827-2.345c-1.352 0-2.381 1-2.388 2.306-.007 1.39 1.015 2.442 2.421 2.39 1.554-.059 2.375-.934 2.408-2.364.034-1.365-1.022-2.332-2.441-2.332zM13.956 1.002c1.998-.013 3.787 1.685 3.827 3.658.04 1.92-1.83 3.755-3.834 3.755-1.93 0-3.74-1.737-3.807-3.566-.08-2.123 1.877-3.919 3.814-3.847zM16.37 4.7c.007-1.359-1.01-2.351-2.415-2.364-1.359-.014-2.435.986-2.415 2.325.02 1.463.982 2.345 2.395 2.37 1.412.033 2.428-.96 2.435-2.331zM16.081 35.978c-.383 0-.76-.013-1.143.007-.68.032-1.298-.13-1.843-.53-.222-.163-.397-.163-.612.007-.82.627-1.79.536-2.738.51-.013 0-.027 0-.04-.007-.424-.28-.121-.699-.195-1.045-.047-.202.067-.32.296-.327.437 0 .874-.006 1.305-.013.114 0 .235-.006.282-.11.054-.131-.087-.177-.161-.242-.982-.889-1.07-2.319-.202-3.279.787-.869 2.374-.947 3.343-.163 1.03.836 1.036 2.456.013 3.429-.08.078-.255.124-.181.267.054.118.208.111.33.111 1.008 0 2.017.014 3.02 0 .35-.006.518.079.504.464-.034 1.058.128.915-.962.928-.33 0-.672-.007-1.016-.007zm-2.327-3.494c0-.49-.457-.947-.948-.954-.491-.006-.962.444-.969.928-.007.464.525 1.077.942 1.09.41.02.975-.607.975-1.064z" stroke="#E04E39"/></svg>