<?xml version="1.0" encoding="utf-8"?><svg width="37" height="31" fill="none" xmlns="http://www.w3.org/2000/svg" viewBox="0 0 37 31"><path d="M18.467 29.992H1.957c-.596 0-.94-.286-.956-.797-.016-.55.313-.883.902-.883h31.904c.487 0 .487 0 .487-.488V10.128c0-.673.337-1.022.941-.983a.8.8 0 01.761.75c.008.094 0 .187 0 .272v18.795c0 .256.008.504-.164.72-.204.256-.479.318-.8.318-3.367-.008-6.725 0-10.091 0-2.15-.008-4.308-.008-6.474-.008z" fill="#E04E39"/><path d="M31.885 3.422c-.51.224-.997.433-1.475.65-.204.085-.4.178-.636.132-.4-.085-.659-.356-.706-.751-.04-.326.196-.674.588-.852.77-.349 1.538-.69 2.307-1.03.361-.163.714-.318 1.075-.473.534-.224.997-.061 1.24.457.51 1.108 1.02 2.223 1.522 3.338.299.666-.133 1.317-.808 1.24a.823.823 0 01-.682-.512c-.197-.434-.393-.875-.597-1.309-.04-.077-.047-.209-.149-.209-.133-.008-.141.132-.18.217a49.529 49.529 0 01-1.46 3.144c-1.428 2.82-3.154 5.444-5.257 7.822-2.676 3.02-5.79 5.506-9.432 7.31A30.508 30.508 0 017.16 25.593a37.668 37.668 0 01-5.116.264c-.22 0-.44-.008-.635-.14-.314-.209-.456-.557-.354-.89.102-.349.4-.589.8-.604.495-.016.997-.008 1.492-.008a30.682 30.682 0 007.132-.883 28.488 28.488 0 0011.001-5.398c2.935-2.33 5.336-5.134 7.321-8.294a40.896 40.896 0 002.982-5.754c.047-.116.086-.232.133-.356 0-.008-.015-.03-.031-.108zM31.846 20.947c0 1.812.008 3.624 0 5.444 0 .697-.699 1.1-1.287.76-.322-.187-.416-.481-.416-.845.008-2.75 0-5.498 0-8.248v-2.532c0-.573.314-.906.84-.914.54-.008.863.333.863.93v5.405zM25.976 23.673V21c0-.573.314-.906.848-.906.533 0 .855.325.855.898v5.336c0 .596-.314.93-.863.93-.541 0-.84-.341-.84-.945v-2.641zM23.52 25.044c0 .457.008.913 0 1.37-.008.535-.345.852-.878.845-.503-.008-.824-.334-.824-.86-.008-.898-.008-1.805 0-2.703 0-.534.337-.86.855-.86s.84.334.84.876c.007.441.007.883.007 1.332zM19.417 26.399c.007.441-.393.836-.856.852-.494.015-.894-.349-.91-.829-.016-.48.4-.906.887-.906.463 0 .87.41.879.883z" fill="#E04E39"/><path d="M18.467 29.992H1.957c-.596 0-.94-.286-.956-.797-.016-.55.313-.883.902-.883h31.904c.487 0 .487 0 .487-.488V10.128c0-.673.337-1.022.941-.983a.8.8 0 01.761.75c.008.094 0 .187 0 .272v18.795c0 .256.008.504-.164.72-.204.256-.479.318-.8.318-3.367-.008-6.725 0-10.091 0-2.15-.008-4.308-.008-6.474-.008z" stroke="#E04E39" stroke-width=".5"/><path d="M31.885 3.422c-.51.224-.997.433-1.475.65-.204.085-.4.178-.636.132-.4-.085-.659-.356-.706-.751-.04-.326.196-.674.588-.852.77-.349 1.538-.69 2.307-1.03.361-.163.714-.318 1.075-.473.534-.224.997-.061 1.24.457.51 1.108 1.02 2.223 1.522 3.338.299.666-.133 1.317-.808 1.24a.823.823 0 01-.682-.512c-.197-.434-.393-.875-.597-1.309-.04-.077-.047-.209-.149-.209-.133-.008-.141.132-.18.217a49.529 49.529 0 01-1.46 3.144c-1.428 2.82-3.154 5.444-5.257 7.822-2.676 3.02-5.79 5.506-9.432 7.31A30.508 30.508 0 017.16 25.593a37.668 37.668 0 01-5.116.264c-.22 0-.44-.008-.635-.14-.314-.209-.456-.557-.354-.89.102-.349.4-.589.8-.604.495-.016.997-.008 1.492-.008a30.682 30.682 0 007.132-.883 28.488 28.488 0 0011.001-5.398c2.935-2.33 5.336-5.134 7.321-8.294a40.896 40.896 0 002.982-5.754c.047-.116.086-.232.133-.356 0-.008-.015-.03-.031-.108zM31.846 20.947c0 1.812.008 3.624 0 5.444 0 .697-.699 1.1-1.287.76-.322-.187-.416-.481-.416-.845.008-2.75 0-5.498 0-8.248v-2.532c0-.573.314-.906.84-.914.54-.008.863.333.863.93v5.405zM25.976 23.673V21c0-.573.314-.906.848-.906.533 0 .855.325.855.898v5.336c0 .596-.314.93-.863.93-.541 0-.84-.341-.84-.945v-2.641zM23.52 25.044c0 .457.008.913 0 1.37-.008.535-.345.852-.878.845-.503-.008-.824-.334-.824-.86-.008-.898-.008-1.805 0-2.703 0-.534.337-.86.855-.86s.84.334.84.876c.007.441.007.883.007 1.332zM19.417 26.399c.007.441-.393.836-.856.852-.494.015-.894-.349-.91-.829-.016-.48.4-.906.887-.906.463 0 .87.41.879.883z" stroke="#E04E39" stroke-width=".5"/></svg>