<?xml version="1.0" encoding="utf-8"?><svg width="25" height="25" fill="none" xmlns="http://www.w3.org/2000/svg" viewBox="0 0 25 25"><path d="M0 18.319c0-.381.034-.762.12-1.133.083-.35.183-.696.334-1.027a5.69 5.69 0 011.115-1.64c2.6-2.609 5.197-5.221 7.798-7.834 1.172-1.176 2.353-2.348 3.521-3.529 1.23-1.239 2.696-1.984 4.421-2.13 1.953-.168 3.703.38 5.202 1.678 1.453 1.256 2.287 2.868 2.456 4.79.173 2.005-.396 3.796-1.697 5.333a14.43 14.43 0 01-.69.737c-2.686 2.73-5.378 5.459-8.07 8.188-.194.197-.396.364-.693.364-.322 0-.57-.133-.718-.422a.794.794 0 01.045-.846c.07-.109.17-.201.26-.293 2.741-2.784 5.482-5.568 8.227-8.344.925-.933 1.499-2.047 1.61-3.353.19-2.277-.66-4.09-2.584-5.308-2.122-1.34-4.842-.997-6.626.783-1.292 1.29-2.58 2.583-3.872 3.876-2.464 2.47-4.925 4.94-7.393 7.406-.756.754-1.164 1.67-1.185 2.738-.037 1.825 1.098 3.332 2.692 3.83 1.486.465 2.82.134 3.934-.97 1.775-1.76 3.53-3.534 5.292-5.3 2.002-2.006 4.004-4.007 6.006-6.012.422-.42.67-.917.748-1.516.148-1.18-.752-2.382-1.92-2.55-.817-.117-1.503.126-2.085.716-2.794 2.835-5.59 5.669-8.38 8.503-.144.146-.293.285-.503.33a.794.794 0 01-.85-.338c-.19-.306-.182-.674.032-.946.042-.05.087-.097.132-.147 2.836-2.876 5.664-5.752 8.504-8.62 1.272-1.285 3.224-1.532 4.744-.62a4 4 0 01.784 6.263c-3.232 3.262-6.481 6.51-9.726 9.759-.71.712-1.387 1.465-2.167 2.102-2.056 1.687-5.202 1.523-7.113-.335a5.605 5.605 0 01-1.669-3.2c-.005-.03-.006-.061-.012-.09-.012-.055-.024-.109-.024-.165v-.728z" fill="#fff"/></svg>