<?xml version="1.0" encoding="utf-8"?><svg width="18" height="22" fill="none" xmlns="http://www.w3.org/2000/svg" viewBox="0 0 18 22"><path d="M5.468 7.022l-.002.001-.003.002.005-.003zm9.954-.177a1.236 1.236 0 00-.23-.166 1.037 1.037 0 00-.789-.093 1.019 1.019 0 00-.358.181.959.959 0 00-.253.302 5.544 5.544 0 01-1.398 1.688c.089-.473.134-.953.134-1.434a7.956 7.956 0 00-1.177-4.163A8.513 8.513 0 008.128.124a1.041 1.041 0 00-.97-.01.982.982 0 00-.366.324.917.917 0 00-.156.451c-.056.9-.304 1.78-.728 2.587a6.727 6.727 0 01-1.743 2.106l-.23.177a8.354 8.354 0 00-1.988 1.77 8.347 8.347 0 00-1.755 3.55A8.112 8.112 0 00.295 15a8.4 8.4 0 001.94 3.463 8.991 8.991 0 003.368 2.272 1.049 1.049 0 00.935-.092.968.968 0 00.325-.341.911.911 0 00.067-.743 6.302 6.302 0 01-.19-2.45c.947 1.694 2.466 3.037 4.313 3.813.226.095.48.108.715.036a9.066 9.066 0 003.82-2.308 8.42 8.42 0 002.152-3.781 8.125 8.125 0 00-.06-4.298 8.45 8.45 0 00-2.258-3.726zm-3.905 12.183A6.91 6.91 0 019.26 17.3a6.498 6.498 0 01-1.32-2.452 8.083 8.083 0 01-.18-.915.93.93 0 00-.264-.523 1.015 1.015 0 00-.726-.296c-.175 0-.348.043-.5.127a.977.977 0 00-.367.347 8.174 8.174 0 00-1.205 4.48 6.744 6.744 0 01-1.794-1.973 6.403 6.403 0 01-.855-2.478 6.311 6.311 0 01.217-2.6 6.519 6.519 0 011.256-2.319 6.434 6.434 0 011.562-1.384.746.746 0 00.075-.052s.296-.233.306-.238a8.47 8.47 0 002.9-4.399 6.31 6.31 0 012.066 3.617 6.115 6.115 0 01-.68 4.063.909.909 0 00.118 1.049c.127.144.295.249.485.302.19.053.392.051.58-.005A7.872 7.872 0 0014.796 9.1c.591.828.977 1.772 1.13 2.762.153.99.069 2-.246 2.954a6.58 6.58 0 01-1.574 2.558 7.03 7.03 0 01-2.589 1.655z" fill="#fff"/></svg>