<?xml version="1.0" encoding="utf-8"?><svg width="38" height="38" fill="none" xmlns="http://www.w3.org/2000/svg" viewBox="0 0 38 38"><path d="M3.408 37c-.934-.282-1.691-.787-2.125-1.7A2.833 2.833 0 011 34.077c0-8.03 0-16.06.005-24.094a3.005 3.005 0 012.998-2.998c2.66-.015 5.316-.005 7.976-.005 2.715 0 5.431.005 8.152-.005.262 0 .464.07.65.262 2.323 2.332 4.65 4.658 6.982 6.98a.854.854 0 01.272.651c-.005 6.299-.03 12.597.01 18.896.01 1.6-.999 2.867-2.332 3.19-.035.01-.06.03-.096.045H3.407zm-.843-14.964v11.87c0 1.05.5 1.545 1.554 1.545h20.832c.98 0 1.504-.525 1.504-1.494V16.575c0-.505-.005-.51-.51-.51-1.746 0-3.487.005-5.234 0-1.186-.005-1.721-.54-1.721-1.716V9.045c0-.485 0-.49-.48-.49H9.657c-1.873 0-3.746-.005-5.618.005-.919.005-1.454.55-1.47 1.47v.388c-.004 3.87-.004 7.742-.004 11.618zM20.59 9.348c-.01.04-.025.075-.025.106-.005 1.58 0 3.16-.01 4.734 0 .298.171.308.388.303 1.51-.005 3.019 0 4.528-.005.086 0 .187.04.237-.026-1.706-1.7-3.407-3.396-5.118-5.112z" fill="#E04E39"/><path d="M37 10.019c-.853.005-1.71.015-2.564.02-1.64.005-3.276.005-4.916 0-.964-.005-1.53-.57-1.53-1.53-.005-1.826-.01-3.653.005-5.48.005-.353-.096-.46-.454-.46-4.825.01-9.646.006-14.472.006-1.004 0-1.499.51-1.504 1.519 0 .363-.005.727 0 1.09.005.242-.075.373-.343.358-.313-.015-.63-.005-.949-.005-.192 0-.278-.086-.272-.277.005-.55-.03-1.106.02-1.65.136-1.409 1.443-2.6 2.867-2.6C18.329 1 23.776 1.005 29.217 1c.252 0 .414.111.575.273a8203.61 8203.61 0 006.678 6.682c.172.171.354.343.525.515.006.514.006 1.034.006 1.549zm-2.24-1.55c-.616-.625-1.167-1.19-1.727-1.756L29.898 3.55c-.075-.076-.156-.217-.282-.167-.111.046-.06.187-.06.288-.006 1.474.004 2.947-.006 4.416 0 .293.106.384.394.384.924-.01 1.847-.006 2.771-.006.661.006 1.322.006 2.044.006zM37 28.567c-.268 1.004-.818 1.776-1.792 2.205-.358.157-.727.263-1.12.263-1.394.005-2.787-.006-4.175.01-.323.005-.48-.091-.45-.44.02-.242.016-.489 0-.736-.02-.303.102-.41.405-.41 1.378.011 2.76.011 4.139 0 .757-.004 1.292-.433 1.413-1.114.03-.182.03-.374.03-.56v-8.283c0-.52.005-.52.53-.52.339 0 .677.01 1.015.015.005 3.2.005 6.385.005 9.57zM37 16.06c-.394 0-.793-.005-1.186 0-.248.005-.364-.09-.364-.348.005-.803.01-1.605 0-2.413-.005-.262.121-.343.364-.338.393.01.792.005 1.186.005v3.094zM14.492 20.557H7.466c-.48 0-.485-.01-.485-.495 0-.212.015-.424-.005-.63-.03-.334.096-.445.44-.445 1.695.016 3.396.005 5.092.005h9.03c.51 0 .51 0 .505.51-.005 1.05-.005 1.055-1.05 1.06-2.17 0-4.335 0-6.5-.005zM12.999 29.556H7.522c-.54 0-.54-.005-.545-.55-.01-1.025-.01-1.02 1.014-1.02 3.514.005 7.022 0 10.535 0 .5 0 .5 0 .5.505 0 .212-.016.424.005.63.03.319-.086.435-.414.435-1.868-.01-3.746-.005-5.618 0zM11.524 14.496h4.034c.494 0 .5.005.504.514 0 .223-.005.444.005.667.016.287-.116.393-.398.393-.985-.005-1.964 0-2.948 0-1.752 0-3.508 0-5.26-.005-.464 0-.474-.01-.474-.47 0-.231.01-.469-.005-.7-.026-.309.106-.404.408-.404 1.373.01 2.751.005 4.135.005zM17.537 23.49c1.357 0 2.715.01 4.073-.006.338-.005.47.111.44.444-.021.232-.021.47 0 .702.024.318-.092.434-.42.429-1.827-.01-3.654-.005-5.482-.005-.913 0-1.827-.01-2.74.005-.334.005-.45-.121-.45-.454-.01-1.126-.02-1.12 1.096-1.12 1.16.004 2.321.004 3.482.004zM8.516 23.49c.399 0 .792.004 1.191-.006.243-.005.333.096.328.333-.01.303-.01.606 0 .914.005.222-.085.323-.308.323-.817-.005-1.635 0-2.453 0-.207 0-.298-.096-.293-.303a31.64 31.64 0 000-.98c0-.211.112-.282.308-.282.41.005.818 0 1.227 0z" fill="#E04E39"/><path d="M3.408 37c-.934-.282-1.691-.787-2.125-1.7A2.833 2.833 0 011 34.077c0-8.03 0-16.06.005-24.094a3.005 3.005 0 012.998-2.998c2.66-.015 5.316-.005 7.976-.005 2.715 0 5.431.005 8.152-.005.262 0 .464.07.65.262 2.323 2.332 4.65 4.658 6.982 6.98a.854.854 0 01.272.651c-.005 6.299-.03 12.597.01 18.896.01 1.6-.999 2.867-2.332 3.19-.035.01-.06.03-.096.045H3.407zm-.843-14.964v11.87c0 1.05.5 1.545 1.554 1.545h20.832c.98 0 1.504-.525 1.504-1.494V16.575c0-.505-.005-.51-.51-.51-1.746 0-3.487.005-5.234 0-1.186-.005-1.721-.54-1.721-1.716V9.045c0-.485 0-.49-.48-.49H9.657c-1.873 0-3.746-.005-5.618.005-.919.005-1.454.55-1.47 1.47v.388c-.004 3.87-.004 7.742-.004 11.618zM20.59 9.348c-.01.04-.025.075-.025.106-.005 1.58 0 3.16-.01 4.734 0 .298.171.308.388.303 1.51-.005 3.019 0 4.528-.005.086 0 .187.04.237-.026-1.706-1.7-3.407-3.396-5.118-5.112z" stroke="#E04E39" stroke-width=".5"/><path d="M37 10.019c-.853.005-1.71.015-2.564.02-1.64.005-3.276.005-4.916 0-.964-.005-1.53-.57-1.53-1.53-.005-1.826-.01-3.653.005-5.48.005-.353-.096-.46-.454-.46-4.825.01-9.646.006-14.472.006-1.004 0-1.499.51-1.504 1.519 0 .363-.005.727 0 1.09.005.242-.075.373-.343.358-.313-.015-.63-.005-.949-.005-.192 0-.278-.086-.272-.277.005-.55-.03-1.106.02-1.65.136-1.409 1.443-2.6 2.867-2.6C18.329 1 23.776 1.005 29.217 1c.252 0 .414.111.575.273a8203.61 8203.61 0 006.678 6.682c.172.171.354.343.525.515.006.514.006 1.034.006 1.549zm-2.24-1.55c-.616-.625-1.167-1.19-1.727-1.756L29.898 3.55c-.075-.076-.156-.217-.282-.167-.111.046-.06.187-.06.288-.006 1.474.004 2.947-.006 4.416 0 .293.106.384.394.384.924-.01 1.847-.006 2.771-.006.661.006 1.322.006 2.044.006zM37 28.567c-.268 1.004-.818 1.776-1.792 2.205-.358.157-.727.263-1.12.263-1.394.005-2.787-.006-4.175.01-.323.005-.48-.091-.45-.44.02-.242.016-.489 0-.736-.02-.303.102-.41.405-.41 1.378.011 2.76.011 4.139 0 .757-.004 1.292-.433 1.413-1.114.03-.182.03-.374.03-.56v-8.283c0-.52.005-.52.53-.52.339 0 .677.01 1.015.015.005 3.2.005 6.385.005 9.57zM37 16.06c-.394 0-.793-.005-1.186 0-.248.005-.364-.09-.364-.348.005-.803.01-1.605 0-2.413-.005-.262.121-.343.364-.338.393.01.792.005 1.186.005v3.094zM14.492 20.557H7.466c-.48 0-.485-.01-.485-.495 0-.212.015-.424-.005-.63-.03-.334.096-.445.44-.445 1.695.016 3.396.005 5.092.005h9.03c.51 0 .51 0 .505.51-.005 1.05-.005 1.055-1.05 1.06-2.17 0-4.335 0-6.5-.005zM12.999 29.556H7.522c-.54 0-.54-.005-.545-.55-.01-1.025-.01-1.02 1.014-1.02 3.514.005 7.022 0 10.535 0 .5 0 .5 0 .5.505 0 .212-.016.424.005.63.03.319-.086.435-.414.435-1.868-.01-3.746-.005-5.618 0zM11.524 14.496h4.034c.494 0 .5.005.504.514 0 .223-.005.444.005.667.016.287-.116.393-.398.393-.985-.005-1.964 0-2.948 0-1.752 0-3.508 0-5.26-.005-.464 0-.474-.01-.474-.47 0-.231.01-.469-.005-.7-.026-.309.106-.404.408-.404 1.373.01 2.751.005 4.135.005zM17.537 23.49c1.357 0 2.715.01 4.073-.006.338-.005.47.111.44.444-.021.232-.021.47 0 .702.024.318-.092.434-.42.429-1.827-.01-3.654-.005-5.482-.005-.913 0-1.827-.01-2.74.005-.334.005-.45-.121-.45-.454-.01-1.126-.02-1.12 1.096-1.12 1.16.004 2.321.004 3.482.004zM8.516 23.49c.399 0 .792.004 1.191-.006.243-.005.333.096.328.333-.01.303-.01.606 0 .914.005.222-.085.323-.308.323-.817-.005-1.635 0-2.453 0-.207 0-.298-.096-.293-.303a31.64 31.64 0 000-.98c0-.211.112-.282.308-.282.41.005.818 0 1.227 0z" stroke="#E04E39" stroke-width=".5"/></svg>