<?xml version="1.0" encoding="utf-8"?><svg width="50" height="50" fill="none" xmlns="http://www.w3.org/2000/svg" viewBox="0 0 50 50"><rect width="50" height="50" rx="10" fill="#F7F9FA"/><path d="M24.75 24.75a4.875 4.875 0 100-9.75 4.875 4.875 0 000 9.75zM28 19.875a3.25 3.25 0 11-6.5 0 3.25 3.25 0 016.5 0zm6.5 13c0 1.625-1.625 1.625-1.625 1.625h-16.25S15 34.5 15 32.875s1.625-6.5 9.75-6.5 9.75 4.875 9.75 6.5zm-1.625-.007c-.002-.4-.25-1.602-1.352-2.704C30.463 29.105 28.47 28 24.75 28c-3.721 0-5.713 1.105-6.773 2.165-1.102 1.101-1.349 2.304-1.352 2.703h16.25z" fill="#C9D1D1"/></svg>