<?xml version="1.0" encoding="utf-8"?><svg width="21" height="22" fill="none" xmlns="http://www.w3.org/2000/svg" viewBox="0 0 21 22"><path d="M16.565 20.861c-.21 0-.425-.015-.635.006-.23.025-.384-.077-.538-.231-.943-.95-1.891-1.9-2.839-2.844-.922-.923-1.85-1.847-2.767-2.776-.118-.118-.236-.133-.384-.113-1.071.144-2.101-.01-3.06-.508-1.675-.872-2.664-2.258-2.874-4.142-.241-2.191.866-4.223 2.803-5.255.133-.072.21-.072.282.082.128.293.266.585.41.867.076.144.03.21-.103.283-1.2.662-1.906 1.683-2.05 3.048a3.87 3.87 0 002.865 4.178 4.012 4.012 0 001.675.082.493.493 0 00.298-.154c.415-.42.835-.832 1.245-1.252.107-.108.174-.108.276 0 .226.236.457.467.692.693.103.097.103.169 0 .266-.307.298-.604.611-.912.909-.097.092-.118.159-.01.261.312.303.62.611.922.924.098.103.16.077.246-.01.303-.313.615-.616.923-.929.092-.097.158-.097.25 0 .231.241.467.477.708.708.097.093.097.16 0 .252-.313.303-.615.62-.928.924-.102.102-.102.164 0 .261.267.252.523.514.774.775.082.087.138.082.22 0 .308-.318.626-.626.933-.944.102-.103.17-.103.267 0 .23.241.466.477.707.708.087.087.087.149 0 .236-.318.308-.626.626-.943.934-.098.098-.093.154 0 .247.348.338.692.682 1.035 1.031.092.098.195.118.323.134.404.051.702-.077.968-.39.313-.365.671-.688 1.015-1.027.107-.102.133-.215.148-.359.052-.39-.097-.662-.379-.94-1.875-1.852-3.725-3.72-5.595-5.583-.123-.123-.15-.226-.103-.39.38-1.38.113-2.628-.804-3.726a3.43 3.43 0 00-1.077-.857c-.148-.077-.194-.149-.107-.308.148-.277.277-.565.4-.852.061-.149.133-.154.266-.082 1.425.765 2.326 1.935 2.71 3.51.154.621.18 1.253.083 1.889-.026.17.025.287.143.41 1.88 1.874 3.751 3.752 5.632 5.63a.55.55 0 01.184.437c-.01.482-.01.96 0 1.442a.438.438 0 01-.133.339c-.697.692-1.389 1.385-2.08 2.083a.405.405 0 01-.323.134c-.246-.016-.503-.01-.759-.01z" fill="#E04E39"/><path d="M15.87 21c-.257 0-.426-.134-.564-.272a843.026 843.026 0 00-2.163-2.17l-.67-.673-.667-.667a272.913 272.913 0 01-2.1-2.11c-.073-.072-.144-.092-.278-.077-1.122.15-2.177-.025-3.13-.523-1.738-.903-2.727-2.33-2.947-4.244a5.352 5.352 0 01.594-3.136A5.494 5.494 0 016.221 4.88c.082-.041.179-.082.276-.046.103.036.149.128.18.195.123.287.261.58.41.862.133.257-.026.38-.154.452-1.184.651-1.85 1.647-1.983 2.945a3.747 3.747 0 002.772 4.04 3.918 3.918 0 001.62.076.417.417 0 00.23-.118c.154-.159.312-.313.471-.472.257-.256.518-.518.774-.78.056-.056.128-.123.23-.123.103 0 .175.067.231.123.21.22.436.447.687.688.051.046.118.123.118.226 0 .102-.067.18-.118.225-.154.15-.313.308-.461.457l-.451.452a.268.268 0 00-.041.046c.005.005.015.015.03.036.303.293.61.595.928.929.01.01.02.015.026.02.005-.005.02-.015.035-.035.154-.16.313-.319.467-.473.148-.149.302-.303.45-.456.047-.047.119-.113.221-.113.097 0 .17.061.215.113.236.24.472.477.702.703.046.046.113.118.113.22 0 .098-.062.175-.108.221-.138.139-.281.277-.415.416-.164.17-.338.338-.512.508l-.036.036c.005.005.015.02.036.036.292.277.569.56.779.78l.015.015.016-.015c.148-.15.297-.303.445-.447.16-.159.328-.328.487-.492a.31.31 0 01.226-.113c.102 0 .179.066.225.118.246.261.507.513.702.703.026.025.108.102.108.21 0 .098-.062.17-.108.21-.143.14-.282.283-.42.422-.17.169-.343.349-.523.518a.113.113 0 00-.025.03l.03.031c.328.319.667.657 1.036 1.037.061.062.122.077.245.093.349.046.615-.062.856-.35.246-.287.523-.554.79-.81.076-.072.153-.15.23-.221.072-.072.092-.149.113-.282.04-.319-.057-.55-.338-.832-1.19-1.175-2.394-2.381-3.552-3.54l-2.04-2.043c-.153-.155-.194-.309-.132-.514.364-1.34.102-2.55-.78-3.613a3.336 3.336 0 00-1.034-.826c-.087-.046-.175-.103-.21-.205a.375.375 0 01.046-.277c.123-.237.25-.503.394-.842a.313.313 0 01.175-.19c.097-.036.194.005.266.046 1.45.775 2.383 1.986 2.772 3.593.154.641.185 1.293.087 1.94-.02.118.01.2.108.297.953.95 1.901 1.9 2.854 2.854.928.924 1.85 1.853 2.777 2.776a.68.68 0 01.22.534c-.01.488-.004.98 0 1.437 0 .18-.05.313-.173.431-.646.642-1.328 1.32-2.08 2.079a.536.536 0 01-.416.174c-.18-.005-.364-.005-.538-.005h-.225c-.067 0-.134 0-.2-.005a3.862 3.862 0 00-.426.005c-.03-.005-.056 0-.076 0zm-6.365-6.236a.51.51 0 01.38.16c.696.703 1.409 1.416 2.1 2.109l.667.667.67.672 2.168 2.171c.154.16.272.21.43.195.155-.015.308-.01.457-.01.138.005.277.005.415 0 .18 0 .364 0 .548.005.092.005.154-.026.226-.097.753-.76 1.434-1.442 2.08-2.084a.307.307 0 00.098-.246 45.33 45.33 0 010-1.448c.005-.138-.036-.236-.15-.343-.927-.924-1.849-1.848-2.777-2.777-.947-.95-1.9-1.904-2.854-2.854a.565.565 0 01-.179-.518 4.728 4.728 0 00-.082-1.837c-.374-1.535-1.26-2.684-2.644-3.423-.03-.016-.051-.026-.062-.026a.156.156 0 00-.025.046 11.99 11.99 0 01-.405.862c-.03.062-.026.077-.026.077s.01.021.082.057c.436.226.81.523 1.117.888.938 1.129 1.22 2.417.83 3.844-.03.118-.02.18.072.267.682.677 1.363 1.36 2.04 2.042a777.441 777.441 0 003.55 3.541c.339.34.467.652.416 1.047-.02.144-.046.298-.185.431-.076.077-.153.15-.23.226-.261.252-.538.514-.774.79-.302.355-.646.493-1.086.437-.139-.02-.277-.046-.4-.17a48.754 48.754 0 00-1.03-1.031c-.051-.051-.113-.123-.113-.216 0-.097.062-.169.113-.215.174-.17.348-.344.518-.513.138-.139.281-.283.425-.421.015-.01.02-.02.026-.026-.006-.005-.01-.015-.026-.026-.2-.19-.456-.446-.707-.713-.02-.02-.036-.03-.041-.036-.005.005-.02.015-.041.036-.164.17-.328.334-.492.498-.144.144-.297.297-.44.446-.042.047-.114.103-.2.103a.271.271 0 01-.2-.103c-.21-.215-.487-.497-.77-.77-.056-.05-.117-.123-.117-.22 0-.098.061-.17.118-.226.169-.164.343-.339.507-.503.138-.139.277-.282.42-.42.016-.016.026-.026.031-.037-.005-.005-.015-.015-.03-.036a23.382 23.382 0 01-.713-.713l-.03-.03c-.006.004-.021.015-.037.03-.148.154-.307.308-.456.457l-.466.467c-.061.061-.128.118-.22.118s-.164-.062-.21-.108c-.318-.333-.62-.631-.923-.919-.046-.046-.113-.118-.113-.22 0-.098.062-.17.123-.231.154-.149.303-.298.451-.447.15-.154.308-.308.462-.462.02-.02.03-.035.035-.04-.005-.006-.015-.021-.035-.042a17.79 17.79 0 01-.697-.698c-.026-.025-.036-.036-.046-.04-.005.004-.02.015-.046.04-.257.267-.523.529-.78.786l-.47.472a.628.628 0 01-.37.19 4.088 4.088 0 01-1.727-.083c-1.921-.508-3.166-2.32-2.961-4.316.143-1.39.855-2.448 2.116-3.146.056-.03.072-.046.072-.051 0 0 0-.015-.026-.056a15.168 15.168 0 01-.415-.878.24.24 0 00-.03-.051c-.011 0-.032.01-.073.03-1.896 1.011-2.972 3.018-2.73 5.122.204 1.822 1.147 3.182 2.807 4.044.907.473 1.912.642 2.983.498.03.01.066.005.107.005z" fill="#E04E39"/><path d="M7.615 20.861c-.339 0-.682-.01-1.02.006-.21.01-.318-.062-.41-.252-.912-1.822-1.835-3.639-2.747-5.466a.91.91 0 00-.533-.487c-1.803-.683-2.936-2.536-2.73-4.434a4.006 4.006 0 01.578-1.735c.113-.175.103-.298.005-.482-.814-1.489-.85-3.018-.02-4.496.856-1.53 2.203-2.33 3.971-2.387 2.198-.066 4.253 1.55 4.612 3.87.23 1.463-.18 2.75-1.148 3.864-.108.129-.184.139-.307.01-.21-.23-.436-.45-.667-.666-.117-.108-.107-.18-.005-.298.83-.965 1.04-2.068.636-3.27-.487-1.441-1.896-2.288-3.464-2.134-1.394.138-2.614 1.314-2.824 2.745-.148 1.037.154 1.935.836 2.72.26.303.266.314-.006.606-.4.426-.686.914-.799 1.488-.328 1.632.697 3.162 2.347 3.495a.469.469 0 01.369.283c.543 1.088 1.097 2.176 1.645 3.264.113.22.113.215.328.107.338-.169.676-.333 1.014-.508.118-.061.185-.04.241.077.149.308.297.611.456.914.062.118.026.17-.082.226-.358.174-.707.359-1.066.528-.128.062-.153.129-.087.252.118.215.226.43.328.652.051.102.118.154.236.154.384-.006.769 0 1.153 0 .092 0 .174-.031.256-.072.287-.144.574-.283.856-.431.113-.057.18-.057.24.072.144.307.298.61.457.913.056.108.04.17-.072.226-.405.195-.804.4-1.204.6a.568.568 0 01-.261.052c-.37-.006-.738-.006-1.112-.006z" fill="#E04E39"/><path d="M6.56 20.994c-.231 0-.38-.097-.488-.323-.446-.893-.902-1.796-1.342-2.669-.461-.913-.938-1.863-1.404-2.797a.794.794 0 00-.467-.426 4.439 4.439 0 01-2.183-1.811 4.382 4.382 0 01-.625-2.751 4.127 4.127 0 01.6-1.791c.082-.134.082-.206 0-.35-.861-1.57-.866-3.125-.026-4.623.876-1.57 2.25-2.397 4.08-2.453a4.613 4.613 0 013.079 1.067 4.702 4.702 0 011.665 2.91c.23 1.473-.169 2.807-1.178 3.972-.057.067-.139.144-.246.144H8.02c-.108 0-.19-.077-.246-.133-.195-.21-.41-.426-.656-.663-.21-.2-.108-.364-.016-.477.8-.929 1.005-1.986.615-3.146-.466-1.375-1.804-2.202-3.33-2.053C3.043 2.755 1.88 3.89 1.68 5.26c-.139.96.133 1.843.804 2.618.308.354.308.441-.005.775-.415.446-.666.913-.768 1.426a2.805 2.805 0 00.415 2.14 2.884 2.884 0 001.834 1.207c.22.046.359.148.461.348.4.806.815 1.622 1.215 2.413l.43.846c.016.036.041.077.051.103a.959.959 0 00.103-.051c.128-.062.251-.129.38-.19.21-.103.424-.21.63-.318.06-.031.148-.067.245-.036.093.03.144.113.17.174.143.303.297.61.45.909.047.087.057.159.031.225-.03.093-.113.144-.174.17-.159.077-.318.159-.477.236l-.589.292a.156.156 0 00-.046.031c0 .005.005.02.02.046.123.226.241.462.334.657.035.072.066.082.122.082.318-.005.646 0 .959 0h.194a.44.44 0 00.2-.056l.308-.154c.18-.087.369-.185.548-.277.067-.036.154-.072.246-.041.072.025.123.077.17.17.153.333.322.661.45.907.03.057.067.144.036.237-.036.102-.133.148-.164.164-.354.174-.717.354-1.06.528l-.14.072a.666.666 0 01-.317.067H7.333c-.23-.005-.472-.005-.707.005-.036.01-.052.01-.067.01zM4.841 1.256H4.71c-1.732.051-3.028.832-3.863 2.32C.05 4.997.062 6.47.87 7.948c.123.231.123.4-.01.611a3.923 3.923 0 00-.559 1.684c-.2 1.832.918 3.643 2.65 4.3.287.108.466.272.604.555.467.934.943 1.878 1.404 2.791.441.873.897 1.781 1.343 2.67.072.148.138.184.292.179.24-.01.487-.01.723-.005h1.419c.087 0 .149-.01.2-.041l.138-.072c.349-.175.707-.36 1.066-.534.015-.005.026-.015.03-.015a.089.089 0 00-.015-.036c-.128-.252-.297-.58-.456-.919-.005-.015-.015-.026-.015-.03-.01.004-.026.01-.046.02-.185.097-.37.19-.554.282l-.307.154a.663.663 0 01-.313.087H7.312c-.164 0-.276-.072-.348-.226a11.077 11.077 0 00-.328-.646c-.03-.062-.072-.154-.041-.252.03-.097.118-.148.184-.18.195-.092.395-.194.585-.292.158-.082.317-.159.481-.241.02-.01.031-.016.036-.02a.087.087 0 00-.01-.026c-.159-.303-.308-.611-.456-.919l-.02-.036c-.006 0-.021.005-.042.02l-.635.324c-.128.062-.251.123-.38.19-.276.139-.358.113-.501-.164l-.43-.847c-.4-.79-.816-1.607-1.215-2.417-.067-.129-.134-.185-.282-.216a3.095 3.095 0 01-1.993-1.314 3.079 3.079 0 01-.451-2.335c.112-.56.384-1.067.83-1.55.066-.072.169-.18.169-.21 0-.031-.092-.139-.164-.22-.728-.832-1.02-1.782-.866-2.824C1.65 3.74 2.91 2.514 4.37 2.37c1.65-.16 3.095.734 3.597 2.222.426 1.252.2 2.392-.66 3.392-.042.052-.047.067-.047.072 0 0 .005.016.046.052.251.236.472.456.672.672.03.03.046.046.056.046.005-.005.026-.015.056-.056.964-1.104 1.338-2.366 1.122-3.762-.358-2.156-2.218-3.752-4.37-3.752z" fill="#E04E39"/></svg>