<?xml version="1.0" encoding="utf-8"?><svg width="19" height="24" fill="none" xmlns="http://www.w3.org/2000/svg" viewBox="0 0 19 24"><path d="M9.04 4.718c0 .114-.011.229 0 .353.02.239-.083.342-.33.374-1.236.176-2.029.933-2.245 2.158-.072.405-.237.53-.608.477-.051-.01-.103 0-.154 0-.762 0-.762 0-.649-.747.258-1.712 1.802-3.175 3.511-3.32.464-.042.474-.021.474.705z" fill="#E04E39"/><circle cx="9.5" cy="8.5" r="6.5" stroke="#E04E39" stroke-width="2"/><mask id="dma" fill="#fff"><path d="M18.6 12.225a9.5 9.5 0 01-18.132.22l1.427-.465a8 8 0 0015.268-.186l1.438.43z"/></mask><path d="M18.6 12.225a9.5 9.5 0 01-18.132.22l1.427-.465a8 8 0 0015.268-.186l1.438.43z" stroke="#E04E39" stroke-width="4" mask="url(#dma)"/><path d="M10 18v4M5 22.5h9" stroke="#E04E39" stroke-width="2"/></svg>