<?xml version="1.0" encoding="utf-8"?><svg width="37" height="29" fill="none" xmlns="http://www.w3.org/2000/svg" viewBox="0 0 37 29"><path d="M13.108 0h8.808c.167 0 .334-.003.502.003.597.02.966.354.973.873.007.496-.383.883-.953.904-.59.023-1.185.01-1.776.013-.53.003-.53 0-.42.51.594 2.818 1.189 5.637 1.78 8.455.054.265.16.391.457.391 1.687-.01 3.374-.01 5.06 0 .315.004.397-.122.394-.41a70.008 70.008 0 01-.004-2.076c.02-2.136 1.697-3.96 4.306-3.797.629.038.998.415.98.924-.013.506-.416.836-1.045.853-.14.003-.283 0-.423.003a2.047 2.047 0 00-1.455.611c-.341.343-.536.758-.55 1.236-.02.768 0 1.535-.013 2.306-.007.306.154.36.413.357.874-.007 1.752-.004 2.626-.007 1.912-.003 3.234 1.308 3.234 3.206 0 1.474-.01 2.944.003 4.418.007.985-.4 1.76-1.144 2.37-.69.568-1.318.405-1.639-.427-.645-1.675-1.762-2.86-3.507-3.42-2.742-.883-5.733.58-6.707 3.284-.478 1.334-.478 1.334-1.926 1.338-1.069 0-2.137.003-3.206 0-.864-.004-1.165-.313-1.138-1.168.11-3.339-1.294-5.92-4.022-7.798-1.264-.869-2.712-1.266-4.238-1.406-2.63-.237-4.843.676-6.775 2.388-.277.248-.567.513-.987.424a.854.854 0 01-.68-.618c-.106-.36.03-.652.28-.903a10.106 10.106 0 013.446-2.286c.44-.18.891-.343 1.352-.458.328-.082.434-.228.43-.554a933.22 933.22 0 01-.003-6.184c0-.384.017-.767.041-1.151.024-.326-.126-.421-.437-.418-.526.007-1.059.058-1.581-.034-.53-.091-.84-.475-.803-.923.041-.459.4-.781.919-.822.147-.01.287-.007.43-.007h8.999zm-2.77 5.906c-.002 1.24.008 2.482-.006 3.722-.003.288.079.441.376.512.74.177 1.437.476 2.11.832.209.11.424.174.663.174 2.124-.004 4.244 0 6.368 0 .438 0 .465-.034.37-.472-.602-2.816-1.206-5.628-1.797-8.446-.072-.35-.242-.449-.58-.449-2.357.01-4.71.01-7.066 0-.331 0-.454.099-.447.439.02 1.229.01 2.458.01 3.688zm5.158 7.023c.081.118.109.176.15.22 1.745 1.889 2.721 4.103 2.82 6.677.01.258.134.322.366.322a91.63 91.63 0 012.162 0c.249.004.372-.098.454-.319.143-.384.297-.774.55-1.093.262-.333.355-.7.355-1.104 0-1.406-.007-2.812.006-4.221.004-.367-.136-.49-.502-.486-1.58.014-3.162.007-4.746.007-.51-.003-1.021-.003-1.616-.003zM8.607 5.78c-.004-1.036.003-2.072-.004-3.107-.007-1.026.147-.853-.912-.883-.304-.01-.433.074-.433.407-.004 1.05.034 2.096.044 3.145.01 1.341-.02 2.686-.044 4.028-.007.298.075.438.4.353.173-.048.361-.048.535 0 .345.091.424-.061.42-.377-.01-1.185-.006-2.374-.006-3.566zm25.649 12.83c0-1.42.024-2.842-.01-4.262-.02-.873-.543-1.386-1.312-1.423-.345-.017-.495.099-.488.455.014 1.012.003 2.02.003 3.033 0 .17.021.336.161.455a9.865 9.865 0 011.646 1.742zm-10.17-3.885c.004.5 0 .995.004 1.494 0 .089-.041.224.126.228.284.007.864-.547.864-.832 0-.778-.01-1.559 0-2.337.003-.38-.246-.353-.495-.35-.246 0-.509-.037-.502.344.01.482.003.967.003 1.453zm6.636-.357h.006c0-.356-.01-.716.004-1.073.013-.363-.215-.377-.482-.37-.252.01-.536-.05-.526.36.014.51.004 1.022.004 1.532-.004.716.01.723.703.88.219.047.287-.028.287-.221.003-.367.003-.737.003-1.108zm-2.797-.244c0-.241-.007-.486.003-.727.01-.265-.003-.472-.372-.468-.553.006-.642.034-.656.448-.02.574-.007 1.151-.007 1.725 0 .105.014.2.13.255.413.187.905-.106.905-.544-.003-.23-.003-.458-.003-.689z" fill="#E04E39"/><path d="M24.685 26.18c-1.277-1.345-1.858-2.85-1.533-4.619.229-1.24.81-2.292 1.816-3.08 2.07-1.617 4.942-1.426 6.827.441 1.605 1.586 2.243 4.768-.167 7.23.095.13.235.069.351.069.902.006 1.803.003 2.705.003.26 0 .516.024.761.109.414.142.588.414.557.855-.027.398-.253.646-.662.737-.496.112-1.001.068-1.503.068-10.521.004-21.043.004-31.564 0-.283 0-.567.02-.847-.047-.464-.109-.755-.438-.755-.856 0-.408.304-.75.772-.829.509-.085 1.028-.034 1.544-.037.215-.003.43 0 .758 0C1.63 24.529.53 22.448.685 19.829c.116-1.946.956-3.583 2.445-4.846 3.022-2.564 7.212-2.333 9.972.492 2.329 2.388 3.145 7.38-1.045 10.705h12.628zM7.84 15.004c-3.07-.007-5.443 2.288-5.43 5.352.014 3.114 2.388 5.345 5.365 5.358 3.077.014 5.433-2.275 5.464-5.348.031-2.989-2.38-5.36-5.399-5.362zm17.013 7.43a3.266 3.266 0 003.337 3.29 3.277 3.277 0 003.23-3.287c0-1.854-1.44-3.277-3.312-3.27-1.854.003-3.258 1.413-3.255 3.267z" fill="#E04E39"/></svg>