<?xml version="1.0" encoding="utf-8"?><svg width="44" height="44" fill="none" xmlns="http://www.w3.org/2000/svg" viewBox="0 0 44 44"><path d="M19.621 1c1.052.17 2.103.315 3.128.624 3.798 1.137 6.86 3.318 9.193 6.518a16.5 16.5 0 013.094 7.806c.362 2.93.007 5.783-1.143 8.51-.138.328-.092.519.158.742.27.23.492.512.762.749.315.276.388.598.302.999-.157.749-.289 1.504-.46 2.247-.079.335 0 .552.243.795 2.36 2.34 4.705 4.692 7.05 7.037 1.499 1.498 1.387 4.002-.23 5.263-1.366 1.071-3.423.914-4.684-.348-2.32-2.32-4.646-4.632-6.952-6.965-.309-.309-.585-.407-1.005-.302-.703.177-1.42.289-2.13.44-.393.086-.709.007-.998-.302-.335-.361-.65-.835-1.071-.98-.414-.144-.874.283-1.327.421-6.61 2.03-12.452.684-17.452-4.067-2.852-2.714-4.462-6.104-5.014-9.994-.026-.19 0-.388-.085-.565v-3.114c.046-.283.085-.566.138-.848C2.426 8.563 6.526 3.917 13.34 1.637c1.025-.341 2.102-.466 3.167-.637h3.114zM18.15 33.788c8.804-.145 15.598-6.926 15.612-15.691.02-8.916-6.913-15.73-15.665-15.743C9.174 2.347 2.314 9.279 2.354 18.15 2.4 26.948 9.273 33.742 18.15 33.788zm21.361 7.891c1.156 0 2.149-.992 2.175-2.063.013-.696-.322-1.222-.795-1.689-2.458-2.45-4.902-4.908-7.372-7.352-.342-.342-.44-.684-.336-1.143.178-.782.316-1.577.48-2.366.085-.407-.243-.585-.48-.73-.256-.157-.289.204-.38.349-1.026 1.682-2.274 3.174-3.779 4.442-.782.663-1.63 1.235-2.503 1.774-.099.059-.29.079-.224.282.092.263.565.52.854.46.789-.157 1.584-.309 2.372-.473.395-.085.717 0 1 .309.36.394.748.762 1.123 1.137l6.288 6.288c.46.453.966.795 1.577.775z" fill="#E04E39"/><path d="M31.212 18.051c.04 7.07-5.88 13.063-12.858 13.18-7.346.126-13.293-5.959-13.457-12.845-.171-7.333 5.966-13.352 12.898-13.49 7.234-.144 13.49 5.96 13.417 13.155zm-1.366.013c-.066-6.61-5.1-11.788-11.814-11.775C11.428 6.31 6.322 11.375 6.29 18c-.033 6.702 5.125 11.82 11.742 11.833 6.656.013 11.741-5.112 11.814-11.768z" fill="#E04E39"/><path d="M18.564 7.544c3.035.198 5.552 1.453 7.517 3.759 1.622 1.905 2.503 4.12 2.503 6.643 0 .493-.237.769-.644.788-.42.02-.69-.25-.716-.716-.066-1.11-.184-2.208-.611-3.246-1.406-3.456-3.976-5.381-7.675-5.808-.296-.033-.598-.046-.9-.073-.407-.032-.664-.302-.657-.69.006-.367.256-.63.644-.663.184-.007.361.006.539.006z" fill="#E04E39"/><path d="M19.621 1c1.052.17 2.103.315 3.128.624 3.798 1.137 6.86 3.318 9.193 6.518a16.5 16.5 0 013.094 7.806c.362 2.93.007 5.783-1.143 8.51-.138.328-.092.519.158.742.27.23.492.512.762.749.315.276.388.598.302.999-.157.749-.289 1.504-.46 2.247-.079.335 0 .552.243.795 2.36 2.34 4.705 4.692 7.05 7.037 1.499 1.498 1.387 4.002-.23 5.263-1.366 1.071-3.423.914-4.684-.348-2.32-2.32-4.646-4.632-6.952-6.965-.309-.309-.585-.407-1.005-.302-.703.177-1.42.289-2.13.44-.393.086-.709.007-.998-.302-.335-.361-.65-.835-1.071-.98-.414-.144-.874.283-1.327.421-6.61 2.03-12.452.684-17.452-4.067-2.852-2.714-4.462-6.104-5.014-9.994-.026-.19 0-.388-.085-.565v-3.114c.046-.283.085-.566.138-.848C2.426 8.563 6.526 3.917 13.34 1.637c1.025-.341 2.102-.466 3.167-.637h3.114zM18.15 33.788c8.804-.145 15.598-6.926 15.612-15.691.02-8.916-6.913-15.73-15.665-15.743C9.174 2.347 2.314 9.279 2.354 18.15 2.4 26.948 9.273 33.742 18.15 33.788zm21.361 7.891c1.156 0 2.149-.992 2.175-2.063.013-.696-.322-1.222-.795-1.689-2.458-2.45-4.902-4.908-7.372-7.352-.342-.342-.44-.684-.336-1.143.178-.782.316-1.577.48-2.366.085-.407-.243-.585-.48-.73-.256-.157-.289.204-.38.349-1.026 1.682-2.274 3.174-3.779 4.442-.782.663-1.63 1.235-2.503 1.774-.099.059-.29.079-.224.282.092.263.565.52.854.46.789-.157 1.584-.309 2.372-.473.395-.085.717 0 1 .309.36.394.748.762 1.123 1.137l6.288 6.288c.46.453.966.795 1.577.775z" stroke="#E04E39" stroke-width=".5"/><path d="M31.212 18.051c.04 7.07-5.88 13.063-12.858 13.18-7.346.126-13.293-5.959-13.457-12.845-.171-7.333 5.966-13.352 12.898-13.49 7.234-.144 13.49 5.96 13.417 13.155zm-1.366.013c-.066-6.61-5.1-11.788-11.814-11.775C11.428 6.31 6.322 11.375 6.29 18c-.033 6.702 5.125 11.82 11.742 11.833 6.656.013 11.741-5.112 11.814-11.768z" stroke="#E04E39" stroke-width=".5"/><path d="M18.564 7.544c3.035.198 5.552 1.453 7.517 3.759 1.622 1.905 2.503 4.12 2.503 6.643 0 .493-.237.769-.644.788-.42.02-.69-.25-.716-.716-.066-1.11-.184-2.208-.611-3.246-1.406-3.456-3.976-5.381-7.675-5.808-.296-.033-.598-.046-.9-.073-.407-.032-.664-.302-.657-.69.006-.367.256-.63.644-.663.184-.007.361.006.539.006z" stroke="#E04E39" stroke-width=".5"/></svg>