<?xml version="1.0" encoding="utf-8"?><svg width="17" height="17" fill="none" xmlns="http://www.w3.org/2000/svg" viewBox="0 0 17 17"><path fill-rule="evenodd" clip-rule="evenodd" d="M14.601 1.537a.862.862 0 00-.609.252l-7.15 7.15-.406 1.625 1.624-.406 7.15-7.15a.862.862 0 00-.609-1.471zM12.905.703a2.398 2.398 0 113.392 3.392l-7.3 7.3a.769.769 0 01-.357.203l-3.074.768a.768.768 0 01-.932-.932l.768-3.074a.769.769 0 01.203-.357l7.3-7.3zM.675 2.305a2.305 2.305 0 011.63-.675h5.38a.768.768 0 010 1.537h-5.38a.769.769 0 00-.768.769v10.758a.768.768 0 00.768.769h10.76a.768.768 0 00.768-.768v-5.38a.769.769 0 011.537 0v5.38A2.305 2.305 0 0113.064 17H2.305A2.305 2.305 0 010 14.694V3.937c0-.612.243-1.198.675-1.63z" fill="#fff"/></svg>