<?xml version="1.0" encoding="utf-8"?><svg width="40" height="40" fill="none" xmlns="http://www.w3.org/2000/svg" viewBox="0 0 40 40"><path d="M18.16 38.994H3.236c-.822 0-1.5-.276-1.942-1.005-.38-.627-.392-3.452-.025-4.086.211-.37.51-.66.902-.823.243-.1.361-.27.455-.502.523-1.306 1.064-2.612 1.587-3.911.15-.37.317-.697.772-.772.28-.044.187-.302.187-.477.006-2.286.006-4.57.006-6.862V9.865c.006-4.602 3.268-8.275 7.799-8.802C13.58.993 14.183 1 14.78 1h20.671c2.173 0 3.53 1.362 3.517 3.566-.006 1.187.118 2.38-.068 3.56-.243 1.563-1.538 2.699-3.106 2.705-4.476.02-8.951.02-13.426 0-1.438-.006-2.677-1.036-3.038-2.473-.087-.358-.236-.484-.598-.477-.56.012-1.12.056-1.674-.038-.952-.157-1.575-.71-1.824-1.645-.093-.358-.255-.452-.61-.464-1.157-.038-2.265.069-3.218.828-1.008.804-1.568 1.859-1.574 3.152-.02 5.907-.007 11.821-.013 17.729 0 .351.106.483.454.458.337-.025.679-.006 1.015-.006.616.006.896.27.903.897.012 1.143.006 2.285.006 3.428 0 .609.006.609.622.609h8.26c.25 0 .504.013.747.05.367.057.585.308.604.666.018.383-.2.653-.573.734-.224.05-.467.057-.703.057H3.62c-.206 0-.411 0-.617.006-.373 0-.585.2-.59.571a42.953 42.953 0 000 2.003c.012.364.236.559.597.59.13.013.267.006.398.006h29.373c.89 0 1.015-.125 1.02-1.03v-1.38c-.005-.61-.155-.76-.759-.76h-7.55c-.205 0-.417.013-.61-.063-.336-.125-.541-.37-.51-.74.025-.352.236-.578.572-.647.243-.05.498-.063.747-.063 2.353-.006 4.712 0 7.065 0 .399 0 .797.013 1.177.138.79.258 1.325.954 1.344 1.796.012.653-.031 1.312.012 1.958.1 1.444-1.014 2.285-2.24 2.273-3.442-.032-6.89-.013-10.333-.013-1.525.013-3.037.013-4.556.013zM6.64 18.302v8.456c0 1.137 0 1.137 1.101 1.137.629 0 .629 0 .629-.634 0-5.789-.006-11.577.006-17.365.006-2.806 1.811-5.01 4.544-5.55.548-.106 1.108-.113 1.668-.119.579-.006.579-.006.579-.603 0-.25-.012-.502 0-.76.012-.282-.087-.407-.38-.395-.572.025-1.145-.006-1.718.063-3.753.47-6.423 3.49-6.43 7.314-.006 2.818 0 5.637 0 8.456zM29.11 6.481c-2.44 0-4.887-.013-7.326.006-1.252.006-1.133-.282-1.102 1.168.018.91.74 1.626 1.65 1.632a2405 2405 0 0013.456 0c.747 0 1.4-.496 1.594-1.18.1-.346.025-.71.062-1.061.05-.452-.13-.578-.573-.578-2.589.025-5.172.013-7.761.013zm-.007-1.394H31.4c1.88 0 3.766 0 5.646-.006.174 0 .417.075.454-.214.156-1.211-.392-2.14-1.438-2.348-.292-.056-.61.02-.915.02h-8.471c-1.811 0-3.616.012-5.428-.007-.43-.006-.622.107-.591.571.031.471.031.948 0 1.425-.025.42.112.565.548.565 2.633-.019 5.265-.006 7.898-.006zM7.38 32.892c.971 0 1.942-.013 2.913.006.349.006.46-.12.455-.465a61.674 61.674 0 010-2.63c.006-.339-.119-.433-.436-.433-1.457.012-2.913.019-4.37 0-.336 0-.473.138-.585.414-.36.91-.734 1.815-1.126 2.712-.15.346-.044.402.28.402.952-.013 1.91-.006 2.87-.006zM19.163 4.415c0-.52-.006-1.036 0-1.557.006-.282-.112-.395-.392-.389-.604.013-1.201.006-1.805 0-.243 0-.343.094-.343.345.007.948-.006 1.896.007 2.844.006.415.255.66.666.678.498.02.996 0 1.494.013.261.006.373-.113.367-.377 0-.52.006-1.036.006-1.557z" fill="#E04E39"/><path d="M38.365 17.41c-.019.409-.187.66-.529.729-.386.081-.666-.1-.815-.452-.218-.521-.411-1.049-.617-1.57-.218-.565-.448-1.13-.66-1.701-.18-.49-.03-.885.374-1.036.398-.144.747.032.934.502.417 1.061.821 2.129 1.226 3.196.044.12.068.251.087.333zM32.44 13.292c.28.02.492.214.604.509.43 1.086.852 2.178 1.263 3.27.174.471.025.836-.367.999-.361.144-.735-.025-.915-.465a125.499 125.499 0 01-1.282-3.315c-.193-.527.137-1.01.697-.998zM25.699 13.299c.473-.013.859.452.697.891a85.81 85.81 0 01-1.37 3.522c-.143.345-.454.502-.84.364-.367-.132-.547-.496-.417-.91.156-.477.355-.942.536-1.413.236-.609.473-1.218.703-1.827.13-.339.342-.584.69-.627zM20.52 18.064c-.492 0-.865-.434-.716-.854a89.43 89.43 0 011.37-3.522c.15-.37.566-.49.89-.34.38.177.516.51.355.911-.418 1.08-.84 2.153-1.258 3.233-.118.34-.323.565-.64.572zM29.788 15.697c0 .502.006 1.004 0 1.513-.006.558-.317.929-.747.916-.423-.012-.71-.364-.71-.897a245.126 245.126 0 010-3.02c0-.565.3-.917.741-.91.43.006.71.351.716.891.006.502 0 1.005 0 1.507z" fill="#E04E39"/><path d="M18.16 38.994H3.236c-.822 0-1.5-.276-1.942-1.005-.38-.627-.392-3.452-.025-4.086.211-.37.51-.66.902-.823.243-.1.361-.27.455-.502.523-1.306 1.064-2.612 1.587-3.911.15-.37.317-.697.772-.772.28-.044.187-.302.187-.477.006-2.286.006-4.57.006-6.862V9.865c.006-4.602 3.268-8.275 7.799-8.802C13.58.993 14.183 1 14.78 1h20.671c2.173 0 3.53 1.362 3.517 3.566-.006 1.187.118 2.38-.068 3.56-.243 1.563-1.538 2.699-3.106 2.705-4.476.02-8.951.02-13.426 0-1.438-.006-2.677-1.036-3.038-2.473-.087-.358-.236-.484-.598-.477-.56.012-1.12.056-1.674-.038-.952-.157-1.575-.71-1.824-1.645-.093-.358-.255-.452-.61-.464-1.157-.038-2.265.069-3.218.828-1.008.804-1.568 1.859-1.574 3.152-.02 5.907-.007 11.821-.013 17.729 0 .351.106.483.454.458.337-.025.679-.006 1.015-.006.616.006.896.27.903.897.012 1.143.006 2.285.006 3.428 0 .609.006.609.622.609h8.26c.25 0 .504.013.747.05.367.057.585.308.604.666.018.383-.2.653-.573.734-.224.05-.467.057-.703.057H3.62c-.206 0-.411 0-.617.006-.373 0-.585.2-.59.571a42.953 42.953 0 000 2.003c.012.364.236.559.597.59.13.013.267.006.398.006h29.373c.89 0 1.015-.125 1.02-1.03v-1.38c-.005-.61-.155-.76-.759-.76h-7.55c-.205 0-.417.013-.61-.063-.336-.125-.541-.37-.51-.74.025-.352.236-.578.572-.647.243-.05.498-.063.747-.063 2.353-.006 4.712 0 7.065 0 .399 0 .797.013 1.177.138.79.258 1.325.954 1.344 1.796.012.653-.031 1.312.012 1.958.1 1.444-1.014 2.285-2.24 2.273-3.442-.032-6.89-.013-10.333-.013-1.525.013-3.037.013-4.556.013zM6.64 18.302v8.456c0 1.137 0 1.137 1.101 1.137.629 0 .629 0 .629-.634 0-5.789-.006-11.577.006-17.365.006-2.806 1.811-5.01 4.544-5.55.548-.106 1.108-.113 1.668-.119.579-.006.579-.006.579-.603 0-.25-.012-.502 0-.76.012-.282-.087-.407-.38-.395-.572.025-1.145-.006-1.718.063-3.753.47-6.423 3.49-6.43 7.314-.006 2.818 0 5.637 0 8.456zM29.11 6.481c-2.44 0-4.887-.013-7.326.006-1.252.006-1.133-.282-1.102 1.168.018.91.74 1.626 1.65 1.632a2405 2405 0 0013.456 0c.747 0 1.4-.496 1.594-1.18.1-.346.025-.71.062-1.061.05-.452-.13-.578-.573-.578-2.589.025-5.172.013-7.761.013zm-.007-1.394H31.4c1.88 0 3.766 0 5.646-.006.174 0 .417.075.454-.214.156-1.211-.392-2.14-1.438-2.348-.292-.056-.61.02-.915.02h-8.471c-1.811 0-3.616.012-5.428-.007-.43-.006-.622.107-.591.571.031.471.031.948 0 1.425-.025.42.112.565.548.565 2.633-.019 5.265-.006 7.898-.006zM7.38 32.892c.971 0 1.942-.013 2.913.006.349.006.46-.12.455-.465a61.674 61.674 0 010-2.63c.006-.339-.119-.433-.436-.433-1.457.012-2.913.019-4.37 0-.336 0-.473.138-.585.414-.36.91-.734 1.815-1.126 2.712-.15.346-.044.402.28.402.952-.013 1.91-.006 2.87-.006zM19.163 4.415c0-.52-.006-1.036 0-1.557.006-.282-.112-.395-.392-.389-.604.013-1.201.006-1.805 0-.243 0-.343.094-.343.345.007.948-.006 1.896.007 2.844.006.415.255.66.666.678.498.02.996 0 1.494.013.261.006.373-.113.367-.377 0-.52.006-1.036.006-1.557z" stroke="#E04E39" stroke-width=".5"/><path d="M38.365 17.41c-.019.409-.187.66-.529.729-.386.081-.666-.1-.815-.452-.218-.521-.411-1.049-.617-1.57-.218-.565-.448-1.13-.66-1.701-.18-.49-.03-.885.374-1.036.398-.144.747.032.934.502.417 1.061.821 2.129 1.226 3.196.044.12.068.251.087.333zM32.44 13.292c.28.02.492.214.604.509.43 1.086.852 2.178 1.263 3.27.174.471.025.836-.367.999-.361.144-.735-.025-.915-.465a125.499 125.499 0 01-1.282-3.315c-.193-.527.137-1.01.697-.998zM25.699 13.299c.473-.013.859.452.697.891a85.81 85.81 0 01-1.37 3.522c-.143.345-.454.502-.84.364-.367-.132-.547-.496-.417-.91.156-.477.355-.942.536-1.413.236-.609.473-1.218.703-1.827.13-.339.342-.584.69-.627zM20.52 18.064c-.492 0-.865-.434-.716-.854a89.43 89.43 0 011.37-3.522c.15-.37.566-.49.89-.34.38.177.516.51.355.911-.418 1.08-.84 2.153-1.258 3.233-.118.34-.323.565-.64.572zM29.788 15.697c0 .502.006 1.004 0 1.513-.006.558-.317.929-.747.916-.423-.012-.71-.364-.71-.897a245.126 245.126 0 010-3.02c0-.565.3-.917.741-.91.43.006.71.351.716.891.006.502 0 1.005 0 1.507z" stroke="#E04E39" stroke-width=".5"/></svg>