<?xml version="1.0" encoding="utf-8"?><svg width="20" height="21" fill="none" xmlns="http://www.w3.org/2000/svg" viewBox="0 0 20 21"><path d="M11.344 3.38H3.65c-.27 0-.27 0-.27.264 0 .177.005.354-.006.525-.02.364-.181.655-.535.79-.353.14-.675.068-.95-.202-.214-.208-.422-.421-.635-.635-.317-.317-.639-.634-.956-.961-.395-.4-.395-.894.005-1.294.52-.525 1.05-1.045 1.57-1.57.28-.28.608-.374.977-.223.374.15.52.462.53.847.005.15 0 .296 0 .447 0 .28 0 .28.275.286H19.097c.525.015.888.369.888.862 0 .494-.363.853-.893.858-.94.005-1.881 0-2.822 0-1.642.005-3.284.005-4.926.005zM8.652 16.622h7.69c.276 0 .276 0 .276-.281 0-.208-.005-.416.02-.624.042-.343.234-.592.572-.696a.808.808 0 01.878.208c.359.348.707.707 1.06 1.06.192.192.39.385.577.577.359.374.364.868 0 1.237a159.9 159.9 0 01-1.626 1.627c-.27.27-.598.343-.951.202-.354-.14-.515-.426-.535-.79a4.12 4.12 0 010-.566c.01-.182-.063-.234-.24-.234-1.397.005-2.79.005-4.188.005H1.065c-.088 0-.181.005-.27-.005-.504-.062-.81-.416-.795-.91.016-.452.385-.795.889-.8.675-.01 1.351-.005 2.026-.005 1.918-.005 3.825-.005 5.737-.005zM10.013 13.3c0 .442-.28.775-.686.863a.845.845 0 01-.93-.483c-.14-.328-.26-.665-.38-1.003-.046-.13-.114-.177-.254-.177-.722.005-1.44.005-2.162 0-.16 0-.228.057-.28.203-.115.322-.234.65-.37.961a.796.796 0 01-.706.504.805.805 0 01-.78-.384.843.843 0 01-.072-.8l1.772-4.72c.239-.634.468-1.268.717-1.892.187-.473.686-.676 1.133-.478.254.114.4.317.493.572l1.17 3.118c.415 1.113.83 2.225 1.252 3.337.046.13.098.265.083.38zM6.687 9.148c-.026.03-.046.041-.052.057-.181.483-.363.972-.55 1.455-.047.12 0 .146.114.146.312-.006.623-.006.935 0 .156.005.161-.063.115-.177a6.874 6.874 0 01-.13-.348c-.14-.37-.286-.744-.432-1.133zM13.727 14.179h-1.985c-.358 0-.65-.125-.826-.447-.177-.322-.125-.634.068-.936 1.06-1.694 2.12-3.388 3.18-5.088.031-.047.093-.099.067-.156-.03-.073-.114-.036-.176-.036H11.7c-.51 0-.883-.354-.889-.832-.01-.483.374-.863.889-.863 1.356-.005 2.712 0 4.068 0 .343 0 .624.13.795.437.177.312.14.618-.046.92-1.06 1.689-2.115 3.378-3.17 5.067-.016.021-.026.047-.042.068-.098.13-.057.171.1.171.784-.005 1.568-.005 2.353 0 .535 0 .92.354.92.842 0 .494-.385.853-.915.858-.686-.005-1.361-.005-2.037-.005z" fill="#E04E39"/></svg>