<?xml version="1.0" encoding="utf-8"?><svg width="32" height="34" fill="none" xmlns="http://www.w3.org/2000/svg" viewBox="0 0 32 34"><path d="M15.992 33.982c-4.174 0-8.351-.035-12.525.018C1.87 34.02-.007 32.396 0 30.54.039 22.71.014 14.88.018 7.052c0-1.841 1.59-3.434 3.424-3.441 1.933-.004 3.863-.007 5.795.003.33.004.445-.094.435-.43-.021-.693-.01-1.387-.004-2.08.004-.665.406-1.092 1.03-1.103.637-.01 1.082.427 1.089 1.086.007.728.01 1.456-.004 2.184-.003.256.084.34.343.34 2.581-.007 5.158-.007 7.74.003.272 0 .363-.09.356-.36a85.184 85.184 0 01-.007-2.115C20.22.448 20.65-.003 21.294 0c.62.004 1.043.455 1.047 1.128.003.703.017 1.41-.004 2.114-.007.298.102.371.382.371 1.968-.01 3.932-.003 5.9-.007 1.713 0 3.369 1.618 3.372 3.323.004 7.17.004 14.34.004 21.511 0 .728-.021 1.456.003 2.185.064 1.715-1.789 3.375-3.372 3.364-4.216-.024-8.425-.007-12.634-.007zm.01-20.198H2.676c-.539 0-.539 0-.539.553v9.474c0 2.234 0 4.464.004 6.698 0 .882.322 1.243 1.19 1.338.137.014.277.014.417.014h24.638c.22 0 .437-.021.654-.07.424-.099.7-.347.764-.792.028-.192.056-.388.056-.584.003-5.389.003-10.78.003-16.169 0-.451 0-.455-.465-.455-4.461-.007-8.926-.007-13.394-.007zm-.017-2.122h13.5c.181 0 .384.042.384-.255-.007-1.467.021-2.938-.017-4.405-.025-.878-.396-1.246-1.24-1.256-1.989-.021-3.978-.004-5.967-.01-.227 0-.304.09-.3.307.006.557.006 1.11-.004 1.667-.01.64-.445 1.075-1.065 1.078-.613 0-1.05-.445-1.057-1.082-.004-.556-.007-1.11 0-1.666.003-.22-.074-.308-.301-.308-2.602.003-5.204.003-7.81-.004-.237 0-.328.077-.325.322.01.532.007 1.065.004 1.597-.004.71-.41 1.141-1.065 1.138-.637-.004-1.054-.452-1.06-1.152-.004-.497-.022-.995.006-1.492.018-.322-.087-.416-.41-.413-1.848.014-3.7.004-5.55.007-1.218 0-1.565.35-1.568 1.576 0 1.306.01 2.615-.007 3.92-.004.323.077.438.423.438 4.475-.014 8.95-.01 13.43-.007z" fill="#58595B"/><path d="M10.288 16.589c.438 0 .879.007 1.317-.004.238-.007.329.088.325.326-.01.634-.01 1.27 0 1.905.004.248-.101.318-.332.315-.88-.007-1.755-.007-2.634 0-.252.003-.35-.088-.343-.343.01-.624.01-1.247-.003-1.87-.004-.263.108-.343.353-.336.442.014.88.007 1.317.007zM15.975 16.589c.437 0 .879.007 1.316-.004.235-.003.333.08.33.322-.011.634-.008 1.271 0 1.905.003.21-.06.322-.295.319-.9-.007-1.8-.004-2.703 0-.217 0-.315-.077-.312-.305.007-.648.007-1.292-.003-1.94-.004-.224.095-.308.312-.304.455.014.907.007 1.355.007zM21.745 16.589c.438 0 .88.007 1.317-.004.242-.007.322.098.322.33-.007.633-.007 1.27 0 1.904.004.217-.084.312-.304.312-.9-.007-1.8-.007-2.704 0-.227 0-.304-.098-.3-.312.006-.634.006-1.27 0-1.904-.004-.235.076-.337.321-.33.449.014.9.007 1.349.004zM10.26 23.987c-.438 0-.879-.007-1.317.003-.238.007-.325-.09-.322-.325.01-.613.01-1.222.004-1.835-.004-.217.077-.311.3-.311.9.007 1.8.007 2.7 0 .225 0 .309.09.305.308-.007.623-.01 1.246-.003 1.87.003.234-.109.297-.319.293-.448-.007-.9-.003-1.348-.003zM15.954 23.987c-.438 0-.88-.007-1.317.003-.238.007-.33-.087-.326-.325.01-.599.01-1.201.004-1.8-.004-.248.077-.353.336-.35.876.01 1.754.01 2.633 0 .252-.003.35.087.344.343-.011.588-.018 1.177 0 1.765.006.297-.116.378-.39.367-.43-.014-.857-.003-1.284-.003zM21.732 23.987c-.438 0-.88-.007-1.317.003-.224.004-.343-.06-.34-.311.01-.623.007-1.247.004-1.87 0-.203.077-.294.283-.294.91.003 1.825.003 2.735 0 .207 0 .287.087.287.29-.007.624-.01 1.247 0 1.87.004.249-.112.319-.336.312-.441-.007-.879 0-1.316 0zM10.26 28.916c-.427 0-.854-.007-1.282.004-.238.007-.36-.067-.357-.333.014-.612.007-1.225 0-1.834-.003-.22.08-.312.305-.312.9.007 1.8.007 2.703 0 .224 0 .305.098.301.315a80.14 80.14 0 000 1.835c.004.234-.077.332-.322.329-.448-.014-.9-.004-1.348-.004zM15.978 26.445c.438 0 .88.007 1.317-.004.234-.003.332.084.329.326-.01.612-.007 1.225.004 1.834.003.245-.102.319-.333.319-.88-.007-1.755-.007-2.633 0-.253.003-.35-.088-.347-.343.01-.599.014-1.201 0-1.8-.007-.262.101-.343.35-.336.434.014.876.004 1.313.004zM21.696 28.916c-.437 0-.879-.007-1.316.004-.224.003-.308-.091-.305-.308.007-.623.007-1.247 0-1.87-.003-.23.105-.297.319-.297.89.007 1.779.007 2.665 0 .238-.004.329.09.325.325-.007.599-.01 1.201.004 1.8.007.28-.116.36-.375.353-.438-.014-.875-.003-1.317-.007z" fill="#58595B"/></svg>