<?xml version="1.0" encoding="utf-8"?><svg width="18" height="16" fill="none" xmlns="http://www.w3.org/2000/svg" viewBox="0 0 18 16"><path fill-rule="evenodd" clip-rule="evenodd" d="M18 15.299a.616.616 0 00-.188-.442.652.652 0 00-.455-.183H.643a.652.652 0 00-.455.183.616.616 0 000 .884c.12.117.284.183.455.183h16.714c.17 0 .334-.066.455-.183a.616.616 0 00.188-.442zM9 .924a.652.652 0 00-.455.183.616.616 0 00-.188.442V8.79L5.598 6.106a.653.653 0 00-.91 0 .617.617 0 000 .885l3.857 3.75a.644.644 0 00.455.184.659.659 0 00.455-.184l3.857-3.75a.617.617 0 000-.885.653.653 0 00-.91 0L9.642 8.79V1.55a.616.616 0 00-.187-.442A.652.652 0 009 .924z" fill="#fff"/></svg>