<?xml version="1.0" encoding="utf-8"?><svg width="50" height="50" fill="none" xmlns="http://www.w3.org/2000/svg" viewBox="0 0 50 50"><rect width="50" height="50" rx="10" fill="#F7F9FA"/><path d="M16 19.019c0-1.166.381-2.128 1.144-2.884.772-.757 1.76-1.135 2.963-1.135 1.222 0 2.21.383 2.963 1.148.763.757 1.144 1.74 1.144 2.95v.949c0 1.175-.386 2.136-1.157 2.884-.763.738-1.737 1.108-2.922 1.108-1.195 0-2.183-.37-2.963-1.108C16.39 22.183 16 21.19 16 19.953v-.934zm1.902 1.028c0 .694.202 1.268.606 1.722.405.445.947.668 1.627.668.652 0 1.176-.219 1.571-.655.404-.436.606-1.032.606-1.789v-.974c0-.695-.197-1.269-.592-1.723-.395-.453-.933-.68-1.613-.68-.68 0-1.217.227-1.612.68-.396.454-.593 1.046-.593 1.776v.975zm7.87 9.906c0-1.166.381-2.123 1.144-2.87.772-.757 1.76-1.135 2.963-1.135 1.204 0 2.191.374 2.963 1.121.772.748 1.158 1.74 1.158 2.978v.948c0 1.166-.386 2.127-1.158 2.884-.762.747-1.74 1.121-2.935 1.121s-2.183-.37-2.964-1.108c-.78-.748-1.171-1.74-1.171-2.977v-.962zm1.902 1.042c0 .703.202 1.281.606 1.735.404.445.947.668 1.627.668.661 0 1.19-.218 1.585-.654.395-.445.592-1.046.592-1.803v-.988c0-.703-.202-1.277-.606-1.722-.395-.445-.928-.668-1.599-.668-.652 0-1.185.223-1.599.668-.404.436-.606 1.028-.606 1.776v.988zm-6.96 2.256l-1.447-.881 9.799-15.194 1.447.881-9.8 15.194z" fill="#C9D1D1"/></svg>