<?xml version="1.0" encoding="utf-8"?><svg width="35" height="41" fill="none" xmlns="http://www.w3.org/2000/svg" viewBox="0 0 35 41"><path d="M33.602 1c.205.206.425.406.398.739-.027.373-.292.659-.737.685-.591.04-1.189.027-1.78.027H4.081c-.644 0-1.136.24-1.428.812-.279.54-.245 1.085.113 1.578.312.426.744.625 1.275.625h29.036c.657 0 .923.267.923.926v32.65c0 .725-.232.958-.95.958H4.049C2.28 40 1 38.722 1 36.958V4.115C1 2.518 1.73 1.565 3.377 1h30.225zm-1.083 21.767V7.583c0-.632 0-.632-.644-.632H16.12c-2.151 0-4.303.006-6.454-.007-.332 0-.458.1-.432.433.02.28.007.559.007.839v29.8c0 .493.013.506.518.506 7.43 0 14.853-.006 22.283.007.392 0 .492-.12.492-.5-.014-5.085-.014-10.17-.014-15.263zm-24.76 0c0-5.113 0-10.225.007-15.337 0-.36-.093-.486-.465-.48-1.049.02-2.098.007-3.154.007-.445 0-.89-.053-1.294-.232-.332-.147-.379-.027-.379.28.013 1.15.007 2.309.007 3.46v26.453c0 1.012.597 1.604 1.607 1.604 1.035.007 2.078 0 3.114 0 .557 0 .557 0 .557-.572V22.766z" fill="#E04E39" stroke="#E04E39" stroke-width=".5"/></svg>