<?xml version="1.0" encoding="utf-8"?><svg width="21" height="20" fill="none" xmlns="http://www.w3.org/2000/svg" viewBox="0 0 21 20"><path d="M10.007 19.808H.365c-.124 0-.172-.058-.162-.173v-.153V8.221c0-.336.124-.547.41-.71 1.369-.835 2.746-1.66 4.123-2.494l7.9-4.758A.536.536 0 0113 .2a8.033 8.033 0 016.667 6.437c.086.46.134.92.134 1.39V19.52c0 .279 0 .279-.277.279-3.166.01-6.342.01-9.517.01zm0-1.276H18.29c.277 0 .277 0 .277-.268v-.537-6.293c0-.23-.086-.278-.277-.163-.23.134-.316.355-.325.614-.039 1.122-1.13 1.966-2.22 1.726a1.853 1.853 0 01-1.463-1.764c-.02-.403-.249-.643-.612-.634-.354 0-.574.24-.593.643 0 .086-.01.182-.029.269-.191.988-1.004 1.592-2.028 1.515-.88-.067-1.587-.834-1.635-1.784a.708.708 0 00-.134-.412c-.163-.202-.43-.288-.67-.202-.23.077-.392.326-.401.633a1.834 1.834 0 01-1.846 1.775 1.828 1.828 0 01-1.846-1.775c0-.086-.02-.163-.039-.25a.558.558 0 00-.554-.412.593.593 0 00-.574.394c-.038.115-.038.23-.048.345-.038.825-.775 1.611-1.597 1.679-.192.019-.24.076-.24.268.01 1.468 0 2.926 0 4.394 0 .249 0 .249.259.249 2.774-.01 5.538-.01 8.312-.01zm-.01-9.784H1.676c-.125 0-.24-.01-.24.182v3.3c0 .154.067.173.192.125.268-.096.392-.298.411-.69.029-.71.555-1.392 1.263-1.631.688-.23 1.501-.02 1.96.518.297.345.46.738.479 1.208.019.49.43.768.841.585.278-.124.345-.364.364-.642a1.736 1.736 0 01.851-1.458c1.224-.768 2.764.057 2.831 1.496.02.403.249.662.603.662s.593-.26.612-.672v-.057c.038-1.027 1.08-1.88 2.095-1.708.947.163 1.54.825 1.597 1.804.029.383.268.642.612.633.335 0 .574-.26.593-.624.01-.105.01-.201.029-.307.163-.825.784-1.4 1.645-1.515.134-.02.172-.067.172-.192-.01-.23 0-.46 0-.69 0-.308 0-.308-.315-.308-2.774-.019-5.52-.019-8.274-.019zM3.139 7.444c0 .01.01.028.01.038h12.663c.23 0 .25-.029.21-.22-.305-1.631-1.663-3.003-3.29-3.339-.41-.086-.822-.077-1.233-.077-.641 0-1.292.03-1.932-.01-.306-.018-.536.068-.785.221-1.167.71-2.353 1.42-3.53 2.13-.697.403-1.405.835-2.113 1.257zm8.178-4.921c.402.057.784.028 1.176.076 1.426.192 2.612.825 3.549 1.919.689.796 1.1 1.727 1.262 2.772.02.154.077.192.22.192.278-.01.546-.01.823 0 .143 0 .182-.048.163-.192a6.398 6.398 0 00-.526-1.88c-.957-2.053-2.526-3.357-4.735-3.885-.105-.02-.2-.048-.296.01-.546.335-1.09.662-1.636.988z" fill="#E04E39"/><path d="M.537 20H.365c-.143 0-.23-.048-.277-.096-.067-.067-.096-.163-.086-.278v-.086-2.428-8.891c0-.393.162-.681.497-.883a354.257 354.257 0 003.396-2.033l.746-.451 7.9-4.758A.701.701 0 0113.04.02a8.187 8.187 0 014.457 2.216 8.213 8.213 0 012.372 4.384c.096.47.134.95.134 1.43V19.53c0 .384-.086.47-.469.47H.537zm-.143-.393H19.619v-2.955V8.04c0-.451-.048-.902-.134-1.353-.621-3.252-3.242-5.775-6.513-6.293-.105-.019-.172-.01-.24.03-2.63 1.592-5.26 3.174-7.9 4.757l-.746.45C2.976 6.303 1.829 6.994.69 7.665c-.23.135-.315.288-.315.547.01 2.964 0 5.976 0 8.892l.01 2.37v.048c.009.028.009.057.009.086zm17.896-.883H1.704c-.363 0-.45-.086-.45-.44V17.15 13.89c0-.288.125-.432.422-.46.717-.058 1.387-.758 1.415-1.497v-.029c.01-.115.01-.24.048-.364a.764.764 0 01.746-.528h.01c.354 0 .65.22.736.556.029.087.038.192.048.288a1.638 1.638 0 001.655 1.593 1.63 1.63 0 001.654-1.583c.02-.393.23-.71.536-.815a.804.804 0 011.052.796c.038.844.68 1.554 1.454 1.602.937.067 1.655-.47 1.827-1.363.01-.067.019-.134.019-.21v-.03c.029-.498.335-.815.784-.824h.01c.469 0 .775.326.803.825.039.796.555 1.42 1.31 1.583.47.105.967-.01 1.359-.317s.622-.748.631-1.228c.01-.364.144-.614.412-.777.057-.038.239-.144.401-.048.163.096.163.307.163.374v6.83c.01.374-.077.46-.46.46zm-8.283-.383h8.369v-1.756-5.141c-.144.086-.21.23-.22.45a2.002 2.002 0 01-.784 1.516 2.03 2.03 0 01-1.674.394c-.938-.212-1.569-.97-1.617-1.938-.01-.211-.086-.45-.42-.45-.335 0-.393.287-.402.46v.028c0 .087-.01.173-.03.26-.21 1.083-1.109 1.755-2.228 1.668-.975-.067-1.76-.91-1.817-1.966-.01-.144-.029-.23-.086-.297-.115-.144-.297-.202-.469-.144-.153.048-.258.23-.268.46a2.031 2.031 0 01-2.037 1.957c-1.1 0-1.99-.863-2.037-1.957a.64.64 0 00-.029-.201.374.374 0 00-.373-.269.385.385 0 00-.382.269c-.03.076-.03.163-.039.259v.028c-.048.94-.851 1.785-1.77 1.861-.028 0-.047.01-.057.01v.067c.01 1.094 0 2.197 0 3.271V18.369H10.007v-.028zm6.112-5.756c-.44 0-.756-.335-.794-.815-.058-.892-.584-1.477-1.435-1.621-.43-.077-.89.057-1.263.364-.373.307-.593.73-.602 1.161V11.732c-.02.518-.335.853-.794.853h-.01c-.45-.01-.765-.345-.784-.844a1.673 1.673 0 00-.89-1.42 1.655 1.655 0 00-1.645.077 1.554 1.554 0 00-.765 1.305c-.01.259-.076.633-.478.806a.77.77 0 01-.737-.039c-.23-.144-.363-.403-.382-.71a1.648 1.648 0 00-.43-1.083c-.402-.47-1.139-.672-1.751-.461-.631.211-1.1.825-1.129 1.458-.01.288-.076.7-.535.863-.058.02-.201.077-.325-.01-.125-.086-.125-.239-.125-.287v-3.3c0-.115.029-.21.096-.278.096-.096.22-.096.316-.096h16.585c.42 0 .507.086.507.499V9.746c.01.23-.105.355-.335.384-.765.096-1.339.623-1.483 1.362a1.18 1.18 0 00-.019.192c0 .028 0 .057-.01.086-.038.47-.353.796-.784.806.01.01.01.01 0 .01zM13.66 9.736c.096 0 .201.01.297.03 1.033.172 1.693.91 1.76 1.975.019.278.181.451.411.451h.01c.23 0 .392-.173.41-.45v-.078c0-.076.01-.163.03-.249.172-.902.87-1.544 1.807-1.669h.01v-.48-.21-.116H1.657v3.204c.124-.067.2-.192.22-.49.028-.795.602-1.534 1.386-1.802.756-.26 1.665-.01 2.162.575.335.393.507.825.517 1.324.01.173.076.316.2.393.106.067.24.077.373.01.173-.077.24-.202.25-.48.037-.69.363-1.247.946-1.611.631-.394 1.387-.432 2.028-.096.65.335 1.061.988 1.1 1.745.019.298.172.48.411.48h.01c.248 0 .401-.182.41-.49v-.057c.02-.546.297-1.064.747-1.439.344-.297.794-.47 1.243-.47zm3.855-2.062c-.23 0-.364-.115-.402-.355A5.247 5.247 0 0015.9 4.643c-.9-1.046-2.057-1.67-3.434-1.851a9.11 9.11 0 00-.546-.039c-.2-.01-.42-.01-.64-.048l-.536-.077.87-.517c.412-.25.823-.49 1.234-.74.163-.095.325-.057.44-.028 2.238.528 3.874 1.87 4.86 3.99.267.576.449 1.228.535 1.938.01.096.019.22-.067.307-.086.096-.201.106-.287.096a11.49 11.49 0 00-.813 0zm-.02-.384h.02c.258-.01.526-.01.794 0a5.915 5.915 0 00-.507-1.793c-.938-2.005-2.487-3.281-4.6-3.78-.077-.019-.125-.029-.154-.01-.373.221-.746.451-1.119.672.191.01.383.01.584.038 1.473.192 2.706.864 3.672 1.986a5.633 5.633 0 011.301 2.868c.01.01.01.01.01.02zm-14.5.384l-.066-.326 3.185-1.919c.841-.508 1.712-1.026 2.573-1.554.306-.191.574-.258.89-.24.43.03.87.02 1.3.02h.727c.383 0 .775 0 1.176.086 1.703.355 3.119 1.784 3.444 3.492.019.096.047.23-.048.336-.086.105-.24.105-.354.105H2.996zM9.49 4.02c-.21 0-.383.058-.603.192-.86.518-1.73 1.046-2.572 1.545L3.77 7.29h12.062c-.297-1.554-1.588-2.858-3.138-3.184-.354-.077-.717-.077-1.1-.077h-.717c-.43.01-.89.01-1.33-.02-.019.01-.038.01-.057.01z" fill="#E04E39"/><path d="M3.875 16.71a.602.602 0 01-.621-.614c0-.355.277-.633.631-.633.335 0 .612.288.612.633a.596.596 0 01-.622.614z" fill="#E04E39"/><path d="M3.875 16.902a.8.8 0 01-.813-.806.82.82 0 01.23-.585.824.824 0 01.583-.24c.21 0 .41.086.564.24.153.153.239.364.239.585.01.46-.344.806-.803.806zm0-.384c.248 0 .43-.173.43-.422a.487.487 0 00-.124-.317.414.414 0 00-.287-.124.465.465 0 00-.316.124.444.444 0 00-.124.307c0 .26.172.432.42.432zM6.946 16.71c-.354 0-.622-.25-.622-.605a.612.612 0 01.622-.633.62.62 0 01.612.624.594.594 0 01-.612.614z" fill="#E04E39"/><path d="M6.946 16.902a.797.797 0 01-.813-.797.82.82 0 01.23-.585.876.876 0 01.583-.249c.21 0 .411.086.564.24.154.153.24.364.24.585 0 .45-.345.806-.804.806zm0-1.247a.418.418 0 00-.316.134.468.468 0 00-.124.316c0 .25.182.423.43.423.25 0 .421-.173.421-.422a.444.444 0 00-.124-.307.353.353 0 00-.287-.144zM9.998 16.71a.607.607 0 01-.621-.614c0-.355.277-.633.63-.633.336 0 .613.288.613.633a.596.596 0 01-.622.614z" fill="#E04E39"/><path d="M9.997 16.902a.8.8 0 01-.813-.806c0-.22.087-.432.24-.585a.824.824 0 01.583-.24c.21 0 .411.086.564.24.153.153.24.364.24.585 0 .46-.354.806-.814.806zm0-.384c.25 0 .43-.173.43-.422a.487.487 0 00-.123-.317.415.415 0 00-.287-.124.466.466 0 00-.316.124.444.444 0 00-.124.307c0 .26.172.432.42.432zM13.068 16.71a.608.608 0 01-.632-.605.626.626 0 01.622-.642c.335 0 .622.278.612.623a.589.589 0 01-.602.624z" fill="#E04E39"/><path d="M13.067 16.902a.791.791 0 01-.813-.797.82.82 0 01.23-.585.875.875 0 01.583-.249c.21 0 .412.077.565.23.153.154.239.365.239.585 0 .46-.345.816-.804.816zm0-1.247a.418.418 0 00-.315.134.468.468 0 00-.125.316c0 .25.182.413.43.413.25 0 .422-.182.422-.432a.414.414 0 00-.134-.307.347.347 0 00-.278-.124zM16.118 16.71a.594.594 0 01-.612-.614c0-.355.277-.633.631-.624.335 0 .612.288.603.633 0 .346-.268.605-.622.605z" fill="#E04E39"/><path d="M16.119 16.902a.8.8 0 01-.813-.806c0-.22.086-.432.239-.585a.823.823 0 01.583-.24h.01c.21 0 .411.086.555.24.153.153.239.374.239.585 0 .46-.354.806-.813.806zm.019-1.247a.465.465 0 00-.316.124.444.444 0 00-.124.307c0 .25.172.422.42.422.25 0 .431-.172.431-.422a.442.442 0 00-.124-.316.45.45 0 00-.287-.115z" fill="#E04E39"/></svg>