<?xml version="1.0" encoding="utf-8"?><svg width="50" height="50" fill="none" xmlns="http://www.w3.org/2000/svg" viewBox="0 0 50 50"><rect width="50" height="50" rx="10" fill="#F7F9FA"/><path d="M25.625 21.875a.625.625 0 10-1.25 0v4.203l-1.786 2.974a.625.625 0 101.072.644l1.875-3.125a.624.624 0 00.089-.321v-4.375z" fill="#C9D1D1"/><path d="M23.125 15a.624.624 0 100 1.25h.625v1.337a8.75 8.75 0 00-4.091 15.593l-.753.752a.625.625 0 00.884.886l.933-.933A8.713 8.713 0 0025 35a8.713 8.713 0 004.277-1.115l.933.933a.625.625 0 10.884-.886l-.752-.752a8.75 8.75 0 00-4.092-15.593V16.25h.625a.624.624 0 100-1.25h-3.75zm1.297 3.773a7.5 7.5 0 111.155 14.955 7.5 7.5 0 01-1.155-14.956zM15 19.375c0 .941.416 1.786 1.075 2.359a10.044 10.044 0 014.409-4.409A3.125 3.125 0 0015 19.375zm16.875-3.125c-.941 0-1.786.416-2.359 1.075 1.9.965 3.444 2.509 4.409 4.409a3.125 3.125 0 00-2.05-5.484z" fill="#C9D1D1"/></svg>