<?xml version="1.0" encoding="utf-8"?><svg width="22" height="17" fill="none" xmlns="http://www.w3.org/2000/svg" viewBox="0 0 22 17"><path d="M18.045 4.652h-3.572a.5.5 0 01-.5-.5V1.5a.5.5 0 00-.5-.5H1.5a.5.5 0 00-.5.5v11a.5.5 0 00.5.5h19a.5.5 0 00.5-.5V8.47a.5.5 0 00-.098-.298l-2.455-3.317a.5.5 0 00-.402-.203zM14 3v10" stroke="#E04E39" stroke-width="2"/><path d="M5 1v3M10 1v3M17 8h3" stroke="#E04E39" stroke-width="2" stroke-linecap="round"/><circle cx="5" cy="14" r="2" fill="#fff" stroke="#E04E39" stroke-width="2"/><circle cx="17" cy="14" r="2" fill="#fff" stroke="#E04E39" stroke-width="2"/></svg>