<?xml version="1.0" encoding="utf-8"?><svg width="17" height="22" fill="none" xmlns="http://www.w3.org/2000/svg" viewBox="0 0 17 22"><path d="M3.039 18.433c0-.528-.01-1.056 0-1.575.026-1.02-.187-1.985-.517-2.94-.321-.938-.696-1.857-.936-2.822-.401-1.548-.5-3.105-.036-4.652.553-1.82 1.64-3.223 3.245-4.197a6.75 6.75 0 014.046-.983c2.068.146 3.78 1.02 5.081 2.685.205.264.357.565.455.883.766 2.35 1.515 4.698 2.3 7.028.24.729-.321 1.584-1.115 1.575-.142 0-.285.01-.428 0-.142-.009-.187.055-.187.191.01.546 0 1.093 0 1.639-.009 1.365-1.051 2.43-2.388 2.44h-.927c-.25 0-.25 0-.25.245 0 .847-.009 1.703 0 2.55 0 .19-.054.263-.24.245a4.78 4.78 0 00-.723 0c-.187.01-.25-.055-.25-.246.01-.956 0-1.911 0-2.867v-.874c0-.282 0-.291.277-.291h1.97c.847 0 1.328-.501 1.328-1.366v-2.658c0-.182.062-.246.232-.237.428.01.855 0 1.283 0 .232 0 .232 0 .16-.218-.579-1.775-1.158-3.55-1.737-5.317-.116-.346-.25-.682-.33-1.028-.196-.801-.687-1.375-1.31-1.867A5.754 5.754 0 008.77 2.511c-3.084-.218-5.838 2.103-6.248 5.225-.16 1.238.035 2.44.4 3.614.295.965.696 1.903.972 2.877.232.81.366 1.63.357 2.476-.018 1.266 0 2.54 0 3.805 0 .246 0 .255-.25.255s-.499-.009-.748 0c-.16.01-.214-.054-.214-.218v-2.112z" fill="#E04E39"/><path d="M11.194 21h-.053a8.854 8.854 0 00-.695 0 .474.474 0 01-.375-.11.53.53 0 01-.133-.382c.009-.701.009-1.42 0-2.121v-.929-.7c0-.429.107-.538.517-.538H12.425c.713 0 1.087-.382 1.087-1.11v-.574-2.085c0-.1.009-.255.125-.364.116-.11.258-.118.365-.118.312.009.633.009.936 0h.232c-.455-1.402-.91-2.795-1.373-4.197l-.33-1.01c-.035-.11-.07-.21-.107-.319-.08-.237-.169-.482-.231-.737-.16-.647-.535-1.184-1.221-1.72A5.483 5.483 0 008.77 2.773C5.802 2.565 3.163 4.76 2.762 7.772c-.142 1.065-.018 2.176.392 3.505.134.446.303.901.455 1.338.178.5.365 1.02.517 1.539.258.883.374 1.711.365 2.549-.008.873-.008 1.766-.008 2.621V20.5c0 .391-.107.5-.49.5h-.74c-.054 0-.223.01-.348-.109-.116-.11-.125-.255-.125-.355.009-.51 0-1.02 0-1.52v-.574-.491c0-.355-.009-.729.009-1.093.027-.883-.143-1.784-.508-2.85-.08-.245-.17-.482-.259-.718-.25-.683-.499-1.393-.686-2.121C.89 9.383.881 7.818 1.318 6.37c.57-1.875 1.694-3.332 3.36-4.333 1.293-.783 2.701-1.129 4.19-1.02 2.175.155 3.94 1.093 5.26 2.777.213.273.373.592.498.965.17.519.339 1.029.5 1.548.579 1.802 1.185 3.66 1.8 5.48.143.428.062.91-.214 1.301-.276.392-.686.61-1.132.601h-.365v1.575c-.01 1.493-1.168 2.677-2.639 2.686h-.945v2.54c0 .109-.009.273-.133.39-.09.101-.223.12-.303.12zm-.766-4.28v3.787c.25-.008.49-.008.73 0a69.094 69.094 0 010-1.92v-.628c0-.383.108-.5.491-.5H12.585c1.203-.01 2.148-.966 2.148-2.186v-1.63c0-.054 0-.218.116-.336a.416.416 0 01.321-.1h.428a.891.891 0 00.722-.392.97.97 0 00.142-.846 393.988 393.988 0 01-1.8-5.49c-.17-.518-.339-1.028-.5-1.547a2.65 2.65 0 00-.418-.81c-1.23-1.584-2.88-2.458-4.912-2.604-1.39-.1-2.7.219-3.904.947-1.55.938-2.611 2.303-3.146 4.05-.41 1.357-.401 2.832.026 4.516.179.701.428 1.402.678 2.076.089.245.178.482.258.728.393 1.12.562 2.085.535 3.022-.009.355-.009.72 0 1.075v2.557c.16-.009.321 0 .473 0h.25v-1.174c0-.865-.01-1.757.008-2.63a8.154 8.154 0 00-.348-2.395c-.151-.51-.33-1.02-.508-1.511-.16-.446-.32-.901-.463-1.365-.428-1.402-.553-2.586-.41-3.724.437-3.277 3.298-5.662 6.525-5.434a6.107 6.107 0 013.405 1.32c.766.61 1.212 1.247 1.39 2.002.054.228.134.455.214.683l.107.328.33 1.01c.472 1.439.936 2.868 1.408 4.306.045.146.09.282 0 .41-.089.127-.232.127-.392.127H13.993c.01.692.01 1.402 0 2.076v.573c0 1.01-.588 1.612-1.568 1.612H10.455c0 .018-.018.018-.027.018z" fill="#E04E39"/><path d="M4.09 8.792c-.01-2.448 1.934-4.451 4.305-4.478 2.407-.028 4.421 1.984 4.421 4.433 0 2.485-1.925 4.479-4.34 4.488-2.425.009-4.377-1.966-4.386-4.443zm4.376 3.314c1.81-.036 3.245-1.457 3.245-3.332 0-1.848-1.417-3.332-3.28-3.322-1.81.018-3.218 1.465-3.227 3.304-.009 1.875 1.426 3.314 3.262 3.35z" fill="#E04E39"/><path d="M8.467 13.462a4.53 4.53 0 01-3.245-1.356 4.752 4.752 0 01-1.355-3.314C3.86 6.225 5.892 4.113 8.396 4.086c1.23-.018 2.397.464 3.289 1.365a4.636 4.636 0 011.364 3.296 4.755 4.755 0 01-1.329 3.332 4.448 4.448 0 01-3.235 1.383h-.018zm-4.154-4.67a4.23 4.23 0 001.221 2.995 4.09 4.09 0 002.933 1.23h.018c2.308-.01 4.127-1.885 4.127-4.261 0-1.12-.437-2.176-1.23-2.977A4.054 4.054 0 008.413 4.55c-2.273.018-4.109 1.921-4.1 4.242zm4.154 3.542a3.527 3.527 0 01-3.485-3.578c.009-1.966 1.524-3.514 3.45-3.532h.026c.936 0 1.81.364 2.46 1.02.66.664 1.016 1.565 1.016 2.53 0 1.985-1.488 3.514-3.467 3.56zm-.009-6.655H8.44c-1.676.01-3.004 1.366-3.004 3.077a3.08 3.08 0 003.04 3.122c1.72-.036 3.022-1.374 3.022-3.104 0-.846-.312-1.63-.883-2.203a3.037 3.037 0 00-2.157-.892z" fill="#E04E39"/><path d="M7.372 9.339h-.41c-.099 0-.143-.046-.143-.146v-.838c0-.118.053-.145.16-.145.25 0 .5-.01.75 0 .142.009.186-.055.186-.191-.009-.246 0-.501 0-.747 0-.127.036-.182.17-.173.258.01.526.01.784 0 .125 0 .16.055.16.164v.765c0 .136.036.19.179.182.25-.01.499 0 .748 0 .125 0 .17.045.17.173-.01.264-.01.519 0 .783 0 .127-.045.173-.17.173-.25-.01-.499 0-.748 0-.134 0-.179.045-.179.182.01.245 0 .5 0 .746 0 .128-.035.191-.178.182-.258-.009-.508-.009-.766 0-.125 0-.17-.054-.17-.173.01-.264 0-.519 0-.783 0-.109-.035-.163-.151-.154-.134.009-.268 0-.392 0z" fill="#E04E39"/><path d="M8.852 10.686h-.018c-.232-.01-.481-.01-.758 0a.428.428 0 01-.294-.1c-.107-.11-.107-.255-.107-.31v-.4-.3H6.962c-.116 0-.205-.028-.267-.1-.072-.065-.098-.165-.098-.283v-.828c0-.119.035-.21.098-.274.107-.109.24-.1.285-.1h.713v-.373-.337c0-.045 0-.19.107-.3.071-.073.16-.11.294-.1.24.009.5.009.776 0h.009a.36.36 0 01.267.1.36.36 0 01.098.3V8H9.939c.125 0 .223.037.294.1.107.11.107.255.107.301-.009.255-.009.519 0 .774 0 .045 0 .191-.107.3a.356.356 0 01-.294.1H9.244v.701c0 .055.009.2-.107.319a.466.466 0 01-.285.09zm-.392-.464h.33v-.319-.382c0-.055-.01-.2.106-.31a.36.36 0 01.303-.1h.687v-.674h-.687c-.044 0-.196.01-.303-.1-.107-.109-.107-.264-.107-.31V7.61v-.282h-.66V8.018c0 .055.01.21-.106.32-.107.109-.259.109-.312.109-.143-.01-.294 0-.446 0h-.232v.673h.713a.33.33 0 01.277.1.353.353 0 01.098.292v.728c.125-.018.232-.018.339-.018z" fill="#E04E39"/></svg>