<?xml version="1.0" encoding="utf-8"?><svg width="34" height="30" fill="none" xmlns="http://www.w3.org/2000/svg" viewBox="0 0 34 30"><path d="M17.039 1.025c3.19 0 6.381-.01 9.572 0 3.15.01 5.763 2.277 6.272 5.411.18 1.139.1 2.287.1 3.436.01 2.418.01 4.827 0 7.245-.02 3.154-2.085 5.703-5.106 6.378-.837.182-1.685.142-2.532.142-2.672.01-5.355 0-8.027 0-.14 0-.27 0-.409-.01a.997.997 0 01-.877-.998.956.956 0 01.967-.957c1.057-.02 2.114-.01 3.17-.01 2.135 0 4.268.01 6.392 0a4.41 4.41 0 004.328-3.487c.08-.373.08-.756.08-1.139 0-3.133-.05-6.267.02-9.39.059-2.59-2.005-4.656-4.617-4.636-6.312.03-12.633 0-18.945 0-2.463 0-4.377 1.915-4.387 4.403-.02 3.255-.02 6.51-.01 9.765.01 2.529 1.845 4.403 4.387 4.473.878.02 1.765.071 2.632-.01.888-.09 1.446.323 1.975.938 1.186 1.37 2.393 2.71 3.59 4.07.268.313.508.414.877.131.438-.322 1.007-.191 1.326.242.319.424.249.968-.19 1.35-1.047.928-2.443.817-3.38-.261-1.226-1.391-2.463-2.782-3.68-4.182-.189-.222-.388-.292-.667-.292-1.147-.02-2.293.08-3.44-.081-2.822-.393-5.135-2.832-5.364-5.693-.17-2.207-.06-4.424-.07-6.64-.01-1.502-.06-3.003.06-4.495.229-2.71 2.542-5.22 5.214-5.602 1.516-.222 3.051-.08 4.577-.091 2.054-.02 4.108-.01 6.162-.01z" fill="#E04E39"/><path d="M16.88 4.42c1.695-.01 2.911.796 3.25 2.217.22.907.07 1.784-.389 2.61-.358.645-.827 1.21-1.286 1.763-.698.857-1.136 1.794-1.067 2.933.03.383-.14.534-.498.503-.06-.01-.12 0-.18 0-1.037.01-1.176-.15-1.057-1.219.1-.967.479-1.824 1.057-2.59.38-.493.758-.997 1.107-1.5.33-.475.538-1.019.489-1.593-.1-1.2-.868-1.592-2.044-1.552a3.153 3.153 0 00-1.466.444c-.26.15-.359.08-.469-.182-.428-1.048-.409-1.108.638-1.481a5.2 5.2 0 011.915-.353zM17.867 17.207c-.01.726-.608 1.3-1.326 1.28-.698-.02-1.296-.685-1.267-1.41.02-.696.599-1.22 1.337-1.2.727.02 1.266.595 1.256 1.33z" fill="#E04E39"/><path d="M17.039 1.025c3.19 0 6.381-.01 9.572 0 3.15.01 5.763 2.277 6.272 5.411.18 1.139.1 2.287.1 3.436.01 2.418.01 4.827 0 7.245-.02 3.154-2.085 5.703-5.106 6.378-.837.182-1.685.142-2.532.142-2.672.01-5.355 0-8.027 0-.14 0-.27 0-.409-.01a.997.997 0 01-.877-.998.956.956 0 01.967-.957c1.057-.02 2.114-.01 3.17-.01 2.135 0 4.268.01 6.392 0a4.41 4.41 0 004.328-3.487c.08-.373.08-.756.08-1.139 0-3.133-.05-6.267.02-9.39.059-2.59-2.005-4.656-4.617-4.636-6.312.03-12.633 0-18.945 0-2.463 0-4.377 1.915-4.387 4.403-.02 3.255-.02 6.51-.01 9.765.01 2.529 1.845 4.403 4.387 4.473.878.02 1.765.071 2.632-.01.888-.09 1.446.323 1.975.938 1.186 1.37 2.393 2.71 3.59 4.07.268.313.508.414.877.131.438-.322 1.007-.191 1.326.242.319.424.249.968-.19 1.35-1.047.928-2.443.817-3.38-.261-1.226-1.391-2.463-2.782-3.68-4.182-.189-.222-.388-.292-.667-.292-1.147-.02-2.293.08-3.44-.081-2.822-.393-5.135-2.832-5.364-5.693-.17-2.207-.06-4.424-.07-6.64-.01-1.502-.06-3.003.06-4.495.229-2.71 2.542-5.22 5.214-5.602 1.516-.222 3.051-.08 4.577-.091 2.054-.02 4.108-.01 6.162-.01z" stroke="#fff" stroke-width=".5"/><path d="M16.88 4.42c1.695-.01 2.911.796 3.25 2.217.22.907.07 1.784-.389 2.61-.358.645-.827 1.21-1.286 1.763-.698.857-1.136 1.794-1.067 2.933.03.383-.14.534-.498.503-.06-.01-.12 0-.18 0-1.037.01-1.176-.15-1.057-1.219.1-.967.479-1.824 1.057-2.59.38-.493.758-.997 1.107-1.5.33-.475.538-1.019.489-1.593-.1-1.2-.868-1.592-2.044-1.552a3.153 3.153 0 00-1.466.444c-.26.15-.359.08-.469-.182-.428-1.048-.409-1.108.638-1.481a5.2 5.2 0 011.915-.353zM17.867 17.207c-.01.726-.608 1.3-1.326 1.28-.698-.02-1.296-.685-1.267-1.41.02-.696.599-1.22 1.337-1.2.727.02 1.266.595 1.256 1.33z" stroke="#fff" stroke-width=".5"/></svg>