<?xml version="1.0" encoding="utf-8"?><svg width="40" height="40" fill="none" xmlns="http://www.w3.org/2000/svg" viewBox="0 0 40 40"><path d="M18.379 40c-1.163-.156-2.332-.29-3.468-.625-7.55-2.24-12.477-7.143-14.308-14.803C-1.04 17.7.7 11.532 5.503 6.306 8.357 3.203 11.906 1.237 16.031.418 21.174-.6 26.037.235 30.528 2.982c3.36 2.058 5.886 4.897 7.587 8.447a18.928 18.928 0 011.831 6.696c.006.08.032.161.054.242v3.329c-.118.792-.205 1.589-.366 2.375-.7 3.394-2.176 6.41-4.448 9.029-2.768 3.188-6.204 5.31-10.302 6.35-1.05.264-2.116.405-3.182.55h-3.323zm.942-2.758c9.322.474 17.89-6.857 17.97-17.151.07-9.152-7.146-17.238-17.226-17.308C11.017 2.718 2.934 9.856 2.8 19.886c-.124 9.281 7.227 17.022 16.521 17.356z" fill="#58595B"/><path d="M18.68 13.373c0-2.494.006-4.988-.005-7.487 0-.383.086-.55.501-.55.635 0 1.27.06 1.906-.01.329-.033.323.22.323.452v4.45c0 2.617.011 5.24-.01 7.859 0 .42.129.544.544.544 3.16-.016 6.316-.01 9.477-.01.63 0 .63.01.63.656 0 .539-.021 1.083.006 1.622.016.382-.119.5-.496.5-2.256-.015-4.518-.005-6.774-.01-1.858 0-3.716-.01-5.574.005-.42.006-.538-.124-.538-.544.021-2.483.01-4.983.01-7.477zM8.094 20.031c0 .345-.006.69 0 1.04.005.226-.097.323-.324.323-.689-.005-1.384-.005-2.073 0-.226 0-.328-.091-.323-.323.005-.69.005-1.384 0-2.074 0-.22.086-.312.318-.328.705-.049 1.405.053 2.11-.022.2-.021.297.102.292.312-.006.356 0 .717 0 1.072zM21.4 33.331c0 .302-.016.609.005.91.022.33-.08.48-.441.464a27.075 27.075 0 00-1.869 0c-.334.01-.43-.124-.425-.442.016-.62.016-1.244.005-1.87-.005-.285.07-.42.388-.43.678-.027 1.352.06 2.03-.016.194-.022.307.086.302.302 0 .366.005.727.005 1.082zM12.057 10.745c-.345 0-.69-.006-1.04 0-.231.005-.322-.097-.317-.323.005-.69.005-1.385 0-2.074 0-.232.097-.324.323-.318.69.005 1.384.005 2.073 0 .232 0 .323.097.318.323-.005.69-.005 1.384 0 2.074 0 .232-.097.323-.323.318-.345-.006-.69 0-1.034 0zM28.034 8.024c.318 0 .636.011.954-.005.274-.01.403.08.398.377-.01.663-.005 1.33 0 1.993 0 .237-.08.361-.334.356-.678-.006-1.357-.006-2.035 0-.237 0-.356-.081-.356-.334.011-.69.006-1.385 0-2.074 0-.237.113-.313.334-.313.35.006.695.006 1.04 0zM12.057 29.377c-.345 0-.69-.005-1.04 0-.226.006-.322-.097-.322-.323.005-.69.005-1.384.005-2.074 0-.226.097-.323.323-.323.69.006 1.384.006 2.073 0 .232 0 .323.102.318.323-.005.69-.005 1.385 0 2.074 0 .226-.097.323-.323.318-.345 0-.69.005-1.034.005zM27.986 29.383c-.334 0-.662-.006-.996 0-.226.005-.323-.097-.323-.323.005-.69.005-1.385 0-2.074 0-.227.091-.323.323-.323.689.005 1.384.005 2.073 0 .226 0 .328.091.323.323-.005.69-.005 1.384 0 2.073 0 .227-.091.33-.323.324-.36-.011-.716-.006-1.077 0 0-.006 0-.006 0 0z" fill="#58595B"/></svg>