<?xml version="1.0" encoding="utf-8"?><svg width="38" height="38" fill="none" xmlns="http://www.w3.org/2000/svg" viewBox="0 0 38 38"><path d="M1.003 9.455c.265-.973.792-1.738 1.726-2.181.41-.194.839-.292 1.288-.292 5.386 0 10.77 0 16.155-.006a.73.73 0 01.557.235c2.339 2.346 4.68 4.69 7.029 7.027.181.182.244.372.244.625-.006 6.357-.003 12.714-.006 19.075 0 1.428-.813 2.532-2.179 2.976-.077.023-.151.056-.229.086H3.387c-.301-.122-.61-.211-.896-.372-.798-.452-1.235-1.167-1.491-2.015.003-8.387.003-16.774.003-25.158zm1.547 12.58c0 3.968-.003 7.938 0 11.905 0 1.007.51 1.51 1.515 1.51 6.942.002 13.882.002 20.824 0 1.024 0 1.541-.513 1.541-1.53.003-5.76 0-11.521 0-17.28 0-.58-.006-.58-.577-.58-1.744 0-3.488.006-5.231-.003-1.095-.006-1.652-.569-1.655-1.64-.003-1.78 0-3.56 0-5.34 0-.52 0-.523-.514-.526h-8.5c-1.978 0-3.957-.003-5.933.003-.803.003-1.377.476-1.455 1.187-.024.208-.015.42-.015.631v11.664zM20.571 9.349c-.009.042-.027.075-.027.107-.003 1.578 0 3.158-.009 4.736-.003.294.17.306.39.306 1.509-.003 3.018-.003 4.526-.006.087 0 .188.039.238-.027a2729.957 2729.957 0 01-5.118-5.116z" fill="#E04E39"/><path d="M20.22 2.571c-2.386 0-4.776-.003-7.162 0-1.009 0-1.509.506-1.515 1.512-.003.387-.003.774-.003 1.158 0 .2-.083.3-.294.298a35.997 35.997 0 00-.982 0c-.185.003-.286-.069-.283-.268.006-.563-.036-1.128.024-1.685.151-1.416 1.455-2.574 2.886-2.577 3.488-.009 6.975-.003 10.463-.006 1.92 0 3.838.003 5.758-.003.265 0 .461.074.651.265 2.321 2.33 4.648 4.658 6.978 6.979.179.179.274.363.256.62-.017.243-.02.493 0 .737.03.334-.092.45-.434.447-1.333-.015-2.67-.006-4.002-.006-1.018 0-2.036.003-3.056-.003-.982-.006-1.539-.569-1.542-1.557-.003-1.792 0-3.583 0-5.372 0-.527 0-.53-.509-.53-2.41-.009-4.82-.006-7.234-.009zm14.51 5.9l-2.41-2.447c-.822-.834-1.643-1.664-2.464-2.494-.072-.072-.143-.182-.256-.155-.098.024-.066.14-.066.214-.003 1.521 0 3.039-.006 4.56 0 .25.116.324.346.321.407-.009.818 0 1.226 0h3.63zM36.994 23.83c0 1.393.003 2.786 0 4.179a3.025 3.025 0 01-3.041 3.03c-1.357 0-2.714-.006-4.071.009-.336.003-.444-.116-.44-.45 0-1.134-.012-1.13 1.121-1.128 1.078.003 2.152.003 3.229 0 1.134 0 1.637-.497 1.637-1.622.003-2.762 0-5.524 0-8.285 0-.569.003-.569.55-.569 1.015-.003 1.015-.003 1.015 1.012v3.824zM36.994 14.545c0 .387-.01.77.003 1.157.008.25-.08.372-.34.364-.303-.01-.607-.006-.91-.003-.218 0-.322-.102-.322-.319.003-.83.003-1.658.003-2.488 0-.184.08-.286.271-.283.34 0 .679.003 1.015 0 .211 0 .28.116.277.313-.003.416 0 .836.003 1.259zM14.456 20.56h-6.99c-.503 0-.506-.006-.506-.512 0-1.05 0-1.054 1.048-1.054h13.524c.485 0 .491.009.491.488 0 .212-.018.423.003.631.03.334-.098.453-.437.45-1.205-.015-2.414-.003-3.619-.003H14.46c-.003.003-.003 0-.003 0zM13.016 29.556H7.505c-.539 0-.539-.005-.545-.547-.009-1.027-.009-1.024 1.012-1.02 3.511.002 7.022 0 10.534.002.5 0 .5 0 .5.506 0 .211-.015.423.003.63.03.316-.084.438-.414.436-1.857-.015-3.716-.01-5.58-.006zM11.5 14.494h4.033c.497 0 .5.003.503.512 0 .223-.006.443.003.667.015.285-.116.395-.396.392-.982-.006-1.964 0-2.946 0l-5.261-.003c-.464 0-.473-.009-.476-.467 0-.235.012-.467-.006-.702-.024-.307.104-.408.408-.405 1.38.012 2.761.006 4.139.006zM17.48 25.06H13.58c-.627 0-.627.003-.633-.61-.003-.2.008-.4 0-.599-.015-.27.1-.369.374-.366 1.03.01 2.063.003 3.092.003 1.72 0 3.443.009 5.163-.006.36-.003.488.116.452.465-.02.22-.02.446 0 .666.033.336-.098.453-.437.447-1.369-.015-2.74-.006-4.11-.006l-.002.006zM8.46 25.053c-.387 0-.77-.002-1.157.003-.23.003-.351-.08-.343-.327.01-.315.01-.63.003-.946-.003-.206.09-.295.295-.295.818.003 1.637.006 2.452 0 .23-.003.31.104.303.322-.008.303-.008.607 0 .91.01.241-.095.34-.33.337-.404-.006-.815-.003-1.223-.003z" fill="#E04E39"/><path d="M1.003 9.455c.265-.973.792-1.738 1.726-2.181.41-.194.839-.292 1.288-.292 5.386 0 10.77 0 16.155-.006a.73.73 0 01.557.235c2.339 2.346 4.68 4.69 7.029 7.027.181.182.244.372.244.625-.006 6.357-.003 12.714-.006 19.075 0 1.428-.813 2.532-2.179 2.976-.077.023-.151.056-.229.086H3.387c-.301-.122-.61-.211-.896-.372-.798-.452-1.235-1.167-1.491-2.015.003-8.387.003-16.774.003-25.158zm1.547 12.58c0 3.968-.003 7.938 0 11.905 0 1.007.51 1.51 1.515 1.51 6.942.002 13.882.002 20.824 0 1.024 0 1.541-.513 1.541-1.53.003-5.76 0-11.521 0-17.28 0-.58-.006-.58-.577-.58-1.744 0-3.488.006-5.231-.003-1.095-.006-1.652-.569-1.655-1.64-.003-1.78 0-3.56 0-5.34 0-.52 0-.523-.514-.526h-8.5c-1.978 0-3.957-.003-5.933.003-.803.003-1.377.476-1.455 1.187-.024.208-.015.42-.015.631v11.664zM20.571 9.349c-.009.042-.027.075-.027.107-.003 1.578 0 3.158-.009 4.736-.003.294.17.306.39.306 1.509-.003 3.018-.003 4.526-.006.087 0 .188.039.238-.027a2729.957 2729.957 0 01-5.118-5.116z" stroke="#E04E39" stroke-width=".5"/><path d="M20.22 2.571c-2.386 0-4.776-.003-7.162 0-1.009 0-1.509.506-1.515 1.512-.003.387-.003.774-.003 1.158 0 .2-.083.3-.294.298a35.997 35.997 0 00-.982 0c-.185.003-.286-.069-.283-.268.006-.563-.036-1.128.024-1.685.151-1.416 1.455-2.574 2.886-2.577 3.488-.009 6.975-.003 10.463-.006 1.92 0 3.838.003 5.758-.003.265 0 .461.074.651.265 2.321 2.33 4.648 4.658 6.978 6.979.179.179.274.363.256.62-.017.243-.02.493 0 .737.03.334-.092.45-.434.447-1.333-.015-2.67-.006-4.002-.006-1.018 0-2.036.003-3.056-.003-.982-.006-1.539-.569-1.542-1.557-.003-1.792 0-3.583 0-5.372 0-.527 0-.53-.509-.53-2.41-.009-4.82-.006-7.234-.009zm14.51 5.9l-2.41-2.447c-.822-.834-1.643-1.664-2.464-2.494-.072-.072-.143-.182-.256-.155-.098.024-.066.14-.066.214-.003 1.521 0 3.039-.006 4.56 0 .25.116.324.346.321.407-.009.818 0 1.226 0h3.63zM36.994 23.83c0 1.393.003 2.786 0 4.179a3.025 3.025 0 01-3.041 3.03c-1.357 0-2.714-.006-4.071.009-.336.003-.444-.116-.44-.45 0-1.134-.012-1.13 1.121-1.128 1.078.003 2.152.003 3.229 0 1.134 0 1.637-.497 1.637-1.622.003-2.762 0-5.524 0-8.285 0-.569.003-.569.55-.569 1.015-.003 1.015-.003 1.015 1.012v3.824zM36.994 14.545c0 .387-.01.77.003 1.157.008.25-.08.372-.34.364-.303-.01-.607-.006-.91-.003-.218 0-.322-.102-.322-.319.003-.83.003-1.658.003-2.488 0-.184.08-.286.271-.283.34 0 .679.003 1.015 0 .211 0 .28.116.277.313-.003.416 0 .836.003 1.259zM14.456 20.56h-6.99c-.503 0-.506-.006-.506-.512 0-1.05 0-1.054 1.048-1.054h13.524c.485 0 .491.009.491.488 0 .212-.018.423.003.631.03.334-.098.453-.437.45-1.205-.015-2.414-.003-3.619-.003H14.46c-.003.003-.003 0-.003 0zM13.016 29.556H7.505c-.539 0-.539-.005-.545-.547-.009-1.027-.009-1.024 1.012-1.02 3.511.002 7.022 0 10.534.002.5 0 .5 0 .5.506 0 .211-.015.423.003.63.03.316-.084.438-.414.436-1.857-.015-3.716-.01-5.58-.006zM11.5 14.494h4.033c.497 0 .5.003.503.512 0 .223-.006.443.003.667.015.285-.116.395-.396.392-.982-.006-1.964 0-2.946 0l-5.261-.003c-.464 0-.473-.009-.476-.467 0-.235.012-.467-.006-.702-.024-.307.104-.408.408-.405 1.38.012 2.761.006 4.139.006zM17.48 25.06H13.58c-.627 0-.627.003-.633-.61-.003-.2.008-.4 0-.599-.015-.27.1-.369.374-.366 1.03.01 2.063.003 3.092.003 1.72 0 3.443.009 5.163-.006.36-.003.488.116.452.465-.02.22-.02.446 0 .666.033.336-.098.453-.437.447-1.369-.015-2.74-.006-4.11-.006l-.002.006zM8.46 25.053c-.387 0-.77-.002-1.157.003-.23.003-.351-.08-.343-.327.01-.315.01-.63.003-.946-.003-.206.09-.295.295-.295.818.003 1.637.006 2.452 0 .23-.003.31.104.303.322-.008.303-.008.607 0 .91.01.241-.095.34-.33.337-.404-.006-.815-.003-1.223-.003z" stroke="#E04E39" stroke-width=".5"/></svg>