<?xml version="1.0" encoding="utf-8"?><svg width="31" height="31" fill="none" xmlns="http://www.w3.org/2000/svg" viewBox="0 0 31 31"><path d="M30.998 1.667a1.4 1.4 0 01-.348.92c-.091.11-.198.213-.301.316C21.172 12.062 11.99 21.217 2.818 30.38c-.412.41-.852.695-1.457.569-.626-.127-1.045-.51-1.255-1.095-.206-.576-.08-1.101.348-1.548l.166-.166C9.813 18.97 19.01 9.8 28.203.624c.265-.264.543-.505.927-.576.966-.174 1.876.616 1.868 1.619zM30.998 23.196c.091 4.02-3.274 7.772-7.708 7.804-4.363.031-7.669-3.618-7.823-7.437-.178-4.416 3.385-8.065 7.621-8.14 4.47-.079 7.982 3.65 7.91 7.773zm-7.795 4.64c2.577.004 4.656-2.046 4.664-4.597a4.627 4.627 0 00-4.629-4.637 4.629 4.629 0 00-4.667 4.601c-.016 2.694 2.316 4.716 4.632 4.633zM7.719 15.522c-3.86.158-7.906-3.37-7.712-8.081C.165 3.527 3.467.024 7.719.001c4.41-.028 7.898 3.66 7.815 7.942-.083 4.285-3.805 7.752-7.815 7.579zm.051-3.124c2.336.07 4.62-1.932 4.617-4.613-.004-2.733-2.305-4.677-4.636-4.633-2.526.047-4.6 2.077-4.6 4.601a4.622 4.622 0 004.62 4.645z" fill="#58595B"/></svg>