<?xml version="1.0" encoding="utf-8"?><svg width="38" height="38" fill="none" xmlns="http://www.w3.org/2000/svg" viewBox="0 0 38 38"><path d="M1 2.08C1.287 1.286 1.863 1 2.69 1c7.424.013 14.851.007 22.275.007 1.474 0 2.655.954 2.985 2.388.047.195.05.394.05.593 0 9.285.004 18.574 0 27.858 0 .813.024 1.616.362 2.375.047.108.098.212.152.317.303.614.684 1.012 1.484.93.88-.09 1.777-.01 2.668-.03 1.457-.033 2.739-1.301 2.752-2.758.024-2.341.01-4.685.01-7.026 0-.688 0-.695.692-.684 1.015.017.873-.135.877.873.006 2.189.003 4.381.003 6.57 0 2.33-1.305 3.98-3.579 4.53-.057.013-.108.037-.165.057H6.13c-.111-.03-.222-.068-.337-.091-2.054-.472-3.505-1.676-4.365-3.599-.205-.462-.28-.96-.428-1.44V2.08zm25.436 16.198c-.004-.701-.004-1.406-.004-2.108 0-4.027.004-8.057 0-12.084 0-.998-.512-1.511-1.48-1.511-7.286 0-14.568 0-21.854-.003-.553 0-.553 0-.553.566 0 9.238 0 18.48.003 27.717 0 .293-.003.59.044.873.395 2.28 2.132 3.724 4.452 3.72 2.999-.003 5.998 0 8.993 0h10.611c.506 0 .51-.006.31-.489a7.02 7.02 0 01-.522-2.704V18.278z" fill="#E04E39"/><path d="M32.787 12.966c.466.034 1.029-.033 1.589.048 1.329.199 2.368 1.19 2.594 2.509.08.469.023.54-.449.543-.094 0-.189 0-.28-.004-.222-.006-.459.027-.66-.04-.26-.084-.153-.388-.23-.587-.22-.553-.702-.887-1.42-.897a74.163 74.163 0 00-2.6 0c-.314.007-.422-.108-.406-.408.017-.27.007-.54 0-.806-.006-.253.105-.364.358-.361.472.01.941.003 1.504.003zM36.997 20.521c0 .408-.004.816 0 1.228.003.206-.085.3-.29.3a47.234 47.234 0 00-.982 0c-.212.003-.293-.105-.293-.3 0-.816.003-1.636 0-2.452 0-.2.084-.3.296-.297.328.007.655.007.982 0 .212-.003.29.094.287.3-.004.401 0 .81 0 1.221zM14.506 5.503c2.857 0 5.71.003 8.567-.007.34 0 .442.108.439.442-.014 1.72-.004 3.44-.007 5.16 0 .458-.007.465-.48.469-4.364.003-8.728 0-13.096.003H5.996c-.51 0-.52-.007-.52-.5V6.05c0-.546.004-.546.53-.546h8.5zm-.017 4.495h6.989c.455 0 .458-.003.458-.472.004-.644.004-1.288.004-1.932 0-.52 0-.523-.526-.523-4.659 0-9.317.003-13.975-.004-.283 0-.401.081-.394.378.013.715.017 1.427-.004 2.142-.01.324.105.418.425.415 2.341-.01 4.682-.004 7.023-.004zM14.51 23.492h8.53c.462 0 .462.004.465.473 0 .222-.017.445.003.667.037.351-.121.435-.448.435-5.687-.006-11.374-.006-17.061-.006-.523 0-.523-.004-.523-.53 0-.189 0-.374.004-.563.003-.472.003-.472.462-.472 1.686 0 3.37-.004 5.056-.004 1.17-.003 2.34-.003 3.511 0zM14.512 27.988c2.854 0 5.71.007 8.564-.006.344 0 .462.117.432.445-.02.219 0 .445-.003.667-.004.439-.024.462-.452.462-.972.004-1.943 0-2.915 0-4.62 0-9.245.004-13.866 0-.924 0-.796.065-.796-.782 0-.9-.115-.782.783-.786 2.752-.006 5.504 0 8.253 0zM5.476 17.54c0-.867.01-1.734-.007-2.597-.007-.327.084-.456.432-.452 1.744.013 3.488.013 5.231.003.304-.003.415.095.412.402-.01 1.743-.007 3.487.003 5.23 0 .307-.098.446-.425.442-1.754-.01-3.511-.01-5.265-.003-.287 0-.388-.105-.384-.391.013-.88.006-1.757.003-2.634zm4.496.006c.003 0 .003 0 0 0 .003-.384-.003-.772.003-1.156.007-.22-.07-.324-.3-.324-.772.003-1.545.003-2.314-.004-.222 0-.317.095-.317.317.004.773.004 1.545.004 2.314 0 .2.07.304.286.3a135.47 135.47 0 012.351 0c.21 0 .297-.08.29-.29-.006-.384-.003-.772-.003-1.157zM18.995 14.498c1.36 0 2.718.01 4.074-.007.338-.004.473.1.442.438-.02.243-.02.493-.003.739.027.32-.122.401-.415.398a1656.09 1656.09 0 00-8.22 0c-.304 0-.408-.101-.408-.408-.004-1.16-.014-1.164 1.157-1.164 1.123 0 2.246.004 3.373.004zM18.992 20.561c-1.356 0-2.712-.01-4.068.007-.358.004-.49-.121-.452-.469.024-.219.02-.445 0-.664-.03-.334.09-.448.432-.445 1.625.013 3.251.007 4.874.007 1.11 0 2.222.01 3.332-.004.31-.003.425.101.398.408-.017.21-.003.422-.003.631 0 .53 0 .533-.516.533-1.333-.004-2.665-.004-3.997-.004z" fill="#E04E39"/><path d="M9.972 17.546c.003 0 .003 0 0 0zm0 0c.003-.384-.003-.772.003-1.156.007-.22-.07-.324-.3-.324-.772.003-1.545.003-2.314-.004-.222 0-.317.095-.317.317.004.773.004 1.545.004 2.314 0 .2.07.304.286.3a135.47 135.47 0 012.351 0c.21 0 .297-.08.29-.29-.006-.384-.003-.772-.003-1.157zM1 2.08C1.287 1.287 1.863 1 2.69 1c7.424.013 14.851.007 22.275.007 1.474 0 2.655.954 2.985 2.388.047.195.05.394.05.593 0 9.285.004 18.574 0 27.858 0 .813.024 1.616.362 2.375.047.108.098.212.152.317.303.614.684 1.012 1.484.93.88-.09 1.777-.01 2.668-.03 1.457-.033 2.739-1.301 2.752-2.758.024-2.341.01-4.685.01-7.026 0-.688 0-.695.692-.684 1.015.017.873-.135.877.873.006 2.189.003 4.381.003 6.57 0 2.33-1.305 3.98-3.579 4.53-.057.013-.108.037-.165.057H6.13c-.111-.03-.222-.068-.337-.091-2.054-.472-3.505-1.676-4.365-3.599-.205-.462-.28-.96-.428-1.44V2.08zm25.436 16.2c-.004-.702-.004-1.407-.004-2.109 0-4.027.004-8.057 0-12.084 0-.998-.512-1.511-1.48-1.511-7.286 0-14.568 0-21.854-.003-.553 0-.553 0-.553.566 0 9.238 0 18.48.003 27.717 0 .293-.003.59.044.873.395 2.28 2.132 3.724 4.452 3.72 2.999-.003 5.998 0 8.993 0h10.611c.506 0 .51-.006.31-.489a7.02 7.02 0 01-.522-2.704V18.278zm6.351-5.313c.466.034 1.029-.033 1.589.048 1.329.199 2.368 1.19 2.594 2.509.08.469.023.54-.449.543-.094 0-.189 0-.28-.004-.222-.006-.459.027-.66-.04-.26-.084-.153-.388-.23-.587-.22-.553-.702-.887-1.42-.897a74.163 74.163 0 00-2.6 0c-.314.007-.422-.108-.406-.408.017-.27.007-.54 0-.806-.006-.253.105-.364.358-.361.472.01.941.003 1.504.003zm4.21 7.555c0 .408-.004.816 0 1.228.003.206-.085.3-.29.3a47.234 47.234 0 00-.982 0c-.212.003-.293-.105-.293-.3 0-.816.003-1.636 0-2.452 0-.2.084-.3.296-.297.328.007.655.007.982 0 .212-.003.29.094.287.3-.004.401 0 .81 0 1.221zM14.506 5.503c2.857 0 5.71.003 8.567-.007.34 0 .442.108.439.442-.014 1.72-.004 3.44-.007 5.16 0 .458-.007.465-.48.469-4.364.003-8.728 0-13.096.003H5.996c-.51 0-.52-.007-.52-.5V6.05c0-.546.004-.546.53-.546h8.5zm-.017 4.495h6.989c.455 0 .458-.003.458-.472.004-.644.004-1.288.004-1.932 0-.52 0-.523-.526-.523-4.659 0-9.317.003-13.975-.004-.283 0-.401.081-.394.378.013.715.017 1.427-.004 2.142-.01.324.105.418.425.415 2.341-.01 4.682-.004 7.023-.004zm.02 13.494h8.53c.462 0 .462.004.466.473 0 .222-.017.445.003.667.037.351-.121.435-.448.435-5.687-.006-11.374-.006-17.061-.006-.523 0-.523-.004-.523-.53 0-.189 0-.374.004-.563.003-.472.003-.472.462-.472 1.686 0 3.37-.004 5.056-.004 1.17-.003 2.34-.003 3.511 0zm.003 4.496c2.854 0 5.71.007 8.564-.006.344 0 .462.117.432.445-.02.219 0 .445-.003.667-.004.439-.024.462-.452.462-.972.004-1.943 0-2.915 0-4.62 0-9.245.004-13.866 0-.924 0-.796.065-.796-.782 0-.9-.115-.782.783-.786 2.752-.006 5.504 0 8.253 0zM5.476 17.54c0-.867.01-1.734-.007-2.597-.007-.327.084-.456.432-.452 1.744.013 3.488.013 5.231.003.304-.003.415.095.412.402-.01 1.743-.007 3.487.003 5.23 0 .307-.098.446-.425.442-1.754-.01-3.511-.01-5.265-.003-.287 0-.388-.105-.384-.391.013-.88.006-1.757.003-2.634zm13.519-3.042c1.36 0 2.718.01 4.074-.007.338-.004.473.1.442.438-.02.243-.02.493-.003.739.027.32-.122.401-.415.398a1656.09 1656.09 0 00-8.22 0c-.304 0-.408-.101-.408-.408-.004-1.16-.014-1.164 1.157-1.164 1.123 0 2.246.004 3.373.004zm-.003 6.063c-1.356 0-2.712-.01-4.068.007-.358.004-.49-.121-.452-.469.024-.219.02-.445 0-.664-.03-.334.09-.448.432-.445 1.625.013 3.251.007 4.874.007 1.11 0 2.222.01 3.332-.004.31-.003.425.101.398.408-.017.21-.003.422-.003.631 0 .53 0 .533-.516.533-1.333-.004-2.665-.004-3.997-.004z" stroke="#E04E39" stroke-width=".5"/></svg>