<?xml version="1.0" encoding="utf-8"?><svg width="38" height="28" fill="none" xmlns="http://www.w3.org/2000/svg" viewBox="0 0 38 28"><path d="M37.983 13.994c-.145 5.274-2.487 9.293-6.932 12.055-2.26 1.402-4.751 2.027-7.41 1.944a13.405 13.405 0 01-4.33-.865.966.966 0 00-.695 0c-5.456 1.87-10.259.703-14.403-3.242-2.171-2.07-3.518-4.633-4.01-7.604-.659-3.987.295-7.593 2.76-10.767C5.27 2.549 8.286.725 12 .152c2.217-.344 4.398-.1 6.507.688.316.12.586.11.902.005C24.735-.911 29.486.11 33.605 3.92c2.55 2.36 3.969 5.331 4.373 8.787.047.422.005.854.005 1.287zm-35.45-.015C2.462 20.33 7.327 25.355 13.602 25.47c6.486.125 11.502-4.654 11.693-11.054.208-6.942-4.984-11.69-10.999-11.872-6.782-.198-11.86 5.071-11.761 11.434zM22.073 2.747c3.637 2.908 5.73 6.598 5.735 11.252.006 4.665-2.088 8.365-5.714 11.257 3.186.704 7.994-.203 10.984-4.018 3.046-3.882 3.29-9.542.538-13.706-2.725-4.138-7.466-5.535-11.543-4.785z" fill="#58595B"/></svg>