<?xml version="1.0" encoding="utf-8"?><svg width="20" height="20" fill="none" xmlns="http://www.w3.org/2000/svg" viewBox="0 0 20 20"><path d="M4.988 19.994H.342c-.336 0-.342-.006-.342-.337V17c.012-2.578 1.787-4.64 4.34-4.988 1.65-.224 3.063.305 4.24 1.482.237.237.23.237.474-.006l4.29-4.29c.236-.237.236-.237.48.006.335.336.665.679 1.008 1.002.15.144.143.23 0 .374-1.607 1.594-3.2 3.2-4.807 4.795-.143.143-.206.267-.15.467.119.454.15.915.144 1.388-.007.822-.007 1.65 0 2.472 0 .224-.075.293-.293.293H4.988zm.037-2.061h2.708c.113 0 .25.025.25-.162-.007-.498.043-.997-.075-1.488-.324-1.389-1.476-2.28-2.945-2.267-1.376.013-2.503.903-2.821 2.217-.112.46-.056.928-.081 1.395-.012.23.056.31.299.31.89-.018 1.775-.005 2.665-.005zM10 0h9.639C20 0 20 0 20 .367V1.72c0 .342 0 .342-.355.342H.361C0 2.061 0 2.061 0 1.694V.342C0 0 0 0 .355 0H10zM2.005 8.001c.006-1.718 1.32-3.02 3.051-3.013a2.987 2.987 0 012.99 3.032 3 3 0 01-3.02 3.007 2.985 2.985 0 01-3.02-3.026zm3.014.965c.598 0 .959-.36.953-.958 0-.586-.38-.978-.953-.978s-.99.41-.984.984c.013.573.399.946.984.952zM14.993 6.04h-4.689c-.324 0-.324 0-.324-.324 0-.492.007-.977 0-1.47 0-.174.05-.248.237-.248 3.182.006 6.364.006 9.546 0 .193 0 .236.08.236.255-.006.492 0 .977 0 1.47 0 .31-.006.317-.311.317h-4.695zM17.963 10.012c-.585 0-1.164-.006-1.75 0-.187 0-.261-.05-.261-.249.012-.51.012-1.027 0-1.538-.007-.193.068-.255.255-.255 1.17.006 2.348.006 3.518 0 .187 0 .268.056.268.255-.006.511-.006 1.028 0 1.538.006.193-.075.256-.262.25-.585-.007-1.177 0-1.768 0z" fill="#E04E39"/></svg>