<?xml version="1.0" encoding="utf-8"?><svg width="38" height="38" fill="none" xmlns="http://www.w3.org/2000/svg" viewBox="0 0 38 38"><path d="M30.931 36.994c0-.363.016-.725-.01-1.088-.021-.353.12-.457.466-.475 1.517-.082 2.724-.722 3.477-2.08.35-.63.55-1.315.55-2.047.007-2.645.007-5.29.007-7.934 0-.078.028-.163-.056-.244-.204.19-.398.388-.607.569-1.12.96-2.448 1.344-3.893 1.354-2.35.015-4.705.012-7.056-.003-.41-.004-.632.103-.826.5-1.313 2.685-4.85 3.335-7.047 1.313a3.868 3.868 0 01-1.023-1.454c-.109-.281-.278-.353-.56-.353-2.435.01-4.867.015-7.303 0-1.435-.01-2.745-.416-3.855-1.366-.203-.175-.39-.366-.591-.554-.097.091-.053.203-.053.3-.003 2.564-.016 5.127 0 7.69.015 2.436 1.9 4.318 4.333 4.324 4.775.013 9.552.003 14.326.003.941 0 .788-.053.807.813.006.247-.01.491-.012.738H6.127c-.113-.031-.222-.066-.335-.09-2.054-.473-3.505-1.676-4.362-3.599-.206-.462-.284-.96-.431-1.438V15.154c.04-.16.088-.315.122-.475.566-2.648 3.026-4.655 5.734-4.67.926-.007 1.851-.007 2.773 0 .222 0 .341-.047.35-.307.11-2.676 1.204-4.88 3.243-6.599 1.923-1.616 4.17-2.3 6.66-2.054 2.438.24 4.461 1.344 6.037 3.223 1.273 1.52 1.964 3.28 2.07 5.262.025.468.012.465.5.468 1.066.007 2.142-.078 3.192.041 3.168.357 5.347 3.12 5.319 6.071-.047 4.914-.022 9.832-.01 14.75.007 2.025-.872 3.598-2.404 4.851-.825.672-1.792 1.044-2.817 1.282a74.91 74.91 0 00-.838-.003zm-3.224-13.505c1.123-.044 2.48.075 3.837-.06 2.163-.215 3.842-2.022 3.877-4.198.019-1.17.015-2.342-.003-3.51-.038-2.208-1.942-4.115-4.156-4.143-1.941-.025-3.886-.01-5.828-.01-6.18 0-12.36-.006-18.54.004-2.433.003-4.315 1.897-4.337 4.323-.01 1.135-.025 2.273.01 3.405.037 1.269.572 2.325 1.54 3.15.892.76 1.952 1.036 3.096 1.036 2.154.006 4.309 0 6.463 0 .732 0 .74 0 .85-.71.347-2.282 2.333-3.867 4.634-3.795 2.298.069 4.224 1.844 4.35 4.136.015.294.118.375.4.375 1.184-.01 2.379-.003 3.808-.003zm-8.735-13.49c2.35 0 4.702-.006 7.053.007.341.003.438-.125.4-.435-.03-.256-.034-.513-.078-.766-.397-2.304-1.57-4.11-3.61-5.249-2.49-1.385-5.057-1.39-7.533.022-2.264 1.294-3.445 3.333-3.649 5.927-.037.488-.015.494.47.494 2.316.003 4.63 0 6.947 0zm.015 16.45c1.71-.015 2.955-1.294 2.949-3.03-.01-1.6-1.35-2.875-3.014-2.86-1.604.016-2.89 1.338-2.88 2.964a2.908 2.908 0 002.945 2.926z" fill="#E04E39"/><path d="M24.959 36.994c-.004-.397 0-.79-.016-1.188-.01-.247.081-.362.34-.362.792.006 1.586.006 2.377 0 .228 0 .347.078.34.325-.015.406-.015.816-.021 1.222-1.007.003-2.014.003-3.02.003z" fill="#E04E39"/><path d="M30.931 36.994c0-.363.016-.725-.01-1.088-.021-.353.12-.457.466-.475 1.517-.082 2.724-.722 3.477-2.08.35-.63.55-1.315.55-2.047.007-2.645.007-5.29.007-7.934 0-.078.028-.163-.056-.244-.204.19-.398.388-.607.569-1.12.96-2.448 1.344-3.893 1.354-2.35.015-4.705.012-7.056-.003-.41-.004-.632.103-.826.5-1.313 2.685-4.85 3.335-7.047 1.313a3.868 3.868 0 01-1.023-1.454c-.109-.281-.278-.353-.56-.353-2.435.01-4.867.015-7.303 0-1.435-.01-2.745-.416-3.855-1.366-.203-.175-.39-.366-.591-.554-.097.091-.053.203-.053.3-.003 2.564-.016 5.127 0 7.69.015 2.436 1.9 4.318 4.333 4.324 4.775.013 9.552.003 14.326.003.941 0 .788-.053.807.813.006.247-.01.491-.012.738H6.127c-.113-.031-.222-.066-.335-.09-2.054-.473-3.505-1.676-4.362-3.599-.206-.462-.284-.96-.431-1.438V15.154c.04-.16.088-.315.122-.475.566-2.648 3.026-4.655 5.734-4.67.926-.007 1.851-.007 2.773 0 .222 0 .341-.047.35-.307.11-2.676 1.204-4.88 3.243-6.599 1.923-1.616 4.17-2.3 6.66-2.054 2.438.24 4.461 1.344 6.037 3.223 1.273 1.52 1.964 3.28 2.07 5.262.025.468.012.465.5.468 1.066.007 2.142-.078 3.192.041 3.168.357 5.347 3.12 5.319 6.071-.047 4.914-.022 9.832-.01 14.75.007 2.025-.872 3.598-2.404 4.851-.825.672-1.792 1.044-2.817 1.282a74.91 74.91 0 00-.838-.003zm-3.224-13.505c1.123-.044 2.48.075 3.837-.06 2.163-.215 3.842-2.022 3.877-4.198.019-1.17.015-2.342-.003-3.51-.038-2.208-1.942-4.115-4.156-4.143-1.941-.025-3.886-.01-5.828-.01-6.18 0-12.36-.006-18.54.004-2.433.003-4.315 1.897-4.337 4.323-.01 1.135-.025 2.273.01 3.405.037 1.269.572 2.325 1.54 3.15.892.76 1.952 1.036 3.096 1.036 2.154.006 4.309 0 6.463 0 .732 0 .74 0 .85-.71.347-2.282 2.333-3.867 4.634-3.795 2.298.069 4.224 1.844 4.35 4.136.015.294.118.375.4.375 1.184-.01 2.379-.003 3.808-.003zm-8.735-13.49c2.35 0 4.702-.006 7.053.007.341.003.438-.125.4-.435-.03-.256-.034-.513-.078-.766-.397-2.304-1.57-4.11-3.61-5.249-2.49-1.385-5.057-1.39-7.533.022-2.264 1.294-3.445 3.333-3.649 5.927-.037.488-.015.494.47.494 2.316.003 4.63 0 6.947 0zm.015 16.45c1.71-.015 2.955-1.294 2.949-3.03-.01-1.6-1.35-2.875-3.014-2.86-1.604.016-2.89 1.338-2.88 2.964a2.908 2.908 0 002.945 2.926z" stroke="#E04E39" stroke-width=".5"/><path d="M24.959 36.994c-.004-.397 0-.79-.016-1.188-.01-.247.081-.362.34-.362.792.006 1.586.006 2.377 0 .228 0 .347.078.34.325-.015.406-.015.816-.021 1.222-1.007.003-2.014.003-3.02.003z" stroke="#E04E39" stroke-width=".5"/></svg>