<?xml version="1.0" encoding="utf-8"?><svg width="22" height="21" fill="none" xmlns="http://www.w3.org/2000/svg" viewBox="0 0 22 21"><path d="M1 10.302l-.688-.725A1 1 0 001 11.302v-1zM10.804 1l.674-.739a1 1 0 00-1.362.014l.688.725zM21 10.302v1a1 1 0 00.674-1.739l-.674.74zm-2.157 0v-1a1 1 0 00-1 1h1zm0 9.698v1a1 1 0 001-1h-1zM2.961 20h-1a1 1 0 001 1v-1zm0-9.698h1a1 1 0 00-1-1v1zM15 1V0a1 1 0 00-1 1h1zm5 0h1a1 1 0 00-1-1v1zM1.688 11.027l9.804-9.302-1.376-1.45L.312 9.577l1.376 1.45zM10.13 1.74l10.196 9.302 1.348-1.478L11.478.261 10.13 1.74zM21 9.302h-2.157v2H21v-2zm-3.157 1V20h2v-9.698h-2zm1 8.698H2.961v2h15.882v-2zM3.961 20v-9.698h-2V20h2zm-1-10.698H1v2h1.96v-2zM16 4.306V1h-2v3.306h2zM15 2h5V0h-5v2zm4-1v8h2V1h-2z" fill="#E04E39"/></svg>