<?xml version="1.0" encoding="utf-8"?><svg width="20" height="17" fill="none" xmlns="http://www.w3.org/2000/svg" viewBox="0 0 20 17"><path d="M1 6h1-1zm1.5 0a1 1 0 100-2v2zM7 4a1 1 0 000 2V4zM1 4H0h1zm3-3V0v1zm1 0v1-1zm3 3H7h1zM4 14h12v-2H4v2zm14-8v2h2V6h-2zm0 2H2v2h16V8zM2 8V6H0v2h2zm0-2h.5V4H2v2zm5 0h11V4H7v2zM2 8H0a2 2 0 002 2V8zm16 0v2a2 2 0 002-2h-2zm2-2a2 2 0 00-2-2v2h2zM2 6V4a2 2 0 00-2 2h2zm0 0V4H0v2h2zm2-4h1V0H4v2zm3 2v2h2V4H7zM5 2a2 2 0 012 2h2a4 4 0 00-4-4v2zM2 4a2 2 0 012-2V0a4 4 0 00-4 4h2zm1 13V9H1v8h2zm16 0V9h-2v8h2z" fill="#E04E39"/></svg>