<?xml version="1.0" encoding="utf-8"?><svg width="20" height="20" fill="none" xmlns="http://www.w3.org/2000/svg" viewBox="0 0 20 20"><path d="M19.99 8.864c0-2.637-.015-5.275.01-7.917.006-.598-.524-1.165-1.273-.863-1.74.702-3.492 1.378-5.239 2.065a.56.56 0 01-.41.015C10.812 1.472 8.545.781 6.284.084c-.317-.1-.613-.11-.925.036C3.784.848 2.21 1.576.635 2.29c-.437.197-.634.498-.63.987.011 5.264.006 10.528.006 15.792 0 .38.135.671.478.843.255.13.515.104.77-.01l2.655-1.218c.619-.286 1.243-.567 1.861-.853a.375.375 0 01.28-.015c2.303.707 4.606 1.404 6.908 2.112.265.083.52.078.78-.026 1.876-.739 3.763-1.478 5.644-2.222.432-.171.598-.431.598-.9.005-2.637.005-5.274.005-7.916zm-1.7.317v6.882c0 .125-.005.224-.15.28-1.273.495-2.542.994-3.81 1.494-.124.052-.16.02-.156-.11a36.8 36.8 0 000-1.071.851.851 0 00-.857-.853c-.468 0-.837.38-.842.868-.005.364 0 .729 0 1.093 0 .239 0 .239-.224.171-1.756-.535-3.513-1.071-5.27-1.612-.286-.088-.286-.088-.286-.38v-5.888c0-.52-.38-.915-.868-.91-.483.005-.832.39-.832.915V16.125c0 .1.006.188-.114.24-1.019.463-2.032.93-3.046 1.399-.12.052-.135.005-.13-.094.006-.062 0-.13 0-.192 0-4.437.006-8.88-.01-13.316 0-.36.094-.53.431-.677 1.201-.52 2.391-1.081 3.582-1.633a.488.488 0 01.353-.041c2.079.64 4.158 1.274 6.237 1.903.14.042.182.11.182.25-.005.603-.005 1.207 0 1.815 0 .1 0 .193.026.292.114.4.494.67.9.624a.855.855 0 00.774-.838c.01-.629.01-1.258 0-1.893-.006-.187.067-.276.233-.338 1.222-.473 2.443-.957 3.665-1.436.218-.083.218-.083.218.156-.005 2.268-.005 4.552-.005 6.835z" fill="#E04E39"/><path d="M10.734 7.84c-.302.036-.562.155-.717.447-.172.317-.146.63.062.92.395.552.79 1.093 1.19 1.639.094.13.192.26.296.385.312.374.811.437 1.186.156a.84.84 0 00.176-1.18c-.488-.682-.987-1.353-1.486-2.03-.172-.223-.41-.322-.707-.338zM15.807 15.002a.835.835 0 00.81-.557c.125-.348.032-.738-.28-.962a19.382 19.382 0 01-1.892-1.555c-.333-.312-.847-.276-1.16.047-.31.322-.337.837-.02 1.165.629.65 1.33 1.217 2.08 1.721.17.115.285.141.462.141zM10.049 6.763a.773.773 0 00-.234-.598 6.83 6.83 0 00-2.266-1.582.875.875 0 00-1.17.448c-.177.447.031.925.51 1.128.618.26 1.153.64 1.621 1.124.24.25.52.385.873.312a.846.846 0 00.666-.832zM3.322 5c-.005.493.437.9.93.858.151-.01.297-.021.448-.026.52-.026.91-.417.878-.895-.031-.52-.447-.858-.988-.812-.192.016-.39.006-.582.042A.867.867 0 003.322 5z" fill="#E04E39"/></svg>