<?xml version="1.0" encoding="utf-8"?><svg width="40" height="40" fill="none" xmlns="http://www.w3.org/2000/svg" viewBox="0 0 40 40"><path d="M36.458 1c.876.267 1.626.716 2.099 1.538.277.479.443.988.443 1.553 0 8.507 0 17.013-.005 25.515 0 1.694-1.44 3.121-3.131 3.131-.433.005-.866-.005-1.3.005-.246.005-.362-.09-.352-.348.01-.322.01-.645 0-.963-.01-.257.106-.353.353-.348.382.01.765.005 1.148 0 1.072-.005 1.63-.554 1.63-1.628.006-4.196 0-8.396 0-12.591V4.494c0-.211.006-.423-.014-.63-.076-.726-.64-1.215-1.44-1.22-1.707-.01-3.414-.005-5.115-.005H8.003c-1.249 0-2.497-.005-3.746 0-1.102.005-1.62.52-1.62 1.613-.006 6.722 0 13.444 0 20.17V29.4c0 1.135.538 1.684 1.68 1.684H14.7c.564 0 .564 0 .564.545 0 1.11 0 1.114-1.103 1.114H4.408c-1.732 0-2.84-.822-3.353-2.475A1.164 1.164 0 001 30.125V3.526c.13-.317.227-.65.398-.958C1.88 1.731 2.63 1.278 3.522 1h32.936z" fill="#E04E39"/><path d="M18.354 32.243c0-2.007-.015-4.009.01-6.016.005-.453-.126-.776-.443-1.109-1.999-2.108-2.97-4.634-2.663-7.523.423-3.964 2.557-6.742 6.288-8.129 4.918-1.83 10.416.787 12.133 5.749 1.294 3.731.473 7.07-2.185 9.959-.262.287-.388.56-.388.942.01 4.085.005 8.17.005 12.254v.297c-.01.368-.05.398-.387.232a995.829 995.829 0 01-5.7-2.854c-.246-.126-.438-.076-.659.035-1.843.928-3.69 1.851-5.533 2.774-.463.232-.483.217-.483-.298.005-2.107.005-4.21.005-6.313zm-1.475-13.821c-.07 4.286 3.388 7.952 8.015 7.906 4.173-.04 7.642-3.524 7.717-7.7.076-4.371-3.227-8.093-7.883-8.083-4.708.01-7.895 3.727-7.85 7.877zm3.131 13.16v4.382c0 .49.005.49.428.278 1.294-.65 2.588-1.291 3.877-1.952.292-.15.528-.161.83-.005 1.284.666 2.583 1.301 3.877 1.952.438.216.443.217.443-.263v-8.839c0-.398-.005-.398-.358-.222-2.91 1.442-5.824 1.442-8.734.005-.363-.176-.363-.176-.363.247v4.418zM9.715 13.717c-1.189 0-2.372-.005-3.56.005-.312.005-.458-.09-.433-.423a5.53 5.53 0 000-.817c-.025-.323.106-.439.428-.434 1.002.015 2.004.005 3 .005 1.36 0 2.72.01 4.079-.005.347-.005.503.096.473.459-.025.257-.02.52 0 .776.025.323-.1.434-.428.434-1.183-.01-2.371 0-3.56 0zM8.904 18.472c-.926 0-1.852-.01-2.774.005-.307.005-.423-.106-.402-.413.015-.273.02-.545 0-.817-.03-.348.115-.449.448-.444 1.49.015 2.985.005 4.475.005.373 0 .74.01 1.108-.005.277-.01.377.111.372.373-.01.298-.01.595.005.888.016.307-.115.413-.417.408-.942-.005-1.878.005-2.815 0zM14.437 8.962c-.665 0-1.334-.01-1.999.005-.282.005-.413-.09-.398-.383.016-.323.006-.64 0-.963 0-.217.096-.318.313-.318 1.41.005 2.814.005 4.223 0 .227 0 .303.116.303.323-.005.323-.01.645 0 .963.01.267-.096.378-.368.373-.695-.01-1.384 0-2.074 0zM7.328 8.962c-.418 0-.84-.005-1.258.005-.257.005-.353-.106-.348-.358.01-.323.01-.64 0-.963-.005-.232.08-.343.322-.338a222.3 222.3 0 002.593 0c.222 0 .312.101.307.318-.005.348-.005.69 0 1.039 0 .226-.116.302-.322.302-.428-.01-.86-.005-1.294-.005z" fill="#E04E39"/><path d="M19.97 18.432c0-2.698 2.07-4.785 4.753-4.8 2.708-.016 4.787 2.087 4.782 4.845 0 2.678-2.084 4.76-4.757 4.755-2.724-.005-4.778-2.067-4.778-4.8zm7.879.005c.015-1.71-1.375-3.121-3.091-3.147-1.677-.025-3.117 1.382-3.132 3.071-.02 1.76 1.32 3.187 3.016 3.207 1.802.02 3.187-1.331 3.207-3.131z" fill="#E04E39"/><path d="M36.458 1c.876.267 1.626.716 2.099 1.538.277.479.443.988.443 1.553 0 8.507 0 17.013-.005 25.515 0 1.694-1.44 3.121-3.131 3.131-.433.005-.866-.005-1.3.005-.246.005-.362-.09-.352-.348.01-.322.01-.645 0-.963-.01-.257.106-.353.353-.348.382.01.765.005 1.148 0 1.072-.005 1.63-.554 1.63-1.628.006-4.196 0-8.396 0-12.591V4.494c0-.211.006-.423-.014-.63-.076-.726-.64-1.215-1.44-1.22-1.707-.01-3.414-.005-5.115-.005H8.003c-1.249 0-2.497-.005-3.746 0-1.102.005-1.62.52-1.62 1.613-.006 6.722 0 13.444 0 20.17V29.4c0 1.135.538 1.684 1.68 1.684H14.7c.564 0 .564 0 .564.545 0 1.11 0 1.114-1.103 1.114H4.408c-1.732 0-2.84-.822-3.353-2.475A1.164 1.164 0 001 30.125V3.526c.13-.317.227-.65.398-.958C1.88 1.731 2.63 1.278 3.522 1h32.936z" stroke="#E04E39" stroke-width=".5"/><path d="M18.354 32.243c0-2.007-.015-4.009.01-6.016.005-.453-.126-.776-.443-1.109-1.999-2.108-2.97-4.634-2.663-7.523.423-3.964 2.557-6.742 6.288-8.129 4.918-1.83 10.416.787 12.133 5.749 1.294 3.731.473 7.07-2.185 9.959-.262.287-.388.56-.388.942.01 4.085.005 8.17.005 12.254v.297c-.01.368-.05.398-.387.232a995.829 995.829 0 01-5.7-2.854c-.246-.126-.438-.076-.659.035-1.843.928-3.69 1.851-5.533 2.774-.463.232-.483.217-.483-.298.005-2.107.005-4.21.005-6.313zm-1.475-13.821c-.07 4.286 3.388 7.952 8.015 7.906 4.173-.04 7.642-3.524 7.717-7.7.076-4.371-3.227-8.093-7.883-8.083-4.708.01-7.895 3.727-7.85 7.877zm3.131 13.16v4.382c0 .49.005.49.428.278 1.294-.65 2.588-1.291 3.877-1.952.292-.15.528-.161.83-.005 1.284.666 2.583 1.301 3.877 1.952.438.216.443.217.443-.263v-8.839c0-.398-.005-.398-.358-.222-2.91 1.442-5.824 1.442-8.734.005-.363-.176-.363-.176-.363.247v4.418zM9.715 13.717c-1.189 0-2.372-.005-3.56.005-.312.005-.458-.09-.433-.423a5.53 5.53 0 000-.817c-.025-.323.106-.439.428-.434 1.002.015 2.004.005 3 .005 1.36 0 2.72.01 4.079-.005.347-.005.503.096.473.459-.025.257-.02.52 0 .776.025.323-.1.434-.428.434-1.183-.01-2.371 0-3.56 0zM8.904 18.472c-.926 0-1.852-.01-2.774.005-.307.005-.423-.106-.402-.413.015-.273.02-.545 0-.817-.03-.348.115-.449.448-.444 1.49.015 2.985.005 4.475.005.373 0 .74.01 1.108-.005.277-.01.377.111.372.373-.01.298-.01.595.005.888.016.307-.115.413-.417.408-.942-.005-1.878.005-2.815 0zM14.437 8.962c-.665 0-1.334-.01-1.999.005-.282.005-.413-.09-.398-.383.016-.323.006-.64 0-.963 0-.217.096-.318.313-.318 1.41.005 2.814.005 4.223 0 .227 0 .303.116.303.323-.005.323-.01.645 0 .963.01.267-.096.378-.368.373-.695-.01-1.384 0-2.074 0zM7.328 8.962c-.418 0-.84-.005-1.258.005-.257.005-.353-.106-.348-.358.01-.323.01-.64 0-.963-.005-.232.08-.343.322-.338a222.3 222.3 0 002.593 0c.222 0 .312.101.307.318-.005.348-.005.69 0 1.039 0 .226-.116.302-.322.302-.428-.01-.86-.005-1.294-.005z" stroke="#E04E39" stroke-width=".5"/><path d="M19.97 18.432c0-2.698 2.07-4.785 4.753-4.8 2.708-.016 4.787 2.087 4.782 4.845 0 2.678-2.084 4.76-4.757 4.755-2.724-.005-4.778-2.067-4.778-4.8zm7.879.005c.015-1.71-1.375-3.121-3.091-3.147-1.677-.025-3.117 1.382-3.132 3.071-.02 1.76 1.32 3.187 3.016 3.207 1.802.02 3.187-1.331 3.207-3.131z" stroke="#E04E39" stroke-width=".5"/></svg>