<?xml version="1.0" encoding="utf-8"?><svg width="20" height="19" fill="none" xmlns="http://www.w3.org/2000/svg" viewBox="0 0 20 19"><path d="M10.473 18.788c-1.989-.007-3.693-.205-5.34-.778-.216-.075-.425-.19-.64-.273-.767-.307-1.045-.961-1.052-1.766-.019-1.658-.025-3.322.102-4.98.012-.211-.051-.26-.216-.307-.944-.252-1.774-.723-2.375-1.583-1.046-1.493-1.02-3.71.107-5.13 1.172-1.48 2.667-1.97 4.422-1.493.19.054.292.027.412-.15C6.723 1.045 7.913.43 9.32.254c1.179-.15 2.319.027 3.39.607.399.218.747.512 1.051.86.07.082.133.15.266.095 1.065-.477 2.123-.395 3.162.082 2.084.955 3.053 3.213 2.432 5.614-.43 1.664-1.33 2.92-2.806 3.656-.152.075-.21.17-.21.355.007.744.014 1.48 0 2.224-.012.757-.03 1.514-.12 2.271-.12 1.017-.671 1.665-1.514 2.06-.785.376-1.628.505-2.47.587-.76.068-1.527.15-2.028.123zM4.664 13.03h.025v.484c-.006.784.013 1.569.038 2.353.02.45.057.512.463.648.45.15.906.239 1.368.3.912.123 1.825.178 2.743.226 1.451.068 2.896.034 4.34-.082.38-.028.754-.116 1.096-.314.272-.15.43-.382.488-.71.031-.197.031-.388.038-.586.006-1.978-.007-3.957-.045-5.928-.006-.382.178-.641.482-.73a.715.715 0 01.849.341c.196.341.196.341.507.116.088-.068.177-.143.26-.225.62-.662.893-1.487 1.02-2.394.367-2.674-1.927-3.916-3.523-3.622-.304.054-.31.068-.19.375.342.887.45 1.807.31 2.756-.266 1.773-1.235 3.021-2.584 3.983-.305.219-.653.17-.919-.095a1.185 1.185 0 01-.342-1.064c.063-.41.33-.594.678-.69.544-.156.963-.497 1.28-.995.462-.744.614-1.576.576-2.456-.038-.914-.386-1.664-1.039-2.237-1.533-1.344-3.902-1.303-5.385.102-.52.491-.97 1.057-1.058 1.855-.05.464-.095.935-.038 1.399.02.164 0 .314-.165.382-.158.068-.278-.007-.373-.137-.064-.088-.114-.184-.165-.28-.235-.45-.279-.94-.24-1.439.018-.238-.07-.334-.273-.388a2.415 2.415 0 00-.824-.075c-.994.047-1.704.593-2.122 1.52-.425.942-.349 1.883.234 2.73.488.722 1.23.927 2.009.982.722.054 1.438-.028 2.147-.185.33-.075.532 0 .646.219.152.286-.019.484-.17.682-.286.368-.647.62-1.071.777-.292.11-.602.157-.906.198-.12.014-.178.055-.171.205.012.668.006 1.33.006 1.999z" fill="#E04E39"/><path d="M10.707 18.897c-.083 0-.165 0-.241-.007-2.18-.007-3.833-.245-5.366-.784a6.28 6.28 0 01-.374-.157c-.089-.041-.177-.082-.266-.116-.728-.293-1.102-.914-1.115-1.862-.019-1.61-.025-3.316.101-4.987.013-.143-.012-.157-.145-.198C2.23 10.5 1.43 9.968.874 9.17-.209 7.62-.158 5.357.988 3.91 2.18 2.41 3.7 1.891 5.505 2.39c.165.047.222.026.31-.11C6.602 1.066 7.78.356 9.314.16c1.242-.157 2.4.054 3.446.62.393.212.741.498 1.077.88.076.089.095.096.159.069 1.032-.457 2.115-.437 3.237.081 2.122.976 3.123 3.281 2.483 5.73-.456 1.753-1.419 3.002-2.863 3.725-.12.061-.152.123-.152.26.006.75.012 1.486 0 2.23-.013.777-.032 1.535-.12 2.278-.115.975-.64 1.698-1.565 2.142-.811.389-1.68.518-2.497.6l-.1.007c-.64.055-1.243.116-1.711.116zM4.238 2.403c-1.203 0-2.242.546-3.104 1.63-1.09 1.378-1.134 3.527-.108 5 .533.764 1.293 1.269 2.32 1.542.19.055.31.136.284.41-.127 1.664-.12 3.362-.101 4.965.013.866.336 1.412.988 1.671.095.041.19.082.279.123.114.055.234.11.355.15 1.514.532 3.155.771 5.315.778h.006c.475.027 1.21-.048 1.92-.116l.101-.007c.805-.082 1.654-.205 2.44-.58.873-.416 1.349-1.064 1.456-1.985.083-.736.102-1.487.12-2.258.013-.736.007-1.473 0-2.223 0-.219.083-.355.267-.444 1.387-.689 2.318-1.903 2.756-3.595.614-2.346-.343-4.556-2.376-5.49-1.07-.478-2.11-.506-3.092-.07-.19.083-.291-.033-.367-.115a3.808 3.808 0 00-1.026-.84C11.657.405 10.536.2 9.33.35c-1.494.192-2.597.853-3.363 2.033-.152.24-.304.253-.513.191a4.57 4.57 0 00-1.217-.17zm6.557 14.768c-.506 0-1-.014-1.495-.034-.88-.04-1.824-.095-2.75-.225a7.46 7.46 0 01-1.387-.307c-.443-.15-.513-.246-.532-.737-.032-.88-.044-1.65-.038-2.353v-.382h-.025v-.102-.533c0-.477 0-.975-.007-1.46-.006-.245.127-.293.254-.306.285-.041.589-.082.887-.191a2.24 2.24 0 001.026-.744l.02-.027c.157-.205.246-.341.138-.539-.07-.13-.19-.252-.544-.17a7.375 7.375 0 01-2.173.19c-.678-.047-1.52-.204-2.078-1.023-.602-.873-.684-1.855-.241-2.837.437-.976 1.197-1.528 2.192-1.603.298-.02.583.006.855.075.26.068.368.218.349.498-.038.559.031.996.228 1.378.044.088.095.184.158.266.108.15.197.136.26.109.082-.034.127-.089.108-.273-.057-.478-.013-.948.038-1.426.095-.88.633-1.487 1.09-1.917 1.52-1.439 3.94-1.48 5.51-.102.672.594 1.033 1.371 1.078 2.312.044.99-.152 1.815-.59 2.518-.329.532-.779.88-1.33 1.036-.367.11-.557.294-.608.614-.063.369.044.696.317.969.24.246.538.273.804.089 1.477-1.05 2.306-2.333 2.54-3.916a5.35 5.35 0 00-.303-2.701c-.064-.17-.108-.28-.057-.368.05-.096.158-.116.323-.144.975-.177 2.11.205 2.825.962.475.498.995 1.385.805 2.783C18.296 7.621 17.96 8.4 17.396 9a2.002 2.002 0 01-.272.238c-.171.123-.266.198-.367.17-.102-.027-.159-.122-.273-.32a.627.627 0 00-.741-.293c-.272.081-.418.306-.412.634.038 1.93.05 3.929.045 5.934v.014c0 .191 0 .389-.038.587a1.07 1.07 0 01-.539.784c-.323.184-.69.287-1.134.32a42.216 42.216 0 01-2.87.103zm-6.037-4.243h.025v.587c-.006.702.007 1.466.038 2.346.013.41.032.43.4.553.392.13.823.225 1.355.3.919.13 1.856.178 2.737.218a33.22 33.22 0 004.327-.081c.412-.034.76-.13 1.058-.3a.855.855 0 00.443-.642c.032-.177.032-.361.032-.552v-.014c.006-2.005-.007-3.997-.044-5.928-.007-.416.196-.73.55-.832.374-.116.76.041.957.389.057.109.12.218.146.225.025 0 .133-.075.222-.143.095-.069.177-.144.247-.212.538-.573.855-1.316.994-2.34.178-1.31-.31-2.141-.747-2.605-.672-.71-1.742-1.071-2.66-.907-.058.013-.153.027-.185.04.007.035.038.123.064.191.348.921.456 1.87.316 2.81-.247 1.645-1.102 2.968-2.622 4.053-.336.239-.735.198-1.04-.11a1.29 1.29 0 01-.373-1.152c.089-.525.469-.696.748-.771.506-.143.918-.464 1.222-.955.418-.669.602-1.453.558-2.394-.038-.887-.374-1.61-1.008-2.163-1.501-1.316-3.813-1.275-5.264.103-.456.43-.938.982-1.026 1.787-.051.464-.095.92-.038 1.378.012.095.044.375-.222.49-.178.076-.349.015-.482-.17-.07-.095-.12-.197-.17-.293-.216-.416-.298-.894-.254-1.494.013-.17-.032-.239-.203-.28a2.38 2.38 0 00-.798-.068c-.938.068-1.622.566-2.034 1.487-.405.908-.329 1.815.228 2.627.507.743 1.306.893 1.939.934.665.048 1.362-.014 2.122-.184.368-.082.608.007.754.273.178.334-.006.58-.158.777l-.02.028a2.416 2.416 0 01-1.108.805c-.31.116-.627.163-.925.204-.082.014-.088.014-.088.103.006.49.006.982.006 1.466-.02.13-.02.273-.02.416z" fill="#E04E39"/><path d="M10.707 18.897c-.083 0-.165 0-.241-.007-2.18-.007-3.833-.245-5.366-.784a6.28 6.28 0 01-.374-.157c-.089-.041-.177-.082-.266-.116-.728-.293-1.102-.914-1.115-1.862-.019-1.61-.025-3.316.101-4.987.013-.143-.012-.157-.145-.198C2.23 10.5 1.43 9.968.874 9.17-.209 7.62-.158 5.357.988 3.91 2.18 2.41 3.7 1.891 5.505 2.39c.165.047.222.026.31-.11C6.602 1.066 7.78.356 9.314.16c1.242-.157 2.4.054 3.446.62.393.212.741.498 1.077.88.076.089.095.096.159.069 1.032-.457 2.115-.437 3.237.081 2.122.976 3.123 3.281 2.483 5.73-.456 1.753-1.419 3.002-2.863 3.725-.12.061-.152.123-.152.26.006.75.012 1.486 0 2.23-.013.777-.032 1.535-.12 2.278-.115.975-.64 1.698-1.565 2.142-.811.389-1.68.518-2.497.6l-.1.007c-.64.055-1.243.116-1.711.116zM4.238 2.403c-1.203 0-2.242.546-3.104 1.63-1.09 1.378-1.134 3.527-.108 5 .533.764 1.293 1.269 2.32 1.542.19.055.31.136.284.41-.127 1.664-.12 3.362-.101 4.965.013.866.336 1.412.988 1.671.095.041.19.082.279.123.114.055.234.11.355.15 1.514.532 3.155.771 5.315.778h.006c.475.027 1.21-.048 1.92-.116l.101-.007c.805-.082 1.654-.205 2.44-.58.873-.416 1.349-1.064 1.456-1.985.083-.736.102-1.487.12-2.258.013-.736.007-1.473 0-2.223 0-.219.083-.355.267-.444 1.387-.689 2.318-1.903 2.756-3.595.614-2.346-.343-4.556-2.376-5.49-1.07-.478-2.11-.506-3.092-.07-.19.083-.291-.033-.367-.115a3.808 3.808 0 00-1.026-.84C11.657.405 10.536.2 9.33.35c-1.494.192-2.597.853-3.363 2.033-.152.24-.304.253-.513.191a4.57 4.57 0 00-1.217-.17zm6.557 14.768c-.506 0-1-.014-1.495-.034-.88-.04-1.824-.095-2.75-.225a7.46 7.46 0 01-1.387-.307c-.443-.15-.513-.246-.532-.737-.032-.88-.044-1.65-.038-2.353v-.382h-.025v-.102-.533c0-.477 0-.975-.007-1.46-.006-.245.127-.293.254-.306.285-.041.589-.082.887-.191a2.24 2.24 0 001.026-.744l.02-.027c.157-.205.246-.341.138-.539-.07-.13-.19-.252-.544-.17a7.375 7.375 0 01-2.173.19c-.678-.047-1.52-.204-2.078-1.023-.602-.873-.684-1.855-.241-2.837.437-.976 1.197-1.528 2.192-1.603.298-.02.583.006.855.075.26.068.368.218.349.498-.038.559.031.996.228 1.378.044.088.095.184.158.266.108.15.197.136.26.109.082-.034.127-.089.108-.273-.057-.478-.013-.948.038-1.426.095-.88.633-1.487 1.09-1.917 1.52-1.439 3.94-1.48 5.51-.102.672.594 1.033 1.371 1.078 2.312.044.99-.152 1.815-.59 2.518-.329.532-.779.88-1.33 1.036-.367.11-.557.294-.608.614-.063.369.044.696.317.969.24.246.538.273.804.089 1.477-1.05 2.306-2.333 2.54-3.916a5.35 5.35 0 00-.303-2.701c-.064-.17-.108-.28-.057-.368.05-.096.158-.116.323-.144.975-.177 2.11.205 2.825.962.475.498.995 1.385.805 2.783C18.296 7.621 17.96 8.4 17.396 9a2.002 2.002 0 01-.272.238c-.171.123-.266.198-.367.17-.102-.027-.159-.122-.273-.32a.627.627 0 00-.741-.293c-.272.081-.418.306-.412.634.038 1.93.05 3.929.045 5.934v.014c0 .191 0 .389-.038.587a1.07 1.07 0 01-.539.784c-.323.184-.69.287-1.134.32a42.216 42.216 0 01-2.87.103zm-6.037-4.243h.025v.587c-.006.702.007 1.466.038 2.346.013.41.032.43.4.553.392.13.823.225 1.355.3.919.13 1.856.178 2.737.218a33.22 33.22 0 004.327-.081c.412-.034.76-.13 1.058-.3a.855.855 0 00.443-.642c.032-.177.032-.361.032-.552v-.014c.006-2.005-.007-3.997-.044-5.928-.007-.416.196-.73.55-.832.374-.116.76.041.957.389.057.109.12.218.146.225.025 0 .133-.075.222-.143.095-.069.177-.144.247-.212.538-.573.855-1.316.994-2.34.178-1.31-.31-2.141-.747-2.605-.672-.71-1.742-1.071-2.66-.907-.058.013-.153.027-.185.04.007.035.038.123.064.191.348.921.456 1.87.316 2.81-.247 1.645-1.102 2.968-2.622 4.053-.336.239-.735.198-1.04-.11a1.29 1.29 0 01-.373-1.152c.089-.525.469-.696.748-.771.506-.143.918-.464 1.222-.955.418-.669.602-1.453.558-2.394-.038-.887-.374-1.61-1.008-2.163-1.501-1.316-3.813-1.275-5.264.103-.456.43-.938.982-1.026 1.787-.051.464-.095.92-.038 1.378.012.095.044.375-.222.49-.178.076-.349.015-.482-.17-.07-.095-.12-.197-.17-.293-.216-.416-.298-.894-.254-1.494.013-.17-.032-.239-.203-.28a2.38 2.38 0 00-.798-.068c-.938.068-1.622.566-2.034 1.487-.405.908-.329 1.815.228 2.627.507.743 1.306.893 1.939.934.665.048 1.362-.014 2.122-.184.368-.082.608.007.754.273.178.334-.006.58-.158.777l-.02.028a2.416 2.416 0 01-1.108.805c-.31.116-.627.163-.925.204-.082.014-.088.014-.088.103.006.49.006.982.006 1.466-.02.13-.02.273-.02.416z" fill="#E04E39"/><path d="M10.708 19c-.089 0-.171 0-.247-.007-2.186-.007-3.846-.252-5.392-.791a3.264 3.264 0 01-.38-.164c-.088-.04-.177-.082-.266-.116-.766-.307-1.165-.962-1.178-1.958-.02-1.61-.025-3.322.101-5v-.061c-.019-.007-.057-.02-.076-.02-1.096-.294-1.907-.84-2.477-1.658C-.309 7.635-.258 5.316.92 3.836c1.216-1.535 2.768-2.06 4.612-1.555.133.034.146.027.209-.068C6.546.97 7.743.248 9.3.05c1.261-.157 2.44.055 3.497.628.4.218.76.511 1.109.9.006.014.032.034.044.048h.007c1.058-.47 2.166-.443 3.307.082 2.173.996 3.192 3.35 2.54 5.853-.462 1.78-1.444 3.056-2.914 3.785-.082.041-.101.069-.095.164.006.75.012 1.487 0 2.23-.013.778-.032 1.535-.12 2.293-.12 1.016-.666 1.766-1.622 2.223-.818.396-1.698.526-2.528.608l-.101.006c-.647.069-1.242.13-1.717.13zm-6.019-1.187c.026.014.051.02.076.034.12.055.241.11.368.157 1.527.532 3.174.778 5.34.778.076.006.159.006.241.006.367 0 .817-.034 1.305-.081-.583.054-1.147.102-1.546.075-2.166-.007-3.813-.246-5.34-.778-.127-.04-.247-.102-.368-.157-.025-.007-.05-.02-.076-.034zm9.06.662c-.418.088-.837.143-1.248.184a10 10 0 001.248-.184zm-9.51-15.97c-1.171 0-2.191.54-3.028 1.597C.147 5.44.103 7.54 1.11 8.98c.52.744 1.26 1.235 2.268 1.508.196.054.386.157.361.518-.127 1.658-.12 3.356-.101 4.96.006.818.31 1.33.925 1.575.095.041.19.082.278.123.114.055.235.11.349.15 1.508.525 3.136.764 5.283.77h.007c.468.028 1.197-.047 1.906-.115l.102-.007c.798-.082 1.64-.204 2.407-.573.843-.402 1.299-1.023 1.4-1.903.083-.73.102-1.48.12-2.244.013-.737.007-1.467 0-2.217 0-.253.102-.43.318-.54 1.361-.674 2.274-1.861 2.705-3.526.595-2.299-.336-4.454-2.325-5.368-1.046-.478-2.06-.505-3.016-.082-.247.11-.393-.055-.475-.143-.31-.355-.64-.621-1.001-.819C11.626.507 10.524.31 9.339.46c-1.47.185-2.546.833-3.294 1.992-.184.28-.374.3-.614.232a4.125 4.125 0 00-1.191-.177zm.21 15.206c.012.007.031.013.044.02.038.014.076.027.114.048-.038-.014-.076-.034-.114-.048a.298.298 0 01-.044-.02zm12.138-3.234zm-13.05-3.492c-.026.361-.051.73-.064 1.098.019-.368.038-.737.063-1.098zM.811 8.89c.045.075.089.142.14.21a13.94 13.94 0 01-.14-.21zm16.326-7.02c.019.007.038.014.057.028 2.078.955 3.053 3.213 2.433 5.614-.184.71-.45 1.33-.805 1.869.349-.539.62-1.167.805-1.87.627-2.4-.355-4.651-2.433-5.613a.386.386 0 00-.057-.028zm-12.905.43c-1.229 0-2.293.559-3.174 1.67a4.02 4.02 0 00-.773 1.7 3.99 3.99 0 01.78-1.699c.874-1.111 1.944-1.67 3.167-1.67.393 0 .805.06 1.23.17a4.66 4.66 0 00-1.23-.17zm1.255.178c.139.034.228.04.316-.048-.076.075-.17.089-.316.048zM10.093.2c.931 0 1.812.219 2.617.655.38.205.728.491 1.051.86l.007.006-.007-.006a3.774 3.774 0 00-1.051-.86A5.492 5.492 0 009.7.207c.133 0 .267-.007.393-.007zm.703 17.074c-.5 0-1.007-.014-1.501-.034-.887-.04-1.825-.095-2.756-.225a8.088 8.088 0 01-1.4-.307c-.481-.164-.576-.293-.595-.832-.032-.88-.045-1.651-.038-2.36v-.28H4.48v-.205-.539c0-.477 0-.968-.006-1.446-.006-.245.108-.382.342-.416.285-.034.583-.082.868-.19.412-.158.735-.39.988-.717l.02-.027c.164-.219.202-.294.132-.423-.038-.075-.107-.198-.443-.123a7.524 7.524 0 01-2.199.19c-.696-.047-1.57-.217-2.147-1.063-.621-.907-.71-1.924-.254-2.94.438-1.01 1.223-1.583 2.256-1.658.304-.02.602.007.88.075.304.082.444.28.418.6-.038.54.032.962.216 1.324.044.089.095.177.152.252.076.11.12.089.152.075.032-.013.063-.027.044-.163-.057-.492-.012-.962.038-1.453.102-.914.653-1.542 1.122-1.985C8.61.937 11.088.889 12.69 2.294c.696.608 1.064 1.412 1.108 2.388.045 1.01-.152 1.855-.608 2.578-.342.553-.81.914-1.387 1.085-.336.095-.494.252-.539.532-.057.334.045.628.285.88.21.211.456.239.684.075 1.451-1.03 2.268-2.292 2.503-3.847a5.206 5.206 0 00-.298-2.647c-.07-.184-.12-.32-.05-.457.07-.136.209-.164.386-.198 1-.184 2.173.212 2.908.99.488.511 1.026 1.425.83 2.864-.152 1.092-.488 1.89-1.071 2.51-.082.09-.177.171-.285.246-.184.137-.298.218-.444.184-.145-.034-.215-.157-.329-.368a.537.537 0 00-.633-.252c-.229.068-.349.252-.343.532.038 1.93.051 3.929.045 5.934v.014c0 .198 0 .396-.038.607-.07.389-.26.668-.59.853a2.72 2.72 0 01-1.165.334c-1.001.11-1.939.143-2.864.143zm-.38-.204zm-2.046-.082c.317.02.634.034.938.047-.31-.013-.621-.027-.938-.047zm-3.516-4.161h.025V13.516c-.006.702.007 1.466.038 2.34.013.354.013.354.33.456.386.13.81.226 1.337.294.918.13 1.85.177 2.724.218 1.374.068 2.787.04 4.32-.082.4-.034.735-.123 1.02-.286a.75.75 0 00.393-.567c.032-.17.032-.347.032-.532v-.02c.006-1.999-.007-3.997-.045-5.928-.006-.464.222-.812.621-.934a.912.912 0 011.065.43c.025.047.063.108.088.156a2.53 2.53 0 00.146-.102c.089-.061.165-.13.228-.205.52-.552.83-1.275.963-2.278.17-1.269-.298-2.067-.722-2.517-.653-.69-1.692-1.044-2.579-.88-.019 0-.05.007-.076.014a5.571 5.571 0 01.355 2.947c-.253 1.67-1.121 3.021-2.667 4.12-.374.265-.817.225-1.153-.123a1.39 1.39 0 01-.4-1.249c.108-.648.64-.805.818-.852.482-.137.874-.444 1.172-.914.405-.648.583-1.412.545-2.333-.038-.853-.361-1.556-.97-2.088C11 1.312 8.738 1.36 7.319 2.697c-.443.416-.906.955-.994 1.726-.05.457-.089.907-.038 1.35.044.376-.127.532-.285.6-.222.096-.437.021-.596-.204a2.549 2.549 0 01-.177-.307c-.228-.437-.31-.928-.266-1.555.006-.116 0-.137-.127-.17-.24-.062-.5-.09-.767-.069-.9.068-1.558.546-1.95 1.432-.394.874-.318 1.74.215 2.518.487.709 1.254.852 1.869.893.658.048 1.343-.013 2.096-.184.406-.089.691.014.856.32.209.396-.02.696-.171.894l-.02.027a2.528 2.528 0 01-1.152.84c-.317.122-.64.17-.944.211H4.86c.007.484.007.982.007 1.46v.007c-.013.122-.013.231-.013.34zm9.851 3.833c-.14.075-.291.137-.45.184.159-.04.31-.102.45-.184zm-9.173-.047c.14.034.285.068.437.102a4.167 4.167 0 01-.437-.102zm9.699-.69V15.925zm.038-1.5v.934-.02-.914zm-10.58-1.18v0zm-.025-.846v.6-.061-.437-.102zm6.734-2.51l.026.027c.26.266.595.307.893.116-.292.19-.627.143-.893-.116-.013-.007-.02-.02-.026-.027zm-4.51-.84a.491.491 0 01.088.13c.146.273-.006.47-.152.662l-.019.027c-.025.027-.044.062-.07.089.026-.027.051-.055.07-.089l.02-.027c.145-.191.297-.382.151-.662a.356.356 0 00-.088-.13zm9.85.246s.007 0 .007.007c0-.007 0-.007-.006-.007zm.305-.143c-.095.068-.152.11-.19.13.044-.02.101-.069.19-.13zm-1.121-.498a.71.71 0 01.627.375c.031.062.063.11.082.143a1.115 1.115 0 01-.082-.143.715.715 0 00-.85-.34.64.64 0 010 0 .834.834 0 01.223-.035zM11.74 8.16c-.272.082-.589.232-.665.689 0 .007 0 .013-.006.027 0-.007 0-.014.006-.027.057-.348.273-.566.665-.69zm3.225-2.483l-.038.348a5.483 5.483 0 00.038-.348zM1.953 5.39c-.007.014-.013.02-.013.034 0-.007.006-.02.013-.034zm11.194-2.258c.285.45.437.976.462 1.57.026.647-.044 1.22-.228 1.732.184-.512.254-1.091.228-1.733-.025-.593-.177-1.112-.462-1.569zM6.089 5.828a.512.512 0 000 0zm11.309-2.149c.057.048.107.102.158.15l-.158-.15zm-13.152.198c-.064 0-.133 0-.197.007.108-.007.21-.007.31-.007h-.113zm10.529-.975c-.057.013-.101.02-.14.034.039-.014.09-.02.14-.034zm.507-.048c-.102 0-.203.007-.304.02.183-.02.373-.02.557-.007-.089-.006-.17-.013-.253-.013zM9.935 1.483c-.995 0-1.99.361-2.756 1.084a4.035 4.035 0 012.756-1.084z" fill="#E04E39"/><path d="M10.09 15.486c-1-.034-1.989-.116-2.914-.593a3.343 3.343 0 01-.697-.485c-.107-.095-.202-.197-.139-.368.057-.157.19-.157.317-.157.443-.007.868.11 1.286.225 1.058.294 2.129.314 3.205.17.355-.047.615.124.666.444.057.335-.14.621-.495.682a9.222 9.222 0 01-1.229.082z" fill="#E04E39"/><path d="M10.146 15.588h-.057c-.918-.027-1.982-.102-2.952-.607-.26-.136-.5-.3-.716-.498-.088-.081-.26-.238-.17-.484.082-.218.265-.218.398-.225h.013c.463-.007.893.11 1.312.225.962.266 2.001.32 3.167.164.406-.055.71.15.773.525a.692.692 0 01-.101.505.688.688 0 01-.476.293c-.38.068-.766.102-1.19.102zm-.057-.204c.438 0 .837-.027 1.217-.089a.502.502 0 00.348-.211.506.506 0 00.07-.355c-.044-.266-.254-.396-.564-.361-1.19.156-2.249.102-3.237-.171-.406-.11-.824-.232-1.26-.218h-.014c-.139 0-.19.013-.221.095-.032.089-.007.143.114.253.203.184.43.34.678.47.93.485 1.97.56 2.87.587z" fill="#E04E39"/><path d="M10.146 15.588h-.057c-.918-.027-1.982-.102-2.952-.607-.26-.136-.5-.3-.716-.498-.088-.081-.26-.238-.17-.484.082-.218.265-.218.398-.225h.013c.456-.007.893.11 1.312.225.962.266 2.001.32 3.167.164.406-.055.71.15.773.525a.692.692 0 01-.101.505.688.688 0 01-.476.293c-.38.068-.766.102-1.19.102zm-.057-.204c.438 0 .837-.027 1.217-.089a.502.502 0 00.348-.211.506.506 0 00.07-.355c-.044-.266-.254-.396-.564-.361-1.19.156-2.249.102-3.237-.171-.406-.11-.824-.232-1.26-.218h-.014c-.139 0-.19.013-.221.095-.032.089-.007.143.114.253.203.184.43.34.678.47.93.485 1.97.56 2.87.587z" fill="#E04E39"/><path d="M10.145 15.69h-.057c-.931-.026-2.008-.101-2.996-.613a3.464 3.464 0 01-.735-.512c-.095-.088-.317-.286-.197-.6.102-.28.342-.286.482-.286h.012c.476-.007.913.115 1.337.232.95.266 1.977.32 3.136.163.456-.061.81.184.874.607a.824.824 0 01-.114.58.808.808 0 01-.538.334c-.38.062-.773.096-1.204.096zm1.197-.3c-.006 0-.019.008-.025.008-.146.027-.291.04-.443.06a4.66 4.66 0 00.443-.06c.006-.007.02-.007.025-.007zm-1.254-.108c.43 0 .824-.028 1.197-.09a.407.407 0 00.285-.17c.051-.075.07-.17.051-.273-.05-.293-.336-.293-.456-.272-1.204.157-2.274.102-3.275-.178-.406-.109-.817-.225-1.236-.218h-.012c-.127 0-.127.014-.14.027-.012.028-.019.041.09.137.195.177.417.327.658.457.925.484 1.951.552 2.838.58zm1.647-.15c0 .006-.006.006-.006.013 0-.007 0-.013.006-.013zm-4.878-.43zm4.403-.437c.254 0 .444.123.52.335-.09-.24-.317-.362-.628-.328.038-.007.07-.007.108-.007zm-.52.055c-.037.007-.082.007-.12.013a.725.725 0 01.12-.013zm-4.25-.43c-.07.014-.12.055-.152.136a.22.22 0 01.152-.136zm.177-.014h-.019.02z" fill="#E04E39"/></svg>