<?xml version="1.0" encoding="utf-8"?><svg width="22" height="29" fill="none" xmlns="http://www.w3.org/2000/svg" viewBox="0 0 22 29"><path d="M21.488 28.995c-7.083 0-14.168 0-21.247.005C.03 29 0 28.941 0 28.745c.01-1.375.005-2.75.005-4.124.014-.078.034-.162.043-.24a9.668 9.668 0 011.4-3.858c.94-1.508 2.2-2.671 3.73-3.535.217-.123.232-.206.067-.402-.743-.894-1.269-1.91-1.655-3.005-.574-1.634-.825-3.328-.859-5.056-.01-.461-.005-.461-.473-.461-.463 0-.93-.005-1.394 0-.381.005-.68-.133-.86-.491v-.49c.17-.37.469-.507.85-.502.483.005.965 0 1.448 0 .449 0 .449.005.526-.441C3.354 3.209 5.916 1.02 8.845 1 10.28.99 11.712.985 13.14 1a5.881 5.881 0 013.267 1.011c1.486.997 2.403 2.39 2.741 4.173.072.392.072.392.459.397h1.317c.169 0 .338-.014.507.03a.712.712 0 01.554.736.682.682 0 01-.583.678c-.164.029-.338.034-.507.034a63.75 63.75 0 01-1.37 0c-.189 0-.28.074-.276.275.01.893-.072 1.782-.217 2.66-.333 2.062-.989 3.986-2.326 5.616-.135.167-.12.246.063.349.81.456 1.559 1.001 2.22 1.664 1.892 1.875 2.958 4.128 2.996 6.843.015.873-.014 1.747.01 2.621.015.432-.125.731-.507.908zM11.008 8.064H4.511c-.323 0-.347.03-.347.363 0 .5.048 1.001.096 1.497.15 1.517.502 2.975 1.192 4.34 1.665 3.298 4.98 4.158 7.856 3.078 1.486-.555 2.495-1.674 3.219-3.068.931-1.797 1.23-3.75 1.298-5.749.014-.446-.005-.456-.449-.456-2.128-.005-4.251-.005-6.37-.005zm-.034-1.478h6.447c.342 0 .371-.03.284-.353-.458-1.767-1.525-2.955-3.228-3.54-.637-.22-1.298-.245-1.964-.23-1.37.024-2.741-.079-4.102.049-1.983.182-3.643 1.674-4.116 3.652-.097.398-.077.422.318.422h6.36zm.043 15.434c-1.264 0-2.524.005-3.788-.005-.237 0-.338.054-.338.319.01 1.63.01 3.26 0 4.889 0 .245.072.334.323.334 2.514-.01 5.029-.01 7.548 0 .25 0 .323-.084.323-.334-.01-1.62-.01-3.24 0-4.86 0-.26-.077-.348-.338-.348-1.24.01-2.485.005-3.73.005zm-5.55 2.63c0-.873 0-1.747.005-2.62 0-.172-.043-.295-.202-.374-.633-.319-1.265-.643-1.892-.972-.16-.083-.256-.044-.357.099a8.35 8.35 0 00-1.448 3.225c-.231 1.1-.13 2.209-.154 3.318-.005.206.12.23.284.23 1.163-.004 2.326-.004 3.49 0 .207 0 .284-.073.284-.289-.014-.869-.01-1.742-.01-2.616zm11.046-.004c0 .874.005 1.747-.005 2.621 0 .206.068.295.28.29 1.163-.005 2.326-.005 3.49 0 .23 0 .294-.098.289-.314-.01-.545 0-1.09 0-1.64.005-1.792-.56-3.392-1.598-4.825-.115-.157-.217-.172-.38-.089-.614.324-1.226.639-1.844.948-.184.088-.237.216-.232.412v2.597zm-5.525-4.084h4.454c.097 0 .198.01.29-.04l1.867-.957c.116-.059.15-.123.034-.22A9.65 9.65 0 0015.5 17.94c-.101-.049-.188-.024-.275.035-1.057.721-2.225 1.11-3.49 1.212-1.775.152-3.435-.181-4.945-1.183-.15-.098-.266-.108-.42-.03A11.55 11.55 0 004.39 19.28c-.188.153-.14.221.044.315.545.275 1.086.554 1.626.84.164.088.328.122.516.122 1.477.005 2.944.005 4.41.005z" fill="#E04E39"/></svg>