<?xml version="1.0" encoding="utf-8"?><svg width="37" height="37" fill="none" xmlns="http://www.w3.org/2000/svg" viewBox="0 0 37 37"><path d="M36 33.657c-.227.722-.566 1.367-1.212 1.807-.492.336-1.026.533-1.627.533-7.82 0-15.64.003-23.463-.003-1.568 0-2.88-1.306-2.883-2.877-.009-5.827-.009-11.658-.003-17.485.003-1.742 1.3-3.018 3.078-3.021 4.156-.01 8.309-.003 12.465-.003 3.472 0 6.945.003 10.417 0 1.654 0 2.665.722 3.183 2.302.012.032.027.062.042.094v.616h-1.162c-.191 0-.312-.053-.356-.274-.166-.834-.625-1.206-1.51-1.208-2.004-.006-4.005-.003-6.01-.006H10.226c-.204 0-.413 0-.613.026-.858.118-1.268.578-1.27 1.444-.01 1.524-.007 3.051-.007 4.575v12.534c0 .147-.003.294.006.445.044.798.566 1.308 1.368 1.311 1.706.006 3.413.006 5.123.006h17.482c.274 0 .545 0 .82-.006.837-.02 1.344-.51 1.347-1.344.011-1.765.005-3.528.005-5.294 0-1.046.01-2.096-.003-3.142-.002-.312.107-.43.42-.413.362.024.727.012 1.09.018.006 3.125.006 6.246.006 9.365z" fill="#E04E39"/><path d="M27.803 1c.696.192 1.312.507 1.763 1.097.392.512.63 1.084.633 1.733.01 1.854 0 3.71.01 5.565 0 .283-.104.389-.384.371a7.73 7.73 0 00-.784 0c-.26.012-.38-.082-.366-.354.012-.226-.014-.456.006-.683.027-.307-.08-.419-.4-.416-1.89.012-3.78.006-5.669.006H3.078c-.557 0-.55-.003-.55.566.002 4.144 0 8.286.002 12.43 0 .908.292 1.27 1.173 1.483.165.038.268.106.265.294-.002.33 0 .66.003.99.003.204-.09.278-.297.263-1.421-.103-2.665-1.391-2.665-2.818C.997 15.623 1 9.713 1.006 3.807c0-1.189.825-2.28 1.984-2.68.118-.042.236-.083.354-.127h24.459zM15.609 6.795h12.633c.433 0 .436 0 .436-.44 0-.739-.026-1.479.01-2.219.046-.952-.46-1.66-1.643-1.645-2.87.042-5.739.015-8.607.015-4.813 0-9.63-.003-14.443 0-.987 0-1.465.484-1.47 1.471-.007.784 0 1.571.002 2.355 0 .46.003.463.448.463H15.61zM36 21.427c-.387.003-.77 0-1.156.015-.242.009-.354-.08-.35-.333.005-.77.005-1.542.002-2.311 0-.221.077-.336.319-.327.395.014.793.014 1.188.02-.004.979-.004 1.957-.004 2.936zM27.96 22.88c-.727 0-1.455.003-2.183 0-.873-.003-1.46-.575-1.468-1.453a118.83 118.83 0 010-2.9c.012-.932.542-1.51 1.476-1.53a95.36 95.36 0 014.404 0c.955.023 1.456.607 1.456 1.57 0 .912.003 1.822 0 2.733-.003 1.052-.524 1.58-1.568 1.583-.707 0-1.412-.003-2.116-.003zm.021-1.524c.593-.003 1.182-.012 1.775 0 .26.006.368-.085.366-.354a58.085 58.085 0 01.002-2.148c.006-.277-.114-.348-.368-.348-1.194.009-2.388.006-3.584 0-.245-.003-.351.076-.348.333.012.728.009 1.456 0 2.184-.003.25.1.342.345.34.607-.013 1.211-.007 1.813-.007zM15.575 31.626c-1.33 0-2.659-.006-3.991.006-.289.003-.422-.08-.401-.387a5.285 5.285 0 00-.003-.748c-.02-.295.1-.404.395-.401.92.012 1.842.003 2.762.003 1.727 0 3.455.003 5.185.003.46 0 .486.023.49.474.002.227-.007.454.005.681.015.28-.109.375-.383.375-1.353-.01-2.706-.003-4.059-.006 0 .003 0 .003 0 0zM28.692 27.254c-.843 0-1.683-.014-2.523.006-.342.01-.445-.126-.424-.439.017-.25.012-.501.006-.752-.003-.22.082-.338.318-.338 1.751.002 3.502.002 5.253 0 .227 0 .333.088.324.324a9.1 9.1 0 000 .852c.015.274-.106.353-.363.35-.863-.009-1.727-.003-2.59-.003zM13.397 27.254c-.604 0-1.206-.008-1.81.006-.286.006-.425-.08-.404-.386.018-.271.012-.545.003-.82-.009-.235.1-.323.327-.323 1.265.002 2.526.002 3.79 0 .251 0 .349.114.343.353-.01.283-.01.57-.003.855.006.236-.1.321-.333.315-.64-.006-1.277 0-1.913 0zM20.69 27.254c-.614 0-1.227-.008-1.84.003-.26.006-.377-.076-.362-.35.014-.295.008-.59 0-.888-.006-.2.088-.291.285-.291h3.853c.203 0 .277.106.274.3-.006.295-.009.593.003.887.012.248-.088.345-.339.342-.625-.009-1.25-.003-1.875-.003zM24.362 30.105c.386 0 .772.003 1.158 0 .21-.003.316.085.31.303-.009.307-.006.613 0 .92.003.192-.065.298-.277.298-.808-.003-1.613-.003-2.42 0-.212 0-.274-.11-.271-.298a19.05 19.05 0 000-.92c-.006-.224.1-.303.309-.303.398.003.796 0 1.19 0z" fill="#E04E39"/><path d="M15.575 31.626c-1.33 0-2.659-.006-3.991.006-.289.003-.422-.08-.401-.387a5.285 5.285 0 00-.003-.748c-.02-.295.1-.404.395-.401.92.012 1.842.003 2.762.003 1.727 0 3.455.003 5.185.003.46 0 .486.023.49.474.002.227-.007.454.005.681.015.28-.109.375-.383.375-1.353-.01-2.706-.003-4.059-.006zm0 0c0 .003 0 .003 0 0zM36 33.656c-.227.723-.566 1.368-1.212 1.808-.492.336-1.026.533-1.627.533-7.82 0-15.64.003-23.463-.003-1.568 0-2.88-1.306-2.883-2.877-.009-5.827-.009-11.658-.003-17.485.003-1.742 1.3-3.018 3.078-3.021 4.156-.01 8.309-.003 12.465-.003 3.472 0 6.945.003 10.417 0 1.654 0 2.665.722 3.183 2.302.012.032.027.062.042.094v.616h-1.162c-.191 0-.312-.053-.356-.274-.166-.834-.625-1.206-1.51-1.208-2.004-.006-4.005-.003-6.01-.006H10.226c-.204 0-.413 0-.613.026-.858.118-1.268.578-1.27 1.444-.01 1.524-.007 3.051-.007 4.575v12.534c0 .147-.003.294.006.445.044.798.566 1.308 1.368 1.311 1.706.006 3.413.006 5.123.006h17.482c.274 0 .545 0 .82-.006.837-.02 1.344-.51 1.347-1.344.011-1.765.005-3.528.005-5.294 0-1.046.01-2.096-.003-3.142-.002-.312.107-.43.42-.413.362.024.727.012 1.09.018.006 3.125.006 6.246.006 9.365zM27.803 1c.696.192 1.312.507 1.763 1.097.392.512.63 1.084.633 1.733.01 1.854 0 3.71.01 5.565 0 .283-.104.389-.384.371a7.73 7.73 0 00-.784 0c-.26.012-.38-.082-.366-.354.012-.226-.014-.456.006-.683.027-.307-.08-.419-.4-.416-1.89.012-3.78.006-5.669.006H3.078c-.557 0-.55-.003-.55.566.002 4.144 0 8.286.002 12.43 0 .908.292 1.27 1.173 1.483.165.038.268.106.265.294-.002.33 0 .66.003.99.003.204-.09.278-.297.263-1.421-.103-2.665-1.391-2.665-2.818C.997 15.623 1 9.713 1.006 3.807c0-1.189.825-2.28 1.984-2.68.118-.042.236-.083.354-.127h24.459zM15.609 6.795h12.633c.433 0 .436 0 .436-.44 0-.739-.026-1.479.01-2.219.046-.952-.46-1.66-1.643-1.645-2.87.042-5.739.015-8.607.015-4.813 0-9.63-.003-14.443 0-.987 0-1.465.484-1.47 1.471-.007.784 0 1.571.002 2.355 0 .46.003.463.448.463H15.61zm20.39 14.632c-.386.003-.769 0-1.155.015-.242.009-.354-.08-.35-.333.005-.77.005-1.542.002-2.311 0-.221.077-.336.319-.327.395.014.793.014 1.188.02-.004.979-.004 1.957-.004 2.936zm-8.038 1.453c-.728 0-1.456.003-2.184 0-.873-.003-1.46-.575-1.468-1.453a118.83 118.83 0 010-2.9c.012-.932.542-1.51 1.476-1.53a95.36 95.36 0 014.404 0c.955.023 1.456.607 1.456 1.57 0 .912.003 1.822 0 2.733-.003 1.052-.524 1.58-1.568 1.583-.707 0-1.412-.003-2.116-.003zm.02-1.524c.593-.003 1.182-.012 1.775 0 .26.006.368-.085.366-.354a58.085 58.085 0 01.002-2.148c.006-.277-.114-.348-.368-.348-1.194.009-2.388.006-3.584 0-.245-.003-.351.076-.348.333.012.728.009 1.456 0 2.184-.003.25.1.342.345.34.607-.013 1.211-.007 1.813-.007zm.711 5.898c-.843 0-1.683-.014-2.523.006-.342.01-.445-.126-.424-.439.017-.25.012-.501.006-.752-.003-.22.082-.338.318-.338 1.751.002 3.502.002 5.253 0 .227 0 .333.088.324.324a9.1 9.1 0 000 .852c.015.274-.106.353-.363.35-.863-.009-1.727-.003-2.59-.003zm-15.295 0c-.604 0-1.206-.008-1.81.006-.286.006-.425-.08-.404-.386.018-.271.012-.545.003-.82-.009-.235.1-.323.327-.323 1.265.002 2.526.002 3.79 0 .251 0 .349.114.343.353-.01.283-.01.57-.003.855.006.236-.1.321-.333.315-.64-.006-1.277 0-1.913 0zm7.292 0c-.613 0-1.226-.008-1.839.003-.26.006-.377-.076-.362-.35.014-.295.008-.59 0-.888-.006-.2.088-.291.285-.291h3.853c.203 0 .277.106.274.3-.006.295-.009.593.003.887.012.248-.088.345-.339.342-.625-.009-1.25-.003-1.875-.003zm3.673 2.85c.386 0 .772.004 1.158 0 .21-.002.316.086.31.304-.009.307-.006.613 0 .92.003.192-.065.298-.277.298-.808-.003-1.613-.003-2.42 0-.212 0-.274-.11-.271-.298a19.05 19.05 0 000-.92c-.006-.224.1-.303.309-.303.398.003.796 0 1.19 0z" stroke="#E04E39" stroke-width=".5"/></svg>