<?xml version="1.0" encoding="utf-8"?><svg width="37" height="37" fill="none" xmlns="http://www.w3.org/2000/svg" viewBox="0 0 37 37"><path d="M36 9.753a1481.4 1481.4 0 01-4.131.02c-1.05.003-2.094.003-3.143-.005-.938-.004-1.488-.553-1.488-1.49-.003-1.787-.007-3.574.004-5.36.004-.32-.104-.408-.41-.408-6.034.008-12.067.004-18.1-.004-.3 0-.392.1-.392.396.007 6.874.003 13.752.003 20.626v10.45c0 .489 0 .497.492.497h25.171c.484 0 .488-.004.488-.5V19.017c0-.538.004-.542.55-.538.318 0 .637.011.952.015v16.46c-.265.715-.768 1.05-1.54 1.046-8.697-.008-17.393-.004-26.093-.008-.158 0-.323-.004-.473-.042-.711-.165-1.076-.703-1.076-1.572 0-10.574.004-21.148-.008-31.722 0-.8.285-1.364 1.042-1.656h20.904l7.24 7.239C36 8.754 36 9.253 36 9.753zm-2.137-1.506c-.392-.388-.71-.696-1.022-1.007-1.249-1.256-2.498-2.517-3.747-3.773-.076-.077-.153-.212-.272-.162-.108.043-.058.185-.058.28-.004 1.434.004 2.863-.008 4.297 0 .28.1.376.38.372 1.377-.011 2.752-.003 4.128-.003.165-.004.33-.004.6-.004z" fill="#E04E39"/><path d="M36 15.628c-.384 0-.769-.004-1.153 0-.238.004-.357-.088-.353-.338.007-.78.007-1.564 0-2.344-.004-.258.115-.334.353-.33.384.011.769.003 1.153.003v3.009zM21.413 28.746c-1.333 0-2.663-.008-3.996.004-.308.003-.442-.089-.42-.408.02-.25.016-.5 0-.75-.015-.283.105-.376.381-.372 1.172.012 2.344.004 3.516.004.473 0 .477-.004.477-.473v-6.178c0-.569-.004-.569-.557-.569-.65 0-1.3-.004-1.945.004-.269.004-.403-.08-.384-.373.02-.296.008-.591.004-.887-.004-.189.084-.265.269-.265 1.287.003 2.57.003 3.858 0 .3 0 .28.192.28.392v5.533c0 .818.012 1.64-.003 2.459-.004.288.1.372.376.365.727-.016 1.457.004 2.187-.012.284-.004.392.1.376.38-.015.239-.019.48.004.715.027.323-.096.442-.426.438-1.23-.015-2.46-.007-3.69-.007h-.307zM17.009 11.935c.011-2.04 1.675-3.727 3.708-3.677 2.137.054 3.659 1.587 3.65 3.681-.007 2.156-1.586 3.646-3.692 3.677-2.01.035-3.678-1.679-3.666-3.68zm3.65-2.155c-1.09.007-2.132 1.056-2.124 2.136.007 1.157 1.03 2.198 2.148 2.186 1.172-.011 2.178-1.022 2.175-2.186-.004-1.122-1.057-2.148-2.198-2.136zM1.004 18.483V8.446c0-1.106.522-1.633 1.625-1.636.796 0 1.595.007 2.39-.004.293-.004.42.092.396.392-.019.272-.011.545-.003.818.007.238-.1.323-.327.319-.719-.008-1.433.012-2.152-.008-.311-.007-.415.093-.415.408.011 4.572.008 9.148.008 13.724 0 1.933.007 3.87-.004 5.803 0 .318.104.414.41.407.708-.02 1.411 0 2.118-.008.262-.004.377.085.362.357a9.021 9.021 0 000 .853c.007.239-.097.323-.327.32-.9-.008-1.799.015-2.698-.008-.86-.023-1.383-.604-1.387-1.495.004-3.4.004-6.805.004-10.205z" fill="#E04E39"/><path d="M36 9.753a1481.4 1481.4 0 01-4.131.02c-1.05.003-2.094.003-3.143-.005-.938-.004-1.488-.553-1.488-1.49-.003-1.787-.007-3.574.004-5.36.004-.32-.104-.408-.41-.408-6.034.008-12.067.004-18.1-.004-.3 0-.392.1-.392.396.007 6.874.003 13.752.003 20.626v10.45c0 .489 0 .497.492.497h25.171c.484 0 .488-.004.488-.5V19.017c0-.538.004-.542.55-.538.318 0 .637.011.952.015v16.46c-.265.715-.768 1.05-1.54 1.046-8.697-.008-17.393-.004-26.093-.008-.158 0-.323-.004-.473-.042-.711-.165-1.076-.703-1.076-1.572 0-10.574.004-21.148-.008-31.722 0-.8.285-1.364 1.042-1.656h20.904l7.24 7.239C36 8.754 36 9.253 36 9.753zm-2.137-1.506c-.392-.388-.71-.696-1.022-1.007-1.249-1.256-2.498-2.517-3.747-3.773-.076-.077-.153-.212-.272-.162-.108.043-.058.185-.058.28-.004 1.434.004 2.863-.008 4.297 0 .28.1.376.38.372 1.377-.011 2.752-.003 4.128-.003.165-.004.33-.004.6-.004z" stroke="#E04E39" stroke-width=".5"/><path d="M36 15.628c-.384 0-.769-.004-1.153 0-.238.004-.357-.088-.353-.338.007-.78.007-1.564 0-2.344-.004-.258.115-.334.353-.33.384.011.769.003 1.153.003v3.009zM21.413 28.746c-1.333 0-2.663-.008-3.996.004-.308.003-.442-.089-.42-.408.02-.25.016-.5 0-.75-.015-.283.105-.376.381-.372 1.172.012 2.344.004 3.516.004.473 0 .477-.004.477-.473v-6.178c0-.569-.004-.569-.557-.569-.65 0-1.3-.004-1.945.004-.269.004-.403-.08-.384-.373.02-.296.008-.591.004-.887-.004-.189.084-.265.269-.265 1.287.003 2.57.003 3.858 0 .3 0 .28.192.28.392v5.533c0 .818.012 1.64-.003 2.459-.004.288.1.372.376.365.727-.016 1.457.004 2.187-.012.284-.004.392.1.376.38-.015.239-.019.48.004.715.027.323-.096.442-.426.438-1.23-.015-2.46-.007-3.69-.007h-.307zM17.009 11.935c.011-2.04 1.675-3.727 3.708-3.677 2.137.054 3.659 1.587 3.65 3.681-.007 2.156-1.586 3.646-3.692 3.677-2.01.035-3.678-1.679-3.666-3.68zm3.65-2.155c-1.09.007-2.132 1.056-2.124 2.136.007 1.157 1.03 2.198 2.148 2.186 1.172-.011 2.178-1.022 2.175-2.186-.004-1.122-1.057-2.148-2.198-2.136zM1.004 18.483V8.446c0-1.106.522-1.633 1.625-1.636.796 0 1.595.007 2.39-.004.293-.004.42.092.396.392-.019.272-.011.545-.003.818.007.238-.1.323-.327.319-.719-.008-1.433.012-2.152-.008-.311-.007-.415.093-.415.408.011 4.572.008 9.148.008 13.724 0 1.933.007 3.87-.004 5.803 0 .318.104.414.41.407.708-.02 1.411 0 2.118-.008.262-.004.377.085.362.357a9.021 9.021 0 000 .853c.007.239-.097.323-.327.32-.9-.008-1.799.015-2.698-.008-.86-.023-1.383-.604-1.387-1.495.004-3.4.004-6.805.004-10.205z" stroke="#E04E39" stroke-width=".5"/></svg>