<?xml version="1.0" encoding="utf-8"?><svg width="38" height="38" fill="none" xmlns="http://www.w3.org/2000/svg" viewBox="0 0 38 38"><path d="M1 7.906c.248-.793.636-1.48 1.368-1.933.488-.304 1.008-.476 1.592-.476 2.869.004 5.737 0 8.605.004.456 0 .468.012.468.476 0 .236-.016.468 0 .704.02.292-.108.392-.392.388-1.264-.008-2.528 0-3.792 0-1.592 0-3.184-.004-4.777 0-1.004.004-1.52.512-1.52 1.513-.004 5.293 0 10.586 0 15.88 0 .511.004.511.5.511 9.133 0 18.266 0 27.4-.004.48 0 .48-.004.48-.488.003-1.664.003-3.325.003-4.989 0-.492.008-.496.48-.5 1.089-.004 1.089-.004 1.089 1.08 0 3.125 0 6.254-.005 9.378 0 1.757-1.308 3.065-3.056 3.069-2.808.004-5.62 0-8.429 0-.472 0-.472 0-.472.464 0 .692.012 1.38-.004 2.073-.008.316.116.404.412.4.724-.012 1.452.004 2.177-.008.288-.004.4.108.384.392-.02.384-.017.772-.024 1.156H9.996c-.008-.372.004-.748-.024-1.12-.028-.352.124-.44.448-.432.712.02 1.428-.004 2.14.008.292.004.392-.108.388-.392-.012-.677-.004-1.357-.004-2.037 0-.504-.004-.508-.504-.508-2.828 0-5.66.004-8.489-.004-1.064-.004-1.876-.488-2.476-1.352-.228-.32-.34-.688-.476-1.049V7.906zm15.738 18.636h-3.513c-3.42 0-6.836.004-10.257-.008-.32 0-.432.096-.428.42.016.868.008 1.732.004 2.6 0 .328.08.629.28.889.316.412.752.516 1.244.516 3.597-.004 7.19-.004 10.786-.004 4.86 0 9.717.004 14.577 0 .972 0 1.492-.528 1.496-1.505.004-.82 0-1.64 0-2.46 0-.436-.012-.448-.456-.448H16.738zm.008 5.981c-.632 0-1.264.004-1.892-.004-.224-.004-.348.052-.345.312.012.772.008 1.544.005 2.313 0 .228.096.308.316.308 1.272-.004 2.548-.008 3.82-.004.244 0 .328-.096.324-.332a69.974 69.974 0 01.004-2.245c.008-.284-.108-.36-.372-.356-.624.016-1.24.008-1.86.008z" fill="#E04E39"/><path d="M29.503 1C33.727 1 36.976 4.285 37 8.522c.024 3.916-3 7.517-7.513 7.521-4.3.004-7.585-3.284-7.537-7.641C22.002 4.089 25.427.956 29.503 1zm-.196 1.564a5.159 5.159 0 00-1.116.128c-4.037.94-5.937 5.434-3.76 8.958 1.143 1.853 2.88 2.805 5.044 2.821 1.852.016 3.44-.72 4.6-2.184 1.44-1.825 1.805-3.845.848-6.026-.184-.416-.196-.412-.532-.076-1.548 1.548-3.1 3.097-4.644 4.65-.168.167-.292.271-.512.047-1-1.02-2.012-2.028-3.029-3.033-.168-.168-.191-.292-.003-.46.216-.196.428-.4.62-.62.184-.208.32-.192.512.004.62.64 1.26 1.257 1.88 1.897.192.2.316.192.512 0 1.3-1.317 2.608-2.625 3.924-3.925.224-.224.216-.356-.016-.56-1.192-1.045-2.552-1.637-4.328-1.62zM11.457 17.464c0-1.357.008-2.717-.004-4.073-.004-.316.088-.456.416-.432.256.02.516.016.772 0 .288-.016.392.096.388.388-.008 1.228 0 2.456 0 3.685 0 1.52-.008 3.04.004 4.565.004.328-.088.48-.436.452a4.523 4.523 0 00-.736 0c-.308.02-.412-.104-.408-.408.008-1.393.004-2.785.004-4.177zM6.96 18.972c0-.864.009-1.729-.003-2.597-.004-.304.1-.428.404-.404.256.02.516.02.772 0 .308-.024.404.104.404.408-.012 1.589-.004 3.181-.004 4.77 0 .2-.004.395 0 .595.004.205-.092.3-.296.3-.304-.003-.608-.011-.912 0-.276.013-.372-.103-.368-.372.008-.9.004-1.8.004-2.7zM20.45 18.988c0-.856.016-1.708-.008-2.565-.008-.36.124-.484.468-.452.232.02.468.02.7 0 .304-.024.416.1.412.404-.012 1.033-.004 2.06-.004 3.093 0 .704 0 1.404-.004 2.108 0 .457-.012.465-.48.465-.236 0-.468-.012-.704.004-.288.02-.396-.1-.392-.389.02-.888.012-1.776.012-2.668zM17.478 7.065c-.396 0-.796-.008-1.192 0-.24.004-.337-.1-.333-.336.008-.304.005-.608 0-.912-.003-.216.076-.324.309-.32.82.008 1.636.008 2.456.004.208 0 .296.088.292.296-.008.328-.004.656 0 .984.004.216-.104.292-.304.288-.412-.008-.82-.004-1.228-.004zM17.522 20.52c0 .396-.008.797.004 1.193.004.24-.096.34-.336.332-.304-.008-.608-.004-.912 0-.216.004-.324-.076-.324-.308.004-.817.004-1.637 0-2.453 0-.208.092-.296.296-.292.328.008.656.008.98 0 .212-.004.292.104.288.3 0 .408.004.816.004 1.228zM26.519 20.52c0 .396-.008.797.004 1.193.004.24-.1.34-.336.332a23.111 23.111 0 00-.912-.004c-.216.004-.324-.076-.324-.304.004-.82.004-1.637 0-2.457 0-.208.096-.296.3-.292.328.008.656.008.984.004.212-.004.292.1.288.3-.008.408-.008.82-.004 1.228zM16.73 29.55c-.632 0-1.26-.008-1.892.004-.272.004-.384-.096-.368-.368a9.145 9.145 0 000-.876c-.008-.244.096-.328.336-.328 1.296.008 2.592.008 3.892.004.22 0 .32.08.312.308-.008.304-.012.608.004.912.012.26-.1.352-.352.352-.644-.012-1.288-.008-1.932-.008z" fill="#E04E39"/><path d="M1 7.906c.248-.793.636-1.48 1.368-1.933.488-.304 1.008-.476 1.592-.476 2.869.004 5.737 0 8.605.004.456 0 .468.012.468.476 0 .236-.016.468 0 .704.02.292-.108.392-.392.388-1.264-.008-2.528 0-3.792 0-1.592 0-3.184-.004-4.777 0-1.004.004-1.52.512-1.52 1.513-.004 5.293 0 10.586 0 15.88 0 .511.004.511.5.511 9.133 0 18.266 0 27.4-.004.48 0 .48-.004.48-.488.003-1.664.003-3.325.003-4.989 0-.492.008-.496.48-.5 1.089-.004 1.089-.004 1.089 1.08 0 3.125 0 6.254-.005 9.378 0 1.757-1.308 3.065-3.056 3.069-2.808.004-5.62 0-8.429 0-.472 0-.472 0-.472.464 0 .692.012 1.38-.004 2.073-.008.316.116.404.412.4.724-.012 1.452.004 2.177-.008.288-.004.4.108.384.392-.02.384-.017.772-.024 1.156H9.996c-.008-.372.004-.748-.024-1.12-.028-.352.124-.44.448-.432.712.02 1.428-.004 2.14.008.292.004.392-.108.388-.392-.012-.677-.004-1.357-.004-2.037 0-.504-.004-.508-.504-.508-2.828 0-5.66.004-8.489-.004-1.064-.004-1.876-.488-2.476-1.352-.228-.32-.34-.688-.476-1.049V7.906zm15.738 18.636h-3.513c-3.42 0-6.836.004-10.257-.008-.32 0-.432.096-.428.42.016.868.008 1.732.004 2.6 0 .328.08.629.28.889.316.412.752.516 1.244.516 3.597-.004 7.19-.004 10.786-.004 4.86 0 9.717.004 14.577 0 .972 0 1.492-.528 1.496-1.505.004-.82 0-1.64 0-2.46 0-.436-.012-.448-.456-.448H16.738zm.008 5.981c-.632 0-1.264.004-1.892-.004-.224-.004-.348.052-.345.312.012.772.008 1.544.005 2.313 0 .228.096.308.316.308 1.272-.004 2.548-.008 3.82-.004.244 0 .328-.096.324-.332a69.974 69.974 0 01.004-2.245c.008-.284-.108-.36-.372-.356-.624.016-1.24.008-1.86.008z" stroke="#E04E39" stroke-width=".5"/><path d="M29.503 1C33.727 1 36.976 4.285 37 8.522c.024 3.916-3 7.517-7.513 7.521-4.3.004-7.585-3.284-7.537-7.641C22.002 4.089 25.427.956 29.503 1zm-.196 1.564a5.159 5.159 0 00-1.116.128c-4.037.94-5.937 5.434-3.76 8.958 1.143 1.853 2.88 2.805 5.044 2.821 1.852.016 3.44-.72 4.6-2.184 1.44-1.825 1.805-3.845.848-6.026-.184-.416-.196-.412-.532-.076-1.548 1.548-3.1 3.097-4.644 4.65-.168.167-.292.271-.512.047-1-1.02-2.012-2.028-3.029-3.033-.168-.168-.191-.292-.003-.46.216-.196.428-.4.62-.62.184-.208.32-.192.512.004.62.64 1.26 1.257 1.88 1.897.192.2.316.192.512 0 1.3-1.317 2.608-2.625 3.924-3.925.224-.224.216-.356-.016-.56-1.192-1.045-2.552-1.637-4.328-1.62zM11.457 17.464c0-1.357.008-2.717-.004-4.073-.004-.316.088-.456.416-.432.256.02.516.016.772 0 .288-.016.392.096.388.388-.008 1.228 0 2.456 0 3.685 0 1.52-.008 3.04.004 4.565.004.328-.088.48-.436.452a4.523 4.523 0 00-.736 0c-.308.02-.412-.104-.408-.408.008-1.393.004-2.785.004-4.177zM6.96 18.972c0-.864.009-1.729-.003-2.597-.004-.304.1-.428.404-.404.256.02.516.02.772 0 .308-.024.404.104.404.408-.012 1.589-.004 3.181-.004 4.77 0 .2-.004.395 0 .595.004.205-.092.3-.296.3-.304-.003-.608-.011-.912 0-.276.013-.372-.103-.368-.372.008-.9.004-1.8.004-2.7zM20.45 18.988c0-.856.016-1.708-.008-2.565-.008-.36.124-.484.468-.452.232.02.468.02.7 0 .304-.024.416.1.412.404-.012 1.033-.004 2.06-.004 3.093 0 .704 0 1.404-.004 2.108 0 .457-.012.465-.48.465-.236 0-.468-.012-.704.004-.288.02-.396-.1-.392-.389.02-.888.012-1.776.012-2.668zM17.478 7.065c-.396 0-.796-.008-1.192 0-.24.004-.337-.1-.333-.336.008-.304.005-.608 0-.912-.003-.216.076-.324.309-.32.82.008 1.636.008 2.456.004.208 0 .296.088.292.296-.008.328-.004.656 0 .984.004.216-.104.292-.304.288-.412-.008-.82-.004-1.228-.004zM17.522 20.52c0 .396-.008.797.004 1.193.004.24-.096.34-.336.332-.304-.008-.608-.004-.912 0-.216.004-.324-.076-.324-.308.004-.817.004-1.637 0-2.453 0-.208.092-.296.296-.292.328.008.656.008.98 0 .212-.004.292.104.288.3 0 .408.004.816.004 1.228zM26.519 20.52c0 .396-.008.797.004 1.193.004.24-.1.34-.336.332a23.111 23.111 0 00-.912-.004c-.216.004-.324-.076-.324-.304.004-.82.004-1.637 0-2.457 0-.208.096-.296.3-.292.328.008.656.008.984.004.212-.004.292.1.288.3-.008.408-.008.82-.004 1.228zM16.73 29.55c-.632 0-1.26-.008-1.892.004-.272.004-.384-.096-.368-.368a9.145 9.145 0 000-.876c-.008-.244.096-.328.336-.328 1.296.008 2.592.008 3.892.004.22 0 .32.08.312.308-.008.304-.012.608.004.912.012.26-.1.352-.352.352-.644-.012-1.288-.008-1.932-.008z" stroke="#E04E39" stroke-width=".5"/></svg>