<?xml version="1.0" encoding="utf-8"?><svg width="30" height="33" fill="none" xmlns="http://www.w3.org/2000/svg" viewBox="0 0 30 33"><path d="M15.91 0c.603.072 1.207.143 1.81.239 1.901.287 3.713.86 5.479 1.65.514.238.67.525.514.884-.134.334-.447.406-.939.167-2.146-.98-4.383-1.601-6.708-1.769C12.556.908 9.09 1.243 5.78 2.63c-1.162.478-2.258 1.1-3.175 2.008-.85.837-1.498 1.793-1.475 3.108.022.932.402 1.697.961 2.366.447.526.961.98 1.498 1.387.358.263.403.669.134.932-.179.167-.38.239-.581.12C1.733 11.592.548 10.445.146 8.63c-.358-1.507.134-2.87 1.05-4.064C2.36 3.107 3.88 2.223 5.513 1.53 7.636.645 9.85.215 12.108.048c.09 0 .157-.024.224-.048h3.578z" fill="#E04E39"/><path d="M26.844 10.78c-.425.407-.716.79-1.096 1.1-1.588 1.339-3.421 2.151-5.366 2.701-1.543.43-3.109.67-4.696.789-2.884.191-5.724-.072-8.52-.909-.066-.023-.156-.047-.223-.071a.581.581 0 01-.335-.67c.09-.286.335-.478.648-.406.649.144 1.275.335 1.9.478 1.41.311 2.818.454 4.25.478 2.436.048 4.829-.215 7.155-.932 1.61-.502 3.152-1.195 4.471-2.319a6.47 6.47 0 001.074-1.17c1.028-1.459.961-3.156-.18-4.542a10.62 10.62 0 00-1.14-1.148c-.313-.263-.357-.574-.178-.836.2-.287.514-.335.827-.072 1.163.932 2.102 2.032 2.415 3.61.067.334.09.669.09 1.003 0 1.291-.023 2.558 0 3.849.044 1.792-.694 3.203-1.924 4.35-1.721 1.626-3.8 2.462-5.992 3.06-2.505.669-5.076.836-7.647.693-2.482-.143-4.92-.622-7.223-1.65a12.784 12.784 0 01-1.766-.956c-.157-.095-.268-.143-.313.12-.045.239-.224.382-.38.526a5.224 5.224 0 00-1.32 1.816c-.536 1.244-.245 2.678.783 3.825 1.118 1.243 2.482 2.032 3.98 2.605a20.167 20.167 0 006.037 1.34c.492.023 1.007.047 1.498.047h.18c.402.024.648.263.648.598 0 .358-.246.573-.67.573-3.288-.048-6.508-.573-9.504-2.103-1.096-.574-2.124-1.291-2.952-2.271-.067-.072-.111-.168-.245-.215-.135 1.29-.023 2.51.804 3.537.112.12.18.168.314.024.156-.167.357-.239.58-.12.224.12.314.312.314.575v.023c-.134.67.29.957.738 1.22.134.071.223.071.268-.096.09-.31.29-.454.604-.43.268.024.425.287.447.669 0 .191-.09.454.067.598.224.19.514.262.76.358.135.048.135-.072.157-.167.067-.43.268-.622.581-.574.313.048.447.263.47.67 0 .167-.09.406.09.501.245.144.536.215.804.24.09.023.112-.072.112-.144 0-.096 0-.167.022-.263.045-.287.291-.478.537-.454.268.024.47.239.492.526.067.669.067.669.693.765.224.047.313 0 .313-.263.022-.407.224-.67.514-.67.313 0 .537.263.56.67.044.454.044.454.469.478.09 0 .156 0 .246.024.179.047.268-.024.268-.24v-.262c.045-.311.246-.502.492-.526.268-.024.492.167.56.478 0 .024 0 .048.022.072.044.167-.068.406.089.502.224.12.47.047.716.023.134 0 .156-.12.156-.239 0-.12 0-.239.022-.358.045-.31.269-.502.537-.502s.447.215.514.502c.045.167-.067.406.112.502.134.072.313-.048.47-.024.29.024.402-.096.402-.43-.022-.454.201-.717.537-.717.313 0 .537.239.537.669 0 .239.111.31.313.263.067-.024.111-.024.178-.024.448-.072.448-.072.492-.574 0-.072.023-.143.023-.215.067-.287.29-.478.536-.454.269.024.515.215.492.55 0 .358.134.382.38.263h.023c.581-.168.581-.168.604-.79.022-.358.2-.573.491-.597.291-.024.537.168.56.502.022.263.134.263.312.191.045-.023.09-.047.135-.047.559-.24.559-.24.559-.86 0-.36.179-.598.47-.646.267-.048.469.143.58.502.045.143.09.143.18.071.223-.143.447-.286.67-.454a.365.365 0 00.157-.358v-.55c.044-.502.492-.741.872-.43.179.167.268.095.38-.072.47-.646.782-1.363.805-2.175.022-.407.246-.646.581-.622.313.024.537.311.515.717-.068 1.124-.47 2.104-1.14 2.964-1.052 1.363-2.438 2.223-3.936 2.893-1.856.86-3.824 1.29-5.814 1.553-1.386.192-2.772.215-4.159.144-2.772-.12-5.456-.622-8.005-1.817-1.52-.717-2.907-1.625-3.913-3.083-.536-.813-.85-1.817-.85-2.917 0-1.29.023-2.557 0-3.848-.044-1.721.671-3.06 1.812-4.207.111-.12.223-.215.335-.31.29-.24.29-.24 0-.503A6.566 6.566 0 01.75 14.605c-.581-.956-.805-2.008-.737-3.131.022-.383.268-.646.559-.622.335.024.559.287.536.693-.022.813.045 1.602.47 2.295.09.143.156.263.246.406.134.215.223.455.536.144.246-.263.671-.072.783.287.022.095.045.215.045.31.022.67.223.98.782 1.22.134.047.18 0 .224-.12.134-.359.335-.502.604-.454.268.048.447.287.447.67 0 .597.268.883.827.98.157.023.157-.073.179-.192.067-.406.246-.598.537-.598.313.024.492.263.514.67 0 .19-.09.43.09.55.245.167.536.214.804.238.09.024.112-.071.112-.143 0-.096 0-.191.022-.287.068-.287.314-.478.56-.454.223.024.447.24.469.502v.072c.045.693.045.693.716.765.2.024.313-.048.29-.263 0-.096 0-.168.023-.263.089-.263.246-.407.514-.43.246 0 .402.143.492.406.022.071.022.143.044.215.045.167-.066.406.09.478.224.12.47.12.716.096.111 0 .156-.072.156-.192v-.19c.022-.431.224-.67.559-.67.29 0 .514.287.537.645.022.454.022.454.47.454h.245c.18 0 .246-.071.246-.262 0-.144 0-.287.045-.407.067-.263.246-.43.492-.43.268 0 .447.167.514.43.022.096.045.191.022.287-.022.263.09.359.336.31.067-.023.134-.047.201-.023.335.024.47-.12.447-.478-.022-.407.224-.693.537-.693.313 0 .537.239.537.669 0 .263.111.31.335.263a1.23 1.23 0 01.29-.048c.269-.024.38-.143.358-.43v-.215c.045-.383.269-.622.56-.598.29.024.514.24.514.645 0 .24.09.311.29.24.045-.025.09-.025.134-.048.649-.215.56-.072.582-.79 0-.358.201-.597.492-.62.268-.025.514.19.537.525.022.24.111.311.313.191.067-.024.134-.047.2-.095.515-.215.515-.215.515-.813v-.167c.022-.311.201-.502.47-.55.268-.024.514.12.559.43.044.263.134.24.29.12.09-.072.157-.12.246-.168.38-.19.56-.502.492-.956-.045-.286.023-.55.268-.693.269-.143.492-.072.671.143.112.12.18.024.246-.071.492-.67.85-1.387.85-2.271.045-.383.045-.813.045-1.339z" fill="#E04E39"/><path d="M28.9 17.426c-.357.358-.648.693-.96.98-1.387 1.267-2.997 2.032-4.719 2.581a21.967 21.967 0 01-6.328 1.052c-.268 0-.514.048-.782.024-.38-.024-.604-.263-.604-.574 0-.334.246-.573.649-.573 2.124-.024 4.226-.287 6.283-.909 1.61-.478 3.152-1.147 4.516-2.247.582-.454 1.096-1.004 1.454-1.649.648-1.171.648-2.367 0-3.538-.022-.048-.067-.12-.09-.167-.178-.335-.134-.645.157-.837.246-.167.559-.071.76.24.38.597.604 1.242.716 1.96.067.406.044.788.044 1.195 0 1.17-.022 2.318 0 3.49.023 1.482-.514 2.7-1.43 3.752-1.208 1.363-2.729 2.176-4.338 2.845l-.738.287c-.403.167-.738-.072-.76-.526-.023-.359 0-.741 0-1.1 0-.31.245-.55.514-.573.268 0 .514.215.514.526 0 .262.09.334.313.215.045-.024.067-.048.112-.048.47-.096.67-.383.604-.909-.045-.334.156-.573.424-.621.291-.048.515.096.626.43.067.192.157.192.291.096.067-.048.112-.096.179-.12.425-.19.626-.525.559-1.051-.045-.263.022-.526.29-.67.247-.12.47-.071.672.144.111.12.2.047.268-.048.358-.502.67-1.052.782-1.697.067-.646-.022-1.267.023-1.96z" fill="#E04E39"/><path d="M15.462 26.485c-1.945-.024-4.382-.335-6.752-1.123-1.543-.502-2.997-1.22-4.271-2.271-.828-.694-1.543-1.506-1.99-2.558a3.888 3.888 0 01-.18-.55c-.089-.382.068-.67.381-.765.268-.071.537.096.648.43.157.503.38.933.671 1.363.134.191.224.24.38.048.157-.167.358-.167.56-.072.2.096.29.263.29.478v.072c-.156.717.268 1.052.783 1.315.134.071.2.12.246-.096.067-.335.29-.502.581-.478.268.024.447.239.447.574.045.74.045.74.738 1.004.179.071.268.071.29-.192.023-.334.27-.573.56-.55.29.024.47.24.492.622v.287c-.023.239.09.358.29.406.067.024.135.048.202.048.424.12.402.12.514-.335.067-.286.246-.454.514-.454s.425.168.492.43c.022.096.022.192.045.287.022.144-.067.359.09.454.223.12.513.144.76.144.134 0 .111-.167.111-.263 0-.191.045-.382.202-.526.156-.143.335-.191.536-.095.224.095.313.286.358.525.022.168-.067.407.112.502.201.144.447.072.67.072.157 0 .18-.12.18-.263 0-.191.022-.406.156-.55.157-.167.335-.239.559-.167.268.096.358.287.38.55.022.167-.09.382.112.454.246.072.492.072.738 0 .09-.024.09-.12.112-.215 0-.096 0-.215.022-.31.045-.312.29-.527.559-.527.268.024.47.263.514.574.023.143-.067.382.134.406.246.048.515.048.76-.095.068-.048.068-.12.068-.215.022-.12.022-.263.044-.383.067-.31.291-.478.56-.454.245.024.447.239.469.55.045.43.045.43.447.358.09-.024.201-.048.29-.048.202-.023.292-.143.27-.334v-.359c.021-.31.245-.526.513-.526.246 0 .515.215.515.502.022.359.044.694.156 1.028.09.24-.09.526-.38.646-.47.167-.961.215-1.453.286-1.252.24-2.594.359-4.495.359zM11.281 2.892c.335 0 .604.191.626.502.023.287-.179.55-.537.622-1.006.143-2.012.31-2.996.597-1.14.335-2.258.741-3.22 1.506-.357.287-.67.598-.85 1.028-.245.622-.089 1.124.314 1.602.693.836 1.61 1.266 2.549 1.649 1.453.574 2.974.86 4.494 1.028.716.072 1.431.12 2.147.12.425 0 .67.214.67.573 0 .358-.268.598-.693.598-.693-.024-1.408-.048-2.101-.12-1.543-.143-3.064-.43-4.54-.98-1.162-.43-2.28-.98-3.175-1.912-1.14-1.22-1.14-2.701-.022-3.944.738-.813 1.632-1.315 2.594-1.721 1.475-.622 2.996-.957 4.561-1.124.09-.024.134-.024.179-.024zM14.009 2.725c2.303.048 4.561.287 6.753 1.076 1.207.43 2.348.98 3.242 1.984.47.502.805 1.1.805 1.864 0 .383-.179.622-.492.622s-.514-.192-.537-.55c-.044-.67-.425-1.1-.872-1.482-.961-.813-2.102-1.267-3.264-1.602a18.178 18.178 0 00-4.226-.693c-.604-.024-1.23-.024-1.834-.048-.38 0-.626-.215-.648-.526-.023-.334.223-.597.603-.621.135-.048.291-.024.47-.024zM4.618 13.123c0-.287.268-.574.536-.574.269 0 .515.263.537.55a.568.568 0 01-.514.598c-.269 0-.537-.263-.56-.574z" fill="#E04E39"/></svg>