<?xml version="1.0" encoding="utf-8"?><svg width="39" height="26" fill="none" xmlns="http://www.w3.org/2000/svg" viewBox="0 0 39 26"><path d="M0 13.405c.153-.924.371-1.828.764-2.691C2.14 7.775 4.433 5.823 7.708 4.96c.72-.185 1.114-.493 1.507-1.09 1.681-2.63 4.193-3.986 7.468-3.862 2.468.102 4.477 1.15 5.983 2.98.24.266.415.328.786.246 4.127-.904 8.102 1.52 8.91 5.322.13.575.35.822.96 1.007 3.101.966 4.98 3 5.612 6.02l.066.247v2.014c-.218 1.192-.633 2.342-1.376 3.329-1.42 1.87-3.319 3-5.743 3.288-1.332.164-2.664.04-3.996.061-.196 0-.306-.061-.306-.267v-1.068c0-.247.175-.268.394-.268h2.86c3.057 0 5.656-1.91 6.333-4.685.83-3.35-1.463-6.657-5.044-7.294-.765-.144-1.201-.596-1.289-1.274-.24-2.076-1.288-3.617-3.319-4.5-1.31-.576-2.686-.638-4.083-.206-.7.226-1.376 0-1.791-.575-1.441-1.932-3.385-2.918-5.874-2.733-2.577.185-4.411 1.5-5.46 3.74-.24.534-.654.862-1.266.965-3.821.617-6.747 3.473-7.293 7.13-.655 4.398 2.598 8.59 7.228 9.33.677.102 1.354.143 2.052.123.284 0 .415.103.415.37-.021.329 0 .637 0 .966 0 .185-.087.267-.305.287-2.905.082-5.481-.719-7.643-2.568-1.944-1.644-3.1-3.72-3.45-6.165 0-.04-.022-.062-.044-.103v-2.322z" fill="#E04E39"/><path d="M18.627 22.92v-.596-9.555c0-.514 0-.514.545-.514.262 0 .503.021.765 0 .327-.02.415.103.415.39v9.987c0 .083 0 .185.021.288.175-.02.219-.144.306-.205 1.136-1.069 2.271-2.117 3.385-3.185.24-.226.393-.226.611 0 .197.205.393.41.612.575.24.185.24.329 0 .555-.918.842-1.835 1.726-2.752 2.568-.917.863-1.856 1.726-2.773 2.61-.218.206-.35.226-.59 0a630.587 630.587 0 00-5.48-5.158c-.24-.226-.284-.39 0-.596.24-.184.436-.39.655-.595.196-.206.327-.165.524 0l3.406 3.205c.11.062.175.185.35.226z" fill="#E04E39"/></svg>