<?xml version="1.0" encoding="utf-8"?><svg width="50" height="46" fill="none" xmlns="http://www.w3.org/2000/svg" viewBox="0 0 50 46"><path d="M22.063 45.997c-6.434 0-12.869.003-19.3 0-1.68 0-2.75-1.078-2.753-2.796C.003 33.12 0 23.04 0 12.96c0-1.654 1.117-2.764 2.744-2.761.437 0 .874.01 1.311 0 .608-.016.934-.33.96-.95.02-.462.005-.927.005-1.39-.003-1.647 1.045-2.776 2.666-2.784 3.779-.018 7.56-.015 11.338.006 1.2.008 2.11.56 2.537 1.75.158.436.262.404.543.113 2.072-2.133 4.154-4.256 6.233-6.378.745-.762 1.089-.756 1.844.018C35.99 6.522 41.796 12.462 47.602 18.4c.191.195.396.354.66.452 1.326.483 2.006 1.784 1.64 3.166-1.366 5.153-2.745 10.302-4.116 15.451-.569 2.136-1.14 4.272-1.701 6.41C43.733 45.224 42.773 46 41.41 46c-6.445 0-12.895-.003-19.348-.003zm-.018-1.79h19.15c.828 0 1.017-.15 1.237-.972a7675.5 7675.5 0 002.24-8.396c1.166-4.372 2.333-8.742 3.494-13.117.212-.793-.088-1.181-.887-1.194l-.202.002-16.632-.002c-7.208 0-14.413 0-21.62.002-.896 0-1.004.087-1.234.947-1.242 4.634-2.48 9.27-3.717 13.907-.685 2.567-1.365 5.133-2.04 7.703-.168.637.163 1.078.807 1.115.201.011.403.003.605.003 6.266.003 12.532.003 18.799.003zm5.6-25.625c-.503-.494-.927-.902-1.34-1.322-.882-.896-1.767-1.79-2.633-2.701-.383-.405-.388-.944-.06-1.298.334-.36.83-.362 1.27.002.142.12.274.254.406.386 1.448 1.483 2.907 2.953 4.337 4.455.378.396.763.584 1.317.581 4.637-.021 9.274-.013 13.91-.016.128 0 .27.05.384-.084-.06-.23-.259-.347-.406-.497-5.07-5.19-10.146-10.37-15.207-15.565-.316-.323-.487-.254-.763.029-5.116 5.242-10.237 10.473-15.355 15.71-.098.1-.264.17-.22.402h5.129c.142 0 .238-.066.318-.206.491-.851.975-.93 1.65-.23.32.333.66.465 1.112.46 1.648-.024 3.292-.008 4.94-.019.346-.002.7.061 1.21-.087zM1.75 36.264c.023.003.046.008.07.01.468-1.75.939-3.5 1.404-5.25.908-3.41 1.803-6.825 2.728-10.232.383-1.41 1.36-2.115 2.794-2.115.419 0 .84-.018 1.26.005.434.024.754-.13 1.065-.449 2.697-2.778 5.392-5.56 8.13-8.295.567-.566.88-1.134.761-1.933-.01-.066 0-.137-.003-.206-.023-.581-.271-.854-.835-.87-.52-.015-1.042-.002-1.562-.002-3.274 0-6.55 0-9.825.005-.74 0-.95.228-.957.991-.005.497.005.997-.008 1.494-.041 1.454-1.138 2.556-2.555 2.575-.52.008-1.042-.006-1.562.01-.535.016-.838.307-.89.849-.02.222-.015.447-.015.669v22.744z" fill="#E04E39"/><path d="M36.052 17.15c-.411 0-.634-.143-.83-.341-1.117-1.142-2.24-2.277-3.35-3.424-.413-.428-.418-.951-.046-1.327.357-.36.859-.357 1.26.05a537.062 537.062 0 013.419 3.498c.281.29.41.632.23 1.03-.155.344-.435.508-.683.514z" fill="#E04E39"/></svg>