<?xml version="1.0" encoding="utf-8"?><svg width="27" height="38" fill="none" xmlns="http://www.w3.org/2000/svg" viewBox="0 0 27 38"><path d="M26.983 22.48c0 4.55-.024 9.096.017 13.646.01 1.093-.846 1.88-1.904 1.874-7.73-.03-15.458-.03-23.189 0C.794 38.003 0 37.186 0 36.122c.02-9.173.01-18.346.014-27.52 0-1.016.763-1.743 1.842-1.756.955-.01 1.914-.01 2.869 0 .294.003.431-.081.41-.39-.02-.29-.01-.586 0-.875.014-.435.233-.65.679-.66.49-.01.982-.017 1.472 0 .27.01.38-.08.438-.35.305-1.447.993-2.679 2.267-3.51 3.098-2.019 7.029-1.03 8.73 1.891.291.502.476 1.044.572 1.609.044.262.164.367.438.357.466-.017.931-.01 1.397-.004.534.007.726.195.733.71.003.28.014.559-.004.838-.017.283.107.384.387.38.904-.01 1.811-.003 2.715-.006.71-.004 1.329.171 1.75.79.219.324.274.674.274 1.05V22.48zm-25.61-.064c.003 0 .003 0 0 0 .003 4.523.003 9.046.003 13.565 0 .683.065.74.754.74H25.04c.517 0 .699-.171.723-.673.007-.128.003-.252.003-.38v-8.46V8.764c0-.491-.113-.602-.616-.606-.712-.007-1.42-.003-2.133-.007-1.078 0-1.078 0-1.082 1.064 0 .777-.157.932-.952.932l-11.863.003c-1.048 0-2.095.004-3.14-.003-.561-.003-.77-.219-.777-.764-.003-.293-.01-.585.004-.875.013-.269-.103-.36-.367-.357-.996.007-1.989.007-2.985.007-.315 0-.483.148-.483.465 0 .215-.003.43-.003.646.003 4.384.003 8.766.003 13.147zM13.479 8.885c2.222 0 4.448-.007 6.67.007.342.003.452-.105.442-.438a26.078 26.078 0 01-.004-1.867c.01-.327-.12-.421-.431-.407-.425.02-.853.01-1.28.003-.518-.01-.716-.202-.764-.714-.02-.225-.031-.457-.069-.68-.356-1.94-2.506-3.617-4.656-3.499-2.297.125-4.403 1.538-4.489 4.19-.017.48-.24.693-.725.703-.452.01-.904.02-1.356 0-.315-.014-.404.108-.394.4.017.61.024 1.222-.003 1.828-.018.36.085.484.469.48 2.194-.016 4.392-.006 6.59-.006z" fill="#E04E39"/><path d="M3.506 31.402c0-.801-.003-1.602 0-2.4.004-.541.185-.78.72-.787 1.513-.02 3.022-.02 4.536-.003.458.003.729.276.732.73.014 1.652.014 3.301-.003 4.953-.003.471-.236.656-.716.66-1.5.003-2.999.007-4.498 0-.593-.004-.77-.192-.774-.791.003-.787.003-1.575.003-2.362zm1.291-.017c0 .508.01 1.016-.003 1.524-.007.27.065.394.366.39.89-.013 1.78-.01 2.674-.003.243.004.353-.084.353-.333-.007-1.04-.007-2.08 0-3.123 0-.245-.113-.34-.353-.336-.89.003-1.78.006-2.674 0-.264-.004-.37.094-.363.36.007.505 0 1.013 0 1.52zM3.506 14.933c0-.787-.003-1.575 0-2.362.004-.596.202-.788.825-.788 1.449-.003 2.893 0 4.342.004.547 0 .804.232.825.787.02.596.01 1.195.01 1.79v2.898c0 .656-.24.888-.917.888H4.403c-.691 0-.897-.205-.9-.888 0-.781.003-1.555.003-2.33zm1.288-.01c0 .521.01 1.043-.004 1.561-.007.263.1.364.366.36.88-.007 1.757-.007 2.637 0 .28.004.394-.1.39-.38-.01-1.016-.007-2.032 0-3.049 0-.249-.072-.373-.353-.37-.89.01-1.783.01-2.674-.003-.263-.004-.373.087-.362.353.01.511 0 1.02 0 1.528zM9.505 23.167c0 .774.007 1.548-.003 2.326-.007.656-.223.871-.89.875-1.408.01-2.818.01-4.226 0-.695-.004-.88-.199-.88-.865-.003-1.562-.003-3.123 0-4.688 0-.63.172-.797.798-.8a923.89 923.89 0 014.342 0c.599 0 .852.245.856.83.01.771.006 1.548.003 2.322zm-1.328.004c0-.508-.01-1.017.003-1.521.007-.283-.106-.38-.387-.377-.876.01-1.756.01-2.633 0-.257-.004-.373.074-.37.346.01 1.027.01 2.056 0 3.083-.003.259.093.367.36.363.876-.007 1.756-.013 2.633 0 .311.004.404-.128.397-.414-.01-.491 0-.986-.003-1.48zM17.68 15.841h4.842c.116 0 .233-.003.35.007.427.04.68.273.687.633.01.37-.215.622-.664.64-.787.03-1.575.023-2.362.023-2.507.003-5.01 0-7.515 0-.257 0-.517.013-.77-.047-.32-.074-.494-.286-.497-.596-.004-.306.15-.538.472-.616.147-.037.305-.047.459-.047 1.667-.003 3.335 0 4.999.003 0-.003 0-.003 0 0zM17.64 30.268H12.6c-.322 0-.627-.034-.781-.374-.178-.387.02-.794.445-.882.384-.077.774-.05 1.16-.05 3.014-.003 6.023-.003 9.036.003.206 0 .418.004.613.058.318.087.503.32.486.649-.014.32-.216.508-.53.569a2.113 2.113 0 01-.387.027c-1.668.003-3.335.003-5.003 0zM17.65 25.331h-5.115c-.51 0-.788-.222-.788-.63 0-.396.284-.628.798-.628 3.396-.004 6.796-.004 10.193-.004.078 0 .157 0 .232.014.394.067.63.356.593.72-.034.34-.264.528-.678.528-1.51.003-3.023.003-4.533.003-.236-.003-.47-.003-.702-.003zM17.667 33.559h-5.111c-.254 0-.5-.017-.664-.232a.608.608 0 01-.09-.647c.117-.265.333-.38.613-.383.658-.007 1.319-.007 1.976-.007h8.21c.13 0 .26-.007.387.014.353.05.585.32.575.656-.01.34-.25.582-.626.592-.593.013-1.189.007-1.78.007-1.165.003-2.329.003-3.49 0 0 .003 0 .003 0 0zM17.634 20.778c1.704 0 3.413.003 5.118-.003.257 0 .49.033.66.245.155.195.2.407.097.643-.12.266-.346.37-.623.374-.867.006-1.733.006-2.6.006h-7.6c-.079 0-.154.004-.233-.003-.441-.027-.715-.28-.708-.65.006-.373.28-.612.732-.612 1.716-.003 3.438 0 5.157 0zM17.633 13.812h-5.077c-.267 0-.524-.027-.688-.265a.61.61 0 01-.052-.65c.13-.26.36-.35.637-.35l3.451-.003h6.708c.102 0 .208-.004.311.006.373.034.64.307.64.643-.003.35-.253.6-.653.613-.583.016-1.165.006-1.747.006h-3.53zM13.49 2.186c1.212.01 2.208.962 2.208 2.11 0 1.245-.982 2.244-2.205 2.251-1.232.003-2.242-1.006-2.225-2.221.02-1.195 1.01-2.15 2.222-2.14zm.89 2.22c.003-.52-.39-.941-.894-.952-.5-.013-.934.428-.927.93.006.5.4.864.93.864.535-.003.888-.336.891-.841z" fill="#E04E39"/><path d="M7.965 30.692a.885.885 0 01-.171.47c-.298.428-.59.862-.897 1.283-.285.387-.541.43-.96.185-.232-.135-.468-.27-.68-.43-.244-.186-.37-.455-.223-.738.154-.296.459-.393.76-.259.267.118.373.003.497-.182.164-.242.332-.48.517-.71.191-.238.451-.286.732-.185.267.098.404.3.425.566zM6.407 16.33c-.377.003-1.267-.586-1.377-.869-.071-.188-.085-.38.066-.535.167-.175.393-.293.626-.192.315.135.473.007.627-.235.126-.206.274-.4.424-.59.26-.319.593-.37.918-.147.284.192.37.518.164.838-.322.505-.674.989-1.024 1.477a.6.6 0 01-.424.252zM6.239 24.56c-.4-.201-.873-.39-1.168-.814-.144-.205-.116-.444.055-.633.181-.201.428-.333.688-.201.284.14.414.03.551-.192.134-.216.285-.424.445-.62.233-.279.565-.323.863-.134.288.182.394.522.199.831-.325.515-.685 1.013-1.041 1.508-.127.171-.315.256-.592.256z" fill="#E04E39"/></svg>