<?xml version="1.0" encoding="utf-8"?><svg width="27" height="31" fill="none" xmlns="http://www.w3.org/2000/svg" viewBox="0 0 27 31"><path d="M18.302 31c-1.074-.032-2.188-.079-3.3-.04-2.373.078-4.745.015-7.118.035-.676.007-.778-.116-.638-.776.157-.754.32-1.503.485-2.255.06-.281.036-.313-.25-.313-.366 0-.732-.006-1.098.012-.39.017-.658-.142-.804-.5a16.627 16.627 0 01-.671-2.001 1.6 1.6 0 01-.034-.141c-.04-.2-.121-.26-.314-.132-.393.26-.795.503-1.195.752-.95.592-1.902 1.185-2.852 1.775-.108.067-.22.11-.344.043-.13-.072-.175-.19-.168-.327.067-1.429.137-2.86.202-4.29.024-.534.04-1.066.058-1.601.018-.526.025-1.051.054-1.577.025-.452.238-.82.573-1.118.907-.812 1.738-1.703 2.677-2.48.36-.298.41-.721.449-1.144.234-2.682.896-5.243 2.127-7.65.961-1.878 2.198-3.551 3.755-4.985a15.796 15.796 0 012.83-2.06c.516-.297 1.02-.306 1.545-.004 2.367 1.362 4.258 3.218 5.715 5.52 1.48 2.335 2.392 4.878 2.812 7.6.099.64.182 1.282.209 1.928.011.28.148.488.343.671 1.002.937 2 1.877 2.999 2.816.249.235.352.533.363.873.05 1.456.1 2.91.153 4.366.038.993.086 1.988.13 2.981.003.056.005.114.005.17-.007.322-.211.436-.485.268-.699-.429-1.393-.865-2.089-1.3-.655-.406-1.311-.813-1.967-1.218-.25-.154-.26-.148-.335.13-.184.689-.4 1.366-.665 2.03-.208.522-.33.596-.895.591a79.454 79.454 0 00-1.025 0c-.28.002-.323.056-.262.34.161.752.325 1.503.49 2.255.017.087.037.174.05.261.041.275-.053.419-.33.461-.381.06-.765.011-1.185.034zM13.516 9.867c-1.992-.002-3.984-.002-5.974-.002-.445 0-.57.09-.71.51-.624 1.872-.947 3.8-1.03 5.764a27.365 27.365 0 00.074 3.614 28.99 28.99 0 001.028 5.503c.146.5.196.537.712.537 2.399-.003 4.795-.005 7.194-.005 1.56 0 3.121.005 4.682.005.353 0 .47-.074.555-.356a26.173 26.173 0 001.13-6.56 28.357 28.357 0 00-.079-3.856 21.124 21.124 0 00-.961-4.673c-.14-.423-.218-.476-.67-.476-1.985-.005-3.968-.005-5.951-.005zm-.052-1.858h5.096c.622 0 .609.03.303-.508-1.201-2.112-2.78-3.879-4.806-5.236-.494-.331-.669-.318-1.168.018-2.088 1.406-3.685 3.254-4.9 5.44-.153.274-.146.286.162.286h5.313zm.202 19.638c0 .002 0 .002 0 0-.95.002-1.902.002-2.852.002-.242 0-.485 0-.73.036-.229.036-.375.152-.43.369-.068.257-.12.521-.187.778-.052.206.034.296.231.291.283-.005.568-.03.851-.027 1.096.011 2.194-.011 3.29.023 1.08.033 2.163.006 3.243.006.081 0 .162-.013.243-.018.168-.01.227-.102.195-.261-.049-.237-.103-.474-.148-.714-.092-.47-.112-.487-.584-.487-1.04.002-2.08.002-3.122.002zM3.863 18.37c-.119.025-.161.1-.22.155-.38.353-.747.72-1.138 1.062a.912.912 0 00-.337.693c-.038.987-.092 1.97-.13 2.957-.014.343-.003.685-.003 1.036.708-.439 1.41-.875 2.114-1.309.168-.102.21-.237.175-.431a22.141 22.141 0 01-.317-2.306c-.047-.613-.094-1.226-.144-1.857zm19.265-.074c-.015.076-.024.099-.024.123a30.216 30.216 0 01-.41 4.073c-.04.24.017.376.216.5.596.362 1.184.737 1.777 1.104.065.04.134.123.215.083.086-.043.048-.145.045-.221-.033-1.099-.067-2.197-.112-3.295-.018-.427.002-.85-.418-1.17-.456-.349-.844-.778-1.289-1.197z" fill="#E04E39"/><path d="M10.055 16.186c.004-1.86 1.538-3.335 3.463-3.33 1.9.007 3.445 1.505 3.44 3.34-.002 1.86-1.579 3.392-3.488 3.388-1.875-.003-3.42-1.54-3.415-3.398zm1.918.038c.002.873.644 1.497 1.538 1.497.853 0 1.536-.663 1.536-1.488 0-.895-.631-1.512-1.543-1.512-.943.002-1.536.582-1.531 1.503z" fill="#E04E39"/></svg>