<?xml version="1.0" encoding="utf-8"?><svg width="30" height="31" fill="none" xmlns="http://www.w3.org/2000/svg" viewBox="0 0 30 31"><path d="M30 18.432c-.008 2.002-1.513 3.556-3.672 3.768-1.686.166-3.523-1.277-3.893-3.059-.047-.228.016-.567-.228-.662-.402-.15-.851-.213-1.277-.284-.126-.024-.165.134-.213.237-.37.93-.993 1.679-1.741 2.318-.237.197-.26.354-.11.615.307.536.598 1.08.866 1.64.142.3.347.402.662.339 1.836-.363 4.106 1.12 4.31 3.366.206 2.31-1.441 4.234-3.687 4.273-1.529.032-2.75-.662-3.483-2.026-.749-1.403-.662-2.822.323-4.076.402-.505.473-.867.102-1.388-.276-.394-.48-.851-.693-1.293-.126-.26-.268-.354-.568-.276-2.064.576-3.924.134-5.579-1.198-.228-.181-.378-.213-.63-.008-.922.75-1.852 1.49-2.798 2.208-.244.189-.323.339-.212.646.85 2.381-.86 4.873-3.373 5.062-1.994.15-4.02-1.42-4.066-3.658-.016-1.514.59-2.713 1.914-3.477 1.285-.741 2.609-.757 3.885.039.324.197.536.174.82-.063a82.926 82.926 0 012.64-2.09c.3-.228.307-.425.165-.74-.961-2.058-.85-4.069.37-5.993.158-.252.15-.417-.062-.622a392.745 392.745 0 01-3.625-3.627c-.197-.197-.386-.245-.646-.11C3.105 9.482.197 7.802.008 4.94c-.126-1.86 1.576-3.808 3.475-3.934C6.525.81 8.55 3.68 7.321 6.455c-.142.316-.079.49.15.71a242.255 242.255 0 013.483 3.485c.275.284.48.323.827.094 1.221-.788 2.561-1.103 4.003-.875.363.055.607-.031.694-.41.008-.031.023-.063.031-.094.434-.828.457-1.451-.339-2.224-1.016-.985-1.127-2.357-.606-3.69.543-1.395 1.6-2.262 3.096-2.436 2.853-.323 5.028 2.35 4.13 5.03-.497 1.483-1.93 2.578-3.499 2.594-.457.008-.678.15-.796.576-.11.426-.418.835-.394 1.238.024.433.607.52.914.796 1.395 1.23 2.16 2.752 2.19 4.612.009.355.111.56.482.576a.46.46 0 01.141.031c.6.245.97.071 1.364-.488.977-1.388 2.64-1.83 4.255-1.27 1.64.6 2.553 1.924 2.553 3.722zm-14.925 1.931c2.435-.008 4.334-1.931 4.326-4.383-.008-2.453-1.954-4.345-4.452-4.321-2.388.024-4.287 1.963-4.295 4.391 0 2.397 1.97 4.313 4.421 4.313zM1.868 24.818c0 1.143.906 2.05 2.049 2.034 1.087-.016 2.001-.954 2.001-2.05 0-1.12-.922-1.979-2.096-1.979-1.127 0-1.954.852-1.954 1.995zM21.166 4.847a2.022 2.022 0 00-1.993-2.042c-1.135-.008-2.018.867-2.041 2.042-.024 1.12.898 2.018 2.072 2.01 1.072 0 1.955-.898 1.962-2.01zm-15.31.063c.015-1.199-.812-2.097-1.947-2.105A2.04 2.04 0 001.859 4.8c-.015 1.12.868 2.05 1.963 2.065 1.174.008 2.017-.804 2.033-1.955zm15.058 20.255c-1.15 0-2.064.93-2.04 2.097.015 1.01 1.016 1.963 2.064 1.955 1.087 0 1.994-.938 1.978-2.05-.016-1.15-.86-2.002-2.002-2.002zm3.294-6.82c0 1.19.82 2.018 2.025 2.01 1.127 0 1.97-.843 1.978-1.963.008-1.19-.827-2.034-2.01-2.034-1.189.008-1.993.812-1.993 1.987z" fill="#E04E39"/></svg>