<?xml version="1.0" encoding="utf-8"?><svg width="30" height="30" fill="none" xmlns="http://www.w3.org/2000/svg" viewBox="0 0 30 30"><path d="M22.61 22.773l2.398 3.391c.282.399.614.772.84 1.202.477.906-.57.798-.857 1.201-.207.292-.508.363-.791-.047-1.264-1.814-2.562-3.604-3.83-5.415-.217-.309-.45-.433-.82-.425-.993.02-1.987.025-2.98-.003-.469-.014-.603.165-.598.618.02 1.766-.01 3.531.02 5.296.01.549-.18.712-.708.693-1.424-.047-1.25.176-1.257-1.243-.008-1.57-.016-3.139.006-4.707.007-.466-.107-.674-.614-.657-.972.033-1.948.034-2.92 0-.457-.016-.707.185-.949.532-1.21 1.733-2.445 3.447-3.646 5.186-.303.436-.527.495-.966.16-1.054-.806-1.073-.784-.312-1.863.911-1.295 1.826-2.587 2.74-3.88-.142-.207-.333-.118-.49-.12-1.889-.007-3.779-.004-5.667-.006C.327 22.685.004 22.37.004 21.49.001 15.347.001 9.21.002 3.07c0-.857.318-1.18 1.16-1.182 2.805-.005 5.608-.017 8.413.01.566.004.742-.17.723-.734-.028-.844.318-1.158 1.17-1.16C13.806 0 16.142 0 18.48.003c.929.002 1.248.294 1.228 1.223-.011.513.142.673.662.669 2.766-.025 5.53-.013 8.297-.011 1.072 0 1.333.27 1.333 1.364v18.065c0 1.116-.261 1.372-1.385 1.372-1.792 0-3.582-.002-5.374.004-.187.002-.385-.053-.63.084zm-7.651-2.058c4.128 0 8.257-.011 12.385.012.578.003.712-.185.71-.737-.018-5.16-.016-10.317 0-15.476.002-.518-.149-.676-.662-.67-2.317.024-4.634.025-6.951-.002-.546-.006-.764.128-.737.716.037.85-.315 1.176-1.152 1.177-2.337.003-4.673.003-7.01 0-.965-.001-1.264-.282-1.247-1.262.01-.5-.175-.632-.647-.629-2.337.019-4.673.024-7.01-.003-.543-.006-.695.165-.694.703.017 5.139.019 10.279-.001 15.417-.002.584.141.773.748.768 4.088-.027 8.179-.014 12.268-.014zm.01-16.951v.003c.524 0 1.05.008 1.575-.001 1.374-.026 1.195.24 1.224-1.262.008-.412-.148-.547-.548-.54-1.245.019-2.49-.005-3.734.01-1.415.018-1.23-.297-1.248 1.349-.003.331.137.45.457.446.757-.013 1.514-.005 2.273-.005z" fill="#E04E39"/><path d="M12.172 7.534c3.105-.014 5.599 2.47 5.692 5.504.1 3.268-2.605 5.818-5.5 5.9-3.155.09-5.76-2.538-5.84-5.558-.088-3.327 2.743-5.966 5.648-5.846zm-.011 9.406c1.959.031 3.685-1.684 3.723-3.698.035-1.963-1.708-3.73-3.687-3.73-1.968-.002-3.687 1.641-3.673 3.663.015 2.11 1.466 3.605 3.637 3.765zM23.455 12.343c0 1.177.005 2.354-.001 3.531-.005.826-.32 1.152-1.12 1.158-1.032.008-2.066-.007-3.097.008-.402.007-.553-.147-.545-.552.035-1.71-.2-1.394 1.37-1.419 1.433-.024 1.434-.01 1.438-1.461.003-1.177-.016-2.354.007-3.53.008-.433-.129-.592-.567-.58-.876.026-1.753-.005-2.629.01-.392.006-.56-.124-.553-.541.027-1.717-.182-1.407 1.36-1.429 1.052-.015 2.104-.007 3.156-.001.876.005 1.18.32 1.181 1.218.003 1.196 0 2.392 0 3.588z" fill="#E04E39"/></svg>