<?xml version="1.0" encoding="utf-8"?><svg width="28" height="30" fill="none" xmlns="http://www.w3.org/2000/svg" viewBox="0 0 28 30"><path d="M13.081 3.097c0-.322-.01-.594 0-.865.04-1.278.964-2.224 2.24-2.224 3.453-.01 6.906-.01 10.36 0 1.385.01 2.279.925 2.299 2.375.03 2.173.02 4.337 0 6.51-.02 1.5-.944 2.386-2.46 2.386-1.435 0-2.871.01-4.307-.01-.341 0-.532.11-.682.422a5.577 5.577 0 01-1.607 2.013 3.152 3.152 0 01-1.636.675c-.733.08-1.245-.504-1.034-1.208.14-.483.16-.966.16-1.46 0-.301-.11-.432-.421-.422-.341.02-.693.02-1.034-.04-1.135-.192-1.878-1.047-1.898-2.224.01-1.67.02-3.331.02-5.002 0-.05 0-.1-.01-.282-.381.725-.994.664-1.576.685-1.978.08-3.152 1.298-3.253 3.33-.07 1.42.1 2.819.462 4.187.11.403.09.705-.27.986a.814.814 0 00-.292.896c.09.342.291.533.663.584.411.05.562.271.552.734-.01.866.15 1.721.713 2.355.502.564.582 1.158.542 1.832-.01.292-.03.584 0 .876.12 1.298-.542 2.173-1.536 2.868-.924.644-1.978 1.036-2.992 1.479-.984.433-1.968.866-2.801 1.59a3.556 3.556 0 00-1.054 1.61c-.09.262-.05.363.24.352.603-.01 1.195 0 1.798 0H22.96c.462 0 .472-.01.322-.432-.402-1.168-1.306-1.842-2.33-2.405-1.094-.594-2.289-.997-3.403-1.56-.733-.363-1.416-.785-1.958-1.41-.441-.512-.702-1.086-.672-1.78.02-.655.01-1.309 0-1.953 0-.362.09-.674.381-.916.442-.372.653-.895.803-1.439.06-.201.1-.412.181-.614.19-.453.562-.654 1.024-.573.402.07.703.422.733.885.02.332-.06.665-.15.987-.141.462-.342.905-.653 1.268a1.555 1.555 0 00-.392 1.247c.02.222.04.453 0 .675-.13.815.321 1.278.944 1.63.773.433 1.606.765 2.42 1.127 1.264.584 2.55 1.137 3.553 2.154 1.175 1.187 1.697 2.647 1.757 4.287.02.523-.2.694-.833.704H.853c-.773 0-.883-.11-.843-.885.12-2.365 1.295-4.086 3.293-5.274 1.054-.623 2.209-1.046 3.313-1.56.542-.251 1.084-.503 1.556-.875.422-.342.673-.745.552-1.318-.03-.121.01-.262.02-.393.04-.523-.05-1.016-.391-1.429-.432-.523-.633-1.137-.703-1.791-.04-.342-.12-.634-.472-.805-.17-.08-.311-.252-.421-.413-.482-.714-.794-2.164-.131-3.1.13-.18.15-.342.1-.563-.22-.926-.371-1.862-.401-2.798-.05-1.811.25-3.512 1.646-4.83.944-.896 2.099-1.279 3.354-1.41.12-.01.24 0 .36-.01.774-.04.874 0 1.396.564zm5.23 8.625c.413-.453.684-.906.874-1.379.282-.684.743-.956 1.486-.936 1.556.04 3.102.02 4.659.02.692 0 .803-.11.803-.815V3.379c0-.302.01-.614 0-.916-.01-.483-.12-.584-.593-.594h-9.959c-.542 0-.652.09-.652.564v6.43c0 .413.14.544.552.554.492.01.984 0 1.476 0 .632.01.913.232 1.084.845.13.453.21.906.27 1.46z" fill="#E04E39"/><path d="M19.195 3.117H20.5c.201 0 .402.03.593.09.391.132.683.534.672.897-.01.342-.28.684-.672.805-.19.07-.392.12-.582.12-.914.01-1.828.07-2.741-.05-.582-.07-.914-.382-.934-.855-.03-.483.311-.846.884-.956.522-.101 1.054-.02 1.475-.05zM22.428 6.307c.472 0 .954-.01 1.426 0 .542.01.963.363 1.004.826.04.442-.291.895-.834.956-1.104.13-2.218.14-3.323-.02a.881.881 0 01-.773-.916c.03-.473.412-.825.944-.846.522-.01 1.044 0 1.556 0zM23.633 3.117c.733 0 1.305.473 1.235 1.047-.06.543-.753.956-1.416.845-.622-.11-1.064-.513-1.034-.966.03-.503.582-.916 1.215-.926zM18.05 6.287c.232.02.453.02.663.111.312.14.523.362.543.725.02.352-.12.624-.422.795-.452.251-.924.312-1.405.09-.402-.18-.633-.533-.583-.905.04-.393.352-.705.783-.796.13-.01.281-.01.422-.02z" fill="#E04E39"/></svg>