<?xml version="1.0" encoding="utf-8"?><svg width="32" height="30" fill="none" xmlns="http://www.w3.org/2000/svg" viewBox="0 0 32 30"><path d="M32 15.808c-.214 4.901-2.791 9.254-7.807 12.205-1.996 1.171-4.19 1.816-6.5 1.95-7.41.437-13.137-3.767-15.439-9.216C.625 16.883.503 12.924 2.331 9.09 4.556 4.419 8.226 1.357 13.51.31c3.608-.719 7.05-.17 10.315 1.476.634.319.665.541.168 1.016-.75.712-.88.69-1.813.26a13.12 13.12 0 00-4.87-1.165c-3.426-.17-6.493.779-9.184 2.847-.474.364-.482.364-.07.75.842.785 1.69 1.556 2.51 2.365.267.26.435.185.687.014 1.644-1.12 3.464-1.801 5.483-1.735 3.25.097 5.812 1.469 7.6 4.138a7.965 7.965 0 011.186 2.75c.077.334.222.475.581.468 1.155-.015 2.302-.03 3.457 0 .413.007.466-.134.413-.482a12.724 12.724 0 00-1.622-4.56c-.313-.527-.29-.63.161-1.068.795-.771.902-.764 1.453.193C31.296 9.89 32 12.375 32 15.808zm-8.22-.8c.007-3.908-3.212-7.03-7.257-7.03-4.015-.007-7.242 3.13-7.257 7.037-.008 3.833 3.28 7.029 7.242 7.029 4.007.007 7.264-3.144 7.272-7.037zm-7.227 13.116c.306 0 .605.015.91 0 .314-.015.635-.044.949-.089 3.8-.556 6.844-2.328 9.122-5.324 1.514-1.994 2.279-4.256 2.508-6.703.062-.682.039-.696-.611-.696-1.079 0-2.15.007-3.227-.008-.383-.007-.535.111-.574.49-.252 2.476-1.315 4.552-3.341 6.131-2.906 2.277-7.143 2.625-10.362.816-.298-.163-.451-.104-.627.14-.657.898-1.307 1.803-1.988 2.685-.252.326-.184.475.16.675a13.808 13.808 0 007.082 1.883zM2.98 14.97c-.007.475.023.935.077 1.41.36 3.165 1.751 5.827 4.106 8.037.253.237.413.26.635-.045.688-.927 1.4-1.846 2.118-2.75.207-.26.153-.401-.061-.623-1.942-2.04-2.768-4.434-2.386-7.208.199-1.475.803-2.795 1.682-3.996.207-.282.2-.452-.06-.697a88.103 88.103 0 01-2.41-2.336c-.282-.289-.458-.274-.71.037-1.943 2.395-2.998 5.094-2.99 8.171z" fill="#E04E39"/><path d="M27.917 5.042c-.008.222-.13.341-.253.452-.795.734-.818 1.105-1.72.037-.191-.222-.436-.407-.665-.6-.383-.326-.398-.527-.062-.875.857-.882.887-.882 1.767-.03.221.215.459.43.673.653.114.118.19.267.26.363z" fill="#E04E39"/></svg>