<?xml version="1.0" encoding="utf-8"?><svg width="31" height="32" fill="none" xmlns="http://www.w3.org/2000/svg" viewBox="0 0 31 32"><path d="M16.075 1.006c-.08-.006-.033-.013.007 0 .84.32 1.618.748 2.397 1.188.194.113.207.333.094.54-.413.754-1.066.981-1.812.56-.54-.306-1.012-.266-1.551.007-3.39 1.715-6.786 3.416-10.182 5.117-.1.047-.253.067-.267.194-.013.14.154.153.247.2 3.55 1.78 7.105 3.555 10.655 5.337.2.1.366.106.566.006 3.562-1.788 7.125-3.569 10.688-5.357.093-.046.253-.066.24-.206-.014-.127-.167-.14-.267-.194-.626-.333-1.252-.66-1.878-.994-.346-.187-.42-.46-.16-.734.706-.747.873-.9 1.818-.427 1.332.66 2.664 1.321 4.002 1.975.154.08.313.14.32.36.007.227-.12.334-.306.427-4.741 2.362-9.49 4.73-14.231 7.098-.373.187-.72.167-1.079-.013l-8.09-4.063C5.4 11.08 3.515 10.14 1.63 9.2c-.04-.02-.08-.034-.113-.06-.206-.134-.526-.18-.526-.507.007-.34.32-.407.56-.527 4.581-2.302 9.163-4.597 13.751-6.892.206-.1.406-.213.772-.207zM27.29 23.382c-1.005-.52-1.937-1.001-2.876-1.488-.193-.1-.42-.18-.426-.44-.014-.267.226-.34.4-.467.665-.474 1.345-.44 2.037-.06 1.338.74 2.744 1.36 4.116 2.028.193.093.466.12.459.44-.007.307-.26.354-.46.454-4.621 2.314-9.25 4.623-13.864 6.957-.52.267-.912.26-1.438-.013-2.917-1.5-5.854-2.955-8.784-4.423-1.665-.834-3.336-1.654-5.008-2.481-.206-.1-.44-.194-.446-.474-.007-.314.26-.38.48-.487 1.504-.734 3.01-1.474 4.514-2.208.433-.214 1.625.113 1.872.527.186.313-.034.48-.28.607-.846.44-1.698.874-2.544 1.307-.126.067-.273.094-.373.267l1.698.86c3.064 1.529 6.127 3.056 9.183 4.59.287.147.526.16.813.014 3.576-1.795 7.152-3.59 10.728-5.377.047-.027.093-.06.2-.133z" fill="#E04E39"/><path d="M4.596 16.01c1.279.64 2.464 1.24 3.65 1.834 2.323 1.168 4.647 2.322 6.965 3.51.513.266.939.28 1.458.013 3.39-1.721 6.786-3.416 10.182-5.117.127-.067.253-.133.447-.24-.793-.414-1.532-.794-2.271-1.174-.267-.14-.546-.267-.806-.42-.326-.194-.333-.467-.033-.688.659-.48 1.365-.633 2.11-.226 1.452.78 2.944 1.48 4.436 2.174.16.074.26.174.26.36 0 .194-.12.274-.274.348-4.701 2.348-9.41 4.69-14.104 7.044-.453.227-.852.24-1.312.014-2.73-1.381-5.474-2.749-8.21-4.123-1.912-.954-3.823-1.915-5.734-2.862-.187-.1-.36-.2-.36-.44s.18-.347.366-.44c1.479-.721 2.97-1.428 4.435-2.169.473-.24.893-.313 1.332.014.273.206.786.193.78.647-.014.413-.48.453-.766.613-.813.44-1.639.854-2.551 1.328zM22.47 6.057c-.227-.02-.387-.114-.553-.194-.553-.273-1.106-.553-1.659-.827-.572-.287-.612-.547-.166-.974.693-.654.573-.86 1.725-.247.473.247.959.467 1.425.727.413.227.453.447.126.78-.273.288-.486.661-.899.735z" fill="#E04E39"/></svg>