<?xml version="1.0" encoding="utf-8"?><svg width="29" height="30" fill="none" xmlns="http://www.w3.org/2000/svg" viewBox="0 0 29 30"><path d="M28.992 14.46c.222 7.618-6.474 14.596-14.323 14.544C6.502 28.944-.008 22.554 0 14.48.008 6.49 6.478.314 13.875.012 22.619-.346 29.14 6.926 28.992 14.46zm-24.253.943c-.786 0-1.573.016-2.36-.005-.483-.011-.624.202-.56.65.303 2.07.988 3.992 2.186 5.724.266.387.533.492.984.33.944-.334 1.9-.64 2.868-.902.383-.105.464-.266.383-.62-.343-1.515-.556-3.05-.573-4.605-.004-.447-.221-.576-.625-.572-.77.008-1.536 0-2.303 0zm19.615 0c-.767 0-1.537.016-2.303-.005-.436-.011-.642.121-.67.593-.097 1.571-.254 3.134-.613 4.67-.069.285.016.447.31.515 1.057.246 2.078.604 3.094.975.27.097.5.08.678-.17 1.274-1.8 2.069-3.786 2.319-5.982.052-.443-.15-.604-.573-.592-.746.004-1.492-.004-2.242-.004zM4.683 13.606c.766 0 1.536-.016 2.303.008.48.016.673-.178.677-.653.008-1.338.178-2.663.444-3.976.089-.432-.036-.653-.468-.778a17.333 17.333 0 01-2.868-1.084c-.403-.197-.657-.092-.887.262a13.316 13.316 0 00-2.077 5.649c-.048.394.08.588.508.576.795-.016 1.581-.004 2.368-.004zm19.554 0c.786 0 1.577-.016 2.363.008.484.016.63-.198.573-.645-.266-2.083-.948-4.009-2.166-5.733-.161-.23-.323-.31-.593-.181a23.93 23.93 0 01-3.202 1.2c-.299.093-.416.262-.347.572.314 1.386.435 2.796.52 4.207.028.479.242.592.67.58.721-.024 1.451-.008 2.182-.008zm-6.736 1.8c0-.003 0-.003 0 0-.529-.003-1.06.005-1.59-.003-.374-.008-.524.16-.52.535.008 1.294.008 2.591 0 3.884 0 .327.101.5.464.532.9.085 1.791.198 2.686.314.311.04.497-.056.557-.366.274-1.467.52-2.933.524-4.428 0-.322-.157-.463-.468-.463-.556-.004-1.105-.004-1.653-.004zm-3.909 2.478c0-.648-.008-1.297.005-1.942.008-.37-.146-.54-.52-.54-1.082.009-2.163.005-3.244.005-.314 0-.48.129-.46.459.09 1.49.239 2.97.565 4.428.073.322.242.398.549.358.875-.117 1.75-.221 2.63-.302.354-.032.48-.19.475-.524-.004-.648.005-1.297 0-1.942zm1.795-6.482c0 .568.004 1.136-.004 1.708-.004.302.09.492.428.492 1.121-.004 2.238 0 3.36 0 .286 0 .44-.125.435-.423-.008-1.358-.205-2.696-.46-4.025-.036-.198-.12-.323-.355-.29-1.012.137-2.02.27-3.033.399-.302.04-.379.225-.375.495.008.544.004 1.096.004 1.644zm-1.799.032c-.004-.552-.012-1.1 0-1.652.009-.334-.12-.503-.467-.54a135.6 135.6 0 01-2.864-.362c-.242-.032-.371.036-.42.282a28.012 28.012 0 00-.467 3.972c-.017.319.125.472.447.472 1.101-.004 2.203-.004 3.308 0 .367.004.476-.19.467-.52-.012-.552-.004-1.1-.004-1.652zm1.795-6.728c.004.745.017 1.49-.004 2.232-.008.415.174.576.569.532.758-.089 1.517-.174 2.275-.27.335-.04.423-.23.298-.54-.282-.69-.516-1.402-.855-2.063-.456-.89-.976-1.748-1.815-2.353-.109-.076-.218-.205-.363-.14-.157.068-.105.237-.109.366 0 .745.004 1.49.004 2.236zm-1.794.02c0-.765-.005-1.531 0-2.3 0-.343-.114-.448-.412-.222-.109.085-.23.157-.327.25-1.238 1.2-1.903 2.723-2.408 4.33-.096.303.097.392.331.42.742.092 1.48.177 2.223.266.427.052.609-.125.596-.564-.02-.726-.004-1.455-.004-2.18zm1.802 19.846c0 .532-.012 1.064.004 1.592.008.245-.133.608.093.713.25.117.464-.214.69-.363.048-.032.089-.08.129-.12.98-1.036 1.61-2.269 2.081-3.598.117-.335-.036-.423-.314-.456-.722-.084-1.444-.189-2.174-.201-.396-.008-.513.19-.505.548.005.624-.004 1.253-.004 1.885zm-1.794.08c0-.648-.013-1.292.004-1.941.012-.44-.178-.612-.601-.568-.448.044-.9.076-1.348.117-1.185.104-1.201.108-.754 1.212.5 1.23 1.146 2.365 2.182 3.236.117.096.25.25.408.189.185-.069.104-.274.104-.419.013-.608.005-1.217.005-1.825zM18.44 2.49c.863 1.261 1.371 2.59 1.843 3.936.093.266.343.222.556.145.775-.282 1.545-.58 2.324-.854.407-.14.37-.29.088-.548-1.117-1.011-2.347-1.845-3.742-2.421-.299-.125-.593-.306-1.07-.258zm-7.922-.056C8.648 2.949 7.1 3.964 5.7 5.23c-.246.225-.161.362.105.463.81.298 1.625.592 2.44.886.238.085.412.053.504-.23.44-1.365.997-2.683 1.771-3.915zm-.008 24.096c-.686-1.12-1.194-2.296-1.63-3.505-.084-.233-.258-.258-.48-.19-.77.235-1.54.464-2.31.694-.335.1-.36.238-.101.475.532.5 1.133.907 1.738 1.306.847.552 1.759.987 2.783 1.22zm8.038-.028a10.78 10.78 0 004.482-2.538c.197-.185.193-.334-.085-.423-.79-.242-1.581-.476-2.372-.713-.201-.06-.359-.008-.431.193a22.161 22.161 0 01-1.594 3.481z" fill="#E04E39"/></svg>