<?xml version="1.0" encoding="utf-8"?><svg width="28" height="31" fill="none" xmlns="http://www.w3.org/2000/svg" viewBox="0 0 28 31"><path d="M13.472 30.002H11.34c-.637 0-.946-.312-.959-.942-.006-.163.057-.35-.025-.493-.088-.157-.303-.094-.46-.132-.43-.112-.676-.455-.676-.986 0-1.011-.019-2.016.007-3.027.025-1.186-.335-2.216-1.13-3.103-.315-.35-.688-.63-1.047-.93-1.893-1.567-3.01-3.564-3.357-5.986-.29-2.041.057-3.97 1.028-5.78.871-1.63 2.127-2.91 3.742-3.833a10.007 10.007 0 015.654-1.33c2.265.138 4.265.962 5.975 2.435 1.653 1.43 2.72 3.208 3.124 5.343.41 2.166.202 4.257-.858 6.23-.606 1.136-1.433 2.097-2.423 2.921-.442.369-.89.724-1.256 1.174a4.025 4.025 0 00-.915 2.54c-.013 1.049 0 2.098 0 3.146v.256c-.013.587-.316.9-.902.924-.272.013-.259.013-.246.269.006.212 0 .424-.045.63-.088.418-.39.65-.864.65-.745.024-1.49.018-2.234.024zm-.788-10.83V21.6c0 .262 0 .262.27.262h1.995c.126 0 .252.007.378.038.417.1.67.418.657.818-.013.412-.29.717-.713.792a3.625 3.625 0 01-.58.044h-3.503c-.278 0-.296.019-.259.3.032.212.038.424.007.636-.026.163.031.213.189.213.347-.007.7-.007 1.047-.007.537 0 1.073-.006 1.61.007.454.012.8.3.87.686.076.419-.12.75-.536.912a1.24 1.24 0 01-.454.075h-2.537c-.202 0-.24.062-.196.255.032.15.146.131.253.131 1.546 0 3.085 0 4.631.007.19 0 .24-.063.24-.244.006-.842-.044-1.685-.006-2.528.044-1.123.36-2.153 1.003-3.083.492-.712 1.136-1.268 1.798-1.817.96-.793 1.73-1.735 2.24-2.878.606-1.36.726-2.771.511-4.232-.195-1.342-.669-2.578-1.52-3.639-2.057-2.56-4.777-3.546-8.008-3.065-2.29.343-4.101 1.536-5.42 3.433-1.186 1.705-1.558 3.602-1.268 5.63.29 2.03 1.325 3.634 2.915 4.907.82.656 1.54 1.38 1.994 2.335a.68.68 0 00.088.13c.101.12.392.188.524.12.139-.076.082-.213.082-.325.006-1.586 0-3.171 0-4.763 0-.268 0-.262-.265-.275-.423-.018-.826-.106-1.18-.343-.542-.356-.795-.868-.87-1.498-.108-.893.346-1.735 1.16-2.072.903-.375 1.88-.138 2.449.593.315.405.416.867.404 1.367-.007.268 0 .268.264.268h.884c.48 0 .48 0 .486-.48.019-1.362 1.4-2.292 2.7-1.81a2.008 2.008 0 011.307 2.24c-.165 1.024-.934 1.704-1.975 1.735-.373.013-.36-.056-.36.375v3.065c0 .493-.316.836-.764.861-.523.032-.896-.306-.896-.824-.006-1.067 0-2.135 0-3.208 0-.269 0-.269-.284-.269-.365 0-.738.013-1.104-.006-.195-.006-.258.056-.252.25 0 .83-.006 1.641-.006 2.453zm3.306-4.594c-.013.125 0 .25.22.237.278-.019.424-.125.43-.356.006-.206-.145-.387-.322-.387-.22.006-.328.156-.328.506zm-4.998.068c-.006-.112-.006-.193-.025-.268-.038-.225-.132-.3-.334-.275-.183.02-.284.138-.284.344 0 .237.107.324.423.374.183.025.284.006.22-.175zM12.67 1.457c0-.206-.012-.412 0-.612.033-.462.354-.805.77-.843.392-.031.777.269.846.7.082.499.082 1.004.007 1.504-.076.487-.448.78-.877.743-.392-.038-.713-.406-.745-.874-.006-.206.006-.412 0-.618.006 0 .006 0 0 0z" fill="#E04E39"/><path d="M22.054 22.35a.751.751 0 01-.448-.144 3.364 3.364 0 01-.789-.762c-.24-.33-.215-.686.07-1.017.258-.294.624-.362.984-.175.41.212.719.53.946.924.29.505-.151 1.18-.763 1.173zM6.33 20.926c-.007.237-.057.43-.196.587-.22.23-.435.468-.694.661-.366.269-.82.232-1.13-.087a.8.8 0 010-1.117c.196-.212.398-.412.619-.6.271-.23.587-.287.915-.124.296.137.467.374.486.68zM25.852 12.256c.152.037.303-.044.461.037.404.219.732.456.688.899-.032.343-.29.618-.7.712-.467.106-.94.118-1.414.025-.555-.113-.858-.444-.814-.88.044-.4.454-.712.99-.743.266-.025.524-.038.79-.05zM21.549 6.057c-.296-.025-.536-.193-.7-.474-.158-.281-.133-.562.05-.824.202-.281.448-.512.726-.706a.82.82 0 011.079.113c.277.287.309.736.044 1.055a5.318 5.318 0 01-.682.674.81.81 0 01-.517.162zM6.203 5.246c-.006.312-.164.536-.429.693-.271.15-.542.156-.801-.02a2.938 2.938 0 01-.789-.76c-.227-.325-.195-.669.07-.962.27-.3.63-.38.978-.194.39.206.675.519.883.9.063.1.095.218.088.343zM1.389 12.068c.195.02.391.025.587.057.517.08.902.536.89 1.03-.013.493-.436.917-.96.967a4.861 4.861 0 01-.953 0c-.536-.05-.933-.45-.952-.961-.02-.512.347-.95.877-1.036.17-.032.34-.063.51-.057z" fill="#E04E39"/></svg>