<?xml version="1.0" encoding="utf-8"?><svg width="30" height="26" fill="none" xmlns="http://www.w3.org/2000/svg" viewBox="0 0 30 26"><path d="M11.248 0H21.238c.865.005 1.18.316 1.18 1.173 0 .662.005 1.325 0 1.982-.011.605-.341.957-.913 1-.55.036-.912-.263-1.017-.847-.058-.3-.032-.605-.026-.905 0-.278-.132-.415-.404-.42-.079 0-.158-.006-.236-.006H2.685c-.603 0-.677.074-.677.679v9.718c0 .626.063.684.703.684 5.066 0 10.126-.005 15.191 0 .179 0 .362.005.53.042.53.116.787.473.766 1.025-.021.521-.31.884-.84.92-.665.048-1.337.037-2.008.037-4.504 0-9.009 0-13.513-.005-.136 0-.268.005-.404 0-.299-.005-.425.148-.42.437.006.473 0 .941.006 1.414.005.442.063.5.514.5H19.806c.64 0 .66-.016.655-.663 0-3.27-.005-6.547-.01-9.818 0-.952.204-1.267 1.075-1.646 2.255-.978 4.525-1.93 6.765-2.945 1.07-.484 1.725.237 1.709 1.146a246.96 246.96 0 00-.042 7.631c.021 1.604.01 3.203.026 4.807 0 .147 0 .294-.02.436-.116.726-.777 1.089-1.432.768-1.243-.61-2.475-1.246-3.713-1.872-.22-.11-.446-.216-.65-.347-.488-.31-.624-.82-.362-1.31.257-.483.808-.683 1.316-.436.787.378 1.563.778 2.344 1.167.404.2.535.142.54-.315.021-1.22.016-2.446.016-3.666V5.59c0-.11.005-.226-.005-.336-.026-.363-.173-.468-.509-.332-.65.269-1.295.558-1.94.837l-2.554 1.104c-.519.226-.598.336-.598.915v10.491c0 .816-.309 1.163-1.127 1.168-2.36.01-4.72 0-7.074-.01-.141 0-.278-.016-.351.126-.079.142.01.252.084.368.954 1.451 1.908 2.897 2.857 4.349.347.526.31 1.083-.078 1.446-.44.415-1.096.358-1.49-.195-.613-.867-1.184-1.767-1.767-2.655-.456-.69-.907-1.389-1.368-2.078-.289-.425-.44-.415-.73.021-.99 1.52-1.981 3.04-2.967 4.56-.157.237-.33.457-.614.542-.393.115-.755.068-1.043-.248-.278-.305-.362-.767-.168-1.125.163-.305.362-.589.556-.878.823-1.252 1.646-2.509 2.475-3.76.068-.105.142-.216.063-.342-.095-.142-.257-.1-.399-.1H1.463C.288 19.458 0 19.168 0 17.985V1.3C0 .337.34 0 1.285 0h9.963z" fill="#E04E39"/></svg>