<?xml version="1.0" encoding="utf-8"?><svg width="24" height="32" fill="none" xmlns="http://www.w3.org/2000/svg" viewBox="0 0 24 32"><path d="M.014 14.336V4.873c0-.596.057-1.192.283-1.752.594-1.454 1.725-2.107 3.245-2.114C8.074.993 12.614 1 17.152 1h4.893c.82 0 .962.128.962.957.007 4.108 0 8.208 0 12.315 0 2.1 0 4.193-.007 6.293 0 1.184-.212 1.404-1.393 1.418-1.598.014-3.203.007-4.8.007H4.531c-.41 0-.834-.035-1.237.1-1.075.354-1.69 1.411-1.563 2.653.12 1.1.997 1.979 2.2 2.007 2.106.057 4.206.029 6.313.036.332 0 .488-.178.51-.497v-.042c.049-1.015-.1-1.164-1.125-1.1-1.88.114-3.762.057-5.642-.007-.622-.021-.898-.29-.884-.823.014-.49.297-.738.912-.745 2.432-.007 4.864-.007 7.297 0 .777 0 1.074.313 1.081 1.15.014 1.44.008 2.887.008 4.327 0 .184-.078.418.127.532.205.113.353-.092.509-.192.82-.532 1.654-.596 2.51-.085l.382.234c.374.22.445.178.46-.27.006-.134-.008-.269-.008-.404v-4.107c0-.915.283-1.192 1.202-1.192h4.27c.135 0 .27 0 .404.014.445.043.7.284.735.696.042.447-.163.737-.615.837-.24.057-.502.07-.75.078-1.01.007-2.015.007-3.026 0-.353 0-.502.134-.516.496-.035 1.072-.021 1.093 1.06 1.093.892 0 1.782 0 2.666.007.163 0 .325 0 .488.028.424.078.686.398.686.809-.007.433-.24.688-.65.794-.467.121-.941.086-1.415.093-.742.007-1.485-.007-2.227 0-.495.007-.608.113-.615.603 0 .624.007 1.248-.07 1.872-.12.98-.68 1.242-1.493.696-1.527-1.029-2.849-1.015-4.37.042-.734.51-1.272.27-1.399-.624-.092-.639-.078-1.277-.035-1.915.035-.54-.078-.667-.615-.674-1.867-.007-3.734.007-5.607-.007-.884-.008-1.747-.157-2.517-.625C.495 26.978.014 25.552 0 23.92c0-3.192.014-6.385.014-9.584zM12.12 2.624H4.073c-1.818 0-2.348.54-2.34 2.377v7.314c0 2.738.006 5.476-.008 8.207 0 .376.085.454.424.255.715-.404 1.5-.524 2.312-.524 5.324.006 10.641.006 15.965.006.8 0 .94-.141.94-.922V3.497c0-.823-.063-.887-.883-.887-2.793.014-5.579.014-8.364.014z" fill="#E04E39"/></svg>