<?xml version="1.0" encoding="utf-8"?><svg width="24" height="24" fill="none" xmlns="http://www.w3.org/2000/svg" viewBox="0 0 24 24"><path d="M11.081 24H.434c-.424 0-.429 0-.429-.424 0-7.122 0-14.238-.005-21.36 0-.286.071-.378.368-.378 3.761.01 7.518.01 11.28 0 .286 0 .398.072.377.368-.025.393-.02.786 0 1.179.01.26-.076.347-.341.347-1.634-.005-3.262 0-4.895 0-1.527 0-3.053.005-4.574-.005-.245 0-.332.061-.332.322.006 5.738.006 11.476.01 17.215 0 .27-.122.617.067.801.179.169.516.051.781.051 5.717.005 11.433.005 17.15.005.378 0 .378 0 .378-.383 0-3.13.005-6.254-.005-9.383 0-.286.076-.393.372-.378.393.026.786.02 1.18 0 .265-.01.347.082.341.342-.01 1.639-.005 3.283-.005 4.922v6.36c0 .394 0 .394-.398.394C18.196 24 14.64 24 11.081 24z" fill="#E04E39"/><path d="M21.994 3.262c-.071.103-.128.22-.214.307-2.323 2.328-4.65 4.656-6.978 6.984-.306.306-.306.306-.602.01-.28-.276-.546-.567-.837-.832-.189-.169-.184-.276 0-.46 1.291-1.276 2.567-2.557 3.848-3.844l3.237-3.237c.081-.081.158-.163.24-.25-.103-.102-.21-.056-.307-.056-1.45-.005-2.9-.01-4.344.005-.285 0-.393-.071-.377-.367.025-.394.02-.787 0-1.18-.01-.26.076-.342.342-.342 1.715.01 3.435.005 5.15.005.842 0 1.69.005 2.531-.005.235-.005.317.077.317.312-.005 2.583-.005 5.161 0 7.744 0 .21-.072.291-.28.286-.424-.01-.843-.015-1.267 0-.265.01-.342-.081-.342-.347.01-1.46.005-2.915.005-4.375v-.28c-.045-.026-.081-.052-.122-.078z" fill="#E04E39"/></svg>