<?xml version="1.0" encoding="utf-8"?><svg width="30" height="31" fill="none" xmlns="http://www.w3.org/2000/svg" viewBox="0 0 30 31"><path d="M29.978 12.445c0 2.745-.04 5.491.022 8.237.025 1.134-.506 1.822-1.322 2.378-1.412.965-3.024 1.34-4.666 1.6-1.78.278-3.567.342-5.354.113-.277-.034-.39.078-.386.356.004.507 0 1.01 0 1.518 0 1.018-.411 1.806-1.227 2.381-1.35.954-2.882 1.413-4.466 1.672-2.893.473-5.773.413-8.619-.395-.95-.27-1.867-.627-2.683-1.21-.811-.578-1.285-1.291-1.27-2.41C.058 22.717.073 18.74 0 14.77c-.026-1.371.608-2.168 1.634-2.776 1.456-.868 3.072-1.232 4.714-1.473 1.67-.244 3.348-.236 5.023-.033.324.037.415-.083.415-.406-.004-1.822.05-3.644-.004-5.462-.047-1.547.695-2.49 1.947-3.14C15.084.778 16.536.41 18.03.207c2.634-.353 5.248-.27 7.832.417 1.023.27 2.006.646 2.89 1.254.801.553 1.267 1.247 1.249 2.33-.058 2.745-.022 5.49-.022 8.237zM20.95 6.089c1.7.015 3.378-.173 5.023-.627.692-.192 1.369-.432 1.944-.894.527-.425.513-.845-.011-1.266-.506-.406-1.085-.65-1.696-.83-1.296-.38-2.621-.567-3.968-.646-2.136-.128-4.248.007-6.322.56-.732.195-1.453.435-2.046.957-.455.402-.473.744-.03 1.157.383.353.853.556 1.326.733 1.867.702 3.814.834 5.78.856zM9.18 16.415c1.801.022 3.578-.162 5.306-.706.605-.192 1.198-.417 1.686-.853.411-.364.422-.721.05-1.108a2.004 2.004 0 00-.505-.38 7.632 7.632 0 00-1.926-.724c-3.134-.729-6.275-.695-9.409.007-.808.18-1.598.462-2.264.992-.542.432-.513.89.037 1.303.4.3.84.511 1.31.673 1.856.634 3.775.803 5.715.796zm12.299-6.055c.673.03 1.882-.12 3.086-.312 1.041-.165 2.06-.436 2.992-.965.404-.23.761-.515.772-1.048.011-.477.004-.954.007-1.431.004-.263-.094-.293-.31-.184-1.87.946-3.875 1.322-5.932 1.412-2.85.124-5.657-.124-8.285-1.412-.21-.106-.313-.057-.309.199.007.42.011.837 0 1.258-.01.485.2.834.582 1.078.284.184.576.357.896.477 1.922.733 3.927.887 6.5.928zm-12.26 10.3c1.133.044 2.4-.068 3.655-.297 1.088-.2 2.17-.451 3.116-1.093.284-.192.491-.44.498-.804.011-.492.004-.98.008-1.473 0-.285-.131-.311-.35-.202a9.683 9.683 0 01-.804.368c-2.293.875-4.67 1.123-7.094 1.018-2.159-.09-4.259-.429-6.22-1.416-.23-.117-.303-.053-.3.195.008.462.012.924-.003 1.386-.01.372.142.627.419.845.524.41 1.12.646 1.743.83 1.693.5 3.429.672 5.333.642zm7.273 5.619c0-.26-.004-.519 0-.782.004-.251-.095-.3-.313-.191-2.005 1.003-4.16 1.345-6.352 1.416-2.678.09-5.31-.218-7.778-1.416-.258-.128-.324-.019-.324.229.004.432.007.868-.007 1.3-.015.401.156.683.466.909.702.507 1.5.773 2.322.961 2.482.571 4.987.65 7.505.323 1.11-.142 2.21-.364 3.247-.834.82-.368 1.489-.822 1.234-1.915zM9.114 24.9a17.3 17.3 0 004.594-.45c.808-.188 1.59-.455 2.29-.932.338-.233.523-.537.498-.977a12.47 12.47 0 010-1.168c.01-.338-.07-.45-.408-.285-2.115 1.04-4.39 1.348-6.694 1.386-2.551.041-5.052-.29-7.392-1.447-.262-.127-.28-.003-.28.207.003.432.007.868-.008 1.3-.014.417.146.72.47.954.535.39 1.135.616 1.754.8 1.685.5 3.403.665 5.176.612zm6.46-13.473c.481.293 1.002.507 1.45.856.615.48 1.153 1.014 1.19 1.89.01.277.226.3.422.311.572.038 1.143.083 1.718.098 1.926.049 3.833-.075 5.697-.62.647-.188 1.284-.413 1.827-.849.262-.214.458-.466.455-.834-.004-.462-.004-.924.003-1.386.004-.251-.04-.338-.31-.21-3.104 1.442-6.365 1.668-9.696 1.28-.928-.112-1.841-.315-2.755-.536zm12.762 8.688c0-.23-.01-.462.004-.691.015-.29-.058-.361-.331-.215-.75.399-1.547.67-2.363.872-2.318.575-4.666.702-7.036.44-.33-.038-.414.09-.374.42a5.708 5.708 0 01-.004 1.555c-.055.353.047.474.404.511 1.62.18 3.236.158 4.848-.026 1.198-.136 2.377-.365 3.502-.834.888-.372 1.569-.88 1.35-2.032zm-7.272-1.274c.899.023 1.929-.033 2.955-.187 1.209-.18 2.4-.429 3.495-1.026.56-.304.87-.74.826-1.42a9.894 9.894 0 010-1.04c.01-.3-.076-.353-.338-.214-1.133.604-2.355.909-3.597 1.13-1.87.335-3.749.406-5.638.184-.477-.056-.586.053-.546.549.04.492.076.976 0 1.468-.047.32.11.425.4.459.769.09 1.537.101 2.443.097z" fill="#E04E39"/></svg>