<?xml version="1.0" encoding="utf-8"?><svg width="29" height="35" fill="none" xmlns="http://www.w3.org/2000/svg" viewBox="0 0 29 35"><path d="M19.956 25.64c-.008.915.194 1.619.307 2.323.29 1.86.622 3.722.913 5.583.17 1.087-.153 1.447-1.31 1.447-3.588 0-7.168.007-10.757 0-1.148 0-1.455-.313-1.293-1.4.372-2.424.784-4.848 1.18-7.272a.902.902 0 00-.057-.571c-.452.688-.921 1.376-1.358 2.08-.792 1.259-1.244 1.79-2.61.36-1.399-1.455-2.886-2.831-4.333-4.246-.88-.86-.848-1.353.17-2.05 3.37-2.306 6.75-4.605 10.128-6.904.63-.43.646-.453.032-.868-2.829-1.931-5.658-3.847-8.487-5.778-.67-.454-1.341-.907-1.988-1.392-.59-.438-.663-.93-.146-1.447A350.499 350.499 0 015.545.383c.622-.594 1.131-.477 1.632.282 2.296 3.464 4.6 6.928 6.895 10.392.428.641.428.633.848 0 2.215-3.347 4.421-6.701 6.636-10.048.105-.156.218-.297.323-.446.542-.696 1.019-.743 1.657-.117 1.471 1.439 2.934 2.893 4.405 4.34.121.117.235.234.348.352.97.938.953 1.321-.178 2.095-3.354 2.3-6.717 4.583-10.07 6.874-.648.438-.64.445.015.899 3.379 2.299 6.75 4.598 10.128 6.904 1.026.704 1.075 1.11.194 1.987-1.576 1.571-3.169 3.127-4.761 4.684-.727.703-1.253.649-1.827-.188-.598-.868-1.155-1.736-1.834-2.753zm-5.424 7.6c1.382 0 2.765-.007 4.147.009.444.008.582-.102.5-.563-.581-3.496-1.139-6.999-1.713-10.502a2.305 2.305 0 00-.38-.891c-.751-1.126-1.503-2.244-2.238-3.378-.275-.422-.445-.446-.728-.008-.743 1.173-1.52 2.33-2.287 3.487-.17.258-.275.54-.324.845-.565 3.44-1.14 6.873-1.721 10.314-.081.492.032.704.598.696 1.382-.024 2.764 0 4.146-.008zm-.59-18.219c.21-.054.332-.078.453-.109.218-.063.582.219.582-.344 0-.485-.25-.391-.534-.391-.299 0-.509-.188-.67-.399-.267-.336-.51-.696-.744-1.055C10.847 9.43 8.656 6.139 6.49 2.83c-.323-.493-.525-.422-.889-.055-.913.923-1.85 1.822-2.788 2.73-.534.515-.534.547.097.977 3.427 2.338 6.854 4.676 10.272 7.006.534.367 1.067.72.76 1.532zm1.487.352a.708.708 0 00-.064.102c2.408 3.636 4.825 7.272 7.217 10.916.267.407.429.297.695.031.962-.962 1.94-1.908 2.918-2.854.526-.508.534-.508-.08-.93-2.36-1.611-4.72-3.23-7.089-4.84-1.196-.814-2.392-1.611-3.597-2.425zm-1.996.079c-.356.242-.711.477-1.067.719-3.176 2.158-6.337 4.324-9.521 6.467-.477.32-.493.531-.073.915a82.381 82.381 0 012.926 2.846c.323.328.477.305.728-.078 1.915-2.91 3.855-5.802 5.77-8.703.453-.68.97-1.322 1.237-2.166zm1.932-1.838l.105.078c.444-.297.889-.594 1.333-.899 3.136-2.135 6.264-4.277 9.409-6.396.404-.274.404-.446.056-.774a79.328 79.328 0 01-2.74-2.683c-.622-.633-.646-.656-1.156.102a1570.385 1570.385 0 00-3.12 4.7c-1.3 1.954-2.594 3.917-3.887 5.872z" fill="#E04E39"/><path d="M14.476 24.608c.5 0 1.002-.024 1.503.008.776.039 1.31.461 1.447 1.204.202 1.118.186 2.26.016 3.386-.121.805-.59 1.22-1.439 1.267a34.966 34.966 0 01-3.136.007c-.776-.031-1.35-.657-1.382-1.478-.04-.97-.04-1.947 0-2.916.04-.876.695-1.447 1.6-1.47.47-.016.93-.008 1.39-.008zm-1.188 2.948c.024 1.267-.203 1.18 1.188 1.18 1.301 0 1.147.126 1.155-1.282.009-1.087 0-1.087-1.107-1.087-1.406.008-1.22-.133-1.236 1.189z" fill="#E04E39"/></svg>