<?xml version="1.0" encoding="utf-8"?><svg width="18" height="12" xmlns="http://www.w3.org/2000/svg" viewBox="0 0 18 12"><g clip-path="url(#egclip0)"><path d="M9.28.007c-1.1 0-1.901-.018-2.701.005-1.413.04-2.827.075-4.234.224C1.368.339.613.956.358 1.868c-.173.62-.246 1.257-.294 1.895C-.023 4.945-.008 6.13.02 7.313c.022.917.1 1.833.32 2.732.227.939 1.057 1.6 2.058 1.693a68.26 68.26 0 003.518.21c1.938.078 3.877.055 5.814.021a43.329 43.329 0 003.886-.231c1.026-.11 1.794-.703 2.043-1.65.162-.614.237-1.241.282-1.874.088-1.227.053-2.455.039-3.682a11.409 11.409 0 00-.292-2.514C17.44.974 16.68.335 15.568.23 14.435.123 13.299.086 12.162.038c-1.06-.045-2.121-.005-2.882-.03zM6.72 6.161V3.647c0-.269.004-.27.262-.143.321.159.64.321.961.48 1.372.68 2.744 1.357 4.116 2.038.064.032.16.046.16.137 0 .068-.076.086-.129.112-1.719.854-3.439 1.706-5.156 2.563-.187.093-.218.035-.217-.138.005-.844.003-1.69.003-2.535z"/></g><defs><clipPath id="egclip0"><path transform="matrix(1 0 0 -1 0 12)" d="M0 0h18v12H0z"/></clipPath></defs></svg>