<svg width="23" height="23" viewBox="0 0 23 23" fill="none" xmlns="http://www.w3.org/2000/svg">
<circle cx="11.5" cy="11.5" r="11.5" fill="#E04E39"/>
<path d="M17.8194 14.1469L15.9865 15.6853C15.716 15.9201 15.3573 15.9996 15.0081 16C13.4636 15.9608 12.0036 15.3189 10.805 14.6597C8.83738 13.4485 7.03205 11.9467 5.899 10.1318C5.46443 9.37075 4.95452 8.39971 5.00324 7.55025C5.00759 7.2307 5.10935 6.91708 5.37532 6.7111L7.20817 5.16101C7.58877 4.88708 7.95683 4.98179 8.20039 5.30087L9.67492 7.6668C9.83012 7.94709 9.74109 8.24741 9.50954 8.44769L8.83428 9.01878C8.79259 9.06709 8.76605 9.12209 8.76538 9.18195C9.02431 10.0301 9.80877 10.8118 10.5018 11.3497C11.1947 11.8877 11.9396 12.6166 12.9065 12.7891C13.026 12.8173 13.1724 12.8272 13.2579 12.76L14.0434 12.084C14.3142 11.9103 14.7052 11.8254 14.9943 11.9674H15.0081L17.6678 13.2961C18.0582 13.5032 18.0989 13.9034 17.8194 14.1469Z" fill="white"/>
</svg>
