<svg width="13" height="21" viewBox="0 0 13 21" fill="none" xmlns="http://www.w3.org/2000/svg">
<path d="M6.75731 18.0194C7.17703 17.5161 7.58844 17.0005 7.97075 16.4644C9.43353 14.4185 10.7384 12.2866 11.6692 9.94605C12.064 8.95172 12.3715 7.93284 12.3674 6.54978C12.3549 5.57181 11.9975 4.40153 11.2329 3.36219L6.75731 18.0194ZM6.75731 18.0194C6.63414 18.1673 6.51183 18.2675 6.38984 18.3199C6.31358 18.3214 6.23684 18.3219 6.15961 18.3216L6.15518 18.3216C6.10025 18.3219 6.04531 18.3216 5.99036 18.3208C5.87111 18.27 5.75154 18.1736 5.63114 18.0316L6.75731 18.0194ZM2.92449 15.5113C2.73334 15.2535 2.37595 15.1962 2.09337 15.3763C1.85235 15.5277 1.6321 15.7036 1.44094 15.9123C0.863312 16.5302 0.738644 17.2749 1.10434 18.0073C1.31212 18.4206 1.64041 18.7357 2.03104 18.9812C3.20708 19.7259 4.52441 19.9633 5.88745 20.0206C6.65208 20.0533 7.4084 19.9715 8.15641 19.8201C9.1122 19.6277 10.0057 19.3086 10.7495 18.6539C11.4726 18.0196 11.6679 17.0989 11.2232 16.3092C10.9905 15.8918 10.6332 15.5972 10.2301 15.3435M2.92449 15.5113L10.3424 18.0746M2.92449 15.5113C3.11981 15.7691 3.06579 16.1414 2.78736 16.346M2.92449 15.5113L2.78736 16.346M10.2301 15.3435C9.88099 15.1266 9.51114 15.188 9.31998 15.4908M10.2301 15.3435L9.9662 15.7682C9.96583 15.768 9.96547 15.7678 9.96511 15.7676M10.2301 15.3435L9.96373 15.7667C9.96419 15.767 9.96465 15.7673 9.96511 15.7676M9.31998 15.4908C9.13298 15.7936 9.22856 16.1292 9.57347 16.3501C9.73554 16.4565 9.8893 16.567 10.0181 16.7143C10.3381 17.0867 10.3339 17.3772 9.98903 17.7209M9.31998 15.4908L9.74539 15.7536C9.74494 15.7543 9.74449 15.755 9.74406 15.7557M9.31998 15.4908L9.74278 15.7577C9.74321 15.7571 9.74363 15.7564 9.74406 15.7557M9.98903 17.7209C9.70645 18.0033 9.35738 18.1874 8.99169 18.3347C8.19641 18.6516 7.36162 18.7934 6.48439 18.8178C6.39504 18.8458 6.30017 18.8619 6.1997 18.863C6.18561 18.8632 6.17163 18.8631 6.15775 18.8626L6.15994 19.3216C6.15918 19.3216 6.15842 19.3216 6.15766 19.3216C5.24936 19.3257 4.31927 19.196 3.41455 18.8757M9.98903 17.7209L10.3424 18.0746M9.98903 17.7209L10.342 18.0751C10.3421 18.0749 10.3423 18.0748 10.3424 18.0746M3.41455 18.8757C2.9201 18.7018 2.38958 18.4554 1.9674 17.9991C1.77148 17.7883 1.63034 17.5233 1.62513 17.2143C1.61992 16.9056 1.75171 16.6361 1.93738 16.4184L1.93779 16.418C2.09782 16.2308 2.29661 16.0855 2.44131 15.9798C2.45846 15.9672 2.47485 15.9553 2.49033 15.9438L2.49129 15.9431C2.52393 15.9191 2.53635 15.8918 2.53973 15.8704C2.5432 15.8485 2.53818 15.8294 2.52596 15.8132L2.52285 15.8091L2.52287 15.8091C2.50789 15.7889 2.48824 15.7772 2.46335 15.7732C2.43758 15.769 2.40139 15.7729 2.36204 15.7979L2.35934 15.7997L2.35933 15.7997C2.1499 15.9312 1.96588 16.0795 1.80964 16.25L1.80621 16.2538L1.80619 16.2538C1.57424 16.5019 1.45181 16.7545 1.41242 16.997C1.37334 17.2377 1.41057 17.501 1.55131 17.7832C1.70814 18.0949 1.96255 18.3476 2.29711 18.5579L2.29854 18.5588C3.36895 19.2366 4.5858 19.4654 5.90844 19.521L5.90883 19.521C6.62383 19.5516 7.33868 19.4754 8.05722 19.33L8.05778 19.3299C8.97058 19.1462 9.76768 18.8519 10.4192 18.2785L10.4198 18.278C10.9869 17.7805 11.1025 17.1139 10.7876 16.5545L10.7865 16.5527C10.6129 16.2413 10.3364 16.0014 9.96511 15.7676M3.41455 18.8757C3.41443 18.8757 3.41431 18.8756 3.41419 18.8756L3.58108 18.4043L3.41521 18.8759C3.41499 18.8759 3.41477 18.8758 3.41455 18.8757ZM9.96511 15.7676C9.87528 15.712 9.81689 15.7124 9.79626 15.7158C9.78552 15.7175 9.77828 15.7208 9.77226 15.7248C9.7664 15.7287 9.75608 15.7372 9.74406 15.7557M9.74406 15.7557C9.73038 15.7784 9.72718 15.7926 9.72635 15.798C9.72559 15.8029 9.72583 15.8063 9.72719 15.811C9.72963 15.8193 9.74801 15.8681 9.84319 15.9291L9.84787 15.9321L9.84786 15.9321C10.0176 16.0436 10.2189 16.1844 10.3945 16.3852L10.3974 16.3884L10.3973 16.3884C10.5912 16.6141 10.7615 16.8982 10.7527 17.2412C10.7439 17.5877 10.556 17.8617 10.3424 18.0746M2.78736 16.346L2.73741 16.3828C2.58743 16.4929 2.43746 16.603 2.31778 16.7429L2.78736 16.346ZM6.16717 3.88968C4.46622 3.89945 3.17079 5.21496 3.15591 6.88947L3.1559 6.89078C3.14581 8.50536 4.54223 9.94771 6.33852 9.86488L6.33928 9.86484C7.8776 9.79155 9.24154 8.52183 9.22155 6.8144L9.22154 6.81408C9.20139 5.18169 7.82684 3.8759 6.16717 3.88968ZM6.16717 3.88968L6.17004 4.38967L6.16564 3.88969C6.16615 3.88969 6.16666 3.88968 6.16717 3.88968ZM10.8303 3.65866C11.5349 4.61654 11.8557 5.68502 11.8674 6.55369C11.8709 7.84929 11.5856 8.80162 11.2046 9.76127C10.2942 12.0504 9.01395 14.1456 7.56401 16.1736L7.56368 16.1741C7.19147 16.696 6.78878 17.2009 6.37331 17.6991L6.37306 17.6994C6.27006 17.8231 6.2086 17.8543 6.18913 17.8615C6.1697 17.8544 6.11096 17.8244 6.01252 17.7083C4.65882 16.1103 3.51309 14.3671 2.48997 12.5302L2.48994 12.5302C1.84206 11.3673 1.27305 10.1883 0.87554 8.94695C0.646649 8.2272 0.492746 7.52755 0.500263 6.81695L0.500266 6.81674C0.523078 4.5705 1.94287 2.53547 4.07719 1.69559L4.07719 1.6956L4.08001 1.69447C4.76375 1.4206 5.47361 1.26961 6.18478 1.28417C8.13251 1.33393 9.68844 2.10809 10.8302 3.65849L10.8303 3.65866ZM6.19634 17.8636C6.19634 17.8637 6.19588 17.8636 6.19497 17.8634L6.19634 17.8636ZM5.8974 18.819C5.97945 18.8443 6.0661 18.8597 6.15739 18.8626L5.8974 18.819ZM0.71373 6.82893L0.713759 6.84502L0.714823 6.86107C0.717104 6.89552 0.718829 6.94113 0.720813 6.99359C0.725997 7.1307 0.732951 7.31458 0.756238 7.46821C0.898701 8.51582 1.25156 9.48872 1.66366 10.4049L1.66375 10.4051C2.7263 12.7643 4.11142 14.9288 5.67342 16.9714C5.70569 17.0141 5.75649 17.0769 5.82516 17.1312C5.89929 17.1899 6.02917 17.266 6.20455 17.2609C6.37413 17.256 6.49485 17.1774 6.55816 17.1264C6.62036 17.0763 6.66822 17.0195 6.6979 16.9827L6.69797 16.9827L6.70358 16.9755C7.98449 15.3242 9.11458 13.5723 10.0764 11.7197C10.6166 10.6849 11.1032 9.60299 11.4237 8.44738C11.6461 7.65008 11.7374 6.8193 11.5838 5.96236C11.0519 2.9876 8.20649 1.04313 5.20759 1.57268L5.20658 1.57286C2.64301 2.031 0.709118 4.27197 0.71373 6.82893ZM6.16912 3.68663L6.17749 3.68672L6.18586 3.68652C7.85286 3.64761 9.44909 5.00354 9.43504 6.906C9.42065 8.58814 8.11392 10.0572 6.20557 10.0643H6.20548C4.37798 10.0715 3.01834 8.74691 2.9462 6.99236C2.87123 5.10334 4.42097 3.66888 6.16912 3.68663Z" fill="#C39367" stroke="#C39367"/>
</svg>
