<svg width="16" height="18" viewBox="0 0 16 18" fill="none" xmlns="http://www.w3.org/2000/svg">
<g clip-path="url(#clip0)">
<path d="M11.4432 11.4651L11.7636 12.199C11.8614 12.4229 11.9498 12.6187 12.0444 12.8125C12.2202 13.153 12.4677 13.3681 12.7945 13.4781L12.7963 13.4787C13.2866 13.646 13.7361 13.6022 14.1037 13.4071C14.4745 13.2103 14.8028 12.8372 14.9984 12.2755L14.9986 12.2751C15.4525 10.9748 15.6237 9.65825 15.4291 8.30178C14.64 2.83308 9.03029 -0.334719 4.42909 2.39196C1.59783 4.07425 0.0518257 7.44751 0.624234 10.7611L0.62442 10.7621C1.58495 16.3961 7.4986 19.141 11.99 16.1831C12.0296 16.1568 12.065 16.1336 12.0968 16.1128C12.2494 16.0128 12.3191 15.9671 12.3782 15.8869L12.3813 15.8826L12.3813 15.8826C12.4235 15.8266 12.4241 15.7986 12.4242 15.7959V15.7959L12.4242 15.7958C12.4243 15.7941 12.4253 15.773 12.3935 15.7276C12.3624 15.6871 12.3402 15.6706 12.3305 15.6646C12.3298 15.6648 12.329 15.665 12.3281 15.6653C12.3227 15.6669 12.3143 15.6698 12.3029 15.6753C12.2368 15.7087 12.1804 15.7493 12.0927 15.8124C12.0683 15.8299 12.0415 15.8492 12.0114 15.8706C10.4617 16.9892 8.72193 17.3499 6.91765 17.0696C2.59028 16.3996 0.0514124 12.2538 0.799389 7.96508L0.799417 7.96492C1.83306 2.04963 8.01507 0.0663936 12.1006 2.9509C14.0749 4.33918 15.0978 6.36341 15.3003 8.8107L15.3004 8.8112C15.399 10.0169 15.2179 11.1972 14.775 12.3137L14.774 12.3162C14.6061 12.7327 14.3386 13.0853 13.9449 13.2576C13.5408 13.4344 13.1096 13.3757 12.7197 13.1819L12.7141 13.1791L12.7141 13.1791C12.0197 12.823 11.9289 12.1287 11.9051 11.6656C11.905 11.6652 11.905 11.6649 11.905 11.6646L12.4043 11.639C12.3821 11.2406 12.3848 10.8423 12.3875 10.4439C12.3913 9.87784 12.3952 9.31177 12.3275 8.7457L11.4432 11.4651ZM11.4432 11.4651L10.9245 12.0752C10.3291 12.7754 9.63719 13.2369 8.81638 13.4609C6.80876 13.9917 4.50835 12.3506 4.15325 10.0356L11.4432 11.4651ZM11.6977 9.27246L11.6976 9.27075C11.6369 7.15934 10.0796 5.43189 7.86078 5.50801L7.85928 5.50806C5.81591 5.58431 4.2799 7.27437 4.28859 9.40975L4.28861 9.41163C4.30582 11.6086 5.84353 13.2958 7.96958 13.2752C10.0347 13.3628 11.7579 11.6513 11.6977 9.27246Z" fill="#C39367" stroke="#C39367"/>
</g>
<defs>
<clipPath id="clip0">
<rect y="0.891602" width="16" height="17" fill="white"/>
</clipPath>
</defs>
</svg>
