<svg width="22" height="35" viewBox="0 0 22 35" fill="none" xmlns="http://www.w3.org/2000/svg">
<path d="M10.9947 8.24935e-05C17.8211 -0.0224507 23.3935 6.48463 21.6906 13.6076C20.7459 17.5534 18.8762 21.0636 16.8347 24.4887C15.4655 26.787 13.9809 29.0128 12.2658 31.0608C11.218 32.3127 10.6708 32.2801 9.64517 30.9832C5.84676 26.1812 2.62744 21.0236 0.688973 15.1424C-1.17342 9.50408 0.819022 4.19126 5.70935 1.37711C7.23558 0.498317 9.17895 -0.00742857 10.9947 8.24935e-05ZM2.26428 11.0589C2.29127 11.4945 2.26673 11.9427 2.35262 12.3658C2.50475 13.1294 2.6667 13.9006 2.91698 14.6366C4.64197 19.6816 7.39508 24.1381 10.4942 28.3994C10.9187 28.9828 11.2131 28.8075 11.537 28.3318C12.4792 26.9448 13.4804 25.5953 14.3613 24.1707C16.3071 21.0185 18.1155 17.7913 19.1952 14.196C19.6884 12.5561 19.8896 10.9162 19.5215 9.20865C18.5891 4.89479 14.506 1.87284 10.1678 2.32601C5.648 2.79921 2.26673 6.54222 2.26428 11.0589Z" fill="#C39367"/>
<path d="M10.9322 34.9967C8.62322 35.0418 6.4173 34.6287 4.34633 33.5621C3.74026 33.2491 3.19552 32.856 2.71704 32.3603C0.854644 30.4325 1.36502 27.6108 3.78442 26.4666C4.3218 26.2113 4.815 26.2463 5.18306 26.7395C5.57566 27.2653 5.49224 27.7886 5.05547 28.2618C3.49488 29.9543 3.61021 30.818 5.74252 31.6818C9.40352 33.1615 13.1087 33.2091 16.6985 31.4214C18.475 30.5376 18.5069 29.6238 16.9684 28.3719C16.3992 27.9063 16.0704 27.3805 16.5488 26.692C17.0101 26.026 17.6236 26.0936 18.2542 26.4691C20.9435 28.0715 21.0809 31.1485 18.5388 32.9712C16.247 34.6161 13.6215 34.9366 10.9322 34.9967Z" fill="#C39367"/>
<path d="M4.28267 11.1043C4.27777 7.39633 7.31061 4.33683 10.9986 4.32932C14.6547 4.32181 17.6581 7.36128 17.7145 11.1268C17.7709 14.7897 14.6939 17.8718 10.9741 17.8768C7.26398 17.8818 4.28758 14.8698 4.28267 11.1043ZM15.3491 11.0968C15.3491 8.57808 13.4622 6.66025 10.9691 6.64272C8.53012 6.6252 6.5205 8.70326 6.54749 11.217C6.57448 13.5779 8.60373 15.5684 10.9912 15.5734C13.4474 15.5784 15.3491 13.623 15.3491 11.0968Z" fill="#C39367"/>
</svg>
