<svg width="22" height="22" viewBox="0 0 22 22" fill="none" xmlns="http://www.w3.org/2000/svg">
<path d="M1.03659 5.29511C0.886129 4.83631 1.22617 4.46051 1.57374 4.07717C2.65708 2.88337 3.94203 1.97784 5.43763 1.38472C6.07258 1.13268 6.65637 1.29869 7.18149 1.71071C7.29885 1.80277 7.37107 1.92955 7.42072 2.0699C7.9323 3.52932 8.44839 4.98874 8.86517 6.47985C8.96598 6.84055 8.95093 7.19069 8.86366 7.54536C8.78091 7.88041 8.60938 8.14603 8.30394 8.32865C7.90371 8.56861 7.51853 8.83122 7.12431 9.08024C6.68647 9.35793 6.59619 9.70958 6.87003 10.1623C7.12883 10.5864 7.44931 10.9683 7.76529 11.3501C8.83658 12.6435 10.0282 13.8116 11.3824 14.8077C11.6036 14.9707 11.8353 15.1066 12.1076 15.1639C12.3965 15.2258 12.6162 15.1503 12.7772 14.8862C13.024 14.4787 13.2873 14.0803 13.5431 13.6788C13.859 13.1793 14.5451 12.8563 15.1259 12.9891C16.6877 13.3468 18.2375 13.7498 19.7 14.4289C20.4087 14.7579 20.8104 15.6725 20.5275 16.412C19.9182 18.0058 18.9296 19.3294 17.6898 20.496C17.2083 20.9488 16.6983 20.905 16.1566 20.8733C14.7242 20.7903 13.3324 20.502 11.9858 19.9979C9.73334 19.1528 7.76679 17.8639 6.05151 16.1766C4.08647 14.2418 2.60291 11.9991 1.73173 9.36699C1.30893 8.08566 1.06819 6.76811 1.03659 5.29511ZM16.2574 19.933C16.8969 19.9376 16.9014 19.9406 17.3558 19.4908C17.598 19.2509 17.8297 19.0034 18.0524 18.7453C18.725 17.965 19.2531 17.0957 19.6278 16.1343C19.7572 15.8038 19.5962 15.4144 19.2907 15.2771C17.9381 14.6689 16.5222 14.2614 15.0763 13.9565C14.7121 13.8796 14.4488 13.949 14.2397 14.3142C14.008 14.7187 13.7387 15.102 13.4859 15.4944C13.3098 15.7676 13.0676 15.9517 12.7516 16.0317C12.0956 16.1977 11.4998 16.0589 10.9626 15.662C9.40533 14.5149 8.02107 13.1838 6.82038 11.664C6.50742 11.2686 6.16888 10.8822 5.97478 10.4084C5.68589 9.70355 5.70996 8.78141 6.58415 8.30299C6.94075 8.1083 7.27478 7.86833 7.61783 7.6495C8.04214 7.37934 8.10834 7.19371 7.97292 6.7017C7.59526 5.34039 7.13635 4.00775 6.67142 2.6751C6.50892 2.21177 6.19144 2.0533 5.72651 2.24045C4.33624 2.79433 3.17918 3.67421 2.19365 4.79556C2.04921 4.96006 1.99805 5.13815 1.99955 5.35548C2.02513 7.40198 2.55927 9.32171 3.48312 11.1283C4.98323 14.0592 7.15591 16.3713 9.99665 18.0344C11.9331 19.1664 14.011 19.8319 16.2574 19.933Z" fill="#C39367"/>
<path d="M21 10.4748C20.994 10.594 20.9955 10.6725 20.9834 10.748C20.9383 11.0332 20.7532 11.1962 20.4929 11.1856C20.2537 11.1751 20.0807 11.003 20.0551 10.7238C20.028 10.4039 20.0416 10.0839 19.9979 9.76244C19.5676 6.53421 17.8929 4.1919 15.0131 2.71437C13.8636 2.12578 12.6267 1.85714 11.3373 1.83299C11.2214 1.83148 11.1041 1.8345 10.9957 1.77866C10.7896 1.67301 10.6963 1.50398 10.7309 1.27609C10.767 1.04216 10.9867 0.876143 11.2756 0.892744C11.8458 0.924438 12.4176 0.953113 12.9818 1.0648C17.094 1.87525 20.195 5.08385 20.8706 9.23874C20.9398 9.65981 20.9609 10.0884 21 10.4748Z" fill="#C39367"/>
<path d="M11.4877 3.67423C14.005 3.85383 15.9519 4.9948 17.276 7.15902C17.9245 8.2185 18.2345 9.38362 18.2661 10.6257C18.2721 10.8898 18.1668 11.083 17.914 11.1675C17.586 11.2762 17.3166 11.0392 17.3076 10.6317C17.2805 9.49681 16.9916 8.43583 16.3747 7.48351C15.3019 5.8294 13.7988 4.84992 11.8263 4.63259C11.6246 4.60995 11.4215 4.59637 11.2184 4.58278C10.919 4.56316 10.7204 4.38055 10.7234 4.12096C10.7264 3.85383 10.916 3.6848 11.2259 3.67423C11.3117 3.67121 11.4004 3.67423 11.4877 3.67423Z" fill="#C39367"/>
<path d="M15.3004 10.5381C15.3065 10.9924 15.2177 11.1494 14.9348 11.1841C14.6173 11.2233 14.4097 11.0211 14.3916 10.6558C14.3555 9.92537 14.1283 9.26131 13.6634 8.69385C13.0601 7.95735 12.2837 7.54684 11.3282 7.49703C11.2695 7.49402 11.2109 7.49553 11.1537 7.48647C10.8693 7.44421 10.6632 7.22236 10.6827 6.9839C10.7038 6.73186 10.9205 6.53717 11.2124 6.54773C12.4582 6.59603 13.5099 7.07445 14.3209 8.03281C14.9288 8.75271 15.2643 9.58882 15.3004 10.5381Z" fill="#C39367"/>
<path d="M1.03659 5.29511C0.886129 4.83631 1.22617 4.46051 1.57374 4.07717C2.65708 2.88337 3.94203 1.97784 5.43763 1.38472C6.07258 1.13268 6.65637 1.29869 7.18149 1.71071C7.29885 1.80277 7.37107 1.92955 7.42072 2.0699C7.9323 3.52932 8.44839 4.98874 8.86517 6.47985C8.96598 6.84055 8.95093 7.19069 8.86366 7.54536C8.78091 7.88041 8.60938 8.14603 8.30394 8.32865C7.90371 8.56861 7.51853 8.83122 7.12431 9.08024C6.68647 9.35793 6.59619 9.70958 6.87003 10.1623C7.12883 10.5864 7.44931 10.9683 7.76529 11.3501C8.83658 12.6435 10.0282 13.8116 11.3824 14.8077C11.6036 14.9707 11.8353 15.1066 12.1076 15.1639C12.3965 15.2258 12.6162 15.1503 12.7772 14.8862C13.024 14.4787 13.2873 14.0803 13.5431 13.6788C13.859 13.1793 14.5451 12.8563 15.1259 12.9891C16.6877 13.3468 18.2375 13.7498 19.7 14.4289C20.4087 14.7579 20.8104 15.6725 20.5275 16.412C19.9182 18.0058 18.9296 19.3294 17.6898 20.496C17.2083 20.9488 16.6983 20.905 16.1566 20.8733C14.7242 20.7903 13.3324 20.502 11.9858 19.9979C9.73334 19.1528 7.76679 17.8639 6.05151 16.1766C4.08647 14.2418 2.60291 11.9991 1.73173 9.36699C1.30893 8.08566 1.06819 6.76811 1.03659 5.29511ZM16.2574 19.933C16.8969 19.9376 16.9014 19.9406 17.3558 19.4908C17.598 19.2509 17.8297 19.0034 18.0524 18.7453C18.725 17.965 19.2531 17.0957 19.6278 16.1343C19.7572 15.8038 19.5962 15.4144 19.2907 15.2771C17.9381 14.6689 16.5222 14.2614 15.0763 13.9565C14.7121 13.8796 14.4488 13.949 14.2397 14.3142C14.008 14.7187 13.7387 15.102 13.4859 15.4944C13.3098 15.7676 13.0676 15.9517 12.7516 16.0317C12.0956 16.1977 11.4998 16.0589 10.9626 15.662C9.40533 14.5149 8.02107 13.1838 6.82038 11.664C6.50742 11.2686 6.16888 10.8822 5.97478 10.4084C5.68589 9.70355 5.70996 8.78141 6.58415 8.30299C6.94075 8.1083 7.27478 7.86833 7.61783 7.6495C8.04214 7.37934 8.10834 7.19371 7.97292 6.7017C7.59526 5.34039 7.13635 4.00775 6.67142 2.6751C6.50892 2.21177 6.19144 2.0533 5.72651 2.24045C4.33624 2.79433 3.17918 3.67421 2.19365 4.79556C2.04921 4.96006 1.99805 5.13815 1.99955 5.35548C2.02513 7.40198 2.55927 9.32171 3.48312 11.1283C4.98323 14.0592 7.15591 16.3713 9.99665 18.0344C11.9331 19.1664 14.011 19.8319 16.2574 19.933Z" stroke="#C39367" stroke-width="0.3"/>
<path d="M21 10.4748C20.994 10.594 20.9955 10.6725 20.9834 10.748C20.9383 11.0332 20.7532 11.1962 20.4929 11.1856C20.2537 11.1751 20.0807 11.003 20.0551 10.7238C20.028 10.4039 20.0416 10.0839 19.9979 9.76244C19.5676 6.53421 17.8929 4.1919 15.0131 2.71437C13.8636 2.12578 12.6267 1.85714 11.3373 1.83299C11.2214 1.83148 11.1041 1.8345 10.9957 1.77866C10.7896 1.67301 10.6963 1.50398 10.7309 1.27609C10.767 1.04216 10.9867 0.876143 11.2756 0.892744C11.8458 0.924438 12.4176 0.953113 12.9818 1.0648C17.094 1.87525 20.195 5.08385 20.8706 9.23874C20.9398 9.65981 20.9609 10.0884 21 10.4748Z" stroke="#C39367" stroke-width="0.3"/>
<path d="M11.4877 3.67423C14.005 3.85383 15.9519 4.9948 17.276 7.15902C17.9245 8.2185 18.2345 9.38362 18.2661 10.6257C18.2721 10.8898 18.1668 11.083 17.914 11.1675C17.586 11.2762 17.3166 11.0392 17.3076 10.6317C17.2805 9.49681 16.9916 8.43583 16.3747 7.48351C15.3019 5.8294 13.7988 4.84992 11.8263 4.63259C11.6246 4.60995 11.4215 4.59637 11.2184 4.58278C10.919 4.56316 10.7204 4.38055 10.7234 4.12096C10.7264 3.85383 10.916 3.6848 11.2259 3.67423C11.3117 3.67121 11.4004 3.67423 11.4877 3.67423Z" stroke="#C39367" stroke-width="0.3"/>
<path d="M15.3004 10.5381C15.3065 10.9924 15.2177 11.1494 14.9348 11.1841C14.6173 11.2233 14.4097 11.0211 14.3916 10.6558C14.3555 9.92537 14.1283 9.26131 13.6634 8.69385C13.0601 7.95735 12.2837 7.54684 11.3282 7.49703C11.2695 7.49402 11.2109 7.49553 11.1537 7.48647C10.8693 7.44421 10.6632 7.22236 10.6827 6.9839C10.7038 6.73186 10.9205 6.53717 11.2124 6.54773C12.4582 6.59603 13.5099 7.07445 14.3209 8.03281C14.9288 8.75271 15.2643 9.58882 15.3004 10.5381Z" stroke="#C39367" stroke-width="0.3"/>
</svg>
