<svg width="14" height="14" viewBox="0 0 14 14" fill="none" xmlns="http://www.w3.org/2000/svg">
<path d="M13.8055 11.7771L11.8316 13.6233C11.5403 13.9051 11.1541 14.0005 10.7779 14.0009C9.11461 13.954 7.54238 13.1836 6.25149 12.3925C4.13257 10.939 2.18837 9.13681 0.968149 6.95887C0.500152 6.04559 -0.0489746 4.88032 0.00349043 3.86093C0.00816877 3.47746 0.117765 3.1011 0.404194 2.85392L2.37803 0.993756C2.7879 0.665033 3.18428 0.778689 3.44657 1.16159L5.03453 4.0008C5.20167 4.33715 5.10579 4.69755 4.85643 4.93789L4.12922 5.62321C4.08433 5.6812 4.05574 5.7472 4.05502 5.81903C4.33388 6.8368 5.17867 7.77488 5.92496 8.42046C6.67125 9.06604 7.47342 9.94068 8.5147 10.1477C8.6434 10.1816 8.80105 10.1935 8.89314 10.1128L9.73909 9.30157C10.0307 9.09317 10.4518 8.99131 10.7631 9.16171H10.7779L13.6422 10.7561C14.0627 11.0047 14.1065 11.4849 13.8055 11.7771Z" fill="#E04E39"/>
</svg>
