<svg width="10" height="10" viewBox="0 0 10 10" fill="none" xmlns="http://www.w3.org/2000/svg">
<path d="M9.99965 5.00418C10.0245 7.73368 7.73152 10 4.99156 10C2.26815 9.99173 -0.00825533 7.72541 2.25051e-05 4.9711C0.00830034 2.25813 2.27643 -0.0164528 5.03295 8.96674e-05C7.7398 0.0166321 10.0328 2.27468 9.99965 5.00418ZM9.21325 5.01245C9.21325 2.85366 7.54113 0.827212 5.02467 0.802398C2.86415 0.769314 0.827806 2.46491 0.802972 4.98764C0.778139 7.14643 2.47509 9.17288 4.98328 9.19769C7.14379 9.2225 9.16358 7.53518 9.21325 5.01245Z" fill="#E04E39"/>
<path d="M7.96342 3.73916C7.95514 3.78052 7.92203 3.80533 7.88892 3.83015C7.50814 4.21889 7.11908 4.60764 6.7383 4.98812C6.0678 5.64982 5.40557 6.31978 4.73507 6.98148C4.61918 7.09728 4.61918 7.09728 4.50329 6.98148C3.83278 6.31151 3.16228 5.64154 2.48349 4.97985C2.41727 4.91368 2.41727 4.87232 2.48349 4.80615C2.62422 4.67381 2.75666 4.54974 2.88083 4.40913C2.95533 4.33469 2.99672 4.34296 3.06294 4.4174C3.54306 4.90541 4.03145 5.38514 4.51156 5.87314C4.59434 5.95585 4.63573 5.95585 4.71851 5.87314C5.5794 4.99639 6.44858 4.13618 7.30119 3.27597C7.38397 3.19326 7.43364 3.18499 7.51642 3.27597C7.64058 3.41658 7.77303 3.54065 7.90548 3.66472C7.93031 3.68954 7.95514 3.70608 7.96342 3.73916Z" fill="#E04E39"/>
</svg>
