<svg width="16" height="9" viewBox="0 0 16 9" fill="none" xmlns="http://www.w3.org/2000/svg">
<path d="M1 7.21871C1.00191 7.23739 1.01719 7.24927 1.03056 7.26116C1.29605 7.49718 1.56155 7.7315 1.82513 7.96752C1.8767 8.01507 1.90726 7.99639 1.94928 7.95903C2.5624 7.41228 3.17742 6.86723 3.79054 6.32217C5.17531 5.09113 6.56007 3.86009 7.94293 2.62904C7.9945 2.5832 8.02124 2.58999 8.06708 2.63244C9.20927 3.64953 10.3534 4.66663 11.4975 5.68373C12.3417 6.43424 13.1859 7.18475 14.0302 7.93526C14.0359 7.94036 14.0397 7.94375 14.0454 7.94885C14.1238 8.01677 14.1238 8.01677 14.2002 7.95054C14.3721 7.79773 14.544 7.64491 14.7159 7.49209C14.8018 7.41568 14.8878 7.33927 14.9737 7.26286C15.01 7.23229 15.0081 7.21022 14.9718 7.17796C14.2613 6.548 13.5508 5.91635 12.8402 5.2864C12.1603 4.68191 11.4803 4.07573 10.7984 3.46955C10.1184 2.86506 9.43657 2.26058 8.75469 1.6544C8.52167 1.44724 8.28673 1.23839 8.05562 1.02953C8.0136 0.992179 7.98877 0.988783 7.94675 1.02784C7.57238 1.36404 7.1942 1.69854 6.81793 2.03305C6.40345 2.40151 5.98898 2.76997 5.5745 3.13844C5.16767 3.50011 4.76083 3.86348 4.35209 4.22515C3.94334 4.58852 3.53269 4.95189 3.12394 5.31526C2.76104 5.63788 2.39814 5.9605 2.03523 6.28312C1.70289 6.57857 1.37245 6.87402 1.04011 7.16947C1.02865 7.18475 1.00764 7.19664 1 7.21871Z" stroke-width="0.5"/>
</svg>
