<svg width="38" height="32" viewBox="0 0 38 32" fill="none" xmlns="http://www.w3.org/2000/svg">
<path d="M29.7443 31.9826C29.1415 32.0308 28.3737 31.8517 27.6131 31.6245C27.3763 31.5556 27.1754 31.5556 26.9386 31.6245C25.3169 32.1134 23.6881 32.1272 22.0736 31.6038C21.8798 31.5418 21.7076 31.5418 21.5139 31.6038C19.8707 32.1272 18.2203 32.1341 16.5699 31.6038C16.3762 31.5418 16.2039 31.5487 16.0102 31.6107C14.3455 32.1134 12.6807 32.141 11.0232 31.59C10.8294 31.5212 10.65 31.5625 10.4706 31.6245C5.35445 33.2084 0.654435 29.5309 0.0732118 25.2886C-0.285568 22.6647 0.690312 20.5023 2.64925 18.7117C4.06284 17.417 5.77781 16.7214 7.72957 16.6112C8.61216 16.563 9.47323 16.7008 10.3128 16.9487C10.6429 17.0451 10.9371 17.0589 11.2671 16.9556C12.8099 16.4666 14.3526 16.5148 15.8954 16.9693C16.1322 17.0382 16.3618 17.0726 16.6129 16.99C18.2203 16.4804 19.8276 16.4942 21.4421 16.9762C21.6861 17.052 21.9085 17.0589 22.1597 16.9762C23.7527 16.4666 25.3528 16.4873 26.9458 16.9762C27.1611 17.0451 27.362 17.0658 27.5844 16.99C31.8324 15.5989 36.0014 18.1194 37.458 21.5697C38.6707 24.4415 37.8025 27.878 35.3125 29.951C33.7626 31.2457 32.0189 32.0032 29.7443 31.9826ZM29.9811 29.6686C33.1742 29.7099 35.5063 27.513 35.5924 24.4691C35.6785 21.3631 33.4325 19.0078 30.1605 18.9252C26.9171 18.8426 24.4559 21.1014 24.3913 24.1247C24.3124 27.3202 26.6875 29.7168 29.9811 29.6686ZM7.79415 18.9459C4.60818 19.0354 2.12543 21.37 2.43398 24.9443C2.67078 27.6164 5.41903 30.013 7.75109 29.6135C4.69429 26.0599 4.72299 22.5201 7.79415 18.9459ZM13.305 18.939C10.0832 19.0216 7.5717 21.4527 7.93048 24.9236C8.21751 27.7059 10.8725 29.9992 13.2404 29.6135C10.1908 26.053 10.2051 22.5063 13.305 18.939ZM18.7943 29.6755C15.6945 26.053 15.6945 22.5063 18.8158 18.9321C16.9215 19.0285 15.3572 19.6896 14.3526 21.2116C13.0897 23.1262 13.0252 25.1509 14.1804 27.1343C15.1491 28.8078 16.7493 29.5722 18.7943 29.6755ZM24.3195 18.9183C22.1238 19.0767 20.416 19.91 19.5047 21.7832C18.4642 23.9112 18.658 25.9911 20.2007 27.8712C21.1479 29.0213 23.1858 29.8615 24.2406 29.5929C21.3345 26.6453 21.1192 22.2171 24.3195 18.9183Z" fill="#E04E39"/>
<path d="M18.1055 9.38008C18.1055 7.30715 18.1055 5.24111 18.1055 3.16818C18.1055 2.55525 18.0983 1.93544 18.1055 1.32251C18.1126 0.537418 18.579 0.0140202 19.2966 0.0002466C19.9711 -0.013527 20.5021 0.551191 20.5165 1.31563C20.5308 2.18337 20.5236 3.04422 20.5236 3.91195C20.5236 5.613 20.5236 7.32093 20.5236 9.02197C20.5236 9.12527 20.538 9.22857 20.5452 9.33187C20.7317 9.34565 20.7963 9.20791 20.8824 9.11838C21.5139 8.51923 22.1381 7.91319 22.7696 7.31404C23.3293 6.78375 24.0468 6.76309 24.5563 7.23828C25.0442 7.69281 25.0084 8.4297 24.463 8.9531C23.0566 10.3098 21.6502 11.6596 20.2366 13.0094C19.641 13.581 18.9593 13.581 18.3638 13.0094C16.9502 11.6596 15.5438 10.3098 14.1374 8.9531C13.5777 8.41593 13.5561 7.72725 14.0584 7.24517C14.5607 6.76309 15.2854 6.79064 15.838 7.32781C16.5699 8.03027 17.2874 8.73961 18.0122 9.44895C18.0337 9.42829 18.0696 9.40074 18.1055 9.38008Z" fill="#E04E39"/>
</svg>
