<svg width="35" height="32" viewBox="0 0 35 32" fill="none" xmlns="http://www.w3.org/2000/svg">
<path d="M23.0126 23.5874C22.3762 23.4776 21.7685 23.5011 21.1635 23.5926C19.1415 23.8986 17.1876 23.7234 15.3385 22.7872C14.5134 22.3688 13.7905 21.804 13.0677 21.2313C11.8524 20.2663 10.4563 19.7956 8.90055 19.8558C7.99955 19.8898 7.13523 20.1121 6.29709 20.4442C6.20018 20.4834 6.10589 20.52 6.00636 20.5488C5.45896 20.7057 5.13418 20.4703 5.10799 19.9055C5.10537 19.8453 5.10799 19.7852 5.10799 19.725C5.10275 19.406 5.03203 19.3328 4.70725 19.3328C3.95817 19.3328 3.21171 19.3406 2.46262 19.338C2.24261 19.338 2.14047 19.3955 2.16666 19.6544C2.35524 21.5791 2.88431 23.407 3.68054 25.1643C3.90055 25.6507 4.15723 26.1161 4.39557 26.5895C4.57106 26.9346 4.84345 26.9137 5.14466 26.8745C5.25466 26.8614 5.26252 26.7647 5.26252 26.6758C5.26252 26.4953 5.2468 26.3149 5.26252 26.1344C5.29395 25.7213 5.5873 25.5042 5.99327 25.5931C6.44115 25.6925 6.83926 25.9252 7.25833 26.1004C10.0713 27.2824 12.8424 28.5586 15.6921 29.6516C16.7135 30.0439 17.7167 29.9184 18.7251 29.6255C19.4977 29.4006 20.2101 29.0397 20.9252 28.6815C23.5391 27.374 26.153 26.0691 28.7696 24.7668C29.2829 24.5105 29.8015 24.2699 30.3044 23.9744C29.5239 24.1156 28.7434 24.2647 27.9603 24.3981C27.5386 24.4687 27.1247 24.5968 26.6873 24.589C26.098 24.5759 25.7733 24.2856 25.6737 23.6685C25.5978 23.1899 25.8597 22.7715 26.3678 22.6094C26.8445 22.4577 27.3448 22.4211 27.8345 22.3217C29.0551 22.0759 30.2704 21.7909 31.5092 21.6575C32.2164 21.5817 32.9288 21.4823 33.636 21.668C34.5134 21.8981 35.0687 22.68 34.9927 23.5796C34.9587 24.0006 34.7073 24.2882 34.372 24.5105C33.8036 24.8871 33.1724 25.1433 32.5543 25.4232C30.9121 26.1711 29.2803 26.9425 27.6643 27.7427C25.6161 28.7547 23.5758 29.7876 21.5171 30.7787C20.4721 31.2834 19.4008 31.728 18.2379 31.9084C16.9624 32.1071 15.7314 31.9502 14.5606 31.4246C12.3317 30.4283 10.0818 29.4843 7.85288 28.4906C7.39714 28.2866 7.02784 28.2788 6.58258 28.5664C5.39086 29.3352 3.48672 28.8802 2.72192 27.6642C1.55901 25.8206 0.786354 23.8097 0.359429 21.668C0.149895 20.622 0.0241747 19.5681 0.000602191 18.5012C-0.0151128 17.769 0.275615 17.4473 1.00636 17.4212C2.60406 17.3637 4.20437 17.3427 5.80207 17.3663C6.24209 17.3715 6.62973 17.5415 6.89688 17.905C7.02784 18.0828 7.17713 18.0985 7.36833 18.0619C8.95293 17.7533 10.514 17.837 12.0436 18.3704C13.1777 18.7679 14.1572 19.4243 15.1054 20.146C16.0928 20.8992 17.185 21.4457 18.4291 21.6575C19.2306 21.7935 20.0216 21.7229 20.8152 21.6105C21.7424 21.4797 22.6722 21.3333 23.602 21.5791C24.1991 21.736 24.723 22.0053 25.0739 22.544C25.6528 23.4305 25.3909 24.5837 24.4532 25.261C23.8586 25.6899 23.1646 25.8573 22.4679 26.0194C20.5821 26.4639 18.6648 26.6051 16.7345 26.5345C16.0823 26.511 15.4328 26.4482 14.7832 26.3803C14.1441 26.3149 13.801 26.0377 13.6989 25.5591C13.5601 24.9054 13.987 24.3484 14.6549 24.3118C15.087 24.2882 15.514 24.3405 15.9409 24.3824C18.2458 24.6099 20.5035 24.3876 22.7245 23.7417C22.8214 23.7155 22.921 23.692 23.0126 23.5874Z" fill="#E04E39"/>
<path d="M22.7928 13.3365C22.7771 12.1755 23.0337 11.0876 23.6938 10.1174C24.4428 9.0139 25.5036 8.37322 26.8106 8.16402C28.4371 7.90513 29.8619 8.34445 31.0222 9.52383C31.7896 10.3031 32.1851 11.2654 32.3292 12.3454C32.4863 13.5248 32.4051 14.6728 31.9546 15.7816C31.2501 17.5153 29.5895 18.5979 27.7142 18.6764C25.0898 18.7862 23.0992 16.7125 22.8425 14.3119C22.8111 13.9877 22.8006 13.6634 22.7928 13.3365ZM27.6173 16.5844C28.8195 16.5844 29.5817 16.0849 30.0295 14.9735C30.3805 14.1027 30.391 13.1979 30.1893 12.2931C30.0636 11.7309 29.8121 11.2184 29.3643 10.8392C27.8897 9.5892 25.7603 10.154 25.0767 11.9689C24.8043 12.6932 24.8331 13.4281 24.9405 14.1733C25.1631 15.7267 26.1113 16.587 27.6173 16.5844Z" fill="#E04E39"/>
<path d="M16.6896 0C19.1307 0 21.1579 1.84097 21.4356 4.28602C21.5456 5.25096 21.5351 6.1976 21.2784 7.14162C20.6812 9.31732 18.6749 10.787 16.4277 10.6196C14.4476 10.4705 13.0594 9.44022 12.3654 7.58094C11.7315 5.87595 11.7472 4.16311 12.5723 2.51042C13.3449 0.967558 14.961 0 16.6896 0ZM16.6818 2.0711C15.5896 2.04495 14.8745 2.52349 14.4214 3.39691C13.8504 4.49783 13.8557 5.64321 14.2381 6.79644C14.5157 7.63063 15.0972 8.16409 15.9431 8.40467C17.2449 8.77601 18.4864 8.23731 19.0757 7.02394C19.4502 6.25251 19.5052 5.42617 19.3874 4.58413C19.17 3.00204 18.1433 2.07633 16.6818 2.0711Z" fill="#E04E39"/>
<path d="M27.282 1.77813C27.2479 2.09977 27.0436 2.40573 26.8734 2.71953C25.6895 4.92661 24.4952 7.13107 23.3035 9.33553C22.1196 11.5243 20.9436 13.7183 19.7545 15.9045C19.4559 16.4536 19.2019 17.0315 18.8221 17.5336C18.5785 17.8579 18.2563 18.0488 17.8399 17.9416C17.4182 17.8343 17.0856 17.6016 16.9991 17.1361C16.9494 16.8616 17.041 16.6079 17.1694 16.3726C18.3978 14.0923 19.6314 11.812 20.865 9.53166C21.8472 7.71161 22.832 5.89417 23.8142 4.07411C24.2988 3.17455 24.7859 2.27759 25.2705 1.37803C25.4276 1.08776 25.6503 0.873329 25.9619 0.755653C26.6403 0.496766 27.2794 0.967469 27.282 1.77813Z" fill="#E04E39"/>
</svg>
