<svg width="66" height="28" viewBox="0 0 66 28" fill="none" xmlns="http://www.w3.org/2000/svg">
<path d="M50.7104 27.9572C46.3392 27.9572 41.9681 27.9599 37.5969 27.9572C36.8211 27.9572 36.0031 28.0071 35.5533 27.1913C35.0754 26.3284 35.7304 25.7512 36.1577 25.1408C36.6496 24.4388 37.1191 23.7062 37.7122 23.093C39.6096 21.134 40.2674 18.8254 39.9273 16.1783C39.8598 15.6483 39.9132 15.1017 39.9188 14.5606C39.9413 12.5073 40.8662 11.9523 42.6652 12.9429C47.8713 15.812 53.0689 18.695 58.2693 21.5724C60.4141 22.76 62.5589 23.9421 64.7009 25.1297C65.4318 25.5348 66.202 25.9677 65.9518 26.9721C65.6932 28.0071 64.7824 27.9544 63.956 27.9544C59.5455 27.9599 55.1265 27.9572 50.7104 27.9572ZM53.8897 25.4349C53.9009 25.3739 53.9122 25.3156 53.9262 25.2545C50.6851 24.4249 47.4384 23.6008 44.2001 22.7628C41.6139 22.0941 41.6139 22.0858 40.1156 24.2667C39.9217 24.5498 39.5534 24.8217 39.7727 25.2101C39.9526 25.532 40.3433 25.4266 40.6497 25.4266C45.063 25.4349 49.4764 25.4349 53.8897 25.4349ZM53.7744 22.4715C53.8138 22.3743 53.8503 22.2744 53.8897 22.1773C50.3843 20.2461 46.8762 18.3149 43.368 16.3892C43.174 16.2837 42.8648 16.1395 42.7467 16.3531C42.3082 17.1411 42.5949 18.0096 42.5528 18.8448C42.5219 19.447 42.921 19.7022 43.4579 19.8382C44.7313 20.1629 45.9991 20.5125 47.2725 20.8371C49.4398 21.3865 51.6071 21.9248 53.7744 22.4715Z" fill="#E04E39"/>
<path d="M10.1416 27.9873C5.91666 27.4379 2.64743 25.3984 0.943942 21.4999C-0.77641 17.5653 -0.141117 13.7139 2.81609 10.5867C6.13311 7.07666 9.75372 3.84129 13.2394 0.481051C13.8719 -0.126621 14.4566 -0.193216 15.1144 0.481051C15.7609 1.14144 15.7244 1.69085 15.0694 2.31794C12.3174 4.94009 9.5963 7.58999 6.83868 10.2066C4.99183 11.9602 3.15623 13.6639 2.77955 16.3943C2.22858 20.3816 5.11551 24.4439 9.12967 25.1626C9.57662 25.243 10.0236 25.3596 10.4762 25.3818C11.5162 25.4345 11.772 26.0949 11.7411 26.9412C11.7046 27.9734 10.9259 27.9734 10.1416 27.9873Z" fill="#E04E39"/>
<path d="M23.3222 25.26C25.1269 25.26 26.7152 25.2461 28.2978 25.2656C29.217 25.2767 29.9085 25.5791 29.886 26.6696C29.872 27.4687 29.5571 27.9987 28.6773 27.9432C26.1277 27.7823 23.4684 28.5453 21.0678 27.0664C20.559 26.7528 20.112 27.0525 19.6735 27.305C18.5182 27.9682 17.2504 28.0098 15.963 27.9488C15.1 27.9071 14.7936 27.4354 14.7879 26.6224C14.7823 25.815 15.0831 25.3321 15.9405 25.2794C16.5224 25.2434 17.1042 25.199 17.9054 25.1407C16.8203 23.7977 16.1063 22.4797 16.5364 20.8481C16.7782 19.9352 17.287 19.2166 18.0487 18.6699C19.6426 17.524 22.1557 17.696 23.6146 19.0362C25.155 20.443 25.1101 22.3687 23.3222 25.26ZM20.5449 20.4097C19.6595 20.493 19.0776 21.0091 19.1197 21.8609C19.1591 22.7128 19.7044 23.4647 20.6433 23.4176C21.54 23.3732 22.1163 22.6656 22.0854 21.7777C22.0573 20.9175 21.4613 20.443 20.5449 20.4097Z" fill="#E04E39"/>
</svg>
