<svg width="21" height="46" viewBox="0 0 21 46" fill="none" xmlns="http://www.w3.org/2000/svg">
<path d="M17.5007 33.9987C16.7198 33.9987 15.9626 33.9987 15.2054 33.9987C14.3062 33.9987 14.111 33.8084 14.111 32.9042C14.111 25.921 14.111 18.9378 14.1169 11.9546C14.1169 11.8178 14.1169 11.681 14.1169 11.5442C14.1288 10.3783 13.9395 10.533 15.164 10.5151C15.513 10.5092 15.6432 10.6222 15.6432 10.9851C15.6254 12.2818 15.6372 13.5785 15.6372 14.8752C15.6372 20.5319 15.6372 26.1887 15.6313 31.8455C15.6313 32.476 15.6313 32.476 16.2466 32.476C17.1694 32.476 18.0982 32.4819 19.021 32.476C19.3818 32.476 19.7368 32.476 19.9143 32.8686C20.0976 33.2611 19.9675 33.6002 19.7072 33.9214C17.1753 37.0799 14.6493 40.2384 12.1234 43.3969C11.8098 43.7895 11.5022 44.1821 11.1828 44.5747C10.7273 45.1338 10.1771 45.1457 9.73344 44.5865C6.9176 41.0355 4.11359 37.4784 1.29775 33.9214C1.05521 33.618 0.901403 33.2968 1.07296 32.9161C1.25043 32.5236 1.59945 32.47 1.98988 32.476C2.9423 32.4879 3.90063 32.4641 4.85305 32.4879C5.24348 32.4998 5.38545 32.3808 5.37954 31.9704C5.35588 30.5963 5.37954 29.2282 5.36771 27.8542C5.36179 27.4854 5.47419 27.3367 5.8587 27.3486C7.07732 27.3783 6.88211 27.2118 6.89394 28.3479C6.90577 29.8409 6.89986 31.3339 6.89986 32.8329C6.89986 33.856 6.74013 34.0106 5.7049 34.0106C4.98319 34.0106 4.25557 34.0106 3.46879 34.0106C3.66992 34.4389 3.95387 34.7304 4.20233 35.0456C6.18406 37.5498 8.17172 40.0481 10.1416 42.5642C10.3782 42.8675 10.5143 42.921 10.7746 42.5939C12.9397 39.8637 15.1167 37.1453 17.2936 34.427C17.3764 34.308 17.5066 34.2307 17.5007 33.9987Z" fill="#E04E39"/>
<path d="M2.29158 26.4385C2.07861 26.3553 1.9603 26.1709 1.81241 26.0222C1.19127 25.4035 1.19718 25.4035 1.80058 24.7968C4.39163 22.1915 6.98267 19.5862 9.57964 16.9749C10.0115 16.5407 10.0115 16.5466 10.4197 16.9571C11.1177 17.6709 11.1177 17.6709 10.4019 18.3906C7.84044 20.9662 5.27897 23.5417 2.7175 26.1114C2.58736 26.2422 2.48088 26.3969 2.29158 26.4385Z" fill="#E04E39"/>
<path d="M3.27949 21.0078C2.04904 20.9959 0.996053 19.8895 1.0138 18.6285C1.03155 17.4329 2.1496 16.3563 3.36231 16.3741C4.5691 16.392 5.63391 17.4865 5.62799 18.7118C5.62208 19.9431 4.52177 21.0197 3.27949 21.0078ZM4.04852 18.688C4.04852 18.1824 3.80598 17.9266 3.30907 17.9147C2.88906 17.9028 2.55778 18.23 2.54595 18.6523C2.54003 19.146 2.80032 19.4137 3.29132 19.4196C3.82373 19.4256 4.04852 19.2114 4.04852 18.688Z" fill="#E04E39"/>
<path d="M11.2656 24.3923C11.2656 25.576 10.1771 26.6765 9.00582 26.6824C7.72804 26.6824 6.65731 25.6177 6.65731 24.3448C6.65731 23.1849 7.77537 22.0547 8.923 22.0487C10.2008 22.0428 11.2656 23.1135 11.2656 24.3923ZM8.2427 24.3567C8.23087 24.8563 8.45567 25.1121 8.91709 25.1299C9.39625 25.1537 9.72161 24.8385 9.72753 24.3626C9.73344 23.9165 9.4909 23.6548 9.04723 23.6369C8.47341 23.6191 8.25454 23.8094 8.2427 24.3567Z" fill="#E04E39"/>
<path d="M9.01765 8.76042C9.01765 7.55888 9.02948 6.35139 9.01174 5.14985C9.00582 4.76916 9.13597 4.6383 9.50865 4.6502C10.6681 4.69183 10.5321 4.48364 10.538 5.66139C10.5439 7.83844 10.5261 10.0155 10.5498 12.1925C10.5557 12.6565 10.4137 12.7993 9.95824 12.7814C8.87568 12.7398 9.02948 12.8825 9.02357 11.8178C9.01765 10.8007 9.02357 9.78351 9.01765 8.76042Z" fill="#E04E39"/>
<path d="M6.89986 12.0617C6.89986 13.1145 6.88803 14.1614 6.90577 15.2142C6.91169 15.589 6.78746 15.7198 6.40886 15.7139C5.2139 15.6841 5.38545 15.8507 5.37954 14.7086C5.36771 12.7576 5.38545 10.8126 5.36771 8.86154C5.36179 8.44516 5.49193 8.29645 5.91194 8.3143C7.00634 8.36783 6.89394 8.1418 6.89986 9.31955C6.90577 10.2296 6.89986 11.1457 6.89986 12.0617Z" fill="#E04E39"/>
<path d="M10.538 2.16384C10.538 2.18168 10.538 2.19358 10.538 2.21142C10.538 3.31779 10.3901 3.43676 9.29569 3.25831C9.1123 3.22857 9.02948 3.1453 9.02948 2.96685C9.02948 2.41961 9.02357 1.87238 9.02948 1.32514C9.02948 1.21807 9.0354 1.111 9.14188 1.04557C9.24245 0.980143 10.3546 0.986091 10.4433 1.05747C10.538 1.1348 10.538 1.24186 10.538 1.34893C10.538 1.6166 10.538 1.89022 10.538 2.16384Z" fill="#E04E39"/>
<path d="M15.6372 7.95741C15.6372 7.98715 15.6372 8.01689 15.6372 8.04663C15.6313 9.22438 15.6313 9.21843 14.4541 9.11731C14.2352 9.09946 14.1169 9.03403 14.1169 8.7961C14.1228 8.26671 14.0637 7.72543 14.1288 7.20198C14.2057 6.55363 14.744 6.93431 15.0693 6.86888C15.3119 6.8213 15.6491 6.77371 15.6313 7.22577C15.6254 7.46965 15.6313 7.71353 15.6372 7.95741Z" fill="#E04E39"/>
<path d="M6.17223 5.39372C6.89986 5.39372 6.89986 5.39372 6.89986 6.18484C6.89986 6.92242 6.89986 6.92242 6.06575 6.91647C5.37954 6.91647 5.37954 6.91647 5.38545 6.07777C5.38545 5.39372 5.38545 5.39372 6.17223 5.39372Z" fill="#E04E39"/>
<path d="M17.5007 33.9987C16.7198 33.9987 15.9626 33.9987 15.2054 33.9987C14.3062 33.9987 14.111 33.8084 14.111 32.9042C14.111 25.921 14.111 18.9378 14.1169 11.9546C14.1169 11.8178 14.1169 11.681 14.1169 11.5442C14.1288 10.3783 13.9395 10.533 15.164 10.5151C15.513 10.5092 15.6432 10.6222 15.6432 10.9851C15.6254 12.2818 15.6372 13.5785 15.6372 14.8752C15.6372 20.5319 15.6372 26.1887 15.6313 31.8455C15.6313 32.476 15.6313 32.476 16.2466 32.476C17.1694 32.476 18.0982 32.4819 19.021 32.476C19.3818 32.476 19.7368 32.476 19.9143 32.8686C20.0976 33.2611 19.9675 33.6002 19.7072 33.9214C17.1753 37.0799 14.6493 40.2384 12.1234 43.3969C11.8098 43.7895 11.5022 44.1821 11.1828 44.5747C10.7273 45.1338 10.1771 45.1457 9.73344 44.5865C6.9176 41.0355 4.11359 37.4784 1.29775 33.9214C1.05521 33.618 0.901403 33.2968 1.07296 32.9161C1.25043 32.5236 1.59945 32.47 1.98988 32.476C2.9423 32.4879 3.90063 32.4641 4.85305 32.4879C5.24348 32.4998 5.38545 32.3808 5.37954 31.9704C5.35588 30.5963 5.37954 29.2282 5.36771 27.8542C5.36179 27.4854 5.47419 27.3367 5.8587 27.3486C7.07732 27.3783 6.88211 27.2118 6.89394 28.3479C6.90577 29.8409 6.89986 31.3339 6.89986 32.8329C6.89986 33.856 6.74013 34.0106 5.7049 34.0106C4.98319 34.0106 4.25557 34.0106 3.46879 34.0106C3.66992 34.4389 3.95387 34.7304 4.20233 35.0456C6.18406 37.5498 8.17172 40.0481 10.1416 42.5642C10.3782 42.8675 10.5143 42.921 10.7746 42.5939C12.9397 39.8637 15.1167 37.1453 17.2936 34.427C17.3764 34.308 17.5066 34.2307 17.5007 33.9987Z" stroke="#E04E39" stroke-width="0.5"/>
<path d="M2.29158 26.4385C2.07861 26.3553 1.9603 26.1709 1.81241 26.0222C1.19127 25.4035 1.19718 25.4035 1.80058 24.7968C4.39163 22.1915 6.98267 19.5862 9.57964 16.9749C10.0115 16.5407 10.0115 16.5466 10.4197 16.9571C11.1177 17.6709 11.1177 17.6709 10.4019 18.3906C7.84044 20.9662 5.27897 23.5417 2.7175 26.1114C2.58736 26.2422 2.48088 26.3969 2.29158 26.4385Z" stroke="#E04E39" stroke-width="0.5"/>
<path d="M3.27949 21.0078C2.04904 20.9959 0.996053 19.8895 1.0138 18.6285C1.03155 17.4329 2.1496 16.3563 3.36231 16.3741C4.5691 16.392 5.63391 17.4865 5.62799 18.7118C5.62208 19.9431 4.52177 21.0197 3.27949 21.0078ZM4.04852 18.688C4.04852 18.1824 3.80598 17.9266 3.30907 17.9147C2.88906 17.9028 2.55778 18.23 2.54595 18.6523C2.54003 19.146 2.80032 19.4137 3.29132 19.4196C3.82373 19.4256 4.04852 19.2114 4.04852 18.688Z" stroke="#E04E39" stroke-width="0.5"/>
<path d="M11.2656 24.3923C11.2656 25.576 10.1771 26.6765 9.00582 26.6824C7.72804 26.6824 6.65731 25.6177 6.65731 24.3448C6.65731 23.1849 7.77537 22.0547 8.923 22.0487C10.2008 22.0428 11.2656 23.1135 11.2656 24.3923ZM8.2427 24.3567C8.23087 24.8563 8.45567 25.1121 8.91709 25.1299C9.39625 25.1537 9.72161 24.8385 9.72753 24.3626C9.73344 23.9165 9.4909 23.6548 9.04723 23.6369C8.47341 23.6191 8.25454 23.8094 8.2427 24.3567Z" stroke="#E04E39" stroke-width="0.5"/>
<path d="M9.01765 8.76042C9.01765 7.55888 9.02948 6.35139 9.01174 5.14985C9.00582 4.76916 9.13597 4.6383 9.50865 4.6502C10.6681 4.69183 10.5321 4.48364 10.538 5.66139C10.5439 7.83844 10.5261 10.0155 10.5498 12.1925C10.5557 12.6565 10.4137 12.7993 9.95824 12.7814C8.87568 12.7398 9.02948 12.8825 9.02357 11.8178C9.01765 10.8007 9.02357 9.78351 9.01765 8.76042Z" stroke="#E04E39" stroke-width="0.5"/>
<path d="M6.89986 12.0617C6.89986 13.1145 6.88803 14.1614 6.90577 15.2142C6.91169 15.589 6.78746 15.7198 6.40886 15.7139C5.2139 15.6841 5.38545 15.8507 5.37954 14.7086C5.36771 12.7576 5.38545 10.8126 5.36771 8.86154C5.36179 8.44516 5.49193 8.29645 5.91194 8.3143C7.00634 8.36783 6.89394 8.1418 6.89986 9.31955C6.90577 10.2296 6.89986 11.1457 6.89986 12.0617Z" stroke="#E04E39" stroke-width="0.5"/>
<path d="M10.538 2.16384C10.538 2.18168 10.538 2.19358 10.538 2.21142C10.538 3.31779 10.3901 3.43676 9.29569 3.25831C9.1123 3.22857 9.02948 3.1453 9.02948 2.96685C9.02948 2.41961 9.02357 1.87238 9.02948 1.32514C9.02948 1.21807 9.0354 1.111 9.14188 1.04557C9.24245 0.980143 10.3546 0.986091 10.4433 1.05747C10.538 1.1348 10.538 1.24186 10.538 1.34893C10.538 1.6166 10.538 1.89022 10.538 2.16384Z" stroke="#E04E39" stroke-width="0.5"/>
<path d="M15.6372 7.95741C15.6372 7.98715 15.6372 8.01689 15.6372 8.04663C15.6313 9.22438 15.6313 9.21843 14.4541 9.11731C14.2352 9.09946 14.1169 9.03403 14.1169 8.7961C14.1228 8.26671 14.0637 7.72543 14.1288 7.20198C14.2057 6.55363 14.744 6.93431 15.0693 6.86888C15.3119 6.8213 15.6491 6.77371 15.6313 7.22577C15.6254 7.46965 15.6313 7.71353 15.6372 7.95741Z" stroke="#E04E39" stroke-width="0.5"/>
<path d="M6.17223 5.39372C6.89986 5.39372 6.89986 5.39372 6.89986 6.18484C6.89986 6.92242 6.89986 6.92242 6.06575 6.91647C5.37954 6.91647 5.37954 6.91647 5.38545 6.07777C5.38545 5.39372 5.38545 5.39372 6.17223 5.39372Z" stroke="#E04E39" stroke-width="0.5"/>
</svg>
