<svg width="34" height="34" viewBox="0 0 34 34" fill="none" xmlns="http://www.w3.org/2000/svg">
<path d="M16.9905 34C7.61204 34 -0.00634998 26.3562 3.97164e-06 16.946C0.00635792 7.59298 7.65016 -0.00634997 17.054 3.9816e-06C26.3753 0.00635793 34.0063 7.67558 34 17.0286C33.9936 26.3562 26.3308 34 16.9905 34ZM14.3409 22.0419C14.3409 23.5795 14.3472 25.1172 14.3345 26.6485C14.3345 26.9789 14.4425 27.0869 14.7729 27.0805C15.7705 27.0615 16.7681 27.0742 17.7593 27.0742C18.2994 27.0742 18.2994 27.0742 18.2994 26.5405C18.2994 23.5287 18.2994 20.5169 18.2994 17.4988C18.2994 17.0349 18.3312 17.0032 18.7823 17.0032C19.5003 17.0032 20.2246 16.9968 20.9426 17.0032C21.1968 17.0032 21.3048 16.9206 21.3239 16.6537C21.4065 15.599 21.5145 14.5506 21.6034 13.5021C21.6416 13.0383 21.6352 13.0383 21.1587 13.0383C20.3771 13.0383 19.5956 13.032 18.8204 13.0383C18.598 13.0383 18.4392 12.9811 18.4455 12.7206C18.4519 12.2314 18.401 11.7358 18.4836 11.2465C18.579 10.6746 18.8522 10.4395 19.4367 10.4332C20.0467 10.4268 20.6631 10.4268 21.273 10.4332C21.4954 10.4332 21.6034 10.3569 21.6034 10.1218C21.5971 9.20688 21.5971 8.29826 21.6034 7.3833C21.6034 7.16091 21.5208 7.05289 21.2857 7.04654C20.1484 7.04018 19.011 6.94487 17.8673 7.04654C16.0374 7.20539 14.6967 8.42534 14.3917 10.2426C14.2583 11.0432 14.3409 11.8501 14.3218 12.6507C14.3155 12.9239 14.2265 13.0447 13.9406 13.0383C13.5085 13.0256 13.0764 13.0447 12.6444 13.032C12.3966 13.0256 12.3013 13.1336 12.3076 13.3751C12.314 14.468 12.314 15.5608 12.3076 16.6537C12.3076 16.8952 12.4029 17.0032 12.6507 16.9968C13.0447 16.9905 13.445 16.9905 13.8389 16.9968C14.29 17.0032 14.3218 17.0286 14.3218 17.4988C14.3409 19.0174 14.3345 20.5296 14.3409 22.0419Z" fill="#828282"/>
</svg>
