<svg width="21" height="20" viewBox="0 0 21 20" fill="none" xmlns="http://www.w3.org/2000/svg">
<path d="M10.0066 19.8081C6.85018 19.8081 3.69379 19.8081 0.53741 19.8081C0.480021 19.8081 0.422632 19.8081 0.365244 19.8081C0.240901 19.8081 0.193077 19.7505 0.202642 19.6354C0.202642 19.5875 0.202642 19.5299 0.202642 19.482C0.202642 15.7314 0.202642 11.9712 0.202642 8.22056C0.202642 7.88483 0.326984 7.6738 0.613928 7.51073C1.9817 6.6762 3.35903 5.85126 4.73636 5.01672C7.36668 3.43399 10.0066 1.84166 12.6369 0.258931C12.7517 0.191785 12.876 0.182192 13.0003 0.201377C16.3672 0.728955 19.0262 3.29011 19.667 6.63783C19.7531 7.09826 19.8009 7.55869 19.8009 8.02871C19.8009 11.8561 19.8009 15.693 19.8009 19.5203C19.8009 19.7985 19.8009 19.7985 19.5235 19.7985C16.3576 19.8081 13.1821 19.8081 10.0066 19.8081ZM10.0066 18.5323C10.877 18.5323 11.7378 18.5323 12.6082 18.5323C14.502 18.5323 16.3958 18.5323 18.2897 18.5323C18.5671 18.5323 18.5671 18.5323 18.5671 18.2637C18.5671 18.0815 18.5671 17.9088 18.5671 17.7266C18.5671 15.6258 18.5671 13.5347 18.5671 11.434C18.5671 11.2038 18.481 11.1558 18.2897 11.2709C18.0601 11.4052 17.974 11.6258 17.9645 11.8848C17.9262 13.0071 16.8358 13.8513 15.7454 13.6114C14.9037 13.4196 14.3203 12.729 14.282 11.8465C14.2629 11.4436 14.0333 11.2038 13.6699 11.2134C13.316 11.2134 13.096 11.4532 13.0769 11.8561C13.0769 11.9424 13.0673 12.0383 13.0482 12.1246C12.8569 13.1126 12.0439 13.717 11.0204 13.6402C10.1405 13.5731 9.43267 12.8057 9.38485 11.8561C9.37529 11.7026 9.34659 11.5683 9.25094 11.4436C9.08834 11.2421 8.82053 11.1558 8.58141 11.2421C8.35185 11.3189 8.18925 11.5683 8.17969 11.8752C8.14143 12.8728 7.33798 13.6498 6.33368 13.6498C5.32938 13.6498 4.52593 12.8824 4.48767 11.8752C4.48767 11.7889 4.46854 11.7122 4.44941 11.6258C4.38246 11.3764 4.16247 11.2134 3.89466 11.2134C3.62684 11.2134 3.40685 11.3668 3.32077 11.6067C3.28251 11.7218 3.28251 11.8369 3.27294 11.952C3.23468 12.7769 2.49819 13.5635 1.67562 13.6306C1.48433 13.6498 1.4365 13.7074 1.4365 13.8992C1.44607 15.3668 1.4365 16.8249 1.4365 18.2925C1.4365 18.5419 1.4365 18.5419 1.69475 18.5419C4.46854 18.5323 7.23277 18.5323 10.0066 18.5323ZM9.997 8.74814C8.64836 8.74814 7.30929 8.74814 5.96065 8.74814C4.5355 8.74814 3.10078 8.74814 1.67562 8.74814C1.55128 8.74814 1.4365 8.73855 1.4365 8.93039C1.4365 10.0335 1.4365 11.127 1.4365 12.2302C1.4365 12.3836 1.50345 12.4028 1.6278 12.3549C1.89561 12.2589 2.01995 12.0575 2.03908 11.6642C2.06778 10.9544 2.59384 10.2733 3.30164 10.0335C3.9903 9.80329 4.80331 10.0143 5.26242 10.5515C5.55893 10.8968 5.72153 11.2901 5.74066 11.7601C5.75979 12.2493 6.17108 12.5275 6.58236 12.3453C6.85974 12.2206 6.9267 11.9808 6.94583 11.7026C6.97452 11.0695 7.27103 10.5707 7.79709 10.2445C9.02139 9.47716 10.5613 10.3021 10.6283 11.7409C10.6474 12.1438 10.877 12.4028 11.2309 12.4028C11.5848 12.4028 11.8239 12.1438 11.843 11.7314C11.843 11.7122 11.843 11.693 11.843 11.6738C11.8813 10.6474 12.9238 9.7937 13.9377 9.96636C14.8846 10.1294 15.4776 10.7913 15.535 11.7697C15.5637 12.1534 15.8028 12.4124 16.1472 12.4028C16.4819 12.4028 16.7211 12.1438 16.7402 11.7793C16.7497 11.6738 16.7497 11.5779 16.7689 11.4724C16.9315 10.6474 17.5532 10.0719 18.414 9.95677C18.5479 9.93759 18.5862 9.88963 18.5862 9.76493C18.5766 9.53471 18.5862 9.30449 18.5862 9.07428C18.5862 8.76732 18.5862 8.76732 18.2706 8.76732C15.4968 8.74814 12.7517 8.74814 9.997 8.74814ZM3.13904 7.44358C3.13904 7.45318 3.1486 7.47236 3.1486 7.48195C3.22512 7.48195 3.30164 7.48195 3.37816 7.48195C5.03287 7.48195 6.69714 7.48195 8.35185 7.48195C10.8387 7.48195 13.3256 7.48195 15.8124 7.48195C16.042 7.48195 16.0611 7.45317 16.0228 7.26133C15.7168 5.63063 14.3585 4.25893 12.7325 3.9232C12.3212 3.83687 11.91 3.84646 11.4987 3.84646C10.8578 3.84646 10.2074 3.87524 9.56658 3.83687C9.26051 3.81768 9.03095 3.90401 8.78227 4.05749C7.61536 4.76732 6.42933 5.47716 5.25286 6.18699C4.55463 6.58987 3.84683 7.02152 3.13904 7.44358ZM11.3169 2.52272C11.7187 2.58027 12.1013 2.5515 12.4934 2.59946C13.9186 2.7913 15.1046 3.4244 16.042 4.51792C16.7306 5.31409 17.1419 6.24454 17.3045 7.29011C17.3236 7.44358 17.381 7.48195 17.5245 7.48195C17.8019 7.47236 18.0697 7.47236 18.3471 7.48195C18.4905 7.48195 18.5288 7.43399 18.5097 7.29011C18.4236 6.63783 18.261 6.00473 17.9836 5.41001C17.0271 3.35725 15.4585 2.0527 13.249 1.52512C13.1438 1.50593 13.0482 1.47716 12.9525 1.53471C12.4073 1.87044 11.8621 2.19658 11.3169 2.52272Z" fill="#E04E39"/>
<path d="M0.537422 20.0002C0.508728 20.0002 0.489598 20.0002 0.460904 20.0002C0.432209 20.0002 0.39395 20.0002 0.365256 20.0002C0.221784 20.0002 0.135701 19.9522 0.0878766 19.9043C0.020923 19.8371 -0.0077714 19.7412 0.0017934 19.6261C0.0017934 19.5973 0.0017934 19.5685 0.0017934 19.5398C0.0017934 19.5206 0.0017934 19.5014 0.0017934 19.4822V17.1129C0.0017934 14.1968 0.0017934 11.1848 0.0017934 8.22082C0.0017934 7.82754 0.164395 7.53977 0.499163 7.33833C1.63737 6.66686 2.78515 5.97622 3.89467 5.30475L4.64072 4.85392C7.27104 3.27118 9.91093 1.67886 12.5412 0.0961236C12.7325 -0.0189843 12.9143 0.000200396 13.0386 0.019385C14.7316 0.28797 16.2715 1.04576 17.4958 2.23521C18.7201 3.41507 19.5427 4.93065 19.8679 6.6189C19.9635 7.08893 20.0018 7.56854 20.0018 8.04816C20.0018 10.9163 20.0018 13.794 20.0018 16.6621V19.5302C20.0018 19.9139 19.9157 20.0002 19.5331 20.0002H10.0066H0.537422ZM0.39395 19.6069C0.422645 19.6069 0.441774 19.6069 0.470469 19.6069C0.489598 19.6069 0.518293 19.6069 0.537422 19.6069H19.5331C19.5618 19.6069 19.5905 19.6069 19.6192 19.6069C19.6192 19.5781 19.6192 19.5494 19.6192 19.5206V16.6525C19.6192 13.7844 19.6192 10.9067 19.6192 8.03857C19.6192 7.58773 19.5714 7.13689 19.4853 6.68605C18.8636 3.43425 16.2428 0.911471 12.9717 0.393486C12.8665 0.374301 12.7995 0.383893 12.7325 0.422263C10.1022 2.01459 7.4719 3.59732 4.83202 5.18005L4.08596 5.63089C2.97645 6.30236 1.82867 6.993 0.690459 7.66447C0.460904 7.79876 0.374821 7.95224 0.374821 8.21123C0.384385 11.1753 0.374821 14.1872 0.374821 17.1033L0.384385 19.4726C0.384385 19.4918 0.384385 19.5014 0.384385 19.5206C0.39395 19.5494 0.39395 19.5781 0.39395 19.6069ZM18.2897 18.7244H1.70433C1.34087 18.7244 1.25478 18.6381 1.25478 18.2832V17.1513C1.25478 16.0769 1.25478 14.9738 1.25478 13.8899C1.25478 13.6021 1.37912 13.4582 1.67563 13.4295C2.39299 13.3719 3.06253 12.6717 3.09122 11.933V11.9043C3.10079 11.7892 3.10079 11.6645 3.13905 11.5398C3.24426 11.2136 3.54077 11.0122 3.8851 11.0122C3.8851 11.0122 3.8851 11.0122 3.89467 11.0122C4.24856 11.0122 4.54507 11.2328 4.63116 11.5685C4.65985 11.6549 4.66942 11.7604 4.67898 11.8563C4.71724 12.758 5.42504 13.4486 6.33369 13.4486C7.24235 13.4486 7.95014 12.7676 7.9884 11.8659C8.00753 11.4726 8.21796 11.1561 8.52403 11.0506C8.83967 10.945 9.184 11.0506 9.40399 11.3191C9.54746 11.4918 9.57616 11.6932 9.57616 11.8467C9.61442 12.6908 10.2553 13.4007 11.03 13.4486C11.9674 13.5158 12.6847 12.9786 12.8569 12.0865C12.8664 12.0194 12.876 11.9522 12.876 11.8755V11.8467C12.9047 11.3479 13.2108 11.0314 13.6603 11.0218C13.6603 11.0218 13.6603 11.0218 13.6699 11.0218C14.1386 11.0218 14.4446 11.3479 14.4733 11.8467C14.5116 12.6429 15.0281 13.2664 15.7837 13.4295C16.2524 13.535 16.7498 13.4199 17.1419 13.1129C17.5341 12.806 17.7636 12.3647 17.7732 11.8851C17.7828 11.5206 17.9167 11.2712 18.1845 11.1081C18.2419 11.0697 18.4236 10.9642 18.5862 11.0601C18.7488 11.1561 18.7488 11.3671 18.7488 11.4342C18.7488 13.1513 18.7488 14.8683 18.7488 16.5853V18.264C18.7584 18.6381 18.6723 18.7244 18.2897 18.7244ZM10.0066 18.3407H18.2897C18.3184 18.3407 18.3471 18.3407 18.3758 18.3407C18.3758 18.3119 18.3758 18.2928 18.3758 18.264V16.5853C18.3758 14.8683 18.3758 13.1609 18.3758 11.4438C18.2323 11.5302 18.1653 11.6741 18.1558 11.8947C18.1367 12.4894 17.8497 13.0362 17.3715 13.4103C16.8932 13.7844 16.2811 13.9283 15.6976 13.8036C14.7603 13.5925 14.129 12.8347 14.0812 11.8659C14.0716 11.6549 13.9951 11.4151 13.6603 11.4151C13.3256 11.4151 13.2682 11.7028 13.2586 11.8755V11.9043C13.2586 11.9906 13.249 12.0769 13.2299 12.1633C13.0195 13.2472 12.1204 13.9187 11.0013 13.8323C10.0257 13.7652 9.24139 12.9211 9.184 11.8659C9.17444 11.722 9.15531 11.6357 9.09792 11.5685C8.98314 11.4247 8.80141 11.3671 8.62924 11.4247C8.47621 11.4726 8.37099 11.6549 8.36143 11.8851C8.32317 12.9786 7.42408 13.8419 6.32413 13.8419C5.22417 13.8419 4.33465 12.9786 4.28682 11.8851C4.28682 11.8083 4.27726 11.7412 4.25813 11.6836C4.21031 11.5206 4.06683 11.4151 3.8851 11.4151C3.70337 11.4151 3.55033 11.5206 3.50251 11.6836C3.47382 11.7604 3.47382 11.8467 3.46425 11.9426V11.9714C3.41643 12.9115 2.61298 13.7556 1.69476 13.8323C1.66607 13.8323 1.64694 13.8419 1.63737 13.8419C1.63737 13.8515 1.63737 13.8707 1.63737 13.9091C1.64694 15.0026 1.63737 16.1057 1.63737 17.18V18.3119C1.63737 18.3311 1.63737 18.3503 1.63737 18.3695C1.6565 18.3695 1.6852 18.3695 1.70433 18.3695H10.0066V18.3407ZM16.1185 12.5853C15.6785 12.5853 15.3629 12.2496 15.3246 11.77C15.2672 10.8779 14.7412 10.2928 13.8899 10.1489C13.4595 10.0721 13.0004 10.2064 12.6273 10.5134C12.2543 10.8203 12.0343 11.2424 12.0247 11.6741V11.6932C12.0247 11.7028 12.0247 11.722 12.0247 11.7316C12.0056 12.2496 11.69 12.5853 11.2309 12.5853H11.2213C10.7718 12.5757 10.4561 12.24 10.437 11.7412C10.4083 11.1273 10.0735 10.5997 9.54747 10.3215C9.03097 10.053 8.40925 10.0817 7.90232 10.3983C7.42408 10.6956 7.16583 11.1369 7.13713 11.7028C7.12757 11.9618 7.06062 12.3359 6.65889 12.5086C6.41021 12.6237 6.1424 12.6045 5.92241 12.4702C5.69285 12.3263 5.55894 12.0673 5.53981 11.7604C5.53025 11.3479 5.38678 10.993 5.1094 10.6765C4.70768 10.2064 3.97119 10.005 3.35904 10.216C2.72776 10.4271 2.25909 11.041 2.23039 11.6741C2.22083 11.9618 2.15387 12.3743 1.69476 12.5374C1.63737 12.5566 1.4939 12.6141 1.36956 12.5278C1.24522 12.4414 1.24522 12.288 1.24522 12.24C1.24522 10.9259 1.24522 9.90907 1.24522 8.94024C1.24522 8.82514 1.27391 8.72921 1.34087 8.66207C1.43651 8.56614 1.56086 8.56614 1.6565 8.56614H18.2419C18.6627 8.56614 18.7488 8.65248 18.7488 9.06495C18.7488 9.13209 18.7488 9.20883 18.7488 9.27598C18.7488 9.42945 18.7488 9.59252 18.7488 9.746C18.7584 9.97622 18.6436 10.1009 18.414 10.1297C17.6488 10.2256 17.075 10.7532 16.9315 11.4918C16.9219 11.5494 16.9124 11.6165 16.9124 11.6836C16.9124 11.7124 16.9124 11.7412 16.9028 11.77C16.8645 12.24 16.5489 12.5661 16.1185 12.5757C16.128 12.5853 16.128 12.5853 16.1185 12.5853ZM13.6603 9.73641C13.756 9.73641 13.8612 9.746 13.9568 9.76518C14.9898 9.93785 15.6498 10.6765 15.7168 11.7412C15.7359 12.0194 15.8985 12.192 16.128 12.192C16.128 12.192 16.128 12.192 16.1376 12.192C16.3672 12.192 16.5298 12.0194 16.5489 11.7412C16.5489 11.7124 16.5489 11.6836 16.5489 11.6645C16.5489 11.5877 16.5585 11.5014 16.5776 11.4151C16.7498 10.5134 17.448 9.8707 18.3853 9.746C18.3853 9.746 18.3853 9.746 18.3949 9.746C18.3949 9.58293 18.3949 9.41986 18.3949 9.26638C18.3949 9.19924 18.3949 9.1225 18.3949 9.05535C18.3949 9.01698 18.3949 8.96902 18.3949 8.94024C18.3566 8.94024 18.3088 8.94024 18.2706 8.94024H1.6852C1.67563 8.94024 1.66607 8.94024 1.6565 8.94024C1.6565 9.88029 1.6565 10.8683 1.6565 12.1441C1.78085 12.0769 1.85736 11.9522 1.87649 11.6549C1.90519 10.8587 2.47908 10.1201 3.26339 9.85151C4.01901 9.59252 4.92767 9.84192 5.42504 10.4271C5.7598 10.8203 5.93197 11.252 5.94153 11.7508C5.9511 11.9235 6.01805 12.0673 6.1424 12.1441C6.24761 12.2112 6.38152 12.2208 6.51542 12.1537C6.68759 12.0769 6.75454 11.9522 6.76411 11.6741C6.80237 10.9834 7.12757 10.4271 7.71102 10.0625C8.3423 9.66926 9.09792 9.63089 9.73876 9.96662C10.3892 10.3024 10.8005 10.9546 10.8387 11.7124C10.8578 12.0098 11.0109 12.192 11.25 12.192C11.25 12.192 11.25 12.192 11.2596 12.192C11.5082 12.192 11.6613 12.0098 11.6709 11.7028V11.6453C11.69 11.0985 11.9674 10.5805 12.4169 10.2064C12.7612 9.90907 13.2108 9.73641 13.6603 9.73641ZM17.5149 7.67406C17.2854 7.67406 17.1515 7.55895 17.1132 7.31914C16.9602 6.30236 16.5489 5.40068 15.8985 4.64288C14.9994 3.59732 13.8421 2.97382 12.4647 2.79157C12.2926 2.77238 12.1108 2.76279 11.9195 2.7532C11.7187 2.7436 11.4987 2.7436 11.2787 2.70524L10.7431 2.6285L11.6135 2.11051C12.0247 1.86111 12.436 1.6213 12.8473 1.3719C13.0099 1.27598 13.1725 1.31435 13.2873 1.34313C15.5255 1.8707 17.161 3.21363 18.1462 5.33353C18.414 5.90907 18.5958 6.56135 18.6818 7.27118C18.6914 7.3671 18.701 7.4918 18.6149 7.57814C18.5288 7.67406 18.414 7.68365 18.328 7.67406C18.0506 7.66447 17.7732 7.66447 17.5149 7.67406ZM17.4958 7.29037C17.5054 7.29037 17.5054 7.29037 17.5149 7.29037C17.7732 7.28077 18.041 7.28077 18.3088 7.29037C18.2227 6.6285 18.0601 6.04336 17.8019 5.4966C16.8645 3.49181 15.315 2.21603 13.2012 1.71723C13.1247 1.69804 13.0769 1.68845 13.0482 1.70763C12.6752 1.92826 12.3021 2.15847 11.9291 2.3791C12.1204 2.38869 12.3117 2.38869 12.5126 2.41747C13.9855 2.60931 15.2194 3.28078 16.1854 4.40308C16.8837 5.21842 17.3236 6.18725 17.4862 7.27118C17.4958 7.28077 17.4958 7.28077 17.4958 7.29037ZM2.99558 7.67406L2.92862 7.34792L6.1137 5.42945C6.9554 4.92106 7.8258 4.40308 8.68663 3.8755C8.99271 3.68365 9.26052 3.61651 9.57616 3.63569C10.0066 3.66447 10.4466 3.65488 10.877 3.65488C11.0874 3.65488 11.2883 3.65488 11.4987 3.65488H11.6039C11.9865 3.65488 12.3786 3.65488 12.7804 3.74121C14.4829 4.09612 15.8985 5.52538 16.2237 7.23281C16.2428 7.32873 16.2715 7.46303 16.1759 7.56854C16.0898 7.67406 15.9368 7.67406 15.822 7.67406C13.9568 7.67406 12.0917 7.67406 10.2266 7.67406H2.99558ZM9.49008 4.01938C9.27965 4.01938 9.10748 4.07694 8.88749 4.21123C8.02666 4.72922 7.15626 5.25679 6.31456 5.75559L3.77032 7.29037H10.217C12.0821 7.29037 13.9473 7.29037 15.8124 7.29037C15.822 7.29037 15.8315 7.29037 15.8315 7.29037C15.535 5.73641 14.2438 4.43185 12.6943 4.10571C12.3404 4.02898 11.9769 4.02898 11.5943 4.02898H11.4891C11.2883 4.02898 11.0778 4.02898 10.877 4.02898C10.4466 4.03857 9.98745 4.03857 9.54747 4.00979C9.52834 4.01938 9.5092 4.01938 9.49008 4.01938Z" fill="#E04E39"/>
<path d="M3.87539 16.7098C3.52149 16.7098 3.25368 16.4508 3.25368 16.0959C3.25368 15.741 3.53106 15.4628 3.88496 15.4628C4.21972 15.4628 4.4971 15.7506 4.4971 16.0959C4.4971 16.4508 4.23885 16.7098 3.87539 16.7098Z" fill="#E04E39"/>
<path d="M3.87461 16.9017C3.4155 16.9017 3.07116 16.5564 3.0616 16.0959C3.0616 15.8753 3.13812 15.6643 3.29115 15.5108C3.44419 15.3573 3.65462 15.271 3.87461 15.271C4.08503 15.271 4.28589 15.3573 4.43893 15.5108C4.59197 15.6643 4.67805 15.8753 4.67805 16.0959C4.68761 16.5564 4.33372 16.9017 3.87461 16.9017ZM3.87461 16.518C4.12329 16.518 4.30502 16.3453 4.30502 16.0959C4.30502 15.9808 4.2572 15.8657 4.18068 15.7794C4.10416 15.7027 3.99895 15.6547 3.89374 15.6547C3.76939 15.6547 3.66418 15.7027 3.5781 15.7794C3.50158 15.8561 3.45375 15.9712 3.45375 16.0863C3.45375 16.3453 3.62592 16.518 3.87461 16.518Z" fill="#E04E39"/>
<path d="M6.94621 16.7099C6.59231 16.7099 6.3245 16.4605 6.3245 16.1055C6.31493 15.7506 6.59231 15.4725 6.94621 15.4725C7.28098 15.4725 7.55836 15.7506 7.55836 16.096C7.55836 16.4509 7.30011 16.7099 6.94621 16.7099Z" fill="#E04E39"/>
<path d="M6.94614 16.9017C6.48702 16.9017 6.14269 16.5564 6.13313 16.1055C6.13313 15.8849 6.20965 15.6739 6.36268 15.5204C6.51572 15.3669 6.72614 15.2806 6.94614 15.271C7.15656 15.271 7.35742 15.3573 7.51046 15.5108C7.6635 15.6643 7.74958 15.8753 7.74958 16.0959C7.74958 16.5468 7.40525 16.9017 6.94614 16.9017ZM6.94614 15.6547C6.82179 15.6547 6.70702 15.7027 6.6305 15.789C6.55398 15.8753 6.50615 15.9808 6.50615 16.1055C6.50615 16.3549 6.68789 16.5276 6.93657 16.5276C7.18526 16.5276 7.35742 16.3549 7.35742 16.1055C7.35742 15.9904 7.3096 15.8753 7.23308 15.7986C7.15656 15.7027 7.06091 15.6547 6.94614 15.6547Z" fill="#E04E39"/>
<path d="M9.99828 16.7098C9.64438 16.7098 9.38613 16.4508 9.37657 16.0959C9.37657 15.741 9.65395 15.4628 10.0078 15.4628C10.3426 15.4628 10.62 15.7506 10.62 16.0959C10.62 16.4508 10.3617 16.7098 9.99828 16.7098Z" fill="#E04E39"/>
<path d="M9.99749 16.9017C9.53838 16.9017 9.19405 16.5564 9.18448 16.0959C9.18448 15.8753 9.27057 15.6643 9.4236 15.5108C9.57664 15.3573 9.78707 15.271 10.0071 15.271C10.2175 15.271 10.4183 15.3573 10.5714 15.5108C10.7244 15.6643 10.8105 15.8753 10.8105 16.0959C10.8105 16.5564 10.4566 16.9017 9.99749 16.9017ZM9.99749 16.518C10.2462 16.518 10.4279 16.3453 10.4279 16.0959C10.4279 15.9808 10.3801 15.8657 10.3036 15.7794C10.227 15.7027 10.1218 15.6547 10.0166 15.6547C9.89228 15.6547 9.78707 15.7027 9.70098 15.7794C9.62446 15.8561 9.57664 15.9712 9.57664 16.0863C9.57664 16.3453 9.74881 16.518 9.99749 16.518Z" fill="#E04E39"/>
<path d="M13.0677 16.7098C12.7138 16.7098 12.446 16.4604 12.4364 16.1055C12.4268 15.7506 12.7042 15.4724 13.0581 15.4628C13.3929 15.4628 13.6798 15.741 13.6703 16.0863C13.6798 16.4412 13.4216 16.7098 13.0677 16.7098Z" fill="#E04E39"/>
<path d="M13.0674 16.9017C12.6083 16.9017 12.264 16.566 12.2544 16.1055C12.2544 15.8849 12.3309 15.6739 12.484 15.5204C12.637 15.3669 12.8474 15.2806 13.0674 15.271C13.2778 15.271 13.4787 15.3477 13.6317 15.5012C13.7848 15.6547 13.8709 15.8657 13.8709 16.0863C13.8709 16.5468 13.5265 16.9017 13.0674 16.9017ZM13.0674 15.6547C12.9431 15.6547 12.8283 15.7027 12.7518 15.789C12.6753 15.8753 12.6274 15.9808 12.6274 16.1055C12.6274 16.3549 12.8092 16.518 13.0578 16.518C13.3065 16.518 13.4787 16.3357 13.4787 16.0863C13.4787 15.9712 13.4309 15.8561 13.3448 15.7794C13.2874 15.7027 13.1822 15.6547 13.0674 15.6547Z" fill="#E04E39"/>
<path d="M16.118 16.7098C15.7641 16.7098 15.5058 16.4508 15.5058 16.0959C15.5058 15.741 15.7832 15.4628 16.1371 15.4724C16.4719 15.4724 16.7493 15.7602 16.7397 16.1055C16.7397 16.4508 16.4719 16.7098 16.118 16.7098Z" fill="#E04E39"/>
<path d="M16.1188 16.9017C15.6597 16.9017 15.3153 16.5564 15.3058 16.0959C15.3058 15.8753 15.3918 15.6643 15.5449 15.5108C15.6979 15.3573 15.9083 15.271 16.1283 15.271H16.1379C16.3483 15.271 16.5492 15.3573 16.6926 15.5108C16.8457 15.6643 16.9318 15.8849 16.9318 16.0959C16.9318 16.5564 16.5779 16.9017 16.1188 16.9017ZM16.1379 15.6547C16.0135 15.6547 15.9083 15.7027 15.8223 15.7794C15.7457 15.8561 15.6979 15.9712 15.6979 16.0863C15.6979 16.3357 15.8701 16.5084 16.1188 16.5084C16.3674 16.5084 16.5492 16.3357 16.5492 16.0863C16.5492 15.9712 16.5109 15.8561 16.4248 15.7698C16.3483 15.7027 16.2431 15.6547 16.1379 15.6547Z" fill="#E04E39"/>
</svg>
