<svg width="20" height="21" viewBox="0 0 20 21" fill="none" xmlns="http://www.w3.org/2000/svg">
<path d="M11.3443 3.37922C8.77738 3.37922 6.21567 3.37922 3.64877 3.37922C3.37857 3.37922 3.37857 3.37922 3.37857 3.64429C3.37857 3.82101 3.38377 3.99772 3.37338 4.16924C3.35259 4.53306 3.19151 4.82412 2.83817 4.95926C2.48483 5.09959 2.16267 5.02683 1.88728 4.75656C1.67423 4.54866 1.46639 4.33556 1.25335 4.12246C0.93638 3.80541 0.614219 3.48836 0.297253 3.16092C-0.0976547 2.76071 -0.0976546 2.26695 0.302449 1.86674C0.822065 1.3418 1.35207 0.822045 1.87169 0.297096C2.15228 0.0164312 2.47964 -0.077124 2.84857 0.0736037C3.22269 0.224331 3.36818 0.536182 3.37857 0.920797C3.38377 1.07152 3.37857 1.21705 3.37857 1.36778C3.37857 1.64845 3.37857 1.64845 3.65397 1.65365C5.19203 1.65365 6.73009 1.65365 8.26816 1.65365C11.8171 1.65365 15.3713 1.65365 18.9203 1.65365C18.9774 1.65365 19.0346 1.65365 19.0969 1.65365C19.6218 1.66924 19.9855 2.02267 19.9855 2.51643C19.9855 3.01019 19.6218 3.36882 19.0917 3.37402C18.1512 3.37922 17.2107 3.37402 16.2702 3.37402C14.6282 3.37922 12.9863 3.37922 11.3443 3.37922Z" fill="#E04E39"/>
<path d="M8.65201 16.6216C11.2137 16.6216 13.7806 16.6216 16.3423 16.6216C16.6177 16.6216 16.6177 16.6216 16.6177 16.341C16.6177 16.1331 16.6125 15.9252 16.6385 15.7173C16.6801 15.3742 16.8723 15.1247 17.2101 15.0208C17.5374 14.9116 17.8388 14.9792 18.0882 15.2287C18.4468 15.5769 18.7949 15.9356 19.1482 16.289C19.3405 16.4813 19.538 16.6736 19.725 16.8659C20.0836 17.2401 20.0888 17.7339 19.725 18.1029C19.1898 18.6486 18.6442 19.1892 18.0986 19.7297C17.8284 20 17.5011 20.0728 17.1477 19.9324C16.7944 19.7921 16.6333 19.5062 16.6125 19.1424C16.6021 18.9553 16.5969 18.763 16.6125 18.5759C16.6229 18.394 16.5502 18.342 16.3735 18.342C14.9757 18.3472 13.5832 18.3472 12.1854 18.3472C8.48054 18.3472 4.77049 18.3472 1.06563 18.3472C0.977292 18.3472 0.883761 18.3524 0.795427 18.342C0.2914 18.2796 -0.0151736 17.9262 0.000414901 17.4324C0.0160034 16.9802 0.38493 16.6372 0.888958 16.632C1.56446 16.6216 2.23996 16.6268 2.91546 16.6268C4.83284 16.6216 6.73983 16.6216 8.65201 16.6216Z" fill="#E04E39"/>
<path d="M10.0129 13.3004C10.0129 13.7422 9.73227 14.0749 9.32697 14.1632C8.95805 14.2412 8.55274 14.0385 8.39686 13.6799C8.25656 13.3524 8.13705 13.0146 8.01754 12.6767C7.97077 12.5468 7.90322 12.5 7.76293 12.5C7.04066 12.5052 6.32359 12.5052 5.60133 12.5C5.44025 12.5 5.3727 12.5572 5.32073 12.7027C5.20642 13.025 5.08691 13.3524 4.95181 13.6643C4.8219 13.9709 4.57249 14.1424 4.24513 14.1684C3.91777 14.1944 3.64757 14.0645 3.46571 13.7838C3.30463 13.5343 3.28384 13.2641 3.39296 12.9834C3.98532 11.4086 4.57249 9.83891 5.16485 8.26406C5.40387 7.62997 5.6325 6.99587 5.88192 6.37217C6.06898 5.8992 6.56781 5.69649 7.01468 5.894C7.26929 6.00834 7.41479 6.21105 7.50832 6.46572C7.89803 7.50523 8.28774 8.54473 8.67745 9.58423C9.09314 10.6965 9.50884 11.8088 9.92973 12.921C9.97649 13.051 10.0285 13.1861 10.0129 13.3004ZM6.68732 9.14764C6.66134 9.17882 6.64056 9.18922 6.63536 9.20481C6.4535 9.68818 6.27163 10.1767 6.08457 10.6601C6.0378 10.7797 6.08457 10.8056 6.19889 10.8056C6.51065 10.8004 6.82242 10.8004 7.13419 10.8056C7.29008 10.8108 7.29527 10.7433 7.24851 10.6289C7.20174 10.5146 7.16017 10.4002 7.11861 10.2807C6.97831 9.91167 6.83282 9.53745 6.68732 9.14764Z" fill="#E04E39"/>
<path d="M13.7273 14.1789C13.0674 14.1789 12.4023 14.1789 11.7424 14.1789C11.3838 14.1789 11.0929 14.0541 10.9162 13.7319C10.7395 13.4096 10.7915 13.0978 10.9837 12.7963C12.0438 11.1019 13.1038 9.40754 14.1638 7.70795C14.195 7.66117 14.2573 7.6092 14.2313 7.55203C14.2002 7.47926 14.117 7.51564 14.0547 7.51564C13.27 7.51564 12.4854 7.51564 11.7008 7.51564C11.1916 7.51564 10.8175 7.16221 10.8123 6.68404C10.8019 6.20067 11.1864 5.82126 11.7008 5.82126C13.057 5.81606 14.4132 5.82126 15.7694 5.82126C16.1123 5.82126 16.3929 5.95119 16.5644 6.25785C16.7411 6.5697 16.7047 6.87635 16.5176 7.17781C15.4576 8.867 14.4028 10.5562 13.348 12.2454C13.3324 12.2662 13.322 12.2922 13.3064 12.3129C13.2077 12.4429 13.2493 12.4845 13.4051 12.4845C14.1898 12.4793 14.9744 12.4793 15.759 12.4845C16.2942 12.4845 16.6787 12.8379 16.6787 13.3265C16.6787 13.8202 16.2942 14.1789 15.7642 14.184C15.0783 14.1789 14.4028 14.1789 13.7273 14.1789Z" fill="#E04E39"/>
</svg>
