<svg width="37" height="29" viewBox="0 0 37 29" fill="none" xmlns="http://www.w3.org/2000/svg">
<mask id="path-1-inside-1" fill="white">
<path d="M13.03 0C16.0833 0 19.1367 0 22.1901 0C22.2922 0 22.3943 0 22.4963 0C22.9604 0.018543 23.2388 0.259603 23.2388 0.66755C23.2388 1.06623 22.9697 1.3351 22.5056 1.34437C21.8003 1.35364 21.0857 1.34437 20.3803 1.35364C19.8885 1.35364 19.8792 1.36291 19.9813 1.81722C20.6216 4.87682 21.2713 7.92715 21.9024 10.9868C21.9581 11.2556 22.0601 11.3576 22.3386 11.3483C24.204 11.3391 26.0787 11.3391 27.9441 11.3483C28.2133 11.3483 28.3061 11.2464 28.2968 10.9868C28.2875 10.1894 28.2968 9.39205 28.2968 8.5947C28.2875 6.6755 29.8281 4.73775 32.5195 4.96954C32.9279 5.00662 33.197 5.29404 33.197 5.63709C33.1878 5.99868 32.8908 6.26755 32.4731 6.29536C32.1112 6.32318 31.7585 6.26755 31.3966 6.36026C30.3571 6.61987 29.6611 7.47285 29.6518 8.53907C29.6425 9.33642 29.6611 10.1338 29.6425 10.9311C29.6332 11.2834 29.7724 11.3669 30.0973 11.3669C31.0996 11.3483 32.1112 11.3576 33.1135 11.3576C34.7376 11.3669 36.0091 12.6371 36.0091 14.2503C36.0184 15.8172 36.0184 17.3934 36.0091 18.9603C35.9998 19.8689 35.5915 20.5921 34.8861 21.1483C34.3293 21.5841 33.8745 21.445 33.6425 20.7775C32.733 18.2464 30.4592 16.7351 27.7771 16.8927C25.4755 17.0225 23.3966 18.7377 22.7098 21.0742C22.5149 21.7417 22.4035 21.8252 21.7075 21.8252C20.371 21.8252 19.0253 21.8252 17.6889 21.8252C17.1599 21.8252 16.9372 21.5748 16.9743 21.0464C17.2898 16.6609 14.2643 12.6927 10.2736 11.6172C6.86757 10.6993 3.86061 11.4874 1.262 13.8609C0.881492 14.2132 0.575228 14.2689 0.268963 14.0278C-0.0651436 13.7682 -0.0651436 13.3324 0.278244 12.9894C1.61467 11.6543 3.20168 10.7642 5.01142 10.2728C5.6982 10.0874 5.65179 10.2172 5.65179 9.4755C5.65179 6.92583 5.64251 4.37616 5.66107 1.82649C5.66107 1.4649 5.56827 1.31656 5.18776 1.3351C4.65875 1.36291 4.13903 1.34437 3.61931 1.34437C3.13671 1.3351 2.83045 1.0755 2.82117 0.686093C2.81189 0.278146 3.12743 0 3.63787 0C6.76548 0 9.89309 0 13.03 0ZM14.32 1.34437C13.0207 1.34437 11.7214 1.35364 10.4221 1.3351C10.1251 1.3351 10.0137 1.41854 10.0137 1.73377C10.023 4.42252 10.023 7.11126 10.0137 9.8C10.0137 10.0781 10.1065 10.2172 10.385 10.2728C11.2202 10.4583 11.9998 10.7921 12.7516 11.2C12.9372 11.302 13.1321 11.3483 13.3362 11.3483C15.6286 11.3483 17.9209 11.3391 20.2133 11.3576C20.5752 11.3576 20.6495 11.2649 20.5659 10.9126C19.907 7.86225 19.2574 4.81192 18.617 1.75232C18.552 1.44636 18.4221 1.3351 18.1066 1.3351C16.8444 1.35364 15.5822 1.34437 14.32 1.34437ZM14.9697 12.7391C14.9604 12.8689 15.0717 12.9152 15.1367 12.9801C17.1228 14.9735 18.1901 17.3656 18.2736 20.1841C18.2829 20.453 18.3664 20.5457 18.6356 20.5364C19.4987 20.5272 20.3618 20.5272 21.2249 20.5364C21.4569 20.5364 21.5683 20.453 21.6425 20.2397C21.8467 19.6742 22.1158 19.1272 22.4778 18.645C22.6077 18.4689 22.6356 18.2742 22.6356 18.0609C22.6356 16.4384 22.6356 14.8252 22.6356 13.2026C22.6356 12.6834 22.6356 12.6834 22.1251 12.6834C19.8699 12.6834 17.624 12.6834 15.3687 12.6834C15.2481 12.6834 15.0996 12.6371 14.9697 12.7391ZM8.72372 5.65563C8.72372 4.35762 8.71444 3.0596 8.733 1.76159C8.733 1.43709 8.63091 1.32583 8.31537 1.34437C7.97198 1.36291 7.61931 1.35364 7.27592 1.34437C7.02534 1.3351 6.92325 1.41854 6.92325 1.67815C6.93254 4.3298 6.93254 6.98146 6.92325 9.62384C6.92325 9.87417 7.00678 9.98543 7.26664 9.93907C7.61003 9.87417 7.9627 9.87417 8.30609 9.93907C8.63091 9.9947 8.74228 9.88344 8.733 9.54967C8.71444 8.25166 8.72372 6.95364 8.72372 5.65563ZM34.5706 19.4331C34.6727 19.155 34.7005 18.9417 34.7005 18.7192C34.7005 17.3007 34.7005 15.8914 34.7005 14.4728C34.6912 13.2861 34.0137 12.6464 32.8351 12.6649C32.5381 12.6742 32.4267 12.7669 32.4267 13.0728C32.436 14.2596 32.436 15.4371 32.4267 16.6238C32.4267 16.8556 32.501 17.004 32.6773 17.1523C33.4105 17.7272 33.9766 18.4318 34.4314 19.2384C34.4592 19.2848 34.5056 19.3311 34.5706 19.4331ZM23.9349 14.8808C23.9349 15.4927 23.9349 16.1139 23.9349 16.7258C23.9349 16.8093 23.8885 16.9205 23.9905 16.9669C24.0833 17.0132 24.1483 16.9113 24.2226 16.8649C24.5288 16.6795 24.8258 16.4755 25.1506 16.3179C25.3641 16.2066 25.4476 16.0675 25.4383 15.8358C25.4291 15.1404 25.4476 14.445 25.4291 13.7589C25.4012 12.4887 25.6704 12.6927 24.2875 12.6649C23.9905 12.6556 23.9163 12.7947 23.9163 13.0636C23.9441 13.6755 23.9349 14.2781 23.9349 14.8808ZM31.1553 14.4636C31.1553 14.2318 31.1553 14 31.1553 13.7682C31.1274 12.4887 31.3873 12.702 30.0137 12.6742C29.7539 12.6649 29.6425 12.7576 29.6425 13.0358C29.6518 13.8331 29.6518 14.6305 29.6425 15.4278C29.6425 15.6503 29.726 15.7523 29.9395 15.7987C30.2365 15.8728 30.5335 15.9563 30.8212 16.0768C31.0717 16.1788 31.1738 16.151 31.1553 15.8543C31.146 15.3907 31.1646 14.9272 31.1553 14.4636ZM26.784 14.2132C26.784 14.6212 26.7933 15.0291 26.784 15.4464C26.784 15.6503 26.8583 15.7152 27.0625 15.6874C27.3687 15.6411 27.675 15.6132 27.9813 15.604C28.2133 15.5947 28.2968 15.5113 28.2968 15.2795C28.2875 14.5192 28.2875 13.7682 28.2968 13.0079C28.2968 12.7762 28.204 12.6742 27.9813 12.6834C27.7028 12.6927 27.4151 12.6927 27.1367 12.6834C26.8954 12.6742 26.784 12.7854 26.7933 13.0265C26.7933 13.4159 26.784 13.8146 26.784 14.2132Z"/>
<path d="M4.45477 26.7113C1.28076 24.894 0.0742632 21.445 1.01162 18.3762C1.86545 15.5762 4.62183 13.4808 7.58238 13.4437C10.6914 13.3974 13.4385 15.3536 14.4223 18.2742C15.3968 21.204 14.3388 24.8199 11.0812 26.6834C15.9072 26.6834 20.6868 26.6834 25.4757 26.6834C22.348 24.2636 23.174 20.5735 24.9559 18.9788C26.9327 17.1987 29.9954 17.2914 31.8608 19.2477C33.6705 21.1483 33.8376 24.6066 31.0255 26.7205C31.3782 26.7205 31.6659 26.7205 31.9536 26.7205C33.0116 26.7205 34.0696 26.7205 35.1276 26.7205C35.7402 26.7205 36.0186 26.9338 36.0093 27.3788C36 27.8053 35.7216 28.0093 35.1369 28.0093C26.8492 28.0093 18.5708 28.0093 10.2831 28.0093C7.35964 28.0093 4.43621 28.0093 1.51278 28.0093C1.14155 28.0093 0.844565 27.9166 0.733196 27.5272C0.612546 27.0914 0.918811 26.7205 1.40141 26.7205C2.3202 26.7113 3.22972 26.7205 4.14851 26.7205C4.19491 26.7113 4.26916 26.7113 4.45477 26.7113ZM7.69375 26.1828C10.8306 26.2013 13.4385 23.6702 13.42 20.5086C13.4107 17.1801 10.7657 14.8252 7.77728 14.7788C4.826 14.7417 2.0325 17.004 1.99538 20.3974C1.95825 23.9205 4.80744 26.2106 7.69375 26.1828ZM24.6961 22.6132C24.6961 24.6066 26.2831 26.1828 28.2877 26.1828C30.2552 26.1828 31.8515 24.5788 31.8515 22.6225C31.8515 20.6106 30.2552 19.0344 28.232 19.0437C26.2552 19.0437 24.6868 20.6199 24.6961 22.6132Z"/>
</mask>
<path d="M13.03 0C16.0833 0 19.1367 0 22.1901 0C22.2922 0 22.3943 0 22.4963 0C22.9604 0.018543 23.2388 0.259603 23.2388 0.66755C23.2388 1.06623 22.9697 1.3351 22.5056 1.34437C21.8003 1.35364 21.0857 1.34437 20.3803 1.35364C19.8885 1.35364 19.8792 1.36291 19.9813 1.81722C20.6216 4.87682 21.2713 7.92715 21.9024 10.9868C21.9581 11.2556 22.0601 11.3576 22.3386 11.3483C24.204 11.3391 26.0787 11.3391 27.9441 11.3483C28.2133 11.3483 28.3061 11.2464 28.2968 10.9868C28.2875 10.1894 28.2968 9.39205 28.2968 8.5947C28.2875 6.6755 29.8281 4.73775 32.5195 4.96954C32.9279 5.00662 33.197 5.29404 33.197 5.63709C33.1878 5.99868 32.8908 6.26755 32.4731 6.29536C32.1112 6.32318 31.7585 6.26755 31.3966 6.36026C30.3571 6.61987 29.6611 7.47285 29.6518 8.53907C29.6425 9.33642 29.6611 10.1338 29.6425 10.9311C29.6332 11.2834 29.7724 11.3669 30.0973 11.3669C31.0996 11.3483 32.1112 11.3576 33.1135 11.3576C34.7376 11.3669 36.0091 12.6371 36.0091 14.2503C36.0184 15.8172 36.0184 17.3934 36.0091 18.9603C35.9998 19.8689 35.5915 20.5921 34.8861 21.1483C34.3293 21.5841 33.8745 21.445 33.6425 20.7775C32.733 18.2464 30.4592 16.7351 27.7771 16.8927C25.4755 17.0225 23.3966 18.7377 22.7098 21.0742C22.5149 21.7417 22.4035 21.8252 21.7075 21.8252C20.371 21.8252 19.0253 21.8252 17.6889 21.8252C17.1599 21.8252 16.9372 21.5748 16.9743 21.0464C17.2898 16.6609 14.2643 12.6927 10.2736 11.6172C6.86757 10.6993 3.86061 11.4874 1.262 13.8609C0.881492 14.2132 0.575228 14.2689 0.268963 14.0278C-0.0651436 13.7682 -0.0651436 13.3324 0.278244 12.9894C1.61467 11.6543 3.20168 10.7642 5.01142 10.2728C5.6982 10.0874 5.65179 10.2172 5.65179 9.4755C5.65179 6.92583 5.64251 4.37616 5.66107 1.82649C5.66107 1.4649 5.56827 1.31656 5.18776 1.3351C4.65875 1.36291 4.13903 1.34437 3.61931 1.34437C3.13671 1.3351 2.83045 1.0755 2.82117 0.686093C2.81189 0.278146 3.12743 0 3.63787 0C6.76548 0 9.89309 0 13.03 0ZM14.32 1.34437C13.0207 1.34437 11.7214 1.35364 10.4221 1.3351C10.1251 1.3351 10.0137 1.41854 10.0137 1.73377C10.023 4.42252 10.023 7.11126 10.0137 9.8C10.0137 10.0781 10.1065 10.2172 10.385 10.2728C11.2202 10.4583 11.9998 10.7921 12.7516 11.2C12.9372 11.302 13.1321 11.3483 13.3362 11.3483C15.6286 11.3483 17.9209 11.3391 20.2133 11.3576C20.5752 11.3576 20.6495 11.2649 20.5659 10.9126C19.907 7.86225 19.2574 4.81192 18.617 1.75232C18.552 1.44636 18.4221 1.3351 18.1066 1.3351C16.8444 1.35364 15.5822 1.34437 14.32 1.34437ZM14.9697 12.7391C14.9604 12.8689 15.0717 12.9152 15.1367 12.9801C17.1228 14.9735 18.1901 17.3656 18.2736 20.1841C18.2829 20.453 18.3664 20.5457 18.6356 20.5364C19.4987 20.5272 20.3618 20.5272 21.2249 20.5364C21.4569 20.5364 21.5683 20.453 21.6425 20.2397C21.8467 19.6742 22.1158 19.1272 22.4778 18.645C22.6077 18.4689 22.6356 18.2742 22.6356 18.0609C22.6356 16.4384 22.6356 14.8252 22.6356 13.2026C22.6356 12.6834 22.6356 12.6834 22.1251 12.6834C19.8699 12.6834 17.624 12.6834 15.3687 12.6834C15.2481 12.6834 15.0996 12.6371 14.9697 12.7391ZM8.72372 5.65563C8.72372 4.35762 8.71444 3.0596 8.733 1.76159C8.733 1.43709 8.63091 1.32583 8.31537 1.34437C7.97198 1.36291 7.61931 1.35364 7.27592 1.34437C7.02534 1.3351 6.92325 1.41854 6.92325 1.67815C6.93254 4.3298 6.93254 6.98146 6.92325 9.62384C6.92325 9.87417 7.00678 9.98543 7.26664 9.93907C7.61003 9.87417 7.9627 9.87417 8.30609 9.93907C8.63091 9.9947 8.74228 9.88344 8.733 9.54967C8.71444 8.25166 8.72372 6.95364 8.72372 5.65563ZM34.5706 19.4331C34.6727 19.155 34.7005 18.9417 34.7005 18.7192C34.7005 17.3007 34.7005 15.8914 34.7005 14.4728C34.6912 13.2861 34.0137 12.6464 32.8351 12.6649C32.5381 12.6742 32.4267 12.7669 32.4267 13.0728C32.436 14.2596 32.436 15.4371 32.4267 16.6238C32.4267 16.8556 32.501 17.004 32.6773 17.1523C33.4105 17.7272 33.9766 18.4318 34.4314 19.2384C34.4592 19.2848 34.5056 19.3311 34.5706 19.4331ZM23.9349 14.8808C23.9349 15.4927 23.9349 16.1139 23.9349 16.7258C23.9349 16.8093 23.8885 16.9205 23.9905 16.9669C24.0833 17.0132 24.1483 16.9113 24.2226 16.8649C24.5288 16.6795 24.8258 16.4755 25.1506 16.3179C25.3641 16.2066 25.4476 16.0675 25.4383 15.8358C25.4291 15.1404 25.4476 14.445 25.4291 13.7589C25.4012 12.4887 25.6704 12.6927 24.2875 12.6649C23.9905 12.6556 23.9163 12.7947 23.9163 13.0636C23.9441 13.6755 23.9349 14.2781 23.9349 14.8808ZM31.1553 14.4636C31.1553 14.2318 31.1553 14 31.1553 13.7682C31.1274 12.4887 31.3873 12.702 30.0137 12.6742C29.7539 12.6649 29.6425 12.7576 29.6425 13.0358C29.6518 13.8331 29.6518 14.6305 29.6425 15.4278C29.6425 15.6503 29.726 15.7523 29.9395 15.7987C30.2365 15.8728 30.5335 15.9563 30.8212 16.0768C31.0717 16.1788 31.1738 16.151 31.1553 15.8543C31.146 15.3907 31.1646 14.9272 31.1553 14.4636ZM26.784 14.2132C26.784 14.6212 26.7933 15.0291 26.784 15.4464C26.784 15.6503 26.8583 15.7152 27.0625 15.6874C27.3687 15.6411 27.675 15.6132 27.9813 15.604C28.2133 15.5947 28.2968 15.5113 28.2968 15.2795C28.2875 14.5192 28.2875 13.7682 28.2968 13.0079C28.2968 12.7762 28.204 12.6742 27.9813 12.6834C27.7028 12.6927 27.4151 12.6927 27.1367 12.6834C26.8954 12.6742 26.784 12.7854 26.7933 13.0265C26.7933 13.4159 26.784 13.8146 26.784 14.2132Z" fill="#E04E39"/>
<path d="M4.45477 26.7113C1.28076 24.894 0.0742632 21.445 1.01162 18.3762C1.86545 15.5762 4.62183 13.4808 7.58238 13.4437C10.6914 13.3974 13.4385 15.3536 14.4223 18.2742C15.3968 21.204 14.3388 24.8199 11.0812 26.6834C15.9072 26.6834 20.6868 26.6834 25.4757 26.6834C22.348 24.2636 23.174 20.5735 24.9559 18.9788C26.9327 17.1987 29.9954 17.2914 31.8608 19.2477C33.6705 21.1483 33.8376 24.6066 31.0255 26.7205C31.3782 26.7205 31.6659 26.7205 31.9536 26.7205C33.0116 26.7205 34.0696 26.7205 35.1276 26.7205C35.7402 26.7205 36.0186 26.9338 36.0093 27.3788C36 27.8053 35.7216 28.0093 35.1369 28.0093C26.8492 28.0093 18.5708 28.0093 10.2831 28.0093C7.35964 28.0093 4.43621 28.0093 1.51278 28.0093C1.14155 28.0093 0.844565 27.9166 0.733196 27.5272C0.612546 27.0914 0.918811 26.7205 1.40141 26.7205C2.3202 26.7113 3.22972 26.7205 4.14851 26.7205C4.19491 26.7113 4.26916 26.7113 4.45477 26.7113ZM7.69375 26.1828C10.8306 26.2013 13.4385 23.6702 13.42 20.5086C13.4107 17.1801 10.7657 14.8252 7.77728 14.7788C4.826 14.7417 2.0325 17.004 1.99538 20.3974C1.95825 23.9205 4.80744 26.2106 7.69375 26.1828ZM24.6961 22.6132C24.6961 24.6066 26.2831 26.1828 28.2877 26.1828C30.2552 26.1828 31.8515 24.5788 31.8515 22.6225C31.8515 20.6106 30.2552 19.0344 28.232 19.0437C26.2552 19.0437 24.6868 20.6199 24.6961 22.6132Z" fill="#E04E39"/>
<path d="M13.03 0C16.0833 0 19.1367 0 22.1901 0C22.2922 0 22.3943 0 22.4963 0C22.9604 0.018543 23.2388 0.259603 23.2388 0.66755C23.2388 1.06623 22.9697 1.3351 22.5056 1.34437C21.8003 1.35364 21.0857 1.34437 20.3803 1.35364C19.8885 1.35364 19.8792 1.36291 19.9813 1.81722C20.6216 4.87682 21.2713 7.92715 21.9024 10.9868C21.9581 11.2556 22.0601 11.3576 22.3386 11.3483C24.204 11.3391 26.0787 11.3391 27.9441 11.3483C28.2133 11.3483 28.3061 11.2464 28.2968 10.9868C28.2875 10.1894 28.2968 9.39205 28.2968 8.5947C28.2875 6.6755 29.8281 4.73775 32.5195 4.96954C32.9279 5.00662 33.197 5.29404 33.197 5.63709C33.1878 5.99868 32.8908 6.26755 32.4731 6.29536C32.1112 6.32318 31.7585 6.26755 31.3966 6.36026C30.3571 6.61987 29.6611 7.47285 29.6518 8.53907C29.6425 9.33642 29.6611 10.1338 29.6425 10.9311C29.6332 11.2834 29.7724 11.3669 30.0973 11.3669C31.0996 11.3483 32.1112 11.3576 33.1135 11.3576C34.7376 11.3669 36.0091 12.6371 36.0091 14.2503C36.0184 15.8172 36.0184 17.3934 36.0091 18.9603C35.9998 19.8689 35.5915 20.5921 34.8861 21.1483C34.3293 21.5841 33.8745 21.445 33.6425 20.7775C32.733 18.2464 30.4592 16.7351 27.7771 16.8927C25.4755 17.0225 23.3966 18.7377 22.7098 21.0742C22.5149 21.7417 22.4035 21.8252 21.7075 21.8252C20.371 21.8252 19.0253 21.8252 17.6889 21.8252C17.1599 21.8252 16.9372 21.5748 16.9743 21.0464C17.2898 16.6609 14.2643 12.6927 10.2736 11.6172C6.86757 10.6993 3.86061 11.4874 1.262 13.8609C0.881492 14.2132 0.575228 14.2689 0.268963 14.0278C-0.0651436 13.7682 -0.0651436 13.3324 0.278244 12.9894C1.61467 11.6543 3.20168 10.7642 5.01142 10.2728C5.6982 10.0874 5.65179 10.2172 5.65179 9.4755C5.65179 6.92583 5.64251 4.37616 5.66107 1.82649C5.66107 1.4649 5.56827 1.31656 5.18776 1.3351C4.65875 1.36291 4.13903 1.34437 3.61931 1.34437C3.13671 1.3351 2.83045 1.0755 2.82117 0.686093C2.81189 0.278146 3.12743 0 3.63787 0C6.76548 0 9.89309 0 13.03 0ZM14.32 1.34437C13.0207 1.34437 11.7214 1.35364 10.4221 1.3351C10.1251 1.3351 10.0137 1.41854 10.0137 1.73377C10.023 4.42252 10.023 7.11126 10.0137 9.8C10.0137 10.0781 10.1065 10.2172 10.385 10.2728C11.2202 10.4583 11.9998 10.7921 12.7516 11.2C12.9372 11.302 13.1321 11.3483 13.3362 11.3483C15.6286 11.3483 17.9209 11.3391 20.2133 11.3576C20.5752 11.3576 20.6495 11.2649 20.5659 10.9126C19.907 7.86225 19.2574 4.81192 18.617 1.75232C18.552 1.44636 18.4221 1.3351 18.1066 1.3351C16.8444 1.35364 15.5822 1.34437 14.32 1.34437ZM14.9697 12.7391C14.9604 12.8689 15.0717 12.9152 15.1367 12.9801C17.1228 14.9735 18.1901 17.3656 18.2736 20.1841C18.2829 20.453 18.3664 20.5457 18.6356 20.5364C19.4987 20.5272 20.3618 20.5272 21.2249 20.5364C21.4569 20.5364 21.5683 20.453 21.6425 20.2397C21.8467 19.6742 22.1158 19.1272 22.4778 18.645C22.6077 18.4689 22.6356 18.2742 22.6356 18.0609C22.6356 16.4384 22.6356 14.8252 22.6356 13.2026C22.6356 12.6834 22.6356 12.6834 22.1251 12.6834C19.8699 12.6834 17.624 12.6834 15.3687 12.6834C15.2481 12.6834 15.0996 12.6371 14.9697 12.7391ZM8.72372 5.65563C8.72372 4.35762 8.71444 3.0596 8.733 1.76159C8.733 1.43709 8.63091 1.32583 8.31537 1.34437C7.97198 1.36291 7.61931 1.35364 7.27592 1.34437C7.02534 1.3351 6.92325 1.41854 6.92325 1.67815C6.93254 4.3298 6.93254 6.98146 6.92325 9.62384C6.92325 9.87417 7.00678 9.98543 7.26664 9.93907C7.61003 9.87417 7.9627 9.87417 8.30609 9.93907C8.63091 9.9947 8.74228 9.88344 8.733 9.54967C8.71444 8.25166 8.72372 6.95364 8.72372 5.65563ZM34.5706 19.4331C34.6727 19.155 34.7005 18.9417 34.7005 18.7192C34.7005 17.3007 34.7005 15.8914 34.7005 14.4728C34.6912 13.2861 34.0137 12.6464 32.8351 12.6649C32.5381 12.6742 32.4267 12.7669 32.4267 13.0728C32.436 14.2596 32.436 15.4371 32.4267 16.6238C32.4267 16.8556 32.501 17.004 32.6773 17.1523C33.4105 17.7272 33.9766 18.4318 34.4314 19.2384C34.4592 19.2848 34.5056 19.3311 34.5706 19.4331ZM23.9349 14.8808C23.9349 15.4927 23.9349 16.1139 23.9349 16.7258C23.9349 16.8093 23.8885 16.9205 23.9905 16.9669C24.0833 17.0132 24.1483 16.9113 24.2226 16.8649C24.5288 16.6795 24.8258 16.4755 25.1506 16.3179C25.3641 16.2066 25.4476 16.0675 25.4383 15.8358C25.4291 15.1404 25.4476 14.445 25.4291 13.7589C25.4012 12.4887 25.6704 12.6927 24.2875 12.6649C23.9905 12.6556 23.9163 12.7947 23.9163 13.0636C23.9441 13.6755 23.9349 14.2781 23.9349 14.8808ZM31.1553 14.4636C31.1553 14.2318 31.1553 14 31.1553 13.7682C31.1274 12.4887 31.3873 12.702 30.0137 12.6742C29.7539 12.6649 29.6425 12.7576 29.6425 13.0358C29.6518 13.8331 29.6518 14.6305 29.6425 15.4278C29.6425 15.6503 29.726 15.7523 29.9395 15.7987C30.2365 15.8728 30.5335 15.9563 30.8212 16.0768C31.0717 16.1788 31.1738 16.151 31.1553 15.8543C31.146 15.3907 31.1646 14.9272 31.1553 14.4636ZM26.784 14.2132C26.784 14.6212 26.7933 15.0291 26.784 15.4464C26.784 15.6503 26.8583 15.7152 27.0625 15.6874C27.3687 15.6411 27.675 15.6132 27.9813 15.604C28.2133 15.5947 28.2968 15.5113 28.2968 15.2795C28.2875 14.5192 28.2875 13.7682 28.2968 13.0079C28.2968 12.7762 28.204 12.6742 27.9813 12.6834C27.7028 12.6927 27.4151 12.6927 27.1367 12.6834C26.8954 12.6742 26.784 12.7854 26.7933 13.0265C26.7933 13.4159 26.784 13.8146 26.784 14.2132Z" stroke="#E04E39" stroke-width="2" mask="url(#path-1-inside-1)"/>
<path d="M4.45477 26.7113C1.28076 24.894 0.0742632 21.445 1.01162 18.3762C1.86545 15.5762 4.62183 13.4808 7.58238 13.4437C10.6914 13.3974 13.4385 15.3536 14.4223 18.2742C15.3968 21.204 14.3388 24.8199 11.0812 26.6834C15.9072 26.6834 20.6868 26.6834 25.4757 26.6834C22.348 24.2636 23.174 20.5735 24.9559 18.9788C26.9327 17.1987 29.9954 17.2914 31.8608 19.2477C33.6705 21.1483 33.8376 24.6066 31.0255 26.7205C31.3782 26.7205 31.6659 26.7205 31.9536 26.7205C33.0116 26.7205 34.0696 26.7205 35.1276 26.7205C35.7402 26.7205 36.0186 26.9338 36.0093 27.3788C36 27.8053 35.7216 28.0093 35.1369 28.0093C26.8492 28.0093 18.5708 28.0093 10.2831 28.0093C7.35964 28.0093 4.43621 28.0093 1.51278 28.0093C1.14155 28.0093 0.844565 27.9166 0.733196 27.5272C0.612546 27.0914 0.918811 26.7205 1.40141 26.7205C2.3202 26.7113 3.22972 26.7205 4.14851 26.7205C4.19491 26.7113 4.26916 26.7113 4.45477 26.7113ZM7.69375 26.1828C10.8306 26.2013 13.4385 23.6702 13.42 20.5086C13.4107 17.1801 10.7657 14.8252 7.77728 14.7788C4.826 14.7417 2.0325 17.004 1.99538 20.3974C1.95825 23.9205 4.80744 26.2106 7.69375 26.1828ZM24.6961 22.6132C24.6961 24.6066 26.2831 26.1828 28.2877 26.1828C30.2552 26.1828 31.8515 24.5788 31.8515 22.6225C31.8515 20.6106 30.2552 19.0344 28.232 19.0437C26.2552 19.0437 24.6868 20.6199 24.6961 22.6132Z" stroke="#E04E39" stroke-width="2" mask="url(#path-1-inside-1)"/>
</svg>
