<svg width="50" height="50" viewBox="0 0 50 50" fill="none" xmlns="http://www.w3.org/2000/svg">
<rect width="50" height="50" rx="10" fill="#F7F9FA"/>
<path d="M16 19.0187C16 17.8527 16.3813 16.8914 17.144 16.1348C17.9158 15.3783 18.9035 15 20.1072 15C21.3292 15 22.317 15.3827 23.0704 16.1482C23.8331 16.9048 24.2144 17.8883 24.2144 19.0988V20.0467C24.2144 21.2216 23.8285 22.1829 23.0567 22.9306C22.294 23.6693 21.3201 24.0387 20.1348 24.0387C18.9403 24.0387 17.9525 23.6693 17.1715 22.9306C16.3905 22.1829 16 21.1905 16 19.9533V19.0187ZM17.902 20.0467C17.902 20.741 18.1041 21.3151 18.5084 21.769C18.9127 22.2141 19.4548 22.4366 20.1348 22.4366C20.7871 22.4366 21.3109 22.2185 21.706 21.7824C22.1103 21.3462 22.3124 20.7499 22.3124 19.9933V19.0187C22.3124 18.3244 22.1149 17.7503 21.7198 17.2964C21.3247 16.8425 20.7871 16.6155 20.1072 16.6155C19.4273 16.6155 18.8897 16.8425 18.4946 17.2964C18.0995 17.7503 17.902 18.3422 17.902 19.0721V20.0467ZM25.7718 29.9533C25.7718 28.7873 26.1531 27.8304 26.9158 27.0828C27.6876 26.3262 28.6753 25.9479 29.879 25.9479C31.0827 25.9479 32.0704 26.3218 32.8423 27.0694C33.6141 27.8171 34 28.8095 34 30.0467V30.9947C34 32.1607 33.6141 33.1219 32.8423 33.8785C32.0796 34.6262 31.1011 35 29.9066 35C28.7121 35 27.7243 34.6306 26.9433 33.8919C26.1623 33.1442 25.7718 32.1518 25.7718 30.9146V29.9533ZM27.6738 30.9947C27.6738 31.6978 27.876 32.2764 28.2802 32.7303C28.6845 33.1753 29.2266 33.3979 29.9066 33.3979C30.5681 33.3979 31.0965 33.1798 31.4916 32.7437C31.8867 32.2986 32.0842 31.6978 32.0842 30.9413V29.9533C32.0842 29.2501 31.8821 28.676 31.4778 28.231C31.0827 27.7859 30.5498 27.5634 29.879 27.5634C29.2266 27.5634 28.6937 27.7859 28.2802 28.231C27.876 28.6671 27.6738 29.259 27.6738 30.0067V30.9947ZM20.7136 33.251L19.2665 32.3698L29.0659 17.1762L30.513 18.0574L20.7136 33.251Z" fill="#C9D1D1"/>
</svg>
