<svg width="32" height="37" viewBox="0 0 32 37" fill="none" xmlns="http://www.w3.org/2000/svg">
<path d="M25.6304 10.9066C25.6824 11.7404 25.571 12.5893 25.3927 13.4269C25.3519 13.6278 25.3742 13.768 25.5153 13.9234C26.2208 14.7003 26.8409 15.5417 27.3422 16.474C27.4499 16.6748 27.5947 16.7469 27.8138 16.7393C29.2063 16.6976 30.1941 17.3911 30.9256 18.5433C32.4964 21.0257 32.3255 24.7815 30.5394 26.938C29.8673 27.7528 29.0058 28.2076 27.9624 28.1621C27.3942 28.1394 27.034 28.3061 26.7964 28.8253C26.6998 29.0376 26.5513 29.2308 26.3953 29.4052C26.1837 29.6402 26.2022 29.8259 26.3656 30.0987C27.2123 31.5313 27.4945 33.0738 26.9932 34.6921C26.4436 36.462 24.9434 37.1973 23.213 36.6212C22.0024 36.2195 21.0333 35.4766 20.3203 34.4079C20.1383 34.1312 19.9861 34.0744 19.6667 34.1767C16.9077 35.0522 14.1264 35.0976 11.3377 34.3283C11.0369 34.2449 10.8847 34.298 10.7102 34.5633C10.0306 35.6055 9.10228 36.3407 7.94371 36.7652C5.92365 37.5042 4.20066 36.4506 3.85532 34.279C3.63994 32.9374 3.88503 31.6791 4.51629 30.4967C4.64997 30.2503 4.64626 30.0912 4.47173 29.8713C3.03838 28.1166 2.14347 26.108 1.80184 23.8567C1.57161 22.3408 1.64959 20.8324 2.05806 19.3505C2.14347 19.0435 2.08405 18.8844 1.81669 18.71C0.840082 18.0847 0.212526 17.1979 0.0268589 16.0154C-0.173662 14.7496 0.776955 12.9569 1.93181 12.4339C2.48509 12.1838 3.12008 12.4036 3.39486 12.9342C3.69193 13.5103 3.50998 14.1583 2.95298 14.5146C2.32542 14.9125 2.11376 15.5417 2.38112 16.2428C2.42568 16.3641 2.50366 16.4778 2.58907 16.5725C2.86386 16.8795 2.95669 16.8681 3.14607 16.5081C3.62138 15.6099 4.20066 14.7875 4.8802 14.0371C5.21069 13.6732 5.60059 13.4875 6.09818 13.6505C6.56606 13.8021 6.83714 14.128 6.9114 14.6131C6.98567 15.1058 6.71088 15.4659 6.4101 15.807C5.69714 16.618 5.09929 17.5086 4.68711 18.5167C3.21291 22.0982 3.989 26.1042 6.70345 28.9428C6.78515 29.0262 6.86684 29.1096 6.94854 29.1967C7.44612 29.716 7.46098 30.3261 7.01538 30.9022C6.44352 31.6488 5.9645 32.4409 5.91994 33.4263C5.89766 33.9114 5.98307 34.3662 6.45466 34.6087C6.94482 34.8627 7.41642 34.749 7.83603 34.423C8.47844 33.9228 8.90918 33.252 9.22853 32.5016C9.57759 31.6791 10.1049 31.4442 10.9441 31.7474C14.0225 32.873 17.0711 32.7972 20.0975 31.5427C20.8847 31.2168 21.4566 31.4707 21.7759 32.2704C22.047 32.9526 22.4369 33.5514 22.9753 34.0478C23.0793 34.1464 23.1907 34.2373 23.3133 34.3131C23.7366 34.5784 24.1822 34.6845 24.6241 34.3814C25.0585 34.0819 25.1699 33.6158 25.1031 33.1231C24.9805 32.1794 24.5684 31.3646 23.9557 30.6559C23.369 29.9813 23.3578 29.4393 23.9557 28.7836C24.5609 28.1242 25.0697 27.3927 25.467 26.5893C25.7306 26.0549 26.1317 25.8123 26.7147 25.8389C27.1157 25.8578 27.5168 25.8275 27.9178 25.8427C28.5602 25.8654 28.9984 25.5546 29.2917 24.9937C29.5257 24.5427 29.6408 24.05 29.6816 23.5536C29.7633 22.5151 29.7893 21.4691 29.4737 20.4534C29.1506 19.415 28.6976 19.0132 27.6393 19.0966C26.5364 19.1838 25.8198 18.8465 25.4187 17.7398C25.1439 16.9894 24.6129 16.3641 24.0893 15.7539C23.9742 15.6212 23.8443 15.5455 23.6697 15.5C22.9271 15.3067 22.5669 14.6245 22.8677 13.912C23.4915 12.415 23.5658 10.8422 23.4989 9.25039C23.4804 8.77665 23.3355 8.6857 22.9011 8.86382C21.8242 9.30724 20.8476 9.91363 20.0084 10.7436C19.6779 11.0696 19.4328 11.4485 19.2174 11.8616C19.0281 12.2255 19.0281 12.5325 19.2657 12.8887C19.6519 13.4724 19.4996 14.1432 18.9538 14.5108C18.4191 14.8708 17.7469 14.7192 17.3608 14.1432C17.008 13.6164 16.8335 13.0252 16.8483 12.3884C16.8557 12.0701 16.7592 11.9678 16.4436 11.9261C15.7566 11.8351 15.0733 11.8806 14.3901 11.8806C13.6623 11.8844 13.1832 11.5054 13.1127 10.8422C13.0459 10.2282 13.5026 9.67866 14.1933 9.5877C15.2924 9.43989 16.3879 9.55738 17.4759 9.71276C17.7469 9.75066 17.9029 9.67487 18.0811 9.49674C19.5071 8.06794 21.1892 7.1053 23.1387 6.64672C24.3121 6.37385 24.9694 6.77179 25.3073 7.94666C25.5673 8.90551 25.6787 9.88331 25.6304 10.9066Z" fill="#58595B"/>
<path d="M8.34472 4.08473C7.64662 4.80482 6.95593 5.53248 6.2504 6.24499C5.89763 6.60124 5.34805 6.67325 4.92102 6.45343C4.52369 6.24878 4.28232 5.77883 4.32688 5.29751C4.35288 5.00947 4.48284 4.77071 4.67965 4.56984C6.04616 3.17136 7.41267 1.7653 8.79033 0.378191C9.32133 -0.156187 9.98231 -0.118288 10.543 0.45399C11.6422 1.57202 12.7339 2.69383 13.8293 3.81565C14.0744 4.06957 14.3306 4.31213 14.5683 4.57363C15.0399 5.09285 15.051 5.7902 14.6054 6.24499C14.1561 6.71115 13.4394 6.69978 12.9381 6.2033C12.2475 5.51353 11.5679 4.8124 10.8549 4.08852C10.7176 4.31971 10.7807 4.5471 10.7807 4.75555C10.7733 7.1432 10.777 9.53085 10.7733 11.9185C10.7733 12.1156 10.7584 12.3126 10.7324 12.5097C10.6544 13.1123 10.2163 13.5254 9.64068 13.5406C9.05397 13.5557 8.58981 13.1502 8.50068 12.5211C8.40414 11.8389 8.45984 11.1529 8.45613 10.467C8.44499 8.51515 8.45241 6.56334 8.45613 4.61153C8.45613 4.45614 8.45613 4.30076 8.45613 4.14537C8.42271 4.11884 8.38186 4.10368 8.34472 4.08473Z" fill="#58595B"/>
<path d="M19.1654 20.2715C18.6753 20.2715 18.1814 20.2753 17.6913 20.2715C17.0154 20.2639 16.529 19.8091 16.503 19.1686C16.477 18.5054 16.93 17.9634 17.6096 17.9445C18.6307 17.9141 19.6519 17.9141 20.6731 17.9445C21.3452 17.9672 21.8316 18.5357 21.7982 19.1648C21.7648 19.8053 21.2486 20.2639 20.5617 20.2677C20.0975 20.2715 19.6333 20.2677 19.1654 20.2715Z" fill="#58595B"/>
</svg>
