<svg width="40" height="40" viewBox="0 0 40 40" fill="none" xmlns="http://www.w3.org/2000/svg">
<path d="M18.1609 38.9939C13.1876 38.9939 8.20804 38.9939 3.23474 38.9939C2.41312 38.9939 1.73465 38.7176 1.29272 37.9894C0.913033 37.3616 0.900585 34.5366 1.26782 33.9025C1.47945 33.5321 1.77823 33.2433 2.17036 33.0801C2.41312 32.9797 2.53138 32.8102 2.62475 32.5779C3.1476 31.2721 3.68912 29.9663 4.21197 28.6668C4.36135 28.2964 4.52941 27.9699 4.9838 27.8946C5.26389 27.8506 5.17053 27.5932 5.17053 27.4175C5.17675 25.1323 5.17675 22.8472 5.17675 20.5557C5.17675 16.9899 5.17675 13.4303 5.17675 9.86451C5.18298 5.26283 8.44456 1.59027 12.9759 1.06293C13.5797 0.993871 14.1835 1.00015 14.781 1.00015C21.6714 1.00015 28.5618 1.00015 35.4523 1.00015C37.6246 1.00015 38.9815 2.36245 38.9691 4.56598C38.9628 5.7525 39.0873 6.9453 38.9006 8.12554C38.6578 9.68873 37.3632 10.825 35.7946 10.8313C31.3193 10.8501 26.8439 10.8501 22.3686 10.8313C20.9307 10.825 19.6921 9.79546 19.3311 8.35782C19.2439 7.99998 19.0945 7.87443 18.7335 7.8807C18.1733 7.89326 17.6131 7.9372 17.0591 7.84304C16.1068 7.68609 15.4844 7.13364 15.2354 6.19823C15.142 5.84039 14.9802 5.74622 14.6254 5.73367C13.4677 5.696 12.3597 5.80273 11.4074 6.56235C10.399 7.36592 9.83883 8.4206 9.83261 9.71384C9.81393 15.6213 9.82638 21.5351 9.82016 27.4426C9.82016 27.7941 9.92597 27.926 10.2745 27.9009C10.6107 27.8757 10.953 27.8946 11.2891 27.8946C11.9053 27.9009 12.1854 28.1645 12.1917 28.7923C12.2041 29.9349 12.1979 31.0775 12.1979 32.22C12.1979 32.829 12.2041 32.829 12.8203 32.829C15.5715 32.829 18.3289 32.829 21.0801 32.829C21.3291 32.829 21.5843 32.8416 21.827 32.8792C22.1943 32.9357 22.4121 33.1868 22.4308 33.5447C22.4495 33.9276 22.2316 34.1976 21.8582 34.2792C21.6341 34.3294 21.3913 34.3357 21.1548 34.3357C15.3101 34.3357 9.46537 34.3357 3.62065 34.3357C3.41524 34.3357 3.20984 34.3357 3.00443 34.342C2.63097 34.342 2.41934 34.5429 2.41312 34.9132C2.40067 35.5787 2.39444 36.2504 2.41312 36.9159C2.42556 37.28 2.64964 37.4746 3.01066 37.506C3.14137 37.5186 3.27831 37.5123 3.40902 37.5123C13.2 37.5123 22.991 37.5123 32.782 37.5123C33.6721 37.5123 33.7966 37.3867 33.8028 36.4827C33.8028 36.0244 33.8028 35.5599 33.8028 35.1016C33.7966 34.4926 33.6472 34.342 33.0434 34.342C30.5288 34.342 28.0079 34.342 25.4932 34.342C25.2878 34.342 25.0762 34.3545 24.8832 34.2792C24.5471 34.1536 24.3417 33.9088 24.3728 33.5384C24.3977 33.1868 24.6093 32.9608 24.9455 32.8918C25.1882 32.8416 25.4434 32.829 25.6924 32.829C28.0452 32.8227 30.4043 32.829 32.7571 32.829C33.1555 32.829 33.5538 32.8415 33.9335 32.9671C34.724 33.2245 35.2593 33.9213 35.278 34.7626C35.2904 35.4155 35.2469 36.0747 35.2904 36.7213C35.39 38.1652 34.2759 39.0064 33.0496 38.9939C29.6075 38.9625 26.1592 38.9813 22.7171 38.9813C21.1922 38.9939 19.6796 38.9939 18.1609 38.9939ZM6.63949 18.302C6.63949 21.1208 6.63949 23.9395 6.63949 26.7583C6.63949 27.8946 6.63949 27.8946 7.74121 27.8946C8.36987 27.8946 8.36987 27.8946 8.36987 27.2605C8.36987 21.4723 8.36365 15.6841 8.3761 9.8959C8.38232 7.08969 10.1874 4.88616 12.9199 4.34626C13.4677 4.23953 14.0279 4.23326 14.5881 4.22698C15.1669 4.2207 15.1669 4.2207 15.1669 3.6243C15.1669 3.37319 15.1545 3.12207 15.1669 2.86468C15.1794 2.58217 15.0798 2.45662 14.7872 2.46917C14.2146 2.49428 13.6419 2.46289 13.0693 2.53195C9.31598 3.00279 6.64571 6.02245 6.63949 9.84568C6.63326 12.6644 6.63949 15.4832 6.63949 18.302ZM29.1096 6.48074C26.6696 6.48074 24.2234 6.46818 21.7835 6.48701C20.5324 6.49329 20.6506 6.20451 20.6817 7.6547C20.7004 8.56499 21.4225 9.28067 22.3312 9.28695C26.819 9.2995 31.3068 9.2995 35.7884 9.28695C36.5353 9.28695 37.1889 8.791 37.3818 8.10671C37.4814 7.76142 37.4067 7.39731 37.4441 7.04575C37.4939 6.59374 37.3134 6.46818 36.8714 6.46818C34.2821 6.49329 31.6989 6.48074 29.1096 6.48074ZM29.1034 5.08705C29.869 5.08705 30.6346 5.08705 31.4002 5.08705C33.2799 5.08705 35.1659 5.08705 37.0457 5.08077C37.22 5.08077 37.4627 5.1561 37.5001 4.86732C37.6557 3.65569 37.108 2.72657 36.0623 2.5194C35.7697 2.46289 35.4523 2.53823 35.1473 2.53823C32.3214 2.53823 29.5017 2.53823 26.6759 2.53823C24.8645 2.53823 23.0595 2.55078 21.2482 2.53195C20.8187 2.52567 20.6257 2.63868 20.6568 3.10324C20.688 3.57408 20.688 4.0512 20.6568 4.52832C20.632 4.94893 20.7689 5.09333 21.2046 5.09333C23.8375 5.07449 26.4704 5.08705 29.1034 5.08705ZM7.38019 32.8918C8.3512 32.8918 9.32221 32.8792 10.2932 32.8981C10.6418 32.9043 10.7538 32.7788 10.7476 32.4335C10.7289 31.5609 10.7289 30.682 10.7476 29.8031C10.7538 29.4641 10.6293 29.3699 10.3119 29.3699C8.85538 29.3824 7.39886 29.3887 5.94235 29.3699C5.60624 29.3699 5.4693 29.508 5.35726 29.7842C4.99624 30.6945 4.62278 31.5985 4.23064 32.4963C4.08126 32.8415 4.18707 32.8981 4.51074 32.8981C5.46307 32.8855 6.42163 32.8918 7.38019 32.8918ZM19.163 4.41531C19.163 3.89425 19.1568 3.37946 19.163 2.8584C19.1692 2.5759 19.051 2.46289 18.7709 2.46917C18.1671 2.48173 17.5695 2.47545 16.9658 2.46917C16.723 2.46917 16.6234 2.56334 16.6234 2.81446C16.6297 3.76242 16.6172 4.71038 16.6297 5.65833C16.6359 6.07267 16.8849 6.31751 17.2957 6.33635C17.7936 6.35518 18.2916 6.33635 18.7895 6.3489C19.051 6.35518 19.163 6.2359 19.1568 5.97223C19.1568 5.45116 19.163 4.93638 19.163 4.41531Z" fill="#E04E39"/>
<path d="M38.3651 17.4106C38.3464 17.8186 38.1784 18.0697 37.836 18.1388C37.4501 18.2204 37.17 18.0384 37.0206 17.6868C36.8028 17.1657 36.6098 16.6384 36.4044 16.1173C36.1865 15.5523 35.9562 14.9873 35.7446 14.416C35.5641 13.9264 35.7135 13.5308 36.1181 13.3802C36.5164 13.2358 36.865 13.4116 37.0517 13.8824C37.4688 14.9434 37.8734 16.0106 38.2779 17.0778C38.3215 17.1971 38.3464 17.329 38.3651 17.4106Z" fill="#E04E39"/>
<path d="M32.4398 13.2923C32.7199 13.3112 32.9316 13.5058 33.0436 13.8008C33.4731 14.8869 33.8963 15.9793 34.3072 17.0716C34.4814 17.5425 34.3321 17.9066 33.9399 18.0698C33.5789 18.2142 33.2054 18.0447 33.0249 17.6052C32.583 16.5066 32.1535 15.4017 31.7427 14.2905C31.5497 13.7632 31.8796 13.2798 32.4398 13.2923Z" fill="#E04E39"/>
<path d="M25.6988 13.2986C26.1718 13.286 26.5578 13.7506 26.3959 14.1901C25.9664 15.3766 25.5058 16.5505 25.0265 17.712C24.8834 18.0572 24.5722 18.2142 24.1863 18.0761C23.819 17.9442 23.6385 17.5801 23.7692 17.1658C23.9248 16.6887 24.124 16.2241 24.3045 15.7533C24.541 15.1443 24.7776 14.5353 25.0079 13.9264C25.1386 13.5874 25.3502 13.3425 25.6988 13.2986Z" fill="#E04E39"/>
<path d="M20.5201 18.0635C20.0284 18.0635 19.6549 17.6303 19.8043 17.2097C20.2338 16.0232 20.6944 14.8555 21.1737 13.6878C21.3231 13.3174 21.7401 13.1982 22.0638 13.3488C22.4434 13.5246 22.5804 13.8573 22.4186 14.2591C22.0015 15.3389 21.5783 16.4124 21.1612 17.4922C21.043 17.8312 20.8376 18.0572 20.5201 18.0635Z" fill="#E04E39"/>
<path d="M29.7882 15.6968C29.7882 16.199 29.7944 16.7012 29.7882 17.2097C29.782 17.7685 29.4708 18.1389 29.0413 18.1263C28.618 18.1137 28.3317 17.7622 28.3317 17.2286C28.3255 16.2241 28.3255 15.2134 28.3317 14.2089C28.3317 13.6439 28.6305 13.2923 29.0724 13.2986C29.5019 13.3049 29.782 13.6502 29.7882 14.1901C29.7944 14.6923 29.7882 15.1945 29.7882 15.6968Z" fill="#E04E39"/>
<path d="M18.1609 38.9939C13.1876 38.9939 8.20804 38.9939 3.23474 38.9939C2.41312 38.9939 1.73465 38.7176 1.29272 37.9894C0.913033 37.3616 0.900585 34.5366 1.26782 33.9025C1.47945 33.5321 1.77823 33.2433 2.17036 33.0801C2.41312 32.9797 2.53138 32.8102 2.62475 32.5779C3.1476 31.2721 3.68912 29.9663 4.21197 28.6668C4.36135 28.2964 4.52941 27.9699 4.9838 27.8946C5.26389 27.8506 5.17053 27.5932 5.17053 27.4175C5.17675 25.1323 5.17675 22.8472 5.17675 20.5557C5.17675 16.9899 5.17675 13.4303 5.17675 9.86451C5.18298 5.26283 8.44456 1.59027 12.9759 1.06293C13.5797 0.993871 14.1835 1.00015 14.781 1.00015C21.6714 1.00015 28.5618 1.00015 35.4523 1.00015C37.6246 1.00015 38.9815 2.36245 38.9691 4.56598C38.9628 5.7525 39.0873 6.9453 38.9006 8.12554C38.6578 9.68873 37.3632 10.825 35.7946 10.8313C31.3193 10.8501 26.8439 10.8501 22.3686 10.8313C20.9307 10.825 19.6921 9.79546 19.3311 8.35782C19.2439 7.99998 19.0945 7.87443 18.7335 7.8807C18.1733 7.89326 17.6131 7.9372 17.0591 7.84304C16.1068 7.68609 15.4844 7.13364 15.2354 6.19823C15.142 5.84039 14.9802 5.74622 14.6254 5.73367C13.4677 5.696 12.3597 5.80273 11.4074 6.56235C10.399 7.36592 9.83883 8.4206 9.83261 9.71384C9.81393 15.6213 9.82638 21.5351 9.82016 27.4426C9.82016 27.7941 9.92597 27.926 10.2745 27.9009C10.6107 27.8757 10.953 27.8946 11.2891 27.8946C11.9053 27.9009 12.1854 28.1645 12.1917 28.7923C12.2041 29.9349 12.1979 31.0775 12.1979 32.22C12.1979 32.829 12.2041 32.829 12.8203 32.829C15.5715 32.829 18.3289 32.829 21.0801 32.829C21.3291 32.829 21.5843 32.8416 21.827 32.8792C22.1943 32.9357 22.4121 33.1868 22.4308 33.5447C22.4495 33.9276 22.2316 34.1976 21.8582 34.2792C21.6341 34.3294 21.3913 34.3357 21.1548 34.3357C15.3101 34.3357 9.46537 34.3357 3.62065 34.3357C3.41524 34.3357 3.20984 34.3357 3.00443 34.342C2.63097 34.342 2.41934 34.5429 2.41312 34.9132C2.40067 35.5787 2.39444 36.2504 2.41312 36.9159C2.42556 37.28 2.64964 37.4746 3.01066 37.506C3.14137 37.5186 3.27831 37.5123 3.40902 37.5123C13.2 37.5123 22.991 37.5123 32.782 37.5123C33.6721 37.5123 33.7966 37.3867 33.8028 36.4827C33.8028 36.0244 33.8028 35.5599 33.8028 35.1016C33.7966 34.4926 33.6472 34.342 33.0434 34.342C30.5288 34.342 28.0079 34.342 25.4932 34.342C25.2878 34.342 25.0762 34.3545 24.8832 34.2792C24.5471 34.1536 24.3417 33.9088 24.3728 33.5384C24.3977 33.1868 24.6093 32.9608 24.9455 32.8918C25.1882 32.8416 25.4434 32.829 25.6924 32.829C28.0452 32.8227 30.4043 32.829 32.7571 32.829C33.1555 32.829 33.5538 32.8415 33.9335 32.9671C34.724 33.2245 35.2593 33.9213 35.278 34.7626C35.2904 35.4155 35.2469 36.0747 35.2904 36.7213C35.39 38.1652 34.2759 39.0064 33.0496 38.9939C29.6075 38.9625 26.1592 38.9813 22.7171 38.9813C21.1922 38.9939 19.6796 38.9939 18.1609 38.9939ZM6.63949 18.302C6.63949 21.1208 6.63949 23.9395 6.63949 26.7583C6.63949 27.8946 6.63949 27.8946 7.74121 27.8946C8.36987 27.8946 8.36987 27.8946 8.36987 27.2605C8.36987 21.4723 8.36365 15.6841 8.3761 9.8959C8.38232 7.08969 10.1874 4.88616 12.9199 4.34626C13.4677 4.23953 14.0279 4.23326 14.5881 4.22698C15.1669 4.2207 15.1669 4.2207 15.1669 3.6243C15.1669 3.37319 15.1545 3.12207 15.1669 2.86468C15.1794 2.58217 15.0798 2.45662 14.7872 2.46917C14.2146 2.49428 13.6419 2.46289 13.0693 2.53195C9.31598 3.00279 6.64571 6.02245 6.63949 9.84568C6.63326 12.6644 6.63949 15.4832 6.63949 18.302ZM29.1096 6.48074C26.6696 6.48074 24.2234 6.46818 21.7835 6.48701C20.5324 6.49329 20.6506 6.20451 20.6817 7.6547C20.7004 8.56499 21.4225 9.28067 22.3312 9.28695C26.819 9.2995 31.3068 9.2995 35.7884 9.28695C36.5353 9.28695 37.1889 8.791 37.3818 8.10671C37.4814 7.76142 37.4067 7.39731 37.4441 7.04575C37.4939 6.59374 37.3134 6.46818 36.8714 6.46818C34.2821 6.49329 31.6989 6.48074 29.1096 6.48074ZM29.1034 5.08705C29.869 5.08705 30.6346 5.08705 31.4002 5.08705C33.2799 5.08705 35.1659 5.08705 37.0457 5.08077C37.22 5.08077 37.4627 5.1561 37.5001 4.86732C37.6557 3.65569 37.108 2.72657 36.0623 2.5194C35.7697 2.46289 35.4523 2.53823 35.1473 2.53823C32.3214 2.53823 29.5017 2.53823 26.6759 2.53823C24.8645 2.53823 23.0595 2.55078 21.2482 2.53195C20.8187 2.52567 20.6257 2.63868 20.6568 3.10324C20.688 3.57408 20.688 4.0512 20.6568 4.52832C20.632 4.94893 20.7689 5.09333 21.2046 5.09333C23.8375 5.07449 26.4704 5.08705 29.1034 5.08705ZM7.38019 32.8918C8.3512 32.8918 9.32221 32.8792 10.2932 32.8981C10.6418 32.9043 10.7538 32.7788 10.7476 32.4335C10.7289 31.5609 10.7289 30.682 10.7476 29.8031C10.7538 29.4641 10.6293 29.3699 10.3119 29.3699C8.85538 29.3824 7.39886 29.3887 5.94235 29.3699C5.60624 29.3699 5.4693 29.508 5.35726 29.7842C4.99624 30.6945 4.62278 31.5985 4.23064 32.4963C4.08126 32.8415 4.18707 32.8981 4.51074 32.8981C5.46307 32.8855 6.42163 32.8918 7.38019 32.8918ZM19.163 4.41531C19.163 3.89425 19.1568 3.37946 19.163 2.8584C19.1692 2.5759 19.051 2.46289 18.7709 2.46917C18.1671 2.48173 17.5695 2.47545 16.9658 2.46917C16.723 2.46917 16.6234 2.56334 16.6234 2.81446C16.6297 3.76242 16.6172 4.71038 16.6297 5.65833C16.6359 6.07267 16.8849 6.31751 17.2957 6.33635C17.7936 6.35518 18.2916 6.33635 18.7895 6.3489C19.051 6.35518 19.163 6.2359 19.1568 5.97223C19.1568 5.45116 19.163 4.93638 19.163 4.41531Z" stroke="#E04E39" stroke-width="0.5"/>
<path d="M38.3651 17.4106C38.3464 17.8186 38.1784 18.0697 37.836 18.1388C37.4501 18.2204 37.17 18.0384 37.0206 17.6868C36.8028 17.1657 36.6098 16.6384 36.4044 16.1173C36.1865 15.5523 35.9562 14.9873 35.7446 14.416C35.5641 13.9264 35.7135 13.5308 36.1181 13.3802C36.5164 13.2358 36.865 13.4116 37.0517 13.8824C37.4688 14.9434 37.8734 16.0106 38.2779 17.0778C38.3215 17.1971 38.3464 17.329 38.3651 17.4106Z" stroke="#E04E39" stroke-width="0.5"/>
<path d="M32.4398 13.2923C32.7199 13.3112 32.9316 13.5058 33.0436 13.8008C33.4731 14.8869 33.8963 15.9793 34.3072 17.0716C34.4814 17.5425 34.3321 17.9066 33.9399 18.0698C33.5789 18.2142 33.2054 18.0447 33.0249 17.6052C32.583 16.5066 32.1535 15.4017 31.7427 14.2905C31.5497 13.7632 31.8796 13.2798 32.4398 13.2923Z" stroke="#E04E39" stroke-width="0.5"/>
<path d="M25.6988 13.2986C26.1718 13.286 26.5578 13.7506 26.3959 14.1901C25.9664 15.3766 25.5058 16.5505 25.0265 17.712C24.8834 18.0572 24.5722 18.2142 24.1863 18.0761C23.819 17.9442 23.6385 17.5801 23.7692 17.1658C23.9248 16.6887 24.124 16.2241 24.3045 15.7533C24.541 15.1443 24.7776 14.5353 25.0079 13.9264C25.1386 13.5874 25.3502 13.3425 25.6988 13.2986Z" stroke="#E04E39" stroke-width="0.5"/>
<path d="M20.5201 18.0635C20.0284 18.0635 19.6549 17.6303 19.8043 17.2097C20.2338 16.0232 20.6944 14.8555 21.1737 13.6878C21.3231 13.3174 21.7401 13.1982 22.0638 13.3488C22.4434 13.5246 22.5804 13.8573 22.4186 14.2591C22.0015 15.3389 21.5783 16.4124 21.1612 17.4922C21.043 17.8312 20.8376 18.0572 20.5201 18.0635Z" stroke="#E04E39" stroke-width="0.5"/>
<path d="M29.7882 15.6968C29.7882 16.199 29.7944 16.7012 29.7882 17.2097C29.782 17.7685 29.4708 18.1389 29.0413 18.1263C28.618 18.1137 28.3317 17.7622 28.3317 17.2286C28.3255 16.2241 28.3255 15.2134 28.3317 14.2089C28.3317 13.6439 28.6305 13.2923 29.0724 13.2986C29.5019 13.3049 29.782 13.6502 29.7882 14.1901C29.7944 14.6923 29.7882 15.1945 29.7882 15.6968Z" stroke="#E04E39" stroke-width="0.5"/>
</svg>
