<svg width="38" height="38" viewBox="0 0 38 38" fill="none" xmlns="http://www.w3.org/2000/svg">
<path d="M27.6968 1C28.2991 1.13869 28.9144 1.22105 29.4951 1.45076C29.7811 1.56345 29.7811 1.6588 29.5731 1.84951C29.2481 2.14857 28.9794 2.57332 28.6024 2.74235C28.2255 2.90706 27.7705 2.62533 27.3415 2.58632C25.5042 2.40862 23.771 2.74235 22.1634 3.65254C19.6328 5.08717 18.0988 7.25861 17.6352 10.1235C17.2149 12.7154 17.9212 15.0342 19.5505 17.0843C19.6804 17.2446 19.7454 17.2403 19.8408 17.0539C20.6467 15.5023 21.847 14.3624 23.4546 13.6689C23.7623 13.5346 23.55 13.4262 23.4503 13.3265C22.809 12.7024 22.3323 11.9786 22.0984 11.1074C21.3314 8.25981 23.446 5.48591 26.3882 5.48158C28.6241 5.47724 30.3097 6.72117 30.8644 8.84927C31.3107 10.5656 30.7734 12.0306 29.5687 13.2875C29.2871 13.5822 29.2828 13.5779 29.6467 13.7383C31.146 14.4057 32.251 15.498 33.0526 16.9152C33.2519 17.2706 33.2606 17.2793 33.5119 16.9456C35.2885 14.5964 35.9038 12.0132 35.0545 9.14399C35.0025 8.96629 35.0589 8.8536 35.1759 8.74091C35.4445 8.47652 35.7132 8.21647 35.9688 7.94341C36.1768 7.72237 36.2678 7.77005 36.3675 8.0431C37.1041 10.0628 37.1995 12.1129 36.6622 14.189C35.5875 18.3542 32.069 21.4272 27.8138 21.9473C21.9944 22.6581 16.7816 18.6533 16.0449 12.8454C15.3169 7.12425 19.1735 1.88418 25.0406 1.06501C25.1272 1.04768 25.2182 1.02167 25.3092 1C26.1022 1 26.8995 1 27.6968 1ZM26.6135 20.4563C26.8605 20.478 27.2462 20.4303 27.6275 20.3826C29.1831 20.1962 30.5957 19.6501 31.8697 18.7356C32.082 18.5839 32.1167 18.4452 32.0083 18.2068C30.7734 15.4546 28.1301 14.059 25.1792 14.6658C23.1557 15.0819 21.7387 16.2824 20.9371 18.1938C20.8504 18.3932 20.8244 18.5406 21.0497 18.6966C22.6833 19.8235 24.4729 20.4606 26.6135 20.4563ZM26.4965 7.04623C24.8369 7.0419 23.5066 8.35083 23.5023 9.9935C23.498 11.6102 24.8326 12.9408 26.4575 12.9451C28.1215 12.9494 29.4387 11.6492 29.4387 9.99783C29.4431 8.3595 28.1345 7.05057 26.4965 7.04623Z" fill="#E04E39"/>
<path d="M1 3.95157C5.34184 3.95157 9.68801 3.95157 14.0299 3.95157C14.4978 3.95157 14.5065 3.9689 14.5108 4.41966C14.5108 4.65371 14.4935 4.88776 14.5108 5.12181C14.5368 5.43387 14.4068 5.52489 14.1035 5.52489C12.4049 5.51622 10.7063 5.52055 9.01204 5.52055C7.01011 5.52055 5.00819 5.52489 3.00626 5.51189C2.65961 5.50755 2.53828 5.59857 2.53828 5.96264C2.55128 11.6491 2.54694 17.34 2.54694 23.0308C2.54694 26.9749 2.54694 30.9234 2.54694 34.8675C2.54694 35.4223 2.54261 35.4223 3.10592 35.4223C9.96533 35.4223 16.8247 35.4223 23.6885 35.4353C24.1695 35.4353 24.5161 35.301 24.8541 34.9542C26.2667 33.5023 27.7053 32.0763 29.1483 30.6547C29.3563 30.451 29.4473 30.2386 29.4473 29.9439C29.4386 28.4312 29.4516 26.9229 29.4386 25.4103C29.4343 25.0679 29.5296 24.9075 29.8936 24.9422C30.1363 24.9639 30.3876 24.9552 30.6302 24.9422C30.9206 24.9248 31.0202 25.0462 31.0202 25.3323C31.0116 26.4678 31.0159 27.6034 31.0159 28.739C31.0159 29.3717 31.0072 30.0045 31.0159 30.6373C31.0202 30.8801 30.9379 31.0578 30.7689 31.2268C28.9273 33.0602 27.0857 34.8979 25.2571 36.7443C25.0534 36.948 24.8368 37 24.5681 37C20.0833 36.9956 15.5985 36.9956 11.118 36.9956C7.86375 36.9956 4.60953 36.9956 1.35532 36.9956C1.23832 36.9956 1.12133 36.9826 1.00433 36.9783C1 25.9694 1 14.9605 1 3.95157Z" fill="#E04E39"/>
<path d="M12.2751 29.5322C10.6718 29.5322 9.06852 29.5322 7.46091 29.5322C6.96693 29.5322 6.9626 29.5235 6.95826 29.0511C6.94526 27.9589 6.94526 27.9632 8.04589 27.9632C11.0444 27.9675 14.0387 27.9632 17.0372 27.9632C17.5182 27.9632 17.5182 27.9632 17.5225 28.4573C17.5225 28.6697 17.5052 28.882 17.5269 29.0901C17.5572 29.4238 17.4315 29.5408 17.0892 29.5365C15.5769 29.5235 14.069 29.5322 12.5567 29.5322C12.4614 29.5322 12.3704 29.5322 12.2751 29.5322Z" fill="#E04E39"/>
<path d="M11.5208 18.9697C12.8771 18.9697 14.2377 18.9783 15.594 18.9653C15.9277 18.961 16.049 19.065 16.0403 19.4031C16.01 20.7337 16.218 20.53 14.9094 20.5343C12.4264 20.543 9.94354 20.5386 7.46496 20.5343C6.96232 20.5343 6.95798 20.53 6.96232 20.0229C6.96232 18.974 6.96232 18.9697 8.01094 18.9697C9.17657 18.9697 10.3465 18.9697 11.5208 18.9697Z" fill="#E04E39"/>
<path d="M17.4747 25.0376C16.1747 25.0376 14.8748 25.0376 13.5748 25.0376C12.9465 25.0376 12.9465 25.0419 12.9378 24.4265C12.9378 24.2271 12.9465 24.0277 12.9378 23.8283C12.9248 23.5553 13.0418 23.4599 13.3105 23.4599C14.3505 23.4686 15.3947 23.4599 16.4347 23.4599C18.1463 23.4599 19.8536 23.4686 21.5652 23.4556C21.9248 23.4513 22.0505 23.5726 22.0202 23.9194C21.9985 24.1534 22.0028 24.3875 22.0202 24.6215C22.0418 24.9249 21.9248 25.0333 21.6172 25.0333C20.2392 25.0289 18.857 25.0333 17.4747 25.0376Z" fill="#E04E39"/>
<path d="M10.0306 9.97615C10.8929 9.97615 11.7595 9.98482 12.6218 9.97182C12.9251 9.96748 13.0508 10.0672 13.0248 10.3749C13.0075 10.6436 13.0075 10.9123 13.0248 11.1811C13.0421 11.4628 12.9165 11.5451 12.6522 11.5451C10.8756 11.5408 9.09896 11.5408 7.32669 11.5495C7.05803 11.5495 6.94104 11.4498 6.95403 11.1767C6.96703 10.895 6.96703 10.6176 6.95403 10.3359C6.94104 10.0585 7.0667 9.97182 7.33102 9.97182C8.23232 9.98049 9.13362 9.97615 10.0306 9.97615Z" fill="#E04E39"/>
<path d="M10.0045 14.4708C10.8711 14.4708 11.7334 14.4838 12.6001 14.4664C12.9121 14.4621 13.0594 14.5445 13.0334 14.8782C13.0117 15.1209 13.0161 15.368 13.0377 15.615C13.0637 15.9357 12.9381 16.0528 12.6174 16.0484C11.6468 16.0354 10.6762 16.0441 9.70985 16.0441C8.93855 16.0441 8.16724 16.0311 7.39594 16.0484C7.08395 16.0528 6.93662 15.9661 6.96262 15.6323C6.98429 15.3766 6.97562 15.1166 6.96262 14.8609C6.94529 14.5748 7.05362 14.4664 7.34827 14.4708C8.22791 14.4794 9.11621 14.4708 10.0045 14.4708Z" fill="#E04E39"/>
<path d="M8.45766 25.0333C8.07201 25.0333 7.68636 25.0289 7.30071 25.0333C7.07105 25.0376 6.94972 24.9552 6.95405 24.7082C6.96272 24.3918 6.96272 24.0754 6.95839 23.7633C6.95405 23.5596 7.04505 23.4686 7.25304 23.4686C8.07201 23.4729 8.88665 23.4729 9.70562 23.4686C9.93528 23.4686 10.0176 23.5683 10.0089 23.7893C10.0003 24.0927 10.0003 24.3961 10.0089 24.6995C10.0176 24.9379 9.91794 25.0419 9.67962 25.0376C9.27664 25.0289 8.86498 25.0333 8.45766 25.0333Z" fill="#E04E39"/>
<path d="M32.654 2.96338C32.719 3.00239 32.7797 3.03707 32.8317 3.08041C33.4686 3.61352 34.0536 4.19864 34.5909 4.83576C34.7209 4.9918 34.7296 5.11315 34.5823 5.25618C34.3396 5.49023 34.097 5.73295 33.863 5.97566C33.7373 6.11002 33.6333 6.10136 33.5163 5.96266C32.9703 5.30819 32.368 4.70574 31.7094 4.15529C31.6227 4.08595 31.549 3.99926 31.653 3.89091C31.939 3.60051 32.2294 3.31445 32.524 3.0284C32.5543 2.99372 32.6063 2.98505 32.654 2.96338Z" fill="#E04E39"/>
<path d="M27.6968 1C28.2991 1.13869 28.9144 1.22105 29.4951 1.45076C29.7811 1.56345 29.7811 1.6588 29.5731 1.84951C29.2481 2.14857 28.9794 2.57332 28.6024 2.74235C28.2255 2.90706 27.7705 2.62533 27.3415 2.58632C25.5042 2.40862 23.771 2.74235 22.1634 3.65254C19.6328 5.08717 18.0988 7.25861 17.6352 10.1235C17.2149 12.7154 17.9212 15.0342 19.5505 17.0843C19.6804 17.2446 19.7454 17.2403 19.8408 17.0539C20.6467 15.5023 21.847 14.3624 23.4546 13.6689C23.7623 13.5346 23.55 13.4262 23.4503 13.3265C22.809 12.7024 22.3323 11.9786 22.0984 11.1074C21.3314 8.25981 23.446 5.48591 26.3882 5.48158C28.6241 5.47724 30.3097 6.72117 30.8644 8.84927C31.3107 10.5656 30.7734 12.0306 29.5687 13.2875C29.2871 13.5822 29.2828 13.5779 29.6467 13.7383C31.146 14.4057 32.251 15.498 33.0526 16.9152C33.2519 17.2706 33.2606 17.2793 33.5119 16.9456C35.2885 14.5964 35.9038 12.0132 35.0545 9.14399C35.0025 8.96629 35.0589 8.8536 35.1759 8.74091C35.4445 8.47652 35.7132 8.21647 35.9688 7.94341C36.1768 7.72237 36.2678 7.77005 36.3675 8.0431C37.1041 10.0628 37.1995 12.1129 36.6622 14.189C35.5875 18.3542 32.069 21.4272 27.8138 21.9473C21.9944 22.6581 16.7816 18.6533 16.0449 12.8454C15.3169 7.12425 19.1735 1.88418 25.0406 1.06501C25.1272 1.04768 25.2182 1.02167 25.3092 1C26.1022 1 26.8995 1 27.6968 1ZM26.6135 20.4563C26.8605 20.478 27.2462 20.4303 27.6275 20.3826C29.1831 20.1962 30.5957 19.6501 31.8697 18.7356C32.082 18.5839 32.1167 18.4452 32.0083 18.2068C30.7734 15.4546 28.1301 14.059 25.1792 14.6658C23.1557 15.0819 21.7387 16.2824 20.9371 18.1938C20.8504 18.3932 20.8244 18.5406 21.0497 18.6966C22.6833 19.8235 24.4729 20.4606 26.6135 20.4563ZM26.4965 7.04623C24.8369 7.0419 23.5066 8.35083 23.5023 9.9935C23.498 11.6102 24.8326 12.9408 26.4575 12.9451C28.1215 12.9494 29.4387 11.6492 29.4387 9.99783C29.4431 8.3595 28.1345 7.05057 26.4965 7.04623Z" stroke="#E04E39" stroke-width="0.5"/>
<path d="M1 3.95157C5.34184 3.95157 9.68801 3.95157 14.0299 3.95157C14.4978 3.95157 14.5065 3.9689 14.5108 4.41966C14.5108 4.65371 14.4935 4.88776 14.5108 5.12181C14.5368 5.43387 14.4068 5.52489 14.1035 5.52489C12.4049 5.51622 10.7063 5.52055 9.01204 5.52055C7.01011 5.52055 5.00819 5.52489 3.00626 5.51189C2.65961 5.50755 2.53828 5.59857 2.53828 5.96264C2.55128 11.6491 2.54694 17.34 2.54694 23.0308C2.54694 26.9749 2.54694 30.9234 2.54694 34.8675C2.54694 35.4223 2.54261 35.4223 3.10592 35.4223C9.96533 35.4223 16.8247 35.4223 23.6885 35.4353C24.1695 35.4353 24.5161 35.301 24.8541 34.9542C26.2667 33.5023 27.7053 32.0763 29.1483 30.6547C29.3563 30.451 29.4473 30.2386 29.4473 29.9439C29.4386 28.4312 29.4516 26.9229 29.4386 25.4103C29.4343 25.0679 29.5296 24.9075 29.8936 24.9422C30.1363 24.9639 30.3876 24.9552 30.6302 24.9422C30.9206 24.9248 31.0202 25.0462 31.0202 25.3323C31.0116 26.4678 31.0159 27.6034 31.0159 28.739C31.0159 29.3717 31.0072 30.0045 31.0159 30.6373C31.0202 30.8801 30.9379 31.0578 30.7689 31.2268C28.9273 33.0602 27.0857 34.8979 25.2571 36.7443C25.0534 36.948 24.8368 37 24.5681 37C20.0833 36.9956 15.5985 36.9956 11.118 36.9956C7.86375 36.9956 4.60953 36.9956 1.35532 36.9956C1.23832 36.9956 1.12133 36.9826 1.00433 36.9783C1 25.9694 1 14.9605 1 3.95157Z" stroke="#E04E39" stroke-width="0.5"/>
<path d="M12.2751 29.5322C10.6718 29.5322 9.06852 29.5322 7.46091 29.5322C6.96693 29.5322 6.9626 29.5235 6.95826 29.0511C6.94526 27.9589 6.94526 27.9632 8.04589 27.9632C11.0444 27.9675 14.0387 27.9632 17.0372 27.9632C17.5182 27.9632 17.5182 27.9632 17.5225 28.4573C17.5225 28.6697 17.5052 28.882 17.5269 29.0901C17.5572 29.4238 17.4315 29.5408 17.0892 29.5365C15.5769 29.5235 14.069 29.5322 12.5567 29.5322C12.4614 29.5322 12.3704 29.5322 12.2751 29.5322Z" stroke="#E04E39" stroke-width="0.5"/>
<path d="M11.5208 18.9697C12.8771 18.9697 14.2377 18.9783 15.594 18.9653C15.9277 18.961 16.049 19.065 16.0403 19.4031C16.01 20.7337 16.218 20.53 14.9094 20.5343C12.4264 20.543 9.94354 20.5386 7.46496 20.5343C6.96232 20.5343 6.95798 20.53 6.96232 20.0229C6.96232 18.974 6.96232 18.9697 8.01094 18.9697C9.17657 18.9697 10.3465 18.9697 11.5208 18.9697Z" stroke="#E04E39" stroke-width="0.5"/>
<path d="M17.4747 25.0376C16.1747 25.0376 14.8748 25.0376 13.5748 25.0376C12.9465 25.0376 12.9465 25.0419 12.9378 24.4265C12.9378 24.2271 12.9465 24.0277 12.9378 23.8283C12.9248 23.5553 13.0418 23.4599 13.3105 23.4599C14.3505 23.4686 15.3947 23.4599 16.4347 23.4599C18.1463 23.4599 19.8536 23.4686 21.5652 23.4556C21.9248 23.4513 22.0505 23.5726 22.0202 23.9194C21.9985 24.1534 22.0028 24.3875 22.0202 24.6215C22.0418 24.9249 21.9248 25.0333 21.6172 25.0333C20.2392 25.0289 18.857 25.0333 17.4747 25.0376Z" stroke="#E04E39" stroke-width="0.5"/>
<path d="M10.0306 9.97615C10.8929 9.97615 11.7595 9.98482 12.6218 9.97182C12.9251 9.96748 13.0508 10.0672 13.0248 10.3749C13.0075 10.6436 13.0075 10.9123 13.0248 11.1811C13.0421 11.4628 12.9165 11.5451 12.6522 11.5451C10.8756 11.5408 9.09896 11.5408 7.32669 11.5495C7.05803 11.5495 6.94104 11.4498 6.95403 11.1767C6.96703 10.895 6.96703 10.6176 6.95403 10.3359C6.94104 10.0585 7.0667 9.97182 7.33102 9.97182C8.23232 9.98049 9.13362 9.97615 10.0306 9.97615Z" stroke="#E04E39" stroke-width="0.5"/>
<path d="M10.0045 14.4708C10.8711 14.4708 11.7334 14.4838 12.6001 14.4664C12.9121 14.4621 13.0594 14.5445 13.0334 14.8782C13.0117 15.1209 13.0161 15.368 13.0377 15.615C13.0637 15.9357 12.9381 16.0528 12.6174 16.0484C11.6468 16.0354 10.6762 16.0441 9.70985 16.0441C8.93855 16.0441 8.16724 16.0311 7.39594 16.0484C7.08395 16.0528 6.93662 15.9661 6.96262 15.6323C6.98429 15.3766 6.97562 15.1166 6.96262 14.8609C6.94529 14.5748 7.05362 14.4664 7.34827 14.4708C8.22791 14.4794 9.11621 14.4708 10.0045 14.4708Z" stroke="#E04E39" stroke-width="0.5"/>
<path d="M8.45766 25.0333C8.07201 25.0333 7.68636 25.0289 7.30071 25.0333C7.07105 25.0376 6.94972 24.9552 6.95405 24.7082C6.96272 24.3918 6.96272 24.0754 6.95839 23.7633C6.95405 23.5596 7.04505 23.4686 7.25304 23.4686C8.07201 23.4729 8.88665 23.4729 9.70562 23.4686C9.93528 23.4686 10.0176 23.5683 10.0089 23.7893C10.0003 24.0927 10.0003 24.3961 10.0089 24.6995C10.0176 24.9379 9.91794 25.0419 9.67962 25.0376C9.27664 25.0289 8.86498 25.0333 8.45766 25.0333Z" stroke="#E04E39" stroke-width="0.5"/>
<path d="M32.654 2.96338C32.719 3.00239 32.7797 3.03707 32.8317 3.08041C33.4686 3.61352 34.0536 4.19864 34.5909 4.83576C34.7209 4.9918 34.7296 5.11315 34.5823 5.25618C34.3396 5.49023 34.097 5.73295 33.863 5.97566C33.7373 6.11002 33.6333 6.10136 33.5163 5.96266C32.9703 5.30819 32.368 4.70574 31.7094 4.15529C31.6227 4.08595 31.549 3.99926 31.653 3.89091C31.939 3.60051 32.2294 3.31445 32.524 3.0284C32.5543 2.99372 32.6063 2.98505 32.654 2.96338Z" stroke="#E04E39" stroke-width="0.5"/>
</svg>
