<svg width="20" height="20" viewBox="0 0 20 20" fill="none" xmlns="http://www.w3.org/2000/svg">
<path d="M4.98755 19.9937C3.43711 19.9937 1.8929 19.9937 0.342466 19.9937C0.00622666 19.9937 0 19.9875 0 19.6575C0 18.7733 0 17.8891 0 16.9987C0.0124533 14.4209 1.78705 12.3599 4.33997 12.0112C5.99004 11.787 7.40349 12.3163 8.58032 13.4931C8.81694 13.7297 8.81071 13.7297 9.05355 13.4869C10.4857 12.0548 11.9116 10.6289 13.3437 9.19672C13.5803 8.96011 13.5803 8.96011 13.8232 9.20295C14.1594 9.53919 14.4894 9.88166 14.8319 10.2054C14.9813 10.3487 14.9751 10.4358 14.8319 10.579C13.2254 12.1731 11.6314 13.7795 10.0249 15.3736C9.88169 15.5168 9.81943 15.6413 9.87547 15.8406C9.99377 16.2951 10.0249 16.7559 10.0187 17.2291C10.0125 18.051 10.0125 18.8792 10.0187 19.7011C10.0187 19.9252 9.94396 19.9937 9.72603 19.9937C8.14446 19.9937 6.56911 19.9937 4.98755 19.9937ZM5.02491 17.9327C5.92777 17.9327 6.83063 17.9327 7.7335 17.9327C7.84558 17.9327 7.98256 17.9576 7.98256 17.7708C7.97634 17.2727 8.02615 16.7745 7.90785 16.2826C7.58406 14.8941 6.43213 14.0037 4.96264 14.0161C3.58655 14.0286 2.45953 14.919 2.14197 16.2328C2.02989 16.6936 2.08593 17.1606 2.06102 17.6276C2.04857 17.858 2.11706 17.9389 2.3599 17.9389C3.25031 17.9203 4.1345 17.9327 5.02491 17.9327Z" fill="#E04E39"/>
<path d="M10 0C13.213 0 16.4259 0 19.6389 0C20 0 20 0 20 0.367372C20 0.815691 20 1.27024 20 1.71856C20 2.06102 20 2.06102 19.6451 2.06102C16.3512 2.06102 13.0635 2.06102 9.76961 2.06102C6.63138 2.06102 3.49938 2.06102 0.361146 2.06102C0 2.06102 0 2.06102 0 1.69365C0 1.24533 0 0.797011 0 0.342466C0 0 0 0 0.354919 0C3.5741 0 6.78705 0 10 0Z" fill="#E04E39"/>
<path d="M2.00524 8.00127C2.01147 6.28271 3.32529 4.98134 5.05629 4.98757C6.73126 4.9938 8.05754 6.33875 8.04508 8.01995C8.03263 9.70737 6.70013 11.0274 5.02516 11.0274C3.32529 11.0274 1.99901 9.69492 2.00524 8.00127ZM5.01894 8.9664C5.61669 8.9664 5.97784 8.60525 5.97161 8.0075C5.97161 7.42219 5.59179 7.02991 5.01894 7.02991C4.44608 7.02991 4.0289 7.44087 4.03513 8.01372C4.04758 8.58657 4.43363 8.96017 5.01894 8.9664Z" fill="#E04E39"/>
<path d="M14.993 6.03988C13.4301 6.03988 11.8672 6.03988 10.3043 6.03988C9.9805 6.03988 9.9805 6.03988 9.9805 5.71609C9.9805 5.22419 9.98673 4.73851 9.9805 4.24661C9.9805 4.07226 10.0303 3.99754 10.2171 3.99754C13.3989 4.00377 16.5808 4.00377 19.7626 3.99754C19.9556 3.99754 19.9992 4.07849 19.9992 4.25284C19.993 4.74474 19.9992 5.23042 19.9992 5.72232C19.9992 6.03365 19.993 6.03988 19.6879 6.03988C18.1187 6.03988 16.5559 6.03988 14.993 6.03988Z" fill="#E04E39"/>
<path d="M17.963 10.0125C17.3777 10.0125 16.7986 10.0062 16.2133 10.0125C16.0265 10.0125 15.9518 9.96264 15.9518 9.76339C15.9642 9.2528 15.9642 8.73599 15.9518 8.22541C15.9455 8.03238 16.0203 7.97011 16.2071 7.97011C17.3777 7.97634 18.5545 7.97634 19.7251 7.97011C19.9119 7.97011 19.9929 8.02616 19.9929 8.22541C19.9866 8.73599 19.9866 9.2528 19.9929 9.76339C19.9991 9.95641 19.9182 10.0187 19.7314 10.0125C19.146 10.0062 18.5545 10.0125 17.963 10.0125Z" fill="#E04E39"/>
</svg>
