<svg width="22" height="29" viewBox="0 0 22 29" fill="none" xmlns="http://www.w3.org/2000/svg">
<path d="M21.4885 28.9951C14.4045 28.9951 7.32046 28.9951 0.241281 29C0.0289537 29 0 28.9411 0 28.7448C0.00965124 27.3703 0.00482562 25.9958 0.00482562 24.6213C0.0193025 24.5428 0.038605 24.4593 0.0482562 24.3808C0.241281 22.9916 0.70454 21.7055 1.44769 20.5225C2.38868 19.0154 3.64817 17.852 5.17789 16.9881C5.39504 16.8654 5.40952 16.7819 5.24545 16.5856C4.5023 15.6922 3.97631 14.676 3.59026 13.5814C3.01601 11.9467 2.76508 10.2532 2.7313 8.52526C2.72165 8.06383 2.72647 8.06383 2.25839 8.06383C1.79513 8.06383 1.32705 8.05892 0.863786 8.06383C0.482562 8.06874 0.183374 7.93129 0.00482562 7.57295C0.00482562 7.41096 0.00482562 7.24406 0.00482562 7.08206C0.173722 6.7139 0.472911 6.57645 0.854135 6.58136C1.3367 6.58627 1.81926 6.58136 2.30182 6.58136C2.7506 6.58136 2.7506 6.58627 2.82781 6.13957C3.35381 3.20899 5.91621 1.01965 8.84536 1.00002C10.2786 0.990199 11.7118 0.98529 13.1402 1.00002C14.3224 1.01474 15.4227 1.34854 16.4071 2.01124C17.8934 3.00773 18.8103 4.40184 19.1481 6.18375C19.2204 6.57645 19.2204 6.57645 19.6065 6.58136C20.0456 6.58136 20.4848 6.58136 20.9239 6.58136C21.0928 6.58136 21.2617 6.56664 21.4306 6.61082C21.7828 6.70408 21.9952 6.98389 21.9855 7.34714C21.9759 7.69567 21.7539 7.96075 21.4016 8.02456C21.2376 8.05401 21.0638 8.05892 20.8949 8.05892C20.4365 8.06383 19.9829 8.06383 19.5245 8.05892C19.3363 8.05892 19.2446 8.13256 19.2494 8.33382C19.259 9.22723 19.177 10.1157 19.0322 10.9944C18.6993 13.0561 18.043 14.9804 16.7063 16.6101C16.5712 16.777 16.5857 16.8556 16.769 16.9586C17.5797 17.4152 18.3277 17.96 18.9888 18.6227C20.8805 20.4979 21.9469 22.7511 21.9855 25.4657C22 26.3394 21.971 27.2132 21.9952 28.087C22.0097 28.5189 21.8697 28.8184 21.4885 28.9951ZM11.0072 8.06383C10.7032 8.06383 10.3992 8.06383 10.0952 8.06383C8.23251 8.06383 6.36982 8.06383 4.51195 8.06383C4.18864 8.06383 4.16451 8.09328 4.16451 8.42709C4.16451 8.92779 4.21277 9.42849 4.26102 9.92428C4.41062 11.4411 4.76289 12.899 5.45295 14.2637C7.11779 17.5624 10.433 18.4215 13.3091 17.3415C14.7953 16.7868 15.8039 15.6676 16.5277 14.2735C17.4591 12.4769 17.7583 10.5232 17.8258 8.52526C17.8403 8.07856 17.821 8.06874 17.3771 8.06874C15.249 8.06383 13.1257 8.06383 11.0072 8.06383ZM10.9735 6.58627C12.0496 6.58627 13.1209 6.58627 14.197 6.58627C15.2731 6.58627 16.3444 6.58627 17.4205 6.58627C17.7631 6.58627 17.7921 6.55682 17.7052 6.23284C17.2468 4.46565 16.1803 3.27772 14.4769 2.69357C13.8399 2.47267 13.1788 2.44812 12.5128 2.46285C11.1424 2.48739 9.77188 2.38431 8.41105 2.51194C6.42772 2.69357 4.76771 4.18585 4.2948 6.16411C4.19829 6.56173 4.21759 6.58627 4.61329 6.58627C6.73174 6.58627 8.85019 6.58627 10.9735 6.58627ZM11.0169 22.0196C9.75258 22.0196 8.49309 22.0246 7.22878 22.0147C6.99232 22.0147 6.89098 22.0687 6.89098 22.3338C6.90064 23.9635 6.90064 25.5933 6.89098 27.223C6.89098 27.4685 6.96337 27.5568 7.2143 27.5568C9.72845 27.547 12.2426 27.547 14.7616 27.5568C15.0125 27.5568 15.0849 27.4734 15.0849 27.223C15.0752 25.6031 15.0752 23.9832 15.0849 22.3633C15.0849 22.1031 15.0077 22.0147 14.7471 22.0147C13.5069 22.0246 12.2619 22.0196 11.0169 22.0196ZM5.46743 24.6508C5.46743 23.777 5.46743 22.9032 5.47225 22.0295C5.47225 21.8577 5.42882 21.7349 5.26958 21.6564C4.63742 21.3373 4.00526 21.0133 3.37793 20.6844C3.21869 20.601 3.12218 20.6403 3.02084 20.7826C2.31147 21.7546 1.82408 22.8247 1.57315 24.0077C1.34152 25.1073 1.44286 26.2167 1.41873 27.3261C1.41391 27.5323 1.53937 27.5568 1.70344 27.5568C2.86642 27.5519 4.02939 27.5519 5.19237 27.5568C5.39987 27.5568 5.47708 27.4832 5.47708 27.2672C5.4626 26.3983 5.46743 25.5246 5.46743 24.6508ZM16.5133 24.6459C16.5133 25.5196 16.5181 26.3934 16.5084 27.2672C16.5084 27.4734 16.576 27.5617 16.7883 27.5568C17.9513 27.5519 19.1143 27.5519 20.2773 27.5568C20.5089 27.5568 20.5716 27.4586 20.5668 27.2427C20.5571 26.6978 20.5668 26.1529 20.5668 25.6031C20.5716 23.8114 20.007 22.2111 18.9695 20.7777C18.8537 20.6206 18.7524 20.6059 18.5883 20.6894C17.9754 21.0133 17.3626 21.3275 16.7449 21.6368C16.5615 21.7251 16.5084 21.8528 16.5133 22.0491C16.5133 22.918 16.5133 23.7819 16.5133 24.6459ZM10.9879 20.5617C12.4742 20.5617 13.9605 20.5617 15.442 20.5617C15.5385 20.5617 15.6398 20.5715 15.7315 20.5225C16.354 20.2034 16.9765 19.8843 17.599 19.5652C17.7148 19.5063 17.7486 19.4425 17.6328 19.3443C16.9814 18.7847 16.272 18.3086 15.4999 17.9404C15.3986 17.8913 15.3117 17.9159 15.2248 17.9748C14.168 18.6964 13.0002 19.0842 11.7359 19.1873C9.96008 19.3394 8.30007 19.0056 6.78965 18.0042C6.64005 17.906 6.52424 17.8962 6.36982 17.9748C5.66528 18.338 5.00899 18.7798 4.39131 19.2805C4.20311 19.4327 4.25137 19.5014 4.43474 19.5947C4.98004 19.8696 5.52051 20.1494 6.06098 20.4341C6.22505 20.5225 6.38912 20.5568 6.57732 20.5568C8.05396 20.5617 9.52095 20.5617 10.9879 20.5617Z" fill="#E04E39"/>
</svg>
