<svg width="35" height="41" viewBox="0 0 35 41" fill="none" xmlns="http://www.w3.org/2000/svg">
<path d="M33.6016 1C33.8074 1.20635 34.0266 1.40604 34 1.73886C33.9734 2.11162 33.7078 2.39785 33.263 2.42448C32.672 2.46441 32.0744 2.4511 31.4835 2.4511C22.3471 2.4511 13.2107 2.4511 4.08088 2.4511C3.43682 2.4511 2.94547 2.69073 2.65332 3.26319C2.37445 3.80236 2.40765 4.34818 2.7662 4.84076C3.07827 5.26677 3.50986 5.46646 4.04105 5.46646C8.59597 5.46646 13.1509 5.46646 17.7058 5.46646C22.8318 5.46646 27.9577 5.46646 33.0771 5.46646C33.7344 5.46646 34 5.73272 34 6.39171C34 17.275 34 28.1582 34 39.0415C34 39.767 33.7676 40 33.0505 40C23.3829 40 13.7153 40 4.04769 40C2.28149 40 1 38.722 1 36.958C1 26.0082 1 15.065 1 4.11521C1 2.51767 1.73038 1.5658 3.37706 1C13.4497 1 23.529 1 33.6016 1ZM32.5193 22.7665C32.5193 17.7076 32.5193 12.6421 32.5193 7.58321C32.5193 6.95085 32.5193 6.95084 31.8752 6.95084C26.6231 6.95084 21.371 6.95084 16.1189 6.95084C13.9676 6.95084 11.8163 6.9575 9.66499 6.94419C9.333 6.94419 9.20684 7.04403 9.2334 7.37686C9.25332 7.65643 9.24004 7.936 9.24004 8.21557C9.24004 18.147 9.24004 28.085 9.24004 38.0164C9.24004 38.509 9.25332 38.5223 9.75795 38.5223C17.1879 38.5223 24.6113 38.5156 32.0412 38.5289C32.433 38.5289 32.5326 38.4091 32.5326 38.0297C32.5193 32.9442 32.5193 27.8587 32.5193 22.7665ZM7.75936 22.7665C7.75936 17.6544 7.75936 12.5422 7.766 7.43011C7.766 7.07066 7.67304 6.94419 7.30121 6.95084C6.25211 6.97081 5.20302 6.9575 4.14728 6.9575C3.70241 6.9575 3.25754 6.90425 2.85251 6.72453C2.52052 6.57809 2.47404 6.6979 2.47404 7.0041C2.48732 8.15566 2.48068 9.31388 2.48068 10.4654C2.48068 19.2852 2.48068 28.0983 2.48068 36.9181C2.48068 37.9299 3.07827 38.5223 4.08752 38.5223C5.12334 38.5289 6.16579 38.5223 7.20161 38.5223C7.75936 38.5223 7.75936 38.5223 7.75936 37.9498C7.75936 32.8909 7.75936 27.8254 7.75936 22.7665Z" fill="#E04E39" stroke="#E04E39" stroke-width="0.5"/>
</svg>
