<svg width="30" height="33" viewBox="0 0 30 33" fill="none" xmlns="http://www.w3.org/2000/svg">
<path d="M15.9096 0C16.5133 0.0717104 17.117 0.143421 17.7207 0.239035C19.6213 0.525876 21.4325 1.09956 23.199 1.88837C23.7132 2.12741 23.8698 2.41425 23.7132 2.7728C23.5791 3.10745 23.266 3.17916 22.7741 2.94013C20.6276 1.96008 18.3915 1.33859 16.0661 1.17127C12.5555 0.908331 9.08972 1.24298 5.78042 2.62938C4.6177 3.10745 3.52205 3.72894 2.60529 4.63727C1.7556 5.47389 1.10716 6.43003 1.12952 7.74472C1.15188 8.67696 1.532 9.44187 2.091 10.1112C2.53821 10.637 3.05249 11.0912 3.58913 11.4976C3.94689 11.7605 3.99161 12.1669 3.72329 12.4298C3.54441 12.5971 3.34317 12.6688 3.14193 12.5493C1.73324 11.5932 0.548154 10.4458 0.145672 8.62915C-0.21209 7.12323 0.279833 5.76073 1.1966 4.56556C2.35932 3.10745 3.87981 2.22302 5.5121 1.52982C7.63631 0.645393 9.84997 0.215131 12.1083 0.0478069C12.1978 0.0478069 12.2649 0.0239035 12.3319 0C13.5394 0 14.7245 0 15.9096 0Z" fill="#E04E39"/>
<path d="M26.8437 10.7804C26.4188 11.1868 26.1281 11.5692 25.748 11.88C24.1604 13.2186 22.3269 14.0313 20.3816 14.5811C18.8387 15.0113 17.2735 15.2504 15.686 15.3699C12.8015 15.5611 9.96176 15.2982 7.16675 14.4615C7.09967 14.4376 7.01023 14.4137 6.94315 14.3898C6.67483 14.2703 6.54067 13.9835 6.60775 13.7205C6.69719 13.4337 6.94315 13.2425 7.25619 13.3142C7.90463 13.4576 8.53072 13.6488 9.1568 13.7922C10.5655 14.103 11.9742 14.2464 13.4052 14.2703C15.8425 14.3181 18.235 14.0552 20.5605 13.3381C22.1704 12.8361 23.7132 12.1429 25.0325 11.0194C25.435 10.6848 25.7927 10.2784 26.1058 9.84818C27.1343 8.39007 27.0673 6.69292 25.9269 5.30652C25.5691 4.87626 25.189 4.51771 24.7865 4.15915C24.4735 3.89622 24.4288 3.58547 24.6076 3.32253C24.8089 3.03569 25.1219 2.98788 25.435 3.25082C26.5977 4.18306 27.5368 5.28262 27.8499 6.86024C27.9169 7.19489 27.9393 7.52954 27.9393 7.86419C27.9393 9.15498 27.9169 10.4219 27.9393 11.7126C27.984 13.5054 27.2461 14.9157 26.0163 16.0631C24.2946 17.6885 22.2151 18.5251 20.0238 19.1227C17.5195 19.792 14.9481 19.9593 12.3767 19.8159C9.89468 19.6725 7.45743 19.1944 5.15434 18.1666C4.55061 17.9036 3.94689 17.569 3.38789 17.2104C3.23137 17.1148 3.11957 17.067 3.07485 17.33C3.03013 17.569 2.85124 17.7124 2.69472 17.8558C2.13572 18.3578 1.68852 18.9554 1.37548 19.6725C0.838834 20.9155 1.12952 22.3497 2.15808 23.497C3.27609 24.74 4.64005 25.5288 6.13818 26.1025C8.08351 26.8674 10.0959 27.2977 12.1754 27.4411C12.6673 27.465 13.1816 27.4889 13.6735 27.4889C13.7406 27.4889 13.7853 27.4889 13.8524 27.4889C14.2549 27.5128 14.5009 27.7519 14.5009 28.0865C14.5009 28.4451 14.2549 28.6602 13.8301 28.6602C10.5431 28.6124 7.32327 28.0865 4.32701 26.5567C3.23137 25.983 2.2028 25.2659 1.37548 24.2859C1.3084 24.2142 1.26368 24.1185 1.12952 24.0707C0.995354 25.3615 1.10716 26.5806 1.93448 27.6084C2.04628 27.728 2.11336 27.7758 2.24752 27.6323C2.40404 27.465 2.60528 27.3933 2.82888 27.5128C3.05249 27.6323 3.14193 27.8236 3.14193 28.0865V28.1104C3.00777 28.7797 3.43261 29.0666 3.87981 29.3295C4.01397 29.4012 4.10341 29.4012 4.14813 29.2339C4.23757 28.9231 4.43881 28.7797 4.75186 28.8036C5.02018 28.8275 5.1767 29.0905 5.19906 29.4729C5.19906 29.6641 5.10962 29.9271 5.26614 30.0705C5.48974 30.2617 5.78042 30.3334 6.02638 30.4291C6.16054 30.4769 6.16054 30.3573 6.1829 30.2617C6.24998 29.8315 6.45123 29.6402 6.76427 29.688C7.07731 29.7359 7.21147 29.951 7.23383 30.3573C7.23383 30.5247 7.14439 30.7637 7.32327 30.8593C7.56923 31.0027 7.85991 31.0744 8.12823 31.0983C8.21767 31.1223 8.24003 31.0266 8.24003 30.9549C8.24003 30.8593 8.24004 30.7876 8.2624 30.692C8.30712 30.4051 8.55308 30.2139 8.79904 30.2378C9.06736 30.2617 9.2686 30.4769 9.29096 30.7637C9.35804 31.433 9.35804 31.433 9.98412 31.5286C10.2077 31.5764 10.2972 31.5286 10.2972 31.2657C10.3195 30.8593 10.5208 30.5964 10.8114 30.5964C11.1245 30.5964 11.3481 30.8593 11.3705 31.2657C11.4152 31.7198 11.4152 31.7198 11.84 31.7437C11.9295 31.7437 11.9965 31.7437 12.086 31.7676C12.2649 31.8154 12.3543 31.7437 12.3543 31.5286C12.3543 31.433 12.3543 31.3613 12.3543 31.2657C12.399 30.9549 12.6003 30.7637 12.8462 30.7398C13.1145 30.7159 13.3381 30.9071 13.4052 31.2179C13.4052 31.2418 13.4052 31.2657 13.4276 31.2896C13.4723 31.4569 13.3605 31.6959 13.517 31.7915C13.7406 31.9111 13.9866 31.8394 14.2325 31.8155C14.3667 31.8155 14.3891 31.6959 14.3891 31.5764C14.3891 31.4569 14.3891 31.3374 14.4114 31.2179C14.4561 30.9071 14.6798 30.7159 14.9481 30.7159C15.2164 30.7159 15.3953 30.931 15.4624 31.2179C15.5071 31.3852 15.3953 31.6242 15.5742 31.7198C15.7083 31.7915 15.8872 31.672 16.0437 31.6959C16.3344 31.7198 16.4462 31.6003 16.4462 31.2657C16.4238 30.8115 16.6474 30.5486 16.9828 30.5486C17.2959 30.5486 17.5195 30.7876 17.5195 31.2179C17.5195 31.4569 17.6313 31.5286 17.8325 31.4808C17.8996 31.4569 17.9443 31.4569 18.0114 31.4569C18.4586 31.3852 18.4586 31.3852 18.5033 30.8832C18.5033 30.8115 18.5257 30.7398 18.5257 30.6681C18.5928 30.3812 18.8164 30.19 19.0623 30.2139C19.3307 30.2378 19.5766 30.4291 19.5543 30.7637C19.5543 31.1222 19.6884 31.1462 19.9344 31.0266H19.9567C20.5381 30.8593 20.5381 30.8593 20.5605 30.2378C20.5828 29.8793 20.7617 29.6641 21.0524 29.6402C21.3431 29.6163 21.589 29.8076 21.6114 30.1422C21.6337 30.4051 21.7456 30.4051 21.9244 30.3334C21.9692 30.3095 22.0139 30.2856 22.0586 30.2856C22.6176 30.0466 22.6176 30.0466 22.6176 29.4251C22.6176 29.0666 22.7965 28.8275 23.0872 28.7797C23.3555 28.7319 23.5567 28.9231 23.6685 29.2817C23.7132 29.4251 23.758 29.4251 23.8474 29.3534C24.071 29.21 24.2946 29.0666 24.5182 28.8992C24.63 28.8275 24.6971 28.6841 24.6747 28.5407C24.6747 28.3494 24.6747 28.1821 24.6747 27.9909C24.7194 27.4889 25.1666 27.2499 25.5468 27.5606C25.7257 27.728 25.8151 27.6562 25.9269 27.4889C26.3965 26.8435 26.7095 26.1264 26.7319 25.3137C26.7542 24.9074 26.9778 24.6683 27.3132 24.6922C27.6263 24.7161 27.8499 25.003 27.8275 25.4093C27.7604 26.5328 27.3579 27.5128 26.6871 28.3734C25.6362 29.7358 24.2499 30.5964 22.7518 31.2657C20.8959 32.1262 18.9282 32.5565 16.9381 32.8194C15.5518 33.0106 14.1655 33.0345 12.7791 32.9628C10.0065 32.8433 7.32327 32.3413 4.77422 31.1462C3.25373 30.4291 1.8674 29.5207 0.861194 28.0626C0.324551 27.2499 0.011509 26.2459 0.011509 25.1464C0.011509 23.8556 0.0338691 22.5887 0.011509 21.2979C-0.0332112 19.5769 0.682313 18.2383 1.82268 17.0909C1.93448 16.9714 2.04628 16.8758 2.15808 16.7802C2.44876 16.5411 2.44876 16.5411 2.15808 16.2782C1.59908 15.8001 1.12952 15.2504 0.749393 14.605C0.16803 13.6488 -0.0555714 12.5971 0.011509 11.4736C0.0338691 11.0912 0.279831 10.8282 0.570512 10.8521C0.905914 10.876 1.12952 11.139 1.10716 11.5453C1.0848 12.358 1.15188 13.1469 1.57672 13.8401C1.66616 13.9835 1.73324 14.103 1.82268 14.2464C1.95684 14.4615 2.04628 14.7006 2.35932 14.3898C2.60528 14.1269 3.03013 14.3181 3.14193 14.6767C3.16429 14.7723 3.18665 14.8918 3.18665 14.9874C3.20901 15.6567 3.41025 15.9675 3.96925 16.2065C4.10341 16.2543 4.14813 16.2065 4.19285 16.087C4.32701 15.7284 4.52825 15.585 4.79658 15.6328C5.0649 15.6806 5.24378 15.9197 5.24378 16.3021C5.24378 16.8997 5.5121 17.1865 6.0711 17.2822C6.22762 17.3061 6.22762 17.2104 6.24998 17.0909C6.31706 16.6846 6.49594 16.4933 6.78663 16.4933C7.09967 16.5172 7.27855 16.7563 7.30091 17.1626C7.30091 17.3539 7.21147 17.5929 7.39035 17.7124C7.63631 17.8797 7.92699 17.9275 8.19531 17.9514C8.28475 17.9754 8.30712 17.8797 8.30712 17.808C8.30712 17.7124 8.30712 17.6168 8.32948 17.5212C8.39656 17.2343 8.64252 17.0431 8.88848 17.067C9.11208 17.0909 9.33568 17.3061 9.35804 17.569C9.35804 17.5929 9.35804 17.6168 9.35804 17.6407C9.40276 18.3339 9.40276 18.3339 10.0736 18.4056C10.2748 18.4295 10.3866 18.3578 10.3642 18.1427C10.3642 18.0471 10.3642 17.9754 10.3866 17.8797C10.476 17.6168 10.6326 17.4734 10.9009 17.4495C11.1469 17.4495 11.3034 17.5929 11.3928 17.8558C11.4152 17.9275 11.4152 17.9993 11.4375 18.071C11.4823 18.2383 11.3705 18.4773 11.527 18.549C11.7506 18.6686 11.9965 18.6686 12.2425 18.6446C12.3543 18.6446 12.399 18.5729 12.399 18.4534C12.399 18.3817 12.399 18.3339 12.399 18.2622C12.4214 17.8319 12.6226 17.5929 12.958 17.5929C13.2487 17.5929 13.4723 17.8797 13.4947 18.2383C13.517 18.6925 13.517 18.6925 13.9642 18.6925C14.0537 18.6925 14.1207 18.6925 14.2102 18.6925C14.3891 18.6925 14.4561 18.6207 14.4561 18.4295C14.4561 18.2861 14.4562 18.1427 14.5009 18.0232C14.5679 17.7602 14.7468 17.5929 14.9928 17.5929C15.2611 17.5929 15.44 17.7602 15.5071 18.0232C15.5294 18.1188 15.5518 18.2144 15.5294 18.31C15.5071 18.5729 15.6189 18.6686 15.8648 18.6207C15.9319 18.5968 15.999 18.5729 16.0661 18.5968C16.4015 18.6207 16.5356 18.4773 16.5133 18.1188C16.4909 17.7124 16.7369 17.4256 17.0499 17.4256C17.363 17.4256 17.5866 17.6646 17.5866 18.0949C17.5866 18.3578 17.6984 18.4056 17.922 18.3578C18.0114 18.3339 18.1232 18.31 18.2126 18.31C18.481 18.2861 18.5928 18.1666 18.5704 17.8797C18.5704 17.808 18.5704 17.7363 18.5704 17.6646C18.6151 17.2822 18.8387 17.0431 19.1294 17.067C19.4201 17.0909 19.6437 17.3061 19.6437 17.7124C19.6437 17.9514 19.7331 18.0232 19.9344 17.9514C19.9791 17.9275 20.0238 17.9275 20.0685 17.9036C20.717 17.6885 20.6275 17.8319 20.6499 17.1148C20.6499 16.7563 20.8511 16.5172 21.1418 16.4933C21.4101 16.4694 21.6561 16.6846 21.6785 17.0192C21.7008 17.2582 21.7903 17.33 21.9915 17.2104C22.0586 17.1865 22.1257 17.1626 22.1928 17.1148C22.707 16.8997 22.707 16.8997 22.707 16.3021C22.707 16.2543 22.707 16.1826 22.707 16.1348C22.7294 15.824 22.9083 15.6328 23.1766 15.585C23.4449 15.5611 23.6909 15.7045 23.7356 16.0153C23.7803 16.2782 23.8698 16.2543 24.0263 16.1348C24.1157 16.0631 24.1828 16.0153 24.2722 15.9675C24.6524 15.7762 24.8312 15.4655 24.7642 15.0113C24.7194 14.7245 24.7865 14.4615 25.0325 14.3181C25.3008 14.1747 25.5244 14.2464 25.7033 14.4615C25.8151 14.5811 25.8822 14.4854 25.9493 14.3898C26.4412 13.7205 26.7989 13.0034 26.7989 12.119C26.8437 11.7365 26.8437 11.3063 26.8437 10.7804Z" fill="#E04E39"/>
<path d="M28.9008 17.4257C28.543 17.7842 28.2523 18.1189 27.9393 18.4057C26.553 19.6726 24.943 20.4375 23.2213 20.9873C21.1642 21.6566 19.04 21.9912 16.8934 22.039C16.6251 22.039 16.3791 22.0868 16.1108 22.0629C15.7307 22.039 15.5071 21.8 15.5071 21.4893C15.5071 21.1546 15.753 20.9156 16.1555 20.9156C18.2797 20.8917 20.3816 20.6287 22.4387 20.0072C24.0486 19.5292 25.5915 18.8599 26.9554 17.7603C27.5368 17.3062 28.0511 16.7564 28.4089 16.111C29.0573 14.9397 29.0573 13.7445 28.4089 12.5733C28.3865 12.5255 28.3418 12.4538 28.3194 12.4059C28.1405 12.0713 28.1853 11.7606 28.4759 11.5693C28.7219 11.402 29.0349 11.4976 29.2362 11.8084C29.6163 12.4059 29.8399 13.0513 29.9517 13.7684C30.0188 14.1748 29.9964 14.5573 29.9964 14.9636C29.9964 16.1349 29.9741 17.2823 29.9964 18.4535C30.0188 19.9355 29.4821 21.1546 28.5654 22.2064C27.3579 23.5689 25.8374 24.3816 24.2275 25.0509C23.9816 25.1465 23.7356 25.2421 23.4896 25.3377C23.0871 25.505 22.7517 25.266 22.7294 24.8118C22.707 24.4533 22.7294 24.0708 22.7294 23.7123C22.7294 23.4015 22.9753 23.1625 23.2437 23.1386C23.512 23.1386 23.758 23.3537 23.758 23.6645C23.758 23.9274 23.8474 23.9991 24.071 23.8796C24.1157 23.8557 24.1381 23.8318 24.1828 23.8318C24.6524 23.7362 24.8536 23.4493 24.7865 22.9235C24.7418 22.5888 24.943 22.3498 25.2114 22.302C25.502 22.2542 25.7256 22.3976 25.8374 22.7322C25.9045 22.9235 25.994 22.9235 26.1281 22.8279C26.1952 22.78 26.2399 22.7322 26.307 22.7083C26.7318 22.5171 26.9331 22.1825 26.866 21.6566C26.8213 21.3936 26.8884 21.1307 27.1567 20.9873C27.4027 20.8678 27.6263 20.9156 27.8275 21.1307C27.9393 21.2502 28.0287 21.1785 28.0958 21.0829C28.4536 20.5809 28.7666 20.0311 28.8784 19.3858C28.9455 18.7404 28.8561 18.1189 28.9008 17.4257Z" fill="#E04E39"/>
<path d="M15.4624 26.485C13.517 26.4611 11.0798 26.1503 8.7096 25.3615C7.16675 24.8595 5.71334 24.1424 4.43882 23.0907C3.61149 22.3975 2.89597 21.5848 2.44877 20.533C2.38169 20.3657 2.31461 20.1745 2.26989 19.9832C2.18044 19.6008 2.33697 19.3139 2.65001 19.2183C2.91833 19.1466 3.18665 19.3139 3.29845 19.6486C3.45497 20.1506 3.67857 20.5808 3.96925 21.0111C4.10342 21.2023 4.19286 21.2501 4.34938 21.0589C4.5059 20.8916 4.70714 20.8916 4.90838 20.9872C5.10962 21.0828 5.19906 21.2501 5.19906 21.4653C5.19906 21.4892 5.19906 21.5131 5.19906 21.537C5.04254 22.2541 5.46738 22.5887 5.98167 22.8517C6.11583 22.9234 6.18291 22.9712 6.22763 22.756C6.29471 22.4214 6.51831 22.2541 6.80899 22.278C7.07731 22.3019 7.25619 22.517 7.25619 22.8517C7.30091 23.5927 7.30091 23.5927 7.99408 23.8556C8.17296 23.9273 8.2624 23.9273 8.28476 23.6644C8.30712 23.3297 8.55308 23.0907 8.84376 23.1146C9.13444 23.1385 9.31332 23.3536 9.33568 23.7361C9.33568 23.8317 9.33568 23.9273 9.33568 24.0229C9.31332 24.262 9.42512 24.3815 9.62637 24.4293C9.69345 24.4532 9.76053 24.4771 9.82761 24.4771C10.2524 24.5966 10.2301 24.5966 10.3419 24.1424C10.409 23.8556 10.5879 23.6883 10.8562 23.6883C11.1245 23.6883 11.281 23.8556 11.3481 24.1185C11.3705 24.2141 11.3705 24.3098 11.3928 24.4054C11.4152 24.5488 11.3257 24.7639 11.4823 24.8595C11.7059 24.9791 11.9965 25.003 12.2425 25.003C12.3767 25.003 12.3543 24.8356 12.3543 24.74C12.3543 24.5488 12.399 24.3576 12.5555 24.2141C12.7121 24.0707 12.8909 24.0229 13.0922 24.1185C13.3158 24.2141 13.4052 24.4054 13.4499 24.6444C13.4723 24.8117 13.3829 25.0508 13.5617 25.1464C13.763 25.2898 14.0089 25.2181 14.2326 25.2181C14.3891 25.2181 14.4114 25.0986 14.4114 24.9552C14.4114 24.7639 14.4338 24.5488 14.568 24.4054C14.7245 24.2381 14.9034 24.1663 15.127 24.2381C15.3953 24.3337 15.4847 24.5249 15.5071 24.7878C15.5294 24.9552 15.4176 25.1703 15.6189 25.242C15.8648 25.3137 16.1108 25.3137 16.3568 25.242C16.4462 25.2181 16.4462 25.1225 16.4686 25.0269C16.4686 24.9312 16.4686 24.8117 16.4909 24.7161C16.5356 24.4054 16.7816 24.1902 17.0499 24.1902C17.3182 24.2141 17.5195 24.4532 17.5642 24.7639C17.5866 24.9073 17.4971 25.1464 17.6984 25.1703C17.9443 25.2181 18.2127 25.2181 18.4586 25.0747C18.5257 25.0269 18.5257 24.9552 18.5257 24.8595C18.5481 24.74 18.5481 24.5966 18.5704 24.4771C18.6375 24.1663 18.8611 23.999 19.1294 24.0229C19.3754 24.0468 19.5766 24.262 19.599 24.5727C19.6437 25.003 19.6437 25.003 20.0462 24.9313C20.1356 24.9073 20.2474 24.8834 20.3369 24.8834C20.5381 24.8595 20.6275 24.74 20.6052 24.5488C20.6052 24.4293 20.6052 24.3098 20.6052 24.1902C20.6275 23.8795 20.8511 23.6644 21.1195 23.6644C21.3654 23.6644 21.6338 23.8795 21.6338 24.1663C21.6561 24.5249 21.6785 24.8595 21.7903 25.1942C21.8797 25.4332 21.7008 25.7201 21.4101 25.8396C20.9406 26.0069 20.4487 26.0547 19.9567 26.1264C18.7046 26.3655 17.363 26.485 15.4624 26.485Z" fill="#E04E39"/>
<path d="M11.281 2.89226C11.6164 2.89226 11.8847 3.08349 11.9071 3.39423C11.9295 3.68108 11.7282 3.94401 11.3704 4.01572C10.3642 4.15914 9.35804 4.32647 8.37419 4.61331C7.23383 4.94796 6.11582 5.35432 5.15434 6.11923C4.79657 6.40607 4.48353 6.71681 4.30465 7.14708C4.05869 7.76857 4.21521 8.27054 4.61769 8.74861C5.31086 9.58523 6.22762 10.0155 7.16675 10.3979C8.62015 10.9716 10.1406 11.2585 11.6611 11.4258C12.3767 11.4975 13.0922 11.5453 13.8077 11.5453C14.2325 11.5453 14.4785 11.7604 14.4785 12.119C14.4785 12.4775 14.2102 12.7166 13.7853 12.7166C13.0922 12.6927 12.3767 12.6688 11.6835 12.5971C10.1406 12.4536 8.62015 12.1668 7.14439 11.617C5.98166 11.1868 4.86366 10.637 3.96925 9.70474C2.82888 8.48567 2.82888 7.00365 3.94689 5.76067C4.68477 4.94796 5.57918 4.44599 6.54066 4.03963C8.01643 3.41814 9.53692 3.08349 11.1021 2.91616C11.1916 2.89226 11.2363 2.89226 11.281 2.89226Z" fill="#E04E39"/>
<path d="M14.0089 2.725C16.312 2.7728 18.5704 3.01184 20.7617 3.80065C21.9692 4.23091 23.1095 4.78069 24.0039 5.78464C24.4735 6.28661 24.8089 6.8842 24.8089 7.64911C24.8089 8.03156 24.63 8.2706 24.317 8.2706C24.0039 8.2706 23.8027 8.07937 23.7803 7.72082C23.7356 7.05152 23.3555 6.62126 22.9083 6.2388C21.9468 5.42609 20.8064 4.97192 19.6437 4.63727C18.2574 4.23091 16.8487 4.01578 15.4176 3.94407C14.8139 3.92017 14.1878 3.92017 13.5841 3.89627C13.204 3.89627 12.958 3.68113 12.9357 3.37039C12.9133 3.03574 13.1593 2.7728 13.5394 2.7489C13.6735 2.70109 13.8301 2.725 14.0089 2.725Z" fill="#E04E39"/>
<path d="M4.61769 13.123C4.61769 12.8362 4.88601 12.5493 5.15434 12.5493C5.42266 12.5493 5.66862 12.8123 5.69098 13.0991C5.71334 13.4098 5.46738 13.6728 5.1767 13.6967C4.90837 13.6967 4.64005 13.4337 4.61769 13.123Z" fill="#E04E39"/>
</svg>
