<svg width="24" height="25" viewBox="0 0 24 25" fill="none" xmlns="http://www.w3.org/2000/svg">
<path d="M18.2576 15.1733C18.2576 17.999 18.2576 20.8276 18.2576 23.6532C18.2576 23.9879 18.2483 23.997 17.9059 23.997C17.1714 23.997 17.1714 23.997 17.1683 23.2853C17.1683 18.0804 17.1683 12.8754 17.1652 7.67051C17.1652 7.37499 17.1558 7.36594 16.8508 7.36292C16.5178 7.36292 16.1847 7.35689 15.8517 7.36292C15.6774 7.36594 15.5903 7.30261 15.6058 7.12771C15.6058 7.11263 15.6089 7.09453 15.6058 7.07946C15.4938 6.41602 15.7677 5.90639 16.1972 5.39675C17.3675 4.00656 18.4817 2.57113 19.6209 1.1538C19.7921 0.939689 19.817 0.939689 19.9913 1.15681C21.2798 2.76111 22.5652 4.3624 23.8538 5.9667C23.9472 6.08431 24.0032 6.20493 23.997 6.35571C23.9907 6.59093 23.9845 6.82916 23.997 7.06438C24.0094 7.29356 23.9067 7.36895 23.6795 7.36292C23.3714 7.35086 23.0632 7.35991 22.752 7.35991C22.447 7.35991 22.4314 7.37197 22.4314 7.66448C22.4314 9.40449 22.4314 11.1445 22.4314 12.8845C22.4314 14.136 22.4283 15.3874 22.4345 16.6419C22.4345 16.841 22.3785 16.9375 22.1575 16.9194C21.9894 16.9043 21.8151 16.9043 21.6471 16.9194C21.4136 16.9405 21.3389 16.856 21.3389 16.6269C21.3483 15.4447 21.3421 14.2656 21.3421 13.0835C21.3421 10.9424 21.3421 8.79835 21.3421 6.65727C21.3421 6.30445 21.3421 6.30445 21.7062 6.30746C21.9677 6.30746 22.226 6.31048 22.4874 6.30445C22.5466 6.30445 22.6306 6.3346 22.6617 6.25921C22.6835 6.20493 22.6213 6.1597 22.587 6.11748C22.0859 5.49023 21.5817 4.85997 21.0775 4.23273C20.7102 3.77134 20.3367 3.31598 19.9757 2.84857C19.8481 2.68572 19.7609 2.67668 19.6271 2.84555C18.7587 3.9372 17.8841 5.02282 17.0158 6.11446C16.9784 6.1597 16.8975 6.20192 16.938 6.27127C16.9753 6.3346 17.0562 6.30445 17.1185 6.30445C17.3861 6.30746 17.6538 6.30445 17.9246 6.30746C18.2545 6.31048 18.2576 6.31048 18.2576 6.63918C18.2576 7.91478 18.2576 9.19038 18.2576 10.466C18.2576 12.0401 18.2576 13.6052 18.2576 15.1733Z" fill="#E04E39"/>
<path d="M10.4549 17.6823C10.4549 19.6726 10.4549 21.6659 10.4549 23.6562C10.4549 23.988 10.4456 23.997 10.1001 23.997C9.36869 23.997 9.36558 23.997 9.36558 23.2823C9.36558 19.7782 9.36558 16.2771 9.36558 12.7729C9.36558 12.3839 9.36558 12.3839 8.96719 12.3839C8.65905 12.3839 8.35092 12.3779 8.03968 12.3869C7.87472 12.3899 7.80002 12.3266 7.80313 12.1668C7.80625 11.8833 7.80625 11.5999 7.80625 11.3164C7.80625 11.2078 7.85916 11.1204 7.92452 11.039C9.22552 9.41657 10.5296 7.79719 11.8275 6.17178C11.9582 6.00893 12.0298 6.00592 12.1668 6.17479C13.446 7.78211 14.7345 9.38641 16.0262 10.9847C16.1445 11.1294 16.2036 11.2772 16.1974 11.4581C16.1912 11.6692 16.1849 11.8833 16.1974 12.0944C16.2067 12.3025 16.1382 12.396 15.9079 12.3839C15.5749 12.3688 15.2419 12.3899 14.9088 12.3749C14.691 12.3658 14.6318 12.4503 14.6318 12.6493C14.638 14.1209 14.6349 15.5925 14.6349 17.0672C14.6349 17.429 14.6318 17.429 14.2552 17.432C13.5456 17.4351 13.5456 17.4351 13.5487 16.7505C13.5518 15.0497 13.5487 13.3489 13.5487 11.6481C13.5487 11.3345 13.5549 11.3285 13.8724 11.3254C14.1494 11.3254 14.4264 11.3254 14.7003 11.3224C14.7532 11.3224 14.8248 11.3466 14.8528 11.2832C14.8746 11.235 14.8217 11.1988 14.7937 11.1626C13.9066 10.0559 13.0165 8.95216 12.1325 7.84242C12.0018 7.67958 11.9396 7.75195 11.8462 7.86655C11.1241 8.76821 10.402 9.66988 9.67682 10.5715C9.51809 10.7706 9.35935 10.9726 9.19751 11.1686C9.10102 11.2862 9.13215 11.3285 9.27843 11.3285C9.56166 11.3254 9.84801 11.3405 10.1312 11.3254C10.3709 11.3134 10.4549 11.3888 10.4549 11.633C10.4487 13.6505 10.4518 15.6679 10.4549 17.6823C10.4518 17.6823 10.4518 17.6823 10.4549 17.6823Z" fill="#E04E39"/>
<path d="M7.12136 15.8669C6.72297 15.3694 6.36815 14.9291 6.01645 14.4888C5.45932 13.7922 4.89908 13.0986 4.34195 12.402C4.25481 12.2934 4.19567 12.2211 4.07117 12.3779C3.17479 13.5057 2.26907 14.6305 1.36647 15.7553C1.3509 15.7734 1.34468 15.7976 1.31978 15.8488C1.56877 15.8911 1.80843 15.8639 2.04498 15.8669C2.64879 15.876 2.64879 15.873 2.64879 16.464C2.64879 18.8584 2.64879 21.2498 2.64879 23.6442C2.64879 23.997 2.64568 24.003 2.28463 24.003C2.14769 24.003 2.00763 23.994 1.87068 24.003C1.64658 24.0151 1.55321 23.9337 1.55632 23.7015C1.56566 22.7485 1.55944 21.7956 1.55944 20.8427C1.55944 19.6304 1.55321 18.4181 1.56255 17.2059C1.56566 16.9737 1.48163 16.9043 1.25442 16.9164C0.915162 16.9314 0.572794 16.9164 0.230426 16.9224C0.0623544 16.9254 -0.00300673 16.8591 0.000105707 16.6992C0.00633058 16.4308 0.00321814 16.1625 0.000105707 15.8971C0.000105707 15.7704 0.0530171 15.6709 0.130828 15.5744C1.43494 13.955 2.73905 12.3326 4.03382 10.7072C4.177 10.5293 4.24858 10.5625 4.37308 10.7193C5.63673 12.2995 6.90349 13.8796 8.17648 15.4508C8.35077 15.6649 8.39746 15.888 8.39746 16.1474C8.39435 16.9284 8.40057 16.9284 7.61001 16.9224C7.4326 16.9224 7.25208 16.9284 7.07467 16.9194C6.89415 16.9103 6.82879 16.9797 6.8319 17.1516C6.83813 17.6461 6.83502 18.1437 6.83502 18.6383C6.83502 18.9278 6.81323 18.9459 6.51755 18.9489C6.3308 18.9489 6.14405 18.9459 5.95731 18.9459C5.82036 18.9459 5.74255 18.9006 5.74255 18.7559C5.74566 17.8572 5.74566 16.9616 5.74255 16.0629C5.74255 15.9001 5.83281 15.8639 5.97598 15.8639C6.3308 15.8699 6.68873 15.8669 7.12136 15.8669Z" fill="#E04E39"/>
<path d="M20.3461 9.11499C20.3461 10.273 20.3461 11.428 20.3461 12.5859C20.3461 12.8966 20.3398 12.8996 20.0161 12.9026C19.9663 12.9026 19.9197 12.9026 19.8699 12.9026C19.154 12.8996 19.2567 12.9719 19.2567 12.3176C19.2505 10.1071 19.2536 7.89669 19.2536 5.68625C19.2536 5.28517 19.2567 5.27914 19.6707 5.28517C20.4581 5.29724 20.3429 5.18264 20.3461 5.93051C20.3492 6.98899 20.3461 8.0535 20.3461 9.11499Z" fill="#E04E39"/>
<path d="M11.4537 17.1425C11.4537 16.3102 11.4599 15.4749 11.4506 14.6426C11.4475 14.4285 11.5191 14.338 11.7432 14.3531C11.9112 14.3652 12.0855 14.3621 12.2536 14.3501C12.4746 14.335 12.5493 14.4255 12.5462 14.6396C12.5368 15.7644 12.5431 16.8892 12.5431 18.011C12.5431 18.5689 12.5368 19.1268 12.5462 19.6847C12.5493 19.8777 12.4808 19.9591 12.2785 19.947C12.1011 19.935 11.9206 19.932 11.7432 19.947C11.5222 19.9651 11.4444 19.8837 11.4475 19.6636C11.4599 18.8252 11.4537 17.9839 11.4537 17.1425Z" fill="#E04E39"/>
<path d="M4.74026 18.7046C4.74026 19.2082 4.73403 19.7118 4.74337 20.2154C4.74648 20.3994 4.67178 20.4717 4.48504 20.4627C4.28273 20.4536 4.08042 20.4567 3.875 20.4627C3.7256 20.4657 3.6509 20.4084 3.6509 20.2546C3.65402 19.1992 3.6509 18.1467 3.6509 17.0912C3.6509 16.9525 3.71938 16.8922 3.85944 16.8952C4.07731 16.8982 4.29829 16.9013 4.51616 16.8952C4.68735 16.8892 4.74337 16.9676 4.74026 17.1244C4.73714 17.6491 4.74026 18.1769 4.74026 18.7046Z" fill="#E04E39"/>
<path d="M19.8076 13.8706C20.4052 13.8796 20.3492 13.7922 20.3461 14.4074C20.343 14.9683 20.4177 14.923 19.8076 14.9261C19.1758 14.9291 19.2598 14.9653 19.2567 14.3983C19.2536 13.7982 19.2038 13.8766 19.8076 13.8706Z" fill="#E04E39"/>
<path d="M11.9987 20.9181C12.6025 20.9211 12.5434 20.8517 12.5434 21.4458C12.5465 22.0308 12.6025 21.9765 11.9987 21.9735C11.3856 21.9705 11.4509 22.0308 11.454 21.4458C11.4572 20.8547 11.3887 20.9211 11.9987 20.9181Z" fill="#E04E39"/>
<path d="M4.19882 21.4307C4.79952 21.4398 4.74349 21.3523 4.74038 21.9645C4.73727 22.5284 4.81508 22.4832 4.20504 22.4862C3.5701 22.4892 3.65414 22.5254 3.65103 21.9615C3.64791 21.3583 3.59811 21.4367 4.19882 21.4307Z" fill="#E04E39"/>
</svg>
