<svg width="22" height="24" viewBox="0 0 22 24" fill="none" xmlns="http://www.w3.org/2000/svg">
<path d="M10.0223 24C6.80874 24 3.59518 24 0.381623 24C-0.00671181 24 -0.0102745 23.9964 0.00397629 23.589C0.0859185 21.5994 1.06566 20.2027 2.75082 19.2752C3.6985 18.7515 4.71387 18.3914 5.6758 17.8967C5.90381 17.7803 6.1247 17.6567 6.3349 17.5112C6.7838 17.1947 7.10444 16.8128 7.01181 16.2018C6.99756 16.0999 7.00469 15.9944 7.01181 15.8926C7.051 15.3579 6.98687 14.8814 6.60923 14.4377C6.23871 13.9976 6.16033 13.4047 6.09976 12.8337C6.08551 12.6991 6.07482 12.5754 5.93231 12.5136C5.28747 12.2263 5.10577 11.6443 5.03095 11.0078C4.97395 10.5022 5.04876 10.0257 5.40503 9.63291C5.50835 9.51652 5.4371 9.38558 5.41216 9.26191C5.19483 8.26531 5.03808 7.26143 5.08795 6.23573C5.12714 5.41008 5.29103 4.60625 5.7328 3.89335C6.37765 2.8531 7.34671 2.33298 8.50459 2.12202C8.80742 2.06746 9.11025 2.06746 9.41308 2.042C9.76578 2.00926 10.0365 2.24568 10.0472 2.56212C10.0579 2.87493 9.82635 3.11135 9.47008 3.11862C9.06393 3.1259 8.65778 3.15499 8.26232 3.24956C7.11869 3.52963 6.41328 4.35892 6.21733 5.61377C6.0392 6.75222 6.1817 7.86522 6.40615 8.97821C6.45959 9.24009 6.5166 9.50197 6.58785 9.76022C6.62348 9.89843 6.59498 9.98209 6.47741 10.0621C6.02494 10.3749 5.92875 10.9641 6.23514 11.4333C6.3634 11.6298 6.54866 11.728 6.76955 11.7316C7.03319 11.7352 7.09376 11.8735 7.07951 12.1099C7.04032 12.7755 7.21133 13.3902 7.52484 13.9685C7.63172 14.1649 7.74573 14.3577 7.92743 14.4923C8.03075 14.5686 8.05212 14.6668 8.05212 14.7869C8.05212 15.478 8.05569 16.169 8.04856 16.8601C8.045 17.2275 7.82411 17.5075 7.61391 17.7731C7.30396 18.1586 6.91206 18.4459 6.48453 18.6824C5.77556 19.0752 5.03095 19.3807 4.29703 19.7081C3.68425 19.9809 3.08928 20.2864 2.54062 20.6865C1.88508 21.163 1.47537 21.8067 1.2723 22.596C1.19748 22.887 1.20817 22.9088 1.50031 22.9088C3.06434 22.9088 4.62837 22.9088 6.19239 22.9088C10.2681 22.9088 14.3439 22.9088 18.4196 22.9088C18.8721 22.9088 18.8614 22.9125 18.7438 22.4687C18.4659 21.4467 17.7747 20.7992 16.909 20.2937C16.1573 19.8535 15.3485 19.548 14.5612 19.1843C13.9591 18.9079 13.3605 18.6278 12.844 18.195C12.591 17.984 12.3772 17.7439 12.2062 17.4602C12.0637 17.2238 11.9711 16.9729 11.9782 16.6782C11.9925 16.0381 11.9853 15.4016 11.9818 14.7614C11.9818 14.6378 11.9889 14.525 12.0958 14.4377C12.6088 14.0012 12.8511 13.412 12.9865 12.7646C13.0613 12.4081 13.2679 12.2008 13.5565 12.2299C13.87 12.2626 14.0624 12.4991 14.0268 12.8773C13.9698 13.5211 13.7275 14.1031 13.3178 14.5905C13.1218 14.8232 13.0292 15.056 13.0506 15.3616C13.0755 15.7398 13.0684 16.1217 13.0506 16.5C13.0399 16.7655 13.1361 16.9656 13.3 17.1511C13.6028 17.4893 13.984 17.7149 14.383 17.904C15.2417 18.3114 16.1145 18.686 16.966 19.1043C17.8424 19.5371 18.6262 20.1009 19.1963 20.9302C19.72 21.694 19.9765 22.5487 20.0157 23.4762C20.0371 23.9927 20.0335 23.9927 19.5276 23.9927C16.3675 24 13.1931 24 10.0223 24Z" fill="#E04E39"/>
<path d="M16.2427 0.00514383C17.6286 0.00514383 19.0145 -0.00213064 20.4039 0.00878107C21.1022 0.0124183 21.6188 0.325221 21.9002 0.998109C21.9751 1.17633 22 1.36183 22 1.55461C22 3.42778 22 5.30096 22 7.17414C22 8.0107 21.3231 8.70905 20.4965 8.71269C19.1962 8.71633 17.8922 8.71996 16.5918 8.71269C16.3709 8.71269 16.264 8.79998 16.175 8.99639C15.8258 9.7493 15.352 10.4004 14.6715 10.8805C14.3651 11.0987 14.0267 11.2224 13.6562 11.2515C13.1645 11.2879 12.9009 10.9532 13.0647 10.4804C13.2358 9.98572 13.2358 9.48378 13.1609 8.97457C13.1324 8.77816 13.0434 8.71633 12.8581 8.71633C12.4876 8.71633 12.1135 8.7527 11.743 8.68359C11.0447 8.55265 10.5174 7.93432 10.5138 7.21051C10.5103 5.3046 10.5103 3.40232 10.5138 1.50369C10.5174 0.68167 11.2157 0.00514383 12.0565 0.00150659C13.4531 -0.00213064 14.8497 0.00150659 16.2427 0.00514383ZM20.9739 4.348C20.9739 3.47507 20.9739 2.60577 20.9739 1.73283C20.9739 1.21634 20.778 1.03448 20.2757 1.05631C19.5097 1.09268 18.7437 1.06722 17.9741 1.07085C16.9802 1.07813 15.9862 1.06358 14.9922 1.07085C14.6038 1.07449 14.2155 1.07085 13.8307 1.07085C13.2643 1.07085 12.7013 1.04539 12.1349 1.06358C11.6824 1.07813 11.5399 1.25272 11.5399 1.71828C11.5363 3.48962 11.5399 5.25731 11.5399 7.02865C11.5399 7.47967 11.7145 7.66153 12.1491 7.66517C12.5553 7.67244 12.9614 7.66517 13.3676 7.66517C13.7951 7.66517 13.934 7.77065 14.0516 8.1962C14.1763 8.65449 14.2476 9.1237 14.2369 9.60018C14.2369 9.66565 14.2084 9.75294 14.2832 9.78567C14.358 9.81841 14.4008 9.73839 14.4471 9.69111C14.8924 9.251 15.2095 8.7236 15.4518 8.14892C15.6014 7.79247 15.8223 7.64698 16.2106 7.65425C17.5716 7.67244 18.9325 7.66153 20.2935 7.66153C20.8101 7.66153 20.9704 7.49058 20.9739 6.95954C20.9739 6.09024 20.9739 5.2173 20.9739 4.348Z" fill="#E04E39"/>
<path d="M15.2844 2.54758C15.6229 2.54758 15.9614 2.54394 16.2963 2.54758C16.4031 2.54758 16.5171 2.55849 16.6205 2.59486C16.8556 2.67488 17.0088 2.84219 17.0159 3.10771C17.023 3.31867 16.8378 3.52599 16.5884 3.58783C16.4922 3.61329 16.3889 3.6242 16.2891 3.62784C15.6478 3.63147 15.0065 3.63511 14.3653 3.62784C14.2156 3.62784 14.0624 3.60965 13.9128 3.57692C13.6741 3.52236 13.528 3.36596 13.5102 3.11135C13.496 2.87493 13.6456 2.67852 13.895 2.60214C14.1266 2.52939 14.3617 2.55121 14.6004 2.54758C14.8284 2.5403 15.0564 2.54394 15.2844 2.54758C15.2844 2.54394 15.2844 2.54394 15.2844 2.54758Z" fill="#E04E39"/>
<path d="M17.7569 6.17026C17.4184 6.17026 17.0835 6.1739 16.7451 6.17026C16.6453 6.17026 16.542 6.15935 16.4458 6.13753C16.1608 6.06842 15.9898 5.8611 16.004 5.62104C16.0183 5.34825 16.2285 5.14456 16.5349 5.13365C17.3579 5.09728 18.1844 5.11547 19.0074 5.13365C19.271 5.14093 19.4848 5.35189 19.5097 5.59558C19.5347 5.832 19.3815 6.04296 19.1214 6.13025C18.9646 6.18481 18.8043 6.1739 18.644 6.1739C18.3483 6.17026 18.0526 6.17026 17.7569 6.17026Z" fill="#E04E39"/>
<path d="M18.6939 2.5403C18.9468 2.55121 19.1321 2.57304 19.2924 2.68579C19.5917 2.89311 19.5881 3.31503 19.2711 3.49689C19.011 3.64602 18.726 3.67148 18.4374 3.58782C18.1809 3.51508 17.9885 3.29321 17.9885 3.08589C17.992 2.87493 18.1809 2.66397 18.4374 2.58395C18.5407 2.55121 18.6476 2.53666 18.6939 2.5403Z" fill="#E04E39"/>
<path d="M14.3047 5.12273C14.3475 5.12273 14.3902 5.12273 14.4294 5.12273C14.7643 5.13728 15.003 5.33005 15.0208 5.60284C15.0386 5.85381 14.8249 6.0866 14.5078 6.14843C14.3154 6.1848 14.123 6.19208 13.9342 6.13388C13.6634 6.05022 13.5067 5.86109 13.5102 5.62467C13.5138 5.38097 13.6919 5.19184 13.9769 5.12637C14.0838 5.10091 14.1943 5.10818 14.3047 5.12273Z" fill="#E04E39"/>
</svg>
