<svg width="24" height="24" viewBox="0 0 24 24" fill="none" xmlns="http://www.w3.org/2000/svg">
<path d="M10.5706 23.0007C10.0851 22.9217 9.59515 22.872 9.11193 22.7659C7.06393 22.3188 5.26656 21.384 3.72886 19.9614C2.02407 18.3876 0.854425 16.4796 0.335085 14.2171C-0.516181 10.5027 0.251539 7.12921 2.67212 4.18252C4.6298 1.80259 7.18134 0.429723 10.2477 0.0774747C12.6638 -0.20026 14.9466 0.289727 17.0895 1.43905C17.2498 1.52485 17.2678 1.59485 17.1233 1.71001C16.9178 1.87259 16.744 2.11419 16.5114 2.18871C16.2766 2.26322 16.053 2.01936 15.825 1.92C14.1382 1.18841 12.3838 0.892613 10.5503 1.05519C8.36228 1.24938 6.45427 2.09613 4.77206 3.48706C4.44916 3.7535 4.44916 3.75576 4.74948 4.04478C5.50816 4.77638 6.27137 5.50345 7.02328 6.24182C7.1678 6.38407 7.26489 6.37278 7.42069 6.25988C8.43453 5.52377 9.5387 5.00443 10.7964 4.84412C12.1015 4.67928 13.3434 4.89379 14.5221 5.46732C15.8588 6.11537 16.8591 7.11567 17.5478 8.42531C17.8549 9.01013 18.0739 9.63108 18.1846 10.2836C18.2162 10.4711 18.302 10.5275 18.4849 10.5275C19.5687 10.5207 20.6526 10.5252 21.7387 10.523C22.0096 10.523 22.0141 10.5094 21.9803 10.2385C21.7929 8.78207 21.3706 7.40695 20.6029 6.14698C20.5171 6.00473 20.5171 5.91215 20.6435 5.80377C20.7835 5.68184 20.9168 5.54636 21.041 5.40862C21.1584 5.27765 21.2216 5.30926 21.3051 5.447C22.0096 6.60987 22.5087 7.84952 22.7886 9.17948C22.8857 9.64011 22.9241 10.1098 23.0032 10.5727C23.0032 11.2004 23.0032 11.8281 23.0032 12.4581C22.9919 12.5078 22.9738 12.5597 22.9693 12.6094C22.9219 13.1852 22.8203 13.7497 22.678 14.3074C22.0909 16.6128 20.8942 18.5547 19.1171 20.1308C17.6291 21.4517 15.9085 22.3323 13.9599 22.7591C13.4631 22.8675 12.9596 22.9239 12.4583 23.003C11.8283 23.0007 11.1983 23.0007 10.5706 23.0007ZM11.5099 17.2428C14.696 17.1999 17.2362 14.7003 17.234 11.512C17.2294 8.33273 14.714 5.81054 11.5506 5.79248C8.33292 5.77441 5.77687 8.3237 5.79267 11.5481C5.80848 14.7071 8.32615 17.1909 11.5099 17.2428ZM11.5144 22.0117C11.9931 22.0162 12.4696 21.9846 12.946 21.9191C15.1002 21.6278 16.9856 20.7472 18.5888 19.2908C20.1558 17.866 21.2013 16.1138 21.7093 14.0522C21.8967 13.2958 22.0029 12.5281 22.0096 11.7468C22.0119 11.5865 21.9622 11.521 21.7929 11.521C20.6864 11.5255 19.58 11.5233 18.4736 11.521C18.3359 11.521 18.2455 11.5413 18.2365 11.7084C18.223 11.9613 18.2026 12.2165 18.1643 12.4671C17.8481 14.5219 16.8253 16.1274 15.0618 17.2293C13.8289 17.9992 12.4718 18.3108 11.0154 18.2137C9.86611 18.137 8.79581 17.8276 7.83391 17.1886C7.69617 17.096 7.64649 17.148 7.56972 17.2541C6.92619 18.155 6.28492 19.056 5.63235 19.9479C5.51945 20.1037 5.56236 20.1647 5.70009 20.2572C7.46811 21.4111 9.40096 22.014 11.5144 22.0117ZM1.01023 11.4014C1.02378 11.8168 1.00345 12.1013 1.04184 12.3858C1.08023 12.6749 1.10506 12.9661 1.15474 13.2507C1.57924 15.669 2.72857 17.6763 4.56206 19.3021C4.67722 19.4037 4.74496 19.3902 4.83076 19.2727C5.51268 18.3537 6.19685 17.437 6.88329 16.5248C6.9578 16.4254 6.95554 16.3554 6.85845 16.2809C6.66878 16.1341 6.51072 15.9535 6.35943 15.7683C5.05882 14.181 4.55077 12.3768 4.89625 10.3469C5.08818 9.21787 5.59623 8.22435 6.2646 7.3076C6.37524 7.15631 6.37072 7.06373 6.23524 6.93051C5.48784 6.19666 4.75173 5.45378 4.01111 4.71315C3.75821 4.46026 3.75821 4.458 3.52564 4.71993C3.51661 4.73122 3.50532 4.74251 3.49629 4.7538C1.86827 6.72052 1.00571 8.96723 1.01023 11.4014Z" fill="#E04E39"/>
<path d="M19.9309 3.7618C19.8993 3.80471 19.879 3.84309 19.8473 3.8747C19.6961 4.02825 19.5403 4.17953 19.389 4.33534C19.2987 4.43017 19.2264 4.41437 19.1496 4.31953C18.8787 3.98083 18.5693 3.676 18.2306 3.40504C18.1245 3.32149 18.1132 3.24924 18.2171 3.15214C18.3751 3.00537 18.5264 2.84957 18.6777 2.69377C18.7567 2.61248 18.829 2.61474 18.908 2.69377C19.2129 3.00086 19.5199 3.30569 19.8248 3.61278C19.8677 3.65568 19.8948 3.70987 19.9309 3.7618Z" fill="#E04E39"/>
</svg>
