<svg width="24" height="23" viewBox="0 0 24 23" fill="none" xmlns="http://www.w3.org/2000/svg">
<path d="M23.0028 5.77656C22.8384 5.85099 22.6741 5.92104 22.5142 6.00203C18.9255 7.79265 15.3346 9.58326 11.7503 11.3826C11.5531 11.4811 11.402 11.4768 11.207 11.3804C7.53286 9.53948 3.85654 7.7029 0.182409 5.86631C0.114491 5.83129 -0.0016263 5.82472 0.00494638 5.72184C0.00932817 5.64303 0.114491 5.6299 0.178027 5.59706C3.86749 3.75391 7.55696 1.91076 11.2442 0.0632265C11.4195 -0.0243341 11.5575 -0.0221451 11.7262 0.0676046C12.2236 0.328098 12.7275 0.577646 13.2358 0.822815C13.4001 0.90162 13.4066 0.965102 13.2796 1.09425C12.745 1.64151 12.7297 1.67653 12.0658 1.31097C11.6452 1.08112 11.3187 1.12052 10.9068 1.33067C8.08496 2.76447 5.25214 4.16982 2.4215 5.58393C2.41493 5.58831 2.40836 5.5905 2.40178 5.59487C2.33825 5.64084 2.21775 5.63865 2.21994 5.73497C2.22213 5.81159 2.32729 5.8291 2.39302 5.85974C2.80053 6.06551 3.21022 6.26909 3.61992 6.47486C6.18327 7.75324 8.74661 9.03163 11.3056 10.3144C11.4327 10.3779 11.5356 10.3801 11.6627 10.3166C14.6401 8.82586 17.6175 7.33952 20.595 5.8488C20.6563 5.81815 20.7615 5.80721 20.7527 5.71527C20.7461 5.64522 20.6585 5.62771 20.5994 5.59706C19.9728 5.27309 19.3484 4.94911 18.7218 4.62514C18.4676 4.4938 18.4654 4.48066 18.6757 4.26833C19.1599 3.78018 19.1599 3.78018 19.78 4.08883C20.7593 4.57698 21.7386 5.06732 22.7179 5.55547C22.8122 5.60144 22.9107 5.63865 23.0071 5.68024C23.0028 5.71527 23.0028 5.74591 23.0028 5.77656Z" fill="#E04E39"/>
<path d="M23.0022 11.5317C22.6013 11.6849 22.2311 11.8995 21.8498 12.0899C18.4737 13.7733 15.0997 15.4588 11.7279 17.1487C11.557 17.2341 11.4212 17.2428 11.2459 17.1553C7.56083 15.3078 3.86918 13.4668 0.181906 11.6214C0.113989 11.5864 -0.00212862 11.5799 0.00444406 11.477C0.0110167 11.4004 0.113989 11.385 0.179715 11.3544C1.41976 10.748 2.65981 10.1439 3.89766 9.53531C4.02473 9.47402 4.1299 9.46526 4.25697 9.53312C4.46072 9.64476 4.67324 9.74108 4.87918 9.84834C4.92957 9.87461 5.00844 9.88337 5.00406 9.95779C4.99968 10.0278 4.92519 10.041 4.87261 10.0672C4.09922 10.4656 3.32365 10.8597 2.55245 11.2624C2.42976 11.3259 2.22382 11.35 2.22382 11.4923C2.22382 11.6127 2.42757 11.639 2.54369 11.6981C5.40719 13.1319 8.27287 14.5591 11.132 15.9995C11.3774 16.1243 11.5636 16.1286 11.8134 16.0039C14.7075 14.5482 17.6083 13.1034 20.5046 11.6543C20.5923 11.6105 20.7434 11.5974 20.7391 11.4813C20.7369 11.3894 20.5966 11.3631 20.5134 11.3194C19.7137 10.9056 18.9118 10.4963 18.1144 10.0848C18.053 10.0519 17.9479 10.041 17.9566 9.94904C17.9632 9.87899 18.0596 9.87242 18.1122 9.83302C18.6117 9.46308 19.0718 9.49372 19.6283 9.80237C20.6492 10.3693 21.7228 10.8422 22.7744 11.3522C22.8489 11.3872 22.9256 11.4157 23.0022 11.4463C23.0022 11.4726 23.0022 11.5032 23.0022 11.5317Z" fill="#E04E39"/>
<path d="M23.0021 17.2888C22.3667 17.5581 21.7642 17.8908 21.1464 18.1973C18.0222 19.7537 14.9024 21.3144 11.7803 22.8752C11.708 22.9124 11.6401 22.9584 11.5678 23C11.5087 23 11.4473 23 11.3882 23C10.8492 22.6869 10.2818 22.4308 9.72748 22.1528C6.55945 20.5636 3.38484 18.9809 0.21243 17.3961C0.192712 17.3851 0.170803 17.3786 0.153276 17.3654C0.0985034 17.3304 0.00648587 17.3239 0.00210408 17.2472C-0.0022777 17.1641 0.0897398 17.1553 0.146703 17.1268C1.40647 16.5095 2.66623 15.8966 3.92599 15.2793C4.03773 15.2246 4.13413 15.2246 4.24367 15.2837C4.44962 15.3931 4.65994 15.4916 4.86589 15.5967C4.91847 15.623 4.99734 15.6361 5.00391 15.6996C5.01268 15.7828 4.92285 15.7981 4.86808 15.8266C4.08155 16.2315 3.29283 16.6321 2.5063 17.0393C2.39894 17.094 2.21491 17.1181 2.22148 17.2516C2.22586 17.3589 2.40551 17.383 2.50849 17.4355C5.41142 18.889 8.31654 20.3359 11.2195 21.7916C11.4057 21.8858 11.5503 21.8901 11.7409 21.7938C14.6745 20.3206 17.6147 18.854 20.5527 17.3873C20.5987 17.3633 20.6469 17.3414 20.6929 17.3151C20.7762 17.2669 20.7805 17.2166 20.6929 17.1706C20.5483 17.0918 20.4037 17.013 20.2569 16.9364C19.5427 16.5686 18.8285 16.2053 18.1164 15.8353C18.0551 15.8025 17.9499 15.7915 17.9609 15.6996C17.9674 15.6296 18.0616 15.6186 18.1186 15.5858C18.158 15.5639 18.204 15.5507 18.2391 15.5245C18.6751 15.1874 19.0782 15.264 19.5493 15.5157C20.6206 16.0871 21.7248 16.5927 22.8181 17.1246C22.8794 17.1531 22.9429 17.1728 23.0065 17.1969C23.0021 17.2297 23.0021 17.2582 23.0021 17.2888Z" fill="#E04E39"/>
<path d="M17.2227 2.86978C17.203 2.90042 17.1855 2.93545 17.1614 2.95953C16.9992 3.1237 16.8327 3.28569 16.6706 3.45205C16.5939 3.53086 16.515 3.52429 16.4274 3.48051C15.8797 3.20469 15.3298 2.92888 14.7799 2.65744C14.6615 2.59834 14.6396 2.53923 14.7426 2.44292C14.9004 2.29406 15.0559 2.14083 15.2027 1.98103C15.2925 1.88472 15.3736 1.89128 15.4809 1.94601C16.009 2.21307 16.5391 2.47575 17.0672 2.74062C17.1263 2.76908 17.192 2.79316 17.2227 2.86978Z" fill="#E04E39"/>
</svg>
