<svg width="29" height="30" viewBox="0 0 29 30" fill="none" xmlns="http://www.w3.org/2000/svg">
<path d="M28.9919 14.4598C29.2138 22.0784 22.5184 29.0565 14.6694 29.0041C6.50182 28.9437 -0.00805927 22.5539 7.48886e-06 14.4799C0.00807425 6.49065 6.47762 0.314352 13.8748 0.012185C22.6192 -0.346387 29.1412 6.92577 28.9919 14.4598ZM4.73923 15.4026C3.95272 15.4026 3.16621 15.4187 2.3797 15.3985C1.8957 15.3865 1.75453 15.6 1.81906 16.0472C2.12157 18.118 2.80724 20.0398 4.00515 21.7723C4.27136 22.159 4.53756 22.2638 4.9893 22.1026C5.93311 21.7682 6.88902 21.462 7.85703 21.2001C8.2402 21.0954 8.32087 20.9342 8.2402 20.5797C7.89737 19.0648 7.6836 17.5298 7.66746 15.9747C7.66343 15.5275 7.44563 15.3985 7.04229 15.4026C6.27191 15.4106 5.50557 15.4026 4.73923 15.4026ZM24.3536 15.4026C23.5872 15.4026 22.8168 15.4187 22.0505 15.3985C21.6149 15.3865 21.4092 15.5194 21.381 15.9908C21.2842 17.5621 21.1269 19.1253 20.7679 20.6603C20.6993 20.9463 20.784 21.1075 21.0784 21.176C22.1352 21.4217 23.1556 21.7803 24.1721 22.151C24.4423 22.2477 24.6722 22.2315 24.8497 21.9818C26.1242 20.1808 26.9188 18.1946 27.1689 15.9988C27.2213 15.5557 27.0196 15.3945 26.5961 15.4066C25.8499 15.4106 25.1038 15.4026 24.3536 15.4026ZM4.68276 13.6057C5.4491 13.6057 6.21948 13.5896 6.98582 13.6137C7.46579 13.6299 7.6594 13.4365 7.66343 12.9611C7.6715 11.6235 7.8409 10.298 8.1071 8.98454C8.19584 8.55344 8.0708 8.33186 7.63923 8.20696C6.65508 7.92494 5.69111 7.57442 4.7715 7.12319C4.36816 6.92577 4.11405 7.03052 3.88415 7.38507C2.76287 9.11346 2.0651 10.9909 1.80696 13.0336C1.75856 13.4284 1.88763 13.6218 2.31517 13.6097C3.10974 13.5936 3.89625 13.6057 4.68276 13.6057ZM24.2366 13.6057C25.0231 13.6057 25.8136 13.5896 26.6001 13.6137C27.0842 13.6299 27.2294 13.4163 27.1729 12.9691C26.9067 10.8862 26.225 8.96036 25.007 7.236C24.8456 7.00635 24.6843 6.92577 24.4141 7.0547C23.3775 7.53816 22.3046 7.92494 21.2116 8.25531C20.9131 8.34797 20.7961 8.51719 20.8647 8.82741C21.1793 10.2134 21.3003 11.6235 21.385 13.0336C21.4132 13.513 21.627 13.6258 22.0545 13.6137C22.7765 13.5896 23.5065 13.6057 24.2366 13.6057ZM17.5008 15.4066C17.5008 15.4026 17.5008 15.4026 17.5008 15.4066C16.9725 15.4026 16.4401 15.4106 15.9117 15.4026C15.5366 15.3945 15.3874 15.5637 15.3914 15.9384C15.3995 17.2317 15.3995 18.529 15.3914 19.8223C15.3914 20.1486 15.4922 20.3218 15.8552 20.3541C16.7547 20.4387 17.646 20.5515 18.5415 20.6683C18.852 20.7086 19.0376 20.6119 19.0981 20.3017C19.3723 18.8352 19.6184 17.3687 19.6224 15.8739C19.6224 15.5516 19.4651 15.4106 19.1545 15.4106C18.5979 15.4066 18.0494 15.4066 17.5008 15.4066ZM13.5925 17.8844C13.5925 17.2357 13.5844 16.5871 13.5965 15.9424C13.6046 15.5718 13.4513 15.4026 13.0762 15.4026C11.9953 15.4106 10.9143 15.4066 9.83339 15.4066C9.51878 15.4066 9.35342 15.5355 9.37358 15.8659C9.46232 17.3566 9.61155 18.8352 9.93826 20.2936C10.0109 20.616 10.1803 20.6925 10.4868 20.6522C11.362 20.5354 12.2373 20.4306 13.1166 20.3501C13.4715 20.3178 13.5965 20.1607 13.5925 19.8263C13.5885 19.1776 13.5965 18.529 13.5925 17.8844ZM15.3874 11.4019C15.3874 11.9699 15.3914 12.538 15.3833 13.1101C15.3793 13.4123 15.4721 13.6017 15.8109 13.6017C16.9321 13.5976 18.0494 13.6017 19.1707 13.6017C19.457 13.6017 19.6103 13.4768 19.6063 13.1786C19.5982 11.8209 19.4006 10.4833 19.1465 9.15375C19.1102 8.95633 19.0255 8.83144 18.7915 8.86367C17.7791 9.00065 16.7708 9.13361 15.7584 9.26253C15.4559 9.30282 15.3793 9.48815 15.3833 9.75808C15.3914 10.302 15.3874 10.8539 15.3874 11.4019ZM13.5885 11.4341C13.5844 10.8821 13.5764 10.3342 13.5885 9.78226C13.5965 9.44786 13.4675 9.27865 13.1206 9.24239C12.1647 9.13361 11.2088 9.00871 10.2569 8.87979C10.0149 8.84755 9.88582 8.91605 9.83742 9.16181C9.57928 10.4752 9.43812 11.8007 9.36955 13.1343C9.35342 13.4526 9.49458 13.6057 9.81725 13.6057C10.9184 13.6017 12.0195 13.6017 13.1246 13.6057C13.4917 13.6097 13.6006 13.4163 13.5925 13.086C13.5804 12.534 13.5885 11.9861 13.5885 11.4341ZM15.3833 4.70585C15.3874 5.45119 15.3995 6.19654 15.3793 6.93786C15.3712 7.35283 15.5527 7.51399 15.948 7.46967C16.7063 7.38104 17.4645 7.29643 18.2228 7.19974C18.5576 7.15945 18.6463 6.97009 18.5213 6.65986C18.239 5.97092 18.005 5.25781 17.6662 4.59707C17.2104 3.70668 16.6901 2.84853 15.8512 2.24419C15.7423 2.16764 15.6334 2.03872 15.4882 2.10318C15.3309 2.17167 15.3833 2.34089 15.3793 2.46981C15.3793 3.21516 15.3833 3.9605 15.3833 4.70585ZM13.5885 4.72599C13.5885 3.9605 13.5844 3.19501 13.5885 2.42549C13.5885 2.08304 13.4755 1.97829 13.1771 2.2039C13.0682 2.28851 12.9472 2.36103 12.8504 2.4537C11.6121 3.65431 10.9466 5.17723 10.4424 6.78476C10.3456 7.08693 10.5392 7.17556 10.7732 7.20376C11.5153 7.29643 12.2534 7.38104 12.9956 7.46967C13.4231 7.52205 13.6046 7.34478 13.5925 6.90563C13.5723 6.18043 13.5885 5.45119 13.5885 4.72599ZM15.3914 24.5723C15.3914 25.1042 15.3793 25.636 15.3954 26.1638C15.4035 26.4095 15.2623 26.7721 15.4882 26.8769C15.7383 26.9937 15.952 26.6633 16.1779 26.5143C16.2263 26.482 16.2666 26.4337 16.307 26.3934C17.2871 25.358 17.9163 24.1251 18.3882 22.7956C18.5052 22.4612 18.3519 22.3726 18.0736 22.3403C17.3516 22.2557 16.6296 22.151 15.8996 22.1389C15.5043 22.1308 15.3874 22.3282 15.3954 22.6868C15.3995 23.3113 15.3914 23.9398 15.3914 24.5723ZM13.5965 24.6529C13.5965 24.0043 13.5844 23.3596 13.6006 22.711C13.6127 22.2718 13.4231 22.0986 12.9996 22.1429C12.5519 22.1872 12.1001 22.2195 11.6524 22.2597C10.4666 22.3645 10.4505 22.3685 10.8982 23.4724C11.3983 24.7013 12.0437 25.8374 13.0803 26.7077C13.1972 26.8043 13.3303 26.9574 13.4876 26.897C13.6732 26.8285 13.5925 26.623 13.5925 26.478C13.6046 25.8696 13.5965 25.2613 13.5965 24.6529ZM18.4406 2.48996C19.3038 3.751 19.812 5.08054 20.2839 6.42619C20.3766 6.69209 20.6267 6.64778 20.8405 6.57123C21.6149 6.28921 22.3853 5.99107 23.1637 5.7171C23.5711 5.57609 23.5348 5.42702 23.2524 5.16917C22.1352 4.15792 20.905 3.32394 19.5095 2.74781C19.211 2.62291 18.9166 2.44161 18.4406 2.48996ZM10.5191 2.43355C8.64757 2.94925 7.09876 3.96453 5.69917 5.22961C5.45314 5.45522 5.53784 5.59221 5.80404 5.69293C6.61475 5.99107 7.42949 6.28518 8.24424 6.57929C8.48221 6.66389 8.65564 6.63166 8.74841 6.34964C9.18805 4.98384 9.74465 3.66639 10.5191 2.43355ZM10.511 26.5304C9.82532 25.4103 9.31712 24.2339 8.88151 23.0252C8.79681 22.7916 8.62337 22.7674 8.40154 22.8359C7.63116 23.0696 6.86079 23.2992 6.09041 23.5289C5.75564 23.6296 5.73144 23.7666 5.98958 24.0043C6.52198 24.5038 7.12296 24.9108 7.72796 25.3096C8.57497 25.8616 9.48652 26.2967 10.511 26.5304ZM18.5495 26.5022C20.2718 26.0107 21.752 25.1606 23.0306 23.964C23.2282 23.7786 23.2242 23.6296 22.9459 23.5409C22.1554 23.2992 21.3648 23.0655 20.5743 22.8278C20.3726 22.7674 20.2153 22.8198 20.1427 23.0212C19.7111 24.2178 19.1908 25.3781 18.5495 26.5022Z" fill="#E04E39"/>
</svg>
