<svg width="18" height="18" viewBox="0 0 18 18" fill="none" xmlns="http://www.w3.org/2000/svg">
<path d="M8.31093 18C5.65036 18 2.98596 18 0.325393 18C0.00765634 18 0.00382816 18 0.00382816 17.6822C0.00382816 12.3407 0.00382816 7.00316 0 1.66174C0 1.44732 0.0535942 1.3784 0.275627 1.3784C3.09698 1.38606 5.9145 1.38606 8.73586 1.3784C8.95023 1.3784 9.03445 1.432 9.01914 1.65408C9 1.94892 9.00383 2.24375 9.01914 2.53858C9.0268 2.73386 8.96172 2.79895 8.76265 2.79895C7.53764 2.79512 6.31646 2.79895 5.09145 2.79895C3.94683 2.79895 2.80221 2.80278 1.66142 2.79512C1.47767 2.79512 1.41259 2.84107 1.41259 3.03634C1.41642 7.34011 1.41642 11.6439 1.42025 15.9476C1.42025 16.1506 1.32837 16.4109 1.47001 16.5488C1.604 16.6751 1.85666 16.5871 2.05572 16.5871C6.34326 16.5909 10.6308 16.5909 14.9183 16.5909C15.2016 16.5909 15.2016 16.5909 15.2016 16.3037C15.2016 13.9566 15.2054 11.6132 15.1978 9.26608C15.1978 9.05166 15.2552 8.97125 15.4772 8.98274C15.772 9.00188 16.0668 8.99805 16.3615 8.98274C16.5606 8.97508 16.6219 9.044 16.618 9.23928C16.6104 10.4684 16.6142 11.7013 16.6142 12.9304C16.6142 14.5194 16.6142 16.1123 16.6142 17.7013C16.6142 17.9961 16.6142 17.9961 16.3156 17.9961C13.6474 18 10.9792 18 8.31093 18Z" fill="#E04E39"/>
<path d="M16.4955 2.4467C16.4419 2.52328 16.3998 2.61134 16.3347 2.67644C14.5929 4.42245 12.8473 6.16846 11.1017 7.91447C10.872 8.14421 10.872 8.14421 10.6499 7.92213C10.4394 7.71536 10.2403 7.49711 10.0221 7.29801C9.88047 7.17165 9.8843 7.09124 10.0221 6.9534C10.9906 5.99616 11.9477 5.03508 12.9085 4.07018C13.7163 3.26227 14.5279 2.45053 15.3356 1.64261C15.3968 1.58135 15.4543 1.52009 15.5155 1.45499C15.439 1.37841 15.3586 1.41288 15.2858 1.41288C14.1986 1.40905 13.1114 1.40522 12.0281 1.4167C11.8137 1.4167 11.7333 1.3631 11.7448 1.14102C11.7639 0.846187 11.7601 0.551357 11.7448 0.256526C11.7371 0.0612482 11.8022 -1.54258e-05 12.0013 -1.54258e-05C13.2875 0.00764252 14.5776 0.00381355 15.8639 0.00381355C16.4955 0.00381355 17.131 0.00764252 17.7626 -1.54258e-05C17.9387 -0.0038444 18 0.0574192 18 0.233552C17.9962 2.17101 17.9962 4.10464 18 6.0421C18 6.19909 17.9464 6.26035 17.7894 6.25653C17.4717 6.24887 17.1578 6.24504 16.8401 6.25653C16.641 6.26418 16.5836 6.19526 16.5836 5.99616C16.5912 4.90107 16.5874 3.80981 16.5874 2.71473C16.5874 2.6458 16.5874 2.57305 16.5874 2.50413C16.5529 2.48499 16.5262 2.46584 16.4955 2.4467Z" fill="#E04E39"/>
</svg>
