<svg width="22" height="25" viewBox="0 0 22 25" fill="none" xmlns="http://www.w3.org/2000/svg">
<path d="M10.5116 24.9983C9.92258 24.9983 9.3336 25.0022 8.74461 24.9983C8.30961 24.9983 8.15177 24.8304 8.14792 24.3815C8.14792 24.3347 8.14792 24.2839 8.14792 24.2371C8.14792 23.7296 8.14792 23.7296 7.64748 23.6633C7.35106 23.6242 7.19323 23.4134 7.18938 23.0387C7.18553 22.1643 7.17398 21.286 7.19323 20.4116C7.22402 18.9751 6.65813 17.8626 5.5533 16.9687C3.74785 15.5088 2.75081 13.5922 2.56218 11.25C2.24266 7.26454 4.95662 3.41956 9.18346 2.67789C13.5527 1.9128 17.7719 5.0083 18.3801 9.45832C18.7997 12.5304 17.768 15.0677 15.4005 17.0155C14.3265 17.8977 13.776 18.9829 13.8145 20.3882C13.8376 21.2431 13.8184 22.1018 13.8184 22.9567C13.8184 23.4954 13.6682 23.6594 13.1524 23.6555C12.933 23.6555 12.8367 23.7218 12.856 23.9521C12.8714 24.1239 12.8637 24.2995 12.856 24.4713C12.8406 24.807 12.6673 24.9866 12.3363 24.9905C11.728 25.0022 11.1198 24.9983 10.5116 24.9983ZM9.61077 15.8952C9.61077 16.6447 9.61462 17.3981 9.60692 18.1476C9.60307 18.3584 9.67236 18.4364 9.88409 18.4325C10.5193 18.4208 11.1583 18.4247 11.7935 18.4325C12.1284 18.4364 12.3286 18.6082 12.344 18.8892C12.3594 19.1937 12.1823 19.3889 11.832 19.4162C11.5664 19.4357 11.3007 19.4279 11.0351 19.4279C10.1613 19.4279 9.2874 19.4318 8.41354 19.424C8.19027 19.424 8.10943 19.4865 8.14792 19.7285C8.19027 19.9822 8.19027 20.2477 8.17102 20.5053C8.15177 20.7864 8.25571 20.8722 8.52903 20.8644C9.22966 20.8488 9.93413 20.8605 10.6386 20.8605C10.9004 20.8605 11.1352 20.9269 11.2353 21.2079C11.3585 21.5515 11.1083 21.8598 10.704 21.8637C10.0304 21.8715 9.35669 21.8637 8.68302 21.8676C8.14792 21.8676 8.15177 21.8676 8.17872 22.4141C8.18642 22.582 8.24031 22.664 8.41354 22.664C9.81094 22.6601 11.2045 22.6601 12.6019 22.664C12.752 22.664 12.8329 22.6015 12.829 22.4415C12.8252 22.3361 12.829 22.2307 12.829 22.1253C12.8367 21.3172 12.7905 20.5053 12.8598 19.7012C12.9869 18.2295 13.7337 17.1131 14.8577 16.1841C17.0328 14.3846 17.8835 12.0268 17.3407 9.23972C16.6209 5.54308 13.1909 3.15022 9.49528 3.66548C6.26163 4.11829 3.70165 6.89761 3.52457 10.2078C3.39369 12.6475 4.27909 14.6695 6.16154 16.2114C6.77747 16.715 7.30486 17.2927 7.63593 18.0188C7.79376 18.3623 7.99009 18.456 8.3327 18.4364C8.57138 18.4247 8.66377 18.374 8.66377 18.1085C8.65222 16.6369 8.65222 15.1614 8.66377 13.6897C8.66377 13.4321 8.57908 13.3658 8.33655 13.3618C7.28947 13.354 6.69278 12.7217 6.72743 11.6755C6.75052 10.8831 7.4011 10.2703 8.20952 10.2781C8.97174 10.2859 9.60307 10.9182 9.61462 11.6911C9.61846 11.8356 9.62231 11.98 9.61462 12.1244C9.60692 12.3001 9.68006 12.3664 9.84944 12.3625C10.1536 12.3547 10.4577 12.3625 10.7618 12.3625C11.3893 12.3625 11.3893 12.3625 11.397 11.7224C11.4047 11.1173 11.755 10.5942 12.3016 10.3796C12.8675 10.1571 13.4873 10.2898 13.8954 10.7387C14.3458 11.2383 14.4035 11.8317 14.1725 12.4367C13.93 13.073 13.4103 13.3423 12.7559 13.3618C12.3478 13.3775 12.3478 13.3697 12.3478 13.7717C12.3478 14.6851 12.3478 15.6025 12.3478 16.5159C12.3478 16.836 12.2054 17.0273 11.959 17.0663C11.6356 17.117 11.4008 16.9023 11.4008 16.5432C11.397 15.5908 11.3931 14.6383 11.4047 13.6819C11.4085 13.4516 11.3508 13.3462 11.1044 13.3579C10.7079 13.3736 10.3075 13.3736 9.90718 13.3579C9.68391 13.3501 9.61077 13.436 9.61462 13.6585C9.61846 14.4119 9.61077 15.1536 9.61077 15.8952ZM10.5039 23.6672C10.142 23.6672 9.784 23.6672 9.42214 23.6672C9.2874 23.6672 9.14112 23.6515 9.14497 23.8584C9.14882 24.0458 9.28355 24.0341 9.41059 24.0341C10.142 24.0341 10.8734 24.0341 11.6049 24.0341C11.728 24.0341 11.8666 24.0458 11.8705 23.8584C11.8743 23.6515 11.7242 23.6672 11.5933 23.6672C11.2237 23.6633 10.8657 23.6672 10.5039 23.6672ZM8.65992 12.019C8.65607 11.496 8.50209 11.2774 8.16332 11.2813C7.8823 11.2852 7.67827 11.5116 7.68212 11.8121C7.68597 12.1791 7.9054 12.3469 8.325 12.3704C8.64452 12.3938 8.69841 12.2376 8.65992 12.019ZM12.344 11.9722C12.394 12.0893 12.2439 12.3118 12.4941 12.3547C12.6404 12.3782 12.7982 12.3743 12.9484 12.3469C13.2217 12.2923 13.3834 11.9605 13.3025 11.6599C13.2217 11.3554 12.9484 11.2032 12.6635 11.3086C12.3632 11.4218 12.3478 11.6911 12.344 11.9722Z" fill="#E04E39"/>
<path d="M10.0304 0.83542C10.0304 0.7027 10.0227 0.566077 10.0343 0.433357C10.0574 0.167917 10.2499 -0.00383836 10.5116 6.51717e-05C10.758 0.0039687 10.9582 0.167917 10.9736 0.417743C10.989 0.694893 10.989 0.975947 10.9736 1.2531C10.9582 1.51463 10.7465 1.6942 10.5001 1.6942C10.2576 1.6942 10.0574 1.50292 10.0381 1.23748C10.0227 1.10867 10.0304 0.972044 10.0304 0.83542Z" fill="#E04E39"/>
<path d="M4.36373 17.3864C4.36757 17.5777 4.32138 17.6948 4.23284 17.7845C4.07501 17.9524 3.92102 18.1202 3.74779 18.2725C3.53606 18.4599 3.26659 18.4442 3.08181 18.253C2.90088 18.0656 2.88933 17.7884 3.07411 17.5738C3.22425 17.402 3.38593 17.238 3.55916 17.0858C3.71315 16.9492 3.89793 16.9141 4.0904 17.0077C4.26364 17.0936 4.35603 17.242 4.36373 17.3864Z" fill="#E04E39"/>
<path d="M18.0645 17.8938C18.0491 18.0968 17.9721 18.2452 17.8104 18.3388C17.6487 18.4325 17.4755 18.4364 17.3254 18.3232C17.0944 18.1515 16.8904 17.9485 16.7248 17.7143C16.594 17.5347 16.6055 17.3278 16.7441 17.1522C16.8788 16.9765 17.0713 16.8906 17.2753 16.9921C17.6064 17.1561 17.8451 17.4293 18.0337 17.7455C18.0607 17.7924 18.0568 17.8548 18.0645 17.8938Z" fill="#E04E39"/>
<path d="M20.2433 10.1844C20.3588 10.1844 20.4742 10.1688 20.582 10.1883C20.8323 10.2351 20.9939 10.3834 21.0016 10.6567C21.0093 10.926 20.8746 11.1017 20.6205 11.1524C20.3703 11.2071 20.1085 11.2071 19.8583 11.1563C19.6081 11.1056 19.4503 10.9299 19.458 10.6684C19.4618 10.4069 19.6273 10.2429 19.8776 10.1922C19.9969 10.1688 20.1239 10.1766 20.2471 10.1688C20.2433 10.1727 20.2433 10.1805 20.2433 10.1844Z" fill="#E04E39"/>
<path d="M18.0915 3.40784C18.0876 3.57959 18.0299 3.6967 17.9336 3.79429C17.795 3.93872 17.6603 4.08705 17.514 4.21977C17.3138 4.40714 17.1021 4.40714 16.9058 4.23929C16.7018 4.06363 16.6479 3.806 16.798 3.59911C16.9558 3.38442 17.1445 3.19314 17.3562 3.0331C17.5025 2.9238 17.6718 2.9199 17.8374 3.00968C18.0068 3.10727 18.0799 3.2517 18.0915 3.40784Z" fill="#E04E39"/>
<path d="M4.26755 3.86455C4.2714 4.05583 4.18286 4.19635 4.02118 4.29004C3.8672 4.37982 3.70551 4.37982 3.56308 4.27443C3.34365 4.10657 3.14348 3.9114 2.98564 3.68499C2.87016 3.52104 2.8817 3.33758 2.99719 3.16973C3.10113 3.01359 3.25126 2.93942 3.43604 2.95894C3.72091 2.98626 4.25985 3.5796 4.26755 3.86455Z" fill="#E04E39"/>
<path d="M0.756718 10.1688C0.860657 10.1727 0.964595 10.1688 1.06853 10.1844C1.32261 10.2273 1.51124 10.442 1.50739 10.6723C1.50739 10.9065 1.32261 11.129 1.06468 11.1602C0.868356 11.1837 0.668177 11.1837 0.471849 11.1642C0.167731 11.1368 -0.00549984 10.9377 0.00219933 10.6567C0.00989849 10.3795 0.198528 10.1961 0.502645 10.1727C0.587336 10.1649 0.672027 10.1727 0.756718 10.1727C0.756718 10.1727 0.756718 10.1727 0.756718 10.1688Z" fill="#E04E39"/>
</svg>
