<svg width="18" height="27" viewBox="0 0 18 27" fill="none" xmlns="http://www.w3.org/2000/svg">
<path d="M6.06351 27C6.06006 26.6948 6.06006 26.3896 6.05317 26.0827C6.048 25.9092 6.11862 25.8225 6.30637 25.8275C6.54923 25.8342 6.79381 25.8325 7.03667 25.8275C7.20202 25.8242 7.28987 25.8842 7.28298 26.056C7.27092 26.3696 7.2692 26.6831 7.26231 26.9983C6.86271 27 6.46311 27 6.06351 27Z" fill="#E04E39"/>
<path d="M10.7502 27C10.745 26.6764 10.7399 26.3545 10.7312 26.031C10.7278 25.8842 10.8087 25.8292 10.9483 25.8292C11.2101 25.8309 11.4719 25.8309 11.7337 25.8292C11.8956 25.8275 11.961 25.9059 11.9576 26.056C11.9524 26.3712 11.9507 26.6848 11.949 27C11.5494 27 11.1498 27 10.7502 27Z" fill="#E04E39"/>
<path d="M15.3458 10.1195C15.3648 11.0385 15.2459 11.9425 15.0306 12.8347C14.991 12.9999 14.9893 13.1533 15.0599 13.3217C16.0038 15.5866 16.9391 17.8565 17.8812 20.1231C18.0001 20.4116 18.0466 20.6935 17.9415 20.9954C17.7538 21.5324 17.2061 21.7876 16.5584 21.5858C15.8505 21.3656 15.1564 21.1038 14.4571 20.8586C13.4426 20.5017 12.4263 20.1464 11.4118 19.7862C11.2895 19.7428 11.1655 19.7295 11.0381 19.7295C9.68425 19.7295 8.33215 19.7311 6.97833 19.7278C6.82159 19.7278 6.67518 19.7578 6.52706 19.8095C4.91659 20.3799 3.30441 20.947 1.69223 21.514C1.50448 21.5808 1.31674 21.6358 1.11177 21.6391C0.260896 21.6491 -0.219658 20.9787 0.0989891 20.2081C0.650163 18.8689 1.20478 17.533 1.7594 16.1937C2.14695 15.2547 2.53104 14.3158 2.92548 13.3801C3.00471 13.1917 3.01849 13.0165 2.97026 12.8197C2.68606 11.6739 2.59305 10.5081 2.67745 9.33901C2.83764 7.13917 3.62306 5.14946 4.93726 3.34989C5.74508 2.24413 6.70963 1.28181 7.79648 0.431223C8.51817 -0.134166 9.46723 -0.14584 10.182 0.409541C11.8976 1.74379 13.2875 3.33488 14.2314 5.27455C14.8084 6.46203 15.1615 7.70622 15.2976 9.01379C15.3372 9.38404 15.3372 9.75096 15.3458 10.1195ZM9.00734 18.537C9.58779 18.537 10.17 18.532 10.7504 18.5403C10.9261 18.5437 11.0312 18.4803 11.1276 18.3402C12.1439 16.8608 12.9878 15.3014 13.527 13.5969C14.1091 11.7573 14.2711 9.89106 13.8508 8.00309C13.2428 5.26288 11.6616 3.1164 9.44656 1.37187C9.13652 1.12837 8.85749 1.13838 8.53367 1.39188C7.91016 1.87888 7.32798 2.40591 6.80437 2.99465C4.33269 5.77489 3.41465 8.95375 4.20524 12.5596C4.67201 14.6894 5.67446 16.594 6.91632 18.3902C6.999 18.5103 7.10062 18.5403 7.23669 18.5403C7.82748 18.5353 8.41655 18.5387 9.00734 18.537ZM3.61789 14.9178C2.86003 16.7541 2.13144 18.517 1.40803 20.2682C1.46487 20.3249 1.50104 20.3065 1.53376 20.2949C2.87208 19.8245 4.20868 19.3526 5.54872 18.8872C5.73647 18.8222 5.66412 18.7371 5.59867 18.6321C5.31792 18.1818 5.03372 17.7314 4.7633 17.2745C4.32753 16.544 3.97788 15.7718 3.61789 14.9178ZM16.6359 20.3466C15.8781 18.5136 15.1495 16.7474 14.4106 14.9595C14.3658 15.0112 14.3503 15.0212 14.3434 15.0379C13.8198 16.3055 13.1653 17.508 12.3953 18.6504C12.2799 18.8205 12.3781 18.8539 12.5142 18.9006C13.4271 19.2191 14.3365 19.5427 15.2494 19.8629C15.6869 20.018 16.1261 20.1698 16.6359 20.3466Z" fill="#E04E39"/>
<path d="M7.28106 23.0957C7.28106 23.571 7.27417 24.0446 7.2845 24.52C7.28967 24.7284 7.20699 24.8052 6.99858 24.7968C6.77294 24.7868 6.54386 24.7901 6.31822 24.7968C6.13737 24.8018 6.05297 24.7334 6.05297 24.55C6.05642 23.556 6.05642 22.5636 6.0547 21.5696C6.0547 21.4012 6.1322 21.3328 6.30272 21.3378C6.54731 21.3445 6.79361 21.3461 7.0382 21.3378C7.23455 21.3311 7.28622 21.4212 7.2845 21.5946C7.27761 22.0933 7.28106 22.5953 7.28106 23.0957Z" fill="#E04E39"/>
<path d="M10.731 23.054C10.731 22.5786 10.7379 22.105 10.7275 21.6296C10.7224 21.4195 10.7861 21.3194 11.0186 21.3344C11.2546 21.3495 11.4906 21.3411 11.7265 21.3378C11.8867 21.3344 11.9591 21.4045 11.9591 21.5579C11.9573 22.5603 11.9573 23.5626 11.9591 24.565C11.9591 24.7368 11.8729 24.7985 11.7059 24.7952C11.4699 24.7902 11.2339 24.7885 10.998 24.7968C10.7999 24.8035 10.7241 24.7268 10.7275 24.5316C10.7379 24.0396 10.7327 23.5476 10.731 23.054Z" fill="#E04E39"/>
<path d="M8.39011 24.4549C8.39011 24.0596 8.39528 23.666 8.38839 23.2708C8.38495 23.089 8.46073 23.0189 8.64503 23.0239C8.89823 23.0323 9.15142 23.0273 9.40462 23.0256C9.55103 23.0239 9.61992 23.0856 9.61992 23.2291C9.6182 24.053 9.6182 24.8769 9.61992 25.7008C9.61992 25.8442 9.55275 25.9076 9.40634 25.9059C9.16176 25.9042 8.91718 25.8976 8.67259 25.9092C8.46246 25.9192 8.37978 25.8442 8.38495 25.6357C8.39873 25.2438 8.39011 24.8502 8.39011 24.4549Z" fill="#E04E39"/>
<path d="M9.62363 21.3528C9.61502 22.0466 9.71147 21.9515 9.00356 21.9499C8.30253 21.9499 8.39382 22.0399 8.39382 21.3695C8.39382 20.699 8.29564 20.7624 9.01217 20.764C9.70803 20.7657 9.61502 20.699 9.62363 21.3528Z" fill="#E04E39"/>
<path d="M9.62377 14.6532C9.62377 15.4871 9.61516 16.3227 9.62894 17.1566C9.63238 17.4034 9.54109 17.4851 9.29651 17.4684C9.07948 17.4534 8.86074 17.4584 8.64371 17.4668C8.45425 17.4735 8.3888 17.3934 8.39052 17.2149C8.39396 15.4838 8.39396 13.7542 8.39052 12.023C8.39052 11.8379 8.46803 11.7745 8.6506 11.7812C8.87624 11.7895 9.10532 11.7945 9.33096 11.7795C9.55659 11.7662 9.63066 11.8529 9.62894 12.0681C9.6186 12.9303 9.62377 13.7926 9.62377 14.6532Z" fill="#E04E39"/>
<path d="M7.28281 14.6465C7.28281 14.935 7.27592 15.2252 7.28625 15.5138C7.29314 15.7006 7.22769 15.789 7.02272 15.7806C6.78847 15.7706 6.5525 15.7723 6.31653 15.779C6.13395 15.784 6.05128 15.7172 6.053 15.5355C6.05817 14.9317 6.05644 14.3263 6.053 13.7209C6.05128 13.5441 6.11845 13.464 6.30792 13.4707C6.54217 13.479 6.77814 13.4807 7.01411 13.4707C7.20874 13.4624 7.29314 13.5274 7.28625 13.7259C7.27247 14.0328 7.28108 14.3396 7.28281 14.6465C7.28108 14.6465 7.28108 14.6465 7.28281 14.6465Z" fill="#E04E39"/>
<path d="M10.7327 14.5998C10.7327 14.3013 10.7379 14.0011 10.731 13.7025C10.7258 13.5324 10.7982 13.4657 10.9721 13.4724C11.2167 13.4807 11.463 13.479 11.7076 13.4724C11.8764 13.4674 11.9608 13.5257 11.9608 13.6992C11.9574 14.3146 11.9574 14.93 11.9608 15.5455C11.9608 15.7122 11.8867 15.784 11.7128 15.7789C11.4682 15.7723 11.2219 15.7706 10.9773 15.7789C10.7827 15.7856 10.7258 15.6972 10.7293 15.5238C10.7362 15.2152 10.731 14.9067 10.7327 14.5998Z" fill="#E04E39"/>
</svg>
