<svg width="31" height="32" viewBox="0 0 31 32" fill="none" xmlns="http://www.w3.org/2000/svg">
<path d="M16.0754 1.00648C15.9955 0.999811 16.0421 0.99314 16.0821 1.00648C16.9212 1.3267 17.7003 1.75365 18.4794 2.19394C18.6725 2.30735 18.6859 2.5275 18.5727 2.7343C18.1598 3.48814 17.5072 3.71496 16.7613 3.29467C16.2219 2.9878 15.7491 3.02783 15.2097 3.30135C11.8202 5.01582 8.42393 6.71696 5.0277 8.41809C4.92781 8.46479 4.77465 8.4848 4.76133 8.61155C4.74801 8.75165 4.9145 8.76499 5.00773 8.81169C8.55711 10.5929 12.1132 12.3674 15.6626 14.1486C15.8623 14.2486 16.0288 14.2553 16.2286 14.1552C19.7913 12.3674 23.354 10.5862 26.9167 8.79834C27.0099 8.75165 27.1698 8.73163 27.1564 8.59154C27.1431 8.46479 26.99 8.45145 26.8901 8.39808C26.2641 8.06452 25.6381 7.73764 25.0122 7.40408C24.6659 7.21729 24.5926 6.94377 24.8523 6.67026C25.5582 5.92309 25.7247 5.76966 26.6703 6.24331C28.0022 6.90375 29.334 7.56419 30.6725 8.21796C30.8257 8.29801 30.9855 8.35805 30.9922 8.5782C30.9988 8.80502 30.8723 8.91175 30.6859 9.00515C25.9445 11.3667 21.1964 13.735 16.455 16.1032C16.0821 16.29 15.7358 16.27 15.3762 16.0899C12.6792 14.7356 9.9822 13.3814 7.28519 12.0272C5.40062 11.0799 3.51605 10.1392 1.63148 9.19861C1.59152 9.1786 1.55157 9.16526 1.51827 9.13857C1.31183 9.00515 0.992188 8.95845 0.992188 8.63157C0.998847 8.29134 1.31183 8.22463 1.55157 8.10455C6.13314 5.80301 10.7147 3.50815 15.303 1.21329C15.5094 1.11322 15.7092 0.999811 16.0754 1.00648Z" fill="#E04E39"/>
<path d="M27.2907 23.3816C26.2852 22.8612 25.3529 22.3809 24.4139 21.8939C24.2208 21.7938 23.9944 21.7138 23.9877 21.4536C23.9744 21.1868 24.2142 21.1134 24.3873 20.9866C25.0532 20.513 25.7325 20.5463 26.425 20.9266C27.7635 21.6671 29.1687 22.2875 30.5405 22.9546C30.7336 23.048 31.0066 23.0747 31 23.3949C30.9933 23.7018 30.7402 23.7485 30.5405 23.8485C25.9189 26.1634 21.2907 28.4716 16.6759 30.8065C16.1564 31.0734 15.7635 31.0667 15.2375 30.7932C12.3207 29.2922 9.38397 27.8379 6.45389 26.3702C4.78907 25.5363 3.11759 24.7158 1.44612 23.8886C1.23968 23.7885 1.00661 23.6951 0.999948 23.4149C0.993288 23.1014 1.25966 23.0347 1.47941 22.9279C2.98441 22.1941 4.4894 21.4536 5.9944 20.7198C6.42725 20.5063 7.61926 20.8332 7.86565 21.2468C8.05211 21.5604 7.83236 21.7271 7.58596 21.8539C6.74024 22.2942 5.88785 22.7278 5.04212 23.1614C4.9156 23.2281 4.76909 23.2548 4.6692 23.4283C5.23524 23.7151 5.80128 24.002 6.36732 24.2888C9.43058 25.8165 12.4938 27.3442 15.5504 28.8786C15.8368 29.0253 16.0765 29.0387 16.3629 28.8919C19.9389 27.0974 23.5149 25.3029 27.091 23.515C27.1376 23.4883 27.1842 23.455 27.2907 23.3816Z" fill="#E04E39"/>
<path d="M4.59601 16.01C5.87459 16.6504 7.05994 17.2508 8.24529 17.8445C10.5694 19.012 12.8935 20.1661 15.2109 21.3536C15.7236 21.6204 16.1498 21.6337 16.6693 21.3669C20.0588 19.6458 23.4551 17.9513 26.8513 16.2502C26.9778 16.1834 27.1043 16.1167 27.2975 16.01C26.505 15.5964 25.7658 15.2161 25.0266 14.8359C24.7603 14.6958 24.4806 14.569 24.2209 14.4156C23.8946 14.2221 23.8879 13.9486 24.1876 13.7285C24.8468 13.2482 25.5527 13.0947 26.2986 13.5017C27.7503 14.2822 29.242 14.9826 30.7336 15.6764C30.8935 15.7498 30.9934 15.8499 30.9934 16.0367C30.9934 16.2301 30.8735 16.3102 30.7203 16.3836C26.0189 18.7318 21.3108 21.0734 16.616 23.4283C16.1632 23.6551 15.7636 23.6684 15.3041 23.4416C12.5738 22.0607 9.8302 20.6931 7.09324 19.3189C5.18203 18.3649 3.27082 17.4043 1.35961 16.457C1.17315 16.3569 1.00001 16.2568 1.00001 16.0167C1.00001 15.7765 1.17981 15.6698 1.36627 15.5764C2.84463 14.8559 4.3363 14.1488 5.80134 13.4083C6.27415 13.1681 6.69368 13.0947 7.13319 13.4216C7.40622 13.6284 7.91899 13.6151 7.91233 14.0687C7.89901 14.4823 7.43286 14.5223 7.14651 14.6824C6.33408 15.1227 5.50833 15.5363 4.59601 16.01Z" fill="#E04E39"/>
<path d="M22.4694 6.05668C22.2429 6.03667 22.0831 5.94328 21.9166 5.86322C21.3639 5.58971 20.8112 5.30952 20.2585 5.036C19.6858 4.74915 19.6458 4.48897 20.092 4.06202C20.7846 3.40825 20.6647 3.20145 21.8167 3.81519C22.2896 4.06202 22.7757 4.28217 23.2418 4.54234C23.6547 4.76916 23.6947 4.98931 23.3684 5.32286C23.0953 5.60972 22.8822 5.9833 22.4694 6.05668Z" fill="#E04E39"/>
</svg>
