<svg width="24" height="43" viewBox="0 0 24 43" fill="none" xmlns="http://www.w3.org/2000/svg">
<path d="M0.0125604 30.941C-0.038626 29.6387 0.0573485 28.1632 0.473238 26.7327C0.959508 25.0519 1.7529 23.5379 3.06455 22.3447C3.41645 22.0239 3.57001 21.6326 3.55722 21.1643C3.53802 20.0609 3.48044 18.9575 3.50603 17.8541C3.58281 14.6914 3.96031 11.5737 5.02882 8.57779C5.8606 6.26192 6.95471 4.08718 8.63746 2.25886C9.34127 1.49546 10.1283 0.828283 11.024 0.295826C11.7214 -0.127574 12.4061 -0.076253 13.0843 0.359977C14.4279 1.21961 15.5476 2.31018 16.4562 3.61246C18.2029 6.09512 19.2522 8.8793 19.8665 11.8431C20.1736 13.325 20.3463 14.8261 20.3975 16.3401C20.4359 17.5013 20.5063 18.6688 20.5319 19.83C20.5447 20.2534 20.4999 20.6832 20.4487 21.1002C20.3911 21.5685 20.5063 21.947 20.8518 22.2741C22.6625 23.9742 23.5903 26.104 23.8846 28.5417C24.051 29.9402 23.9998 31.3387 23.9678 32.7372C23.9358 34.0973 22.6177 34.7837 21.4468 34.0716C20.871 33.7252 20.3207 33.3146 19.7705 32.9297C19.201 32.532 18.6444 32.115 18.0749 31.7172C17.5951 31.3836 17.3199 31.3901 16.8401 31.7237C16.5905 31.8969 16.3026 32.0059 16.0403 32.1535C15.6756 32.3588 15.6052 32.5576 15.7972 32.9297C16.6033 34.4886 16.4306 35.9705 15.5028 37.4203C14.6327 38.7803 13.7241 40.1211 12.8155 41.4554C12.7068 41.6158 12.5852 41.7569 12.4253 41.866C12.1181 42.0713 11.7982 42.0585 11.5103 41.8275C11.3439 41.6992 11.216 41.5324 11.1008 41.3592C10.1475 39.9671 9.19411 38.575 8.31115 37.138C7.47297 35.778 7.47937 34.3795 8.132 32.9489C8.31755 32.5448 8.29835 32.4614 7.94644 32.1727C7.51136 31.8199 7.05708 31.5376 6.46204 31.5954C5.98217 31.6403 5.58547 31.8712 5.22717 32.1663C4.44658 32.8206 3.6084 33.3916 2.75743 33.9497C2.43751 34.1614 2.09201 34.3346 1.70171 34.3603C0.767559 34.4244 0.0509501 33.7444 0.0189587 32.7372C-0.000236228 32.2048 0.0125604 31.6595 0.0125604 30.941ZM18.7596 19.3681C18.7404 17.8605 18.6892 16.385 18.5548 14.9095C18.3693 12.9016 17.9662 10.9386 17.3008 9.03326C17.1088 8.49439 16.9169 7.9491 16.6609 7.43589C16.469 7.0574 16.2258 6.96117 15.8227 7.08947C15.6564 7.14079 15.4964 7.21136 15.3365 7.27551C13.7689 7.91061 12.1565 8.09665 10.493 7.80155C9.64839 7.654 8.855 7.35891 8.04882 7.08306C7.65212 6.94192 7.53695 6.99966 7.3578 7.39098C7.03149 8.09665 6.74996 8.81515 6.50683 9.55289C5.72624 11.9329 5.38713 14.3899 5.29115 16.8854C5.23997 18.1428 5.27196 19.4066 5.26556 20.6639C5.25916 22.0111 5.35514 23.3583 5.54069 24.6926C5.70064 25.8217 5.8798 26.9444 6.27009 28.0221C6.69238 29.1833 7.43458 30.0685 8.58627 30.5689C8.98297 30.7421 9.13013 30.6459 9.09814 30.2161C9.01496 29.1319 9.00216 28.0478 9.11093 26.9636C9.21331 25.9821 9.34767 25.0134 9.67398 24.0768C9.95551 23.2813 10.3074 22.5243 10.9408 21.947C11.4015 21.5236 11.939 21.3568 12.5468 21.6326C13.0203 21.8507 13.353 22.2228 13.6345 22.6526C14.1016 23.384 14.3383 24.1987 14.5495 25.0262C14.9654 26.6621 14.9334 28.3365 14.895 30.0044C14.895 30.107 14.8694 30.2097 14.8758 30.3123C14.895 30.601 15.0166 30.678 15.2853 30.5946C15.3493 30.5753 15.4133 30.5497 15.4772 30.5176C16.3282 30.1006 16.9872 29.4719 17.4287 28.6315C17.9726 27.573 18.1837 26.4119 18.3757 25.2572C18.7084 23.307 18.7212 21.3183 18.7596 19.3681ZM13.1739 28.5546C13.2186 27.3293 13.0907 26.1104 12.8155 24.8979C12.7068 24.4296 12.566 23.9741 12.3357 23.5507C12.1629 23.2364 11.843 23.2428 11.6639 23.5507C11.5935 23.6791 11.5231 23.8138 11.4783 23.9485C10.9984 25.3855 10.8065 26.8738 10.7681 28.3814C10.7425 29.504 10.8641 30.6202 11.1008 31.7172C11.2352 32.3395 11.3887 32.9554 11.6063 33.552C11.6639 33.7188 11.7726 33.8471 11.9646 33.8471C12.1693 33.8471 12.3037 33.7316 12.3805 33.5456C12.4125 33.475 12.4316 33.398 12.4572 33.3274C12.9947 31.7942 13.2314 30.2033 13.1739 28.5546ZM11.9134 6.19135C11.971 6.19135 12.035 6.19135 12.0925 6.19135C13.1099 6.1721 14.0888 5.98606 15.0166 5.55625C15.3557 5.39587 15.4197 5.197 15.2021 4.89549C14.4855 3.8819 13.6921 2.94528 12.7004 2.1883C12.2077 1.81622 11.8174 1.80339 11.3183 2.16905C10.2754 2.93245 9.46284 3.91397 8.73343 4.97247C8.56708 5.20983 8.63746 5.43436 8.89979 5.54983C9.86593 5.97323 10.8705 6.19135 11.9134 6.19135ZM20.3015 24.1923C20.2376 24.5964 20.18 24.9428 20.1288 25.2828C19.8857 26.7968 19.5913 28.2915 18.8555 29.6644C18.7084 29.9338 18.7468 30.075 19.0091 30.2674C19.3418 30.5176 19.6873 30.7486 20.0328 30.9859C20.6663 31.4286 21.2933 31.8776 21.9267 32.3203C22.0035 32.378 22.0803 32.4422 22.189 32.3844C22.285 32.3331 22.3042 32.2369 22.2978 32.1406C22.2978 32.038 22.2914 31.9354 22.2978 31.8263C22.3234 30.2097 22.285 28.5931 21.8307 27.0213C21.5236 25.9949 21.031 25.0647 20.3015 24.1923ZM3.70438 24.2436C3.57641 24.2692 3.53162 24.3462 3.48683 24.4104C2.82781 25.2764 2.37353 26.2451 2.0984 27.3036C1.84887 28.2595 1.75929 29.2346 1.71451 30.2161C1.68891 30.864 1.70171 31.5184 1.71451 32.1727C1.7209 32.4422 1.81048 32.4806 2.03442 32.3331C2.23917 32.1984 2.43112 32.0572 2.62946 31.9161C3.41645 31.3644 4.20344 30.8127 4.99043 30.2546C5.19518 30.1134 5.27196 29.9402 5.14399 29.6965C4.49776 28.484 4.19704 27.1689 3.96671 25.8281C3.87713 25.3021 3.79395 24.776 3.70438 24.2436ZM9.34767 34.8735C9.34767 35.2969 9.50123 35.7203 9.85314 36.3361C10.4162 37.3305 11.1136 38.2286 11.7278 39.1845C11.8942 39.4411 12.0733 39.4154 12.2717 39.1332C12.6044 38.6584 12.9435 38.1837 13.2762 37.7026C13.6921 37.0996 14.0888 36.4901 14.4023 35.8293C14.7222 35.1365 14.735 34.4565 14.3575 33.7765C14.3255 33.7188 14.3063 33.629 14.2232 33.629C14.14 33.629 14.1336 33.7252 14.1016 33.7829C13.9097 34.1742 13.7177 34.5592 13.4682 34.9184C12.8923 35.7331 11.8942 35.9641 11.088 35.4573C10.7169 35.2263 10.4738 34.8735 10.269 34.495C10.1347 34.2448 10.0003 33.9882 9.87233 33.7316C9.80835 33.6033 9.75716 33.5905 9.68678 33.7252C9.50763 34.0973 9.32848 34.4565 9.34767 34.8735Z" fill="#E04E39"/>
<path d="M12.0798 8.96839C15.087 8.98122 17.7615 11.7333 17.7231 14.819C17.6848 17.7187 15.0998 20.4708 11.9903 20.4451C8.74634 20.4194 6.30219 17.7379 6.28939 14.5496C6.2702 11.4767 9.18142 8.92348 12.0798 8.96839ZM15.9444 14.1711C15.9316 13.3435 15.4326 12.1567 14.2489 11.342C13.3531 10.7261 12.3422 10.5786 11.2929 10.7518C10.4227 10.8929 9.66769 11.2778 9.06625 11.9386C8.31765 12.7597 8.02973 13.7477 8.04892 14.8383C8.10011 17.5134 10.3523 19.0979 12.7901 18.6489C14.7543 18.2832 15.9508 16.7628 15.9444 14.1711Z" fill="#E04E39"/>
<path d="M11.9966 17.6609C10.4866 17.6545 9.0726 16.2368 9.079 14.7228C9.0854 13.1832 10.5058 11.7397 12.0286 11.7462C13.5002 11.7462 14.9078 13.1896 14.9142 14.6971C14.9142 16.2496 13.5194 17.6673 11.9966 17.6609ZM11.9902 15.9224C12.726 15.9224 13.1803 15.4669 13.1867 14.7164C13.1867 13.953 12.7644 13.5424 11.9774 13.5424C11.216 13.5424 10.8129 13.9401 10.8129 14.6971C10.8065 15.4541 11.2544 15.9224 11.9902 15.9224Z" fill="#E04E39"/>
</svg>
