<svg width="23" height="23" viewBox="0 0 23 23" fill="none" xmlns="http://www.w3.org/2000/svg">
<path d="M7.95359 11.5036C8.01005 10.4449 7.87596 9.38634 8.05945 8.33479C8.36292 6.59162 10.0637 5.75179 11.5458 6.71159C13.0067 7.65728 14.404 8.70883 15.7661 9.80273C16.8529 10.6778 16.8882 12.1811 15.8508 13.1197C14.4887 14.3406 12.9855 15.4063 11.4399 16.3731C10.1131 17.1989 8.44761 16.3873 8.09474 14.8488C7.84067 13.7407 8.01711 12.6186 7.95359 11.5036ZM9.67559 11.4753C9.67559 12.3857 9.65442 13.3032 9.68265 14.2136C9.70382 14.9899 10.1837 15.3004 10.8048 14.877C12.1174 13.9736 13.3878 13.0068 14.651 12.0329C15.0533 11.7223 15.0745 11.2848 14.6299 10.946C13.3948 10.0215 12.1739 9.08993 10.9036 8.21482C10.219 7.74197 9.70382 8.0525 9.67559 8.90644C9.65442 9.76038 9.67559 10.6143 9.67559 11.4753Z" fill="#E04E39"/>
<path d="M11.4999 21.7895C17.1826 21.7895 21.7894 17.1827 21.7894 11.5C21.7894 5.81729 17.1826 1.21054 11.4999 1.21054C5.8172 1.21054 1.21045 5.81729 1.21045 11.5C1.21045 17.1827 5.8172 21.7895 11.4999 21.7895Z" stroke="#E04E39" stroke-width="1.5" stroke-miterlimit="10"/>
</svg>
