<svg width="24" height="22" viewBox="0 0 24 22" fill="none" xmlns="http://www.w3.org/2000/svg">
<path d="M1.30843 14.9706C0.683212 14.8693 0.254191 14.5334 0.0684557 13.9309C-0.161751 13.1925 0.238495 12.4275 1.00498 12.1636C1.24826 12.0809 1.29535 11.961 1.29012 11.7344C1.27704 11.2386 1.27442 10.7401 1.29274 10.2443C1.30058 10.0017 1.2221 9.89773 0.991898 9.82576C0.390222 9.63649 -0.0152557 9.04738 0.000440172 8.44493C0.0187521 7.82649 0.447773 7.25869 1.03637 7.09075C1.24565 7.03211 1.46016 7.01611 1.67729 7.01611C4.77199 7.01611 7.86409 7.01611 10.9588 7.01611C12.3086 7.01611 13.4623 7.46395 14.302 8.58088C15.5001 10.1723 15.3667 12.3502 14.0038 13.795C13.941 13.8616 13.8782 13.9309 13.7919 14.0242C14.2785 14.1335 14.6787 14.3361 14.922 14.7733C15.3667 15.573 15.024 16.53 14.166 16.8259C13.9227 16.9085 13.8495 17.0231 13.8599 17.2737C13.8782 17.7695 13.8782 18.268 13.8625 18.7638C13.8547 18.9931 13.9279 19.0971 14.1477 19.169C14.7677 19.369 15.1313 19.9288 15.113 20.5898C15.0947 21.1763 14.6709 21.7228 14.1032 21.9014C13.975 21.9414 13.8468 21.9467 13.7134 21.9467C10.4042 21.9467 7.09499 21.952 3.78577 21.944C1.91534 21.936 0.282966 20.4299 0.0475279 18.5453C-0.114663 17.2391 0.282967 16.1408 1.15671 15.1971C1.21164 15.1358 1.29535 15.0958 1.30843 14.9706ZM6.50116 7.99709C4.83216 7.99709 3.16316 7.99442 1.49417 7.99709C1.16194 7.99709 0.939578 8.19435 0.936962 8.47158C0.934346 8.74615 1.16194 8.94874 1.49155 8.95141C2.02521 8.95674 2.56149 8.95408 3.09515 8.95408C5.76607 8.95408 8.4396 8.95408 11.1105 8.95408C12.5179 8.95408 13.5068 10.1776 13.1248 11.5851C12.8789 12.4941 12.0784 13.0433 11.0687 13.0459C9.51216 13.0486 7.95565 13.0459 6.39914 13.0459C4.75891 13.0459 3.11869 13.0459 1.47585 13.0486C1.14624 13.0486 0.923882 13.2618 0.936962 13.5391C0.947426 13.811 1.15932 13.9922 1.47585 14.0002C1.53079 14.0029 1.58834 14.0002 1.64589 14.0002C4.76676 13.9976 7.89025 13.9922 11.0111 13.9922C11.2649 13.9922 11.516 13.9736 11.7671 13.9336C13.0804 13.7257 14.1241 12.4968 14.1765 11.1479C14.2445 9.34327 12.7638 7.95177 11.1681 7.98909C9.61418 8.02641 8.05767 7.99709 6.50116 7.99709ZM8.6515 20.987V20.9897C9.43106 20.9897 10.208 20.9897 10.9876 20.9897C11.8692 20.9897 12.7507 20.987 13.6323 20.9897C13.8887 20.9897 14.0718 20.8884 14.1555 20.6432C14.2654 20.3259 14.0326 20.038 13.6559 20.0354C12.6147 20.0274 11.5736 20.0301 10.5324 20.0301C8.37682 20.0301 6.21863 20.0327 4.06306 20.0274C2.87802 20.0274 1.96243 19.209 1.91011 18.1294C1.85256 16.9245 2.73153 15.9595 3.91657 15.9489C5.21148 15.9382 6.50378 15.9462 7.79869 15.9462C9.72144 15.9462 11.6442 15.9462 13.5643 15.9462C13.9646 15.9462 14.1817 15.7623 14.1712 15.4397C14.1608 15.1358 13.9724 15.0025 13.5748 15.0025C10.3676 15.0052 7.16039 15.0185 3.95319 14.9999C2.15863 14.9892 0.722452 16.634 0.97097 18.4146C1.16455 19.8088 2.39406 20.979 3.78054 20.987C5.40506 20.9977 7.02959 20.987 8.6515 20.987ZM6.84909 12.0649C7.45861 12.0649 8.06813 12.0649 8.67766 12.0649C9.50169 12.0649 10.3283 12.0623 11.1524 12.0649C11.5788 12.0676 11.9241 11.9183 12.1386 11.5265C12.5545 10.7668 12.0366 9.91639 11.1184 9.91106C8.24079 9.89507 5.36321 9.90573 2.48562 9.9004C2.29204 9.9004 2.21618 9.96704 2.22141 10.167C2.22926 10.6735 2.22403 11.1799 2.22403 11.6864C2.22403 12.0596 2.22664 12.0649 2.60596 12.0649C4.01859 12.0649 5.43384 12.0649 6.84909 12.0649ZM8.19893 19.0491C9.6508 19.0491 11.1053 19.0437 12.5572 19.0544C12.7952 19.0571 12.8946 18.9931 12.8842 18.7345C12.8685 18.2094 12.8737 17.6842 12.8815 17.1591C12.8842 16.9565 12.8109 16.8952 12.6173 16.8952C9.7319 16.9005 6.84385 16.8979 3.95842 16.9005C3.68898 16.9005 3.44046 16.9805 3.22856 17.1591C2.88587 17.4497 2.75769 17.9028 2.89895 18.3187C3.05591 18.7772 3.39337 19.0464 3.86686 19.0491C5.3135 19.0517 6.75753 19.0491 8.19893 19.0491Z" fill="#E04E39"/>
<path d="M23.9974 11.0307C23.9974 14.1735 23.9974 17.3164 24 20.4592C24 20.955 23.8483 21.3789 23.4663 21.6988C23.2361 21.8934 22.9719 22 22.6658 22C20.9498 21.9973 19.2337 22.0027 17.5176 21.9973C16.7956 21.9947 16.2018 21.3629 16.2018 20.5978C16.1991 18.1614 16.1991 15.7249 16.2018 13.2885C16.2018 12.9233 16.3875 12.6914 16.6674 12.6914C16.9368 12.6914 17.1357 12.942 17.1357 13.2912C17.1357 15.5837 17.1357 17.8762 17.1357 20.1687C17.1357 20.2833 17.133 20.3979 17.1357 20.5125C17.1409 20.9044 17.3188 21.0937 17.7059 21.0937C19.2991 21.0963 20.8922 21.099 22.488 21.0937C22.8882 21.0937 23.0635 20.8804 23.0635 20.4219C23.0635 16.8019 23.0635 13.1792 23.0635 9.55919C23.0635 8.83412 23.0556 8.10639 23.0687 7.38132C23.0713 7.1574 22.9981 7.08276 22.7783 7.08542C20.989 7.09342 19.1971 7.09342 17.4051 7.08542C17.1932 7.08542 17.133 7.16273 17.133 7.37065C17.1409 8.49824 17.1357 9.62583 17.1357 10.7534C17.1357 10.8574 17.1409 10.964 17.1278 11.068C17.0912 11.3265 16.8819 11.5105 16.6465 11.4972C16.4189 11.4865 16.2358 11.3026 16.207 11.052C16.1965 10.9667 16.2018 10.8814 16.2018 10.7934C16.2018 7.69853 16.2018 4.60366 16.2018 1.50878C16.2018 0.613111 16.8034 0.0026657 17.6902 0C19.2912 0.0026657 20.8948 0.0026657 22.4984 0.00533139C23.3852 0.00799709 23.9974 0.637102 24 1.54344C24 4.70496 24 7.86647 23.9974 11.0307ZM20.1022 3.22549C20.9916 3.22549 21.8811 3.22016 22.7705 3.22816C22.9824 3.23083 23.0739 3.16685 23.0687 2.93493C23.0556 2.46844 23.0687 1.99927 23.0609 1.53278C23.0556 1.16224 22.862 0.959651 22.5063 0.956985C20.8974 0.951654 19.286 0.951654 17.6772 0.956985C17.324 0.956985 17.1409 1.15158 17.1383 1.50878C17.133 1.95662 17.154 2.40712 17.1304 2.8523C17.1173 3.13753 17.2011 3.23616 17.4914 3.23083C18.3626 3.21483 19.2337 3.22816 20.1022 3.22549ZM20.131 4.22246C19.2311 4.22246 18.3312 4.23046 17.4339 4.21713C17.1958 4.21447 17.1252 4.29977 17.133 4.53169C17.1461 4.97952 17.1409 5.43003 17.1357 5.87786C17.133 6.0538 17.1854 6.1391 17.3737 6.1391C19.1918 6.13377 21.0073 6.13377 22.8254 6.1391C23.0112 6.1391 23.0713 6.0618 23.0687 5.88319C23.0609 5.42469 23.0556 4.96619 23.0713 4.50769C23.0792 4.27311 22.9876 4.21713 22.7757 4.21713C21.8915 4.2278 21.0125 4.22246 20.131 4.22246Z" fill="#E04E39"/>
<path d="M22.0323 15.9356C22.0323 16.45 22.0376 16.9672 22.0323 17.4817C22.0193 18.6013 21.1586 19.4276 20.0233 19.4196C19.0161 19.4116 18.1738 18.5293 18.1712 17.4737C18.1685 16.442 18.1685 15.4104 18.1712 14.3815C18.1738 13.2939 19.0344 12.4035 20.0887 12.3929C21.1351 12.3822 22.0271 13.2965 22.035 14.3921C22.035 14.9039 22.0323 15.4211 22.0323 15.9356ZM19.1024 15.9116C19.1024 16.4261 19.0972 16.9432 19.1024 17.4577C19.1103 18.0495 19.5236 18.4653 20.0991 18.4653C20.659 18.4653 21.0906 18.0361 21.0932 17.4497C21.1011 16.4287 21.1011 15.4078 21.0932 14.3868C21.088 13.8137 20.6406 13.3552 20.1044 13.3472C19.5445 13.3392 19.1103 13.7923 19.1051 14.3975C19.0998 14.9013 19.1024 15.4078 19.1024 15.9116Z" fill="#E04E39"/>
</svg>
