<svg width="23" height="20" viewBox="0 0 23 20" fill="none" xmlns="http://www.w3.org/2000/svg">
<path d="M8.89093 1C11.2393 1 13.5838 1 15.9321 1C16.4613 1 16.751 1.28951 16.751 1.82222C16.751 2.29702 16.7548 2.77182 16.751 3.24662C16.7471 3.7137 16.4342 4.02638 15.9746 4.02252C15.5266 4.02252 15.2253 3.7137 15.2214 3.25048C15.2214 3.09608 15.206 2.93781 15.2253 2.7834C15.2485 2.57109 15.1596 2.52091 14.9588 2.52091C12.3864 2.52863 9.81405 2.52477 7.24168 2.52477C5.77009 2.52477 4.29465 2.52863 2.82306 2.51705C2.59904 2.51705 2.52952 2.57881 2.52952 2.80656C2.53724 5.09565 2.53724 7.38859 2.52952 9.67767C2.52952 9.92473 2.61063 9.97491 2.83851 9.97491C6.4576 9.96719 10.0728 9.97105 13.6919 9.96719C14.2056 9.96719 14.5146 10.2606 14.5108 10.7469C14.5069 11.1909 14.2095 11.4958 13.7614 11.4958C12.2706 11.4997 10.7835 11.4997 9.29262 11.4997C7.11808 11.4997 4.94353 11.5035 2.76899 11.4958C2.57973 11.4958 2.52566 11.5576 2.53338 11.739C2.54497 12.044 2.53338 12.3451 2.53724 12.65C2.53338 12.9665 2.53338 12.9665 2.83465 12.9665C4.09766 12.9665 5.36068 12.9665 6.62369 12.9665C9.38532 12.9665 12.1431 12.9665 14.9047 12.9665C15.2214 12.9665 15.2214 12.9665 15.2214 12.6461C15.2214 10.3416 15.233 8.03324 15.2099 5.72871C15.206 5.19601 15.403 4.89492 15.8858 4.69419C17.5389 4.00322 19.1882 3.2968 20.8297 2.57881C21.4322 2.31632 22.0077 2.71392 22 3.33927C21.9768 6.24598 21.9923 9.15269 21.9884 12.0594C21.9884 12.2061 22.0077 12.3566 21.9536 12.4995C21.8069 12.9125 21.3241 13.1441 20.9224 12.9511C19.8988 12.457 18.8792 11.9475 17.8672 11.4263C17.4655 11.2179 17.3419 10.7585 17.5428 10.3802C17.7436 10.0058 18.1916 9.8591 18.5895 10.0521C19.1302 10.3146 19.6632 10.5887 20.2001 10.855C20.4512 10.9786 20.455 10.9747 20.455 10.7083C20.455 8.69719 20.455 6.6899 20.4589 4.67875C20.4589 4.53592 20.4666 4.4317 20.2619 4.52048C19.1766 4.99528 18.0874 5.4585 16.9943 5.91786C16.8089 5.99507 16.7432 6.09543 16.7432 6.30002C16.751 8.68561 16.7471 11.0673 16.751 13.4529C16.751 13.5456 16.751 13.6382 16.751 13.7347C16.7432 14.1902 16.4458 14.499 15.9901 14.499C14.3215 14.5029 12.6529 14.499 10.9882 14.5029C10.9148 14.5029 10.8106 14.4643 10.7681 14.5338C10.7179 14.611 10.8183 14.6689 10.8569 14.7306C11.5135 15.7227 12.1624 16.7225 12.8383 17.7068C13.1164 18.1122 13.0353 18.6449 12.6645 18.8803C12.2706 19.1312 11.8186 19 11.5251 18.5561C10.8144 17.4868 10.096 16.4214 9.38532 15.3483C9.27717 15.1861 9.22696 15.163 9.11109 15.3406C8.40427 16.4137 7.68972 17.4829 6.98289 18.5561C6.81295 18.8108 6.61596 18.9884 6.28766 18.9923C5.9748 18.9961 5.73919 18.8842 5.58856 18.614C5.43793 18.3399 5.44179 18.0581 5.6156 17.7956C6.09067 17.0738 6.56962 16.3519 7.04856 15.6339C7.25713 15.3212 7.4657 15.0124 7.67427 14.7036C7.70517 14.6534 7.77469 14.6033 7.73993 14.5415C7.70517 14.4759 7.62792 14.5068 7.56612 14.5068C5.66581 14.5068 3.76163 14.5068 1.86132 14.5068C1.27809 14.5068 1.00386 14.2365 1 13.6537C1 9.70084 1 5.7596 1 1.81836C1 1.29723 1.29354 1 1.80338 1C4.16719 1 6.52713 1 8.89093 1Z" fill="#E04E39" stroke="white" stroke-width="0.3"/>
</svg>
