<svg width="29" height="29" viewBox="0 0 29 29" fill="none" xmlns="http://www.w3.org/2000/svg">
<path d="M24.6192 19.6312C22.928 19.6362 21.4684 18.3276 21.2771 16.6465C21.2066 16.0324 21.3023 16.1683 20.7385 16.0324C20.3661 15.9468 19.9886 15.8864 19.6161 15.7908C19.4047 15.7354 19.3242 15.816 19.2588 15.9972C18.8863 17.0491 18.2068 17.8695 17.331 18.5339C17.1649 18.6598 17.1599 18.7655 17.2505 18.9366C17.6582 19.6916 18.0608 20.4466 18.4484 21.2066C18.5491 21.4029 18.6699 21.3928 18.841 21.3425C20.5271 20.8895 22.5102 22.0019 22.9129 23.9699C23.2854 25.802 22.022 27.6542 20.1849 27.9562C18.2924 28.2683 16.5207 26.9848 16.2589 25.1124C16.0979 23.9548 16.4703 22.9884 17.2908 22.1881C17.477 22.0069 17.5022 21.876 17.3763 21.6495C16.9787 20.9348 16.5962 20.215 16.2237 19.4903C16.1281 19.299 16.0274 19.2587 15.821 19.3242C13.7071 19.9936 11.8297 19.5557 10.1838 18.086C10.0479 17.9652 9.96233 17.9601 9.82644 18.0709C8.72919 18.9416 7.63194 19.8124 6.52462 20.6731C6.36859 20.7939 6.41389 20.8996 6.47429 21.0355C7.17391 22.6763 6.59005 24.4379 5.03981 25.3389C3.04161 26.5066 0.389083 25.2231 0.0568882 22.928C-0.240074 20.8492 1.27494 19.0473 3.37884 19.0071C4.10866 18.992 4.79318 19.2235 5.37704 19.6765C5.5834 19.8375 5.7193 19.8325 5.92063 19.6664C6.95748 18.8309 7.99937 18.0054 9.05132 17.1901C9.23251 17.0491 9.23251 16.9434 9.12681 16.7622C8.60839 15.8462 8.35673 14.8647 8.39196 13.8077C8.43223 12.6752 8.78455 11.6535 9.44391 10.7374C9.58484 10.5462 9.58987 10.4254 9.41371 10.2542C8.1101 8.96068 6.81655 7.6621 5.52804 6.35849C5.36697 6.19743 5.25121 6.20246 5.05994 6.30816C2.97114 7.50607 0.620613 6.23769 0.107221 4.22439C-0.381005 2.33189 0.847109 0.424281 2.79498 0.0568535C4.67238 -0.300508 6.49946 1.06854 6.73602 2.99124C6.83165 3.74623 6.66052 4.43579 6.29309 5.08004C6.17733 5.28137 6.21256 5.39714 6.36356 5.54814C7.6571 6.83162 8.95065 8.12013 10.2392 9.41368C10.4002 9.57474 10.516 9.60997 10.7224 9.46401C12.0562 8.51272 13.5309 8.19563 15.1365 8.52279C15.3177 8.55802 15.4083 8.53286 15.4738 8.34663C15.6751 7.7678 15.8865 7.18898 16.113 6.61519C16.2036 6.38869 16.1583 6.25782 15.9569 6.11186C15.0459 5.45754 14.5678 4.55155 14.5275 3.4392C14.4721 1.82353 15.7355 0.323616 17.3361 0.0568535C19.3997 -0.290441 21.2872 1.29503 21.3023 3.3939C21.3123 5.05991 20.0037 6.53969 18.3528 6.73598C18.091 6.76618 17.8343 6.80645 17.5726 6.74605C17.4116 6.71082 17.3059 6.76115 17.2455 6.92725C17.019 7.55137 16.7824 8.1755 16.5458 8.79459C16.4905 8.94055 16.5408 9.01101 16.6666 9.08148C18.3528 10.0328 19.3242 11.4723 19.5809 13.3899C19.6212 13.6869 19.6111 13.9939 19.6061 14.2959C19.601 14.4872 19.6514 14.5929 19.8577 14.6332C20.3107 14.7187 20.7637 14.8244 21.2167 14.9301C21.4029 14.9754 21.4986 14.9201 21.5942 14.7439C22.4398 13.1282 24.1561 12.4538 25.8473 13.1031C27.015 13.546 27.7146 14.4318 27.9411 15.6448C28.1727 16.8931 27.765 17.9551 26.8237 18.7957C26.2097 19.3695 25.4597 19.6312 24.6192 19.6312ZM18.4534 14.0191C18.4484 11.5377 16.4804 9.58481 13.9789 9.58984C11.5428 9.59487 9.58484 11.578 9.58484 14.0392C9.58987 16.5005 11.5679 18.4584 14.0443 18.4534C16.4854 18.4534 18.4585 16.4703 18.4534 14.0191ZM24.6292 14.0594C23.3911 14.0594 22.4247 15.0308 22.4347 16.269C22.4448 17.5122 23.4011 18.4534 24.6544 18.4534C25.8523 18.4534 26.8388 17.477 26.8439 16.2891C26.8489 15.0409 25.8775 14.0594 24.6292 14.0594ZM5.5834 3.41907C5.5985 2.19095 4.62708 1.19437 3.40904 1.18934C2.20609 1.1843 1.1944 2.19095 1.18937 3.40397C1.1793 4.58175 2.15072 5.5733 3.31844 5.5884C4.64722 5.59847 5.56327 4.72268 5.5834 3.41907ZM3.39394 20.2201C2.36212 20.1446 1.2095 21.0103 1.1944 22.3844C1.1793 23.6075 2.18092 24.604 3.3889 24.6191C4.59185 24.6292 5.59347 23.6326 5.60354 22.4095C5.6136 21.1814 4.64218 20.2201 3.39394 20.2201ZM21.7905 24.6745C21.8157 23.4313 20.8744 22.4548 19.6363 22.4347C18.4182 22.4146 17.4367 23.386 17.3965 24.6493C17.3612 25.7818 18.393 26.8287 19.5658 26.8489C20.7838 26.874 21.7653 25.9177 21.7905 24.6745ZM17.9451 5.58337C19.0373 5.64377 20.1345 4.70758 20.1345 3.37377C20.1295 2.17082 19.0826 1.1541 17.8947 1.1843C16.6515 1.21954 15.7204 2.20102 15.7405 3.46437C15.7606 4.67738 16.722 5.6035 17.9451 5.58337Z" fill="#E04E39"/>
</svg>
