<svg width="25" height="25" viewBox="0 0 25 25" fill="none" xmlns="http://www.w3.org/2000/svg">
<path d="M1 21.5476C1 18.1227 1 14.6998 1 11.2748C1.1091 10.9212 1.32113 10.6375 1.59903 10.397C2.04162 10.0146 2.55419 9.75355 3.09765 9.55619C5.30439 8.75444 7.58319 8.65781 9.89081 8.89834C10.1234 8.92301 10.1667 8.849 10.1605 8.6537C10.1317 7.98146 10.179 7.31127 10.1667 6.63903C10.1522 5.75093 10.1728 4.86077 10.1749 3.97267C10.1769 3.33332 10.426 2.88721 10.8892 2.51101C11.058 2.37327 11.2391 2.25609 11.4285 2.14919C12.2478 1.69075 13.1392 1.44199 14.0511 1.25492C14.6666 1.12951 15.2903 1.0699 15.9141 1C16.7087 1 17.5012 1 18.2958 1C18.9195 1.0699 19.5433 1.12951 20.1588 1.25492C21.1675 1.46255 22.1514 1.74008 23.0284 2.30543C23.471 2.59118 23.8394 2.94272 24 3.46695C24 7.95268 24 12.4384 24 16.9262C23.8394 17.3908 23.5204 17.73 23.1251 18.0034C22.5837 18.3776 21.9847 18.6284 21.3589 18.8175C20.2946 19.1403 19.2057 19.3006 18.0961 19.3726C17.0977 19.4384 16.1076 19.3952 15.1174 19.2965C14.8725 19.2719 14.8436 19.2842 14.8436 19.5371C14.8416 20.0304 14.8354 20.5238 14.8436 21.0172C14.8539 21.5743 14.6296 22.0143 14.2158 22.372C13.9358 22.6125 13.627 22.8058 13.2936 22.9661C11.8567 23.6527 10.3169 23.8974 8.74832 23.9755C7.62024 24.0331 6.49011 23.994 5.37027 23.8069C4.30395 23.6281 3.26027 23.3752 2.29893 22.8592C1.73284 22.5549 1.24497 22.1705 1 21.5476ZM17.1245 1.958C16.4884 1.94361 15.8544 1.98472 15.2204 2.04845C14.2734 2.14302 13.3409 2.30543 12.4475 2.64669C12.042 2.80087 11.6467 2.98589 11.3482 3.32099C11.0909 3.61085 11.095 3.91716 11.3503 4.20703C11.4656 4.33655 11.6014 4.44139 11.7497 4.53185C12.1099 4.75182 12.499 4.90394 12.9004 5.02935C14.0305 5.37883 15.1957 5.50835 16.369 5.55563C17.5733 5.60497 18.7754 5.54535 19.9673 5.33771C20.7496 5.20203 21.5195 5.01701 22.2338 4.65314C22.489 4.52362 22.7299 4.37355 22.9028 4.13713C23.0963 3.87194 23.0901 3.61291 22.8863 3.35593C22.7978 3.24287 22.6908 3.15036 22.5734 3.07018C22.2317 2.83376 21.855 2.6693 21.4618 2.5439C20.0517 2.08751 18.5963 1.96211 17.1245 1.958ZM8.14311 13.3758C8.53629 13.3923 9.18679 13.345 9.83317 13.2751C10.778 13.1744 11.7126 13.012 12.604 12.6584C12.9601 12.5165 13.3059 12.3541 13.5838 12.0807C13.9358 11.7374 13.9338 11.392 13.5797 11.0487C13.2771 10.7568 12.9024 10.5841 12.5154 10.4402C11.2741 9.97763 9.97521 9.82756 8.66598 9.77205C7.54408 9.72477 6.42424 9.77205 5.31057 9.94268C4.41305 10.0825 3.52994 10.2716 2.71888 10.6972C2.48626 10.8205 2.266 10.9624 2.10543 11.1782C1.90164 11.4516 1.9037 11.7127 2.1219 11.9759C2.20218 12.0725 2.29893 12.1588 2.40186 12.2328C2.78681 12.5165 3.22528 12.6892 3.67815 12.8249C5.04914 13.2443 6.45923 13.3656 8.14311 13.3758ZM13.8391 14.0358C13.8391 13.7891 13.8411 13.5424 13.8391 13.2957C13.837 13.0449 13.8226 13.0366 13.6106 13.1538C13.3162 13.3162 13.0115 13.4622 12.6966 13.5794C11.3812 14.0728 10.0102 14.2825 8.61452 14.3359C7.63465 14.3729 6.65479 14.3503 5.68316 14.2064C4.45628 14.0234 3.25615 13.7562 2.16513 13.1333C2.00456 13.0408 1.95722 13.0757 1.95928 13.2525C1.96339 13.7233 1.97163 14.1941 1.95722 14.6648C1.94898 14.9547 2.06838 15.1685 2.27629 15.3474C2.49861 15.5406 2.75387 15.6804 3.02148 15.7976C3.52994 16.0217 4.0631 16.1738 4.60655 16.2786C5.97754 16.5418 7.35881 16.6363 8.75656 16.5644C9.77553 16.5109 10.7822 16.402 11.7702 16.145C12.359 15.9908 12.9313 15.7955 13.4294 15.4337C13.7073 15.2322 13.8741 14.9794 13.8453 14.6175C13.8267 14.4264 13.8391 14.2311 13.8391 14.0358ZM23.0428 6.18881C23.0428 5.9195 23.0407 5.65019 23.0448 5.38089C23.0469 5.24315 23.0016 5.22259 22.8884 5.29454C22.6414 5.45078 22.3779 5.57619 22.1061 5.68514C20.7599 6.23404 19.3457 6.45606 17.9047 6.52391C16.7148 6.58147 15.5271 6.5239 14.3517 6.3101C13.2874 6.11686 12.2478 5.84755 11.3071 5.28838C11.1712 5.20614 11.1589 5.28015 11.1589 5.39117C11.1589 5.86194 11.1753 6.33272 11.1547 6.80349C11.1383 7.16531 11.2927 7.41612 11.5706 7.6217C11.9802 7.9239 12.4454 8.10481 12.9271 8.25077C14.2261 8.64753 15.5662 8.75238 16.9145 8.78527C17.6844 8.80378 18.4543 8.74621 19.2201 8.65781C20.0991 8.55708 20.9637 8.39056 21.7912 8.06986C22.1267 7.94034 22.4499 7.78205 22.7237 7.54358C22.9378 7.3565 23.0675 7.13859 23.0448 6.8405C23.0304 6.62464 23.0428 6.40672 23.0428 6.18881ZM8.1287 23.0196C8.68245 23.036 9.46469 22.9764 10.2428 22.8736C11.1342 22.7564 12.0132 22.5776 12.8386 22.2055C13.133 22.0718 13.415 21.9156 13.6353 21.673C13.7423 21.5558 13.8329 21.4263 13.8329 21.2577C13.835 20.7191 13.835 20.1805 13.837 19.6439C13.837 19.4877 13.7753 19.4857 13.66 19.5556C13.4356 19.6933 13.2009 19.8064 12.958 19.9071C11.3997 20.5526 9.75494 20.7479 8.08959 20.7911C7.24559 20.8137 6.40159 20.7459 5.56377 20.6205C4.37394 20.4437 3.21292 20.1723 2.1569 19.5638C1.99839 19.4713 1.95104 19.5 1.9531 19.6789C1.95928 20.1271 1.97369 20.5773 1.94898 21.0234C1.9284 21.416 2.10337 21.6771 2.40392 21.8889C2.79504 22.1643 3.22939 22.3411 3.68227 22.4768C5.05737 22.8921 6.46747 23.0154 8.1287 23.0196ZM7.98049 19.792C8.57129 19.794 9.23619 19.7735 9.89698 19.6974C10.7533 19.5987 11.5973 19.4528 12.4125 19.1608C12.816 19.0169 13.205 18.8442 13.5303 18.5564C13.6826 18.4208 13.8267 18.2686 13.8288 18.0507C13.837 17.5059 13.8329 16.9591 13.837 16.4143C13.837 16.2807 13.7938 16.2581 13.6765 16.3239C13.4871 16.4308 13.2977 16.5377 13.1001 16.624C11.6035 17.2839 10.0164 17.4957 8.40249 17.5635C7.40616 17.6067 6.41394 17.5388 5.42997 17.3826C4.27924 17.2017 3.15529 16.9283 2.13837 16.3341C1.97369 16.2396 1.9531 16.2992 1.95516 16.4493C1.95928 16.8892 1.98192 17.3332 1.94898 17.7711C1.91811 18.1946 2.11367 18.468 2.43274 18.6901C2.84239 18.9758 3.30556 19.1506 3.78108 19.2883C5.12942 19.681 6.50864 19.8043 7.98049 19.792ZM17.1163 11.98C17.7894 11.9985 18.4625 11.9635 19.1316 11.8854C20.0991 11.7723 21.0542 11.5996 21.9579 11.2152C22.2832 11.0775 22.592 10.911 22.8369 10.6458C22.9625 10.5101 23.0448 10.3559 23.0428 10.1647C23.0407 9.65693 23.0407 9.14915 23.0448 8.63931C23.0469 8.47896 23.0119 8.42962 22.8575 8.52624C22.6105 8.68043 22.3449 8.80377 22.0732 8.91273C20.6096 9.50069 19.0719 9.7001 17.5115 9.75766C16.5605 9.79261 15.6135 9.72271 14.6728 9.57881C13.5756 9.41023 12.5031 9.14915 11.5109 8.62286C11.1527 8.43168 11.1589 8.43373 11.1568 8.85311C11.1568 9.02991 11.2083 9.12448 11.3977 9.16148C11.6673 9.21699 11.9349 9.29305 12.1984 9.37734C12.9271 9.61376 13.6332 9.89951 14.222 10.4114C14.5719 10.7177 14.8416 11.0836 14.8169 11.5668C14.8045 11.8155 14.9095 11.8607 15.103 11.8813C15.772 11.9553 16.4431 12.0005 17.1163 11.98ZM23.0428 15.8428C23.0428 15.5879 23.0345 15.335 23.0448 15.0801C23.0551 14.8684 22.9872 14.8745 22.8349 14.9711C22.6084 15.115 22.3635 15.2281 22.1123 15.3309C20.6858 15.9065 19.1913 16.1286 17.6659 16.1779C16.8054 16.2067 15.945 16.1882 15.0907 16.0813C14.8766 16.0545 14.8375 16.1286 14.8354 16.3197C14.8313 16.918 14.8683 17.5142 14.8148 18.1124C14.8025 18.2522 14.8869 18.2892 15.0063 18.3036C15.6753 18.3817 16.3464 18.4249 17.0195 18.4351C17.6021 18.4434 18.1846 18.4002 18.7651 18.3509C19.7141 18.2727 20.6487 18.1165 21.5503 17.8061C21.9621 17.6642 22.3593 17.4915 22.699 17.2099C22.9296 17.0167 23.0675 16.7864 23.0428 16.4719C23.0304 16.2622 23.0428 16.0525 23.0428 15.8428ZM17.1266 15.2076C17.5239 15.2076 17.9191 15.1952 18.3143 15.1706C19.2345 15.115 20.1444 14.9917 21.0337 14.7512C21.6121 14.5949 22.1803 14.3996 22.662 14.0255C22.8616 13.8713 23.0345 13.6883 23.0366 13.417C23.0428 12.8948 23.0366 12.3706 23.0407 11.8463C23.0428 11.686 22.9872 11.6634 22.8555 11.7436C22.2935 12.0828 21.6821 12.3068 21.0522 12.4754C19.1295 12.9914 17.176 13.088 15.2039 12.8701C14.8786 12.8352 14.8416 12.8619 14.8354 13.1888C14.8251 13.7562 14.8663 14.3256 14.8107 14.891C14.7963 15.0369 14.8786 15.0637 14.998 15.078C15.7082 15.1726 16.4164 15.2178 17.1266 15.2076Z" fill="#E04E39" stroke="#E04E39" stroke-width="0.1"/>
</svg>
