<svg width="24" height="23" viewBox="0 0 24 23" fill="none" xmlns="http://www.w3.org/2000/svg">
<path d="M10.5937 0C11.2067 0 11.8198 0 12.4328 0C12.7277 0.0397867 13.0259 0.0729422 13.3208 0.122676C16.1772 0.600115 18.5465 1.94955 20.3789 4.18091C22.377 6.61122 23.2187 9.42612 22.9536 12.5626C22.7879 14.5122 22.1848 16.3258 21.0483 17.9139C18.1952 21.8992 14.3116 23.5835 9.46377 22.821C5.03011 22.1247 1.32214 18.577 0.298228 14.2105C0.159055 13.6103 0.0762138 13.0069 0 12.3969C0 11.7967 0 11.1999 0 10.5998C0.0298228 10.3478 0.0563319 10.0959 0.0960957 9.84388C0.447342 7.52631 1.39836 5.48724 2.97897 3.75321C4.56951 2.00923 6.51462 0.858729 8.80766 0.291769C9.39418 0.1492 9.99395 0.0795733 10.5937 0ZM3.59199 12.0454C2.84311 12.0454 2.09754 12.0487 1.34865 12.0421C1.15978 12.0421 1.06699 12.1018 1.09019 12.304C1.11007 12.4599 1.1167 12.6157 1.13658 12.7715C1.36522 14.6315 2.05446 16.3059 3.17778 17.8045C3.27057 17.9305 3.36666 17.9703 3.5224 17.9106C4.49993 17.5293 5.49402 17.211 6.51462 16.969C6.66374 16.9325 6.71344 16.8729 6.67699 16.7203C6.33237 15.2748 6.17332 13.806 6.11367 12.3239C6.10373 12.1084 6.0242 12.0388 5.81544 12.0421C5.06987 12.0487 4.33093 12.0421 3.59199 12.0454ZM19.4146 12.0421C18.6757 12.0421 17.9334 12.0421 17.1945 12.0421C16.9029 12.0421 16.893 12.0554 16.8797 12.3438C16.8134 13.8093 16.6643 15.2648 16.323 16.6938C16.2832 16.8662 16.3296 16.9325 16.4986 16.9723C17.496 17.2077 18.4702 17.5194 19.4246 17.894C19.6002 17.9637 19.7096 17.9371 19.8255 17.7813C20.243 17.221 20.6042 16.6308 20.9058 16.0009C21.4525 14.8636 21.774 13.6634 21.8866 12.4101C21.9164 12.062 21.8899 12.0421 21.5652 12.0388C20.8494 12.0421 20.1304 12.0421 19.4146 12.0421ZM19.3881 10.9513C20.1271 10.9513 20.8693 10.9513 21.6083 10.9513C21.8833 10.9513 21.9032 10.9281 21.8899 10.6529C21.8833 10.5269 21.8667 10.4009 21.8502 10.2749C21.6414 8.46793 20.9952 6.83004 19.9349 5.35462C19.8355 5.21868 19.746 5.19879 19.5969 5.26842C18.626 5.72265 17.6286 6.10394 16.598 6.38907C16.4125 6.44212 16.3628 6.5217 16.4058 6.70737C16.6941 8.00375 16.8167 9.32002 16.8797 10.6429C16.893 10.9413 16.9029 10.9513 17.2111 10.9513C17.9368 10.9546 18.6624 10.9513 19.3881 10.9513ZM3.58868 10.9513C4.32099 10.9513 5.05331 10.9513 5.78562 10.9513C6.07722 10.9513 6.09048 10.938 6.10373 10.6529C6.16669 9.31671 6.2893 7.98385 6.5809 6.67421C6.62066 6.49517 6.54776 6.43881 6.39202 6.3957C5.36147 6.10725 4.36075 5.72928 3.39317 5.27505C3.2308 5.19879 3.14133 5.23194 3.04192 5.37451C2.69068 5.87185 2.3792 6.38576 2.11079 6.93282C1.54747 8.08001 1.21942 9.2935 1.09682 10.5634C1.06037 10.9413 1.08356 10.9579 1.458 10.9579C2.16712 10.9513 2.87956 10.9513 3.58868 10.9513ZM13.9272 12.0454C13.3805 12.0454 12.8337 12.0487 12.2903 12.0421C12.1114 12.0388 12.0352 12.1084 12.0352 12.2908C12.0385 13.5772 12.0385 14.8636 12.0385 16.1534C12.0385 16.3158 12.1014 16.3788 12.2638 16.3822C13.185 16.4054 14.0962 16.5081 15.0042 16.664C15.1864 16.6971 15.2461 16.6341 15.2825 16.475C15.5907 15.1057 15.7464 13.7198 15.7928 12.3173C15.7995 12.1117 15.7266 12.0355 15.5211 12.0388C14.9909 12.0487 14.4574 12.0421 13.9272 12.0454ZM10.9483 14.237C10.945 14.237 10.945 14.237 10.9483 14.237C10.945 13.5871 10.9417 12.9373 10.9483 12.2841C10.9483 12.115 10.8886 12.0388 10.713 12.0388C9.61288 12.0421 8.51606 12.0421 7.41593 12.0388C7.25357 12.0388 7.18398 12.1084 7.19392 12.2676C7.21049 12.5195 7.22043 12.7748 7.23368 13.0268C7.29333 14.164 7.45238 15.288 7.70422 16.3987C7.77049 16.6905 7.77381 16.6938 8.07866 16.6408C8.93358 16.4982 9.79513 16.3987 10.66 16.3788C10.8919 16.3722 10.9516 16.286 10.9483 16.0705C10.9417 15.4637 10.9483 14.8504 10.9483 14.237ZM10.945 9.03489C10.9416 9.03489 10.9416 9.03489 10.945 9.03489C10.945 8.47456 10.9416 7.91091 10.945 7.35058C10.945 7.17817 10.8754 7.11186 10.7064 7.10855C9.76862 7.08202 8.84411 6.95935 7.92955 6.77036C7.74398 6.73058 7.6512 6.77368 7.61144 6.96598C7.37286 8.1861 7.237 9.41949 7.19392 10.6628C7.18729 10.875 7.25356 10.9579 7.47227 10.9546C8.54257 10.948 9.60957 10.948 10.6799 10.9546C10.8886 10.9546 10.9516 10.8717 10.9483 10.6728C10.9383 10.129 10.945 9.58195 10.945 9.03489ZM12.0318 9.03157C12.0352 9.57864 12.0418 10.1224 12.0318 10.6695C12.0285 10.885 12.1114 10.9546 12.3234 10.9546C13.3772 10.948 14.4309 10.9513 15.4847 10.9513C15.7763 10.9513 15.7961 10.9347 15.7862 10.6462C15.7431 9.41286 15.6106 8.1861 15.3621 6.97593C15.3223 6.78694 15.2461 6.73058 15.0539 6.77036C14.1393 6.95935 13.2115 7.08534 12.277 7.10855C12.0882 7.11186 12.0285 7.19807 12.0318 7.37048C12.0352 7.92417 12.0318 8.47787 12.0318 9.03157ZM10.9417 3.60401C10.9383 2.87127 10.9417 2.13853 10.9383 1.40579C10.9383 1.15381 10.9118 1.14055 10.6865 1.24996C10.2126 1.48537 9.84815 1.84676 9.53004 2.25789C8.80766 3.18956 8.36695 4.25717 8.02233 5.3712C7.93286 5.66297 7.9428 5.67954 8.24434 5.73591C9.02305 5.88179 9.80838 5.99121 10.6003 6.02105C10.9417 6.03431 10.9417 6.04426 10.9417 5.69281C10.9417 4.99654 10.9417 4.30027 10.9417 3.60401ZM12.0252 3.62059C12.0285 3.62059 12.0285 3.62059 12.0318 3.62059C12.0318 4.34669 12.0318 5.0728 12.0318 5.7989C12.0318 5.92158 12.0285 6.04426 12.2141 6.03431C13.0889 5.98789 13.9571 5.89174 14.8153 5.71933C14.971 5.68949 15.0307 5.6265 14.9777 5.4574C14.6463 4.40306 14.2387 3.38518 13.5959 2.47672C13.2612 2.00259 12.8768 1.57489 12.3566 1.29307C12.0683 1.13724 12.0252 1.16044 12.0252 1.48537C12.0252 2.19821 12.0252 2.91106 12.0252 3.62059ZM12.0385 19.6347C12.0385 20.3011 12.0418 20.9642 12.0385 21.6307C12.0385 21.8031 12.0882 21.8495 12.2472 21.7666C12.4792 21.6473 12.7012 21.508 12.8967 21.329C13.9074 20.394 14.4375 19.1805 14.8783 17.9106C14.9346 17.7482 14.8319 17.725 14.7059 17.7051C13.9074 17.5791 13.1088 17.4929 12.3002 17.4597C12.1014 17.4531 12.0352 17.5028 12.0385 17.7017C12.0451 18.3483 12.0385 18.9915 12.0385 19.6347ZM10.9516 19.6281H10.9483C10.9483 18.9849 10.9483 18.3416 10.9483 17.6984C10.9483 17.5592 10.945 17.4531 10.7461 17.4597C9.92436 17.4962 9.10589 17.5724 8.29405 17.7051C8.12174 17.7316 8.08198 17.8045 8.13499 17.9637C8.46305 18.9152 8.86068 19.8336 9.47039 20.646C9.79844 21.0869 10.1762 21.4815 10.6766 21.7335C10.9019 21.8495 10.9483 21.8197 10.9483 21.561C10.9549 20.9145 10.9516 20.2713 10.9516 19.6281ZM14.1956 1.46547C14.2785 1.5782 14.3646 1.69093 14.4475 1.80366C15.1831 2.83148 15.6603 3.9853 16.0215 5.18553C16.0745 5.36457 16.1408 5.40767 16.323 5.35462C17.168 5.10264 17.9997 4.80424 18.8082 4.44616C19.0733 4.33011 19.0766 4.31022 18.8679 4.10466C17.897 3.14978 16.7935 2.39383 15.5344 1.86666C15.1069 1.68762 14.6728 1.53179 14.1956 1.46547ZM8.77453 1.43232C8.73476 1.43895 8.70494 1.43895 8.67843 1.44558C6.89238 1.94955 5.34822 2.86464 4.04596 4.18755C3.89684 4.34006 4.00951 4.37653 4.1288 4.42958C4.93733 4.78434 5.76574 5.08275 6.60741 5.34136C6.82611 5.40767 6.90232 5.36125 6.96859 5.14574C7.36292 3.8361 7.8931 2.58613 8.74802 1.50195C8.76127 1.48868 8.76459 1.46548 8.77453 1.43232ZM8.81761 21.571C8.70494 21.4185 8.61547 21.3024 8.53263 21.1864C7.87984 20.2779 7.43913 19.2667 7.0912 18.2157C7.02492 18.0167 6.93546 17.967 6.73001 18.02C5.91817 18.2256 5.11958 18.4676 4.33425 18.7528C4.09566 18.839 4.09235 18.8556 4.28123 19.0379C5.33165 20.0558 6.55107 20.8051 7.92292 21.3124C8.19795 21.4118 8.4763 21.5179 8.81761 21.571ZM14.2188 21.561C14.2454 21.5577 14.2752 21.5577 14.3017 21.5511C16.0082 21.077 17.4927 20.2183 18.7585 18.9815C18.901 18.8423 18.8082 18.8025 18.6856 18.7594C17.9069 18.471 17.115 18.2289 16.3098 18.03C15.9983 17.9537 16.0016 17.957 15.8955 18.2588C15.5012 19.4026 15.0141 20.4968 14.252 21.4516C14.2288 21.4815 14.1956 21.508 14.2188 21.561Z" fill="#E04E39"/>
</svg>
