<svg width="24" height="22" viewBox="0 0 24 22" fill="none" xmlns="http://www.w3.org/2000/svg">
<path d="M18.4442 18.7898C18.7559 19.3947 19.015 20.0012 18.6333 20.6741C18.4494 20.9969 18.1885 21.2263 17.8295 21.3554C17.3217 21.5372 16.8156 21.7275 16.3077 21.9093C15.5477 22.1811 14.6826 21.8175 14.3692 21.0903C14.2746 20.8712 14.1713 20.652 14.11 20.4226C14.0417 20.1711 13.8981 20.1015 13.6477 20.1406C13.2309 20.2068 12.8071 20.2153 12.3851 20.2459C11.4149 20.3156 10.4588 20.2493 9.51141 20.0454C9.32753 20.0063 9.21896 20.0267 9.15767 20.2289C9.07186 20.511 8.94753 20.7828 8.83545 21.058C8.529 21.8073 7.68143 22.1845 6.89865 21.911C6.36455 21.7241 5.83569 21.5304 5.30684 21.3282C4.56784 21.0462 4.18433 20.2 4.45927 19.4762C4.58535 19.1449 4.70969 18.8136 4.85328 18.4891C4.93909 18.2954 4.88655 18.1798 4.72194 18.0507C3.73428 17.2759 2.93049 16.355 2.39988 15.2269C1.99186 14.357 1.84126 13.4463 1.90605 12.4914C1.93757 12.0071 1.9691 11.5246 2.07942 11.0523C2.1232 10.8654 2.05841 10.7923 1.88854 10.7244C1.25637 10.4695 0.725761 10.0872 0.361517 9.51293C-0.293423 8.4816 -0.034249 7.05609 0.942907 6.3102C1.07074 6.21335 1.20909 6.13349 1.35794 6.07573C1.62587 5.97038 1.92532 6.07743 2.05315 6.31699C2.18274 6.55996 2.11269 6.88448 1.85352 7.00511C1.25111 7.28206 1.04798 7.7527 1.10927 8.35417C1.18282 9.07797 1.6749 9.47895 2.31408 9.75249C2.48394 9.82555 2.49095 9.67944 2.52947 9.59108C2.92174 8.69398 3.45759 7.89032 4.21936 7.24978C5.6203 6.07403 7.24714 5.33833 9.0561 4.97983C10.7512 4.64342 12.4499 4.65531 14.1485 4.96964C14.3254 5.00192 14.4357 4.97983 14.539 4.80993C15.3621 3.45407 16.6054 2.65212 18.1535 2.25624C18.3986 2.19337 18.607 2.22395 18.7769 2.41085C18.9415 2.59095 18.9397 2.79484 18.8557 3.01062C18.586 3.69364 18.3321 4.38006 18.1885 5.10216C18.143 5.32814 18.1167 5.55581 18.0957 5.78519C18.0764 5.99927 18.1552 6.11141 18.3531 6.20146C19.4511 6.70268 20.2951 7.47405 20.9046 8.48839C21.2093 8.99641 21.4229 9.54011 21.5507 10.1127C21.5858 10.2724 21.6471 10.3285 21.8187 10.3234C22.1146 10.3132 22.4106 10.2962 22.7065 10.3387C23.4455 10.4474 23.9901 11.0472 23.9954 11.7676C24.0006 12.539 24.0024 13.312 23.9954 14.0834C23.9884 14.848 23.3194 15.4919 22.5314 15.5021C22.337 15.5055 22.1409 15.5191 21.9483 15.4987C21.6541 15.4681 21.493 15.5769 21.3616 15.8402C20.866 16.8342 20.1551 17.6599 19.2287 18.3056C18.9748 18.4789 18.7016 18.6301 18.4442 18.7898ZM17.4547 3.61379C17.3234 3.67155 17.2464 3.70214 17.1728 3.73952C16.2902 4.18807 15.6826 4.88469 15.2535 5.74271C15.0661 6.1182 14.8788 6.20316 14.4567 6.11141C13.033 5.80388 11.5988 5.71892 10.1471 5.88033C8.25406 6.09102 6.56768 6.76045 5.08794 7.9243C4.45226 8.42383 3.97069 9.03889 3.62221 9.75759C3.10035 10.8331 2.97427 11.9732 3.00579 13.1438C3.0233 13.7793 3.17741 14.3756 3.46285 14.9448C3.93391 15.8895 4.65015 16.6354 5.48721 17.2827C5.9968 17.6769 6.13864 18.1 5.93025 18.6964C5.79541 19.0854 5.63431 19.4643 5.48721 19.85C5.37863 20.1372 5.41541 20.2255 5.71486 20.3376C6.22795 20.5296 6.7428 20.7182 7.25764 20.9034C7.61488 21.0326 7.67968 21.0003 7.82328 20.6452C7.95812 20.3088 8.08245 19.9673 8.2278 19.6359C8.47121 19.0837 8.90725 18.8425 9.50966 18.9716C10.4693 19.1772 11.436 19.218 12.4114 19.1721C12.8999 19.1483 13.3885 19.0888 13.8788 19.0735C14.5163 19.0532 14.8472 19.2893 15.0661 19.867C15.18 20.1677 15.3025 20.4651 15.4199 20.7641C15.4934 20.9476 15.6213 21.0207 15.8191 20.9476C16.397 20.7352 16.9749 20.5245 17.5511 20.3122C17.7559 20.2357 17.8137 20.0981 17.7314 19.8993C17.6561 19.7158 17.5913 19.5289 17.5178 19.3454C17.2253 18.6182 17.4057 18.1255 18.1114 17.7381C18.7384 17.3949 19.2742 16.948 19.7208 16.4009C20.0167 16.039 20.2426 15.6346 20.4598 15.2252C20.7347 14.707 21.1655 14.4215 21.7854 14.4368C22.0481 14.4436 22.3107 14.4368 22.5734 14.4368C22.7923 14.4368 22.9026 14.3298 22.9026 14.1191C22.9026 13.3137 22.9026 12.5101 22.9026 11.7047C22.9026 11.4906 22.7941 11.3938 22.5699 11.4023C22.3423 11.4108 22.1129 11.4057 21.8852 11.4023C21.0709 11.3938 20.6366 11.0472 20.472 10.2792C20.3319 9.62506 20.057 9.03039 19.642 8.49859C19.0781 7.77649 18.3338 7.29565 17.467 6.97963C17.0747 6.83691 16.9732 6.68399 16.9697 6.27622C16.9679 5.9466 17.0064 5.62208 17.0485 5.29586C17.115 4.73857 17.2849 4.20676 17.4547 3.61379Z" fill="#E04E39"/>
<path d="M11.9998 3.82277C11.4902 3.82447 11.4902 3.82447 11.4114 3.34363C11.1662 1.83317 9.76525 0.876596 8.1962 1.08558C6.30843 1.33704 5.35929 3.14314 5.97571 4.79633C6.037 4.96114 6.02824 5.05119 5.85137 5.12085C5.671 5.19221 5.49589 5.27547 5.32777 5.37061C5.13865 5.47765 5.04583 5.42328 4.97053 5.23469C4.48896 4.02156 4.58878 2.856 5.33128 1.7788C6.15083 0.591154 7.3101 -0.0357996 8.80561 0.0015797C10.7004 0.0491534 12.4953 1.80428 12.5356 3.62908C12.5391 3.765 12.4971 3.83126 12.3517 3.82617C12.2362 3.82107 12.1171 3.82277 11.9998 3.82277Z" fill="#E04E39"/>
<path d="M16.9557 11.3581C16.954 10.7974 17.4058 10.354 17.9784 10.3557C18.5283 10.3574 18.9836 10.8127 18.9819 11.3581C18.9784 11.9035 18.5231 12.347 17.9679 12.347C17.4093 12.3453 16.9575 11.9035 16.9557 11.3581Z" fill="#E04E39"/>
</svg>
