<svg width="32" height="30" viewBox="0 0 32 30" fill="none" xmlns="http://www.w3.org/2000/svg">
<path d="M32 15.8082C31.7859 20.7094 29.2089 25.0618 24.1926 28.0129C22.1968 29.1844 20.0022 29.8295 17.6929 29.963C10.2832 30.4004 4.55572 26.1963 2.25404 20.7465C0.625282 16.8834 0.502934 12.9239 2.33051 9.0905C4.55572 4.41922 8.22617 1.35694 13.5101 0.311459C17.1194 -0.40777 20.5604 0.140921 23.8256 1.78699C24.4603 2.10582 24.4909 2.32827 23.9938 2.80281C23.2444 3.51462 23.1144 3.49238 22.1815 3.06232C20.6445 2.35792 19.0081 1.97977 17.3105 1.89821C13.8848 1.72767 10.8184 2.67676 8.12676 4.74547C7.65266 5.10879 7.64502 5.10879 8.05794 5.49436C8.89909 6.28032 9.74788 7.05145 10.5661 7.85965C10.8337 8.11917 11.002 8.04502 11.2543 7.87448C12.8983 6.75486 14.7183 6.0727 16.737 6.13944C19.9869 6.23583 22.5486 7.60755 24.3379 10.2769C24.9038 11.1221 25.3091 12.0416 25.5232 13.0277C25.5996 13.3614 25.7449 13.5023 26.1043 13.4948C27.259 13.48 28.406 13.4652 29.5607 13.4948C29.9736 13.5023 30.0271 13.3614 29.9736 13.0129C29.7212 11.3965 29.1936 9.87646 28.3525 8.45283C28.039 7.92639 28.0619 7.82258 28.5131 7.38511C29.3083 6.61398 29.4154 6.62139 29.9659 7.57789C31.2965 9.89129 32 12.3752 32 15.8082ZM23.7797 15.0075C23.7874 11.0999 20.5681 7.97829 16.5229 7.97829C12.5084 7.97088 9.28143 11.1073 9.26613 15.0149C9.25849 18.8483 12.5466 22.044 16.5076 22.044C20.5145 22.0514 23.7721 18.9002 23.7797 15.0075ZM16.5535 28.1241C16.8594 28.1241 17.1576 28.1389 17.4635 28.1241C17.777 28.1093 18.0982 28.0796 18.4117 28.0351C22.2121 27.479 25.2555 25.7069 27.5343 22.7114C29.0483 20.7168 29.813 18.4553 30.0424 16.0084C30.1036 15.3263 30.0806 15.3115 29.4307 15.3115C28.3525 15.3115 27.2819 15.3189 26.2037 15.304C25.8214 15.2966 25.6685 15.4153 25.6302 15.7934C25.3779 18.2699 24.315 20.3461 22.2886 21.9254C19.3828 24.2017 15.1465 24.5502 11.9272 22.741C11.629 22.5779 11.476 22.6372 11.3002 22.8819C10.6426 23.7791 9.99258 24.6837 9.31201 25.566C9.05967 25.8923 9.12849 26.0406 9.4726 26.2408C11.6519 27.5013 14.0071 28.1315 16.5535 28.1241ZM2.98049 14.9704C2.97284 15.4449 3.00343 15.9046 3.05696 16.3792C3.41635 19.5453 4.80807 22.2072 7.16327 24.4167C7.41562 24.654 7.5762 24.6763 7.79795 24.3723C8.48616 23.4454 9.19731 22.526 9.91611 21.6214C10.1226 21.3619 10.069 21.221 9.85493 20.9986C7.91265 18.9595 7.0868 16.5645 7.46914 13.7914C7.66796 12.3159 8.27205 10.9961 9.15143 9.7949C9.35789 9.51314 9.35025 9.3426 9.09026 9.09791C8.27205 8.3342 7.46914 7.55565 6.68152 6.76227C6.39859 6.4731 6.22272 6.48793 5.97038 6.79935C4.0281 9.19431 2.97284 11.8933 2.98049 14.9704Z" fill="#E04E39"/>
<path d="M27.9167 5.04201C27.909 5.26445 27.7867 5.38309 27.6643 5.49431C26.8691 6.22837 26.8461 6.5991 25.9438 5.53138C25.7526 5.30894 25.5079 5.12357 25.2785 4.93079C24.8962 4.60454 24.8809 4.40434 25.2174 4.05585C26.0738 3.1735 26.1044 3.1735 26.9838 4.02619C27.2055 4.24122 27.4426 4.45624 27.6567 4.67869C27.7714 4.79732 27.8479 4.94562 27.9167 5.04201Z" fill="#E04E39"/>
</svg>
