<svg width="24" height="21" viewBox="0 0 24 21" fill="none" xmlns="http://www.w3.org/2000/svg">
<path d="M0 5.15635C0.332443 4.22319 0.827784 3.86738 1.80517 3.86738C8.62358 3.86738 15.4453 3.87409 22.2637 3.86066C23.3143 3.85731 24.029 4.68641 23.9991 5.6095C23.9625 6.7575 23.9891 7.90885 23.9891 9.06019C23.9891 9.8658 23.4805 10.5204 22.6992 10.6983C20.3123 11.2387 17.9254 11.7724 15.5351 12.3095C15.1561 12.3934 14.7771 12.4874 14.3948 12.5646C14.2419 12.5948 14.192 12.6686 14.1953 12.8197C14.2053 13.293 14.1987 13.7663 14.1987 14.2362C14.1987 14.6927 14.0092 14.9244 13.557 14.9311C12.5132 14.9445 11.466 14.9445 10.4221 14.9277C9.94338 14.921 9.77384 14.7162 9.77051 14.2295C9.76719 13.7663 9.76387 13.2997 9.77384 12.8365C9.77716 12.6754 9.73062 12.5982 9.56772 12.5612C7.48995 12.1014 5.4155 11.6348 3.33773 11.1682C2.6396 11.0104 1.93815 10.8594 1.24001 10.6882C0.595074 10.5304 0.206115 10.084 0 9.45964C0 8.02633 0 6.58966 0 5.15635ZM11.9912 5.02879C8.56042 5.02879 5.12628 5.02879 1.69546 5.02879C1.30983 5.02879 1.13363 5.20334 1.13363 5.58601C1.13031 6.72729 1.13031 7.86857 1.13363 9.0132C1.13363 9.3623 1.25331 9.51671 1.58908 9.59727C1.99799 9.69461 2.41021 9.78189 2.81912 9.87587C5.03984 10.3794 7.25724 10.8795 9.47796 11.383C9.76387 11.4468 9.76719 11.4435 9.77384 11.138C9.78714 10.6714 9.9733 10.4834 10.4387 10.4834C11.4693 10.4801 12.4965 10.4834 13.5271 10.4834C14.0225 10.4834 14.1953 10.6613 14.2053 11.1682C14.2086 11.4435 14.212 11.4468 14.4912 11.383C15.9673 11.0507 17.44 10.7184 18.916 10.3861C20.0796 10.1243 21.2431 9.86245 22.4034 9.59391C22.6893 9.53013 22.8422 9.36901 22.8422 9.12061C22.8488 7.90885 22.8455 6.69372 22.8389 5.48195C22.8389 5.23691 22.6793 5.07579 22.4333 5.04222C22.3269 5.02544 22.2139 5.03215 22.1075 5.03215C18.7332 5.02879 15.3622 5.02879 11.9912 5.02879ZM11.968 13.7562C12.2572 13.7562 12.5464 13.7495 12.8323 13.7562C12.9952 13.7596 13.0484 13.6924 13.0484 13.5313C13.0418 12.9708 13.0451 12.4135 13.0484 11.853C13.0484 11.7053 12.9985 11.6381 12.8456 11.6381C12.2672 11.6415 11.692 11.6449 11.1136 11.6415C10.9706 11.6415 10.9241 11.7019 10.9241 11.8395C10.9274 12.4068 10.9307 12.9741 10.9208 13.5414C10.9174 13.7126 10.9972 13.7596 11.1468 13.7562C11.4228 13.7529 11.6954 13.7562 11.968 13.7562Z" fill="#E04E39"/>
<path d="M11.9616 19.8084C15.1365 19.8084 18.3113 19.8084 21.4895 19.8084C21.5426 19.8084 21.5992 19.8084 21.6524 19.8084C22.1676 19.8017 22.3172 19.6506 22.3206 19.127C22.3206 16.8108 22.3239 14.4947 22.3206 12.1786C22.3206 11.9369 22.3937 11.7389 22.6131 11.6314C22.8259 11.5274 23.042 11.5442 23.2348 11.6784C23.4409 11.8194 23.4675 12.0376 23.4708 12.2659C23.4741 13.2594 23.4741 14.2497 23.4741 15.2433C23.4741 16.5658 23.4808 17.8917 23.4708 19.2142C23.4642 19.9594 23.1683 20.5401 22.4602 20.8523C22.1809 20.9731 21.8851 20.9966 21.5892 20.9966C16.6125 21 11.6325 21 6.65583 21C5.21967 21 3.78352 20.9966 2.34736 20.9966C1.93513 20.9966 1.53952 20.9262 1.19711 20.6744C0.735009 20.332 0.515596 19.8554 0.512272 19.2914C0.502299 16.9317 0.505623 14.5753 0.505623 12.2189C0.505623 11.8597 0.678494 11.6281 0.974368 11.5777C1.36333 11.5072 1.65255 11.7624 1.65255 12.1786C1.65588 13.9979 1.65255 15.8172 1.65588 17.6399C1.65588 18.1535 1.65255 18.6637 1.65588 19.1773C1.6592 19.6405 1.81877 19.805 2.2709 19.805C5.32938 19.8084 8.38786 19.8084 11.4463 19.8084C11.6192 19.8084 11.7921 19.8084 11.9616 19.8084Z" fill="#E04E39"/>
<path d="M11.9844 1.19209C11.0868 1.19209 10.1892 1.19209 9.2916 1.19209C8.91927 1.19209 8.76634 1.34986 8.75969 1.72245C8.75637 1.94399 8.77299 2.16218 8.72645 2.38037C8.65996 2.67576 8.47379 2.82009 8.15132 2.81338C7.84547 2.80667 7.64933 2.65897 7.61941 2.36023C7.54628 1.6721 7.55957 1.00747 8.10478 0.473759C8.46049 0.124662 8.896 0.0105336 9.36807 0.00717693C11.1134 0.000463527 12.862 -0.00624988 14.6074 0.0105336C15.5415 0.0206037 16.1499 0.493899 16.3294 1.30622C16.4092 1.66203 16.4125 2.02456 16.3527 2.38708C16.3095 2.6489 16.12 2.80331 15.8407 2.81338C15.5216 2.82681 15.3221 2.6959 15.2523 2.424C15.1958 2.20917 15.2091 1.98763 15.2091 1.76609C15.2091 1.3465 15.0628 1.19209 14.6506 1.18874C13.763 1.18538 12.8753 1.18874 11.9844 1.19209Z" fill="#E04E39"/>
</svg>
