<svg width="25" height="31" viewBox="0 0 25 31" fill="none" xmlns="http://www.w3.org/2000/svg">
<path d="M19.1935 0C20.725 1.5468 22.2564 3.0936 23.7839 4.64437C24.1073 4.97356 24.0684 5.29878 23.6865 5.57245C21.8589 6.86542 20.0313 8.15442 18.2038 9.44342C16.9023 10.3596 15.6008 11.2758 14.3031 12.192C14.0109 12.3982 14.0148 12.3982 14.2992 12.5965C16.8048 14.3654 19.3104 16.1304 21.816 17.8993C22.4395 18.3395 23.063 18.7758 23.6826 19.216C24.0839 19.5016 24.1112 19.8109 23.7722 20.16C22.3265 21.6314 20.8808 23.0989 19.4351 24.5664C19.0494 24.959 18.7688 24.9273 18.4649 24.4593C17.7479 23.3488 17.0386 22.2382 16.3216 21.1277C16.2671 21.0444 16.2359 20.9334 16.0956 20.8739C16.2047 21.56 16.3139 22.2184 16.4191 22.8808C16.762 25.0264 17.101 27.1721 17.44 29.3178C17.5102 29.762 17.3231 30 16.8906 30C13.6407 30.004 10.3908 30.004 7.13704 30C6.68502 30 6.51357 29.7541 6.59929 29.2226C6.73178 28.3659 6.87206 27.5093 7.00845 26.6526C7.3046 24.8043 7.59686 22.9561 7.89301 21.1079C7.9008 21.0524 7.92029 20.9929 7.85014 20.9056C7.56179 21.3538 7.27733 21.7861 6.99676 22.2224C6.52136 22.964 6.04596 23.7136 5.56666 24.4553C5.25102 24.9432 4.97435 24.9709 4.57299 24.5624C3.15068 23.1227 1.73227 21.679 0.313858 20.2393C-0.122577 19.7951 -0.0952993 19.5175 0.415173 19.1605C3.51308 16.9791 6.61098 14.7977 9.70889 12.6124C10.0089 12.4022 10.0089 12.4061 9.70499 12.192C6.63826 10.0304 3.57543 7.86885 0.508695 5.7073C0.469727 5.67954 0.43076 5.65177 0.391793 5.62004C-0.110886 5.23136 -0.126473 5.02909 0.325548 4.57298C1.70889 3.16499 3.09223 1.75701 4.47947 0.352988C4.60027 0.226071 4.73665 0.115019 4.86525 0C4.99773 0 5.13412 0 5.26661 0C5.3913 0.0951877 5.47703 0.222105 5.56276 0.352988C6.53305 1.86409 7.50333 3.37123 8.47362 4.88234C9.58809 6.61951 10.7065 8.35669 11.8209 10.0978C12.008 10.3874 12.0158 10.3913 12.2106 10.0859C14.0537 7.21047 15.8891 4.33501 17.7362 1.46351C18.0557 0.967742 18.3441 0.448176 18.7337 0C18.8857 0 19.0377 0 19.1935 0ZM22.6499 4.99736C22.6266 4.90217 22.5486 4.85457 22.4902 4.79508C21.4342 3.71629 20.3743 2.64146 19.3182 1.56267C19.0494 1.289 19.0455 1.289 18.835 1.61423C16.7386 4.88234 14.6422 8.15045 12.5418 11.4186C12.1833 11.9738 11.8248 11.9818 11.4663 11.4265C10.2038 9.46721 8.94902 7.50397 7.69428 5.54469C6.84479 4.21999 5.9914 2.89926 5.1536 1.5706C5.00553 1.33659 4.91201 1.3247 4.71327 1.52697C3.65336 2.62956 2.57786 3.71629 1.50236 4.79905C1.3348 4.96959 1.3387 5.05288 1.53354 5.1917C3.95731 6.89318 6.37328 8.60259 8.79315 10.308C9.54912 10.8435 10.3051 11.3749 11.0611 11.9104C11.2715 12.0571 11.4235 12.2356 11.3728 12.5172C11.3338 12.7314 11.1624 12.8345 11.0065 12.9455C7.86184 15.1626 4.71327 17.3757 1.56861 19.5928C1.28804 19.7911 1.28804 19.7951 1.54523 20.0529C2.60514 21.1277 3.66115 22.2025 4.71717 23.2813C4.95877 23.5272 4.95877 23.5312 5.1536 23.2258C7.26564 19.9418 9.36987 16.6579 11.4819 13.3739C11.8248 12.8384 12.1794 12.8305 12.5223 13.358C13.2237 14.4408 13.9174 15.5315 14.6149 16.6182C16.045 18.8472 17.479 21.0762 18.9091 23.3091C19.0143 23.4717 19.0805 23.4995 19.2286 23.3488C20.3236 22.2263 21.4225 21.1079 22.5253 19.9934C22.685 19.8308 22.6811 19.7475 22.4902 19.6166C21.6797 19.0574 20.8769 18.4902 20.0742 17.9231C17.7556 16.289 15.4488 14.643 13.1185 13.0288C12.46 12.5727 12.4912 12.2118 13.138 11.7636C15.1916 10.3398 17.2257 8.89212 19.2676 7.45241C20.3314 6.7028 21.3952 5.94923 22.4551 5.19963C22.533 5.1441 22.6305 5.11237 22.6499 4.99736ZM11.9924 28.9807C13.3523 28.9807 14.7123 28.9767 16.0762 28.9847C16.2827 28.9847 16.3723 28.945 16.3216 28.6991C16.232 28.2509 16.1814 27.7948 16.1073 27.3427C15.6904 24.7171 15.2773 22.0915 14.8526 19.4659C14.7941 19.097 14.7824 18.7163 14.5642 18.3792C13.7615 17.1536 12.9782 15.9162 12.1872 14.6827C12.0119 14.409 12.0119 14.413 11.8365 14.6867C11.0455 15.9201 10.2583 17.1536 9.46339 18.3871C9.35039 18.5616 9.28414 18.7441 9.24907 18.9543C9.06982 20.1084 8.88668 21.2626 8.69963 22.4167C8.36841 24.495 8.03719 26.5732 7.69428 28.6475C7.64751 28.9331 7.72935 28.9926 7.99432 28.9926C9.32701 28.9728 10.6597 28.9807 11.9924 28.9807Z" fill="#E04E39"/>
<path d="M9.73993 23.7652C9.73993 23.3567 9.73603 22.9442 9.73993 22.5357C9.74383 21.8575 10.227 21.4172 10.8934 21.445C11.5636 21.4728 12.2338 21.4847 12.9002 21.4371C13.8276 21.3736 14.2991 21.8258 14.2991 22.7776C14.2991 23.44 14.303 24.1063 14.303 24.7686C14.303 25.6809 13.9172 26.0735 13.0288 26.0735C12.3079 26.0735 11.5909 26.0735 10.87 26.0735C10.1452 26.0735 9.74772 25.6769 9.73993 24.9392C9.73603 24.5465 9.73993 24.1579 9.73993 23.7652ZM12.0273 25.0502C12.3546 25.0463 12.6781 25.0423 13.0054 25.0502C13.1885 25.0542 13.2626 24.9828 13.2626 24.7924C13.2587 24.1182 13.2587 23.4479 13.2665 22.7737C13.2665 22.5793 13.1963 22.4881 12.9976 22.4881C12.3352 22.4921 11.6766 22.4921 11.0142 22.4881C10.8193 22.4881 10.7414 22.5674 10.7414 22.7657C10.7492 23.44 10.7492 24.1103 10.7414 24.7845C10.7375 24.9908 10.8271 25.0542 11.0181 25.0502C11.3571 25.0463 11.6922 25.0502 12.0273 25.0502Z" fill="#E04E39"/>
</svg>
