<svg width="22" height="24" viewBox="0 0 22 24" fill="none" xmlns="http://www.w3.org/2000/svg">
<path d="M7.18163 16.5397C7.18163 15.2591 7.21638 13.9751 7.16774 12.6978C7.13994 11.9471 7.49433 11.4749 8.09193 11.1148C8.7625 10.7106 9.50602 10.5 10.2773 10.3981C11.4309 10.2452 12.5774 10.2962 13.6927 10.6528C14.2834 10.8397 14.8427 11.0842 15.2805 11.5394C15.5376 11.8078 15.6731 12.1135 15.6696 12.494C15.6558 13.5267 15.6697 14.5593 15.6627 15.5886C15.6627 15.7924 15.7044 15.8502 15.9302 15.8128C17.5007 15.5682 19.0329 15.6565 20.4783 16.3835C20.7388 16.516 20.9716 16.6824 21.1731 16.8896C21.4407 17.1614 21.5866 17.4705 21.5831 17.8612C21.5727 19.1078 21.5449 20.3545 21.5935 21.6012C21.6213 22.3825 21.2461 22.8649 20.6138 23.2317C19.9606 23.6122 19.2448 23.8194 18.5013 23.9179C17.2575 24.081 16.0275 24.0164 14.8358 23.585C14.3042 23.3914 13.8004 23.1468 13.4252 22.7154C13.3001 22.5727 13.1542 22.5897 12.9943 22.6169C11.8478 22.8207 10.7012 22.8207 9.56856 22.5388C8.84588 22.3587 8.15795 22.1073 7.61246 21.5808C7.32409 21.2989 7.17816 20.9762 7.18163 20.5651C7.18858 19.2199 7.18163 17.8781 7.18163 16.5397ZM11.4309 13.632C12.1084 13.5912 12.7928 13.564 13.4564 13.3738C13.8386 13.2651 14.2104 13.136 14.5127 12.8676C14.8532 12.5653 14.8566 12.2766 14.53 11.9641C14.2347 11.6855 13.8629 11.5462 13.4808 11.4477C12.1118 11.0978 10.736 11.1046 9.36705 11.4477C8.98138 11.5428 8.61657 11.6957 8.31777 11.9675C7.99465 12.2596 8.0016 12.5551 8.31777 12.8507C8.53319 13.0511 8.79724 13.1666 9.06825 13.2685C9.82567 13.5504 10.6248 13.5878 11.4309 13.632ZM17.3304 16.5499C16.7919 16.5873 16.2464 16.6009 15.7148 16.713C15.1798 16.8251 14.6516 16.961 14.2312 17.3312C13.9012 17.6234 13.9116 17.9495 14.2486 18.2348C14.4814 18.4352 14.7594 18.5677 15.0547 18.6628C16.1526 19.0093 17.2783 19.0467 18.4144 18.921C18.9842 18.8599 19.5402 18.741 20.0544 18.4794C20.3566 18.3265 20.6763 18.1431 20.6763 17.7762C20.6763 17.4094 20.3636 17.2259 20.0578 17.0697C19.1997 16.6417 18.2685 16.6043 17.3304 16.5499ZM14.7837 14.1992C14.7837 14.0871 14.7802 14.0192 14.7837 13.9513C14.7976 13.7576 14.7489 13.7033 14.5509 13.8052C13.1681 14.505 11.6949 14.6069 10.1835 14.3997C9.5095 14.308 8.86326 14.1143 8.26218 13.7916C8.20311 13.761 8.12668 13.6761 8.06761 13.7984C7.9599 14.026 8.10236 14.7088 8.29692 14.8922C8.59572 15.1776 8.97444 15.3202 9.36705 15.4255C10.3781 15.7007 11.4135 15.7347 12.4523 15.6226C13.0395 15.558 13.6163 15.4425 14.1479 15.1708C14.5717 14.9602 14.8566 14.668 14.7837 14.1992ZM20.6971 19.5868C20.6971 19.4679 20.6902 19.3966 20.6971 19.3286C20.718 19.1078 20.6485 19.0773 20.4505 19.1792C19.0676 19.8789 17.5945 19.9741 16.0831 19.7668C15.4195 19.6751 14.7802 19.4883 14.1861 19.1656C14.0992 19.118 13.9985 19.0331 13.9707 19.2335C13.8803 19.9537 14.0575 20.2866 14.7246 20.5957C14.8497 20.6535 14.9817 20.7078 15.1172 20.7452C16.1943 21.0679 17.2957 21.1052 18.404 20.9864C18.9808 20.9218 19.5471 20.7995 20.0717 20.5346C20.4887 20.3239 20.7701 20.0352 20.6971 19.5868ZM20.6937 21.6386C20.6937 21.557 20.6937 21.5231 20.6937 21.4891C20.6937 21.1256 20.6971 21.129 20.3705 21.2853C19.0016 21.9443 17.5563 22.0394 16.0727 21.8288C15.4091 21.7371 14.7698 21.5469 14.1756 21.2275C14.0992 21.1868 14.0019 21.0985 13.9707 21.2819C13.8525 21.9409 14.0436 22.3315 14.6621 22.6305C14.8045 22.6984 14.9504 22.7596 15.0998 22.8071C16.1839 23.1366 17.2922 23.174 18.411 23.0517C18.9808 22.9872 19.5367 22.8683 20.0544 22.6101C20.4852 22.3961 20.7701 22.104 20.6937 21.6386ZM11.3857 17.7593C11.8513 17.7015 12.362 17.7287 12.8658 17.6132C12.9943 17.5826 13.0951 17.5452 13.1472 17.4162C13.3175 16.9847 13.6475 16.696 14.0401 16.465C14.2417 16.3461 14.4605 16.251 14.6725 16.1491C14.8045 16.0846 14.8115 15.9589 14.7698 15.8604C14.7142 15.7279 14.6204 15.84 14.5544 15.8739C13.1681 16.5669 11.6984 16.6722 10.187 16.465C9.51297 16.3733 8.86673 16.1797 8.26565 15.8604C8.20312 15.8264 8.11278 15.7347 8.06414 15.8909C7.90779 16.431 8.11973 16.9338 8.63394 17.2055C8.77987 17.2837 8.93274 17.3482 9.08909 17.406C9.81525 17.6743 10.5796 17.7117 11.3857 17.7593ZM13.0916 19.1146C13.0916 18.9414 13.0812 18.8225 13.0951 18.7036C13.1159 18.5066 13.0256 18.4794 12.8484 18.5066C12.5288 18.5575 12.2057 18.5983 11.8825 18.6119C10.6109 18.6662 9.374 18.5134 8.23438 17.9053C8.16142 17.868 8.09541 17.8306 8.06414 17.9631C7.92169 18.5575 8.13015 19.0127 8.68953 19.2947C8.82156 19.3626 8.96054 19.4238 9.09952 19.4679C10.2044 19.8348 11.337 19.8756 12.4801 19.7295C13.2237 19.6378 13.0777 19.6921 13.0916 19.1146ZM13.0951 21.1154C13.0951 21.0645 13.0951 21.0135 13.0951 20.9592C13.0951 20.538 13.0951 20.5481 12.6538 20.6059C11.8408 20.7112 11.0243 20.7248 10.2148 20.6025C9.53382 20.5006 8.87715 20.3172 8.26913 19.991C8.20659 19.9571 8.11625 19.8586 8.06761 20.0148C7.91126 20.5006 8.11278 21.0305 8.56446 21.2921C8.73123 21.3872 8.90842 21.4687 9.08909 21.5299C10.2009 21.9035 11.3405 21.9409 12.494 21.7982C13.2341 21.7031 13.0743 21.7473 13.0951 21.1154Z" fill="#E04E39"/>
<path d="M0 10.1331C0 6.93997 0 3.75023 0 0.5571C0 0.139275 0.138977 0 0.566331 0C4.9719 0 9.38094 0 13.79 0C14.2764 0 14.3945 0.115496 14.3945 0.594466C14.3945 3.51924 14.3945 6.44401 14.3945 9.36879C14.3945 9.41295 14.3945 9.45371 14.3945 9.49787C14.3806 9.77302 14.2104 9.94287 13.9533 9.93948C13.6927 9.93608 13.5225 9.76963 13.5225 9.48768C13.5155 8.58409 13.519 7.6805 13.519 6.77692C13.519 4.90859 13.5155 3.04367 13.5259 1.17534C13.5259 0.934161 13.4669 0.849237 13.2063 0.849237C9.19332 0.856031 5.18036 0.856031 1.17088 0.849237C0.924196 0.849237 0.882503 0.940955 0.882503 1.15496C0.885978 6.08394 0.885978 11.0129 0.885978 15.9419C0.885978 16.9983 0.892926 18.0582 0.882503 19.1146C0.879029 19.3422 0.955466 19.4068 1.18478 19.4068C2.70657 19.3966 4.22837 19.4034 5.75017 19.4034C5.81966 19.4034 5.89262 19.4 5.96211 19.4068C6.21574 19.4272 6.38251 19.6072 6.37556 19.8518C6.36862 20.0828 6.20532 20.256 5.95516 20.2594C5.36451 20.2696 4.77733 20.2628 4.18668 20.2628C2.98105 20.2628 1.77543 20.2628 0.569805 20.2628C0.132028 20.2662 0 20.1371 0 19.7091C0 16.516 0 13.3262 0 10.1331Z" fill="#E04E39"/>
<path d="M7.19555 2.06535C8.71735 2.06535 10.2357 2.06874 11.7575 2.06195C11.9694 2.06195 12.1431 2.10951 12.2404 2.30313C12.3933 2.60886 12.1744 2.91798 11.7887 2.92138C10.875 2.92477 9.96119 2.92477 9.04742 2.92477C6.95582 2.92477 4.86421 2.92477 2.77261 2.92477C2.31399 2.92477 2.109 2.7889 2.11594 2.48317C2.11942 2.18764 2.31399 2.06535 2.76566 2.06535C4.24229 2.06535 5.71892 2.06535 7.19555 2.06535Z" fill="#E04E39"/>
<path d="M7.199 4.99013C5.705 4.99013 4.211 4.99013 2.717 4.99013C2.68225 4.99013 2.64751 4.99013 2.61276 4.99013C2.29312 4.97994 2.10897 4.81688 2.11592 4.54852C2.12287 4.29375 2.30701 4.1307 2.61276 4.1307C3.26248 4.1273 3.9122 4.1307 4.56539 4.1307C6.95579 4.1307 9.34619 4.1307 11.7366 4.1307C11.879 4.1307 12.018 4.1273 12.1327 4.22921C12.2786 4.35829 12.3238 4.52135 12.2647 4.69799C12.1952 4.90181 12.0354 4.99013 11.8165 4.99013C10.8749 4.99013 9.93684 4.99013 8.99527 4.99013C8.3942 4.99013 7.7966 4.99013 7.199 4.99013Z" fill="#E04E39"/>
<path d="M7.19555 6.19603C8.71735 6.19603 10.2357 6.19943 11.7575 6.19264C11.9694 6.19264 12.1431 6.24019 12.2404 6.43382C12.3933 6.73954 12.1744 7.04867 11.7887 7.05206C10.875 7.05546 9.96119 7.05546 9.04742 7.05546C6.95582 7.05546 4.86421 7.05546 2.77261 7.05546C2.31399 7.05546 2.109 6.91958 2.11594 6.61386C2.12289 6.31832 2.31746 6.19603 2.76914 6.19603C4.24229 6.19603 5.71892 6.19603 7.19555 6.19603Z" fill="#E04E39"/>
<path d="M7.20247 9.12081C5.70847 9.12081 4.21447 9.12081 2.72047 9.12081C2.68573 9.12081 2.65098 9.12081 2.61624 9.12081C2.29312 9.11062 2.10897 8.95096 2.11592 8.6826C2.12287 8.41764 2.30701 8.26138 2.63361 8.26138C3.27638 8.25799 3.91567 8.26138 4.55844 8.26138C6.94884 8.26138 9.33924 8.26138 11.7296 8.26138C11.879 8.26138 12.0284 8.25799 12.1466 8.37688C12.2856 8.51276 12.3203 8.67921 12.2508 8.85245C12.1778 9.03928 12.0215 9.12421 11.8165 9.12421C10.8749 9.12421 9.93684 9.12421 8.99528 9.12421C8.39768 9.12081 7.80008 9.12081 7.20247 9.12081Z" fill="#E04E39"/>
<path d="M21.9966 6.65463C22.007 6.8041 21.8958 6.92299 21.8055 7.04868C20.6242 8.66562 19.4429 10.2826 18.2616 11.8961C18.0879 12.1339 17.9176 12.3751 17.737 12.6095C17.5493 12.8507 17.2783 12.905 17.0733 12.7556C16.8649 12.6061 16.8336 12.3445 17.0178 12.0898C18.3902 10.2044 19.766 8.32253 21.1419 6.44062C21.2843 6.24699 21.465 6.13829 21.7082 6.21982C21.8958 6.28096 21.9966 6.42703 21.9966 6.65463Z" fill="#E04E39"/>
<path d="M20.7144 12.8337C20.03 12.8337 19.4289 12.2358 19.4324 11.5598C19.4359 10.9246 20.0543 10.3233 20.704 10.3233C21.3954 10.3233 22.0035 10.9144 22 11.587C21.9965 12.246 21.3885 12.8337 20.7144 12.8337ZM20.7075 11.9709C20.9403 11.9742 21.1071 11.8146 21.114 11.587C21.121 11.3526 20.9646 11.1997 20.7214 11.1963C20.4747 11.1929 20.3253 11.3322 20.3184 11.5768C20.3149 11.8112 20.4678 11.9709 20.7075 11.9709Z" fill="#E04E39"/>
<path d="M18.1713 8.70638C17.5077 8.70638 16.8927 8.10172 16.8962 7.44951C16.8996 6.78031 17.5146 6.19264 18.2025 6.19604C18.8523 6.19943 19.4638 6.80409 19.4638 7.43932C19.4638 8.11191 18.8557 8.70638 18.1713 8.70638ZM18.5812 7.44611C18.5778 7.21852 18.4179 7.05886 18.1817 7.05886C17.9454 7.05886 17.7856 7.21172 17.7787 7.44272C17.7752 7.6805 17.9489 7.85035 18.1886 7.84356C18.4284 7.83676 18.5812 7.6771 18.5812 7.44611Z" fill="#E04E39"/>
<path d="M4.22486 11.1862C3.69674 11.1862 3.17211 11.1896 2.64399 11.1862C2.29655 11.1828 2.11241 11.0265 2.11241 10.7513C2.11588 10.4762 2.30697 10.3267 2.65094 10.3267C3.71412 10.3267 4.77381 10.3267 5.83699 10.3267C6.02113 10.3267 6.1879 10.3573 6.29561 10.5204C6.38942 10.663 6.39637 10.8125 6.31646 10.9586C6.2296 11.1182 6.09062 11.1896 5.90648 11.1862C5.34709 11.1828 4.78424 11.1828 4.22486 11.1862Z" fill="#E04E39"/>
<path d="M4.27009 12.3887C4.7982 12.3887 5.32284 12.3853 5.85095 12.3887C6.19144 12.3921 6.37906 12.5551 6.37211 12.8337C6.36169 13.0952 6.17407 13.2481 5.84748 13.2481C4.76693 13.2481 3.68986 13.2481 2.60932 13.2481C2.36958 13.2481 2.19586 13.1598 2.12985 12.9288C2.07773 12.7386 2.14027 12.5721 2.31052 12.4566C2.41127 12.3887 2.52246 12.3853 2.63711 12.3853C3.1826 12.3887 3.72461 12.3887 4.27009 12.3887Z" fill="#E04E39"/>
<path d="M4.23191 15.3135C3.69685 15.3135 3.16179 15.3168 2.62673 15.3135C2.30013 15.3101 2.11599 15.1538 2.11599 14.8888C2.11599 14.6205 2.30013 14.4574 2.61978 14.4574C3.6899 14.454 4.76002 14.454 5.83362 14.4574C6.18454 14.4574 6.37216 14.6103 6.37216 14.8854C6.37216 15.1674 6.18106 15.3202 5.81277 15.3202C5.28466 15.3135 4.76002 15.3135 4.23191 15.3135Z" fill="#E04E39"/>
</svg>
