<svg width="31" height="28" viewBox="0 0 31 28" fill="none" xmlns="http://www.w3.org/2000/svg">
<path d="M30.9933 15.8096C30.9933 16.2243 30.9933 16.6326 30.9933 17.0473C30.9933 18.2723 30.165 19.1208 28.886 19.2037C28.7137 19.2165 28.5348 19.2356 28.3757 19.1973C27.9715 19.108 27.7926 19.3122 27.6335 19.6184C27.0106 20.837 26.0894 21.8068 24.9297 22.5723C24.7309 22.7063 24.4393 22.7956 24.3466 22.9807C24.2405 23.1784 24.4725 23.4145 24.5387 23.6378C24.8767 24.7607 24.3598 25.7878 23.2266 26.2153C22.6103 26.445 21.9874 26.6683 21.3645 26.8852C20.2776 27.2552 19.1047 26.7512 18.6474 25.7368C18.5414 25.5007 18.4287 25.2647 18.3558 25.0159C18.2896 24.7926 18.1504 24.7479 17.945 24.7798C17.3618 24.8628 16.772 24.8755 16.1888 24.9074C15.155 24.9712 14.1411 24.8947 13.1338 24.6905C12.8555 24.6331 12.7495 24.716 12.67 24.9521C12.5838 25.2073 12.4711 25.4497 12.3651 25.6985C11.9211 26.7129 10.8277 27.2361 9.73423 26.9043C9.00527 26.681 8.27632 26.4195 7.57386 26.126C6.59971 25.7177 6.1292 24.6522 6.46717 23.6761C6.59308 23.3124 6.73225 22.9615 6.89129 22.6106C6.9907 22.3873 6.95756 22.247 6.75213 22.0875C5.45325 21.0731 4.42608 19.8481 3.80315 18.3424C3.35252 17.2578 3.23324 16.135 3.35252 14.9802C3.39891 14.5527 3.41879 14.1189 3.51157 13.6978C3.55133 13.5064 3.47844 13.4299 3.30614 13.3533C2.26571 12.8876 1.47048 12.1921 1.12588 11.1012C0.701762 9.74224 1.31806 8.17277 2.53079 7.49649C2.76273 7.36251 3.00793 7.26681 3.29288 7.29233C3.6905 7.33061 4.0351 7.62409 4.10136 7.98137C4.18751 8.42159 4.0351 8.73421 3.62423 8.96388C3.03443 9.28926 2.80912 9.70396 2.89527 10.342C2.98142 10.98 3.37903 11.3947 3.97545 11.6626C4.15438 11.7455 4.16763 11.5924 4.21402 11.4967C4.61826 10.6865 5.0954 9.92088 5.75809 9.2765C7.05034 8.02603 8.58115 7.15197 10.2909 6.55864C11.8085 6.0291 13.379 5.76752 14.996 5.72286C16.1425 5.69096 17.2823 5.76114 18.4089 5.95892C18.6872 6.00996 18.8595 5.95254 19.0185 5.71648C20.0324 4.19805 21.497 3.27934 23.2796 2.79446C23.4652 2.74342 23.6507 2.70514 23.8495 2.71152C24.4327 2.73704 24.8568 3.2602 24.7177 3.80887C24.658 4.03855 24.5653 4.25547 24.4725 4.47877C24.1345 5.32731 23.8827 6.19498 23.7568 7.09455C23.7236 7.33061 23.7899 7.45821 24.0086 7.55391C25.0689 8.04517 25.9503 8.74697 26.6594 9.64654C27.2359 10.3866 27.6733 11.1969 27.9052 12.0964C27.9715 12.3453 28.0841 12.4282 28.3426 12.4218C28.9589 12.3963 29.5619 12.441 30.0855 12.811C30.6488 13.2066 30.9602 13.7297 30.9801 14.406C31 14.859 30.9933 15.3375 30.9933 15.8096ZM22.2392 5.19971C22.1067 5.18057 22.0537 5.24437 21.994 5.28265C21.2253 5.7739 20.6951 6.45656 20.271 7.23491C19.9065 7.90481 19.6415 8.01965 18.8661 7.86015C17.7329 7.63047 16.5931 7.52201 15.4334 7.52201C13.1272 7.51563 10.9668 8.00051 8.97214 9.14252C7.46783 10.0038 6.27499 11.1203 5.69182 12.7536C5.3406 13.7425 5.27433 14.7569 5.24782 15.7904C5.22131 17.0664 5.66531 18.1638 6.44066 19.1718C6.96419 19.8609 7.61363 20.4159 8.2962 20.9582C8.89262 21.4367 9.0848 22.0428 8.8396 22.7574C8.68056 23.2167 8.50826 23.6697 8.31608 24.1163C8.2233 24.3396 8.25643 24.4544 8.495 24.5374C9.09142 24.7415 9.68122 24.9521 10.2644 25.169C10.4566 25.2392 10.5626 25.1945 10.6289 25.0095C10.768 24.6395 10.9138 24.2758 11.0596 23.9121C11.4373 22.9998 12.0934 22.6617 13.0874 22.8467C13.7899 22.9807 14.499 23.0508 15.2147 23.0827C16.2882 23.1274 17.3485 22.9615 18.4155 22.9551C19.1776 22.9488 19.6878 23.2933 19.9728 23.9696C20.1186 24.3205 20.2644 24.6777 20.4036 25.035C20.4632 25.1881 20.5427 25.2456 20.715 25.1818C21.3446 24.9457 21.9741 24.7224 22.6037 24.4991C22.7826 24.4353 22.8025 24.346 22.7296 24.1929C22.6501 24.0142 22.5838 23.8292 22.5109 23.6442C22.1199 22.6234 22.3585 21.9663 23.326 21.3984C23.6375 21.2134 23.9423 21.0284 24.2339 20.8179C25.0755 20.199 25.6587 19.3824 26.1358 18.4828C26.5268 17.7427 27.1365 17.3535 28.0179 17.3854C28.2962 17.3982 28.5745 17.3791 28.8529 17.3791C29.0318 17.3791 29.1047 17.3089 29.1047 17.143C29.1047 16.2562 29.1047 15.3757 29.1047 14.4889C29.1047 14.3358 29.0318 14.2656 28.8727 14.2656C28.6474 14.2656 28.4221 14.2656 28.1968 14.2593C27.0238 14.2401 26.4142 13.7935 26.1425 12.6962C25.6852 10.8587 24.5321 9.6274 22.7163 8.94474C21.9476 8.65765 21.7819 8.33865 21.8283 7.54753C21.8814 6.75642 22.0139 5.97806 22.2392 5.19971Z" fill="#E04E39"/>
<path d="M16.0696 5.12952C15.9702 5.12952 15.8774 5.12952 15.778 5.12952C15.3207 5.11677 15.1286 4.98279 15.049 4.54895C14.9496 4.01941 14.8038 3.50901 14.4725 3.06242C13.6773 1.99058 12.1862 1.53761 10.7813 1.96506C9.48907 2.35424 8.66733 3.47074 8.6607 4.81691C8.6607 5.20608 8.7336 5.56974 8.85288 5.9334C8.98542 6.32896 8.89264 6.51398 8.4884 6.69262C8.3161 6.76917 8.1438 6.85849 7.97151 6.93505C7.53413 7.13921 7.26905 7.04351 7.09675 6.59692C6.40756 4.86795 6.70577 3.2921 7.89861 1.85022C8.91253 0.638032 10.2379 0.00641542 11.8482 3.54598e-05C13.6773 -0.0063445 15.0623 0.84857 16.1027 2.25854C16.5268 2.83912 16.7985 3.4835 16.8979 4.19167C17.0106 4.99555 16.8979 5.12952 16.0696 5.12952Z" fill="#E04E39"/>
<path d="M24.8369 13.9339C24.8369 14.7314 24.1544 15.3821 23.3194 15.3821C22.5042 15.3821 21.8018 14.7122 21.8018 13.9275C21.7952 13.1364 22.5109 12.4537 23.3459 12.4601C24.161 12.4601 24.8369 13.1364 24.8369 13.9339Z" fill="#E04E39"/>
</svg>
