<svg width="18" height="12" viewBox="0 0 18 12" fill="none" xmlns="http://www.w3.org/2000/svg">
<g clip-path="url(#clip0)">
<path d="M9.28002 0.00740051C8.1795 0.00740051 7.3789 -0.0114384 6.57891 0.0115223C5.16616 0.0515556 3.75217 0.0874672 2.34496 0.235826C1.36823 0.338854 0.613197 0.956427 0.358236 1.86836C0.185182 2.48888 0.111897 3.1247 0.0644763 3.76288C-0.0229741 4.94504 -0.00757793 6.12956 0.0201352 7.31231C0.0423057 8.22955 0.120518 9.1456 0.339144 10.0452C0.567008 10.9836 1.39717 11.6459 2.39792 11.7378C3.56927 11.8455 4.74184 11.9008 5.91626 11.9479C7.85434 12.0262 9.79303 12.0027 11.7305 11.9691C13.0268 11.9468 14.3244 11.8767 15.6165 11.7378C16.6419 11.6277 17.4104 11.0348 17.6593 10.0882C17.8206 9.47352 17.8964 8.84653 17.9413 8.21424C18.0288 6.98734 17.9937 5.75925 17.9795 4.53235C17.9696 3.6887 17.8853 2.84565 17.6882 2.0179C17.44 0.9735 16.6794 0.334733 15.5678 0.229939C14.4353 0.123381 13.299 0.085701 12.1622 0.0380144C11.1011 -0.00731754 10.0406 0.0333042 9.28002 0.00740051ZM6.71994 6.16135C6.71994 5.3236 6.71933 4.48584 6.71994 3.64749C6.71994 3.37844 6.72425 3.37609 6.98229 3.50384C7.30315 3.6628 7.62216 3.82529 7.94302 3.98366C9.31513 4.66305 10.6872 5.34126 12.0587 6.02182C12.1234 6.05362 12.2195 6.06775 12.2195 6.159C12.2195 6.2267 12.1431 6.24495 12.0901 6.27086C10.3713 7.1251 8.65124 7.97698 6.93426 8.83358C6.74704 8.92719 6.71625 8.8689 6.71748 8.69582C6.72241 7.85217 6.71994 7.00676 6.71994 6.16135Z" fill="#FBFBFB"/>
</g>
<defs>
<clipPath id="clip0">
<rect width="18" height="12" fill="white" transform="matrix(1 0 0 -1 0 12)"/>
</clipPath>
</defs>
</svg>
