<?xml version="1.0" encoding="utf-8"?><svg width="31" height="31" fill="none" xmlns="http://www.w3.org/2000/svg" viewBox="0 0 31 31"><path d="M.007 15.506C-.228 7.89 6.082-.037 15.68 0c8.234.031 15.687 6.895 15.306 16.205-.31 7.559-6.46 14.507-14.805 14.785C6.199 31.322-.237 23.122.007 15.506zm15.565 13.192c7.358.002 13.194-5.813 13.2-13.159.007-7.438-5.8-13.216-13.302-13.231-7.396-.016-13.241 5.815-13.243 13.21-.007 7.4 5.842 13.178 13.345 13.18z" fill="#C39367"/><path d="M14.351 10.358c0-1.715-.011-3.43.004-5.142.01-.991.144-1.097 1.201-1.09 1.004.006 1.097.085 1.1 1.083.006 2.656.002 5.309.004 7.964 0 1.217.002 1.219 1.256 1.219 1.994.002 3.988.029 5.98-.013.833-.018.957.391.94 1.077-.018.66.006 1.18-.935 1.164a306.476 306.476 0 00-8.555-.005c-.774.01-1.024-.3-1.013-1.03.027-1.742.01-3.486.01-5.227h.008zM9.317 22.751c-1.057 0-1.119-.058-1.126-1.031-.006-1.08.094-1.18 1.177-1.177 1.04.002 1.146.108 1.139 1.13-.005.998-.093 1.078-1.19 1.078zM5.185 16.602c-1.048 0-1.148-.098-1.148-1.111.002-.989.118-1.097 1.174-1.09 1.05.006 1.146.097 1.142 1.11-.003 1.005-.096 1.093-1.168 1.09zM15.488 26.884c-1.037 0-1.141-.102-1.14-1.115.003-.998.103-1.091 1.169-1.091 1.037 0 1.14.104 1.138 1.115-.002.998-.104 1.093-1.167 1.09zM9.446 8.446c-1.148.003-1.259-.104-1.255-1.11.005-1.005.094-1.089 1.175-1.089 1.046 0 1.103.089 1.125 1.31.016.84-.49.942-1.045.89zM20.62 21.618c.001-1.007.066-1.069 1.085-1.066 1.026.002 1.119.097 1.114 1.148-.004.987-.07 1.05-1.108 1.05-1.059 0-1.096-.039-1.092-1.132zM21.638 6.247c1.121.007 1.195.089 1.181 1.184-.01.911-.144 1.029-1.16 1.015-.967-.01-1-.112-1.055-1.212-.045-.918.412-1.089 1.034-.987z" fill="#C39367"/></svg>