<?xml version="1.0" encoding="utf-8"?><svg width="22" height="35" fill="none" xmlns="http://www.w3.org/2000/svg" viewBox="0 0 22 35"><path d="M10.995 0C17.82-.022 23.394 6.485 21.69 13.608c-.945 3.945-2.815 7.456-4.856 10.88-1.37 2.299-2.854 4.525-4.57 6.573-1.047 1.252-1.594 1.22-2.62-.078-3.798-4.802-7.018-9.96-8.956-15.84-1.862-5.639.13-10.952 5.02-13.766C7.236.498 9.18-.007 10.995 0zM2.265 11.06c.026.436.002.884.088 1.307.152.763.314 1.535.564 2.27 1.725 5.046 4.478 9.502 7.577 13.763.425.584.72.409 1.043-.067.942-1.387 1.943-2.737 2.824-4.161 1.946-3.152 3.755-6.38 4.834-9.975.493-1.64.695-3.28.326-4.987-.932-4.314-5.015-7.336-9.353-6.883-4.52.473-7.901 4.216-7.904 8.733z" fill="#C39367"/><path d="M10.932 34.997c-2.309.045-4.515-.368-6.586-1.435a6.175 6.175 0 01-1.629-1.202c-1.862-1.927-1.352-4.75 1.067-5.893.538-.256 1.031-.22 1.4.273.392.525.308 1.049-.129 1.522-1.56 1.692-1.445 2.556.688 3.42 3.66 1.48 7.366 1.527 10.956-.26 1.776-.884 1.808-1.798.27-3.05-.57-.466-.899-.991-.42-1.68.461-.666 1.075-.598 1.705-.223 2.69 1.602 2.827 4.68.285 6.502-2.292 1.645-4.918 1.966-7.607 2.026zM4.283 11.104C4.278 7.396 7.31 4.337 10.999 4.33c3.656-.007 6.66 3.032 6.716 6.798.056 3.663-3.021 6.745-6.74 6.75-3.711.005-6.687-3.007-6.692-6.773zm11.066-.007c0-2.519-1.887-4.437-4.38-4.454-2.439-.018-4.448 2.06-4.422 4.574.027 2.36 2.057 4.351 4.444 4.356 2.456.005 4.358-1.95 4.358-4.476z" fill="#C39367"/></svg>