<?xml version="1.0" encoding="utf-8"?><svg width="14" height="14" fill="none" xmlns="http://www.w3.org/2000/svg" viewBox="0 0 14 14"><path d="M13.806 11.777l-1.974 1.846c-.292.282-.678.378-1.054.378-1.663-.047-3.236-.817-4.527-1.608C4.133 10.938 2.188 9.136.968 6.958.5 6.046-.049 4.88.003 3.86c.005-.384.115-.76.401-1.007L2.378.994c.41-.329.806-.215 1.069.168L5.035 4c.167.336.07.697-.179.937l-.727.685a.325.325 0 00-.074.196c.279 1.018 1.124 1.956 1.87 2.601.746.646 1.548 1.52 2.59 1.728.128.034.286.046.378-.035l.846-.811c.292-.209.713-.31 1.024-.14h.015l2.864 1.594c.42.249.465.729.164 1.021z" fill="#E04E39"/></svg>