<?xml version="1.0" encoding="utf-8"?><svg width="16" height="9" fill="none" xmlns="http://www.w3.org/2000/svg" viewBox="0 0 16 9"><path d="M1 7.219c.002.018.017.03.03.042.266.236.532.47.795.707.052.047.082.028.124-.009.613-.547 1.228-1.092 1.842-1.637C5.175 5.092 6.56 3.86 7.943 2.63c.052-.046.078-.039.124.003a57615.366 57615.366 0 005.963 5.303l.015.014c.079.068.079.068.155.002l.516-.459.258-.23c.036-.03.034-.052-.002-.084L12.84 5.286 10.798 3.47 8.755 1.654l-.7-.624c-.041-.038-.066-.041-.108-.002-.375.336-.753.67-1.13 1.005L5.575 3.138c-.406.362-.813.725-1.222 1.087l-1.228 1.09-1.089.968-.995.886c-.011.016-.032.028-.04.05z"/></svg>