<?xml version="1.0" encoding="utf-8"?><svg width="35" height="35" fill="none" xmlns="http://www.w3.org/2000/svg" viewBox="0 0 35 35"><path d="M10.4.006c3.398.116 6.12 1.55 8.196 4.223a10.006 10.006 0 011.967 4.495c.023.155.023.34.233.38.218.046.405.092.614-.11 1.4-1.386 3.064-2.34 5-2.758 1.143-.248 1.71.093 2.053 1.201.52 1.705.466 3.433.132 5.161-.046.248-.008.434.163.612a12.204 12.204 0 011.711 2.325c.093.163.187.28.404.271 1.485-.054 2.48.698 3.212 1.914 1.337 2.217 1.197 5.572-.343 7.564-.707.914-1.625 1.41-2.79 1.356-.452-.024-.662.178-.942.496-.56.643-.622 1.178-.179 1.96.607 1.054.692 2.263.381 3.464-.49 1.906-2.114 2.735-3.957 2.023-1.097-.419-1.999-1.1-2.636-2.093-.156-.24-.303-.256-.552-.178-2.69.837-5.404.891-8.126.163-.287-.078-.435-.039-.614.217-.777 1.123-1.812 1.906-3.157 2.216-1.594.372-2.923-.403-3.374-1.976-.413-1.403-.195-2.751.474-4.03.148-.286.148-.472-.062-.728-1.439-1.744-2.294-3.75-2.59-5.982a8.538 8.538 0 010-2.356c.047-.318-.062-.465-.318-.62-2.022-1.186-3.53-2.836-4.448-4.99-1.267-2.968-1.12-5.898.435-8.703 1.548-2.797 3.92-4.58 7.06-5.3A7.516 7.516 0 0110.4.006zm20.022 24.41c.101 0 .203-.008.304 0 1.034.093 1.555-.326 1.858-1.403a6.375 6.375 0 00.194-2.27c-.054-.651-.132-1.294-.435-1.891-.288-.558-.7-.9-1.376-.853-.288.016-.576-.015-.863 0-.622.031-1.027-.248-1.268-.805a8.992 8.992 0 00-2.177-2.984c-.498-.45-.59-.93-.381-1.55a9.543 9.543 0 00.428-4.107c-.04-.325-.203-.395-.46-.287-1.399.59-2.72 1.31-3.56 2.643-.257.41-.622.604-1.104.558-.172-.016-.358-.031-.521-.085-.327-.117-.436 0-.483.325-.163 1.162-.544 2.255-1.096 3.293-2.052 3.844-6.648 6.471-11.329 5.34-.319-.078-.396.054-.404.333a8.87 8.87 0 00.109 1.573c.287 2.069 1.252 3.805 2.729 5.27.599.588.622 1.123.085 1.782-.513.635-.894 1.333-1.003 2.146-.07.48.016.938.451 1.232.444.295.887.194 1.307-.062.14-.085.264-.186.38-.302.46-.442.794-.96 1.05-1.542.366-.845.887-1.062 1.742-.736.964.372 1.975.597 3.002.674 2.044.147 4.035-.085 5.925-.938.388-.178.762-.116 1.104.117.24.162.35.41.458.666.335.752.762 1.441 1.485 1.89.366.226.77.334 1.175.102.412-.24.56-.62.536-1.085-.054-1-.513-1.814-1.159-2.542-.505-.573-.505-1.108 0-1.674.475-.52.965-1.046 1.252-1.681.413-.892 1.019-1.357 2.045-1.147zM10.4 2.23c-4.494-.07-8 3.301-8.164 7.741-.171 4.766 3.344 8.346 7.9 8.431 4.798.093 8.195-3.37 8.335-7.81.156-4.867-3.56-8.4-8.07-8.362z" fill="#E04E39"/><path d="M22.483 19.139c-.474 0-.956.007-1.43 0a1.104 1.104 0 01-1.112-1.016c-.054-.503.303-1 .84-1.139.155-.039.319-.054.482-.054.855-.008 1.703-.008 2.558 0 .754.008 1.26.457 1.26 1.1 0 .667-.514 1.116-1.283 1.116-.436-.008-.879-.008-1.314-.008zM15.742 7.778c.023.318-.132.581-.365.806-1.96 1.96-3.92 3.914-5.886 5.866-.506.504-1.128.52-1.641.024a200.022 200.022 0 01-3.406-3.395c-.482-.495-.474-1.13-.023-1.58.451-.45 1.104-.434 1.61.054.808.79 1.61 1.58 2.394 2.387.187.193.296.178.475-.008a726.63 726.63 0 014.898-4.882c.545-.543 1.221-.543 1.68-.023.186.209.264.426.264.751z" fill="#E04E39"/></svg>