<?xml version="1.0" encoding="utf-8"?><svg width="35" height="32" fill="none" xmlns="http://www.w3.org/2000/svg" viewBox="0 0 35 32"><path d="M23.013 23.587c-.637-.11-1.245-.086-1.85.006-2.021.306-3.975.13-5.825-.806-.825-.418-1.547-.983-2.27-1.556-1.216-.965-2.612-1.435-4.167-1.375-.901.034-1.766.256-2.604.588-.097.04-.191.076-.29.105-.548.157-.873-.079-.899-.643-.003-.06 0-.12 0-.181-.005-.319-.076-.392-.4-.392-.75 0-1.496.008-2.245.005-.22 0-.323.057-.296.316.188 1.925.717 3.753 1.514 5.51.22.487.476.952.715 1.425.175.346.447.325.749.286.11-.014.118-.11.118-.2 0-.18-.016-.36 0-.54.03-.414.324-.63.73-.542.448.1.846.332 1.265.507 2.813 1.182 5.584 2.459 8.434 3.552 1.021.392 2.025.266 3.033-.027.773-.224 1.485-.585 2.2-.944 2.614-1.307 5.228-2.612 7.845-3.914.513-.256 1.032-.497 1.534-.793-.78.142-1.56.29-2.344.424-.421.07-.835.199-1.273.191-.589-.013-.914-.303-1.013-.92-.076-.48.186-.898.694-1.06.477-.151.977-.188 1.466-.287 1.221-.246 2.436-.531 3.675-.665.707-.075 1.42-.175 2.127.011a1.79 1.79 0 011.357 1.912c-.034.42-.286.708-.621.93-.568.377-1.2.633-1.818.913a166.97 166.97 0 00-4.89 2.32c-2.048 1.012-4.088 2.045-6.147 3.036-1.045.504-2.116.949-3.28 1.13a6.404 6.404 0 01-3.676-.484c-2.23-.997-4.48-1.94-6.708-2.934-.456-.204-.825-.212-1.27.075-1.192.77-3.096.314-3.861-.902C1.559 25.821.786 23.81.359 21.668c-.21-1.046-.335-2.1-.358-3.167-.016-.732.275-1.054 1.005-1.08a94.562 94.562 0 014.796-.055c.44.006.828.175 1.095.539.13.178.28.194.471.157 1.585-.309 3.146-.225 4.676.308 1.134.398 2.113 1.054 3.061 1.776.988.753 2.08 1.3 3.324 1.511.802.137 1.593.066 2.386-.047.927-.13 1.857-.277 2.787-.03.597.156 1.121.425 1.472.964.579.886.317 2.04-.62 2.717-.595.429-1.29.596-1.986.758-1.886.445-3.803.586-5.733.516a28.729 28.729 0 01-1.952-.155c-.639-.065-.982-.342-1.084-.82-.139-.655.288-1.212.956-1.248.432-.024.859.028 1.286.07 2.305.228 4.562.006 6.783-.64.097-.027.197-.05.289-.155zM22.793 13.336c-.016-1.16.24-2.248.9-3.219.75-1.103 1.81-1.744 3.118-1.953 1.626-.259 3.05.18 4.211 1.36.768.78 1.163 1.741 1.307 2.821.157 1.18.076 2.328-.374 3.437-.705 1.733-2.365 2.816-4.24 2.894-2.625.11-4.616-1.963-4.872-4.364a13.417 13.417 0 01-.05-.976zm4.824 3.248c1.203 0 1.965-.5 2.412-1.61.352-.871.362-1.776.16-2.68-.125-.563-.377-1.076-.825-1.455-1.474-1.25-3.604-.685-4.287 1.13-.273.724-.244 1.46-.137 2.204.223 1.554 1.171 2.414 2.677 2.411zM16.69 0c2.44 0 4.468 1.841 4.746 4.286.11.965.1 1.912-.158 2.856-.597 2.175-2.603 3.645-4.85 3.478-1.98-.15-3.369-1.18-4.063-3.04-.633-1.704-.618-3.417.207-5.07C13.345.968 14.961 0 16.69 0zm-.008 2.071c-1.092-.026-1.807.452-2.26 1.326-.572 1.1-.566 2.246-.184 3.4.278.834.86 1.367 1.705 1.608 1.302.371 2.543-.168 3.133-1.381.374-.771.43-1.598.311-2.44-.217-1.582-1.244-2.508-2.705-2.513zM27.282 1.778c-.034.322-.238.628-.409.942-1.184 2.207-2.378 4.411-3.57 6.616-1.183 2.188-2.36 4.382-3.549 6.569-.298.549-.552 1.127-.932 1.629-.244.324-.566.515-.982.408-.422-.108-.754-.34-.84-.806-.05-.274.041-.528.17-.763 1.228-2.28 2.461-4.561 3.695-6.841.982-1.82 1.967-3.638 2.95-5.458.484-.9.97-1.796 1.455-2.696.158-.29.38-.505.692-.622.678-.26 1.317.211 1.32 1.022z" fill="#E04E39"/></svg>