<?xml version="1.0" encoding="utf-8"?><svg width="36" height="31" fill="none" xmlns="http://www.w3.org/2000/svg" viewBox="0 0 36 31"><path d="M17.564.022c4.771 0 9.535.014 14.306-.007 1.933-.008 3.16.428 3.139 2.99-.074 6.273-.022 12.552-.022 18.825 0 1.756-.787 2.534-2.632 2.548-2.544.014-5.094.007-7.638.007-.743 0-.838.114-.787.82.022.329.177.45.493.45.36-.007.728-.007 1.088.007.926.043 1.316.436 1.33 1.328.015.842.008 1.684 0 2.533-.014 1.1-.396 1.47-1.55 1.47-3.978.007-7.962 0-11.94 0-1.154 0-2.3.007-3.455-.007-1.014-.014-1.382-.371-1.396-1.363a82.94 82.94 0 010-2.705c.014-.87.411-1.234 1.316-1.263.22-.007.448-.021.669 0 .573.05.735-.207.705-.735-.022-.47-.264-.535-.661-.535-2.345.007-4.69 0-7.028 0-.588 0-1.17.014-1.75-.107-.919-.193-1.507-.756-1.617-1.677-.213-1.756-.081-3.525-.088-5.288-.022-4.824-.008-9.648 0-14.472 0-.372.036-.743.103-1.114C.296.8.884.236 1.869.122 3.699-.085 5.544.043 7.375.029 10.771.007 14.168.022 17.564.022zm-.14 22.243h14.483c.838 0 .852-.007.852-.813V2.862c0-.785-.03-.814-.867-.814H3.112c-.846 0-.89.036-.89.864v18.59c0 .728.044.77.786.77 4.808-.006 9.609-.006 14.416-.006zm.199 6.68c2.14 0 4.278-.007 6.425.007.47 0 .58-.214.58-.62 0-.4-.102-.643-.58-.622-.36.015-.728.008-1.088-.007-.794-.035-1.213-.442-1.25-1.227-.022-.45-.037-.906 0-1.349.044-.57-.206-.75-.78-.742-2.08.021-4.16.007-6.24.007-1.485 0-1.316-.128-1.316 1.306 0 1.777-.213 2.005-2.037 2.005-.485 0-.75.093-.742.643.007.535.28.606.728.6 2.102-.008 4.205 0 6.3 0z" fill="#E04E39"/><path d="M31.692 12.196v5.174c0 .813-.184.992-.963 1.013-.897.021-1.103-.15-1.147-.956-.169-3.468-.066-6.937-.096-10.405-.007-.8.28-1.006 1.213-.992.816.014.993.186.993.985.007 1.727 0 3.454 0 5.18zM3.389 12.132c0-2.905 2.095-5.388 5.028-5.973.699-.143.934.035.963.728.045.934-.095 1.12-1.043 1.434-2.287.756-3.44 3.254-2.507 5.41.28.634-.53 1.72-1.257 1.676-.31-.021-.427-.27-.544-.492-.478-.885-.647-1.627-.64-2.783zM16.43 12.253c.052.892-.183 1.806-.661 2.676-.287.528-.544.585-1.059.236-.948-.635-.97-.7-.617-1.784.713-2.191-.5-4.418-2.78-5.117a1.315 1.315 0 01-.786-1.877c.184-.343.493-.285.794-.236 2.926.529 5.117 3.105 5.11 6.102zM25.7 13.459V9.584c0-.75.177-.942.875-.978.934-.05 1.265.136 1.287.9.051 1.92.044 3.839.044 5.751 0 .785.059 1.57-.051 2.348-.096.635-.375.814-1.22.77-.721-.035-.927-.213-.927-.87-.015-1.341-.007-2.697-.007-4.046zM21.826 14.216c0-1.057-.007-2.113 0-3.169.008-.635.235-.85.86-.892.875-.057 1.199.121 1.294.77.044.272.044.543.044.821 0 1.863.008 3.718-.007 5.58 0 .365.037.8-.412.957-.507.186-1.036.171-1.521-.1-.287-.157-.265-.464-.272-.735.014-1.085.022-2.162.014-3.232zM9.961 18.369c-1.367-.064-2.69-.357-3.845-1.163-.316-.222-.83-.386-.624-.928.147-.4 1.124-.892 1.514-.792.287.078.566.2.838.335 1.485.72 2.94.7 4.381-.135.772-.45 1.61-.214 2.037.542.228.4-.059.62-.338.828-1.162.863-2.492 1.256-3.963 1.313zM20.158 15.272c0 .742.014 1.484-.008 2.226-.014.671-.257.87-.992.878-.86.014-1.162-.164-1.169-.828-.022-1.506-.022-3.011.007-4.517.015-.7.272-.828 1.302-.785.669.028.86.207.867.856.007.721 0 1.449 0 2.17h-.007z" fill="#E04E39"/><path d="M9.388 10.09c0 .058.022.13 0 .18-.537 1.105-.691 2.44-1.97 3.118-.434.235-.72.15-.905-.3-.588-1.399.589-3.625 2.11-3.982.552-.136.758.128.765.985zM10.44 9.948c.021-.285-.104-.642.264-.82.375-.18.69.014 1.007.206 1.301.828 1.94 2.17 1.647 3.497-.17.785-.463.892-1.155.464a2.04 2.04 0 01-.838-.963c-.22-.521-.426-1.057-.779-1.513-.198-.264-.147-.564-.147-.871zM9.983 15.472c-.669.014-1.25-.115-1.786-.407-.404-.221-.478-.507-.118-.842 1.28-1.17 2.36-1 3.61-.079.44.328.375.7-.133.956-.507.25-1.043.393-1.573.372zM18.732 26.369c-.008.628-.486 1.091-1.103 1.077-.61-.014-1.14-.514-1.132-1.077 0-.578.507-1.05 1.14-1.057.646-.014 1.102.429 1.095 1.057z" fill="#E04E39"/></svg>