<?xml version="1.0" encoding="utf-8"?><svg width="29" height="30" fill="none" xmlns="http://www.w3.org/2000/svg" viewBox="0 0 29 30"><path d="M14.493 29.984c-3.783 0-7.569-.031-11.351.015-1.447.019-3.148-1.415-3.142-3.052.035-6.91.013-13.818.016-20.726 0-1.625 1.44-3.03 3.103-3.036 1.752-.003 3.5-.006 5.252.003.299.003.403-.084.394-.38-.02-.612-.01-1.224-.003-1.835.003-.587.368-.964.933-.973.577-.01.98.377.987.957.006.643.01 1.285-.004 1.928-.003.226.077.3.311.3 2.34-.006 4.675-.006 7.014.003.247 0 .33-.08.323-.318-.012-.621-.01-1.245-.006-1.866.003-.609.394-1.007.977-1.004.562.003.946.401.95.994.003.621.015 1.245-.004 1.866-.006.263.092.328.346.328 1.784-.01 3.564-.003 5.347-.006 1.552 0 3.053 1.427 3.056 2.931.003 6.327.003 12.654.003 18.98 0 .643-.019 1.286.004 1.928.057 1.514-1.622 2.978-3.056 2.97-3.821-.023-7.636-.007-11.45-.007zm.01-17.822H2.423c-.488 0-.488 0-.488.488v8.36c0 1.97 0 3.938.003 5.91 0 .778.292 1.096 1.079 1.18.124.012.25.012.378.012h22.328c.2 0 .396-.019.593-.062.384-.087.635-.306.692-.698.025-.17.05-.343.05-.516.004-4.754.004-9.512.004-14.266 0-.399 0-.402-.422-.402-4.043-.006-8.09-.006-12.138-.006zm-.016-1.872H26.72c.165 0 .35.037.35-.226-.007-1.294.018-2.591-.017-3.886-.022-.775-.358-1.1-1.123-1.109-1.803-.018-3.605-.003-5.408-.01-.206 0-.276.081-.272.273.006.49.006.979-.004 1.47-.01.566-.403.949-.964.952-.556 0-.952-.393-.959-.955-.003-.491-.006-.98 0-1.47.003-.195-.066-.272-.273-.272-2.357.003-4.715.003-7.076-.003-.216 0-.299.068-.296.284.01.47.007.939.004 1.409-.004.627-.372 1.007-.965 1.004-.578-.004-.955-.399-.962-1.017-.003-.438-.019-.877.007-1.316.016-.284-.08-.367-.372-.364-1.675.012-3.354.003-5.03.006-1.104 0-1.418.309-1.421 1.39 0 1.152.01 2.308-.006 3.46-.004.284.07.386.384.386 4.055-.012 8.11-.01 12.17-.006z" fill="#E04E39"/><path d="M9.324 14.637c.396 0 .796.006 1.193-.003.216-.007.298.077.295.287-.01.56-.01 1.121 0 1.68.003.22-.092.282-.302.279-.796-.007-1.59-.007-2.386 0-.229.003-.317-.078-.311-.303.01-.55.01-1.1-.003-1.65-.003-.232.098-.303.32-.296.4.012.797.006 1.194.006zM14.477 14.637c.397 0 .797.006 1.193-.003.213-.003.302.07.299.284-.01.559-.007 1.121 0 1.68.003.186-.054.285-.267.282-.816-.007-1.631-.004-2.45 0-.197 0-.286-.068-.282-.27.006-.57.006-1.14-.004-1.71-.003-.198.086-.273.283-.27.412.013.822.007 1.228.007zM19.707 14.637c.397 0 .796.006 1.193-.003.22-.007.292.086.292.29-.006.56-.006 1.121 0 1.68.003.192-.076.276-.276.276-.816-.007-1.631-.007-2.45 0-.206 0-.276-.087-.273-.275.007-.56.007-1.122 0-1.681-.003-.207.07-.296.292-.29.406.012.816.006 1.222.003zM9.298 21.164c-.397 0-.796-.006-1.193.003-.216.007-.295-.08-.292-.287.01-.54.01-1.078.003-1.619-.003-.191.07-.275.273-.275.816.007 1.631.007 2.447 0 .203 0 .279.08.276.272-.006.55-.01 1.1-.003 1.65.003.207-.099.262-.29.26-.405-.007-.815-.004-1.22-.004zM14.458 21.164c-.397 0-.796-.006-1.193.003-.216.007-.298-.077-.295-.287.01-.528.01-1.06.003-1.588-.003-.22.07-.312.305-.309.793.01 1.59.01 2.386 0 .228-.003.317.078.31.303a31.94 31.94 0 000 1.557c.007.263-.104.334-.351.324-.39-.012-.778-.003-1.165-.003zM19.694 21.164c-.396 0-.796-.006-1.193.003-.203.003-.311-.052-.308-.275.01-.55.006-1.1.003-1.65 0-.178.07-.259.257-.259.825.003 1.654.003 2.479 0 .187 0 .26.078.26.257-.006.55-.01 1.1 0 1.65.003.219-.102.28-.305.274-.4-.006-.796 0-1.193 0zM9.298 25.514c-.387 0-.774-.006-1.161.003-.216.006-.327-.059-.324-.293.013-.541.006-1.082 0-1.62-.003-.194.073-.274.276-.274.816.006 1.631.006 2.45 0 .203 0 .276.086.273.278-.006.54-.006 1.081 0 1.619.003.207-.07.293-.292.29-.406-.012-.816-.003-1.222-.003zM14.48 23.333c.397 0 .797.006 1.194-.003.212-.003.301.074.298.287-.01.54-.006 1.081.003 1.619.003.216-.092.281-.301.281-.797-.006-1.59-.006-2.387 0-.228.003-.317-.077-.314-.303.01-.528.013-1.06 0-1.588-.006-.231.092-.302.317-.296.394.012.794.003 1.19.003zM19.663 25.514c-.397 0-.797-.006-1.194.003-.203.003-.279-.08-.276-.272.007-.55.007-1.1 0-1.65-.003-.203.095-.262.289-.262.806.006 1.612.006 2.415 0 .216-.003.298.08.295.287-.006.528-.01 1.06.003 1.588.007.247-.105.318-.34.312-.396-.012-.793-.003-1.192-.006z" fill="#E04E39"/></svg>