<?xml version="1.0" encoding="utf-8"?><svg width="28" height="28" fill="none" xmlns="http://www.w3.org/2000/svg" viewBox="0 0 28 28"><path d="M14.002 27.992h-9.43c-2.422 0-4.556-2.135-4.556-4.559 0-6.23.04-12.46-.016-18.681C-.016 2.424 1.878.353 3.916.065c.184-.024.368-.048.552-.048h8.128c.855 0 1.414.504 1.422 1.272.008.808-.551 1.36-1.43 1.36-2.622.007-5.243 0-7.865 0-.231 0-.471-.009-.703.023-.863.144-1.359.76-1.367 1.72-.008 3.095 0 6.19 0 9.285v9.58c0 .248-.016.496.032.744.16.888.76 1.344 1.767 1.352h18.893c.208 0 .424.008.631-.024.864-.144 1.359-.744 1.367-1.672.008-2.279 0-4.558.008-6.83 0-.503-.008-1.015.008-1.519.016-.552.264-.983.775-1.207.464-.208.92-.16 1.335.143.328.24.511.584.511.984.008 2.863.048 5.718-.016 8.581-.048 2.136-2.237 4.183-4.38 4.191a1913.81 1913.81 0 00-9.582-.008z" fill="#E04E39"/><path d="M25.295 4.608c-.152.032-.216.16-.312.256-3.324 3.327-6.65 6.645-9.974 9.972-.6.6-1.406.632-1.942.088a1.304 1.304 0 01-.072-1.76c.096-.111.208-.215.312-.319 3.269-3.27 6.537-6.55 9.814-9.82.096-.097.216-.16.32-.24-.128-.193-.248-.137-.352-.137-.887-.008-1.782.008-2.67-.008-.998-.016-1.63-.88-1.31-1.767.184-.504.631-.856 1.183-.864a579.37 579.37 0 016.458 0 1.26 1.26 0 011.222 1.248c.008 2.151.008 4.31 0 6.462-.008.703-.607 1.255-1.302 1.255-.744-.008-1.311-.576-1.32-1.367-.015-.864 0-1.736-.007-2.6-.008-.135.032-.271-.048-.4z" fill="#E04E39"/></svg>