<?xml version="1.0" encoding="utf-8"?><svg width="36" height="36" fill="none" xmlns="http://www.w3.org/2000/svg" viewBox="0 0 36 36"><path d="M3.882 29.09c0-.683.019-1.372-.005-2.057-.037-1.168.493-2.034 1.427-2.69 1.351-.95 2.91-1.37 4.505-1.672a23.095 23.095 0 013.923-.386c.273-.005.404-.08.4-.378a59.771 59.771 0 010-2.248c.004-.303-.109-.359-.4-.321-2.787.32-5.566.288-8.32-.294-1.253-.265-2.478-.623-3.581-1.294a5.076 5.076 0 01-1.122-.898C.113 16.2-.009 15.418.005 14.58c.015-.94 0-1.886 0-2.826 0-.647.015-1.29.015-1.937 0-.889-.01-1.783-.005-2.672C.02 6.46-.01 5.772.057 5.097c.075-.824.568-1.434 1.21-1.919 1.113-.838 2.399-1.29 3.746-1.596 2.717-.62 5.467-.717 8.231-.429 1.76.182 3.478.531 5.087 1.29.784.372 1.497.843 2 1.569.131.19.286.163.478.14 3.046-.433 6.078-.392 9.09.279 1.24.274 2.436.67 3.506 1.373 1.023.67 1.62 1.536 1.591 2.826-.042 1.844.019 3.692.019 5.535 0 1.718-.024 3.431-.033 5.15-.005 1.084-.038 2.169.01 3.249.046 1.113-.456 1.909-1.3 2.546-1.094.825-2.37 1.234-3.68 1.55-1.563.383-3.158.527-4.759.583-.384.014-.478.181-.474.53.015 1.113-.023 2.226.015 3.334.042 1.294-.53 2.225-1.582 2.923-1.295.862-2.76 1.271-4.266 1.546-3.365.61-6.706.568-10.029-.163-1.225-.27-2.407-.675-3.463-1.378-1.051-.698-1.633-1.634-1.577-2.928.024-.67 0-1.346.005-2.016zm20.95-18.672c.492.028 1.233-.023 1.97-.093 1.563-.15 3.102-.41 4.552-1.034.395-.167.78-.363 1.099-.66.22-.206.243-.42.004-.63a3.68 3.68 0 00-.338-.265c-.896-.591-1.92-.875-2.952-1.09a22.506 22.506 0 00-9.23.01c-1.094.228-2.183.53-3.112 1.197-.432.312-.432.563-.01.884.634.48 1.37.745 2.122.96 1.844.54 3.73.72 5.894.72zM13.933 24.622a18.38 18.38 0 00-5.05.637c-.741.205-1.464.466-2.12.88-.658.41-.658.722-.015 1.141.493.326 1.033.55 1.591.726 1.281.41 2.6.643 3.942.731 2.417.168 4.815.107 7.176-.484.887-.224 1.745-.521 2.51-1.038.55-.373.55-.643-.004-1.02a5.53 5.53 0 00-1.29-.633c-2.094-.736-4.262-.945-6.74-.94zM17.84 4.794c-.15-.093-.25-.177-.362-.224-.502-.218-1.004-.428-1.534-.568-1.441-.386-2.905-.577-4.393-.647-2.15-.102-4.27.06-6.354.582-.887.22-1.77.49-2.501 1.062-.442.34-.432.544 0 .88.596.46 1.295.717 2.008.93 1.338.406 2.717.606 4.111.69 1.774.107 3.539.051 5.298-.238.155-.023.3-.06.39-.218.45-.755 1.136-1.234 1.91-1.607.45-.218.915-.414 1.427-.642zm6.748 10.438a19.202 19.202 0 004.81-.48c.953-.223 1.887-.507 2.727-1.034.352-.218.577-.498.535-.954-.033-.396-.019-.8-.005-1.201.01-.26-.056-.317-.31-.205-1.192.54-2.454.852-3.744 1.062-2 .325-4.013.428-6.036.242-1.966-.182-3.9-.517-5.725-1.309-.296-.13-.361-.032-.352.252.014.372.033.754-.005 1.122-.051.484.183.782.564 1.015.558.344 1.163.577 1.792.763 1.877.559 3.797.768 5.75.726zm.103 4.878c1.441-.046 2.976-.14 4.477-.474.995-.22 1.967-.498 2.854-1.025.422-.251.694-.558.643-1.094-.038-.358-.02-.721-.005-1.084.01-.298-.094-.326-.347-.215a12.24 12.24 0 01-1.652.592c-1.46.396-2.947.614-4.463.712a25.394 25.394 0 01-5.449-.237c-1.347-.2-2.651-.54-3.9-1.09-.3-.13-.366-.014-.36.26.009.415.018.83-.006 1.24-.018.349.127.586.413.777.578.386 1.216.642 1.878.847 1.896.587 3.852.75 5.917.791zm-2.28 10.634c0-.233-.01-.466 0-.699.014-.284-.07-.377-.362-.251-2.135.931-4.402 1.262-6.701 1.34-3.018.108-5.989-.172-8.809-1.354-.249-.107-.296 0-.296.214.005.4.024.8-.004 1.201-.028.428.16.708.511.927.704.437 1.474.717 2.272.922 2.684.68 5.406.768 8.142.456 1.427-.163 2.83-.447 4.144-1.057.737-.34 1.356-.736 1.103-1.7zm2.73-5.82a19.754 19.754 0 003.474-.34c1.267-.242 2.52-.54 3.618-1.275.282-.191.441-.42.422-.768-.019-.438-.01-.88-.004-1.318.004-.237-.066-.298-.3-.195-2.005.884-4.135 1.247-6.303 1.34-3.168.14-6.303-.06-9.269-1.336-.197-.084-.296-.056-.29.177.004.247.018.494-.006.736-.032.344.141.46.45.48.925.055 1.836.218 2.737.428 1.375.32 2.731.735 3.83 1.657.375.312.731.451 1.191.41.118-.005.235.004.45.004zm-11.014-9.222v-.736c-.004-.544-.004-.544-.54-.47-.037.005-.074.014-.117.019a23.525 23.525 0 01-5.457.088c-1.85-.181-3.666-.512-5.374-1.28-.24-.107-.3-.005-.3.219.005.386.028.777-.005 1.164-.047.47.178.758.545.986a6.62 6.62 0 001.562.699c3.055.945 6.171 1.005 9.32.605.25-.033.376-.14.362-.4-.005-.298.005-.596.005-.894zm-3.73-3.338a19.195 19.195 0 003.388-.219c.23-.037.347-.112.342-.368-.014-.619-.009-1.243 0-1.862.005-.233-.06-.317-.319-.284-1.614.21-3.233.312-4.87.2-2.174-.149-4.3-.465-6.308-1.35-.254-.112-.291-.023-.286.2.009.4.032.806-.005 1.201-.042.452.173.736.525.96.512.316 1.061.549 1.634.73 1.919.606 3.895.82 5.899.792z" fill="#E04E39"/></svg>