<?xml version="1.0" encoding="utf-8"?><svg width="38" height="35" fill="none" xmlns="http://www.w3.org/2000/svg" viewBox="0 0 38 35"><path d="M37.001 5.43c-.238.969-.678 1.813-1.519 2.406-.715.502-1.506.752-2.377.698-.297-.017-.456.075-.581.363a2267.604 2267.604 0 01-4.612 10.311c-.117.263-.117.41.151.597 1.272.899 1.787 2.59 1.293 4.128-.485 1.508-1.908 2.561-3.457 2.57-2.217.008-3.812-1.484-3.92-3.69-.03-.614.088-1.215.422-1.746.126-.2.109-.317-.088-.46a761.332 761.332 0 01-4.707-3.492c-.176-.13-.323-.138-.515-.046-.858.414-1.753.572-2.7.384-.292-.058-.576-.142-.81-.317-.218-.163-.332-.105-.482.083-1.327 1.667-2.657 3.326-3.988 4.989-.305.384-.603.777-.925 1.149-.184.208-.196.384-.08.626.423.882.574 1.792.315 2.758-.47 1.75-2.256 2.982-4.026 2.753-1.996-.26-3.377-1.755-3.39-3.668-.016-2.59 2.252-4.375 4.78-3.756.238.058.485.13.673.284.213.171.33.113.481-.08.85-1.073 1.707-2.139 2.561-3.208.766-.957 1.527-1.926 2.314-2.87.218-.26.222-.464.088-.752-.648-1.404-.56-2.753.377-4.002.958-1.279 2.653-1.772 4.226-1.254a3.711 3.711 0 012.536 3.443c.017.656-.071 1.287-.435 1.846-.143.222-.009.314.138.422 1.23.911 2.465 1.826 3.695 2.74.33.243.665.481.988.732.167.13.317.155.514.063.678-.314 1.381-.531 2.139-.473.259.021.338-.146.422-.334.825-1.846 1.649-3.693 2.477-5.54.72-1.612 1.436-3.225 2.16-4.833.096-.217.088-.338-.117-.497-1.273-.978-1.783-2.273-1.427-3.835.351-1.55 1.36-2.511 2.916-2.837 2.013-.422 3.888.764 4.423 2.749.025.092.055.18.08.267C37 4.54 37 4.983 37 5.43zm-1.548-.64c0-1.198-.992-2.218-2.164-2.222-1.226-.004-2.242 1.003-2.242 2.223 0 1.19 1.02 2.185 2.242 2.176 1.168-.004 2.164-1.007 2.164-2.176zM2.57 25.71c0 1.203.992 2.226 2.16 2.226a2.248 2.248 0 002.247-2.256c-.004-1.161-1.034-2.147-2.243-2.143-1.163 0-2.164 1.007-2.164 2.173zm23.166-.777c1.193.004 2.235-1.011 2.247-2.194.013-1.149-1.037-2.201-2.205-2.21-1.18-.008-2.23 1.02-2.247 2.206-.017 1.132 1.046 2.193 2.205 2.197zM17.46 13.743c.009-1.183-.991-2.185-2.188-2.198-1.164-.012-2.214 1.02-2.218 2.18-.009 1.191.992 2.215 2.163 2.223 1.252.005 2.235-.965 2.243-2.206zM37 33.984c-2.448.004-4.896.013-7.34.013H7.529c-.544 0-.544 0-.548-.54 0-.2.013-.396-.004-.597-.03-.338.117-.442.448-.442 1.883.012 3.77.004 5.657.004 7.8 0 15.596 0 23.396.004.176 0 .352.008.528.012C37 32.953 37 33.47 37 33.984zM2.532 33.993c-.398 0-.795-.005-1.193.004-.23.004-.347-.075-.339-.326.013-.313.009-.631 0-.944-.004-.205.084-.297.293-.297.82.004 1.637.004 2.457 0 .23 0 .31.109.305.322-.004.305-.008.605 0 .91.009.239-.092.343-.33.335-.398-.009-.795-.004-1.193-.004z" fill="#E04E39"/><path d="M37.001 5.43c-.238.969-.678 1.813-1.519 2.406-.715.502-1.506.752-2.377.698-.297-.017-.456.075-.581.363a2267.604 2267.604 0 01-4.612 10.311c-.117.263-.117.41.151.597 1.272.899 1.787 2.59 1.293 4.128-.485 1.508-1.908 2.561-3.457 2.57-2.217.008-3.812-1.484-3.92-3.69-.03-.614.088-1.215.422-1.746.126-.2.109-.317-.088-.46a761.332 761.332 0 01-4.707-3.492c-.176-.13-.323-.138-.515-.046-.858.414-1.753.572-2.7.384-.292-.058-.576-.142-.81-.317-.218-.163-.332-.105-.482.083-1.327 1.667-2.657 3.326-3.988 4.989-.305.384-.603.777-.925 1.149-.184.208-.196.384-.08.626.423.882.574 1.792.315 2.758-.47 1.75-2.256 2.982-4.026 2.753-1.996-.26-3.377-1.755-3.39-3.668-.016-2.59 2.252-4.375 4.78-3.756.238.058.485.13.673.284.213.171.33.113.481-.08.85-1.073 1.707-2.139 2.561-3.208.766-.957 1.527-1.926 2.314-2.87.218-.26.222-.464.088-.752-.648-1.404-.56-2.753.377-4.002.958-1.279 2.653-1.772 4.226-1.254a3.711 3.711 0 012.536 3.443c.017.656-.071 1.287-.435 1.846-.143.222-.009.314.138.422 1.23.911 2.465 1.826 3.695 2.74.33.243.665.481.988.732.167.13.317.155.514.063.678-.314 1.381-.531 2.139-.473.259.021.338-.146.422-.334.825-1.846 1.649-3.693 2.477-5.54.72-1.612 1.436-3.225 2.16-4.833.096-.217.088-.338-.117-.497-1.273-.978-1.783-2.273-1.427-3.835.351-1.55 1.36-2.511 2.916-2.837 2.013-.422 3.888.764 4.423 2.749.025.092.055.18.08.267C37 4.54 37 4.983 37 5.43zm-1.548-.64c0-1.198-.992-2.218-2.164-2.222-1.226-.004-2.242 1.003-2.242 2.223 0 1.19 1.02 2.185 2.242 2.176 1.168-.004 2.164-1.007 2.164-2.176zM2.57 25.71c0 1.203.992 2.226 2.16 2.226a2.248 2.248 0 002.247-2.256c-.004-1.161-1.034-2.147-2.243-2.143-1.163 0-2.164 1.007-2.164 2.173zm23.166-.777c1.193.004 2.235-1.011 2.247-2.194.013-1.149-1.037-2.201-2.205-2.21-1.18-.008-2.23 1.02-2.247 2.206-.017 1.132 1.046 2.193 2.205 2.197zM17.46 13.743c.009-1.183-.991-2.185-2.188-2.198-1.164-.012-2.214 1.02-2.218 2.18-.009 1.191.992 2.215 2.163 2.223 1.252.005 2.235-.965 2.243-2.206zM37 33.984c-2.448.004-4.896.013-7.34.013H7.529c-.544 0-.544 0-.548-.54 0-.2.013-.396-.004-.597-.03-.338.117-.442.448-.442 1.883.012 3.77.004 5.657.004 7.8 0 15.596 0 23.396.004.176 0 .352.008.528.012C37 32.953 37 33.47 37 33.984zM2.532 33.993c-.398 0-.795-.005-1.193.004-.23.004-.347-.075-.339-.326.013-.313.009-.631 0-.944-.004-.205.084-.297.293-.297.82.004 1.637.004 2.457 0 .23 0 .31.109.305.322-.004.305-.008.605 0 .91.009.239-.092.343-.33.335-.398-.009-.795-.004-1.193-.004z" stroke="#E04E39" stroke-width=".5"/></svg>