<?xml version="1.0" encoding="utf-8"?><svg width="35" height="20" fill="none" xmlns="http://www.w3.org/2000/svg" viewBox="0 0 35 20"><path d="M27.353 18.666h6.689c.175 0 .35-.007.518.055.31.116.464.343.437.678-.027.322-.215.514-.511.576-.121.027-.25.02-.377.02-8.142 0-16.29.014-24.431-.006-4.852-.007-9.017-3.81-9.602-8.717C-.577 5.831 3.036.972 8.386.116a9.452 9.452 0 011.46-.103c4.118.007 8.235-.041 12.347.014 4.064.054 7.145 1.932 8.908 5.66 1.783 3.762 1.252 7.373-1.251 10.677-.693.911-1.561 1.617-2.497 2.302zm-17.561 0c4.65.014 8.512-3.844 8.525-8.511.02-4.927-3.714-8.765-8.505-8.813-4.367-.048-8.511 3.536-8.532 8.635-.013 5.085 4.118 8.764 8.512 8.69zm5.006-.027c4.32.39 7.354-1.227 9.211-4.598 1.595-2.913 1.218-6.73-.915-9.471-.982-1.254-2.234-2.152-3.714-2.72-1.473-.57-3-.535-4.609-.48 6.412 3.92 6.426 13.39.027 17.269zm6.648-.007c3.377.377 6.762-1.44 8.35-4.44 1.669-3.16 1.339-6.95-.868-9.67-2.12-2.618-5.134-3.447-7.428-3.111 6.372 4.016 6.351 13.205-.054 17.22z" fill="#E04E39"/><path d="M9.214 3.74c3.25-.034 5.766 3.187 4.925 6.298-.693 2.556-3.613 3.858-5.787 2.577-1.884-1.11-2.254-3.79-.713-5.194.774-.706 1.696-.953 2.698-.624.936.308 1.487 1.007 1.662 2.001.148.83-.262 1.734-.976 2.172-.692.425-1.56.405-2.16-.061A1.78 1.78 0 018.15 9.53c-.02-.37.209-.664.539-.726.323-.062.612.15.726.52.162.535.317.693.64.631.444-.082.693-.425.666-.918-.04-.678-.653-1.165-1.346-1.07C8.44 8.1 7.814 9.005 8.002 9.95c.296 1.528 1.77 2.269 3.237 1.631 1.554-.678 2.2-2.44 1.507-4.125-.787-1.912-2.765-2.817-4.804-2.2-2.409.733-3.849 3.063-3.459 5.606.492 3.193 2.88 5.345 6.07 5.489.444.02.733.28.72.665-.007.39-.337.678-.781.657-2.678-.143-4.804-1.322-6.23-3.645-1.178-1.912-1.521-3.989-.768-6.168.841-2.426 3.176-4.098 5.72-4.118z" fill="#E04E39"/></svg>