<?xml version="1.0" encoding="utf-8"?><svg width="25" height="33" fill="none" xmlns="http://www.w3.org/2000/svg" viewBox="0 0 25 33"><path d="M12.47 33H5.328c-.608 0-.776-.163-.786-.753 0-.607.01-1.215-.01-1.813-.008-.29.085-.526.263-.753.42-.535.832-1.079 1.253-1.614a.719.719 0 00.177-.535c-.093-1.152.14-2.204.636-3.273 1.076-2.322 1.515-4.797 1.553-7.337.009-.326.102-.589.458-.689.177-.045.205-.163.205-.308 0-.308-.009-.617 0-.925.01-.218-.093-.335-.27-.472-.356-.263-.655-.253-1.01 0-.319.218-.665.39-1.01.572-.459.245-.74.172-1.001-.263-.533-.88-1.057-1.76-1.571-2.639-.252-.426-.168-.716.28-.97.43-.245.851-.49 1.291-.717.178-.1.187-.226.224-.408.103-.553-.215-.77-.645-.97a19.044 19.044 0 01-.926-.553c-.355-.218-.44-.499-.233-.852A119.68 119.68 0 015.84 4.962c.234-.381.533-.445.935-.227.43.236.851.49 1.281.716.402.218 1.029-.145 1.038-.589.01-.435 0-.87 0-1.306.01-.607.215-.798.832-.798h3.011c.59 0 .777.182.777.762v1.306c0 .462.664.843 1.075.616.43-.235.85-.48 1.29-.716.393-.209.702-.136.926.245.542.898 1.085 1.795 1.608 2.702.234.4.15.69-.252.925-.393.236-.795.444-1.197.671-.524.3-.514 1.007.019 1.306.374.208.757.426 1.131.635.243.136.412.308.402.598-.009.172.103.245.243.281.328.09.655.182.982.281.533.155.683.408.533.925-.065.245-.14.48-.215.726-.196.634.075.97.767.96.271 0 .542-.017.813-.035.468-.028.749.208.767.652.028.88.056 1.76.075 2.64.01.48-.178.661-.664.698-.29.018-.589.045-.879.054-.636.018-.898.39-.682.97.093.254.196.517.29.771.158.462.046.725-.421.889-.86.308-1.72.625-2.6.897-.243.073-.252.155-.187.354.262.77.561 1.533.926 2.258.187.363.318.716.252 1.115-.168 1.107.16 2.04.973 2.82.598.572.841 1.26.73 2.077-.048.354-.01.707-.01 1.061 0 .617-.169.78-.786.78-2.365.018-4.76.018-7.153.018zM11.425 3.91c-.225 0-.45.018-.674 0-.318-.036-.458.063-.43.39.028.372 0 .752.01 1.133.009.336-.122.572-.45.699a5.02 5.02 0 00-1.103.616c-.243.182-.495.19-.757.036-.374-.208-.767-.408-1.132-.634-.215-.127-.327-.091-.44.118-.252.453-.513.897-.794 1.342-.122.19-.056.272.112.371.365.19.71.408 1.076.599.346.181.495.444.42.816a2.842 2.842 0 000 1.052c.075.372-.074.635-.42.816-.374.19-.74.408-1.104.608-.15.081-.196.163-.103.326.29.463.561.925.833 1.396.102.182.205.21.392.1.374-.217.758-.426 1.132-.644.271-.163.533-.163.785.028.346.263.73.471 1.132.634.299.118.42.336.42.644-.009.426.01.844 0 1.27-.009.226.085.299.318.299.505-.01 1.01-.018 1.525 0 .27.009.346-.109.346-.345-.01-.39 0-.78 0-1.17.009-.371.168-.625.551-.752.356-.118.674-.326.973-.553.262-.2.524-.227.813-.064.384.218.777.426 1.17.644.168.1.27.064.373-.1.262-.453.524-.897.795-1.333.131-.208.075-.326-.13-.435-.365-.19-.711-.399-1.076-.598-.271-.145-.412-.354-.384-.671.038-.436.038-.87 0-1.306-.028-.318.113-.517.393-.671.346-.19.692-.4 1.038-.58.234-.118.3-.245.14-.481a22.228 22.228 0 01-.766-1.279c-.113-.2-.225-.235-.421-.118-.346.227-.692.4-1.02.599-.364.227-.691.227-1.028-.055a2.626 2.626 0 00-.851-.48c-.43-.136-.59-.417-.59-.834 0-.363-.008-.735 0-1.098.01-.272-.102-.371-.373-.353-.234.027-.468.018-.701.018zm1.084 21.355c1.44 0 2.871-.01 4.311 0 .28 0 .393-.027.253-.326a19.664 19.664 0 01-1.263-3.881c-.056-.282-.159-.254-.346-.11-.243.2-.495.381-.757.563-.356.245-.664.208-.926-.109-.58-.707-1.15-1.424-1.711-2.14-.262-.335-.215-.635.121-.898.225-.181.468-.353.692-.526.085-.063.169-.127.131-.254-.065-.244-.411-.507-.682-.507-.786 0-1.58.009-2.366-.01-.262 0-.365.082-.356.336.029.553-.037 1.097-.102 1.641-.243 2.032-.748 4-1.59 5.876-.122.272-.084.345.234.345 1.458-.01 2.908 0 4.357 0zm-.01 6.583h5.799c.963 0 .953 0 .972-.925a1.216 1.216 0 00-.309-.88 15.262 15.262 0 01-.888-1.15c-.159-.227-.346-.3-.617-.3-3.123.009-6.246.027-9.37-.018-.71-.01-1.197.145-1.515.762-.009.018-.028.036-.037.054-.037.063-.14.118-.084.209.047.081.15.045.234.045h2.861c.468 0 .72.208.71.571 0 .372-.252.571-.72.571H6.356c-.692 0-.626-.072-.626.608 0 .444 0 .444.477.444 2.094.01 4.198.01 6.293.01zm8.96-14.871c0-.163-.01-.317 0-.48.018-.255-.094-.354-.356-.336-.243.018-.496.009-.739.018-.318.018-.533-.118-.701-.372-.122-.2-.234-.408-.412-.553-.402-.326-.42-.68-.262-1.134.262-.761.234-.752-.56-.97-.262-.072-.393 0-.515.218-.262.471-.552.934-.823 1.396-.299.508-.57.58-1.103.29-.412-.226-.814-.462-1.225-.689-.253-.136-1.029.154-1.02.408.029.807-.299 1.687.459 2.358.084.073.14.181.196.281.206.381.15.635-.187.907-.215.172-.44.345-.664.508-.13.1-.15.181-.037.308.262.308.514.626.757.943.113.154.206.145.346.027.215-.181.45-.335.664-.508a.668.668 0 01.73-.09c.29.136.598.217.916.263.3.036.495.2.598.471.094.254.197.517.29.771.047.136.122.209.29.145.383-.145.776-.28 1.169-.408.187-.063.196-.163.13-.317-.093-.236-.177-.472-.26-.707-.113-.309-.085-.572.158-.817.159-.163.318-.353.402-.562.187-.444.524-.562.982-.562.795.009.795 0 .776-.807zm-8.96 10.482c1.572 0 3.134-.009 4.705.01.27 0 .402-.073.364-.354-.01-.082 0-.163 0-.236 0-.462 0-.462-.486-.462H8.095c-.748 0-.646-.091-.674.634-.009.336.113.427.44.418 1.543-.019 3.095-.01 4.638-.01z" fill="#E04E39"/><path d="M1.231 12.144c.084 3.618 1.58 6.547 4.554 8.76.084.063.168.117.252.19.281.235.346.562.15.825-.206.272-.552.326-.879.109a12.049 12.049 0 01-2.141-1.841C1.493 18.355.455 16.233.118 13.812c-.467-3.527.45-6.701 2.787-9.449C4.953 1.96 7.608.537 10.788.12c3.656-.471 6.947.454 9.78 2.766C23 4.862 24.404 7.42 24.88 10.457c.168 1.088.15 2.185.009 3.283-.056.426-.337.643-.72.589-.346-.054-.542-.345-.496-.744.45-3.7-.71-6.864-3.478-9.44-1.74-1.623-3.853-2.575-6.256-2.847C8.562.673 3.746 3.548 1.876 8.471c-.42 1.097-.636 2.358-.645 3.673z" fill="#E04E39"/><path d="M3.157 13.195c.3.01.496.173.561.436.253.907.627 1.768 1.123 2.575a.565.565 0 01-.216.825c-.29.154-.617.073-.813-.235a9.258 9.258 0 01-1.225-2.793c-.122-.481.13-.817.57-.808zM6.898 18.663c.01.445-.458.753-.842.554a2.347 2.347 0 01-.898-.798c-.15-.227-.093-.463.085-.662.177-.19.42-.254.645-.136.383.2.701.49.944.843.047.064.056.154.066.2zM11.424 7.7c1.3 0 2.3.98 2.3 2.24-.01 1.233-1.029 2.204-2.31 2.195-1.262 0-2.3-1.007-2.29-2.222 0-1.224 1.028-2.213 2.3-2.213zm1.075 2.222a1.07 1.07 0 00-1.047-1.07c-.58-.01-1.113.499-1.123 1.06 0 .554.505 1.062 1.066 1.07a1.076 1.076 0 001.104-1.06zM12.78 30.797c-.281 0-.562.008-.851 0-.356-.01-.58-.227-.59-.554-.009-.335.225-.58.59-.59.56-.008 1.131-.008 1.692 0 .365.01.598.255.59.59-.01.318-.235.535-.59.554-.28.008-.561 0-.841 0zM17.034 18.727c-.972 0-1.73-.744-1.72-1.669.009-.906.776-1.659 1.71-1.659a1.689 1.689 0 011.73 1.705c-.018.916-.757 1.623-1.72 1.623zm0-1.16c.262 0 .524-.255.524-.509 0-.253-.225-.462-.505-.471-.3-.01-.496.172-.496.453a.481.481 0 00.477.526z" fill="#E04E39"/></svg>