<?xml version="1.0" encoding="utf-8"?><svg width="30" height="40" fill="none" xmlns="http://www.w3.org/2000/svg" viewBox="0 0 30 40"><path d="M16.675 1c.774.132 1.556.191 2.33.35 2.492.526 4.765 1.507 6.618 3.331 1.833 1.805 2.828 4.044 3.195 6.586.285 1.963.24 3.919-.277 5.842-.484 1.798-1.362 3.398-2.363 4.946-.93 1.442-1.956 2.825-2.808 4.327-1.298 2.285-2.092 4.722-2.111 7.382 0 .37-.123.488-.485.488-3.873-.014-7.754-.007-11.627 0-.29 0-.413-.093-.413-.402-.02-3.056-1.033-5.802-2.531-8.397-1.052-1.818-2.266-3.537-3.312-5.36-1.31-2.3-2.047-4.736-1.866-7.423.207-3.115 1.182-5.9 3.454-8.087C5.97 3.14 7.765 2.238 9.728 1.672a17.039 17.039 0 013.357-.613c.077-.013.161-.04.245-.059h3.345zm-1.66 31.592c1.42 0 2.835-.007 4.255 0 .252 0 .355-.079.394-.349.342-2.575 1.259-4.94 2.589-7.139.93-1.534 1.995-2.983 2.97-4.485 1.904-2.924 2.569-6.098 1.891-9.543-.626-3.2-2.305-5.617-5.216-7.066-1.634-.81-3.377-1.192-5.185-1.31-2.24-.152-4.454-.073-6.63.546-1.795.513-3.409 1.363-4.706 2.746-1.776 1.89-2.538 4.221-2.725 6.783-.168 2.28.44 4.347 1.569 6.29.697 1.205 1.517 2.325 2.253 3.503 1.879 2.99 3.46 6.099 3.867 9.695.033.29.194.322.42.322 1.414.007 2.834.007 4.254.007zM18.089 38.993c-.884 0-1.769-.02-2.647.007-.38.013-.497-.132-.465-.494.02-.23.02-.468 0-.705-.032-.355.104-.474.452-.474 1.233.013 2.466.007 3.706.007.555 0 1.117.013 1.672-.007.355-.013.478.139.458.481-.012.27-.012.54-.006.817.006.27-.103.368-.368.368-.936-.006-1.866 0-2.802 0zM10.316 38.993c-.4 0-.8-.006-1.194.007-.259.007-.381-.086-.375-.362.013-.33.007-.665 0-1.001 0-.198.09-.297.284-.297h2.608c.213 0 .304.119.304.33v1c0 .231-.097.337-.33.33-.432-.013-.864-.007-1.297-.007z" fill="#E04E39"/><path d="M13.3 19.73c.412-.975.8-1.897 1.18-2.812 1.104-2.634 2.215-5.269 3.319-7.903.032-.086.045-.217.168-.21.09.006.116.118.155.19 1.097 1.917 2.208 3.833 3.292 5.763.194.349.407.494.8.474.57-.033 1.137 0 1.705-.013.29-.007.426.085.407.402-.02.296-.02.592 0 .888.013.277-.11.37-.368.37-.968-.007-1.937-.014-2.905.006-.342.006-.452-.23-.581-.468-.678-1.258-1.356-2.509-2.034-3.767-.045-.079-.058-.217-.174-.21-.11.006-.116.144-.155.23-1.44 3.425-2.886 6.856-4.326 10.287-.045.105-.051.283-.187.29-.129.006-.168-.158-.226-.264a992.144 992.144 0 01-3.26-5.696c-.168-.29-.355-.422-.691-.415-1.091.02-2.182 0-3.273.013-.349.006-.523-.086-.484-.48.025-.297.012-.594.006-.89 0-.204.084-.29.284-.29 1.55 0 3.099.007 4.649 0 .245 0 .322.178.42.35.651 1.211 1.31 2.423 1.962 3.635.097.151.193.31.316.52z" fill="#E04E39"/><path d="M16.675 1c.774.132 1.556.191 2.33.35 2.492.526 4.765 1.507 6.618 3.331 1.833 1.805 2.828 4.044 3.195 6.586.285 1.963.24 3.919-.277 5.842-.484 1.798-1.362 3.398-2.363 4.946-.93 1.442-1.956 2.825-2.808 4.327-1.298 2.285-2.092 4.722-2.111 7.382 0 .37-.123.488-.485.488-3.873-.014-7.754-.007-11.627 0-.29 0-.413-.093-.413-.402-.02-3.056-1.033-5.802-2.531-8.397-1.052-1.818-2.266-3.537-3.312-5.36-1.31-2.3-2.047-4.736-1.866-7.423.207-3.115 1.182-5.9 3.454-8.087C5.97 3.14 7.765 2.238 9.728 1.672a17.039 17.039 0 013.357-.613c.077-.013.161-.04.245-.059h3.345zm-1.66 31.592c1.42 0 2.835-.007 4.255 0 .252 0 .355-.079.394-.349.342-2.575 1.259-4.94 2.589-7.139.93-1.534 1.995-2.983 2.97-4.485 1.904-2.924 2.569-6.098 1.891-9.543-.626-3.2-2.305-5.617-5.216-7.066-1.634-.81-3.377-1.192-5.185-1.31-2.24-.152-4.454-.073-6.63.546-1.795.513-3.409 1.363-4.706 2.746-1.776 1.89-2.538 4.221-2.725 6.783-.168 2.28.44 4.347 1.569 6.29.697 1.205 1.517 2.325 2.253 3.503 1.879 2.99 3.46 6.099 3.867 9.695.033.29.194.322.42.322 1.414.007 2.834.007 4.254.007zM18.089 38.993c-.884 0-1.769-.02-2.647.007-.38.013-.497-.132-.465-.494.02-.23.02-.468 0-.705-.032-.355.104-.474.452-.474 1.233.013 2.466.007 3.706.007.555 0 1.117.013 1.672-.007.355-.013.478.139.458.481-.012.27-.012.54-.006.817.006.27-.103.368-.368.368-.936-.006-1.866 0-2.802 0zM10.316 38.993c-.4 0-.8-.006-1.194.007-.259.007-.381-.086-.375-.362.013-.33.007-.665 0-1.001 0-.198.09-.297.284-.297h2.608c.213 0 .304.119.304.33v1c0 .231-.097.337-.33.33-.432-.013-.864-.007-1.297-.007z" stroke="#E04E39" stroke-width=".5"/><path d="M13.3 19.73c.412-.975.8-1.897 1.18-2.812 1.104-2.634 2.215-5.269 3.319-7.903.032-.086.045-.217.168-.21.09.006.116.118.155.19 1.097 1.917 2.208 3.833 3.292 5.763.194.349.407.494.8.474.57-.033 1.137 0 1.705-.013.29-.007.426.085.407.402-.02.296-.02.592 0 .888.013.277-.11.37-.368.37-.968-.007-1.937-.014-2.905.006-.342.006-.452-.23-.581-.468-.678-1.258-1.356-2.509-2.034-3.767-.045-.079-.058-.217-.174-.21-.11.006-.116.144-.155.23-1.44 3.425-2.886 6.856-4.326 10.287-.045.105-.051.283-.187.29-.129.006-.168-.158-.226-.264a992.144 992.144 0 01-3.26-5.696c-.168-.29-.355-.422-.691-.415-1.091.02-2.182 0-3.273.013-.349.006-.523-.086-.484-.48.025-.297.012-.594.006-.89 0-.204.084-.29.284-.29 1.55 0 3.099.007 4.649 0 .245 0 .322.178.42.35.651 1.211 1.31 2.423 1.962 3.635.097.151.193.31.316.52z" stroke="#E04E39" stroke-width=".5"/></svg>