<?xml version="1.0" encoding="utf-8"?><svg width="32" height="37" fill="none" xmlns="http://www.w3.org/2000/svg" viewBox="0 0 32 37"><path d="M25.63 10.907c.052.833-.059 1.682-.237 2.52-.041.2-.019.341.122.496a12.84 12.84 0 011.827 2.551c.108.2.253.273.472.265 1.392-.041 2.38.652 3.112 1.804 1.57 2.483 1.4 6.239-.387 8.395-.672.815-1.533 1.27-2.577 1.224-.568-.023-.928.144-1.166.663a2.367 2.367 0 01-.4.58c-.212.235-.194.42-.03.694.846 1.432 1.128 2.975.627 4.593-.55 1.77-2.05 2.505-3.78 1.93a5.47 5.47 0 01-2.893-2.214c-.182-.277-.334-.334-.653-.231-2.76.875-5.54.92-8.33.151-.3-.083-.452-.03-.627.235a5.478 5.478 0 01-2.766 2.202c-2.02.74-3.743-.314-4.089-2.486-.215-1.342.03-2.6.661-3.782.134-.247.13-.406-.044-.626a12.26 12.26 0 01-2.67-6.014 10.737 10.737 0 01.256-4.506c.085-.307.026-.467-.241-.641-.977-.625-1.604-1.512-1.79-2.695-.2-1.265.75-3.058 1.905-3.581a1.117 1.117 0 011.463.5c.297.576.115 1.224-.442 1.58-.628.399-.84 1.028-.572 1.729.045.121.123.235.208.33.275.306.368.295.557-.065a12.098 12.098 0 011.734-2.47c.33-.365.72-.55 1.218-.388.468.152.74.478.813.963.075.493-.2.853-.5 1.194-.714.811-1.312 1.702-1.724 2.71-1.474 3.581-.698 7.587 2.016 10.426.082.083.164.167.246.254.497.519.512 1.13.066 1.705-.571.747-1.05 1.539-1.095 2.524-.022.485.063.94.535 1.183.49.254.961.14 1.381-.186.642-.5 1.073-1.171 1.393-1.921.349-.823.876-1.058 1.715-.755 3.079 1.126 6.127 1.05 9.153-.204.788-.326 1.36-.072 1.679.727a4.77 4.77 0 001.2 1.778c.103.098.215.19.337.265.424.265.87.371 1.311.068.434-.3.546-.765.48-1.258-.123-.944-.536-1.758-1.148-2.467-.587-.675-.598-1.217 0-1.872a9.404 9.404 0 001.511-2.195c.264-.534.665-.777 1.248-.75.4.019.802-.011 1.203.004.642.022 1.08-.288 1.374-.85.234-.45.349-.943.39-1.44.081-1.038.107-2.084-.208-3.1-.323-1.038-.776-1.44-1.835-1.356-1.103.087-1.82-.25-2.22-1.357-.275-.75-.806-1.376-1.33-1.986a.78.78 0 00-.42-.254c-.742-.193-1.102-.876-.801-1.588.623-1.497.698-3.07.63-4.662-.018-.473-.163-.564-.597-.386-1.077.443-2.053 1.05-2.893 1.88-.33.326-.575.704-.79 1.118-.19.364-.19.67.048 1.027.386.583.234 1.254-.312 1.622-.535.36-1.207.208-1.593-.368a2.975 2.975 0 01-.513-1.755c.008-.318-.089-.42-.404-.462-.687-.09-1.37-.045-2.054-.045-.728.003-1.207-.376-1.277-1.039-.067-.614.39-1.163 1.08-1.254 1.1-.148 2.195-.03 3.283.125.27.038.427-.038.605-.216 1.426-1.43 3.108-2.392 5.058-2.85 1.173-.273 1.83.125 2.168 1.3.26.959.372 1.936.323 2.96z" fill="#58595B"/><path d="M8.345 4.085c-.698.72-1.39 1.447-2.095 2.16a1.148 1.148 0 01-1.329.208c-.397-.204-.639-.674-.594-1.155.026-.289.156-.527.353-.728C6.046 3.17 7.413 1.765 8.79.378c.531-.534 1.192-.496 1.753.076 1.1 1.118 2.19 2.24 3.286 3.362.245.254.502.496.74.758.47.519.482 1.216.036 1.671-.449.466-1.166.455-1.667-.042-.69-.69-1.37-1.39-2.083-2.114-.137.23-.074.458-.074.667-.008 2.387-.004 4.775-.008 7.162 0 .198-.015.395-.04.592-.079.602-.517 1.015-1.092 1.03-.587.016-1.051-.39-1.14-1.019-.097-.682-.041-1.368-.045-2.054-.011-1.952-.004-3.904 0-5.855v-.467c-.033-.026-.074-.041-.111-.06zM19.165 20.271c-.49 0-.984.004-1.474 0-.676-.007-1.162-.462-1.188-1.102-.026-.664.427-1.206 1.107-1.224 1.02-.03 2.042-.03 3.063 0a1.162 1.162 0 011.125 1.22c-.033.64-.55 1.099-1.236 1.103-.465.003-.929 0-1.397.003z" fill="#58595B"/></svg>