<?xml version="1.0" encoding="utf-8"?><svg width="38" height="38" fill="none" xmlns="http://www.w3.org/2000/svg" viewBox="0 0 38 38"><path d="M27.697 1c.602.139 1.217.221 1.798.45.286.113.286.209.078.4-.325.299-.594.723-.97.892-.378.165-.833-.117-1.262-.156-1.837-.177-3.57.156-5.178 1.067-2.53 1.434-4.064 3.606-4.528 6.47-.42 2.592.286 4.911 1.915 6.961.13.16.195.156.29-.03.807-1.552 2.007-2.692 3.615-3.385.307-.134.095-.243-.005-.343-.641-.624-1.118-1.347-1.352-2.219-.767-2.847 1.348-5.621 4.29-5.625 2.236-.005 3.922 1.24 4.476 3.367.447 1.717-.09 3.182-1.295 4.438-.282.295-.286.29.078.451 1.499.668 2.604 1.76 3.406 3.177.199.356.208.364.459.03 1.776-2.349 2.392-4.932 1.542-7.801-.052-.178.005-.29.122-.403.268-.264.537-.525.793-.798.208-.22.299-.173.398.1.737 2.02.833 4.07.295 6.146a10.45 10.45 0 01-8.848 7.758c-5.82.711-11.032-3.294-11.77-9.102-.727-5.72 3.13-10.96 8.997-11.78.086-.017.177-.043.268-.065h2.388zm-1.084 19.456c.247.022.633-.026 1.015-.073a8.989 8.989 0 004.242-1.647c.212-.152.247-.29.138-.53-1.235-2.751-3.878-4.147-6.829-3.54-2.023.416-3.44 1.616-4.242 3.528-.087.2-.113.347.113.503 1.633 1.127 3.423 1.764 5.563 1.76zm-.116-13.41c-1.66-.004-2.99 1.305-2.995 2.947-.004 1.617 1.33 2.948 2.956 2.952 1.664.004 2.98-1.296 2.98-2.947a2.933 2.933 0 00-2.941-2.952z" fill="#E04E39"/><path d="M1 3.952h13.03c.468 0 .477.017.48.468 0 .234-.017.468 0 .702.027.312-.103.403-.406.403-1.7-.009-3.398-.004-5.092-.004-2.002 0-4.004.004-6.006-.01-.346-.003-.468.088-.468.452.013 5.686.009 11.377.009 17.068v11.837c0 .554-.004.554.559.554 6.86 0 13.719 0 20.582.013.482 0 .828-.134 1.166-.48a286.78 286.78 0 014.294-4.3.916.916 0 00.3-.711c-.01-1.513.004-3.021-.01-4.534-.004-.342.092-.503.456-.468.242.022.494.013.736 0 .29-.017.39.104.39.39-.008 1.136-.004 2.271-.004 3.407 0 .633-.009 1.265 0 1.898a.758.758 0 01-.247.59 1102.777 1102.777 0 00-5.512 5.517c-.204.204-.42.256-.689.256-4.485-.004-8.97-.004-13.45-.004H1.355c-.117 0-.234-.013-.35-.018C1 25.97 1 14.96 1 3.952z" fill="#E04E39"/><path d="M12.275 29.532H7.461c-.494 0-.498-.009-.503-.48-.013-1.093-.013-1.089 1.088-1.089 2.998.005 5.993 0 8.991 0 .481 0 .481 0 .486.494 0 .213-.018.425.004.633.03.334-.096.45-.438.447-1.512-.014-3.02-.005-4.532-.005h-.282zM11.52 18.97c1.357 0 2.718.008 4.074-.005.334-.004.455.1.446.438-.03 1.33.178 1.127-1.13 1.131-2.484.009-4.966.005-7.445 0-.503 0-.507-.004-.503-.511 0-1.049 0-1.053 1.049-1.053h3.51zM17.475 25.038h-3.9c-.628 0-.628.004-.637-.611 0-.2.008-.4 0-.599-.013-.273.104-.368.372-.368 1.04.009 2.085 0 3.125 0 1.711 0 3.419.009 5.13-.004.36-.005.485.117.455.463a4.21 4.21 0 000 .703c.022.303-.095.411-.403.411-1.378-.004-2.76 0-4.142.005zM10.03 9.976c.863 0 1.73.009 2.592-.004.303-.005.429.095.403.403a6.268 6.268 0 000 .806c.017.282-.109.364-.373.364a727.01 727.01 0 00-5.325.005c-.269 0-.386-.1-.373-.373.013-.282.013-.56 0-.841-.013-.277.113-.364.377-.364.901.008 1.803.004 2.7.004zM10.005 14.47c.866 0 1.728.014 2.595-.004.312-.004.46.079.433.412a4.19 4.19 0 00.005.737c.026.32-.1.438-.42.433-.971-.013-1.942-.004-2.908-.004-.771 0-1.543-.013-2.314.004-.312.005-.46-.082-.433-.416a5.728 5.728 0 000-.771c-.018-.286.09-.395.385-.39.88.008 1.768 0 2.657 0zM8.458 25.033c-.386 0-.772-.004-1.157 0-.23.005-.351-.078-.347-.325.009-.316.009-.633.004-.945-.004-.203.087-.294.295-.294.819.004 1.634.004 2.453 0 .23 0 .312.1.303.32-.009.304-.009.607 0 .91.009.239-.091.343-.33.339-.402-.01-.814-.005-1.221-.005zM32.654 2.963c.065.04.126.074.178.117a14.326 14.326 0 011.759 1.756c.13.156.139.277-.009.42-.242.234-.485.477-.719.72-.126.134-.23.125-.347-.013a14.242 14.242 0 00-1.807-1.808c-.086-.069-.16-.156-.056-.264.286-.29.576-.577.871-.863.03-.034.082-.043.13-.065z" fill="#E04E39"/><path d="M27.697 1c.602.139 1.217.221 1.798.45.286.113.286.209.078.4-.325.299-.594.723-.97.892-.378.165-.833-.117-1.262-.156-1.837-.177-3.57.156-5.178 1.067-2.53 1.434-4.064 3.606-4.528 6.47-.42 2.592.286 4.911 1.915 6.961.13.16.195.156.29-.03.807-1.552 2.007-2.692 3.615-3.385.307-.134.095-.243-.005-.343-.641-.624-1.118-1.347-1.352-2.219-.767-2.847 1.348-5.621 4.29-5.625 2.236-.005 3.922 1.24 4.476 3.367.447 1.717-.09 3.182-1.295 4.438-.282.295-.286.29.078.451 1.499.668 2.604 1.76 3.406 3.177.199.356.208.364.459.03 1.776-2.349 2.392-4.932 1.542-7.801-.052-.178.005-.29.122-.403.268-.264.537-.525.793-.798.208-.22.299-.173.398.1.737 2.02.833 4.07.295 6.146a10.45 10.45 0 01-8.848 7.758c-5.82.711-11.032-3.294-11.77-9.102-.727-5.72 3.13-10.96 8.997-11.78.086-.017.177-.043.268-.065h2.388zm-1.084 19.456c.247.022.633-.026 1.015-.073a8.989 8.989 0 004.242-1.647c.212-.152.247-.29.138-.53-1.235-2.751-3.878-4.147-6.829-3.54-2.023.416-3.44 1.616-4.242 3.528-.087.2-.113.347.113.503 1.633 1.127 3.423 1.764 5.563 1.76zm-.116-13.41c-1.66-.004-2.99 1.305-2.995 2.947-.004 1.617 1.33 2.948 2.956 2.952 1.664.004 2.98-1.296 2.98-2.947a2.933 2.933 0 00-2.941-2.952z" stroke="#E04E39" stroke-width=".5"/><path d="M1 3.952h13.03c.468 0 .477.017.48.468 0 .234-.017.468 0 .702.027.312-.103.403-.406.403-1.7-.009-3.398-.004-5.092-.004-2.002 0-4.004.004-6.006-.01-.346-.003-.468.088-.468.452.013 5.686.009 11.377.009 17.068v11.837c0 .554-.004.554.559.554 6.86 0 13.719 0 20.582.013.482 0 .828-.134 1.166-.48a286.78 286.78 0 014.294-4.3.916.916 0 00.3-.711c-.01-1.513.004-3.021-.01-4.534-.004-.342.092-.503.456-.468.242.022.494.013.736 0 .29-.017.39.104.39.39-.008 1.136-.004 2.271-.004 3.407 0 .633-.009 1.265 0 1.898a.758.758 0 01-.247.59 1102.777 1102.777 0 00-5.512 5.517c-.204.204-.42.256-.689.256-4.485-.004-8.97-.004-13.45-.004H1.355c-.117 0-.234-.013-.35-.018C1 25.97 1 14.96 1 3.952z" stroke="#E04E39" stroke-width=".5"/><path d="M12.275 29.532H7.461c-.494 0-.498-.009-.503-.48-.013-1.093-.013-1.089 1.088-1.089 2.998.005 5.993 0 8.991 0 .481 0 .481 0 .486.494 0 .213-.018.425.004.633.03.334-.096.45-.438.447-1.512-.014-3.02-.005-4.532-.005h-.282zM11.52 18.97c1.357 0 2.718.008 4.074-.005.334-.004.455.1.446.438-.03 1.33.178 1.127-1.13 1.131-2.484.009-4.966.005-7.445 0-.503 0-.507-.004-.503-.511 0-1.049 0-1.053 1.049-1.053h3.51zM17.475 25.038h-3.9c-.628 0-.628.004-.637-.611 0-.2.008-.4 0-.599-.013-.273.104-.368.372-.368 1.04.009 2.085 0 3.125 0 1.711 0 3.419.009 5.13-.004.36-.005.485.117.455.463a4.21 4.21 0 000 .703c.022.303-.095.411-.403.411-1.378-.004-2.76 0-4.142.005zM10.03 9.976c.863 0 1.73.009 2.592-.004.303-.005.429.095.403.403a6.268 6.268 0 000 .806c.017.282-.109.364-.373.364a727.01 727.01 0 00-5.325.005c-.269 0-.386-.1-.373-.373.013-.282.013-.56 0-.841-.013-.277.113-.364.377-.364.901.008 1.803.004 2.7.004zM10.005 14.47c.866 0 1.728.014 2.595-.004.312-.004.46.079.433.412a4.19 4.19 0 00.005.737c.026.32-.1.438-.42.433-.971-.013-1.942-.004-2.908-.004-.771 0-1.543-.013-2.314.004-.312.005-.46-.082-.433-.416a5.728 5.728 0 000-.771c-.018-.286.09-.395.385-.39.88.008 1.768 0 2.657 0zM8.458 25.033c-.386 0-.772-.004-1.157 0-.23.005-.351-.078-.347-.325.009-.316.009-.633.004-.945-.004-.203.087-.294.295-.294.819.004 1.634.004 2.453 0 .23 0 .312.1.303.32-.009.304-.009.607 0 .91.009.239-.091.343-.33.339-.402-.01-.814-.005-1.221-.005zM32.654 2.963c.065.04.126.074.178.117a14.326 14.326 0 011.759 1.756c.13.156.139.277-.009.42-.242.234-.485.477-.719.72-.126.134-.23.125-.347-.013a14.242 14.242 0 00-1.807-1.808c-.086-.069-.16-.156-.056-.264.286-.29.576-.577.871-.863.03-.034.082-.043.13-.065z" stroke="#E04E39" stroke-width=".5"/></svg>