<?xml version="1.0" encoding="utf-8"?><svg width="38" height="41" fill="none" xmlns="http://www.w3.org/2000/svg" viewBox="0 0 38 41"><path d="M19.617 1c.84.23 1.565.62 2.075 1.347.42.594.627 1.241.627 1.96 0 .407.009.815 0 1.213-.01.249.098.328.34.337 2.227.071 4.204.833 5.904 2.252 2.04 1.693 3.257 3.864 3.507 6.505.188 1.933.099 3.883.054 5.815-.027 1.152.223 2.163.76 3.191 1.369 2.588 2.648 5.212 3.963 7.818.224.452.215.47-.304.47H1.393c-.465 0-.492-.036-.286-.435 1.503-2.97 2.997-5.947 4.5-8.917.152-.301.224-.611.224-.948-.01-2.021-.045-4.033.008-6.054.09-3.616 1.727-6.382 4.796-8.305 1.413-.886 2.979-1.339 4.652-1.392.277-.009.393-.088.384-.372-.017-.443-.008-.886 0-1.33a3.26 3.26 0 012.264-3.004c.143-.045.295-.098.438-.142C18.793 1 19.205 1 19.617 1zm-.644 29.215h14.904c.474 0 .474 0 .26-.426-1.163-2.313-2.335-4.627-3.507-6.94a1.822 1.822 0 01-.206-.833c.009-2.119 0-4.237.009-6.355 0-.488-.036-.967-.125-1.436-.716-3.971-3.99-6.675-8.06-6.666-1.307 0-2.613-.018-3.92 0-1.306.018-2.612-.106-3.909.089-3.918.585-6.737 3.802-6.844 7.649-.063 2.083-.009 4.157-.009 6.24 0 .54.01.54.555.54h11.487c1.082 0 1.082 0 1.082 1.055 0 .647 0 .647-.653.647-4.213 0-8.427.01-12.64-.008-.377 0-.573.115-.734.452-.922 1.852-1.861 3.705-2.792 5.548-.223.444-.214.444.269.444h14.833zm.009-24.367c.42 0 .84-.008 1.27 0 .242.01.358-.08.349-.328-.009-.478.009-.966-.009-1.444-.045-.842-.671-1.392-1.557-1.4-.921-.01-1.565.513-1.619 1.373-.036.496-.009.993-.018 1.49 0 .22.09.318.322.318.42-.009.841-.009 1.262-.009zM19 40c-2.55 0-4.536-1.702-4.912-4.193-.008-.053-.008-.097-.018-.15-.044-.54-.017-.567.52-.567.259 0 .51.017.769 0 .286-.018.402.08.438.38.215 1.95 2.138 3.254 4.044 2.748a3.235 3.235 0 002.38-2.747c.026-.266.107-.39.393-.381.322.017.644.017.957 0 .287-.01.394.106.367.38-.107 1.463-.724 2.66-1.896 3.546A4.755 4.755 0 0119 40z" fill="#E04E39"/><path d="M25.567 22.078h1.341c.224 0 .331.088.323.319-.01.354 0 .709 0 1.064 0 .221-.108.319-.332.319-.894 0-1.789-.01-2.683 0-.224 0-.331-.09-.322-.32.009-.354.009-.709 0-1.063 0-.23.098-.32.322-.32h1.35z" fill="#E04E39"/><path d="M19.617 1c.84.23 1.565.62 2.075 1.347.42.594.627 1.241.627 1.96 0 .407.009.815 0 1.213-.01.249.098.328.34.337 2.227.071 4.204.833 5.904 2.252 2.04 1.693 3.257 3.864 3.507 6.505.188 1.933.099 3.883.054 5.815-.027 1.152.223 2.163.76 3.191 1.369 2.588 2.648 5.212 3.963 7.818.224.452.215.47-.304.47H1.393c-.465 0-.492-.036-.286-.435 1.503-2.97 2.997-5.947 4.5-8.917.152-.301.224-.611.224-.948-.01-2.021-.045-4.033.008-6.054.09-3.616 1.727-6.382 4.796-8.305 1.413-.886 2.979-1.339 4.652-1.392.277-.009.393-.088.384-.372-.017-.443-.008-.886 0-1.33a3.26 3.26 0 012.264-3.004c.143-.045.295-.098.438-.142C18.793 1 19.205 1 19.617 1zm-.644 29.215h14.904c.474 0 .474 0 .26-.426-1.163-2.313-2.335-4.627-3.507-6.94a1.822 1.822 0 01-.206-.833c.009-2.119 0-4.237.009-6.355 0-.488-.036-.967-.125-1.436-.716-3.971-3.99-6.675-8.06-6.666-1.307 0-2.613-.018-3.92 0-1.306.018-2.612-.106-3.909.089-3.918.585-6.737 3.802-6.844 7.649-.063 2.083-.009 4.157-.009 6.24 0 .54.01.54.555.54h11.487c1.082 0 1.082 0 1.082 1.055 0 .647 0 .647-.653.647-4.213 0-8.427.01-12.64-.008-.377 0-.573.115-.734.452-.922 1.852-1.861 3.705-2.792 5.548-.223.444-.214.444.269.444h14.833zm.009-24.367c.42 0 .84-.008 1.27 0 .242.01.358-.08.349-.328-.009-.478.009-.966-.009-1.444-.045-.842-.671-1.392-1.557-1.4-.921-.01-1.565.513-1.619 1.373-.036.496-.009.993-.018 1.49 0 .22.09.318.322.318.42-.009.841-.009 1.262-.009zM19 40c-2.55 0-4.536-1.702-4.912-4.193-.008-.053-.008-.097-.018-.15-.044-.54-.017-.567.52-.567.259 0 .51.017.769 0 .286-.018.402.08.438.38.215 1.95 2.138 3.254 4.044 2.748a3.235 3.235 0 002.38-2.747c.026-.266.107-.39.393-.381.322.017.644.017.957 0 .287-.01.394.106.367.38-.107 1.463-.724 2.66-1.896 3.546A4.755 4.755 0 0119 40z" stroke="#E04E39" stroke-width=".5"/><path d="M25.567 22.078h1.341c.224 0 .331.088.323.319-.01.354 0 .709 0 1.064 0 .221-.108.319-.332.319-.894 0-1.789-.01-2.683 0-.224 0-.331-.09-.322-.32.009-.354.009-.709 0-1.063 0-.23.098-.32.322-.32h1.35z" stroke="#E04E39" stroke-width=".5"/></svg>