<?xml version="1.0" encoding="utf-8"?><svg width="26" height="27" fill="none" xmlns="http://www.w3.org/2000/svg" viewBox="0 0 26 27"><path d="M21.88 24.897h-3.276c-.252 0-.487.052-.721.139-5.014 1.841-9.594 1.085-13.626-2.441-2.477-2.163-3.85-4.96-4.18-8.227-.39-3.83.704-7.219 3.285-10.077C5.569 1.841 8.332.417 11.617.087c3.902-.4 7.326.738 10.21 3.388 2.382 2.189 3.755 4.916 4.094 8.13.365 3.432-.53 6.533-2.607 9.278-.183.235-.174.374.043.582.774.739 1.512 1.512 2.277 2.259.235.226.46.452.322.817-.148.39-.496.364-.826.356h-3.25zm2.085-1.156c-.026-.121-.13-.182-.208-.26l-1.669-1.668c-.469-.47-.469-.67-.043-1.173 2.277-2.754 3.172-5.916 2.66-9.443-.427-2.91-1.808-5.316-4.033-7.236C17.066.834 11.643.226 7.455 2.484 2.945 4.917.529 9.668 1.259 14.733c.79 5.473 5.396 9.964 11.557 10.111a11.04 11.04 0 004.606-.877c.339-.148.678-.2 1.043-.2 1.712.009 3.424.009 5.136 0 .121 0 .243.035.364-.026z" fill="#E04E39"/><path d="M10.81 16.94v-2.833c0-.877-.357-1.511-1.191-1.85-.26-.104-.435-.278-.426-.582.009-.304.191-.469.46-.556.8-.26 1.6-.547 2.408-.773 1.625-.443 3.12.721 3.12 2.406 0 1.842.008 3.692 0 5.534-.01.912.338 1.59 1.225 1.928.252.096.408.278.39.565-.008.287-.173.452-.434.539-.808.269-1.616.564-2.433.79-1.616.443-3.12-.73-3.12-2.406v-2.763zm3.24-1.139v-1.485c0-.504.01-1.016 0-1.52-.025-1-.816-1.581-1.772-1.32-.304.086-.6.2-.895.286-.191.052-.243.113-.096.287.478.582.67 1.25.66 1.998-.017 1.833.01 3.665-.008 5.498-.017 1.095.93 1.764 1.912 1.382.243-.096.486-.174.738-.244.218-.06.279-.121.105-.33a2.75 2.75 0 01-.635-1.876c.01-.877-.008-1.772-.008-2.676zM15.719 6.524c0 1.52-1.2 2.71-2.72 2.71-1.53 0-2.729-1.19-2.729-2.71 0-1.564 1.182-2.745 2.755-2.745 1.52.008 2.694 1.207 2.694 2.745zm-1.13-.009c0-.86-.747-1.598-1.599-1.59a1.62 1.62 0 00-1.581 1.573c-.018.851.721 1.598 1.581 1.607.852 0 1.59-.73 1.6-1.59z" fill="#E04E39"/></svg>