<?xml version="1.0" encoding="utf-8"?><svg width="47" height="32" fill="none" xmlns="http://www.w3.org/2000/svg" viewBox="0 0 47 32"><path d="M46.994 16.365c0 1.939.003 3.875 0 5.814-.008 2.17-1.101 3.669-3.169 4.36-.112.036-.224.072-.333.112-.42.155-.594.383-.55.829.072.756.036 1.505-.007 2.257-.033.536-.207.955-.74 1.176-.528.217-.944.007-1.31-.336-.557-.529-1.1-1.071-1.644-1.614-.543-.543-1.09-1.078-1.622-1.632-.395-.409-.855-.597-1.427-.597-3.682.011-7.365.018-11.05 0-1.66-.007-3.053-.597-3.995-2.03-.467-.709-.702-1.505-.746-2.351-.018-.362-.01-.728-.054-1.09-.036-.27-.167-.369-.42-.412-.279-.047-.543.018-.818.018-2.097-.003-4.19 0-6.286-.007-.598-.004-1.195-.033-1.793-.05-.564-.015-1.028.187-1.43.589a322.038 322.038 0 01-3.364 3.31c-.561.543-1.296.482-1.73-.115-.2-.271-.265-.59-.269-.923-.003-.702-.003-1.404-.003-2.105 0-.594-.076-.706-.652-.898a7.106 7.106 0 01-1.39-.615C.762 19.21.146 17.885.099 16.307.012 13.315-.04 10.326.044 7.334c.033-1.14-.054-2.287.113-3.427C.51 1.422 2.394.047 4.697.022c3.734-.04 7.47-.022 11.207.021 1.13.015 2.263.036 3.393.036.844 0 1.691-.061 2.535-.068 2.867-.026 4.88 1.906 4.99 4.776.003.05.003.105.003.155.018 1.013.018 1.02 1.05 1.02 4.686.004 9.371 0 14.057 0 1.108 0 2.183.152 3.124.797 1.253.853 1.898 2.058 1.923 3.556.036 2.019.011 4.034.015 6.05-.004 0-.004 0 0 0zM16.07 18.593v-.007c1.966 0 3.932.015 5.895-.003 1.6-.019 2.476-.916 2.49-2.519.012-1.378.005-2.757.005-4.135 0-2.392.01-4.787-.008-7.179-.01-1.57-.85-2.398-2.419-2.453-.246-.007-.496-.01-.742-.01-2.147 0-4.294-.026-6.442.007-3.37.05-6.738-.134-10.106 0-1.444.058-2.346.937-2.353 2.373-.018 3.864-.018 7.725 0 11.59.007 1.247.76 2.072 1.995 2.268.384.061.778.061 1.159.13.648.12.937.467.97 1.125.014.326.004.651.007.977.004.123-.036.282.127.336.138.047.21-.083.286-.162.485-.507.985-1.003 1.448-1.53.504-.572 1.127-.804 1.869-.804 1.94 0 3.881-.004 5.819-.004zM34.9 8.16V8.15h-7.144c-.804 0-.942.134-.942.92 0 2.236.036 4.472-.007 6.707-.047 2.323-.728 3.789-3.114 4.77-1.043.426-1.126.151-1.083 1.707 0 .04 0 .08.007.116.123.937.565 1.632 1.485 1.975.547.203 1.115.246 1.687.246 3.734.004 7.47.007 11.204-.003.695-.004 1.252.213 1.72.748.477.55 1.006 1.053 1.513 1.574.08.08.152.203.293.134.123-.061.116-.195.116-.31.004-.287-.01-.572.011-.858.062-.894.348-1.187 1.239-1.292.191-.022.387-.043.583-.054 1.397-.083 2.277-.988 2.31-2.395.018-.742.01-1.484.01-2.222 0-3.043 0-6.086-.003-9.129 0-.568-.087-1.114-.413-1.599-.529-.785-1.329-1.013-2.205-1.02-2.426-.018-4.849-.007-7.267-.007z" fill="#E04E39"/><path d="M16.71 7.493a4.14 4.14 0 01-1.042 2.764c-.598.684-1.01 1.426-1.126 2.348-.112.862-.768 1.252-1.51.981-.463-.17-.695-.738-.648-1.465.08-1.23.64-2.23 1.43-3.13.366-.42.652-.876.648-1.462-.003-.626-.336-1.063-.89-1.15-.544-.087-.99.239-1.166.857-.044.149-.07.304-.113.452-.188.645-.633.945-1.253.85-.564-.082-.901-.527-.901-1.182.003-1.495 1.137-2.826 2.668-3.13 2.025-.394 3.705.955 3.904 3.267zM13.463 16.669c-.63.003-1.075-.427-1.075-1.032 0-.604.489-1.11 1.075-1.103.562.004 1.087.51 1.094 1.06.01.59-.478 1.075-1.094 1.075z" fill="#E04E39"/></svg>