<?xml version="1.0" encoding="utf-8"?><svg width="23" height="19" fill="none" xmlns="http://www.w3.org/2000/svg" viewBox="0 0 23 19"><path d="M22.998 3.816c-.12.007-.239.019-.358.019H8.09c-.443 0-.443 0-.443-.435 0-1.017.008-2.034-.005-3.051C7.635.077 7.727 0 7.997 0c4.91.007 9.82.005 14.73.005.09 0 .178.012.268.02.003 1.264.003 2.528.003 3.79zM22.998 11.398c-.12.008-.239.02-.358.02H8.09c-.443 0-.443 0-.443-.436 0-1.017.008-2.034-.005-3.05-.005-.275.088-.351.36-.351 4.91.007 9.82.004 14.73.004.09 0 .178.012.268.02-.002 1.267-.002 2.529-.002 3.793zM22.998 18.979c-.12.007-.239.019-.358.019H8.09c-.443 0-.443 0-.443-.435 0-1.017.008-2.034-.005-3.051-.005-.274.088-.351.36-.351 4.91.007 9.82.005 14.73.005.09 0 .178.012.268.019-.002 1.267-.002 2.531-.002 3.794zM0 .027C1.206.02 2.414.015 3.62.005c.162 0 .233.065.233.229-.003 1.125-.003 2.25 0 3.375 0 .164-.07.228-.234.228-1.205-.01-2.413-.014-3.619-.021V.026zM0 7.607c1.206-.007 2.414-.012 3.62-.022.162 0 .233.065.233.229-.003 1.125-.003 2.25 0 3.375 0 .164-.07.229-.234.229-1.205-.008-2.413-.012-3.619-.02V7.607zM0 15.19c1.206-.008 2.414-.012 3.62-.022.162 0 .233.065.233.228-.003 1.126-.003 2.25 0 3.376 0 .163-.07.228-.234.228-1.205-.01-2.413-.014-3.619-.021v-3.79z" fill="#D1D9DD"/></svg>