<?xml version="1.0" encoding="utf-8"?><svg width="36" height="20" fill="none" xmlns="http://www.w3.org/2000/svg" viewBox="0 0 36 20"><path d="M19.124 18.261c-.641-1.478-1.49-2.034-2.932-2.126-2.689-.168-4.27-1.76-4.858-4.595-.297-1.44-.519-2.767-2.527-2.432-.749.122-1.009-.556-1.2-1.18-.465-1.54-1.015-3.042-1.397-4.589-.298-1.196-.848-1.768-2.146-1.63-.97.098-1.963.022-2.94 0C.604 1.7-.03 1.692 0 .968.031.268.658.283 1.177.276 2.674.26 4.171.29 5.667.268c.856-.023 1.337.343 1.574 1.158.512 1.73 1.054 3.453 1.611 5.167.168.526.336 1.243 1.1.999.748-.236.267-.869.199-1.326-.092-.663-.26-1.311-.375-1.974-.48-2.645.741-4.192 3.445-4.26 2.321-.061 4.65-.016 6.972-.016 3.872 0 7.752-.007 11.624 0 3.559.008 4.697 1.388 3.979 4.832-.497 2.37-.978 4.74-1.543 7.096-.611 2.545-2.322 4.107-4.88 4.206-1.436.054-2.154.679-2.62 1.913.588.381 1.222.107 1.81.206.84.145 2.314-.427 2.307.793 0 1.356-1.512.838-2.39.853-4.445.054-8.89.023-13.327.023-2.276 0-4.544.038-6.82-.023-.779-.023-2.093.389-2.085-.861.008-1.113 1.268-.762 2.024-.77 3.559-.045 7.118-.023 10.852-.023zm3.796-16.56c-3.254 0-6.507-.023-9.76.007-1.46.016-2.131.694-1.88 1.99.528 2.728 1.093 5.449 1.765 8.146.412 1.67 1.688 2.607 3.2 2.676.787.038 1.184-.16 1.336-1.06.497-2.85 2.452-4.603 5.102-4.74 2.428-.13 4.65 1.638 5.369 4.275.443 1.616 1.092 1.913 2.65 1.22 1.191-.534 1.802-1.486 2.054-2.721.512-2.47 1.046-4.939 1.55-7.408.36-1.768-.122-2.378-1.947-2.393-3.139-.015-6.285 0-9.44.008zm-3.727 12.308c-.03 2.103 1.535 3.765 3.597 3.833 2.016.069 3.742-1.623 3.773-3.68.022-2.097-1.55-3.743-3.628-3.796-2.123-.038-3.712 1.501-3.742 3.643z" fill="#E04E39"/><path d="M30.45 12.302c-.015.51.06 1.15-.611 1.242-.817.114-.833-.625-.917-1.158-.381-2.37-1.596-4.13-3.841-5.03-3.643-1.471-7.4.762-8.233 4.824-.13.617.008 1.555-.992 1.364-.818-.152-.558-.983-.497-1.57.374-3.765 4.086-6.905 7.843-6.668 3.804.251 7.233 3.559 7.248 6.996z" fill="#E04E39"/><path d="M22.866 16.555c-1.329.015-2.474-1.098-2.497-2.432-.023-1.295 1.13-2.446 2.474-2.454a2.467 2.467 0 012.49 2.431c.015 1.334-1.092 2.44-2.467 2.455z" fill="#E04E39"/></svg>