<?xml version="1.0" encoding="utf-8"?><svg width="37" height="37" fill="none" xmlns="http://www.w3.org/2000/svg" viewBox="0 0 37 37"><path d="M17.078 1h2.871c1.162.154 2.32.33 3.444.663 1.26.375 2.462.881 3.62 1.496.229.12.248.232.045.397-.228.187-.457.375-.67.58-.2.196-.38.214-.638.087-3.002-1.51-6.18-2.024-9.507-1.566-3.096.43-5.798 1.738-8.166 3.762-.252.214-.229.349-.004.562 1.18 1.121 2.346 2.257 3.519 3.385.36.348.36.348.757.063 2.095-1.488 4.38-2.346 6.993-2.143 3.095.24 5.576 1.615 7.458 4.073a9.87 9.87 0 011.855 4.175c.048.252.1.454.434.454 1.683-.011 3.37-.008 5.052-.008.248 0 .352-.097.315-.356-.289-2.14-.873-4.182-1.968-6.063-.363-.623-.378-.45.132-.979.112-.116.236-.217.333-.34.206-.26.337-.207.499.063a18.684 18.684 0 011.956 4.531c.296 1.057.446 2.136.592 3.216v2.87c-.015.09-.041.177-.049.267a17.546 17.546 0 01-18.985 15.744c-4.126-.364-7.709-1.994-10.64-4.898-4.234-4.21-5.973-9.329-5.111-15.258C2.238 8.75 7.803 2.867 14.725 1.382c.78-.168 1.566-.262 2.353-.382zm10.153 17.524c-.038-4.782-3.774-8.69-8.631-8.74-4.846-.052-8.8 3.79-8.792 8.737.007 4.77 3.811 8.612 8.653 8.68 4.767.063 8.725-3.876 8.77-8.677zM18.51 34.471c.614.008 1.23-.019 1.84-.093.483-.06.97-.124 1.447-.233 5.029-1.136 8.732-3.999 11.07-8.59 1.053-2.069 1.567-4.287 1.623-6.61.007-.323-.09-.443-.428-.44-1.637.016-3.279.008-4.916 0-.274 0-.405.098-.409.372 0 .101-.019.202-.026.307-.319 3.733-2.099 6.532-5.378 8.343-1.724.951-3.598 1.3-5.569 1.173-1.739-.113-3.358-.578-4.82-1.537-.228-.15-.325-.09-.46.101a441.592 441.592 0 01-2.908 4.048c-.177.24-.128.348.105.502 2.687 1.746 5.621 2.653 8.829 2.657zM2.526 18.787c-.022.363.023.99.105 1.608.525 3.939 2.275 7.233 5.232 9.886.225.203.356.195.536-.052a448.78 448.78 0 013.002-4.022c.165-.217.146-.34-.049-.536-2.485-2.466-3.459-5.441-2.92-8.897.27-1.724 1.042-3.242 2.058-4.64.191-.262.206-.434-.045-.659-.412-.375-.794-.783-1.188-1.177C8.5 9.541 7.74 8.792 6.994 8.023c-.218-.225-.368-.217-.536.027-.038.056-.09.1-.135.153-2.492 2.99-3.8 6.413-3.797 10.584z" fill="#E04E39"/><path d="M30.293 7.664c-.049-.042-.113-.087-.161-.143a9.259 9.259 0 00-1.376-1.36c-.172-.139-.183-.259-.018-.413.232-.217.453-.446.674-.67.131-.135.248-.124.379.007.453.457.91.915 1.371 1.368.158.154.191.289.008.453-.218.2-.42.416-.63.623-.064.06-.127.13-.247.135z" fill="#E04E39"/><path d="M17.078 1h2.871c1.162.154 2.32.33 3.444.663 1.26.375 2.462.881 3.62 1.496.229.12.248.232.045.397-.228.187-.457.375-.67.58-.2.196-.38.214-.638.087-3.002-1.51-6.18-2.024-9.507-1.566-3.096.43-5.798 1.738-8.166 3.762-.252.214-.229.349-.004.562 1.18 1.121 2.346 2.257 3.519 3.385.36.348.36.348.757.063 2.095-1.488 4.38-2.346 6.993-2.143 3.095.24 5.576 1.615 7.458 4.073a9.87 9.87 0 011.855 4.175c.048.252.1.454.434.454 1.683-.011 3.37-.008 5.052-.008.248 0 .352-.097.315-.356-.289-2.14-.873-4.182-1.968-6.063-.363-.623-.378-.45.132-.979.112-.116.236-.217.333-.34.206-.26.337-.207.499.063a18.684 18.684 0 011.956 4.531c.296 1.057.446 2.136.592 3.216v2.87c-.015.09-.041.177-.049.267a17.546 17.546 0 01-18.985 15.744c-4.126-.364-7.709-1.994-10.64-4.898-4.234-4.21-5.973-9.329-5.111-15.258C2.238 8.75 7.803 2.867 14.725 1.382c.78-.168 1.566-.262 2.353-.382zm10.153 17.524c-.038-4.782-3.774-8.69-8.631-8.74-4.846-.052-8.8 3.79-8.792 8.737.007 4.77 3.811 8.612 8.653 8.68 4.767.063 8.725-3.876 8.77-8.677zM18.51 34.471c.614.008 1.23-.019 1.84-.093.483-.06.97-.124 1.447-.233 5.029-1.136 8.732-3.999 11.07-8.59 1.053-2.069 1.567-4.287 1.623-6.61.007-.323-.09-.443-.428-.44-1.637.016-3.279.008-4.916 0-.274 0-.405.098-.409.372 0 .101-.019.202-.026.307-.319 3.733-2.099 6.532-5.378 8.343-1.724.951-3.598 1.3-5.569 1.173-1.739-.113-3.358-.578-4.82-1.537-.228-.15-.325-.09-.46.101a441.592 441.592 0 01-2.908 4.048c-.177.24-.128.348.105.502 2.687 1.746 5.621 2.653 8.829 2.657zM2.526 18.787c-.022.363.023.99.105 1.608.525 3.939 2.275 7.233 5.232 9.886.225.203.356.195.536-.052a448.78 448.78 0 013.002-4.022c.165-.217.146-.34-.049-.536-2.485-2.466-3.459-5.441-2.92-8.897.27-1.724 1.042-3.242 2.058-4.64.191-.262.206-.434-.045-.659-.412-.375-.794-.783-1.188-1.177C8.5 9.541 7.74 8.792 6.994 8.023c-.218-.225-.368-.217-.536.027-.038.056-.09.1-.135.153-2.492 2.99-3.8 6.413-3.797 10.584z" stroke="#E04E39" stroke-width=".5"/><path d="M30.293 7.664c-.049-.042-.113-.087-.161-.143a9.259 9.259 0 00-1.376-1.36c-.172-.139-.183-.259-.018-.413.232-.217.453-.446.674-.67.131-.135.248-.124.379.007.453.457.91.915 1.371 1.368.158.154.191.289.008.453-.218.2-.42.416-.63.623-.064.06-.127.13-.247.135z" stroke="#E04E39" stroke-width=".5"/></svg>