<?xml version="1.0" encoding="utf-8"?><svg width="38" height="38" fill="none" xmlns="http://www.w3.org/2000/svg" viewBox="0 0 38 38"><path d="M9.45 36.994c-.724-.207-1.37-.53-1.838-1.156-.395-.535-.632-1.125-.632-1.788-.006-5.99-.012-11.988 0-17.979 0-1.794 1.338-3.101 3.163-3.108 4.276-.012 8.547-.006 12.823 0 3.571 0 7.142.007 10.713 0 1.703 0 2.737.743 3.272 2.366l.043.098v.632h-1.192c-.195 0-.323-.055-.365-.28-.17-.857-.645-1.24-1.552-1.24-2.062-.006-4.118-.006-6.18-.006h-17.21c-.212 0-.425 0-.632.024-.882.122-1.302.596-1.308 1.484-.006 1.57-.006 3.138-.006 4.708v12.888c0 .152 0 .304.006.456.043.82.584 1.344 1.405 1.35 1.758.006 3.51.006 5.268.006H33.21c.28 0 .56 0 .846-.006.864-.018 1.38-.523 1.387-1.38.012-1.813.006-3.632.006-5.444 0-1.077.006-2.153-.006-3.23-.006-.322.11-.444.432-.425.37.024.748.012 1.125.018v9.628c-.14.377-.268.766-.499 1.107-.462.68-1.131 1.046-1.892 1.283-8.382-.006-16.77-.006-25.16-.006z" fill="#E04E39"/><path d="M37 22.026c-.396.006-.791 0-1.186.012-.25.006-.365-.085-.365-.34.006-.791.006-1.582 0-2.379 0-.23.079-.346.328-.34.408.018.815.012 1.223.018v3.029zM28.757 23.522h-2.244c-.925 0-1.527-.584-1.54-1.502-.011-.985-.011-1.965 0-2.95.013-.973.536-1.57 1.497-1.593a87.729 87.729 0 014.563 0c.973.024 1.49.626 1.49 1.587 0 .985.006 1.964 0 2.95-.006.936-.578 1.508-1.515 1.514-.754 0-1.502-.006-2.25-.006zm-.018-4.495c-.62 0-1.24.006-1.861 0-.231-.006-.347.067-.34.317.005.76.005 1.52 0 2.28 0 .238.09.335.328.335 1.24-.006 2.482-.012 3.723 0 .28 0 .364-.11.364-.377-.012-.736-.006-1.472 0-2.214.006-.261-.103-.347-.352-.347-.62.012-1.241.006-1.862.006zM15.989 32.518c-1.369 0-2.738-.007-4.106.006-.304 0-.432-.092-.408-.402a4.236 4.236 0 00-.006-.736c-.03-.34.11-.444.444-.444 1.928.012 3.857.006 5.785.006.81 0 1.612.006 2.421-.006.317-.006.457.104.432.426-.012.231 0 .468 0 .7-.006.425-.024.444-.468.444-1.357.006-2.725.006-4.094.006zM29.481 28.017c-.864 0-1.734-.012-2.597.006-.317.006-.457-.091-.432-.42.018-.267.012-.535.006-.809-.006-.23.085-.346.328-.346h5.402c.237 0 .34.09.335.334a8.418 8.418 0 000 .876c.018.286-.11.359-.377.359-.889-.006-1.777 0-2.665 0zM13.75 28.023h-1.788c-.475 0-.481-.006-.481-.499 0-.255.006-.517 0-.772-.006-.207.097-.298.298-.298h3.966c.22 0 .317.11.317.328-.006.304-.006.608 0 .912.006.238-.104.329-.341.329a71.154 71.154 0 00-1.971 0c0-.006 0-.006 0 0zM21.245 28.017c-.633 0-1.265-.012-1.892.006-.274.006-.383-.091-.365-.365a8.389 8.389 0 000-.876c-.012-.243.103-.334.335-.328a406.4 406.4 0 003.856 0c.256 0 .36.097.347.352a10.57 10.57 0 000 .876c.012.262-.104.347-.353.347-.639-.018-1.283-.012-1.928-.012zM25.004 32.511c-.395 0-.797-.006-1.192.006-.244.007-.335-.09-.329-.334.012-.304.012-.608 0-.912-.006-.22.08-.323.305-.323h2.451c.2 0 .298.091.292.298a26.2 26.2 0 000 .98c0 .212-.103.285-.304.285h-1.223zM16.001 8.548H3.038c-.456 0-.469.012-.469.432 0 4.306 0 8.618.007 12.924 0 .937.298 1.314 1.204 1.527.195.042.28.14.274.334a24.68 24.68 0 000 .95c.006.242-.085.328-.34.303A3.028 3.028 0 011 22.026c0-6.01 0-12.012.006-18.021C1.006 2.32 2.326 1 4.023 1h23.992a2.997 2.997 0 013.017 2.98c.013 1.874-.006 3.747.013 5.62 0 .347-.122.462-.45.432a7.206 7.206 0 00-.81 0c-.219.006-.322-.085-.316-.31.006-.244-.018-.493 0-.736.03-.34-.091-.444-.432-.444-1.873.012-3.747.006-5.62.006H16zm.024-1.57H29.02c.45 0 .45 0 .45-.45 0-.747-.03-1.502.006-2.244.055-1.01-.456-1.751-1.721-1.727-2.47.049-4.94.012-7.41.012H4.084c-1.016 0-1.508.499-1.515 1.509-.006.82.019 1.642-.006 2.457-.012.37.122.45.469.45 4.331-.006 8.662-.006 12.993-.006z" fill="#E04E39"/><path d="M13.75 28.023h-1.788c-.475 0-.481-.006-.481-.499 0-.255.006-.517 0-.772-.006-.207.097-.298.298-.298h3.966c.22 0 .317.11.317.328-.006.304-.006.608 0 .912.006.238-.104.329-.341.329a71.154 71.154 0 00-1.971 0zm0 0c0-.006 0-.006 0 0zm-4.3 8.97c-.724-.206-1.37-.528-1.838-1.155-.395-.535-.632-1.125-.632-1.788-.006-5.99-.012-11.988 0-17.979 0-1.794 1.338-3.101 3.163-3.108 4.276-.012 8.547-.006 12.823 0 3.571 0 7.142.007 10.713 0 1.703 0 2.737.743 3.272 2.366l.043.098v.632h-1.192c-.195 0-.323-.055-.365-.28-.17-.857-.645-1.24-1.552-1.24-2.062-.006-4.118-.006-6.18-.006h-17.21c-.212 0-.425 0-.632.024-.882.122-1.302.596-1.308 1.484-.006 1.57-.006 3.138-.006 4.708v12.888c0 .152 0 .304.006.456.043.82.584 1.344 1.405 1.35 1.758.006 3.51.006 5.268.006H33.21c.28 0 .56 0 .846-.006.864-.018 1.38-.523 1.387-1.38.012-1.813.006-3.632.006-5.444 0-1.077.006-2.153-.006-3.23-.006-.322.11-.444.432-.425.37.024.748.012 1.125.018v9.628c-.14.377-.268.766-.499 1.107-.462.68-1.131 1.046-1.892 1.283-8.382-.006-16.77-.006-25.16-.006zM37 22.027c-.396.006-.791 0-1.186.012-.25.006-.365-.085-.365-.34.006-.791.006-1.582 0-2.379 0-.23.079-.346.328-.34.408.018.815.012 1.223.018v3.029zm-8.243 1.496h-2.244c-.925 0-1.527-.584-1.54-1.502-.011-.985-.011-1.965 0-2.95.013-.973.536-1.57 1.497-1.593a87.729 87.729 0 014.563 0c.973.024 1.49.626 1.49 1.587 0 .985.006 1.964 0 2.95-.006.936-.578 1.508-1.515 1.514-.754 0-1.502-.006-2.25-.006zm-.018-4.495c-.62 0-1.24.006-1.861 0-.231-.006-.347.067-.34.317.005.76.005 1.52 0 2.28 0 .238.09.335.328.335 1.24-.006 2.482-.012 3.723 0 .28 0 .364-.11.364-.377-.012-.736-.006-1.472 0-2.214.006-.261-.103-.347-.352-.347-.62.012-1.241.006-1.862.006zm-12.75 13.49c-1.369 0-2.738-.006-4.106.007-.304 0-.432-.092-.408-.402a4.236 4.236 0 00-.006-.736c-.03-.34.11-.444.444-.444 1.928.012 3.857.006 5.785.006.81 0 1.612.006 2.421-.006.317-.006.457.104.432.426-.012.231 0 .468 0 .7-.006.425-.024.444-.468.444-1.357.006-2.725.006-4.094.006zm13.492-4.5c-.864 0-1.734-.012-2.597.006-.317.006-.457-.091-.432-.42.018-.267.012-.535.006-.809-.006-.23.085-.346.328-.346h5.402c.237 0 .34.09.335.334a8.418 8.418 0 000 .876c.018.286-.11.359-.377.359-.889-.006-1.777 0-2.665 0zm-8.236 0c-.633 0-1.265-.012-1.892.006-.274.006-.383-.091-.365-.365a8.389 8.389 0 000-.876c-.012-.243.103-.334.335-.328a406.4 406.4 0 003.856 0c.256 0 .36.097.347.352a10.57 10.57 0 000 .876c.012.262-.104.347-.353.347-.639-.018-1.283-.012-1.928-.012zm3.76 4.494c-.396 0-.798-.006-1.193.006-.244.007-.335-.09-.329-.334.012-.304.012-.608 0-.912-.006-.22.08-.323.305-.323h2.451c.2 0 .298.091.292.298a26.2 26.2 0 000 .98c0 .212-.103.285-.304.285h-1.223zM16 8.548H3.038c-.456 0-.469.012-.469.432 0 4.306 0 8.618.007 12.924 0 .937.298 1.314 1.204 1.527.195.042.28.14.274.334a24.68 24.68 0 000 .95c.006.242-.085.328-.34.303A3.028 3.028 0 011 22.026c0-6.01 0-12.012.006-18.021C1.006 2.32 2.326 1 4.023 1h23.992a2.997 2.997 0 013.017 2.98c.013 1.874-.006 3.747.013 5.62 0 .347-.122.462-.45.432a7.206 7.206 0 00-.81 0c-.219.006-.322-.085-.316-.31.006-.244-.018-.493 0-.736.03-.34-.091-.444-.432-.444-1.873.012-3.747.006-5.62.006H16zm.024-1.57H29.02c.45 0 .45 0 .45-.45 0-.747-.03-1.502.006-2.244.055-1.01-.456-1.751-1.721-1.727-2.47.049-4.94.012-7.41.012H4.084c-1.016 0-1.508.499-1.515 1.509-.006.82.019 1.642-.006 2.457-.012.37.122.45.469.45 4.331-.006 8.662-.006 12.993-.006z" stroke="#E04E39" stroke-width=".5"/></svg>