<?xml version="1.0" encoding="utf-8"?><svg width="32" height="32" fill="none" xmlns="http://www.w3.org/2000/svg" viewBox="0 0 32 32"><path d="M2.049 16.668c0 3.296-.005 6.591 0 9.887 0 1.37.944 2.268 2.4 2.268 3.839.005 7.678 0 11.517 0 2.523 0 5.042.005 7.565-.006.334 0 .458.103.442.438a13.15 13.15 0 00-.005 1.218c.01.298-.092.411-.4.406-2.264-.01-4.534 0-6.799 0-4.06 0-8.115-.01-12.175 0C2.087 30.889 0 28.844 0 26.328 0 19.86 0 13.399.005 6.932c0-2.062 1.58-3.988 3.592-4.389.96-.189 1.935-.086 2.906-.097 1.262-.01 2.523-.005 3.78 0 .27 0 .404-.076.485-.357A2.91 2.91 0 0113.572 0h3.99c1.337 0 2.426.806 2.82 2.1.08.276.205.357.48.351 1.909-.01 3.818-.005 5.726-.005a4.594 4.594 0 014.497 3.67c.135.665.092 1.341.092 2.012.005 3.437 0 6.873-.005 10.304 0 .536-.006.541-.545.541-.383 0-.766-.01-1.143.006-.275.01-.388-.12-.372-.368.032-.487 0-.974.005-1.462.016-1.369.016-2.732 0-4.102-.016-1.044.027-2.083.016-3.127-.01-1.137.07-2.273-.048-3.404-.135-1.256-.97-2.008-2.233-2.019-2.01-.016-4.022 0-6.039-.01-.28 0-.318.13-.318.362.006 3.225.006 6.45 0 9.681 0 .628.038 1.25-.043 1.878-.216 1.689-1.693 2.998-3.38 2.987-1.052-.005-2.104.006-3.155-.005-1.655-.01-3.23-1.596-3.23-3.258 0-3.74-.005-7.473.006-11.213 0-.324-.076-.444-.421-.438-1.887.016-3.77.01-5.656.005a4.09 4.09 0 00-.928.098c-.981.227-1.623 1.06-1.628 2.148-.011 2.738-.006 5.466-.011 8.193v1.743zM12.731 9.46v2.12c0 1.543-.006 3.086.005 4.628.005.66.356 1.11.938 1.12 1.262.027 2.518.022 3.78.006.485-.006.83-.341.938-.828a2.41 2.41 0 00.06-.623v-4.87c0-2.728 0-5.455-.006-8.177 0-.639-.135-.774-.776-.774-1.424-.006-2.842 0-4.265 0-.534 0-.674.146-.674.682V9.46z" fill="#58595B"/><path d="M26.19 23.73c-.136.016-.19.13-.265.206-.55.546-1.095 1.104-1.645 1.645-.463.454-1.067.46-1.482.032-.41-.422-.41-1.017.032-1.466a472.357 472.357 0 013.677-3.69c.453-.45 1.025-.46 1.489-.006a404.78 404.78 0 013.726 3.744c.382.39.36 1.045-.006 1.424-.388.4-1.03.416-1.44.01-.647-.633-1.272-1.277-1.914-1.92-.134.102-.08.227-.08.33-.006 2.137 0 4.27 0 6.407 0 .195.005.395-.011.59-.054.606-.497.985-1.095.963-.54-.021-.944-.449-.944-1.044-.005-2.29 0-4.573-.005-6.862 0-.108.032-.238-.038-.363zM14.57 14.763c.005-.644.447-1.115 1.035-1.104.566.01 1.013.498 1.008 1.104-.005.639-.448 1.115-1.03 1.12-.582.011-1.019-.476-1.014-1.12z" fill="#58595B"/></svg>