<?xml version="1.0" encoding="utf-8"?><svg width="32" height="38" fill="none" xmlns="http://www.w3.org/2000/svg" viewBox="0 0 32 38"><path d="M22.023 1l6.83 6.86c.628.628 1.252 1.264 1.886 1.886a.797.797 0 01.261.62c-.003 8.312-.003 16.628-.003 24.94 0 .85-.35 1.402-1.026 1.622-.442.144-.538.073-.538-.393V21.361v-9.344c0-.473-.003-.473-.465-.473l-7.74.003c-.876 0-.762.052-.762-.747-.006-2.586 0-5.176 0-7.763 0-.482 0-.485-.487-.485-5.661 0-11.326.003-16.988-.006-.347 0-.43.124-.43.45.006 10.665.006 21.334 0 32 0 .335.099.44.436.438 5.547-.01 11.091-.007 16.638-.004 1.016 0 .863-.092.866.85.003.792.1.718-.707.718H2.736c-1.188 0-1.729-.54-1.729-1.74-.003-9.238 0-18.477 0-27.715 0-1.568.013-3.139-.006-4.707C.985 1.993 1.23 1.338 2.055 1h19.968zm6.64 8.922c-2.223-2.206-4.427-4.4-6.62-6.585 0-.006-.016.03-.016.061-.004 2.085 0 4.167-.007 6.253 0 .313.169.329.405.329 1.983-.007 3.967-.004 5.954-.007.086-.003.185.029.284-.05z" fill="#E04E39"/><path d="M21.969 32.496c-2.573 0-4.515-1.952-4.515-4.538 0-2.532 1.961-4.496 4.49-4.496 2.579 0 4.544 1.941 4.56 4.502.015 2.542-1.975 4.535-4.535 4.532zm.016-7.463c-1.704.013-2.977 1.316-2.961 3.024.015 1.606 1.36 2.887 3.012 2.87 1.598-.015 2.92-1.363 2.907-2.956-.016-1.622-1.353-2.95-2.958-2.938zM16.036 18.969h8.47c.472 0 .472.003.475.46 0 .223-.016.447.003.667.032.338-.099.45-.436.447-1.296-.016-2.589-.003-3.885-.003l-13.09-.003c-.57 0-.57-.003-.567-.553.006-1.006.006-1.012 1.012-1.012 2.675-.006 5.347-.003 8.018-.003zM12.28 9.973h4.795c.442 0 .458.016.465.447.003.211.006.422.003.633-.006.46-.032.491-.506.491-1.424.003-2.847 0-4.27 0l-5.287-.003c-.458 0-.468-.01-.468-.473 0-.233.013-.469-.006-.702-.025-.316.111-.4.408-.4 1.62.014 3.241.007 4.865.007zM20.479 14.473c1.363 0 2.729.006 4.092-.007.321-.003.445.102.417.422-.02.242-.023.492 0 .734.032.339-.128.419-.43.419-1.213-.01-2.423 0-3.637 0-1.493 0-2.983 0-4.477-.004-.458 0-.461-.012-.468-.475-.013-1.096-.013-1.096 1.073-1.09h3.43zM10.04 14.47c.876 0 1.749.006 2.624-.004.284-.003.408.096.392.387-.013.22.003.443 0 .667-.003.495-.029.524-.51.524-1.493.003-2.986 0-4.48 0-.258 0-.512-.003-.77-.003-.201 0-.297-.09-.293-.3.01-.317.012-.633 0-.95-.01-.251.108-.318.34-.318.902.003 1.8 0 2.697-.004 0 .004 0 .004 0 0zM10.034 25.033c-.876 0-1.748-.007-2.624.003-.3.003-.43-.096-.407-.405a8.27 8.27 0 00.003-.843c-.01-.246.102-.326.334-.326 1.796.006 3.592.006 5.388 0 .248 0 .331.111.328.338-.003.281-.013.562 0 .843.013.29-.118.393-.398.39-.873-.007-1.748-.003-2.624 0zM24.943 36.992c-.398 0-.793-.007-1.191.003-.242.006-.338-.099-.334-.332.006-.303.003-.61 0-.913-.004-.218.101-.323.318-.323.818.003 1.633.003 2.452 0 .22 0 .318.105.315.323-.003.316-.003.632-.003.948 0 .204-.092.297-.3.294-.416-.003-.837 0-1.257 0z" fill="#E04E39"/><path d="M10.04 14.47c.876 0 1.749.006 2.624-.004.284-.003.408.096.392.387-.013.22.003.443 0 .667-.003.495-.029.524-.51.524-1.493.003-2.986 0-4.48 0-.258 0-.512-.003-.77-.003-.201 0-.297-.09-.293-.3.01-.317.012-.633 0-.95-.01-.251.108-.318.34-.318.902.003 1.8 0 2.697-.004zm0 0c0 .003 0 .003 0 0zM22.023 1l6.83 6.86c.628.628 1.252 1.264 1.886 1.886a.797.797 0 01.261.62c-.003 8.312-.003 16.628-.003 24.94 0 .85-.35 1.402-1.026 1.622-.442.144-.538.073-.538-.393V21.361v-9.344c0-.473-.003-.473-.465-.473l-7.74.003c-.876 0-.762.052-.762-.747-.006-2.586 0-5.176 0-7.763 0-.482 0-.485-.487-.485-5.661 0-11.326.003-16.988-.006-.347 0-.43.124-.43.45.006 10.665.006 21.334 0 32 0 .335.099.44.436.438 5.547-.01 11.091-.007 16.638-.004 1.016 0 .863-.092.866.85.003.792.1.718-.707.718H2.736c-1.188 0-1.729-.54-1.729-1.74-.003-9.238 0-18.477 0-27.715 0-1.568.013-3.139-.006-4.707C.985 1.993 1.23 1.338 2.055 1h19.968zm6.64 8.922c-2.223-2.206-4.427-4.4-6.62-6.585 0-.006-.016.03-.016.061-.004 2.085 0 4.167-.007 6.253 0 .313.169.329.405.329 1.983-.007 3.967-.004 5.954-.007.086-.003.185.029.284-.05zm-6.694 22.574c-2.573 0-4.515-1.952-4.515-4.538 0-2.532 1.961-4.496 4.49-4.496 2.579 0 4.544 1.941 4.56 4.502.015 2.542-1.975 4.535-4.535 4.532zm.016-7.463c-1.704.013-2.977 1.316-2.961 3.024.015 1.606 1.36 2.887 3.012 2.87 1.598-.015 2.92-1.363 2.907-2.956-.016-1.622-1.353-2.95-2.958-2.938zm-5.949-6.064h8.47c.472 0 .472.003.475.46 0 .223-.016.447.003.667.032.338-.099.45-.436.447-1.296-.016-2.589-.003-3.885-.003l-13.09-.003c-.57 0-.57-.003-.567-.553.006-1.006.006-1.012 1.012-1.012 2.675-.006 5.347-.003 8.018-.003zM12.28 9.973h4.796c.442 0 .458.016.465.447.003.211.006.422.003.633-.006.46-.032.491-.506.491-1.424.003-2.847 0-4.27 0l-5.287-.003c-.458 0-.468-.01-.468-.473 0-.233.013-.469-.006-.702-.025-.316.111-.4.408-.4 1.62.014 3.241.007 4.865.007zm8.2 4.5c1.363 0 2.729.006 4.092-.007.321-.003.445.102.417.422-.02.242-.023.492 0 .734.032.339-.128.419-.43.419-1.213-.01-2.423 0-3.637 0-1.493 0-2.983 0-4.477-.004-.458 0-.461-.012-.468-.475-.013-1.096-.013-1.096 1.073-1.09h3.43zm-10.445 10.56c-.876 0-1.748-.007-2.624.003-.3.003-.43-.096-.407-.405a8.27 8.27 0 00.003-.843c-.01-.246.102-.326.334-.326 1.796.006 3.592.006 5.388 0 .248 0 .331.111.328.338-.003.281-.013.562 0 .843.013.29-.118.393-.398.39-.873-.007-1.748-.003-2.624 0zm14.909 11.959c-.398 0-.793-.007-1.191.003-.242.006-.338-.099-.334-.332.006-.303.003-.61 0-.913-.004-.218.101-.323.318-.323.818.003 1.633.003 2.452 0 .22 0 .318.105.315.323-.003.316-.003.632-.003.948 0 .204-.092.297-.3.294-.416-.003-.837 0-1.257 0z" stroke="#E04E39" stroke-width=".5"/></svg>