<?xml version="1.0" encoding="utf-8"?><svg width="47" height="34" fill="none" xmlns="http://www.w3.org/2000/svg" viewBox="0 0 47 34"><path d="M.999 12.666c.365-.999 1.107-1.358 2.16-1.358 10.128.014 20.259.009 30.386.012 1.225 0 1.958.71 1.958 1.926.006 6.288.003 12.574-.003 18.862 0 1.19-.745 1.88-2.005 1.88-8.17.003-16.337.003-24.508.003-1.945 0-3.891-.029-5.834.009-1.062.02-1.786-.371-2.157-1.359C1 25.982 1 19.323 1 12.667zm17.286.62H9.979c-2.155 0-4.309.009-6.463-.003-.413-.002-.58.137-.54.536.019.16 0 .325 0 .487 0 5.7.004 11.398.004 17.098 0 .609.003.615.627.615 2.634 0 5.268-.003 7.9-.003 7.166 0 14.336-.003 21.503.005.37 0 .494-.121.494-.486-.009-5.877-.003-11.752-.006-17.629 0-.617-.008-.617-.668-.617-4.847-.003-9.698-.003-14.545-.003z" fill="#E04E39"/><path d="M24.032 5.662h15.132c1.4 0 2.09.678 2.09 2.066 0 6.201 0 12.4-.004 18.601 0 1.307-.7 1.996-2.016 2.002-.494.003-.989-.009-1.48.003-.289.006-.41-.116-.403-.394a26.67 26.67 0 000-1.193c-.006-.293.15-.389.418-.383.33.003.659-.02.986 0 .37.023.5-.119.497-.483-.012-1.62-.003-3.242-.003-4.861 0-4.226 0-8.455-.003-12.681 0-.707-.006-.707-.715-.707-9.622 0-19.246-.003-28.867.003-1.04 0-.93-.096-.94.93-.008 1.048.062.932-.935.932-1.228.003-1.048.125-1.066-1.02a44.247 44.247 0 010-.883c.012-1.21.727-1.929 1.955-1.932 2.648-.005 5.297-.003 7.946-.005 2.47.002 4.94.002 7.408.005 0-.003 0-.003 0 0zM46.996 11.34v9.275c0 1.387-.683 2.056-2.093 2.062-.447 0-.898-.012-1.345.003-.315.011-.477-.09-.465-.426.015-.382.012-.765.003-1.147-.006-.284.12-.403.403-.4.33.006.66-.023.986 0 .398.03.515-.133.512-.512-.011-2.237-.003-4.476-.003-6.712 0-3.606 0-7.212-.003-10.819 0-.686-.005-.686-.688-.689-1.207-.003-1.207-.003-1.21-1.193 0-.105.009-.206 0-.31-.027-.333.109-.484.465-.472.524.02 1.048.003 1.572.005 1.103.012 1.854.742 1.863 1.837.012 1.561.003 3.12.003 4.68.003 1.608 0 3.213 0 4.818zM22.758.002h8.347c.583 0 .606.018.603.594-.009 1.6.215 1.373-1.395 1.376-5.027.006-10.051.003-15.075.003-.762 0-.762.006-.768.747-.01 1.113-.01 1.113-1.151 1.118-.848.003-.848.003-.848-.834 0-.382-.006-.764.003-1.147.02-1.12.75-1.848 1.899-1.85 2.796-.01 5.595-.004 8.39-.004-.005 0-.005 0-.005-.003zM37.398 1.972c-.507 0-1.016-.006-1.522.003-.303.006-.433-.119-.42-.423.014-.382.014-.765 0-1.144-.013-.313.137-.406.432-.403 1.015.01 2.03.01 3.046 0 .306-.003.433.12.424.418-.012.382-.012.764 0 1.147.012.312-.144.414-.439.41-.506-.01-1.015-.005-1.521-.008z" fill="#E04E39"/><path d="M18.255 16.974c3.123-.087 5.857 2.467 5.772 5.85a5.652 5.652 0 01-5.669 5.51c-3.464-.006-5.895-2.387-5.886-5.764.005-3.198 2.49-5.6 5.783-5.596zm3.753 5.683c.006-2.069-1.643-3.705-3.741-3.714-2.134-.009-3.794 1.61-3.797 3.702-.003 2.074 1.645 3.71 3.738 3.713 2.137.006 3.794-1.607 3.8-3.701zM6.75 17.02c-.51 0-1.015-.015-1.525.003-.323.011-.467-.105-.459-.432.012-.368.006-.736-.003-1.104-.008-.318.142-.448.462-.446 1.03.01 2.06.01 3.094.003.28 0 .412.11.406.391-.009.397-.006.794 0 1.19.003.279-.12.398-.406.392-.524-.006-1.045.003-1.569.003zM29.693 30.251c-.494 0-.986-.005-1.48.003-.321.006-.468-.127-.46-.449.012-.382.01-.764.006-1.147 0-.252.106-.376.377-.373 1.063.005 2.125.003 3.188-.003.265-.003.385.11.385.368 0 .396-.003.793.003 1.193.006.307-.159.417-.447.414-.524-.009-1.048-.003-1.572-.006z" fill="#E04E39"/></svg>