<?xml version="1.0" encoding="utf-8"?><svg width="36" height="37" fill="none" xmlns="http://www.w3.org/2000/svg" viewBox="0 0 36 37"><path d="M33.066 34.675a14.064 14.064 0 01-2.832-2.001c-.73-.657-.73-1.094 0-1.751 2.344-2.063 3.684-4.69 4.05-7.847.578-5.409-2.71-10.66-7.825-12.411a2.483 2.483 0 00-.457-.125c.06.625.152 1.219.213 1.782.548 5.658-2.649 11.38-8.069 13.63-1.522.625-3.075 1-4.719 1-.152 0-.274 0-.426.032-.335.094-.457.25-.244.594a11.864 11.864 0 003.44 3.97c.123.094.245.188.397.282.426.312.517.75.274 1.156-.244.376-.731.47-1.157.188-.548-.344-1.066-.782-1.553-1.22-1.188-1.062-2.131-2.344-2.862-3.782-.183-.344-.335-.407-.7-.282-3.41.97-6.73.72-9.926-.875-.366-.125-.67-.344-.67-.844.03-.5.365-.688.761-.844 1.127-.407 2.162-1 3.136-1.688.274-.22.274-.344.03-.563C1.676 20.763.366 17.98.062 14.76-.61 7.35 4.445 1.223 11.052.16c3.075-.469 5.968.094 8.647 1.657.548.313.7.72.487 1.157-.243.469-.7.594-1.248.281-2.1-1.25-4.354-1.782-6.729-1.563-2.375.188-4.506 1.063-6.363 2.626-2.284 1.97-3.715 4.44-4.08 7.472-.548 4.22.761 7.753 3.836 10.598.092.094.213.188.335.282.518.5.518.969 0 1.469a13.642 13.642 0 01-2.436 1.782c-.152.094-.334.125-.426.344a8.11 8.11 0 002.405.531c2.406.22 4.69-.156 6.851-1.281.457-.25.974-.188 1.462-.22C19.09 25.078 23.81 20.95 24.6 15.199c.518-3.627-.456-6.847-2.831-9.598-.122-.156-.274-.313-.396-.469-.305-.406-.274-.844.06-1.157.336-.312.792-.281 1.127.094a11.673 11.673 0 012.101 2.939c.305.563.426 1.282.853 1.657.426.375 1.126.375 1.705.563 1.644.562 3.075 1.5 4.384 2.688 2.284 2.095 3.715 4.69 4.202 7.785.64 4.001-.305 7.628-2.77 10.785-.305.407-.67.782-1.006 1.126-.213.219-.182.312.03.5.975.72 1.98 1.313 3.137 1.72.396.156.761.343.761.844.03.5-.304.719-.7.906-3.928 1.876-7.886 1.876-11.844.094a2.407 2.407 0 00-1.035-.25c-1.28.031-2.497-.219-3.715-.657-.518-.187-.73-.625-.578-1.094.152-.406.548-.625 1.035-.5 1.309.406 2.618.657 3.988.625.244 0 .487.125.7.25 1.645.844 3.38 1.22 5.177 1.282 1.37.031 2.679-.188 4.08-.656z" fill="#E04E39"/><path d="M12.361 16.542v-2.22c0-.375-.121-.469-.456-.469H7.55c-.426 0-.7-.187-.792-.594-.091-.375.03-.687.366-.906.182-.094.365-.094.548-.094 1.4 0 2.77-.031 4.17 0 .427 0 .518-.125.518-.563-.03-1.438 0-2.845 0-4.283 0-.625.275-.969.792-.938.487 0 .761.313.761.938v4.314c0 .407.122.532.518.5 1.431-.03 2.862 0 4.293 0 .426 0 .7.188.792.595.09.375-.03.687-.366.906-.182.094-.365.094-.548.094h-4.171c-.426 0-.518.125-.518.563.03 1.438 0 2.845 0 4.283 0 .625-.274.969-.791.938-.487 0-.761-.313-.761-.938v-2.126zM23.262 26.171c-.457 0-.792-.313-.792-.813 0-.469.335-.813.792-.781.456 0 .76.312.76.781a.738.738 0 01-.76.813zM26.215 26.171c-.457 0-.761-.344-.761-.844 0-.47.335-.75.761-.75.457 0 .792.343.792.812.03.47-.305.782-.792.782zM29.26 24.577c.456 0 .76.343.76.812 0 .47-.334.782-.76.782-.457 0-.792-.313-.792-.813 0-.469.335-.781.792-.781z" fill="#E04E39"/></svg>