<?xml version="1.0" encoding="utf-8"?><svg width="38" height="39" fill="none" xmlns="http://www.w3.org/2000/svg" viewBox="0 0 38 39"><path d="M0 27.834c.2-1 .577-1.91 1.22-2.683 2.596-3.161 7.52-2.365 9.029 1.478.554 1.41.532 2.843.022 4.252-.111.296-.289.524-.488.751-1.043 1.16-1.62 2.524-1.664 4.116-.044 1.205-.599 2.706-2.24 3.184h-1.11c-.31-.137-.62-.25-.887-.455-.887-.705-1.287-1.66-1.353-2.797-.089-1.501-.599-2.82-1.597-3.912-.466-.523-.71-1.114-.843-1.773-.022-.091-.045-.182-.067-.25C0 29.107 0 28.47 0 27.834zm9.184 1.024v-.273c.044-2.252-2.108-4.48-4.77-3.843-2.506.59-3.571 3.252-2.795 5.503.067.182.178.318.311.455 1.287 1.319 1.93 2.933 2.04 4.798.023.568.156 1.137.555 1.569.51.568 1.22.546 1.686-.045.31-.387.444-.842.466-1.342.067-1.82.754-3.434 1.908-4.799.377-.454.555-.932.599-1.5v-.523zM32.055 38.955c-1.53-.614-2.107-1.843-2.196-3.457a5.72 5.72 0 00-1.487-3.616c-.62-.682-.931-1.455-.998-2.342-.222-2.297.51-4.162 2.418-5.48 1.864-1.297 4.614-1.092 6.322.432 1.02.91 1.598 2.046 1.886 3.365v1.91c-.044.205-.089.41-.133.637-.111.41-.244.819-.577 1.137-1.176 1.114-1.752 2.524-1.841 4.139-.089 1.569-.688 2.729-2.196 3.32-.4-.045-.799-.045-1.198-.045zm-3.261-10.188v.455c.044.614.133 1.205.643 1.637.289.25.51.568.71.91a7.821 7.821 0 011.22 3.98c.022.568.2 1.068.621 1.454.422.41.932.433 1.376.046.421-.364.643-.864.665-1.433.067-1.887.754-3.524 1.952-4.934.289-.341.488-.705.533-1.137.066-.569.11-1.115.022-1.706-.31-2.183-2.462-3.775-4.592-3.343-1.863.41-3.15 2.024-3.15 4.07zM20.032 0c1.22.318 2.174 1 2.706 2.229.688 1.614.177 3.57-1.242 4.57-1.442 1.024-3.417.887-4.637-.34C14.685 4.32 15.506.954 18.39.09c.067-.023.156-.068.245-.091h1.398zm1.552 3.707c.023-1.297-.976-2.297-2.262-2.32-1.22 0-2.263 1.046-2.263 2.297 0 1.273.976 2.297 2.24 2.297 1.31 0 2.285-.955 2.285-2.274zM13.998 14.44c.022-2.82 1.796-5.025 4.436-5.526 2.95-.568 5.945 1.751 6.234 4.821a7.534 7.534 0 01-.089 2.001 3.117 3.117 0 01-.82 1.615c-.999 1.046-1.553 2.342-1.62 3.82-.044.819-.222 1.592-.688 2.297-1.131 1.66-3.394 1.547-4.37-.204-.355-.637-.51-1.342-.554-2.07-.067-1.455-.6-2.729-1.553-3.775-.533-.591-.777-1.25-.888-2.001-.044-.341-.11-.66-.088-.978zm9.272.137c-.022-2.911-2.418-4.844-4.947-4.14-1.93.524-3.238 2.616-2.906 4.64.067.455.111.91.444 1.25 1.353 1.388 2.04 3.093 2.107 5.049.023.478.156.932.444 1.296.488.66 1.265.682 1.775.046.31-.387.466-.842.488-1.32.044-1.796.688-3.342 1.819-4.661.577-.728.776-1.455.776-2.16zM32.72 21.854c-1.996 0-3.726-1.751-3.726-3.752 0-2.024 1.708-3.73 3.726-3.73 2.041 0 3.705 1.683 3.705 3.73.022 2.023-1.664 3.752-3.705 3.752zm0-1.547c1.287 0 2.285-.978 2.285-2.228 0-1.251-.998-2.297-2.24-2.297-1.287 0-2.33 1-2.33 2.251s.999 2.252 2.285 2.274zM5.324 21.854c-1.996-.023-3.727-1.774-3.705-3.752.023-2.047 1.709-3.776 3.727-3.73 2.13.046 3.683 1.615 3.705 3.798 0 2.024-1.73 3.706-3.727 3.684zm.022-1.57c1.309-.022 2.285-.977 2.263-2.273-.022-1.274-1.043-2.252-2.374-2.252-1.22 0-2.196 1.046-2.196 2.297.044 1.273 1.02 2.251 2.307 2.229zM18.989 34.816h8.563c.488 0 .488.022.488.523 0 .864 0 .864-.821.91-.666.022-1.353 0-2.04 0-.844 0-1.71.022-2.552.022H10.204c-.244 0-.332-.114-.332-.341 0-1.319-.111-1.069.976-1.069 2.773-.045 5.457-.045 8.14-.045zM11.136 25.015c-.11-.091-.244-.205-.377-.319-.643-.568-.643-.568-.089-1.205l3.261-3.889c.2-.227.333-.25.577-.045.799.682.799.66.133 1.455-1.065 1.25-2.107 2.524-3.15 3.775-.111.068-.178.205-.355.228zM28.528 24.128c-.022.022-.045.09-.089.136-.732.864-.887.864-1.575.023l-3.128-3.752c-.222-.273-.2-.432.067-.614.066-.046.11-.091.177-.137.6-.523.6-.5 1.11.114 1.086 1.319 2.195 2.638 3.305 3.957.044.068.11.136.133.273z" fill="#E04E39"/></svg>