<?xml version="1.0" encoding="utf-8"?><svg width="13" height="11" fill="none" xmlns="http://www.w3.org/2000/svg" viewBox="0 0 13 11"><path d="M12.569.686H.431a.447.447 0 00-.306.119.392.392 0 00-.126.286v.813c0 .038.043.08.079.098l6.38 3.413a.112.112 0 00.053.014c.02 0 .038-.005.055-.014l6.186-3.41c.035-.018.127-.066.162-.088.042-.027.085-.05.085-.099v-.727a.392.392 0 00-.127-.286.447.447 0 00-.304-.119zM12.946 3.13a.114.114 0 00-.109.002l-3.5 1.929a.105.105 0 00-.036.03.097.097 0 00-.013.087.1.1 0 00.024.039l3.501 3.536c.01.01.022.018.036.023a.112.112 0 00.12-.02.098.098 0 00.031-.072V3.219a.096.096 0 00-.014-.051.105.105 0 00-.04-.037zM8.327 5.709a.113.113 0 00-.134-.019l-1.403.774a.576.576 0 01-.541.003l-1.235-.66a.114.114 0 00-.127.013L.197 9.895a.1.1 0 00-.027.039.095.095 0 00.01.09c.01.013.022.024.036.032a.44.44 0 00.215.06h12.013a.113.113 0 00.06-.017.103.103 0 00.039-.045.095.095 0 00-.02-.109L8.327 5.71zM3.855 5.338a.101.101 0 00.028-.04.095.095 0 00-.01-.09.105.105 0 00-.037-.032L.16 3.21a.114.114 0 00-.108 0 .104.104 0 00-.039.038.096.096 0 00-.014.05v5.159c0 .02.006.039.017.055.012.017.028.03.048.038a.114.114 0 00.116-.02l3.674-3.192z" fill="#E04E39"/></svg>