<?xml version="1.0" encoding="utf-8"?><svg width="28" height="30" fill="none" xmlns="http://www.w3.org/2000/svg" viewBox="0 0 28 30"><path d="M19.753 18.6c0-3.379-.002-6.76 0-10.14 0-1.066.278-1.35 1.34-1.354a770.29 770.29 0 015.591.002C27.73 7.113 28 7.382 28 8.411v20.407c0 .949-.237 1.175-1.206 1.177-1.926.002-3.853.002-5.78.002-1.034 0-1.26-.224-1.26-1.255-.002-3.382 0-6.762 0-10.141zm1.71-.001c0 3.043.008 6.086-.008 9.128-.004.487.137.681.644.663.92-.032 1.842-.009 2.764-.01 1.45-.002 1.452-.002 1.452-1.487 0-5.768-.008-11.538.01-17.307.002-.602-.167-.818-.781-.795a39.68 39.68 0 01-3.266-.001c-.617-.026-.838.14-.83.805.034 3.004.015 6.005.015 9.004zM18.073 21.833c0 2.347.001 4.693-.002 7.037-.002.903-.22 1.123-1.113 1.125-1.949.003-3.897.002-5.845 0-1.02 0-1.256-.242-1.258-1.343-.005-3.931-.001-7.862-.001-11.794 0-.676-.012-1.353.005-2.028.022-.84.332-1.147 1.157-1.15a873.7 873.7 0 015.97 0c.822.003 1.08.274 1.082 1.115.008 2.346.005 4.692.005 7.038zm-6.457-.001c0 1.965.01 3.93-.007 5.895-.003.485.156.676.656.665a87.081 87.081 0 013.581-.002c.441.007.64-.107.639-.6-.015-3.973-.015-7.944 0-11.916.002-.492-.198-.607-.639-.599a71.866 71.866 0 01-3.518-.003c-.554-.017-.729.18-.722.73.023 1.942.008 3.886.01 5.83zM.792 17.131c-.348-.044-.642-.198-.746-.566-.115-.406-.008-.765.362-.99a177.2 177.2 0 012.38-1.417C10.525 9.604 18.266 5.052 26.006.5c.18-.107.359-.217.543-.318.565-.311 1.056-.218 1.305.242.23.428.068.86-.485 1.2-.805.491-1.62.968-2.435 1.447C17.14 7.655 9.345 12.24 1.552 16.824c-.236.138-.466.289-.76.307zM.009 24.496c0-1.416-.007-2.832.003-4.25.005-.813.298-1.11 1.101-1.114a713.97 713.97 0 016.035 0c.8.003 1.101.308 1.103 1.118.007 2.896.008 5.792 0 8.688-.002.785-.287 1.055-1.076 1.057-2.033.005-4.065.005-6.097 0-.791-.002-1.061-.267-1.066-1.06-.01-1.48-.003-2.96-.003-4.44zm1.71.078c0 1.075.013 2.151-.007 3.225-.008.437.146.598.584.59 1.232-.021 2.466-.021 3.698 0 .45.006.577-.187.574-.606-.012-2.11-.014-4.218.001-6.327.004-.463-.162-.64-.622-.633-1.212.019-2.424.02-3.636 0-.482-.008-.609.205-.599.65.02 1.034.007 2.067.007 3.1z" fill="#E04E39"/></svg>