<?xml version="1.0" encoding="utf-8"?><svg width="27" height="31" fill="none" xmlns="http://www.w3.org/2000/svg" viewBox="0 0 27 31"><path d="M15.303 30.996c-1.554 0-3.108-.006-4.66.004-.503.003-.757-.206-.754-.713.006-.887.006-1.775.007-2.662.002-.861-.214-1.13-1.09-1.238-2.948-.364-5.482-1.62-7.742-3.483-.622-.514-.63-.61-.11-1.211.775-.898.853-.903 1.778-.127 4.668 3.91 11.989 3.82 16.585-.17 2.593-2.253 4.12-5.063 4.672-8.417.102-.626-.078-.862-.707-.92-1.258-.114-1.484.051-1.731 1.266-.903 4.447-4.635 8.064-9.162 8.674-4.468.603-8.36-1.415-10.674-5.066-3.52-5.556-1.418-12.917 4.454-15.82 6.341-3.133 13.948.637 15.368 7.618.25 1.228.322 1.28 1.607 1.267a79.64 79.64 0 012.108.003c.768.01.888.132.901.887.064 3.317-.877 6.342-2.779 9.056-2.375 3.391-5.58 5.573-9.705 6.36-.208.04-.422.046-.632.08-.409.065-.893.01-1.057.533-.196.624-.223 1.256.111 1.842.159.279.488.211.76.211 2.3.002 4.6-.003 6.9.007.298.002.733-.139.838.254.137.501.178 1.052-.04 1.55-.104.236-.416.163-.645.163-1.533.005-3.067.002-4.599.002 0 .016 0 .033-.002.05zm4.399-19.918c0-.359.029-.72-.005-1.075-.125-1.266-.341-1.387-1.488-.887a5.401 5.401 0 01-.477.177c-.827.274-1.636.457-2.429-.135-.334-.25-.738-.154-1.1.01-1 .453-1.875.222-2.633-.503a13.832 13.832 0 00-2.107-1.638c-.342-.22-.593-.496-.598-.914-.018-1.424-1.174-1.95-2.121-2.63-.22-.158-.505-.051-.721.1C4.36 4.756 3.143 6.26 2.538 8.213c-.15.481.017.835.535.965 1.63.407 2.55 1.504 3.049 3.031.249.764.528 1.52.913 2.226.276.503.608.58 1.03.2 1.26-1.138 2.813-1.715 4.369-2.298.48-.179.707-.121.698.457-.022 1.33-.01 2.66.002 3.99.007.895-.21 1.71-.786 2.417-.117.146-.286.311-.18.506.136.25.377.104.572.065 3.978-.758 6.984-4.503 6.962-8.693zM10.66 2.065c-.159.02-.474.062-.791.098-.215.023-.44.038-.528.275-.09.242.073.404.23.546.5.453.877.998 1.051 1.634.191.701.597 1.188 1.19 1.571.283.184.548.402.797.629.406.37.845.437 1.355.241.705-.27 1.402-.28 2.094.087.56.295 1.113.179 1.648-.1.71-.368.78-.642.317-1.284-1.767-2.449-4.234-3.559-7.363-3.697zm.518 14.47c-.063-.503.11-.93-.32-1.121-.411-.183-.66.177-.946.376-.087.061-.16.137-.239.21-1.747 1.608-3.729 1.205-4.65-.965-.348-.816-.633-1.656-.958-2.482-.17-.433-.351-.869-.793-1.114-.293-.162-.604-.23-.906-.04-.281.174-.27.471-.227.742.602 3.774 2.739 6.328 6.346 7.527.327.108.735.196.97-.08.796-.945 1.684-1.86 1.723-3.053z" fill="#E04E39"/><path d="M4.82 30.951c-1 0-2.002-.019-3.002.008-.474.012-.634-.167-.646-.626-.034-1.357-.05-1.357 1.317-1.359 1.767-.002 3.536-.007 5.303-.002.774.002.844.092.844.979 0 .92-.05.988-.813.993-1 .007-2.002.002-3.003.002v.005z" fill="#E04E39"/></svg>