<?xml version="1.0" encoding="utf-8"?><svg width="30" height="26" fill="none" xmlns="http://www.w3.org/2000/svg" viewBox="0 0 30 26"><path d="M15.061 4.72h12.452c1.538 0 2.494.961 2.487 2.482a424.152 424.152 0 00-.004 3.707c0 1.51-.624 2.276-2.1 2.6-3.151.692-6.302 1.402-9.456 2.087-.416.09-.596.248-.563.684.032.436.014.872.003 1.311-.018.678-.328.988-1.014.991-1.252.008-2.505.008-3.757-.003-.7-.008-1.014-.321-1.05-1.027a10.585 10.585 0 010-1.311c.028-.418-.141-.57-.542-.656a974.204 974.204 0 01-9.63-2.14C.578 13.157 0 12.393 0 11.067V7.18c0-1.564.863-2.453 2.429-2.457 3.26-.01 6.522-.004 9.781-.004.95.004 1.898.004 2.851 0zm-.115 1.826H2.498c-.632 0-.672.04-.675.663-.004 1.25.018 2.5-.011 3.75-.011.505.18.728.664.829 1.39.288 2.768.609 4.15.918 1.664.372 3.328.742 4.988 1.12.253.058.426.07.473-.27.069-.515.43-.76.917-.767 1.328-.018 2.657-.021 3.985.004.56.01.761.209.884.778.061.288.21.32.451.267 3.104-.696 6.212-1.391 9.316-2.08.39-.086.537-.302.53-.702-.018-1.235-.004-2.471-.007-3.703 0-.789-.018-.803-.82-.803-4.128-.004-8.261-.004-12.397-.004zm.083 8.052h-.043c-1.285.014-1.101-.159-1.098 1.091.004 1.164-.227 1.07 1.08 1.07 1.144 0 1.144-.003 1.147-1.098-.003-1.06-.003-1.06-1.086-1.063z" fill="#E04E39"/><path d="M15 25.996c-3.909 0-7.821-.003-11.73.004-.892 0-1.668-.23-2.22-.983-.31-.422-.404-.908-.408-1.41-.01-2.802-.007-5.605-.01-8.408 0-.23.043-.45.155-.652.184-.328.48-.446.837-.418.343.03.596.202.726.526.097.242.104.498.104.757v7.911c0 .778.054.832.816.832 7.803 0 15.61.004 23.413 0 .783 0 .848-.068.848-.853V15.39c0-.18 0-.364.033-.54.083-.443.382-.703.805-.724a.87.87 0 01.91.66c.053.215.079.446.079.67.003 2.636.007 5.273 0 7.91-.004 1.06-.3 1.968-1.386 2.422-.397.165-.816.208-1.242.208H15zM15.357.022c.863.04 2.104-.105 3.332.064 1.086.148 1.718.818 1.87 1.903a4.7 4.7 0 01.003 1.08c-.044.462-.397.753-.863.764a.843.843 0 01-.873-.695 5.455 5.455 0 01-.076-.807c-.015-.314-.155-.472-.473-.472-2.201 0-4.407 0-6.608-.004-.278 0-.426.126-.452.393-.029.252-.029.512-.054.764-.05.508-.408.821-.913.814-.473-.007-.805-.324-.834-.832-.021-.375-.036-.757.015-1.128C9.57.803 10.496.043 11.676.022c1.104-.018 2.205 0 3.681 0z" fill="#E04E39"/></svg>