<?xml version="1.0" encoding="utf-8"?><svg width="30" height="27" fill="none" xmlns="http://www.w3.org/2000/svg" viewBox="0 0 30 27"><path d="M14.986 26.128H6.02c-.764 0-1.528.006-2.293-.01-2.038-.045-3.715-1.745-3.719-3.8-.01-4.803-.01-9.607 0-14.41.004-2.006 1.436-3.606 3.415-3.827 1.032-.115 2.072-.028 3.107-.046.28-.005.56.005.84.002.441-.005.603-.16.634-.598.04-.578.088-1.154.348-1.687C8.905.618 9.857.05 11.064.029 13.681-.016 16.3 0 18.918.021c1.563.012 2.814 1.188 2.997 2.743.023.197.04.393.043.591.008.477.21.68.685.682 1.196.003 2.391-.01 3.587.001 1.924.019 3.606 1.624 3.72 3.56.09 1.482.032 2.967.036 4.451.009 3.365.003 6.73.002 10.095-.001 1.82-1.1 3.325-2.804 3.833a3.189 3.189 0 01-.916.143c-2.815 0-5.63.002-8.444.004h-2.838v.004zM14.95 5.975H5.007c-.408 0-.815-.01-1.223.043-1.1.144-1.828.95-1.813 2.062.022 1.531.542 2.874 1.574 4.003.924 1.012 2.05 1.675 3.41 1.89.801.127 1.612.143 2.42.153 1.074.013 2.148-.072 3.222-.028.384.015.676-.091.947-.374.37-.388.835-.63 1.386-.644.605-.016 1.1.236 1.517.66.203.206.424.358.731.357.62-.001 1.24.01 1.86.023.96.02 1.92 0 2.88-.025 1.844-.05 3.413-.699 4.615-2.128.995-1.183 1.496-2.56 1.444-4.12-.027-.79-.508-1.427-1.247-1.686a3.69 3.69 0 00-1.228-.185c-3.517-.003-7.035-.002-10.553-.001zm.036 18.21v-.002h8.33c.56 0 .717-.157.717-.72l-.003-3.289c-.001-1.187.001-2.375-.002-3.562 0-.536-.135-.664-.667-.632-.361.02-.72.086-1.084.085-1.628-.005-3.254 0-4.881-.006-.394-.002-.726.115-.994.41-.155.169-.34.302-.54.413-.653.363-1.442.335-1.909-.133-.512-.513-1.124-.668-1.813-.687-1.912-.05-3.828.128-5.735-.133-.354-.049-.463.077-.473.438-.002.077 0 .153 0 .229l-.004 6.714c0 .713.158.876.863.876h8.195zM14.843 4.04v-.005c1.408 0 2.815-.002 4.223.002.2 0 .392-.034.58-.095.267-.089.448-.316.418-.586-.065-.583-.426-1.258-1.17-1.36-.558-.077-1.118-.036-1.677-.038a913.486 913.486 0 00-5.631 0c-1.022.004-1.51.404-1.621 1.308-.07.566.112.774.679.774h4.2zM27.99 13.41l-.215.195c-.422.38-.834.784-1.324 1.072-.38.223-.497.526-.495.941.006 2.619.002 5.238 0 7.856 0 .114.005.227.035.34.053.197.174.295.379.284.232-.011.446-.089.642-.206.731-.438 1.012-1.123 1.014-1.943.005-2.763.003-5.526.003-8.29 0-.073.018-.15-.04-.25zM4.006 19.516h-.002v-4.065c0-.246-.051-.467-.277-.612-.52-.333-.974-.746-1.433-1.155-.062-.055-.116-.174-.22-.119-.097.051-.134.16-.136.274l-.002.205c-.001 1.226-.01 2.451-.001 3.677.012 1.537-.055 3.075.04 4.61.051.827.518 1.381 1.266 1.685.554.226.765.067.765-.526v-3.974z" fill="#E04E39"/></svg>