<?xml version="1.0" encoding="utf-8"?><svg width="31" height="31" fill="none" xmlns="http://www.w3.org/2000/svg" viewBox="0 0 31 31"><path d="M15.525 0C23.849-.082 31 6.798 31 15.435c0 8.665-6.94 15.637-15.616 15.56A15.457 15.457 0 010 15.448C.014 6.818 7.109-.09 15.525.001zm-.029 2.313C8.346 2.201 2.262 8.174 2.304 15.568 2.34 22.792 8.247 28.71 15.49 28.703c7.32 0 13.165-5.897 13.207-13.206.035-7.238-5.964-13.296-13.2-13.184z" fill="#E04E39"/><path d="M13.846 22.772c-1.447-.007-2.698-1.005-3.091-2.425a5.473 5.473 0 01-.218-1.476c.007-2.242 0-4.477.007-6.718 0-.654.112-1.287.358-1.898.787-1.954 2.838-2.635 4.623-1.518a48.72 48.72 0 012.753 1.876c1.054.774 2.087 1.589 3.112 2.397 1.65 1.307 1.707 3.423.14 4.821-1.896 1.694-3.968 3.163-6.125 4.505-.492.316-1.026.47-1.56.436zm-.864-7.007c.049 1.075-.106 2.403.07 3.725.126.948.674 1.194 1.46.667a82.453 82.453 0 005.234-3.872c.752-.598.73-1.054-.035-1.624-1.594-1.187-3.203-2.36-4.805-3.535-.407-.295-.843-.625-1.363-.38-.568.275-.547.872-.561 1.4-.021 1.117 0 2.241 0 3.619z" fill="#E04E39"/></svg>