<?xml version="1.0" encoding="utf-8"?><svg width="24" height="43" fill="none" xmlns="http://www.w3.org/2000/svg" viewBox="0 0 24 43"><path d="M.013 30.941c-.052-1.302.044-2.778.46-4.208.487-1.681 1.28-3.195 2.592-4.388.351-.321.505-.712.492-1.18-.019-1.104-.077-2.207-.051-3.31.077-3.164.454-6.281 1.523-9.277.832-2.316 1.926-4.49 3.608-6.32.704-.763 1.491-1.43 2.387-1.962.697-.424 1.382-.372 2.06.064 1.344.86 2.464 1.95 3.372 3.252 1.747 2.483 2.796 5.267 3.41 8.231.308 1.482.48 2.983.532 4.497.038 1.161.108 2.329.134 3.49.013.423-.032.853-.083 1.27-.058.468.057.847.403 1.174 1.81 1.7 2.738 3.83 3.033 6.268.166 1.398.115 2.797.083 4.195-.032 1.36-1.35 2.047-2.521 1.335-.576-.347-1.126-.757-1.677-1.142-.569-.398-1.126-.815-1.695-1.213-.48-.333-.755-.327-1.235.007-.25.173-.537.282-.8.43-.364.205-.435.404-.243.776.806 1.559.634 3.04-.294 4.49-.87 1.36-1.779 2.701-2.688 4.035a1.49 1.49 0 01-.39.411c-.307.205-.627.193-.915-.038a1.907 1.907 0 01-.41-.469c-.952-1.392-1.906-2.784-2.789-4.221-.838-1.36-.832-2.758-.179-4.19.186-.403.166-.487-.186-.775-.435-.353-.889-.635-1.484-.578-.48.045-.877.276-1.235.571-.78.655-1.619 1.226-2.47 1.784-.32.211-.665.385-1.055.41-.934.064-1.651-.616-1.683-1.623-.02-.532-.006-1.078-.006-1.796zM18.76 19.368c-.02-1.508-.07-2.983-.205-4.458A24.615 24.615 0 0017.3 9.032c-.192-.539-.384-1.084-.64-1.597-.192-.379-.435-.475-.838-.347-.167.052-.327.122-.487.187-1.567.635-3.18.82-4.843.526-.845-.148-1.638-.443-2.444-.719-.397-.141-.512-.083-.691.308a20.2 20.2 0 00-.851 2.162c-.78 2.38-1.12 4.837-1.216 7.332-.051 1.258-.019 2.522-.025 3.779-.007 1.347.09 2.694.275 4.029.16 1.129.339 2.251.73 3.33.421 1.16 1.164 2.046 2.315 2.546.397.173.544.077.512-.353a18.407 18.407 0 01.013-3.252c.102-.982.237-1.95.563-2.887.282-.796.633-1.553 1.267-2.13.46-.423.998-.59 1.606-.314.473.218.806.59 1.087 1.02.468.731.704 1.546.915 2.373.416 1.636.384 3.31.346 4.978 0 .103-.026.206-.02.308.02.289.142.366.41.283.064-.02.128-.045.192-.077a4.279 4.279 0 001.952-1.887c.544-1.058.755-2.22.947-3.374.332-1.95.345-3.939.384-5.889zm-5.586 9.187a14.139 14.139 0 00-.358-3.657c-.11-.468-.25-.924-.48-1.347-.173-.315-.493-.308-.672 0-.07.128-.14.263-.186.398-.48 1.436-.671 2.925-.71 4.432a14.264 14.264 0 00.333 3.336c.134.623.288 1.238.505 1.835.058.167.167.295.359.295.204 0 .339-.115.415-.301.032-.071.052-.148.077-.219.538-1.533.774-3.124.717-4.772zM11.914 6.19h.178c1.018-.019 1.997-.205 2.925-.635.339-.16.403-.359.185-.66-.716-1.014-1.51-1.95-2.502-2.708-.492-.372-.883-.385-1.382-.019-1.043.763-1.855 1.745-2.585 2.803-.166.238-.096.462.167.578.966.423 1.97.641 3.013.641zm8.388 18.001c-.064.404-.122.75-.173 1.09-.243 1.515-.538 3.01-1.274 4.382-.147.27-.108.411.154.603.333.25.678.482 1.024.719.633.443 1.26.892 1.894 1.334.076.058.153.122.262.064.096-.05.115-.147.109-.243 0-.103-.007-.206 0-.315.025-1.616-.013-3.233-.467-4.805a7.831 7.831 0 00-1.53-2.829zm-16.598.052c-.128.025-.172.102-.217.166a8.075 8.075 0 00-1.389 2.894c-.25.956-.339 1.93-.383 2.912a33.239 33.239 0 000 1.957c.006.27.095.308.32.16.204-.135.396-.276.594-.417.787-.552 1.574-1.103 2.361-1.661.205-.142.282-.315.154-.558-.646-1.213-.947-2.528-1.177-3.869-.09-.526-.173-1.052-.263-1.584zm5.644 10.63c0 .423.153.846.505 1.462.563.995 1.26 1.893 1.875 2.849.166.256.345.23.544-.052.332-.475.671-.95 1.004-1.43.416-.603.813-1.213 1.126-1.874.32-.693.333-1.373-.044-2.053-.033-.057-.052-.147-.135-.147-.083 0-.09.096-.121.154-.192.391-.384.776-.634 1.135-.576.815-1.574 1.046-2.38.54-.371-.232-.614-.584-.819-.963-.134-.25-.269-.507-.397-.763-.064-.129-.115-.142-.185-.007-.18.372-.359.731-.34 1.148z" fill="#E04E39"/><path d="M12.08 8.968c3.007.013 5.682 2.765 5.643 5.851-.038 2.9-2.623 5.652-5.733 5.626-3.244-.026-5.688-2.707-5.7-5.895-.02-3.073 2.891-5.627 5.79-5.582zm3.864 5.203c-.012-.827-.511-2.014-1.695-2.829-.896-.616-1.907-.763-2.956-.59-.87.14-1.625.526-2.227 1.187-.748.82-1.036 1.809-1.017 2.9.051 2.674 2.303 4.259 4.741 3.81 1.964-.366 3.16-1.886 3.154-4.478z" fill="#E04E39"/><path d="M11.997 17.66c-1.51-.006-2.924-1.423-2.918-2.937.006-1.54 1.427-2.983 2.95-2.977 1.471 0 2.879 1.444 2.885 2.951 0 1.553-1.395 2.97-2.917 2.964zm-.007-1.738c.736 0 1.19-.455 1.197-1.206 0-.763-.423-1.174-1.21-1.174-.761 0-1.164.398-1.164 1.155-.007.757.441 1.225 1.177 1.225z" fill="#E04E39"/></svg>