<?xml version="1.0" encoding="utf-8"?><svg width="30" height="28" fill="none" xmlns="http://www.w3.org/2000/svg" viewBox="0 0 30 28"><path d="M23.436 27.724c-1.37-.03-2.64-.38-3.72-1.25-.55-.44-1.1-.51-1.75-.3-2.05.67-4.12.68-6.17 0-.64-.21-1.18-.12-1.72.29-3.65 2.7-9.23 1-10.01-4.29-.39-2.66.98-5.14 3.38-6.39.58-.3.91-.74 1-1.4a9.949 9.949 0 012.39-5.28c.34-.39.7-.78 1.1-1.1.51-.39.7-.88.68-1.49-.04-1.13.14-2.22.7-3.2 1.13-1.99 2.86-3.08 5.13-3.29 2.93-.27 5.62 1.73 6.42 4.39.17.56.28 1.14.26 1.73-.02.86.29 1.53.93 2.11 1.81 1.63 2.89 3.67 3.23 6.09.1.67.42 1.15 1.03 1.47 2.46 1.26 3.82 3.99 3.33 6.64-.52 2.82-2.66 4.88-5.43 5.23-.25.01-.51.05-.78.04zm-8.5-2.98c.63.01 1.25-.11 1.86-.25.83-.19.91-.32.67-1.12-.25-.84-.39-1.68-.29-2.56.28-2.49 1.56-4.25 3.85-5.28.59-.26 1.23-.35 1.85-.49.45-.1.61-.36.51-.79-.36-1.6-1.07-3.04-2.19-4.25-.5-.53-.78-.52-1.22.05-.07.09-.15.19-.23.28-1.59 1.85-3.59 2.62-6 2.2-1.62-.28-2.9-1.16-3.92-2.43-.52-.66-.78-.69-1.32-.07-1.05 1.18-1.76 2.53-2.1 4.08-.15.67.03.92.7 1.01 1.7.22 3.08.98 4.13 2.34.95 1.24 1.45 2.61 1.36 4.2-.04.66-.2 1.29-.37 1.92-.14.54.03.81.58.92.7.13 1.41.22 2.13.24zm-13.02-3.4c-.01 2.45 1.99 4.48 4.42 4.5 2.31.02 4.38-2.07 4.38-4.42 0-2.43-2-4.48-4.39-4.49-2.38-.02-4.4 2.01-4.41 4.41zm21.53 4.45c2.42 0 4.39-1.97 4.39-4.4.01-2.44-2.04-4.47-4.49-4.46-2.31 0-4.31 2.07-4.31 4.43.01 2.46 1.97 4.43 4.41 4.43zm-12.97-19.49c0 2.48 1.98 4.44 4.48 4.44 2.31 0 4.31-2.03 4.32-4.36 0-2.48-1.97-4.49-4.4-4.49-2.39-.01-4.4 2.01-4.4 4.41z" fill="#E04E39"/></svg>