<?xml version="1.0" encoding="utf-8"?><svg width="31" height="28" fill="none" xmlns="http://www.w3.org/2000/svg" viewBox="0 0 31 28"><path d="M30.993 15.81v1.237c0 1.225-.828 2.074-2.107 2.157-.172.012-.351.032-.51-.007-.405-.089-.583.115-.742.421-.623 1.219-1.545 2.189-2.704 2.954-.2.134-.49.224-.583.409-.107.197.125.433.192.657.338 1.123-.18 2.15-1.312 2.577-.617.23-1.24.453-1.863.67-1.086.37-2.26-.134-2.717-1.148-.106-.236-.218-.472-.291-.721-.066-.223-.206-.268-.411-.236-.583.083-1.173.095-1.756.127a11.665 11.665 0 01-3.055-.216c-.279-.058-.385.025-.464.261-.086.255-.199.498-.305.746a2.148 2.148 0 01-2.63 1.206 23.441 23.441 0 01-2.161-.778 1.953 1.953 0 01-1.107-2.45c.126-.364.265-.714.424-1.065.1-.224.067-.364-.139-.524-1.299-1.014-2.326-2.239-2.949-3.745-.45-1.084-.57-2.207-.45-3.362.046-.427.066-.861.159-1.282.04-.192-.034-.268-.206-.345-1.04-.465-1.836-1.16-2.18-2.252-.424-1.359.192-2.928 1.405-3.605.232-.133.477-.23.762-.204.397.039.742.332.808.69.087.44-.066.752-.477.982-.59.325-.815.74-.729 1.378.086.638.484 1.053 1.08 1.32.18.083.193-.07.239-.165.404-.81.881-1.576 1.544-2.22 1.292-1.251 2.823-2.125 4.533-2.718 1.518-.53 3.088-.791 4.705-.836a16.968 16.968 0 013.413.236c.278.051.45-.006.61-.243 1.013-1.518 2.478-2.437 4.26-2.922.186-.05.372-.089.57-.082.584.025 1.008.548.869 1.097-.06.23-.153.446-.245.67-.338.848-.59 1.716-.716 2.616-.033.236.033.363.252.459a7.166 7.166 0 012.65 2.093c.577.74 1.014 1.55 1.246 2.45.066.248.18.331.438.325.616-.026 1.219.019 1.742.389.564.396.875.919.895 1.595.02.453.013.931.013 1.404zM22.24 5.2c-.132-.02-.185.044-.245.083-.769.49-1.299 1.174-1.723 1.952-.364.67-.63.785-1.405.625a17.2 17.2 0 00-3.433-.338c-2.306-.006-4.466.479-6.46 1.62-1.505.862-2.698 1.978-3.281 3.612-.351.989-.418 2.003-.444 3.036-.027 1.276.417 2.374 1.193 3.382.523.689 1.173 1.244 1.855 1.786.597.479.789 1.085.544 1.8-.16.459-.332.912-.524 1.358-.093.224-.06.338.179.421.596.204 1.186.415 1.77.632.192.07.298.026.364-.16.139-.37.285-.733.43-1.097.378-.912 1.034-1.25 2.028-1.065.703.134 1.412.204 2.128.236 1.073.044 2.134-.121 3.2-.128.763-.006 1.273.338 1.558 1.015.146.35.291.708.43 1.065.06.153.14.21.312.147.63-.236 1.26-.46 1.889-.683.179-.064.198-.153.126-.306-.08-.179-.146-.364-.22-.549-.39-1.02-.152-1.678.816-2.246.311-.185.616-.37.908-.58.841-.619 1.425-1.436 1.902-2.335.39-.74 1-1.13 1.882-1.098.278.013.556-.006.835-.006.179 0 .252-.07.252-.236v-2.654c0-.153-.073-.223-.232-.223-.226 0-.45 0-.676-.007-1.173-.019-1.783-.466-2.055-1.563-.457-1.837-1.61-3.069-3.426-3.751-.768-.287-.934-.606-.888-1.397.053-.792.186-1.57.411-2.348z" fill="#E04E39"/><path d="M16.07 5.13h-.292c-.457-.013-.65-.147-.729-.581-.1-.53-.245-1.04-.576-1.487-.796-1.071-2.287-1.524-3.692-1.097-1.292.39-2.114 1.506-2.12 2.852 0 .39.073.753.192 1.116.132.396.04.581-.365.76-.172.076-.344.165-.516.242-.438.204-.703.109-.875-.338-.69-1.729-.391-3.305.802-4.747C8.913.638 10.238.006 11.849 0c1.828-.006 3.213.849 4.254 2.259a4.24 4.24 0 01.795 1.933c.113.804 0 .938-.828.938zM24.837 13.934c0 .797-.683 1.448-1.518 1.448-.815 0-1.517-.67-1.517-1.454-.007-.792.709-1.474 1.544-1.468.815 0 1.49.676 1.49 1.474z" fill="#E04E39"/></svg>