<?xml version="1.0" encoding="utf-8"?><svg width="424" height="179" fill="none" xmlns="http://www.w3.org/2000/svg" viewBox="0 0 424 179"><path d="M132.055 145.473h-18.889v30.128H77.76v-30.128H0v-29.918L76.554 3.327h36.612v110.521h18.889v31.625zM77.76 113.89V51.68l-38.734 62.21H77.76zm198.541 2.414c0 17.851-6.033 32.79-18.057 44.732-12.024 11.943-27.002 17.935-44.851 17.935-17.848 0-32.868-6.034-44.975-18.06-12.107-12.025-18.181-27.006-18.181-44.857V62.707c0-18.018 6.032-32.998 18.056-44.857C180.317 5.949 195.378.04 213.393.04s33.035 5.909 44.976 17.685c11.94 11.818 17.932 26.715 17.932 44.733v53.846zm-39.692-2.248v-49.6c0-19.808-7.822-29.753-23.424-29.753-8.945 0-15.061 2.954-18.431 8.863-3.328 5.95-5.034 12.9-5.034 20.89v51.515c0 8.156 1.831 14.73 5.492 19.682 4.16 5.41 10.11 8.156 17.932 8.156 9.236 0 15.477-2.913 18.639-8.739 3.204-5.867 4.826-12.816 4.826-21.014zm187.307 31.417h-18.889v30.128h-35.406v-30.128h-77.76v-29.918L368.415 3.327h36.612v110.521h18.889v31.625zm-54.295-31.583V51.68l-38.734 62.21h38.734z" fill="#272A45"/></svg>