<?xml version="1.0" encoding="utf-8"?><svg width="16" height="16" fill="none" xmlns="http://www.w3.org/2000/svg" viewBox="0 0 16 16"><path d="M15.703 15.703a.97.97 0 01-.71.297.97.97 0 01-.712-.297l-3.094-3.097c-1.25.928-2.645 1.392-4.187 1.392a6.836 6.836 0 01-2.719-.555 7.03 7.03 0 01-2.234-1.494A7.063 7.063 0 01.555 9.72 6.818 6.818 0 010 7c0-.954.185-1.864.555-2.73a6.946 6.946 0 011.492-2.228A7.1 7.1 0 014.28.555 6.837 6.837 0 017 0c.948 0 1.854.185 2.719.555a7.1 7.1 0 012.234 1.486 6.947 6.947 0 011.492 2.229c.37.865.555 1.772.555 2.721 0 1.554-.463 2.951-1.39 4.192l3.093 3.097a.971.971 0 01.297.711.971.971 0 01-.297.712zM7 2.002c-.906 0-1.742.222-2.508.665a4.925 4.925 0 00-1.82 1.822A4.914 4.914 0 002 6.999c0 .902.224 1.739.672 2.51a4.925 4.925 0 001.82 1.822A4.919 4.919 0 007 11.996c.906 0 1.742-.222 2.508-.665a4.926 4.926 0 001.82-1.822A4.914 4.914 0 0012 7c0-.902-.224-1.739-.672-2.51a4.925 4.925 0 00-1.82-1.822A4.918 4.918 0 007 2.002z" fill="#E04E39"/></svg>