<svg width="166" height="55" viewBox="0 0 166 55" fill="none" xmlns="http://www.w3.org/2000/svg">
<rect x="0.5" y="0.5" width="165" height="54" rx="4.5" fill="white" stroke="#EBEBEB"/>
<path d="M22 27.2241C22 23.6614 23.8343 21.0588 26.799 20.3334C27.9294 20.0561 28.9958 20.2908 30.0409 20.6534C31.4913 21.1654 32.8563 21.1441 34.2853 20.5894C36.4822 19.7361 38.4444 20.2481 40.1934 21.8054C40.7266 22.2748 40.8332 22.6588 40.1934 23.1494C37.3566 25.3681 37.9112 29.3361 40.7692 31.1281C41.3878 31.5121 41.4731 31.9174 41.1531 32.5361C40.364 34.0081 39.4682 35.3948 38.2951 36.5894C37.2713 37.6348 36.0769 37.9761 34.7119 37.4001C33.0056 36.6748 31.3633 36.6748 29.657 37.4001C28.2066 38.0188 26.9696 37.5708 25.8818 36.5041C23.6636 34.3281 22 30.3601 22 27.2241Z" fill="#A4A4A4"/>
<path d="M73.7868 26.2214C75.3651 24.9841 76.9434 24.4934 78.7137 25.4747C80.6333 26.5627 81.1025 28.3974 81.0385 30.3601C80.9532 32.9841 79.3749 34.8401 77.1354 35.2241C76.2182 35.3947 75.3651 35.1387 74.5973 34.6907C73.9787 34.3281 73.8721 34.5841 73.8934 35.1387C73.9147 36.1201 73.8721 37.1227 73.8934 38.1041C73.9147 39.1494 73.1469 38.9361 72.5497 38.9361C71.9312 38.9361 71.206 39.0854 71.2273 38.0827C71.2487 34.0294 71.2273 29.9761 71.2273 25.9227C71.2273 25.5601 71.27 25.1761 71.7392 25.1547C72.3578 25.1334 73.0403 24.9841 73.5095 25.5814C73.5948 25.7521 73.6588 25.9441 73.7868 26.2214ZM73.8294 30.1894C73.8508 30.1894 73.8721 30.1894 73.8721 30.1894C73.8721 30.4027 73.8721 30.6161 73.8721 30.8294C73.9361 32.1307 74.5759 32.9627 75.621 33.1334C76.8154 33.3041 77.7752 32.6641 78.1805 31.4267C78.5004 30.4454 78.4791 29.4854 78.0312 28.5467C77.6046 27.6507 76.9647 27.0534 75.8983 27.1387C74.8106 27.2027 74.256 27.8854 74.0001 28.8454C73.8934 29.2721 73.8934 29.7201 73.8294 30.1894Z" fill="#A4A4A4"/>
<path d="M53.011 21.4853C54.0774 21.1867 54.4827 21.848 54.8026 22.936C55.869 26.52 57.0634 30.0613 58.1725 33.624C58.3218 34.0933 58.7911 34.7333 57.9806 35.0747C57.1061 35.4587 55.933 35.032 55.6344 34.3067C55.5918 34.1787 55.5491 34.0293 55.4851 33.9013C55.1439 33.0907 55.2505 31.9173 54.4827 31.5333C53.4589 31.0213 52.2005 31.384 51.0274 31.3627C50.6009 31.3627 50.4302 31.6827 50.3236 32.0453C50.089 32.792 49.833 33.5173 49.6197 34.264C49.4918 34.776 49.2358 35.032 48.6813 35.1173C46.8897 35.3733 46.6337 35.1173 47.1883 33.3893C48.276 29.9973 49.3425 26.6053 50.4302 23.2347C51.0061 21.4853 51.0061 21.4853 53.011 21.4853ZM52.5631 24.1093C52.2218 25.2613 51.9446 26.2427 51.646 27.2027C51.0274 29.2293 50.4942 29.144 53.2669 29.144C53.9068 29.144 54.0774 28.9307 53.8855 28.3333C53.4589 27.0107 53.0536 25.6667 52.5631 24.1093Z" fill="#A4A4A4"/>
<path d="M62.5669 34.4774C62.5669 35.6934 62.5243 36.8027 62.5883 37.912C62.6523 38.9787 62.0124 38.9787 61.2232 38.9787C60.4554 38.9787 59.8582 38.9787 59.8795 37.8907C59.9222 33.9867 59.9009 30.0827 59.8795 26.1574C59.8795 25.6454 59.9435 25.2187 60.562 25.176C61.1379 25.1334 61.8204 24.8774 62.119 25.624C62.2897 26.008 62.3323 26.2427 62.8229 25.9014C65.7236 23.96 68.9655 25.304 69.5201 28.696C69.6907 29.7414 69.6481 30.7867 69.4134 31.8534C68.7949 34.6054 65.4037 36.248 63.1002 34.6694C62.9935 34.6267 62.8655 34.584 62.5669 34.4774ZM62.5883 30.1894C62.5883 30.5307 62.5669 30.8934 62.5883 31.2347C62.6736 32.216 63.1642 32.8987 64.1453 33.112C65.169 33.3254 66.1075 32.92 66.5554 32.0027C67.1313 30.7654 67.1526 29.464 66.5554 28.248C66.1502 27.416 65.4037 27.032 64.4652 27.1387C63.5694 27.2454 63.0148 27.7787 62.7376 28.632C62.5456 29.1227 62.5883 29.656 62.5883 30.1894Z" fill="#A4A4A4"/>
<path d="M106.226 21.2506C106.674 21.3146 107.271 21.3786 107.847 21.5066C109.02 21.7626 109.362 22.6586 108.722 23.6399C108.466 24.0453 108.146 23.9599 107.783 23.8319C106.93 23.5333 106.056 23.3839 105.181 23.5759C104.477 23.7253 103.88 24.0879 103.773 24.8346C103.667 25.5386 104.115 26.0506 104.712 26.3493C105.458 26.7333 106.269 27.0533 107.015 27.4159C109.148 28.4826 109.98 29.9333 109.639 31.8533C109.34 33.5813 107.783 34.8186 105.693 35.1599C104.285 35.3733 102.942 35.1599 101.619 34.7119C100.638 34.3919 101.022 33.6879 101.171 33.0479C101.342 32.2799 101.811 32.3226 102.366 32.5573C103.347 32.9413 104.371 33.0053 105.394 32.8986C106.184 32.8346 106.738 32.4293 106.93 31.6613C107.101 30.8933 106.823 30.2746 106.141 29.8693C104.925 29.1439 103.518 28.8239 102.43 27.8426C100.51 26.1573 100.681 23.5119 102.835 22.0613C103.795 21.4426 104.925 21.3359 106.226 21.2506Z" fill="#A4A4A4"/>
<path d="M117.382 30.0613C117.382 27.032 119.451 24.92 122.395 24.9627C125.317 25.0053 127.3 27.0533 127.3 30.0613C127.3 33.0907 125.167 35.3093 122.245 35.3093C119.345 35.3307 117.382 33.176 117.382 30.0613ZM120.07 30.168C120.027 30.8507 120.134 31.5333 120.496 32.1733C121.371 33.688 123.077 33.752 123.994 32.28C124.869 30.872 124.89 29.4 124.016 27.9707C123.141 26.5627 121.414 26.584 120.539 28.0133C120.155 28.6533 120.027 29.3787 120.07 30.168Z" fill="#A4A4A4"/>
<path d="M140.673 30.9361C139.884 30.9361 139.116 30.9148 138.327 30.9361C137.516 30.9574 137.346 31.3414 137.794 32.0241C138.284 32.7494 138.988 33.1121 139.862 33.1548C140.673 33.1761 141.483 33.2188 142.294 33.0054C142.785 32.8774 143.147 33.0268 143.254 33.5601C143.36 34.0721 143.552 34.6481 142.827 34.8828C140.609 35.5868 137.26 35.6294 135.725 33.1761C134.253 30.8294 134.786 27.6508 136.962 25.9228C138.412 24.7708 140.524 24.6428 142.038 25.6241C143.382 26.4774 144.299 28.9094 143.915 30.4028C143.808 30.8508 143.488 30.9361 143.126 30.9361C142.294 30.9148 141.483 30.9148 140.673 30.9361C140.673 30.9148 140.673 30.9148 140.673 30.9361ZM139.649 26.7761C138.753 26.7761 137.708 27.6508 137.516 28.4828C137.388 29.0161 137.687 29.1014 138.092 29.1014C138.796 29.1014 139.521 29.1228 140.225 29.1014C140.652 29.0801 141.27 29.3148 141.462 28.7814C141.654 28.2694 141.27 27.7574 140.929 27.3521C140.588 26.9254 140.097 26.8401 139.649 26.7761Z" fill="#A4A4A4"/>
<path d="M92.5751 30.9359C91.7859 30.9359 91.0181 30.9573 90.2289 30.9359C89.4397 30.9146 89.4184 31.2773 89.6744 31.8533C90.0796 32.7279 90.8261 33.0693 91.7219 33.1333C92.5751 33.1973 93.4282 33.1973 94.26 32.9839C94.7506 32.8559 95.0918 33.0053 95.1771 33.5599C95.2625 34.0506 95.4544 34.4986 94.8359 34.8399C91.402 36.6746 87.0083 34.3919 86.859 30.5306C86.731 27.2666 89.0345 24.4719 92.4258 25.0693C94.6653 25.4533 96.4782 28.0986 95.9663 30.3173C95.8597 30.8079 95.5397 30.9146 95.1132 30.9146C94.2813 30.9146 93.4282 30.9146 92.5751 30.9359C92.5751 30.9146 92.5751 30.9146 92.5751 30.9359ZM91.3806 29.1013C91.7646 29.1013 92.1485 29.1013 92.5324 29.1013C93.5135 29.0799 93.7695 28.6533 93.3216 27.7786C92.6817 26.4773 90.8261 26.3493 89.8663 27.5439C89.5677 27.9066 89.1411 28.3333 89.3544 28.8453C89.5677 29.2933 90.1223 29.0586 90.5275 29.1013C90.8261 29.1226 91.1034 29.1013 91.3806 29.1013Z" fill="#A4A4A4"/>
<path d="M116.658 26.2641C116.807 27.1388 116.274 27.3734 115.506 27.2881C114.568 27.1814 114.248 27.5868 114.312 28.5041C114.376 29.4854 114.312 30.4881 114.354 31.4694C114.397 32.3654 114.674 33.0694 115.805 33.0054C116.573 32.9628 116.637 33.4961 116.658 34.0721C116.679 34.6481 116.615 35.0748 115.89 35.2028C113.651 35.6508 112.179 34.6694 111.838 32.3868C111.624 31.0214 111.752 29.6348 111.71 28.2694C111.688 27.8428 111.731 27.3947 111.134 27.2881C110.494 27.1814 110.387 26.7334 110.387 26.2001C110.387 25.6667 110.494 25.2188 111.134 25.1121C111.795 25.0054 111.667 24.4721 111.731 24.0454C111.838 23.1067 113.075 22.2534 113.949 22.5734C114.44 22.7441 114.376 23.2134 114.354 23.5547C114.226 24.6854 114.525 25.3041 115.847 25.1334C116.594 25.0267 116.722 25.6027 116.658 26.2641Z" fill="#A4A4A4"/>
<path d="M82.6812 27.9066C82.6812 25.8586 82.7025 23.8106 82.6812 21.784C82.6812 21.0586 82.8732 20.632 83.6837 20.696C84.4515 20.76 85.3047 20.568 85.3047 21.8053C85.3047 25.9226 85.3047 30.0613 85.3473 34.1786C85.3473 35.2026 84.7075 35.16 84.0036 35.16C83.2998 35.16 82.6599 35.2026 82.6812 34.1573C82.7239 32.0666 82.6812 29.976 82.6812 27.9066Z" fill="#A4A4A4"/>
<path d="M131.138 26.6054C131.927 25.7307 132.567 25.1547 133.441 24.984C134.103 24.8347 134.444 25.0694 134.529 25.752C134.7 27.096 134.55 27.288 133.143 27.544C132.204 27.7147 131.607 28.4614 131.564 29.7627C131.522 31.1707 131.479 32.5787 131.564 33.9867C131.607 35.096 130.967 35.1174 130.157 35.1387C129.282 35.16 128.856 34.9254 128.877 33.944C128.92 31.448 128.92 28.9307 128.877 26.4347C128.877 25.6667 129.005 25.176 129.922 25.0907C130.861 25.048 131.244 25.3894 131.138 26.6054Z" fill="#A4A4A4"/>
<path d="M31.2981 19.6294C31.2981 17.7947 33.4736 15.2987 35.2865 15.0214C35.9264 14.9147 36.1184 15.2347 36.161 15.768C36.2677 17.688 34.1348 20.184 32.1939 20.44C31.5327 20.5254 31.2981 20.312 31.2981 19.6294Z" fill="#A4A4A4"/>
</svg>
