<svg width="641" height="366" viewBox="0 0 641 366" fill="none" xmlns="http://www.w3.org/2000/svg">
<g clip-path="url(#clip0)">
<path d="M32.8881 365.264C-0.120311 352.73 -8.91938 315.318 18.3815 272.019C45.9678 228.269 -66.8743 109.885 116.051 29.6731C287.728 -45.6016 384.494 46.385 425.255 43.9399C530.63 37.6255 615.505 68.9603 634.697 163.914C657.55 276.957 608.87 341.81 586.54 365.264C462.211 365.264 32.8881 365.264 32.8881 365.264Z" fill="white"/>
<path d="M530.773 348.576H155.838V353.988H530.773V348.576Z" fill="#E2EBF0"/>
<path d="M534.602 353.988H151.985V359.4H534.602V353.988Z" fill="#D1D9DD"/>
<path d="M539.88 359.401H146.705V364.813H539.88V359.401Z" fill="#E2EBF0"/>
<path d="M515.197 141.814H164.566V348.6H515.197V141.814Z" fill="#F0F8FC"/>
<path d="M539.025 145.754H143.78L344.994 43.9398L539.025 145.754Z" fill="#F0F8FC"/>
<path d="M203.78 132.152L479.024 131.582L344.85 61.9337L203.78 132.152Z" fill="#D1D9DD"/>
<path d="M337.569 92.1096C337.569 89.8016 337.531 87.496 337.58 85.1905C337.621 83.2955 338.33 82.2508 339.928 82.1894C344.553 82.0124 349.219 81.6757 353.775 82.7867C359.861 84.2713 362.795 89.0642 361.813 95.5531C360.843 101.968 356.464 105.84 349.831 106.122C348.673 106.171 347.511 106.189 346.354 106.147C345.438 106.115 345.127 106.523 345.135 107.435C345.142 108.359 345.376 108.878 346.399 108.841C347.974 108.784 349.553 108.855 351.128 108.819C352.127 108.796 352.575 109.337 352.672 110.271C352.731 110.841 352.734 111.424 352.715 111.999C352.672 113.312 352.129 114.042 350.73 113.965C349.342 113.889 347.947 113.985 346.558 113.929C345.564 113.889 345.156 114.243 345.123 115.322C345.021 118.623 344.985 118.613 341.821 118.967C340.837 119.078 339.879 118.881 338.918 118.754C337.829 118.608 337.571 117.792 337.545 116.763C337.471 113.931 337.45 113.934 334.647 113.946C333.672 113.951 332.697 113.909 331.725 113.946C330.607 113.988 330.102 113.383 330.026 112.316C329.984 111.694 329.995 111.065 330.031 110.443C330.093 109.369 330.574 108.777 331.708 108.816C333.19 108.865 334.68 108.747 336.157 108.848C337.455 108.937 337.569 108.238 337.588 107.177C337.607 106.048 337.331 105.478 336.112 105.552C334.68 105.638 333.238 105.53 331.8 105.579C330.615 105.618 330.097 105.006 330.029 103.868C329.995 103.342 330.012 102.811 330.012 102.283C330.017 100.975 330.591 100.371 331.91 100.439C333.342 100.516 334.786 100.395 336.221 100.467C337.284 100.518 337.59 100.061 337.566 99.0262C337.516 96.7207 337.55 94.4127 337.55 92.1071C337.554 92.1096 337.561 92.1096 337.569 92.1096ZM348.332 88.231C347.698 88.231 347.419 88.2334 347.141 88.231C345.132 88.2187 345.137 88.2187 345.144 90.2883C345.151 92.3996 345.135 94.5134 345.153 96.6248C345.194 100.764 344.404 100.213 348.88 100.142C351.439 100.1 353.331 98.3896 353.908 95.9513C354.631 92.8838 353.867 90.2932 351.868 89.0249C350.665 88.2605 349.33 88.1966 348.332 88.231Z" fill="#F0F8FC"/>
<path d="M530.631 145.754H154.103V154.466H530.631V145.754Z" fill="#D1D9DD"/>
<path d="M219.144 145.754H182.046V158.858H219.144V145.754Z" fill="#E2EBF0"/>
<path d="M210.821 158.858H190.369V348.599H210.821V158.858Z" fill="#E2EBF0"/>
<path d="M299.287 145.754H262.188V158.858H299.287V145.754Z" fill="#E2EBF0"/>
<path d="M290.964 158.858H270.512V348.599H290.964V158.858Z" fill="#E2EBF0"/>
<path d="M425.28 145.754H388.181V158.858H425.28V145.754Z" fill="#E2EBF0"/>
<path d="M416.956 158.858H396.504V348.599H416.956V158.858Z" fill="#E2EBF0"/>
<path d="M500.737 145.754H463.638V158.858H500.737V145.754Z" fill="#E2EBF0"/>
<path d="M492.414 158.858H471.962V348.599H492.414V158.858Z" fill="#E2EBF0"/>
<path d="M365.255 348.576H314.363V293.075C314.363 279.924 325.04 269.242 338.239 269.242H342.758C355.171 269.242 365.255 279.283 365.255 291.698V348.576Z" fill="#D1D9DD"/>
<path d="M323.043 228.53H299.024V202.347C299.024 196.127 304.065 191.095 310.296 191.095H312.436C318.31 191.095 323.043 195.842 323.043 201.682V228.53Z" fill="#D1D9DD"/>
<path d="M252.676 228.53H228.657V202.347C228.657 196.127 233.698 191.095 239.929 191.095H242.069C247.943 191.095 252.676 195.842 252.676 201.682V228.53Z" fill="#D1D9DD"/>
<path d="M252.676 308.932H228.657V282.725C228.657 276.506 233.698 271.473 239.929 271.473H242.069C247.943 271.473 252.676 276.221 252.676 282.061V308.932Z" fill="#D1D9DD"/>
<path d="M456.456 228.53H432.437V202.347C432.437 196.127 437.478 191.095 443.709 191.095H445.849C451.723 191.095 456.456 195.842 456.456 201.682V228.53Z" fill="#D1D9DD"/>
<path d="M456.456 308.932H432.437V282.725C432.437 276.506 437.478 271.473 443.709 271.473H445.849C451.723 271.473 456.456 276.221 456.456 282.061V308.932Z" fill="#C0D8FB"/>
<path d="M383.781 228.53H359.762V202.347C359.762 196.127 364.804 191.095 371.035 191.095H373.175C379.049 191.095 383.781 195.842 383.781 201.682V228.53Z" fill="#D1D9DD"/>
<path d="M435.744 358.689V363.056C435.744 363.413 435.625 363.721 435.387 364.006C435.149 364.291 434.84 364.505 434.436 364.647C434.317 364.694 434.198 364.718 434.079 364.742C433.96 364.766 433.841 364.766 433.723 364.766H350.536C349.466 364.766 348.586 364.054 348.514 363.175C348.514 363.151 348.514 363.128 348.514 363.08V358.689C348.514 358.665 348.514 358.641 348.514 358.594C348.562 357.715 349.442 357.003 350.536 357.003H433.746C433.865 357.003 433.984 357.003 434.103 357.027C434.222 357.051 434.365 357.074 434.46 357.122C434.84 357.241 435.173 357.478 435.411 357.763C435.625 358.024 435.744 358.333 435.744 358.689Z" fill="#FFB93E"/>
<path d="M394.887 364.766H350.321C349.369 364.766 348.585 364.054 348.537 363.175C348.537 363.151 348.537 363.128 348.537 363.08V358.689C348.537 358.665 348.537 358.641 348.537 358.594C348.585 357.715 349.369 357.003 350.321 357.003H389.417C390.035 359.282 391.51 362.439 394.887 364.766Z" fill="#FFA412"/>
<path d="M425.636 357.003H424.685V364.766H425.636V357.003Z" fill="#FFA412"/>
<path d="M422.426 357.003H421.475V364.766H422.426V357.003Z" fill="#FFA412"/>
<path d="M418.595 357.003H417.644V364.766H418.595V357.003Z" fill="#FFA412"/>
<path d="M412.698 357.003H411.747V364.766H412.698V357.003Z" fill="#FFA412"/>
<path d="M406.492 357.003H405.541V364.766H406.492V357.003Z" fill="#FFA412"/>
<path d="M396.954 357.003H396.003V364.766H396.954V357.003Z" fill="#FFA412"/>
<path d="M388.014 357.003H387.063V364.766H388.014V357.003Z" fill="#FFA412"/>
<path d="M380.047 357.003H379.096V364.766H380.047V357.003Z" fill="#FFA412"/>
<path d="M428.68 357.003H427.728V364.766H428.68V357.003Z" fill="#FFA412"/>
<path d="M430.701 357.003H429.75V364.766H430.701V357.003Z" fill="#FFA412"/>
<path d="M432.626 357.003H431.675V364.766H432.626V357.003Z" fill="#FFA412"/>
<path d="M434.101 357.027V364.718C433.982 364.742 433.864 364.742 433.745 364.742H433.15V356.979H433.745C433.864 357.003 433.982 357.003 434.101 357.027Z" fill="#FFA412"/>
<path d="M435.409 357.763V364.03C435.172 364.315 434.862 364.528 434.458 364.671V357.146C434.839 357.24 435.172 357.478 435.409 357.763Z" fill="#FFA412"/>
<path d="M426.85 350.95V355.317C426.85 355.673 426.731 355.982 426.493 356.267C426.255 356.552 425.946 356.765 425.542 356.908C425.423 356.955 425.304 356.979 425.185 357.003C425.066 357.027 424.947 357.027 424.828 357.027H341.618C340.548 357.027 339.668 356.314 339.596 355.436C339.596 355.412 339.596 355.389 339.596 355.341V350.973C339.596 350.95 339.596 350.926 339.596 350.878C339.644 350 340.524 349.288 341.618 349.288H424.828C424.876 349.288 424.924 349.288 424.995 349.288C425.019 349.288 425.042 349.288 425.066 349.288C425.09 349.288 425.114 349.288 425.138 349.288C425.161 349.288 425.161 349.288 425.185 349.288C425.304 349.312 425.447 349.335 425.542 349.383C425.566 349.383 425.566 349.383 425.589 349.407C425.613 349.407 425.613 349.43 425.637 349.43C425.661 349.454 425.708 349.454 425.732 349.478C425.756 349.478 425.78 349.501 425.78 349.501C425.803 349.501 425.803 349.525 425.827 349.525C425.851 349.549 425.899 349.549 425.922 349.573C425.946 349.596 425.994 349.62 426.017 349.644C426.041 349.668 426.065 349.668 426.089 349.691C426.113 349.715 426.113 349.715 426.136 349.739C426.184 349.786 426.231 349.81 426.279 349.858C426.303 349.881 426.303 349.881 426.327 349.905C426.35 349.929 426.35 349.929 426.374 349.952C426.398 349.976 426.422 350 426.445 350.047C426.731 350.261 426.85 350.593 426.85 350.95Z" fill="#FFB93E"/>
<path d="M385.992 357.003H341.403C340.451 357.003 339.666 356.291 339.619 355.412C339.619 355.389 339.619 355.365 339.619 355.317V350.95C339.619 350.926 339.619 350.902 339.619 350.855C339.666 349.976 340.451 349.264 341.403 349.264H380.499C380.523 349.335 380.523 349.383 380.546 349.454C381.236 351.709 382.687 354.748 385.992 357.003Z" fill="#FFA412"/>
<path d="M416.744 349.24H415.793V357.003H416.744V349.24Z" fill="#FFA412"/>
<path d="M413.534 349.24H412.582V357.003H413.534V349.24Z" fill="#FFA412"/>
<path d="M409.703 349.24H408.752V357.003H409.703V349.24Z" fill="#FFA412"/>
<path d="M403.806 349.24H402.854V357.003H403.806V349.24Z" fill="#FFA412"/>
<path d="M397.6 349.24H396.649V357.003H397.6V349.24Z" fill="#FFA412"/>
<path d="M388.062 349.24H387.111V357.003H388.062V349.24Z" fill="#FFA412"/>
<path d="M379.121 349.24H378.17V357.003H379.121V349.24Z" fill="#FFA412"/>
<path d="M371.155 349.24H370.203V357.003H371.155V349.24Z" fill="#FFA412"/>
<path d="M419.787 349.24H418.836V357.003H419.787V349.24Z" fill="#FFA412"/>
<path d="M421.809 349.24H420.857V357.003H421.809V349.24Z" fill="#FFA412"/>
<path d="M423.734 349.24H422.783V357.003H423.734V349.24Z" fill="#FFA412"/>
<path d="M425.209 349.288V356.979C425.09 357.003 424.971 357.003 424.852 357.003H424.258V349.24H424.852C424.971 349.24 425.09 349.264 425.209 349.288Z" fill="#FFA412"/>
<path d="M426.517 350V356.267C426.279 356.552 425.97 356.766 425.566 356.908V349.383C425.946 349.502 426.279 349.715 426.517 350Z" fill="#FFA412"/>
<path d="M431.155 343.377V347.745C431.155 348.101 431.036 348.41 430.798 348.695C430.56 348.979 430.251 349.193 429.847 349.336C429.728 349.383 429.609 349.407 429.49 349.43C429.371 349.454 429.252 349.454 429.133 349.454H345.923C345.59 349.454 345.281 349.383 344.995 349.264C344.401 349.003 343.996 348.505 343.925 347.935C343.925 347.911 343.925 347.887 343.925 347.864C343.925 347.84 343.925 347.816 343.925 347.769V343.401C343.925 343.377 343.925 343.353 343.925 343.306C343.973 342.428 344.853 341.715 345.947 341.715H429.157C429.276 341.715 429.395 341.715 429.514 341.739C429.633 341.763 429.775 341.787 429.871 341.834C430.251 341.953 430.584 342.19 430.822 342.475C431.036 342.712 431.155 343.021 431.155 343.377Z" fill="#FFB93E"/>
<path d="M390.297 349.454H345.731C345.422 349.454 345.161 349.383 344.899 349.264C344.376 349.003 343.995 348.505 343.948 347.935C343.948 347.911 343.948 347.887 343.948 347.864C343.948 347.84 343.948 347.816 343.948 347.769V343.401C343.948 343.377 343.948 343.353 343.948 343.306C343.995 342.428 344.78 341.715 345.731 341.715H384.828C385.446 343.947 386.825 346.985 390.036 349.288C390.107 349.312 390.202 349.383 390.297 349.454Z" fill="#FFA412"/>
<path d="M421.047 341.692H420.096V349.454H421.047V341.692Z" fill="#FFA412"/>
<path d="M417.837 341.692H416.885V349.454H417.837V341.692Z" fill="#FFA412"/>
<path d="M414.006 341.692H413.055V349.454H414.006V341.692Z" fill="#FFA412"/>
<path d="M408.109 341.692H407.158V349.454H408.109V341.692Z" fill="#FFA412"/>
<path d="M401.903 341.692H400.952V349.454H401.903V341.692Z" fill="#FFA412"/>
<path d="M392.343 341.692H391.391V349.454H392.343V341.692Z" fill="#FFA412"/>
<path d="M383.425 341.692H382.473V349.454H383.425V341.692Z" fill="#FFA412"/>
<path d="M375.458 341.692H374.507V349.454H375.458V341.692Z" fill="#FFA412"/>
<path d="M424.091 341.692H423.139V349.454H424.091V341.692Z" fill="#FFA412"/>
<path d="M426.089 341.692H425.138V349.454H426.089V341.692Z" fill="#FFA412"/>
<path d="M428.037 341.692H427.086V349.454H428.037V341.692Z" fill="#FFA412"/>
<path d="M429.489 341.716V349.407C429.371 349.431 429.252 349.431 429.133 349.431H428.538V341.668H429.133C429.275 341.692 429.394 341.692 429.489 341.716Z" fill="#FFA412"/>
<path d="M430.82 342.428V348.695C430.582 348.98 430.273 349.193 429.869 349.336V341.811C430.249 341.929 430.582 342.143 430.82 342.428Z" fill="#FFA412"/>
<path d="M433.152 335.615V339.982C433.152 340.339 433.033 340.647 432.795 340.932C432.557 341.217 432.248 341.431 431.844 341.573C431.725 341.62 431.606 341.644 431.487 341.668C431.368 341.692 431.249 341.692 431.13 341.692H347.92C346.85 341.692 345.97 340.98 345.898 340.101C345.898 340.077 345.898 340.054 345.898 340.006V335.638C345.898 335.615 345.898 335.591 345.898 335.543C345.946 334.713 346.707 334.048 347.682 333.953C347.753 333.953 347.848 333.929 347.92 333.929H431.13C431.249 333.929 431.368 333.929 431.487 333.953C431.606 333.977 431.749 334 431.844 334.048C432.224 334.167 432.557 334.404 432.795 334.689C433.033 334.95 433.152 335.282 433.152 335.615Z" fill="#FFB93E"/>
<path d="M392.296 341.692H347.73C346.779 341.692 345.994 340.98 345.947 340.101C345.947 340.077 345.947 340.054 345.947 340.006V335.638C345.947 335.615 345.947 335.591 345.947 335.543C345.994 334.713 346.66 334.048 347.54 333.953C347.611 333.953 347.683 333.929 347.754 333.929H386.85C386.85 333.929 386.85 333.929 386.85 333.953C387.445 336.232 388.896 339.389 392.296 341.692Z" fill="#FFA412"/>
<path d="M423.02 333.929H422.069V341.692H423.02V333.929Z" fill="#FFA412"/>
<path d="M419.833 333.929H418.881V341.692H419.833V333.929Z" fill="#FFA412"/>
<path d="M415.979 333.929H415.028V341.692H415.979V333.929Z" fill="#FFA412"/>
<path d="M410.108 333.929H409.157V341.692H410.108V333.929Z" fill="#FFA412"/>
<path d="M403.877 333.929H402.925V341.692H403.877V333.929Z" fill="#FFA412"/>
<path d="M394.338 333.929H393.387V341.692H394.338V333.929Z" fill="#FFA412"/>
<path d="M385.42 333.929H384.469V341.692H385.42V333.929Z" fill="#FFA412"/>
<path d="M377.431 333.929H376.48V341.692H377.431V333.929Z" fill="#FFA412"/>
<path d="M426.086 333.929H425.135V341.692H426.086V333.929Z" fill="#FFA412"/>
<path d="M428.085 333.929H427.134V341.692H428.085V333.929Z" fill="#FFA412"/>
<path d="M430.036 333.929H429.085V341.692H430.036V333.929Z" fill="#FFA412"/>
<path d="M431.485 333.953V341.644C431.366 341.668 431.248 341.668 431.129 341.668H430.534V333.906H431.129C431.248 333.929 431.366 333.953 431.485 333.953Z" fill="#FFA412"/>
<path d="M432.793 334.689V340.956C432.555 341.241 432.246 341.454 431.842 341.597V334.072C432.246 334.167 432.579 334.404 432.793 334.689Z" fill="#FFA412"/>
<path d="M427.039 327.876V332.244C427.039 332.6 426.92 332.908 426.683 333.193C426.445 333.478 426.136 333.692 425.731 333.834C425.612 333.882 425.494 333.905 425.375 333.929C425.327 333.929 425.303 333.929 425.256 333.953C425.232 333.953 425.208 333.953 425.184 333.953C425.161 333.953 425.137 333.953 425.113 333.953C425.066 333.953 425.042 333.953 425.018 333.953H341.807C340.737 333.953 339.857 333.241 339.786 332.362C339.786 332.339 339.786 332.315 339.786 332.267V327.9C339.786 327.876 339.786 327.852 339.786 327.805C339.786 327.781 339.786 327.757 339.786 327.733C339.857 327.021 340.476 326.428 341.284 326.262C341.308 326.262 341.332 326.262 341.356 326.238C341.498 326.214 341.641 326.19 341.784 326.19H424.994C425.066 326.19 425.113 326.19 425.184 326.19C425.208 326.19 425.232 326.19 425.256 326.19C425.28 326.19 425.327 326.19 425.351 326.214C425.47 326.238 425.613 326.262 425.708 326.309C426.088 326.428 426.421 326.665 426.659 326.95C426.897 327.211 427.039 327.52 427.039 327.876Z" fill="#FFB93E"/>
<path d="M386.184 333.953H341.618C340.667 333.953 339.882 333.241 339.834 332.362C339.834 332.339 339.834 332.315 339.834 332.267V327.9C339.834 327.876 339.834 327.852 339.834 327.805C339.834 327.781 339.834 327.757 339.834 327.733C339.906 326.998 340.476 326.404 341.237 326.238C341.261 326.238 341.285 326.238 341.309 326.214C341.404 326.19 341.523 326.19 341.618 326.19H380.714C380.714 326.214 380.714 326.238 380.738 326.238C381.356 328.517 382.807 331.65 386.184 333.953C386.16 333.929 386.16 333.953 386.184 333.953Z" fill="#FFA412"/>
<path d="M416.908 326.19H415.957V333.953H416.908V326.19Z" fill="#FFA412"/>
<path d="M413.72 326.19H412.769V333.953H413.72V326.19Z" fill="#FFA412"/>
<path d="M409.867 326.19H408.916V333.953H409.867V326.19Z" fill="#FFA412"/>
<path d="M403.995 326.19H403.044V333.953H403.995V326.19Z" fill="#FFA412"/>
<path d="M397.764 326.19H396.813V333.953H397.764V326.19Z" fill="#FFA412"/>
<path d="M388.226 326.19H387.275V333.953H388.226V326.19Z" fill="#FFA412"/>
<path d="M379.286 326.19H378.334V333.953H379.286V326.19Z" fill="#FFA412"/>
<path d="M371.319 326.19H370.368V333.953H371.319V326.19Z" fill="#FFA412"/>
<path d="M419.951 326.19H419V333.953H419.951V326.19Z" fill="#FFA412"/>
<path d="M421.973 326.19H421.022V333.953H421.973V326.19Z" fill="#FFA412"/>
<path d="M423.923 326.19H422.972V333.953H423.923V326.19Z" fill="#FFA412"/>
<path d="M425.373 326.214V333.905C425.254 333.929 425.135 333.929 425.016 333.929H424.422V326.167H425.016C425.135 326.19 425.254 326.19 425.373 326.214Z" fill="#FFA412"/>
<path d="M426.681 326.926V333.193C426.443 333.478 426.134 333.692 425.73 333.834V326.309C426.134 326.428 426.467 326.665 426.681 326.926Z" fill="#FFA412"/>
<path d="M426.849 320.185V324.552C426.849 324.909 426.73 325.217 426.492 325.502C426.254 325.787 425.945 326.001 425.541 326.143C425.446 326.167 425.35 326.19 425.255 326.214C425.231 326.214 425.208 326.214 425.184 326.238C425.065 326.262 424.946 326.262 424.827 326.262H341.617C341.521 326.262 341.45 326.262 341.355 326.238C341.331 326.238 341.284 326.238 341.26 326.214C340.356 326.072 339.666 325.431 339.619 324.647C339.619 324.624 339.619 324.6 339.619 324.552V320.185C339.619 320.161 339.619 320.137 339.619 320.09C339.666 319.211 340.546 318.499 341.64 318.499H424.851C424.899 318.499 424.946 318.499 425.017 318.499C425.041 318.499 425.065 318.499 425.089 318.499C425.113 318.499 425.136 318.499 425.16 318.499C425.184 318.499 425.184 318.499 425.208 318.499C425.327 318.523 425.469 318.547 425.564 318.594C425.588 318.594 425.588 318.594 425.612 318.618C425.636 318.618 425.636 318.642 425.66 318.642C425.683 318.665 425.731 318.665 425.755 318.689C425.802 318.713 425.826 318.713 425.874 318.737C425.897 318.76 425.945 318.76 425.969 318.784C425.992 318.808 426.04 318.831 426.064 318.855C426.088 318.879 426.111 318.879 426.135 318.903C426.159 318.926 426.159 318.926 426.183 318.95C426.23 318.998 426.278 319.021 426.325 319.069C426.349 319.093 426.349 319.093 426.373 319.116C426.397 319.14 426.397 319.14 426.421 319.164C426.444 319.188 426.468 319.211 426.492 319.259C426.73 319.52 426.849 319.829 426.849 320.185Z" fill="#FFB93E"/>
<path d="M385.992 326.238H341.403C341.379 326.238 341.331 326.238 341.307 326.238C341.26 326.238 341.236 326.238 341.188 326.238C340.332 326.143 339.666 325.478 339.619 324.647C339.619 324.624 339.619 324.6 339.619 324.552V320.185C339.619 320.161 339.619 320.137 339.619 320.09C339.666 319.211 340.451 318.499 341.403 318.499H380.499C380.523 318.57 380.523 318.618 380.546 318.689C381.188 320.944 382.639 323.959 385.897 326.19C385.945 326.214 385.968 326.238 385.992 326.238Z" fill="#FFA412"/>
<path d="M416.741 318.499H415.79V326.262H416.741V318.499Z" fill="#FFA412"/>
<path d="M413.531 318.499H412.579V326.262H413.531V318.499Z" fill="#FFA412"/>
<path d="M409.7 318.499H408.749V326.262H409.7V318.499Z" fill="#FFA412"/>
<path d="M403.803 318.499H402.852V326.262H403.803V318.499Z" fill="#FFA412"/>
<path d="M397.597 318.499H396.646V326.262H397.597V318.499Z" fill="#FFA412"/>
<path d="M388.059 318.499H387.108V326.262H388.059V318.499Z" fill="#FFA412"/>
<path d="M379.118 318.499H378.167V326.262H379.118V318.499Z" fill="#FFA412"/>
<path d="M371.152 318.499H370.2V326.262H371.152V318.499Z" fill="#FFA412"/>
<path d="M419.784 318.499H418.833V326.262H419.784V318.499Z" fill="#FFA412"/>
<path d="M421.806 318.499H420.854V326.262H421.806V318.499Z" fill="#FFA412"/>
<path d="M423.731 318.499H422.78V326.262H423.731V318.499Z" fill="#FFA412"/>
<path d="M425.206 318.523V326.214C425.087 326.238 424.968 326.238 424.849 326.238H424.255V318.475H424.849C424.968 318.499 425.087 318.499 425.206 318.523Z" fill="#FFA412"/>
<path d="M426.514 319.235V325.502C426.276 325.787 425.967 326 425.563 326.143V318.618C425.943 318.736 426.276 318.95 426.514 319.235Z" fill="#FFA412"/>
<path d="M431.155 312.612V316.98C431.155 317.336 431.036 317.644 430.798 317.929C430.56 318.214 430.251 318.428 429.847 318.57C429.728 318.618 429.609 318.641 429.49 318.665C429.371 318.689 429.252 318.689 429.133 318.689H345.923C345.59 318.689 345.281 318.618 344.995 318.499C344.401 318.238 343.996 317.739 343.925 317.17C343.925 317.146 343.925 317.122 343.925 317.098C343.925 317.075 343.925 317.051 343.925 317.004V312.636C343.925 312.612 343.925 312.588 343.925 312.541C343.973 311.662 344.853 310.95 345.947 310.95H429.157C429.276 310.95 429.395 310.95 429.514 310.974C429.633 310.998 429.775 311.021 429.871 311.069C430.251 311.188 430.584 311.425 430.822 311.71C431.036 311.947 431.155 312.28 431.155 312.612Z" fill="#FFB93E"/>
<path d="M390.297 318.689H345.731C345.422 318.689 345.161 318.618 344.899 318.499C344.376 318.238 343.995 317.739 343.948 317.17C343.948 317.146 343.948 317.122 343.948 317.098C343.948 317.075 343.948 317.051 343.948 317.004V312.636C343.948 312.612 343.948 312.588 343.948 312.541C343.995 311.662 344.78 310.95 345.731 310.95H384.828C385.446 313.182 386.825 316.22 390.036 318.523C390.107 318.547 390.202 318.618 390.297 318.689Z" fill="#FFA412"/>
<path d="M421.047 310.927H420.096V318.689H421.047V310.927Z" fill="#FFA412"/>
<path d="M417.837 310.927H416.885V318.689H417.837V310.927Z" fill="#FFA412"/>
<path d="M414.006 310.927H413.055V318.689H414.006V310.927Z" fill="#FFA412"/>
<path d="M408.109 310.927H407.158V318.689H408.109V310.927Z" fill="#FFA412"/>
<path d="M401.903 310.927H400.952V318.689H401.903V310.927Z" fill="#FFA412"/>
<path d="M392.343 310.927H391.391V318.689H392.343V310.927Z" fill="#FFA412"/>
<path d="M383.425 310.927H382.473V318.689H383.425V310.927Z" fill="#FFA412"/>
<path d="M375.458 310.927H374.507V318.689H375.458V310.927Z" fill="#FFA412"/>
<path d="M424.091 310.927H423.139V318.689H424.091V310.927Z" fill="#FFA412"/>
<path d="M426.089 310.927H425.138V318.689H426.089V310.927Z" fill="#FFA412"/>
<path d="M428.037 310.927H427.086V318.689H428.037V310.927Z" fill="#FFA412"/>
<path d="M429.489 310.95V318.642C429.371 318.665 429.252 318.665 429.133 318.665H428.538V310.903H429.133C429.275 310.927 429.394 310.95 429.489 310.95Z" fill="#FFA412"/>
<path d="M430.82 311.686V317.953C430.582 318.238 430.273 318.452 429.869 318.594V311.069C430.249 311.164 430.582 311.401 430.82 311.686Z" fill="#FFA412"/>
<path d="M437.956 304.873V309.241C437.956 309.597 437.837 309.906 437.599 310.191C437.362 310.475 437.053 310.689 436.648 310.832C436.529 310.879 436.41 310.903 436.292 310.927C436.173 310.95 436.054 310.95 435.935 310.95H352.724C351.654 310.95 350.774 310.238 350.703 309.36C350.703 309.336 350.703 309.312 350.703 309.265V304.897C350.703 304.873 350.703 304.849 350.703 304.802C350.75 303.971 351.511 303.306 352.486 303.212C352.558 303.212 352.653 303.188 352.724 303.188H435.935C436.054 303.188 436.173 303.188 436.292 303.212C436.41 303.235 436.553 303.259 436.648 303.306C437.029 303.425 437.362 303.663 437.599 303.947C437.837 304.185 437.956 304.517 437.956 304.873Z" fill="#FFB93E"/>
<path d="M397.101 310.927H352.535C351.583 310.927 350.799 310.214 350.751 309.336C350.751 309.312 350.751 309.289 350.751 309.241V304.873C350.751 304.85 350.751 304.826 350.751 304.778C350.799 303.947 351.464 303.283 352.344 303.188C352.416 303.188 352.487 303.164 352.558 303.164H391.655C391.655 303.164 391.655 303.164 391.655 303.188C392.249 305.467 393.7 308.624 397.101 310.927Z" fill="#FFA412"/>
<path d="M427.847 303.188H426.896V310.95H427.847V303.188Z" fill="#FFA412"/>
<path d="M424.637 303.188H423.686V310.95H424.637V303.188Z" fill="#FFA412"/>
<path d="M420.809 303.188H419.858V310.95H420.809V303.188Z" fill="#FFA412"/>
<path d="M414.912 303.188H413.961V310.95H414.912V303.188Z" fill="#FFA412"/>
<path d="M408.681 303.188H407.73V310.95H408.681V303.188Z" fill="#FFA412"/>
<path d="M399.143 303.188H398.191V310.95H399.143V303.188Z" fill="#FFA412"/>
<path d="M390.225 303.188H389.274V310.95H390.225V303.188Z" fill="#FFA412"/>
<path d="M382.236 303.188H381.284V310.95H382.236V303.188Z" fill="#FFA412"/>
<path d="M430.891 303.188H429.94V310.95H430.891V303.188Z" fill="#FFA412"/>
<path d="M432.89 303.188H431.938V310.95H432.89V303.188Z" fill="#FFA412"/>
<path d="M434.84 303.188H433.889V310.95H434.84V303.188Z" fill="#FFA412"/>
<path d="M436.29 303.212V310.903C436.171 310.927 436.052 310.927 435.933 310.927H435.338V303.164H435.933C436.076 303.188 436.195 303.188 436.29 303.212Z" fill="#FFA412"/>
<path d="M437.623 303.924V310.191C437.385 310.475 437.076 310.689 436.672 310.832V303.306C437.053 303.425 437.385 303.639 437.623 303.924Z" fill="#FFA412"/>
<path d="M427.039 297.111V301.479C427.039 301.835 426.92 302.143 426.683 302.428C426.445 302.713 426.136 302.927 425.731 303.069C425.612 303.117 425.494 303.14 425.375 303.164C425.327 303.164 425.303 303.164 425.256 303.188C425.232 303.188 425.184 303.188 425.161 303.188C425.137 303.188 425.137 303.188 425.113 303.188C425.089 303.188 425.042 303.188 425.018 303.188H341.807C340.737 303.188 339.857 302.476 339.786 301.597C339.786 301.574 339.786 301.55 339.786 301.503V297.135C339.786 297.111 339.786 297.087 339.786 297.04C339.834 296.161 340.714 295.449 341.807 295.449H425.018C425.042 295.449 425.089 295.449 425.113 295.449C425.208 295.449 425.28 295.473 425.351 295.473C425.47 295.497 425.613 295.52 425.708 295.568C425.779 295.592 425.827 295.615 425.874 295.639C425.898 295.663 425.945 295.663 425.969 295.687C425.993 295.71 426.041 295.71 426.064 295.734H426.088C426.112 295.758 426.159 295.782 426.183 295.782C426.255 295.829 426.326 295.877 426.374 295.924C426.397 295.948 426.421 295.948 426.421 295.971C426.445 295.971 426.445 295.995 426.445 295.995C426.469 296.019 426.492 296.043 426.492 296.066C426.516 296.09 426.54 296.138 426.564 296.161C426.897 296.446 427.039 296.779 427.039 297.111Z" fill="#FFB93E"/>
<path d="M386.184 303.188H341.618C340.667 303.188 339.882 302.476 339.834 301.597C339.834 301.574 339.834 301.55 339.834 301.503V297.135C339.834 297.111 339.834 297.087 339.834 297.04C339.882 296.161 340.667 295.449 341.618 295.449H380.714C380.738 295.497 380.738 295.568 380.762 295.639C381.404 297.871 382.854 300.933 386.184 303.188C386.16 303.188 386.16 303.188 386.184 303.188Z" fill="#FFA412"/>
<path d="M416.908 295.426H415.957V303.188H416.908V295.426Z" fill="#FFA412"/>
<path d="M413.72 295.426H412.769V303.188H413.72V295.426Z" fill="#FFA412"/>
<path d="M409.867 295.426H408.916V303.188H409.867V295.426Z" fill="#FFA412"/>
<path d="M403.995 295.426H403.044V303.188H403.995V295.426Z" fill="#FFA412"/>
<path d="M397.764 295.426H396.813V303.188H397.764V295.426Z" fill="#FFA412"/>
<path d="M388.226 295.426H387.275V303.188H388.226V295.426Z" fill="#FFA412"/>
<path d="M379.286 295.426H378.334V303.188H379.286V295.426Z" fill="#FFA412"/>
<path d="M371.319 295.426H370.368V303.188H371.319V295.426Z" fill="#FFA412"/>
<path d="M419.951 295.426H419V303.188H419.951V295.426Z" fill="#FFA412"/>
<path d="M421.973 295.426H421.022V303.188H421.973V295.426Z" fill="#FFA412"/>
<path d="M423.923 295.426H422.972V303.188H423.923V295.426Z" fill="#FFA412"/>
<path d="M425.373 295.473V303.164C425.254 303.188 425.135 303.188 425.016 303.188H424.422V295.426H425.016C425.135 295.426 425.254 295.449 425.373 295.473Z" fill="#FFA412"/>
<path d="M426.681 296.185V302.452C426.443 302.737 426.134 302.951 425.73 303.093V295.544C426.134 295.663 426.467 295.9 426.681 296.185Z" fill="#FFA412"/>
<path d="M433.152 289.538V293.906C433.152 294.262 433.033 294.571 432.795 294.856C432.557 295.141 432.248 295.354 431.844 295.497C431.725 295.544 431.606 295.568 431.487 295.592C431.368 295.615 431.249 295.615 431.13 295.615H347.92C347.587 295.615 347.301 295.544 347.016 295.425C346.398 295.164 345.97 294.666 345.898 294.072C345.898 294.049 345.898 294.025 345.898 294.001C345.898 293.977 345.898 293.954 345.898 293.906V289.538C345.898 289.515 345.898 289.491 345.898 289.443C345.946 288.612 346.707 287.948 347.682 287.853C347.753 287.853 347.848 287.829 347.92 287.829H431.13C431.249 287.829 431.368 287.829 431.487 287.853C431.606 287.877 431.749 287.9 431.844 287.948C432.224 288.066 432.557 288.304 432.795 288.589C433.033 288.874 433.152 289.206 433.152 289.538Z" fill="#FFB93E"/>
<path d="M392.294 295.615H347.728C347.443 295.615 347.158 295.544 346.92 295.425C346.373 295.164 345.992 294.666 345.921 294.072C345.921 294.049 345.921 294.025 345.921 294.001C345.921 293.977 345.921 293.954 345.921 293.906V289.538C345.921 289.515 345.921 289.491 345.921 289.443C345.969 288.612 346.634 287.948 347.514 287.853C347.586 287.853 347.657 287.829 347.728 287.829H386.825C386.825 287.829 386.825 287.829 386.825 287.853C387.443 290.084 388.822 293.123 392.033 295.425C392.128 295.497 392.199 295.544 392.294 295.615Z" fill="#FFA412"/>
<path d="M423.02 287.853H422.069V295.615H423.02V287.853Z" fill="#FFA412"/>
<path d="M419.833 287.853H418.881V295.615H419.833V287.853Z" fill="#FFA412"/>
<path d="M415.979 287.853H415.028V295.615H415.979V287.853Z" fill="#FFA412"/>
<path d="M410.108 287.853H409.157V295.615H410.108V287.853Z" fill="#FFA412"/>
<path d="M403.877 287.853H402.925V295.615H403.877V287.853Z" fill="#FFA412"/>
<path d="M394.338 287.853H393.387V295.615H394.338V287.853Z" fill="#FFA412"/>
<path d="M385.42 287.853H384.469V295.615H385.42V287.853Z" fill="#FFA412"/>
<path d="M377.431 287.853H376.48V295.615H377.431V287.853Z" fill="#FFA412"/>
<path d="M426.086 287.853H425.135V295.615H426.086V287.853Z" fill="#FFA412"/>
<path d="M428.085 287.853H427.134V295.615H428.085V287.853Z" fill="#FFA412"/>
<path d="M430.036 287.853H429.085V295.615H430.036V287.853Z" fill="#FFA412"/>
<path d="M431.485 287.877V295.568C431.366 295.592 431.248 295.592 431.129 295.592H430.534V287.829H431.129C431.248 287.853 431.366 287.877 431.485 287.877Z" fill="#FFA412"/>
<path d="M432.793 288.612V294.879C432.555 295.164 432.246 295.378 431.842 295.52V287.995C432.246 288.09 432.579 288.327 432.793 288.612Z" fill="#FFA412"/>
<path d="M435.744 281.8V286.167C435.744 286.523 435.625 286.832 435.387 287.117C435.149 287.402 434.84 287.615 434.436 287.758C434.317 287.805 434.198 287.829 434.079 287.853C434.032 287.853 434.008 287.853 433.96 287.877C433.937 287.877 433.913 287.877 433.889 287.877C433.865 287.877 433.841 287.877 433.818 287.877C433.77 287.877 433.746 287.877 433.723 287.877H350.536C349.466 287.877 348.586 287.164 348.514 286.286C348.514 286.262 348.514 286.239 348.514 286.191V281.823C348.514 281.8 348.514 281.776 348.514 281.728C348.562 280.85 349.442 280.138 350.536 280.138H433.746C433.865 280.138 433.984 280.138 434.103 280.162C434.222 280.185 434.365 280.209 434.46 280.257C434.84 280.375 435.173 280.613 435.411 280.897C435.625 281.135 435.744 281.467 435.744 281.8Z" fill="#FFB93E"/>
<path d="M394.887 287.877H350.321C349.369 287.877 348.585 287.164 348.537 286.286C348.537 286.262 348.537 286.239 348.537 286.191V281.823C348.537 281.8 348.537 281.776 348.537 281.728C348.585 280.85 349.369 280.138 350.321 280.138H389.417C390.035 282.393 391.486 285.55 394.887 287.877C394.887 287.853 394.887 287.877 394.887 287.877Z" fill="#FFA412"/>
<path d="M425.636 280.114H424.685V287.877H425.636V280.114Z" fill="#FFA412"/>
<path d="M422.426 280.114H421.475V287.877H422.426V280.114Z" fill="#FFA412"/>
<path d="M418.595 280.114H417.644V287.877H418.595V280.114Z" fill="#FFA412"/>
<path d="M412.698 280.114H411.747V287.877H412.698V280.114Z" fill="#FFA412"/>
<path d="M406.492 280.114H405.541V287.877H406.492V280.114Z" fill="#FFA412"/>
<path d="M396.954 280.114H396.003V287.877H396.954V280.114Z" fill="#FFA412"/>
<path d="M388.014 280.114H387.063V287.877H388.014V280.114Z" fill="#FFA412"/>
<path d="M380.047 280.114H379.096V287.877H380.047V280.114Z" fill="#FFA412"/>
<path d="M428.68 280.114H427.728V287.877H428.68V280.114Z" fill="#FFA412"/>
<path d="M430.701 280.114H429.75V287.877H430.701V280.114Z" fill="#FFA412"/>
<path d="M432.626 280.114H431.675V287.877H432.626V280.114Z" fill="#FFA412"/>
<path d="M434.101 280.138V287.829C433.982 287.853 433.864 287.853 433.745 287.853H433.15V280.114H433.745C433.864 280.114 433.982 280.138 434.101 280.138Z" fill="#FFA412"/>
<path d="M435.409 280.874V287.141C435.172 287.425 434.862 287.639 434.458 287.782V280.256C434.839 280.351 435.172 280.589 435.409 280.874Z" fill="#FFA412"/>
<path d="M437.956 304.874C437.956 304.518 437.837 304.209 437.623 303.924C437.385 303.639 437.076 303.426 436.671 303.283C436.553 303.236 436.434 303.212 436.315 303.188C436.196 303.164 436.077 303.164 435.958 303.164H435.363H425.256C425.304 303.164 425.328 303.164 425.375 303.141C425.494 303.117 425.637 303.093 425.732 303.046C425.994 302.951 426.231 302.832 426.422 302.666C426.445 302.642 426.469 302.642 426.469 302.618C426.541 302.547 426.588 302.5 426.66 302.429C426.874 302.167 427.016 301.835 427.016 301.479V297.111C427.016 296.755 426.897 296.446 426.66 296.162C426.636 296.138 426.612 296.09 426.588 296.067C426.564 296.043 426.541 296.019 426.541 295.995L426.517 295.972C426.493 295.948 426.493 295.948 426.469 295.924C426.446 295.9 426.398 295.877 426.374 295.853C426.35 295.829 426.303 295.806 426.279 295.782C426.255 295.758 426.231 295.734 426.184 295.734C426.184 295.734 426.184 295.734 426.16 295.734C426.136 295.711 426.089 295.687 426.065 295.687C426.065 295.687 426.065 295.687 426.041 295.687C426.017 295.663 425.97 295.663 425.946 295.639H426.113H427.183H428.134H429.133H430.084H431.202C431.321 295.639 431.44 295.639 431.558 295.616C431.677 295.592 431.82 295.568 431.915 295.521C432.296 295.402 432.629 295.165 432.866 294.88C433.08 294.619 433.223 294.286 433.223 293.93V289.562C433.223 289.206 433.104 288.898 432.866 288.613C432.629 288.328 432.319 288.114 431.915 287.972C431.796 287.924 431.677 287.901 431.558 287.877C431.511 287.877 431.463 287.877 431.44 287.853H431.772H432.724H433.841C433.865 287.853 433.913 287.853 433.937 287.853C433.96 287.853 433.984 287.853 434.008 287.853C434.032 287.853 434.055 287.853 434.055 287.853C434.103 287.853 434.127 287.853 434.174 287.829C434.293 287.806 434.436 287.782 434.531 287.734C434.65 287.687 434.769 287.639 434.888 287.568C435.031 287.497 435.173 287.402 435.292 287.283C435.363 287.212 435.435 287.165 435.482 287.093C435.696 286.832 435.839 286.5 435.839 286.144V281.776C435.839 281.42 435.72 281.111 435.482 280.827C435.245 280.542 434.935 280.328 434.531 280.186C434.412 280.138 434.293 280.114 434.174 280.091C434.055 280.067 433.937 280.067 433.818 280.067H433.223H389.489H380.096H379.145H350.536H350.322C349.37 280.067 348.586 280.779 348.538 281.657C348.538 281.681 348.538 281.705 348.538 281.752V286.12C348.538 286.144 348.538 286.168 348.538 286.215C348.586 287.046 349.275 287.711 350.131 287.806H347.944H347.73C347.658 287.806 347.587 287.806 347.516 287.829C346.659 287.924 345.97 288.589 345.922 289.42C345.922 289.444 345.922 289.467 345.922 289.515V293.883C345.922 293.906 345.922 293.93 345.922 293.978C345.922 294.001 345.922 294.025 345.922 294.049C345.97 294.642 346.374 295.141 346.921 295.402H341.832H341.618C340.667 295.402 339.882 296.114 339.834 296.992C339.834 297.016 339.834 297.04 339.834 297.087V301.455C339.834 301.479 339.834 301.503 339.834 301.55C339.882 302.429 340.667 303.141 341.618 303.141H341.832H352.319C351.463 303.236 350.774 303.9 350.726 304.731C350.726 304.755 350.726 304.779 350.726 304.826V309.194C350.726 309.218 350.726 309.241 350.726 309.289C350.774 310.167 351.558 310.879 352.51 310.879H345.922H345.708C344.757 310.879 343.972 311.592 343.925 312.47C343.925 312.494 343.925 312.517 343.925 312.565V316.933C343.925 316.956 343.925 316.98 343.925 317.028C343.925 317.051 343.925 317.075 343.925 317.099C343.972 317.669 344.353 318.167 344.876 318.428H341.618H341.404C340.452 318.428 339.668 319.14 339.62 320.019C339.62 320.042 339.62 320.066 339.62 320.114V324.482C339.62 324.505 339.62 324.529 339.62 324.577C339.668 325.407 340.334 326.072 341.19 326.167C340.5 326.309 339.977 326.832 339.834 327.473C339.81 327.544 339.81 327.591 339.81 327.663C339.81 327.686 339.81 327.71 339.81 327.734C339.81 327.758 339.81 327.781 339.81 327.829V332.197C339.81 332.22 339.81 332.244 339.81 332.292C339.858 333.17 340.643 333.882 341.594 333.882H341.808H347.492C346.636 333.977 345.946 334.642 345.898 335.473C345.898 335.496 345.898 335.52 345.898 335.567V339.935C345.898 339.959 345.898 339.983 345.898 340.03C345.946 340.909 346.731 341.621 347.682 341.621H345.898H345.684C344.733 341.621 343.948 342.333 343.901 343.211C343.901 343.235 343.901 343.259 343.901 343.306V347.674C343.901 347.698 343.901 347.722 343.901 347.769C343.901 347.793 343.901 347.817 343.901 347.84C343.948 348.41 344.329 348.909 344.852 349.17H341.594H341.38C340.429 349.17 339.644 349.882 339.596 350.76C339.596 350.784 339.596 350.808 339.596 350.855V355.223C339.596 355.247 339.596 355.27 339.596 355.318C339.644 356.196 340.429 356.908 341.38 356.908H341.594H350.274C349.323 356.908 348.538 357.621 348.491 358.499C348.491 358.523 348.491 358.546 348.491 358.594V362.962C348.491 362.985 348.491 363.009 348.491 363.057C348.538 363.935 349.323 364.647 350.274 364.647H350.488H379.049H380.001H387.04H387.991H394.864H395.958H396.909H405.494H406.445H411.725H412.676H417.623H418.574H421.475H422.426H424.686H425.637H427.73H428.681H429.751H430.702H431.701H432.652H433.176H433.77C433.889 364.647 434.008 364.647 434.127 364.623C434.246 364.6 434.388 364.576 434.484 364.528C434.864 364.41 435.197 364.172 435.435 363.888C435.649 363.626 435.792 363.294 435.792 362.938V358.689C435.792 358.333 435.673 358.024 435.435 357.739C435.197 357.454 434.888 357.241 434.484 357.098C434.365 357.051 434.246 357.027 434.127 357.003C434.008 356.98 433.889 356.98 433.77 356.98H433.176H424.876C424.995 356.98 425.114 356.98 425.233 356.956C425.352 356.932 425.494 356.908 425.589 356.861C425.97 356.742 426.303 356.505 426.541 356.22C426.755 355.959 426.897 355.627 426.897 355.27V350.903C426.897 350.546 426.778 350.238 426.541 349.953C426.517 349.929 426.493 349.906 426.469 349.858C426.446 349.834 426.445 349.834 426.422 349.811C426.398 349.787 426.398 349.787 426.374 349.763C426.374 349.763 426.35 349.763 426.35 349.739C426.327 349.716 426.303 349.716 426.303 349.692C426.279 349.668 426.255 349.644 426.231 349.621C426.208 349.597 426.208 349.597 426.184 349.573C426.16 349.573 426.16 349.549 426.136 349.549L426.113 349.526C426.089 349.502 426.041 349.478 426.017 349.454C425.994 349.431 425.946 349.431 425.922 349.407C425.922 349.407 425.899 349.407 425.899 349.383H425.875C425.851 349.383 425.827 349.36 425.827 349.36H426.136H427.135H428.086H429.204C429.323 349.36 429.442 349.36 429.561 349.336C429.68 349.312 429.822 349.288 429.918 349.241C429.965 349.241 429.989 349.217 430.013 349.193C430.346 349.075 430.655 348.861 430.845 348.6C431.059 348.339 431.202 348.006 431.202 347.65V343.282C431.202 342.926 431.083 342.618 430.845 342.333C430.607 342.048 430.298 341.834 429.894 341.692C429.775 341.645 429.656 341.621 429.537 341.597C429.418 341.573 429.299 341.573 429.18 341.573H430.06H431.178C431.297 341.573 431.416 341.573 431.535 341.55C431.654 341.526 431.796 341.502 431.891 341.455C432.272 341.336 432.605 341.099 432.843 340.814C433.057 340.553 433.199 340.22 433.199 339.864V335.496C433.199 335.14 433.08 334.832 432.843 334.547C432.605 334.262 432.296 334.048 431.891 333.906C431.772 333.858 431.654 333.835 431.535 333.811C431.416 333.787 431.297 333.787 431.178 333.787H430.583H430.06H429.109H428.11H427.159H426.089H425.28C425.328 333.787 425.352 333.787 425.399 333.763C425.518 333.74 425.661 333.716 425.756 333.668C426.136 333.55 426.469 333.312 426.707 333.027C426.921 332.766 427.064 332.434 427.064 332.078V327.71C427.064 327.354 426.945 327.045 426.707 326.76C426.469 326.476 426.16 326.262 425.756 326.12C425.637 326.072 425.518 326.048 425.399 326.025C425.399 326.025 425.399 326.025 425.375 326.025C425.352 326.025 425.328 326.025 425.304 326.025C425.399 326.001 425.494 325.977 425.589 325.953C425.875 325.858 426.136 325.716 426.35 325.526C426.422 325.455 426.493 325.407 426.541 325.336C426.755 325.075 426.897 324.743 426.897 324.387V320.019C426.897 319.663 426.778 319.354 426.541 319.069C426.517 319.045 426.493 319.022 426.469 318.974C426.446 318.951 426.445 318.951 426.422 318.927C426.398 318.903 426.398 318.903 426.374 318.879C426.374 318.879 426.35 318.879 426.35 318.856C426.327 318.832 426.327 318.832 426.303 318.808C426.279 318.784 426.255 318.761 426.231 318.737C426.208 318.713 426.208 318.713 426.184 318.689C426.16 318.689 426.16 318.666 426.136 318.666C426.136 318.666 426.113 318.666 426.113 318.642C426.089 318.618 426.041 318.594 426.017 318.571C425.994 318.547 425.946 318.547 425.922 318.523H425.899C425.899 318.523 425.875 318.523 425.875 318.499C425.851 318.499 425.827 318.476 425.827 318.476H426.136H427.135H428.086H428.61H429.204C429.323 318.476 429.442 318.476 429.561 318.452C429.68 318.428 429.822 318.405 429.918 318.357C430.298 318.238 430.631 318.001 430.869 317.716C431.083 317.455 431.226 317.123 431.226 316.767V312.399C431.226 312.043 431.107 311.734 430.869 311.449C430.702 311.259 430.488 311.093 430.25 310.951C430.227 310.951 430.227 310.927 430.203 310.927C430.203 310.927 430.203 310.927 430.179 310.927C430.084 310.879 430.013 310.856 429.918 310.832C429.799 310.784 429.68 310.761 429.561 310.737C429.442 310.713 429.323 310.713 429.204 310.713H429.989H430.94H432.01H432.962H433.96H434.912H435.435H436.029C436.148 310.713 436.267 310.713 436.386 310.69C436.505 310.666 436.648 310.642 436.743 310.595C437.123 310.476 437.456 310.238 437.694 309.954C437.908 309.693 438.027 309.36 438.027 309.004V304.874H437.956Z" fill="#FCE1AC"/>
<path d="M504.878 358.689V363.056C504.878 363.413 504.759 363.721 504.521 364.006C504.283 364.291 503.974 364.505 503.57 364.647C503.451 364.694 503.332 364.718 503.213 364.742C503.094 364.766 502.975 364.766 502.857 364.766H419.646C418.576 364.766 417.696 364.054 417.624 363.175C417.624 363.151 417.624 363.128 417.624 363.08V358.689C417.624 358.665 417.624 358.641 417.624 358.594C417.672 357.715 418.552 357.003 419.646 357.003H502.857C502.975 357.003 503.094 357.003 503.213 357.027C503.332 357.051 503.475 357.074 503.57 357.122C503.951 357.241 504.283 357.478 504.521 357.763C504.759 358.024 504.878 358.333 504.878 358.689Z" fill="#FFB93E"/>
<path d="M464.022 364.766H419.456C418.505 364.766 417.72 364.054 417.673 363.175C417.673 363.151 417.673 363.128 417.673 363.08V358.689C417.673 358.665 417.673 358.641 417.673 358.594C417.72 357.715 418.505 357.003 419.456 357.003H458.553C459.171 359.282 460.622 362.439 464.022 364.766Z" fill="#FFA412"/>
<path d="M494.769 357.003H493.818V364.766H494.769V357.003Z" fill="#FFA412"/>
<path d="M491.559 357.003H490.607V364.766H491.559V357.003Z" fill="#FFA412"/>
<path d="M487.731 357.003H486.78V364.766H487.731V357.003Z" fill="#FFA412"/>
<path d="M481.834 357.003H480.883V364.766H481.834V357.003Z" fill="#FFA412"/>
<path d="M475.625 357.003H474.674V364.766H475.625V357.003Z" fill="#FFA412"/>
<path d="M466.065 357.003H465.113V364.766H466.065V357.003Z" fill="#FFA412"/>
<path d="M457.147 357.003H456.195V364.766H457.147V357.003Z" fill="#FFA412"/>
<path d="M449.157 357.003H448.206V364.766H449.157V357.003Z" fill="#FFA412"/>
<path d="M497.813 357.003H496.861V364.766H497.813V357.003Z" fill="#FFA412"/>
<path d="M499.811 357.003H498.86V364.766H499.811V357.003Z" fill="#FFA412"/>
<path d="M501.762 357.003H500.811V364.766H501.762V357.003Z" fill="#FFA412"/>
<path d="M503.211 357.027V364.718C503.093 364.742 502.974 364.742 502.855 364.742H502.26V356.979H502.855C502.997 357.003 503.116 357.003 503.211 357.027Z" fill="#FFA412"/>
<path d="M504.545 357.763V364.03C504.307 364.315 503.998 364.528 503.594 364.671V357.146C503.974 357.24 504.307 357.478 504.545 357.763Z" fill="#FFA412"/>
<path d="M495.983 350.95V355.318C495.983 355.674 495.864 355.982 495.626 356.267C495.388 356.552 495.079 356.766 494.675 356.908C494.556 356.956 494.437 356.979 494.318 357.003C494.199 357.027 494.08 357.027 493.961 357.027H410.75C409.68 357.027 408.8 356.315 408.729 355.436C408.729 355.413 408.729 355.389 408.729 355.341V350.974C408.729 350.95 408.729 350.926 408.729 350.879C408.776 350 409.656 349.288 410.75 349.288H493.961C494.009 349.288 494.056 349.288 494.128 349.288C494.151 349.288 494.175 349.288 494.199 349.288C494.223 349.288 494.246 349.288 494.27 349.288C494.294 349.288 494.318 349.288 494.318 349.288C494.437 349.312 494.579 349.336 494.675 349.383C494.698 349.383 494.698 349.383 494.722 349.407C494.746 349.407 494.746 349.431 494.77 349.431C494.793 349.454 494.841 349.454 494.865 349.478C494.889 349.478 494.912 349.502 494.912 349.502C494.936 349.502 494.936 349.525 494.96 349.525C494.984 349.549 495.031 349.549 495.055 349.573C495.079 349.597 495.126 349.62 495.15 349.644C495.174 349.668 495.198 349.668 495.221 349.692C495.245 349.715 495.245 349.715 495.269 349.739C495.317 349.787 495.364 349.81 495.412 349.858C495.436 349.882 495.436 349.882 495.459 349.905C495.483 349.929 495.483 349.929 495.507 349.953C495.531 349.976 495.554 350 495.578 350.048C495.864 350.261 495.983 350.594 495.983 350.95Z" fill="#FFB93E"/>
<path d="M455.127 357.003H410.561C409.61 357.003 408.825 356.291 408.777 355.413C408.777 355.389 408.777 355.365 408.777 355.318V350.95C408.777 350.926 408.777 350.902 408.777 350.855C408.825 349.977 409.61 349.265 410.561 349.265H449.657C449.681 349.336 449.705 349.383 449.705 349.454C450.347 351.71 451.821 354.748 455.127 357.003Z" fill="#FFA412"/>
<path d="M485.874 349.241H484.922V357.003H485.874V349.241Z" fill="#FFA412"/>
<path d="M482.663 349.241H481.712V357.003H482.663V349.241Z" fill="#FFA412"/>
<path d="M478.81 349.241H477.859V357.003H478.81V349.241Z" fill="#FFA412"/>
<path d="M472.939 349.241H471.987V357.003H472.939V349.241Z" fill="#FFA412"/>
<path d="M466.707 349.241H465.756V357.003H466.707V349.241Z" fill="#FFA412"/>
<path d="M457.169 349.241H456.218V357.003H457.169V349.241Z" fill="#FFA412"/>
<path d="M448.251 349.241H447.3V357.003H448.251V349.241Z" fill="#FFA412"/>
<path d="M440.262 349.241H439.311V357.003H440.262V349.241Z" fill="#FFA412"/>
<path d="M488.917 349.241H487.966V357.003H488.917V349.241Z" fill="#FFA412"/>
<path d="M490.916 349.241H489.965V357.003H490.916V349.241Z" fill="#FFA412"/>
<path d="M492.867 349.241H491.915V357.003H492.867V349.241Z" fill="#FFA412"/>
<path d="M494.316 349.288V356.98C494.197 357.003 494.078 357.003 493.959 357.003H493.365V349.241H493.959C494.078 349.241 494.197 349.264 494.316 349.288Z" fill="#FFA412"/>
<path d="M495.65 350V356.267C495.412 356.552 495.103 356.766 494.698 356.908V349.383C495.079 349.502 495.412 349.716 495.65 350Z" fill="#FFA412"/>
<path d="M500.287 343.377V347.745C500.287 348.101 500.169 348.41 499.931 348.695C499.693 348.979 499.384 349.193 498.979 349.336C498.861 349.383 498.742 349.407 498.623 349.43C498.504 349.454 498.385 349.454 498.266 349.454H415.055C414.722 349.454 414.413 349.383 414.128 349.264C413.533 349.003 413.129 348.505 413.058 347.935C413.058 347.911 413.058 347.887 413.058 347.864C413.058 347.84 413.058 347.816 413.058 347.769V343.401C413.058 343.377 413.058 343.353 413.058 343.306C413.105 342.428 413.985 341.715 415.079 341.715H498.29C498.409 341.715 498.528 341.715 498.647 341.739C498.765 341.763 498.908 341.787 499.003 341.834C499.384 341.953 499.717 342.19 499.955 342.475C500.145 342.712 500.287 343.021 500.287 343.377Z" fill="#FFB93E"/>
<path d="M459.43 349.454H414.864C414.555 349.454 414.293 349.383 414.032 349.264C413.509 349.003 413.128 348.505 413.08 347.935C413.08 347.911 413.08 347.887 413.08 347.864C413.08 347.84 413.08 347.816 413.08 347.769V343.401C413.08 343.377 413.08 343.353 413.08 343.306C413.128 342.428 413.913 341.715 414.864 341.715H453.96C454.579 343.947 455.958 346.985 459.169 349.288C459.24 349.312 459.335 349.383 459.43 349.454Z" fill="#FFA412"/>
<path d="M490.157 341.692H489.206V349.454H490.157V341.692Z" fill="#FFA412"/>
<path d="M486.969 341.692H486.018V349.454H486.969V341.692Z" fill="#FFA412"/>
<path d="M483.116 341.692H482.165V349.454H483.116V341.692Z" fill="#FFA412"/>
<path d="M477.245 341.692H476.293V349.454H477.245V341.692Z" fill="#FFA412"/>
<path d="M471.013 341.692H470.062V349.454H471.013V341.692Z" fill="#FFA412"/>
<path d="M461.475 341.692H460.524V349.454H461.475V341.692Z" fill="#FFA412"/>
<path d="M452.557 341.692H451.606V349.454H452.557V341.692Z" fill="#FFA412"/>
<path d="M444.568 341.692H443.617V349.454H444.568V341.692Z" fill="#FFA412"/>
<path d="M493.201 341.692H492.249V349.454H493.201V341.692Z" fill="#FFA412"/>
<path d="M495.222 341.692H494.271V349.454H495.222V341.692Z" fill="#FFA412"/>
<path d="M497.173 341.692H496.222V349.454H497.173V341.692Z" fill="#FFA412"/>
<path d="M498.622 341.716V349.407C498.503 349.431 498.384 349.431 498.265 349.431H497.671V341.668H498.265C498.384 341.692 498.503 341.692 498.622 341.716Z" fill="#FFA412"/>
<path d="M499.93 342.428V348.695C499.692 348.98 499.383 349.193 498.979 349.336V341.811C499.383 341.929 499.716 342.143 499.93 342.428Z" fill="#FFA412"/>
<path d="M502.285 335.615V339.983C502.285 340.339 502.166 340.647 501.928 340.932C501.69 341.217 501.381 341.431 500.977 341.573C500.858 341.621 500.739 341.644 500.62 341.668C500.501 341.692 500.382 341.692 500.263 341.692H417.052C415.982 341.692 415.102 340.98 415.031 340.101C415.031 340.078 415.031 340.054 415.031 340.007V335.639C415.031 335.615 415.031 335.591 415.031 335.544C415.079 334.713 415.84 334.048 416.815 333.953C416.886 333.953 416.981 333.929 417.052 333.929H500.263C500.382 333.929 500.501 333.929 500.62 333.953C500.739 333.977 500.881 334.001 500.977 334.048C501.357 334.167 501.69 334.404 501.928 334.689C502.142 334.95 502.285 335.283 502.285 335.615Z" fill="#FFB93E"/>
<path d="M461.404 341.692H416.815C415.863 341.692 415.079 340.98 415.031 340.101C415.031 340.078 415.031 340.054 415.031 340.007V335.639C415.031 335.615 415.031 335.591 415.031 335.544C415.079 334.713 415.745 334.048 416.624 333.953C416.696 333.953 416.767 333.929 416.838 333.929H455.935C455.935 333.929 455.935 333.929 455.935 333.953C456.577 336.232 458.027 339.389 461.404 341.692Z" fill="#FFA412"/>
<path d="M492.153 333.929H491.202V341.692H492.153V333.929Z" fill="#FFA412"/>
<path d="M488.965 333.929H488.014V341.692H488.965V333.929Z" fill="#FFA412"/>
<path d="M485.112 333.929H484.161V341.692H485.112V333.929Z" fill="#FFA412"/>
<path d="M479.24 333.929H478.289V341.692H479.24V333.929Z" fill="#FFA412"/>
<path d="M473.009 333.929H472.058V341.692H473.009V333.929Z" fill="#FFA412"/>
<path d="M463.471 333.929H462.52V341.692H463.471V333.929Z" fill="#FFA412"/>
<path d="M454.531 333.929H453.579V341.692H454.531V333.929Z" fill="#FFA412"/>
<path d="M446.564 333.929H445.613V341.692H446.564V333.929Z" fill="#FFA412"/>
<path d="M495.197 333.929H494.245V341.692H495.197V333.929Z" fill="#FFA412"/>
<path d="M497.218 333.929H496.267V341.692H497.218V333.929Z" fill="#FFA412"/>
<path d="M499.169 333.929H498.217V341.692H499.169V333.929Z" fill="#FFA412"/>
<path d="M500.618 333.953V341.645C500.499 341.668 500.38 341.668 500.261 341.668H499.667V333.906H500.261C500.38 333.93 500.499 333.953 500.618 333.953Z" fill="#FFA412"/>
<path d="M501.926 334.689V340.956C501.688 341.241 501.379 341.455 500.975 341.597V334.072C501.379 334.167 501.688 334.404 501.926 334.689Z" fill="#FFA412"/>
<path d="M496.148 327.876V332.244C496.148 332.6 496.03 332.908 495.792 333.193C495.554 333.478 495.245 333.692 494.84 333.834C494.722 333.882 494.603 333.905 494.484 333.929C494.436 333.929 494.412 333.929 494.365 333.953C494.341 333.953 494.317 333.953 494.293 333.953C494.27 333.953 494.246 333.953 494.222 333.953C494.175 333.953 494.151 333.953 494.127 333.953H410.94C409.87 333.953 408.99 333.241 408.919 332.362C408.919 332.339 408.919 332.315 408.919 332.267V327.9C408.919 327.876 408.919 327.852 408.919 327.805C408.919 327.781 408.919 327.757 408.919 327.733C408.99 327.021 409.608 326.428 410.417 326.262C410.441 326.262 410.465 326.262 410.488 326.238C410.631 326.214 410.774 326.19 410.916 326.19H494.127C494.198 326.19 494.246 326.19 494.317 326.19C494.341 326.19 494.365 326.19 494.389 326.19C494.412 326.19 494.46 326.19 494.484 326.214C494.603 326.238 494.745 326.262 494.84 326.309C495.221 326.428 495.554 326.665 495.792 326.95C496.03 327.211 496.148 327.52 496.148 327.876Z" fill="#FFB93E"/>
<path d="M455.291 333.953H410.725C409.774 333.953 408.989 333.241 408.941 332.362C408.941 332.339 408.941 332.315 408.941 332.267V327.9C408.941 327.876 408.941 327.852 408.941 327.805C408.941 327.781 408.941 327.757 408.941 327.733C409.013 326.998 409.583 326.404 410.344 326.238C410.368 326.238 410.392 326.238 410.416 326.214C410.511 326.19 410.63 326.19 410.725 326.19H449.821C449.821 326.214 449.821 326.238 449.845 326.238C450.463 328.517 451.914 331.65 455.291 333.953C455.291 333.929 455.291 333.953 455.291 333.953Z" fill="#FFA412"/>
<path d="M486.041 326.19H485.09V333.953H486.041V326.19Z" fill="#FFA412"/>
<path d="M482.83 326.19H481.879V333.953H482.83V326.19Z" fill="#FFA412"/>
<path d="M479 326.19H478.048V333.953H479V326.19Z" fill="#FFA412"/>
<path d="M473.103 326.19H472.151V333.953H473.103V326.19Z" fill="#FFA412"/>
<path d="M466.897 326.19H465.946V333.953H466.897V326.19Z" fill="#FFA412"/>
<path d="M457.359 326.19H456.407V333.953H457.359V326.19Z" fill="#FFA412"/>
<path d="M448.418 326.19H447.467V333.953H448.418V326.19Z" fill="#FFA412"/>
<path d="M440.451 326.19H439.5V333.953H440.451V326.19Z" fill="#FFA412"/>
<path d="M489.084 326.19H488.133V333.953H489.084V326.19Z" fill="#FFA412"/>
<path d="M491.106 326.19H490.154V333.953H491.106V326.19Z" fill="#FFA412"/>
<path d="M493.031 326.19H492.079V333.953H493.031V326.19Z" fill="#FFA412"/>
<path d="M494.506 326.214V333.905C494.387 333.929 494.268 333.929 494.149 333.929H493.554V326.167H494.149C494.268 326.19 494.387 326.19 494.506 326.214Z" fill="#FFA412"/>
<path d="M495.814 326.926V333.193C495.576 333.478 495.267 333.692 494.862 333.834V326.309C495.243 326.428 495.576 326.665 495.814 326.926Z" fill="#FFA412"/>
<path d="M495.981 320.185V324.553C495.981 324.909 495.862 325.218 495.625 325.502C495.387 325.787 495.078 326.001 494.673 326.143C494.578 326.167 494.483 326.191 494.388 326.215C494.364 326.215 494.34 326.215 494.317 326.238C494.198 326.262 494.079 326.262 493.96 326.262H410.749C410.654 326.262 410.583 326.262 410.488 326.238C410.464 326.238 410.416 326.238 410.393 326.215C409.489 326.072 408.799 325.431 408.752 324.648C408.752 324.624 408.752 324.6 408.752 324.553V320.185C408.752 320.161 408.752 320.137 408.752 320.09C408.799 319.212 409.679 318.5 410.773 318.5H493.984C494.031 318.5 494.079 318.5 494.15 318.5C494.174 318.5 494.198 318.5 494.222 318.5C494.245 318.5 494.269 318.5 494.293 318.5C494.317 318.5 494.34 318.5 494.34 318.5C494.459 318.523 494.602 318.547 494.697 318.594C494.721 318.594 494.721 318.594 494.745 318.618C494.768 318.618 494.769 318.642 494.792 318.642C494.816 318.666 494.864 318.666 494.887 318.689C494.935 318.713 494.959 318.713 495.006 318.737C495.03 318.761 495.078 318.761 495.101 318.784C495.125 318.808 495.173 318.832 495.197 318.856C495.22 318.879 495.244 318.879 495.268 318.903C495.292 318.927 495.292 318.927 495.315 318.951C495.363 318.998 495.411 319.022 495.458 319.069C495.482 319.093 495.482 319.093 495.506 319.117C495.53 319.14 495.53 319.14 495.553 319.164C495.577 319.188 495.601 319.212 495.625 319.259C495.862 319.52 495.981 319.829 495.981 320.185Z" fill="#FFB93E"/>
<path d="M455.124 326.238H410.558C410.51 326.238 410.487 326.238 410.463 326.238C410.415 326.238 410.391 326.238 410.344 326.238C409.488 326.143 408.822 325.479 408.774 324.648C408.774 324.624 408.774 324.6 408.774 324.553V320.185C408.774 320.161 408.774 320.137 408.774 320.09C408.822 319.212 409.607 318.5 410.558 318.5H449.654C449.678 318.571 449.702 318.618 449.702 318.689C450.344 320.945 451.795 323.959 455.053 326.191C455.076 326.215 455.1 326.238 455.124 326.238Z" fill="#FFA412"/>
<path d="M485.874 318.5H484.922V326.262H485.874V318.5Z" fill="#FFA412"/>
<path d="M482.663 318.5H481.712V326.262H482.663V318.5Z" fill="#FFA412"/>
<path d="M478.81 318.5H477.859V326.262H478.81V318.5Z" fill="#FFA412"/>
<path d="M472.939 318.5H471.987V326.262H472.939V318.5Z" fill="#FFA412"/>
<path d="M466.707 318.5H465.756V326.262H466.707V318.5Z" fill="#FFA412"/>
<path d="M457.169 318.5H456.218V326.262H457.169V318.5Z" fill="#FFA412"/>
<path d="M448.251 318.5H447.3V326.262H448.251V318.5Z" fill="#FFA412"/>
<path d="M440.262 318.5H439.311V326.262H440.262V318.5Z" fill="#FFA412"/>
<path d="M488.917 318.5H487.966V326.262H488.917V318.5Z" fill="#FFA412"/>
<path d="M490.916 318.5H489.965V326.262H490.916V318.5Z" fill="#FFA412"/>
<path d="M492.867 318.5H491.915V326.262H492.867V318.5Z" fill="#FFA412"/>
<path d="M494.316 318.523V326.215C494.197 326.238 494.078 326.238 493.959 326.238H493.365V318.476H493.959C494.078 318.5 494.197 318.5 494.316 318.523Z" fill="#FFA412"/>
<path d="M495.65 319.235V325.502C495.412 325.787 495.103 326.001 494.698 326.143V318.618C495.079 318.737 495.412 318.951 495.65 319.235Z" fill="#FFA412"/>
<path d="M500.287 312.612V316.98C500.287 317.336 500.169 317.645 499.931 317.93C499.693 318.214 499.384 318.428 498.979 318.57C498.861 318.618 498.742 318.642 498.623 318.665C498.504 318.689 498.385 318.689 498.266 318.689H415.055C414.722 318.689 414.413 318.618 414.128 318.499C413.533 318.238 413.129 317.74 413.058 317.17C413.058 317.146 413.058 317.122 413.058 317.099C413.058 317.075 413.058 317.051 413.058 317.004V312.636C413.058 312.612 413.058 312.588 413.058 312.541C413.105 311.663 413.985 310.95 415.079 310.95H498.29C498.409 310.95 498.528 310.95 498.647 310.974C498.765 310.998 498.908 311.022 499.003 311.069C499.384 311.188 499.717 311.425 499.955 311.71C500.145 311.947 500.287 312.28 500.287 312.612Z" fill="#FFB93E"/>
<path d="M459.43 318.689H414.864C414.555 318.689 414.293 318.618 414.032 318.499C413.509 318.238 413.128 317.74 413.08 317.17C413.08 317.146 413.08 317.122 413.08 317.099C413.08 317.075 413.08 317.051 413.08 317.004V312.636C413.08 312.612 413.08 312.588 413.08 312.541C413.128 311.663 413.913 310.95 414.864 310.95H453.96C454.579 313.182 455.958 316.22 459.169 318.523C459.24 318.547 459.335 318.618 459.43 318.689Z" fill="#FFA412"/>
<path d="M490.157 310.927H489.206V318.689H490.157V310.927Z" fill="#FFA412"/>
<path d="M486.969 310.927H486.018V318.689H486.969V310.927Z" fill="#FFA412"/>
<path d="M483.116 310.927H482.165V318.689H483.116V310.927Z" fill="#FFA412"/>
<path d="M477.245 310.927H476.293V318.689H477.245V310.927Z" fill="#FFA412"/>
<path d="M471.013 310.927H470.062V318.689H471.013V310.927Z" fill="#FFA412"/>
<path d="M461.475 310.927H460.524V318.689H461.475V310.927Z" fill="#FFA412"/>
<path d="M452.557 310.927H451.606V318.689H452.557V310.927Z" fill="#FFA412"/>
<path d="M444.568 310.927H443.617V318.689H444.568V310.927Z" fill="#FFA412"/>
<path d="M493.201 310.927H492.249V318.689H493.201V310.927Z" fill="#FFA412"/>
<path d="M495.222 310.927H494.271V318.689H495.222V310.927Z" fill="#FFA412"/>
<path d="M497.173 310.927H496.222V318.689H497.173V310.927Z" fill="#FFA412"/>
<path d="M498.622 310.951V318.642C498.503 318.666 498.384 318.666 498.265 318.666H497.671V310.903H498.265C498.384 310.927 498.503 310.951 498.622 310.951Z" fill="#FFA412"/>
<path d="M499.93 311.686V317.953C499.692 318.238 499.383 318.452 498.979 318.594V311.069C499.383 311.164 499.716 311.401 499.93 311.686Z" fill="#FFA412"/>
<path d="M507.089 304.874V309.241C507.089 309.597 506.97 309.906 506.732 310.191C506.494 310.476 506.185 310.689 505.781 310.832C505.662 310.879 505.543 310.903 505.424 310.927C505.305 310.951 505.186 310.951 505.067 310.951H421.857C420.787 310.951 419.907 310.238 419.836 309.36C419.836 309.336 419.836 309.313 419.836 309.265V304.897C419.836 304.874 419.836 304.85 419.836 304.802C419.883 303.971 420.644 303.307 421.619 303.212C421.69 303.212 421.786 303.188 421.857 303.188H505.067C505.186 303.188 505.305 303.188 505.424 303.212C505.543 303.236 505.686 303.259 505.781 303.307C506.161 303.425 506.494 303.663 506.732 303.948C506.946 304.185 507.089 304.517 507.089 304.874Z" fill="#FFB93E"/>
<path d="M466.231 310.927H421.642C420.69 310.927 419.906 310.215 419.858 309.336C419.858 309.313 419.858 309.289 419.858 309.241V304.874C419.858 304.85 419.858 304.826 419.858 304.779C419.906 303.948 420.572 303.283 421.451 303.188C421.523 303.188 421.594 303.164 421.665 303.164H460.762C460.762 303.164 460.762 303.164 460.762 303.188C461.38 305.467 462.831 308.624 466.231 310.927Z" fill="#FFA412"/>
<path d="M496.957 303.188H496.006V310.951H496.957V303.188Z" fill="#FFA412"/>
<path d="M493.77 303.188H492.818V310.951H493.77V303.188Z" fill="#FFA412"/>
<path d="M489.917 303.188H488.965V310.951H489.917V303.188Z" fill="#FFA412"/>
<path d="M484.045 303.188H483.094V310.951H484.045V303.188Z" fill="#FFA412"/>
<path d="M477.814 303.188H476.862V310.951H477.814V303.188Z" fill="#FFA412"/>
<path d="M468.276 303.188H467.324V310.951H468.276V303.188Z" fill="#FFA412"/>
<path d="M459.335 303.188H458.384V310.951H459.335V303.188Z" fill="#FFA412"/>
<path d="M451.368 303.188H450.417V310.951H451.368V303.188Z" fill="#FFA412"/>
<path d="M500.001 303.188H499.05V310.951H500.001V303.188Z" fill="#FFA412"/>
<path d="M502.022 303.188H501.071V310.951H502.022V303.188Z" fill="#FFA412"/>
<path d="M503.973 303.188H503.022V310.951H503.973V303.188Z" fill="#FFA412"/>
<path d="M505.423 303.212V310.903C505.304 310.927 505.185 310.927 505.066 310.927H504.471V303.164H505.066C505.185 303.188 505.304 303.188 505.423 303.212Z" fill="#FFA412"/>
<path d="M506.73 303.924V310.191C506.493 310.476 506.184 310.689 505.779 310.832V303.307C506.184 303.425 506.516 303.639 506.73 303.924Z" fill="#FFA412"/>
<path d="M496.148 297.111V301.479C496.148 301.835 496.03 302.143 495.792 302.428C495.554 302.713 495.245 302.927 494.84 303.069C494.722 303.116 494.603 303.14 494.484 303.164C494.436 303.164 494.412 303.164 494.365 303.188C494.341 303.188 494.293 303.188 494.27 303.188C494.246 303.188 494.246 303.188 494.222 303.188C494.198 303.188 494.151 303.188 494.127 303.188H410.94C409.87 303.188 408.99 302.476 408.919 301.597C408.919 301.574 408.919 301.55 408.919 301.502V297.134C408.919 297.111 408.919 297.087 408.919 297.039C408.966 296.161 409.846 295.449 410.94 295.449H494.151C494.175 295.449 494.222 295.449 494.246 295.449C494.341 295.449 494.412 295.473 494.484 295.473C494.603 295.496 494.745 295.52 494.84 295.568C494.912 295.591 494.959 295.615 495.007 295.639C495.031 295.663 495.078 295.663 495.102 295.686C495.126 295.71 495.173 295.71 495.197 295.734H495.221C495.245 295.758 495.292 295.781 495.316 295.781C495.387 295.829 495.459 295.876 495.506 295.924C495.53 295.947 495.554 295.948 495.554 295.971C495.578 295.971 495.578 295.995 495.578 295.995C495.601 296.019 495.625 296.042 495.625 296.066C495.649 296.09 495.673 296.137 495.697 296.161C496.029 296.446 496.148 296.778 496.148 297.111Z" fill="#FFB93E"/>
<path d="M455.291 303.188H410.725C409.774 303.188 408.989 302.476 408.941 301.597C408.941 301.574 408.941 301.55 408.941 301.502V297.134C408.941 297.111 408.941 297.087 408.941 297.039C408.989 296.161 409.774 295.449 410.725 295.449H449.821C449.845 295.496 449.845 295.568 449.869 295.639C450.511 297.87 451.985 300.933 455.291 303.188Z" fill="#FFA412"/>
<path d="M486.041 295.425H485.09V303.188H486.041V295.425Z" fill="#FFA412"/>
<path d="M482.83 295.425H481.879V303.188H482.83V295.425Z" fill="#FFA412"/>
<path d="M479 295.425H478.048V303.188H479V295.425Z" fill="#FFA412"/>
<path d="M473.103 295.425H472.151V303.188H473.103V295.425Z" fill="#FFA412"/>
<path d="M466.897 295.425H465.946V303.188H466.897V295.425Z" fill="#FFA412"/>
<path d="M457.359 295.425H456.407V303.188H457.359V295.425Z" fill="#FFA412"/>
<path d="M448.418 295.425H447.467V303.188H448.418V295.425Z" fill="#FFA412"/>
<path d="M440.451 295.425H439.5V303.188H440.451V295.425Z" fill="#FFA412"/>
<path d="M489.084 295.425H488.133V303.188H489.084V295.425Z" fill="#FFA412"/>
<path d="M491.106 295.425H490.154V303.188H491.106V295.425Z" fill="#FFA412"/>
<path d="M493.031 295.425H492.079V303.188H493.031V295.425Z" fill="#FFA412"/>
<path d="M494.506 295.473V303.164C494.387 303.188 494.268 303.188 494.149 303.188H493.554V295.425H494.149C494.268 295.425 494.387 295.449 494.506 295.473Z" fill="#FFA412"/>
<path d="M495.814 296.185V302.452C495.576 302.737 495.267 302.95 494.862 303.093V295.544C495.243 295.663 495.576 295.9 495.814 296.185Z" fill="#FFA412"/>
<path d="M502.285 289.538V293.906C502.285 294.262 502.166 294.571 501.928 294.856C501.69 295.141 501.381 295.354 500.977 295.497C500.858 295.544 500.739 295.568 500.62 295.592C500.501 295.615 500.382 295.615 500.263 295.615H417.052C416.72 295.615 416.434 295.544 416.149 295.425C415.53 295.164 415.102 294.666 415.031 294.072C415.031 294.049 415.031 294.025 415.031 294.001C415.031 293.977 415.031 293.954 415.031 293.906V289.538C415.031 289.515 415.031 289.491 415.031 289.443C415.079 288.612 415.84 287.948 416.815 287.853C416.886 287.853 416.981 287.829 417.052 287.829H500.263C500.382 287.829 500.501 287.829 500.62 287.853C500.739 287.877 500.881 287.9 500.977 287.948C501.357 288.066 501.69 288.304 501.928 288.589C502.142 288.874 502.285 289.206 502.285 289.538Z" fill="#FFB93E"/>
<path d="M461.406 295.615H416.816C416.531 295.615 416.245 295.544 416.007 295.425C415.46 295.164 415.08 294.666 415.009 294.072C415.009 294.049 415.009 294.025 415.009 294.001C415.009 293.977 415.009 293.954 415.009 293.906V289.538C415.009 289.515 415.009 289.491 415.009 289.443C415.056 288.612 415.722 287.948 416.602 287.853C416.673 287.853 416.745 287.829 416.816 287.829H455.912C455.912 287.829 455.912 287.829 455.912 287.853C456.531 290.084 457.91 293.123 461.12 295.425C461.239 295.497 461.334 295.544 461.406 295.615Z" fill="#FFA412"/>
<path d="M492.156 287.853H491.205V295.615H492.156V287.853Z" fill="#FFA412"/>
<path d="M488.968 287.853H488.017V295.615H488.968V287.853Z" fill="#FFA412"/>
<path d="M485.115 287.853H484.164V295.615H485.115V287.853Z" fill="#FFA412"/>
<path d="M479.244 287.853H478.292V295.615H479.244V287.853Z" fill="#FFA412"/>
<path d="M473.012 287.853H472.061V295.615H473.012V287.853Z" fill="#FFA412"/>
<path d="M463.474 287.853H462.523V295.615H463.474V287.853Z" fill="#FFA412"/>
<path d="M454.534 287.853H453.582V295.615H454.534V287.853Z" fill="#FFA412"/>
<path d="M446.567 287.853H445.616V295.615H446.567V287.853Z" fill="#FFA412"/>
<path d="M495.2 287.853H494.248V295.615H495.2V287.853Z" fill="#FFA412"/>
<path d="M497.221 287.853H496.27V295.615H497.221V287.853Z" fill="#FFA412"/>
<path d="M499.172 287.853H498.22V295.615H499.172V287.853Z" fill="#FFA412"/>
<path d="M500.621 287.877V295.568C500.502 295.592 500.383 295.592 500.264 295.592H499.67V287.829H500.264C500.383 287.853 500.502 287.877 500.621 287.877Z" fill="#FFA412"/>
<path d="M501.929 288.612V294.879C501.691 295.164 501.382 295.378 500.978 295.52V287.995C501.382 288.09 501.691 288.327 501.929 288.612Z" fill="#FFA412"/>
<path d="M504.878 281.8V286.167C504.878 286.523 504.759 286.832 504.521 287.117C504.283 287.402 503.974 287.615 503.57 287.758C503.451 287.805 503.332 287.829 503.213 287.853C503.166 287.853 503.142 287.853 503.094 287.877C503.071 287.877 503.047 287.877 503.023 287.877C502.999 287.877 502.975 287.877 502.952 287.877C502.928 287.877 502.88 287.877 502.857 287.877H419.646C418.576 287.877 417.696 287.164 417.624 286.286C417.624 286.262 417.624 286.239 417.624 286.191V281.823C417.624 281.8 417.624 281.776 417.624 281.728C417.672 280.85 418.552 280.138 419.646 280.138H502.857C502.975 280.138 503.094 280.138 503.213 280.162C503.332 280.185 503.475 280.209 503.57 280.257C503.951 280.375 504.283 280.613 504.521 280.897C504.759 281.135 504.878 281.467 504.878 281.8Z" fill="#FFB93E"/>
<path d="M464.022 287.877H419.456C418.505 287.877 417.72 287.164 417.673 286.286C417.673 286.262 417.673 286.239 417.673 286.191V281.823C417.673 281.8 417.673 281.776 417.673 281.728C417.72 280.85 418.505 280.138 419.456 280.138H458.553C459.171 282.393 460.622 285.55 464.022 287.877C463.999 287.853 464.022 287.877 464.022 287.877Z" fill="#FFA412"/>
<path d="M494.769 280.114H493.818V287.877H494.769V280.114Z" fill="#FFA412"/>
<path d="M491.559 280.114H490.607V287.877H491.559V280.114Z" fill="#FFA412"/>
<path d="M487.731 280.114H486.78V287.877H487.731V280.114Z" fill="#FFA412"/>
<path d="M481.834 280.114H480.883V287.877H481.834V280.114Z" fill="#FFA412"/>
<path d="M475.625 280.114H474.674V287.877H475.625V280.114Z" fill="#FFA412"/>
<path d="M466.065 280.114H465.113V287.877H466.065V280.114Z" fill="#FFA412"/>
<path d="M457.147 280.114H456.195V287.877H457.147V280.114Z" fill="#FFA412"/>
<path d="M449.157 280.114H448.206V287.877H449.157V280.114Z" fill="#FFA412"/>
<path d="M497.813 280.114H496.861V287.877H497.813V280.114Z" fill="#FFA412"/>
<path d="M499.811 280.114H498.86V287.877H499.811V280.114Z" fill="#FFA412"/>
<path d="M501.762 280.114H500.811V287.877H501.762V280.114Z" fill="#FFA412"/>
<path d="M503.211 280.138V287.829C503.093 287.853 502.974 287.853 502.855 287.853H502.26V280.114H502.855C502.997 280.114 503.116 280.138 503.211 280.138Z" fill="#FFA412"/>
<path d="M504.545 280.874V287.141C504.307 287.425 503.998 287.639 503.594 287.782V280.256C503.974 280.351 504.307 280.589 504.545 280.874Z" fill="#FFA412"/>
<path d="M496.148 274.18V278.547C496.148 278.904 496.03 279.212 495.792 279.497C495.554 279.782 495.245 279.995 494.84 280.138C494.722 280.185 494.603 280.209 494.484 280.233C494.436 280.233 494.412 280.233 494.365 280.257C494.341 280.257 494.293 280.257 494.27 280.257C494.246 280.257 494.246 280.257 494.222 280.257C494.198 280.257 494.151 280.257 494.127 280.257H410.94C409.87 280.257 408.99 279.544 408.919 278.666C408.919 278.642 408.919 278.619 408.919 278.571V274.18C408.919 274.156 408.919 274.132 408.919 274.085C408.966 273.206 409.846 272.494 410.94 272.494H494.151C494.175 272.494 494.222 272.494 494.246 272.494C494.341 272.494 494.412 272.518 494.484 272.518C494.603 272.542 494.745 272.565 494.84 272.613C494.912 272.637 494.959 272.66 495.007 272.684C495.031 272.708 495.078 272.708 495.102 272.732C495.126 272.755 495.173 272.755 495.197 272.779H495.221C495.245 272.803 495.292 272.803 495.316 272.826C495.387 272.874 495.459 272.921 495.506 272.969C495.53 272.993 495.554 272.993 495.554 273.016C495.578 273.016 495.578 273.04 495.578 273.04C495.601 273.064 495.625 273.088 495.625 273.111C495.649 273.135 495.673 273.183 495.697 273.206C496.029 273.515 496.148 273.823 496.148 274.18Z" fill="#FFB93E"/>
<path d="M455.291 280.257H410.725C409.774 280.257 408.989 279.544 408.941 278.666C408.941 278.642 408.941 278.619 408.941 278.571V274.18C408.941 274.156 408.941 274.132 408.941 274.085C408.989 273.206 409.774 272.494 410.725 272.494H449.821C449.845 272.542 449.845 272.613 449.869 272.684C450.511 274.939 451.985 277.978 455.291 280.257C455.291 280.233 455.291 280.257 455.291 280.257Z" fill="#FFA412"/>
<path d="M486.041 272.494H485.09V280.257H486.041V272.494Z" fill="#FFA412"/>
<path d="M482.83 272.494H481.879V280.257H482.83V272.494Z" fill="#FFA412"/>
<path d="M479 272.494H478.048V280.257H479V272.494Z" fill="#FFA412"/>
<path d="M473.103 272.494H472.151V280.257H473.103V272.494Z" fill="#FFA412"/>
<path d="M466.897 272.494H465.946V280.257H466.897V272.494Z" fill="#FFA412"/>
<path d="M457.359 272.494H456.407V280.257H457.359V272.494Z" fill="#FFA412"/>
<path d="M448.418 272.494H447.467V280.257H448.418V272.494Z" fill="#FFA412"/>
<path d="M440.451 272.494H439.5V280.257H440.451V272.494Z" fill="#FFA412"/>
<path d="M489.084 272.494H488.133V280.257H489.084V272.494Z" fill="#FFA412"/>
<path d="M491.106 272.494H490.154V280.257H491.106V272.494Z" fill="#FFA412"/>
<path d="M493.031 272.494H492.079V280.257H493.031V272.494Z" fill="#FFA412"/>
<path d="M494.506 272.518V280.209C494.387 280.233 494.268 280.233 494.149 280.233H493.554V272.47H494.149C494.268 272.494 494.387 272.494 494.506 272.518Z" fill="#FFA412"/>
<path d="M495.814 273.23V279.497C495.576 279.782 495.267 279.995 494.862 280.138V272.613C495.243 272.731 495.576 272.945 495.814 273.23Z" fill="#FFA412"/>
<path d="M502.285 266.607V270.975C502.285 271.331 502.166 271.64 501.928 271.924C501.69 272.209 501.381 272.423 500.977 272.565C500.858 272.613 500.739 272.637 500.62 272.66C500.501 272.684 500.382 272.684 500.263 272.684H417.052C416.72 272.684 416.434 272.613 416.149 272.494C415.53 272.233 415.102 271.734 415.031 271.141C415.031 271.117 415.031 271.094 415.031 271.07C415.031 271.046 415.031 271.022 415.031 270.975V266.607C415.031 266.583 415.031 266.56 415.031 266.512C415.079 265.681 415.84 265.017 416.815 264.922C416.886 264.922 416.981 264.898 417.052 264.898H500.263C500.382 264.898 500.501 264.898 500.62 264.922C500.739 264.945 500.881 264.969 500.977 265.017C501.357 265.135 501.69 265.373 501.928 265.657C502.142 265.942 502.285 266.251 502.285 266.607Z" fill="#FFB93E"/>
<path d="M461.406 272.684H416.816C416.531 272.684 416.245 272.613 416.007 272.494C415.46 272.233 415.08 271.734 415.009 271.141C415.009 271.117 415.009 271.094 415.009 271.07C415.009 271.046 415.009 271.022 415.009 270.975V266.607C415.009 266.583 415.009 266.56 415.009 266.512C415.056 265.681 415.722 265.017 416.602 264.922C416.673 264.922 416.745 264.898 416.816 264.898H455.912C455.912 264.898 455.912 264.898 455.912 264.922C456.531 267.153 457.91 270.192 461.12 272.494C461.239 272.565 461.334 272.613 461.406 272.684Z" fill="#FFA412"/>
<path d="M492.156 264.921H491.205V272.684H492.156V264.921Z" fill="#FFA412"/>
<path d="M488.968 264.921H488.017V272.684H488.968V264.921Z" fill="#FFA412"/>
<path d="M485.115 264.921H484.164V272.684H485.115V264.921Z" fill="#FFA412"/>
<path d="M479.244 264.921H478.292V272.684H479.244V264.921Z" fill="#FFA412"/>
<path d="M473.012 264.921H472.061V272.684H473.012V264.921Z" fill="#FFA412"/>
<path d="M463.474 264.921H462.523V272.684H463.474V264.921Z" fill="#FFA412"/>
<path d="M454.534 264.921H453.582V272.684H454.534V264.921Z" fill="#FFA412"/>
<path d="M446.567 264.921H445.616V272.684H446.567V264.921Z" fill="#FFA412"/>
<path d="M495.2 264.921H494.248V272.684H495.2V264.921Z" fill="#FFA412"/>
<path d="M497.221 264.921H496.27V272.684H497.221V264.921Z" fill="#FFA412"/>
<path d="M499.172 264.921H498.22V272.684H499.172V264.921Z" fill="#FFA412"/>
<path d="M500.621 264.945V272.636C500.502 272.66 500.383 272.66 500.264 272.66H499.67V264.921H500.264C500.383 264.921 500.502 264.921 500.621 264.945Z" fill="#FFA412"/>
<path d="M501.929 265.657V271.924C501.691 272.209 501.382 272.423 500.978 272.565V265.04C501.382 265.159 501.691 265.372 501.929 265.657Z" fill="#FFA412"/>
<path d="M504.878 258.868V263.236C504.878 263.592 504.759 263.901 504.521 264.186C504.283 264.471 503.974 264.684 503.57 264.827C503.451 264.874 503.332 264.898 503.213 264.922C503.166 264.922 503.142 264.922 503.094 264.945C503.071 264.945 503.047 264.945 503.023 264.945C502.999 264.945 502.975 264.945 502.952 264.945C502.928 264.945 502.88 264.945 502.857 264.945H419.646C418.576 264.945 417.696 264.233 417.624 263.355C417.624 263.331 417.624 263.307 417.624 263.26V258.892C417.624 258.868 417.624 258.844 417.624 258.797C417.672 257.919 418.552 257.207 419.646 257.207H502.857C502.975 257.207 503.094 257.207 503.213 257.23C503.332 257.254 503.475 257.278 503.57 257.325C503.951 257.444 504.283 257.681 504.521 257.966C504.759 258.204 504.878 258.512 504.878 258.868Z" fill="#FFB93E"/>
<path d="M464.022 264.922H419.456C418.505 264.922 417.72 264.209 417.673 263.331C417.673 263.307 417.673 263.284 417.673 263.236V258.868C417.673 258.845 417.673 258.821 417.673 258.773C417.72 257.895 418.505 257.183 419.456 257.183H458.553C459.171 259.462 460.622 262.595 464.022 264.922C463.999 264.922 464.022 264.922 464.022 264.922Z" fill="#FFA412"/>
<path d="M494.769 257.183H493.818V264.945H494.769V257.183Z" fill="#FFA412"/>
<path d="M491.559 257.183H490.607V264.945H491.559V257.183Z" fill="#FFA412"/>
<path d="M487.731 257.183H486.78V264.945H487.731V257.183Z" fill="#FFA412"/>
<path d="M481.834 257.183H480.883V264.945H481.834V257.183Z" fill="#FFA412"/>
<path d="M475.625 257.183H474.674V264.945H475.625V257.183Z" fill="#FFA412"/>
<path d="M466.065 257.183H465.113V264.945H466.065V257.183Z" fill="#FFA412"/>
<path d="M457.147 257.183H456.195V264.945H457.147V257.183Z" fill="#FFA412"/>
<path d="M449.157 257.183H448.206V264.945H449.157V257.183Z" fill="#FFA412"/>
<path d="M497.813 257.183H496.861V264.945H497.813V257.183Z" fill="#FFA412"/>
<path d="M499.811 257.183H498.86V264.945H499.811V257.183Z" fill="#FFA412"/>
<path d="M501.762 257.183H500.811V264.945H501.762V257.183Z" fill="#FFA412"/>
<path d="M503.211 257.207V264.898C503.093 264.922 502.974 264.922 502.855 264.922H502.26V257.159H502.855C502.997 257.183 503.116 257.183 503.211 257.207Z" fill="#FFA412"/>
<path d="M504.545 257.919V264.186C504.307 264.471 503.998 264.684 503.594 264.827V257.302C503.974 257.42 504.307 257.634 504.545 257.919Z" fill="#FFA412"/>
<path d="M367.752 272.375C370.987 277.978 375.03 280.138 375.03 280.138H391.891C391.891 280.138 365.279 268.102 367.752 272.375Z" fill="#8F322A"/>
<path d="M380.713 315.722C381.165 316.22 381.212 316.79 380.998 317.384C380.594 318.499 379.262 319.734 377.716 320.968C377.526 321.134 377.336 321.277 377.193 321.395C377.146 321.419 377.122 321.467 377.074 321.49C377.051 321.514 377.003 321.538 376.979 321.562C375.529 322.891 376.076 323.199 373.483 325.882C370.535 328.944 368.513 328.992 367.919 328.731C367.419 328.493 368.418 326.879 369.512 325.051C369.56 324.956 369.607 324.885 369.678 324.79C369.821 324.553 369.964 324.291 370.106 324.054C371.391 321.846 371.058 320.826 370.749 317.55C370.511 314.891 366.611 302.689 366.611 302.689L372.271 301.716C372.271 301.716 373.983 311.425 375.838 312.921C376.837 313.728 377.954 313.728 378.929 314.321C379.001 314.369 379.072 314.393 379.12 314.44C379.714 314.844 380.261 315.223 380.713 315.722Z" fill="#FFB27D"/>
<path d="M380.715 315.722C381.167 316.221 381.214 316.79 381 317.384C380.501 318.499 379.217 319.734 377.718 320.968C377.528 321.134 377.362 321.277 377.195 321.419C377.148 321.443 377.124 321.49 377.076 321.514C377.052 321.538 377.005 321.562 376.981 321.585C375.53 322.915 376.077 323.223 373.485 325.906C370.536 328.968 368.515 329.016 367.92 328.754C367.421 328.517 368.42 326.903 369.514 325.075C370.085 324.861 372.748 323.793 374.769 321.206C376.553 318.95 377.742 316.031 378.931 314.345C379.003 314.393 379.074 314.416 379.121 314.464C379.716 314.844 380.263 315.224 380.715 315.722Z" fill="#704232"/>
<path d="M335.125 312.209C334.768 313.942 332.295 313.657 329.513 312.992C326.73 312.304 327.396 313.111 323.449 312.684C319.501 312.256 318.288 310.785 318.169 310.191C318.05 309.669 320.024 309.479 322.117 309.242C322.378 309.218 322.64 309.17 322.902 309.147C325.28 308.862 326.992 307.319 329.156 306.084C331.201 304.897 334.221 300.078 334.221 300.078L339.644 300.506C339.644 300.506 336.79 304.826 335.696 306.702C335.054 307.793 335.078 309.265 335.173 310.381C335.196 310.974 335.244 311.592 335.125 312.209Z" fill="#FFB27D"/>
<path d="M329.513 312.968C326.73 312.28 327.396 313.087 323.449 312.66C319.501 312.233 318.288 310.761 318.169 310.167C318.05 309.645 320.024 309.455 322.117 309.218L322.141 309.265C322.141 309.265 324.519 310.951 327.801 311.022C330.488 311.093 333.318 310.31 335.173 310.357C335.22 310.974 335.244 311.592 335.125 312.209C334.768 313.942 332.271 313.657 329.513 312.968Z" fill="#704232"/>
<path d="M355.909 277.574L360.975 291.2L367.586 308.98C367.586 308.98 369.393 309.147 371.105 308.648C372.699 308.197 374.506 306.986 374.506 306.986C374.506 306.986 372.675 287.901 369.25 276.933C368.37 274.109 367.395 271.853 366.302 270.572C360.975 264.305 355.909 277.574 355.909 277.574Z" fill="#8F322A"/>
<path d="M402.14 264.874C402.14 264.874 368.561 253.527 361.046 255.949C353.555 258.37 331.058 303.022 331.058 303.022C331.058 303.022 331.557 303.687 332.96 304.209C334.244 304.684 337.36 304.66 337.36 304.66C337.36 304.66 357.669 287.283 360.071 282.227C362.473 277.171 363.448 272.328 365.873 272.827C367.348 273.112 378.763 280.138 388.989 280.138C392.96 280.138 403.781 280.138 403.781 280.138C410.178 273.254 408.394 262.358 408.394 262.358L402.14 264.874Z" fill="#E04E39"/>
<path d="M379.549 214.976C378.931 213.908 378.17 212.009 377.623 208.543C377.694 208.875 378.645 213.243 380.524 215.593C387.849 219.605 402.379 233.824 402.332 236.72C402.332 236.72 406.422 228.388 406.493 228.341C406.493 228.341 414.317 216.661 403.544 211.154C398.075 208.353 397.766 204.246 397.718 200.638C397.67 197.053 394.817 181.79 384.662 186.632C384.662 186.632 382.926 186.015 382.189 186.181C382.189 186.181 382.807 186.252 383.14 186.537C381.927 186.561 380.191 186.775 378.812 187.724C375.15 190.217 373.223 210.015 379.549 214.976Z" fill="#704232"/>
<path d="M383.568 215.166C383.544 215.189 387.159 216.424 389.608 215.356C391.891 214.359 393.627 210.584 393.604 210.584C392.557 210.537 391.416 209.635 390.536 203.676L390.084 203.842L382.64 206.525C382.64 206.525 383.187 208.899 383.52 211.178C383.829 213.077 383.996 214.905 383.568 215.166Z" fill="#FFB27D"/>
<path d="M382.64 206.501C382.64 206.501 383.187 208.875 383.52 211.154C387.801 210.395 389.466 206.122 390.084 203.819L382.64 206.501Z" fill="#ED975D"/>
<path d="M391.891 201.967C391.891 201.967 394.174 198.383 394.721 195.297C395.101 193.113 393.984 184.971 385.803 186.157C385.803 186.157 383.425 186.395 381.189 187.89C379.406 189.077 376.861 191.665 379.715 198.763L380.452 201.16L391.891 201.967Z" fill="#704232"/>
<path d="M381.548 208.875C381.548 208.875 391.726 207.522 390.775 201.184C389.823 194.869 390.489 190.43 383.949 191.047C377.41 191.641 376.506 194.252 376.316 196.436C376.125 198.62 378.86 209.065 381.548 208.875Z" fill="#FFB27D"/>
<path d="M379.311 191.593C379.311 191.593 383.211 198.596 387.658 199.047C392.105 199.498 393.77 198.074 393.77 198.074C393.77 198.074 390.108 195.961 388.728 191.546C388.728 191.522 380.881 187.748 379.311 191.593Z" fill="#704232"/>
<path d="M380.096 192.092C380.096 192.092 378.265 194.062 378.003 195.748C377.742 197.433 378.003 200.78 377.028 200.804C377.028 200.804 374.175 196.08 376.101 192.875C378.122 189.481 380.096 192.092 380.096 192.092Z" fill="#704232"/>
<path d="M410.014 265.064C409.467 266.607 407.754 266.987 405.471 266.726C401.119 266.227 394.675 263.307 390.037 261.29C382.951 258.227 379.716 261.1 377.481 259.153C375.222 257.207 380.049 252.863 375.864 232.709C374.437 225.872 383.521 211.178 383.521 211.178C383.521 211.178 384.211 215.474 392.82 210.371C393.129 210.181 396.506 215.213 399.788 221.385C403.379 228.198 406.827 236.436 405.828 240.685C403.902 248.732 411.631 260.601 410.014 265.064Z" fill="#738D9A"/>
<path d="M410.012 265.064C409.465 266.607 407.752 266.987 405.469 266.726C402.473 265.42 389.465 260.388 389.631 256.993C389.845 251.96 392.128 251.794 390.511 245.575C389.227 240.59 401.213 231.308 403.139 229.266C406.73 236.079 406.849 236.412 405.826 240.637C403.9 248.732 411.629 260.601 410.012 265.064Z" fill="#58595B"/>
<path d="M360.977 291.2L367.588 308.98C367.588 308.98 369.396 309.147 371.108 308.648C372.701 308.197 374.508 306.986 374.508 306.986C374.508 306.986 372.677 287.901 369.253 276.933L360.977 291.2Z" fill="#E04E39"/>
<path d="M383.543 211.154C383.543 211.154 374.673 212.649 373.65 216.471C372.604 220.269 366.492 242.678 366.492 242.678C366.492 242.678 370.986 243.486 373.079 241.42C375.172 239.331 380.309 222.145 380.309 222.145L383.543 211.154Z" fill="#738D9A"/>
<path d="M392.841 210.347C392.841 210.347 401.212 210.869 404.114 214.905C408.204 220.578 416.29 244.815 411.652 248.044C406.42 251.676 387.871 248.993 387.871 248.993C387.871 248.993 387.253 246.121 388.109 244.72C388.965 243.32 402.925 241.065 403.567 240.424C404.209 239.783 395.505 227.89 395.505 225.943C395.529 224.02 392.841 210.347 392.841 210.347Z" fill="#738D9A"/>
<path d="M392.487 256.138H356.72L350.275 233.705H385.995L392.487 256.138Z" fill="#D1D9DD"/>
<path d="M403.592 255.284H356.838V256.162H403.592V255.284Z" fill="#D1D9DD"/>
<path d="M368.088 244.554C367.85 243.77 368.326 243.129 369.111 243.129C369.896 243.129 370.728 243.77 370.942 244.554C371.18 245.337 370.704 245.978 369.919 245.978C369.135 245.978 368.302 245.337 368.088 244.554Z" fill="white"/>
<path d="M454.124 353.221C469.569 337.804 469.569 312.809 454.124 297.392C438.68 281.976 413.639 281.976 398.195 297.392C382.751 312.809 382.751 337.804 398.195 353.221C413.639 368.637 438.68 368.637 454.124 353.221Z" fill="#E2810E"/>
<path d="M450.634 353.437C465.662 338.445 465.662 314.138 450.634 299.146C435.606 284.154 411.24 284.154 396.211 299.146C381.183 314.138 381.183 338.445 396.211 353.437C411.24 368.429 435.606 368.429 450.634 353.437Z" fill="#FDAA09"/>
<path d="M445.378 302.494C458.572 314.476 459.403 334.721 447.234 347.712C435.065 360.703 414.504 361.522 401.31 349.54C388.116 337.558 387.284 317.313 399.453 304.322C411.623 291.331 432.183 290.512 445.378 302.494Z" fill="#FFB92C"/>
<path d="M416.359 319.22C416.359 316.662 416.317 314.107 416.373 311.553C416.418 309.453 417.216 308.295 419.014 308.227C424.217 308.031 429.466 307.658 434.592 308.889C441.438 310.534 444.739 315.845 443.634 323.036C442.543 330.144 437.617 334.434 430.154 334.747C428.852 334.802 427.545 334.821 426.243 334.774C425.213 334.739 424.863 335.191 424.871 336.202C424.879 337.226 425.143 337.8 426.293 337.76C428.065 337.697 429.842 337.776 431.614 337.735C432.737 337.711 433.241 338.31 433.351 339.345C433.418 339.977 433.42 340.622 433.399 341.259C433.351 342.714 432.74 343.523 431.166 343.438C429.605 343.354 428.036 343.46 426.472 343.398C425.354 343.354 424.895 343.746 424.858 344.942C424.743 348.6 424.703 348.589 421.144 348.981C420.036 349.104 418.958 348.886 417.878 348.744C416.653 348.583 416.362 347.679 416.333 346.538C416.25 343.4 416.226 343.403 413.072 343.417C411.976 343.422 410.879 343.376 409.785 343.417C408.528 343.463 407.96 342.793 407.874 341.611C407.826 340.922 407.84 340.225 407.88 339.535C407.949 338.345 408.491 337.689 409.766 337.732C411.434 337.787 413.11 337.656 414.772 337.768C416.231 337.866 416.359 337.092 416.381 335.916C416.402 334.666 416.093 334.034 414.721 334.115C413.11 334.211 411.487 334.091 409.87 334.145C408.536 334.189 407.955 333.511 407.877 332.25C407.84 331.667 407.858 331.079 407.858 330.493C407.864 329.044 408.51 328.374 409.993 328.45C411.605 328.535 413.23 328.401 414.844 328.48C416.039 328.537 416.384 328.031 416.357 326.884C416.301 324.329 416.338 321.772 416.338 319.217C416.343 319.22 416.351 319.22 416.359 319.22ZM428.468 314.922C427.756 314.922 427.441 314.925 427.129 314.922C424.869 314.908 424.874 314.908 424.882 317.202C424.89 319.541 424.871 321.883 424.893 324.223C424.938 328.81 424.049 328.2 429.084 328.121C431.963 328.074 434.093 326.179 434.741 323.477C435.555 320.078 434.696 317.207 432.446 315.802C431.094 314.955 429.591 314.884 428.468 314.922Z" fill="#F79502"/>
</g>
<defs>
<clipPath id="clip0">
<rect width="641" height="366" fill="white"/>
</clipPath>
</defs>
</svg>
