<svg width="243" height="240" viewBox="0 0 243 240" fill="none" xmlns="http://www.w3.org/2000/svg">
<path d="M152.344 92.4622L165.784 100.36L172.538 104.257L175.921 106.199L177.607 107.17C177.874 107.323 178.2 107.498 178.467 107.756C178.746 108.013 178.956 108.376 179.025 108.75C179.235 114.086 179.293 119.223 179.421 124.476L179.525 132.304L179.583 136.224L179.618 139.161C179.618 139.489 179.537 139.875 179.49 140.238L179.374 141.115L178.572 140.706C177.979 140.402 177.363 140.097 176.782 139.77L175.084 138.752L171.701 136.704L164.935 132.62L158.192 128.49L154.821 126.419L153.135 125.377C152.612 125.038 151.914 124.71 151.507 124.02C151.077 123.341 151.147 122.534 151.158 121.914L151.193 115.958L151.251 108.013C151.275 102.712 151.158 97.4234 151.286 92.1229V92.1112H151.298C151.658 92.2516 152.03 92.2867 152.344 92.4622ZM152.344 92.4622C152.03 92.2867 151.658 92.2516 151.31 92.1463H151.321C151.263 97.4351 151.426 102.736 151.472 108.025L151.798 121.926C151.81 122.604 151.798 123.213 152.112 123.681C152.402 124.149 152.96 124.418 153.542 124.757L155.251 125.74L158.68 127.706L165.516 131.673L175.735 137.675L177.444 138.681L179.153 139.582L178.246 140.05C178.281 139.758 178.363 139.512 178.374 139.185V136.248L178.363 132.328L178.351 124.488C178.363 119.293 178.456 113.98 178.421 108.879C178.339 108.329 177.898 107.99 177.328 107.662L175.666 106.644L172.352 104.596L165.702 100.513L152.344 92.4622Z" fill="#E2EBF0"/>
<path d="M151.333 88.8348L151.403 73.3894L151.392 65.6667L151.38 61.8053C151.392 61.1618 151.333 60.5299 151.426 59.8395C151.508 59.1492 151.88 58.4471 152.426 58.0025C156.832 55.1942 161.18 52.62 165.563 49.9053L175.457 43.9729L177.108 42.99L178.84 42.0773L179.7 41.621L179.747 42.6039L179.851 44.6281L179.747 50.6074L179.619 58.5758L179.444 66.5443L179.328 70.546L179.282 72.5352C179.282 73.1905 179.235 73.9744 178.828 74.6414C178.445 75.3201 177.759 75.7179 177.201 76.0221L175.48 77.005L172.039 78.9825L165.156 82.9258L151.438 90.9176L151.426 90.9293V90.9059L151.333 88.8348ZM151.333 88.8348L151.438 90.9176L151.415 90.9059L165.029 82.7385L171.795 78.5847L175.178 76.5019L176.875 75.4605C177.445 75.1211 177.945 74.7935 178.212 74.2787C178.491 73.7872 178.526 73.1788 178.503 72.5235L178.468 66.5443V58.5641L178.503 50.584L178.538 44.6047L178.456 42.6507L179.363 43.1772L177.689 44.0314L166.063 50.818C161.645 53.3688 157.1 55.8963 152.775 58.4588C152.31 58.8215 152.031 59.313 151.938 59.9097C151.845 60.4948 151.88 61.1618 151.845 61.7936L151.752 65.655L151.578 73.3777L151.333 88.8348Z" fill="#E2EBF0"/>
<path d="M177.748 106.27L164.634 98.8861L158.054 95.2354L154.763 93.4217L153.113 92.5091L151.52 91.4677L151.125 91.2102L165.215 82.9259L175.527 76.9934L177.248 76.0105C177.771 75.718 178.492 75.2383 179.364 75.2266C180.247 75.2032 181.003 75.6595 181.526 75.9637L183.247 76.9583L186.676 78.9358L193.535 82.9025L200.371 86.9042L205.498 89.9231C206.068 90.2741 206.603 90.6837 207.161 91.0581L207.591 91.3506L207.149 91.6432C205.963 92.4154 204.754 93.0824 203.533 93.7494L192.559 99.752L181.642 105.86C181.038 106.188 180.445 106.597 179.747 106.714C179.026 106.878 178.329 106.621 177.748 106.27ZM177.748 106.27C178.34 106.609 179.038 106.855 179.736 106.714C180.421 106.597 181.003 106.176 181.607 105.848L185.223 103.765L192.454 99.6116L199.65 95.3875L203.243 93.2696C204.452 92.5793 205.649 91.8655 206.765 91.0815V91.6666C206.219 91.3156 205.684 90.9411 205.115 90.6135L203.382 89.654L199.906 87.7467L192.977 83.8971L182.619 78.0699L180.886 77.0987C180.282 76.7477 179.852 76.502 179.375 76.5137C178.91 76.5137 178.445 76.7711 177.841 77.1221L176.108 78.0933L165.727 83.8854L151.834 91.5028L151.857 90.9996L153.38 92.0644L154.996 93.0239L164.727 98.7457L177.748 106.27Z" fill="#E2EBF0"/>
<path d="M152.6 26.9597L165.784 34.3665L172.399 38.0289L175.712 39.8543L177.363 40.7669L178.979 41.7849L179.386 42.0424L165.284 50.3267L154.96 56.2592L153.24 57.2421C152.693 57.5463 152.054 58.0026 151.147 58.0728C150.217 58.1313 149.485 57.6048 148.973 57.324L147.252 56.3294L143.823 54.3402L136.952 50.3735L130.105 46.3601L126.687 44.3475C125.547 43.6571 124.396 43.0604 123.292 42.2296L122.931 41.9488L123.28 41.6679C124.408 40.7435 125.652 40.1585 126.861 39.4798L137.812 33.4772L145.078 29.4169L148.706 27.3809C149.31 27.065 149.892 26.632 150.589 26.5033C151.322 26.3629 152.019 26.6203 152.6 26.9597ZM152.6 26.9597C152.007 26.6203 151.31 26.3746 150.624 26.5267C149.938 26.6671 149.368 27.1001 148.764 27.4277L137.94 33.6527L127.163 39.9713C125.977 40.6733 124.722 41.3286 123.722 42.2179L123.71 41.6562C124.757 42.3934 125.966 42.9901 127.105 43.6337L130.581 45.5527L137.522 49.4023L147.892 55.2295L149.624 56.2007C150.24 56.5517 150.67 56.8442 151.101 56.7974C151.542 56.7857 152.054 56.4815 152.647 56.1539L154.379 55.1827L164.772 49.3906L178.677 41.7615L178.665 42.2647L177.107 41.2233L172.225 38.3448L165.703 34.5186L152.6 26.9597Z" fill="#E2EBF0"/>
<path d="M123.115 109.686C123.103 109.008 123.254 108.259 123.801 107.791C124.336 107.346 124.963 107.053 125.545 106.679L136.194 100.29L146.785 93.7962C147.971 93.0824 149.098 92.3218 150.377 91.7017L150.831 91.4793L150.865 91.9825C150.912 92.6495 151.017 93.3398 151.017 93.9951L151.028 95.9843L151.04 99.9743L151.051 107.943L151.017 115.911L150.982 121.89C150.97 122.499 151.051 123.33 150.598 124.149C150.377 124.547 150.04 124.851 149.715 125.061L148.831 125.588L147.122 126.583L136.845 132.585L126.521 138.483C125.359 139.126 124.266 139.84 123.01 140.378L122.603 140.554L122.58 140.121C122.522 138.834 122.545 137.57 122.592 136.306L122.685 132.503L122.859 124.898L123.115 109.686ZM123.115 109.686L123.045 124.898L123.057 132.503L123.068 136.306C123.057 137.57 123.08 138.845 123.173 140.086L122.743 139.828C123.905 139.302 125.021 138.529 126.149 137.862L136.298 131.649L143.099 127.565L146.506 125.529L148.203 124.511L149.017 124.02C149.238 123.868 149.401 123.704 149.505 123.517C149.726 123.142 149.715 122.581 149.715 121.879L149.819 115.911L149.947 107.943L150.133 99.9743L150.238 95.996L150.284 94.0068C150.296 93.3398 150.214 92.708 150.191 92.0527L150.679 92.3335C149.447 92.8835 148.273 93.6323 147.064 94.2993L136.287 100.477L129.137 104.655L125.568 106.749C124.987 107.112 124.347 107.405 123.812 107.837C123.266 108.259 123.115 109.008 123.115 109.686Z" fill="#E2EBF0"/>
<path d="M150.644 90.7418C149.435 90.2269 148.273 89.56 147.133 88.9047L136.81 83.0074L126.521 77.0398L124.812 76.0452C124.289 75.7176 123.545 75.4134 123.103 74.6645C122.661 73.9039 122.743 73.0849 122.719 72.4764L122.684 70.4872L122.405 46.5936C122.394 45.2597 122.336 43.9609 122.464 42.5568L122.545 41.6675L123.37 42.0302C124.661 42.5919 125.742 43.3173 126.881 43.9843L130.276 46.0203L143.855 54.1876L147.25 56.2353L148.935 57.265C149.447 57.6043 150.191 57.932 150.621 58.6808C151.063 59.4414 150.947 60.2605 150.958 60.8689V62.8581L150.923 74.8049L150.842 82.7734L150.807 86.7517C150.784 88.0739 150.807 89.4313 150.644 90.7418ZM150.644 90.7418C150.749 89.4079 150.656 88.0973 150.621 86.7634L150.307 74.8166L150.063 62.8698L150.028 60.8806C150.017 60.1903 150.04 59.5935 149.784 59.184C149.54 58.7627 149.017 58.4936 148.424 58.1543L146.715 57.1597L143.297 55.1471L126.242 45.0608C125.103 44.3938 123.963 43.6684 122.824 43.1769L123.731 42.6387C123.591 43.8907 123.638 45.2363 123.649 46.5702L123.673 50.5486L123.742 66.4855L123.754 70.4638V72.453C123.754 73.1434 123.708 73.7284 123.963 74.1497C124.184 74.5826 124.719 74.8634 125.3 75.2262L126.998 76.2558L130.381 78.3269L137.147 82.4574L143.89 86.6347L147.261 88.7292C148.354 89.4547 149.435 90.1684 150.644 90.7418Z" fill="#E2EBF0"/>
<path d="M149.68 155.964L136.427 148.51L126.452 142.999C125.348 142.379 124.22 141.829 123.162 141.057L122.813 140.799L123.162 140.565C123.72 140.191 124.255 139.769 124.825 139.43L126.534 138.424L129.963 136.423L136.811 132.409L147.134 126.477L148.855 125.494C149.39 125.202 150.064 124.71 150.983 124.698C151.436 124.698 151.855 124.827 152.215 125.003C152.575 125.19 152.808 125.33 153.11 125.506L165.143 132.456L171.99 136.47L175.408 138.482C176.548 139.161 177.699 139.781 178.791 140.624L179.221 140.951L178.768 141.197L164.282 149.13L153.47 155.168C152.866 155.496 152.285 155.87 151.657 156.139C151.017 156.432 150.262 156.326 149.68 155.964ZM149.68 155.964C150.262 156.326 151.017 156.42 151.645 156.128C152.273 155.847 152.843 155.461 153.447 155.133L157.028 153.085L164.189 148.978L171.316 144.813L178.431 140.624L178.408 141.197C177.373 140.448 176.176 139.84 175.025 139.196L171.549 137.277L164.608 133.427L157.691 129.531L152.494 126.617L151.668 126.149C151.436 126.032 151.215 125.974 150.994 125.962C150.564 125.95 150.076 126.231 149.471 126.571L147.739 127.542L137.346 133.334L126.894 139.044L125.15 139.992C124.569 140.319 124.057 140.694 123.499 141.045V140.553C124.464 141.314 125.604 141.911 126.685 142.566L129.963 144.497L136.52 148.346L149.68 155.964Z" fill="#E2EBF0"/>
<path d="M167.759 146.743L187.394 158.292L202.182 166.834L204.647 168.25C205.042 168.484 205.507 168.73 205.903 169.104C206.31 169.478 206.612 170.017 206.716 170.555C207.03 178.348 207.1 185.86 207.298 193.524L207.449 204.968L207.53 210.69L207.565 213.545L207.588 214.972C207.588 215.452 207.46 216.025 207.402 216.54L207.24 217.827L206.077 217.219C205.205 216.762 204.31 216.33 203.473 215.85L200.997 214.364L186.174 205.412L176.327 199.386L168.956 194.846C168.189 194.355 167.177 193.863 166.573 192.869C165.957 191.874 166.05 190.704 166.061 189.792L166.085 186.89L166.119 181.086L166.201 169.478C166.224 161.744 166.061 154.01 166.247 146.275V146.263H166.259C166.759 146.427 167.305 146.474 167.759 146.743ZM167.759 146.743C167.294 146.486 166.759 146.439 166.247 146.287L166.259 146.275C166.166 154.01 166.422 161.744 166.48 169.478L166.747 181.074L166.875 186.878L166.945 189.78C166.956 190.774 166.945 191.664 167.398 192.331C167.828 193.021 168.642 193.419 169.491 193.91L176.989 198.228L186.988 204.008L204.403 214.247L206.902 215.569L205.577 216.248C205.624 215.826 205.751 215.464 205.763 214.984V213.556L205.752 210.69L205.717 193.524C205.74 185.942 205.868 178.172 205.821 170.73C205.705 169.923 205.054 169.42 204.217 168.952L196.939 164.47L187.232 158.514L167.759 146.743Z" fill="#E2EBF0"/>
<path d="M166.286 141.431L166.39 118.871L166.367 107.592L166.344 101.952C166.367 101.004 166.274 100.091 166.402 99.0732C166.518 98.0669 167.065 97.0372 167.867 96.3937C174.296 92.2866 180.655 88.5189 187.049 84.5756L201.488 75.9051L203.895 74.4659L206.429 73.1319L207.685 72.4767L207.755 73.9159L207.906 76.8763L207.58 97.2596L207.324 108.902L207.173 114.729L207.104 117.643C207.092 118.602 207.034 119.749 206.453 120.72C205.883 121.703 204.895 122.288 204.081 122.745L196.536 127.062L186.48 132.831L166.448 144.509L166.425 144.52V144.485L166.286 141.431ZM166.286 141.431L166.448 144.473L166.425 144.462L186.305 132.527L203.604 121.902C204.441 121.411 205.174 120.919 205.569 120.182C205.976 119.457 206.022 118.579 205.999 117.608L205.964 108.867L205.953 97.2128L206.034 79.7313L206.057 76.8178L205.941 73.9627L207.266 74.735L204.813 75.987L202.384 77.4028L197.536 80.2345L187.828 85.8861C181.376 89.6071 174.726 93.2929 168.425 97.0489C167.75 97.5755 167.332 98.301 167.192 99.1668C167.053 100.009 167.099 100.992 167.053 101.917L166.913 107.557L166.646 118.836L166.286 141.431Z" fill="#E2EBF0"/>
<path d="M176.361 150.347L169.27 146.158L167.607 145.011L187.301 134.211L202.473 125.752L204.995 124.336C205.879 123.833 206.553 123.446 207.239 123.458C207.925 123.446 208.565 123.797 209.448 124.324L227.108 134.246L237.234 139.863L242.302 142.648L243 143.034V141.688L242.884 141.618L237.896 138.681L227.91 132.831L210.367 122.698C209.599 122.253 208.495 121.574 207.204 121.621C205.926 121.633 204.879 122.335 204.1 122.768L196.567 127.085L186.534 132.854L166.572 144.59L165.968 144.941L166.549 145.316L168.874 146.825L171.281 148.147L176.094 150.804L185.708 156.128L204.856 166.904L185.836 155.905L176.361 150.347Z" fill="#E2EBF0"/>
<path d="M169.051 3.0188L188.291 14.3337L197.952 19.9269L202.789 22.7117L205.218 24.1158C206.055 24.5839 206.869 25.5083 207.009 26.5848C207.299 34.2022 207.381 41.5739 207.59 49.0742C207.683 56.5746 207.881 63.9814 207.846 71.5403V72.0084L207.462 72.2541L207.055 72.5232L207.009 72.5583H206.985C206.962 72.5583 206.892 72.6168 206.625 72.6753C206.544 72.687 206.451 72.6987 206.288 72.6753C206.195 72.6636 206.113 72.6402 206.02 72.5934L205.986 72.5817L205.904 72.5466L204.893 72.0552C204.416 71.8445 204.044 71.5871 203.614 71.3414L201.149 69.8554L186.361 60.904C179.781 56.9491 173.271 52.8537 166.714 48.8285L166.458 48.6764V48.3956L166.598 25.0636L166.54 1.73169V1.70828L166.563 1.71998L169.051 3.0188ZM169.051 3.0188L166.516 1.73169L166.54 1.71998L166.9 25.0402L167.458 48.3605L167.202 47.9158C173.852 51.7655 180.537 55.5449 187.152 59.4648L202.044 68.2406L204.521 69.7032C204.928 69.9373 205.346 70.2298 205.753 70.4053L206.369 70.7095L206.672 70.8616L206.753 70.8968C206.672 70.8616 206.602 70.8382 206.532 70.8265C206.404 70.8031 206.334 70.8148 206.288 70.8265C206.137 70.8616 206.183 70.8617 206.265 70.8148L206.183 70.85L206.381 70.7212L205.986 71.435C206.113 64.0516 205.986 56.5044 206.009 49.0508C206.032 41.609 206.148 34.0267 206.113 26.6901C205.974 25.0051 203.881 24.3382 202.393 23.2968L188.128 14.5327L169.051 3.0188Z" fill="#E2EBF0"/>
<path d="M168.146 51.0636L187.41 61.887L197.071 67.2344L204.325 71.2362L206.685 72.7222L207.29 73.0967L186.689 85.2073L169.111 95.2936C168.309 95.7266 167.378 96.4052 166.053 96.4988C164.693 96.5924 163.623 95.8202 162.879 95.3989L160.368 93.948L145.324 85.2424L135.326 79.3802L130.339 76.4315C128.688 75.4252 126.991 74.5476 125.386 73.3424L124.852 72.9446L125.363 72.5233C127.014 71.1777 128.828 70.3118 130.595 69.3289L146.592 60.5648L157.206 54.6324L162.507 51.6603C163.402 51.1923 164.24 50.5721 165.251 50.3732C166.262 50.1743 167.285 50.5487 168.146 51.0636ZM168.146 51.0636C167.274 50.5604 166.251 50.2094 165.251 50.4317C164.251 50.6423 163.426 51.2625 162.531 51.7422L146.72 60.8339L130.99 70.0661C129.246 71.0958 127.421 72.0553 125.956 73.3424L125.933 72.5233C127.456 73.6115 129.223 74.4657 130.897 75.4135L135.977 78.2101L146.115 83.8383L161.263 92.3684L163.786 93.7842C164.693 94.299 165.309 94.7203 165.949 94.6618C166.588 94.6501 167.344 94.2054 168.216 93.7257L185.933 83.85L206.255 72.7105L206.232 73.4477L203.953 71.9149L201.57 70.5107L196.815 67.7025L187.282 62.1094L168.146 51.0636Z" fill="#E2EBF0"/>
<path d="M125.067 171.889C125.044 170.894 125.265 169.794 126.067 169.115C126.857 168.472 127.776 168.039 128.624 167.489L144.18 158.151L159.642 148.674C161.374 147.632 163.025 146.521 164.897 145.608L165.559 145.292L165.618 146.017C165.687 147 165.838 147.995 165.838 148.966L165.873 157.695L165.885 169.338L165.827 180.98L165.792 186.796L165.78 189.709C165.757 190.61 165.873 191.815 165.222 192.997C164.897 193.571 164.408 194.015 163.932 194.331L162.641 195.092L145.145 205.318L130.054 213.942C128.357 214.878 126.764 215.931 124.927 216.704L124.335 216.949L124.3 216.317C124.207 214.445 124.242 212.585 124.311 210.748L124.451 205.201L124.707 194.097L125.067 171.889ZM125.067 171.889L124.962 194.097L124.986 205.201L125.009 210.759C124.997 212.608 125.02 214.469 125.16 216.282L124.532 215.908C126.241 215.136 127.857 214.001 129.508 213.029L144.331 203.949L154.271 197.994L159.235 195.01L161.723 193.524L162.909 192.798C163.223 192.576 163.467 192.342 163.618 192.073C163.932 191.523 163.92 190.704 163.932 189.686L164.269 169.314L164.536 157.672L164.688 151.856L164.757 148.943C164.781 147.971 164.664 147.035 164.618 146.088L165.327 146.497C163.537 147.293 161.804 148.393 160.049 149.376L144.308 158.397L128.648 167.559C127.799 168.097 126.869 168.519 126.078 169.15C125.3 169.806 125.055 170.894 125.067 171.889Z" fill="#E2EBF0"/>
<path d="M165.283 144.216C163.528 143.467 161.807 142.484 160.156 141.536L145.078 132.924L127.546 122.744C126.779 122.276 125.698 121.82 125.047 120.72C124.396 119.62 124.524 118.427 124.489 117.526L124.431 114.612L124.012 79.7193C124 77.777 123.907 75.8697 124.105 73.8337L124.221 72.5232L125.419 73.0497C127.302 73.8688 128.883 74.9219 130.546 75.9048L160.331 93.8074L162.807 95.3169C163.563 95.8083 164.632 96.2881 165.272 97.388C165.911 98.5113 165.748 99.6931 165.772 100.582L165.76 103.496L165.713 120.942L165.539 138.389C165.493 140.331 165.516 142.308 165.283 144.216ZM165.283 144.216C165.434 142.262 165.307 140.354 165.248 138.4L164.795 120.954L164.388 100.594C164.365 99.5878 164.411 98.7102 164.028 98.1251C163.679 97.505 162.9 97.1188 162.04 96.6157L159.54 95.1648L154.553 92.2278L129.639 77.5078C127.976 76.5367 126.314 75.4718 124.651 74.7581L125.977 73.9741C125.779 75.7995 125.849 77.777 125.849 79.7076L126.012 114.612L126 117.526C126 118.544 125.942 119.398 126.302 120.006C126.628 120.638 127.407 121.048 128.267 121.574L130.743 123.084L145.566 132.14L160.331 141.302C161.935 142.344 163.516 143.373 165.283 144.216Z" fill="#E2EBF0"/>
<path d="M124.997 69.4926L125.101 46.8627L125.078 35.5478L125.055 29.8961C125.067 28.9367 125.02 28.0474 125.078 27.0294C125.113 26.0348 125.636 24.9115 126.485 24.303L145.714 12.4732L160.188 3.76764C161.781 2.78475 163.397 1.82526 165.14 0.982779L166.408 0.374325L166.466 1.76675L166.594 4.72713L166.268 25.0753L166.012 36.7062L165.861 42.5216L165.791 45.4235C165.791 46.383 165.71 47.5297 165.117 48.4892C164.536 49.4603 163.559 50.0337 162.734 50.4783L145.156 60.5413L125.16 72.1955L125.136 72.2072V72.1838L124.997 69.4926ZM124.997 69.4926L125.171 72.1838L125.148 72.1721L144.993 60.2604L154.863 54.211L159.793 51.1804L162.257 49.671C163.094 49.1795 163.827 48.6881 164.234 47.9626C164.652 47.2371 164.699 46.3713 164.675 45.4118L164.641 36.6828L164.629 25.0519L164.722 4.69202L164.629 1.83696L165.954 2.62093C164.303 3.3815 162.687 4.32929 161.071 5.28878L146.493 13.8189L127.02 25.0051C125.532 25.9412 125.892 28.0357 125.776 29.8961L125.636 35.5478L125.369 46.8627L124.997 69.4926Z" fill="#E2EBF0"/>
<path d="M85.3904 2.50369L104.968 14.0176L114.803 19.7043L119.721 22.5359L122.186 23.9518C122.593 24.1858 123.058 24.4432 123.43 24.841C123.825 25.2272 124.092 25.7888 124.174 26.3271C124.441 34.0732 124.546 41.5736 124.732 49.2144L124.883 60.6229L124.964 66.3331L124.999 69.1881L125.022 70.6157C125.022 71.0954 124.906 71.6571 124.848 72.1719L124.697 73.4707L123.523 72.8623C122.651 72.4059 121.744 71.9964 120.907 71.5049L118.431 70.0189L103.596 61.0676L93.7376 55.0415L88.8199 52.0109L86.3553 50.5015C85.5764 50.0101 84.5649 49.5069 83.972 48.5123C83.3559 47.506 83.4605 46.3476 83.4605 45.4349L83.4837 42.5331L83.5186 36.7293L83.6 25.1219C83.6232 17.3875 83.4721 9.64135 83.6465 1.90694V1.89524H83.6581C84.2394 2.09415 84.8556 2.19946 85.3904 2.50369ZM85.3904 2.50369C84.8556 2.19946 84.2394 2.10586 83.6697 1.89524L83.6814 1.88353C83.6 9.61795 83.8441 17.3524 83.9139 25.0985L84.1813 36.7059L84.3905 45.4115C84.4022 46.4061 84.3905 47.2954 84.8439 47.9741C85.2741 48.6644 86.0763 49.0623 86.9249 49.5537L89.4245 50.993L94.4352 53.8714L104.433 59.6634L121.86 69.9019L124.371 71.2124L123.046 71.9028C123.093 71.4815 123.209 71.0954 123.22 70.6391V66.3565L123.186 49.2378L123.313 26.4909C123.232 25.6835 122.616 25.1453 121.802 24.6772L119.384 23.1912L114.548 20.2074L104.863 14.2633L85.3904 2.50369Z" fill="#E2EBF0"/>
<path d="M42.0378 69.13L42.1424 46.582L42.1192 35.3022L42.0959 29.6622C42.1192 28.7261 42.0262 27.8018 42.1657 26.7838C42.2936 25.7775 42.8749 24.7595 43.677 24.1393C50.0944 20.0556 56.4421 16.2645 62.8363 12.3095L83.3557 0L83.4487 1.49774C83.5068 2.49233 83.6115 3.49862 83.6347 4.48151L83.2975 24.8765L83.0418 36.5308L82.8906 42.3579L82.8209 45.2715C82.786 46.1959 82.8442 47.3309 82.2745 48.3605C81.7048 49.4136 80.6353 49.8817 79.8563 50.338L62.2317 60.4127L47.1996 69.1768C45.5255 70.1363 43.8979 71.2011 42.1076 71.9382L42.0843 71.9499V71.9265L42.0378 69.13ZM42.0378 69.13L42.1192 71.9382L42.0959 71.9265C43.8747 71.166 45.479 70.0777 47.1531 69.1066L52.129 66.1228L62.069 60.1435L76.915 51.0518L79.3913 49.5424C80.24 49.0275 81.0422 48.6063 81.3793 47.8808C81.7513 47.167 81.7164 46.2661 81.7164 45.2715L81.6816 36.5308V24.8765L81.7629 7.39508L81.7862 4.48151C81.763 3.52203 81.6816 2.59764 81.6351 1.64985L83.0069 2.38702L63.6152 13.6669C57.1629 17.3878 50.5478 21.0853 44.2234 24.8414C43.5375 25.3562 43.0958 26.07 42.9446 26.9242C42.7935 27.7667 42.8516 28.7378 42.8051 29.6739L42.6656 35.3139L42.4098 46.5937L42.0378 69.13Z" fill="#E2EBF0"/>
<path d="M40.7716 25.3913C41.2483 40.6027 41.6203 56.0716 41.9109 71.5989L41.9342 72.6169L41.0855 72.3127L40.2485 72.0084L39.5742 71.6925C39.1324 71.4819 38.679 71.2596 38.2488 71.0372L35.6679 69.6799C33.9473 68.7672 32.2732 67.8077 30.5758 66.86L20.4963 61.0679L10.4982 55.1472C7.17323 53.1229 3.87153 51.1688 0.604693 48.9222L0.221042 48.6648V48.1733L0.0931581 24.8414C0.0699066 17.0602 -0.0347246 9.29066 0.0117783 1.50945L0.0234043 0.222326L1.1046 0.877586L21.066 13.1169L40.7716 25.3913ZM40.7716 25.3913L20.4149 13.7722L0.348926 2.1179L1.43012 1.48604C1.61613 9.26726 1.65101 17.0368 1.76727 24.818L2.05791 48.1499L1.67426 47.4011C4.76671 49.5658 8.11492 51.59 11.3934 53.6143L21.3334 59.5936L31.3431 65.4441L36.3771 68.2992L38.8999 69.7033C39.3184 69.9373 39.7485 70.148 40.1671 70.3703L40.7949 70.6862L41.3064 70.9085L40.481 71.5989C40.4926 56.3173 40.574 40.9772 40.7716 25.3913Z" fill="#E2EBF0"/>
<path d="M163.876 239.486L144.519 228.604L129.94 220.554C128.324 219.641 126.673 218.845 125.127 217.71L124.615 217.336L125.127 216.985C125.929 216.435 126.72 215.826 127.545 215.323L145.054 205.073L155.11 199.304L162.655 194.987C163.434 194.554 164.422 193.84 165.771 193.828C166.422 193.828 167.049 194.016 167.573 194.273C168.107 194.554 168.445 194.753 168.886 195.01L186.453 205.167L196.451 211.029L201.438 213.978C203.101 214.972 204.787 215.885 206.379 217.102L207.007 217.581L185.197 229.528L169.398 238.339C168.514 238.807 167.666 239.357 166.736 239.767C165.817 240.176 164.724 240.024 163.876 239.486ZM163.876 239.486C164.736 240.012 165.829 240.153 166.747 239.72C167.654 239.31 168.503 238.749 169.386 238.269L185.081 229.271L195.486 223.186L205.879 217.067L205.844 217.909C204.322 216.809 202.589 215.932 200.892 214.996L195.811 212.199L185.674 206.582L166.782 195.958C166.433 195.782 166.119 195.689 165.805 195.689C165.178 195.677 164.457 196.087 163.573 196.59L145.856 206.465L135.683 212.023L130.591 214.797L128.045 216.189C127.208 216.657 126.441 217.219 125.639 217.734V217.02C127.057 218.131 128.719 219.009 130.3 219.957L135.079 222.777L144.658 228.393L163.876 239.486Z" fill="#E2EBF0"/>
</svg>
