<svg width="430" height="421" viewBox="0 0 430 421" fill="none" xmlns="http://www.w3.org/2000/svg">
<path opacity="0.5" d="M303.626 284.985C286.073 304.011 265.216 316.964 240.229 323.239C177.246 338.621 108.687 291.664 98.1552 228.313C87.004 159.902 148.129 90.2766 224.122 95.7414C275.128 99.3846 324.689 144.925 331.09 194.513C334.188 218.396 331.71 242.279 333.155 266.162C333.775 277.294 336.046 287.819 347.611 293.284C363.511 300.57 376.934 295.308 384.368 278.306C395.519 252.399 400.062 225.075 397.584 197.144C392.422 139.662 366.609 93.1102 317.255 61.1311C215.242 -5.25606 60.5717 40.0815 34.5523 177.309C15.5541 277.699 79.9829 373.029 187.777 388.412C233.002 394.888 276.161 386.59 314.777 360.885C317.874 358.861 320.972 356.635 324.482 355.016C332.123 351.575 338.731 354.004 343.687 360.076C348.437 366.148 348.23 372.624 343.274 378.696C339.557 383.352 334.394 385.983 329.438 389.019C199.755 467.752 30.6288 393.876 3.37039 246.529C-12.9433 159.497 31.0418 70.8463 111.991 26.5207C245.392 -46.3432 405.431 39.2719 427.734 181.761C433.309 217.586 428.353 252.197 415.55 285.997C403.16 318.786 372.184 333.764 339.35 323.441C326.96 319.596 317.668 311.904 311.473 300.772C308.788 295.712 306.31 290.652 303.626 284.985ZM214.21 294.296C261.292 296.32 302.18 260.495 300.734 207.871C299.289 161.521 262.738 125.089 211.525 126.709C164.443 128.328 128.305 164.153 128.511 210.907C128.924 259.483 165.269 294.903 214.21 294.296Z" fill="#F7F9FA"/>
</svg>
