<svg width="81" height="17" viewBox="0 0 81 17" fill="none" xmlns="http://www.w3.org/2000/svg">
<path fill-rule="evenodd" clip-rule="evenodd" d="M7.86943 5.32498H4.99997L4.44034 10.7444H7.28578L7.86943 5.32498ZM8.81774 5.32498L8.23409 10.7444H11.6705L11.5979 11.5559H8.1605L7.57685 16.8574H6.62828L7.21194 11.5559H4.34399L3.78487 16.8574H2.83631L3.41971 11.5559H0.0078125L0.080137 10.7444H3.49203L4.07569 5.32498H0.639514L0.711838 4.51268H4.14953L4.61104 0.119141H5.55935L5.09657 4.51268H7.94176L8.40327 0.119141H9.35158L8.89032 4.51268H12.328L12.2539 5.32498H8.81774Z" fill="#E04E39"/>
<path fill-rule="evenodd" clip-rule="evenodd" d="M17.0346 2.53056V14.4685H18.5425C19.3942 14.4685 19.9038 14.0394 19.9038 12.8454V4.15417C19.9038 2.96042 19.3942 2.53056 18.5425 2.53056H17.0346ZM14.3613 0.143066H18.59C21.265 0.143066 22.5785 1.5993 22.5785 4.27386V12.7257C22.5785 15.3995 21.265 16.857 18.59 16.857H14.3613V0.143066Z" fill="#E04E39"/>
<path fill-rule="evenodd" clip-rule="evenodd" d="M24.2783 0.143066H26.9531V16.857H24.2783V0.143066Z" fill="#E04E39"/>
<path fill-rule="evenodd" clip-rule="evenodd" d="M31.5708 7.18608H35.2424V9.57357H31.5708V14.4685H36.1904V16.857H28.8955V0.143066H36.1904V2.53056H31.5708V7.18608Z" fill="#E04E39"/>
<path fill-rule="evenodd" clip-rule="evenodd" d="M45.2577 0.143066V2.48288L40.176 14.4685H45.2577V16.857H37.4287V14.5169L42.5104 2.53056H37.6715V0.143066H45.2577Z" fill="#E04E39"/>
<path fill-rule="evenodd" clip-rule="evenodd" d="M49.7782 16.857V1.14609H46.3008V0.143066H54.3485V1.14609H50.8967V16.857H49.7782Z" fill="#E04E39"/>
<path fill-rule="evenodd" clip-rule="evenodd" d="M61.5671 7.87869V8.88171H56.9234V15.8537H62.5162V16.857H55.8057V0.143066H62.5162V1.14609H56.9234V7.87869H61.5671Z" fill="#E04E39"/>
<path fill-rule="evenodd" clip-rule="evenodd" d="M71.6081 4.22541V5.61087H70.5381V4.15439C70.5381 2.3634 69.8321 1.00228 67.961 1.00228C66.0879 1.00228 65.3841 2.36365 65.3841 4.15439V12.8456C65.3841 14.6359 66.0879 15.9726 67.961 15.9726C69.8321 15.9726 70.5381 14.6359 70.5381 12.8456V10.8639H71.6081V12.7736C71.6081 15.1857 70.5381 17 67.9365 17C65.3341 17 64.2656 15.1857 64.2656 12.7736L64.2659 4.22541C64.2659 1.81458 65.3338 0 67.9365 0C70.5381 0 71.6081 1.81458 71.6081 4.22541Z" fill="#E04E39"/>
<path fill-rule="evenodd" clip-rule="evenodd" d="M74.5474 9.00067V16.857H73.4297V0.143066H74.5474V7.99839H79.8486V0.143066H80.9919V16.857H79.8486V9.00067H74.5474Z" fill="#E04E39"/>
</svg>
