<svg width="575" height="273" viewBox="0 0 575 273" fill="none" xmlns="http://www.w3.org/2000/svg">
<rect width="575" height="273" rx="5" fill="#C39367"/>
<mask id="mask0" mask-type="alpha" maskUnits="userSpaceOnUse" x="0" y="0" width="575" height="273">
<rect width="575" height="273" rx="5" fill="#C39367"/>
</mask>
<g mask="url(#mask0)">
<path d="M344.31 69.2052C283.077 79.6662 244.703 35.2506 220.895 88.769C213.782 104.746 210.455 119.435 200.581 130.568C172.391 162.349 125.162 118.11 97.5081 144.91C79.8741 162.003 56.5526 192.082 10.4223 179.97C-13.2862 173.743 -26.913 156.141 -44.2283 135.176C-80.3716 91.4171 -125.828 103.441 -173.375 62.4418C-213.938 27.4568 -218.334 -19.6512 -189.427 -49.9851C-156.185 -84.8835 -111.314 -80.3989 -54.0801 -89.1689C-3.67412 -96.893 -1.0812 -143.173 35.6886 -183.428C61.066 -211.218 98.2808 -213.18 135.012 -200.042C183.028 -182.863 207.003 -154.68 236.801 -121.86C269.713 -85.6018 301.863 -81.6362 331.191 -72.9272C421.857 -45.9981 410.32 57.9197 344.31 69.2052Z" fill="#BE8A5A"/>
</g>
</svg>
