<svg width="99" height="104" viewBox="0 0 99 104" fill="none" xmlns="http://www.w3.org/2000/svg">
<path d="M49.4759 103.946C36.5626 103.946 23.6384 103.839 10.7251 103.999C5.78507 104.064 -0.0216062 99.0945 6.0452e-05 93.4185C0.119227 69.4616 0.0433938 45.5154 0.0542272 21.5693C0.0542272 15.9361 4.97257 11.0634 10.6492 11.0419C16.6292 11.0312 22.5984 11.0205 28.5784 11.0526C29.5968 11.0634 29.9543 10.7635 29.9218 9.7354C29.8568 7.61494 29.8893 5.49448 29.9109 3.37402C29.9218 1.33924 31.1676 0.032694 33.0959 0.000565878C35.0676 -0.0315623 36.4434 1.30711 36.4651 3.32047C36.4868 5.54803 36.4976 7.77558 36.4543 10.0031C36.4434 10.7849 36.7143 11.0419 37.5159 11.0419C45.5001 11.0205 53.4735 11.0205 61.4576 11.0526C62.3026 11.0526 62.5843 10.7742 62.5626 9.94958C62.5193 7.797 62.5301 5.6337 62.541 3.48112C62.5518 1.37137 63.8843 -0.0101435 65.8776 0.000565878C67.7951 0.0112753 69.106 1.39279 69.1168 3.44899C69.1276 5.60157 69.171 7.76487 69.106 9.91745C69.0843 10.8278 69.4201 11.0526 70.2868 11.0526C76.3751 11.0205 82.4526 11.0419 88.541 11.0312C93.8385 11.0312 98.9627 15.979 98.9735 21.1944C98.9843 43.1273 98.9843 65.0601 98.9843 86.9929C98.9843 89.2204 98.9193 91.448 98.9952 93.6755C99.1902 98.9231 93.4593 103.999 88.5626 103.967C75.5193 103.892 62.4976 103.946 49.4759 103.946ZM49.5084 42.1634C35.7609 42.1634 22.0242 42.1634 8.27674 42.1634C6.6084 42.1634 6.6084 42.1634 6.6084 43.8555C6.6084 53.5154 6.6084 63.1752 6.6084 72.8351C6.6084 79.6677 6.6084 86.4895 6.61923 93.3221C6.61923 96.0209 7.6159 97.124 10.3026 97.4131C10.7251 97.4559 11.1584 97.4559 11.5917 97.4559C36.9959 97.4559 62.4109 97.4559 87.8151 97.4559C88.4976 97.4559 89.1693 97.3917 89.841 97.2418C91.1518 96.9419 92.0077 96.1815 92.2027 94.8214C92.2893 94.2324 92.376 93.6327 92.376 93.033C92.3868 76.5512 92.3868 60.0588 92.3868 43.577C92.3868 42.1955 92.3868 42.1848 90.946 42.1848C77.1443 42.1634 63.3318 42.1634 49.5084 42.1634ZM49.4543 35.6735C57.6876 35.6735 65.9101 35.6735 74.1435 35.6735C79.831 35.6735 85.5185 35.6735 91.2168 35.6735C91.7801 35.6735 92.4085 35.802 92.4085 34.8917C92.3868 30.4045 92.4735 25.9066 92.3543 21.4193C92.2785 18.7313 91.1301 17.6068 88.5193 17.5747C82.366 17.5104 76.2126 17.564 70.0593 17.5425C69.3551 17.5425 69.1168 17.821 69.1276 18.485C69.1493 20.1878 69.1493 21.8798 69.1168 23.5826C69.0843 25.5424 67.741 26.8704 65.8235 26.8811C63.9276 26.8811 62.5735 25.521 62.5518 23.5719C62.541 21.8691 62.5301 20.177 62.5518 18.4743C62.5626 17.7996 62.3243 17.5318 61.6201 17.5318C53.5709 17.5425 45.5218 17.5425 37.4618 17.5211C36.7251 17.5211 36.4434 17.7567 36.4543 18.5064C36.4868 20.1342 36.4759 21.762 36.4651 23.3899C36.4543 25.5639 35.1976 26.8811 33.1718 26.8704C31.2001 26.8597 29.9109 25.4889 29.8893 23.347C29.8784 21.8263 29.8243 20.3056 29.9109 18.7848C29.9651 17.7996 29.6401 17.5104 28.6434 17.5211C22.9234 17.564 17.1926 17.5318 11.4726 17.5425C7.70257 17.5425 6.63007 18.6135 6.61923 22.3618C6.61923 26.3564 6.65173 30.3617 6.59757 34.3563C6.58673 35.3415 6.8359 35.6949 7.9084 35.6949C21.7534 35.6521 35.5984 35.6628 49.4543 35.6735Z" fill="#EFF4F6"/>
<path d="M31.8286 50.7424C33.1827 50.7424 34.5477 50.7638 35.9019 50.7316C36.6386 50.7102 36.9202 50.9994 36.9094 51.7276C36.8769 53.666 36.8769 55.6151 36.9094 57.5535C36.9202 58.3139 36.5952 58.5281 35.8802 58.5174C33.1611 58.496 30.4527 58.496 27.7336 58.5174C26.9536 58.5281 26.6502 58.2496 26.6719 57.4679C26.7044 55.5616 26.7044 53.6553 26.6611 51.749C26.6502 50.9458 26.9969 50.6995 27.7552 50.7209C29.1202 50.7638 30.4744 50.7424 31.8286 50.7424Z" fill="#EFF4F6"/>
<path d="M49.4218 50.7424C50.7759 50.7424 52.1409 50.7638 53.4951 50.7317C54.2209 50.721 54.5243 50.978 54.5135 51.717C54.481 53.6554 54.4918 55.6045 54.5135 57.5429C54.5243 58.1854 54.3293 58.5281 53.6034 58.5174C50.8193 58.496 48.0351 58.5067 45.2401 58.5174C44.5684 58.5174 44.2651 58.2818 44.2759 57.5857C44.2976 55.6045 44.2976 53.6339 44.2651 51.6527C44.2543 50.9673 44.5576 50.7103 45.2293 50.721C46.6376 50.7638 48.0351 50.7424 49.4218 50.7424Z" fill="#EFF4F6"/>
<path d="M67.2754 50.7424C68.6296 50.7424 69.9946 50.7638 71.3487 50.7317C72.0962 50.7103 72.3454 51.0315 72.3454 51.7384C72.3237 53.6768 72.3237 55.6259 72.3454 57.5643C72.3562 58.2282 72.0854 58.5174 71.4029 58.5174C68.6187 58.496 65.8346 58.496 63.0396 58.5174C62.3354 58.5174 62.0971 58.2175 62.1079 57.5643C62.1296 55.6259 62.1296 53.6768 62.1079 51.7384C62.0971 51.0208 62.3462 50.7103 63.1046 50.7317C64.4912 50.7745 65.8887 50.7531 67.2754 50.7424Z" fill="#EFF4F6"/>
<path d="M31.7419 73.3713C30.3877 73.3713 29.0227 73.3499 27.6685 73.382C26.9319 73.4035 26.661 73.1036 26.6719 72.3861C26.7044 70.5119 26.7044 68.6485 26.6827 66.7744C26.6719 66.1104 26.921 65.8212 27.6144 65.8212C30.3985 65.8426 33.1827 65.8426 35.9669 65.8212C36.6602 65.8212 36.9202 66.0997 36.9094 66.7637C36.8877 68.6699 36.8769 70.5762 36.8985 72.4825C36.9094 73.2 36.5627 73.3928 35.9127 73.382C34.526 73.3606 33.1285 73.3713 31.7419 73.3713Z" fill="#EFF4F6"/>
<path d="M49.3568 73.3713C48.0027 73.3713 46.6377 73.3499 45.2835 73.382C44.5468 73.4035 44.2652 73.1143 44.276 72.3861C44.3085 70.5548 44.3085 68.7127 44.2868 66.8814C44.276 66.1211 44.5251 65.7998 45.3268 65.8105C48.0352 65.8426 50.7543 65.8426 53.4735 65.8105C54.2535 65.7998 54.5568 66.0782 54.5352 66.86C54.5027 68.6592 54.481 70.4584 54.5352 72.2576C54.5568 73.1679 54.1777 73.4142 53.3327 73.382C52.0002 73.3392 50.6785 73.3713 49.3568 73.3713Z" fill="#EFF4F6"/>
<path d="M67.2317 73.3713C65.8775 73.3713 64.5125 73.3499 63.1583 73.382C62.465 73.3928 62.0967 73.2 62.1075 72.4289C62.14 70.5226 62.1292 68.6164 62.1183 66.7101C62.1183 66.089 62.3567 65.8105 62.9958 65.8105C65.8125 65.8212 68.64 65.8212 71.4567 65.8105C72.0958 65.8105 72.345 66.0782 72.345 66.6994C72.3233 68.6057 72.3125 70.5119 72.345 72.4182C72.3558 73.1786 71.9983 73.3928 71.305 73.3713C69.94 73.3499 68.5858 73.3713 67.2317 73.3713Z" fill="#EFF4F6"/>
<path d="M31.7418 88.4501C30.4202 88.4501 29.0985 88.4287 27.7768 88.4608C27.0402 88.4823 26.661 88.2574 26.6719 87.4435C26.7152 85.5693 26.6935 83.6952 26.6719 81.8317C26.661 81.157 26.921 80.8786 27.6143 80.8786C30.3985 80.9 33.1827 80.9 35.9777 80.8786C36.671 80.8786 36.9202 81.1785 36.9094 81.8424C36.8877 83.7166 36.8877 85.5907 36.9094 87.4542C36.9202 88.1717 36.671 88.4715 35.9127 88.4608C34.526 88.418 33.1285 88.4501 31.7418 88.4501Z" fill="#EFF4F6"/>
<path d="M49.4329 80.8893C50.7871 80.8893 52.152 80.9107 53.5062 80.8786C54.232 80.8679 54.5354 81.1356 54.5246 81.8746C54.4921 83.7487 54.5029 85.6228 54.5354 87.4863C54.5462 88.2359 54.2212 88.4608 53.5062 88.4608C50.787 88.4394 48.0787 88.4394 45.3595 88.4608C44.5795 88.4715 44.2762 88.1931 44.287 87.4113C44.3195 85.58 44.3304 83.738 44.287 81.9067C44.2654 81.1035 44.6012 80.8572 45.3704 80.8786C46.7137 80.9214 48.0787 80.8893 49.4329 80.8893Z" fill="#EFF4F6"/>
<path d="M67.1238 88.4501C65.7696 88.4501 64.4046 88.4287 63.0504 88.4608C62.3571 88.4715 62.0971 88.1824 62.1079 87.5184C62.1296 85.6121 62.1296 83.7059 62.1079 81.7996C62.0971 81.0928 62.4329 80.8893 63.0938 80.8893C65.8454 80.9107 68.5971 80.9107 71.3379 80.8893C72.0746 80.8786 72.3563 81.1677 72.3454 81.8853C72.3238 83.7166 72.3129 85.5586 72.3563 87.3899C72.3779 88.2466 71.9988 88.493 71.1971 88.4715C69.8429 88.4287 68.4888 88.4608 67.1238 88.4501Z" fill="#EFF4F6"/>
</svg>
