<svg width="35" height="29" viewBox="0 0 35 29" fill="none" xmlns="http://www.w3.org/2000/svg">
<path d="M17.5055 28.9855C13.1816 28.9855 8.85768 28.9951 4.53376 28.9806C1.98913 28.9758 -0.0241549 26.6199 0.000218988 24.4627C0.0440919 19.5425 0.00996853 14.6174 0.00996853 9.69231C0.00996853 7.24916 2.09637 5.18411 4.55813 5.17442C5.7037 5.16957 6.8444 5.17927 7.98997 5.16472C8.3117 5.15988 8.4482 5.26167 8.43357 5.59615C8.41407 6.05667 8.41407 6.52203 8.43357 6.98254C8.44332 7.29763 8.3117 7.39458 8.00947 7.39458C6.79077 7.38489 5.57208 7.38489 4.35339 7.39943C3.08595 7.41397 2.25724 8.20412 2.24749 9.45963C2.22799 12.3827 2.23286 15.3106 2.23286 18.2336C2.23286 20.3472 2.23286 22.4607 2.23774 24.5694C2.24261 25.9218 3.08595 26.775 4.45088 26.775C11.4267 26.7798 18.4025 26.7798 25.3831 26.7798C27.0796 26.7798 28.776 26.7847 30.4724 26.7798C31.5595 26.7798 32.3833 26.1981 32.6368 25.2577C32.7148 24.9669 32.7538 24.6712 32.7538 24.3706C32.7538 19.5473 32.7538 14.7192 32.7587 9.89591C32.7587 9.56627 32.7197 9.24634 32.6466 8.93125C32.4272 8.01022 31.657 7.41397 30.6625 7.39943C29.4438 7.38489 28.2251 7.39458 27.0064 7.39458C26.5092 7.39458 26.4995 7.38489 26.4995 6.89529C26.4995 6.43477 26.5092 5.96941 26.4995 5.5089C26.4946 5.26652 26.597 5.17442 26.8358 5.17927C28.1423 5.18411 29.4536 5.13564 30.7551 5.19381C32.7977 5.27622 34.7671 7.20553 34.9231 9.23179C35.0596 10.9672 34.9718 12.7026 34.9767 14.4429C34.9962 17.6907 34.9767 20.9434 34.9767 24.1913C34.9767 26.9543 32.9195 29 30.1409 29C25.9242 28.9903 21.7124 28.9903 17.5055 28.9855Z" fill="#EFF4F6"/>
<path d="M16.3794 2.89123C16.3794 2.29014 16.3746 1.6939 16.3794 1.0928C16.3892 0.501406 16.8279 0.0360436 17.4031 0.00211098C17.9637 -0.0318217 18.4707 0.346285 18.5438 0.92314C18.6657 1.89265 18.5682 2.87185 18.5975 3.84135C18.6072 4.1419 18.6121 4.44244 18.5926 4.74299C18.5731 5.06777 18.6901 5.18411 19.0264 5.17927C20.2305 5.16472 21.4395 5.16957 22.6435 5.17442C23.2529 5.17927 23.7208 5.59615 23.7793 6.16331C23.8378 6.72078 23.4479 7.22492 22.858 7.3558C22.7264 7.38489 22.585 7.38974 22.4485 7.38974C21.342 7.38974 20.2354 7.38974 19.1337 7.38974C18.6072 7.38974 18.6023 7.38974 18.6072 7.90357C18.6121 8.98942 18.6121 10.0753 18.6121 11.166C18.6121 11.5441 18.5682 11.9222 18.2709 12.2033C17.9345 12.5233 17.5494 12.6493 17.096 12.4796C16.6622 12.3148 16.3941 11.9416 16.3892 11.4762C16.3843 10.2789 16.3746 9.07668 16.3941 7.87934C16.3989 7.50608 16.3014 7.37519 15.9115 7.38489C14.7318 7.40913 13.5472 7.39943 12.3675 7.38974C11.7192 7.38489 11.2317 6.968 11.1829 6.41054C11.1244 5.71249 11.5827 5.19381 12.2944 5.18411C13.4985 5.16957 14.7074 5.17927 15.9115 5.17927C16.3843 5.17927 16.3843 5.17927 16.3843 4.69936C16.3794 4.08857 16.3794 3.49233 16.3794 2.89123Z" fill="#EFF4F6"/>
<path d="M6.86874 20.7447C6.17652 20.7447 5.48918 20.735 4.79696 20.7495C4.52397 20.7544 4.40698 20.6526 4.41185 20.3811C4.4216 19.8818 4.41673 19.3825 4.41673 18.8832C4.41673 18.636 4.52397 18.5245 4.78234 18.5293C6.20089 18.5342 7.61945 18.5342 9.03801 18.5293C9.29637 18.5293 9.40362 18.6311 9.40362 18.8832C9.39874 19.3825 9.39874 19.8818 9.40362 20.3811C9.40849 20.6526 9.28662 20.7592 9.01364 20.7544C8.29704 20.7398 7.58045 20.7447 6.86874 20.7447Z" fill="#EFF4F6"/>
<path d="M13.9957 20.7447C13.3181 20.7447 12.6356 20.735 11.958 20.7495C11.646 20.7544 11.5339 20.638 11.5485 20.3326C11.568 19.8479 11.5583 19.3583 11.5534 18.8687C11.5485 18.6311 11.6363 18.5245 11.8849 18.5293C13.3034 18.5342 14.7269 18.5342 16.1454 18.5293C16.4038 18.5293 16.5062 18.636 16.5013 18.8881C16.4915 19.3874 16.4915 19.8867 16.5013 20.3859C16.5062 20.672 16.3745 20.7495 16.1113 20.7447C15.4045 20.735 14.7025 20.7447 13.9957 20.7447Z" fill="#EFF4F6"/>
<path d="M21.108 20.7447C20.4304 20.7447 19.7528 20.7301 19.0752 20.7495C18.7389 20.7592 18.6316 20.6283 18.6463 20.3084C18.6658 19.8333 18.6609 19.3583 18.6511 18.8881C18.6463 18.6408 18.734 18.5245 18.9972 18.5245C20.4158 18.5293 21.8344 18.5293 23.248 18.5245C23.5113 18.5245 23.6039 18.636 23.599 18.8881C23.5893 19.3874 23.5844 19.8867 23.599 20.386C23.6088 20.6671 23.4772 20.7544 23.2139 20.7495C22.512 20.735 21.81 20.7447 21.108 20.7447Z" fill="#EFF4F6"/>
<path d="M28.2106 20.7447C27.533 20.7447 26.8554 20.7301 26.1729 20.7495C25.8365 20.7592 25.7293 20.6283 25.7439 20.3084C25.7634 19.8333 25.7537 19.3583 25.7488 18.8832C25.7439 18.6311 25.8512 18.5245 26.1095 18.5245C27.5281 18.5293 28.9515 18.5293 30.3701 18.5293C30.6187 18.5293 30.6967 18.6408 30.6918 18.8735C30.6821 19.3728 30.6772 19.8721 30.6918 20.3714C30.7016 20.6477 30.5943 20.7495 30.3165 20.7447C29.6194 20.735 28.9174 20.7447 28.2106 20.7447Z" fill="#EFF4F6"/>
</svg>
