<svg width="409" height="305" viewBox="0 0 409 305" fill="none" xmlns="http://www.w3.org/2000/svg">
<path d="M200.704 273.608H165.375V273.813H200.704V273.608Z" fill="#EBEBEB"/>
<path d="M213.162 273.608H207.984V273.813H213.162V273.608Z" fill="#EBEBEB"/>
<path d="M117.236 17.6074H54.4302V127.817H117.236V17.6074Z" fill="#E7ECEF"/>
<path d="M114.455 15.3398H51.9268V44.6276H114.455V15.3398Z" fill="#D1D9DD"/>
<path d="M114.455 46.3467H51.9268V81.0532H114.455V46.3467Z" fill="#DDE3E7"/>
<path d="M114.455 82.7881H51.9268V117.495H114.455V82.7881Z" fill="#DDE3E7"/>
<path d="M115.183 63.1836H51.1987V70.5505H115.183V63.1836Z" fill="white"/>
<path d="M168.934 85.7656L365.623 85.7656V15.3457L168.934 15.3457V85.7656Z" fill="#D1D9DD"/>
<path d="M164.823 85.7656L363.703 85.7656V15.3457L164.823 15.3457V85.7656Z" fill="#E7ECEF"/>
<path d="M168.934 89.585L365.623 89.585V85.7705L168.934 85.7705V89.585Z" fill="#D1D9DD"/>
<path d="M157.986 89.585L356.867 89.585V85.7705L157.986 85.7705V89.585Z" fill="#E7ECEF"/>
<path d="M357.958 80.0107V21.0996L170.578 21.0996V80.0107L357.958 80.0107Z" fill="#FAFCFE"/>
<path d="M193.114 80.014L215.552 21.0947H231.478L209.048 80.014H193.114Z" fill="white"/>
<path d="M303.331 80.014L325.769 21.0947H341.695L319.265 80.014H303.331Z" fill="white"/>
<path d="M212.468 80.014L234.906 21.0947H241.114L218.676 80.014H212.468Z" fill="white"/>
<path d="M171.307 80.0097V21.0986H170.579V80.0097H171.307Z" fill="#E6E6E6"/>
<path opacity="0.6" d="M164.998 25.001H360.47L360.998 23.001H165.518L164.998 25.001Z" fill="#E7ECEF"/>
<path opacity="0.6" d="M164.998 29.001H360.47L360.998 27.001H165.518L164.998 29.001Z" fill="#E7ECEF"/>
<path opacity="0.6" d="M164.998 32.001H360.47L360.998 30.001H165.518L164.998 32.001Z" fill="#E7ECEF"/>
<path opacity="0.6" d="M164.998 36.001H360.47L360.998 34.001H165.518L164.998 36.001Z" fill="#E7ECEF"/>
<path opacity="0.6" d="M164.998 39.001H360.47L360.998 37.001H165.518L164.998 39.001Z" fill="#E7ECEF"/>
<path opacity="0.6" d="M164.998 43.001H360.47L360.998 41.001H165.518L164.998 43.001Z" fill="#E7ECEF"/>
<path d="M37.5053 150.442C37.628 150.238 37.8406 150.099 38.0779 150.082C41.5216 149.804 45.9716 152.677 48.6219 154.691C47.9184 153.07 47.1986 151.605 46.4624 150.385C46.4378 150.344 46.4297 150.295 46.4133 150.254C46.4051 150.23 46.3806 150.213 46.3806 150.189C46.3315 149.992 45.2354 145.285 48.8346 142.306C49.0145 142.159 49.2599 142.101 49.4808 142.159C49.7098 142.216 49.898 142.371 49.988 142.592C51.1086 145.269 50.2824 148.355 48.0493 150.205C49.5217 152.808 50.945 156.189 52.262 160.044C52.6873 156.753 53.6935 152.039 56.082 149.853C56.2538 149.689 56.4992 149.624 56.7283 149.673H56.7364C56.9737 149.722 57.17 149.886 57.26 150.107C59.2804 154.928 57.3827 157.711 55.3704 160.666C54.716 161.632 54.037 162.631 53.4563 163.744C54.3315 166.617 55.1659 169.67 55.9266 172.797C56.5074 168.123 57.9226 161.288 61.3254 158.153C61.5054 157.989 61.7508 157.916 61.9798 157.973C62.217 158.022 62.4134 158.186 62.5034 158.407C65.3336 165.16 62.6588 169.081 59.8285 173.231C58.8796 174.622 57.898 176.071 57.0555 177.692C58.0125 182.087 58.8469 186.516 59.5013 190.699C60.2866 184.306 62.1271 175.015 66.3561 171.266C66.5361 171.103 66.7978 171.029 67.0187 171.103C67.2559 171.16 67.4441 171.324 67.534 171.545C71.0187 180.27 67.1087 186.499 63.3377 192.532C62.3561 194.104 61.3418 195.725 60.4502 197.386C60.8428 200.587 61.1127 203.517 61.2273 205.997C61.2436 206.407 60.9328 206.75 60.5238 206.767C60.4583 206.767 60.4011 206.767 60.3356 206.75C60.0166 206.685 59.7631 206.407 59.7467 206.063C59.5095 201.086 58.6669 194.341 57.3909 187.179C55.215 185.615 52.9409 184.625 50.7323 183.667C45.718 181.498 40.9818 179.452 40.4092 171.119C40.3928 170.882 40.491 170.644 40.6791 170.497C40.8672 170.341 41.1127 170.292 41.3417 170.358C47.4522 172.093 53.6362 179.444 56.7119 183.561C56.0166 179.959 55.2232 176.317 54.3479 172.772C52.9 171.766 51.4276 170.955 49.9961 170.169C45.5298 167.73 41.3172 165.422 40.6873 158.055C40.6628 157.817 40.7609 157.58 40.9491 157.425C41.129 157.269 41.3744 157.212 41.6116 157.277C46.037 158.448 50.3642 163.801 53.0309 167.714C52.0248 164.096 50.9532 160.707 49.8243 157.711C48.7119 157.416 47.6157 157.228 46.5524 157.056C45.8734 156.95 45.2026 156.835 44.5482 156.704C41.7507 156.123 39.2067 155.018 37.448 151.13C37.3662 150.901 37.3826 150.647 37.5053 150.442Z" fill="#DEE2E4"/>
<path d="M112.172 143.853C111.976 143.542 111.641 143.345 111.273 143.329C105.972 143.067 99.2726 147.7 95.2889 150.917C96.2951 148.387 97.3339 146.112 98.3973 144.188C98.4382 144.123 98.4382 144.049 98.4628 143.975C98.4791 143.934 98.5037 143.91 98.5118 143.869C98.5773 143.558 100.042 136.281 94.3646 131.869C94.0783 131.648 93.702 131.574 93.3666 131.673C93.0231 131.771 92.7368 132.025 92.6141 132.36C91.019 136.527 92.4423 141.225 95.9597 143.959C93.8165 148.035 91.8042 153.29 89.9637 159.282C89.1539 154.248 87.3789 147.053 83.5997 143.795C83.3216 143.558 82.9453 143.468 82.5936 143.55H82.5854C82.2255 143.64 81.931 143.902 81.8001 144.246C78.9207 151.752 81.9801 155.943 85.2193 160.379C86.2746 161.828 87.3625 163.334 88.3032 165.02C87.0926 169.481 85.9637 174.213 84.9412 179.058C83.8206 171.904 81.3257 161.468 75.935 156.818C75.6569 156.573 75.2725 156.475 74.9207 156.581C74.5608 156.671 74.2745 156.933 74.1354 157.277C70.1109 167.795 74.4136 173.689 78.9698 179.934C80.4995 182.03 82.0782 184.207 83.4443 186.655C82.1846 193.449 81.1212 200.3 80.3113 206.766C78.798 196.977 75.5179 182.783 68.843 177.233C68.5567 176.996 68.1477 176.889 67.8205 177.012C67.4606 177.11 67.1743 177.372 67.0516 177.724C62.119 191.304 68.4258 200.693 74.5199 209.77C76.1068 212.136 77.7428 214.584 79.1907 217.096C78.7408 222.032 78.4708 226.551 78.4054 230.365C78.3972 230.995 78.8962 231.511 79.5179 231.519C79.616 231.519 79.7142 231.511 79.8042 231.487C80.295 231.372 80.6631 230.93 80.6713 230.398C80.8021 222.736 81.7674 212.333 83.3707 201.258C86.6345 198.753 90.0864 197.116 93.4321 195.544C101.031 191.967 108.213 188.586 108.688 175.752C108.704 175.383 108.532 175.031 108.238 174.802C107.943 174.581 107.567 174.507 107.207 174.622C97.8983 177.585 88.7449 189.184 84.2296 195.659C85.1294 190.093 86.1682 184.445 87.338 178.968C89.5057 177.348 91.7388 176.03 93.8983 174.753C100.639 170.783 107.003 167.042 107.624 155.681C107.641 155.312 107.485 154.952 107.191 154.723C106.905 154.494 106.528 154.412 106.16 154.526C99.4198 156.54 93.0231 164.979 89.1212 171.127C90.4873 165.52 91.976 160.248 93.5711 155.599C95.2726 155.091 96.9495 154.756 98.5773 154.436C99.6161 154.232 100.639 154.035 101.637 153.79C105.907 152.758 109.759 150.941 112.279 144.876C112.41 144.557 112.377 144.164 112.172 143.853Z" fill="#E7ECEF"/>
<path d="M100.336 193.383H49.3748C47.1089 193.383 45.3911 195.044 45.2929 197.148C44.2541 220.641 48.0987 244.583 55.2562 268.026H94.283C101.44 244.583 105.285 220.641 104.246 197.148C104.164 195.053 102.447 193.383 100.336 193.383Z" fill="#E1E7EA"/>
<path d="M171.043 268.031H177.415V154.392H171.043V268.031Z" fill="#E6E6E6"/>
<path d="M169.033 268.031H173.459V154.392H169.033V268.031Z" fill="#F0F0F0"/>
<path d="M309.94 154.387H169.031V162.22H309.94V154.387Z" fill="#E7ECEF"/>
<path d="M307.759 268.033H314.131V162.227H307.759V268.033Z" fill="#D1D9DD"/>
<path d="M305.748 268.033H310.174V162.227H305.748V268.033Z" fill="#E7ECEF"/>
<path d="M353.129 268.033H359.501V162.227H353.129V268.033Z" fill="#D1D9DD"/>
<path d="M351.118 268.033H355.544V162.227H351.118V268.033Z" fill="#E7ECEF"/>
<path d="M211.376 268.033H217.748V162.227H211.376V268.033Z" fill="#E6E6E6"/>
<path d="M209.366 268.033H213.791V162.227H209.366V268.033Z" fill="#F0F0F0"/>
<path d="M309.945 162.226H359.5V154.392H309.945V162.226Z" fill="#D1D9DD"/>
<path d="M204.5 305C292.094 305 363.102 300.851 363.102 295.734C363.102 290.616 292.094 286.468 204.5 286.468C116.907 286.468 45.8982 290.616 45.8982 295.734C45.8982 300.851 116.907 305 204.5 305Z" fill="#D1D9DD"/>
<path d="M173.612 165.273H146.995L169.743 193.382H196.353L173.612 165.273Z" fill="#D1D9DD"/>
<path opacity="0.3" d="M150.291 165.273H173.612L196.353 193.382H173.04L150.291 165.273Z" fill="black"/>
<path d="M292.386 294.162C294.545 294.162 296.296 292.41 296.296 290.25C296.296 288.089 294.545 286.337 292.386 286.337C290.226 286.337 288.476 288.089 288.476 290.25C288.476 292.41 290.226 294.162 292.386 294.162Z" fill="#263238"/>
<path d="M271.724 294.162C273.883 294.162 275.634 292.41 275.634 290.25C275.634 288.089 273.883 286.337 271.724 286.337C269.564 286.337 267.813 288.089 267.813 290.25C267.813 292.41 269.564 294.162 271.724 294.162Z" fill="#263238"/>
<path d="M200.263 294.162C202.422 294.162 204.173 292.41 204.173 290.25C204.173 288.089 202.422 286.337 200.263 286.337C198.103 286.337 196.353 288.089 196.353 290.25C196.353 292.41 198.103 294.162 200.263 294.162Z" fill="#263238"/>
<path d="M179.6 294.162C181.76 294.162 183.511 292.41 183.511 290.25C183.511 288.089 181.76 286.337 179.6 286.337C177.441 286.337 175.69 288.089 175.69 290.25C175.69 292.41 177.441 294.162 179.6 294.162Z" fill="#263238"/>
<path d="M298.938 125.442H173.04V290.257H298.938V125.442Z" fill="#738D9A"/>
<path opacity="0.3" d="M298.938 234.016H173.04V234.867H298.938V234.016Z" fill="black"/>
<path opacity="0.3" d="M265.163 211.382H173.04V212.233H265.163V211.382Z" fill="black"/>
<path opacity="0.3" d="M265.163 256.648H173.04V257.5H265.163V256.648Z" fill="black"/>
<path d="M173.04 125.442H288.934V111.216H187.6C185.089 111.216 183.052 113.254 183.052 115.767V120.105L173.04 125.442Z" fill="#738D9A"/>
<path opacity="0.3" d="M174.635 124.591L173.04 125.442H265.163V124.591H174.635Z" fill="black"/>
<path opacity="0.3" d="M219.952 111.208V112.992L209.948 118.329H288.934V111.208H219.952Z" fill="black"/>
<path d="M182.48 152.413V186.105C182.48 188.241 184.214 189.977 186.349 189.977H258.513C260.648 189.977 262.382 188.241 262.382 186.105V180.645H285.073C287.208 180.645 288.942 178.91 288.942 176.773V153.559L265.171 148.55H186.357C184.214 148.542 182.48 150.277 182.48 152.413Z" fill="#263238"/>
<path opacity="0.3" d="M265.163 148.542H191.977C191.977 157.407 199.159 164.586 208.01 164.586H265.163L270.03 167.868C278.079 173.303 288.934 167.532 288.934 157.808V153.543L265.163 148.542Z" fill="black"/>
<path opacity="0.3" d="M265.168 290.251H298.943V125.436H265.168V290.251Z" fill="black"/>
<path opacity="0.7" d="M226.218 135.003H193.973C193.138 135.003 192.688 134.495 192.967 133.873L200.427 117.019C200.705 116.397 201.605 115.89 202.431 115.89H234.676C235.511 115.89 235.961 116.397 235.683 117.019L228.222 133.873C227.952 134.495 227.053 135.003 226.218 135.003Z" fill="#263238"/>
<path d="M225.196 135.003H192.95C192.116 135.003 191.666 134.495 191.944 133.873L199.404 117.019C199.682 116.397 200.582 115.89 201.408 115.89H233.654C234.488 115.89 234.938 116.397 234.66 117.019L227.2 133.873C226.922 134.495 226.03 135.003 225.196 135.003Z" fill="#263238"/>
<path opacity="0.1" d="M223.903 133.161H195.87C195.322 133.161 195.019 132.825 195.208 132.416L201.383 118.46C201.563 118.05 202.161 117.715 202.709 117.715H230.741C231.29 117.715 231.592 118.05 231.404 118.46L225.228 132.416C225.048 132.833 224.451 133.161 223.903 133.161Z" fill="white"/>
<path d="M207.151 124.615H201.834C201.49 124.615 201.31 124.411 201.425 124.149L203.192 120.154C203.306 119.9 203.674 119.688 204.018 119.688H209.335C209.678 119.688 209.858 119.892 209.744 120.154L207.977 124.149C207.862 124.402 207.494 124.615 207.151 124.615Z" fill="#E04E39"/>
<path d="M216.32 124.615H211.003C210.66 124.615 210.48 124.411 210.594 124.149L212.361 120.154C212.476 119.9 212.844 119.688 213.187 119.688H218.504C218.848 119.688 219.028 119.892 218.913 120.154L217.146 124.149C217.032 124.402 216.664 124.615 216.32 124.615Z" fill="#E04E39"/>
<path d="M225.482 124.615H220.165C219.822 124.615 219.642 124.411 219.756 124.149L221.523 120.154C221.638 119.9 222.006 119.688 222.349 119.688H227.666C228.01 119.688 228.19 119.892 228.075 120.154L226.308 124.149C226.194 124.402 225.826 124.615 225.482 124.615Z" fill="white"/>
<path d="M204.222 131.229H198.905C198.561 131.229 198.381 131.025 198.496 130.763L200.263 126.768C200.377 126.515 200.745 126.302 201.089 126.302H206.406C206.749 126.302 206.929 126.506 206.815 126.768L205.048 130.763C204.934 131.025 204.565 131.229 204.222 131.229Z" fill="white"/>
<path d="M213.392 131.229H208.075C207.732 131.229 207.552 131.025 207.666 130.763L209.433 126.768C209.548 126.515 209.916 126.302 210.259 126.302H215.576C215.92 126.302 216.1 126.506 215.985 126.768L214.218 130.763C214.104 131.025 213.736 131.229 213.392 131.229Z" fill="#E04E39"/>
<path d="M222.554 131.229H217.237C216.893 131.229 216.713 131.025 216.828 130.763L218.595 126.768C218.709 126.515 219.077 126.302 219.421 126.302H224.738C225.081 126.302 225.261 126.506 225.147 126.768L223.38 130.763C223.266 131.025 222.897 131.229 222.554 131.229Z" fill="#E04E39"/>
<path opacity="0.3" d="M265.163 125.442V124.002C265.163 122.389 266.472 121.088 268.075 121.088H274.717V118.329L278.414 114.629H287.257L288.934 111.216V125.442H265.163Z" fill="black"/>
<path opacity="0.3" d="M229.564 221.77H208.639C208.018 221.77 207.502 221.254 207.502 220.632C207.502 220.01 208.018 219.494 208.639 219.494H229.564C230.186 219.494 230.701 220.01 230.701 220.632C230.701 221.262 230.194 221.77 229.564 221.77Z" fill="black"/>
<path opacity="0.3" d="M229.564 244.403H208.639C208.018 244.403 207.502 243.887 207.502 243.265C207.502 242.643 208.018 242.127 208.639 242.127H229.564C230.186 242.127 230.701 242.643 230.701 243.265C230.701 243.887 230.194 244.403 229.564 244.403Z" fill="black"/>
<path opacity="0.3" d="M219.101 276.997H218.251V290.249H219.101V276.997Z" fill="black"/>
<path opacity="0.3" d="M219.101 267.231H173.04V268.083H218.251V273.886H219.101V267.231Z" fill="black"/>
<path opacity="0.3" d="M233.416 273.887H219.11H218.259H204.803C203.944 273.887 203.249 274.591 203.249 275.442C203.249 276.301 203.952 276.997 204.803 276.997H218.259H219.11H233.416C234.275 276.997 234.971 276.293 234.971 275.442C234.971 274.591 234.267 273.887 233.416 273.887Z" fill="black"/>
<path d="M136.303 92.1524L136.181 92.6353L136.042 93.241C135.952 93.6585 135.854 94.0759 135.78 94.5098C135.616 95.3693 135.494 96.2451 135.379 97.1291C135.142 98.8972 135.011 100.706 134.97 102.523C134.929 104.341 134.954 106.166 135.068 107.991C135.134 108.908 135.175 109.825 135.289 110.733L135.404 111.912C135.404 111.953 135.355 111.896 135.33 111.888C135.248 111.855 135.485 112.141 136.066 112.321C136.622 112.518 137.391 112.641 138.201 112.698C139.837 112.829 141.653 112.714 143.477 112.534C147.126 112.125 150.921 111.413 154.586 110.586L155.796 114.04C152.107 115.669 148.385 116.995 144.385 117.912C142.381 118.371 140.328 118.706 138.079 118.78C136.95 118.796 135.764 118.739 134.447 118.436C133.784 118.28 133.089 118.059 132.361 117.683C131.633 117.315 130.872 116.766 130.234 115.997C129.588 115.235 129.138 114.27 128.925 113.369C128.802 112.821 128.794 112.706 128.737 112.42L128.606 111.667C128.418 110.66 128.263 109.645 128.14 108.63C127.903 106.592 127.723 104.537 127.723 102.466C127.706 100.395 127.78 98.316 128.009 96.2369C128.14 95.1974 128.287 94.1578 128.5 93.1019C128.598 92.578 128.712 92.0459 128.835 91.5221L129.048 90.7117C129.13 90.4252 129.195 90.196 129.326 89.7949L136.303 92.1524Z" fill="#FFC3BD"/>
<path d="M164.852 129.634C157.645 128.66 150.447 127.694 143.24 126.72C148.066 115.76 153.244 104.857 158.758 94.0107C165.752 95.4268 173.367 96.229 180.361 97.6451C175.077 108.049 169.482 119.132 164.852 129.634Z" fill="#E04E39"/>
<path opacity="0.7" d="M164.852 129.634C157.645 128.66 150.447 127.694 143.24 126.72C148.066 115.76 153.244 104.857 158.758 94.0107C165.752 95.4268 173.367 96.229 180.361 97.6451C175.077 108.049 169.482 119.132 164.852 129.634Z" fill="white"/>
<path d="M184.819 98.7174C179.461 109.269 174.234 119.942 169.523 130.592C167.829 130.191 165.719 129.757 164.86 129.634C169.49 119.124 175.085 108.049 180.369 97.6533C181.539 97.9562 183.404 98.3327 184.819 98.7174Z" fill="#E04E39"/>
<path opacity="0.3" d="M184.819 98.7174C179.461 109.269 174.234 119.942 169.523 130.592C167.829 130.191 165.719 129.757 164.86 129.634C169.49 119.124 175.085 108.049 180.369 97.6533C181.539 97.9562 183.404 98.3327 184.819 98.7174Z" fill="white"/>
<path d="M141.391 288.801C140.72 288.801 139.992 288.661 139.485 288.539C139.42 288.522 139.371 288.465 139.354 288.4C139.346 288.334 139.371 288.26 139.428 288.228C139.673 288.064 141.874 286.648 142.708 287.024C142.839 287.082 143.011 287.221 143.052 287.507C143.109 287.892 143.011 288.195 142.765 288.416C142.463 288.702 141.947 288.801 141.391 288.801ZM139.968 288.301C141.228 288.555 142.176 288.506 142.536 288.179C142.692 288.039 142.749 287.835 142.708 287.573C142.692 287.425 142.618 287.385 142.569 287.352C142.127 287.139 140.859 287.753 139.968 288.301Z" fill="#263238"/>
<path d="M139.527 288.547C139.494 288.547 139.469 288.539 139.437 288.522C139.387 288.49 139.355 288.432 139.355 288.375C139.355 288.285 139.363 286.206 140.148 285.51C140.361 285.322 140.598 285.248 140.876 285.281C141.302 285.33 141.424 285.6 141.449 285.756C141.612 286.574 140.295 288.13 139.608 288.522C139.584 288.539 139.551 288.547 139.527 288.547ZM140.754 285.617C140.614 285.617 140.492 285.666 140.377 285.764C139.911 286.181 139.747 287.352 139.706 288.04C140.394 287.491 141.212 286.321 141.113 285.821C141.097 285.739 141.048 285.641 140.835 285.617C140.803 285.617 140.778 285.617 140.754 285.617Z" fill="#263238"/>
<path d="M186.627 286.034C186.569 286.025 186.512 285.993 186.488 285.944C186.455 285.878 186.463 285.796 186.52 285.747C186.766 285.485 188.942 283.267 189.964 283.332C189.989 283.332 190.005 283.341 190.03 283.341C190.226 283.373 190.365 283.496 190.447 283.676C190.586 283.987 190.578 284.29 190.422 284.568C189.907 285.485 187.846 285.878 186.668 286.034C186.643 286.034 186.635 286.034 186.627 286.034ZM189.923 283.676C189.359 283.635 188.042 284.724 187.118 285.624C188.721 285.362 189.825 284.92 190.12 284.405C190.218 284.225 190.226 284.036 190.128 283.824C190.095 283.742 190.038 283.701 189.964 283.684C189.948 283.676 189.94 283.676 189.923 283.676Z" fill="#263238"/>
<path d="M186.626 286.035C186.61 286.035 186.602 286.035 186.586 286.026C186.528 286.01 186.479 285.961 186.471 285.904C186.455 285.822 185.988 283.923 186.61 282.916C186.798 282.605 187.068 282.408 187.412 282.335C187.878 282.228 188.082 282.417 188.172 282.588C188.557 283.325 187.444 285.347 186.749 285.994C186.716 286.026 186.667 286.043 186.626 286.035ZM187.69 282.654C187.641 282.654 187.575 282.654 187.485 282.678C187.232 282.736 187.035 282.875 186.896 283.104C186.487 283.767 186.635 284.946 186.733 285.511C187.395 284.725 188.099 283.194 187.87 282.752C187.862 282.728 187.821 282.662 187.69 282.654Z" fill="#263238"/>
<path d="M140.041 63.5195C140.884 67.8087 142.774 77.1729 139.771 80.0379C139.771 80.0379 140.941 84.3926 148.917 84.3926C157.678 84.3926 153.105 80.0379 153.105 80.0379C148.32 78.8919 148.442 75.3476 149.277 72.0079L140.041 63.5195Z" fill="#FFC3BD"/>
<path d="M136.966 81.2573C136.966 81.2573 136.197 79.7102 135.878 78.2532C135.559 76.7962 147.51 76.567 151.469 77.2546C155.42 77.934 156.696 82.0758 156.696 82.0758L136.966 81.2573Z" fill="#263238"/>
<path d="M159.207 62.5293C159.207 62.5293 159.665 65.1896 160.492 66.5975C159.592 67.1459 158.381 66.5566 158.381 66.5566L159.207 62.5293Z" fill="#ED847E"/>
<path d="M160.811 56.1611V56.5704C161.105 56.5704 161.367 56.7096 161.588 56.9715C162.169 57.6509 162.39 59.0506 162.152 60.5322C161.76 62.9715 160.418 64.6086 159.396 64.6086C159.101 64.6086 158.84 64.4694 158.619 64.2075C158.038 63.5281 157.817 62.1284 158.054 60.6468C158.447 58.2075 159.788 56.5704 160.803 56.5704L160.811 56.1611ZM160.811 56.1611C159.461 56.1611 158.046 58.142 157.653 60.5813C157.261 63.0288 158.046 65.0097 159.396 65.0178C160.745 65.0178 162.161 63.0369 162.553 60.5977C162.946 58.1502 162.169 56.1611 160.811 56.1611Z" fill="#407BFF"/>
<path d="M157.939 58.1337C157.89 58.1173 157.841 58.0928 157.808 58.0518C157.677 57.9209 157.677 57.6999 157.808 57.5689C159.158 56.2347 160.704 56.5539 160.77 56.5703C160.958 56.6112 161.072 56.7913 161.031 56.9795C160.99 57.1678 160.81 57.2824 160.622 57.2415C160.573 57.2333 159.363 56.9959 158.283 58.06C158.193 58.1501 158.062 58.1746 157.939 58.1337Z" fill="#263238"/>
<path d="M158.904 61.4409C158.79 62.0139 158.994 62.5378 159.362 62.6114C159.739 62.6851 160.131 62.2922 160.254 61.7192C160.369 61.1462 160.164 60.6224 159.796 60.5487C159.42 60.4668 159.019 60.8679 158.904 61.4409Z" fill="#263238"/>
<path d="M159.617 60.5404L161.073 60.4258C161.073 60.434 160.148 61.3589 159.617 60.5404Z" fill="#263238"/>
<path d="M178.733 288.326L185.768 286.697L182.471 270.269L175.428 271.897L178.733 288.326Z" fill="#FFC3BD"/>
<path d="M131.117 288.375H138.348L137.775 271.628H130.552L131.117 288.375Z" fill="#FFC3BD"/>
<path d="M138.921 287.54H130.798C130.504 287.54 130.266 287.745 130.217 288.031L129.293 294.457C129.195 295.12 129.767 295.758 130.455 295.742C133.285 295.693 134.651 295.529 138.217 295.529C140.418 295.529 143.624 295.758 146.659 295.758C149.628 295.758 149.858 292.754 148.59 292.484C142.929 291.264 142.029 289.586 140.123 287.982C139.78 287.696 139.346 287.54 138.921 287.54Z" fill="#263238"/>
<path d="M185.923 285.224L178.226 287.819C177.948 287.917 177.784 288.187 177.833 288.474L179.003 294.858C179.126 295.521 179.87 295.939 180.508 295.709C183.175 294.76 184.418 294.162 187.796 293.025C189.882 292.321 194.259 291.085 197.13 290.119C199.944 289.169 199.199 286.255 197.915 286.403C192.156 287.057 189.506 286.173 187.191 285.265C186.79 285.093 186.332 285.085 185.923 285.224Z" fill="#263238"/>
<path opacity="0.2" d="M182.471 270.269L184.238 279.068L177.13 280.369L175.42 271.897L182.471 270.269Z" fill="black"/>
<path opacity="0.2" d="M130.545 271.627H137.776L138.07 280.263H130.839L130.545 271.627Z" fill="black"/>
<path d="M129.923 82.2148C127.207 83.6636 127.052 94.9351 127.052 94.9351L137.669 101.328C137.669 101.328 141.702 89.6472 139.305 86.4385C136.81 83.107 133.121 80.504 129.923 82.2148Z" fill="#E04E39"/>
<path d="M165.318 81.8958C165.318 81.8958 168.762 83.1073 161.866 125.549H132.508C132.966 114.458 133.007 107.304 128.451 86.7253C127.829 83.9258 129.702 81.1755 132.541 80.7662C134.651 80.4552 137.203 80.1605 139.772 80.0377C144.713 79.8003 148.762 79.6448 153.105 80.0377C158.823 80.5616 165.318 81.8958 165.318 81.8958Z" fill="#E04E39"/>
<path opacity="0.4" d="M165.58 98.1847C165.392 100.247 165.138 102.572 164.811 105.2C162.406 103.031 160.443 96.8669 161.162 93.2734C162.848 94.5258 164.394 96.4576 165.58 98.1847Z" fill="black"/>
<path d="M169.301 88.9932C170.782 92.4802 172.377 96.0409 173.997 99.4952C174.823 101.222 175.673 102.933 176.557 104.603C177.424 106.281 178.357 107.91 179.322 109.441C179.796 110.226 180.303 110.93 180.811 111.634C181.17 112.142 181.629 112.592 182.201 113.042C183.354 113.934 184.892 114.663 186.545 115.26C189.866 116.406 193.694 117.086 197.375 117.454L197.547 121.113C193.391 121.67 189.31 121.678 185.031 120.818C182.905 120.36 180.729 119.664 178.61 118.371C177.555 117.732 176.516 116.881 175.641 115.858C174.945 115.015 174.25 114.164 173.653 113.304C171.191 109.866 169.252 106.33 167.42 102.737C165.588 99.135 163.952 95.5334 162.455 91.7517L169.301 88.9932Z" fill="#FFC3BD"/>
<path d="M165.318 81.8956C168.909 82.7714 173.334 92.6431 173.334 92.6431L165.874 103.604C165.874 103.604 155.944 91.0961 157.13 87.2735C158.357 83.2953 160.958 80.8315 165.318 81.8956Z" fill="#E04E39"/>
<path d="M196.009 121.211L200.696 121.432L198.741 116.251C198.741 116.251 196.402 116.677 193.948 118.51L196.009 121.211Z" fill="#FFC3BD"/>
<path d="M204.173 121.236L202.569 117.34L198.741 116.251L200.696 121.432L204.173 121.236Z" fill="#FFC3BD"/>
<path d="M140.107 55.5056C139.085 62.6107 138.504 65.5984 141.302 69.9285C145.506 76.4442 154.455 76.1495 157.572 69.4865C160.377 63.4947 161.58 52.8781 155.289 48.6707C149.105 44.5207 141.13 48.4006 140.107 55.5056Z" fill="#FFC3BD"/>
<path d="M137.064 54.1065C134.774 58.5922 136.892 65.6808 141.293 71.5826C142.823 71.2224 144.524 71.2552 145.956 71.4107C148.713 71.7054 151.461 70.6085 153.269 68.5048C155.126 66.3439 156.524 63.4871 154.512 60.8105C156.966 57.2007 158.52 56.8814 158.381 54.7859C151.649 51.4299 138.79 50.7259 137.064 54.1065Z" fill="#263238"/>
<path opacity="0.2" d="M137.064 54.1065C134.774 58.5922 136.892 65.6808 141.293 71.5826C142.823 71.2224 144.524 71.2552 145.956 71.4107C148.713 71.7054 151.461 70.6085 153.269 68.5048C155.126 66.3439 156.524 63.4871 154.512 60.8105C156.966 57.2007 158.52 56.8814 158.381 54.7859C151.649 51.4299 138.79 50.7259 137.064 54.1065Z" fill="#738D9A"/>
<path d="M155.534 54.5977C155.534 54.5977 158.594 56.8323 158.888 60.0819C157.277 59.1242 156.001 59.7955 156.001 59.7955L155.534 54.5977Z" fill="#263238"/>
<path d="M154.831 56.1523C154.831 56.1523 157.735 58.5834 157.817 61.8413C156.27 60.7853 154.954 61.3665 154.954 61.3665L154.831 56.1523Z" fill="#263238"/>
<path d="M157.817 58.9929C156.254 59.1321 151.044 59.8115 147.469 59.8115C147.306 59.1239 147.044 57.7897 147.126 56.6846C146.782 57.7978 146.61 59.2385 146.553 59.8115C142.406 59.7787 137.989 59.5168 135.404 58.7146C135.142 57.9697 134.921 56.0871 135.036 55.023C134.381 55.9234 134.168 57.7897 134.348 58.4036C134.136 58.3381 133.391 58.2153 133.195 58.1498C132.418 51.2822 135.101 46.1417 140.279 46.9602C147.78 41.7297 158.144 45.7324 160.344 49.6042C162.545 53.4759 160.107 58.1498 157.817 58.9929Z" fill="#263238"/>
<path d="M156.884 60.6706C157.506 62.013 157.473 63.5273 157.056 64.6733C156.434 66.4005 154.676 66.1795 153.645 64.7961C152.713 63.5519 151.919 61.1535 153.122 59.8602C154.316 58.5833 156.173 59.1317 156.884 60.6706Z" fill="#FFC3BD"/>
<path d="M154.111 125.549C154.111 125.549 149.915 175.194 145.563 203.172C142.046 225.772 139.273 278.593 139.273 278.593H129.416C129.416 278.593 125.906 227.352 127.698 204.997C132.213 148.435 122.144 143.835 132.508 125.549H154.111Z" fill="#263238"/>
<path opacity="0.4" d="M145.915 142.117C148.5 145.85 150.226 150.327 151.363 154.911C150.529 163.285 149.539 172.551 148.475 181.465C145.727 174.041 142.725 159.004 145.915 142.117Z" fill="black"/>
<path d="M161.866 125.549C161.866 125.549 170.013 181.243 172.876 203.123C175.854 225.879 184.557 276.891 184.557 276.891L174.897 278.372C174.897 278.372 158.422 229.914 155.363 207.576C152.025 183.224 139.428 125.549 139.428 125.549H161.866Z" fill="#263238"/>
<path d="M186.054 276.465L173.85 279.396L172.132 274.828L185.195 271.677L186.054 276.465Z" fill="#263238"/>
<path d="M140.622 278.79H128.074L127.411 274.378L140.696 273.928L140.622 278.79Z" fill="#263238"/>
<path d="M132.066 123.823L130.741 126.45C130.634 126.655 130.88 126.859 131.215 126.859H162.005C162.266 126.859 162.487 126.728 162.504 126.565L162.765 123.937C162.782 123.757 162.553 123.602 162.266 123.602H132.54C132.328 123.602 132.131 123.692 132.066 123.823Z" fill="white"/>
<path d="M136.058 127.153H135.264C135.109 127.153 134.986 127.072 134.994 126.973L135.371 123.56C135.379 123.462 135.518 123.38 135.681 123.38H136.475C136.63 123.38 136.753 123.462 136.745 123.56L136.369 126.973C136.36 127.072 136.221 127.153 136.058 127.153Z" fill="#263238"/>
<path d="M155.363 127.153H154.569C154.414 127.153 154.291 127.072 154.299 126.973L154.676 123.56C154.684 123.462 154.823 123.38 154.987 123.38H155.78C155.935 123.38 156.058 123.462 156.05 123.56L155.674 126.973C155.657 127.072 155.518 127.153 155.363 127.153Z" fill="#263238"/>
</svg>
