<svg width="415" height="316" viewBox="0 0 415 316" fill="none" xmlns="http://www.w3.org/2000/svg">
<ellipse cx="257.5" cy="158" rx="157.5" ry="158" fill="white"/>
<g clip-path="url(#clip0)">
<path d="M332.431 79.7024C333.546 87.3672 328.21 94.487 320.514 95.6062C312.818 96.7255 305.668 91.4105 304.552 83.7457C303.437 76.0809 308.773 68.9611 316.469 67.8419C324.171 66.7285 331.315 72.0376 332.431 79.7024Z" fill="#F5F5F5"/>
<path d="M329.114 80.1883C329.965 86.0307 325.897 91.457 320.032 92.3067C314.168 93.1564 308.72 89.113 307.869 83.2706C307.018 77.4283 311.086 72.002 316.95 71.1523C322.821 70.2967 328.263 74.3401 329.114 80.1883Z" fill="#EBEBEB"/>
<path d="M329.061 79.8552C328.997 79.8669 328.885 79.4099 328.597 78.6188C328.304 77.8394 327.811 76.7143 326.901 75.5482C326.443 74.968 325.885 74.3762 325.216 73.8253C324.541 73.2804 323.76 72.7764 322.868 72.3779C322.428 72.1787 321.958 71.997 321.471 71.8623C320.983 71.7216 320.473 71.6044 319.95 71.54C319.428 71.4696 318.888 71.4345 318.348 71.4462C317.802 71.4579 317.25 71.5107 316.698 71.6044C316.146 71.704 315.612 71.8447 315.095 72.0205C314.579 72.1963 314.086 72.419 313.622 72.6592C313.152 72.8995 312.718 73.1866 312.307 73.4855C311.896 73.7843 311.52 74.1125 311.174 74.4523C310.475 75.1321 309.918 75.8763 309.472 76.6147C309.031 77.3589 308.708 78.1089 308.479 78.8121C308.027 80.2244 307.951 81.4432 307.945 82.2812C307.945 83.1192 307.998 83.588 307.933 83.5997C307.887 83.6114 307.728 83.1543 307.628 82.2988C307.534 81.4432 307.517 80.1658 307.922 78.6539C308.127 77.898 308.432 77.0952 308.879 76.2865C309.331 75.4837 309.906 74.6692 310.64 73.925C311.004 73.5558 311.403 73.1925 311.843 72.8643C312.278 72.5361 312.747 72.2256 313.252 71.956C313.757 71.6865 314.285 71.4462 314.837 71.2528C315.395 71.0594 315.97 70.9071 316.569 70.8016C317.162 70.702 317.761 70.6434 318.348 70.6317C318.935 70.62 319.516 70.6668 320.079 70.743C320.643 70.8192 321.189 70.954 321.711 71.1122C322.234 71.2704 322.733 71.4696 323.202 71.6923C324.148 72.1377 324.969 72.7061 325.668 73.3038C326.361 73.9132 326.93 74.5637 327.382 75.2024C328.286 76.4857 328.715 77.6929 328.92 78.525C329.108 79.3688 329.114 79.8493 329.061 79.8552Z" fill="#DAE1E4"/>
<path d="M320.614 87.8773L320.907 89.7232L319.258 89.9869L318.97 88.1937C317.321 88.3578 315.677 88.0941 314.655 87.5315L315.242 85.3809C316.164 85.8556 317.42 86.1134 318.63 86.0373L318.189 83.289C316.287 83.1366 314.145 82.8553 313.769 80.4996C313.487 78.7534 314.52 77.054 317.074 76.3449L316.78 74.5166L318.43 74.2529L318.718 76.0461C319.968 75.9464 321.224 76.0812 322.222 76.5149L321.723 78.6713C320.808 78.3314 319.904 78.1849 319.064 78.2201L319.51 81.0153C321.406 81.1501 323.52 81.4372 323.89 83.7577C324.165 85.4688 323.15 87.1507 320.614 87.8773ZM317.802 80.8688L317.426 78.5307C316.587 78.8647 316.317 79.398 316.405 79.9429C316.493 80.5172 317.039 80.7516 317.802 80.8688ZM321.271 84.3789C321.177 83.8046 320.649 83.5644 319.904 83.4354L320.268 85.7091C321.06 85.3927 321.354 84.9063 321.271 84.3789Z" fill="#E0E0E0"/>
<path d="M288.538 82.1933C290.475 95.5012 281.211 107.86 267.85 109.799C254.489 111.739 242.085 102.521 240.148 89.2135C238.21 75.9056 247.474 63.547 260.835 61.6074C274.196 59.6677 286.6 68.8854 288.538 82.1933Z" fill="#F7F9FA"/>
<path d="M282.784 83.0316C284.258 93.1752 277.202 102.592 267.017 104.069C256.831 105.546 247.38 98.5195 245.906 88.3818C244.433 78.2382 251.489 68.8213 261.674 67.3446C271.854 65.8679 281.305 72.8881 282.784 83.0316Z" fill="#EBEFF1"/>
<path d="M282.697 82.4513C282.585 82.4689 282.391 81.6778 281.887 80.3066C281.382 78.9471 280.525 77.0016 278.94 74.974C278.147 73.9661 277.179 72.9348 276.01 71.9854C274.836 71.042 273.48 70.163 271.936 69.4715C271.167 69.1258 270.357 68.8152 269.506 68.575C268.661 68.3288 267.78 68.1296 266.87 68.0183C265.96 67.9011 265.033 67.8308 264.082 67.8542C263.136 67.8776 262.18 67.9655 261.217 68.1296C260.26 68.3054 259.327 68.5515 258.434 68.8504C257.536 69.1551 256.685 69.536 255.875 69.9579C255.059 70.3798 254.301 70.8721 253.591 71.3877C252.875 71.9034 252.223 72.4718 251.619 73.0637C250.409 74.2415 249.441 75.5366 248.666 76.8199C247.903 78.1149 247.345 79.41 246.946 80.6347C246.159 83.0842 246.024 85.2055 246.018 86.6529C246.018 88.1061 246.112 88.9207 245.995 88.9441C245.913 88.9617 245.637 88.1764 245.461 86.6822C245.296 85.1996 245.267 82.9787 245.971 80.3534C246.324 79.0467 246.858 77.6461 247.627 76.2398C248.408 74.8392 249.406 73.427 250.679 72.1378C251.313 71.4932 252 70.8662 252.763 70.2978C253.521 69.7294 254.331 69.1844 255.206 68.7273C256.08 68.2644 256.996 67.8425 257.959 67.5085C258.922 67.1744 259.931 66.9107 260.959 66.7232C261.992 66.5474 263.025 66.4478 264.046 66.4302C265.068 66.4127 266.072 66.4888 267.052 66.6295C268.032 66.7642 268.978 66.9928 269.887 67.2682C270.797 67.5378 271.66 67.8894 272.476 68.2761C274.114 69.0496 275.541 70.0282 276.756 71.0772C277.965 72.1319 278.946 73.2629 279.732 74.3704C281.3 76.5914 282.039 78.6892 282.397 80.1366C282.767 81.6075 282.779 82.4396 282.697 82.4513Z" fill="#DAE1E4"/>
<path d="M268.026 96.3802L268.537 99.5797L265.678 100.037L265.179 96.9252C262.32 97.2064 259.461 96.7552 257.689 95.7766L258.704 92.038C260.307 92.8642 262.491 93.3096 264.58 93.1807L263.817 88.4107C260.518 88.147 256.802 87.6606 256.145 83.5704C255.657 80.5408 257.448 77.5932 261.886 76.3568L261.375 73.1866L264.234 72.7295L264.733 75.8411C266.905 75.6712 269.089 75.9056 270.821 76.6556L269.952 80.4001C268.361 79.8083 266.794 79.5563 265.338 79.6149L266.118 84.4728C269.412 84.7072 273.075 85.2053 273.721 89.2311C274.196 92.2021 272.435 95.1203 268.026 96.3802ZM263.142 84.215L262.491 80.1599C261.029 80.7459 260.559 81.6718 260.712 82.6093C260.876 83.6114 261.821 84.0157 263.142 84.215ZM269.171 90.3093C269.013 89.3073 268.097 88.8971 266.794 88.6685L267.428 92.6123C268.807 92.0673 269.318 91.2234 269.171 90.3093Z" fill="#DAE1E4"/>
<path d="M72.3649 165.31C73.4803 172.975 68.1441 180.095 60.448 181.214C52.7518 182.333 45.6016 177.018 44.4862 169.353C43.3709 161.689 48.7071 154.569 56.4032 153.45C64.1052 152.33 71.2496 157.645 72.3649 165.31Z" fill="#F7F9FA"/>
<path d="M69.0481 165.791C69.8993 171.633 65.8311 177.059 59.9665 177.909C54.102 178.759 48.6542 174.715 47.803 168.873C46.9518 163.031 51.02 157.604 56.8846 156.755C62.755 155.899 68.1969 159.948 69.0481 165.791Z" fill="#EBEFF1"/>
<path d="M69.0011 165.457C68.9366 165.468 68.825 165.011 68.5374 164.22C68.2439 163.441 67.7507 162.316 66.8408 161.15C66.3829 160.57 65.8252 159.978 65.156 159.427C64.4809 158.882 63.7001 158.378 62.8078 157.979C62.3676 157.78 61.8979 157.599 61.4107 157.464C60.9234 157.323 60.4127 157.206 59.8902 157.142C59.3678 157.071 58.8277 157.036 58.2876 157.048C57.7417 157.059 57.1898 157.112 56.638 157.206C56.0862 157.306 55.552 157.446 55.0354 157.622C54.5188 157.798 54.0257 158.021 53.5619 158.261C53.0923 158.501 52.6579 158.788 52.2469 159.087C51.836 159.386 51.4603 159.714 51.1139 160.054C50.4154 160.734 49.8577 161.478 49.4115 162.216C48.9712 162.96 48.6484 163.711 48.4194 164.414C47.9674 165.826 47.8911 167.045 47.8852 167.883C47.8852 168.721 47.938 169.19 47.8735 169.201C47.8265 169.213 47.668 168.756 47.5682 167.9C47.4743 167.045 47.4567 165.767 47.8617 164.255C48.0672 163.5 48.3724 162.697 48.8186 161.888C49.2648 161.085 49.8459 160.271 50.5797 159.527C50.9437 159.157 51.3429 158.794 51.7832 158.466C52.2176 158.138 52.6872 157.827 53.1921 157.558C53.6969 157.288 54.2253 157.048 54.7771 156.854C55.3348 156.661 55.9101 156.509 56.503 156.403C57.0959 156.304 57.6947 156.245 58.2817 156.233C58.8688 156.222 59.45 156.268 60.0135 156.345C60.5771 156.421 61.123 156.556 61.6455 156.714C62.168 156.872 62.6669 157.071 63.1366 157.294C64.0817 157.739 64.9036 158.308 65.6022 158.905C66.2949 159.515 66.8643 160.165 67.3163 160.804C68.2204 162.087 68.6489 163.294 68.8544 164.127C69.0422 164.97 69.0481 165.451 69.0011 165.457Z" fill="#DAE1E4"/>
<path d="M60.5477 173.479L60.8412 175.325L59.1916 175.588L58.904 173.795C57.2544 173.959 55.6106 173.696 54.5892 173.133L55.1762 170.983C56.0979 171.457 57.3542 171.715 58.5635 171.639L58.1232 168.891C56.2212 168.738 54.0785 168.457 53.7028 166.101C53.421 164.355 54.4542 162.656 57.0078 161.946L56.7143 160.118L58.3639 159.854L58.6515 161.648C59.9019 161.548 61.1582 161.683 62.1562 162.116L61.6572 164.273C60.7414 163.933 59.8374 163.787 58.9979 163.822L59.444 166.617C61.3402 166.752 63.4535 167.039 63.8234 169.359C64.1052 171.076 63.0896 172.752 60.5477 173.479ZM57.7357 166.47L57.36 164.132C56.5206 164.466 56.2505 165 56.3386 165.544C56.4266 166.125 56.9726 166.359 57.7357 166.47ZM61.2052 169.986C61.1112 169.412 60.5829 169.172 59.8374 169.043L60.2013 171.317C60.9997 170.994 61.2932 170.514 61.2052 169.986Z" fill="#DAE1E4"/>
<path d="M48.2315 134.353C43.9578 137.043 38.3105 135.754 35.6101 131.482C32.9097 127.21 34.1835 121.567 38.4572 118.877C42.7309 116.187 48.3783 117.471 51.0787 121.748C53.7791 126.026 52.5052 131.669 48.2315 134.353Z" fill="#F7F9FA"/>
<path d="M47.0693 132.513C43.8171 134.564 39.5082 133.585 37.4535 130.327C35.3989 127.069 36.3675 122.768 39.6197 120.723C42.8719 118.672 47.1808 119.65 49.2355 122.909C51.296 126.167 50.3215 130.468 47.0693 132.513Z" fill="#EBEFF1"/>
<path d="M47.251 132.396C47.2275 132.36 47.4682 132.173 47.8615 131.792C48.249 131.411 48.7891 130.825 49.2411 129.97C49.47 129.548 49.6696 129.055 49.8223 128.51C49.969 127.965 50.063 127.368 50.063 126.735C50.063 126.418 50.0453 126.096 49.9984 125.768C49.9514 125.44 49.8868 125.112 49.787 124.784C49.6872 124.455 49.5698 124.127 49.4172 123.805C49.2646 123.483 49.0885 123.172 48.8889 122.867C48.6834 122.568 48.4603 122.287 48.2196 122.023C47.9789 121.766 47.7148 121.531 47.4506 121.314C47.1806 121.098 46.8988 120.916 46.6111 120.752C46.3235 120.588 46.03 120.447 45.7364 120.336C45.1494 120.101 44.5565 119.967 43.9988 119.896C43.4352 119.832 42.9069 119.838 42.4314 119.89C41.4686 119.996 40.7231 120.271 40.2241 120.488C39.7251 120.711 39.4609 120.863 39.4375 120.828C39.4199 120.805 39.6488 120.588 40.1302 120.301C40.6116 120.019 41.3747 119.674 42.3786 119.51C42.8834 119.433 43.4411 119.398 44.0399 119.451C44.6387 119.504 45.2727 119.633 45.9126 119.873C46.2296 119.99 46.5524 120.131 46.8577 120.307C47.1688 120.476 47.48 120.676 47.7676 120.904C48.0611 121.133 48.3429 121.379 48.6071 121.66C48.8713 121.941 49.1119 122.24 49.335 122.568C49.5522 122.897 49.7459 123.236 49.9045 123.582C50.0688 123.928 50.1921 124.285 50.2919 124.643C50.3976 125 50.4621 125.358 50.5032 125.709C50.5502 126.061 50.5619 126.413 50.5502 126.747C50.5326 127.426 50.4152 128.059 50.2391 128.633C50.063 129.208 49.8223 129.718 49.564 130.151C49.0415 131.024 48.431 131.599 47.9907 131.938C47.5563 132.29 47.2686 132.425 47.251 132.396Z" fill="#DAE1E4"/>
<path d="M40.2418 129.501L39.2204 130.164L38.6274 129.255L39.6195 128.611C39.0853 127.673 38.8094 126.63 38.874 125.874L40.3123 125.651C40.2712 126.325 40.4531 127.14 40.8171 127.837L42.3376 126.847C41.9266 125.681 41.5274 124.333 42.8307 123.489C43.7934 122.862 45.079 123.026 46.1827 124.351L47.1924 123.694L47.7853 124.603L46.7932 125.247C47.1807 125.962 47.4331 126.747 47.439 127.45L46.0242 127.726C45.9831 127.093 45.8305 126.519 45.5898 126.027L44.04 127.034C44.4626 128.195 44.8442 129.525 43.5645 130.357C42.6135 130.978 41.3455 130.82 40.2418 129.501ZM43.676 125.98L44.9675 125.142C44.5448 124.731 44.1574 124.714 43.858 124.907C43.5351 125.112 43.541 125.499 43.676 125.98ZM42.4961 128.968C42.8131 128.763 42.8131 128.388 42.6957 127.908L41.4394 128.722C41.8386 129.115 42.2084 129.156 42.4961 128.968Z" fill="#DAE1E4"/>
<path d="M294.033 58.8823C289.759 61.572 284.111 60.2828 281.411 56.0109C278.711 51.7391 279.985 46.0959 284.258 43.4062C288.532 40.7165 294.179 41.9998 296.88 46.2776C299.58 50.5495 298.306 56.1926 294.033 58.8823Z" fill="#F7F9FA"/>
<path d="M292.87 57.0365C289.618 59.0874 285.309 58.1088 283.255 54.8507C281.2 51.5926 282.169 47.2914 285.421 45.2463C288.673 43.1953 292.982 44.1739 295.036 47.432C297.097 50.6902 296.128 54.9913 292.87 57.0365Z" fill="#EBEFF1"/>
<path d="M293.058 56.919C293.034 56.8838 293.275 56.6963 293.668 56.3154C294.056 55.9345 294.596 55.3485 295.048 54.493C295.277 54.0711 295.477 53.5788 295.629 53.0339C295.776 52.4889 295.87 51.8912 295.87 51.2583C295.87 50.9419 295.852 50.6196 295.805 50.2914C295.758 49.9633 295.694 49.6351 295.594 49.3069C295.494 48.9788 295.377 48.6506 295.224 48.3283C295.071 48.006 294.895 47.6955 294.696 47.3907C294.49 47.0919 294.267 46.8106 294.027 46.5469C293.786 46.2832 293.522 46.0547 293.258 45.8379C292.987 45.621 292.706 45.4394 292.418 45.2753C292.13 45.1112 291.837 44.9706 291.543 44.8592C290.956 44.6249 290.363 44.4901 289.806 44.4198C289.242 44.3553 288.714 44.3612 288.238 44.4139C287.276 44.5194 286.53 44.7948 286.031 45.0116C285.532 45.2343 285.268 45.3866 285.244 45.3515C285.227 45.328 285.456 45.1112 285.937 44.8241C286.418 44.5428 287.182 44.1971 288.185 44.033C288.69 43.9568 289.248 43.9217 289.847 43.9744C290.446 44.0271 291.08 44.1561 291.719 44.3963C292.036 44.5135 292.359 44.6542 292.665 44.8299C292.976 44.9999 293.287 45.1991 293.575 45.4277C293.868 45.6562 294.15 45.9023 294.414 46.1836C294.678 46.4649 294.919 46.7637 295.142 47.0919C295.359 47.42 295.553 47.7599 295.711 48.1057C295.876 48.4514 295.999 48.8088 296.099 49.1663C296.204 49.5238 296.269 49.8812 296.31 50.2328C296.357 50.5844 296.369 50.936 296.357 51.27C296.339 51.9498 296.222 52.5826 296.046 53.1569C295.87 53.7312 295.629 54.241 295.371 54.6746C294.848 55.5478 294.238 56.122 293.798 56.4619C293.357 56.8194 293.07 56.9483 293.058 56.919Z" fill="#DAE1E4"/>
<path d="M286.043 54.0298L285.021 54.692L284.428 53.7837L285.421 53.1391C284.886 52.2015 284.61 51.1584 284.675 50.4025L286.113 50.1798C286.072 50.8537 286.254 51.6682 286.618 52.3656L288.139 51.3752C287.728 50.2091 287.328 48.8613 288.632 48.0175C289.594 47.3905 290.88 47.5546 291.984 48.8789L292.993 48.2226L293.586 49.1309L292.594 49.7755C292.982 50.4904 293.234 51.2756 293.24 51.9788L291.825 52.2542C291.784 51.6213 291.631 51.0471 291.391 50.5548L289.841 51.5627C290.264 52.723 290.645 54.0532 289.365 54.8853C288.414 55.5006 287.146 55.3424 286.043 54.0298ZM289.477 50.5021L290.769 49.6641C290.346 49.2539 289.958 49.2364 289.659 49.4297C289.336 49.6348 289.342 50.0216 289.477 50.5021ZM288.303 53.4907C288.62 53.2856 288.62 52.9105 288.503 52.43L287.246 53.2445C287.64 53.6372 288.009 53.684 288.303 53.4907Z" fill="#DAE1E4"/>
<path d="M369.785 103.125H146.286C142.435 103.125 139.312 106.242 139.312 110.087V267.666C139.312 271.51 142.435 274.628 146.286 274.628H232.064C232.064 274.628 237.518 291.469 220.605 300.183H300.813C300.813 300.183 281.716 293.649 286.624 274.628H369.785C373.636 274.628 376.759 271.51 376.759 267.666V110.087C376.759 106.242 373.636 103.125 369.785 103.125Z" fill="#263238"/>
<path d="M261.017 258.062C264.058 262.398 259.297 267.151 254.953 264.115C254.812 264.016 254.677 263.887 254.578 263.74C251.548 259.404 256.298 254.658 260.642 257.687C260.788 257.787 260.918 257.916 261.017 258.062Z" fill="#455A64"/>
<path d="M372.914 245.802H143.157V111.692C143.157 108.551 145.705 106.008 148.851 106.008H367.219C370.366 106.008 372.914 108.551 372.914 111.692V245.802Z" fill="white"/>
<path d="M170.16 137.57H162.623V221.578H170.16V137.57Z" fill="#E04E39"/>
<path d="M184.707 166.102H177.169V221.578H184.707V166.102Z" fill="#E04E39"/>
<path d="M199.255 148.013H191.717V222.006H199.255V148.013Z" fill="#E04E39"/>
<path d="M213.801 140.816H206.264V221.578H213.801V140.816Z" fill="#E04E39"/>
<path d="M228.348 167.808H220.811V221.573H228.348V167.808Z" fill="#E04E39"/>
<path d="M242.901 178.355H235.363V221.578H242.901V178.355Z" fill="#E04E39"/>
<path d="M257.448 146.19H249.911V221.573H257.448V146.19Z" fill="#E04E39"/>
<path d="M271.995 159.785H264.458V221.578H271.995V159.785Z" fill="#E04E39"/>
<path d="M286.542 148.921H279.004V221.572H286.542V148.921Z" fill="#E04E39"/>
<path d="M301.089 172.079H293.551V221.578H301.089V172.079Z" fill="#E04E39"/>
<path d="M330.106 146.19H322.569V221.573H330.106V146.19Z" fill="#E04E39"/>
<path d="M361.002 194.692H353.465V220.488H361.002V194.692Z" fill="#E04E39"/>
<path d="M345.945 172.079H338.407V221.578H345.945V172.079Z" fill="#E04E39"/>
<path d="M315.636 162.662H308.098V221.578H315.636V162.662Z" fill="#E04E39"/>
<path d="M363.122 148.276C363.116 148.287 362.893 148.252 362.458 148.17C361.989 148.076 361.355 147.942 360.539 147.778C359.705 147.567 358.648 147.444 357.404 147.279C356.165 147.068 354.715 147.004 353.089 146.922C349.837 146.834 345.827 146.975 341.295 147.936C336.775 148.897 331.738 150.614 326.66 153.468C321.588 156.298 316.463 160.206 311.843 165.246C307.223 170.297 303.331 176.538 299.351 183.142C295.33 189.705 291.238 196.837 285.315 202.943C282.38 205.984 278.957 208.738 274.971 210.661C272.981 211.616 270.827 212.29 268.596 212.606C266.365 212.917 264.07 212.811 261.839 212.377C257.372 211.393 253.403 209.049 250.069 206.219C246.687 203.406 243.881 200.101 241.351 196.72C236.297 189.922 232.698 182.591 228.853 175.917C225.055 169.219 221.151 162.961 216.367 158.073C213.983 155.642 211.412 153.538 208.647 152.014C207.32 151.153 205.847 150.631 204.479 149.993C203.035 149.541 201.655 148.979 200.223 148.733C194.564 147.408 189.169 147.906 184.748 149.166C180.299 150.415 176.788 152.407 174.129 154.264C171.522 156.216 169.697 157.98 168.552 159.257C168 159.872 167.572 160.359 167.255 160.716C166.955 161.044 166.802 161.209 166.791 161.197C166.779 161.185 166.914 161.009 167.19 160.664C167.495 160.289 167.906 159.785 168.429 159.146C169.538 157.827 171.34 156.011 173.941 154.001C176.594 152.085 180.123 150.022 184.625 148.715C189.093 147.397 194.576 146.846 200.358 148.153C206.152 149.307 212.052 152.63 216.877 157.587C221.756 162.533 225.712 168.832 229.54 175.536C233.414 182.222 237.019 189.518 242.026 196.227C244.527 199.568 247.31 202.826 250.621 205.574C253.89 208.346 257.741 210.608 262.027 211.551C264.17 211.967 266.359 212.067 268.496 211.768C270.627 211.469 272.705 210.825 274.631 209.899C278.488 208.041 281.845 205.351 284.74 202.363C290.575 196.368 294.661 189.295 298.699 182.732C302.697 176.14 306.636 169.864 311.338 164.766C316.035 159.691 321.236 155.765 326.384 152.94C331.533 150.092 336.64 148.399 341.213 147.473C345.798 146.553 349.849 146.453 353.118 146.594C354.756 146.699 356.212 146.793 357.457 147.033C358.707 147.221 359.764 147.373 360.591 147.613C361.396 147.813 362.03 147.971 362.493 148.088C362.91 148.199 363.127 148.264 363.122 148.276Z" fill="#263238"/>
<path d="M154.328 227.426C154.158 227.426 154.017 203.471 154.017 173.931C154.017 144.379 154.158 120.43 154.328 120.43C154.498 120.43 154.639 144.379 154.639 173.931C154.633 203.471 154.498 227.426 154.328 227.426Z" fill="#263238"/>
<path d="M361.003 227.426C361.003 227.596 315.788 227.736 260.031 227.736C204.256 227.736 159.054 227.596 159.054 227.426C159.054 227.256 204.256 227.115 260.031 227.115C315.788 227.115 361.003 227.256 361.003 227.426Z" fill="#263238"/>
<path d="M173.372 234.036C173.372 234.206 170.865 234.347 167.777 234.347C164.689 234.347 162.183 234.206 162.183 234.036C162.183 233.866 164.683 233.726 167.777 233.726C170.865 233.731 173.372 233.866 173.372 234.036Z" fill="#263238"/>
<path d="M191.922 234.376C191.922 234.546 188.928 234.687 185.242 234.687C181.549 234.687 178.555 234.546 178.555 234.376C178.555 234.206 181.549 234.065 185.242 234.065C188.928 234.065 191.922 234.206 191.922 234.376Z" fill="#263238"/>
<path d="M207.743 234.376C207.743 234.546 204.749 234.687 201.062 234.687C197.37 234.687 194.376 234.546 194.376 234.376C194.376 234.206 197.37 234.065 201.062 234.065C204.749 234.065 207.743 234.206 207.743 234.376Z" fill="#263238"/>
<path d="M223.564 234.376C223.564 234.546 220.57 234.687 216.883 234.687C213.191 234.687 210.197 234.546 210.197 234.376C210.197 234.206 213.191 234.065 216.883 234.065C220.57 234.065 223.564 234.206 223.564 234.376Z" fill="#263238"/>
<path d="M239.385 234.376C239.385 234.546 236.391 234.687 232.704 234.687C229.011 234.687 226.018 234.546 226.018 234.376C226.018 234.206 229.011 234.065 232.704 234.065C236.391 234.065 239.385 234.206 239.385 234.376Z" fill="#263238"/>
<path d="M255.206 234.376C255.206 234.546 252.212 234.687 248.525 234.687C244.833 234.687 241.839 234.546 241.839 234.376C241.839 234.206 244.833 234.065 248.525 234.065C252.212 234.065 255.206 234.206 255.206 234.376Z" fill="#263238"/>
<path d="M271.026 234.376C271.026 234.546 268.032 234.687 264.346 234.687C260.653 234.687 257.659 234.546 257.659 234.376C257.659 234.206 260.653 234.065 264.346 234.065C268.032 234.065 271.026 234.206 271.026 234.376Z" fill="#263238"/>
<path d="M286.847 234.376C286.847 234.546 283.853 234.687 280.167 234.687C276.474 234.687 273.48 234.546 273.48 234.376C273.48 234.206 276.474 234.065 280.167 234.065C283.859 234.065 286.847 234.206 286.847 234.376Z" fill="#263238"/>
<path d="M302.674 234.376C302.674 234.546 299.68 234.687 295.993 234.687C292.301 234.687 289.307 234.546 289.307 234.376C289.307 234.206 292.301 234.065 295.993 234.065C299.68 234.065 302.674 234.206 302.674 234.376Z" fill="#263238"/>
<path d="M318.494 234.376C318.494 234.546 315.5 234.687 311.814 234.687C308.121 234.687 305.127 234.546 305.127 234.376C305.127 234.206 308.121 234.065 311.814 234.065C315.5 234.065 318.494 234.206 318.494 234.376Z" fill="#263238"/>
<path d="M333.206 234.382C333.206 234.552 330.212 234.692 326.526 234.692C322.833 234.692 319.839 234.552 319.839 234.382C319.839 234.212 322.833 234.071 326.526 234.071C330.218 234.071 333.206 234.212 333.206 234.382Z" fill="#263238"/>
<path d="M347.923 234.388C347.923 234.558 344.929 234.698 341.243 234.698C337.55 234.698 334.556 234.558 334.556 234.388C334.556 234.218 337.55 234.077 341.243 234.077C344.929 234.077 347.923 234.218 347.923 234.388Z" fill="#263238"/>
<path d="M362.64 234.394C362.64 234.564 359.646 234.704 355.96 234.704C352.267 234.704 349.273 234.564 349.273 234.394C349.273 234.224 352.267 234.083 355.96 234.083C359.646 234.083 362.64 234.224 362.64 234.394Z" fill="#263238"/>
<path d="M231.242 176.679C231.248 176.55 232.164 176.872 232.463 178.132C232.599 178.724 232.645 179.503 232.229 180.3C232.023 180.687 231.642 181.074 231.131 181.226C230.62 181.396 230.057 181.291 229.599 181.044C228.677 180.54 228.213 179.515 228.29 178.648C228.354 177.769 228.83 177.089 229.34 176.708C229.851 176.315 230.438 176.257 230.779 176.351C231.125 176.456 231.248 176.626 231.225 176.661C231.19 176.778 230.462 176.427 229.722 177.159C229.376 177.499 229.07 178.05 229.065 178.671C229.047 179.286 229.393 179.96 229.998 180.294C230.614 180.634 231.248 180.435 231.554 179.902C231.876 179.38 231.923 178.73 231.871 178.232C231.777 177.183 231.178 176.784 231.242 176.679Z" fill="#263238"/>
<path d="M330.418 149.067C330.418 149.02 330.652 148.944 331.069 149.067C331.48 149.184 332.02 149.571 332.414 150.227C332.801 150.872 333.053 151.839 332.748 152.864C332.455 153.837 331.556 154.921 330.171 154.921C329.484 154.91 328.891 154.511 328.527 154.066C328.163 153.609 327.94 153.099 327.835 152.601C327.606 151.605 327.817 150.614 328.257 149.987C329.185 148.675 330.33 148.745 330.288 148.839C330.341 148.962 329.384 149.143 328.768 150.286C328.469 150.843 328.363 151.61 328.586 152.413C328.786 153.187 329.379 154.072 330.195 154.077C331.022 154.101 331.762 153.357 332.008 152.618C332.279 151.862 332.149 151.071 331.885 150.497C331.345 149.29 330.388 149.173 330.418 149.067Z" fill="#263238"/>
<path d="M244.914 63.377H93.6855V180.863H244.914V63.377Z" fill="white"/>
<path d="M244.915 180.863C244.915 179.691 244.856 134.276 244.774 63.377L244.915 63.5176C201.878 63.5235 149.79 63.5352 93.6981 63.5469H93.6864L93.8566 63.377C93.8507 105.727 93.8449 145.779 93.839 180.863L93.6864 180.71C183.434 180.798 243.564 180.863 244.915 180.863C243.564 180.863 183.434 180.927 93.6864 181.015H93.5337V180.863C93.5279 145.779 93.522 105.727 93.5161 63.377V63.207H93.6864H93.6981C149.79 63.2188 201.878 63.2305 244.915 63.2363H245.055V63.377C244.967 134.276 244.915 179.691 244.915 180.863Z" fill="#263238"/>
<path d="M125.539 78.8125H101.06V80.172H125.539V78.8125Z" fill="#263238"/>
<path d="M113.159 81.9941H101.06V83.3536H113.159V81.9941Z" fill="#263238"/>
<path d="M119.452 163.98H115.02V165.258H119.452V163.98Z" fill="#263238"/>
<path d="M130.723 170.802H125.052V172.079H130.723V170.802Z" fill="#263238"/>
<path d="M150.465 170.802H144.794V172.079H150.465V170.802Z" fill="#263238"/>
<path d="M170.208 170.802H164.537V172.079H170.208V170.802Z" fill="#263238"/>
<path d="M189.949 170.802H184.279V172.079H189.949V170.802Z" fill="#263238"/>
<path d="M209.692 170.802H204.021V172.079H209.692V170.802Z" fill="#263238"/>
<path d="M229.434 170.802H223.763V172.079H229.434V170.802Z" fill="#263238"/>
<path d="M119.452 146.946H115.02V148.224H119.452V146.946Z" fill="#263238"/>
<path d="M119.452 114.881H115.02V116.158H119.452V114.881Z" fill="#263238"/>
<path d="M119.452 98.7656H115.02V100.043H119.452V98.7656Z" fill="#263238"/>
<path d="M119.675 130.913H115.243V132.191H119.675V130.913Z" fill="#263238"/>
<path d="M229.276 165.258C229.276 165.258 229.117 165.27 228.8 165.276C228.477 165.282 228.014 165.282 227.403 165.293C226.17 165.299 224.362 165.311 222.038 165.323C217.371 165.334 210.631 165.352 202.301 165.37C185.629 165.381 162.617 165.399 137.192 165.417C131.909 165.417 126.725 165.417 121.765 165.417H121.612V165.264C121.63 143.53 121.653 124.403 121.665 110.696C121.683 103.852 121.7 98.3671 121.712 94.5816C121.724 92.7006 121.729 91.2415 121.735 90.2453C121.741 89.7589 121.747 89.3839 121.747 89.1202C121.753 88.8682 121.759 88.7393 121.759 88.7393C121.759 88.7393 121.771 88.8682 121.771 89.1202C121.776 89.3839 121.776 89.753 121.782 90.2453C121.788 91.2415 121.8 92.7006 121.806 94.5816C121.818 98.3671 121.829 103.852 121.853 110.696C121.864 124.397 121.882 143.524 121.906 165.264L121.753 165.112C126.713 165.112 131.897 165.112 137.18 165.112C162.599 165.129 185.617 165.147 202.289 165.159C210.614 165.176 217.353 165.194 222.026 165.206C224.351 165.217 226.159 165.229 227.391 165.235C227.996 165.241 228.466 165.247 228.789 165.252C229.111 165.247 229.276 165.258 229.276 165.258Z" fill="#263238"/>
<path d="M230.526 131.546C230.526 131.628 207.138 131.698 178.297 131.698C149.444 131.698 126.062 131.628 126.062 131.546C126.062 131.464 149.444 131.394 178.297 131.394C207.138 131.394 230.526 131.464 230.526 131.546Z" fill="#263238"/>
<path d="M230.526 115.519C230.526 115.601 207.138 115.671 178.297 115.671C149.444 115.671 126.062 115.601 126.062 115.519C126.062 115.437 149.444 115.367 178.297 115.367C207.138 115.361 230.526 115.431 230.526 115.519Z" fill="#263238"/>
<path d="M230.526 99.4043C230.526 99.4864 207.138 99.5567 178.297 99.5567C149.444 99.5567 126.062 99.4864 126.062 99.4043C126.062 99.3223 149.444 99.252 178.297 99.252C207.138 99.252 230.526 99.3164 230.526 99.4043Z" fill="#263238"/>
<path d="M230.526 147.579C230.526 147.661 207.138 147.731 178.297 147.731C149.444 147.731 126.062 147.661 126.062 147.579C126.062 147.497 149.444 147.427 178.297 147.427C207.138 147.427 230.526 147.497 230.526 147.579Z" fill="#263238"/>
<path d="M127.136 161.807C127.136 159.123 127.136 147.585 127.136 147.585L136.018 133.82L142.047 138.437L154.416 119.258L161.713 124.385L171.863 106.688L180.111 113.398L192.48 89.9229L205.8 116.158L216.584 103.032L229.27 99.4101V161.813H127.136V161.807Z" fill="#455A64"/>
<path d="M230.526 94.3535C230.526 94.3535 230.45 94.3594 230.303 94.3652C230.145 94.3652 229.927 94.3711 229.64 94.377C229.047 94.3828 228.184 94.3887 227.063 94.4004C224.797 94.4121 221.503 94.4238 217.324 94.4414L217.388 94.4063C214.553 98.1039 211.013 102.71 206.945 108.013L206.91 108.06H206.851C199.272 108.066 190.384 108.077 180.727 108.083L180.851 108.013C177.411 113.726 173.7 119.891 169.867 126.261C166.128 132.467 162.506 138.479 159.089 144.151L158.972 144.339L158.842 144.157C153.676 137.072 148.904 130.527 144.689 124.737L144.894 124.731C139.523 133.099 135.097 139.997 132.003 144.819C130.459 147.216 129.244 149.091 128.416 150.374C128.005 151.007 127.688 151.488 127.465 151.828C127.248 152.156 127.13 152.32 127.13 152.32C127.13 152.32 127.23 152.144 127.436 151.81C127.647 151.47 127.952 150.978 128.351 150.339C129.167 149.044 130.359 147.157 131.885 144.749C134.956 139.92 139.353 133 144.689 124.608L144.789 124.456L144.894 124.603C149.121 130.38 153.911 136.92 159.089 143.993L158.842 144.005C162.259 138.326 165.875 132.32 169.615 126.109C173.454 119.739 177.17 113.574 180.61 107.867L180.651 107.796H180.733C190.39 107.808 199.278 107.814 206.857 107.82L206.763 107.867C210.854 102.581 214.412 97.9925 217.265 94.3066L217.288 94.2715H217.33C221.509 94.2891 224.803 94.3008 227.069 94.3125C228.19 94.3242 229.047 94.3301 229.646 94.3359C229.928 94.3418 230.151 94.3418 230.309 94.3477C230.45 94.3418 230.526 94.3535 230.526 94.3535Z" fill="#263238"/>
<path d="M149.074 129.232C149.074 129.765 148.628 130.193 148.07 130.193C147.518 130.193 147.066 129.759 147.066 129.232C147.066 128.698 147.513 128.271 148.07 128.271C148.628 128.265 149.074 128.698 149.074 129.232Z" fill="#263238"/>
<path d="M179.207 112.138C179.207 112.671 178.761 113.099 178.203 113.099C177.645 113.099 177.199 112.665 177.199 112.138C177.199 111.605 177.645 111.177 178.203 111.177C178.761 111.177 179.207 111.605 179.207 112.138Z" fill="#263238"/>
<path d="M201.626 108.898C202.18 108.898 202.63 108.467 202.63 107.937C202.63 107.406 202.18 106.976 201.626 106.976C201.072 106.976 200.622 107.406 200.622 107.937C200.622 108.467 201.072 108.898 201.626 108.898Z" fill="#263238"/>
<path d="M100.003 68.2111C100.003 68.8557 99.4805 69.3714 98.8406 69.3714C98.1948 69.3714 97.6782 68.8498 97.6782 68.2111C97.6782 67.5724 98.2007 67.0508 98.8406 67.0508C99.4863 67.045 100.003 67.5665 100.003 68.2111Z" fill="#263238"/>
<path d="M103.39 68.2111C103.39 68.8557 102.868 69.3714 102.228 69.3714C101.582 69.3714 101.065 68.8498 101.065 68.2111C101.065 67.5724 101.588 67.0508 102.228 67.0508C102.868 67.045 103.39 67.5665 103.39 68.2111Z" fill="#263238"/>
<path d="M106.777 68.2111C106.777 68.8557 106.255 69.3714 105.615 69.3714C104.969 69.3714 104.453 68.8498 104.453 68.2111C104.453 67.5724 104.975 67.0508 105.615 67.0508C106.255 67.045 106.777 67.5665 106.777 68.2111Z" fill="#263238"/>
<path d="M244.785 72.7822C244.785 72.8643 210.995 72.9346 169.321 72.9346C127.635 72.9346 93.8506 72.8643 93.8506 72.7822C93.8506 72.7002 127.635 72.6299 169.321 72.6299C210.995 72.6299 244.785 72.7002 244.785 72.7822Z" fill="#263238"/>
<path d="M0.487257 250.749L3.66316 262.111C5.45364 268.528 11.7878 272.577 18.3745 271.522C18.3745 271.522 24.3858 280.066 26.9336 281.449L29.2465 299.691H42.9657L44.0517 292.301C44.0517 292.301 57.8884 298.765 75.2531 297.845C92.6178 296.919 96.7858 291.844 96.7858 291.844L98.8699 299.697H114.368L116.91 279.609C116.91 279.609 135.877 262.756 131.016 243.131C131.016 243.131 144.665 233.831 140.039 220.588L137.262 219.351C137.262 219.351 132.866 227.203 128.24 228.815C128.24 228.815 115.788 188.874 68.9365 192.108C68.9365 192.108 53.3035 191.417 38.5042 198.343C38.5042 198.343 22.0846 189.799 9.82712 196.034C9.82712 196.034 9.59817 210.116 16.537 218.197C16.537 218.197 10.5257 231.587 10.0619 234.358L8.26558 235.073C2.03118 237.552 -1.31497 244.309 0.487257 250.749Z" fill="#E04E39"/>
<path d="M33.6199 233.597C33.6199 235.712 31.9057 237.424 29.7865 237.424C27.6673 237.424 25.9531 235.712 25.9531 233.597C25.9531 231.482 27.6673 229.771 29.7865 229.771C31.9057 229.771 33.6199 231.482 33.6199 233.597Z" fill="#263238"/>
<g opacity="0.6">
<path opacity="0.6" d="M51.2781 202.252L52.9981 207.069C52.9981 207.069 73.844 200.881 87.2814 207.069L89.1776 202.252C89.1835 202.252 72.8167 194.687 51.2781 202.252Z" fill="black"/>
</g>
<path d="M90.8743 209.284C90.8684 209.29 90.7334 209.214 90.4869 209.061C90.2403 208.903 89.8763 208.686 89.395 208.411C88.4381 207.866 87.0116 207.139 85.1506 206.489C83.2956 205.833 81.0061 205.264 78.4231 204.942C75.8401 204.614 72.9695 204.526 69.9579 204.625C66.9464 204.731 64.0816 204.918 61.4987 205.288C58.9157 205.645 56.6262 206.19 54.7711 206.852C52.9102 207.503 51.4954 208.247 50.5562 208.821C49.611 209.389 49.1296 209.765 49.1062 209.735C49.1003 209.729 49.2177 209.63 49.4525 209.454C49.6873 209.278 50.022 209.009 50.4975 208.721C51.425 208.112 52.8398 207.333 54.7066 206.653C56.5675 205.961 58.8746 205.387 61.4693 205.012C64.064 204.631 66.9405 204.432 69.9579 204.327C72.9753 204.227 75.8695 204.321 78.4701 204.672C81.0707 205.012 83.3719 205.61 85.2328 206.295C87.0996 206.975 88.5203 207.737 89.4654 208.317C89.935 208.61 90.2931 208.845 90.528 209.02C90.7569 209.179 90.8802 209.272 90.8743 209.284Z" fill="#263238"/>
<g opacity="0.2">
<g opacity="0.2">
<path opacity="0.2" d="M9.25166 245.686C8.99336 245.106 8.70571 244.52 8.22433 244.11C7.74296 243.699 7.02089 243.506 6.4632 243.799C6.01705 244.151 5.71179 244.649 5.58851 245.2C4.81361 248.645 5.41826 252.384 7.27919 255.39C7.54336 255.818 7.9719 256.14 8.47089 256.222C9.5217 256.404 10.0735 255.443 10.3318 254.581C11.2006 251.663 10.4844 248.481 9.25166 245.686Z" fill="black"/>
</g>
</g>
<path d="M17.6701 255.085C17.6466 255.085 17.6583 254.769 17.6818 254.206C17.6994 253.925 17.717 253.579 17.7112 253.181C17.7053 252.782 17.7288 252.325 17.6877 251.827C17.6642 251.323 17.6349 250.778 17.5585 250.192C17.5116 249.606 17.3883 248.985 17.2768 248.329C17.0126 247.028 16.6369 245.615 16.0909 244.186C15.5332 242.762 14.8699 241.455 14.1889 240.318C13.8308 239.761 13.5021 239.216 13.1498 238.748C12.8152 238.261 12.4689 237.833 12.1519 237.447C11.8466 237.048 11.5237 236.726 11.2596 236.421C10.9954 236.116 10.7547 235.876 10.5492 235.677C10.1501 235.278 9.93285 235.05 9.95046 235.032C9.9622 235.015 10.2029 235.214 10.6314 235.589C10.8486 235.771 11.1069 236.005 11.3828 236.298C11.6646 236.591 11.9934 236.907 12.3162 237.3C12.6509 237.681 13.009 238.109 13.3553 238.595C13.7251 239.064 14.0656 239.603 14.4355 240.166C15.134 241.314 15.815 242.627 16.3786 244.074C16.9304 245.527 17.3061 246.957 17.5527 248.276C17.6583 248.938 17.7699 249.565 17.8051 250.163C17.8755 250.755 17.8873 251.311 17.899 251.821C17.9284 252.325 17.8873 252.788 17.8755 253.186C17.8697 253.591 17.8344 253.936 17.7934 254.218C17.7405 254.78 17.6936 255.085 17.6701 255.085Z" fill="#263238"/>
<path d="M21.885 246.911C21.8263 246.928 21.5973 245.944 20.9516 244.461C20.6346 243.717 20.1767 242.873 19.6072 241.971C19.0202 241.08 18.304 240.148 17.4587 239.257C16.6016 238.373 15.6975 237.622 14.8287 237.001C13.954 236.392 13.1204 235.906 12.3925 235.56C10.9366 234.851 9.96212 234.587 9.97973 234.528C9.9856 234.511 10.2322 234.569 10.6724 234.693C10.8955 234.751 11.1597 234.833 11.4649 234.95C11.7702 235.068 12.1224 235.185 12.4864 235.366C13.2378 235.695 14.089 236.169 14.9931 236.773C15.8795 237.394 16.807 238.15 17.6817 239.046C18.5447 239.955 19.2609 240.91 19.8479 241.818C20.4174 242.738 20.8576 243.611 21.157 244.373C21.3273 244.748 21.4271 245.106 21.5327 245.41C21.6384 245.715 21.7089 245.985 21.7617 246.207C21.8556 246.664 21.9026 246.911 21.885 246.911Z" fill="#263238"/>
<path d="M5.91135 245.164C5.90548 245.182 5.79982 244.895 6.11095 244.561C6.25771 244.403 6.50427 244.268 6.80953 244.227C7.11479 244.174 7.4905 244.285 7.78989 244.526C8.40629 245.018 8.73503 245.862 9.11661 246.735C9.48058 247.625 9.79758 248.645 10.003 249.741C10.2144 250.837 10.2966 251.897 10.2848 252.864C10.2672 253.814 10.232 254.734 9.82106 255.396C9.416 256.081 8.69394 256.24 8.28888 256.163C7.85447 256.081 7.72532 255.835 7.73706 255.841C7.75467 255.812 7.91317 256.011 8.30062 256.046C8.67046 256.081 9.29859 255.9 9.62734 255.29C9.97369 254.687 9.99718 253.814 9.99718 252.87C9.99718 251.921 9.90325 250.878 9.69778 249.805C9.49232 248.733 9.19293 247.731 8.84657 246.846C8.48847 245.973 8.17147 245.147 7.649 244.701C7.12066 244.221 6.46317 244.408 6.19313 244.649C5.89374 244.906 5.94658 245.176 5.91135 245.164Z" fill="#263238"/>
<path d="M35.4163 247.848C35.4339 247.842 35.5103 247.959 35.6101 248.199C35.7098 248.434 35.8155 248.797 35.8684 249.26C35.9799 250.168 35.7803 251.545 34.8528 252.665C33.9135 253.778 32.5868 254.212 31.671 254.259C31.2072 254.288 30.8315 254.247 30.5791 254.188C30.3267 254.13 30.1975 254.077 30.1975 254.059C30.2093 254.001 30.7611 254.159 31.6475 254.048C32.5163 253.948 33.7433 253.503 34.6121 252.471C35.475 251.434 35.704 250.151 35.6511 249.278C35.6101 248.381 35.3635 247.865 35.4163 247.848Z" fill="#263238"/>
<path d="M33.2442 224.25C33.2031 224.343 31.6357 223.435 29.4636 223.265C27.2974 223.066 25.595 223.699 25.5715 223.599C25.5598 223.564 25.9649 223.365 26.6693 223.183C27.3738 223.001 28.3835 222.867 29.493 222.96C30.6025 223.054 31.577 223.353 32.2403 223.652C32.8978 223.957 33.2618 224.22 33.2442 224.25Z" fill="#263238"/>
<path d="M97.8836 198.97C97.8836 198.976 97.8307 198.958 97.731 198.923C97.6194 198.882 97.4785 198.824 97.3024 198.759C96.9091 198.601 96.3631 198.384 95.6704 198.103C95.3123 197.956 94.919 197.798 94.4905 197.622C94.0561 197.458 93.5747 197.306 93.064 197.124C92.0366 196.784 90.8802 196.333 89.5534 195.999C88.896 195.818 88.2091 195.624 87.487 195.419C86.7709 195.22 86.0018 195.085 85.2211 194.903C83.6595 194.517 81.963 194.282 80.1784 193.995C76.5974 193.532 72.629 193.268 68.4668 193.397C64.2988 193.573 60.3598 194.124 56.8258 194.851C55.0705 195.267 53.3916 195.63 51.8653 196.128C51.0962 196.362 50.3448 196.556 49.6462 196.808C48.9476 197.06 48.2725 197.306 47.6327 197.534C46.3353 197.968 45.2199 198.495 44.2161 198.912C43.7171 199.128 43.2475 199.316 42.8248 199.509C42.408 199.714 42.0323 199.902 41.6859 200.072C41.0167 200.4 40.4884 200.658 40.1068 200.845C39.9365 200.927 39.8015 200.986 39.69 201.039C39.596 201.08 39.5432 201.103 39.5432 201.097C39.5432 201.091 39.5843 201.062 39.6724 201.015C39.778 200.957 39.9072 200.886 40.0716 200.793C40.4473 200.593 40.9697 200.318 41.6272 199.966C41.9677 199.791 42.3434 199.591 42.7543 199.374C43.1711 199.169 43.6408 198.976 44.1339 198.753C45.1319 198.32 46.2472 197.775 47.5446 197.329C48.1904 197.089 48.8596 196.843 49.564 196.579C50.2685 196.321 51.0199 196.122 51.7889 195.882C53.3211 195.372 55.0001 195.003 56.7671 194.575C60.3128 193.831 64.2695 193.268 68.4551 193.093C72.6407 192.964 76.6267 193.233 80.2194 193.714C82.0099 194.013 83.7124 194.259 85.2798 194.657C86.0664 194.845 86.8296 194.985 87.5516 195.191C88.2678 195.401 88.9605 195.601 89.618 195.788C90.9447 196.14 92.0953 196.603 93.1227 196.96C93.6334 197.148 94.1148 197.306 94.5492 197.482C94.9777 197.663 95.3652 197.833 95.7174 197.986C96.3984 198.285 96.9384 198.525 97.3318 198.695C97.502 198.771 97.637 198.835 97.7486 198.888C97.8366 198.941 97.8836 198.964 97.8836 198.97Z" fill="white"/>
<path d="M104.864 202.85C104.829 202.926 104.007 202.657 103.02 202.252C102.034 201.842 101.265 201.449 101.295 201.367C101.33 201.291 102.152 201.561 103.138 201.965C104.124 202.381 104.893 202.774 104.864 202.85Z" fill="white"/>
<path d="M7.28521 238.062C7.30282 238.114 6.751 238.337 5.94088 238.847C5.13076 239.351 4.09757 240.189 3.21113 241.343C2.32469 242.498 1.78461 243.716 1.50283 244.625C1.22105 245.539 1.15061 246.131 1.0919 246.125C1.06842 246.125 1.07429 245.973 1.0919 245.703C1.10952 245.433 1.17409 245.041 1.2915 244.566C1.52045 243.623 2.04878 242.345 2.96457 241.156C3.88036 239.966 4.97226 239.128 5.82934 238.659C6.25788 238.425 6.61598 238.261 6.87428 238.173C7.13258 238.085 7.27347 238.044 7.28521 238.062Z" fill="white"/>
<path d="M43.3473 296.298C43.3297 296.31 43.2475 296.157 42.9951 295.964C42.7485 295.777 42.3024 295.595 41.7271 295.659C41.1576 295.712 40.4708 296.029 40.0598 296.726C39.6313 297.4 39.4611 298.331 39.4845 299.322L39.2145 299.31C39.2967 298.46 39.0384 297.464 38.3516 296.761C37.6882 296.046 36.52 295.771 35.5455 296.181C34.9115 296.439 34.4712 297.013 34.3479 297.652C34.207 298.285 34.3714 298.953 34.7765 299.38L34.5358 299.533C34.1072 298.337 33.6435 297.224 32.8803 296.521C32.1348 295.812 31.1544 295.53 30.4382 295.759C29.7103 295.976 29.3052 296.503 29.1643 296.878C29.0117 297.265 29.0645 297.505 29.0352 297.505C29.0352 297.505 28.9413 297.271 29.0704 296.849C29.1937 296.439 29.5987 295.853 30.3854 295.589C31.172 295.314 32.2404 295.601 33.0447 296.345C33.8783 297.089 34.3714 298.244 34.8058 299.439L35.0465 300.089L34.5651 299.586C34.0838 299.082 33.8959 298.308 34.0544 297.599C34.1835 296.884 34.7001 296.198 35.4281 295.905C36.5258 295.443 37.8291 295.765 38.5688 296.562C39.326 297.347 39.5843 298.419 39.4845 299.339L39.2145 299.328C39.2086 298.302 39.3965 297.329 39.8779 296.609C40.1186 296.257 40.4121 295.958 40.7467 295.788C41.0754 295.612 41.4159 295.525 41.7212 295.507C42.3434 295.466 42.8131 295.689 43.0596 295.905C43.2945 296.122 43.3473 296.298 43.3473 296.298Z" fill="#263238"/>
<path d="M125.146 295.173L124.136 299.415C124.136 299.415 117.186 308.428 115.037 307.989C113.634 307.701 115.36 305.346 118.002 298.501L118.559 295.671L125.146 295.173Z" fill="#455A64"/>
<path d="M114.75 306.658C114.761 306.646 114.82 306.857 115.119 307.015C115.413 307.18 115.953 307.191 116.452 306.828C117.403 306.078 118.624 304.894 119.91 303.552C121.195 302.204 122.281 300.904 123.039 299.948C123.379 299.515 123.673 299.134 123.925 298.806C124.013 298.694 124.089 298.595 124.166 298.495C124.224 298.425 124.254 298.39 124.254 298.39C124.26 298.39 124.23 298.431 124.183 298.507C124.113 298.606 124.042 298.718 123.96 298.835C123.767 299.116 123.473 299.515 123.103 300.001C122.358 300.974 121.283 302.281 119.992 303.634C118.694 304.982 117.473 306.148 116.487 306.892C116.229 307.062 115.953 307.168 115.701 307.18C115.448 307.191 115.237 307.133 115.084 307.045C114.931 306.963 114.838 306.851 114.791 306.775C114.761 306.705 114.75 306.658 114.75 306.658Z" fill="#263238"/>
<path d="M115.736 303.757C115.73 303.746 115.947 303.669 116.305 303.693C116.663 303.716 117.151 303.857 117.614 304.15C118.084 304.431 118.425 304.824 118.565 305.152C118.718 305.48 118.73 305.703 118.718 305.709C118.695 305.715 118.654 305.498 118.489 305.193C118.331 304.888 118.002 304.525 117.55 304.255C117.098 303.98 116.64 303.828 116.294 303.781C115.953 303.734 115.742 303.781 115.736 303.757Z" fill="#263238"/>
<path d="M122.316 301.642C122.311 301.642 122.275 301.572 122.234 301.437C122.193 301.302 122.134 301.103 122.099 300.857C122.011 300.359 122.058 299.62 122.422 298.929C122.774 298.226 123.361 297.768 123.825 297.563C124.06 297.458 124.26 297.411 124.4 297.388C124.541 297.364 124.618 297.364 124.618 297.376C124.624 297.399 124.307 297.423 123.86 297.645C123.42 297.862 122.868 298.313 122.528 298.987C122.176 299.661 122.117 300.359 122.181 300.851C122.24 301.337 122.34 301.636 122.316 301.642Z" fill="#263238"/>
<path d="M124.7 295.888C124.729 295.9 124.571 296.491 124.441 297.242C124.312 297.992 124.119 298.589 124.077 298.578C124.048 298.566 124.189 297.974 124.318 297.218C124.453 296.468 124.664 295.876 124.7 295.888Z" fill="#263238"/>
<path d="M117.878 299.099C117.872 299.07 118.277 298.994 118.771 299.111C119.264 299.222 119.598 299.468 119.575 299.492C119.557 299.527 119.211 299.34 118.741 299.234C118.272 299.123 117.878 299.134 117.878 299.099Z" fill="#263238"/>
<path d="M117.732 299.825C117.72 299.796 118.066 299.697 118.483 299.796C118.9 299.896 119.164 300.136 119.141 300.159C119.117 300.189 118.841 300.007 118.454 299.919C118.072 299.825 117.738 299.861 117.732 299.825Z" fill="#263238"/>
<path d="M117.18 300.739C117.162 300.71 117.509 300.534 117.961 300.64C118.407 300.739 118.648 301.05 118.618 301.068C118.595 301.097 118.337 300.851 117.932 300.763C117.526 300.663 117.192 300.775 117.18 300.739Z" fill="#263238"/>
<path d="M118.354 298.795C118.348 298.771 118.677 298.707 119.17 298.513C119.417 298.414 119.704 298.285 120.01 298.109C120.162 298.021 120.315 297.922 120.473 297.816C120.614 297.711 120.773 297.558 120.767 297.394C120.761 297.224 120.555 297.142 120.397 297.183C120.233 297.224 120.092 297.347 119.968 297.47C119.71 297.711 119.493 297.939 119.317 298.138C118.965 298.537 118.765 298.801 118.747 298.789C118.742 298.783 118.783 298.713 118.865 298.59C118.947 298.466 119.076 298.291 119.246 298.08C119.417 297.875 119.634 297.634 119.886 297.388C120.01 297.265 120.156 297.119 120.368 297.066C120.567 297.007 120.872 297.119 120.89 297.394C120.884 297.652 120.696 297.804 120.544 297.922C120.385 298.033 120.221 298.132 120.068 298.22C119.757 298.396 119.458 298.519 119.205 298.607C118.953 298.695 118.736 298.748 118.589 298.777C118.442 298.795 118.36 298.801 118.354 298.795Z" fill="#263238"/>
<path d="M118.718 298.706C118.694 298.706 118.671 298.408 118.589 297.933C118.547 297.698 118.483 297.417 118.354 297.13C118.289 296.989 118.201 296.843 118.095 296.72C117.99 296.603 117.825 296.497 117.696 296.573C117.567 296.644 117.55 296.837 117.567 296.995C117.591 297.159 117.643 297.318 117.702 297.464C117.825 297.751 118.002 297.98 118.154 298.161C118.483 298.519 118.735 298.689 118.718 298.706C118.712 298.712 118.647 298.677 118.536 298.601C118.424 298.525 118.266 298.402 118.095 298.226C117.925 298.05 117.737 297.816 117.602 297.511C117.532 297.359 117.479 297.195 117.45 297.013C117.432 296.843 117.426 296.597 117.638 296.468C117.861 296.351 118.078 296.515 118.189 296.644C118.313 296.784 118.395 296.937 118.465 297.089C118.6 297.394 118.653 297.681 118.682 297.927C118.712 298.167 118.724 298.367 118.729 298.501C118.729 298.63 118.729 298.706 118.718 298.706Z" fill="#263238"/>
<path d="M158.461 297.141L158.496 291.48L147.876 291.352L147.741 299.632L148.399 299.684C151.328 299.884 163.304 300.487 165.271 299.913C167.454 299.274 158.461 297.141 158.461 297.141Z" fill="#455A64"/>
<path d="M147.589 299.386C147.589 299.392 147.653 299.397 147.771 299.409C147.929 299.421 148.1 299.433 148.293 299.45C148.816 299.479 149.462 299.515 150.225 299.556C151.857 299.638 154.105 299.714 156.594 299.749C159.083 299.784 161.337 299.761 162.969 299.726C163.733 299.702 164.378 299.685 164.901 299.673C165.094 299.661 165.271 299.655 165.423 299.649C165.541 299.644 165.605 299.638 165.605 299.632C165.605 299.626 165.541 299.626 165.423 299.62C165.265 299.62 165.094 299.62 164.901 299.62C164.378 299.626 163.733 299.632 162.969 299.638C161.337 299.649 159.083 299.655 156.594 299.62C154.105 299.585 151.857 299.52 150.225 299.468C149.462 299.444 148.822 299.421 148.293 299.403C148.1 299.397 147.923 299.392 147.771 299.392C147.653 299.38 147.589 299.38 147.589 299.386Z" fill="#263238"/>
<path d="M161.889 299.86C161.93 299.866 161.966 299.403 162.259 298.946C162.547 298.478 162.946 298.249 162.928 298.22C162.922 298.19 162.465 298.384 162.153 298.882C161.836 299.368 161.86 299.866 161.889 299.86Z" fill="#263238"/>
<path d="M158.778 298.231C158.807 298.248 158.96 298.073 159.118 297.826C159.277 297.586 159.382 297.375 159.353 297.352C159.324 297.334 159.171 297.51 159.012 297.756C158.854 298.002 158.748 298.213 158.778 298.231Z" fill="#263238"/>
<path d="M157.927 297.768C157.95 297.798 158.12 297.686 158.302 297.522C158.49 297.358 158.619 297.206 158.596 297.182C158.572 297.153 158.402 297.264 158.22 297.429C158.032 297.587 157.903 297.739 157.927 297.768Z" fill="#263238"/>
<path d="M157.392 296.761C157.392 296.796 157.639 296.831 157.944 296.837C158.249 296.843 158.502 296.819 158.502 296.784C158.502 296.749 158.255 296.714 157.95 296.708C157.645 296.702 157.392 296.726 157.392 296.761Z" fill="#263238"/>
<path d="M157.216 296.051C157.204 296.081 157.474 296.209 157.833 296.239C158.191 296.274 158.478 296.198 158.472 296.163C158.467 296.127 158.185 296.145 157.844 296.11C157.504 296.081 157.228 296.016 157.216 296.051Z" fill="#263238"/>
<path d="M159.154 297.311C159.154 297.323 159.412 297.358 159.835 297.317C160.046 297.294 160.292 297.247 160.563 297.165C160.698 297.118 160.838 297.083 160.979 297.001C161.05 296.954 161.126 296.895 161.15 296.79C161.179 296.69 161.126 296.573 161.05 296.514C160.404 296.168 159.747 296.526 159.5 296.86C159.365 297.03 159.3 297.194 159.271 297.311C159.242 297.428 159.242 297.493 159.253 297.493C159.277 297.504 159.3 297.223 159.57 296.918C159.705 296.766 159.905 296.62 160.157 296.549C160.398 296.479 160.744 296.467 160.968 296.614C161.073 296.696 161.032 296.825 160.909 296.889C160.797 296.96 160.651 297.001 160.521 297.047C160.263 297.135 160.022 297.188 159.817 297.223C159.412 297.294 159.154 297.294 159.154 297.311Z" fill="#263238"/>
<path d="M159.33 297.346C159.342 297.352 159.441 297.182 159.412 296.872C159.4 296.719 159.342 296.543 159.23 296.374C159.113 296.221 158.96 296.01 158.666 296.022C158.508 296.04 158.426 296.221 158.449 296.333C158.461 296.45 158.514 296.555 158.561 296.637C158.661 296.807 158.772 296.948 158.878 297.053C159.089 297.264 159.259 297.346 159.265 297.335C159.277 297.317 159.13 297.211 158.948 296.995C158.854 296.883 158.755 296.749 158.666 296.585C158.573 296.438 158.514 296.18 158.684 296.151C158.854 296.139 159.025 296.309 159.13 296.444C159.236 296.59 159.295 296.754 159.318 296.889C159.371 297.165 159.306 297.34 159.33 297.346Z" fill="#263238"/>
<path d="M147.841 296.485C147.841 296.509 148.147 296.462 148.628 296.52C149.103 296.579 149.761 296.784 150.33 297.247C150.9 297.71 151.229 298.319 151.381 298.771C151.54 299.228 151.551 299.532 151.575 299.532C151.581 299.532 151.587 299.456 151.581 299.321C151.569 299.187 151.54 298.987 151.475 298.747C151.34 298.273 151.011 297.64 150.418 297.153C149.826 296.667 149.133 296.474 148.646 296.438C148.399 296.421 148.199 296.427 148.059 296.444C147.918 296.462 147.841 296.479 147.841 296.485Z" fill="#263238"/>
<path d="M148.997 292.09C148.962 292.09 148.909 293.063 148.88 294.264C148.851 295.465 148.851 296.444 148.892 296.444C148.927 296.444 148.979 295.471 149.008 294.27C149.038 293.068 149.032 292.09 148.997 292.09Z" fill="#263238"/>
<path d="M152.937 298.577C152.931 298.612 153.624 298.735 154.487 298.753C155.35 298.77 156.042 298.682 156.042 298.647C156.036 298.612 155.344 298.641 154.492 298.624C153.635 298.606 152.943 298.542 152.937 298.577Z" fill="#263238"/>
<path d="M150.853 298.547C150.829 298.571 150.906 298.694 150.976 298.852C151.047 299.01 151.082 299.151 151.117 299.151C151.152 299.151 151.176 298.987 151.094 298.799C151.017 298.618 150.876 298.524 150.853 298.547Z" fill="#263238"/>
<path d="M150.084 297.563C150.06 297.587 150.125 297.698 150.237 297.809C150.342 297.921 150.454 297.991 150.477 297.967C150.501 297.944 150.436 297.833 150.325 297.721C150.219 297.61 150.107 297.54 150.084 297.563Z" fill="#263238"/>
<path d="M148.969 297.106C148.974 297.141 149.115 297.141 149.274 297.199C149.432 297.252 149.538 297.34 149.567 297.317C149.597 297.299 149.509 297.147 149.315 297.076C149.121 297.006 148.957 297.071 148.969 297.106Z" fill="#263238"/>
<path d="M148.17 296.884C148.158 296.919 148.217 296.971 148.305 297.007C148.393 297.042 148.475 297.042 148.487 297.012C148.499 296.977 148.44 296.925 148.352 296.889C148.264 296.854 148.182 296.854 148.17 296.884Z" fill="#263238"/>
<path d="M165.623 188.75L161.549 294.996L145.012 295.342L147.759 203.283L129.156 296.045H113.435L133.688 188.967L165.623 188.75Z" fill="#263238"/>
<path d="M151.569 192.617C151.61 192.623 151.534 193.291 151.381 194.369C151.229 195.448 150.994 196.93 150.718 198.565C150.571 199.38 150.477 200.165 150.248 200.874C150.025 201.577 149.62 202.157 149.168 202.497C148.722 202.849 148.276 202.989 147.97 203.03C147.659 203.071 147.489 203.036 147.489 203.025C147.471 202.966 148.223 203.036 149.039 202.339C149.444 202.005 149.796 201.466 149.996 200.792C150.201 200.124 150.289 199.333 150.436 198.518C150.712 196.883 150.976 195.407 151.182 194.34C151.381 193.262 151.528 192.606 151.569 192.617Z" fill="#455A64"/>
<path d="M148.129 193.122C148.164 193.145 148.029 193.321 148.105 193.596C148.14 193.731 148.234 193.883 148.381 193.954C148.522 194.024 148.722 193.989 148.874 193.854C149.027 193.719 149.091 193.526 149.033 193.379C148.986 193.227 148.845 193.116 148.716 193.057C148.446 192.946 148.258 193.057 148.24 193.016C148.205 192.999 148.393 192.776 148.78 192.858C148.956 192.905 149.18 193.022 149.285 193.28C149.397 193.538 149.291 193.878 149.068 194.065C148.851 194.264 148.499 194.329 148.258 194.182C148.017 194.042 147.923 193.807 147.906 193.626C147.865 193.245 148.117 193.086 148.129 193.122Z" fill="#455A64"/>
<path d="M139.247 194.639C139.177 194.663 138.936 193.989 139.03 193.128C139.118 192.266 139.499 191.657 139.564 191.692C139.64 191.727 139.405 192.354 139.323 193.157C139.229 193.96 139.329 194.622 139.247 194.639Z" fill="#455A64"/>
<path d="M141.237 194.51C141.166 194.534 140.931 193.836 141.002 192.951C141.061 192.066 141.383 191.41 141.454 191.439C141.536 191.469 141.348 192.137 141.289 192.975C141.225 193.807 141.319 194.498 141.237 194.51Z" fill="#455A64"/>
<path d="M158.326 194.944C158.244 194.921 158.379 194.217 158.42 193.35C158.467 192.477 158.408 191.768 158.49 191.756C158.567 191.739 158.76 192.459 158.707 193.368C158.666 194.276 158.402 194.967 158.326 194.944Z" fill="#455A64"/>
<path d="M160.486 194.826C160.404 194.791 160.662 194.1 160.721 193.209C160.791 192.318 160.627 191.592 160.715 191.574C160.785 191.545 161.085 192.277 161.014 193.232C160.95 194.182 160.551 194.862 160.486 194.826Z" fill="#455A64"/>
<path d="M142.581 144.549L152.79 143.734C152.855 142.545 152.766 137.939 152.766 137.939C152.766 137.939 157.017 137.277 157.07 133.04C157.122 128.797 156.383 119.064 156.383 119.064C151.463 116.954 145.792 117.669 141.548 120.927L140.92 121.414L142.581 144.549Z" fill="#FFBE9D"/>
<path d="M152.778 137.88C152.778 137.88 150.096 138.097 147.243 136.31C147.243 136.31 148.552 139.363 152.79 138.982L152.778 137.88Z" fill="#EB996E"/>
<path d="M154.733 125.709C154.744 126.031 154.48 126.301 154.146 126.318C153.811 126.336 153.529 126.09 153.517 125.773C153.506 125.451 153.77 125.182 154.105 125.164C154.439 125.146 154.721 125.393 154.733 125.709Z" fill="#263238"/>
<path d="M155.584 125.029C155.508 125.106 155.05 124.772 154.398 124.772C153.746 124.766 153.265 125.1 153.195 125.018C153.159 124.982 153.236 124.842 153.447 124.689C153.652 124.537 154.005 124.391 154.41 124.391C154.815 124.391 155.161 124.543 155.355 124.695C155.554 124.854 155.619 124.994 155.584 125.029Z" fill="#263238"/>
<path d="M148.139 125.861C148.151 126.184 147.887 126.453 147.552 126.471C147.217 126.488 146.936 126.242 146.924 125.926C146.912 125.603 147.176 125.334 147.511 125.316C147.846 125.299 148.127 125.545 148.139 125.861Z" fill="#263238"/>
<path d="M149.167 125.153C149.091 125.23 148.633 124.896 147.981 124.896C147.33 124.89 146.848 125.224 146.778 125.142C146.743 125.107 146.819 124.966 147.03 124.814C147.236 124.661 147.588 124.515 147.993 124.515C148.398 124.515 148.745 124.667 148.938 124.819C149.132 124.972 149.203 125.118 149.167 125.153Z" fill="#263238"/>
<path d="M151.533 129.981C151.527 129.946 151.938 129.876 152.596 129.788C152.76 129.77 152.919 129.735 152.948 129.624C152.989 129.501 152.919 129.325 152.836 129.132C152.678 128.727 152.514 128.305 152.343 127.866C151.656 126.061 151.163 124.579 151.234 124.549C151.304 124.52 151.921 125.962 152.607 127.766C152.772 128.212 152.93 128.634 153.077 129.038C153.142 129.225 153.247 129.442 153.165 129.688C153.118 129.811 153.001 129.905 152.889 129.935C152.784 129.97 152.69 129.97 152.607 129.976C151.95 130.017 151.539 130.022 151.533 129.981Z" fill="#263238"/>
<path d="M149.613 130.433C149.719 130.427 149.719 131.136 150.33 131.634C150.934 132.138 151.692 132.056 151.697 132.155C151.709 132.202 151.527 132.29 151.21 132.302C150.899 132.314 150.441 132.214 150.071 131.904C149.702 131.593 149.543 131.183 149.52 130.896C149.484 130.608 149.566 130.433 149.613 130.433Z" fill="#263238"/>
<path d="M149.338 122.597C149.273 122.773 148.622 122.691 147.859 122.785C147.09 122.861 146.473 123.084 146.373 122.925C146.326 122.849 146.438 122.685 146.684 122.509C146.931 122.339 147.324 122.175 147.788 122.123C148.246 122.07 148.669 122.146 148.95 122.257C149.22 122.375 149.361 122.515 149.338 122.597Z" fill="#263238"/>
<path d="M155.344 123.143C155.226 123.289 154.78 123.137 154.24 123.131C153.7 123.107 153.242 123.23 153.136 123.078C153.089 123.002 153.16 122.855 153.365 122.715C153.565 122.574 153.894 122.463 154.263 122.474C154.633 122.486 154.956 122.621 155.144 122.773C155.332 122.92 155.396 123.072 155.344 123.143Z" fill="#263238"/>
<path d="M141.448 125.802C141.378 125.773 138.531 124.941 138.625 127.842C138.719 130.742 141.613 130.051 141.618 129.969C141.618 129.881 141.448 125.802 141.448 125.802Z" fill="#FFBE9D"/>
<path d="M140.691 128.891C140.679 128.879 140.644 128.926 140.556 128.967C140.474 129.008 140.333 129.038 140.18 128.985C139.869 128.879 139.593 128.405 139.564 127.883C139.546 127.619 139.593 127.367 139.681 127.157C139.763 126.94 139.898 126.787 140.051 126.758C140.204 126.717 140.315 126.805 140.356 126.887C140.397 126.969 140.38 127.028 140.397 127.028C140.403 127.033 140.456 126.975 140.433 126.858C140.421 126.799 140.38 126.735 140.315 126.682C140.245 126.629 140.139 126.6 140.033 126.617C139.81 126.641 139.617 126.852 139.517 127.086C139.411 127.321 139.347 127.602 139.37 127.901C139.405 128.487 139.722 129.02 140.151 129.131C140.356 129.178 140.527 129.114 140.609 129.038C140.691 128.961 140.703 128.897 140.691 128.891Z" fill="#EB996E"/>
<path d="M158.015 115.401C157.398 114.183 156.195 113.28 154.856 113.022C153.518 112.765 152.062 113.157 151.041 114.06C150.401 112.782 149.097 111.862 147.677 111.675C146.256 111.493 144.765 112.05 143.814 113.122C142.998 114.042 142.575 115.296 141.624 116.07C140.797 116.738 139.681 116.966 138.848 117.628C137.932 118.361 137.48 119.621 137.715 120.769C137.95 121.918 138.865 122.896 139.992 123.207C139.083 124.848 139.934 127.198 141.689 127.877L142.112 127.701C143.72 125.944 144.084 123.16 142.992 121.045C143.045 121.045 143.092 121.039 143.145 121.039C143.703 121.343 144.348 121.496 144.982 121.461C145.998 121.402 146.972 120.863 147.565 120.031C148.728 120.869 150.389 120.933 151.61 120.201C151.804 120.084 151.997 119.949 152.221 119.925C152.485 119.896 152.737 120.037 152.984 120.154C153.624 120.464 154.34 120.67 155.038 120.57C155.696 120.476 156.324 120.066 156.582 119.468C156.6 119.468 156.612 119.468 156.629 119.462C157.445 119.316 158.103 118.619 158.332 117.816C158.549 117.019 158.39 116.146 158.015 115.401Z" fill="#263238"/>
<path d="M164.461 166.295L164.831 147.185C161.432 143.851 159.618 142.855 154.892 142.298C154.393 142.24 153.971 142.193 153.607 142.158L153.202 139.011L141.602 138.354L142.183 142.087C140.498 142.158 139.107 142.673 137.674 142.949C133.166 143.81 129.925 147.086 129.021 150.115C128.282 152.606 123.515 171.071 123.515 171.071L122.546 176.643L133.183 172.787L133.178 176.802L133.201 191.545H165.518C165.6 188.035 164.461 166.295 164.461 166.295Z" fill="#E04E39"/>
<path d="M127.406 171.34L143.333 169.078L146.362 174.493L131.557 181.155C130.729 181.525 129.836 181.718 128.932 181.718C126.338 181.718 124.001 180.153 123.021 177.757L122.54 176.591L127.406 171.34Z" fill="#E04E39"/>
<g opacity="0.2">
<g opacity="0.2">
<path opacity="0.2" d="M127.406 171.34L143.333 169.078L146.362 174.493L131.557 181.155C130.729 181.525 129.836 181.718 128.932 181.718C126.338 181.718 124.001 180.153 123.021 177.757L122.54 176.591L127.406 171.34Z" fill="black"/>
</g>
</g>
<path d="M159.952 143.465C159.952 143.465 164.455 144.994 166.345 149.319C167.578 152.138 169.392 165.709 169.392 165.709L171.675 170.11C172.221 171.165 172.509 172.337 172.509 173.526V174.194C172.509 175.9 171.922 177.552 170.842 178.876C169.574 180.429 167.73 181.408 165.734 181.584C163.451 181.789 160.692 181.877 160.105 181.203C159.065 180.019 157.504 176.825 157.504 176.825L164.161 173.298L161.296 168L159.952 143.465Z" fill="#E04E39"/>
<g opacity="0.2">
<g opacity="0.2">
<path opacity="0.2" d="M159.952 143.465C159.952 143.465 164.455 144.994 166.345 149.319C167.578 152.138 169.392 165.709 169.392 165.709L171.675 170.11C172.221 171.165 172.509 172.337 172.509 173.526V174.194C172.509 175.9 171.922 177.552 170.842 178.876C169.574 180.429 167.73 181.408 165.734 181.584C163.451 181.789 160.692 181.877 160.105 181.203C159.065 180.019 157.504 176.825 157.504 176.825L164.161 173.298L161.296 168L159.952 143.465Z" fill="#E04E39"/>
</g>
</g>
<path d="M132.666 180.657C132.66 180.652 132.748 180.599 132.924 180.511C133.124 180.417 133.376 180.294 133.688 180.142C134.386 179.814 135.355 179.362 136.546 178.811C139.018 177.686 142.423 176.133 146.309 174.364L146.244 174.563C145.64 173.485 145.017 172.371 144.378 171.229C143.978 170.52 143.591 169.816 143.215 169.154L143.356 169.225C138.748 169.676 134.662 170.074 131.686 170.367C130.242 170.496 129.067 170.602 128.216 170.678C127.829 170.707 127.524 170.731 127.277 170.748C127.066 170.76 126.948 170.766 126.948 170.754C126.948 170.742 127.06 170.725 127.271 170.695C127.512 170.666 127.823 170.625 128.205 170.572C129.05 170.473 130.224 170.338 131.662 170.174C134.633 169.858 138.713 169.424 143.321 168.937L143.415 168.926L143.462 169.008C143.832 169.67 144.225 170.373 144.624 171.082C145.264 172.225 145.886 173.344 146.485 174.422L146.561 174.557L146.42 174.622C142.523 176.356 139.1 177.874 136.617 178.976C135.408 179.497 134.433 179.925 133.723 180.23C133.4 180.364 133.142 180.47 132.942 180.558C132.76 180.634 132.666 180.663 132.666 180.657Z" fill="#263238"/>
<path d="M135.49 169.77C135.407 169.77 135.343 166.928 135.343 163.423C135.343 159.919 135.407 157.077 135.49 157.077C135.572 157.077 135.636 159.919 135.636 163.423C135.636 166.928 135.572 169.77 135.49 169.77Z" fill="#263238"/>
<path d="M162.904 174.013C162.904 173.995 163.075 173.96 163.392 173.937C163.703 173.919 164.166 173.884 164.736 174.019C165.012 174.089 165.335 174.218 165.581 174.493C165.81 174.774 165.957 175.12 166.022 175.507C166.086 175.894 166.063 176.316 165.91 176.72C165.763 177.124 165.47 177.488 165.106 177.751C164.36 178.273 163.521 178.419 162.799 178.572C162.065 178.712 161.39 178.765 160.826 178.765C159.687 178.777 159.012 178.49 159.036 178.455C159.047 178.413 159.711 178.624 160.826 178.56C161.378 178.537 162.036 178.46 162.752 178.314C163.462 178.15 164.272 177.986 164.941 177.517C165.616 177.054 165.881 176.239 165.763 175.554C165.716 175.214 165.581 174.886 165.399 174.651C165.217 174.423 164.941 174.294 164.689 174.218C164.167 174.071 163.709 174.065 163.403 174.054C163.08 174.042 162.904 174.036 162.904 174.013Z" fill="#263238"/>
<path d="M165.546 181.7C165.546 181.735 165.118 181.817 164.401 181.835C163.691 181.847 162.681 181.782 161.648 181.378C161.137 181.173 160.668 180.944 160.28 180.651C159.893 180.358 159.617 180.007 159.435 179.696C159.077 179.063 159.001 178.624 159.024 178.618C159.071 178.6 159.224 179.016 159.605 179.59C159.799 179.872 160.069 180.182 160.439 180.44C160.803 180.698 161.267 180.915 161.754 181.114C162.734 181.495 163.709 181.595 164.401 181.636C165.106 181.665 165.546 181.653 165.546 181.7Z" fill="#263238"/>
<path d="M168.728 167.924C168.757 167.942 168.452 168.305 167.941 168.868C167.431 169.43 166.709 170.186 165.899 171.018C165.088 171.844 164.349 172.583 163.797 173.11C163.251 173.638 162.893 173.942 162.864 173.919C162.834 173.89 163.134 173.532 163.644 172.97C164.155 172.407 164.877 171.645 165.681 170.819C167.307 169.161 168.675 167.86 168.728 167.924Z" fill="#263238"/>
<path d="M161.478 164.965C161.396 164.965 161.331 163.341 161.331 161.337C161.331 159.333 161.396 157.71 161.478 157.71C161.56 157.71 161.625 159.333 161.625 161.337C161.619 163.335 161.554 164.965 161.478 164.965Z" fill="#263238"/>
<path d="M163.85 145.926C163.85 146.008 156.682 146.078 147.841 146.078C139 146.078 131.833 146.008 131.833 145.926C131.833 145.844 139 145.773 147.841 145.773C156.682 145.773 163.85 145.844 163.85 145.926Z" fill="#FAFAFA"/>
<path d="M153.283 142.269C153.283 142.351 150.812 142.409 147.759 142.392C144.712 142.374 142.241 142.292 142.241 142.21C142.241 142.128 144.712 142.07 147.765 142.087C150.812 142.099 153.283 142.181 153.283 142.269Z" fill="#263238"/>
<path d="M167.331 152.383C167.331 152.465 158.625 152.535 147.888 152.535C137.151 152.535 128.445 152.465 128.445 152.383C128.445 152.301 137.151 152.23 147.888 152.23C158.625 152.23 167.331 152.301 167.331 152.383Z" fill="#FAFAFA"/>
<path d="M168.534 159.022C168.534 159.105 159.124 159.175 147.524 159.175C135.918 159.175 126.514 159.105 126.514 159.022C126.514 158.94 135.918 158.87 147.524 158.87C159.124 158.87 168.534 158.935 168.534 159.022Z" fill="#FAFAFA"/>
<path d="M169.286 165.475C169.286 165.557 159.359 165.627 147.113 165.627C134.867 165.627 124.94 165.557 124.94 165.475C124.94 165.393 134.867 165.322 147.113 165.322C159.359 165.322 169.286 165.393 169.286 165.475Z" fill="#FAFAFA"/>
<path d="M172.286 175.987C172.286 176.069 161.249 176.14 147.642 176.14C134.028 176.14 122.998 176.069 122.998 175.987C122.998 175.905 134.028 175.835 147.642 175.835C161.249 175.835 172.286 175.899 172.286 175.987Z" fill="#FAFAFA"/>
<path d="M165.206 183.358C165.206 183.44 157.926 183.511 148.951 183.511C139.969 183.511 132.695 183.44 132.695 183.358C132.695 183.276 139.975 183.206 148.951 183.206C157.926 183.206 165.206 183.276 165.206 183.358Z" fill="#FAFAFA"/>
<path d="M157.68 166.477L157.334 166.219C155.543 164.878 153.266 164.35 151.064 164.772C149.274 165.112 147.595 165.903 146.186 167.057L143.456 169.302L146.362 174.494L148.334 171.734C148.334 171.734 150.178 174.23 150.506 173.966C150.835 173.703 151.228 172.917 151.228 172.917L149.914 171.077L153.072 171.734L157.68 169.63L155.708 167.134L157.68 167.79V166.477Z" fill="#FFBE9D"/>
<path d="M152.819 166.002L142.681 178.255L143.456 179.099L159.911 176.597L168.065 164.338L167.308 163.658L152.819 166.002Z" fill="#263238"/>
<path d="M163.568 169.237C162.922 169.237 162.335 169.63 162.106 170.233C161.86 170.866 161.508 171.611 161.108 171.822C160.375 172.22 159.112 172.536 158.449 172.214C157.786 171.892 155.126 169.501 154.663 169.765C154.199 170.028 153.8 170.626 154.263 171.159C154.727 171.693 157.187 173.281 156.723 173.814C156.259 174.347 151.076 172.009 150.277 172.214C149.479 172.419 149.015 172.911 149.479 173.228C149.943 173.544 153.465 174.875 153.665 175.338C153.665 175.338 148.346 173.943 148.146 174.277C147.947 174.611 147.612 175.138 148.146 175.338C148.681 175.537 153.265 176.732 153.665 176.931C154.064 177.131 155.437 177.529 155.713 177.529C155.86 177.529 156.899 177.875 157.856 178.209C158.93 178.578 160.11 178.549 161.161 178.121L161.701 177.904C162.541 177.564 163.063 176.726 163.01 175.83L162.899 174.019L163.48 172.525L163.568 169.237Z" fill="#FFBE9D"/>
<path d="M168.094 164.45C168.094 164.461 167.988 164.485 167.789 164.526C167.554 164.567 167.266 164.62 166.908 164.684C166.104 164.813 165.006 164.989 163.668 165.206C162.282 165.417 160.656 165.663 158.854 165.938C157.95 166.073 156.999 166.219 156.013 166.366C155.044 166.53 154.034 166.8 153.259 167.479C152.479 168.153 151.892 169.015 151.252 169.776C150.63 170.55 150.025 171.3 149.45 172.015C148.305 173.433 147.266 174.71 146.391 175.795C145.534 176.843 144.824 177.699 144.307 178.326C144.072 178.601 143.884 178.824 143.732 179.006C143.597 179.158 143.52 179.234 143.515 179.228C143.509 179.223 143.567 179.135 143.685 178.965C143.826 178.777 144.002 178.537 144.219 178.25C144.718 177.605 145.399 176.726 146.227 175.66C147.09 174.564 148.111 173.269 149.238 171.839C149.808 171.118 150.406 170.368 151.023 169.589C151.657 168.821 152.238 167.96 153.066 167.245C153.899 166.518 154.98 166.231 155.96 166.073C156.946 165.932 157.897 165.792 158.807 165.657C160.615 165.405 162.247 165.176 163.633 164.983C164.977 164.807 166.081 164.661 166.891 164.555C167.249 164.514 167.542 164.479 167.777 164.456C167.988 164.45 168.094 164.444 168.094 164.45Z" fill="#455A64"/>
<path d="M160.404 167.139C160.234 167.238 160.058 167.344 159.946 167.508C159.835 167.672 159.805 167.906 159.929 168.059C160.087 168.252 160.404 168.217 160.61 168.07C160.739 167.977 160.845 167.836 160.874 167.678C160.903 167.52 160.856 167.344 160.733 167.238C160.61 167.133 160.41 167.121 160.287 167.221" fill="#FAFAFA"/>
<path d="M112.378 139.58L109.396 134.335C110.717 132.202 111.474 129.682 111.474 126.993C111.474 119.252 105.187 112.97 97.4259 112.97C89.671 112.97 83.3779 119.246 83.3779 126.993C83.3779 134.734 89.6652 141.015 97.4259 141.015C100.666 141.015 103.649 139.92 106.02 138.08L106.014 138.085L112.378 139.58Z" fill="#E04E39"/>
<path d="M92.542 125.287C92.542 124.022 93.3051 123.213 94.3912 123.213C95.4713 123.213 96.2286 124.01 96.2286 125.287C96.2286 126.565 95.4772 127.362 94.3912 127.362C93.3051 127.356 92.542 126.553 92.542 125.287ZM95.1661 125.287C95.1661 124.485 94.8608 124.098 94.3912 124.098C93.9333 124.098 93.6163 124.496 93.6163 125.287C93.6163 126.084 93.9333 126.477 94.3912 126.477C94.8549 126.477 95.1661 126.09 95.1661 125.287ZM98.8116 123.301H100.074L95.0017 130.819H93.7396L98.8116 123.301ZM97.5964 128.833C97.5964 127.567 98.3596 126.758 99.4339 126.758C100.514 126.758 101.283 127.561 101.283 128.833C101.283 130.098 100.52 130.907 99.4339 130.907C98.3596 130.901 97.5964 130.098 97.5964 128.833ZM100.203 128.833C100.203 128.036 99.8976 127.643 99.428 127.643C98.9701 127.643 98.6531 128.03 98.6531 128.833C98.6531 129.635 98.9701 130.022 99.428 130.022C99.8976 130.022 100.203 129.624 100.203 128.833Z" fill="white"/>
</g>
<defs>
<clipPath id="clip0">
<rect y="42" width="394" height="266" fill="white"/>
</clipPath>
</defs>
</svg>
