<svg width="371" height="310" viewBox="0 0 371 310" fill="none" xmlns="http://www.w3.org/2000/svg">
<g clip-path="url(#clip0)">
<path d="M292.225 11.3091C249.009 -13.4158 210.726 6.98289 191.589 28.6138C172.452 50.2448 158.178 72.1816 134.169 76.2019C110.169 80.231 73.6673 70.0229 46.4982 89.1805C19.3291 108.338 19.4076 159.221 40.9456 188.071C62.4749 216.921 118.123 230.712 182.326 239.985C208.902 243.822 231.758 241.436 251.402 236.149L280.57 225.547C294.809 219.045 306.805 211.703 316.871 205.752C332.254 196.662 337.667 174.507 340.618 158.286C344.616 136.279 344.835 109.798 339.527 84.8456C333.049 54.4049 318.347 26.2541 292.225 11.3091Z" fill="#D1D9DD"/>
<path opacity="0.8" d="M292.225 11.3091C249.009 -13.4158 210.726 6.98289 191.589 28.6138C172.452 50.2448 158.178 72.1816 134.169 76.2019C110.169 80.231 73.6673 70.0229 46.4982 89.1805C19.3291 108.338 19.4076 159.221 40.9456 188.071C62.4749 216.921 118.123 230.712 182.326 239.985C208.902 243.822 231.758 241.436 251.402 236.149L280.57 225.547C294.809 219.045 306.805 211.703 316.871 205.752C332.254 196.662 337.667 174.507 340.618 158.286C344.616 136.279 344.835 109.798 339.527 84.8456C333.049 54.4049 318.347 26.2541 292.225 11.3091Z" fill="white"/>
<path opacity="0.8" d="M358.288 41.6012C357.311 25.4588 346.275 20.1538 339.265 27.8448C335.842 31.5941 334.996 37.0303 336.759 41.7935C339.212 48.4182 343.429 60.1907 345.935 69.4112C349.637 83.0103 348.406 93.5155 352.727 87.9482C357.057 82.3897 359.519 61.9911 358.288 41.6012Z" fill="#D1D9DD"/>
<path opacity="0.8" d="M358.288 41.6012C357.311 25.4588 346.275 20.1538 339.265 27.8448C335.842 31.5941 334.996 37.0303 336.759 41.7935C339.212 48.4182 343.429 60.1907 345.935 69.4112C349.637 83.0103 348.406 93.5155 352.727 87.9482C357.057 82.3897 359.519 61.9911 358.288 41.6012Z" fill="white"/>
<path d="M171.841 39.1276C178.633 37.8952 187.277 21.8228 198.39 15.0232C209.504 8.2237 199.621 3.27698 189.127 8.2237C189.127 8.2237 181.104 10.0765 174.932 22.4346C168.751 34.8014 165.049 40.3599 171.841 39.1276Z" fill="#D1D9DD"/>
<path opacity="0.8" d="M171.841 39.1276C178.633 37.8952 187.277 21.8228 198.39 15.0232C209.504 8.2237 199.621 3.27698 189.127 8.2237C189.127 8.2237 181.104 10.0765 174.932 22.4346C168.751 34.8014 165.049 40.3599 171.841 39.1276Z" fill="white"/>
<path d="M160.727 30.4758C166.236 28.2646 172.243 13.2497 166.001 14.0188C164.394 14.2198 163.041 15.3297 162.377 16.8155C160.369 21.2815 155.768 32.4597 160.727 30.4758Z" fill="#D1D9DD"/>
<path opacity="0.8" d="M160.727 30.4758C166.236 28.2646 172.243 13.2497 166.001 14.0188C164.394 14.2198 163.041 15.3297 162.377 16.8155C160.369 21.2815 155.768 32.4597 160.727 30.4758Z" fill="white"/>
<path d="M194.366 310C291.918 310 371 307.058 371 303.428C371 299.798 291.918 296.855 194.366 296.855C96.8135 296.855 17.7317 299.798 17.7317 303.428C17.7317 307.058 96.8135 310 194.366 310Z" fill="#D1D9DD"/>
<path opacity="0.8" d="M194.366 310C291.918 310 371 307.058 371 303.428C371 299.798 291.918 296.855 194.366 296.855C96.8135 296.855 17.7317 299.798 17.7317 303.428C17.7317 307.058 96.8135 310 194.366 310Z" fill="white"/>
<path d="M279.26 56.3545C278.536 56.3545 277.951 56.9401 277.951 57.6655V64.3863H254.021V57.6655C254.021 56.9401 253.436 56.3545 252.711 56.3545C251.987 56.3545 251.402 56.9401 251.402 57.6655V226.981C251.402 227.707 251.987 228.292 252.711 228.292C253.436 228.292 254.021 227.707 254.021 226.981V189.112H277.951V226.981C277.951 227.707 278.536 228.292 279.26 228.292C279.985 228.292 280.57 227.707 280.57 226.981V57.6655C280.57 56.9401 279.985 56.3545 279.26 56.3545ZM277.951 186.499H254.021V178.003H277.951V186.499ZM277.951 175.373H254.021V166.886H277.951V175.373ZM277.951 164.256H254.021V155.796H277.951V164.256ZM277.951 153.139H254.021V144.722H277.951V153.139ZM277.951 142.048H254.021V133.719H277.951V142.048ZM277.951 130.975H254.021V122.602H277.951V130.975ZM277.951 119.971H254.021V111.511H277.951V119.971ZM277.951 108.854H254.021V100.394H277.951V108.854ZM277.951 97.7636H254.021V89.2685H277.951V97.7636ZM277.951 86.6466H254.021V78.1428H277.951V86.6466ZM277.951 75.5121H254.021V67.0083H277.951V75.5121Z" fill="white"/>
<path d="M52.5922 192.869C52.5922 192.869 72.1833 166.003 62.6322 159.702C52.6882 153.138 48.0087 173.021 45.9134 182.784C41.426 203.619 42.7006 208.042 45.7039 203.462L52.5922 192.869Z" fill="#D1D9DD"/>
<path opacity="0.5" d="M52.5922 192.869C52.5922 192.869 72.1833 166.003 62.6322 159.702C52.6882 153.138 48.0087 173.021 45.9134 182.784C41.426 203.619 42.7006 208.042 45.7039 203.462L52.5922 192.869Z" fill="white"/>
<path d="M59.9693 209.387C59.9693 209.387 87.217 190.352 80.2239 181.28C72.9427 171.841 62.0733 189.12 56.9224 197.676C45.9133 215.924 45.6863 220.522 50.0166 217.166L59.9693 209.387Z" fill="#D1D9DD"/>
<path opacity="0.5" d="M59.9693 209.387C59.9693 209.387 87.217 190.352 80.2239 181.28C72.9427 171.841 62.0733 189.12 56.9224 197.676C45.9133 215.924 45.6863 220.522 50.0166 217.166L59.9693 209.387Z" fill="white"/>
<path d="M60.5282 231.465C60.5282 231.465 84.1178 220.863 80.0844 212.91C75.885 204.633 65.0767 216.275 59.8908 222.061C48.8381 234.419 47.9913 237.897 51.789 235.957L60.5282 231.465Z" fill="#D1D9DD"/>
<path opacity="0.5" d="M60.5282 231.465C60.5282 231.465 84.1178 220.863 80.0844 212.91C75.885 204.633 65.0767 216.275 59.8908 222.061C48.8381 234.419 47.9913 237.897 51.789 235.957L60.5282 231.465Z" fill="white"/>
<path d="M61.9249 253.637C61.9249 253.637 85.5145 243.036 81.4811 235.083C77.2817 226.806 66.4735 238.448 61.2876 244.233C50.2348 256.591 49.388 260.07 53.1857 258.13L61.9249 253.637Z" fill="#D1D9DD"/>
<path opacity="0.5" d="M61.9249 253.637C61.9249 253.637 85.5145 243.036 81.4811 235.083C77.2817 226.806 66.4735 238.448 61.2876 244.233C50.2348 256.591 49.388 260.07 53.1857 258.13L61.9249 253.637Z" fill="white"/>
<path d="M34.2757 204.1C34.2757 204.1 8.36376 183.273 1.63259 192.537C-5.37795 202.186 14.2481 207.771 23.8952 210.323C44.4816 215.767 48.9516 214.701 44.5165 211.476L34.2757 204.1Z" fill="#D1D9DD"/>
<path opacity="0.5" d="M34.2757 204.1C34.2757 204.1 8.36376 183.273 1.63259 192.537C-5.37795 202.186 14.2481 207.771 23.8952 210.323C44.4816 215.767 48.9516 214.701 44.5165 211.476L34.2757 204.1Z" fill="white"/>
<path d="M35.0527 221.492C35.0527 221.492 5.52634 206.233 0.768246 216.659C-4.18191 227.505 16.16 229.078 26.1214 229.655C47.3801 230.896 51.5532 228.956 46.5594 226.684L35.0527 221.492Z" fill="#D1D9DD"/>
<path opacity="0.5" d="M35.0527 221.492C35.0527 221.492 5.52634 206.233 0.768246 216.659C-4.18191 227.505 16.16 229.078 26.1214 229.655C47.3801 230.896 51.5532 228.956 46.5594 226.684L35.0527 221.492Z" fill="white"/>
<path d="M38.6235 240.999C38.6235 240.999 13.3053 228.781 9.51625 237.704C5.57882 246.995 22.8214 247.851 31.255 248.105C49.2572 248.655 52.7406 246.925 48.4715 245.116L38.6235 240.999Z" fill="#D1D9DD"/>
<path opacity="0.5" d="M38.6235 240.999C38.6235 240.999 13.3053 228.781 9.51625 237.704C5.57882 246.995 22.8214 247.851 31.255 248.105C49.2572 248.655 52.7406 246.925 48.4715 245.116L38.6235 240.999Z" fill="white"/>
<path d="M39.8283 256.748C39.8283 256.748 15.9418 241.908 11.2361 250.377C6.33832 259.195 23.3889 261.879 31.7526 263.032C49.5976 265.497 53.247 264.142 49.1873 261.887L39.8283 256.748Z" fill="#D1D9DD"/>
<path opacity="0.5" d="M39.8283 256.748C39.8283 256.748 15.9418 241.908 11.2361 250.377C6.33832 259.195 23.3889 261.879 31.7526 263.032C49.5976 265.497 53.247 264.142 49.1873 261.887L39.8283 256.748Z" fill="white"/>
<path d="M37.5932 177.706C37.5932 177.706 33.1057 138.691 18.4036 142.685C3.09919 146.837 15.898 166.58 22.3673 176.098C36.1788 196.409 41.2512 198.655 40.1599 192.31L37.5932 177.706Z" fill="#D1D9DD"/>
<path opacity="0.5" d="M37.5932 177.706C37.5932 177.706 33.1057 138.691 18.4036 142.685C3.09919 146.837 15.898 166.58 22.3673 176.098C36.1788 196.409 41.2512 198.655 40.1599 192.31L37.5932 177.706Z" fill="white"/>
<path d="M21.3984 156.861C21.3984 156.861 43.8007 198.908 47.2842 218.416C51.2827 240.824 51.9288 265.855 49.17 285.467" stroke="#D1D9DD" stroke-width="1.252" stroke-miterlimit="10" stroke-linecap="round" stroke-linejoin="round"/>
<path d="M43.7395 205.446L54.7137 171.789" stroke="#D1D9DD" stroke-width="1.252" stroke-miterlimit="10" stroke-linecap="round" stroke-linejoin="round"/>
<path d="M47.2839 218.425L67.9314 192.415" stroke="#D1D9DD" stroke-width="1.252" stroke-miterlimit="10" stroke-linecap="round" stroke-linejoin="round"/>
<path d="M45.9571 213.696L16.0466 201.119" stroke="#D1D9DD" stroke-width="1.252" stroke-miterlimit="10" stroke-linecap="round" stroke-linejoin="round"/>
<path d="M49.8682 236.027L72.3578 218.774" stroke="#D1D9DD" stroke-width="1.252" stroke-miterlimit="10" stroke-linecap="round" stroke-linejoin="round"/>
<path d="M48.6721 228.632L25.1785 223.729" stroke="#D1D9DD" stroke-width="1.252" stroke-miterlimit="10" stroke-linecap="round" stroke-linejoin="round"/>
<path d="M49.7985 246.645L31.6042 243.761" stroke="#D1D9DD" stroke-width="1.252" stroke-miterlimit="10" stroke-linecap="round" stroke-linejoin="round"/>
<path d="M51.335 258.304L63.575 247.327" stroke="#D1D9DD" stroke-width="1.252" stroke-miterlimit="10" stroke-linecap="round" stroke-linejoin="round"/>
<path d="M50.6364 263.067L30.5564 257.823" stroke="#D1D9DD" stroke-width="1.252" stroke-miterlimit="10" stroke-linecap="round" stroke-linejoin="round"/>
<path d="M35.6028 269.648H60.3187V274.761H58.171L53.701 302.711H42.2205L37.7592 274.761H35.6028V269.648Z" fill="#738D9A"/>
<path opacity="0.5" d="M35.6028 269.648H60.3187V274.761H58.171L53.701 302.711H42.2205L37.7592 274.761H35.6028V269.648Z" fill="white"/>
<path d="M76.3041 5.80349C76.3041 5.80349 73.1001 2.59599 68.2983 4.20411C63.4966 5.80349 58.8956 12.7604 60.0568 18.6335C60.86 22.7062 64.6315 28.7105 65.7752 31.0003C66.9189 33.2901 65.3212 37.188 61.6544 45.2024C57.9964 53.2168 56.617 60.7767 67.1459 67.4277C77.6748 74.0699 89.5744 63.5297 95.7555 55.9698C101.937 48.4099 91.1808 31.0003 90.2641 23.6676C89.3474 16.3349 87.741 2.13279 76.3041 5.80349Z" fill="#263238"/>
<path d="M101.055 56.4766C91.9752 65.4785 80.8701 63.7568 80.8701 63.7568L78.3557 74.297L83.1575 98.3488L114.508 82.0841L107.411 63.7568L101.055 56.4766Z" fill="#C39367" stroke="#263238" stroke-miterlimit="10" stroke-linecap="round" stroke-linejoin="round"/>
<path opacity="0.3" d="M101.055 56.4766C91.9752 65.4785 80.8701 63.7568 80.8701 63.7568L78.3557 74.297L83.1575 98.3488L114.508 82.0841L107.411 63.7568L101.055 56.4766Z" fill="#263238"/>
<path d="M101.055 56.4764L101.011 56.4239L96.2094 24.5762L82.0224 27.5564L74.9246 32.1361C74.9246 32.1361 66.4561 38.7783 66.4561 39.4688C66.4561 40.1592 80.7827 64.1499 80.7827 64.1499C80.7827 64.1499 91.9839 65.4783 101.055 56.4764Z" fill="#D1D9DD"/>
<path opacity="0.5" d="M107.428 63.7566L101.02 56.4239L96.2182 24.5762L82.0312 27.5564L78.6787 29.7239L79.7438 44.1533C79.7438 44.1533 81.5685 45.1671 82.5812 45.1671C83.5939 45.1671 84.4059 42.9384 84.4059 42.9384L85.6194 40.9108C85.6194 40.9108 87.4441 42.5364 90.2727 41.3129C93.1101 40.098 91.4863 35.6407 91.0847 34.0151C90.6831 32.3895 94.9348 33.4033 94.9348 33.4033C94.9348 33.4033 98.3746 40.9021 98.7849 43.3405C99.1865 45.7701 96.9602 52.4648 97.161 53.8807C97.3618 55.2965 97.3618 57.9359 96.5499 58.7487C95.738 59.5615 92.9093 64.0188 92.9093 64.0188C92.9093 64.0188 104.853 65.0326 106.075 65.0326C106.337 65.0326 106.965 64.9015 107.803 64.683L107.428 63.7566Z" fill="#D1D9DD"/>
<path d="M101.055 56.4764L101.011 56.4239L96.2094 24.5762L82.0224 27.5564L74.9246 32.1361C74.9246 32.1361 66.4561 38.7783 66.4561 39.4688C66.4561 40.1592 80.7827 64.1499 80.7827 64.1499C80.7827 64.1499 91.9839 65.4783 101.055 56.4764Z" fill="#D1D9DD" stroke="#263238" stroke-miterlimit="10" stroke-linecap="round" stroke-linejoin="round"/>
<path d="M82.2671 40.9637L82.66 41.3744L85.1045 43.9614L85.7331 53.9073L88.7276 53.4266L86.3704 44.1187L90.1507 52.0107L93.3024 48.8557L86.5275 42.7029L86.3704 37.8086L82.8957 36.0781" fill="#263238"/>
<path d="M76.7581 29.1651C76.7581 29.1651 73.781 30.5373 73.781 33.2903C73.781 36.0433 77.0025 42.5545 79.0629 43.9353C81.1233 45.3162 84.5369 39.0236 84.5369 39.0236C84.5369 39.0236 89.8014 41.5406 91.172 39.2508C92.5427 36.961 87.968 29.4011 84.9909 27.3385C82.0225 25.2759 76.7581 29.1651 76.7581 29.1651Z" fill="#F7F9FA" stroke="#263238" stroke-miterlimit="10" stroke-linecap="round" stroke-linejoin="round"/>
<path d="M76.0698 26.3167L82.0127 24.2067C82.063 24.2145 82.1289 24.2254 82.2077 24.2397C82.3414 24.2641 82.5113 24.2985 82.7042 24.345L83.9441 30.3819C82.8021 32.0678 81.3328 33.24 79.7701 33.1327C78.6224 33.0504 77.5124 32.487 76.5778 31.8207C76.2628 30.6114 75.7869 29.1954 75.3962 28.0956L76.0698 26.3167Z" fill="#E2D2C3" stroke="#263238"/>
<path d="M74.2437 26.4211C74.2437 26.4211 75.8413 30.5462 76.304 32.8361C76.758 35.1259 82.9392 39.0238 83.6289 39.2511C84.3186 39.4783 84.7726 31.9184 84.7726 31.9184L82.9392 22.9863L74.2437 26.4211Z" stroke="#263238" stroke-miterlimit="10" stroke-linecap="round" stroke-linejoin="round"/>
<path d="M70.123 22.5232C70.123 22.5232 67.6086 20.4606 67.6086 22.5232C67.6086 24.5857 69.896 25.7306 71.7294 25.7306" fill="white"/>
<path d="M70.123 22.5232C70.123 22.5232 67.6086 20.4606 67.6086 22.5232C67.6086 24.5857 69.896 25.7306 71.7294 25.7306" stroke="#263238" stroke-miterlimit="10" stroke-linecap="round" stroke-linejoin="round"/>
<path d="M83.6201 15.8805C83.6201 15.8805 85.2178 13.3634 85.6805 16.1077C86.1345 18.8607 84.3098 21.1505 84.3098 21.1505L83.6201 15.8805Z" fill="white" stroke="#263238" stroke-miterlimit="10" stroke-linecap="round" stroke-linejoin="round"/>
<g opacity="0.5">
<path d="M70.123 22.5232C70.123 22.5232 67.6086 20.4606 67.6086 22.5232C67.6086 24.5857 69.896 25.7306 71.7294 25.7306" fill="#DFC7B1"/>
<path d="M70.123 22.5232C70.123 22.5232 67.6086 20.4606 67.6086 22.5232C67.6086 24.5857 69.896 25.7306 71.7294 25.7306" stroke="#263238" stroke-miterlimit="10" stroke-linecap="round" stroke-linejoin="round"/>
</g>
<path opacity="0.5" d="M83.6201 15.8805C83.6201 15.8805 85.2178 13.3634 85.6805 16.1077C86.1345 18.8607 84.3098 21.1505 84.3098 21.1505L83.6201 15.8805Z" fill="#DFC7B1" stroke="#263238" stroke-miterlimit="10" stroke-linecap="round" stroke-linejoin="round"/>
<path d="M67.2856 15.898C67.2856 15.898 69.25 24.0871 73.4668 28.1162C77.6836 32.1452 82.206 32.1976 83.76 24.9873C85.0434 19.0355 81.8567 11.1086 81.8567 11.1086C81.8567 11.1086 71.5723 2.65718 67.2856 15.898Z" fill="#E2D2C3"/>
<path opacity="0.5" d="M74.6106 8.46892L76.2083 12.4892C76.2083 12.4892 78.7139 11.9299 80.137 14.9713C81.5513 18.0128 82.9744 22.47 82.1624 25.9223C81.3941 29.2084 79.5084 30.2834 76.7059 30.3708C79.7965 31.6905 82.599 30.3533 83.7601 24.9958C85.0435 19.0441 81.8569 11.1171 81.8569 11.1171C81.8569 11.1171 78.3734 8.25042 74.6106 8.46892Z" fill="#DDBC9E"/>
<path d="M67.2856 15.898C67.2856 15.898 69.25 24.0871 73.4668 28.1162C77.6836 32.1452 82.206 32.1976 83.76 24.9873C85.0434 19.0355 81.8567 11.1086 81.8567 11.1086C81.8567 11.1086 71.5723 2.65718 67.2856 15.898Z" stroke="#263238" stroke-miterlimit="10" stroke-linecap="round" stroke-linejoin="round"/>
<path d="M75.0991 20.2242C75.3435 20.6874 75.2912 21.1856 75.0031 21.3342C74.7062 21.4915 74.2697 21.238 74.034 20.7836C73.7895 20.3204 73.8419 19.8222 74.13 19.6736C74.4181 19.5163 74.8546 19.761 75.0991 20.2242Z" fill="#263238"/>
<path d="M79.6478 18.8255C79.8225 19.3149 79.709 19.8044 79.3947 19.918C79.0804 20.0316 78.6875 19.7257 78.5129 19.2363C78.3383 18.7469 78.4518 18.2574 78.7661 18.1438C79.0804 18.0302 79.4732 18.3361 79.6478 18.8255Z" fill="#263238"/>
<path d="M79.971 16.2214C79.971 16.2214 78.8535 15.3824 77.5963 16.3612C76.3391 17.3401 78.7138 22.2431 78.7138 22.2431C78.7138 22.2431 78.7574 23.7813 76.7756 23.0734" stroke="#263238" stroke-width="0.5" stroke-miterlimit="10" stroke-linecap="round" stroke-linejoin="round"/>
<path d="M79.9709 24.6289C79.9709 24.6289 78.8534 27.0061 76.47 25.4679" stroke="#263238" stroke-width="0.5" stroke-miterlimit="10" stroke-linecap="round" stroke-linejoin="round"/>
<path d="M74.6542 17.4798C74.6542 17.4798 72.4192 15.3823 71.4326 19.4375" stroke="#263238" stroke-width="0.5" stroke-miterlimit="10" stroke-linecap="round" stroke-linejoin="round"/>
<path d="M81.9875 8.5386C79.5342 6.39735 77.5524 6.42357 76.6968 6.71198C76.1119 6.29247 75.2563 5.96036 74.0166 5.7943C67.1544 4.87663 66.2378 10.1467 66.2378 15.1896C66.2378 20.2324 61.89 26.1842 64.8671 26.8747C67.8442 27.5651 68.9878 24.8121 68.9878 24.8121C68.9878 24.8121 72.1919 19.542 72.1919 15.88C72.1919 12.218 76.1904 12.5327 76.1904 12.5327C76.1904 12.5327 76.2079 12.5152 76.2254 12.489C76.4436 12.218 77.7707 10.7061 79.4294 12.1306C81.2541 13.6863 81.4549 15.5129 82.9391 15.9849C84.4233 16.4568 86.8591 14.0884 86.8591 14.0884C86.8591 14.0884 84.6241 10.8372 81.9875 8.5386Z" fill="#263238"/>
<path d="M76.374 9.90284C76.374 9.90284 73.6064 7.68294 71.1183 10.1825C68.6301 12.6821 68.9007 17.3841 68.0713 20.4343C67.2419 23.4845 65.0244 24.0351 65.0244 24.0351" stroke="white" stroke-width="0.5" stroke-miterlimit="10" stroke-linecap="round" stroke-linejoin="round"/>
<path d="M74.4357 9.07242C74.4357 9.07242 71.4586 6.11837 67.722 9.859C64.8584 12.7256 66.133 14.6134 65.583 19.3154" stroke="white" stroke-width="0.5" stroke-miterlimit="10" stroke-linecap="round" stroke-linejoin="round"/>
<path d="M77.7534 8.52159C77.7534 8.52159 83.0092 6.03075 85.2267 12.4021" stroke="white" stroke-width="0.5" stroke-miterlimit="10" stroke-linecap="round" stroke-linejoin="round"/>
<path d="M66.4648 39.4775L58.5376 71.3777L81.7955 77.9675L82.9392 73.8424L67.6958 66.7981L72.873 48.4096C72.873 48.4096 72.1833 44.9749 68.5252 41.0769" fill="white"/>
<path opacity="0.5" d="M82.9392 73.8421L67.6959 66.7978L72.873 48.4093C72.873 48.4093 72.5063 46.6089 70.9174 44.1356L70.4198 43.7598C70.4198 43.7598 70.4198 45.5864 70.4198 48.8288C70.4198 52.0713 66.3688 62.4105 64.9545 64.8401C63.5402 67.2698 61.3052 70.3112 61.3052 70.3112L65.7577 68.2836L82.5813 75.1006L82.9392 73.8421Z" fill="#D1D9DD"/>
<path d="M66.4648 39.4775L58.5376 71.3777L81.7955 77.9675L82.9392 73.8424L67.6958 66.7981L72.873 48.4096C72.873 48.4096 72.1833 44.9749 68.5252 41.0769" stroke="#263238" stroke-miterlimit="10" stroke-linecap="round" stroke-linejoin="round"/>
<path d="M131.76 49.0563L114.177 45.3507L96.2095 24.585L98.8723 41.2954L109.881 51.8006L132.022 52.8144L131.76 49.0563Z" fill="white"/>
<path opacity="0.5" d="M96.2095 24.585L98.331 37.9219L99.6929 42.0907L99.8588 42.2481C100.374 41.7062 103.29 38.691 104.023 38.691C104.835 38.691 113.138 45.9887 111.924 46.6005C110.711 47.2122 110.711 47.2122 110.711 47.2122L131.568 50.6557L131.716 49.0563L114.168 45.3682L96.2095 24.585Z" fill="#D1D9DD"/>
<path d="M131.76 49.0563L114.177 45.3507L96.2095 24.585L98.8723 41.2954L109.881 51.8006L132.022 52.8144L131.76 49.0563Z" stroke="#263238" stroke-miterlimit="10" stroke-linecap="round" stroke-linejoin="round"/>
<path d="M295.892 225.95L71.9825 193.088C70.4983 192.87 69.4769 191.489 69.6951 190.012L88.3434 62.6644C88.5616 61.1786 89.941 60.156 91.4165 60.3745L95.6595 60.9951C96.7595 61.1524 97.8421 60.628 98.4008 59.6666L104.032 49.913C104.207 49.6159 104.425 49.3362 104.704 49.1264C106.014 48.1738 107.655 47.763 109.279 48.0078L165.721 56.2931C166.987 56.4766 168.166 57.0534 169.091 57.9274C169.353 58.1721 169.536 58.478 169.667 58.8101L174.687 71.2381C175.045 72.1295 175.857 72.7675 176.809 72.9074L315.326 93.2361C316.81 93.4546 317.832 94.8355 317.613 96.3125L298.965 223.66C298.756 225.146 297.376 226.168 295.892 225.95Z" fill="#738D9A"/>
<path d="M298.258 225.311H76.3477C73.6412 225.311 71.4412 223.109 71.4412 220.4V96.085C71.4412 93.3757 73.6412 91.1733 76.3477 91.1733H76.9501C78.9581 91.1733 80.7653 89.9497 81.5074 88.0794L84.886 79.5843C85.2702 78.6054 85.9512 77.7577 86.8504 77.2246C87.802 76.6565 88.902 76.3506 90.0283 76.3506H147.073C147.841 76.3506 148.601 76.4904 149.308 76.7614C150.312 77.1459 151.133 77.8975 151.674 78.8239L157.48 88.7436C158.361 90.2468 159.968 91.1733 161.714 91.1733H298.258C300.964 91.1733 303.164 93.3757 303.164 96.085V220.4C303.164 223.118 300.973 225.311 298.258 225.311Z" fill="#E04E39"/>
<path opacity="0.1" d="M298.258 225.311H76.3477C73.6412 225.311 71.4412 223.109 71.4412 220.4V96.085C71.4412 93.3757 73.6412 91.1733 76.3477 91.1733H76.9501C78.9581 91.1733 80.7653 89.9497 81.5074 88.0794L84.886 79.5843C85.2702 78.6054 85.9512 77.7577 86.8504 77.2246C87.802 76.6565 88.902 76.3506 90.0283 76.3506H147.073C147.841 76.3506 148.601 76.4904 149.308 76.7614C150.312 77.1459 151.133 77.8975 151.674 78.8239L157.48 88.7436C158.361 90.2468 159.968 91.1733 161.714 91.1733H298.258C300.964 91.1733 303.164 93.3757 303.164 96.085V220.4C303.164 223.118 300.973 225.311 298.258 225.311Z" fill="#263238"/>
<path d="M298.258 225.311H76.3477C73.6412 225.311 71.4412 223.109 71.4412 220.4V96.085C71.4412 93.3757 73.6412 91.1733 76.3477 91.1733H76.9501C78.9581 91.1733 80.7653 89.9497 81.5074 88.0794L84.886 79.5843C85.2702 78.6054 85.9512 77.7577 86.8504 77.2246C87.802 76.6565 88.902 76.3506 90.0283 76.3506H147.073C147.841 76.3506 148.601 76.4904 149.308 76.7614C150.312 77.1459 151.133 77.8975 151.674 78.8239L157.48 88.7436C158.361 90.2468 159.968 91.1733 161.714 91.1733H298.258C300.964 91.1733 303.164 93.3757 303.164 96.085V220.4C303.164 223.118 300.973 225.311 298.258 225.311Z" stroke="#E04E39" stroke-miterlimit="10"/>
<path d="M134.135 90.7626H98.6279C96.8556 90.7626 95.4238 89.3293 95.4238 87.5552C95.4238 85.781 96.8556 84.3477 98.6279 84.3477H134.135C135.907 84.3477 137.339 85.781 137.339 87.5552C137.339 89.3293 135.907 90.7626 134.135 90.7626Z" fill="white"/>
<path d="M298.258 247.013H76.3477C73.6412 247.013 71.4412 244.81 71.4412 242.101V117.786C71.4412 115.077 73.6412 112.874 76.3477 112.874H76.9501C78.9581 112.874 80.7653 111.651 81.5074 109.781L84.886 101.285C85.2702 100.307 85.9512 99.4589 86.8504 98.9257C87.802 98.3577 88.902 98.0518 90.0283 98.0518H147.073C147.841 98.0518 148.601 98.1916 149.308 98.4625C150.312 98.8471 151.133 99.5987 151.674 100.525L157.48 110.445C158.361 111.948 159.968 112.874 161.714 112.874H298.258C300.964 112.874 303.164 115.077 303.164 117.786V242.101C303.164 244.81 300.973 247.013 298.258 247.013Z" fill="#738D9A" stroke="#738D9A" stroke-miterlimit="10"/>
<path d="M151.159 65.1556L115.923 60.777C114.168 60.5585 112.92 58.9591 113.138 57.2024C113.356 55.4457 114.954 54.196 116.709 54.4144L151.945 58.7931C153.699 59.0116 154.948 60.611 154.73 62.3677C154.511 64.1243 152.914 65.3741 151.159 65.1556Z" fill="white"/>
<path opacity="0.5" d="M151.159 65.1556L115.923 60.777C114.168 60.5585 112.92 58.9591 113.138 57.2024C113.356 55.4457 114.954 54.196 116.709 54.4144L151.945 58.7931C153.699 59.0116 154.948 60.611 154.73 62.3677C154.511 64.1243 152.914 65.3741 151.159 65.1556Z" fill="white"/>
<path d="M134.135 112.455H98.6279C96.8556 112.455 95.4238 111.022 95.4238 109.248C95.4238 107.473 96.8556 106.04 98.6279 106.04H134.135C135.907 106.04 137.339 107.473 137.339 109.248C137.339 111.022 135.907 112.455 134.135 112.455Z" fill="#E04E39"/>
<path opacity="0.5" d="M134.135 112.455H98.6279C96.8556 112.455 95.4238 111.022 95.4238 109.248C95.4238 107.473 96.8556 106.04 98.6279 106.04H134.135C135.907 106.04 137.339 107.473 137.339 109.248C137.339 111.022 135.907 112.455 134.135 112.455Z" fill="white"/>
<path d="M305.531 302.711H69.0753C66.5348 302.711 64.4744 300.648 64.4744 298.105V154.869C64.4744 152.325 66.5348 150.263 69.0753 150.263H305.522C308.062 150.263 310.123 152.325 310.123 154.869V298.096C310.131 300.648 308.071 302.711 305.531 302.711Z" fill="white"/>
<path d="M310.132 191.296C290.497 209.702 259.556 234.418 218.375 254.135C168.733 277.898 112.012 294.277 78.9583 302.711H305.522C308.062 302.711 310.123 300.648 310.123 298.105V191.296H310.132Z" fill="#E04E39"/>
<path opacity="0.2" d="M310.132 191.296C290.497 209.702 259.556 234.418 218.375 254.135C168.733 277.898 112.012 294.277 78.9583 302.711H305.522C308.062 302.711 310.123 300.648 310.123 298.105V191.296H310.132Z" fill="white"/>
<path d="M305.531 302.711H69.0753C66.5348 302.711 64.4744 300.648 64.4744 298.105V154.869C64.4744 152.325 66.5348 150.263 69.0753 150.263H305.522C308.062 150.263 310.123 152.325 310.123 154.869V298.096C310.131 300.648 308.071 302.711 305.531 302.711Z" stroke="#738D9A" stroke-width="2" stroke-miterlimit="10"/>
<path d="M223.831 236.988H150.775C149.456 236.988 148.391 235.922 148.391 234.602V197.292C148.391 195.972 149.456 194.906 150.775 194.906H223.822C225.141 194.906 226.206 195.972 226.206 197.292V234.602C226.206 235.922 225.141 236.988 223.831 236.988Z" fill="#738D9A" stroke="#738D9A" stroke-miterlimit="10"/>
<path d="M223.831 207.701H150.775C149.456 207.701 148.391 206.635 148.391 205.315V197.283C148.391 195.964 149.456 194.897 150.775 194.897H223.822C225.141 194.897 226.206 195.964 226.206 197.283V205.315C226.206 206.635 225.141 207.701 223.831 207.701Z" fill="white" stroke="#738D9A" stroke-miterlimit="10"/>
<path d="M81.7954 77.9676L83.3931 80.9479L86.7892 83.4038C87.2257 83.7184 87.8194 83.7446 88.2734 83.4562L88.579 83.2639C89.0242 82.9843 89.1988 82.4249 88.9893 81.953L87.0599 77.5132L88.352 78.5182C88.7798 78.8503 89.3909 78.7892 89.7401 78.3697C90.0457 78.0026 90.0544 77.4782 89.7576 77.1024L86.7281 73.2656L82.9391 73.8424L81.7954 77.9676Z" fill="white" stroke="#263238" stroke-miterlimit="10"/>
<path d="M88.5791 83.2558L85.5322 79.2617" stroke="#263238" stroke-width="0.5" stroke-miterlimit="10" stroke-linecap="round" stroke-linejoin="round"/>
<path d="M86.7894 83.3952L84.406 80.2227" stroke="#263238" stroke-width="0.5" stroke-miterlimit="10" stroke-linecap="round" stroke-linejoin="round"/>
<path d="M131.76 49.0566L136.5 49.3363L142.289 53.0332C142.289 53.0332 142.612 54.1607 141.808 54.318C141.005 54.4753 136.666 52.8672 136.666 52.8672L132.03 52.806L131.76 49.0566Z" fill="white" stroke="#263238" stroke-miterlimit="10"/>
<path d="M131.996 52.2287L136.981 54.4836C136.981 54.4836 137.784 53.3562 136.658 52.8755L135.051 51.748" fill="white"/>
<path d="M131.996 52.2287L136.981 54.4836C136.981 54.4836 137.784 53.3562 136.658 52.8755L135.051 51.748" stroke="#263238" stroke-miterlimit="10" stroke-linejoin="round"/>
<path d="M308.114 137.459L306.063 131.289L303.749 128.116C303.566 127.863 303.173 127.994 303.173 128.308V135.213V137.45L304.928 139.749L308.114 137.459Z" fill="white"/>
<path d="M341.691 164.439L324.414 165.05C323.113 165.094 321.9 164.386 321.306 163.224L308.123 137.459C308.123 137.459 305.155 139.058 304.928 139.749C304.735 140.326 314.697 165.505 317.753 173.205C318.276 174.533 319.586 175.381 321.018 175.32L340.329 174.507" fill="white"/>
<path d="M341.691 164.439L324.414 165.05C323.113 165.094 321.9 164.386 321.306 163.224L308.123 137.459C308.123 137.459 305.155 139.058 304.928 139.749C304.735 140.326 314.697 165.505 317.753 173.205C318.276 174.533 319.586 175.381 321.018 175.32L340.329 174.507" stroke="#263238" stroke-miterlimit="10"/>
<path d="M309.38 140.666L306.674 141.785" stroke="#263238" stroke-width="0.75" stroke-miterlimit="10"/>
<g opacity="0.5">
<g opacity="0.5">
<path d="M341.692 164.439L324.414 165.05C323.114 165.094 321.9 164.386 321.306 163.224L308.123 137.459C308.123 137.459 305.155 139.058 304.928 139.749C304.736 140.326 314.697 165.505 317.753 173.205C318.277 174.533 319.586 175.381 321.018 175.32L340.33 174.507" fill="#738D9A"/>
<path d="M341.692 164.439L324.414 165.05C323.114 165.094 321.9 164.386 321.306 163.224L308.123 137.459C308.123 137.459 305.155 139.058 304.928 139.749C304.736 140.326 314.697 165.505 317.753 173.205C318.277 174.533 319.586 175.381 321.018 175.32L340.33 174.507" stroke="#263238" stroke-miterlimit="10"/>
<path opacity="0.5" d="M309.381 140.666L306.674 141.785" stroke="#263238" stroke-width="0.75" stroke-miterlimit="10"/>
</g>
</g>
<path d="M308.114 137.459L306.063 131.289L303.749 128.116C303.566 127.863 303.173 127.994 303.173 128.308V137.45L304.928 139.749L308.114 137.459Z" fill="#E2D2C3"/>
<path opacity="0.5" d="M308.114 137.459L306.063 131.289L303.749 128.116C303.566 127.863 303.173 127.994 303.173 128.308V137.45L304.928 139.749L308.114 137.459Z" fill="white"/>
<path d="M308.114 137.459L306.063 131.289L303.749 128.116C303.566 127.863 303.173 127.994 303.173 128.308V137.45L304.928 139.749L308.114 137.459Z" stroke="#263238" stroke-miterlimit="10"/>
<path d="M347.043 148.148C347.043 148.148 345.524 150.045 345.271 151.723C345.018 153.401 345.42 159.859 345.42 159.859L336.427 160.882C336.427 160.882 337.108 154.318 337.134 153.226C337.161 152.133 338.802 148.288 341.91 146.767C345.018 145.238 347.646 145.972 347.043 148.148Z" fill="#E2D2C3"/>
<path opacity="0.7" d="M346.991 148.227C345.35 147.781 343.377 147.292 341.692 146.881C338.732 148.471 337.17 152.151 337.143 153.217C337.135 153.637 337.03 154.86 336.899 156.206C337.789 156.005 339.169 155.699 340.199 155.516C341.849 155.219 342.591 154.913 342.591 154.913L342.294 160.157C342.294 160.157 342.364 160.165 342.486 160.192L345.42 159.859C345.42 159.859 345.018 153.401 345.271 151.723C345.498 150.228 346.721 148.576 346.991 148.227Z" fill="#D3BEAA"/>
<path d="M347.043 148.148C347.043 148.148 345.524 150.045 345.271 151.723C345.018 153.401 345.42 159.859 345.42 159.859L336.427 160.882C336.427 160.882 337.108 154.318 337.134 153.226C337.161 152.133 338.802 148.288 341.91 146.767C345.018 145.238 347.646 145.972 347.043 148.148Z" stroke="#263238" stroke-width="1.004" stroke-miterlimit="10"/>
<path d="M348.947 149.257C356.402 139.408 338.426 129.191 333.703 138.962C332.883 140.657 332.359 141.776 332.149 142.772C331.433 143.209 329.556 144.38 329.181 144.704C328.832 145.001 330.071 145.857 330.726 146.268C329.443 149.415 329.635 152.744 330.002 153.487C330.639 154.781 333.782 154.798 335.851 154.422C337.92 154.047 338.75 152.045 339.317 151.512C339.884 150.97 342.923 151.661 343.979 151.975C345.035 152.29 347.462 151.215 348.947 149.257Z" fill="#E2D2C3"/>
<path opacity="0.5" d="M341.543 148.313C341.543 148.313 341.692 149.065 340.199 149.659C338.706 150.254 338.4 149.808 337.955 150.857C337.51 151.906 337.056 153.103 334.96 153.557C333.529 153.863 331.686 154.029 330.656 154.108C331.852 154.772 334.201 154.72 335.86 154.423C337.929 154.047 338.758 152.045 339.326 151.512C339.893 150.97 342.931 151.661 343.988 151.975C344.188 152.037 344.45 152.028 344.738 151.993C345.332 150.865 345.437 149.222 345.437 149.222L341.543 148.313Z" fill="#C5A990"/>
<path d="M348.947 149.257C356.402 139.408 338.426 129.191 333.703 138.962C332.883 140.657 332.359 141.776 332.149 142.772C331.433 143.209 329.556 144.38 329.181 144.704C328.832 145.001 330.071 145.857 330.726 146.268C329.443 149.415 329.635 152.744 330.002 153.487C330.639 154.781 333.782 154.798 335.851 154.422C337.92 154.047 338.75 152.045 339.317 151.512C339.884 150.97 342.923 151.661 343.979 151.975C345.035 152.29 347.462 151.215 348.947 149.257Z" stroke="#263238" stroke-miterlimit="10"/>
<path d="M334.349 143.629C334.157 144.048 333.834 144.311 333.625 144.214C333.415 144.118 333.398 143.699 333.59 143.279C333.782 142.86 334.105 142.598 334.314 142.694C334.524 142.79 334.541 143.209 334.349 143.629Z" fill="#263238"/>
<path d="M334.184 140.946C334.184 140.946 335.022 140.212 335.231 141.89" stroke="#263238" stroke-width="0.5" stroke-miterlimit="10" stroke-linecap="round" stroke-linejoin="round"/>
<path d="M330.517 147.964C330.517 147.964 330.517 148.803 332.088 148.803" stroke="#263238" stroke-width="0.5" stroke-miterlimit="10" stroke-linecap="round" stroke-linejoin="round"/>
<path d="M328.387 205.157L327.697 213.67C327.697 213.67 322.921 247.694 323.148 251.609C323.375 255.525 323.891 295.876 323.891 295.876L329.635 296.794L336.096 252.029L345.167 206.538L328.387 205.157Z" fill="#D1D9DD" stroke="#263238" stroke-miterlimit="10"/>
<path opacity="0.2" d="M328.387 205.157L327.697 213.67C327.697 213.67 322.921 247.694 323.148 251.609C323.375 255.525 323.891 295.876 323.891 295.876L329.635 296.794L336.096 252.029L345.167 206.538L328.387 205.157Z" fill="#263238"/>
<path d="M335.668 236.236C335.668 236.236 333.45 249.259 331.791 255.63C330.133 262.001 330.133 268.373 330.133 275.303C330.133 282.225 327.645 294.976 327.645 294.976" stroke="#263238" stroke-width="0.75" stroke-miterlimit="10"/>
<path d="M340.059 203.051C343.857 201.067 347.934 199.739 349.086 202.387C351.382 207.683 348.624 215.732 348.624 215.732L350.728 252.85L354.578 297.642L348.833 296.724C348.833 296.724 339.989 258.924 338.61 256.617C337.23 254.319 335.056 221.946 335.056 221.946L330.674 217.961" fill="#738D9A"/>
<path d="M340.059 203.051C343.857 201.067 347.934 199.739 349.086 202.387C351.382 207.683 348.624 215.732 348.624 215.732L350.728 252.85L354.578 297.642L348.833 296.724C348.833 296.724 339.989 258.924 338.61 256.617C337.23 254.319 335.056 221.946 335.056 221.946L330.674 217.961" stroke="#263238" stroke-miterlimit="10"/>
<g opacity="0.2">
<path opacity="0.2" d="M340.059 203.051C343.857 201.067 347.934 199.739 349.086 202.387C351.382 207.683 348.624 215.732 348.624 215.732L350.728 252.85L354.578 297.642L348.833 296.724C348.833 296.724 339.989 258.924 338.61 256.617C337.23 254.319 335.056 221.946 335.056 221.946L330.674 217.961" fill="#263238"/>
</g>
<path d="M344.503 231.193C344.643 239.802 345.507 243.936 346.188 246.217C347.017 248.988 346.738 254.249 346.738 256.748C346.738 259.239 345.629 256.198 348.117 267.551C350.605 278.913 352.264 294.697 352.264 294.697" stroke="#263238" stroke-width="0.75" stroke-miterlimit="10"/>
<path d="M344.529 212.412C344.529 212.412 344.808 211.861 344.529 224.874C344.512 225.574 344.503 226.247 344.494 226.902" stroke="#263238" stroke-width="0.75" stroke-miterlimit="10"/>
<path d="M331.774 209.946L331.591 213.844L330.691 216.545L332.036 218.127" stroke="#263238" stroke-width="0.75" stroke-miterlimit="10" stroke-linecap="round" stroke-linejoin="round"/>
<path d="M330.01 212.271C330.01 212.271 332.263 214.526 338.112 213.845" stroke="#263238" stroke-width="0.75" stroke-miterlimit="10" stroke-linecap="round" stroke-linejoin="round"/>
<path d="M343.831 210.323C348.213 209.466 348.475 208.234 349.986 207.22C349.959 205.551 349.724 203.864 349.078 202.387C347.925 199.739 343.848 201.067 340.05 203.051L338.217 205.961L328.378 205.149L328.063 209.012C330.237 209.964 337.457 211.572 343.831 210.323Z" fill="#263238"/>
<path d="M329.373 207.832L329.277 209.37L331.774 209.947L331.966 207.928L329.373 207.832Z" fill="#D1D9DD" stroke="#263238" stroke-width="0.75" stroke-miterlimit="10"/>
<path d="M346.799 210.113L346.38 206.285L347.655 205.865L348.292 209.265" fill="#D1D9DD"/>
<path d="M346.799 210.113L346.38 206.285L347.655 205.865L348.292 209.265" stroke="#263238" stroke-miterlimit="10"/>
<path d="M337.038 211.389L336.191 206.923H338.313L339.16 210.751" fill="#D1D9DD"/>
<path d="M337.038 211.389L336.191 206.923H338.313L339.16 210.751" stroke="#263238" stroke-miterlimit="10"/>
<g opacity="0.2">
<path opacity="0.2" d="M346.799 210.113L346.38 206.285L347.655 205.865L348.292 209.265" fill="#263238"/>
<path opacity="0.2" d="M337.038 211.389L336.191 206.923H338.313L339.16 210.751" fill="#263238"/>
</g>
<path d="M327.269 171.282C327.269 171.282 326.544 176.124 324.362 184.357C322.188 192.59 320.005 202.518 320.005 202.518L321.219 207.605L324.851 202.273L327.269 171.282Z" fill="#263238" stroke="#263238" stroke-miterlimit="10"/>
<path d="M333.311 164.255C333.311 164.255 328.229 165.47 327.749 167.891C327.269 170.311 327.269 171.282 327.269 171.282L335.013 164.989L344.686 161.117L333.311 164.255Z" fill="#263238" stroke="#263238" stroke-miterlimit="10"/>
<path d="M334.699 162.394C334.699 162.394 330.578 167.069 328.928 168.992C327.278 170.915 327.278 191.55 327.278 194.574C327.278 197.598 325.637 205.839 328.387 207.491C331.137 209.143 347.899 208.592 349.549 205.839C351.199 203.086 352.291 170.085 352.02 167.061C351.749 164.037 349.261 161.616 347.349 160.733C345.42 159.859 334.699 162.394 334.699 162.394Z" fill="#F7F9FA"/>
<path opacity="0.5" d="M347.34 160.742C347.166 160.664 346.921 160.611 346.625 160.585L345.437 161.214C345.437 161.214 348.729 163.766 349.331 167.655C349.933 171.553 349.776 174.7 349.183 178.746C348.58 182.793 339.003 178.746 340.801 180.249C342.6 181.753 349.34 184.296 349.637 185.642C349.933 186.988 346.345 189.243 344.992 189.391C343.647 189.54 345.891 192.538 347.236 195.09C348.58 197.642 348.135 201.234 344.992 203.637C341.849 206.032 334.646 207.264 331.521 207.386C330.508 207.43 329.871 207.649 329.688 207.955C334.481 209.021 348.083 208.322 349.558 205.857C351.208 203.104 352.299 170.103 352.029 167.079C351.732 164.037 349.252 161.625 347.34 160.742Z" fill="#738D9A"/>
<path d="M334.699 162.394C334.699 162.394 330.578 167.069 328.928 168.992C327.278 170.915 327.278 191.55 327.278 194.574C327.278 197.598 325.637 205.839 328.387 207.491C331.137 209.143 347.899 208.592 349.549 205.839C351.199 203.086 352.291 170.085 352.02 167.061C351.749 164.037 349.261 161.616 347.349 160.733C345.42 159.859 334.699 162.394 334.699 162.394Z" stroke="#263238" stroke-miterlimit="10"/>
<path d="M343.141 183.325C338.715 181.944 334.838 178.063 334.838 178.063C334.838 178.063 335.947 184.985 342.312 189.425" fill="white"/>
<path d="M343.141 183.325C338.715 181.944 334.838 178.063 334.838 178.063C334.838 178.063 335.947 184.985 342.312 189.425" stroke="#263238" stroke-width="0.75" stroke-miterlimit="10" stroke-linecap="round" stroke-linejoin="round"/>
<path d="M346.511 157.709L333.319 160.742L332.499 164.587L347.34 160.742L346.511 157.709Z" fill="white" stroke="#263238" stroke-miterlimit="10"/>
<path d="M330.412 302.597L329.644 296.794L323.89 295.867L319.097 299.284L314.802 301.653V302.597H330.412Z" fill="#263238" stroke="#263238" stroke-miterlimit="10"/>
<path d="M355.294 303.051L354.578 297.65L348.833 296.732L344.032 300.15L339.736 302.518V303.051H355.294Z" fill="#263238" stroke="#263238" stroke-miterlimit="10"/>
<path d="M305.6 132.425L302.056 130.371C302.056 130.371 300.676 130.196 301.27 131.743L304.815 134.488" fill="white"/>
<path d="M305.6 132.425L302.056 130.371C302.056 130.371 300.676 130.196 301.27 131.743L304.815 134.488" stroke="#263238" stroke-miterlimit="10" stroke-linecap="round" stroke-linejoin="round"/>
<path d="M305.085 137.764C304.919 137.345 304.675 136.952 304.36 136.62L303.697 135.912L303.714 135.885L300.109 131.411C300.109 131.411 298.991 130.668 299.236 132.285L301.471 136.637L297.498 132.905C297.498 132.905 296.756 132.285 296.756 133.15C296.756 134.024 300.362 137.878 300.362 137.878L296.389 136.016C296.389 136.016 295.516 136.637 296.145 137.258C296.765 137.878 300.117 139.119 300.117 139.119L297.132 138.997C297.132 138.997 296.259 139.74 296.887 139.993C297.507 140.238 300.99 140.989 300.99 140.989C301.235 141.365 302.483 141.863 302.483 141.863L303.356 143.48L306.7 141.793L305.085 137.764Z" fill="white" stroke="#263238" stroke-miterlimit="10" stroke-linecap="round" stroke-linejoin="round"/>
<path d="M340.775 176.561L320.852 181.245C318.748 181.612 316.679 180.441 315.902 178.449L303.33 143.472L306.674 141.785L320.564 167.541C321.219 168.747 322.572 169.394 323.916 169.123L339.142 164.814" fill="#F7F9FA"/>
<path d="M340.775 176.561L320.852 181.245C318.748 181.612 316.679 180.441 315.902 178.449L303.33 143.472L306.674 141.785L320.564 167.541C321.219 168.747 322.572 169.394 323.916 169.123L339.142 164.814" fill="#F7F9FA"/>
<path d="M340.775 176.561L320.852 181.245C318.748 181.612 316.679 180.441 315.902 178.449L303.33 143.472L306.674 141.785L320.564 167.541C321.219 168.747 322.572 169.394 323.916 169.123L339.142 164.814" stroke="#263238" stroke-miterlimit="10"/>
<path d="M308.551 145.098L304.675 147.038" stroke="#263238" stroke-width="0.75" stroke-miterlimit="10"/>
<path d="M338.296 139.067C338.296 139.067 336.174 141.19 337.239 142.781C338.296 144.372 338.654 145.788 338.654 145.788C338.654 145.788 337.772 147.911 338.479 147.911C339.186 147.911 338.828 146.321 340.068 146.67C341.308 147.02 342.539 149.144 341.482 149.852C340.898 150.245 339.824 150.629 338.986 150.9C338.497 151.058 338.427 151.722 338.863 151.984C339.876 152.596 341.43 153.382 342.713 153.382C344.835 153.382 346.066 153.033 346.066 153.033C346.066 153.033 349.602 148.261 352.072 147.02C354.543 145.779 353.487 140.124 353.487 139.416C353.487 138.708 351.016 137.118 351.016 137.118C351.016 137.118 351.723 135.527 348.545 131.988C345.368 128.448 339.361 127.749 339.186 128.981C339.012 130.222 339.894 130.746 339.894 130.746C339.894 130.746 334.594 128.448 332.123 130.921C329.644 133.403 338.296 139.067 338.296 139.067Z" fill="#263238" stroke="#263238" stroke-miterlimit="10"/>
<path d="M338.295 139.067C338.295 139.067 342.591 144.268 348.955 144.827" stroke="white" stroke-width="0.5" stroke-miterlimit="10" stroke-linecap="round" stroke-linejoin="round"/>
<path d="M336.776 140.666C336.776 140.666 338.767 146.487 347.043 148.147" stroke="white" stroke-width="0.5" stroke-miterlimit="10" stroke-linecap="round" stroke-linejoin="round"/>
</g>
<defs>
<clipPath id="clip0">
<rect width="371" height="310" fill="white"/>
</clipPath>
</defs>
</svg>
