<svg width="195" height="325" viewBox="0 0 195 325" fill="none" xmlns="http://www.w3.org/2000/svg">
<path d="M55.2507 324.356C85.5667 324.356 110.143 312.651 110.143 298.212C110.143 283.774 85.5667 272.069 55.2507 272.069C24.9348 272.069 0.358887 283.774 0.358887 298.212C0.358887 312.651 24.9348 324.356 55.2507 324.356Z" fill="white"/>
<path d="M152.492 264.732C175.881 264.732 194.842 255.702 194.842 244.563C194.842 233.424 175.881 224.395 152.492 224.395C129.103 224.395 110.143 233.424 110.143 244.563C110.143 255.702 129.103 264.732 152.492 264.732Z" fill="white"/>
<g opacity="0.2">
<path d="M148.858 143.325C146.419 130.707 137.714 112.725 127.037 102.712C116.767 93.0814 101.522 89.7239 95.4485 94.1568C89.3747 98.5897 93.3562 108.208 105.145 119.918C118.441 133.121 144.003 169.754 148.858 190.521V143.325Z" fill="#738D9A"/>
</g>
<g opacity="0.2">
<path opacity="0.2" d="M148.858 143.325C146.419 130.707 137.714 112.725 127.037 102.712C116.767 93.0814 101.522 89.7239 95.4485 94.1568C89.3747 98.5897 93.3562 108.208 105.145 119.918C118.441 133.121 144.003 169.754 148.858 190.521V143.325Z" fill="#738D9A"/>
</g>
<path d="M148.858 173.685C148.559 173.685 148.296 173.458 148.26 173.148C145.247 141.353 123.008 105.627 101.606 98.1833C101.295 98.0758 101.128 97.7293 101.235 97.4186C101.343 97.108 101.69 96.9407 102.001 97.0482C124.168 104.755 146.347 140.254 149.455 173.028C149.491 173.351 149.24 173.65 148.917 173.673C148.894 173.685 148.882 173.685 148.858 173.685Z" fill="white"/>
<path opacity="0.2" d="M148.858 205.767C148.858 205.767 144.721 209.064 130.911 207.774C117.101 206.483 109.999 196.626 109.999 192.396C109.999 188.167 122.673 187.45 125.435 176.959C125.435 176.959 122.051 181.213 114.854 182.563C107.656 183.913 101.917 181.619 100.279 168.547C100.279 168.547 105.145 169.491 110.824 167.675C116.504 165.847 117.855 162.74 116.372 162.071C114.89 161.402 106.986 162.131 101.905 160.148C96.8234 158.164 100.769 131.842 104.033 129.966C107.297 128.078 123.08 132.511 126.14 134.877C128.867 136.98 132.693 140.624 130.875 148.331C130.875 148.331 133.733 145.929 135.622 141.305C137.105 137.673 138.181 138.557 140.428 139.919C142.676 141.281 145.139 143.754 145.677 147.1C146.215 150.445 145.342 161.988 140.632 165.739C140.632 165.739 145.151 166.313 148.846 158.69C148.846 158.69 156.055 161.581 157.646 166.277C159.236 170.961 161.137 193.866 148.858 205.767Z" fill="#738D9A"/>
<path d="M150.078 208.371C149.779 208.371 149.528 208.144 149.48 207.845C146.323 182.025 126.679 148.163 107.417 135.366C107.142 135.187 107.07 134.817 107.25 134.542C107.429 134.267 107.8 134.195 108.075 134.375C127.576 147.339 147.471 181.607 150.651 207.714C150.687 208.037 150.46 208.335 150.125 208.383C150.125 208.371 150.101 208.371 150.078 208.371Z" fill="white"/>
<path d="M87.2261 37.4247L81.8816 34.342L84.8229 33.7207L87.7522 35.7639L87.2261 37.4247Z" fill="#D1D9DD"/>
<path d="M77.8758 9.89551C77.8638 1.57941 72.7943 -2.24408 66.5531 1.35239L57.3227 6.66944C51.0815 10.2779 46 19.98 46 28.2961C46 28.6426 46.012 28.9771 46.0239 29.2878C46.0239 29.467 46.0478 29.6343 46.0478 29.8135C46.0598 29.9808 46.0717 30.1361 46.0957 30.2915C46.1196 30.4826 46.1315 30.6619 46.1674 30.8411C46.3109 31.8925 46.5739 32.8484 46.8967 33.7087C47.0522 34.0672 47.1956 34.3898 47.363 34.7004C47.4467 34.8677 47.5304 35.023 47.6261 35.1664C47.65 35.2142 47.6859 35.262 47.7098 35.3098C47.8652 35.5727 48.0445 35.8236 48.2358 36.0387C48.3435 36.1581 48.4511 36.2896 48.5706 36.409L48.9293 36.7556C49.0608 36.8511 49.1804 36.9706 49.3 37.0662C49.4315 37.1618 49.5511 37.2574 49.6945 37.341C49.838 37.4247 49.9695 37.4963 50.113 37.58C50.6391 37.8668 51.201 38.046 51.8108 38.1535C51.8586 38.1535 51.9065 38.1655 51.9543 38.1774C52.1097 38.1894 52.2652 38.2133 52.4206 38.2133C52.588 38.2372 52.7554 38.2252 52.9228 38.2252C53.3412 38.2252 53.7836 38.1894 54.238 38.0818C54.489 38.0221 54.7521 37.9743 55.0032 37.8907V37.9026C55.7564 37.6756 56.5216 37.341 57.3108 36.887L66.5411 31.5699C67.1509 31.2234 67.7607 30.8052 68.3585 30.3393C68.3465 30.2317 68.3346 30.1242 68.3346 30.0286C68.3226 29.8374 68.3106 29.694 68.3106 29.5865C68.2867 29.3117 68.2867 29.0249 68.2867 28.7382C68.2748 21.5572 72.5432 13.2411 77.8758 9.89551Z" fill="#D1D9DD"/>
<path d="M79.4301 3.92159C79.4301 3.92159 74.0378 0.826953 74.0737 0.838902C74.1095 0.862799 74.6117 4.56681 74.6117 4.56681L78.5932 5.0328L79.4301 3.92159Z" fill="#D1D9DD"/>
<path d="M54.6687 40.1372L49.7068 37.3293L52.6959 36.0508L54.6687 40.1372Z" fill="#D1D9DD"/>
<path d="M57.3226 36.8627C57.3226 37.962 57.0117 40.4473 55.4335 42.5621C55.2182 42.8609 55.553 43.1118 55.8041 42.9803C56.6291 42.5502 57.5976 41.9169 58.7454 40.6026C60.4551 38.655 61.5432 36.0383 61.9377 34.1982L57.3226 36.8627Z" fill="#D1D9DD"/>
<path d="M55.4937 42.9688L60.8501 46.0515C60.8501 46.0515 63.8512 43.5185 63.8512 38.3807L58.0404 37.9864C58.0404 37.9744 57.9088 41.32 55.4937 42.9688Z" fill="#D1D9DD"/>
<path d="M69.7576 27.8538C69.7576 28.1047 69.7695 28.3556 69.7815 28.5946C69.7815 28.738 69.7934 28.8575 69.8054 28.9889C69.8173 29.1084 69.8293 29.2278 69.8413 29.3473C69.8532 29.4907 69.8652 29.6222 69.8891 29.7655C69.9728 30.4227 70.1282 31.0321 70.3195 31.5697C70.3434 31.6773 70.3913 31.7729 70.4271 31.8804C70.475 32.0238 70.5347 32.1552 70.5945 32.2866C70.6543 32.4181 70.7141 32.5376 70.7739 32.657C70.8336 32.7765 70.9054 32.896 70.9771 33.0036C71.001 33.0513 71.0249 33.0872 71.0489 33.1111C71.1804 33.3023 71.3119 33.4815 71.4434 33.6607C71.5271 33.7563 71.6108 33.8519 71.6945 33.9355L71.9575 34.1984C72.0412 34.282 72.1369 34.3537 72.2325 34.4254C72.3282 34.4971 72.4238 34.5688 72.5315 34.6285C72.6391 34.6883 72.7347 34.748 72.8423 34.8078C72.9499 34.8675 73.0456 34.9153 73.1651 34.9631C73.2727 35.0109 73.3923 35.0467 73.4999 35.0826C73.5119 35.0826 73.5119 35.0826 73.5119 35.0826C73.7151 35.1423 73.9184 35.1901 74.1217 35.226C74.1575 35.2379 74.1934 35.2379 74.2293 35.2499C74.3369 35.2618 74.4564 35.2737 74.576 35.2737C74.6956 35.2976 74.8151 35.2857 74.9586 35.2857C75.2336 35.2857 75.5325 35.2618 75.8434 35.2021C76.0705 35.1782 76.2977 35.1065 76.5249 35.0467C77.0868 34.8795 77.6727 34.6166 78.2586 34.282L85.1813 30.2913C85.7791 29.9448 86.3531 29.5385 86.915 29.0486V29.0367C87.1063 28.8813 87.2976 28.7021 87.4889 28.5229C87.8237 28.2122 88.1585 27.8538 88.4813 27.4834C88.6128 27.34 88.7324 27.1966 88.8639 27.0413C88.9835 26.9099 89.0911 26.7665 89.2106 26.6111C89.2345 26.5633 89.2824 26.5156 89.3182 26.4678C89.7726 25.8703 90.203 25.2371 90.5856 24.568C90.6932 24.3887 90.7889 24.2095 90.8965 24.0303C91.0041 23.8511 91.0997 23.6718 91.1954 23.4807C91.2911 23.3014 91.3747 23.1103 91.4704 22.9191L91.7334 22.3575C91.8171 22.1663 91.9008 21.9752 91.9845 21.784C92.128 21.4494 92.2595 21.1149 92.3791 20.7803C92.403 20.7206 92.4269 20.6608 92.4508 20.5891C92.5226 20.398 92.5943 20.2068 92.6541 20.0156C92.7856 19.6333 92.8932 19.2629 93.0008 18.8805C93.2399 17.9485 93.4312 17.0166 93.5508 16.0965C93.5747 15.9412 93.5867 15.7739 93.5986 15.6186C93.6106 15.4872 93.6226 15.3438 93.6345 15.2124C93.6465 15.069 93.6584 14.9375 93.6584 14.7942C93.6704 14.5432 93.6823 14.2804 93.6823 14.0175C93.6823 7.78044 89.8682 4.88893 85.1813 7.60122L78.2586 11.592C73.5717 14.3282 69.7576 21.6167 69.7576 27.8538Z" fill="#D1D9DD"/>
<path d="M96.1452 10.302L90.8366 7.24316L88.8279 8.65308L95.0333 12.4049L96.1452 10.302Z" fill="#D1D9DD"/>
<path d="M77.8994 37.7111L72.543 34.6403L76.7397 33.3857L77.8994 37.7111Z" fill="#D1D9DD"/>
<path d="M84.1294 30.9004C84.1294 31.9996 85.5164 33.5171 87.0946 33.7919C87.3098 33.8278 87.262 34.3057 86.999 34.461C86.174 34.9987 85.0501 35.1062 83.9022 34.9748C82.061 34.7717 81.1284 33.9592 80.5784 32.9316L84.1294 30.9004Z" fill="#27DEBF"/>
<path d="M71.8975 4.43525L62.6672 9.75229C56.426 13.3488 51.3564 23.0509 51.3564 31.367C51.3564 31.7135 51.3684 32.048 51.3804 32.3587C51.3804 32.5379 51.4043 32.7052 51.4043 32.8844C51.4162 33.0517 51.4401 33.207 51.4521 33.3624C51.476 33.5416 51.488 33.7328 51.5238 33.912C51.6793 34.9635 51.9304 35.9193 52.2532 36.7796C52.3967 37.1261 52.5521 37.4487 52.7195 37.7594C52.8032 37.9267 52.8869 38.082 52.9825 38.2254C53.0184 38.2732 53.0423 38.321 53.0782 38.3688C53.2336 38.6316 53.4129 38.8825 53.6042 39.0976C53.7119 39.2171 53.8195 39.3605 53.939 39.468L54.2977 39.8145C54.4173 39.9101 54.5368 40.0296 54.6684 40.1252C54.7999 40.2208 54.9314 40.3163 55.0629 40.4C55.2064 40.4717 55.3379 40.5553 55.4814 40.627C56.0075 40.9138 56.5694 41.1049 57.1673 41.2005C57.2151 41.1886 57.2629 41.2125 57.3107 41.2244C57.4662 41.2364 57.6216 41.2603 57.777 41.2603C57.9444 41.2842 58.1118 41.2722 58.2792 41.2722C58.7096 41.2722 59.152 41.2244 59.5944 41.1288C59.8574 41.0691 60.1085 41.0213 60.3716 40.9257V40.9377C61.1129 40.7226 61.89 40.3761 62.6792 39.9221C62.6792 41.0213 62.3683 43.5066 60.79 45.6214C60.5748 45.9202 60.9096 46.1711 61.1607 46.0396C61.9857 45.6095 62.9542 44.9762 64.102 43.6619C65.8117 41.7143 66.8998 39.0976 67.2943 37.2576L66.6367 37.6399L71.9095 34.593C72.3997 34.3063 72.9019 33.9837 73.3801 33.6252C73.3443 33.446 73.3084 33.2668 73.2845 33.0876C73.2606 32.9681 73.2486 32.8008 73.2367 32.6216C73.2128 32.4901 73.2008 32.3348 73.1888 32.1556L73.1769 32.0719C73.1649 31.9525 73.153 31.8449 73.153 31.7254C73.141 31.4626 73.1291 31.1878 73.1291 30.9129C73.1291 23.9112 77.2899 16.0372 82.6224 12.9664L83.2083 12.6199C83.0768 4.55473 78.0551 0.874617 71.8975 4.43525Z" fill="white"/>
<path d="M90.5378 10.7079L83.615 14.6986C78.9281 17.399 75.114 24.6875 75.114 30.9246C75.114 31.1755 75.126 31.4264 75.1379 31.6654C75.1379 31.8088 75.1499 31.9283 75.1618 32.0597C75.1738 32.1792 75.1858 32.2987 75.1977 32.4181C75.2097 32.5615 75.2216 32.693 75.2455 32.8363C75.3292 33.4935 75.4847 34.1029 75.676 34.6406C75.6999 34.7481 75.7477 34.8437 75.7836 34.9512C75.8314 35.0946 75.8912 35.226 75.951 35.3575C76.0107 35.4889 76.0705 35.6084 76.1303 35.7279C76.1901 35.8473 76.2499 35.9668 76.3336 36.0744C76.3575 36.1222 76.3814 36.158 76.4053 36.1819C76.5249 36.3731 76.6683 36.5523 76.7999 36.7315C76.8836 36.8271 76.9673 36.9227 77.0509 37.0063L77.314 37.2692C77.3977 37.3529 77.4933 37.4245 77.589 37.4962C77.6846 37.5679 77.7803 37.6396 77.8879 37.6994C77.9955 37.7591 78.0912 37.8188 78.1988 37.8786C78.3064 37.9383 78.402 37.9861 78.5216 38.0339C78.6292 38.0817 78.7488 38.1175 78.8564 38.1534C78.8683 38.1534 78.8683 38.1534 78.8683 38.1534C79.0716 38.2131 79.2748 38.2609 79.4781 38.2968C79.514 38.3087 79.5498 38.3087 79.5857 38.3207C79.6933 38.3326 79.8129 38.3446 79.9324 38.3446C80.052 38.3685 80.1716 38.3565 80.3151 38.3565C80.59 38.3565 80.889 38.3326 81.1998 38.2729C81.427 38.249 81.6542 38.1773 81.8813 38.1175C82.4433 37.9503 83.0292 37.6874 83.615 37.3529L85.9465 36.0027C86.4965 37.0302 87.4172 37.8427 89.2704 38.0459C90.4182 38.1773 91.5302 38.0698 92.3671 37.5321C92.6182 37.3648 92.678 36.8988 92.4628 36.863C90.8845 36.5762 89.4976 35.0707 89.4976 33.9714L90.5497 33.3621C91.1475 33.0156 91.7215 32.6093 92.2834 32.1194C92.4747 31.9641 92.666 31.7849 92.8573 31.6057C93.1921 31.295 93.5269 30.9365 93.8497 30.5661C93.9812 30.4228 94.1008 30.2794 94.2323 30.1241C94.3519 29.9926 94.4595 29.8492 94.579 29.6939C94.603 29.6461 94.6508 29.5983 94.6866 29.5505C95.141 28.9531 95.5714 28.3198 95.954 27.6507C96.0616 27.4715 96.1573 27.2923 96.2649 27.1131C96.3725 26.9338 96.4682 26.7546 96.5638 26.5634C96.6595 26.3842 96.7431 26.193 96.8388 26.0019L97.1018 25.4403C97.1855 25.2491 97.2692 25.0579 97.3529 24.8667C97.4964 24.5322 97.6279 24.1976 97.7475 23.8631C97.7714 23.8033 97.7953 23.7436 97.8192 23.6719C97.891 23.4807 97.9627 23.2896 98.0225 23.0984C98.154 22.716 98.2616 22.3456 98.3692 21.9633C98.6083 21.0313 98.7996 20.0993 98.9192 19.1793C98.9431 19.024 98.9551 18.8567 98.967 18.7014C98.979 18.5699 98.991 18.4265 99.0029 18.2951C99.0149 18.1517 99.0268 18.0203 99.0268 17.8769C99.0388 17.626 99.0507 17.3631 99.0507 17.1003C99.0268 10.8871 95.2127 8.00752 90.5378 10.7079Z" fill="white"/>
<path d="M37.735 109.176C33.2035 107.766 28.5644 111.422 25.5275 118.806C22.4905 126.19 16.1178 144.961 15.1732 149.98C14.2406 154.986 35.6067 165.883 35.0089 165.596C34.4111 165.298 37.735 109.176 37.735 109.176Z" fill="#1D1D1D"/>
<path d="M27.7871 282.978C27.1534 283.217 26.986 284.435 26.8903 286.849C26.8186 288.677 26.424 291.867 28.5642 292.501C30.7044 293.134 33.849 292.811 35.212 291.091C36.9218 288.94 38.0815 287.052 40.5326 284.423C42.6489 282.153 44.9445 280.026 45.8054 276.836C46.5825 273.957 45.9369 272.702 43.9641 271.866C41.2619 270.719 37.0055 274.482 34.8772 275.068C33.0598 275.582 28.4208 282.739 27.7871 282.978Z" fill="#263238"/>
<path d="M27.7871 280.743V283.707C27.7871 283.707 30.8719 286.072 35.2838 283.91C35.4153 283.623 36.0609 279.668 36.0609 279.668L27.7871 280.743Z" fill="#FFA8A7"/>
<path d="M51.8195 300.064C51.8195 300.064 50.9706 302.645 50.5043 304.904C50.1456 306.696 49.6195 309.695 50.2412 311.045C50.8749 312.395 53.314 313.267 57.1161 313.232C59.5792 313.208 63.4052 314.88 66.0356 316.35C68.7497 317.868 74.3812 318.465 77.2507 318.13C80.6344 317.736 84.1376 315.777 84.6757 314.379C85.2257 312.981 84.4963 311.523 76.5334 308.142C76.4616 308.106 65.4617 304.533 61.6118 300.291L51.8195 300.064Z" fill="#263238"/>
<path d="M51.8199 296.861C51.8199 296.861 51.8319 299.06 51.8199 300.314C51.8079 301.569 53.2905 303.445 57.1405 303.314C59.8426 303.218 61.7318 302.489 61.6242 300.267V297.064L51.8199 296.861Z" fill="#FFA8A7"/>
<path d="M25.862 241.385C27.225 231.695 29.3652 225.948 29.3652 225.948C29.3652 225.948 28.3011 212.625 27.7989 199.996C27.2489 186.351 27.8228 169.205 27.5717 165.799C27.5717 165.799 71.6311 156.886 72.4202 172.658C73.2093 188.43 70.6865 228.576 70.1605 235.506C69.6344 242.437 68.4387 248.566 67.004 259.798C65.5931 270.886 61.6236 297.053 61.6236 297.053C56.5899 299.777 51.8193 296.85 51.8193 296.85C51.8193 296.85 48.7226 265.306 49.0454 257.312C49.44 247.55 52.0824 239.856 52.0824 239.856C52.0824 239.856 51.2454 226.856 50.5041 215.541C49.7628 204.225 48.9857 198.789 48.8183 193.878L47.8737 193.412C47.8737 193.412 46.9052 212.924 46.3911 219.854C45.865 226.784 44.7651 233.427 42.7564 246.296C41.0107 257.456 35.8336 281.09 35.8336 281.09C30.8 283.814 27.7989 280.731 27.7989 280.731C27.7989 280.731 24.499 251.075 25.862 241.385Z" fill="#738D9A"/>
<path d="M48.8067 193.891C48.8067 193.891 38.1177 188.621 32.7732 183.878C32.7732 183.878 37.7351 190.868 44.2633 193.974C44.2633 193.974 46.5828 218.218 46.5709 217.74L47.91 193.855L48.8067 193.891Z" fill="#69838F"/>
<path d="M58.3236 104.182L55.7171 118.52L42.7563 117.576L45.4824 101.314L58.3236 104.182Z" fill="#FFA8A7"/>
<path d="M29.0664 116.525C30.3457 112.63 35.2957 108.388 40.2576 109.308C49.3564 110.993 56.5781 112.797 61.9465 114.72C66.478 116.334 70.6149 120.253 70.9855 135.164L73.2812 179.565L67.7932 180.747L65.8801 170.687L64.9834 180.747C59.2443 182.193 49.2966 180.998 42.7445 179.565C29.1142 176.589 27.4762 170.938 27.4762 170.938C27.4762 170.938 27.2968 145.954 27.7033 135.152C28.062 125.988 28.1816 119.201 29.0664 116.525Z" fill="black"/>
<path d="M67.9248 87.1914C67.9248 87.1914 71.0574 91.8393 70.6628 92.3292C70.2683 92.8311 68.3074 93.3687 68.3074 93.3687L67.9248 87.1914Z" fill="#FFA8A7"/>
<path d="M58.3242 72.4704C61.3491 73.9998 66.5741 76.8196 68.0088 87.8719C69.4914 99.2229 67.5425 102.879 66.0002 104.385C64.96 105.4 59.3285 105.46 56.5068 104.612C52.9677 103.548 44.9928 100.525 41.358 94.6945C37.0776 87.8361 36.1211 78.6477 40.9515 74.9915C47.7547 69.8537 55.7655 71.18 58.3242 72.4704Z" fill="#FFA8A7"/>
<path d="M68.6424 76.2701C67.6501 78.9943 65.9762 85.6615 59.0175 88.4455C59.0175 88.4455 58.0252 84.2038 54.4502 84.6459C50.8513 85.1 50.2654 89.6523 52.4654 92.4841C54.6654 95.3039 56.7936 94.2883 56.7936 94.2883C56.7936 94.2883 57.2719 100.382 53.2067 103.142C53.2067 103.142 48.2926 106.249 43.0916 103.859C40.7482 102.784 37.4362 97.1798 35.4993 92.5797C31.3863 82.8537 30.8004 75.0513 37.0178 72.59C37.783 68.1691 39.7677 66.5082 43.7851 65.6838C52.4056 63.9035 58.9219 69.567 66.1675 68.5753C69.9218 68.0496 69.7783 73.1635 68.6424 76.2701Z" fill="#37474F"/>
<path d="M36.8623 74.0717L32.7971 71.5506C33.4906 70.4274 34.9732 70.0809 36.0971 70.7739C37.209 71.4789 37.5558 72.9605 36.8623 74.0717Z" fill="#37474F"/>
<path d="M57.3795 109.403L58.8501 113.693C58.8501 113.693 57.774 115.604 53.135 115.7C48.5078 115.796 43.5818 114.326 42.0514 112.354C40.8199 110.777 41.1905 109.475 41.1905 109.475C41.1905 109.475 43.0318 105.412 44.7655 105.592L44.4666 107.348C44.4666 107.348 44.8611 108.794 49.0698 109.917C55.586 111.65 57.3795 109.403 57.3795 109.403Z" fill="#455A64"/>
<path d="M94.5515 137.912C96.4167 135.773 97.1341 131.03 99.633 127.78C102.072 124.613 103.029 122.152 104.021 123.574C105.324 125.45 102.383 129.213 103.041 129.584C103.686 129.954 106.137 134.913 106.376 137.661C106.627 140.409 99.3341 147.327 99.3341 147.327L94.5515 137.912Z" fill="#FFA8A7"/>
<path d="M57.3792 109.403C57.3792 109.403 58.2041 109.308 58.8498 110.251C59.4954 111.195 60.8106 114.326 60.8106 114.326L58.8498 113.681L57.3792 109.403Z" fill="#455A64"/>
<path d="M102.826 129.165C102.826 129.165 111.638 128.401 112.929 129.142C114.208 129.882 113.826 133.718 112.929 136.06C112.032 138.402 107.537 139.919 103.364 142.739C103.352 142.333 102.826 129.165 102.826 129.165Z" fill="#FFA8A7"/>
<path d="M60.823 114.326C64.6131 115.64 67.9251 117.17 71.4642 123.801C76.0076 132.332 84.6521 145.978 84.6521 145.978L94.552 137.243C94.552 137.243 96.0465 135.786 98.8324 140.398C101.618 144.998 99.8487 148.881 99.8487 148.881C99.8487 148.881 88.4183 162.299 86.2184 164.342C84.0184 166.385 80.4075 164.796 78.0521 161.582C75.6967 158.368 60.823 139.776 60.823 139.776C60.823 139.776 52.6926 129.118 60.823 114.326Z" fill="#1D1D1D"/>
<path d="M134.821 92.0663H163.05C165.274 92.0663 167.067 90.2741 167.067 88.0517V43.2332C167.067 35.8849 161.113 29.9346 153.76 29.9346H144.111C136.758 29.9346 130.804 35.8849 130.804 43.2332V88.0636C130.804 90.2741 132.597 92.0663 134.821 92.0663Z" fill="#37474F"/>
<path d="M130.063 76.7608C127.313 84.838 122.734 108.03 122.734 108.03C122.734 108.03 113.121 119.727 110.048 122.547C108.338 124.124 104.488 126.956 104.488 126.956L111.483 132.106C117.951 127.315 125.651 119.966 129.226 116.143C130.445 114.84 131.306 113.251 131.701 111.519L136.483 91.0153C136.483 91.0153 136.447 74.5265 139.018 72.3638C141.577 70.2012 142.258 69.7471 142.258 69.7471C139.03 69.5082 132.227 70.4282 130.063 76.7608Z" fill="#FFC3BD"/>
<path d="M143.765 69.5075C139.305 68.9938 133.59 69.0893 130.804 74.0718C128.018 79.0543 123.379 104.755 123.379 104.755C123.379 104.755 127.767 108.161 132.502 108.101L143.765 69.5075Z" fill="#E04E39"/>
<path d="M131.366 93.5118C131.366 93.5118 132.693 99.3904 132.298 105.209C131.939 110.359 128.388 119.38 128.388 119.38C128.388 119.38 131.174 122.439 139.03 121.208C145.426 120.205 143.167 100.92 139.484 97.18C135.801 93.4401 131.366 93.5118 131.366 93.5118Z" fill="#E04E39"/>
<path opacity="0.3" d="M131.366 93.5118C131.366 93.5118 132.693 99.3904 132.298 105.209C131.939 110.359 128.388 119.38 128.388 119.38C128.388 119.38 131.174 122.439 139.03 121.208C145.426 120.205 143.167 100.92 139.484 97.18C135.801 93.4401 131.366 93.5118 131.366 93.5118Z" fill="black"/>
<path d="M146.144 229.963C146.18 230.728 146.108 231.302 145.511 232.473C144.793 233.883 142.856 236.296 141.374 237.897C139.162 240.275 135.85 243.083 133.47 245.162C132.155 246.309 132.095 248.053 133.985 248.663C135.874 249.272 140.046 249.535 144.375 247.217C146.73 245.95 150.09 240.108 152.051 239.212C154.31 238.196 155.578 237.682 156.331 236.643C157.467 235.089 157.766 233.93 156.785 232.114C155.721 230.143 154.131 227.084 153.473 227.43L153.677 228.064C153.163 229.677 148.763 231.553 146.503 231.111L146.144 229.963Z" fill="#E04E39"/>
<path d="M169.196 162.55C170.224 151.76 173.129 134.495 170.14 121.698L130.457 123.801C129.357 136.431 128.089 175.86 129.441 180.377C131.043 185.706 145.355 222.591 146.144 230.011C146.096 231.337 146.096 231.337 145.51 232.496C144.793 233.894 142.856 236.319 141.361 237.932C140.285 239.091 138.946 240.346 137.583 241.565C137.451 241.78 137.392 241.971 137.392 242.138C137.392 243.369 140.393 243.704 142.162 243.19C144.314 242.556 146.144 240.931 147.602 239.02C148.619 237.67 150.902 235.065 152.337 233.129C152.959 232.317 153.425 231.624 153.592 231.17C154.107 229.891 153.963 228.995 153.772 228.374L153.676 228.087C152.899 225.661 152.421 223.164 152.241 220.631C151.691 212.494 150.293 193.699 149.001 188.693C147.339 182.253 144.948 178.226 144.948 178.226L149.479 143.002C149.479 143.002 149.97 174.056 151.369 181.978C152.481 188.323 152.923 196.268 154.214 207.141C155.446 217.56 156.797 235.913 156.797 235.913C156.821 235.937 156.857 235.949 156.904 235.961V244.635H164.449V239.545C164.449 237.239 164.64 234.945 165.011 232.675C166.159 225.757 168.693 209.889 169.22 204.537C170.033 196.017 166.96 185.324 166.96 185.324C166.96 185.324 168.203 173.041 169.196 162.55Z" fill="#FFC3BD"/>
<path d="M155.195 69.8785C155.195 69.8785 165.872 71.1092 167.151 71.6827C157.132 78.7203 165.238 94.3967 165.238 94.3967L161.4 106.417C165.669 111.877 169.363 115.127 171.635 121.125C174.182 127.816 176.453 137.757 175.832 158.118C166.255 165.311 137.165 164.51 125.818 158.118C125.818 158.118 127.731 140.111 129.991 126.12C131.485 116.884 135.013 106.823 134.415 103.454C129.931 89.6412 129.644 87.1559 130.445 84.0732C132.681 75.3987 141.529 69.5439 143.717 69.5439L155.195 69.8785Z" fill="white"/>
<path opacity="0.6" d="M155.195 69.8785C155.195 69.8785 165.872 71.1092 167.151 71.6827C157.132 78.7203 165.238 94.3967 165.238 94.3967L161.4 106.417C165.669 111.877 169.363 115.127 171.635 121.125C174.182 127.816 176.453 137.757 175.832 158.118C166.255 165.311 137.165 164.51 125.818 158.118C125.818 158.118 127.731 140.111 129.991 126.12C131.485 116.884 135.013 106.823 134.415 103.454C129.931 89.6412 129.644 87.1559 130.445 84.0732C132.681 75.3987 141.529 69.5439 143.717 69.5439L155.195 69.8785Z" fill="white"/>
<path d="M156.905 240.896V239.821C156.69 241.469 154.502 246.536 151.513 249.26C149.133 251.434 145.881 253.932 145.056 256.357C144.195 258.878 148.894 259.87 151.967 259.559C155.566 259.201 158.388 257.038 159.715 255.509C161.676 253.263 161.64 251.733 162.548 250.491C163.457 249.26 165.573 247.874 166.064 246.44C166.339 245.651 166.016 243.931 165.633 242.485C165.286 241.147 164.904 239.689 164.45 239.809C164.45 239.976 164.45 240.633 164.45 240.633C163.9 241.242 162.381 241.84 160.671 241.912C159.571 241.947 156.893 241.732 156.905 240.896Z" fill="#E04E39"/>
<path d="M164.449 240.633C163.899 241.242 162.381 241.84 160.671 241.911C159.571 241.959 156.893 241.732 156.893 240.896V239.82C156.678 241.469 154.49 246.535 151.501 249.26C150.927 249.773 150.305 250.323 149.683 250.873C148.416 252.283 148.775 253.513 151.752 253.764C154.729 254.015 157.347 252.223 159.607 249.463C161.867 246.691 164.449 240.633 164.449 240.633Z" fill="#FFC3BD"/>
<path d="M136.758 37.2588C134.845 38.3939 132.478 43.2091 132.705 53.2936C132.908 61.8486 135.682 63.9635 137.069 64.5729C138.468 65.1822 141.146 64.8118 143.765 64.3817V69.5195C143.765 69.5195 140.154 73.7134 140.381 76.0672C140.608 78.4211 145.594 78.9827 148.966 76.6766C152.349 74.3825 155.183 69.8899 155.183 69.8899L155.123 58.0849C155.123 58.0849 156.666 59.5784 159.272 57.2963C161.424 55.4204 162.153 52.2421 160.468 50.5454C158.794 48.8488 155.697 49.3028 154.501 51.7283C154.501 51.7283 153.055 47.7017 147.029 45.7302C141.612 43.9619 138.659 41.9187 136.758 37.2588Z" fill="#FFC3BD"/>
<path d="M142.27 51.1434C142.234 51.7647 142.7 52.2785 143.286 52.3143C143.884 52.3382 144.386 51.8603 144.422 51.2509C144.458 50.6296 143.992 50.1158 143.406 50.08C142.808 50.0561 142.294 50.534 142.27 51.1434Z" fill="#37474F"/>
<path d="M141.983 58.3955L139.484 59.196C139.688 59.913 140.417 60.3073 141.11 60.0922C141.792 59.8771 142.187 59.1124 141.983 58.3955Z" fill="#F28F8F"/>
<path d="M133.446 47.8456L135.622 46.3401C135.228 45.7188 134.415 45.5515 133.817 45.9697C133.207 46.3879 133.052 47.2242 133.446 47.8456Z" fill="#37474F"/>
<path d="M145.402 48.6454L143.226 47.1399C143.621 46.5186 144.434 46.3513 145.032 46.7695C145.63 47.1757 145.797 48.0241 145.402 48.6454Z" fill="#37474F"/>
<path d="M133.948 50.366C133.912 50.9873 134.379 51.5011 134.965 51.537C135.562 51.5609 136.065 51.0829 136.1 50.4736C136.136 49.8522 135.67 49.3385 135.084 49.3026C134.486 49.2787 133.972 49.7567 133.948 50.366Z" fill="#37474F"/>
<path d="M139.018 49.7568L138.851 56.2329L135.443 55.1695L139.018 49.7568Z" fill="#F5B5AF"/>
<path d="M143.764 64.3819C146.514 64.0234 152.182 62.3984 153.066 60.1641C153.066 60.1641 152.768 61.574 151.082 63.0197C149.396 64.4655 143.764 66.1024 143.764 66.1024V64.3819Z" fill="#F5B5AF"/>
<path d="M163.265 99.8564L155.733 110.06L161.412 106.416L163.265 99.8564Z" fill="#27DEBF"/>
<path d="M103.83 126.956C102.216 129.035 101.224 133.073 100.375 134.436C99.5259 135.798 98.5096 136.981 100.375 137.231C102.24 137.482 104.966 133.838 105.982 131.628C106.999 129.417 108.696 128.82 108.696 128.82C107.812 128.521 108.278 125.02 107.656 124.53C107.668 124.542 104.5 125.845 103.83 126.956Z" fill="#FFC3BD"/>
<path d="M103.364 142.74C105.05 141.485 105.097 139.944 105.432 137.494C105.767 135.033 112.51 132.404 112.714 134.233C112.929 136.061 113.539 137.59 111.47 139.801C109.39 142.011 106.449 144.377 103.364 142.74Z" fill="#FFC3BD"/>
<path d="M155.195 69.8779C155.195 69.8779 165.191 70.7382 167.151 71.6821C169.112 72.6141 172.376 78.2418 169.447 86.4384C166.53 94.6351 163.887 104.254 164.174 106.189C164.473 108.125 171.444 118.126 171.444 118.126C169.423 119.428 167.271 120.79 165.035 121.196L161.46 113.406L162.297 121.686C162.297 121.686 155.877 123.24 151.285 122.845C151.297 122.845 147.902 91.0864 155.195 69.8779Z" fill="#E04E39"/>
<path d="M179.837 108.89C180.626 104.17 179.849 102.641 178.175 98.0166L169.746 103.429C169.746 103.429 171.109 106.906 170.989 108.89C170.918 110.24 169.064 123.742 167.331 128.461C167.02 129.298 166.398 129.979 165.609 130.397C163.505 131.52 162.596 132.763 160.97 134.244C159.691 135.403 158.662 135.654 158.782 136.06C158.949 136.586 159.738 137.47 161.233 137.124C161.986 136.945 162.967 136.443 164.21 135.762C164.21 135.762 163.194 138.187 160.934 140.601C157.861 143.875 157.598 146.001 163.301 146.444C166.876 146.718 169.889 144.711 173.13 137.004C174.062 134.782 174.851 131.317 175.605 128.366C177.338 121.627 179.036 113.633 179.837 108.89Z" fill="#FFC3BD"/>
<path d="M167.163 71.6826C171.193 73.4868 172.341 77.0475 173.823 82.2809C175.306 87.5143 180.017 103.214 180.017 103.214C180.017 103.214 175.987 108.03 170.404 106.656L163.278 89.2468C163.266 89.2348 159.918 77.8838 167.163 71.6826Z" fill="#E04E39"/>
</svg>
