<svg width="338" height="295" viewBox="0 0 338 295" fill="none" xmlns="http://www.w3.org/2000/svg">
<g clip-path="url(#clip0)">
<path d="M39.9229 105.695C43.8075 117.401 48.7498 129.452 46.9806 142.637C45.6921 152.363 40.846 161.916 36.5191 171.526C28.9229 188.383 22.6729 206.854 26.1537 224.345C28.3844 235.551 33.3844 243.739 43.1729 251.235C55.8844 260.96 72.2498 265.477 88.8267 264.901C132.942 263.363 167.577 249.793 180.865 258.942C197.154 270.148 216.231 280.162 237.558 281.546C259.154 282.949 279.404 271.666 288.981 255.444C296.096 243.393 295.596 226.863 299.173 213.485C303.981 195.514 314.692 189.363 325.596 176.331C332.634 167.932 335.711 156.63 337.134 145.463C338.75 132.796 338.404 119.438 333.404 107.521C324.173 85.5518 305.365 86.2053 288.269 75.1918C274.307 66.1773 270.269 44.7654 258.558 34.8667C247.096 25.1795 231.192 17.1836 213.884 19.1057C198.192 20.8356 184.865 30.273 169.5 33.4252C135.634 40.3639 106.654 15.3961 74.4998 23.2766C55.5383 27.928 41.096 43.4007 36.3652 58.835C31.5383 74.6152 34.8844 90.53 39.9229 105.695Z" fill="white"/>
<path d="M121.421 43.708C121.421 43.708 118.94 58.854 115.19 65.2737L131.536 71.5589C131.536 71.5589 131.536 60.1802 133.113 53.0301L121.421 43.708Z" fill="#FFBE9D"/>
<path d="M123.018 44.9958C123.037 44.8997 123.057 44.7844 123.076 44.6883L121.403 43.708C121.403 43.708 121.403 43.7657 121.384 43.7849C121.268 44.4384 120.403 49.5319 118.98 54.8753C117.961 58.7194 116.672 62.6981 115.153 65.2737L124.461 68.8487C122.23 66.1194 121.153 61.2373 121.153 57.6238C121.153 57.6046 121.153 57.6046 121.153 57.5854C121.153 55.0098 123.191 52.8379 125.768 52.6264C128.191 52.4342 130.614 52.8955 132.864 54.2218C132.941 53.8181 133.018 53.4145 133.095 53.0301L123.018 44.9958Z" fill="#EDAB89"/>
<path d="M130.98 65.8704C131.211 65.9857 131.442 66.0818 131.673 66.1971C131.846 62.2953 132.23 57.0288 133.115 53.0309L128.827 50.5322C127.923 55.4912 125.75 62.9488 130.98 65.8704Z" fill="#1B0B30"/>
<path d="M138.134 21.5664C142.576 21.9508 145.307 24.6994 147.519 28.582C148.192 29.7545 148.73 31.1191 148.884 32.5991C149.365 37.1929 152.961 42.517 153.692 44.2277C154.422 45.9191 152.307 45.6116 150.788 45.4386C149.269 45.2656 149.73 45.8038 149.595 46.5342C149.461 47.2645 144.461 60.8152 136.942 56.4521C129.442 52.089 125.422 48.5716 121.269 44.4199C117.115 40.2682 113.922 35.0594 118.595 30.9461C123.288 26.8329 126.826 24.5649 133.095 22.2391C134.845 21.5664 136.557 21.4319 138.134 21.5664Z" fill="#FFBE9D"/>
<path d="M146 37.4037C146.154 38.0956 145.616 38.8068 144.808 38.9606C144 39.1336 143.231 38.6915 143.077 37.9995C142.923 37.3076 143.462 36.5964 144.27 36.4427C145.096 36.2889 145.866 36.7117 146 37.4037Z" fill="#100142"/>
<path d="M141.787 34.6555C141.653 34.6747 141.499 34.5979 141.422 34.4825C141.307 34.3095 141.364 34.0789 141.537 33.9636C141.634 33.9059 143.98 32.4644 146.768 33.1179C146.98 33.1755 147.095 33.3677 147.057 33.5792C147.018 33.7906 146.807 33.9059 146.595 33.8675C144.134 33.2716 141.98 34.5979 141.961 34.5979C141.903 34.6363 141.845 34.6555 141.787 34.6555Z" fill="#100142"/>
<path d="M125.212 25.9485C125.212 25.9485 118.443 21.816 114.443 23.0269C110.443 24.2378 107.539 28.2742 108.905 33.8482C110.27 39.4222 113.193 39.4991 114.481 43.4586C115.77 47.418 119.885 51.1276 119.924 50.9162C119.962 50.7048 120.943 46.5915 121.251 44.4196C121.251 44.4196 116.212 40.2103 119.155 36.8658C122.097 33.5214 123.751 39.1723 123.751 39.1723C123.751 39.1723 123.193 43.0549 123.751 48.1292C124.308 53.2035 127.943 62.1796 140.789 64.4284C153.635 66.6964 149.866 46.3993 150.097 45.3999C150.097 45.3999 149.27 44.4965 147.328 45.3038C145.385 46.111 141.674 51.3583 139.981 51.5121C138.289 51.6658 133.289 51.3583 133.693 45.3806C134.116 39.403 134.328 30.869 125.212 25.9485Z" fill="black"/>
<path d="M119.422 23.8342C119.422 23.8342 116.519 18.6638 121.115 16.242C125.711 13.8202 128.538 17.8565 133.096 16.7225C137.653 15.5885 140.903 10.9947 150.461 13.0129C160.019 15.0311 157.365 24.6415 156.711 26.3329C156.057 28.0243 152.422 33.2716 147.826 31.4264C143.23 29.562 142.326 28.6778 139.519 28.1973C136.692 27.7168 129.346 28.1204 126.442 27.4669C123.538 26.8134 119.422 23.8342 119.422 23.8342Z" fill="black"/>
<path d="M128.518 21.9698C131.595 21.9121 133.845 19.8555 136.48 18.5485C138.768 17.4145 141.768 17.7989 143.691 19.4519C147.672 22.8732 150.903 26.6789 156.403 22.7194C156.768 22.4503 157.153 22.162 157.538 21.8737C157.634 18.4716 156.422 14.2815 150.461 13.0129C140.903 10.9947 137.653 15.5885 133.095 16.7225C128.538 17.8565 125.711 13.8202 121.115 16.242C121.095 16.2612 121.076 16.2612 121.057 16.2804C121.48 19.6825 125.095 22.0467 128.518 21.9698Z" fill="#043046"/>
<path d="M153.597 278.394C153.597 278.394 152.001 291.098 153.597 292.502C155.193 293.905 184.578 293.136 184.578 293.136C184.578 293.136 187.924 291.963 187.001 289.503C186.693 288.677 185.731 287.639 183.693 286.351C175.578 281.142 171.597 282.391 168.078 278.413H153.597V278.394Z" fill="#100142"/>
<path d="M153.597 278.394C153.597 278.394 152.001 291.098 153.597 292.502C155.193 293.905 184.578 293.136 184.578 293.136C184.578 293.136 187.924 291.963 187.001 289.503C186.693 288.677 185.731 287.639 183.693 286.351C175.578 281.142 171.597 282.391 168.078 278.413H153.597V278.394Z" fill="black"/>
<path d="M159.326 279.835C159.326 279.835 157.73 292.713 159.326 294.154C160.922 295.577 190.307 294.789 190.307 294.789C190.307 294.789 193.653 293.597 192.73 291.098C192.423 290.272 191.461 289.215 189.423 287.888C181.307 282.603 177.326 283.871 173.807 279.835H159.326Z" fill="black"/>
<path d="M152.385 281.065H165.731C165.731 281.065 172.712 185.5 166.558 172.987C160.404 160.455 132.866 167.644 132.866 167.644L123.212 187.557L147.443 189.805C147.443 189.805 141.904 197.398 144.366 215.561C146.827 233.763 152.385 281.065 152.385 281.065Z" fill="url(#paint0_linear)"/>
<path d="M152.385 281.065H165.731C165.731 281.065 172.712 185.5 166.558 172.987C160.404 160.455 132.866 167.644 132.866 167.644L123.212 187.557L147.443 189.805C147.443 189.805 141.904 197.398 144.366 215.561C146.827 233.763 152.385 281.065 152.385 281.065Z" fill="black"/>
<path d="M150.518 161.704C150.518 161.704 175.365 170.027 176.807 177.946C178.249 185.865 175.768 282.545 175.768 282.545H159.768C159.768 282.545 152.788 251.734 151.557 242.566C150.326 233.398 145.403 205.009 151.557 192.092L119.307 189.382C119.307 189.401 123.211 156.707 150.518 161.704Z" fill="#043046"/>
<path d="M195.557 119.226V126.28C195.557 126.28 220.519 128.568 221.711 127.107C222.903 125.646 213.615 116.017 211.23 116.017C208.846 116.017 203.019 117.477 195.557 119.226Z" fill="#FFBE9D"/>
<path d="M196.635 117.708L197.039 127.588C197.039 127.588 156.385 128.261 152.712 127.588C149.039 126.915 115.654 92.7598 120.596 77.5562C125.539 62.3526 140.577 90.5687 143.154 94.9702C145.712 99.3718 156.712 112.077 159.943 112.807C163.173 113.537 196.635 117.708 196.635 117.708Z" fill="url(#paint1_linear)"/>
<path d="M196.635 117.708L197.039 127.588C197.039 127.588 156.385 128.261 152.712 127.588C149.039 126.915 115.654 92.7598 120.596 77.5562C125.539 62.3526 140.577 90.5687 143.154 94.9702C145.712 99.3718 156.712 112.077 159.943 112.807C163.173 113.537 196.635 117.708 196.635 117.708Z" fill="#D1D9DD"/>
<path d="M193.596 121.265V128.319C193.596 128.319 218.558 130.606 219.75 129.145C220.942 127.684 211.654 118.055 209.269 118.055C206.885 118.055 201.039 119.515 193.596 121.265Z" fill="#FFBE9D"/>
<path d="M131.558 69.7529L115.192 65.2744C115.192 65.2744 99.2498 73.4625 93.4229 82.823C87.6152 92.1835 74.6537 155.535 81.1152 176.505C87.5767 197.494 144.365 192.535 144.365 192.535C144.365 192.535 151.384 176.985 164.961 164.646C164.961 164.646 132.327 154.478 130.365 153.017C128.384 151.556 137.634 97.2577 138 95.0666C138.346 92.9139 138.808 80.8817 131.558 69.7529Z" fill="#F7F9FA"/>
<path d="M194.518 119.246L194.922 129.048C194.922 129.048 154.595 129.721 150.961 129.048C147.326 128.376 100.576 97.5263 112.153 80.9773C126.384 60.6609 138.942 92.3367 141.499 96.6998C144.038 101.063 154.942 113.653 158.134 114.383C161.326 115.113 194.518 119.246 194.518 119.246Z" fill="#F7F9FA"/>
<path opacity="0.55" d="M150.961 129.048C154.192 129.644 194.923 129.163 194.923 129.163L194.711 123.974C188.923 123.147 183.346 123.82 177.538 124.032C169.981 124.32 150.596 122.955 145.096 116.516C141.519 112.345 138.731 105.676 133.558 102.427C130.231 100.332 127.634 98.4103 125.173 95.3158C121.673 90.9334 117.654 81.8228 116.25 75.5761C118.269 72.7698 120.442 70.0213 122.577 67.3111L115.192 65.293C115.192 65.293 99.2498 73.481 93.4229 82.8415C87.6152 92.202 74.6537 155.554 81.1152 176.523C87.5767 197.512 144.365 192.554 144.365 192.554C144.365 192.554 146.25 188.421 149.904 182.732C149.865 182.732 149.827 182.732 149.788 182.732C141.634 182.194 138.538 172.256 130.115 171.91C125.115 171.699 115.404 172.526 112.211 167.24C109.365 162.512 105.981 161.07 104.731 155.765C102.558 146.558 113 141.003 113.346 132.431C113.519 127.991 110.808 124.185 109.442 120.13C107.808 115.267 109.346 110.519 111.192 105.926C112.673 102.216 112.211 98.4103 111.654 94.6238C121.442 110.673 148.634 128.625 150.961 129.048Z" fill="#738D9A"/>
<path d="M74.0005 189.113L77.962 294.481H84.2697L88.2313 189.113H74.0005Z" fill="black"/>
<path d="M130.866 189.113L134.828 294.481H141.155L145.097 189.113H130.866Z" fill="black"/>
<path d="M148.289 186.923H70.1733V198.263H148.289V186.923Z" fill="black"/>
<path d="M74.2112 81.8195L61.9292 83.0732L72.859 190.035L85.141 188.781L74.2112 81.8195Z" fill="black"/>
<path d="M272.404 141.907H186.654V295.02H272.404V141.907Z" fill="#E4C5A8"/>
<path opacity="0.75" d="M208.174 162.723H272.404V141.907H186.654V295H196.058L208.174 162.723Z" fill="#E4C5A7"/>
<path d="M283.289 129.164H175.75V141.888H283.289V129.164Z" fill="#C39367"/>
<path d="M241.634 74.4619L241.287 86.0712L251.095 125.455L265.268 124.532L241.634 74.4619Z" fill="black"/>
<path d="M270.748 123.206H235.229V129.164H270.748V123.206Z" fill="black"/>
<path d="M228.672 126.185H203.269V129.164H228.672V126.185Z" fill="black"/>
<path d="M241.811 44.1587L229.335 113.414L238.079 114.988L250.555 45.7322L241.811 44.1587Z" fill="black"/>
<path d="M229.962 109.982L233.192 110.559L244.731 48.6486L241.135 47.9951L229.962 109.982Z" fill="#D1D9DD"/>
<path d="M150.424 49.6864C149.924 49.5327 149.347 49.2444 148.712 48.7062C148.558 48.5716 148.308 48.5909 148.174 48.7446C148.039 48.8984 148.058 49.1483 148.212 49.2828C149.039 49.9748 149.789 50.3207 150.443 50.4745C150.443 50.2054 150.424 49.9555 150.424 49.6864Z" fill="url(#paint2_linear)"/>
<path d="M202.75 70.329C202.75 73.4812 200.192 76.0183 197.057 76.0183C193.903 76.0183 191.365 73.462 191.365 70.329C191.365 67.196 193.923 64.6396 197.057 64.6396C200.192 64.6396 202.75 67.1768 202.75 70.329Z" fill="#E04E39"/>
<path opacity="0.75" d="M200.653 73.2128C198.346 73.2128 196.48 71.3483 196.48 69.0419C196.48 67.1967 197.673 65.659 199.327 65.1016C198.634 64.7941 197.865 64.6211 197.057 64.6211C193.903 64.6211 191.365 67.1775 191.365 70.3104C191.365 73.4434 193.923 75.9998 197.057 75.9998C199.269 75.9998 201.173 74.7504 202.115 72.9052C201.653 73.0974 201.173 73.2128 200.653 73.2128Z" fill="#E04E39"/>
<path d="M218.211 92.2022H218.192C217.596 92.1637 216.942 92.0676 216.23 91.9138C216.038 91.8754 215.923 91.6832 215.961 91.5102C216 91.318 216.192 91.2027 216.365 91.2411C217.038 91.3949 217.653 91.491 218.211 91.5294C218.403 91.5486 218.538 91.7024 218.538 91.8946C218.538 92.0676 218.384 92.2022 218.211 92.2022ZM220.134 92.0868C219.98 92.0868 219.846 91.9715 219.807 91.8177C219.769 91.6255 219.884 91.4525 220.057 91.4141C220.692 91.2603 221.192 90.9912 221.519 90.5876C221.634 90.4531 221.865 90.4146 222 90.5299C222.153 90.6453 222.173 90.8375 222.076 90.9912C222.076 91.0105 222.038 91.0297 222.019 91.0489C221.615 91.5486 221 91.8946 220.211 92.0868C220.173 92.0868 220.153 92.0868 220.134 92.0868ZM214.442 91.4141C214.403 91.4141 214.365 91.4141 214.346 91.3949C213.769 91.2027 213.153 90.9912 212.5 90.7414C212.326 90.6645 212.23 90.4723 212.307 90.2993C212.384 90.1263 212.576 90.0302 212.75 90.1071C213.384 90.357 213.98 90.5684 214.557 90.7414C214.73 90.799 214.846 90.9912 214.788 91.1642C214.73 91.318 214.596 91.4141 214.442 91.4141ZM210.846 90.011C210.807 90.011 210.75 90.011 210.711 89.9725C210.134 89.7227 209.557 89.4344 208.961 89.1461C208.788 89.0692 208.73 88.8577 208.807 88.6848C208.884 88.5118 209.096 88.4541 209.269 88.531C209.865 88.8193 210.442 89.0884 211 89.3575C211.173 89.4344 211.25 89.6458 211.173 89.8188C211.096 89.9341 210.98 90.011 210.846 90.011ZM222.403 89.319C222.384 89.319 222.384 89.319 222.403 89.319C222.211 89.319 222.057 89.1461 222.057 88.9731V88.8193C222.057 88.3388 221.98 87.7814 221.807 87.1663C221.75 86.9741 221.865 86.8011 222.057 86.7435C222.25 86.6858 222.423 86.8011 222.48 86.9933C222.653 87.6661 222.75 88.2811 222.75 88.8193V88.9923C222.73 89.1845 222.576 89.319 222.403 89.319ZM207.384 88.3003C207.326 88.3003 207.269 88.2811 207.23 88.2619C206.673 87.9736 206.115 87.6468 205.538 87.3201C205.365 87.224 205.307 87.0126 205.403 86.8588C205.5 86.6858 205.711 86.6281 205.865 86.7242C206.442 87.051 207 87.3585 207.538 87.6468C207.711 87.7429 207.769 87.9352 207.673 88.1081C207.615 88.2427 207.5 88.3003 207.384 88.3003ZM204.019 86.3975C203.961 86.3975 203.903 86.3783 203.846 86.3398C203.307 86.0131 202.75 85.6671 202.192 85.3211C202.038 85.225 201.98 85.0136 202.096 84.8406C202.192 84.6868 202.403 84.6292 202.576 84.7445C203.134 85.0905 203.673 85.4365 204.211 85.7632C204.365 85.8593 204.423 86.0707 204.326 86.2245C204.25 86.3398 204.134 86.3975 204.019 86.3975ZM221.5 85.6094C221.365 85.6094 221.25 85.5326 221.192 85.398C220.961 84.8598 220.673 84.2832 220.365 83.6874C220.269 83.5144 220.346 83.3222 220.5 83.2261C220.673 83.13 220.865 83.1876 220.961 83.3606C221.288 83.9757 221.576 84.5523 221.826 85.1289C221.903 85.3019 221.826 85.4941 221.653 85.571C221.596 85.5902 221.538 85.6094 221.5 85.6094ZM200.769 84.3216C200.711 84.3216 200.634 84.3024 200.576 84.264C200.038 83.918 199.519 83.5528 198.98 83.1684C198.826 83.0531 198.788 82.8417 198.903 82.6879C199.019 82.5341 199.23 82.4957 199.384 82.611C199.923 82.9762 200.442 83.3414 200.98 83.6874C201.134 83.7835 201.173 83.9949 201.076 84.1679C200.98 84.264 200.884 84.3216 200.769 84.3216ZM219.673 82.2074C219.557 82.2074 219.442 82.1497 219.384 82.0536C219.057 81.5346 218.711 80.9965 218.326 80.4583C218.211 80.3045 218.25 80.0931 218.403 79.9778C218.557 79.8624 218.769 79.9009 218.884 80.0546C219.269 80.612 219.634 81.1502 219.961 81.6692C220.057 81.823 220.019 82.0344 219.846 82.1497C219.807 82.1881 219.73 82.2074 219.673 82.2074ZM197.596 82.1113C197.519 82.1113 197.461 82.092 197.403 82.0536C196.884 81.6884 196.365 81.304 195.846 80.9004C195.692 80.785 195.673 80.5736 195.769 80.4198C195.884 80.2661 196.096 80.2469 196.25 80.343C196.769 80.7274 197.288 81.1118 197.807 81.477C197.961 81.5923 198 81.8037 197.884 81.9575C197.807 82.0728 197.692 82.1113 197.596 82.1113ZM194.5 79.8048C194.423 79.8048 194.346 79.7856 194.288 79.7279C193.788 79.3435 193.269 78.9398 192.769 78.5362C192.615 78.4209 192.596 78.2095 192.711 78.0557C192.826 77.9019 193.038 77.8827 193.192 77.998C193.692 78.4017 194.192 78.8053 194.711 79.1897C194.865 79.305 194.884 79.5165 194.769 79.6702C194.711 79.7663 194.596 79.8048 194.5 79.8048ZM217.48 79.0359C217.384 79.0359 217.269 78.9975 217.211 78.9014C216.846 78.4017 216.442 77.9019 216.038 77.383C215.923 77.2292 215.942 77.0178 216.096 76.9024C216.25 76.7871 216.461 76.8063 216.576 76.9601C217 77.4791 217.384 77.9788 217.769 78.4978C217.884 78.6515 217.846 78.863 217.711 78.9783C217.615 79.0167 217.538 79.0359 217.48 79.0359ZM191.25 77.2869C190.769 76.8832 190.269 76.4796 189.788 76.0567C189.653 75.9414 189.634 75.7108 189.75 75.5762C189.865 75.4224 190.096 75.4224 190.23 75.5378C190.711 75.9606 191.211 76.3643 191.692 76.7679L191.25 77.2869ZM215.057 76.0375C214.961 76.0375 214.865 75.9991 214.788 75.9222C214.384 75.4417 213.961 74.9611 213.519 74.4806C213.384 74.3461 213.403 74.1154 213.538 74.0001C213.673 73.8848 213.903 73.8848 214.019 74.0193C214.461 74.4998 214.884 74.9996 215.288 75.4801C215.403 75.6339 215.384 75.8453 215.25 75.9606C215.211 75.9991 215.134 76.0375 215.057 76.0375ZM188.557 74.8843C188.48 74.8843 188.403 74.865 188.326 74.8074C187.846 74.3845 187.365 73.9424 186.884 73.5196C186.75 73.385 186.73 73.1736 186.865 73.0391C187 72.9045 187.211 72.8853 187.346 73.0199C187.807 73.4427 188.288 73.8848 188.769 74.3076C188.903 74.4422 188.923 74.6536 188.788 74.7882C188.75 74.8458 188.653 74.8843 188.557 74.8843ZM212.48 73.1544C212.384 73.1544 212.307 73.116 212.23 73.0391C211.788 72.5778 211.346 72.1165 210.903 71.6552C210.769 71.5206 210.769 71.3092 210.903 71.1747C211.038 71.0401 211.25 71.0401 211.384 71.1747C211.846 71.636 212.288 72.1165 212.73 72.5778C212.865 72.7123 212.846 72.9237 212.711 73.0583C212.634 73.1352 212.557 73.1544 212.48 73.1544ZM185.711 72.2702C185.634 72.2702 185.538 72.2318 185.48 72.1741C185 71.7321 184.538 71.2708 184.096 70.8287C183.961 70.6941 183.961 70.4827 184.096 70.3482C184.23 70.2136 184.442 70.2136 184.576 70.3482C185.038 70.7902 185.48 71.2323 185.961 71.6744C186.096 71.8089 186.096 72.0204 185.98 72.1549C185.884 72.2318 185.788 72.2702 185.711 72.2702ZM209.769 70.4058C209.673 70.4058 209.596 70.3674 209.538 70.3097C209.076 69.8677 208.615 69.4256 208.153 68.9643C208.019 68.8297 208.019 68.6183 208.134 68.4838C208.269 68.3492 208.48 68.3492 208.615 68.4645C209.096 68.9066 209.557 69.3679 210 69.81C210.134 69.9445 210.134 70.156 210 70.2905C209.942 70.3674 209.865 70.4058 209.769 70.4058ZM182.961 69.5601C182.865 69.5601 182.788 69.5217 182.711 69.464C182.25 69.0027 181.807 68.5222 181.365 68.0609C181.23 67.9264 181.25 67.7149 181.384 67.5804C181.519 67.4458 181.73 67.4458 181.865 67.5996C182.288 68.0609 182.75 68.5222 183.192 68.9835C183.326 69.118 183.326 69.3295 183.192 69.464C183.134 69.5409 183.038 69.5601 182.961 69.5601ZM206.961 67.7534C206.884 67.7534 206.788 67.7149 206.73 67.6573C206.269 67.2344 205.788 66.7923 205.307 66.3695C205.173 66.2349 205.153 66.0235 205.288 65.889C205.423 65.7544 205.634 65.7352 205.769 65.8697C206.25 66.2926 206.73 66.7347 207.211 67.1575C207.346 67.2921 207.365 67.5035 207.23 67.638C207.153 67.7149 207.057 67.7534 206.961 67.7534ZM180.307 66.7539C180.211 66.7539 180.115 66.7154 180.057 66.6386C179.615 66.1388 179.192 65.6583 178.788 65.1778C178.673 65.024 178.692 64.8126 178.826 64.6973C178.98 64.5819 179.192 64.6012 179.307 64.7357C179.711 65.2162 180.134 65.6968 180.576 66.1773C180.711 66.3118 180.692 66.5425 180.557 66.6578C180.48 66.7154 180.384 66.7539 180.307 66.7539ZM204.076 65.1778C204 65.1778 203.923 65.1586 203.846 65.1009C203.365 64.6973 202.884 64.2744 202.384 63.8708L202.807 63.3326L202.826 63.3518C203.326 63.7555 203.807 64.1783 204.288 64.5819C204.442 64.6973 204.442 64.9279 204.326 65.0625C204.269 65.1393 204.173 65.1778 204.076 65.1778ZM177.807 63.8131C177.711 63.8131 177.615 63.7747 177.538 63.6786C177.115 63.1596 176.73 62.6599 176.346 62.1409C176.23 61.9871 176.269 61.7757 176.403 61.6604C176.557 61.5451 176.769 61.5835 176.884 61.7181C177.25 62.2178 177.653 62.7175 178.057 63.2365C178.173 63.3903 178.153 63.6017 178 63.717C177.961 63.7939 177.884 63.8131 177.807 63.8131ZM201.096 62.7175C201.019 62.7175 200.942 62.6983 200.884 62.6407C200.384 62.237 199.884 61.8334 199.365 61.449C199.211 61.3336 199.192 61.1222 199.307 60.9684C199.423 60.8147 199.634 60.7955 199.788 60.9108C200.288 61.2952 200.807 61.6988 201.307 62.1025C201.461 62.2178 201.48 62.4292 201.365 62.583C201.307 62.6791 201.192 62.7175 201.096 62.7175ZM175.48 60.7378C175.365 60.7378 175.269 60.6801 175.192 60.584C174.807 60.0266 174.442 59.4885 174.115 58.9695C174.019 58.8157 174.057 58.6043 174.23 58.489C174.384 58.3929 174.596 58.4313 174.711 58.6043C175.038 59.1233 175.384 59.6614 175.769 60.1996C175.884 60.3534 175.846 60.5648 175.692 60.6801C175.615 60.7186 175.557 60.7378 175.48 60.7378ZM198.057 60.3534C197.98 60.3534 197.923 60.3342 197.846 60.2765C197.326 59.8921 196.807 59.5077 196.288 59.1425C196.134 59.0272 196.096 58.8157 196.211 58.662C196.326 58.5082 196.538 58.4697 196.692 58.5851C197.211 58.9503 197.73 59.3347 198.25 59.7383C198.403 59.8536 198.423 60.0651 198.326 60.2188C198.25 60.3149 198.153 60.3534 198.057 60.3534ZM194.923 58.1046C194.846 58.1046 194.788 58.0853 194.73 58.0469C194.192 57.6817 193.673 57.3165 193.134 56.9705C192.98 56.8744 192.942 56.663 193.038 56.49C193.134 56.3362 193.365 56.2978 193.519 56.3939C194.057 56.7399 194.576 57.1051 195.115 57.4895C195.269 57.6048 195.307 57.8162 195.211 57.97C195.134 58.0469 195.019 58.1046 194.923 58.1046ZM173.442 57.451C173.326 57.451 173.211 57.3934 173.134 57.2781C172.807 56.663 172.519 56.0864 172.269 55.5098C172.192 55.3368 172.269 55.1253 172.442 55.0677C172.615 54.9908 172.826 55.0677 172.884 55.2407C173.115 55.7788 173.403 56.3555 173.711 56.9513C173.807 57.1243 173.73 57.3165 173.576 57.4126C173.557 57.4511 173.5 57.451 173.442 57.451ZM191.692 55.9711C191.634 55.9711 191.557 55.9518 191.5 55.9134C190.942 55.5674 190.403 55.2214 189.865 54.8947C189.711 54.7986 189.653 54.5872 189.75 54.4334C189.846 54.2796 190.057 54.222 190.211 54.3181C190.75 54.6448 191.307 54.9908 191.865 55.3368C192.019 55.4329 192.076 55.6443 191.961 55.8173C191.923 55.9134 191.807 55.9711 191.692 55.9711ZM188.403 53.9721C188.346 53.9721 188.288 53.9529 188.23 53.9337C187.653 53.6069 187.096 53.2994 186.557 53.0111C186.384 52.915 186.326 52.7227 186.423 52.5498C186.519 52.3768 186.711 52.3191 186.884 52.4152C187.442 52.7035 188 53.0303 188.576 53.357C188.75 53.4531 188.788 53.6646 188.711 53.8183C188.634 53.9144 188.519 53.9721 188.403 53.9721ZM171.942 53.9144C171.788 53.9144 171.653 53.8183 171.615 53.6646C171.442 53.0111 171.346 52.396 171.346 51.8386V51.6464C171.346 51.4542 171.5 51.3004 171.692 51.3196C171.884 51.3196 172.038 51.4926 172.019 51.6656V51.8386C172.019 52.3191 172.096 52.8765 172.25 53.4724C172.307 53.6646 172.192 53.8376 172 53.8952C172 53.8952 171.98 53.9144 171.942 53.9144ZM184.98 52.1461C184.923 52.1461 184.884 52.1269 184.826 52.1077C184.23 51.8194 183.653 51.5503 183.096 51.2812C182.923 51.2043 182.846 50.9929 182.923 50.8199C183 50.6469 183.211 50.57 183.384 50.6469C183.961 50.8968 184.538 51.1851 185.134 51.4734C185.307 51.5503 185.365 51.7617 185.288 51.9347C185.23 52.0885 185.115 52.1461 184.98 52.1461ZM181.461 50.57C181.423 50.57 181.384 50.57 181.326 50.5508C180.711 50.3009 180.115 50.0895 179.538 49.9165C179.365 49.8589 179.25 49.6666 179.307 49.4937C179.365 49.3207 179.557 49.2054 179.73 49.263C180.326 49.4552 180.942 49.6666 181.576 49.9165C181.75 49.9934 181.846 50.1856 181.769 50.3586C181.73 50.4931 181.596 50.57 181.461 50.57ZM172.307 50.2048C172.23 50.2048 172.153 50.1856 172.096 50.1279C171.942 50.0126 171.923 49.8012 172.038 49.6666C172.057 49.6474 172.076 49.6282 172.076 49.6282C172.48 49.1285 173.096 48.7825 173.865 48.5903C174.057 48.5518 174.23 48.6672 174.269 48.8402C174.307 49.0324 174.192 49.2054 174.019 49.2438C173.384 49.3976 172.903 49.6666 172.576 50.0703C172.519 50.1472 172.423 50.2048 172.307 50.2048ZM177.788 49.4168C177.769 49.4168 177.73 49.4168 177.711 49.4168C177.038 49.263 176.423 49.1669 175.846 49.1285C175.653 49.1092 175.519 48.9555 175.519 48.7633C175.538 48.5711 175.673 48.4365 175.884 48.4365C176.48 48.475 177.134 48.5711 177.846 48.7248C178.038 48.7633 178.153 48.9555 178.115 49.1285C178.076 49.3207 177.942 49.4168 177.788 49.4168Z" fill="#738D9A"/>
<path d="M173.711 86.4941C173.519 86.4941 173.327 86.4941 173.134 86.4941C172.942 86.4941 172.788 86.3403 172.808 86.1481C172.808 85.9559 172.981 85.8406 173.154 85.8213C173.75 85.8406 174.384 85.8213 175.058 85.7829C175.269 85.8021 175.404 85.9174 175.423 86.1096C175.442 86.3019 175.288 86.4556 175.096 86.4748C174.615 86.4748 174.154 86.4941 173.711 86.4941ZM171.231 86.3019C171.211 86.3019 171.192 86.3019 171.173 86.3019C170.423 86.1673 169.769 85.9559 169.25 85.6868C169.077 85.5907 169.019 85.3985 169.096 85.2255C169.192 85.0525 169.384 84.9948 169.558 85.0717C170.019 85.3216 170.615 85.4946 171.288 85.6291C171.481 85.6676 171.596 85.8406 171.558 86.0328C171.538 86.1865 171.385 86.3019 171.231 86.3019ZM177 86.2634C176.827 86.2634 176.673 86.1289 176.654 85.9559C176.635 85.7637 176.769 85.5907 176.942 85.5715C177.558 85.4946 178.173 85.3985 178.827 85.2832C179.019 85.2447 179.192 85.3793 179.231 85.5715C179.269 85.7637 179.135 85.9367 178.942 85.9751C178.269 86.0904 177.635 86.1865 177.019 86.2634C177.019 86.2634 177.019 86.2634 177 86.2634ZM180.808 85.6291C180.654 85.6291 180.5 85.5138 180.481 85.36C180.442 85.1678 180.558 84.9948 180.75 84.9564C181.365 84.8219 181.981 84.6873 182.615 84.5335C182.788 84.4951 182.981 84.5912 183.038 84.7834C183.077 84.9756 182.981 85.1486 182.788 85.2063C182.135 85.36 181.519 85.5138 180.904 85.6484C180.846 85.6099 180.827 85.6291 180.808 85.6291ZM184.558 84.7065C184.404 84.7065 184.269 84.6104 184.231 84.4567C184.173 84.2837 184.288 84.0915 184.461 84.0338C185.058 83.8608 185.673 83.6878 186.308 83.4956C186.5 83.438 186.673 83.5341 186.731 83.7263C186.788 83.8993 186.692 84.0915 186.5 84.1491C185.865 84.3413 185.25 84.5143 184.635 84.6873C184.615 84.6873 184.577 84.7065 184.558 84.7065ZM168.019 84.399C167.904 84.399 167.788 84.3413 167.731 84.226V84.2068C167.538 83.8224 167.461 83.3803 167.461 82.919C167.461 82.6499 167.481 82.3808 167.558 82.1117C167.596 81.9195 167.769 81.8042 167.961 81.8426C168.154 81.8811 168.269 82.0541 168.231 82.2463C168.173 82.4769 168.154 82.7076 168.154 82.919C168.154 83.2842 168.231 83.611 168.365 83.8993C168.442 84.0723 168.385 84.2837 168.211 84.3606C168.115 84.3798 168.077 84.399 168.019 84.399ZM188.25 83.5917C188.096 83.5917 187.981 83.4956 187.923 83.3611C187.865 83.1881 187.961 82.9959 188.135 82.9382C188.731 82.746 189.346 82.5346 189.961 82.3232C190.154 82.2655 190.346 82.3616 190.404 82.5346C190.461 82.7076 190.365 82.8998 190.192 82.9767C189.577 83.1881 188.961 83.3995 188.365 83.5917C188.327 83.5725 188.288 83.5917 188.25 83.5917ZM191.904 82.3039C191.769 82.3039 191.635 82.2271 191.577 82.0733C191.519 81.9003 191.596 81.7081 191.769 81.6312C192.365 81.4198 192.961 81.1891 193.558 80.9393C193.731 80.8816 193.923 80.9585 194 81.1315C194.077 81.3045 193.981 81.4967 193.808 81.5736C193.192 81.8042 192.596 82.0349 192 82.2655C191.981 82.3039 191.942 82.3039 191.904 82.3039ZM195.5 80.9008C195.365 80.9008 195.231 80.8239 195.192 80.6894C195.115 80.5164 195.211 80.3242 195.385 80.2473C195.961 79.9975 196.558 79.7476 197.154 79.4977C197.327 79.4208 197.519 79.4977 197.596 79.6707C197.673 79.8437 197.596 80.0359 197.423 80.1128C196.827 80.3626 196.231 80.6317 195.635 80.8624C195.577 80.8816 195.538 80.9008 195.5 80.9008ZM168.558 80.7278C168.5 80.7278 168.442 80.7086 168.384 80.6894C168.211 80.5933 168.154 80.3819 168.25 80.2281C168.538 79.7091 168.904 79.1517 169.346 78.5751C169.461 78.4214 169.673 78.4021 169.827 78.5175C169.981 78.6328 170 78.8442 169.884 78.998C169.461 79.5362 169.115 80.0743 168.846 80.5549C168.788 80.6702 168.673 80.7278 168.558 80.7278ZM199.038 79.3632C198.904 79.3632 198.788 79.2863 198.731 79.171C198.654 78.998 198.731 78.7865 198.904 78.7097C199.461 78.4598 200 78.2099 200.558 77.9408L200.577 77.9216L200.692 77.8832C200.865 77.8255 201.058 77.9216 201.115 78.0946C201.154 78.2099 201.135 78.3445 201.038 78.4406L201 78.479L200.923 78.5175C200.346 78.7865 199.75 79.0556 199.173 79.3247C199.135 79.3439 199.077 79.3632 199.038 79.3632ZM202.519 77.7102C202.384 77.7102 202.269 77.6333 202.211 77.518C202.135 77.345 202.192 77.1528 202.365 77.0567C202.942 76.7684 203.519 76.4801 204.077 76.1917C204.25 76.0956 204.442 76.1725 204.538 76.3455C204.615 76.5185 204.558 76.7107 204.385 76.8068C203.808 77.0951 203.231 77.3834 202.654 77.6717C202.634 77.7102 202.577 77.7102 202.519 77.7102ZM170.865 77.6525C170.788 77.6525 170.692 77.6141 170.635 77.5564C170.5 77.4219 170.481 77.2104 170.615 77.0759C171.038 76.6146 171.5 76.1533 171.981 75.692C172.115 75.5575 172.327 75.5575 172.461 75.7112C172.596 75.8458 172.577 76.0572 172.442 76.1917C171.961 76.653 171.519 77.0951 171.096 77.5564C171.058 77.6141 170.961 77.6525 170.865 77.6525ZM205.961 75.9419C205.846 75.9419 205.731 75.8842 205.654 75.7689C205.558 75.5959 205.635 75.4037 205.788 75.3076C206.365 75.0001 206.923 74.6925 207.481 74.385C207.654 74.2889 207.846 74.3466 207.942 74.5195C208.038 74.6925 207.981 74.8847 207.808 74.9808C207.25 75.2884 206.673 75.5959 206.115 75.9034C206.077 75.9419 206.019 75.9419 205.961 75.9419ZM173.654 74.9808C173.558 74.9808 173.461 74.9424 173.404 74.8655C173.288 74.731 173.288 74.5003 173.442 74.385C173.923 73.9814 174.423 73.5585 174.942 73.1356C175.096 73.0203 175.308 73.0395 175.423 73.1933C175.538 73.3471 175.519 73.5585 175.365 73.6738C174.846 74.0775 174.365 74.5003 173.884 74.904C173.827 74.9616 173.75 74.9808 173.654 74.9808ZM209.327 74.0775C209.211 74.0775 209.096 74.0198 209.038 73.9045C208.942 73.7507 209 73.5393 209.154 73.4432C209.711 73.1164 210.269 72.7897 210.808 72.4629C210.961 72.3668 211.173 72.4245 211.269 72.5782C211.365 72.732 211.308 72.9434 211.154 73.0395C210.615 73.3663 210.058 73.693 209.481 74.0198C209.461 74.0582 209.385 74.0775 209.327 74.0775ZM176.673 72.5782C176.577 72.5782 176.461 72.5398 176.404 72.4437C176.288 72.2899 176.327 72.0785 176.481 71.9632C176.981 71.5788 177.519 71.2136 178.058 70.8292C178.211 70.7138 178.423 70.7523 178.538 70.906C178.654 71.0598 178.615 71.2712 178.461 71.3866C177.923 71.771 177.404 72.1362 176.904 72.5206C176.827 72.5398 176.75 72.5782 176.673 72.5782ZM212.635 72.0593C212.519 72.0593 212.404 72.0016 212.346 71.9055C212.25 71.7518 212.288 71.5403 212.461 71.425C213.019 71.079 213.558 70.7331 214.077 70.3679C214.231 70.2718 214.442 70.3102 214.558 70.464C214.654 70.6177 214.615 70.8292 214.461 70.9445C213.942 71.2905 213.385 71.6556 212.846 72.0016C212.769 72.0401 212.692 72.0593 212.635 72.0593ZM179.827 70.3486C179.711 70.3486 179.615 70.291 179.538 70.1949C179.442 70.0411 179.481 69.8297 179.635 69.7144C180.154 69.3684 180.711 69.0032 181.25 68.6572C181.404 68.5611 181.615 68.5995 181.731 68.7533C181.827 68.9071 181.788 69.1185 181.634 69.2338C181.077 69.5798 180.538 69.9258 180.019 70.291C179.961 70.3294 179.904 70.3486 179.827 70.3486ZM215.846 69.9258C215.731 69.9258 215.634 69.8681 215.558 69.772C215.442 69.6182 215.481 69.4068 215.635 69.2915C216.173 68.9071 216.692 68.5419 217.192 68.1575C217.346 68.0421 217.558 68.0806 217.673 68.2344C217.788 68.3881 217.75 68.5995 217.596 68.7149C217.096 69.0993 216.558 69.4645 216.019 69.8489C215.981 69.9066 215.904 69.9258 215.846 69.9258ZM183.096 68.2728C182.981 68.2728 182.865 68.2151 182.808 68.0998C182.711 67.946 182.769 67.7346 182.923 67.6385C183.461 67.3118 184.019 66.985 184.596 66.639C184.769 66.5429 184.961 66.6006 185.058 66.7544C185.154 66.9273 185.096 67.1196 184.942 67.2157C184.384 67.5424 183.827 67.8692 183.288 68.1959C183.211 68.2536 183.154 68.2728 183.096 68.2728ZM218.942 67.6001C218.846 67.6001 218.75 67.5616 218.673 67.4655C218.558 67.3118 218.577 67.1003 218.731 66.985C219.25 66.5814 219.731 66.1585 220.211 65.7549C220.346 65.6203 220.577 65.6396 220.692 65.7933C220.808 65.9279 220.808 66.1585 220.654 66.2738C220.173 66.6775 219.673 67.1003 219.154 67.5232C219.077 67.5809 219.019 67.6001 218.942 67.6001ZM186.423 66.3315C186.308 66.3315 186.192 66.2738 186.115 66.1585C186.019 65.9855 186.077 65.7933 186.25 65.6972C186.808 65.3897 187.385 65.0822 187.942 64.7746C188.115 64.6785 188.308 64.7554 188.404 64.9092C188.5 65.0822 188.423 65.2744 188.269 65.3705C187.692 65.678 187.134 65.9855 186.577 66.2931C186.538 66.3123 186.481 66.3315 186.423 66.3315ZM221.846 65.0822C221.75 65.0822 221.673 65.0437 221.596 64.9668C221.461 64.8323 221.481 64.6209 221.615 64.4863C222.096 64.025 222.558 63.5637 222.961 63.1409C223.096 63.0063 223.308 62.9871 223.442 63.1216C223.577 63.2562 223.596 63.4676 223.461 63.6022C223.038 64.0442 222.577 64.5248 222.096 64.986C222.019 65.0437 221.942 65.0822 221.846 65.0822ZM189.827 64.5055C189.711 64.5055 189.577 64.4286 189.519 64.3133C189.442 64.1403 189.5 63.9481 189.673 63.852C190.25 63.5637 190.827 63.2754 191.404 62.9871C191.577 62.9102 191.769 62.9679 191.865 63.1409C191.942 63.3138 191.885 63.5061 191.711 63.6022C191.135 63.8905 190.558 64.1788 190 64.4671C189.942 64.5055 189.885 64.5055 189.827 64.5055ZM193.461 62.7564L193.288 62.4681L193.154 62.1606C193.75 61.8723 194.327 61.6224 194.904 61.3533C195.077 61.2764 195.269 61.3533 195.365 61.5263C195.442 61.6993 195.365 61.8915 195.192 61.9876C194.615 62.2183 194.038 62.4874 193.461 62.7564ZM224.461 62.2375C224.385 62.2375 224.308 62.2183 224.25 62.1606C224.096 62.0453 224.077 61.8338 224.192 61.6801C224.615 61.1419 224.961 60.6037 225.231 60.1232C225.327 59.9502 225.538 59.8925 225.692 59.9887C225.865 60.0848 225.923 60.2962 225.827 60.45C225.538 60.9689 225.173 61.5263 224.731 62.1029C224.673 62.1798 224.558 62.2375 224.461 62.2375ZM196.808 61.1996C196.673 61.1996 196.558 61.1227 196.5 60.9881C196.423 60.8151 196.5 60.6229 196.673 60.5461C197.269 60.2962 197.865 60.0271 198.461 59.7964C198.634 59.7196 198.846 59.8157 198.904 59.9887C198.981 60.1616 198.885 60.3538 198.711 60.4307C198.115 60.6806 197.538 60.9305 196.942 61.1803C196.904 61.1996 196.865 61.1996 196.808 61.1996ZM200.384 59.7388C200.25 59.7388 200.115 59.6619 200.058 59.5274C199.981 59.3544 200.077 59.1622 200.25 59.0853C200.865 58.8546 201.461 58.624 202.058 58.3933C202.231 58.3357 202.423 58.4126 202.5 58.5855C202.558 58.7585 202.481 58.9507 202.308 59.0276C201.711 59.239 201.115 59.4697 200.519 59.7196C200.461 59.7196 200.423 59.7388 200.384 59.7388ZM226.231 58.8546C226.211 58.8546 226.192 58.8546 226.154 58.8546C225.961 58.8162 225.846 58.6432 225.885 58.451C225.942 58.2011 225.961 57.9705 225.961 57.759C225.961 57.3939 225.885 57.0671 225.75 56.7788C225.673 56.6058 225.731 56.3944 225.904 56.2983C226.077 56.2214 226.269 56.2598 226.346 56.4328L226.365 56.4713C226.538 56.8557 226.635 57.2785 226.635 57.7398C226.635 58.0089 226.596 58.278 226.538 58.5663C226.538 58.7393 226.404 58.8546 226.231 58.8546ZM204 58.3933C203.865 58.3933 203.731 58.2972 203.673 58.1627C203.615 57.9897 203.711 57.7975 203.884 57.7206C204.5 57.5092 205.115 57.2977 205.711 57.1055C205.885 57.0479 206.077 57.144 206.154 57.317C206.211 57.49 206.115 57.6822 205.942 57.759C205.346 57.9513 204.731 58.1627 204.115 58.3741C204.077 58.3741 204.038 58.3933 204 58.3933ZM207.673 57.1824C207.519 57.1824 207.385 57.0863 207.346 56.9326C207.288 56.7596 207.385 56.5674 207.577 56.5097C208.211 56.3175 208.827 56.1445 209.442 55.9715C209.635 55.9139 209.808 56.0292 209.865 56.2022C209.923 56.3752 209.808 56.5674 209.635 56.625C209.019 56.798 208.423 56.971 207.788 57.1632C207.731 57.1824 207.711 57.1824 207.673 57.1824ZM211.385 56.1637C211.231 56.1637 211.096 56.0676 211.058 55.8946C211.019 55.7024 211.115 55.5294 211.308 55.4718C211.961 55.318 212.577 55.1642 213.192 55.0297C213.385 54.9913 213.558 55.1066 213.596 55.2988C213.635 55.491 213.519 55.664 213.327 55.7024C212.711 55.837 212.096 55.9715 211.461 56.1253C211.442 56.1637 211.423 56.1637 211.385 56.1637ZM224.692 55.6255C224.635 55.6255 224.596 55.6063 224.538 55.5871C224.058 55.3565 223.481 55.1642 222.788 55.0489C222.596 55.0105 222.481 54.8375 222.519 54.6453C222.558 54.4531 222.731 54.3378 222.923 54.3762C223.673 54.5107 224.327 54.7222 224.846 54.9913C225.019 55.0681 225.077 55.2796 225 55.4526C224.942 55.5487 224.808 55.6255 224.692 55.6255ZM215.173 55.3565C215 55.3565 214.865 55.2411 214.827 55.0681C214.788 54.8759 214.923 54.7029 215.115 54.6645C215.788 54.5492 216.423 54.4531 217.038 54.3762C217.231 54.357 217.404 54.4915 217.423 54.6645C217.442 54.8567 217.308 55.0297 217.135 55.0489C216.519 55.1258 215.904 55.2219 215.25 55.3372C215.211 55.3565 215.192 55.3565 215.173 55.3565ZM219 54.8952C218.827 54.8952 218.673 54.7606 218.654 54.5684C218.635 54.3762 218.788 54.2224 218.981 54.2032C219.673 54.1648 220.327 54.1455 220.942 54.1648C221.135 54.1648 221.288 54.3185 221.269 54.5107C221.269 54.7029 221.115 54.8375 220.923 54.8375C220.346 54.8183 219.692 54.8375 219.019 54.8759C219.019 54.8952 219.019 54.8952 219 54.8952Z" fill="#738D9A"/>
<path d="M186.249 100.909L186.365 100.583L186.249 100.909C185.596 100.679 185.057 100.237 184.615 99.564C184.519 99.4103 184.557 99.1988 184.711 99.0835C184.865 98.9874 185.076 99.0258 185.192 99.1796C185.538 99.7178 185.98 100.064 186.461 100.237L186.249 100.909ZM188.249 100.89C188.096 100.89 187.98 100.794 187.922 100.66C187.865 100.487 187.961 100.294 188.134 100.237C188.634 100.064 189.172 99.7947 189.749 99.391C189.903 99.2757 190.115 99.3142 190.23 99.4679C190.346 99.6217 190.307 99.8331 190.153 99.9484C189.538 100.391 188.922 100.698 188.365 100.89C188.326 100.89 188.288 100.89 188.249 100.89ZM191.442 98.776C191.346 98.776 191.269 98.7375 191.192 98.6607C191.057 98.5261 191.076 98.3147 191.211 98.1801C191.634 97.7765 192.076 97.3152 192.519 96.8155C192.653 96.6809 192.865 96.6617 192.999 96.777C193.134 96.9116 193.153 97.123 193.038 97.2575C192.576 97.7765 192.134 98.257 191.672 98.6799C191.615 98.7375 191.519 98.776 191.442 98.776ZM184.134 97.9687C183.98 97.9687 183.846 97.8726 183.807 97.7188C183.634 97.1422 183.499 96.4887 183.403 95.7775C183.384 95.5853 183.519 95.4123 183.692 95.3931C183.884 95.3739 184.057 95.5084 184.076 95.6814C184.172 96.3542 184.288 96.9885 184.461 97.5266C184.519 97.6996 184.403 97.8918 184.23 97.9495C184.192 97.9687 184.153 97.9687 184.134 97.9687ZM193.999 95.8929C193.922 95.8929 193.846 95.8736 193.788 95.816C193.634 95.7007 193.615 95.4892 193.73 95.3355C194.096 94.8549 194.48 94.336 194.865 93.7978C194.98 93.644 195.192 93.6056 195.346 93.7209C195.499 93.8362 195.538 94.0477 195.422 94.2014C195.038 94.7588 194.653 95.2778 194.269 95.7775C194.211 95.8352 194.115 95.8929 193.999 95.8929ZM183.576 94.163C183.403 94.163 183.249 94.0285 183.23 93.8362C183.211 93.4326 183.211 93.0098 183.211 92.5677C183.211 92.337 183.211 92.1064 183.211 91.8757C183.211 91.6835 183.365 91.549 183.557 91.549C183.749 91.549 183.903 91.7027 183.884 91.895C183.884 92.1256 183.884 92.337 183.884 92.5677C183.884 92.9905 183.884 93.4134 183.903 93.7978C183.922 93.99 183.769 94.163 183.576 94.163ZM196.23 92.7214C196.172 92.7214 196.096 92.7022 196.038 92.6638C195.884 92.5677 195.826 92.3562 195.942 92.1833C196.269 91.6643 196.615 91.1261 196.961 90.5495C197.057 90.3957 197.269 90.3381 197.422 90.4342C197.576 90.5303 197.634 90.7417 197.538 90.8955C197.192 91.4721 196.846 92.0103 196.519 92.5485C196.442 92.6638 196.346 92.7214 196.23 92.7214ZM183.634 90.2996H183.615C183.422 90.2804 183.288 90.1266 183.288 89.9344C183.326 89.3002 183.384 88.6659 183.461 87.9931C183.48 87.8009 183.634 87.6664 183.846 87.6856C184.038 87.7048 184.172 87.8778 184.153 88.07C184.076 88.7235 184.019 89.3578 183.98 89.9729C183.98 90.1651 183.826 90.2996 183.634 90.2996ZM198.211 89.4155C198.153 89.4155 198.096 89.3963 198.038 89.377C197.865 89.2809 197.807 89.0695 197.903 88.9157C198.211 88.3776 198.519 87.8009 198.826 87.2243C198.922 87.0513 199.115 86.9937 199.288 87.0898C199.461 87.1859 199.519 87.3781 199.422 87.5511C199.115 88.1277 198.807 88.7043 198.499 89.2617C198.442 89.3578 198.326 89.4155 198.211 89.4155ZM184.057 86.4747C184.038 86.4747 184.019 86.4747 184.019 86.4747C183.826 86.4555 183.711 86.2825 183.73 86.0903C183.826 85.4752 183.922 84.8217 184.019 84.1682C184.057 83.976 184.211 83.8415 184.422 83.8799C184.615 83.9183 184.73 84.0913 184.711 84.2835C184.596 84.937 184.499 85.5713 184.422 86.1864C184.365 86.3402 184.211 86.4747 184.057 86.4747ZM200.019 86.0134C199.961 86.0134 199.922 85.9942 199.865 85.975C199.692 85.8981 199.634 85.6867 199.711 85.5137C199.999 84.9563 200.269 84.3796 200.557 83.7838C200.634 83.6108 200.846 83.5339 201.019 83.63C201.192 83.7069 201.269 83.9183 201.172 84.0913C200.884 84.6872 200.615 85.2638 200.326 85.8404C200.269 85.9365 200.153 86.0134 200.019 86.0134ZM184.692 82.669C184.672 82.669 184.653 82.669 184.634 82.669C184.442 82.6305 184.326 82.4576 184.365 82.2654C184.48 81.6503 184.615 81.016 184.749 80.3625C184.788 80.1703 184.961 80.055 185.153 80.0934C185.346 80.1319 185.461 80.3241 185.422 80.4971C185.288 81.1313 185.153 81.7656 185.038 82.3807C184.999 82.5537 184.846 82.669 184.692 82.669ZM201.692 82.5152C201.653 82.5152 201.596 82.5152 201.557 82.4768C201.384 82.3999 201.307 82.1885 201.384 82.0155C201.653 81.4389 201.903 80.843 202.153 80.2472C202.23 80.0742 202.442 79.9973 202.596 80.0742C202.769 80.1511 202.846 80.3433 202.769 80.5163C202.519 81.1121 202.249 81.708 201.98 82.2846C201.942 82.4383 201.807 82.5152 201.692 82.5152ZM203.211 78.9786C203.172 78.9786 203.115 78.9786 203.076 78.9594C202.903 78.8825 202.826 78.6903 202.884 78.5173C203.134 77.9215 203.365 77.3256 203.596 76.7298C203.672 76.5568 203.865 76.4607 204.038 76.5376C204.211 76.6145 204.307 76.8067 204.23 76.9796C203.999 77.5947 203.749 78.1906 203.519 78.7864C203.48 78.9017 203.346 78.9786 203.211 78.9786ZM185.519 78.8825C185.499 78.8825 185.461 78.8825 185.442 78.8825C185.249 78.8441 185.153 78.6519 185.192 78.4596C185.346 77.8446 185.499 77.2103 185.653 76.576C185.692 76.3838 185.884 76.2877 186.076 76.3261C186.269 76.3646 186.365 76.5568 186.326 76.749C186.153 77.3833 185.999 77.9984 185.865 78.6134C185.807 78.7864 185.672 78.8825 185.519 78.8825ZM204.615 75.3843C204.576 75.3843 204.538 75.3843 204.499 75.3651C204.326 75.3074 204.23 75.096 204.307 74.923C204.519 74.3272 204.749 73.7313 204.961 73.1163C205.038 72.9433 205.269 72.8472 205.422 72.9433C205.596 73.0202 205.672 73.2124 205.576 73.3854C205.365 74.0197 205.153 74.5963 204.942 75.1729C204.884 75.2882 204.749 75.3843 204.615 75.3843ZM186.48 75.1537C186.442 75.1537 186.422 75.1537 186.384 75.1345C186.211 75.0768 186.096 74.9038 186.153 74.7116C186.326 74.0965 186.499 73.4815 186.692 72.8472C186.749 72.6742 186.942 72.5589 187.115 72.6165C187.288 72.6742 187.403 72.8664 187.346 73.0394C187.153 73.6545 186.98 74.2695 186.807 74.8846C186.769 75.0576 186.634 75.1537 186.48 75.1537ZM205.903 71.7516C205.865 71.7516 205.826 71.7516 205.788 71.7324C205.615 71.6747 205.519 71.4825 205.576 71.2903C205.788 70.6752 205.98 70.0602 206.172 69.4643C206.23 69.2914 206.422 69.176 206.596 69.2337C206.769 69.2914 206.884 69.4836 206.826 69.6566C206.634 70.2716 206.422 70.8867 206.23 71.5017C206.192 71.6555 206.057 71.7516 205.903 71.7516ZM187.576 71.4633C187.538 71.4633 187.499 71.4633 187.48 71.4441C187.307 71.3864 187.192 71.1942 187.249 71.0212C187.442 70.4062 187.653 69.7911 187.846 69.176C187.903 69.003 188.096 68.9069 188.288 68.9646C188.461 69.0223 188.557 69.2145 188.499 69.4067C188.288 70.0217 188.096 70.6368 187.903 71.2327C187.865 71.3672 187.73 71.4633 187.576 71.4633ZM207.076 68.0612C207.038 68.0612 207.019 68.0612 206.98 68.042C206.807 67.9843 206.692 67.7921 206.749 67.6191C206.942 67.0041 207.115 66.389 207.288 65.774C207.346 65.601 207.519 65.4856 207.711 65.5433C207.884 65.601 207.999 65.774 207.942 65.9662C207.769 66.5812 207.596 67.1963 207.403 67.8306C207.365 67.9651 207.23 68.0612 207.076 68.0612ZM188.807 67.7729C188.769 67.7729 188.73 67.7729 188.711 67.7537C188.538 67.696 188.422 67.523 188.499 67.3308C188.499 67.3308 188.519 67.2924 188.519 67.2732C188.73 66.6773 188.942 66.0815 189.153 65.5049C189.211 65.3319 189.422 65.2358 189.596 65.3127C189.769 65.3703 189.865 65.5817 189.788 65.7547C189.576 66.3314 189.365 66.9272 189.153 67.523C189.096 67.6768 188.961 67.7729 188.807 67.7729ZM208.115 64.3516C208.096 64.3516 208.057 64.3516 208.019 64.3324C207.846 64.294 207.73 64.1018 207.769 63.9095C207.942 63.2753 208.096 62.6602 208.23 62.0451C208.269 61.8721 208.461 61.7568 208.653 61.7953C208.846 61.8337 208.942 62.0259 208.903 62.2181C208.749 62.8332 208.596 63.4675 208.442 64.1017C208.403 64.2363 208.269 64.3516 208.115 64.3516ZM190.153 64.1786C190.115 64.1786 190.076 64.1786 190.038 64.1594C189.865 64.0825 189.769 63.8903 189.846 63.7173C190.076 63.1023 190.326 62.5064 190.557 61.9106C190.634 61.7376 190.826 61.6607 190.999 61.7184C191.172 61.7953 191.249 61.9875 191.192 62.1605C190.942 62.7563 190.711 63.3521 190.48 63.948C190.422 64.1018 190.288 64.1786 190.153 64.1786ZM191.615 60.6036C191.576 60.6036 191.519 60.6036 191.48 60.5844C191.307 60.5075 191.23 60.3153 191.307 60.1423C191.557 59.5464 191.826 58.9506 192.096 58.374C192.172 58.201 192.384 58.1241 192.557 58.201C192.73 58.2779 192.807 58.4893 192.73 58.6623C192.461 59.2389 192.211 59.8347 191.961 60.4306C191.884 60.5267 191.749 60.6036 191.615 60.6036ZM209.019 60.5844C208.999 60.5844 208.961 60.5844 208.942 60.5844C208.749 60.5459 208.634 60.3537 208.672 60.1807C208.807 59.5464 208.942 58.9121 209.057 58.2971C209.096 58.1049 209.269 57.9896 209.461 58.028C209.653 58.0664 209.769 58.2394 209.73 58.4316C209.615 59.0467 209.48 59.681 209.346 60.3345C209.307 60.4883 209.172 60.5844 209.019 60.5844ZM193.211 57.0862C193.153 57.0862 193.115 57.067 193.057 57.0477C192.884 56.9709 192.807 56.7594 192.903 56.5864C193.192 55.9906 193.461 55.414 193.749 54.8374C193.826 54.6644 194.038 54.6067 194.211 54.6836C194.384 54.7605 194.442 54.9719 194.365 55.1449C194.076 55.7023 193.807 56.2789 193.519 56.8748C193.461 57.0285 193.346 57.0862 193.211 57.0862ZM209.749 56.7979C209.73 56.7979 209.711 56.7979 209.692 56.7979C209.499 56.7594 209.384 56.5864 209.403 56.3942C209.519 55.7407 209.615 55.1064 209.692 54.4914C209.711 54.2992 209.884 54.1838 210.076 54.2031C210.269 54.2223 210.403 54.3953 210.365 54.5875C210.269 55.2025 210.172 55.8561 210.076 56.5096C210.057 56.6825 209.922 56.7979 209.749 56.7979ZM194.942 53.6457C194.884 53.6457 194.826 53.6264 194.788 53.6072C194.615 53.5111 194.557 53.3189 194.653 53.1459C194.961 52.5693 195.269 51.9927 195.576 51.4353C195.672 51.2623 195.884 51.2046 196.038 51.3007C196.211 51.3968 196.269 51.6083 196.172 51.762C195.865 52.3194 195.557 52.8768 195.249 53.4535C195.192 53.5688 195.076 53.6457 194.942 53.6457ZM210.288 52.9729C210.269 52.9729 210.269 52.9729 210.249 52.9729C210.057 52.9537 209.922 52.7807 209.942 52.5885C210.019 51.935 210.076 51.3007 210.115 50.6857C210.134 50.4935 210.269 50.3781 210.48 50.3589C210.672 50.3781 210.807 50.5319 210.807 50.7241C210.769 51.3392 210.711 51.9927 210.634 52.6654C210.615 52.8576 210.461 52.9729 210.288 52.9729ZM196.846 50.282C196.788 50.282 196.73 50.2628 196.672 50.2244C196.519 50.1283 196.461 49.9168 196.557 49.7631C196.903 49.1865 197.249 48.6483 197.576 48.1101C197.672 47.9563 197.884 47.8987 198.057 48.014C198.211 48.1101 198.269 48.3215 198.153 48.4945C197.826 49.0135 197.48 49.5516 197.134 50.1283C197.076 50.2244 196.961 50.282 196.846 50.282ZM210.538 49.1288C210.346 49.1288 210.192 48.975 210.192 48.7828C210.192 48.5522 210.192 48.3215 210.192 48.0909C210.192 47.668 210.192 47.2644 210.172 46.88C210.172 46.6878 210.307 46.534 210.499 46.5148C210.73 46.5148 210.846 46.6493 210.865 46.8415C210.884 47.2452 210.884 47.6488 210.884 48.0909C210.884 48.3215 210.884 48.5522 210.884 48.802C210.884 48.9942 210.73 49.1288 210.538 49.1288ZM198.942 47.0337C198.865 47.0337 198.807 47.0145 198.749 46.9761C198.596 46.8607 198.557 46.6493 198.672 46.4955C199.057 45.9381 199.442 45.4192 199.826 44.9194C199.942 44.7657 200.153 44.7465 200.307 44.8618C200.461 44.9771 200.48 45.1885 200.365 45.3423C199.999 45.8228 199.615 46.3418 199.23 46.88C199.153 46.9761 199.038 47.0337 198.942 47.0337ZM210.365 45.2846C210.192 45.2846 210.057 45.1501 210.019 44.9963C209.922 44.3236 209.807 43.7085 209.653 43.1511C209.596 42.9782 209.711 42.7859 209.884 42.7283C210.057 42.6706 210.249 42.7859 210.307 42.9589C210.48 43.5356 210.615 44.1891 210.711 44.9002C210.73 45.0924 210.596 45.2654 210.422 45.2846C210.384 45.2846 210.384 45.2846 210.365 45.2846ZM201.307 43.9776C201.23 43.9776 201.153 43.9584 201.076 43.9007C200.942 43.7854 200.922 43.5548 201.038 43.4202C201.499 42.9013 201.961 42.4207 202.384 41.9979C202.519 41.8633 202.73 41.8633 202.865 42.0171C202.999 42.1517 202.98 42.3631 202.846 42.4976C202.422 42.9013 201.98 43.3626 201.538 43.8623C201.499 43.9392 201.403 43.9776 201.307 43.9776ZM209.211 41.6327C209.096 41.6327 208.999 41.575 208.922 41.4789C208.557 40.9408 208.134 40.5756 207.634 40.4026C207.461 40.3449 207.346 40.1335 207.403 39.9605C207.461 39.7875 207.634 39.6722 207.807 39.7298H207.826C208.499 39.9605 209.038 40.4218 209.48 41.0945C209.576 41.2483 209.538 41.4597 209.384 41.575C209.346 41.6135 209.269 41.6327 209.211 41.6327ZM204.115 41.3636C203.999 41.3636 203.903 41.3059 203.826 41.2098C203.711 41.0561 203.749 40.8446 203.903 40.7293C204.519 40.2872 205.134 39.9797 205.692 39.7875C205.865 39.7298 206.057 39.8259 206.115 39.9989C206.172 40.1719 206.076 40.3641 205.903 40.441C205.403 40.614 204.865 40.9023 204.288 41.2867C204.249 41.3444 204.192 41.3636 204.115 41.3636Z" fill="#738D9A"/>
<path d="M182.537 49.2246C182.537 51.3004 180.864 52.9727 178.787 52.9727C176.71 52.9727 175.037 51.3004 175.037 49.2246C175.037 47.1488 176.71 45.4766 178.787 45.4766C180.864 45.4766 182.537 47.1488 182.537 49.2246Z" fill="#E04E39"/>
<path opacity="0.55" d="M181.153 51.1275C179.634 51.1275 178.403 49.8973 178.403 48.3789C178.403 47.168 179.192 46.1493 180.269 45.7841C179.807 45.5919 179.307 45.4766 178.769 45.4766C176.692 45.4766 175.019 47.1488 175.019 49.2246C175.019 51.3004 176.692 52.9727 178.769 52.9727C180.23 52.9727 181.48 52.1462 182.096 50.9353C181.827 51.0506 181.5 51.1275 181.153 51.1275Z" fill="#E04E39"/>
<path d="M223.229 54.1074C223.229 56.1833 221.556 57.8555 219.479 57.8555C217.402 57.8555 215.729 56.1833 215.729 54.1074C215.729 52.0316 217.402 50.3594 219.479 50.3594C221.537 50.3594 223.229 52.0508 223.229 54.1074Z" fill="#E04E39"/>
<path opacity="0.75" d="M221.846 56.0103C220.327 56.0103 219.096 54.7801 219.096 53.2617C219.096 52.0508 219.884 51.0321 220.961 50.6669C220.5 50.4747 220 50.3594 219.461 50.3594C217.384 50.3594 215.711 52.0316 215.711 54.1074C215.711 56.1833 217.384 57.8555 219.461 57.8555C220.923 57.8555 222.173 57.029 222.788 55.8181C222.5 55.9334 222.173 56.0103 221.846 56.0103Z" fill="#E04E39"/>
<path d="M195.095 97.8525C197.166 97.8525 198.845 96.1745 198.845 94.1045C198.845 92.0345 197.166 90.3564 195.095 90.3564C193.024 90.3564 191.345 92.0345 191.345 94.1045C191.345 96.1745 193.024 97.8525 195.095 97.8525Z" fill="#E04E39"/>
<path d="M197.462 95.9888C195.942 95.9888 194.712 94.7587 194.712 93.2402C194.712 92.0293 195.5 91.0106 196.577 90.6454C196.115 90.4532 195.615 90.3379 195.077 90.3379C193 90.3379 191.327 92.0101 191.327 94.0859C191.327 96.1618 193 97.834 195.077 97.834C196.538 97.834 197.788 97.0075 198.404 95.7966C198.135 95.9311 197.808 95.9888 197.462 95.9888Z" fill="#E04E39"/>
<g opacity="0.75">
<g opacity="0.75">
<path opacity="0.75" d="M293.712 179.58L287.154 181.848L285.847 188.652L291.097 193.208L297.654 190.94L298.962 184.135L293.712 179.58ZM297.193 190.574L291.174 192.65L286.366 188.479L287.577 182.233L293.597 180.157L298.404 184.328L297.193 190.574Z" fill="#E04E39"/>
<path opacity="0.75" d="M296.708 184.801L295.792 189.538L296.283 189.633L297.199 184.896L296.708 184.801Z" fill="#E04E39"/>
<path opacity="0.75" d="M293.204 181.406L288.642 182.982L288.805 183.455L293.367 181.879L293.204 181.406Z" fill="#E04E39"/>
<path opacity="0.75" d="M288.007 187.78L287.679 188.157L291.326 191.318L291.654 190.941L288.007 187.78Z" fill="#E04E39"/>
</g>
</g>
<g opacity="0.75">
<g opacity="0.75">
<path opacity="0.75" d="M227.982 28.9277L221.424 31.1958L220.116 37.9999L225.366 42.5552L231.924 40.2872L233.232 33.4831L227.982 28.9277ZM231.482 39.9028L225.462 41.9786L220.655 37.8077L221.866 31.561L227.885 29.4851L232.693 33.656L231.482 39.9028Z" fill="#E04E39"/>
<path opacity="0.75" d="M230.977 34.091L230.062 38.8281L230.553 38.9229L231.468 34.1858L230.977 34.091Z" fill="#E04E39"/>
<path opacity="0.75" d="M227.488 30.7393L222.926 32.3154L223.09 32.7877L227.652 31.2116L227.488 30.7393Z" fill="#E04E39"/>
<path opacity="0.75" d="M222.269 37.1156L221.942 37.4932L225.589 40.6541L225.916 40.2766L222.269 37.1156Z" fill="#E04E39"/>
</g>
</g>
<g opacity="0.75">
<g opacity="0.75">
<path opacity="0.75" d="M58.1352 158.783L51.5775 161.051L50.2698 167.855L55.5198 172.411L62.0775 170.143L63.3852 163.339L58.1352 158.783ZM61.6352 169.777L55.6159 171.853L50.8082 167.682L52.0198 161.436L58.039 159.36L62.8467 163.531L61.6352 169.777Z" fill="#E04E39"/>
<path opacity="0.75" d="M61.1393 163.985L60.2236 168.722L60.7145 168.816L61.6302 164.08L61.1393 163.985Z" fill="#E04E39"/>
<path opacity="0.75" d="M57.6559 160.615L53.094 162.191L53.2573 162.664L57.8193 161.088L57.6559 160.615Z" fill="#E04E39"/>
<path opacity="0.75" d="M52.4182 166.987L52.0906 167.364L55.7373 170.525L56.0649 170.148L52.4182 166.987Z" fill="#E04E39"/>
</g>
</g>
<g opacity="0.75">
<g opacity="0.75">
<path opacity="0.75" d="M109.21 228.057L105.738 231.038L106.051 231.403L109.523 228.422L109.21 228.057Z" fill="#E04E39"/>
<path opacity="0.75" d="M104.27 222L104.111 222.453L108.43 223.967L108.589 223.513L104.27 222Z" fill="#E04E39"/>
<path opacity="0.75" d="M100.944 225.169L100.472 225.258L101.32 229.753L101.792 229.664L100.944 225.169Z" fill="#E04E39"/>
<path opacity="0.75" d="M117.135 230.707L111.193 228.632L110.02 222.442L103.808 220.271L98.8083 224.557L100.02 231.015L105.962 233.091L107.135 239.28L113.347 241.452L118.347 237.166L117.135 230.707ZM99.3276 224.73L103.905 220.789L109.597 222.788L110.712 228.708L106.116 232.649L100.443 230.65L99.3276 224.73ZM113.251 240.933L107.558 238.934L106.443 233.014L111.039 229.074L116.712 231.073L117.828 236.993L113.251 240.933Z" fill="#E04E39"/>
<path opacity="0.75" d="M108.748 237.757L108.589 238.211L112.909 239.725L113.068 239.271L108.748 237.757Z" fill="#E04E39"/>
<path opacity="0.75" d="M115.851 231.972L115.379 232.061L116.227 236.556L116.699 236.467L115.851 231.972Z" fill="#E04E39"/>
</g>
</g>
<g opacity="0.75">
<g opacity="0.75">
<path opacity="0.75" d="M319.453 109.273L315.981 112.255L316.295 112.619L319.766 109.638L319.453 109.273Z" fill="white"/>
<path opacity="0.75" d="M314.525 103.183L314.366 103.637L318.685 105.15L318.845 104.697L314.525 103.183Z" fill="white"/>
<path opacity="0.75" d="M311.205 106.377L310.733 106.466L311.581 110.961L312.053 110.872L311.205 106.377Z" fill="white"/>
<path opacity="0.75" d="M327.386 111.923L321.443 109.847L320.27 103.658L314.059 101.486L309.059 105.773L310.27 112.231L316.212 114.307L317.385 120.496L323.597 122.668L328.597 118.381L327.386 111.923ZM309.597 105.926L314.174 101.986L319.866 103.985L320.982 109.905L316.386 113.845L310.712 111.846L309.597 105.926ZM323.52 122.129L317.828 120.13L316.712 114.21L321.309 110.27L326.982 112.269L328.097 118.189L323.52 122.129Z" fill="white"/>
<path opacity="0.75" d="M318.999 118.943L318.84 119.396L323.159 120.91L323.318 120.457L318.999 118.943Z" fill="white"/>
<path opacity="0.75" d="M326.117 113.158L325.645 113.247L326.493 117.742L326.965 117.653L326.117 113.158Z" fill="white"/>
</g>
</g>
<g opacity="0.75">
<g opacity="0.75">
<path opacity="0.75" d="M53.4805 101.528L50.9204 103.885L51.168 104.153L53.7281 101.796L53.4805 101.528Z" fill="#E04E39"/>
<path opacity="0.75" d="M49.5757 97.0254L49.4668 97.374L52.7895 98.4108L52.8984 98.0621L49.5757 97.0254Z" fill="#E04E39"/>
<path opacity="0.75" d="M47.1292 99.5303L46.7727 99.6104L47.5357 103.005L47.8922 102.925L47.1292 99.5303Z" fill="#E04E39"/>
<path opacity="0.75" d="M59.5963 103.331L55.0194 101.909L53.9617 97.2189L49.1733 95.7197L45.481 99.1218L46.5771 104.004L51.154 105.426L52.2117 110.116L57.0002 111.615L60.6925 108.213L59.5963 103.331ZM45.8848 99.2371L49.2694 96.1234L53.654 97.488L54.654 101.966L51.2694 105.08L46.8848 103.716L45.8848 99.2371ZM56.904 111.212L52.5194 109.847L51.5194 105.369L54.904 102.255L59.2886 103.619L60.2886 108.098L56.904 111.212Z" fill="#E04E39"/>
<path opacity="0.75" d="M53.4026 108.902L53.2937 109.251L56.6164 110.288L56.7253 109.939L53.4026 108.902Z" fill="#E04E39"/>
<path opacity="0.75" d="M58.6531 104.317L58.2966 104.397L59.06 107.792L59.4165 107.712L58.6531 104.317Z" fill="#E04E39"/>
</g>
</g>
<path opacity="0.75" d="M78.79 40.5966C77.617 41.5385 77.4246 43.2683 78.367 44.4408C78.5016 44.6138 78.6554 44.7483 78.8093 44.8829L77.79 48.5925C76.4631 48.4964 75.0977 48.8808 73.9823 49.7649C72.867 50.6683 72.1939 51.9177 72.0016 53.2247L68.2131 53.3977C68.117 53.2055 68.0208 53.0132 67.867 52.8403C66.9246 51.6678 65.1939 51.4756 64.0208 52.4174C62.8477 53.3592 62.6554 55.0891 63.5977 56.2616C64.54 57.434 66.2708 57.6262 67.4439 56.6844C67.8477 56.3577 68.1362 55.9348 68.3093 55.4735L72.0977 55.3005C72.2708 56.0501 72.617 56.7805 73.1362 57.4148C75.0208 59.7597 78.4439 60.1441 80.79 58.2605C83.1362 56.3769 83.5208 52.9556 81.6362 50.6107C81.117 49.9764 80.4823 49.4766 79.79 49.1307L80.8093 45.4595C81.3093 45.4018 81.79 45.2096 82.2131 44.8829C83.3862 43.9411 83.5785 42.2112 82.6362 41.0387C81.6939 39.847 79.9823 39.6548 78.79 40.5966ZM80.2323 57.5878C78.2516 59.1639 75.367 58.8371 73.79 56.8766C72.2131 54.8969 72.54 52.0138 74.5016 50.4377C76.4823 48.8616 79.367 49.1883 80.9439 51.1488C82.54 53.1286 82.2131 56.0117 80.2323 57.5878Z" fill="#D1D9DD"/>
<path opacity="0.75" d="M160.885 84.5335C160.097 83.7646 158.847 83.7646 158.058 84.5335C157.943 84.6488 157.866 84.7641 157.77 84.8986L155.001 84.4566C154.962 83.4955 154.578 82.5345 153.847 81.7849C153.116 81.0545 152.155 80.6701 151.174 80.6316L150.731 77.9023C150.866 77.8254 150.981 77.7293 151.097 77.614C151.885 76.8259 151.866 75.5766 151.097 74.7885C150.308 74.0197 149.058 74.0197 148.27 74.7885C147.501 75.5766 147.501 76.8259 148.27 77.614C148.539 77.8831 148.866 78.0561 149.212 78.1329L149.655 80.8623C149.116 81.0545 148.635 81.362 148.212 81.7849C146.674 83.3418 146.674 85.8597 148.212 87.3973C149.77 88.935 152.289 88.935 153.828 87.3973C154.251 86.9745 154.558 86.4748 154.751 85.9558L157.501 86.3979C157.578 86.7438 157.751 87.0898 158.039 87.3781C158.828 88.147 160.078 88.147 160.866 87.3781C161.655 86.5709 161.655 85.3215 160.885 84.5335ZM148.674 86.9745C147.366 85.6675 147.366 83.5532 148.674 82.2462C149.981 80.9392 152.097 80.9392 153.404 82.2462C154.712 83.5532 154.712 85.6675 153.404 86.9745C152.097 88.2623 149.981 88.2623 148.674 86.9745Z" fill="#D1D9DD"/>
<path opacity="0.75" d="M296.115 100.448C295.154 99.8715 293.904 100.179 293.327 101.14C293.269 101.236 293.231 101.313 293.192 101.409L290.692 101.601C290.211 100.121 288.808 99.045 287.154 99.045C287.077 99.045 287 99.045 286.923 99.045L285.634 95.0279C285.865 94.7973 286.058 94.5282 286.173 94.1822C286.519 93.125 285.942 91.9718 284.884 91.6258C283.827 91.2799 282.673 91.8565 282.327 92.9136C281.981 93.9708 282.558 95.124 283.615 95.47C283.711 95.5084 283.827 95.5276 283.923 95.5469L285.211 99.5832C284.154 100.237 283.442 101.409 283.442 102.755C283.442 103.35 283.577 103.927 283.846 104.427L280.596 107.233C280.538 107.214 280.481 107.175 280.404 107.156C279.327 106.829 278.192 107.425 277.865 108.482C277.538 109.559 278.134 110.693 279.192 111.02C280.269 111.346 281.404 110.75 281.731 109.693C281.846 109.328 281.846 108.944 281.75 108.579L285 105.772C285.615 106.195 286.346 106.445 287.154 106.445C287.827 106.445 288.442 106.272 288.981 105.965L291.884 109.251C291.731 109.616 291.673 110.039 291.769 110.443C292 111.539 293.077 112.25 294.173 112.019C295.269 111.788 295.981 110.712 295.75 109.616C295.519 108.521 294.442 107.81 293.346 108.04C293.308 108.04 293.288 108.06 293.25 108.06L290.288 104.715C290.538 104.312 290.731 103.85 290.808 103.37L293.308 103.178C293.481 103.466 293.711 103.716 294.019 103.908C294.981 104.485 296.231 104.177 296.808 103.216C297.384 102.255 297.077 101.025 296.115 100.448Z" fill="#D1D9DD"/>
<g opacity="0.75">
<g opacity="0.75">
<path opacity="0.75" d="M271.058 76.5762L264.27 70.2334L255.385 72.9435L253.289 81.9773L260.078 88.3201L268.962 85.61L271.058 76.5762ZM260.232 87.5705L254.02 81.7658L255.943 73.4817L264.097 71.0022L270.308 76.8069L268.385 85.091L260.232 87.5705Z" fill="#E04E39"/>
<path opacity="0.75" d="M266.785 83.3915L260.603 85.2715L260.799 85.9151L266.981 84.0351L266.785 83.3915Z" fill="#E04E39"/>
<path opacity="0.75" d="M263.861 72.7469L263.401 73.2383L268.12 77.6492L268.58 77.1578L263.861 72.7469Z" fill="#E04E39"/>
<path opacity="0.75" d="M257.106 74.7814L255.645 81.0723L256.3 81.2244L257.762 74.9335L257.106 74.7814Z" fill="#E04E39"/>
</g>
</g>
</g>
<defs>
<linearGradient id="paint0_linear" x1="146.15" y1="179.113" x2="146.15" y2="278.598" gradientUnits="userSpaceOnUse">
<stop stop-color="#131150"/>
<stop offset="0.9786" stop-color="#3D44B6"/>
</linearGradient>
<linearGradient id="paint1_linear" x1="164.147" y1="88.8911" x2="151.129" y2="122.362" gradientUnits="userSpaceOnUse">
<stop stop-color="#F0EEF7"/>
<stop offset="0.3957" stop-color="#E6E2F1"/>
<stop offset="1" stop-color="#D4D0EB"/>
</linearGradient>
<linearGradient id="paint2_linear" x1="150.69" y1="49.4506" x2="148.278" y2="49.6417" gradientUnits="userSpaceOnUse">
<stop stop-color="#FC5653"/>
<stop offset="1" stop-color="#FC0053"/>
</linearGradient>
<clipPath id="clip0">
<rect width="338" height="295" fill="white"/>
</clipPath>
</defs>
</svg>
