<svg width="45" height="45" viewBox="0 0 45 45" fill="none" xmlns="http://www.w3.org/2000/svg">
<mask id="path-1-inside-1" fill="white">
<path d="M20.2542 0.112362C24.9597 -0.359671 29.6943 0.662958 33.7855 3.03499C37.8768 5.40703 41.1166 9.00787 43.0448 13.326C44.973 17.6442 45.4916 22.4602 44.5269 27.0899C43.5622 31.7196 41.1632 35.9276 37.6707 39.1162C34.1783 42.3049 29.7699 44.312 25.0718 44.8525C20.3736 45.3931 15.6246 44.4395 11.4993 42.1274C7.37391 39.8152 4.08198 36.2619 2.09105 31.9723C0.100126 27.6827 -0.488567 22.8748 0.408591 18.2316L8.14058 19.7255C7.55743 22.7436 7.94008 25.8688 9.23419 28.657C10.5283 31.4453 12.668 33.7549 15.3495 35.2578C18.031 36.7607 21.1179 37.3805 24.1716 37.0291C27.2254 36.6778 30.0909 35.3732 32.361 33.3005C34.6311 31.2279 36.1904 28.4927 36.8175 25.4834C37.4445 22.4741 37.1075 19.3437 35.8541 16.5369C34.6008 13.7301 32.4949 11.3896 29.8356 9.84775C27.1763 8.30592 24.0988 7.64121 21.0402 7.94804L20.2542 0.112362Z"/>
</mask>
<path d="M20.2542 0.112362C24.9597 -0.359671 29.6943 0.662958 33.7855 3.03499C37.8768 5.40703 41.1166 9.00787 43.0448 13.326C44.973 17.6442 45.4916 22.4602 44.5269 27.0899C43.5622 31.7196 41.1632 35.9276 37.6707 39.1162C34.1783 42.3049 29.7699 44.312 25.0718 44.8525C20.3736 45.3931 15.6246 44.4395 11.4993 42.1274C7.37391 39.8152 4.08198 36.2619 2.09105 31.9723C0.100126 27.6827 -0.488567 22.8748 0.408591 18.2316L8.14058 19.7255C7.55743 22.7436 7.94008 25.8688 9.23419 28.657C10.5283 31.4453 12.668 33.7549 15.3495 35.2578C18.031 36.7607 21.1179 37.3805 24.1716 37.0291C27.2254 36.6778 30.0909 35.3732 32.361 33.3005C34.6311 31.2279 36.1904 28.4927 36.8175 25.4834C37.4445 22.4741 37.1075 19.3437 35.8541 16.5369C34.6008 13.7301 32.4949 11.3896 29.8356 9.84775C27.1763 8.30592 24.0988 7.64121 21.0402 7.94804L20.2542 0.112362Z" fill="#E04E39" stroke="#E04E39" stroke-width="10" mask="url(#path-1-inside-1)"/>
<mask id="path-2-inside-2" fill="white">
<path d="M0.183016 19.636C0.787716 14.924 2.86837 10.5243 6.12688 7.06721C9.38538 3.61016 13.6545 1.27321 18.3226 0.391192C22.9907 -0.49083 27.8182 0.127341 32.1134 2.15714C36.4087 4.18693 39.9512 7.52418 42.2335 11.6907L35.3268 15.474C33.8433 12.7657 31.5406 10.5965 28.7487 9.27714C25.9568 7.95777 22.819 7.55596 19.7847 8.12928C16.7504 8.70259 13.9755 10.2216 11.8575 12.4687C9.73944 14.7158 8.38702 17.5756 7.99396 20.6384L0.183016 19.636Z"/>
</mask>
<path d="M0.183016 19.636C0.787716 14.924 2.86837 10.5243 6.12688 7.06721C9.38538 3.61016 13.6545 1.27321 18.3226 0.391192C22.9907 -0.49083 27.8182 0.127341 32.1134 2.15714C36.4087 4.18693 39.9512 7.52418 42.2335 11.6907L35.3268 15.474C33.8433 12.7657 31.5406 10.5965 28.7487 9.27714C25.9568 7.95777 22.819 7.55596 19.7847 8.12928C16.7504 8.70259 13.9755 10.2216 11.8575 12.4687C9.73944 14.7158 8.38702 17.5756 7.99396 20.6384L0.183016 19.636Z" fill="#D1D9DD" stroke="#D1D9DD" stroke-width="10" mask="url(#path-2-inside-2)"/>
</svg>
