<svg id="Слой_1" data-name="Слой 1" xmlns="http://www.w3.org/2000/svg" viewBox="0 0 114.47 58.59"><defs><style>.cls-1{fill:#ffffff;}.cls-2{fill:#ffffff;}.cls-3{fill:#ffffff;}</style></defs><title>лого МБ</title><polygon class="cls-1" points="102.3 44.17 98.24 40.12 94.18 44.17 98.24 52.65 102.3 44.17"/><path class="cls-2" d="M118.64,35.53a2.82,2.82,0,1,0,2.82,2.82A2.82,2.82,0,0,0,118.64,35.53Z" transform="translate(-20.4 -18.74)"/><path class="cls-2" d="M122.26,50l-3.62-3.63L115,50c-.18-.5-2.6-7.07-2.6-11.35,0-5.77,5.79-9,6.22-9.24.44.23,6.23,3.47,6.23,9.24C124.87,42.88,122.45,49.45,122.26,50Zm-3.62-27.08c-.86.44-12.09,6.37-12.09,15.86,0,8.11,6.61,20.41,6.61,20.41l5.48-5.49,5.48,5.49s6.61-12.3,6.61-20.41c0-9.49-11.23-15.42-12.09-15.86Z" transform="translate(-20.4 -18.74)"/><polygon class="cls-2" points="110.33 8.27 106.2 4.13 110.33 0 110.33 0 114.47 4.13 114.47 4.13 110.33 8.27"/><path class="cls-3" d="M91.71,27.1c0,.86-.39,1.36-1.06,1.36s-1.07-.53-1.07-1.36H86.09c.09,2.57,1.58,4.29,4.61,4.29a4.2,4.2,0,0,0,4.51-4.29Z" transform="translate(-20.4 -18.74)"/><path class="cls-3" d="M84.32,44.38v-12h4v5.6a5.52,5.52,0,0,1-.09.88h.17l4.4-6.48h3.87v12h-4V38.72a4,4,0,0,1,.09-.79h-.18l-4.4,6.45Z" transform="translate(-20.4 -18.74)"/><path class="cls-3" d="M76,40.94a2.59,2.59,0,0,0,0-5.17,2.59,2.59,0,0,0,0,5.17ZM76,32a6.34,6.34,0,1,1-6.66,6.34A6.36,6.36,0,0,1,76,32Z" transform="translate(-20.4 -18.74)"/><path class="cls-3" d="M64.48,32.33,61,36.89a.67.67,0,0,0-.18.31h-.18a.89.89,0,0,0-.19-.31l-3.74-4.56H53.5V44.38h3.89V39.32a3.78,3.78,0,0,0-.09-.88h.18L60.61,42h.17l2.9-3.6h.18a3.67,3.67,0,0,0-.09.88v5.06h3.9V32.33Z" transform="translate(-20.4 -18.74)"/><path class="cls-3" d="M27.07,57.21c-2.69,0-4.24-2.48-4.24-5.31a5.05,5.05,0,0,1,4.29-3,3.74,3.74,0,0,1,4,4.11,4,4,0,0,1-4,4.17ZM20.4,51v0c0,4.58,2.29,8.18,6.67,8.18a6.3,6.3,0,0,0,6.47-6.3c0-3.65-2.33-6-5.88-6a5.56,5.56,0,0,0-4.95,2.82H22.6c0-.17.11-.35.13-.51.19-2.6,1.22-4.66,3.23-5.38A24.7,24.7,0,0,1,29.43,43c1-.22,2.07-.47,2.69-.66l-.68-2c-1.12.31-2.16.54-3.92.89a12.38,12.38,0,0,0-2.49.68c-3.21,1.35-4.62,4-4.63,9.13Z" transform="translate(-20.4 -18.74)"/><path class="cls-3" d="M37.62,55.42h-.11a3.22,3.22,0,0,0,.11-.76V46.79H35.21v12h2.16l6.88-8.66h.11a3.42,3.42,0,0,0-.11.79v7.87h2.4v-12H44.5l-6.88,8.63Z" transform="translate(-20.4 -18.74)"/><path class="cls-3" d="M55.79,52.66V52.6a2.8,2.8,0,0,0,2.12-2.84c0-2-1.63-3.3-4.53-3.3A8,8,0,0,0,48.52,48l.95,1.7a6.1,6.1,0,0,1,3.59-1.26c1.58,0,2.43.65,2.43,1.72s-.74,1.65-2,1.65h-1.9v1.87h2c1.47,0,2.21.5,2.21,1.49,0,1.18-1.19,2-3,2a6.35,6.35,0,0,1-3.71-1.33l-.95,1.74a7.5,7.5,0,0,0,4.95,1.64c2.9,0,5.11-1.52,5.11-3.74a2.72,2.72,0,0,0-2.51-2.84Z" transform="translate(-20.4 -18.74)"/><polygon class="cls-3" points="48.44 32.99 41.98 32.99 41.98 28.05 39.58 28.05 39.58 40.09 41.98 40.09 41.98 34.86 48.44 34.86 48.44 40.09 50.84 40.09 50.84 28.05 48.44 28.05 48.44 32.99"/><path class="cls-3" d="M75.43,51.79a3.66,3.66,0,0,1,3.46-3.31,3.3,3.3,0,0,1,3.42,3.31Zm3.34-5.33c-3.54,0-5.85,2.78-5.85,6.45s2.32,6.33,6.54,6.33a7.83,7.83,0,0,0,5-1.64l-1-1.73a6.77,6.77,0,0,1-4,1.34c-2.63,0-3.91-1.44-4.14-3.54h9.22c0-.25,0-.5,0-.75,0-3.68-1.78-6.46-5.88-6.46Z" transform="translate(-20.4 -18.74)"/><path class="cls-3" d="M92.92,57.16a4.21,4.21,0,0,1-4.26-4.46,4,4,0,0,1,4.12-4.18,6.84,6.84,0,0,1,3.85,1.23l1-1.77a8.28,8.28,0,0,0-4.9-1.53,6.18,6.18,0,0,0-6.48,6.39,6.24,6.24,0,0,0,6.53,6.4,7.57,7.57,0,0,0,4.85-1.57l-1-1.73a6.38,6.38,0,0,1-3.74,1.22Z" transform="translate(-20.4 -18.74)"/><path class="cls-3" d="M52.48,69.75h-.35L52,68.88h-3.1V64.14h.51v4.24h1.94V64.14h.52v4.24h.57v1.37Zm2.77-1.14a1.51,1.51,0,0,1-.47.26,2,2,0,0,1-.6.09,1.44,1.44,0,0,1-.61-.12,1.36,1.36,0,0,1-.43-.36,1.58,1.58,0,0,1-.24-.56,2.77,2.77,0,0,1-.08-.73,2.08,2.08,0,0,1,.35-1.32,1.2,1.2,0,0,1,1-.45,1.51,1.51,0,0,1,.42,0,.87.87,0,0,1,.37.19,1.1,1.1,0,0,1,.28.4,1.94,1.94,0,0,1,.1.69,2.93,2.93,0,0,1,0,.49h-2a2.09,2.09,0,0,0,.06.53,1,1,0,0,0,.17.39.7.7,0,0,0,.3.24,1.08,1.08,0,0,0,.46.09,1.25,1.25,0,0,0,.42-.08,1,1,0,0,0,.32-.19l.19.39Zm-1.07-2.72a.81.81,0,0,0-.58.21,1,1,0,0,0-.26.72h1.53a1.13,1.13,0,0,0-.18-.73.66.66,0,0,0-.51-.2ZM58,67.38h-1.4v1.5h-.49V65.5h.49v1.41H58V65.5h.5v3.38H58ZM61.44,66h-1v2.91H60V66H59V65.5h2.44V66Zm.49-.47h.34l.09.4h0a.89.89,0,0,1,.36-.36,1.11,1.11,0,0,1,.52-.13,1.1,1.1,0,0,1,.92.4,2.24,2.24,0,0,1,.3,1.31,2.66,2.66,0,0,1-.1.77,1.66,1.66,0,0,1-.29.58,1.26,1.26,0,0,1-1,.49,1.73,1.73,0,0,1-.36,0,1.43,1.43,0,0,1-.29-.1v1.4h-.49V65.5Zm1.25.39a.68.68,0,0,0-.5.18,1.05,1.05,0,0,0-.26.54v1.68a1.1,1.1,0,0,0,.26.15,1.22,1.22,0,0,0,.37,0,.8.8,0,0,0,.68-.35,1.72,1.72,0,0,0,.25-1,2.6,2.6,0,0,0,0-.5,1.38,1.38,0,0,0-.14-.39.82.82,0,0,0-.25-.24.7.7,0,0,0-.37-.09Zm5.6.08H67.42v2.91h-.5V65.5h2.36v3.38h-.5Zm1.28,1.22a2.1,2.1,0,0,1,.35-1.32,1.19,1.19,0,0,1,1-.46,1.4,1.4,0,0,1,.6.13,1.14,1.14,0,0,1,.43.36,1.51,1.51,0,0,1,.24.56,2.77,2.77,0,0,1,.08.73,2.07,2.07,0,0,1-.35,1.31,1.16,1.16,0,0,1-1,.46,1.4,1.4,0,0,1-.6-.12,1.36,1.36,0,0,1-.43-.36,1.67,1.67,0,0,1-.24-.56,2.82,2.82,0,0,1-.08-.73Zm.51,0a2.63,2.63,0,0,0,0,.49,1.4,1.4,0,0,0,.15.41.81.81,0,0,0,.26.29.71.71,0,0,0,.39.11c.56,0,.84-.43.84-1.3a2.57,2.57,0,0,0,0-.5,1.59,1.59,0,0,0-.14-.42A1,1,0,0,0,71.8,66a.71.71,0,0,0-.39-.1c-.56,0-.84.43-.84,1.3Zm5.67,2.55H75.9l-.09-.86H73.49l-.1.86h-.33V68.41h.36a1.13,1.13,0,0,0,.13-.27,2.75,2.75,0,0,0,.16-.54c.05-.24.1-.52.14-.87s.06-.76.07-1.23h1.87v2.91h.45v1.33Zm-.95-1.33V66h-.93c0,.19,0,.4,0,.62s0,.45-.08.67a5.82,5.82,0,0,1-.14.63,2.51,2.51,0,0,1-.18.51h1.37Zm4.48,1.33h-.34l-.09-.86H77l-.09.86h-.33V68.41H77a1.13,1.13,0,0,0,.13-.27,2.75,2.75,0,0,0,.16-.54c.05-.24.1-.52.14-.87s.06-.76.07-1.23h1.86v2.91h.46v1.33Zm-1-1.33V66h-.93c0,.19,0,.4,0,.62s0,.45-.08.67a5.82,5.82,0,0,1-.14.63,2.51,2.51,0,0,1-.18.51h1.37Zm3.81.2a1.46,1.46,0,0,1-.46.26,2,2,0,0,1-.6.09,1.28,1.28,0,0,1-.61-.13,1.13,1.13,0,0,1-.43-.35,1.91,1.91,0,0,1-.25-.56,3.26,3.26,0,0,1-.08-.73,2.08,2.08,0,0,1,.36-1.32,1.19,1.19,0,0,1,1-.45,1.51,1.51,0,0,1,.42,0,.81.81,0,0,1,.38.19,1,1,0,0,1,.27.4,1.88,1.88,0,0,1,.11.69,2.93,2.93,0,0,1,0,.49h-2a2.73,2.73,0,0,0,0,.53,1.17,1.17,0,0,0,.18.39.64.64,0,0,0,.3.24,1.08,1.08,0,0,0,.46.09,1.25,1.25,0,0,0,.42-.08,1,1,0,0,0,.32-.19l.18.39Zm-1.06-2.72a.79.79,0,0,0-.58.21,1.09,1.09,0,0,0-.27.71h1.54a1.11,1.11,0,0,0-.18-.72.66.66,0,0,0-.51-.2Zm2-.39h.34l.09.4h0a.89.89,0,0,1,.36-.36,1.11,1.11,0,0,1,.52-.13,1.1,1.1,0,0,1,.92.4,2.22,2.22,0,0,1,.3,1.31,2.66,2.66,0,0,1-.1.77,1.75,1.75,0,0,1-.29.58,1.26,1.26,0,0,1-1,.49,1.73,1.73,0,0,1-.36,0,1.53,1.53,0,0,1-.29-.11v1.41h-.49V65.5Zm1.25.39a.68.68,0,0,0-.5.18,1.05,1.05,0,0,0-.26.54v1.68a1.1,1.1,0,0,0,.26.15,1.22,1.22,0,0,0,.37,0,.8.8,0,0,0,.68-.35,1.74,1.74,0,0,0,.25-1,2.6,2.6,0,0,0,0-.5,1.38,1.38,0,0,0-.14-.39.82.82,0,0,0-.25-.24.72.72,0,0,0-.37-.09Zm3.06,1.49-.91,1.5h-.56l1-1.55.21-.2-.31-.26-.81-1.37H87L87.8,67h.32V65.5h.48V67l.29-.09.86-1.43h.52l-.84,1.37-.24.22.32.27.91,1.52h-.59l-.91-1.52H88.6v1.52h-.48V67.29l-.29.09Zm3.85,0h-.29v1.52H90.9V65.5h.49V67l.27-.09,1-1.43h.53l-1,1.36-.26.22.32.27,1,1.53h-.61Zm4.1-.48,0-.42h0l-.25.43-1.39,2h-.29V65.5h.5v2.06l0,.4h0l.24-.42,1.4-2h.29v3.38h-.5Z" transform="translate(-20.4 -18.74)"/><path class="cls-3" d="M37.43,73.07H36V76H35.5V72.59h2.44V76h-.51Zm1.5-.48h.36l.09.41h0a.94.94,0,0,1,.38-.36,1.08,1.08,0,0,1,.54-.13,1.16,1.16,0,0,1,1,.4,2.13,2.13,0,0,1,.32,1.31,2.65,2.65,0,0,1-.11.77,1.63,1.63,0,0,1-.3.57,1.28,1.28,0,0,1-.46.37,1.36,1.36,0,0,1-.61.13,1.77,1.77,0,0,1-.37,0,1.21,1.21,0,0,1-.3-.11v1.41h-.52V72.59Zm1.3.4a.73.73,0,0,0-.52.18,1,1,0,0,0-.26.54v1.68a.72.72,0,0,0,.26.14,1.09,1.09,0,0,0,.39,0,.85.85,0,0,0,.71-.34,1.76,1.76,0,0,0,.26-1,2.57,2.57,0,0,0,0-.5,1.38,1.38,0,0,0-.14-.39.74.74,0,0,0-.26-.24.8.8,0,0,0-.39-.09Zm4.52,2.72a1.55,1.55,0,0,1-.48.25,1.83,1.83,0,0,1-.62.1,1.41,1.41,0,0,1-.64-.13,1,1,0,0,1-.44-.36,1.56,1.56,0,0,1-.26-.55,3.26,3.26,0,0,1-.08-.73A2.08,2.08,0,0,1,42.59,73a1.27,1.27,0,0,1,1-.46,2.2,2.2,0,0,1,.44,0,.91.91,0,0,1,.39.2.93.93,0,0,1,.28.4,1.66,1.66,0,0,1,.11.69,2.93,2.93,0,0,1,0,.49H42.76a2.09,2.09,0,0,0,.06.53,1.17,1.17,0,0,0,.18.39.77.77,0,0,0,.32.24,1.14,1.14,0,0,0,.48.09,1.31,1.31,0,0,0,.43-.08,1,1,0,0,0,.33-.19l.19.39ZM43.65,73a.87.87,0,0,0-.61.21,1.09,1.09,0,0,0-.27.71h1.59a1.05,1.05,0,0,0-.19-.72.64.64,0,0,0-.52-.2Zm4.72,3.85H48L47.93,76H45.51l-.09.86h-.35V75.5h.38a2,2,0,0,0,.13-.26,3.34,3.34,0,0,0,.17-.55c0-.23.1-.52.14-.86s.06-.76.07-1.24H47.9V75.5h.47v1.34Zm-1-1.34V73.07h-1c0,.19,0,.39,0,.62s-.05.44-.09.67a4.13,4.13,0,0,1-.14.63,2.48,2.48,0,0,1-.19.51Zm3.55-2.43H49.52V76H49V72.59h2.44V76h-.51V73.07Zm1.5-.48h.36l.09.41h0a.94.94,0,0,1,.38-.36,1.08,1.08,0,0,1,.54-.13,1.14,1.14,0,0,1,1,.4,2.14,2.14,0,0,1,.31,1.31A2.25,2.25,0,0,1,55,75a1.75,1.75,0,0,1-.29.58,1.4,1.4,0,0,1-.47.37,1.51,1.51,0,0,1-.61.13,1.77,1.77,0,0,1-.37,0,1.38,1.38,0,0,1-.3-.11v1.41h-.52V72.59Zm1.3.4a.73.73,0,0,0-.52.17,1.09,1.09,0,0,0-.26.55v1.68a.72.72,0,0,0,.26.14,1.09,1.09,0,0,0,.39,0,.85.85,0,0,0,.71-.34,1.76,1.76,0,0,0,.26-1,2.57,2.57,0,0,0,0-.5,1.38,1.38,0,0,0-.14-.39.88.88,0,0,0-.26-.25.93.93,0,0,0-.39-.08Zm4.18,1,0-.42h0l-.26.44-1.45,2h-.29V72.59h.51v2.07l0,.4h0l.25-.42,1.44-2h.31V76h-.52Zm3.47.51H59.94V76h-.51V72.59h.51V74h1.45V72.59h.52V76h-.52ZM64.9,74l0-.42h0l-.26.44-1.45,2h-.3V72.59h.52v2.07l0,.4h0l.25-.42,1.44-2h.3V76H64.9Zm4.16,0,0-.65h0l-.23.52-.78,1.33h-.18l-.81-1.33-.21-.52h0l0,.64v2H66.4V72.59h.51l.9,1.52.19.39h0l.19-.4L69,72.59h.52V76h-.5Zm1.43-1.13a2.06,2.06,0,0,1,.57-.23,3.08,3.08,0,0,1,.68-.07,1.38,1.38,0,0,1,.54.09.88.88,0,0,1,.31.25.94.94,0,0,1,.14.34,2.19,2.19,0,0,1,0,.36c0,.27,0,.53,0,.79s0,.5,0,.73,0,.33,0,.48a2.48,2.48,0,0,0,.08.41h-.38l-.14-.47h0a1.19,1.19,0,0,1-.15.18.64.64,0,0,1-.2.16,1.26,1.26,0,0,1-.29.12,1.3,1.3,0,0,1-.36,0,1,1,0,0,1-.39-.07,1,1,0,0,1-.3-.19.88.88,0,0,1-.2-.3,1,1,0,0,1-.08-.4,1,1,0,0,1,.12-.5.89.89,0,0,1,.32-.32,1.73,1.73,0,0,1,.5-.17,4.29,4.29,0,0,1,.65,0h.18l.17,0a2.49,2.49,0,0,0,0-.37.72.72,0,0,0-.14-.52.67.67,0,0,0-.51-.15l-.24,0-.25,0-.26.07-.2.11-.16-.42Zm.92,2.72a1.07,1.07,0,0,0,.32,0,1.36,1.36,0,0,0,.24-.13.72.72,0,0,0,.17-.18.54.54,0,0,0,.1-.18v-.56h-.36a2.42,2.42,0,0,0-.39,0,1.53,1.53,0,0,0-.34.09.66.66,0,0,0-.23.17.45.45,0,0,0-.08.29.49.49,0,0,0,.16.38.53.53,0,0,0,.41.16Zm4.37-2.49h-1V76h-.51V73.07h-1v-.48h2.53v.48Zm2.75,2.63a1.38,1.38,0,0,1-.48.26,1.83,1.83,0,0,1-.62.1,1.55,1.55,0,0,1-.64-.13,1,1,0,0,1-.44-.36,1.56,1.56,0,0,1-.26-.55,2.8,2.8,0,0,1-.08-.74A2.06,2.06,0,0,1,76.37,73a1.27,1.27,0,0,1,1-.46,2.2,2.2,0,0,1,.44,0,1,1,0,0,1,.39.2.93.93,0,0,1,.28.4,1.66,1.66,0,0,1,.11.69,3,3,0,0,1,0,.49H76.54a2.15,2.15,0,0,0,.06.53,1.17,1.17,0,0,0,.18.39.87.87,0,0,0,.32.24,1.13,1.13,0,0,0,.47.08A1.11,1.11,0,0,0,78,75.5a.74.74,0,0,0,.33-.19l.19.4ZM77.43,73a.85.85,0,0,0-.61.21,1.09,1.09,0,0,0-.27.72h1.59a1.05,1.05,0,0,0-.19-.72.66.66,0,0,0-.52-.21Zm3.61.09h-.93c0,.19,0,.39,0,.61l-.06.65c0,.22-.06.43-.1.63a3.44,3.44,0,0,1-.17.54,1.08,1.08,0,0,1-.24.36.46.46,0,0,1-.35.14h-.21l-.16,0,.08-.45a.47.47,0,0,0,.17,0,.31.31,0,0,0,.23-.12,1,1,0,0,0,.18-.44,6.21,6.21,0,0,0,.12-.89c0-.38.06-.87.08-1.48h1.91V76H81V73.06Zm2,2.43a2.45,2.45,0,0,0,.46,0,.92.92,0,0,0,.6-.16.65.65,0,0,0,0-.92.79.79,0,0,0-.58-.18h-.24l-.24,0Zm0-1.62.3,0h.27a1.54,1.54,0,0,1,.56.08,1,1,0,0,1,.38.21.75.75,0,0,1,.21.32,1.29,1.29,0,0,1,.06.4,1.05,1.05,0,0,1-.35.89,1.76,1.76,0,0,1-1.09.28c-.27,0-.55,0-.85,0V72.59h.51v1.3Zm4.59,1.87a1.33,1.33,0,0,1-.46.23,2,2,0,0,1-.55.08,1.47,1.47,0,0,1-.63-.13,1,1,0,0,1-.42-.36,1.51,1.51,0,0,1-.24-.56,3.29,3.29,0,0,1-.07-.73A2.06,2.06,0,0,1,85.63,73a1.22,1.22,0,0,1,1-.46,2.65,2.65,0,0,1,.53,0,1.66,1.66,0,0,1,.39.15l-.15.46A1.62,1.62,0,0,0,87.1,73a1.23,1.23,0,0,0-.39-.06c-.6,0-.91.44-.91,1.3a2.46,2.46,0,0,0,0,.49,1.31,1.31,0,0,0,.16.42.81.81,0,0,0,.3.28.79.79,0,0,0,.45.11,1.07,1.07,0,0,0,.41-.07,1,1,0,0,0,.3-.17l.17.41Zm2.65-2.68h-1V76h-.52V73.07h-1v-.48h2.53Zm.51-.47.47,0,.62,0a1.52,1.52,0,0,1,.91.21.75.75,0,0,1,.27.63.87.87,0,0,1-.13.46.8.8,0,0,1-.43.34v0a.82.82,0,0,1,.53.28.85.85,0,0,1,.16.54.86.86,0,0,1-.36.77,2.07,2.07,0,0,1-1.08.23h-.5l-.46,0V72.6Zm.52,2.92.24,0h.28a1.16,1.16,0,0,0,.63-.13.48.48,0,0,0,.21-.44.51.51,0,0,0-.17-.39.94.94,0,0,0-.63-.16h-.56Zm.62-1.5a.59.59,0,0,0,.23,0,.78.78,0,0,0,.2-.11,1.15,1.15,0,0,0,.14-.17.46.46,0,0,0,0-.2.44.44,0,0,0-.15-.38,1,1,0,0,0-.54-.1h-.55v1Zm2-1.18a1.88,1.88,0,0,1,.56-.23,3.08,3.08,0,0,1,.68-.07,1.38,1.38,0,0,1,.54.09.88.88,0,0,1,.31.25,1,1,0,0,1,.14.33,2.4,2.4,0,0,1,0,.37c0,.27,0,.53,0,.79s0,.5,0,.73,0,.33,0,.48a2.48,2.48,0,0,0,.08.41H95.9l-.14-.47h0a1.19,1.19,0,0,1-.15.18.64.64,0,0,1-.2.16,1.26,1.26,0,0,1-.29.12,1.3,1.3,0,0,1-.36,0,1,1,0,0,1-.39-.07,1,1,0,0,1-.3-.19,1,1,0,0,1-.2-.3,1,1,0,0,1-.08-.4,1,1,0,0,1,.12-.5.89.89,0,0,1,.32-.32,1.73,1.73,0,0,1,.5-.17,4.29,4.29,0,0,1,.65,0h.18l.17,0a2.49,2.49,0,0,0,0-.37.72.72,0,0,0-.14-.52.67.67,0,0,0-.51-.15l-.24,0-.25,0a1.49,1.49,0,0,0-.25.07l-.21.1L94,72.84Zm.91,2.72a.83.83,0,0,0,.32-.06.9.9,0,0,0,.24-.12.72.72,0,0,0,.17-.18.54.54,0,0,0,.1-.18v-.56h-.36a2.42,2.42,0,0,0-.39,0,1.53,1.53,0,0,0-.34.09.66.66,0,0,0-.23.17.44.44,0,0,0-.08.28.5.5,0,0,0,.16.39.53.53,0,0,0,.41.16Z" transform="translate(-20.4 -18.74)"/></svg>